<?xml version="1.0" encoding="UTF-8" standalone="no"?>
<!DOCTYPE svg PUBLIC "-//W3C//DTD SVG 1.1//EN"
 "http://www.w3.org/Graphics/SVG/1.1/DTD/svg11.dtd">
<!-- Generated by graphviz version 2.40.1 (20161225.0304)
 -->
<!-- Title: oneDegreeRelationshipsDiagram Pages: 1 -->
<svg width="325pt" height="249pt"
 viewBox="0.00 0.00 325.00 248.70" xmlns="http://www.w3.org/2000/svg" xmlns:xlink="http://www.w3.org/1999/xlink">
<g id="graph0" class="graph" transform="scale(1 1) rotate(0) translate(4 244.7)">
<title>oneDegreeRelationshipsDiagram</title>
<polygon fill="#ffffff" stroke="transparent" points="-4,4 -4,-244.7 321,-244.7 321,4 -4,4"/>
<text text-anchor="middle" x="72.4936" y="-7.3" font-family="Helvetica,sans-Serif" font-size="11.00" fill="#000000">Generated by SchemaSpy</text>
<!-- skills -->
<g id="node1" class="node">
<title>skills</title>
<g id="a_node1"><a xlink:href="../../tables/skills.html" xlink:title="skills" target="_top">
<polygon fill="#ffffff" stroke="transparent" points="221,-87.7 221,-236.7 309,-236.7 309,-87.7 221,-87.7"/>
<polygon fill="#f5f5f5" stroke="transparent" points="221,-213.2 221,-236.2 309,-236.2 309,-213.2 221,-213.2"/>
<polygon fill="none" stroke="#000000" points="221,-213.2 221,-236.2 309,-236.2 309,-213.2 221,-213.2"/>
<text text-anchor="start" x="226" y="-222.3" font-family="Helvetica,sans-Serif" font-weight="bold" font-size="11.00" fill="#000000">skills</text>
<text text-anchor="start" x="274.0437" y="-221.3" font-family="Helvetica,sans-Serif" font-size="11.00" fill="#000000">[table]</text>
<polygon fill="none" stroke="#000000" points="221,-191.2 221,-213.2 309,-213.2 309,-191.2 221,-191.2"/>
<image xlink:href="../../images/primaryKeys.png" width="11px" height="12px" preserveAspectRatio="xMinYMin meet" x="226" y="-208.2"/>
<text text-anchor="start" x="241" y="-198.3" font-family="Helvetica,sans-Serif" font-size="11.00" fill="#000000">id</text>
<polygon fill="#ffffff" stroke="transparent" points="221,-169.2 221,-191.2 309,-191.2 309,-169.2 221,-169.2"/>
<polygon fill="none" stroke="#000000" points="221,-169.2 221,-191.2 309,-191.2 309,-169.2 221,-169.2"/>
<image xlink:href="../../images/foreignKeys.png" width="11px" height="12px" preserveAspectRatio="xMinYMin meet" x="226" y="-186.2"/>
<text text-anchor="start" x="241" y="-176.3" font-family="Helvetica,sans-Serif" font-size="11.00" fill="#000000">event_id</text>
<polygon fill="#ffffff" stroke="transparent" points="221,-147.2 221,-169.2 309,-169.2 309,-147.2 221,-147.2"/>
<polygon fill="none" stroke="#000000" points="221,-147.2 221,-169.2 309,-169.2 309,-147.2 221,-147.2"/>
<image xlink:href="../../images/foreignKeys.png" width="11px" height="12px" preserveAspectRatio="xMinYMin meet" x="226" y="-164.2"/>
<text text-anchor="start" x="241" y="-154.3" font-family="Helvetica,sans-Serif" font-size="11.00" fill="#000000">category_id</text>
<polygon fill="#ffffff" stroke="transparent" points="221,-125.2 221,-147.2 309,-147.2 309,-125.2 221,-125.2"/>
<polygon fill="none" stroke="#000000" points="221,-125.2 221,-147.2 309,-147.2 309,-125.2 221,-125.2"/>
<image xlink:href="../../images/foreignKeys.png" width="11px" height="12px" preserveAspectRatio="xMinYMin meet" x="226" y="-142.2"/>
<text text-anchor="start" x="241" y="-132.3" font-family="Helvetica,sans-Serif" font-size="11.00" fill="#000000">level_id</text>
<polygon fill="none" stroke="#000000" points="221,-106.2 221,-125.2 309,-125.2 309,-106.2 221,-106.2"/>
<text text-anchor="start" x="224" y="-112.3" font-family="Helvetica,sans-Serif" font-size="11.00" fill="#000000">...</text>
<polygon fill="#ffffff" stroke="transparent" points="221,-87.2 221,-106.2 246,-106.2 246,-87.2 221,-87.2"/>
<polygon fill="none" stroke="#000000" points="221,-87.2 221,-106.2 246,-106.2 246,-87.2 221,-87.2"/>
<text text-anchor="start" x="224" y="-93.3" font-family="Helvetica,sans-Serif" font-size="11.00" fill="#000000">&lt; 3</text>
<polygon fill="#ffffff" stroke="transparent" points="246,-87.2 246,-106.2 286,-106.2 286,-87.2 246,-87.2"/>
<polygon fill="none" stroke="#000000" points="246,-87.2 246,-106.2 286,-106.2 286,-87.2 246,-87.2"/>
<text text-anchor="start" x="250.6105" y="-93.3" font-family="Helvetica,sans-Serif" font-size="11.00" fill="#000000">0 rows</text>
<polygon fill="#ffffff" stroke="transparent" points="286,-87.2 286,-106.2 309,-106.2 309,-87.2 286,-87.2"/>
<polygon fill="none" stroke="#000000" points="286,-87.2 286,-106.2 309,-106.2 309,-87.2 286,-87.2"/>
<text text-anchor="start" x="290.4053" y="-93.3" font-family="Helvetica,sans-Serif" font-size="11.00" fill="#000000">1 &gt;</text>
</a>
</g>
</g>
<!-- categories -->
<g id="node2" class="node">
<title>categories</title>
<g id="a_node2"><a xlink:href="../../tables/categories.html" xlink:title="categories" target="_top">
<polygon fill="#ffffff" stroke="transparent" points="8,-38.2 8,-194.2 172,-194.2 172,-38.2 8,-38.2"/>
<polygon fill="#f5f5f5" stroke="transparent" points="10,-169.2 10,-192.2 170,-192.2 170,-169.2 10,-169.2"/>
<polygon fill="none" stroke="#000000" points="10,-169.2 10,-192.2 170,-192.2 170,-169.2 10,-169.2"/>
<text text-anchor="start" x="15" y="-178.3" font-family="Helvetica,sans-Serif" font-weight="bold" font-size="11.00" fill="#000000">categories</text>
<text text-anchor="start" x="135.0437" y="-177.3" font-family="Helvetica,sans-Serif" font-size="11.00" fill="#000000">[table]</text>
<polygon fill="none" stroke="#000000" points="10,-147.2 10,-169.2 95,-169.2 95,-147.2 10,-147.2"/>
<image xlink:href="../../images/primaryKeys.png" width="11px" height="12px" preserveAspectRatio="xMinYMin meet" x="15" y="-164.2"/>
<text text-anchor="start" x="30" y="-154.3" font-family="Helvetica,sans-Serif" font-size="11.00" fill="#000000">id</text>
<polygon fill="none" stroke="#000000" points="95,-147.2 95,-169.2 170,-169.2 170,-147.2 95,-147.2"/>
<text text-anchor="start" x="98" y="-154.9" font-family="Helvetica,sans-Serif" font-size="11.00" fill="#000000">bigint[19]</text>
<polygon fill="none" stroke="#000000" points="10,-125.2 10,-147.2 95,-147.2 95,-125.2 10,-125.2"/>
<text text-anchor="start" x="30" y="-132.3" font-family="Helvetica,sans-Serif" font-size="11.00" fill="#000000">name</text>
<polygon fill="none" stroke="#000000" points="95,-125.2 95,-147.2 170,-147.2 170,-125.2 95,-125.2"/>
<text text-anchor="start" x="98" y="-132.9" font-family="Helvetica,sans-Serif" font-size="11.00" fill="#000000">varchar[45]</text>
<polygon fill="none" stroke="#000000" points="10,-103.2 10,-125.2 95,-125.2 95,-103.2 10,-103.2"/>
<text text-anchor="start" x="30" y="-110.3" font-family="Helvetica,sans-Serif" font-size="11.00" fill="#000000">created_at</text>
<polygon fill="none" stroke="#000000" points="95,-103.2 95,-125.2 170,-125.2 170,-103.2 95,-103.2"/>
<text text-anchor="start" x="97.9666" y="-110.9" font-family="Helvetica,sans-Serif" font-size="11.00" fill="#000000">timestamp[19]</text>
<polygon fill="none" stroke="#000000" points="10,-81.2 10,-103.2 95,-103.2 95,-81.2 10,-81.2"/>
<text text-anchor="start" x="30" y="-88.3" font-family="Helvetica,sans-Serif" font-size="11.00" fill="#000000">updated_at</text>
<polygon fill="none" stroke="#000000" points="95,-81.2 95,-103.2 170,-103.2 170,-81.2 95,-81.2"/>
<text text-anchor="start" x="97.9666" y="-88.9" font-family="Helvetica,sans-Serif" font-size="11.00" fill="#000000">timestamp[19]</text>
<polygon fill="none" stroke="#000000" points="10,-59.2 10,-81.2 95,-81.2 95,-59.2 10,-59.2"/>
<text text-anchor="start" x="30" y="-66.3" font-family="Helvetica,sans-Serif" font-size="11.00" fill="#000000">deleted_at</text>
<polygon fill="none" stroke="#000000" points="95,-59.2 95,-81.2 170,-81.2 170,-59.2 95,-59.2"/>
<text text-anchor="start" x="97.9666" y="-66.9" font-family="Helvetica,sans-Serif" font-size="11.00" fill="#000000">timestamp[19]</text>
<polygon fill="#ffffff" stroke="transparent" points="10,-40.2 10,-59.2 44,-59.2 44,-40.2 10,-40.2"/>
<polygon fill="none" stroke="#000000" points="10,-40.2 10,-59.2 44,-59.2 44,-40.2 10,-40.2"/>
<text text-anchor="start" x="13" y="-46.3" font-family="Helvetica,sans-Serif" font-size="11.00" fill="#000000">&lt; 0</text>
<polygon fill="#ffffff" stroke="transparent" points="44,-40.2 44,-59.2 95,-59.2 95,-40.2 44,-40.2"/>
<polygon fill="none" stroke="#000000" points="44,-40.2 44,-59.2 95,-59.2 95,-40.2 44,-40.2"/>
<text text-anchor="start" x="59.6105" y="-46.3" font-family="Helvetica,sans-Serif" font-size="11.00" fill="#000000">0 rows</text>
<polygon fill="#ffffff" stroke="transparent" points="95,-40.2 95,-59.2 170,-59.2 170,-40.2 95,-40.2"/>
<polygon fill="none" stroke="#000000" points="95,-40.2 95,-59.2 170,-59.2 170,-40.2 95,-40.2"/>
<text text-anchor="start" x="151.4053" y="-46.3" font-family="Helvetica,sans-Serif" font-size="11.00" fill="#000000">1 &gt;</text>
<polygon fill="none" stroke="#000000" stroke-width="2" points="9,-39.2 9,-193.2 171,-193.2 171,-39.2 9,-39.2"/>
</a>
</g>
</g>
<!-- skills&#45;&gt;categories -->
<g id="edge1" class="edge">
<title>skills:w&#45;&gt;categories:e</title>
<path fill="none" stroke="#000000" d="M206.276,-158.2C194.2815,-158.2 186.8229,-158.2 170,-158.2"/>
<polygon fill="#000000" stroke="#000000" points="213,-158.2001 221,-161.8 217,-158.2 221,-158.2 221,-158.2 221,-158.2 217,-158.2 221,-154.6 213,-158.2001 213,-158.2001"/>
<ellipse fill="none" stroke="#000000" cx="209.8" cy="-158.2001" rx="3.2" ry="3.2"/>
</g>
</g>
</svg>
