<?xml version="1.0" encoding="UTF-8" standalone="no"?>
<!DOCTYPE svg PUBLIC "-//W3C//DTD SVG 1.1//EN"
 "http://www.w3.org/Graphics/SVG/1.1/DTD/svg11.dtd">
<!-- Generated by graphviz version 2.40.1 (20161225.0304)
 -->
<!-- Title: twoDegreesRelationshipsDiagram Pages: 1 -->
<svg width="512pt" height="371pt"
 viewBox="0.00 0.00 512.00 371.20" xmlns="http://www.w3.org/2000/svg" xmlns:xlink="http://www.w3.org/1999/xlink">
<g id="graph0" class="graph" transform="scale(1 1) rotate(0) translate(4 367.2)">
<title>twoDegreesRelationshipsDiagram</title>
<polygon fill="#ffffff" stroke="transparent" points="-4,4 -4,-367.2 508,-367.2 508,4 -4,4"/>
<text text-anchor="middle" x="72.4936" y="-7.3" font-family="Helvetica,sans-Serif" font-size="11.00" fill="#000000">Generated by SchemaSpy</text>
<!-- gymnast_has_skills -->
<g id="node1" class="node">
<title>gymnast_has_skills</title>
<g id="a_node1"><a xlink:href="../../tables/gymnast_has_skills.html" xlink:title="gymnast_has_skills" target="_top">
<polygon fill="#ffffff" stroke="transparent" points="358,-237.2 358,-298.2 496,-298.2 496,-237.2 358,-237.2"/>
<polygon fill="#f5f5f5" stroke="transparent" points="358,-274.7 358,-297.7 496,-297.7 496,-274.7 358,-274.7"/>
<polygon fill="none" stroke="#000000" points="358,-274.7 358,-297.7 496,-297.7 496,-274.7 358,-274.7"/>
<text text-anchor="start" x="362.8271" y="-283.8" font-family="Helvetica,sans-Serif" font-weight="bold" font-size="11.00" fill="#000000">gymnast_has_skills</text>
<text text-anchor="start" x="461.5219" y="-282.8" font-family="Helvetica,sans-Serif" font-size="11.00" fill="#000000">[table]</text>
<polygon fill="none" stroke="#000000" points="358,-255.7 358,-274.7 496,-274.7 496,-255.7 358,-255.7"/>
<text text-anchor="start" x="361" y="-261.8" font-family="Helvetica,sans-Serif" font-size="11.00" fill="#000000">...</text>
<polygon fill="#ffffff" stroke="transparent" points="358,-236.7 358,-255.7 412,-255.7 412,-236.7 358,-236.7"/>
<polygon fill="none" stroke="#000000" points="358,-236.7 358,-255.7 412,-255.7 412,-236.7 358,-236.7"/>
<text text-anchor="start" x="361" y="-242.8" font-family="Helvetica,sans-Serif" font-size="11.00" fill="#000000">&lt; 2</text>
<polygon fill="#ffffff" stroke="transparent" points="412,-236.7 412,-255.7 467,-255.7 467,-236.7 412,-236.7"/>
<polygon fill="none" stroke="#000000" points="412,-236.7 412,-255.7 467,-255.7 467,-236.7 412,-236.7"/>
<text text-anchor="start" x="431.6105" y="-242.8" font-family="Helvetica,sans-Serif" font-size="11.00" fill="#000000">0 rows</text>
<polygon fill="#ffffff" stroke="transparent" points="467,-236.7 467,-255.7 496,-255.7 496,-236.7 467,-236.7"/>
<polygon fill="none" stroke="#000000" points="467,-236.7 467,-255.7 496,-255.7 496,-236.7 467,-236.7"/>
<text text-anchor="start" x="486.8862" y="-242.8" font-family="Helvetica,sans-Serif" font-size="11.00" fill="#000000"> &#160;</text>
</a>
</g>
</g>
<!-- skills -->
<g id="node2" class="node">
<title>skills</title>
<g id="a_node2"><a xlink:href="../../tables/skills.html" xlink:title="skills" target="_top">
<polygon fill="#ffffff" stroke="transparent" points="221,-150.2 221,-299.2 309,-299.2 309,-150.2 221,-150.2"/>
<polygon fill="#f5f5f5" stroke="transparent" points="221,-275.7 221,-298.7 309,-298.7 309,-275.7 221,-275.7"/>
<polygon fill="none" stroke="#000000" points="221,-275.7 221,-298.7 309,-298.7 309,-275.7 221,-275.7"/>
<text text-anchor="start" x="226" y="-284.8" font-family="Helvetica,sans-Serif" font-weight="bold" font-size="11.00" fill="#000000">skills</text>
<text text-anchor="start" x="274.0437" y="-283.8" font-family="Helvetica,sans-Serif" font-size="11.00" fill="#000000">[table]</text>
<polygon fill="none" stroke="#000000" points="221,-253.7 221,-275.7 309,-275.7 309,-253.7 221,-253.7"/>
<image xlink:href="../../images/primaryKeys.png" width="11px" height="12px" preserveAspectRatio="xMinYMin meet" x="226" y="-270.7"/>
<text text-anchor="start" x="241" y="-260.8" font-family="Helvetica,sans-Serif" font-size="11.00" fill="#000000">id</text>
<polygon fill="#ffffff" stroke="transparent" points="221,-231.7 221,-253.7 309,-253.7 309,-231.7 221,-231.7"/>
<polygon fill="none" stroke="#000000" points="221,-231.7 221,-253.7 309,-253.7 309,-231.7 221,-231.7"/>
<image xlink:href="../../images/foreignKeys.png" width="11px" height="12px" preserveAspectRatio="xMinYMin meet" x="226" y="-248.7"/>
<text text-anchor="start" x="241" y="-238.8" font-family="Helvetica,sans-Serif" font-size="11.00" fill="#000000">event_id</text>
<polygon fill="#ffffff" stroke="transparent" points="221,-209.7 221,-231.7 309,-231.7 309,-209.7 221,-209.7"/>
<polygon fill="none" stroke="#000000" points="221,-209.7 221,-231.7 309,-231.7 309,-209.7 221,-209.7"/>
<image xlink:href="../../images/foreignKeys.png" width="11px" height="12px" preserveAspectRatio="xMinYMin meet" x="226" y="-226.7"/>
<text text-anchor="start" x="241" y="-216.8" font-family="Helvetica,sans-Serif" font-size="11.00" fill="#000000">category_id</text>
<polygon fill="#ffffff" stroke="transparent" points="221,-187.7 221,-209.7 309,-209.7 309,-187.7 221,-187.7"/>
<polygon fill="none" stroke="#000000" points="221,-187.7 221,-209.7 309,-209.7 309,-187.7 221,-187.7"/>
<image xlink:href="../../images/foreignKeys.png" width="11px" height="12px" preserveAspectRatio="xMinYMin meet" x="226" y="-204.7"/>
<text text-anchor="start" x="241" y="-194.8" font-family="Helvetica,sans-Serif" font-size="11.00" fill="#000000">level_id</text>
<polygon fill="none" stroke="#000000" points="221,-168.7 221,-187.7 309,-187.7 309,-168.7 221,-168.7"/>
<text text-anchor="start" x="224" y="-174.8" font-family="Helvetica,sans-Serif" font-size="11.00" fill="#000000">...</text>
<polygon fill="#ffffff" stroke="transparent" points="221,-149.7 221,-168.7 246,-168.7 246,-149.7 221,-149.7"/>
<polygon fill="none" stroke="#000000" points="221,-149.7 221,-168.7 246,-168.7 246,-149.7 221,-149.7"/>
<text text-anchor="start" x="224" y="-155.8" font-family="Helvetica,sans-Serif" font-size="11.00" fill="#000000">&lt; 3</text>
<polygon fill="#ffffff" stroke="transparent" points="246,-149.7 246,-168.7 286,-168.7 286,-149.7 246,-149.7"/>
<polygon fill="none" stroke="#000000" points="246,-149.7 246,-168.7 286,-168.7 286,-149.7 246,-149.7"/>
<text text-anchor="start" x="250.6105" y="-155.8" font-family="Helvetica,sans-Serif" font-size="11.00" fill="#000000">0 rows</text>
<polygon fill="#ffffff" stroke="transparent" points="286,-149.7 286,-168.7 309,-168.7 309,-149.7 286,-149.7"/>
<polygon fill="none" stroke="#000000" points="286,-149.7 286,-168.7 309,-168.7 309,-149.7 286,-149.7"/>
<text text-anchor="start" x="290.4053" y="-155.8" font-family="Helvetica,sans-Serif" font-size="11.00" fill="#000000">2 &gt;</text>
</a>
</g>
</g>
<!-- gymnast_has_skills&#45;&gt;skills -->
<g id="edge1" class="edge">
<title>gymnast_has_skills:w&#45;&gt;skills:e</title>
<path fill="none" stroke="#000000" d="M343.4909,-264.7C332.1774,-264.7 324.9931,-264.7 309,-264.7"/>
<polygon fill="#000000" stroke="#000000" points="350,-264.7001 358,-268.3 354,-264.7 358,-264.7 358,-264.7 358,-264.7 354,-264.7 358,-261.1 350,-264.7001 350,-264.7001"/>
<ellipse fill="none" stroke="#000000" cx="346.8" cy="-264.7001" rx="3.2" ry="3.2"/>
</g>
<!-- levels -->
<g id="node4" class="node">
<title>levels</title>
<g id="a_node4"><a xlink:href="../../tables/levels.html" xlink:title="levels" target="_top">
<polygon fill="#ffffff" stroke="transparent" points="54.5,-38.2 54.5,-99.2 125.5,-99.2 125.5,-38.2 54.5,-38.2"/>
<polygon fill="#f5f5f5" stroke="transparent" points="55,-75.7 55,-98.7 126,-98.7 126,-75.7 55,-75.7"/>
<polygon fill="none" stroke="#000000" points="55,-75.7 55,-98.7 126,-98.7 126,-75.7 55,-75.7"/>
<text text-anchor="start" x="59.9442" y="-84.8" font-family="Helvetica,sans-Serif" font-weight="bold" font-size="11.00" fill="#000000">levels</text>
<text text-anchor="start" x="91.5219" y="-83.8" font-family="Helvetica,sans-Serif" font-size="11.00" fill="#000000">[table]</text>
<polygon fill="none" stroke="#000000" points="55,-56.7 55,-75.7 126,-75.7 126,-56.7 55,-56.7"/>
<text text-anchor="start" x="58" y="-62.8" font-family="Helvetica,sans-Serif" font-size="11.00" fill="#000000">...</text>
<polygon fill="#ffffff" stroke="transparent" points="55,-37.7 55,-56.7 67,-56.7 67,-37.7 55,-37.7"/>
<polygon fill="none" stroke="#000000" points="55,-37.7 55,-56.7 67,-56.7 67,-37.7 55,-37.7"/>
<text text-anchor="start" x="57.9431" y="-43.8" font-family="Helvetica,sans-Serif" font-size="11.00" fill="#000000"> &#160;</text>
<polygon fill="#ffffff" stroke="transparent" points="67,-37.7 67,-56.7 105,-56.7 105,-37.7 67,-37.7"/>
<polygon fill="none" stroke="#000000" points="67,-37.7 67,-56.7 105,-56.7 105,-37.7 67,-37.7"/>
<text text-anchor="start" x="69.8053" y="-43.8" font-family="Helvetica,sans-Serif" font-size="11.00" fill="#000000">0 rows</text>
<polygon fill="#ffffff" stroke="transparent" points="105,-37.7 105,-56.7 126,-56.7 126,-37.7 105,-37.7"/>
<polygon fill="none" stroke="#000000" points="105,-37.7 105,-56.7 126,-56.7 126,-37.7 105,-37.7"/>
<text text-anchor="start" x="107.7027" y="-43.8" font-family="Helvetica,sans-Serif" font-size="11.00" fill="#000000">2 &gt;</text>
</a>
</g>
</g>
<!-- skills&#45;&gt;levels -->
<g id="edge6" class="edge">
<title>skills:w&#45;&gt;levels:e</title>
<path fill="none" stroke="#000000" d="M206.587,-195.6699C184.5648,-183.7483 202.9289,-139.2807 180,-109.7 161.0338,-85.2316 156.9584,-65.7 126,-65.7"/>
<polygon fill="#000000" stroke="#000000" points="213.1711,-197.0541 220.2593,-202.223 217.0856,-197.877 221,-198.7 221,-198.7 221,-198.7 217.0856,-197.877 221.7407,-195.177 213.1711,-197.0541 213.1711,-197.0541"/>
<ellipse fill="none" stroke="#000000" cx="210.0396" cy="-196.3957" rx="3.2" ry="3.2"/>
</g>
<!-- categories -->
<g id="node5" class="node">
<title>categories</title>
<g id="a_node5"><a xlink:href="../../tables/categories.html" xlink:title="categories" target="_top">
<polygon fill="#ffffff" stroke="transparent" points="8,-120.7 8,-276.7 172,-276.7 172,-120.7 8,-120.7"/>
<polygon fill="#f5f5f5" stroke="transparent" points="10,-251.7 10,-274.7 170,-274.7 170,-251.7 10,-251.7"/>
<polygon fill="none" stroke="#000000" points="10,-251.7 10,-274.7 170,-274.7 170,-251.7 10,-251.7"/>
<text text-anchor="start" x="15" y="-260.8" font-family="Helvetica,sans-Serif" font-weight="bold" font-size="11.00" fill="#000000">categories</text>
<text text-anchor="start" x="135.0437" y="-259.8" font-family="Helvetica,sans-Serif" font-size="11.00" fill="#000000">[table]</text>
<polygon fill="none" stroke="#000000" points="10,-229.7 10,-251.7 95,-251.7 95,-229.7 10,-229.7"/>
<image xlink:href="../../images/primaryKeys.png" width="11px" height="12px" preserveAspectRatio="xMinYMin meet" x="15" y="-246.7"/>
<text text-anchor="start" x="30" y="-236.8" font-family="Helvetica,sans-Serif" font-size="11.00" fill="#000000">id</text>
<polygon fill="none" stroke="#000000" points="95,-229.7 95,-251.7 170,-251.7 170,-229.7 95,-229.7"/>
<text text-anchor="start" x="98" y="-237.4" font-family="Helvetica,sans-Serif" font-size="11.00" fill="#000000">bigint[19]</text>
<polygon fill="none" stroke="#000000" points="10,-207.7 10,-229.7 95,-229.7 95,-207.7 10,-207.7"/>
<text text-anchor="start" x="30" y="-214.8" font-family="Helvetica,sans-Serif" font-size="11.00" fill="#000000">name</text>
<polygon fill="none" stroke="#000000" points="95,-207.7 95,-229.7 170,-229.7 170,-207.7 95,-207.7"/>
<text text-anchor="start" x="98" y="-215.4" font-family="Helvetica,sans-Serif" font-size="11.00" fill="#000000">varchar[45]</text>
<polygon fill="none" stroke="#000000" points="10,-185.7 10,-207.7 95,-207.7 95,-185.7 10,-185.7"/>
<text text-anchor="start" x="30" y="-192.8" font-family="Helvetica,sans-Serif" font-size="11.00" fill="#000000">created_at</text>
<polygon fill="none" stroke="#000000" points="95,-185.7 95,-207.7 170,-207.7 170,-185.7 95,-185.7"/>
<text text-anchor="start" x="97.9666" y="-193.4" font-family="Helvetica,sans-Serif" font-size="11.00" fill="#000000">timestamp[19]</text>
<polygon fill="none" stroke="#000000" points="10,-163.7 10,-185.7 95,-185.7 95,-163.7 10,-163.7"/>
<text text-anchor="start" x="30" y="-170.8" font-family="Helvetica,sans-Serif" font-size="11.00" fill="#000000">updated_at</text>
<polygon fill="none" stroke="#000000" points="95,-163.7 95,-185.7 170,-185.7 170,-163.7 95,-163.7"/>
<text text-anchor="start" x="97.9666" y="-171.4" font-family="Helvetica,sans-Serif" font-size="11.00" fill="#000000">timestamp[19]</text>
<polygon fill="none" stroke="#000000" points="10,-141.7 10,-163.7 95,-163.7 95,-141.7 10,-141.7"/>
<text text-anchor="start" x="30" y="-148.8" font-family="Helvetica,sans-Serif" font-size="11.00" fill="#000000">deleted_at</text>
<polygon fill="none" stroke="#000000" points="95,-141.7 95,-163.7 170,-163.7 170,-141.7 95,-141.7"/>
<text text-anchor="start" x="97.9666" y="-149.4" font-family="Helvetica,sans-Serif" font-size="11.00" fill="#000000">timestamp[19]</text>
<polygon fill="#ffffff" stroke="transparent" points="10,-122.7 10,-141.7 44,-141.7 44,-122.7 10,-122.7"/>
<polygon fill="none" stroke="#000000" points="10,-122.7 10,-141.7 44,-141.7 44,-122.7 10,-122.7"/>
<text text-anchor="start" x="13" y="-128.8" font-family="Helvetica,sans-Serif" font-size="11.00" fill="#000000">&lt; 0</text>
<polygon fill="#ffffff" stroke="transparent" points="44,-122.7 44,-141.7 95,-141.7 95,-122.7 44,-122.7"/>
<polygon fill="none" stroke="#000000" points="44,-122.7 44,-141.7 95,-141.7 95,-122.7 44,-122.7"/>
<text text-anchor="start" x="59.6105" y="-128.8" font-family="Helvetica,sans-Serif" font-size="11.00" fill="#000000">0 rows</text>
<polygon fill="#ffffff" stroke="transparent" points="95,-122.7 95,-141.7 170,-141.7 170,-122.7 95,-122.7"/>
<polygon fill="none" stroke="#000000" points="95,-122.7 95,-141.7 170,-141.7 170,-122.7 95,-122.7"/>
<text text-anchor="start" x="151.4053" y="-128.8" font-family="Helvetica,sans-Serif" font-size="11.00" fill="#000000">1 &gt;</text>
<polygon fill="none" stroke="#000000" stroke-width="2" points="9,-121.7 9,-275.7 171,-275.7 171,-121.7 9,-121.7"/>
</a>
</g>
</g>
<!-- skills&#45;&gt;categories -->
<g id="edge4" class="edge">
<title>skills:w&#45;&gt;categories:e</title>
<path fill="none" stroke="#000000" d="M206.5625,-223.6511C194.2432,-229.2144 188.4507,-240.7 170,-240.7"/>
<polygon fill="#000000" stroke="#000000" points="213.1621,-222.3021 221.721,-224.2271 217.081,-221.5011 221,-220.7 221,-220.7 221,-220.7 217.081,-221.5011 220.279,-217.1729 213.1621,-222.3021 213.1621,-222.3021"/>
<ellipse fill="none" stroke="#000000" cx="210.0269" cy="-222.943" rx="3.2" ry="3.2"/>
</g>
<!-- events -->
<g id="node6" class="node">
<title>events</title>
<g id="a_node6"><a xlink:href="../../tables/events.html" xlink:title="events" target="_top">
<polygon fill="#ffffff" stroke="transparent" points="50,-298.2 50,-359.2 130,-359.2 130,-298.2 50,-298.2"/>
<polygon fill="#f5f5f5" stroke="transparent" points="50,-335.7 50,-358.7 130,-358.7 130,-335.7 50,-335.7"/>
<polygon fill="none" stroke="#000000" points="50,-335.7 50,-358.7 130,-358.7 130,-335.7 50,-335.7"/>
<text text-anchor="start" x="55" y="-344.8" font-family="Helvetica,sans-Serif" font-weight="bold" font-size="11.00" fill="#000000">events</text>
<text text-anchor="start" x="95.0437" y="-343.8" font-family="Helvetica,sans-Serif" font-size="11.00" fill="#000000">[table]</text>
<polygon fill="none" stroke="#000000" points="50,-316.7 50,-335.7 130,-335.7 130,-316.7 50,-316.7"/>
<text text-anchor="start" x="53" y="-322.8" font-family="Helvetica,sans-Serif" font-size="11.00" fill="#000000">...</text>
<polygon fill="#ffffff" stroke="transparent" points="50,-297.7 50,-316.7 71,-316.7 71,-297.7 50,-297.7"/>
<polygon fill="none" stroke="#000000" points="50,-297.7 50,-316.7 71,-316.7 71,-297.7 50,-297.7"/>
<text text-anchor="start" x="52.7027" y="-303.8" font-family="Helvetica,sans-Serif" font-size="11.00" fill="#000000">&lt; 1</text>
<polygon fill="#ffffff" stroke="transparent" points="71,-297.7 71,-316.7 109,-316.7 109,-297.7 71,-297.7"/>
<polygon fill="none" stroke="#000000" points="71,-297.7 71,-316.7 109,-316.7 109,-297.7 71,-297.7"/>
<text text-anchor="start" x="73.8053" y="-303.8" font-family="Helvetica,sans-Serif" font-size="11.00" fill="#000000">0 rows</text>
<polygon fill="#ffffff" stroke="transparent" points="109,-297.7 109,-316.7 130,-316.7 130,-297.7 109,-297.7"/>
<polygon fill="none" stroke="#000000" points="109,-297.7 109,-316.7 130,-316.7 130,-297.7 109,-297.7"/>
<text text-anchor="start" x="111.7027" y="-303.8" font-family="Helvetica,sans-Serif" font-size="11.00" fill="#000000">1 &gt;</text>
</a>
</g>
</g>
<!-- skills&#45;&gt;events -->
<g id="edge5" class="edge">
<title>skills:w&#45;&gt;events:e</title>
<path fill="none" stroke="#000000" d="M207.0168,-246.408C195.3379,-254.3808 195.4412,-273.5761 180,-287.7 159.4045,-306.5385 157.9117,-325.7 130,-325.7"/>
<polygon fill="#000000" stroke="#000000" points="213.2673,-244.7506 221.9228,-246.1797 217.1336,-243.7253 221,-242.7 221,-242.7 221,-242.7 217.1336,-243.7253 220.0772,-239.2203 213.2673,-244.7506 213.2673,-244.7506"/>
<ellipse fill="none" stroke="#000000" cx="210.1742" cy="-245.5708" rx="3.2" ry="3.2"/>
</g>
<!-- skill_has_levels -->
<g id="node3" class="node">
<title>skill_has_levels</title>
<g id="a_node3"><a xlink:href="../../tables/skill_has_levels.html" xlink:title="skill_has_levels" target="_top">
<polygon fill="#ffffff" stroke="transparent" points="367.5,-117.2 367.5,-178.2 486.5,-178.2 486.5,-117.2 367.5,-117.2"/>
<polygon fill="#f5f5f5" stroke="transparent" points="368,-154.7 368,-177.7 487,-177.7 487,-154.7 368,-154.7"/>
<polygon fill="none" stroke="#000000" points="368,-154.7 368,-177.7 487,-177.7 487,-154.7 368,-154.7"/>
<text text-anchor="start" x="372.8031" y="-163.8" font-family="Helvetica,sans-Serif" font-weight="bold" font-size="11.00" fill="#000000">skill_has_levels</text>
<text text-anchor="start" x="452.5219" y="-162.8" font-family="Helvetica,sans-Serif" font-size="11.00" fill="#000000">[table]</text>
<polygon fill="none" stroke="#000000" points="368,-135.7 368,-154.7 487,-154.7 487,-135.7 368,-135.7"/>
<text text-anchor="start" x="371" y="-141.8" font-family="Helvetica,sans-Serif" font-size="11.00" fill="#000000">...</text>
<polygon fill="#ffffff" stroke="transparent" points="368,-116.7 368,-135.7 413,-135.7 413,-116.7 368,-116.7"/>
<polygon fill="none" stroke="#000000" points="368,-116.7 368,-135.7 413,-135.7 413,-116.7 368,-116.7"/>
<text text-anchor="start" x="371" y="-122.8" font-family="Helvetica,sans-Serif" font-size="11.00" fill="#000000">&lt; 2</text>
<polygon fill="#ffffff" stroke="transparent" points="413,-116.7 413,-135.7 463,-135.7 463,-116.7 413,-116.7"/>
<polygon fill="none" stroke="#000000" points="413,-116.7 413,-135.7 463,-135.7 463,-116.7 413,-116.7"/>
<text text-anchor="start" x="427.6105" y="-122.8" font-family="Helvetica,sans-Serif" font-size="11.00" fill="#000000">0 rows</text>
<polygon fill="#ffffff" stroke="transparent" points="463,-116.7 463,-135.7 487,-135.7 487,-116.7 463,-116.7"/>
<polygon fill="none" stroke="#000000" points="463,-116.7 463,-135.7 487,-135.7 487,-116.7 463,-116.7"/>
<text text-anchor="start" x="477.8862" y="-122.8" font-family="Helvetica,sans-Serif" font-size="11.00" fill="#000000"> &#160;</text>
</a>
</g>
</g>
<!-- skill_has_levels&#45;&gt;skills -->
<g id="edge3" class="edge">
<title>skill_has_levels:w&#45;&gt;skills:e</title>
<path fill="none" stroke="#000000" d="M353.7794,-147.9097C319.1231,-166.9931 362.6272,-264.7 309,-264.7"/>
<polygon fill="#000000" stroke="#000000" points="360.1963,-146.4614 368.7926,-148.2117 364.0982,-145.5807 368,-144.7 368,-144.7 368,-144.7 364.0982,-145.5807 367.2074,-141.1883 360.1963,-146.4614 360.1963,-146.4614"/>
<ellipse fill="none" stroke="#000000" cx="357.0748" cy="-147.166" rx="3.2" ry="3.2"/>
</g>
<!-- skill_has_levels&#45;&gt;levels -->
<g id="edge2" class="edge">
<title>skill_has_levels:w&#45;&gt;levels:e</title>
<path fill="none" stroke="#000000" d="M353.3246,-144.2361C253.2499,-137.7618 234.0589,-65.7 126,-65.7"/>
<polygon fill="#000000" stroke="#000000" points="360.004,-144.4472 367.8862,-148.2982 364.002,-144.5736 368,-144.7 368,-144.7 368,-144.7 364.002,-144.5736 368.1138,-141.1018 360.004,-144.4472 360.004,-144.4472"/>
<ellipse fill="none" stroke="#000000" cx="356.8056" cy="-144.346" rx="3.2" ry="3.2"/>
</g>
</g>
</svg>
