<?xml version="1.0" encoding="UTF-8" standalone="no"?>
<!DOCTYPE svg PUBLIC "-//W3C//DTD SVG 1.1//EN"
 "http://www.w3.org/Graphics/SVG/1.1/DTD/svg11.dtd">
<!-- Generated by graphviz version 2.40.1 (20161225.0304)
 -->
<!-- Title: twoDegreesRelationshipsDiagram Pages: 1 -->
<svg width="514pt" height="371pt"
 viewBox="0.00 0.00 514.00 371.20" xmlns="http://www.w3.org/2000/svg" xmlns:xlink="http://www.w3.org/1999/xlink">
<g id="graph0" class="graph" transform="scale(1 1) rotate(0) translate(4 367.2)">
<title>twoDegreesRelationshipsDiagram</title>
<polygon fill="#ffffff" stroke="transparent" points="-4,4 -4,-367.2 510,-367.2 510,4 -4,4"/>
<text text-anchor="middle" x="72.4936" y="-7.3" font-family="Helvetica,sans-Serif" font-size="11.00" fill="#000000">Generated by SchemaSpy</text>
<!-- gymnast_has_skills -->
<g id="node1" class="node">
<title>gymnast_has_skills</title>
<g id="a_node1"><a xlink:href="../../tables/gymnast_has_skills.html" xlink:title="gymnast_has_skills" target="_top">
<polygon fill="#ffffff" stroke="transparent" points="359,-298.2 359,-359.2 497,-359.2 497,-298.2 359,-298.2"/>
<polygon fill="#f5f5f5" stroke="transparent" points="359,-335.7 359,-358.7 497,-358.7 497,-335.7 359,-335.7"/>
<polygon fill="none" stroke="#000000" points="359,-335.7 359,-358.7 497,-358.7 497,-335.7 359,-335.7"/>
<text text-anchor="start" x="363.8271" y="-344.8" font-family="Helvetica,sans-Serif" font-weight="bold" font-size="11.00" fill="#000000">gymnast_has_skills</text>
<text text-anchor="start" x="462.5219" y="-343.8" font-family="Helvetica,sans-Serif" font-size="11.00" fill="#000000">[table]</text>
<polygon fill="none" stroke="#000000" points="359,-316.7 359,-335.7 497,-335.7 497,-316.7 359,-316.7"/>
<text text-anchor="start" x="362" y="-322.8" font-family="Helvetica,sans-Serif" font-size="11.00" fill="#000000">...</text>
<polygon fill="#ffffff" stroke="transparent" points="359,-297.7 359,-316.7 413,-316.7 413,-297.7 359,-297.7"/>
<polygon fill="none" stroke="#000000" points="359,-297.7 359,-316.7 413,-316.7 413,-297.7 359,-297.7"/>
<text text-anchor="start" x="362" y="-303.8" font-family="Helvetica,sans-Serif" font-size="11.00" fill="#000000">&lt; 2</text>
<polygon fill="#ffffff" stroke="transparent" points="413,-297.7 413,-316.7 468,-316.7 468,-297.7 413,-297.7"/>
<polygon fill="none" stroke="#000000" points="413,-297.7 413,-316.7 468,-316.7 468,-297.7 413,-297.7"/>
<text text-anchor="start" x="432.6105" y="-303.8" font-family="Helvetica,sans-Serif" font-size="11.00" fill="#000000">0 rows</text>
<polygon fill="#ffffff" stroke="transparent" points="468,-297.7 468,-316.7 497,-316.7 497,-297.7 468,-297.7"/>
<polygon fill="none" stroke="#000000" points="468,-297.7 468,-316.7 497,-316.7 497,-297.7 468,-297.7"/>
<text text-anchor="start" x="487.8862" y="-303.8" font-family="Helvetica,sans-Serif" font-size="11.00" fill="#000000"> &#160;</text>
</a>
</g>
</g>
<!-- skills -->
<g id="node2" class="node">
<title>skills</title>
<g id="a_node2"><a xlink:href="../../tables/skills.html" xlink:title="skills" target="_top">
<polygon fill="#ffffff" stroke="transparent" points="221,-170.2 221,-319.2 309,-319.2 309,-170.2 221,-170.2"/>
<polygon fill="#f5f5f5" stroke="transparent" points="221,-295.7 221,-318.7 309,-318.7 309,-295.7 221,-295.7"/>
<polygon fill="none" stroke="#000000" points="221,-295.7 221,-318.7 309,-318.7 309,-295.7 221,-295.7"/>
<text text-anchor="start" x="226" y="-304.8" font-family="Helvetica,sans-Serif" font-weight="bold" font-size="11.00" fill="#000000">skills</text>
<text text-anchor="start" x="274.0437" y="-303.8" font-family="Helvetica,sans-Serif" font-size="11.00" fill="#000000">[table]</text>
<polygon fill="none" stroke="#000000" points="221,-273.7 221,-295.7 309,-295.7 309,-273.7 221,-273.7"/>
<image xlink:href="../../images/primaryKeys.png" width="11px" height="12px" preserveAspectRatio="xMinYMin meet" x="226" y="-290.7"/>
<text text-anchor="start" x="241" y="-280.8" font-family="Helvetica,sans-Serif" font-size="11.00" fill="#000000">id</text>
<polygon fill="#ffffff" stroke="transparent" points="221,-251.7 221,-273.7 309,-273.7 309,-251.7 221,-251.7"/>
<polygon fill="none" stroke="#000000" points="221,-251.7 221,-273.7 309,-273.7 309,-251.7 221,-251.7"/>
<image xlink:href="../../images/foreignKeys.png" width="11px" height="12px" preserveAspectRatio="xMinYMin meet" x="226" y="-268.7"/>
<text text-anchor="start" x="241" y="-258.8" font-family="Helvetica,sans-Serif" font-size="11.00" fill="#000000">event_id</text>
<polygon fill="#ffffff" stroke="transparent" points="221,-229.7 221,-251.7 309,-251.7 309,-229.7 221,-229.7"/>
<polygon fill="none" stroke="#000000" points="221,-229.7 221,-251.7 309,-251.7 309,-229.7 221,-229.7"/>
<image xlink:href="../../images/foreignKeys.png" width="11px" height="12px" preserveAspectRatio="xMinYMin meet" x="226" y="-246.7"/>
<text text-anchor="start" x="241" y="-236.8" font-family="Helvetica,sans-Serif" font-size="11.00" fill="#000000">category_id</text>
<polygon fill="#ffffff" stroke="transparent" points="221,-207.7 221,-229.7 309,-229.7 309,-207.7 221,-207.7"/>
<polygon fill="none" stroke="#000000" points="221,-207.7 221,-229.7 309,-229.7 309,-207.7 221,-207.7"/>
<image xlink:href="../../images/foreignKeys.png" width="11px" height="12px" preserveAspectRatio="xMinYMin meet" x="226" y="-224.7"/>
<text text-anchor="start" x="241" y="-214.8" font-family="Helvetica,sans-Serif" font-size="11.00" fill="#000000">level_id</text>
<polygon fill="none" stroke="#000000" points="221,-188.7 221,-207.7 309,-207.7 309,-188.7 221,-188.7"/>
<text text-anchor="start" x="224" y="-194.8" font-family="Helvetica,sans-Serif" font-size="11.00" fill="#000000">...</text>
<polygon fill="#ffffff" stroke="transparent" points="221,-169.7 221,-188.7 246,-188.7 246,-169.7 221,-169.7"/>
<polygon fill="none" stroke="#000000" points="221,-169.7 221,-188.7 246,-188.7 246,-169.7 221,-169.7"/>
<text text-anchor="start" x="224" y="-175.8" font-family="Helvetica,sans-Serif" font-size="11.00" fill="#000000">&lt; 3</text>
<polygon fill="#ffffff" stroke="transparent" points="246,-169.7 246,-188.7 286,-188.7 286,-169.7 246,-169.7"/>
<polygon fill="none" stroke="#000000" points="246,-169.7 246,-188.7 286,-188.7 286,-169.7 246,-169.7"/>
<text text-anchor="start" x="250.6105" y="-175.8" font-family="Helvetica,sans-Serif" font-size="11.00" fill="#000000">0 rows</text>
<polygon fill="#ffffff" stroke="transparent" points="286,-169.7 286,-188.7 309,-188.7 309,-169.7 286,-169.7"/>
<polygon fill="none" stroke="#000000" points="286,-169.7 286,-188.7 309,-188.7 309,-169.7 286,-169.7"/>
<text text-anchor="start" x="290.4053" y="-175.8" font-family="Helvetica,sans-Serif" font-size="11.00" fill="#000000">2 &gt;</text>
</a>
</g>
</g>
<!-- gymnast_has_skills&#45;&gt;skills -->
<g id="edge1" class="edge">
<title>gymnast_has_skills:w&#45;&gt;skills:e</title>
<path fill="none" stroke="#000000" d="M344.9684,-320.9968C331.8046,-310.2274 331.6761,-284.7 309,-284.7"/>
<polygon fill="#000000" stroke="#000000" points="351.4148,-323.1575 357.8559,-329.1134 355.2074,-324.4287 359,-325.7 359,-325.7 359,-325.7 355.2074,-324.4287 360.1441,-322.2866 351.4148,-323.1575 351.4148,-323.1575"/>
<ellipse fill="none" stroke="#000000" cx="348.3807" cy="-322.1405" rx="3.2" ry="3.2"/>
</g>
<!-- categories -->
<g id="node4" class="node">
<title>categories</title>
<g id="a_node4"><a xlink:href="../../tables/categories.html" xlink:title="categories" target="_top">
<polygon fill="#ffffff" stroke="transparent" points="8,-120.7 8,-276.7 172,-276.7 172,-120.7 8,-120.7"/>
<polygon fill="#f5f5f5" stroke="transparent" points="10,-251.7 10,-274.7 170,-274.7 170,-251.7 10,-251.7"/>
<polygon fill="none" stroke="#000000" points="10,-251.7 10,-274.7 170,-274.7 170,-251.7 10,-251.7"/>
<text text-anchor="start" x="15" y="-260.8" font-family="Helvetica,sans-Serif" font-weight="bold" font-size="11.00" fill="#000000">categories</text>
<text text-anchor="start" x="135.0437" y="-259.8" font-family="Helvetica,sans-Serif" font-size="11.00" fill="#000000">[table]</text>
<polygon fill="none" stroke="#000000" points="10,-229.7 10,-251.7 95,-251.7 95,-229.7 10,-229.7"/>
<image xlink:href="../../images/primaryKeys.png" width="11px" height="12px" preserveAspectRatio="xMinYMin meet" x="15" y="-246.7"/>
<text text-anchor="start" x="30" y="-236.8" font-family="Helvetica,sans-Serif" font-size="11.00" fill="#000000">id</text>
<polygon fill="none" stroke="#000000" points="95,-229.7 95,-251.7 170,-251.7 170,-229.7 95,-229.7"/>
<text text-anchor="start" x="98" y="-237.4" font-family="Helvetica,sans-Serif" font-size="11.00" fill="#000000">bigint[19]</text>
<polygon fill="none" stroke="#000000" points="10,-207.7 10,-229.7 95,-229.7 95,-207.7 10,-207.7"/>
<text text-anchor="start" x="30" y="-214.8" font-family="Helvetica,sans-Serif" font-size="11.00" fill="#000000">name</text>
<polygon fill="none" stroke="#000000" points="95,-207.7 95,-229.7 170,-229.7 170,-207.7 95,-207.7"/>
<text text-anchor="start" x="98" y="-215.4" font-family="Helvetica,sans-Serif" font-size="11.00" fill="#000000">varchar[45]</text>
<polygon fill="none" stroke="#000000" points="10,-185.7 10,-207.7 95,-207.7 95,-185.7 10,-185.7"/>
<text text-anchor="start" x="30" y="-192.8" font-family="Helvetica,sans-Serif" font-size="11.00" fill="#000000">created_at</text>
<polygon fill="none" stroke="#000000" points="95,-185.7 95,-207.7 170,-207.7 170,-185.7 95,-185.7"/>
<text text-anchor="start" x="97.9666" y="-193.4" font-family="Helvetica,sans-Serif" font-size="11.00" fill="#000000">timestamp[19]</text>
<polygon fill="none" stroke="#000000" points="10,-163.7 10,-185.7 95,-185.7 95,-163.7 10,-163.7"/>
<text text-anchor="start" x="30" y="-170.8" font-family="Helvetica,sans-Serif" font-size="11.00" fill="#000000">updated_at</text>
<polygon fill="none" stroke="#000000" points="95,-163.7 95,-185.7 170,-185.7 170,-163.7 95,-163.7"/>
<text text-anchor="start" x="97.9666" y="-171.4" font-family="Helvetica,sans-Serif" font-size="11.00" fill="#000000">timestamp[19]</text>
<polygon fill="none" stroke="#000000" points="10,-141.7 10,-163.7 95,-163.7 95,-141.7 10,-141.7"/>
<text text-anchor="start" x="30" y="-148.8" font-family="Helvetica,sans-Serif" font-size="11.00" fill="#000000">deleted_at</text>
<polygon fill="none" stroke="#000000" points="95,-141.7 95,-163.7 170,-163.7 170,-141.7 95,-141.7"/>
<text text-anchor="start" x="97.9666" y="-149.4" font-family="Helvetica,sans-Serif" font-size="11.00" fill="#000000">timestamp[19]</text>
<polygon fill="#ffffff" stroke="transparent" points="10,-122.7 10,-141.7 44,-141.7 44,-122.7 10,-122.7"/>
<polygon fill="none" stroke="#000000" points="10,-122.7 10,-141.7 44,-141.7 44,-122.7 10,-122.7"/>
<text text-anchor="start" x="13" y="-128.8" font-family="Helvetica,sans-Serif" font-size="11.00" fill="#000000">&lt; 0</text>
<polygon fill="#ffffff" stroke="transparent" points="44,-122.7 44,-141.7 95,-141.7 95,-122.7 44,-122.7"/>
<polygon fill="none" stroke="#000000" points="44,-122.7 44,-141.7 95,-141.7 95,-122.7 44,-122.7"/>
<text text-anchor="start" x="59.6105" y="-128.8" font-family="Helvetica,sans-Serif" font-size="11.00" fill="#000000">0 rows</text>
<polygon fill="#ffffff" stroke="transparent" points="95,-122.7 95,-141.7 170,-141.7 170,-122.7 95,-122.7"/>
<polygon fill="none" stroke="#000000" points="95,-122.7 95,-141.7 170,-141.7 170,-122.7 95,-122.7"/>
<text text-anchor="start" x="151.4053" y="-128.8" font-family="Helvetica,sans-Serif" font-size="11.00" fill="#000000">1 &gt;</text>
<polygon fill="none" stroke="#000000" stroke-width="2" points="9,-121.7 9,-275.7 171,-275.7 171,-121.7 9,-121.7"/>
</a>
</g>
</g>
<!-- skills&#45;&gt;categories -->
<g id="edge3" class="edge">
<title>skills:w&#45;&gt;categories:e</title>
<path fill="none" stroke="#000000" d="M206.276,-240.7C194.2815,-240.7 186.8229,-240.7 170,-240.7"/>
<polygon fill="#000000" stroke="#000000" points="213,-240.7001 221,-244.3 217,-240.7 221,-240.7 221,-240.7 221,-240.7 217,-240.7 221,-237.1 213,-240.7001 213,-240.7001"/>
<ellipse fill="none" stroke="#000000" cx="209.8" cy="-240.7001" rx="3.2" ry="3.2"/>
</g>
<!-- events -->
<g id="node5" class="node">
<title>events</title>
<g id="a_node5"><a xlink:href="../../tables/events.html" xlink:title="events" target="_top">
<polygon fill="#ffffff" stroke="transparent" points="50,-298.2 50,-359.2 130,-359.2 130,-298.2 50,-298.2"/>
<polygon fill="#f5f5f5" stroke="transparent" points="50,-335.7 50,-358.7 130,-358.7 130,-335.7 50,-335.7"/>
<polygon fill="none" stroke="#000000" points="50,-335.7 50,-358.7 130,-358.7 130,-335.7 50,-335.7"/>
<text text-anchor="start" x="55" y="-344.8" font-family="Helvetica,sans-Serif" font-weight="bold" font-size="11.00" fill="#000000">events</text>
<text text-anchor="start" x="95.0437" y="-343.8" font-family="Helvetica,sans-Serif" font-size="11.00" fill="#000000">[table]</text>
<polygon fill="none" stroke="#000000" points="50,-316.7 50,-335.7 130,-335.7 130,-316.7 50,-316.7"/>
<text text-anchor="start" x="53" y="-322.8" font-family="Helvetica,sans-Serif" font-size="11.00" fill="#000000">...</text>
<polygon fill="#ffffff" stroke="transparent" points="50,-297.7 50,-316.7 71,-316.7 71,-297.7 50,-297.7"/>
<polygon fill="none" stroke="#000000" points="50,-297.7 50,-316.7 71,-316.7 71,-297.7 50,-297.7"/>
<text text-anchor="start" x="52.7027" y="-303.8" font-family="Helvetica,sans-Serif" font-size="11.00" fill="#000000">&lt; 1</text>
<polygon fill="#ffffff" stroke="transparent" points="71,-297.7 71,-316.7 109,-316.7 109,-297.7 71,-297.7"/>
<polygon fill="none" stroke="#000000" points="71,-297.7 71,-316.7 109,-316.7 109,-297.7 71,-297.7"/>
<text text-anchor="start" x="73.8053" y="-303.8" font-family="Helvetica,sans-Serif" font-size="11.00" fill="#000000">0 rows</text>
<polygon fill="#ffffff" stroke="transparent" points="109,-297.7 109,-316.7 130,-316.7 130,-297.7 109,-297.7"/>
<polygon fill="none" stroke="#000000" points="109,-297.7 109,-316.7 130,-316.7 130,-297.7 109,-297.7"/>
<text text-anchor="start" x="111.7027" y="-303.8" font-family="Helvetica,sans-Serif" font-size="11.00" fill="#000000">1 &gt;</text>
</a>
</g>
</g>
<!-- skills&#45;&gt;events -->
<g id="edge4" class="edge">
<title>skills:w&#45;&gt;events:e</title>
<path fill="none" stroke="#000000" d="M207.3124,-267.4352C182.8449,-282.0866 150.4642,-325.7 130,-325.7"/>
<polygon fill="#000000" stroke="#000000" points="213.4396,-265.3155 222.177,-266.1022 217.2198,-264.0078 221,-262.7 221,-262.7 221,-262.7 217.2198,-264.0078 219.823,-259.2978 213.4396,-265.3155 213.4396,-265.3155"/>
<ellipse fill="none" stroke="#000000" cx="210.4155" cy="-266.3618" rx="3.2" ry="3.2"/>
</g>
<!-- levels -->
<g id="node6" class="node">
<title>levels</title>
<g id="a_node6"><a xlink:href="../../tables/levels.html" xlink:title="levels" target="_top">
<polygon fill="#ffffff" stroke="transparent" points="54.5,-38.2 54.5,-99.2 125.5,-99.2 125.5,-38.2 54.5,-38.2"/>
<polygon fill="#f5f5f5" stroke="transparent" points="55,-75.7 55,-98.7 126,-98.7 126,-75.7 55,-75.7"/>
<polygon fill="none" stroke="#000000" points="55,-75.7 55,-98.7 126,-98.7 126,-75.7 55,-75.7"/>
<text text-anchor="start" x="59.9442" y="-84.8" font-family="Helvetica,sans-Serif" font-weight="bold" font-size="11.00" fill="#000000">levels</text>
<text text-anchor="start" x="91.5219" y="-83.8" font-family="Helvetica,sans-Serif" font-size="11.00" fill="#000000">[table]</text>
<polygon fill="none" stroke="#000000" points="55,-56.7 55,-75.7 126,-75.7 126,-56.7 55,-56.7"/>
<text text-anchor="start" x="58" y="-62.8" font-family="Helvetica,sans-Serif" font-size="11.00" fill="#000000">...</text>
<polygon fill="#ffffff" stroke="transparent" points="55,-37.7 55,-56.7 67,-56.7 67,-37.7 55,-37.7"/>
<polygon fill="none" stroke="#000000" points="55,-37.7 55,-56.7 67,-56.7 67,-37.7 55,-37.7"/>
<text text-anchor="start" x="57.9431" y="-43.8" font-family="Helvetica,sans-Serif" font-size="11.00" fill="#000000"> &#160;</text>
<polygon fill="#ffffff" stroke="transparent" points="67,-37.7 67,-56.7 105,-56.7 105,-37.7 67,-37.7"/>
<polygon fill="none" stroke="#000000" points="67,-37.7 67,-56.7 105,-56.7 105,-37.7 67,-37.7"/>
<text text-anchor="start" x="69.8053" y="-43.8" font-family="Helvetica,sans-Serif" font-size="11.00" fill="#000000">0 rows</text>
<polygon fill="#ffffff" stroke="transparent" points="105,-37.7 105,-56.7 126,-56.7 126,-37.7 105,-37.7"/>
<polygon fill="none" stroke="#000000" points="105,-37.7 105,-56.7 126,-56.7 126,-37.7 105,-37.7"/>
<text text-anchor="start" x="107.7027" y="-43.8" font-family="Helvetica,sans-Serif" font-size="11.00" fill="#000000">1 &gt;</text>
</a>
</g>
</g>
<!-- skills&#45;&gt;levels -->
<g id="edge5" class="edge">
<title>skills:w&#45;&gt;levels:e</title>
<path fill="none" stroke="#000000" d="M206.7421,-216.2551C177.6118,-203.8454 206.7946,-146.9612 180,-109.7 161.9258,-84.5655 156.9584,-65.7 126,-65.7"/>
<polygon fill="#000000" stroke="#000000" points="213.1151,-217.3479 220.3915,-222.2482 217.0575,-218.0239 221,-218.7 221,-218.7 221,-218.7 217.0575,-218.0239 221.6085,-215.1518 213.1151,-217.3479 213.1151,-217.3479"/>
<ellipse fill="none" stroke="#000000" cx="209.9611" cy="-216.807" rx="3.2" ry="3.2"/>
</g>
<!-- skill_lists_has_skills -->
<g id="node3" class="node">
<title>skill_lists_has_skills</title>
<g id="a_node3"><a xlink:href="../../tables/skill_lists_has_skills.html" xlink:title="skill_lists_has_skills" target="_top">
<polygon fill="#ffffff" stroke="transparent" points="358,-216.2 358,-277.2 498,-277.2 498,-216.2 358,-216.2"/>
<polygon fill="#f5f5f5" stroke="transparent" points="358,-253.7 358,-276.7 498,-276.7 498,-253.7 358,-253.7"/>
<polygon fill="none" stroke="#000000" points="358,-253.7 358,-276.7 498,-276.7 498,-253.7 358,-253.7"/>
<text text-anchor="start" x="362.9207" y="-262.8" font-family="Helvetica,sans-Serif" font-weight="bold" font-size="11.00" fill="#000000">skill_lists_has_skills</text>
<text text-anchor="start" x="463.5219" y="-261.8" font-family="Helvetica,sans-Serif" font-size="11.00" fill="#000000">[table]</text>
<polygon fill="none" stroke="#000000" points="358,-234.7 358,-253.7 498,-253.7 498,-234.7 358,-234.7"/>
<text text-anchor="start" x="361" y="-240.8" font-family="Helvetica,sans-Serif" font-size="11.00" fill="#000000">...</text>
<polygon fill="#ffffff" stroke="transparent" points="358,-215.7 358,-234.7 413,-234.7 413,-215.7 358,-215.7"/>
<polygon fill="none" stroke="#000000" points="358,-215.7 358,-234.7 413,-234.7 413,-215.7 358,-215.7"/>
<text text-anchor="start" x="361" y="-221.8" font-family="Helvetica,sans-Serif" font-size="11.00" fill="#000000">&lt; 2</text>
<polygon fill="#ffffff" stroke="transparent" points="413,-215.7 413,-234.7 468,-234.7 468,-215.7 413,-215.7"/>
<polygon fill="none" stroke="#000000" points="413,-215.7 413,-234.7 468,-234.7 468,-215.7 413,-215.7"/>
<text text-anchor="start" x="432.6105" y="-221.8" font-family="Helvetica,sans-Serif" font-size="11.00" fill="#000000">0 rows</text>
<polygon fill="#ffffff" stroke="transparent" points="468,-215.7 468,-234.7 498,-234.7 498,-215.7 468,-215.7"/>
<polygon fill="none" stroke="#000000" points="468,-215.7 468,-234.7 498,-234.7 498,-215.7 468,-215.7"/>
<text text-anchor="start" x="488.8862" y="-221.8" font-family="Helvetica,sans-Serif" font-size="11.00" fill="#000000"> &#160;</text>
</a>
</g>
</g>
<!-- skill_lists_has_skills&#45;&gt;skills -->
<g id="edge2" class="edge">
<title>skill_lists_has_skills:w&#45;&gt;skills:e</title>
<path fill="none" stroke="#000000" d="M344.1819,-248.4032C331.2811,-259.1726 331.4061,-284.7 309,-284.7"/>
<polygon fill="#000000" stroke="#000000" points="350.4267,-246.2778 359.16,-247.108 354.2133,-244.9889 358,-243.7 358,-243.7 358,-243.7 354.2133,-244.9889 356.84,-240.292 350.4267,-246.2778 350.4267,-246.2778"/>
<ellipse fill="none" stroke="#000000" cx="347.3973" cy="-247.3089" rx="3.2" ry="3.2"/>
</g>
</g>
</svg>
