<?xml version="1.0" encoding="UTF-8" standalone="no"?>
<!DOCTYPE svg PUBLIC "-//W3C//DTD SVG 1.1//EN"
 "http://www.w3.org/Graphics/SVG/1.1/DTD/svg11.dtd">
<!-- Generated by graphviz version 2.40.1 (20161225.0304)
 -->
<!-- Title: twoDegreesRelationshipsDiagram Pages: 1 -->
<svg width="1112pt" height="514pt"
 viewBox="0.00 0.00 1112.00 514.10" xmlns="http://www.w3.org/2000/svg" xmlns:xlink="http://www.w3.org/1999/xlink">
<g id="graph0" class="graph" transform="scale(1 1) rotate(0) translate(4 510.0983)">
<title>twoDegreesRelationshipsDiagram</title>
<polygon fill="#ffffff" stroke="transparent" points="-4,4 -4,-510.0983 1108,-510.0983 1108,4 -4,4"/>
<text text-anchor="middle" x="72.4936" y="-7.3" font-family="Helvetica,sans-Serif" font-size="11.00" fill="#000000">Generated by SchemaSpy</text>
<!-- challenges -->
<g id="node1" class="node">
<title>challenges</title>
<g id="a_node1"><a xlink:href="../../tables/challenges.html" xlink:title="challenges" target="_top">
<polygon fill="#ffffff" stroke="transparent" points="451,-175.0983 451,-463.0983 671,-463.0983 671,-175.0983 451,-175.0983"/>
<polygon fill="#f5f5f5" stroke="transparent" points="453,-438.0983 453,-461.0983 669,-461.0983 669,-438.0983 453,-438.0983"/>
<polygon fill="none" stroke="#000000" points="453,-438.0983 453,-461.0983 669,-461.0983 669,-438.0983 453,-438.0983"/>
<text text-anchor="start" x="458" y="-447.1983" font-family="Helvetica,sans-Serif" font-weight="bold" font-size="11.00" fill="#000000">challenges</text>
<text text-anchor="start" x="634.0437" y="-446.1983" font-family="Helvetica,sans-Serif" font-size="11.00" fill="#000000">[table]</text>
<polygon fill="none" stroke="#000000" points="453,-416.0983 453,-438.0983 552,-438.0983 552,-416.0983 453,-416.0983"/>
<image xlink:href="../../images/primaryKeys.png" width="11px" height="12px" preserveAspectRatio="xMinYMin meet" x="458" y="-433.098"/>
<text text-anchor="start" x="473" y="-423.1983" font-family="Helvetica,sans-Serif" font-size="11.00" fill="#000000">id</text>
<polygon fill="none" stroke="#000000" points="552,-416.0983 552,-438.0983 669,-438.0983 669,-416.0983 552,-416.0983"/>
<text text-anchor="start" x="555" y="-423.7983" font-family="Helvetica,sans-Serif" font-size="11.00" fill="#000000">bigint[19]</text>
<polygon fill="none" stroke="#000000" points="453,-394.0983 453,-416.0983 552,-416.0983 552,-394.0983 453,-394.0983"/>
<text text-anchor="start" x="473" y="-401.1983" font-family="Helvetica,sans-Serif" font-size="11.00" fill="#000000">name</text>
<polygon fill="none" stroke="#000000" points="552,-394.0983 552,-416.0983 669,-416.0983 669,-394.0983 552,-394.0983"/>
<text text-anchor="start" x="555" y="-401.7983" font-family="Helvetica,sans-Serif" font-size="11.00" fill="#000000">varchar[45]</text>
<polygon fill="none" stroke="#000000" points="453,-372.0983 453,-394.0983 552,-394.0983 552,-372.0983 453,-372.0983"/>
<text text-anchor="start" x="473" y="-379.1983" font-family="Helvetica,sans-Serif" font-size="11.00" fill="#000000">description</text>
<polygon fill="none" stroke="#000000" points="552,-372.0983 552,-394.0983 669,-394.0983 669,-372.0983 552,-372.0983"/>
<text text-anchor="start" x="554.5645" y="-379.7983" font-family="Helvetica,sans-Serif" font-size="11.00" fill="#000000">mediumtext[16777215]</text>
<polygon fill="none" stroke="#000000" points="453,-350.0983 453,-372.0983 552,-372.0983 552,-350.0983 453,-350.0983"/>
<text text-anchor="start" x="473" y="-357.1983" font-family="Helvetica,sans-Serif" font-size="11.00" fill="#000000">points</text>
<polygon fill="none" stroke="#000000" points="552,-350.0983 552,-372.0983 669,-372.0983 669,-350.0983 552,-350.0983"/>
<text text-anchor="start" x="555" y="-357.7983" font-family="Helvetica,sans-Serif" font-size="11.00" fill="#000000">int[10]</text>
<polygon fill="#ffffff" stroke="transparent" points="453,-328.0983 453,-350.0983 552,-350.0983 552,-328.0983 453,-328.0983"/>
<polygon fill="none" stroke="#000000" points="453,-328.0983 453,-350.0983 552,-350.0983 552,-328.0983 453,-328.0983"/>
<image xlink:href="../../images/foreignKeys.png" width="11px" height="12px" preserveAspectRatio="xMinYMin meet" x="458" y="-345.098"/>
<text text-anchor="start" x="473" y="-335.1983" font-family="Helvetica,sans-Serif" font-size="11.00" fill="#000000">gym_id</text>
<polygon fill="none" stroke="#000000" points="552,-328.0983 552,-350.0983 669,-350.0983 669,-328.0983 552,-328.0983"/>
<text text-anchor="start" x="555" y="-335.7983" font-family="Helvetica,sans-Serif" font-size="11.00" fill="#000000">bigint[19]</text>
<polygon fill="#ffffff" stroke="transparent" points="453,-306.0983 453,-328.0983 552,-328.0983 552,-306.0983 453,-306.0983"/>
<polygon fill="none" stroke="#000000" points="453,-306.0983 453,-328.0983 552,-328.0983 552,-306.0983 453,-306.0983"/>
<image xlink:href="../../images/foreignKeys.png" width="11px" height="12px" preserveAspectRatio="xMinYMin meet" x="458" y="-323.098"/>
<text text-anchor="start" x="473" y="-313.1983" font-family="Helvetica,sans-Serif" font-size="11.00" fill="#000000">class_id</text>
<polygon fill="none" stroke="#000000" points="552,-306.0983 552,-328.0983 669,-328.0983 669,-306.0983 552,-306.0983"/>
<text text-anchor="start" x="555" y="-313.7983" font-family="Helvetica,sans-Serif" font-size="11.00" fill="#000000">bigint[19]</text>
<polygon fill="none" stroke="#000000" points="453,-284.0983 453,-306.0983 552,-306.0983 552,-284.0983 453,-284.0983"/>
<text text-anchor="start" x="473" y="-291.1983" font-family="Helvetica,sans-Serif" font-size="11.00" fill="#000000">is_featured</text>
<polygon fill="none" stroke="#000000" points="552,-284.0983 552,-306.0983 669,-306.0983 669,-284.0983 552,-284.0983"/>
<text text-anchor="start" x="555" y="-291.7983" font-family="Helvetica,sans-Serif" font-size="11.00" fill="#000000">bit[1]</text>
<polygon fill="none" stroke="#000000" points="453,-262.0983 453,-284.0983 552,-284.0983 552,-262.0983 453,-262.0983"/>
<text text-anchor="start" x="473" y="-269.1983" font-family="Helvetica,sans-Serif" font-size="11.00" fill="#000000">featured_date</text>
<polygon fill="none" stroke="#000000" points="552,-262.0983 552,-284.0983 669,-284.0983 669,-262.0983 552,-262.0983"/>
<text text-anchor="start" x="555" y="-269.7983" font-family="Helvetica,sans-Serif" font-size="11.00" fill="#000000">date[10]</text>
<polygon fill="none" stroke="#000000" points="453,-240.0983 453,-262.0983 552,-262.0983 552,-240.0983 453,-240.0983"/>
<text text-anchor="start" x="473" y="-247.1983" font-family="Helvetica,sans-Serif" font-size="11.00" fill="#000000">created_at</text>
<polygon fill="none" stroke="#000000" points="552,-240.0983 552,-262.0983 669,-262.0983 669,-240.0983 552,-240.0983"/>
<text text-anchor="start" x="555" y="-247.7983" font-family="Helvetica,sans-Serif" font-size="11.00" fill="#000000">timestamp[19]</text>
<polygon fill="none" stroke="#000000" points="453,-218.0983 453,-240.0983 552,-240.0983 552,-218.0983 453,-218.0983"/>
<text text-anchor="start" x="473" y="-225.1983" font-family="Helvetica,sans-Serif" font-size="11.00" fill="#000000">updated_at</text>
<polygon fill="none" stroke="#000000" points="552,-218.0983 552,-240.0983 669,-240.0983 669,-218.0983 552,-218.0983"/>
<text text-anchor="start" x="555" y="-225.7983" font-family="Helvetica,sans-Serif" font-size="11.00" fill="#000000">timestamp[19]</text>
<polygon fill="none" stroke="#000000" points="453,-196.0983 453,-218.0983 552,-218.0983 552,-196.0983 453,-196.0983"/>
<text text-anchor="start" x="473" y="-203.1983" font-family="Helvetica,sans-Serif" font-size="11.00" fill="#000000">deleted_at</text>
<polygon fill="none" stroke="#000000" points="552,-196.0983 552,-218.0983 669,-218.0983 669,-196.0983 552,-196.0983"/>
<text text-anchor="start" x="555" y="-203.7983" font-family="Helvetica,sans-Serif" font-size="11.00" fill="#000000">timestamp[19]</text>
<polygon fill="#ffffff" stroke="transparent" points="453,-177.0983 453,-196.0983 494,-196.0983 494,-177.0983 453,-177.0983"/>
<polygon fill="none" stroke="#000000" points="453,-177.0983 453,-196.0983 494,-196.0983 494,-177.0983 453,-177.0983"/>
<text text-anchor="start" x="456" y="-183.1983" font-family="Helvetica,sans-Serif" font-size="11.00" fill="#000000">&lt; 2</text>
<polygon fill="#ffffff" stroke="transparent" points="494,-177.0983 494,-196.0983 552,-196.0983 552,-177.0983 494,-177.0983"/>
<polygon fill="none" stroke="#000000" points="494,-177.0983 494,-196.0983 552,-196.0983 552,-177.0983 494,-177.0983"/>
<text text-anchor="start" x="516.6105" y="-183.1983" font-family="Helvetica,sans-Serif" font-size="11.00" fill="#000000">0 rows</text>
<polygon fill="#ffffff" stroke="transparent" points="552,-177.0983 552,-196.0983 669,-196.0983 669,-177.0983 552,-177.0983"/>
<polygon fill="none" stroke="#000000" points="552,-177.0983 552,-196.0983 669,-196.0983 669,-177.0983 552,-177.0983"/>
<text text-anchor="start" x="650.4053" y="-183.1983" font-family="Helvetica,sans-Serif" font-size="11.00" fill="#000000">2 &gt;</text>
<polygon fill="none" stroke="#000000" stroke-width="2" points="452,-176.0983 452,-462.0983 670,-462.0983 670,-176.0983 452,-176.0983"/>
</a>
</g>
</g>
<!-- classes -->
<g id="node2" class="node">
<title>classes</title>
<g id="a_node2"><a xlink:href="../../tables/classes.html" xlink:title="classes" target="_top">
<polygon fill="#ffffff" stroke="transparent" points="317,-209.5983 317,-314.5983 402,-314.5983 402,-209.5983 317,-209.5983"/>
<polygon fill="#f5f5f5" stroke="transparent" points="317.5,-291.0983 317.5,-314.0983 402.5,-314.0983 402.5,-291.0983 317.5,-291.0983"/>
<polygon fill="none" stroke="#000000" points="317.5,-291.0983 317.5,-314.0983 402.5,-314.0983 402.5,-291.0983 317.5,-291.0983"/>
<text text-anchor="start" x="322.5" y="-300.1983" font-family="Helvetica,sans-Serif" font-weight="bold" font-size="11.00" fill="#000000">classes</text>
<text text-anchor="start" x="367.5437" y="-299.1983" font-family="Helvetica,sans-Serif" font-size="11.00" fill="#000000">[table]</text>
<polygon fill="none" stroke="#000000" points="317.5,-269.0983 317.5,-291.0983 402.5,-291.0983 402.5,-269.0983 317.5,-269.0983"/>
<image xlink:href="../../images/primaryKeys.png" width="11px" height="12px" preserveAspectRatio="xMinYMin meet" x="322.5" y="-286.098"/>
<text text-anchor="start" x="337.5" y="-276.1983" font-family="Helvetica,sans-Serif" font-size="11.00" fill="#000000">id</text>
<polygon fill="#ffffff" stroke="transparent" points="317.5,-247.0983 317.5,-269.0983 402.5,-269.0983 402.5,-247.0983 317.5,-247.0983"/>
<polygon fill="none" stroke="#000000" points="317.5,-247.0983 317.5,-269.0983 402.5,-269.0983 402.5,-247.0983 317.5,-247.0983"/>
<image xlink:href="../../images/foreignKeys.png" width="11px" height="12px" preserveAspectRatio="xMinYMin meet" x="322.5" y="-264.098"/>
<text text-anchor="start" x="337.5" y="-254.1983" font-family="Helvetica,sans-Serif" font-size="11.00" fill="#000000">skill_list_id</text>
<polygon fill="none" stroke="#000000" points="317.5,-228.0983 317.5,-247.0983 402.5,-247.0983 402.5,-228.0983 317.5,-228.0983"/>
<text text-anchor="start" x="320.5" y="-234.1983" font-family="Helvetica,sans-Serif" font-size="11.00" fill="#000000">...</text>
<polygon fill="#ffffff" stroke="transparent" points="317.5,-209.0983 317.5,-228.0983 340.5,-228.0983 340.5,-209.0983 317.5,-209.0983"/>
<polygon fill="none" stroke="#000000" points="317.5,-209.0983 317.5,-228.0983 340.5,-228.0983 340.5,-209.0983 317.5,-209.0983"/>
<text text-anchor="start" x="320.5" y="-215.1983" font-family="Helvetica,sans-Serif" font-size="11.00" fill="#000000">&lt; 1</text>
<polygon fill="#ffffff" stroke="transparent" points="340.5,-209.0983 340.5,-228.0983 379.5,-228.0983 379.5,-209.0983 340.5,-209.0983"/>
<polygon fill="none" stroke="#000000" points="340.5,-209.0983 340.5,-228.0983 379.5,-228.0983 379.5,-209.0983 340.5,-209.0983"/>
<text text-anchor="start" x="344.1105" y="-215.1983" font-family="Helvetica,sans-Serif" font-size="11.00" fill="#000000">0 rows</text>
<polygon fill="#ffffff" stroke="transparent" points="379.5,-209.0983 379.5,-228.0983 402.5,-228.0983 402.5,-209.0983 379.5,-209.0983"/>
<polygon fill="none" stroke="#000000" points="379.5,-209.0983 379.5,-228.0983 402.5,-228.0983 402.5,-209.0983 379.5,-209.0983"/>
<text text-anchor="start" x="383.9053" y="-215.1983" font-family="Helvetica,sans-Serif" font-size="11.00" fill="#000000">4 &gt;</text>
</a>
</g>
</g>
<!-- challenges&#45;&gt;classes -->
<g id="edge1" class="edge">
<title>challenges:w&#45;&gt;classes:e</title>
<path fill="none" stroke="#000000" d="M439.1749,-312.8539C425.8807,-303.1352 424.4548,-280.0983 402.5,-280.0983"/>
<polygon fill="#000000" stroke="#000000" points="445.3523,-314.7503 451.9434,-320.5397 449.1761,-315.9243 453,-317.0983 453,-317.0983 453,-317.0983 449.1761,-315.9243 454.0566,-313.6568 445.3523,-314.7503 445.3523,-314.7503"/>
<ellipse fill="none" stroke="#000000" cx="442.2932" cy="-313.8112" rx="3.2" ry="3.2"/>
</g>
<!-- gyms -->
<g id="node3" class="node">
<title>gyms</title>
<g id="a_node3"><a xlink:href="../../tables/gyms.html" xlink:title="gyms" target="_top">
<polygon fill="#ffffff" stroke="transparent" points="8,-180.5983 8,-263.5983 93,-263.5983 93,-180.5983 8,-180.5983"/>
<polygon fill="#f5f5f5" stroke="transparent" points="8.5,-240.0983 8.5,-263.0983 93.5,-263.0983 93.5,-240.0983 8.5,-240.0983"/>
<polygon fill="none" stroke="#000000" points="8.5,-240.0983 8.5,-263.0983 93.5,-263.0983 93.5,-240.0983 8.5,-240.0983"/>
<text text-anchor="start" x="13.5" y="-249.1983" font-family="Helvetica,sans-Serif" font-weight="bold" font-size="11.00" fill="#000000">gyms</text>
<text text-anchor="start" x="58.5437" y="-248.1983" font-family="Helvetica,sans-Serif" font-size="11.00" fill="#000000">[table]</text>
<polygon fill="none" stroke="#000000" points="8.5,-218.0983 8.5,-240.0983 93.5,-240.0983 93.5,-218.0983 8.5,-218.0983"/>
<image xlink:href="../../images/primaryKeys.png" width="11px" height="12px" preserveAspectRatio="xMinYMin meet" x="13.5" y="-235.098"/>
<text text-anchor="start" x="28.5" y="-225.1983" font-family="Helvetica,sans-Serif" font-size="11.00" fill="#000000">id</text>
<polygon fill="none" stroke="#000000" points="8.5,-199.0983 8.5,-218.0983 93.5,-218.0983 93.5,-199.0983 8.5,-199.0983"/>
<text text-anchor="start" x="11.5" y="-205.1983" font-family="Helvetica,sans-Serif" font-size="11.00" fill="#000000">...</text>
<polygon fill="#ffffff" stroke="transparent" points="8.5,-180.0983 8.5,-199.0983 27.5,-199.0983 27.5,-180.0983 8.5,-180.0983"/>
<polygon fill="none" stroke="#000000" points="8.5,-180.0983 8.5,-199.0983 27.5,-199.0983 27.5,-180.0983 8.5,-180.0983"/>
<text text-anchor="start" x="11.5" y="-186.1983" font-family="Helvetica,sans-Serif" font-size="11.00" fill="#000000"> &#160;</text>
<polygon fill="#ffffff" stroke="transparent" points="27.5,-180.0983 27.5,-199.0983 68.5,-199.0983 68.5,-180.0983 27.5,-180.0983"/>
<polygon fill="none" stroke="#000000" points="27.5,-180.0983 27.5,-199.0983 68.5,-199.0983 68.5,-180.0983 27.5,-180.0983"/>
<text text-anchor="start" x="33.1105" y="-186.1983" font-family="Helvetica,sans-Serif" font-size="11.00" fill="#000000">0 rows</text>
<polygon fill="#ffffff" stroke="transparent" points="68.5,-180.0983 68.5,-199.0983 93.5,-199.0983 93.5,-180.0983 68.5,-180.0983"/>
<polygon fill="none" stroke="#000000" points="68.5,-180.0983 68.5,-199.0983 93.5,-199.0983 93.5,-180.0983 68.5,-180.0983"/>
<text text-anchor="start" x="74.9053" y="-186.1983" font-family="Helvetica,sans-Serif" font-size="11.00" fill="#000000">4 &gt;</text>
</a>
</g>
</g>
<!-- challenges&#45;&gt;gyms -->
<g id="edge2" class="edge">
<title>challenges:w&#45;&gt;gyms:e</title>
<path fill="none" stroke="#000000" d="M438.3013,-339.2959C306.5264,-342.8362 247.0775,-391.8211 134,-314.0983 99.5139,-290.3945 135.3469,-229.0983 93.5,-229.0983"/>
<polygon fill="#000000" stroke="#000000" points="445.0007,-339.2059 453.0484,-342.6979 449.0004,-339.1521 453,-339.0983 453,-339.0983 453,-339.0983 449.0004,-339.1521 452.9516,-335.4986 445.0007,-339.2059 445.0007,-339.2059"/>
<ellipse fill="none" stroke="#000000" cx="441.801" cy="-339.2489" rx="3.2" ry="3.2"/>
</g>
<!-- skill_lists -->
<g id="node4" class="node">
<title>skill_lists</title>
<g id="a_node4"><a xlink:href="../../tables/skill_lists.html" xlink:title="skill_lists" target="_top">
<polygon fill="#ffffff" stroke="transparent" points="162,-242.5983 162,-303.5983 248,-303.5983 248,-242.5983 162,-242.5983"/>
<polygon fill="#f5f5f5" stroke="transparent" points="162,-280.0983 162,-303.0983 248,-303.0983 248,-280.0983 162,-280.0983"/>
<polygon fill="none" stroke="#000000" points="162,-280.0983 162,-303.0983 248,-303.0983 248,-280.0983 162,-280.0983"/>
<text text-anchor="start" x="166.8119" y="-289.1983" font-family="Helvetica,sans-Serif" font-weight="bold" font-size="11.00" fill="#000000">skill_lists</text>
<text text-anchor="start" x="213.5219" y="-288.1983" font-family="Helvetica,sans-Serif" font-size="11.00" fill="#000000">[table]</text>
<polygon fill="none" stroke="#000000" points="162,-261.0983 162,-280.0983 248,-280.0983 248,-261.0983 162,-261.0983"/>
<text text-anchor="start" x="165" y="-267.1983" font-family="Helvetica,sans-Serif" font-size="11.00" fill="#000000">...</text>
<polygon fill="#ffffff" stroke="transparent" points="162,-242.0983 162,-261.0983 186,-261.0983 186,-242.0983 162,-242.0983"/>
<polygon fill="none" stroke="#000000" points="162,-242.0983 162,-261.0983 186,-261.0983 186,-242.0983 162,-242.0983"/>
<text text-anchor="start" x="165" y="-248.1983" font-family="Helvetica,sans-Serif" font-size="11.00" fill="#000000">&lt; 1</text>
<polygon fill="#ffffff" stroke="transparent" points="186,-242.0983 186,-261.0983 225,-261.0983 225,-242.0983 186,-242.0983"/>
<polygon fill="none" stroke="#000000" points="186,-242.0983 186,-261.0983 225,-261.0983 225,-242.0983 186,-242.0983"/>
<text text-anchor="start" x="189.6105" y="-248.1983" font-family="Helvetica,sans-Serif" font-size="11.00" fill="#000000">0 rows</text>
<polygon fill="#ffffff" stroke="transparent" points="225,-242.0983 225,-261.0983 248,-261.0983 248,-242.0983 225,-242.0983"/>
<polygon fill="none" stroke="#000000" points="225,-242.0983 225,-261.0983 248,-261.0983 248,-242.0983 225,-242.0983"/>
<text text-anchor="start" x="229.4053" y="-248.1983" font-family="Helvetica,sans-Serif" font-size="11.00" fill="#000000">2 &gt;</text>
</a>
</g>
</g>
<!-- classes&#45;&gt;skill_lists -->
<g id="edge3" class="edge">
<title>classes:w&#45;&gt;skill_lists:e</title>
<path fill="none" stroke="#000000" d="M302.9779,-259.0803C283.0024,-261.9462 273.8359,-270.0983 248,-270.0983"/>
<polygon fill="#000000" stroke="#000000" points="309.5182,-258.6381 317.7429,-261.6901 313.5091,-258.3682 317.5,-258.0983 317.5,-258.0983 317.5,-258.0983 313.5091,-258.3682 317.2571,-254.5065 309.5182,-258.6381 309.5182,-258.6381"/>
<ellipse fill="none" stroke="#000000" cx="306.3255" cy="-258.854" rx="3.2" ry="3.2"/>
</g>
<!-- skill_lists&#45;&gt;gyms -->
<g id="edge16" class="edge">
<title>skill_lists:w&#45;&gt;gyms:e</title>
<path fill="none" stroke="#000000" d="M147.5604,-267.2802C126.3343,-258.0171 123.2986,-229.0983 93.5,-229.0983"/>
<polygon fill="#000000" stroke="#000000" points="154.1481,-268.5658 161.3104,-273.6316 158.0741,-269.332 162,-270.0983 162,-270.0983 162,-270.0983 158.0741,-269.332 162.6896,-266.5649 154.1481,-268.5658 154.1481,-268.5658"/>
<ellipse fill="none" stroke="#000000" cx="151.0074" cy="-267.9528" rx="3.2" ry="3.2"/>
</g>
<!-- completed_daily_challenges -->
<g id="node5" class="node">
<title>completed_daily_challenges</title>
<g id="a_node5"><a xlink:href="../../tables/completed_daily_challenges.html" xlink:title="completed_daily_challenges" target="_top">
<polygon fill="#ffffff" stroke="transparent" points="909.5,-418.5983 909.5,-479.5983 1090.5,-479.5983 1090.5,-418.5983 909.5,-418.5983"/>
<polygon fill="#f5f5f5" stroke="transparent" points="910,-456.0983 910,-479.0983 1091,-479.0983 1091,-456.0983 910,-456.0983"/>
<polygon fill="none" stroke="#000000" points="910,-456.0983 910,-479.0983 1091,-479.0983 1091,-456.0983 910,-456.0983"/>
<text text-anchor="start" x="914.9266" y="-465.1983" font-family="Helvetica,sans-Serif" font-weight="bold" font-size="11.00" fill="#000000">completed_daily_challenges</text>
<text text-anchor="start" x="1056.5219" y="-464.1983" font-family="Helvetica,sans-Serif" font-size="11.00" fill="#000000">[table]</text>
<polygon fill="none" stroke="#000000" points="910,-437.0983 910,-456.0983 1091,-456.0983 1091,-437.0983 910,-437.0983"/>
<text text-anchor="start" x="913" y="-443.1983" font-family="Helvetica,sans-Serif" font-size="11.00" fill="#000000">...</text>
<polygon fill="#ffffff" stroke="transparent" points="910,-418.0983 910,-437.0983 986,-437.0983 986,-418.0983 910,-418.0983"/>
<polygon fill="none" stroke="#000000" points="910,-418.0983 910,-437.0983 986,-437.0983 986,-418.0983 910,-418.0983"/>
<text text-anchor="start" x="913" y="-424.1983" font-family="Helvetica,sans-Serif" font-size="11.00" fill="#000000">&lt; 4</text>
<polygon fill="#ffffff" stroke="transparent" points="986,-418.0983 986,-437.0983 1051,-437.0983 1051,-418.0983 986,-418.0983"/>
<polygon fill="none" stroke="#000000" points="986,-418.0983 986,-437.0983 1051,-437.0983 1051,-418.0983 986,-418.0983"/>
<text text-anchor="start" x="1015.6105" y="-424.1983" font-family="Helvetica,sans-Serif" font-size="11.00" fill="#000000">0 rows</text>
<polygon fill="#ffffff" stroke="transparent" points="1051,-418.0983 1051,-437.0983 1091,-437.0983 1091,-418.0983 1051,-418.0983"/>
<polygon fill="none" stroke="#000000" points="1051,-418.0983 1051,-437.0983 1091,-437.0983 1091,-418.0983 1051,-418.0983"/>
<text text-anchor="start" x="1081.8862" y="-424.1983" font-family="Helvetica,sans-Serif" font-size="11.00" fill="#000000"> &#160;</text>
</a>
</g>
</g>
<!-- daily_challenges -->
<g id="node6" class="node">
<title>daily_challenges</title>
<g id="a_node6"><a xlink:href="../../tables/daily_challenges.html" xlink:title="daily_challenges" target="_top">
<polygon fill="#ffffff" stroke="transparent" points="725.5,-394.0983 725.5,-502.0983 849.5,-502.0983 849.5,-394.0983 725.5,-394.0983"/>
<polygon fill="#f5f5f5" stroke="transparent" points="725.5,-479.0983 725.5,-502.0983 849.5,-502.0983 849.5,-479.0983 725.5,-479.0983"/>
<polygon fill="none" stroke="#000000" points="725.5,-479.0983 725.5,-502.0983 849.5,-502.0983 849.5,-479.0983 725.5,-479.0983"/>
<text text-anchor="start" x="730.3512" y="-488.1983" font-family="Helvetica,sans-Serif" font-weight="bold" font-size="11.00" fill="#000000">daily_challenges</text>
<text text-anchor="start" x="815.0219" y="-487.1983" font-family="Helvetica,sans-Serif" font-size="11.00" fill="#000000">[table]</text>
<polygon fill="none" stroke="#000000" points="725.5,-457.0983 725.5,-479.0983 849.5,-479.0983 849.5,-457.0983 725.5,-457.0983"/>
<image xlink:href="../../images/primaryKeys.png" width="11px" height="12px" preserveAspectRatio="xMinYMin meet" x="730.5" y="-474.098"/>
<text text-anchor="start" x="749.5" y="-464.1983" font-family="Helvetica,sans-Serif" font-size="11.00" fill="#000000">classes_id</text>
<polygon fill="none" stroke="#000000" points="725.5,-435.0983 725.5,-457.0983 849.5,-457.0983 849.5,-435.0983 725.5,-435.0983"/>
<image xlink:href="../../images/primaryKeys.png" width="11px" height="12px" preserveAspectRatio="xMinYMin meet" x="730.5" y="-452.098"/>
<text text-anchor="start" x="749.5" y="-442.1983" font-family="Helvetica,sans-Serif" font-size="11.00" fill="#000000">challenges_id</text>
<polygon fill="none" stroke="#000000" points="725.5,-413.0983 725.5,-435.0983 849.5,-435.0983 849.5,-413.0983 725.5,-413.0983"/>
<image xlink:href="../../images/primaryKeys.png" width="11px" height="12px" preserveAspectRatio="xMinYMin meet" x="730.5" y="-430.098"/>
<text text-anchor="start" x="749.5" y="-420.1983" font-family="Helvetica,sans-Serif" font-size="11.00" fill="#000000">date</text>
<polygon fill="#ffffff" stroke="transparent" points="725.5,-394.0983 725.5,-413.0983 768.5,-413.0983 768.5,-394.0983 725.5,-394.0983"/>
<polygon fill="none" stroke="#000000" points="725.5,-394.0983 725.5,-413.0983 768.5,-413.0983 768.5,-394.0983 725.5,-394.0983"/>
<text text-anchor="start" x="728.5" y="-400.1983" font-family="Helvetica,sans-Serif" font-size="11.00" fill="#000000">&lt; 2</text>
<polygon fill="#ffffff" stroke="transparent" points="768.5,-394.0983 768.5,-413.0983 817.5,-413.0983 817.5,-394.0983 768.5,-394.0983"/>
<polygon fill="none" stroke="#000000" points="768.5,-394.0983 768.5,-413.0983 817.5,-413.0983 817.5,-394.0983 768.5,-394.0983"/>
<text text-anchor="start" x="782.1105" y="-400.1983" font-family="Helvetica,sans-Serif" font-size="11.00" fill="#000000">0 rows</text>
<polygon fill="#ffffff" stroke="transparent" points="817.5,-394.0983 817.5,-413.0983 849.5,-413.0983 849.5,-394.0983 817.5,-394.0983"/>
<polygon fill="none" stroke="#000000" points="817.5,-394.0983 817.5,-413.0983 849.5,-413.0983 849.5,-394.0983 817.5,-394.0983"/>
<text text-anchor="start" x="830.9053" y="-400.1983" font-family="Helvetica,sans-Serif" font-size="11.00" fill="#000000">3 &gt;</text>
</a>
</g>
</g>
<!-- completed_daily_challenges&#45;&gt;daily_challenges -->
<g id="edge4" class="edge">
<title>completed_daily_challenges:w&#45;&gt;daily_challenges:e</title>
<path fill="none" stroke="#000000" d="M895.2977,-446.0983C879.3779,-446.0983 870.717,-446.0983 849.5,-446.0983"/>
<polygon fill="#000000" stroke="#000000" points="902,-446.0983 910,-449.6983 906,-446.0983 910,-446.0983 910,-446.0983 910,-446.0983 906,-446.0983 910,-442.4983 902,-446.0983 902,-446.0983"/>
<ellipse fill="none" stroke="#000000" cx="898.8" cy="-446.0984" rx="3.2" ry="3.2"/>
</g>
<!-- completed_daily_challenges&#45;&gt;daily_challenges -->
<g id="edge5" class="edge">
<title>completed_daily_challenges:w&#45;&gt;daily_challenges:e</title>
<path fill="none" stroke="#000000" d="M895.7572,-448.2881C879.142,-453.8528 872.5233,-468.0983 849.5,-468.0983"/>
<polygon fill="#000000" stroke="#000000" points="902.0929,-447.3141 910.5471,-449.6565 906.0465,-446.7062 910,-446.0983 910,-446.0983 910,-446.0983 906.0465,-446.7062 909.4529,-442.5401 902.0929,-447.3141 902.0929,-447.3141"/>
<ellipse fill="none" stroke="#000000" cx="898.9301" cy="-447.8004" rx="3.2" ry="3.2"/>
</g>
<!-- completed_daily_challenges&#45;&gt;daily_challenges -->
<g id="edge6" class="edge">
<title>completed_daily_challenges:w&#45;&gt;daily_challenges:e</title>
<path fill="none" stroke="#000000" d="M895.7572,-443.9084C879.142,-438.3438 872.5233,-424.0983 849.5,-424.0983"/>
<polygon fill="#000000" stroke="#000000" points="902.0929,-444.8825 909.4529,-449.6565 906.0465,-445.4904 910,-446.0983 910,-446.0983 910,-446.0983 906.0465,-445.4904 910.5471,-442.5401 902.0929,-444.8825 902.0929,-444.8825"/>
<ellipse fill="none" stroke="#000000" cx="898.9301" cy="-444.3962" rx="3.2" ry="3.2"/>
</g>
<!-- daily_challenges&#45;&gt;challenges -->
<g id="edge9" class="edge">
<title>daily_challenges:w&#45;&gt;challenges:e</title>
<path fill="none" stroke="#000000" d="M710.9317,-443.7685C696.3701,-438.695 689.6976,-427.0983 669,-427.0983"/>
<polygon fill="#000000" stroke="#000000" points="717.6004,-444.8349 724.9315,-449.6531 721.5502,-445.4666 725.5,-446.0983 725.5,-446.0983 725.5,-446.0983 721.5502,-445.4666 726.0685,-442.5434 717.6004,-444.8349 717.6004,-444.8349"/>
<ellipse fill="none" stroke="#000000" cx="714.4405" cy="-444.3296" rx="3.2" ry="3.2"/>
</g>
<!-- daily_challenges&#45;&gt;classes -->
<g id="edge10" class="edge">
<title>daily_challenges:w&#45;&gt;classes:e</title>
<path fill="none" stroke="#000000" d="M710.9983,-469.0272C700.6644,-470.4585 693.9465,-473.138 679,-474.0983 574.3269,-480.8235 524.394,-540.2549 443,-474.0983 374.649,-418.5428 490.5811,-280.0983 402.5,-280.0983"/>
<polygon fill="#000000" stroke="#000000" points="717.5164,-468.6098 725.7302,-471.6909 721.5082,-468.354 725.5,-468.0983 725.5,-468.0983 725.5,-468.0983 721.5082,-468.354 725.2698,-464.5056 717.5164,-468.6098 717.5164,-468.6098"/>
<ellipse fill="none" stroke="#000000" cx="714.3229" cy="-468.8143" rx="3.2" ry="3.2"/>
</g>
<!-- completed_normal_challenges -->
<g id="node7" class="node">
<title>completed_normal_challenges</title>
<g id="a_node7"><a xlink:href="../../tables/completed_normal_challenges.html" xlink:title="completed_normal_challenges" target="_top">
<polygon fill="#ffffff" stroke="transparent" points="904,-164.5983 904,-225.5983 1096,-225.5983 1096,-164.5983 904,-164.5983"/>
<polygon fill="#f5f5f5" stroke="transparent" points="904,-202.0983 904,-225.0983 1096,-225.0983 1096,-202.0983 904,-202.0983"/>
<polygon fill="none" stroke="#000000" points="904,-202.0983 904,-225.0983 1096,-225.0983 1096,-202.0983 904,-202.0983"/>
<text text-anchor="start" x="908.9277" y="-211.1983" font-family="Helvetica,sans-Serif" font-weight="bold" font-size="11.00" fill="#000000">completed_normal_challenges</text>
<text text-anchor="start" x="1061.5219" y="-210.1983" font-family="Helvetica,sans-Serif" font-size="11.00" fill="#000000">[table]</text>
<polygon fill="none" stroke="#000000" points="904,-183.0983 904,-202.0983 1096,-202.0983 1096,-183.0983 904,-183.0983"/>
<text text-anchor="start" x="907" y="-189.1983" font-family="Helvetica,sans-Serif" font-size="11.00" fill="#000000">...</text>
<polygon fill="#ffffff" stroke="transparent" points="904,-164.0983 904,-183.0983 985,-183.0983 985,-164.0983 904,-164.0983"/>
<polygon fill="none" stroke="#000000" points="904,-164.0983 904,-183.0983 985,-183.0983 985,-164.0983 904,-164.0983"/>
<text text-anchor="start" x="907" y="-170.1983" font-family="Helvetica,sans-Serif" font-size="11.00" fill="#000000">&lt; 3</text>
<polygon fill="#ffffff" stroke="transparent" points="985,-164.0983 985,-183.0983 1053,-183.0983 1053,-164.0983 985,-164.0983"/>
<polygon fill="none" stroke="#000000" points="985,-164.0983 985,-183.0983 1053,-183.0983 1053,-164.0983 985,-164.0983"/>
<text text-anchor="start" x="1017.6105" y="-170.1983" font-family="Helvetica,sans-Serif" font-size="11.00" fill="#000000">0 rows</text>
<polygon fill="#ffffff" stroke="transparent" points="1053,-164.0983 1053,-183.0983 1096,-183.0983 1096,-164.0983 1053,-164.0983"/>
<polygon fill="none" stroke="#000000" points="1053,-164.0983 1053,-183.0983 1096,-183.0983 1096,-164.0983 1053,-164.0983"/>
<text text-anchor="start" x="1086.8862" y="-170.1983" font-family="Helvetica,sans-Serif" font-size="11.00" fill="#000000"> &#160;</text>
</a>
</g>
</g>
<!-- normal_challenges -->
<g id="node8" class="node">
<title>normal_challenges</title>
<g id="a_node8"><a xlink:href="../../tables/normal_challenges.html" xlink:title="normal_challenges" target="_top">
<polygon fill="#ffffff" stroke="transparent" points="720,-132.5983 720,-237.5983 855,-237.5983 855,-132.5983 720,-132.5983"/>
<polygon fill="#f5f5f5" stroke="transparent" points="720.5,-214.0983 720.5,-237.0983 855.5,-237.0983 855.5,-214.0983 720.5,-214.0983"/>
<polygon fill="none" stroke="#000000" points="720.5,-214.0983 720.5,-237.0983 855.5,-237.0983 855.5,-214.0983 720.5,-214.0983"/>
<text text-anchor="start" x="725.3523" y="-223.1983" font-family="Helvetica,sans-Serif" font-weight="bold" font-size="11.00" fill="#000000">normal_challenges</text>
<text text-anchor="start" x="821.0219" y="-222.1983" font-family="Helvetica,sans-Serif" font-size="11.00" fill="#000000">[table]</text>
<polygon fill="none" stroke="#000000" points="720.5,-192.0983 720.5,-214.0983 855.5,-214.0983 855.5,-192.0983 720.5,-192.0983"/>
<image xlink:href="../../images/primaryKeys.png" width="11px" height="12px" preserveAspectRatio="xMinYMin meet" x="725.5" y="-209.098"/>
<text text-anchor="start" x="743.5" y="-199.1983" font-family="Helvetica,sans-Serif" font-size="11.00" fill="#000000">classes_id</text>
<polygon fill="none" stroke="#000000" points="720.5,-170.0983 720.5,-192.0983 855.5,-192.0983 855.5,-170.0983 720.5,-170.0983"/>
<image xlink:href="../../images/primaryKeys.png" width="11px" height="12px" preserveAspectRatio="xMinYMin meet" x="725.5" y="-187.098"/>
<text text-anchor="start" x="743.5" y="-177.1983" font-family="Helvetica,sans-Serif" font-size="11.00" fill="#000000">challenges_id</text>
<polygon fill="none" stroke="#000000" points="720.5,-151.0983 720.5,-170.0983 855.5,-170.0983 855.5,-151.0983 720.5,-151.0983"/>
<text text-anchor="start" x="723.5" y="-157.1983" font-family="Helvetica,sans-Serif" font-size="11.00" fill="#000000">...</text>
<polygon fill="#ffffff" stroke="transparent" points="720.5,-132.0983 720.5,-151.0983 768.5,-151.0983 768.5,-132.0983 720.5,-132.0983"/>
<polygon fill="none" stroke="#000000" points="720.5,-132.0983 720.5,-151.0983 768.5,-151.0983 768.5,-132.0983 720.5,-132.0983"/>
<text text-anchor="start" x="723.5" y="-138.1983" font-family="Helvetica,sans-Serif" font-size="11.00" fill="#000000">&lt; 2</text>
<polygon fill="#ffffff" stroke="transparent" points="768.5,-132.0983 768.5,-151.0983 820.5,-151.0983 820.5,-132.0983 768.5,-132.0983"/>
<polygon fill="none" stroke="#000000" points="768.5,-132.0983 768.5,-151.0983 820.5,-151.0983 820.5,-132.0983 768.5,-132.0983"/>
<text text-anchor="start" x="785.1105" y="-138.1983" font-family="Helvetica,sans-Serif" font-size="11.00" fill="#000000">0 rows</text>
<polygon fill="#ffffff" stroke="transparent" points="820.5,-132.0983 820.5,-151.0983 855.5,-151.0983 855.5,-132.0983 820.5,-132.0983"/>
<polygon fill="none" stroke="#000000" points="820.5,-132.0983 820.5,-151.0983 855.5,-151.0983 855.5,-132.0983 820.5,-132.0983"/>
<text text-anchor="start" x="836.9053" y="-138.1983" font-family="Helvetica,sans-Serif" font-size="11.00" fill="#000000">2 &gt;</text>
</a>
</g>
</g>
<!-- completed_normal_challenges&#45;&gt;normal_challenges -->
<g id="edge7" class="edge">
<title>completed_normal_challenges:w&#45;&gt;normal_challenges:e</title>
<path fill="none" stroke="#000000" d="M889.4888,-190.1822C878.3593,-187.0306 871.7319,-181.0983 855.5,-181.0983"/>
<polygon fill="#000000" stroke="#000000" points="896.0688,-191.051 903.5287,-195.6673 900.0344,-191.5746 904,-192.0983 904,-192.0983 904,-192.0983 900.0344,-191.5746 904.4713,-188.5293 896.0688,-191.051 896.0688,-191.051"/>
<ellipse fill="none" stroke="#000000" cx="892.8964" cy="-190.6321" rx="3.2" ry="3.2"/>
</g>
<!-- completed_normal_challenges&#45;&gt;normal_challenges -->
<g id="edge8" class="edge">
<title>completed_normal_challenges:w&#45;&gt;normal_challenges:e</title>
<path fill="none" stroke="#000000" d="M889.4888,-194.0143C878.3593,-197.1659 871.7319,-203.0983 855.5,-203.0983"/>
<polygon fill="#000000" stroke="#000000" points="896.0688,-193.1455 904.4713,-195.6673 900.0344,-192.6219 904,-192.0983 904,-192.0983 904,-192.0983 900.0344,-192.6219 903.5287,-188.5293 896.0688,-193.1455 896.0688,-193.1455"/>
<ellipse fill="none" stroke="#000000" cx="892.8964" cy="-193.5645" rx="3.2" ry="3.2"/>
</g>
<!-- normal_challenges&#45;&gt;challenges -->
<g id="edge14" class="edge">
<title>normal_challenges:w&#45;&gt;challenges:e</title>
<path fill="none" stroke="#000000" d="M706.0997,-182.8005C624.9081,-204.5352 775.2493,-427.0983 669,-427.0983"/>
<polygon fill="#000000" stroke="#000000" points="712.5553,-182.0375 720.9226,-184.6734 716.5277,-181.5679 720.5,-181.0983 720.5,-181.0983 720.5,-181.0983 716.5277,-181.5679 720.0774,-177.5232 712.5553,-182.0375 712.5553,-182.0375"/>
<ellipse fill="none" stroke="#000000" cx="709.3774" cy="-182.4131" rx="3.2" ry="3.2"/>
</g>
<!-- normal_challenges&#45;&gt;classes -->
<g id="edge15" class="edge">
<title>normal_challenges:w&#45;&gt;classes:e</title>
<path fill="none" stroke="#000000" d="M706.1993,-200.3307C675.4446,-185.1556 720.3853,-111.6559 679,-82.0983 593.6452,-21.1374 524.26,-15.7771 443,-82.0983 373.4127,-138.8927 492.322,-280.0983 402.5,-280.0983"/>
<polygon fill="#000000" stroke="#000000" points="712.6457,-201.5782 719.816,-206.6327 716.5729,-202.3382 720.5,-203.0983 720.5,-203.0983 720.5,-203.0983 716.5729,-202.3382 721.184,-199.5639 712.6457,-201.5782 712.6457,-201.5782"/>
<ellipse fill="none" stroke="#000000" cx="709.504" cy="-200.9702" rx="3.2" ry="3.2"/>
</g>
<!-- events -->
<g id="node9" class="node">
<title>events</title>
<g id="a_node9"><a xlink:href="../../tables/events.html" xlink:title="events" target="_top">
<polygon fill="#ffffff" stroke="transparent" points="165,-160.5983 165,-221.5983 245,-221.5983 245,-160.5983 165,-160.5983"/>
<polygon fill="#f5f5f5" stroke="transparent" points="165,-198.0983 165,-221.0983 245,-221.0983 245,-198.0983 165,-198.0983"/>
<polygon fill="none" stroke="#000000" points="165,-198.0983 165,-221.0983 245,-221.0983 245,-198.0983 165,-198.0983"/>
<text text-anchor="start" x="170" y="-207.1983" font-family="Helvetica,sans-Serif" font-weight="bold" font-size="11.00" fill="#000000">events</text>
<text text-anchor="start" x="210.0437" y="-206.1983" font-family="Helvetica,sans-Serif" font-size="11.00" fill="#000000">[table]</text>
<polygon fill="none" stroke="#000000" points="165,-179.0983 165,-198.0983 245,-198.0983 245,-179.0983 165,-179.0983"/>
<text text-anchor="start" x="168" y="-185.1983" font-family="Helvetica,sans-Serif" font-size="11.00" fill="#000000">...</text>
<polygon fill="#ffffff" stroke="transparent" points="165,-160.0983 165,-179.0983 186,-179.0983 186,-160.0983 165,-160.0983"/>
<polygon fill="none" stroke="#000000" points="165,-160.0983 165,-179.0983 186,-179.0983 186,-160.0983 165,-160.0983"/>
<text text-anchor="start" x="167.7027" y="-166.1983" font-family="Helvetica,sans-Serif" font-size="11.00" fill="#000000">&lt; 1</text>
<polygon fill="#ffffff" stroke="transparent" points="186,-160.0983 186,-179.0983 224,-179.0983 224,-160.0983 186,-160.0983"/>
<polygon fill="none" stroke="#000000" points="186,-160.0983 186,-179.0983 224,-179.0983 224,-160.0983 186,-160.0983"/>
<text text-anchor="start" x="188.8053" y="-166.1983" font-family="Helvetica,sans-Serif" font-size="11.00" fill="#000000">0 rows</text>
<polygon fill="#ffffff" stroke="transparent" points="224,-160.0983 224,-179.0983 245,-179.0983 245,-160.0983 224,-160.0983"/>
<polygon fill="none" stroke="#000000" points="224,-160.0983 224,-179.0983 245,-179.0983 245,-160.0983 224,-160.0983"/>
<text text-anchor="start" x="226.7027" y="-166.1983" font-family="Helvetica,sans-Serif" font-size="11.00" fill="#000000">1 &gt;</text>
</a>
</g>
</g>
<!-- events&#45;&gt;gyms -->
<g id="edge11" class="edge">
<title>events:w&#45;&gt;gyms:e</title>
<path fill="none" stroke="#000000" d="M150.66,-190.663C128.0145,-199.6389 124.551,-229.0983 93.5,-229.0983"/>
<polygon fill="#000000" stroke="#000000" points="157.125,-189.5068 165.6338,-191.642 161.0625,-188.8025 165,-188.0983 165,-188.0983 165,-188.0983 161.0625,-188.8025 164.3662,-184.5545 157.125,-189.5068 157.125,-189.5068"/>
<ellipse fill="none" stroke="#000000" cx="153.9749" cy="-190.0702" rx="3.2" ry="3.2"/>
</g>
<!-- gymnasts_has_classes -->
<g id="node10" class="node">
<title>gymnasts_has_classes</title>
<g id="a_node10"><a xlink:href="../../tables/gymnasts_has_classes.html" xlink:title="gymnasts_has_classes" target="_top">
<polygon fill="#ffffff" stroke="transparent" points="483,-92.5983 483,-153.5983 639,-153.5983 639,-92.5983 483,-92.5983"/>
<polygon fill="#f5f5f5" stroke="transparent" points="483,-130.0983 483,-153.0983 639,-153.0983 639,-130.0983 483,-130.0983"/>
<polygon fill="none" stroke="#000000" points="483,-130.0983 483,-153.0983 639,-153.0983 639,-130.0983 483,-130.0983"/>
<text text-anchor="start" x="487.6531" y="-139.1983" font-family="Helvetica,sans-Serif" font-weight="bold" font-size="11.00" fill="#000000">gymnasts_has_classes</text>
<text text-anchor="start" x="604.5219" y="-138.1983" font-family="Helvetica,sans-Serif" font-size="11.00" fill="#000000">[table]</text>
<polygon fill="none" stroke="#000000" points="483,-111.0983 483,-130.0983 639,-130.0983 639,-111.0983 483,-111.0983"/>
<text text-anchor="start" x="486" y="-117.1983" font-family="Helvetica,sans-Serif" font-size="11.00" fill="#000000">...</text>
<polygon fill="#ffffff" stroke="transparent" points="483,-92.0983 483,-111.0983 546,-111.0983 546,-92.0983 483,-92.0983"/>
<polygon fill="none" stroke="#000000" points="483,-92.0983 483,-111.0983 546,-111.0983 546,-92.0983 483,-92.0983"/>
<text text-anchor="start" x="486" y="-98.1983" font-family="Helvetica,sans-Serif" font-size="11.00" fill="#000000">&lt; 2</text>
<polygon fill="#ffffff" stroke="transparent" points="546,-92.0983 546,-111.0983 605,-111.0983 605,-92.0983 546,-92.0983"/>
<polygon fill="none" stroke="#000000" points="546,-92.0983 546,-111.0983 605,-111.0983 605,-92.0983 546,-92.0983"/>
<text text-anchor="start" x="569.6105" y="-98.1983" font-family="Helvetica,sans-Serif" font-size="11.00" fill="#000000">0 rows</text>
<polygon fill="#ffffff" stroke="transparent" points="605,-92.0983 605,-111.0983 639,-111.0983 639,-92.0983 605,-92.0983"/>
<polygon fill="none" stroke="#000000" points="605,-92.0983 605,-111.0983 639,-111.0983 639,-92.0983 605,-92.0983"/>
<text text-anchor="start" x="629.8862" y="-98.1983" font-family="Helvetica,sans-Serif" font-size="11.00" fill="#000000"> &#160;</text>
</a>
</g>
</g>
<!-- gymnasts_has_classes&#45;&gt;classes -->
<g id="edge12" class="edge">
<title>gymnasts_has_classes:w&#45;&gt;classes:e</title>
<path fill="none" stroke="#000000" d="M468.901,-123.0308C455.726,-129.7532 453.6158,-147.0886 443,-165.0983 415.4834,-211.78 456.6881,-280.0983 402.5,-280.0983"/>
<polygon fill="#000000" stroke="#000000" points="475.1676,-121.7274 483.7331,-123.6228 479.0838,-120.9128 483,-120.0983 483,-120.0983 483,-120.0983 479.0838,-120.9128 482.2669,-116.5737 475.1676,-121.7274 475.1676,-121.7274"/>
<ellipse fill="none" stroke="#000000" cx="472.0347" cy="-122.3791" rx="3.2" ry="3.2"/>
</g>
<!-- gyms_has_users -->
<g id="node11" class="node">
<title>gyms_has_users</title>
<g id="a_node11"><a xlink:href="../../tables/gyms_has_users.html" xlink:title="gyms_has_users" target="_top">
<polygon fill="#ffffff" stroke="transparent" points="142,-78.5983 142,-139.5983 268,-139.5983 268,-78.5983 142,-78.5983"/>
<polygon fill="#f5f5f5" stroke="transparent" points="142,-116.0983 142,-139.0983 268,-139.0983 268,-116.0983 142,-116.0983"/>
<polygon fill="none" stroke="#000000" points="142,-116.0983 142,-139.0983 268,-139.0983 268,-116.0983 142,-116.0983"/>
<text text-anchor="start" x="146.936" y="-125.1983" font-family="Helvetica,sans-Serif" font-weight="bold" font-size="11.00" fill="#000000">gyms_has_users</text>
<text text-anchor="start" x="233.5219" y="-124.1983" font-family="Helvetica,sans-Serif" font-size="11.00" fill="#000000">[table]</text>
<polygon fill="none" stroke="#000000" points="142,-97.0983 142,-116.0983 268,-116.0983 268,-97.0983 142,-97.0983"/>
<text text-anchor="start" x="145" y="-103.1983" font-family="Helvetica,sans-Serif" font-size="11.00" fill="#000000">...</text>
<polygon fill="#ffffff" stroke="transparent" points="142,-78.0983 142,-97.0983 186,-97.0983 186,-78.0983 142,-78.0983"/>
<polygon fill="none" stroke="#000000" points="142,-78.0983 142,-97.0983 186,-97.0983 186,-78.0983 142,-78.0983"/>
<text text-anchor="start" x="145" y="-84.1983" font-family="Helvetica,sans-Serif" font-size="11.00" fill="#000000">&lt; 2</text>
<polygon fill="#ffffff" stroke="transparent" points="186,-78.0983 186,-97.0983 235,-97.0983 235,-78.0983 186,-78.0983"/>
<polygon fill="none" stroke="#000000" points="186,-78.0983 186,-97.0983 235,-97.0983 235,-78.0983 186,-78.0983"/>
<text text-anchor="start" x="199.6105" y="-84.1983" font-family="Helvetica,sans-Serif" font-size="11.00" fill="#000000">0 rows</text>
<polygon fill="#ffffff" stroke="transparent" points="235,-78.0983 235,-97.0983 268,-97.0983 268,-78.0983 235,-78.0983"/>
<polygon fill="none" stroke="#000000" points="235,-78.0983 235,-97.0983 268,-97.0983 268,-78.0983 235,-78.0983"/>
<text text-anchor="start" x="249.4053" y="-84.1983" font-family="Helvetica,sans-Serif" font-size="11.00" fill="#000000">2 &gt;</text>
</a>
</g>
</g>
<!-- gyms_has_users&#45;&gt;gyms -->
<g id="edge13" class="edge">
<title>gyms_has_users:w&#45;&gt;gyms:e</title>
<path fill="none" stroke="#000000" d="M127.7823,-109.6468C95.9398,-129.8139 146.2949,-229.0983 93.5,-229.0983"/>
<polygon fill="#000000" stroke="#000000" points="134.2381,-108.0356 142.8718,-109.5911 138.119,-107.0669 142,-106.0983 142,-106.0983 142,-106.0983 138.119,-107.0669 141.1282,-102.6054 134.2381,-108.0356 134.2381,-108.0356"/>
<ellipse fill="none" stroke="#000000" cx="131.1333" cy="-108.8105" rx="3.2" ry="3.2"/>
</g>
</g>
</svg>
