<?xml version="1.0" encoding="UTF-8" standalone="no"?>
<!DOCTYPE svg PUBLIC "-//W3C//DTD SVG 1.1//EN"
 "http://www.w3.org/Graphics/SVG/1.1/DTD/svg11.dtd">
<!-- Generated by graphviz version 2.40.1 (20161225.0304)
 -->
<!-- Title: oneDegreeRelationshipsDiagram Pages: 1 -->
<svg width="579pt" height="381pt"
 viewBox="0.00 0.00 579.00 380.70" xmlns="http://www.w3.org/2000/svg" xmlns:xlink="http://www.w3.org/1999/xlink">
<g id="graph0" class="graph" transform="scale(1 1) rotate(0) translate(4 376.7)">
<title>oneDegreeRelationshipsDiagram</title>
<polygon fill="#ffffff" stroke="transparent" points="-4,4 -4,-376.7 575,-376.7 575,4 -4,4"/>
<text text-anchor="middle" x="72.4936" y="-7.3" font-family="Helvetica,sans-Serif" font-size="11.00" fill="#000000">Generated by SchemaSpy</text>
<!-- challenges -->
<g id="node1" class="node">
<title>challenges</title>
<g id="a_node1"><a xlink:href="../../tables/challenges.html" xlink:title="challenges" target="_top">
<polygon fill="#ffffff" stroke="transparent" points="142,-38.2 142,-326.2 362,-326.2 362,-38.2 142,-38.2"/>
<polygon fill="#f5f5f5" stroke="transparent" points="144,-301.2 144,-324.2 360,-324.2 360,-301.2 144,-301.2"/>
<polygon fill="none" stroke="#000000" points="144,-301.2 144,-324.2 360,-324.2 360,-301.2 144,-301.2"/>
<text text-anchor="start" x="149" y="-310.3" font-family="Helvetica,sans-Serif" font-weight="bold" font-size="11.00" fill="#000000">challenges</text>
<text text-anchor="start" x="325.0437" y="-309.3" font-family="Helvetica,sans-Serif" font-size="11.00" fill="#000000">[table]</text>
<polygon fill="none" stroke="#000000" points="144,-279.2 144,-301.2 243,-301.2 243,-279.2 144,-279.2"/>
<image xlink:href="../../images/primaryKeys.png" width="11px" height="12px" preserveAspectRatio="xMinYMin meet" x="149" y="-296.2"/>
<text text-anchor="start" x="164" y="-286.3" font-family="Helvetica,sans-Serif" font-size="11.00" fill="#000000">id</text>
<polygon fill="none" stroke="#000000" points="243,-279.2 243,-301.2 360,-301.2 360,-279.2 243,-279.2"/>
<text text-anchor="start" x="246" y="-286.9" font-family="Helvetica,sans-Serif" font-size="11.00" fill="#000000">bigint[19]</text>
<polygon fill="none" stroke="#000000" points="144,-257.2 144,-279.2 243,-279.2 243,-257.2 144,-257.2"/>
<text text-anchor="start" x="164" y="-264.3" font-family="Helvetica,sans-Serif" font-size="11.00" fill="#000000">name</text>
<polygon fill="none" stroke="#000000" points="243,-257.2 243,-279.2 360,-279.2 360,-257.2 243,-257.2"/>
<text text-anchor="start" x="246" y="-264.9" font-family="Helvetica,sans-Serif" font-size="11.00" fill="#000000">varchar[45]</text>
<polygon fill="none" stroke="#000000" points="144,-235.2 144,-257.2 243,-257.2 243,-235.2 144,-235.2"/>
<text text-anchor="start" x="164" y="-242.3" font-family="Helvetica,sans-Serif" font-size="11.00" fill="#000000">description</text>
<polygon fill="none" stroke="#000000" points="243,-235.2 243,-257.2 360,-257.2 360,-235.2 243,-235.2"/>
<text text-anchor="start" x="245.5645" y="-242.9" font-family="Helvetica,sans-Serif" font-size="11.00" fill="#000000">mediumtext[16777215]</text>
<polygon fill="none" stroke="#000000" points="144,-213.2 144,-235.2 243,-235.2 243,-213.2 144,-213.2"/>
<text text-anchor="start" x="164" y="-220.3" font-family="Helvetica,sans-Serif" font-size="11.00" fill="#000000">points</text>
<polygon fill="none" stroke="#000000" points="243,-213.2 243,-235.2 360,-235.2 360,-213.2 243,-213.2"/>
<text text-anchor="start" x="246" y="-220.9" font-family="Helvetica,sans-Serif" font-size="11.00" fill="#000000">int[10]</text>
<polygon fill="#ffffff" stroke="transparent" points="144,-191.2 144,-213.2 243,-213.2 243,-191.2 144,-191.2"/>
<polygon fill="none" stroke="#000000" points="144,-191.2 144,-213.2 243,-213.2 243,-191.2 144,-191.2"/>
<image xlink:href="../../images/foreignKeys.png" width="11px" height="12px" preserveAspectRatio="xMinYMin meet" x="149" y="-208.2"/>
<text text-anchor="start" x="164" y="-198.3" font-family="Helvetica,sans-Serif" font-size="11.00" fill="#000000">gym_id</text>
<polygon fill="none" stroke="#000000" points="243,-191.2 243,-213.2 360,-213.2 360,-191.2 243,-191.2"/>
<text text-anchor="start" x="246" y="-198.9" font-family="Helvetica,sans-Serif" font-size="11.00" fill="#000000">bigint[19]</text>
<polygon fill="#ffffff" stroke="transparent" points="144,-169.2 144,-191.2 243,-191.2 243,-169.2 144,-169.2"/>
<polygon fill="none" stroke="#000000" points="144,-169.2 144,-191.2 243,-191.2 243,-169.2 144,-169.2"/>
<image xlink:href="../../images/foreignKeys.png" width="11px" height="12px" preserveAspectRatio="xMinYMin meet" x="149" y="-186.2"/>
<text text-anchor="start" x="164" y="-176.3" font-family="Helvetica,sans-Serif" font-size="11.00" fill="#000000">class_id</text>
<polygon fill="none" stroke="#000000" points="243,-169.2 243,-191.2 360,-191.2 360,-169.2 243,-169.2"/>
<text text-anchor="start" x="246" y="-176.9" font-family="Helvetica,sans-Serif" font-size="11.00" fill="#000000">bigint[19]</text>
<polygon fill="none" stroke="#000000" points="144,-147.2 144,-169.2 243,-169.2 243,-147.2 144,-147.2"/>
<text text-anchor="start" x="164" y="-154.3" font-family="Helvetica,sans-Serif" font-size="11.00" fill="#000000">is_featured</text>
<polygon fill="none" stroke="#000000" points="243,-147.2 243,-169.2 360,-169.2 360,-147.2 243,-147.2"/>
<text text-anchor="start" x="246" y="-154.9" font-family="Helvetica,sans-Serif" font-size="11.00" fill="#000000">bit[1]</text>
<polygon fill="none" stroke="#000000" points="144,-125.2 144,-147.2 243,-147.2 243,-125.2 144,-125.2"/>
<text text-anchor="start" x="164" y="-132.3" font-family="Helvetica,sans-Serif" font-size="11.00" fill="#000000">featured_date</text>
<polygon fill="none" stroke="#000000" points="243,-125.2 243,-147.2 360,-147.2 360,-125.2 243,-125.2"/>
<text text-anchor="start" x="246" y="-132.9" font-family="Helvetica,sans-Serif" font-size="11.00" fill="#000000">date[10]</text>
<polygon fill="none" stroke="#000000" points="144,-103.2 144,-125.2 243,-125.2 243,-103.2 144,-103.2"/>
<text text-anchor="start" x="164" y="-110.3" font-family="Helvetica,sans-Serif" font-size="11.00" fill="#000000">created_at</text>
<polygon fill="none" stroke="#000000" points="243,-103.2 243,-125.2 360,-125.2 360,-103.2 243,-103.2"/>
<text text-anchor="start" x="246" y="-110.9" font-family="Helvetica,sans-Serif" font-size="11.00" fill="#000000">timestamp[19]</text>
<polygon fill="none" stroke="#000000" points="144,-81.2 144,-103.2 243,-103.2 243,-81.2 144,-81.2"/>
<text text-anchor="start" x="164" y="-88.3" font-family="Helvetica,sans-Serif" font-size="11.00" fill="#000000">updated_at</text>
<polygon fill="none" stroke="#000000" points="243,-81.2 243,-103.2 360,-103.2 360,-81.2 243,-81.2"/>
<text text-anchor="start" x="246" y="-88.9" font-family="Helvetica,sans-Serif" font-size="11.00" fill="#000000">timestamp[19]</text>
<polygon fill="none" stroke="#000000" points="144,-59.2 144,-81.2 243,-81.2 243,-59.2 144,-59.2"/>
<text text-anchor="start" x="164" y="-66.3" font-family="Helvetica,sans-Serif" font-size="11.00" fill="#000000">deleted_at</text>
<polygon fill="none" stroke="#000000" points="243,-59.2 243,-81.2 360,-81.2 360,-59.2 243,-59.2"/>
<text text-anchor="start" x="246" y="-66.9" font-family="Helvetica,sans-Serif" font-size="11.00" fill="#000000">timestamp[19]</text>
<polygon fill="#ffffff" stroke="transparent" points="144,-40.2 144,-59.2 185,-59.2 185,-40.2 144,-40.2"/>
<polygon fill="none" stroke="#000000" points="144,-40.2 144,-59.2 185,-59.2 185,-40.2 144,-40.2"/>
<text text-anchor="start" x="147" y="-46.3" font-family="Helvetica,sans-Serif" font-size="11.00" fill="#000000">&lt; 2</text>
<polygon fill="#ffffff" stroke="transparent" points="185,-40.2 185,-59.2 243,-59.2 243,-40.2 185,-40.2"/>
<polygon fill="none" stroke="#000000" points="185,-40.2 185,-59.2 243,-59.2 243,-40.2 185,-40.2"/>
<text text-anchor="start" x="207.6105" y="-46.3" font-family="Helvetica,sans-Serif" font-size="11.00" fill="#000000">0 rows</text>
<polygon fill="#ffffff" stroke="transparent" points="243,-40.2 243,-59.2 360,-59.2 360,-40.2 243,-40.2"/>
<polygon fill="none" stroke="#000000" points="243,-40.2 243,-59.2 360,-59.2 360,-40.2 243,-40.2"/>
<text text-anchor="start" x="341.4053" y="-46.3" font-family="Helvetica,sans-Serif" font-size="11.00" fill="#000000">1 &gt;</text>
<polygon fill="none" stroke="#000000" stroke-width="2" points="143,-39.2 143,-325.2 361,-325.2 361,-39.2 143,-39.2"/>
</a>
</g>
</g>
<!-- classes -->
<g id="node2" class="node">
<title>classes</title>
<g id="a_node2"><a xlink:href="../../tables/classes.html" xlink:title="classes" target="_top">
<polygon fill="#ffffff" stroke="transparent" points="8,-68.7 8,-173.7 93,-173.7 93,-68.7 8,-68.7"/>
<polygon fill="#f5f5f5" stroke="transparent" points="8.5,-150.2 8.5,-173.2 93.5,-173.2 93.5,-150.2 8.5,-150.2"/>
<polygon fill="none" stroke="#000000" points="8.5,-150.2 8.5,-173.2 93.5,-173.2 93.5,-150.2 8.5,-150.2"/>
<text text-anchor="start" x="13.5" y="-159.3" font-family="Helvetica,sans-Serif" font-weight="bold" font-size="11.00" fill="#000000">classes</text>
<text text-anchor="start" x="58.5437" y="-158.3" font-family="Helvetica,sans-Serif" font-size="11.00" fill="#000000">[table]</text>
<polygon fill="none" stroke="#000000" points="8.5,-128.2 8.5,-150.2 93.5,-150.2 93.5,-128.2 8.5,-128.2"/>
<image xlink:href="../../images/primaryKeys.png" width="11px" height="12px" preserveAspectRatio="xMinYMin meet" x="13.5" y="-145.2"/>
<text text-anchor="start" x="28.5" y="-135.3" font-family="Helvetica,sans-Serif" font-size="11.00" fill="#000000">id</text>
<polygon fill="#ffffff" stroke="transparent" points="8.5,-106.2 8.5,-128.2 93.5,-128.2 93.5,-106.2 8.5,-106.2"/>
<polygon fill="none" stroke="#000000" points="8.5,-106.2 8.5,-128.2 93.5,-128.2 93.5,-106.2 8.5,-106.2"/>
<image xlink:href="../../images/foreignKeys.png" width="11px" height="12px" preserveAspectRatio="xMinYMin meet" x="13.5" y="-123.2"/>
<text text-anchor="start" x="28.5" y="-113.3" font-family="Helvetica,sans-Serif" font-size="11.00" fill="#000000">skill_list_id</text>
<polygon fill="none" stroke="#000000" points="8.5,-87.2 8.5,-106.2 93.5,-106.2 93.5,-87.2 8.5,-87.2"/>
<text text-anchor="start" x="11.5" y="-93.3" font-family="Helvetica,sans-Serif" font-size="11.00" fill="#000000">...</text>
<polygon fill="#ffffff" stroke="transparent" points="8.5,-68.2 8.5,-87.2 31.5,-87.2 31.5,-68.2 8.5,-68.2"/>
<polygon fill="none" stroke="#000000" points="8.5,-68.2 8.5,-87.2 31.5,-87.2 31.5,-68.2 8.5,-68.2"/>
<text text-anchor="start" x="11.5" y="-74.3" font-family="Helvetica,sans-Serif" font-size="11.00" fill="#000000">&lt; 1</text>
<polygon fill="#ffffff" stroke="transparent" points="31.5,-68.2 31.5,-87.2 70.5,-87.2 70.5,-68.2 31.5,-68.2"/>
<polygon fill="none" stroke="#000000" points="31.5,-68.2 31.5,-87.2 70.5,-87.2 70.5,-68.2 31.5,-68.2"/>
<text text-anchor="start" x="35.1105" y="-74.3" font-family="Helvetica,sans-Serif" font-size="11.00" fill="#000000">0 rows</text>
<polygon fill="#ffffff" stroke="transparent" points="70.5,-68.2 70.5,-87.2 93.5,-87.2 93.5,-68.2 70.5,-68.2"/>
<polygon fill="none" stroke="#000000" points="70.5,-68.2 70.5,-87.2 93.5,-87.2 93.5,-68.2 70.5,-68.2"/>
<text text-anchor="start" x="74.9053" y="-74.3" font-family="Helvetica,sans-Serif" font-size="11.00" fill="#000000">2 &gt;</text>
</a>
</g>
</g>
<!-- challenges&#45;&gt;classes -->
<g id="edge1" class="edge">
<title>challenges:w&#45;&gt;classes:e</title>
<path fill="none" stroke="#000000" d="M130.2601,-175.8123C116.5688,-165.2354 116.5379,-139.2 93.5,-139.2"/>
<polygon fill="#000000" stroke="#000000" points="136.3792,-177.7663 142.9048,-183.6294 140.1896,-178.9832 144,-180.2 144,-180.2 144,-180.2 140.1896,-178.9832 145.0952,-176.7706 136.3792,-177.7663 136.3792,-177.7663"/>
<ellipse fill="none" stroke="#000000" cx="133.3308" cy="-176.7928" rx="3.2" ry="3.2"/>
</g>
<!-- gyms -->
<g id="node3" class="node">
<title>gyms</title>
<g id="a_node3"><a xlink:href="../../tables/gyms.html" xlink:title="gyms" target="_top">
<polygon fill="#ffffff" stroke="transparent" points="8,-194.7 8,-277.7 93,-277.7 93,-194.7 8,-194.7"/>
<polygon fill="#f5f5f5" stroke="transparent" points="8.5,-254.2 8.5,-277.2 93.5,-277.2 93.5,-254.2 8.5,-254.2"/>
<polygon fill="none" stroke="#000000" points="8.5,-254.2 8.5,-277.2 93.5,-277.2 93.5,-254.2 8.5,-254.2"/>
<text text-anchor="start" x="13.5" y="-263.3" font-family="Helvetica,sans-Serif" font-weight="bold" font-size="11.00" fill="#000000">gyms</text>
<text text-anchor="start" x="58.5437" y="-262.3" font-family="Helvetica,sans-Serif" font-size="11.00" fill="#000000">[table]</text>
<polygon fill="none" stroke="#000000" points="8.5,-232.2 8.5,-254.2 93.5,-254.2 93.5,-232.2 8.5,-232.2"/>
<image xlink:href="../../images/primaryKeys.png" width="11px" height="12px" preserveAspectRatio="xMinYMin meet" x="13.5" y="-249.2"/>
<text text-anchor="start" x="28.5" y="-239.3" font-family="Helvetica,sans-Serif" font-size="11.00" fill="#000000">id</text>
<polygon fill="none" stroke="#000000" points="8.5,-213.2 8.5,-232.2 93.5,-232.2 93.5,-213.2 8.5,-213.2"/>
<text text-anchor="start" x="11.5" y="-219.3" font-family="Helvetica,sans-Serif" font-size="11.00" fill="#000000">...</text>
<polygon fill="#ffffff" stroke="transparent" points="8.5,-194.2 8.5,-213.2 27.5,-213.2 27.5,-194.2 8.5,-194.2"/>
<polygon fill="none" stroke="#000000" points="8.5,-194.2 8.5,-213.2 27.5,-213.2 27.5,-194.2 8.5,-194.2"/>
<text text-anchor="start" x="11.5" y="-200.3" font-family="Helvetica,sans-Serif" font-size="11.00" fill="#000000"> &#160;</text>
<polygon fill="#ffffff" stroke="transparent" points="27.5,-194.2 27.5,-213.2 68.5,-213.2 68.5,-194.2 27.5,-194.2"/>
<polygon fill="none" stroke="#000000" points="27.5,-194.2 27.5,-213.2 68.5,-213.2 68.5,-194.2 27.5,-194.2"/>
<text text-anchor="start" x="33.1105" y="-200.3" font-family="Helvetica,sans-Serif" font-size="11.00" fill="#000000">0 rows</text>
<polygon fill="#ffffff" stroke="transparent" points="68.5,-194.2 68.5,-213.2 93.5,-213.2 93.5,-194.2 68.5,-194.2"/>
<polygon fill="none" stroke="#000000" points="68.5,-194.2 68.5,-213.2 93.5,-213.2 93.5,-194.2 68.5,-194.2"/>
<text text-anchor="start" x="74.9053" y="-200.3" font-family="Helvetica,sans-Serif" font-size="11.00" fill="#000000">4 &gt;</text>
</a>
</g>
</g>
<!-- challenges&#45;&gt;gyms -->
<g id="edge2" class="edge">
<title>challenges:w&#45;&gt;gyms:e</title>
<path fill="none" stroke="#000000" d="M130.2601,-206.5877C116.5688,-217.1646 116.5379,-243.2 93.5,-243.2"/>
<polygon fill="#000000" stroke="#000000" points="136.3792,-204.6337 145.0952,-205.6294 140.1896,-203.4168 144,-202.2 144,-202.2 144,-202.2 140.1896,-203.4168 142.9048,-198.7706 136.3792,-204.6337 136.3792,-204.6337"/>
<ellipse fill="none" stroke="#000000" cx="133.3308" cy="-205.6072" rx="3.2" ry="3.2"/>
</g>
<!-- completed_challenges -->
<g id="node4" class="node">
<title>completed_challenges</title>
<g id="a_node4"><a xlink:href="../../tables/completed_challenges.html" xlink:title="completed_challenges" target="_top">
<polygon fill="#ffffff" stroke="transparent" points="411,-241.7 411,-368.7 563,-368.7 563,-241.7 411,-241.7"/>
<polygon fill="#f5f5f5" stroke="transparent" points="411,-345.2 411,-368.2 563,-368.2 563,-345.2 411,-345.2"/>
<polygon fill="none" stroke="#000000" points="411,-345.2 411,-368.2 563,-368.2 563,-345.2 411,-345.2"/>
<text text-anchor="start" x="415.7899" y="-354.3" font-family="Helvetica,sans-Serif" font-weight="bold" font-size="11.00" fill="#000000">completed_challenges</text>
<text text-anchor="start" x="528.5219" y="-353.3" font-family="Helvetica,sans-Serif" font-size="11.00" fill="#000000">[table]</text>
<polygon fill="none" stroke="#000000" points="411,-323.2 411,-345.2 563,-345.2 563,-323.2 411,-323.2"/>
<image xlink:href="../../images/primaryKeys.png" width="11px" height="12px" preserveAspectRatio="xMinYMin meet" x="416" y="-340.2"/>
<text text-anchor="start" x="433" y="-330.3" font-family="Helvetica,sans-Serif" font-size="11.00" fill="#000000">id</text>
<polygon fill="#ffffff" stroke="transparent" points="411,-301.2 411,-323.2 563,-323.2 563,-301.2 411,-301.2"/>
<polygon fill="none" stroke="#000000" points="411,-301.2 411,-323.2 563,-323.2 563,-301.2 411,-301.2"/>
<image xlink:href="../../images/foreignKeys.png" width="11px" height="12px" preserveAspectRatio="xMinYMin meet" x="416" y="-318.2"/>
<text text-anchor="start" x="433" y="-308.3" font-family="Helvetica,sans-Serif" font-size="11.00" fill="#000000">gymnast_id</text>
<polygon fill="#ffffff" stroke="transparent" points="411,-279.2 411,-301.2 563,-301.2 563,-279.2 411,-279.2"/>
<polygon fill="none" stroke="#000000" points="411,-279.2 411,-301.2 563,-301.2 563,-279.2 411,-279.2"/>
<image xlink:href="../../images/foreignKeys.png" width="11px" height="12px" preserveAspectRatio="xMinYMin meet" x="416" y="-296.2"/>
<text text-anchor="start" x="433" y="-286.3" font-family="Helvetica,sans-Serif" font-size="11.00" fill="#000000">challenge_id</text>
<polygon fill="none" stroke="#000000" points="411,-260.2 411,-279.2 563,-279.2 563,-260.2 411,-260.2"/>
<text text-anchor="start" x="414" y="-266.3" font-family="Helvetica,sans-Serif" font-size="11.00" fill="#000000">...</text>
<polygon fill="#ffffff" stroke="transparent" points="411,-241.2 411,-260.2 472,-260.2 472,-241.2 411,-241.2"/>
<polygon fill="none" stroke="#000000" points="411,-241.2 411,-260.2 472,-260.2 472,-241.2 411,-241.2"/>
<text text-anchor="start" x="414" y="-247.3" font-family="Helvetica,sans-Serif" font-size="11.00" fill="#000000">&lt; 2</text>
<polygon fill="#ffffff" stroke="transparent" points="472,-241.2 472,-260.2 530,-260.2 530,-241.2 472,-241.2"/>
<polygon fill="none" stroke="#000000" points="472,-241.2 472,-260.2 530,-260.2 530,-241.2 472,-241.2"/>
<text text-anchor="start" x="494.6105" y="-247.3" font-family="Helvetica,sans-Serif" font-size="11.00" fill="#000000">0 rows</text>
<polygon fill="#ffffff" stroke="transparent" points="530,-241.2 530,-260.2 563,-260.2 563,-241.2 530,-241.2"/>
<polygon fill="none" stroke="#000000" points="530,-241.2 530,-260.2 563,-260.2 563,-241.2 530,-241.2"/>
<text text-anchor="start" x="553.8862" y="-247.3" font-family="Helvetica,sans-Serif" font-size="11.00" fill="#000000"> &#160;</text>
</a>
</g>
</g>
<!-- completed_challenges&#45;&gt;challenges -->
<g id="edge3" class="edge">
<title>completed_challenges:w&#45;&gt;challenges:e</title>
<path fill="none" stroke="#000000" d="M396.276,-290.2C384.2815,-290.2 376.8229,-290.2 360,-290.2"/>
<polygon fill="#000000" stroke="#000000" points="403,-290.2001 411,-293.8 407,-290.2 411,-290.2 411,-290.2 411,-290.2 407,-290.2 411,-286.6 403,-290.2001 403,-290.2001"/>
<ellipse fill="none" stroke="#000000" cx="399.8" cy="-290.2001" rx="3.2" ry="3.2"/>
</g>
</g>
</svg>
