<?xml version="1.0" encoding="UTF-8" standalone="no"?>
<!DOCTYPE svg PUBLIC "-//W3C//DTD SVG 1.1//EN"
 "http://www.w3.org/Graphics/SVG/1.1/DTD/svg11.dtd">
<!-- Generated by graphviz version 2.40.1 (20161225.0304)
 -->
<!-- Title: twoDegreesRelationshipsDiagram Pages: 1 -->
<svg width="1156pt" height="528pt"
 viewBox="0.00 0.00 1156.00 528.06" xmlns="http://www.w3.org/2000/svg" xmlns:xlink="http://www.w3.org/1999/xlink">
<g id="graph0" class="graph" transform="scale(1 1) rotate(0) translate(4 524.0647)">
<title>twoDegreesRelationshipsDiagram</title>
<polygon fill="#ffffff" stroke="transparent" points="-4,4 -4,-524.0647 1152,-524.0647 1152,4 -4,4"/>
<text text-anchor="middle" x="72.4936" y="-7.3" font-family="Helvetica,sans-Serif" font-size="11.00" fill="#000000">Generated by SchemaSpy</text>
<!-- challenges -->
<g id="node1" class="node">
<title>challenges</title>
<g id="a_node1"><a xlink:href="../../tables/challenges.html" xlink:title="challenges" target="_top">
<polygon fill="#ffffff" stroke="transparent" points="451,-184.0285 451,-472.0285 715,-472.0285 715,-184.0285 451,-184.0285"/>
<polygon fill="#f5f5f5" stroke="transparent" points="453,-447.0285 453,-470.0285 713,-470.0285 713,-447.0285 453,-447.0285"/>
<polygon fill="none" stroke="#000000" points="453,-447.0285 453,-470.0285 713,-470.0285 713,-447.0285 453,-447.0285"/>
<text text-anchor="start" x="458" y="-456.1285" font-family="Helvetica,sans-Serif" font-weight="bold" font-size="11.00" fill="#000000">challenges</text>
<text text-anchor="start" x="678.0437" y="-455.1285" font-family="Helvetica,sans-Serif" font-size="11.00" fill="#000000">[table]</text>
<polygon fill="none" stroke="#000000" points="453,-425.0285 453,-447.0285 596,-447.0285 596,-425.0285 453,-425.0285"/>
<image xlink:href="../../images/primaryKeys.png" width="11px" height="12px" preserveAspectRatio="xMinYMin meet" x="458" y="-442.028"/>
<text text-anchor="start" x="473" y="-432.1285" font-family="Helvetica,sans-Serif" font-size="11.00" fill="#000000">id</text>
<polygon fill="none" stroke="#000000" points="596,-425.0285 596,-447.0285 713,-447.0285 713,-425.0285 596,-425.0285"/>
<text text-anchor="start" x="599" y="-432.7285" font-family="Helvetica,sans-Serif" font-size="11.00" fill="#000000">bigint[19]</text>
<polygon fill="none" stroke="#000000" points="453,-403.0285 453,-425.0285 596,-425.0285 596,-403.0285 453,-403.0285"/>
<text text-anchor="start" x="473" y="-410.1285" font-family="Helvetica,sans-Serif" font-size="11.00" fill="#000000">name</text>
<polygon fill="none" stroke="#000000" points="596,-403.0285 596,-425.0285 713,-425.0285 713,-403.0285 596,-403.0285"/>
<text text-anchor="start" x="599" y="-410.7285" font-family="Helvetica,sans-Serif" font-size="11.00" fill="#000000">varchar[45]</text>
<polygon fill="none" stroke="#000000" points="453,-381.0285 453,-403.0285 596,-403.0285 596,-381.0285 453,-381.0285"/>
<text text-anchor="start" x="473" y="-388.1285" font-family="Helvetica,sans-Serif" font-size="11.00" fill="#000000">description</text>
<polygon fill="none" stroke="#000000" points="596,-381.0285 596,-403.0285 713,-403.0285 713,-381.0285 596,-381.0285"/>
<text text-anchor="start" x="598.5645" y="-388.7285" font-family="Helvetica,sans-Serif" font-size="11.00" fill="#000000">mediumtext[16777215]</text>
<polygon fill="none" stroke="#000000" points="453,-359.0285 453,-381.0285 596,-381.0285 596,-359.0285 453,-359.0285"/>
<text text-anchor="start" x="473" y="-366.1285" font-family="Helvetica,sans-Serif" font-size="11.00" fill="#000000">points</text>
<polygon fill="none" stroke="#000000" points="596,-359.0285 596,-381.0285 713,-381.0285 713,-359.0285 596,-359.0285"/>
<text text-anchor="start" x="599" y="-366.7285" font-family="Helvetica,sans-Serif" font-size="11.00" fill="#000000">int[10]</text>
<polygon fill="#ffffff" stroke="transparent" points="453,-337.0285 453,-359.0285 596,-359.0285 596,-337.0285 453,-337.0285"/>
<polygon fill="none" stroke="#000000" points="453,-337.0285 453,-359.0285 596,-359.0285 596,-337.0285 453,-337.0285"/>
<image xlink:href="../../images/foreignKeys.png" width="11px" height="12px" preserveAspectRatio="xMinYMin meet" x="458" y="-354.028"/>
<text text-anchor="start" x="473" y="-344.1285" font-family="Helvetica,sans-Serif" font-size="11.00" fill="#000000">gym_id</text>
<polygon fill="none" stroke="#000000" points="596,-337.0285 596,-359.0285 713,-359.0285 713,-337.0285 596,-337.0285"/>
<text text-anchor="start" x="599" y="-344.7285" font-family="Helvetica,sans-Serif" font-size="11.00" fill="#000000">bigint[19]</text>
<polygon fill="#ffffff" stroke="transparent" points="453,-315.0285 453,-337.0285 596,-337.0285 596,-315.0285 453,-315.0285"/>
<polygon fill="none" stroke="#000000" points="453,-315.0285 453,-337.0285 596,-337.0285 596,-315.0285 453,-315.0285"/>
<image xlink:href="../../images/foreignKeys.png" width="11px" height="12px" preserveAspectRatio="xMinYMin meet" x="458" y="-332.028"/>
<text text-anchor="start" x="473" y="-322.1285" font-family="Helvetica,sans-Serif" font-size="11.00" fill="#000000">class_id</text>
<polygon fill="none" stroke="#000000" points="596,-315.0285 596,-337.0285 713,-337.0285 713,-315.0285 596,-315.0285"/>
<text text-anchor="start" x="599" y="-322.7285" font-family="Helvetica,sans-Serif" font-size="11.00" fill="#000000">bigint[19]</text>
<polygon fill="none" stroke="#000000" points="453,-293.0285 453,-315.0285 596,-315.0285 596,-293.0285 453,-293.0285"/>
<text text-anchor="start" x="473" y="-300.1285" font-family="Helvetica,sans-Serif" font-size="11.00" fill="#000000">is_daily</text>
<polygon fill="none" stroke="#000000" points="596,-293.0285 596,-315.0285 713,-315.0285 713,-293.0285 596,-293.0285"/>
<text text-anchor="start" x="599" y="-300.7285" font-family="Helvetica,sans-Serif" font-size="11.00" fill="#000000">bit[1]</text>
<polygon fill="none" stroke="#000000" points="453,-271.0285 453,-293.0285 596,-293.0285 596,-271.0285 453,-271.0285"/>
<text text-anchor="start" x="473" y="-278.1285" font-family="Helvetica,sans-Serif" font-size="11.00" fill="#000000">daily_expiration_date</text>
<polygon fill="none" stroke="#000000" points="596,-271.0285 596,-293.0285 713,-293.0285 713,-271.0285 596,-271.0285"/>
<text text-anchor="start" x="599" y="-278.7285" font-family="Helvetica,sans-Serif" font-size="11.00" fill="#000000">date[10]</text>
<polygon fill="none" stroke="#000000" points="453,-249.0285 453,-271.0285 596,-271.0285 596,-249.0285 453,-249.0285"/>
<text text-anchor="start" x="473" y="-256.1285" font-family="Helvetica,sans-Serif" font-size="11.00" fill="#000000">created_at</text>
<polygon fill="none" stroke="#000000" points="596,-249.0285 596,-271.0285 713,-271.0285 713,-249.0285 596,-249.0285"/>
<text text-anchor="start" x="599" y="-256.7285" font-family="Helvetica,sans-Serif" font-size="11.00" fill="#000000">timestamp[19]</text>
<polygon fill="none" stroke="#000000" points="453,-227.0285 453,-249.0285 596,-249.0285 596,-227.0285 453,-227.0285"/>
<text text-anchor="start" x="473" y="-234.1285" font-family="Helvetica,sans-Serif" font-size="11.00" fill="#000000">updated_at</text>
<polygon fill="none" stroke="#000000" points="596,-227.0285 596,-249.0285 713,-249.0285 713,-227.0285 596,-227.0285"/>
<text text-anchor="start" x="599" y="-234.7285" font-family="Helvetica,sans-Serif" font-size="11.00" fill="#000000">timestamp[19]</text>
<polygon fill="none" stroke="#000000" points="453,-205.0285 453,-227.0285 596,-227.0285 596,-205.0285 453,-205.0285"/>
<text text-anchor="start" x="473" y="-212.1285" font-family="Helvetica,sans-Serif" font-size="11.00" fill="#000000">deleted_at</text>
<polygon fill="none" stroke="#000000" points="596,-205.0285 596,-227.0285 713,-227.0285 713,-205.0285 596,-205.0285"/>
<text text-anchor="start" x="599" y="-212.7285" font-family="Helvetica,sans-Serif" font-size="11.00" fill="#000000">timestamp[19]</text>
<polygon fill="#ffffff" stroke="transparent" points="453,-186.0285 453,-205.0285 516,-205.0285 516,-186.0285 453,-186.0285"/>
<polygon fill="none" stroke="#000000" points="453,-186.0285 453,-205.0285 516,-205.0285 516,-186.0285 453,-186.0285"/>
<text text-anchor="start" x="456" y="-192.1285" font-family="Helvetica,sans-Serif" font-size="11.00" fill="#000000">&lt; 2</text>
<polygon fill="#ffffff" stroke="transparent" points="516,-186.0285 516,-205.0285 596,-205.0285 596,-186.0285 516,-186.0285"/>
<polygon fill="none" stroke="#000000" points="516,-186.0285 516,-205.0285 596,-205.0285 596,-186.0285 516,-186.0285"/>
<text text-anchor="start" x="560.6105" y="-192.1285" font-family="Helvetica,sans-Serif" font-size="11.00" fill="#000000">0 rows</text>
<polygon fill="#ffffff" stroke="transparent" points="596,-186.0285 596,-205.0285 713,-205.0285 713,-186.0285 596,-186.0285"/>
<polygon fill="none" stroke="#000000" points="596,-186.0285 596,-205.0285 713,-205.0285 713,-186.0285 596,-186.0285"/>
<text text-anchor="start" x="694.4053" y="-192.1285" font-family="Helvetica,sans-Serif" font-size="11.00" fill="#000000">2 &gt;</text>
<polygon fill="none" stroke="#000000" stroke-width="2" points="452,-185.0285 452,-471.0285 714,-471.0285 714,-185.0285 452,-185.0285"/>
</a>
</g>
</g>
<!-- classes -->
<g id="node2" class="node">
<title>classes</title>
<g id="a_node2"><a xlink:href="../../tables/classes.html" xlink:title="classes" target="_top">
<polygon fill="#ffffff" stroke="transparent" points="317,-218.5285 317,-323.5285 402,-323.5285 402,-218.5285 317,-218.5285"/>
<polygon fill="#f5f5f5" stroke="transparent" points="317.5,-300.0285 317.5,-323.0285 402.5,-323.0285 402.5,-300.0285 317.5,-300.0285"/>
<polygon fill="none" stroke="#000000" points="317.5,-300.0285 317.5,-323.0285 402.5,-323.0285 402.5,-300.0285 317.5,-300.0285"/>
<text text-anchor="start" x="322.5" y="-309.1285" font-family="Helvetica,sans-Serif" font-weight="bold" font-size="11.00" fill="#000000">classes</text>
<text text-anchor="start" x="367.5437" y="-308.1285" font-family="Helvetica,sans-Serif" font-size="11.00" fill="#000000">[table]</text>
<polygon fill="none" stroke="#000000" points="317.5,-278.0285 317.5,-300.0285 402.5,-300.0285 402.5,-278.0285 317.5,-278.0285"/>
<image xlink:href="../../images/primaryKeys.png" width="11px" height="12px" preserveAspectRatio="xMinYMin meet" x="322.5" y="-295.028"/>
<text text-anchor="start" x="337.5" y="-285.1285" font-family="Helvetica,sans-Serif" font-size="11.00" fill="#000000">id</text>
<polygon fill="#ffffff" stroke="transparent" points="317.5,-256.0285 317.5,-278.0285 402.5,-278.0285 402.5,-256.0285 317.5,-256.0285"/>
<polygon fill="none" stroke="#000000" points="317.5,-256.0285 317.5,-278.0285 402.5,-278.0285 402.5,-256.0285 317.5,-256.0285"/>
<image xlink:href="../../images/foreignKeys.png" width="11px" height="12px" preserveAspectRatio="xMinYMin meet" x="322.5" y="-273.028"/>
<text text-anchor="start" x="337.5" y="-263.1285" font-family="Helvetica,sans-Serif" font-size="11.00" fill="#000000">skill_list_id</text>
<polygon fill="none" stroke="#000000" points="317.5,-237.0285 317.5,-256.0285 402.5,-256.0285 402.5,-237.0285 317.5,-237.0285"/>
<text text-anchor="start" x="320.5" y="-243.1285" font-family="Helvetica,sans-Serif" font-size="11.00" fill="#000000">...</text>
<polygon fill="#ffffff" stroke="transparent" points="317.5,-218.0285 317.5,-237.0285 340.5,-237.0285 340.5,-218.0285 317.5,-218.0285"/>
<polygon fill="none" stroke="#000000" points="317.5,-218.0285 317.5,-237.0285 340.5,-237.0285 340.5,-218.0285 317.5,-218.0285"/>
<text text-anchor="start" x="320.5" y="-224.1285" font-family="Helvetica,sans-Serif" font-size="11.00" fill="#000000">&lt; 1</text>
<polygon fill="#ffffff" stroke="transparent" points="340.5,-218.0285 340.5,-237.0285 379.5,-237.0285 379.5,-218.0285 340.5,-218.0285"/>
<polygon fill="none" stroke="#000000" points="340.5,-218.0285 340.5,-237.0285 379.5,-237.0285 379.5,-218.0285 340.5,-218.0285"/>
<text text-anchor="start" x="344.1105" y="-224.1285" font-family="Helvetica,sans-Serif" font-size="11.00" fill="#000000">0 rows</text>
<polygon fill="#ffffff" stroke="transparent" points="379.5,-218.0285 379.5,-237.0285 402.5,-237.0285 402.5,-218.0285 379.5,-218.0285"/>
<polygon fill="none" stroke="#000000" points="379.5,-218.0285 379.5,-237.0285 402.5,-237.0285 402.5,-218.0285 379.5,-218.0285"/>
<text text-anchor="start" x="383.9053" y="-224.1285" font-family="Helvetica,sans-Serif" font-size="11.00" fill="#000000">4 &gt;</text>
</a>
</g>
</g>
<!-- challenges&#45;&gt;classes -->
<g id="edge1" class="edge">
<title>challenges:w&#45;&gt;classes:e</title>
<path fill="none" stroke="#000000" d="M439.1749,-321.7841C425.8807,-312.0654 424.4548,-289.0285 402.5,-289.0285"/>
<polygon fill="#000000" stroke="#000000" points="445.3523,-323.6805 451.9434,-329.4699 449.1761,-324.8545 453,-326.0285 453,-326.0285 453,-326.0285 449.1761,-324.8545 454.0566,-322.587 445.3523,-323.6805 445.3523,-323.6805"/>
<ellipse fill="none" stroke="#000000" cx="442.2932" cy="-322.7414" rx="3.2" ry="3.2"/>
</g>
<!-- gyms -->
<g id="node3" class="node">
<title>gyms</title>
<g id="a_node3"><a xlink:href="../../tables/gyms.html" xlink:title="gyms" target="_top">
<polygon fill="#ffffff" stroke="transparent" points="8,-189.5285 8,-272.5285 93,-272.5285 93,-189.5285 8,-189.5285"/>
<polygon fill="#f5f5f5" stroke="transparent" points="8.5,-249.0285 8.5,-272.0285 93.5,-272.0285 93.5,-249.0285 8.5,-249.0285"/>
<polygon fill="none" stroke="#000000" points="8.5,-249.0285 8.5,-272.0285 93.5,-272.0285 93.5,-249.0285 8.5,-249.0285"/>
<text text-anchor="start" x="13.5" y="-258.1285" font-family="Helvetica,sans-Serif" font-weight="bold" font-size="11.00" fill="#000000">gyms</text>
<text text-anchor="start" x="58.5437" y="-257.1285" font-family="Helvetica,sans-Serif" font-size="11.00" fill="#000000">[table]</text>
<polygon fill="none" stroke="#000000" points="8.5,-227.0285 8.5,-249.0285 93.5,-249.0285 93.5,-227.0285 8.5,-227.0285"/>
<image xlink:href="../../images/primaryKeys.png" width="11px" height="12px" preserveAspectRatio="xMinYMin meet" x="13.5" y="-244.028"/>
<text text-anchor="start" x="28.5" y="-234.1285" font-family="Helvetica,sans-Serif" font-size="11.00" fill="#000000">id</text>
<polygon fill="none" stroke="#000000" points="8.5,-208.0285 8.5,-227.0285 93.5,-227.0285 93.5,-208.0285 8.5,-208.0285"/>
<text text-anchor="start" x="11.5" y="-214.1285" font-family="Helvetica,sans-Serif" font-size="11.00" fill="#000000">...</text>
<polygon fill="#ffffff" stroke="transparent" points="8.5,-189.0285 8.5,-208.0285 27.5,-208.0285 27.5,-189.0285 8.5,-189.0285"/>
<polygon fill="none" stroke="#000000" points="8.5,-189.0285 8.5,-208.0285 27.5,-208.0285 27.5,-189.0285 8.5,-189.0285"/>
<text text-anchor="start" x="11.5" y="-195.1285" font-family="Helvetica,sans-Serif" font-size="11.00" fill="#000000"> &#160;</text>
<polygon fill="#ffffff" stroke="transparent" points="27.5,-189.0285 27.5,-208.0285 68.5,-208.0285 68.5,-189.0285 27.5,-189.0285"/>
<polygon fill="none" stroke="#000000" points="27.5,-189.0285 27.5,-208.0285 68.5,-208.0285 68.5,-189.0285 27.5,-189.0285"/>
<text text-anchor="start" x="33.1105" y="-195.1285" font-family="Helvetica,sans-Serif" font-size="11.00" fill="#000000">0 rows</text>
<polygon fill="#ffffff" stroke="transparent" points="68.5,-189.0285 68.5,-208.0285 93.5,-208.0285 93.5,-189.0285 68.5,-189.0285"/>
<polygon fill="none" stroke="#000000" points="68.5,-189.0285 68.5,-208.0285 93.5,-208.0285 93.5,-189.0285 68.5,-189.0285"/>
<text text-anchor="start" x="74.9053" y="-195.1285" font-family="Helvetica,sans-Serif" font-size="11.00" fill="#000000">4 &gt;</text>
</a>
</g>
</g>
<!-- challenges&#45;&gt;gyms -->
<g id="edge2" class="edge">
<title>challenges:w&#45;&gt;gyms:e</title>
<path fill="none" stroke="#000000" d="M438.3013,-348.2261C306.5264,-351.7664 247.0775,-400.7513 134,-323.0285 99.5139,-299.3247 135.3469,-238.0285 93.5,-238.0285"/>
<polygon fill="#000000" stroke="#000000" points="445.0007,-348.1361 453.0484,-351.6281 449.0004,-348.0823 453,-348.0285 453,-348.0285 453,-348.0285 449.0004,-348.0823 452.9516,-344.4288 445.0007,-348.1361 445.0007,-348.1361"/>
<ellipse fill="none" stroke="#000000" cx="441.801" cy="-348.1791" rx="3.2" ry="3.2"/>
</g>
<!-- skill_lists -->
<g id="node4" class="node">
<title>skill_lists</title>
<g id="a_node4"><a xlink:href="../../tables/skill_lists.html" xlink:title="skill_lists" target="_top">
<polygon fill="#ffffff" stroke="transparent" points="162,-251.5285 162,-312.5285 248,-312.5285 248,-251.5285 162,-251.5285"/>
<polygon fill="#f5f5f5" stroke="transparent" points="162,-289.0285 162,-312.0285 248,-312.0285 248,-289.0285 162,-289.0285"/>
<polygon fill="none" stroke="#000000" points="162,-289.0285 162,-312.0285 248,-312.0285 248,-289.0285 162,-289.0285"/>
<text text-anchor="start" x="166.8119" y="-298.1285" font-family="Helvetica,sans-Serif" font-weight="bold" font-size="11.00" fill="#000000">skill_lists</text>
<text text-anchor="start" x="213.5219" y="-297.1285" font-family="Helvetica,sans-Serif" font-size="11.00" fill="#000000">[table]</text>
<polygon fill="none" stroke="#000000" points="162,-270.0285 162,-289.0285 248,-289.0285 248,-270.0285 162,-270.0285"/>
<text text-anchor="start" x="165" y="-276.1285" font-family="Helvetica,sans-Serif" font-size="11.00" fill="#000000">...</text>
<polygon fill="#ffffff" stroke="transparent" points="162,-251.0285 162,-270.0285 186,-270.0285 186,-251.0285 162,-251.0285"/>
<polygon fill="none" stroke="#000000" points="162,-251.0285 162,-270.0285 186,-270.0285 186,-251.0285 162,-251.0285"/>
<text text-anchor="start" x="165" y="-257.1285" font-family="Helvetica,sans-Serif" font-size="11.00" fill="#000000">&lt; 1</text>
<polygon fill="#ffffff" stroke="transparent" points="186,-251.0285 186,-270.0285 225,-270.0285 225,-251.0285 186,-251.0285"/>
<polygon fill="none" stroke="#000000" points="186,-251.0285 186,-270.0285 225,-270.0285 225,-251.0285 186,-251.0285"/>
<text text-anchor="start" x="189.6105" y="-257.1285" font-family="Helvetica,sans-Serif" font-size="11.00" fill="#000000">0 rows</text>
<polygon fill="#ffffff" stroke="transparent" points="225,-251.0285 225,-270.0285 248,-270.0285 248,-251.0285 225,-251.0285"/>
<polygon fill="none" stroke="#000000" points="225,-251.0285 225,-270.0285 248,-270.0285 248,-251.0285 225,-251.0285"/>
<text text-anchor="start" x="229.4053" y="-257.1285" font-family="Helvetica,sans-Serif" font-size="11.00" fill="#000000">2 &gt;</text>
</a>
</g>
</g>
<!-- classes&#45;&gt;skill_lists -->
<g id="edge3" class="edge">
<title>classes:w&#45;&gt;skill_lists:e</title>
<path fill="none" stroke="#000000" d="M302.9779,-268.0105C283.0024,-270.8764 273.8359,-279.0285 248,-279.0285"/>
<polygon fill="#000000" stroke="#000000" points="309.5182,-267.5683 317.7429,-270.6203 313.5091,-267.2984 317.5,-267.0285 317.5,-267.0285 317.5,-267.0285 313.5091,-267.2984 317.2571,-263.4367 309.5182,-267.5683 309.5182,-267.5683"/>
<ellipse fill="none" stroke="#000000" cx="306.3255" cy="-267.7842" rx="3.2" ry="3.2"/>
</g>
<!-- skill_lists&#45;&gt;gyms -->
<g id="edge16" class="edge">
<title>skill_lists:w&#45;&gt;gyms:e</title>
<path fill="none" stroke="#000000" d="M147.5604,-276.2104C126.3343,-266.9473 123.2986,-238.0285 93.5,-238.0285"/>
<polygon fill="#000000" stroke="#000000" points="154.1481,-277.496 161.3104,-282.5618 158.0741,-278.2622 162,-279.0285 162,-279.0285 162,-279.0285 158.0741,-278.2622 162.6896,-275.4951 154.1481,-277.496 154.1481,-277.496"/>
<ellipse fill="none" stroke="#000000" cx="151.0074" cy="-276.883" rx="3.2" ry="3.2"/>
</g>
<!-- completed_daily_challenges -->
<g id="node5" class="node">
<title>completed_daily_challenges</title>
<g id="a_node5"><a xlink:href="../../tables/completed_daily_challenges.html" xlink:title="completed_daily_challenges" target="_top">
<polygon fill="#ffffff" stroke="transparent" points="953.5,-427.5285 953.5,-488.5285 1134.5,-488.5285 1134.5,-427.5285 953.5,-427.5285"/>
<polygon fill="#f5f5f5" stroke="transparent" points="954,-465.0285 954,-488.0285 1135,-488.0285 1135,-465.0285 954,-465.0285"/>
<polygon fill="none" stroke="#000000" points="954,-465.0285 954,-488.0285 1135,-488.0285 1135,-465.0285 954,-465.0285"/>
<text text-anchor="start" x="958.9266" y="-474.1285" font-family="Helvetica,sans-Serif" font-weight="bold" font-size="11.00" fill="#000000">completed_daily_challenges</text>
<text text-anchor="start" x="1100.5219" y="-473.1285" font-family="Helvetica,sans-Serif" font-size="11.00" fill="#000000">[table]</text>
<polygon fill="none" stroke="#000000" points="954,-446.0285 954,-465.0285 1135,-465.0285 1135,-446.0285 954,-446.0285"/>
<text text-anchor="start" x="957" y="-452.1285" font-family="Helvetica,sans-Serif" font-size="11.00" fill="#000000">...</text>
<polygon fill="#ffffff" stroke="transparent" points="954,-427.0285 954,-446.0285 1030,-446.0285 1030,-427.0285 954,-427.0285"/>
<polygon fill="none" stroke="#000000" points="954,-427.0285 954,-446.0285 1030,-446.0285 1030,-427.0285 954,-427.0285"/>
<text text-anchor="start" x="957" y="-433.1285" font-family="Helvetica,sans-Serif" font-size="11.00" fill="#000000">&lt; 4</text>
<polygon fill="#ffffff" stroke="transparent" points="1030,-427.0285 1030,-446.0285 1095,-446.0285 1095,-427.0285 1030,-427.0285"/>
<polygon fill="none" stroke="#000000" points="1030,-427.0285 1030,-446.0285 1095,-446.0285 1095,-427.0285 1030,-427.0285"/>
<text text-anchor="start" x="1059.6105" y="-433.1285" font-family="Helvetica,sans-Serif" font-size="11.00" fill="#000000">0 rows</text>
<polygon fill="#ffffff" stroke="transparent" points="1095,-427.0285 1095,-446.0285 1135,-446.0285 1135,-427.0285 1095,-427.0285"/>
<polygon fill="none" stroke="#000000" points="1095,-427.0285 1095,-446.0285 1135,-446.0285 1135,-427.0285 1095,-427.0285"/>
<text text-anchor="start" x="1125.8862" y="-433.1285" font-family="Helvetica,sans-Serif" font-size="11.00" fill="#000000"> &#160;</text>
</a>
</g>
</g>
<!-- daily_challenges -->
<g id="node6" class="node">
<title>daily_challenges</title>
<g id="a_node6"><a xlink:href="../../tables/daily_challenges.html" xlink:title="daily_challenges" target="_top">
<polygon fill="#ffffff" stroke="transparent" points="769.5,-403.0285 769.5,-511.0285 893.5,-511.0285 893.5,-403.0285 769.5,-403.0285"/>
<polygon fill="#f5f5f5" stroke="transparent" points="769.5,-488.0285 769.5,-511.0285 893.5,-511.0285 893.5,-488.0285 769.5,-488.0285"/>
<polygon fill="none" stroke="#000000" points="769.5,-488.0285 769.5,-511.0285 893.5,-511.0285 893.5,-488.0285 769.5,-488.0285"/>
<text text-anchor="start" x="774.3512" y="-497.1285" font-family="Helvetica,sans-Serif" font-weight="bold" font-size="11.00" fill="#000000">daily_challenges</text>
<text text-anchor="start" x="859.0219" y="-496.1285" font-family="Helvetica,sans-Serif" font-size="11.00" fill="#000000">[table]</text>
<polygon fill="none" stroke="#000000" points="769.5,-466.0285 769.5,-488.0285 893.5,-488.0285 893.5,-466.0285 769.5,-466.0285"/>
<image xlink:href="../../images/primaryKeys.png" width="11px" height="12px" preserveAspectRatio="xMinYMin meet" x="774.5" y="-483.028"/>
<text text-anchor="start" x="793.5" y="-473.1285" font-family="Helvetica,sans-Serif" font-size="11.00" fill="#000000">classes_id</text>
<polygon fill="none" stroke="#000000" points="769.5,-444.0285 769.5,-466.0285 893.5,-466.0285 893.5,-444.0285 769.5,-444.0285"/>
<image xlink:href="../../images/primaryKeys.png" width="11px" height="12px" preserveAspectRatio="xMinYMin meet" x="774.5" y="-461.028"/>
<text text-anchor="start" x="793.5" y="-451.1285" font-family="Helvetica,sans-Serif" font-size="11.00" fill="#000000">challenges_id</text>
<polygon fill="none" stroke="#000000" points="769.5,-422.0285 769.5,-444.0285 893.5,-444.0285 893.5,-422.0285 769.5,-422.0285"/>
<image xlink:href="../../images/primaryKeys.png" width="11px" height="12px" preserveAspectRatio="xMinYMin meet" x="774.5" y="-439.028"/>
<text text-anchor="start" x="793.5" y="-429.1285" font-family="Helvetica,sans-Serif" font-size="11.00" fill="#000000">date</text>
<polygon fill="#ffffff" stroke="transparent" points="769.5,-403.0285 769.5,-422.0285 812.5,-422.0285 812.5,-403.0285 769.5,-403.0285"/>
<polygon fill="none" stroke="#000000" points="769.5,-403.0285 769.5,-422.0285 812.5,-422.0285 812.5,-403.0285 769.5,-403.0285"/>
<text text-anchor="start" x="772.5" y="-409.1285" font-family="Helvetica,sans-Serif" font-size="11.00" fill="#000000">&lt; 2</text>
<polygon fill="#ffffff" stroke="transparent" points="812.5,-403.0285 812.5,-422.0285 861.5,-422.0285 861.5,-403.0285 812.5,-403.0285"/>
<polygon fill="none" stroke="#000000" points="812.5,-403.0285 812.5,-422.0285 861.5,-422.0285 861.5,-403.0285 812.5,-403.0285"/>
<text text-anchor="start" x="826.1105" y="-409.1285" font-family="Helvetica,sans-Serif" font-size="11.00" fill="#000000">0 rows</text>
<polygon fill="#ffffff" stroke="transparent" points="861.5,-403.0285 861.5,-422.0285 893.5,-422.0285 893.5,-403.0285 861.5,-403.0285"/>
<polygon fill="none" stroke="#000000" points="861.5,-403.0285 861.5,-422.0285 893.5,-422.0285 893.5,-403.0285 861.5,-403.0285"/>
<text text-anchor="start" x="874.9053" y="-409.1285" font-family="Helvetica,sans-Serif" font-size="11.00" fill="#000000">3 &gt;</text>
</a>
</g>
</g>
<!-- completed_daily_challenges&#45;&gt;daily_challenges -->
<g id="edge4" class="edge">
<title>completed_daily_challenges:w&#45;&gt;daily_challenges:e</title>
<path fill="none" stroke="#000000" d="M939.2977,-455.0285C923.3779,-455.0285 914.717,-455.0285 893.5,-455.0285"/>
<polygon fill="#000000" stroke="#000000" points="946,-455.0285 954,-458.6285 950,-455.0285 954,-455.0285 954,-455.0285 954,-455.0285 950,-455.0285 954,-451.4285 946,-455.0285 946,-455.0285"/>
<ellipse fill="none" stroke="#000000" cx="942.8" cy="-455.0285" rx="3.2" ry="3.2"/>
</g>
<!-- completed_daily_challenges&#45;&gt;daily_challenges -->
<g id="edge5" class="edge">
<title>completed_daily_challenges:w&#45;&gt;daily_challenges:e</title>
<path fill="none" stroke="#000000" d="M939.7572,-457.2183C923.142,-462.783 916.5233,-477.0285 893.5,-477.0285"/>
<polygon fill="#000000" stroke="#000000" points="946.0929,-456.2443 954.5471,-458.5866 950.0465,-455.6364 954,-455.0285 954,-455.0285 954,-455.0285 950.0465,-455.6364 953.4529,-451.4703 946.0929,-456.2443 946.0929,-456.2443"/>
<ellipse fill="none" stroke="#000000" cx="942.9301" cy="-456.7306" rx="3.2" ry="3.2"/>
</g>
<!-- completed_daily_challenges&#45;&gt;daily_challenges -->
<g id="edge6" class="edge">
<title>completed_daily_challenges:w&#45;&gt;daily_challenges:e</title>
<path fill="none" stroke="#000000" d="M939.7572,-452.8386C923.142,-447.2739 916.5233,-433.0285 893.5,-433.0285"/>
<polygon fill="#000000" stroke="#000000" points="946.0929,-453.8127 953.4529,-458.5866 950.0465,-454.4206 954,-455.0285 954,-455.0285 954,-455.0285 950.0465,-454.4206 954.5471,-451.4703 946.0929,-453.8127 946.0929,-453.8127"/>
<ellipse fill="none" stroke="#000000" cx="942.9301" cy="-453.3264" rx="3.2" ry="3.2"/>
</g>
<!-- daily_challenges&#45;&gt;challenges -->
<g id="edge9" class="edge">
<title>daily_challenges:w&#45;&gt;challenges:e</title>
<path fill="none" stroke="#000000" d="M754.9317,-452.6987C740.3701,-447.6251 733.6976,-436.0285 713,-436.0285"/>
<polygon fill="#000000" stroke="#000000" points="761.6004,-453.7651 768.9315,-458.5833 765.5502,-454.3968 769.5,-455.0285 769.5,-455.0285 769.5,-455.0285 765.5502,-454.3968 770.0685,-451.4736 761.6004,-453.7651 761.6004,-453.7651"/>
<ellipse fill="none" stroke="#000000" cx="758.4405" cy="-453.2598" rx="3.2" ry="3.2"/>
</g>
<!-- daily_challenges&#45;&gt;classes -->
<g id="edge10" class="edge">
<title>daily_challenges:w&#45;&gt;classes:e</title>
<path fill="none" stroke="#000000" d="M754.9983,-477.9574C744.6644,-479.3887 737.9465,-482.0682 723,-483.0285 598.8116,-491.0075 539.5691,-561.5194 443,-483.0285 374.649,-427.473 490.5811,-289.0285 402.5,-289.0285"/>
<polygon fill="#000000" stroke="#000000" points="761.5164,-477.5399 769.7302,-480.6211 765.5082,-477.2842 769.5,-477.0285 769.5,-477.0285 769.5,-477.0285 765.5082,-477.2842 769.2698,-473.4358 761.5164,-477.5399 761.5164,-477.5399"/>
<ellipse fill="none" stroke="#000000" cx="758.3229" cy="-477.7445" rx="3.2" ry="3.2"/>
</g>
<!-- completed_normal_challenges -->
<g id="node7" class="node">
<title>completed_normal_challenges</title>
<g id="a_node7"><a xlink:href="../../tables/completed_normal_challenges.html" xlink:title="completed_normal_challenges" target="_top">
<polygon fill="#ffffff" stroke="transparent" points="948,-173.5285 948,-234.5285 1140,-234.5285 1140,-173.5285 948,-173.5285"/>
<polygon fill="#f5f5f5" stroke="transparent" points="948,-211.0285 948,-234.0285 1140,-234.0285 1140,-211.0285 948,-211.0285"/>
<polygon fill="none" stroke="#000000" points="948,-211.0285 948,-234.0285 1140,-234.0285 1140,-211.0285 948,-211.0285"/>
<text text-anchor="start" x="952.9277" y="-220.1285" font-family="Helvetica,sans-Serif" font-weight="bold" font-size="11.00" fill="#000000">completed_normal_challenges</text>
<text text-anchor="start" x="1105.5219" y="-219.1285" font-family="Helvetica,sans-Serif" font-size="11.00" fill="#000000">[table]</text>
<polygon fill="none" stroke="#000000" points="948,-192.0285 948,-211.0285 1140,-211.0285 1140,-192.0285 948,-192.0285"/>
<text text-anchor="start" x="951" y="-198.1285" font-family="Helvetica,sans-Serif" font-size="11.00" fill="#000000">...</text>
<polygon fill="#ffffff" stroke="transparent" points="948,-173.0285 948,-192.0285 1029,-192.0285 1029,-173.0285 948,-173.0285"/>
<polygon fill="none" stroke="#000000" points="948,-173.0285 948,-192.0285 1029,-192.0285 1029,-173.0285 948,-173.0285"/>
<text text-anchor="start" x="951" y="-179.1285" font-family="Helvetica,sans-Serif" font-size="11.00" fill="#000000">&lt; 3</text>
<polygon fill="#ffffff" stroke="transparent" points="1029,-173.0285 1029,-192.0285 1097,-192.0285 1097,-173.0285 1029,-173.0285"/>
<polygon fill="none" stroke="#000000" points="1029,-173.0285 1029,-192.0285 1097,-192.0285 1097,-173.0285 1029,-173.0285"/>
<text text-anchor="start" x="1061.6105" y="-179.1285" font-family="Helvetica,sans-Serif" font-size="11.00" fill="#000000">0 rows</text>
<polygon fill="#ffffff" stroke="transparent" points="1097,-173.0285 1097,-192.0285 1140,-192.0285 1140,-173.0285 1097,-173.0285"/>
<polygon fill="none" stroke="#000000" points="1097,-173.0285 1097,-192.0285 1140,-192.0285 1140,-173.0285 1097,-173.0285"/>
<text text-anchor="start" x="1130.8862" y="-179.1285" font-family="Helvetica,sans-Serif" font-size="11.00" fill="#000000"> &#160;</text>
</a>
</g>
</g>
<!-- normal_challenges -->
<g id="node8" class="node">
<title>normal_challenges</title>
<g id="a_node8"><a xlink:href="../../tables/normal_challenges.html" xlink:title="normal_challenges" target="_top">
<polygon fill="#ffffff" stroke="transparent" points="764,-141.5285 764,-246.5285 899,-246.5285 899,-141.5285 764,-141.5285"/>
<polygon fill="#f5f5f5" stroke="transparent" points="764.5,-223.0285 764.5,-246.0285 899.5,-246.0285 899.5,-223.0285 764.5,-223.0285"/>
<polygon fill="none" stroke="#000000" points="764.5,-223.0285 764.5,-246.0285 899.5,-246.0285 899.5,-223.0285 764.5,-223.0285"/>
<text text-anchor="start" x="769.3523" y="-232.1285" font-family="Helvetica,sans-Serif" font-weight="bold" font-size="11.00" fill="#000000">normal_challenges</text>
<text text-anchor="start" x="865.0219" y="-231.1285" font-family="Helvetica,sans-Serif" font-size="11.00" fill="#000000">[table]</text>
<polygon fill="none" stroke="#000000" points="764.5,-201.0285 764.5,-223.0285 899.5,-223.0285 899.5,-201.0285 764.5,-201.0285"/>
<image xlink:href="../../images/primaryKeys.png" width="11px" height="12px" preserveAspectRatio="xMinYMin meet" x="769.5" y="-218.028"/>
<text text-anchor="start" x="787.5" y="-208.1285" font-family="Helvetica,sans-Serif" font-size="11.00" fill="#000000">classes_id</text>
<polygon fill="none" stroke="#000000" points="764.5,-179.0285 764.5,-201.0285 899.5,-201.0285 899.5,-179.0285 764.5,-179.0285"/>
<image xlink:href="../../images/primaryKeys.png" width="11px" height="12px" preserveAspectRatio="xMinYMin meet" x="769.5" y="-196.028"/>
<text text-anchor="start" x="787.5" y="-186.1285" font-family="Helvetica,sans-Serif" font-size="11.00" fill="#000000">challenges_id</text>
<polygon fill="none" stroke="#000000" points="764.5,-160.0285 764.5,-179.0285 899.5,-179.0285 899.5,-160.0285 764.5,-160.0285"/>
<text text-anchor="start" x="767.5" y="-166.1285" font-family="Helvetica,sans-Serif" font-size="11.00" fill="#000000">...</text>
<polygon fill="#ffffff" stroke="transparent" points="764.5,-141.0285 764.5,-160.0285 812.5,-160.0285 812.5,-141.0285 764.5,-141.0285"/>
<polygon fill="none" stroke="#000000" points="764.5,-141.0285 764.5,-160.0285 812.5,-160.0285 812.5,-141.0285 764.5,-141.0285"/>
<text text-anchor="start" x="767.5" y="-147.1285" font-family="Helvetica,sans-Serif" font-size="11.00" fill="#000000">&lt; 2</text>
<polygon fill="#ffffff" stroke="transparent" points="812.5,-141.0285 812.5,-160.0285 864.5,-160.0285 864.5,-141.0285 812.5,-141.0285"/>
<polygon fill="none" stroke="#000000" points="812.5,-141.0285 812.5,-160.0285 864.5,-160.0285 864.5,-141.0285 812.5,-141.0285"/>
<text text-anchor="start" x="829.1105" y="-147.1285" font-family="Helvetica,sans-Serif" font-size="11.00" fill="#000000">0 rows</text>
<polygon fill="#ffffff" stroke="transparent" points="864.5,-141.0285 864.5,-160.0285 899.5,-160.0285 899.5,-141.0285 864.5,-141.0285"/>
<polygon fill="none" stroke="#000000" points="864.5,-141.0285 864.5,-160.0285 899.5,-160.0285 899.5,-141.0285 864.5,-141.0285"/>
<text text-anchor="start" x="880.9053" y="-147.1285" font-family="Helvetica,sans-Serif" font-size="11.00" fill="#000000">2 &gt;</text>
</a>
</g>
</g>
<!-- completed_normal_challenges&#45;&gt;normal_challenges -->
<g id="edge7" class="edge">
<title>completed_normal_challenges:w&#45;&gt;normal_challenges:e</title>
<path fill="none" stroke="#000000" d="M933.4888,-199.1124C922.3593,-195.9608 915.7319,-190.0285 899.5,-190.0285"/>
<polygon fill="#000000" stroke="#000000" points="940.0688,-199.9812 947.5287,-204.5975 944.0344,-200.5048 948,-201.0285 948,-201.0285 948,-201.0285 944.0344,-200.5048 948.4713,-197.4594 940.0688,-199.9812 940.0688,-199.9812"/>
<ellipse fill="none" stroke="#000000" cx="936.8964" cy="-199.5623" rx="3.2" ry="3.2"/>
</g>
<!-- completed_normal_challenges&#45;&gt;normal_challenges -->
<g id="edge8" class="edge">
<title>completed_normal_challenges:w&#45;&gt;normal_challenges:e</title>
<path fill="none" stroke="#000000" d="M933.4888,-202.9445C922.3593,-206.0961 915.7319,-212.0285 899.5,-212.0285"/>
<polygon fill="#000000" stroke="#000000" points="940.0688,-202.0757 948.4713,-204.5975 944.0344,-201.5521 948,-201.0285 948,-201.0285 948,-201.0285 944.0344,-201.5521 947.5287,-197.4594 940.0688,-202.0757 940.0688,-202.0757"/>
<ellipse fill="none" stroke="#000000" cx="936.8964" cy="-202.4946" rx="3.2" ry="3.2"/>
</g>
<!-- normal_challenges&#45;&gt;challenges -->
<g id="edge14" class="edge">
<title>normal_challenges:w&#45;&gt;challenges:e</title>
<path fill="none" stroke="#000000" d="M750.0997,-191.7307C668.9081,-213.4654 819.2493,-436.0285 713,-436.0285"/>
<polygon fill="#000000" stroke="#000000" points="756.5553,-190.9676 764.9226,-193.6036 760.5277,-190.4981 764.5,-190.0285 764.5,-190.0285 764.5,-190.0285 760.5277,-190.4981 764.0774,-186.4534 756.5553,-190.9676 756.5553,-190.9676"/>
<ellipse fill="none" stroke="#000000" cx="753.3774" cy="-191.3433" rx="3.2" ry="3.2"/>
</g>
<!-- normal_challenges&#45;&gt;classes -->
<g id="edge15" class="edge">
<title>normal_challenges:w&#45;&gt;classes:e</title>
<path fill="none" stroke="#000000" d="M750.1993,-209.2609C719.4446,-194.0858 764.3853,-120.5861 723,-91.0285 621.7316,-18.7019 539.4102,-12.3424 443,-91.0285 373.4127,-147.8228 492.322,-289.0285 402.5,-289.0285"/>
<polygon fill="#000000" stroke="#000000" points="756.6457,-210.5084 763.816,-215.5629 760.5729,-211.2684 764.5,-212.0285 764.5,-212.0285 764.5,-212.0285 760.5729,-211.2684 765.184,-208.494 756.6457,-210.5084 756.6457,-210.5084"/>
<ellipse fill="none" stroke="#000000" cx="753.504" cy="-209.9004" rx="3.2" ry="3.2"/>
</g>
<!-- events -->
<g id="node9" class="node">
<title>events</title>
<g id="a_node9"><a xlink:href="../../tables/events.html" xlink:title="events" target="_top">
<polygon fill="#ffffff" stroke="transparent" points="165,-169.5285 165,-230.5285 245,-230.5285 245,-169.5285 165,-169.5285"/>
<polygon fill="#f5f5f5" stroke="transparent" points="165,-207.0285 165,-230.0285 245,-230.0285 245,-207.0285 165,-207.0285"/>
<polygon fill="none" stroke="#000000" points="165,-207.0285 165,-230.0285 245,-230.0285 245,-207.0285 165,-207.0285"/>
<text text-anchor="start" x="170" y="-216.1285" font-family="Helvetica,sans-Serif" font-weight="bold" font-size="11.00" fill="#000000">events</text>
<text text-anchor="start" x="210.0437" y="-215.1285" font-family="Helvetica,sans-Serif" font-size="11.00" fill="#000000">[table]</text>
<polygon fill="none" stroke="#000000" points="165,-188.0285 165,-207.0285 245,-207.0285 245,-188.0285 165,-188.0285"/>
<text text-anchor="start" x="168" y="-194.1285" font-family="Helvetica,sans-Serif" font-size="11.00" fill="#000000">...</text>
<polygon fill="#ffffff" stroke="transparent" points="165,-169.0285 165,-188.0285 186,-188.0285 186,-169.0285 165,-169.0285"/>
<polygon fill="none" stroke="#000000" points="165,-169.0285 165,-188.0285 186,-188.0285 186,-169.0285 165,-169.0285"/>
<text text-anchor="start" x="167.7027" y="-175.1285" font-family="Helvetica,sans-Serif" font-size="11.00" fill="#000000">&lt; 1</text>
<polygon fill="#ffffff" stroke="transparent" points="186,-169.0285 186,-188.0285 224,-188.0285 224,-169.0285 186,-169.0285"/>
<polygon fill="none" stroke="#000000" points="186,-169.0285 186,-188.0285 224,-188.0285 224,-169.0285 186,-169.0285"/>
<text text-anchor="start" x="188.8053" y="-175.1285" font-family="Helvetica,sans-Serif" font-size="11.00" fill="#000000">0 rows</text>
<polygon fill="#ffffff" stroke="transparent" points="224,-169.0285 224,-188.0285 245,-188.0285 245,-169.0285 224,-169.0285"/>
<polygon fill="none" stroke="#000000" points="224,-169.0285 224,-188.0285 245,-188.0285 245,-169.0285 224,-169.0285"/>
<text text-anchor="start" x="226.7027" y="-175.1285" font-family="Helvetica,sans-Serif" font-size="11.00" fill="#000000">1 &gt;</text>
</a>
</g>
</g>
<!-- events&#45;&gt;gyms -->
<g id="edge11" class="edge">
<title>events:w&#45;&gt;gyms:e</title>
<path fill="none" stroke="#000000" d="M150.66,-199.5932C128.0145,-208.5691 124.551,-238.0285 93.5,-238.0285"/>
<polygon fill="#000000" stroke="#000000" points="157.125,-198.437 165.6338,-200.5722 161.0625,-197.7327 165,-197.0285 165,-197.0285 165,-197.0285 161.0625,-197.7327 164.3662,-193.4847 157.125,-198.437 157.125,-198.437"/>
<ellipse fill="none" stroke="#000000" cx="153.9749" cy="-199.0004" rx="3.2" ry="3.2"/>
</g>
<!-- gymnasts_classes -->
<g id="node10" class="node">
<title>gymnasts_classes</title>
<g id="a_node10"><a xlink:href="../../tables/gymnasts_classes.html" xlink:title="gymnasts_classes" target="_top">
<polygon fill="#ffffff" stroke="transparent" points="517,-101.5285 517,-162.5285 649,-162.5285 649,-101.5285 517,-101.5285"/>
<polygon fill="#f5f5f5" stroke="transparent" points="517,-139.0285 517,-162.0285 649,-162.0285 649,-139.0285 517,-139.0285"/>
<polygon fill="none" stroke="#000000" points="517,-139.0285 517,-162.0285 649,-162.0285 649,-139.0285 517,-139.0285"/>
<text text-anchor="start" x="521.5755" y="-148.1285" font-family="Helvetica,sans-Serif" font-weight="bold" font-size="11.00" fill="#000000">gymnasts_classes</text>
<text text-anchor="start" x="614.5219" y="-147.1285" font-family="Helvetica,sans-Serif" font-size="11.00" fill="#000000">[table]</text>
<polygon fill="none" stroke="#000000" points="517,-120.0285 517,-139.0285 649,-139.0285 649,-120.0285 517,-120.0285"/>
<text text-anchor="start" x="520" y="-126.1285" font-family="Helvetica,sans-Serif" font-size="11.00" fill="#000000">...</text>
<polygon fill="#ffffff" stroke="transparent" points="517,-101.0285 517,-120.0285 568,-120.0285 568,-101.0285 517,-101.0285"/>
<polygon fill="none" stroke="#000000" points="517,-101.0285 517,-120.0285 568,-120.0285 568,-101.0285 517,-101.0285"/>
<text text-anchor="start" x="520" y="-107.1285" font-family="Helvetica,sans-Serif" font-size="11.00" fill="#000000">&lt; 2</text>
<polygon fill="#ffffff" stroke="transparent" points="568,-101.0285 568,-120.0285 621,-120.0285 621,-101.0285 568,-101.0285"/>
<polygon fill="none" stroke="#000000" points="568,-101.0285 568,-120.0285 621,-120.0285 621,-101.0285 568,-101.0285"/>
<text text-anchor="start" x="585.6105" y="-107.1285" font-family="Helvetica,sans-Serif" font-size="11.00" fill="#000000">0 rows</text>
<polygon fill="#ffffff" stroke="transparent" points="621,-101.0285 621,-120.0285 649,-120.0285 649,-101.0285 621,-101.0285"/>
<polygon fill="none" stroke="#000000" points="621,-101.0285 621,-120.0285 649,-120.0285 649,-101.0285 621,-101.0285"/>
<text text-anchor="start" x="639.8862" y="-107.1285" font-family="Helvetica,sans-Serif" font-size="11.00" fill="#000000"> &#160;</text>
</a>
</g>
</g>
<!-- gymnasts_classes&#45;&gt;classes -->
<g id="edge12" class="edge">
<title>gymnasts_classes:w&#45;&gt;classes:e</title>
<path fill="none" stroke="#000000" d="M502.2648,-129.9238C475.0842,-133.5695 463.8394,-148.3384 443,-174.0285 408.8628,-216.1117 456.6881,-289.0285 402.5,-289.0285"/>
<polygon fill="#000000" stroke="#000000" points="509.0147,-129.5137 517.2184,-132.6218 513.0074,-129.2711 517,-129.0285 517,-129.0285 517,-129.0285 513.0074,-129.2711 516.7816,-125.4351 509.0147,-129.5137 509.0147,-129.5137"/>
<ellipse fill="none" stroke="#000000" cx="505.8206" cy="-129.7078" rx="3.2" ry="3.2"/>
</g>
<!-- gyms_has_users -->
<g id="node11" class="node">
<title>gyms_has_users</title>
<g id="a_node11"><a xlink:href="../../tables/gyms_has_users.html" xlink:title="gyms_has_users" target="_top">
<polygon fill="#ffffff" stroke="transparent" points="142,-87.5285 142,-148.5285 268,-148.5285 268,-87.5285 142,-87.5285"/>
<polygon fill="#f5f5f5" stroke="transparent" points="142,-125.0285 142,-148.0285 268,-148.0285 268,-125.0285 142,-125.0285"/>
<polygon fill="none" stroke="#000000" points="142,-125.0285 142,-148.0285 268,-148.0285 268,-125.0285 142,-125.0285"/>
<text text-anchor="start" x="146.936" y="-134.1285" font-family="Helvetica,sans-Serif" font-weight="bold" font-size="11.00" fill="#000000">gyms_has_users</text>
<text text-anchor="start" x="233.5219" y="-133.1285" font-family="Helvetica,sans-Serif" font-size="11.00" fill="#000000">[table]</text>
<polygon fill="none" stroke="#000000" points="142,-106.0285 142,-125.0285 268,-125.0285 268,-106.0285 142,-106.0285"/>
<text text-anchor="start" x="145" y="-112.1285" font-family="Helvetica,sans-Serif" font-size="11.00" fill="#000000">...</text>
<polygon fill="#ffffff" stroke="transparent" points="142,-87.0285 142,-106.0285 186,-106.0285 186,-87.0285 142,-87.0285"/>
<polygon fill="none" stroke="#000000" points="142,-87.0285 142,-106.0285 186,-106.0285 186,-87.0285 142,-87.0285"/>
<text text-anchor="start" x="145" y="-93.1285" font-family="Helvetica,sans-Serif" font-size="11.00" fill="#000000">&lt; 2</text>
<polygon fill="#ffffff" stroke="transparent" points="186,-87.0285 186,-106.0285 235,-106.0285 235,-87.0285 186,-87.0285"/>
<polygon fill="none" stroke="#000000" points="186,-87.0285 186,-106.0285 235,-106.0285 235,-87.0285 186,-87.0285"/>
<text text-anchor="start" x="199.6105" y="-93.1285" font-family="Helvetica,sans-Serif" font-size="11.00" fill="#000000">0 rows</text>
<polygon fill="#ffffff" stroke="transparent" points="235,-87.0285 235,-106.0285 268,-106.0285 268,-87.0285 235,-87.0285"/>
<polygon fill="none" stroke="#000000" points="235,-87.0285 235,-106.0285 268,-106.0285 268,-87.0285 235,-87.0285"/>
<text text-anchor="start" x="249.4053" y="-93.1285" font-family="Helvetica,sans-Serif" font-size="11.00" fill="#000000">2 &gt;</text>
</a>
</g>
</g>
<!-- gyms_has_users&#45;&gt;gyms -->
<g id="edge13" class="edge">
<title>gyms_has_users:w&#45;&gt;gyms:e</title>
<path fill="none" stroke="#000000" d="M127.7823,-118.577C95.9398,-138.7441 146.2949,-238.0285 93.5,-238.0285"/>
<polygon fill="#000000" stroke="#000000" points="134.2381,-116.9657 142.8718,-118.5213 138.119,-115.9971 142,-115.0285 142,-115.0285 142,-115.0285 138.119,-115.9971 141.1282,-111.5356 134.2381,-116.9657 134.2381,-116.9657"/>
<ellipse fill="none" stroke="#000000" cx="131.1333" cy="-117.7407" rx="3.2" ry="3.2"/>
</g>
</g>
</svg>
