<?xml version="1.0" encoding="UTF-8" standalone="no"?>
<!DOCTYPE svg PUBLIC "-//W3C//DTD SVG 1.1//EN"
 "http://www.w3.org/Graphics/SVG/1.1/DTD/svg11.dtd">
<!-- Generated by graphviz version 2.40.1 (20161225.0304)
 -->
<!-- Title: oneDegreeRelationshipsDiagram Pages: 1 -->
<svg width="606pt" height="441pt"
 viewBox="0.00 0.00 606.00 441.43" xmlns="http://www.w3.org/2000/svg" xmlns:xlink="http://www.w3.org/1999/xlink">
<g id="graph0" class="graph" transform="scale(1 1) rotate(0) translate(4 437.4261)">
<title>oneDegreeRelationshipsDiagram</title>
<polygon fill="#ffffff" stroke="transparent" points="-4,4 -4,-437.4261 602,-437.4261 602,4 -4,4"/>
<text text-anchor="middle" x="72.4936" y="-7.3" font-family="Helvetica,sans-Serif" font-size="11.00" fill="#000000">Generated by SchemaSpy</text>
<!-- challenges -->
<g id="node1" class="node">
<title>challenges</title>
<g id="a_node1"><a xlink:href="../../tables/challenges.html" xlink:title="challenges" target="_top">
<polygon fill="#ffffff" stroke="transparent" points="142,-97.3023 142,-385.3023 406,-385.3023 406,-97.3023 142,-97.3023"/>
<polygon fill="#f5f5f5" stroke="transparent" points="144,-360.3023 144,-383.3023 404,-383.3023 404,-360.3023 144,-360.3023"/>
<polygon fill="none" stroke="#000000" points="144,-360.3023 144,-383.3023 404,-383.3023 404,-360.3023 144,-360.3023"/>
<text text-anchor="start" x="149" y="-369.4023" font-family="Helvetica,sans-Serif" font-weight="bold" font-size="11.00" fill="#000000">challenges</text>
<text text-anchor="start" x="369.0437" y="-368.4023" font-family="Helvetica,sans-Serif" font-size="11.00" fill="#000000">[table]</text>
<polygon fill="none" stroke="#000000" points="144,-338.3023 144,-360.3023 287,-360.3023 287,-338.3023 144,-338.3023"/>
<image xlink:href="../../images/primaryKeys.png" width="11px" height="12px" preserveAspectRatio="xMinYMin meet" x="149" y="-355.302"/>
<text text-anchor="start" x="164" y="-345.4023" font-family="Helvetica,sans-Serif" font-size="11.00" fill="#000000">id</text>
<polygon fill="none" stroke="#000000" points="287,-338.3023 287,-360.3023 404,-360.3023 404,-338.3023 287,-338.3023"/>
<text text-anchor="start" x="290" y="-346.0023" font-family="Helvetica,sans-Serif" font-size="11.00" fill="#000000">bigint[19]</text>
<polygon fill="none" stroke="#000000" points="144,-316.3023 144,-338.3023 287,-338.3023 287,-316.3023 144,-316.3023"/>
<text text-anchor="start" x="164" y="-323.4023" font-family="Helvetica,sans-Serif" font-size="11.00" fill="#000000">name</text>
<polygon fill="none" stroke="#000000" points="287,-316.3023 287,-338.3023 404,-338.3023 404,-316.3023 287,-316.3023"/>
<text text-anchor="start" x="290" y="-324.0023" font-family="Helvetica,sans-Serif" font-size="11.00" fill="#000000">varchar[45]</text>
<polygon fill="none" stroke="#000000" points="144,-294.3023 144,-316.3023 287,-316.3023 287,-294.3023 144,-294.3023"/>
<text text-anchor="start" x="164" y="-301.4023" font-family="Helvetica,sans-Serif" font-size="11.00" fill="#000000">description</text>
<polygon fill="none" stroke="#000000" points="287,-294.3023 287,-316.3023 404,-316.3023 404,-294.3023 287,-294.3023"/>
<text text-anchor="start" x="289.5645" y="-302.0023" font-family="Helvetica,sans-Serif" font-size="11.00" fill="#000000">mediumtext[16777215]</text>
<polygon fill="none" stroke="#000000" points="144,-272.3023 144,-294.3023 287,-294.3023 287,-272.3023 144,-272.3023"/>
<text text-anchor="start" x="164" y="-279.4023" font-family="Helvetica,sans-Serif" font-size="11.00" fill="#000000">points</text>
<polygon fill="none" stroke="#000000" points="287,-272.3023 287,-294.3023 404,-294.3023 404,-272.3023 287,-272.3023"/>
<text text-anchor="start" x="290" y="-280.0023" font-family="Helvetica,sans-Serif" font-size="11.00" fill="#000000">int[10]</text>
<polygon fill="#ffffff" stroke="transparent" points="144,-250.3023 144,-272.3023 287,-272.3023 287,-250.3023 144,-250.3023"/>
<polygon fill="none" stroke="#000000" points="144,-250.3023 144,-272.3023 287,-272.3023 287,-250.3023 144,-250.3023"/>
<image xlink:href="../../images/foreignKeys.png" width="11px" height="12px" preserveAspectRatio="xMinYMin meet" x="149" y="-267.302"/>
<text text-anchor="start" x="164" y="-257.4023" font-family="Helvetica,sans-Serif" font-size="11.00" fill="#000000">gym_id</text>
<polygon fill="none" stroke="#000000" points="287,-250.3023 287,-272.3023 404,-272.3023 404,-250.3023 287,-250.3023"/>
<text text-anchor="start" x="290" y="-258.0023" font-family="Helvetica,sans-Serif" font-size="11.00" fill="#000000">bigint[19]</text>
<polygon fill="#ffffff" stroke="transparent" points="144,-228.3023 144,-250.3023 287,-250.3023 287,-228.3023 144,-228.3023"/>
<polygon fill="none" stroke="#000000" points="144,-228.3023 144,-250.3023 287,-250.3023 287,-228.3023 144,-228.3023"/>
<image xlink:href="../../images/foreignKeys.png" width="11px" height="12px" preserveAspectRatio="xMinYMin meet" x="149" y="-245.302"/>
<text text-anchor="start" x="164" y="-235.4023" font-family="Helvetica,sans-Serif" font-size="11.00" fill="#000000">class_id</text>
<polygon fill="none" stroke="#000000" points="287,-228.3023 287,-250.3023 404,-250.3023 404,-228.3023 287,-228.3023"/>
<text text-anchor="start" x="290" y="-236.0023" font-family="Helvetica,sans-Serif" font-size="11.00" fill="#000000">bigint[19]</text>
<polygon fill="none" stroke="#000000" points="144,-206.3023 144,-228.3023 287,-228.3023 287,-206.3023 144,-206.3023"/>
<text text-anchor="start" x="164" y="-213.4023" font-family="Helvetica,sans-Serif" font-size="11.00" fill="#000000">is_daily</text>
<polygon fill="none" stroke="#000000" points="287,-206.3023 287,-228.3023 404,-228.3023 404,-206.3023 287,-206.3023"/>
<text text-anchor="start" x="290" y="-214.0023" font-family="Helvetica,sans-Serif" font-size="11.00" fill="#000000">bit[1]</text>
<polygon fill="none" stroke="#000000" points="144,-184.3023 144,-206.3023 287,-206.3023 287,-184.3023 144,-184.3023"/>
<text text-anchor="start" x="164" y="-191.4023" font-family="Helvetica,sans-Serif" font-size="11.00" fill="#000000">daily_expiration_date</text>
<polygon fill="none" stroke="#000000" points="287,-184.3023 287,-206.3023 404,-206.3023 404,-184.3023 287,-184.3023"/>
<text text-anchor="start" x="290" y="-192.0023" font-family="Helvetica,sans-Serif" font-size="11.00" fill="#000000">date[10]</text>
<polygon fill="none" stroke="#000000" points="144,-162.3023 144,-184.3023 287,-184.3023 287,-162.3023 144,-162.3023"/>
<text text-anchor="start" x="164" y="-169.4023" font-family="Helvetica,sans-Serif" font-size="11.00" fill="#000000">created_at</text>
<polygon fill="none" stroke="#000000" points="287,-162.3023 287,-184.3023 404,-184.3023 404,-162.3023 287,-162.3023"/>
<text text-anchor="start" x="290" y="-170.0023" font-family="Helvetica,sans-Serif" font-size="11.00" fill="#000000">timestamp[19]</text>
<polygon fill="none" stroke="#000000" points="144,-140.3023 144,-162.3023 287,-162.3023 287,-140.3023 144,-140.3023"/>
<text text-anchor="start" x="164" y="-147.4023" font-family="Helvetica,sans-Serif" font-size="11.00" fill="#000000">updated_at</text>
<polygon fill="none" stroke="#000000" points="287,-140.3023 287,-162.3023 404,-162.3023 404,-140.3023 287,-140.3023"/>
<text text-anchor="start" x="290" y="-148.0023" font-family="Helvetica,sans-Serif" font-size="11.00" fill="#000000">timestamp[19]</text>
<polygon fill="none" stroke="#000000" points="144,-118.3023 144,-140.3023 287,-140.3023 287,-118.3023 144,-118.3023"/>
<text text-anchor="start" x="164" y="-125.4023" font-family="Helvetica,sans-Serif" font-size="11.00" fill="#000000">deleted_at</text>
<polygon fill="none" stroke="#000000" points="287,-118.3023 287,-140.3023 404,-140.3023 404,-118.3023 287,-118.3023"/>
<text text-anchor="start" x="290" y="-126.0023" font-family="Helvetica,sans-Serif" font-size="11.00" fill="#000000">timestamp[19]</text>
<polygon fill="#ffffff" stroke="transparent" points="144,-99.3023 144,-118.3023 207,-118.3023 207,-99.3023 144,-99.3023"/>
<polygon fill="none" stroke="#000000" points="144,-99.3023 144,-118.3023 207,-118.3023 207,-99.3023 144,-99.3023"/>
<text text-anchor="start" x="147" y="-105.4023" font-family="Helvetica,sans-Serif" font-size="11.00" fill="#000000">&lt; 2</text>
<polygon fill="#ffffff" stroke="transparent" points="207,-99.3023 207,-118.3023 287,-118.3023 287,-99.3023 207,-99.3023"/>
<polygon fill="none" stroke="#000000" points="207,-99.3023 207,-118.3023 287,-118.3023 287,-99.3023 207,-99.3023"/>
<text text-anchor="start" x="251.6105" y="-105.4023" font-family="Helvetica,sans-Serif" font-size="11.00" fill="#000000">0 rows</text>
<polygon fill="#ffffff" stroke="transparent" points="287,-99.3023 287,-118.3023 404,-118.3023 404,-99.3023 287,-99.3023"/>
<polygon fill="none" stroke="#000000" points="287,-99.3023 287,-118.3023 404,-118.3023 404,-99.3023 287,-99.3023"/>
<text text-anchor="start" x="385.4053" y="-105.4023" font-family="Helvetica,sans-Serif" font-size="11.00" fill="#000000">2 &gt;</text>
<polygon fill="none" stroke="#000000" stroke-width="2" points="143,-98.3023 143,-384.3023 405,-384.3023 405,-98.3023 143,-98.3023"/>
</a>
</g>
</g>
<!-- classes -->
<g id="node2" class="node">
<title>classes</title>
<g id="a_node2"><a xlink:href="../../tables/classes.html" xlink:title="classes" target="_top">
<polygon fill="#ffffff" stroke="transparent" points="8,-127.8023 8,-232.8023 93,-232.8023 93,-127.8023 8,-127.8023"/>
<polygon fill="#f5f5f5" stroke="transparent" points="8.5,-209.3023 8.5,-232.3023 93.5,-232.3023 93.5,-209.3023 8.5,-209.3023"/>
<polygon fill="none" stroke="#000000" points="8.5,-209.3023 8.5,-232.3023 93.5,-232.3023 93.5,-209.3023 8.5,-209.3023"/>
<text text-anchor="start" x="13.5" y="-218.4023" font-family="Helvetica,sans-Serif" font-weight="bold" font-size="11.00" fill="#000000">classes</text>
<text text-anchor="start" x="58.5437" y="-217.4023" font-family="Helvetica,sans-Serif" font-size="11.00" fill="#000000">[table]</text>
<polygon fill="none" stroke="#000000" points="8.5,-187.3023 8.5,-209.3023 93.5,-209.3023 93.5,-187.3023 8.5,-187.3023"/>
<image xlink:href="../../images/primaryKeys.png" width="11px" height="12px" preserveAspectRatio="xMinYMin meet" x="13.5" y="-204.302"/>
<text text-anchor="start" x="28.5" y="-194.4023" font-family="Helvetica,sans-Serif" font-size="11.00" fill="#000000">id</text>
<polygon fill="#ffffff" stroke="transparent" points="8.5,-165.3023 8.5,-187.3023 93.5,-187.3023 93.5,-165.3023 8.5,-165.3023"/>
<polygon fill="none" stroke="#000000" points="8.5,-165.3023 8.5,-187.3023 93.5,-187.3023 93.5,-165.3023 8.5,-165.3023"/>
<image xlink:href="../../images/foreignKeys.png" width="11px" height="12px" preserveAspectRatio="xMinYMin meet" x="13.5" y="-182.302"/>
<text text-anchor="start" x="28.5" y="-172.4023" font-family="Helvetica,sans-Serif" font-size="11.00" fill="#000000">skill_list_id</text>
<polygon fill="none" stroke="#000000" points="8.5,-146.3023 8.5,-165.3023 93.5,-165.3023 93.5,-146.3023 8.5,-146.3023"/>
<text text-anchor="start" x="11.5" y="-152.4023" font-family="Helvetica,sans-Serif" font-size="11.00" fill="#000000">...</text>
<polygon fill="#ffffff" stroke="transparent" points="8.5,-127.3023 8.5,-146.3023 31.5,-146.3023 31.5,-127.3023 8.5,-127.3023"/>
<polygon fill="none" stroke="#000000" points="8.5,-127.3023 8.5,-146.3023 31.5,-146.3023 31.5,-127.3023 8.5,-127.3023"/>
<text text-anchor="start" x="11.5" y="-133.4023" font-family="Helvetica,sans-Serif" font-size="11.00" fill="#000000">&lt; 1</text>
<polygon fill="#ffffff" stroke="transparent" points="31.5,-127.3023 31.5,-146.3023 70.5,-146.3023 70.5,-127.3023 31.5,-127.3023"/>
<polygon fill="none" stroke="#000000" points="31.5,-127.3023 31.5,-146.3023 70.5,-146.3023 70.5,-127.3023 31.5,-127.3023"/>
<text text-anchor="start" x="35.1105" y="-133.4023" font-family="Helvetica,sans-Serif" font-size="11.00" fill="#000000">0 rows</text>
<polygon fill="#ffffff" stroke="transparent" points="70.5,-127.3023 70.5,-146.3023 93.5,-146.3023 93.5,-127.3023 70.5,-127.3023"/>
<polygon fill="none" stroke="#000000" points="70.5,-127.3023 70.5,-146.3023 93.5,-146.3023 93.5,-127.3023 70.5,-127.3023"/>
<text text-anchor="start" x="74.9053" y="-133.4023" font-family="Helvetica,sans-Serif" font-size="11.00" fill="#000000">4 &gt;</text>
</a>
</g>
</g>
<!-- challenges&#45;&gt;classes -->
<g id="edge1" class="edge">
<title>challenges:w&#45;&gt;classes:e</title>
<path fill="none" stroke="#000000" d="M130.2601,-234.9146C116.5688,-224.3377 116.5379,-198.3023 93.5,-198.3023"/>
<polygon fill="#000000" stroke="#000000" points="136.3792,-236.8686 142.9048,-242.7317 140.1896,-238.0854 144,-239.3023 144,-239.3023 144,-239.3023 140.1896,-238.0854 145.0952,-235.8729 136.3792,-236.8686 136.3792,-236.8686"/>
<ellipse fill="none" stroke="#000000" cx="133.3308" cy="-235.8951" rx="3.2" ry="3.2"/>
</g>
<!-- gyms -->
<g id="node3" class="node">
<title>gyms</title>
<g id="a_node3"><a xlink:href="../../tables/gyms.html" xlink:title="gyms" target="_top">
<polygon fill="#ffffff" stroke="transparent" points="8,-253.8023 8,-336.8023 93,-336.8023 93,-253.8023 8,-253.8023"/>
<polygon fill="#f5f5f5" stroke="transparent" points="8.5,-313.3023 8.5,-336.3023 93.5,-336.3023 93.5,-313.3023 8.5,-313.3023"/>
<polygon fill="none" stroke="#000000" points="8.5,-313.3023 8.5,-336.3023 93.5,-336.3023 93.5,-313.3023 8.5,-313.3023"/>
<text text-anchor="start" x="13.5" y="-322.4023" font-family="Helvetica,sans-Serif" font-weight="bold" font-size="11.00" fill="#000000">gyms</text>
<text text-anchor="start" x="58.5437" y="-321.4023" font-family="Helvetica,sans-Serif" font-size="11.00" fill="#000000">[table]</text>
<polygon fill="none" stroke="#000000" points="8.5,-291.3023 8.5,-313.3023 93.5,-313.3023 93.5,-291.3023 8.5,-291.3023"/>
<image xlink:href="../../images/primaryKeys.png" width="11px" height="12px" preserveAspectRatio="xMinYMin meet" x="13.5" y="-308.302"/>
<text text-anchor="start" x="28.5" y="-298.4023" font-family="Helvetica,sans-Serif" font-size="11.00" fill="#000000">id</text>
<polygon fill="none" stroke="#000000" points="8.5,-272.3023 8.5,-291.3023 93.5,-291.3023 93.5,-272.3023 8.5,-272.3023"/>
<text text-anchor="start" x="11.5" y="-278.4023" font-family="Helvetica,sans-Serif" font-size="11.00" fill="#000000">...</text>
<polygon fill="#ffffff" stroke="transparent" points="8.5,-253.3023 8.5,-272.3023 27.5,-272.3023 27.5,-253.3023 8.5,-253.3023"/>
<polygon fill="none" stroke="#000000" points="8.5,-253.3023 8.5,-272.3023 27.5,-272.3023 27.5,-253.3023 8.5,-253.3023"/>
<text text-anchor="start" x="11.5" y="-259.4023" font-family="Helvetica,sans-Serif" font-size="11.00" fill="#000000"> &#160;</text>
<polygon fill="#ffffff" stroke="transparent" points="27.5,-253.3023 27.5,-272.3023 68.5,-272.3023 68.5,-253.3023 27.5,-253.3023"/>
<polygon fill="none" stroke="#000000" points="27.5,-253.3023 27.5,-272.3023 68.5,-272.3023 68.5,-253.3023 27.5,-253.3023"/>
<text text-anchor="start" x="33.1105" y="-259.4023" font-family="Helvetica,sans-Serif" font-size="11.00" fill="#000000">0 rows</text>
<polygon fill="#ffffff" stroke="transparent" points="68.5,-253.3023 68.5,-272.3023 93.5,-272.3023 93.5,-253.3023 68.5,-253.3023"/>
<polygon fill="none" stroke="#000000" points="68.5,-253.3023 68.5,-272.3023 93.5,-272.3023 93.5,-253.3023 68.5,-253.3023"/>
<text text-anchor="start" x="74.9053" y="-259.4023" font-family="Helvetica,sans-Serif" font-size="11.00" fill="#000000">4 &gt;</text>
</a>
</g>
</g>
<!-- challenges&#45;&gt;gyms -->
<g id="edge2" class="edge">
<title>challenges:w&#45;&gt;gyms:e</title>
<path fill="none" stroke="#000000" d="M130.2601,-265.69C116.5688,-276.2669 116.5379,-302.3023 93.5,-302.3023"/>
<polygon fill="#000000" stroke="#000000" points="136.3792,-263.736 145.0952,-264.7317 140.1896,-262.5191 144,-261.3023 144,-261.3023 144,-261.3023 140.1896,-262.5191 142.9048,-257.8729 136.3792,-263.736 136.3792,-263.736"/>
<ellipse fill="none" stroke="#000000" cx="133.3308" cy="-264.7095" rx="3.2" ry="3.2"/>
</g>
<!-- daily_challenges -->
<g id="node4" class="node">
<title>daily_challenges</title>
<g id="a_node4"><a xlink:href="../../tables/daily_challenges.html" xlink:title="daily_challenges" target="_top">
<polygon fill="#ffffff" stroke="transparent" points="460.5,-316.3023 460.5,-424.3023 584.5,-424.3023 584.5,-316.3023 460.5,-316.3023"/>
<polygon fill="#f5f5f5" stroke="transparent" points="460.5,-401.3023 460.5,-424.3023 584.5,-424.3023 584.5,-401.3023 460.5,-401.3023"/>
<polygon fill="none" stroke="#000000" points="460.5,-401.3023 460.5,-424.3023 584.5,-424.3023 584.5,-401.3023 460.5,-401.3023"/>
<text text-anchor="start" x="465.3512" y="-410.4023" font-family="Helvetica,sans-Serif" font-weight="bold" font-size="11.00" fill="#000000">daily_challenges</text>
<text text-anchor="start" x="550.0219" y="-409.4023" font-family="Helvetica,sans-Serif" font-size="11.00" fill="#000000">[table]</text>
<polygon fill="none" stroke="#000000" points="460.5,-379.3023 460.5,-401.3023 584.5,-401.3023 584.5,-379.3023 460.5,-379.3023"/>
<image xlink:href="../../images/primaryKeys.png" width="11px" height="12px" preserveAspectRatio="xMinYMin meet" x="465.5" y="-396.302"/>
<text text-anchor="start" x="484.5" y="-386.4023" font-family="Helvetica,sans-Serif" font-size="11.00" fill="#000000">classes_id</text>
<polygon fill="none" stroke="#000000" points="460.5,-357.3023 460.5,-379.3023 584.5,-379.3023 584.5,-357.3023 460.5,-357.3023"/>
<image xlink:href="../../images/primaryKeys.png" width="11px" height="12px" preserveAspectRatio="xMinYMin meet" x="465.5" y="-374.302"/>
<text text-anchor="start" x="484.5" y="-364.4023" font-family="Helvetica,sans-Serif" font-size="11.00" fill="#000000">challenges_id</text>
<polygon fill="none" stroke="#000000" points="460.5,-335.3023 460.5,-357.3023 584.5,-357.3023 584.5,-335.3023 460.5,-335.3023"/>
<image xlink:href="../../images/primaryKeys.png" width="11px" height="12px" preserveAspectRatio="xMinYMin meet" x="465.5" y="-352.302"/>
<text text-anchor="start" x="484.5" y="-342.4023" font-family="Helvetica,sans-Serif" font-size="11.00" fill="#000000">date</text>
<polygon fill="#ffffff" stroke="transparent" points="460.5,-316.3023 460.5,-335.3023 503.5,-335.3023 503.5,-316.3023 460.5,-316.3023"/>
<polygon fill="none" stroke="#000000" points="460.5,-316.3023 460.5,-335.3023 503.5,-335.3023 503.5,-316.3023 460.5,-316.3023"/>
<text text-anchor="start" x="463.5" y="-322.4023" font-family="Helvetica,sans-Serif" font-size="11.00" fill="#000000">&lt; 2</text>
<polygon fill="#ffffff" stroke="transparent" points="503.5,-316.3023 503.5,-335.3023 552.5,-335.3023 552.5,-316.3023 503.5,-316.3023"/>
<polygon fill="none" stroke="#000000" points="503.5,-316.3023 503.5,-335.3023 552.5,-335.3023 552.5,-316.3023 503.5,-316.3023"/>
<text text-anchor="start" x="517.1105" y="-322.4023" font-family="Helvetica,sans-Serif" font-size="11.00" fill="#000000">0 rows</text>
<polygon fill="#ffffff" stroke="transparent" points="552.5,-316.3023 552.5,-335.3023 584.5,-335.3023 584.5,-316.3023 552.5,-316.3023"/>
<polygon fill="none" stroke="#000000" points="552.5,-316.3023 552.5,-335.3023 584.5,-335.3023 584.5,-316.3023 552.5,-316.3023"/>
<text text-anchor="start" x="565.9053" y="-322.4023" font-family="Helvetica,sans-Serif" font-size="11.00" fill="#000000">3 &gt;</text>
</a>
</g>
</g>
<!-- daily_challenges&#45;&gt;challenges -->
<g id="edge3" class="edge">
<title>daily_challenges:w&#45;&gt;challenges:e</title>
<path fill="none" stroke="#000000" d="M445.9317,-365.9725C431.3701,-360.899 424.6976,-349.3023 404,-349.3023"/>
<polygon fill="#000000" stroke="#000000" points="452.6004,-367.0389 459.9315,-371.8571 456.5502,-367.6706 460.5,-368.3023 460.5,-368.3023 460.5,-368.3023 456.5502,-367.6706 461.0685,-364.7475 452.6004,-367.0389 452.6004,-367.0389"/>
<ellipse fill="none" stroke="#000000" cx="449.4405" cy="-366.5336" rx="3.2" ry="3.2"/>
</g>
<!-- daily_challenges&#45;&gt;classes -->
<g id="edge4" class="edge">
<title>daily_challenges:w&#45;&gt;classes:e</title>
<path fill="none" stroke="#000000" d="M445.9983,-391.2313C435.6644,-392.6625 428.9465,-395.342 414,-396.3023 289.8116,-404.2814 230.4102,-474.9884 134,-396.3023 64.4127,-339.5079 183.322,-198.3023 93.5,-198.3023"/>
<polygon fill="#000000" stroke="#000000" points="452.5164,-390.8138 460.7302,-393.8949 456.5082,-390.558 460.5,-390.3023 460.5,-390.3023 460.5,-390.3023 456.5082,-390.558 460.2698,-386.7096 452.5164,-390.8138 452.5164,-390.8138"/>
<ellipse fill="none" stroke="#000000" cx="449.3229" cy="-391.0184" rx="3.2" ry="3.2"/>
</g>
<!-- normal_challenges -->
<g id="node5" class="node">
<title>normal_challenges</title>
<g id="a_node5"><a xlink:href="../../tables/normal_challenges.html" xlink:title="normal_challenges" target="_top">
<polygon fill="#ffffff" stroke="transparent" points="455,-105.8023 455,-210.8023 590,-210.8023 590,-105.8023 455,-105.8023"/>
<polygon fill="#f5f5f5" stroke="transparent" points="455.5,-187.3023 455.5,-210.3023 590.5,-210.3023 590.5,-187.3023 455.5,-187.3023"/>
<polygon fill="none" stroke="#000000" points="455.5,-187.3023 455.5,-210.3023 590.5,-210.3023 590.5,-187.3023 455.5,-187.3023"/>
<text text-anchor="start" x="460.3523" y="-196.4023" font-family="Helvetica,sans-Serif" font-weight="bold" font-size="11.00" fill="#000000">normal_challenges</text>
<text text-anchor="start" x="556.0219" y="-195.4023" font-family="Helvetica,sans-Serif" font-size="11.00" fill="#000000">[table]</text>
<polygon fill="none" stroke="#000000" points="455.5,-165.3023 455.5,-187.3023 590.5,-187.3023 590.5,-165.3023 455.5,-165.3023"/>
<image xlink:href="../../images/primaryKeys.png" width="11px" height="12px" preserveAspectRatio="xMinYMin meet" x="460.5" y="-182.302"/>
<text text-anchor="start" x="478.5" y="-172.4023" font-family="Helvetica,sans-Serif" font-size="11.00" fill="#000000">classes_id</text>
<polygon fill="none" stroke="#000000" points="455.5,-143.3023 455.5,-165.3023 590.5,-165.3023 590.5,-143.3023 455.5,-143.3023"/>
<image xlink:href="../../images/primaryKeys.png" width="11px" height="12px" preserveAspectRatio="xMinYMin meet" x="460.5" y="-160.302"/>
<text text-anchor="start" x="478.5" y="-150.4023" font-family="Helvetica,sans-Serif" font-size="11.00" fill="#000000">challenges_id</text>
<polygon fill="none" stroke="#000000" points="455.5,-124.3023 455.5,-143.3023 590.5,-143.3023 590.5,-124.3023 455.5,-124.3023"/>
<text text-anchor="start" x="458.5" y="-130.4023" font-family="Helvetica,sans-Serif" font-size="11.00" fill="#000000">...</text>
<polygon fill="#ffffff" stroke="transparent" points="455.5,-105.3023 455.5,-124.3023 503.5,-124.3023 503.5,-105.3023 455.5,-105.3023"/>
<polygon fill="none" stroke="#000000" points="455.5,-105.3023 455.5,-124.3023 503.5,-124.3023 503.5,-105.3023 455.5,-105.3023"/>
<text text-anchor="start" x="458.5" y="-111.4023" font-family="Helvetica,sans-Serif" font-size="11.00" fill="#000000">&lt; 2</text>
<polygon fill="#ffffff" stroke="transparent" points="503.5,-105.3023 503.5,-124.3023 555.5,-124.3023 555.5,-105.3023 503.5,-105.3023"/>
<polygon fill="none" stroke="#000000" points="503.5,-105.3023 503.5,-124.3023 555.5,-124.3023 555.5,-105.3023 503.5,-105.3023"/>
<text text-anchor="start" x="520.1105" y="-111.4023" font-family="Helvetica,sans-Serif" font-size="11.00" fill="#000000">0 rows</text>
<polygon fill="#ffffff" stroke="transparent" points="555.5,-105.3023 555.5,-124.3023 590.5,-124.3023 590.5,-105.3023 555.5,-105.3023"/>
<polygon fill="none" stroke="#000000" points="555.5,-105.3023 555.5,-124.3023 590.5,-124.3023 590.5,-105.3023 555.5,-105.3023"/>
<text text-anchor="start" x="571.9053" y="-111.4023" font-family="Helvetica,sans-Serif" font-size="11.00" fill="#000000">2 &gt;</text>
</a>
</g>
</g>
<!-- normal_challenges&#45;&gt;challenges -->
<g id="edge5" class="edge">
<title>normal_challenges:w&#45;&gt;challenges:e</title>
<path fill="none" stroke="#000000" d="M441.1345,-156.4922C380.9846,-177.9156 488.0358,-349.3023 404,-349.3023"/>
<polygon fill="#000000" stroke="#000000" points="447.5914,-155.508 456.0426,-157.8612 451.5457,-154.9051 455.5,-154.3023 455.5,-154.3023 455.5,-154.3023 451.5457,-154.9051 454.9574,-150.7434 447.5914,-155.508 447.5914,-155.508"/>
<ellipse fill="none" stroke="#000000" cx="444.4279" cy="-155.9902" rx="3.2" ry="3.2"/>
</g>
<!-- normal_challenges&#45;&gt;classes -->
<g id="edge6" class="edge">
<title>normal_challenges:w&#45;&gt;classes:e</title>
<path fill="none" stroke="#000000" d="M441.4365,-172.6742C421.0852,-158.509 445.8817,-106.7092 414,-86.3023 309.1878,-19.214 235.8643,-14.8175 134,-86.3023 90.6721,-116.7083 146.4323,-198.3023 93.5,-198.3023"/>
<polygon fill="#000000" stroke="#000000" points="447.7536,-174.3038 454.6007,-179.7882 451.6268,-175.3031 455.5,-176.3023 455.5,-176.3023 455.5,-176.3023 451.6268,-175.3031 456.3993,-172.8164 447.7536,-174.3038 447.7536,-174.3038"/>
<ellipse fill="none" stroke="#000000" cx="444.6551" cy="-173.5044" rx="3.2" ry="3.2"/>
</g>
</g>
</svg>
