<?xml version="1.0" encoding="UTF-8" standalone="no"?>
<!DOCTYPE svg PUBLIC "-//W3C//DTD SVG 1.1//EN"
 "http://www.w3.org/Graphics/SVG/1.1/DTD/svg11.dtd">
<!-- Generated by graphviz version 2.40.1 (20161225.0304)
 -->
<!-- Title: oneDegreeRelationshipsDiagram Pages: 1 -->
<svg width="562pt" height="428pt"
 viewBox="0.00 0.00 562.00 428.11" xmlns="http://www.w3.org/2000/svg" xmlns:xlink="http://www.w3.org/1999/xlink">
<g id="graph0" class="graph" transform="scale(1 1) rotate(0) translate(4 424.1148)">
<title>oneDegreeRelationshipsDiagram</title>
<polygon fill="#ffffff" stroke="transparent" points="-4,4 -4,-424.1148 558,-424.1148 558,4 -4,4"/>
<text text-anchor="middle" x="72.4936" y="-7.3" font-family="Helvetica,sans-Serif" font-size="11.00" fill="#000000">Generated by SchemaSpy</text>
<!-- challenges -->
<g id="node1" class="node">
<title>challenges</title>
<g id="a_node1"><a xlink:href="../../tables/challenges.html" xlink:title="challenges" target="_top">
<polygon fill="#ffffff" stroke="transparent" points="142,-89.1148 142,-377.1148 362,-377.1148 362,-89.1148 142,-89.1148"/>
<polygon fill="#f5f5f5" stroke="transparent" points="144,-352.1148 144,-375.1148 360,-375.1148 360,-352.1148 144,-352.1148"/>
<polygon fill="none" stroke="#000000" points="144,-352.1148 144,-375.1148 360,-375.1148 360,-352.1148 144,-352.1148"/>
<text text-anchor="start" x="149" y="-361.2148" font-family="Helvetica,sans-Serif" font-weight="bold" font-size="11.00" fill="#000000">challenges</text>
<text text-anchor="start" x="325.0437" y="-360.2148" font-family="Helvetica,sans-Serif" font-size="11.00" fill="#000000">[table]</text>
<polygon fill="none" stroke="#000000" points="144,-330.1148 144,-352.1148 243,-352.1148 243,-330.1148 144,-330.1148"/>
<image xlink:href="../../images/primaryKeys.png" width="11px" height="12px" preserveAspectRatio="xMinYMin meet" x="149" y="-347.115"/>
<text text-anchor="start" x="164" y="-337.2148" font-family="Helvetica,sans-Serif" font-size="11.00" fill="#000000">id</text>
<polygon fill="none" stroke="#000000" points="243,-330.1148 243,-352.1148 360,-352.1148 360,-330.1148 243,-330.1148"/>
<text text-anchor="start" x="246" y="-337.8148" font-family="Helvetica,sans-Serif" font-size="11.00" fill="#000000">bigint[19]</text>
<polygon fill="none" stroke="#000000" points="144,-308.1148 144,-330.1148 243,-330.1148 243,-308.1148 144,-308.1148"/>
<text text-anchor="start" x="164" y="-315.2148" font-family="Helvetica,sans-Serif" font-size="11.00" fill="#000000">name</text>
<polygon fill="none" stroke="#000000" points="243,-308.1148 243,-330.1148 360,-330.1148 360,-308.1148 243,-308.1148"/>
<text text-anchor="start" x="246" y="-315.8148" font-family="Helvetica,sans-Serif" font-size="11.00" fill="#000000">varchar[45]</text>
<polygon fill="none" stroke="#000000" points="144,-286.1148 144,-308.1148 243,-308.1148 243,-286.1148 144,-286.1148"/>
<text text-anchor="start" x="164" y="-293.2148" font-family="Helvetica,sans-Serif" font-size="11.00" fill="#000000">description</text>
<polygon fill="none" stroke="#000000" points="243,-286.1148 243,-308.1148 360,-308.1148 360,-286.1148 243,-286.1148"/>
<text text-anchor="start" x="245.5645" y="-293.8148" font-family="Helvetica,sans-Serif" font-size="11.00" fill="#000000">mediumtext[16777215]</text>
<polygon fill="none" stroke="#000000" points="144,-264.1148 144,-286.1148 243,-286.1148 243,-264.1148 144,-264.1148"/>
<text text-anchor="start" x="164" y="-271.2148" font-family="Helvetica,sans-Serif" font-size="11.00" fill="#000000">points</text>
<polygon fill="none" stroke="#000000" points="243,-264.1148 243,-286.1148 360,-286.1148 360,-264.1148 243,-264.1148"/>
<text text-anchor="start" x="246" y="-271.8148" font-family="Helvetica,sans-Serif" font-size="11.00" fill="#000000">int[10]</text>
<polygon fill="#ffffff" stroke="transparent" points="144,-242.1148 144,-264.1148 243,-264.1148 243,-242.1148 144,-242.1148"/>
<polygon fill="none" stroke="#000000" points="144,-242.1148 144,-264.1148 243,-264.1148 243,-242.1148 144,-242.1148"/>
<image xlink:href="../../images/foreignKeys.png" width="11px" height="12px" preserveAspectRatio="xMinYMin meet" x="149" y="-259.115"/>
<text text-anchor="start" x="164" y="-249.2148" font-family="Helvetica,sans-Serif" font-size="11.00" fill="#000000">gym_id</text>
<polygon fill="none" stroke="#000000" points="243,-242.1148 243,-264.1148 360,-264.1148 360,-242.1148 243,-242.1148"/>
<text text-anchor="start" x="246" y="-249.8148" font-family="Helvetica,sans-Serif" font-size="11.00" fill="#000000">bigint[19]</text>
<polygon fill="#ffffff" stroke="transparent" points="144,-220.1148 144,-242.1148 243,-242.1148 243,-220.1148 144,-220.1148"/>
<polygon fill="none" stroke="#000000" points="144,-220.1148 144,-242.1148 243,-242.1148 243,-220.1148 144,-220.1148"/>
<image xlink:href="../../images/foreignKeys.png" width="11px" height="12px" preserveAspectRatio="xMinYMin meet" x="149" y="-237.115"/>
<text text-anchor="start" x="164" y="-227.2148" font-family="Helvetica,sans-Serif" font-size="11.00" fill="#000000">class_id</text>
<polygon fill="none" stroke="#000000" points="243,-220.1148 243,-242.1148 360,-242.1148 360,-220.1148 243,-220.1148"/>
<text text-anchor="start" x="246" y="-227.8148" font-family="Helvetica,sans-Serif" font-size="11.00" fill="#000000">bigint[19]</text>
<polygon fill="none" stroke="#000000" points="144,-198.1148 144,-220.1148 243,-220.1148 243,-198.1148 144,-198.1148"/>
<text text-anchor="start" x="164" y="-205.2148" font-family="Helvetica,sans-Serif" font-size="11.00" fill="#000000">is_featured</text>
<polygon fill="none" stroke="#000000" points="243,-198.1148 243,-220.1148 360,-220.1148 360,-198.1148 243,-198.1148"/>
<text text-anchor="start" x="246" y="-205.8148" font-family="Helvetica,sans-Serif" font-size="11.00" fill="#000000">bit[1]</text>
<polygon fill="none" stroke="#000000" points="144,-176.1148 144,-198.1148 243,-198.1148 243,-176.1148 144,-176.1148"/>
<text text-anchor="start" x="164" y="-183.2148" font-family="Helvetica,sans-Serif" font-size="11.00" fill="#000000">featured_date</text>
<polygon fill="none" stroke="#000000" points="243,-176.1148 243,-198.1148 360,-198.1148 360,-176.1148 243,-176.1148"/>
<text text-anchor="start" x="246" y="-183.8148" font-family="Helvetica,sans-Serif" font-size="11.00" fill="#000000">date[10]</text>
<polygon fill="none" stroke="#000000" points="144,-154.1148 144,-176.1148 243,-176.1148 243,-154.1148 144,-154.1148"/>
<text text-anchor="start" x="164" y="-161.2148" font-family="Helvetica,sans-Serif" font-size="11.00" fill="#000000">created_at</text>
<polygon fill="none" stroke="#000000" points="243,-154.1148 243,-176.1148 360,-176.1148 360,-154.1148 243,-154.1148"/>
<text text-anchor="start" x="246" y="-161.8148" font-family="Helvetica,sans-Serif" font-size="11.00" fill="#000000">timestamp[19]</text>
<polygon fill="none" stroke="#000000" points="144,-132.1148 144,-154.1148 243,-154.1148 243,-132.1148 144,-132.1148"/>
<text text-anchor="start" x="164" y="-139.2148" font-family="Helvetica,sans-Serif" font-size="11.00" fill="#000000">updated_at</text>
<polygon fill="none" stroke="#000000" points="243,-132.1148 243,-154.1148 360,-154.1148 360,-132.1148 243,-132.1148"/>
<text text-anchor="start" x="246" y="-139.8148" font-family="Helvetica,sans-Serif" font-size="11.00" fill="#000000">timestamp[19]</text>
<polygon fill="none" stroke="#000000" points="144,-110.1148 144,-132.1148 243,-132.1148 243,-110.1148 144,-110.1148"/>
<text text-anchor="start" x="164" y="-117.2148" font-family="Helvetica,sans-Serif" font-size="11.00" fill="#000000">deleted_at</text>
<polygon fill="none" stroke="#000000" points="243,-110.1148 243,-132.1148 360,-132.1148 360,-110.1148 243,-110.1148"/>
<text text-anchor="start" x="246" y="-117.8148" font-family="Helvetica,sans-Serif" font-size="11.00" fill="#000000">timestamp[19]</text>
<polygon fill="#ffffff" stroke="transparent" points="144,-91.1148 144,-110.1148 185,-110.1148 185,-91.1148 144,-91.1148"/>
<polygon fill="none" stroke="#000000" points="144,-91.1148 144,-110.1148 185,-110.1148 185,-91.1148 144,-91.1148"/>
<text text-anchor="start" x="147" y="-97.2148" font-family="Helvetica,sans-Serif" font-size="11.00" fill="#000000">&lt; 2</text>
<polygon fill="#ffffff" stroke="transparent" points="185,-91.1148 185,-110.1148 243,-110.1148 243,-91.1148 185,-91.1148"/>
<polygon fill="none" stroke="#000000" points="185,-91.1148 185,-110.1148 243,-110.1148 243,-91.1148 185,-91.1148"/>
<text text-anchor="start" x="207.6105" y="-97.2148" font-family="Helvetica,sans-Serif" font-size="11.00" fill="#000000">0 rows</text>
<polygon fill="#ffffff" stroke="transparent" points="243,-91.1148 243,-110.1148 360,-110.1148 360,-91.1148 243,-91.1148"/>
<polygon fill="none" stroke="#000000" points="243,-91.1148 243,-110.1148 360,-110.1148 360,-91.1148 243,-91.1148"/>
<text text-anchor="start" x="341.4053" y="-97.2148" font-family="Helvetica,sans-Serif" font-size="11.00" fill="#000000">2 &gt;</text>
<polygon fill="none" stroke="#000000" stroke-width="2" points="143,-90.1148 143,-376.1148 361,-376.1148 361,-90.1148 143,-90.1148"/>
</a>
</g>
</g>
<!-- classes -->
<g id="node2" class="node">
<title>classes</title>
<g id="a_node2"><a xlink:href="../../tables/classes.html" xlink:title="classes" target="_top">
<polygon fill="#ffffff" stroke="transparent" points="8,-119.6148 8,-224.6148 93,-224.6148 93,-119.6148 8,-119.6148"/>
<polygon fill="#f5f5f5" stroke="transparent" points="8.5,-201.1148 8.5,-224.1148 93.5,-224.1148 93.5,-201.1148 8.5,-201.1148"/>
<polygon fill="none" stroke="#000000" points="8.5,-201.1148 8.5,-224.1148 93.5,-224.1148 93.5,-201.1148 8.5,-201.1148"/>
<text text-anchor="start" x="13.5" y="-210.2148" font-family="Helvetica,sans-Serif" font-weight="bold" font-size="11.00" fill="#000000">classes</text>
<text text-anchor="start" x="58.5437" y="-209.2148" font-family="Helvetica,sans-Serif" font-size="11.00" fill="#000000">[table]</text>
<polygon fill="none" stroke="#000000" points="8.5,-179.1148 8.5,-201.1148 93.5,-201.1148 93.5,-179.1148 8.5,-179.1148"/>
<image xlink:href="../../images/primaryKeys.png" width="11px" height="12px" preserveAspectRatio="xMinYMin meet" x="13.5" y="-196.115"/>
<text text-anchor="start" x="28.5" y="-186.2148" font-family="Helvetica,sans-Serif" font-size="11.00" fill="#000000">id</text>
<polygon fill="#ffffff" stroke="transparent" points="8.5,-157.1148 8.5,-179.1148 93.5,-179.1148 93.5,-157.1148 8.5,-157.1148"/>
<polygon fill="none" stroke="#000000" points="8.5,-157.1148 8.5,-179.1148 93.5,-179.1148 93.5,-157.1148 8.5,-157.1148"/>
<image xlink:href="../../images/foreignKeys.png" width="11px" height="12px" preserveAspectRatio="xMinYMin meet" x="13.5" y="-174.115"/>
<text text-anchor="start" x="28.5" y="-164.2148" font-family="Helvetica,sans-Serif" font-size="11.00" fill="#000000">skill_list_id</text>
<polygon fill="none" stroke="#000000" points="8.5,-138.1148 8.5,-157.1148 93.5,-157.1148 93.5,-138.1148 8.5,-138.1148"/>
<text text-anchor="start" x="11.5" y="-144.2148" font-family="Helvetica,sans-Serif" font-size="11.00" fill="#000000">...</text>
<polygon fill="#ffffff" stroke="transparent" points="8.5,-119.1148 8.5,-138.1148 31.5,-138.1148 31.5,-119.1148 8.5,-119.1148"/>
<polygon fill="none" stroke="#000000" points="8.5,-119.1148 8.5,-138.1148 31.5,-138.1148 31.5,-119.1148 8.5,-119.1148"/>
<text text-anchor="start" x="11.5" y="-125.2148" font-family="Helvetica,sans-Serif" font-size="11.00" fill="#000000">&lt; 1</text>
<polygon fill="#ffffff" stroke="transparent" points="31.5,-119.1148 31.5,-138.1148 70.5,-138.1148 70.5,-119.1148 31.5,-119.1148"/>
<polygon fill="none" stroke="#000000" points="31.5,-119.1148 31.5,-138.1148 70.5,-138.1148 70.5,-119.1148 31.5,-119.1148"/>
<text text-anchor="start" x="35.1105" y="-125.2148" font-family="Helvetica,sans-Serif" font-size="11.00" fill="#000000">0 rows</text>
<polygon fill="#ffffff" stroke="transparent" points="70.5,-119.1148 70.5,-138.1148 93.5,-138.1148 93.5,-119.1148 70.5,-119.1148"/>
<polygon fill="none" stroke="#000000" points="70.5,-119.1148 70.5,-138.1148 93.5,-138.1148 93.5,-119.1148 70.5,-119.1148"/>
<text text-anchor="start" x="74.9053" y="-125.2148" font-family="Helvetica,sans-Serif" font-size="11.00" fill="#000000">4 &gt;</text>
</a>
</g>
</g>
<!-- challenges&#45;&gt;classes -->
<g id="edge1" class="edge">
<title>challenges:w&#45;&gt;classes:e</title>
<path fill="none" stroke="#000000" d="M130.2601,-226.7271C116.5688,-216.1502 116.5379,-190.1148 93.5,-190.1148"/>
<polygon fill="#000000" stroke="#000000" points="136.3792,-228.6811 142.9048,-234.5442 140.1896,-229.8979 144,-231.1148 144,-231.1148 144,-231.1148 140.1896,-229.8979 145.0952,-227.6854 136.3792,-228.6811 136.3792,-228.6811"/>
<ellipse fill="none" stroke="#000000" cx="133.3308" cy="-227.7076" rx="3.2" ry="3.2"/>
</g>
<!-- gyms -->
<g id="node3" class="node">
<title>gyms</title>
<g id="a_node3"><a xlink:href="../../tables/gyms.html" xlink:title="gyms" target="_top">
<polygon fill="#ffffff" stroke="transparent" points="8,-245.6148 8,-328.6148 93,-328.6148 93,-245.6148 8,-245.6148"/>
<polygon fill="#f5f5f5" stroke="transparent" points="8.5,-305.1148 8.5,-328.1148 93.5,-328.1148 93.5,-305.1148 8.5,-305.1148"/>
<polygon fill="none" stroke="#000000" points="8.5,-305.1148 8.5,-328.1148 93.5,-328.1148 93.5,-305.1148 8.5,-305.1148"/>
<text text-anchor="start" x="13.5" y="-314.2148" font-family="Helvetica,sans-Serif" font-weight="bold" font-size="11.00" fill="#000000">gyms</text>
<text text-anchor="start" x="58.5437" y="-313.2148" font-family="Helvetica,sans-Serif" font-size="11.00" fill="#000000">[table]</text>
<polygon fill="none" stroke="#000000" points="8.5,-283.1148 8.5,-305.1148 93.5,-305.1148 93.5,-283.1148 8.5,-283.1148"/>
<image xlink:href="../../images/primaryKeys.png" width="11px" height="12px" preserveAspectRatio="xMinYMin meet" x="13.5" y="-300.115"/>
<text text-anchor="start" x="28.5" y="-290.2148" font-family="Helvetica,sans-Serif" font-size="11.00" fill="#000000">id</text>
<polygon fill="none" stroke="#000000" points="8.5,-264.1148 8.5,-283.1148 93.5,-283.1148 93.5,-264.1148 8.5,-264.1148"/>
<text text-anchor="start" x="11.5" y="-270.2148" font-family="Helvetica,sans-Serif" font-size="11.00" fill="#000000">...</text>
<polygon fill="#ffffff" stroke="transparent" points="8.5,-245.1148 8.5,-264.1148 27.5,-264.1148 27.5,-245.1148 8.5,-245.1148"/>
<polygon fill="none" stroke="#000000" points="8.5,-245.1148 8.5,-264.1148 27.5,-264.1148 27.5,-245.1148 8.5,-245.1148"/>
<text text-anchor="start" x="11.5" y="-251.2148" font-family="Helvetica,sans-Serif" font-size="11.00" fill="#000000"> &#160;</text>
<polygon fill="#ffffff" stroke="transparent" points="27.5,-245.1148 27.5,-264.1148 68.5,-264.1148 68.5,-245.1148 27.5,-245.1148"/>
<polygon fill="none" stroke="#000000" points="27.5,-245.1148 27.5,-264.1148 68.5,-264.1148 68.5,-245.1148 27.5,-245.1148"/>
<text text-anchor="start" x="33.1105" y="-251.2148" font-family="Helvetica,sans-Serif" font-size="11.00" fill="#000000">0 rows</text>
<polygon fill="#ffffff" stroke="transparent" points="68.5,-245.1148 68.5,-264.1148 93.5,-264.1148 93.5,-245.1148 68.5,-245.1148"/>
<polygon fill="none" stroke="#000000" points="68.5,-245.1148 68.5,-264.1148 93.5,-264.1148 93.5,-245.1148 68.5,-245.1148"/>
<text text-anchor="start" x="74.9053" y="-251.2148" font-family="Helvetica,sans-Serif" font-size="11.00" fill="#000000">4 &gt;</text>
</a>
</g>
</g>
<!-- challenges&#45;&gt;gyms -->
<g id="edge2" class="edge">
<title>challenges:w&#45;&gt;gyms:e</title>
<path fill="none" stroke="#000000" d="M130.2601,-257.5025C116.5688,-268.0794 116.5379,-294.1148 93.5,-294.1148"/>
<polygon fill="#000000" stroke="#000000" points="136.3792,-255.5485 145.0952,-256.5442 140.1896,-254.3316 144,-253.1148 144,-253.1148 144,-253.1148 140.1896,-254.3316 142.9048,-249.6854 136.3792,-255.5485 136.3792,-255.5485"/>
<ellipse fill="none" stroke="#000000" cx="133.3308" cy="-256.522" rx="3.2" ry="3.2"/>
</g>
<!-- daily_challenges -->
<g id="node4" class="node">
<title>daily_challenges</title>
<g id="a_node4"><a xlink:href="../../tables/daily_challenges.html" xlink:title="daily_challenges" target="_top">
<polygon fill="#ffffff" stroke="transparent" points="416.5,-308.1148 416.5,-416.1148 540.5,-416.1148 540.5,-308.1148 416.5,-308.1148"/>
<polygon fill="#f5f5f5" stroke="transparent" points="416.5,-393.1148 416.5,-416.1148 540.5,-416.1148 540.5,-393.1148 416.5,-393.1148"/>
<polygon fill="none" stroke="#000000" points="416.5,-393.1148 416.5,-416.1148 540.5,-416.1148 540.5,-393.1148 416.5,-393.1148"/>
<text text-anchor="start" x="421.3512" y="-402.2148" font-family="Helvetica,sans-Serif" font-weight="bold" font-size="11.00" fill="#000000">daily_challenges</text>
<text text-anchor="start" x="506.0219" y="-401.2148" font-family="Helvetica,sans-Serif" font-size="11.00" fill="#000000">[table]</text>
<polygon fill="none" stroke="#000000" points="416.5,-371.1148 416.5,-393.1148 540.5,-393.1148 540.5,-371.1148 416.5,-371.1148"/>
<image xlink:href="../../images/primaryKeys.png" width="11px" height="12px" preserveAspectRatio="xMinYMin meet" x="421.5" y="-388.115"/>
<text text-anchor="start" x="440.5" y="-378.2148" font-family="Helvetica,sans-Serif" font-size="11.00" fill="#000000">classes_id</text>
<polygon fill="none" stroke="#000000" points="416.5,-349.1148 416.5,-371.1148 540.5,-371.1148 540.5,-349.1148 416.5,-349.1148"/>
<image xlink:href="../../images/primaryKeys.png" width="11px" height="12px" preserveAspectRatio="xMinYMin meet" x="421.5" y="-366.115"/>
<text text-anchor="start" x="440.5" y="-356.2148" font-family="Helvetica,sans-Serif" font-size="11.00" fill="#000000">challenges_id</text>
<polygon fill="none" stroke="#000000" points="416.5,-327.1148 416.5,-349.1148 540.5,-349.1148 540.5,-327.1148 416.5,-327.1148"/>
<image xlink:href="../../images/primaryKeys.png" width="11px" height="12px" preserveAspectRatio="xMinYMin meet" x="421.5" y="-344.115"/>
<text text-anchor="start" x="440.5" y="-334.2148" font-family="Helvetica,sans-Serif" font-size="11.00" fill="#000000">date</text>
<polygon fill="#ffffff" stroke="transparent" points="416.5,-308.1148 416.5,-327.1148 459.5,-327.1148 459.5,-308.1148 416.5,-308.1148"/>
<polygon fill="none" stroke="#000000" points="416.5,-308.1148 416.5,-327.1148 459.5,-327.1148 459.5,-308.1148 416.5,-308.1148"/>
<text text-anchor="start" x="419.5" y="-314.2148" font-family="Helvetica,sans-Serif" font-size="11.00" fill="#000000">&lt; 2</text>
<polygon fill="#ffffff" stroke="transparent" points="459.5,-308.1148 459.5,-327.1148 508.5,-327.1148 508.5,-308.1148 459.5,-308.1148"/>
<polygon fill="none" stroke="#000000" points="459.5,-308.1148 459.5,-327.1148 508.5,-327.1148 508.5,-308.1148 459.5,-308.1148"/>
<text text-anchor="start" x="473.1105" y="-314.2148" font-family="Helvetica,sans-Serif" font-size="11.00" fill="#000000">0 rows</text>
<polygon fill="#ffffff" stroke="transparent" points="508.5,-308.1148 508.5,-327.1148 540.5,-327.1148 540.5,-308.1148 508.5,-308.1148"/>
<polygon fill="none" stroke="#000000" points="508.5,-308.1148 508.5,-327.1148 540.5,-327.1148 540.5,-308.1148 508.5,-308.1148"/>
<text text-anchor="start" x="521.9053" y="-314.2148" font-family="Helvetica,sans-Serif" font-size="11.00" fill="#000000">3 &gt;</text>
</a>
</g>
</g>
<!-- daily_challenges&#45;&gt;challenges -->
<g id="edge3" class="edge">
<title>daily_challenges:w&#45;&gt;challenges:e</title>
<path fill="none" stroke="#000000" d="M401.9317,-357.785C387.3701,-352.7115 380.6976,-341.1148 360,-341.1148"/>
<polygon fill="#000000" stroke="#000000" points="408.6004,-358.8514 415.9315,-363.6696 412.5502,-359.4831 416.5,-360.1148 416.5,-360.1148 416.5,-360.1148 412.5502,-359.4831 417.0685,-356.5599 408.6004,-358.8514 408.6004,-358.8514"/>
<ellipse fill="none" stroke="#000000" cx="405.4405" cy="-358.3461" rx="3.2" ry="3.2"/>
</g>
<!-- daily_challenges&#45;&gt;classes -->
<g id="edge4" class="edge">
<title>daily_challenges:w&#45;&gt;classes:e</title>
<path fill="none" stroke="#000000" d="M401.9983,-383.0438C391.6644,-384.475 384.9465,-387.1545 370,-388.1148 265.3269,-394.84 215.26,-454.4359 134,-388.1148 64.4127,-331.3204 183.322,-190.1148 93.5,-190.1148"/>
<polygon fill="#000000" stroke="#000000" points="408.5164,-382.6263 416.7302,-385.7074 412.5082,-382.3705 416.5,-382.1148 416.5,-382.1148 416.5,-382.1148 412.5082,-382.3705 416.2698,-378.5221 408.5164,-382.6263 408.5164,-382.6263"/>
<ellipse fill="none" stroke="#000000" cx="405.3229" cy="-382.8309" rx="3.2" ry="3.2"/>
</g>
<!-- normal_challenges -->
<g id="node5" class="node">
<title>normal_challenges</title>
<g id="a_node5"><a xlink:href="../../tables/normal_challenges.html" xlink:title="normal_challenges" target="_top">
<polygon fill="#ffffff" stroke="transparent" points="411,-97.6148 411,-202.6148 546,-202.6148 546,-97.6148 411,-97.6148"/>
<polygon fill="#f5f5f5" stroke="transparent" points="411.5,-179.1148 411.5,-202.1148 546.5,-202.1148 546.5,-179.1148 411.5,-179.1148"/>
<polygon fill="none" stroke="#000000" points="411.5,-179.1148 411.5,-202.1148 546.5,-202.1148 546.5,-179.1148 411.5,-179.1148"/>
<text text-anchor="start" x="416.3522" y="-188.2148" font-family="Helvetica,sans-Serif" font-weight="bold" font-size="11.00" fill="#000000">normal_challenges</text>
<text text-anchor="start" x="512.0219" y="-187.2148" font-family="Helvetica,sans-Serif" font-size="11.00" fill="#000000">[table]</text>
<polygon fill="none" stroke="#000000" points="411.5,-157.1148 411.5,-179.1148 546.5,-179.1148 546.5,-157.1148 411.5,-157.1148"/>
<image xlink:href="../../images/primaryKeys.png" width="11px" height="12px" preserveAspectRatio="xMinYMin meet" x="416.5" y="-174.115"/>
<text text-anchor="start" x="434.5" y="-164.2148" font-family="Helvetica,sans-Serif" font-size="11.00" fill="#000000">classes_id</text>
<polygon fill="none" stroke="#000000" points="411.5,-135.1148 411.5,-157.1148 546.5,-157.1148 546.5,-135.1148 411.5,-135.1148"/>
<image xlink:href="../../images/primaryKeys.png" width="11px" height="12px" preserveAspectRatio="xMinYMin meet" x="416.5" y="-152.115"/>
<text text-anchor="start" x="434.5" y="-142.2148" font-family="Helvetica,sans-Serif" font-size="11.00" fill="#000000">challenges_id</text>
<polygon fill="none" stroke="#000000" points="411.5,-116.1148 411.5,-135.1148 546.5,-135.1148 546.5,-116.1148 411.5,-116.1148"/>
<text text-anchor="start" x="414.5" y="-122.2148" font-family="Helvetica,sans-Serif" font-size="11.00" fill="#000000">...</text>
<polygon fill="#ffffff" stroke="transparent" points="411.5,-97.1148 411.5,-116.1148 459.5,-116.1148 459.5,-97.1148 411.5,-97.1148"/>
<polygon fill="none" stroke="#000000" points="411.5,-97.1148 411.5,-116.1148 459.5,-116.1148 459.5,-97.1148 411.5,-97.1148"/>
<text text-anchor="start" x="414.5" y="-103.2148" font-family="Helvetica,sans-Serif" font-size="11.00" fill="#000000">&lt; 2</text>
<polygon fill="#ffffff" stroke="transparent" points="459.5,-97.1148 459.5,-116.1148 511.5,-116.1148 511.5,-97.1148 459.5,-97.1148"/>
<polygon fill="none" stroke="#000000" points="459.5,-97.1148 459.5,-116.1148 511.5,-116.1148 511.5,-97.1148 459.5,-97.1148"/>
<text text-anchor="start" x="476.1105" y="-103.2148" font-family="Helvetica,sans-Serif" font-size="11.00" fill="#000000">0 rows</text>
<polygon fill="#ffffff" stroke="transparent" points="511.5,-97.1148 511.5,-116.1148 546.5,-116.1148 546.5,-97.1148 511.5,-97.1148"/>
<polygon fill="none" stroke="#000000" points="511.5,-97.1148 511.5,-116.1148 546.5,-116.1148 546.5,-97.1148 511.5,-97.1148"/>
<text text-anchor="start" x="527.9053" y="-103.2148" font-family="Helvetica,sans-Serif" font-size="11.00" fill="#000000">2 &gt;</text>
</a>
</g>
</g>
<!-- normal_challenges&#45;&gt;challenges -->
<g id="edge5" class="edge">
<title>normal_challenges:w&#45;&gt;challenges:e</title>
<path fill="none" stroke="#000000" d="M397.1345,-148.3047C336.9846,-169.7281 444.0358,-341.1148 360,-341.1148"/>
<polygon fill="#000000" stroke="#000000" points="403.5914,-147.3205 412.0426,-149.6737 407.5457,-146.7176 411.5,-146.1148 411.5,-146.1148 411.5,-146.1148 407.5457,-146.7176 410.9574,-142.5559 403.5914,-147.3205 403.5914,-147.3205"/>
<ellipse fill="none" stroke="#000000" cx="400.4279" cy="-147.8027" rx="3.2" ry="3.2"/>
</g>
<!-- normal_challenges&#45;&gt;classes -->
<g id="edge6" class="edge">
<title>normal_challenges:w&#45;&gt;classes:e</title>
<path fill="none" stroke="#000000" d="M397.4365,-164.4867C377.0852,-150.3215 401.8817,-98.5217 370,-78.1148 281.6583,-21.569 219.8571,-17.8633 134,-78.1148 90.6721,-108.5208 146.4323,-190.1148 93.5,-190.1148"/>
<polygon fill="#000000" stroke="#000000" points="403.7536,-166.1163 410.6007,-171.6006 407.6268,-167.1155 411.5,-168.1148 411.5,-168.1148 411.5,-168.1148 407.6268,-167.1155 412.3993,-164.6289 403.7536,-166.1163 403.7536,-166.1163"/>
<ellipse fill="none" stroke="#000000" cx="400.6551" cy="-165.3169" rx="3.2" ry="3.2"/>
</g>
</g>
</svg>
