<?xml version="1.0" encoding="UTF-8" standalone="no"?>
<!DOCTYPE svg PUBLIC "-//W3C//DTD SVG 1.1//EN"
 "http://www.w3.org/Graphics/SVG/1.1/DTD/svg11.dtd">
<!-- Generated by graphviz version 2.40.1 (20161225.0304)
 -->
<!-- Title: twoDegreesRelationshipsDiagram Pages: 1 -->
<svg width="893pt" height="471pt"
 viewBox="0.00 0.00 893.00 470.70" xmlns="http://www.w3.org/2000/svg" xmlns:xlink="http://www.w3.org/1999/xlink">
<g id="graph0" class="graph" transform="scale(1 1) rotate(0) translate(4 466.7)">
<title>twoDegreesRelationshipsDiagram</title>
<polygon fill="#ffffff" stroke="transparent" points="-4,4 -4,-466.7 889,-466.7 889,4 -4,4"/>
<text text-anchor="middle" x="72.4936" y="-7.3" font-family="Helvetica,sans-Serif" font-size="11.00" fill="#000000">Generated by SchemaSpy</text>
<!-- challenges -->
<g id="node1" class="node">
<title>challenges</title>
<g id="a_node1"><a xlink:href="../../tables/challenges.html" xlink:title="challenges" target="_top">
<polygon fill="#ffffff" stroke="transparent" points="456,-38.2 456,-326.2 676,-326.2 676,-38.2 456,-38.2"/>
<polygon fill="#f5f5f5" stroke="transparent" points="458,-301.2 458,-324.2 674,-324.2 674,-301.2 458,-301.2"/>
<polygon fill="none" stroke="#000000" points="458,-301.2 458,-324.2 674,-324.2 674,-301.2 458,-301.2"/>
<text text-anchor="start" x="463" y="-310.3" font-family="Helvetica,sans-Serif" font-weight="bold" font-size="11.00" fill="#000000">challenges</text>
<text text-anchor="start" x="639.0437" y="-309.3" font-family="Helvetica,sans-Serif" font-size="11.00" fill="#000000">[table]</text>
<polygon fill="none" stroke="#000000" points="458,-279.2 458,-301.2 557,-301.2 557,-279.2 458,-279.2"/>
<image xlink:href="../../images/primaryKeys.png" width="11px" height="12px" preserveAspectRatio="xMinYMin meet" x="463" y="-296.2"/>
<text text-anchor="start" x="478" y="-286.3" font-family="Helvetica,sans-Serif" font-size="11.00" fill="#000000">id</text>
<polygon fill="none" stroke="#000000" points="557,-279.2 557,-301.2 674,-301.2 674,-279.2 557,-279.2"/>
<text text-anchor="start" x="560" y="-286.9" font-family="Helvetica,sans-Serif" font-size="11.00" fill="#000000">bigint[19]</text>
<polygon fill="none" stroke="#000000" points="458,-257.2 458,-279.2 557,-279.2 557,-257.2 458,-257.2"/>
<text text-anchor="start" x="478" y="-264.3" font-family="Helvetica,sans-Serif" font-size="11.00" fill="#000000">name</text>
<polygon fill="none" stroke="#000000" points="557,-257.2 557,-279.2 674,-279.2 674,-257.2 557,-257.2"/>
<text text-anchor="start" x="560" y="-264.9" font-family="Helvetica,sans-Serif" font-size="11.00" fill="#000000">varchar[45]</text>
<polygon fill="none" stroke="#000000" points="458,-235.2 458,-257.2 557,-257.2 557,-235.2 458,-235.2"/>
<text text-anchor="start" x="478" y="-242.3" font-family="Helvetica,sans-Serif" font-size="11.00" fill="#000000">description</text>
<polygon fill="none" stroke="#000000" points="557,-235.2 557,-257.2 674,-257.2 674,-235.2 557,-235.2"/>
<text text-anchor="start" x="559.5645" y="-242.9" font-family="Helvetica,sans-Serif" font-size="11.00" fill="#000000">mediumtext[16777215]</text>
<polygon fill="none" stroke="#000000" points="458,-213.2 458,-235.2 557,-235.2 557,-213.2 458,-213.2"/>
<text text-anchor="start" x="478" y="-220.3" font-family="Helvetica,sans-Serif" font-size="11.00" fill="#000000">points</text>
<polygon fill="none" stroke="#000000" points="557,-213.2 557,-235.2 674,-235.2 674,-213.2 557,-213.2"/>
<text text-anchor="start" x="560" y="-220.9" font-family="Helvetica,sans-Serif" font-size="11.00" fill="#000000">int[10]</text>
<polygon fill="#ffffff" stroke="transparent" points="458,-191.2 458,-213.2 557,-213.2 557,-191.2 458,-191.2"/>
<polygon fill="none" stroke="#000000" points="458,-191.2 458,-213.2 557,-213.2 557,-191.2 458,-191.2"/>
<image xlink:href="../../images/foreignKeys.png" width="11px" height="12px" preserveAspectRatio="xMinYMin meet" x="463" y="-208.2"/>
<text text-anchor="start" x="478" y="-198.3" font-family="Helvetica,sans-Serif" font-size="11.00" fill="#000000">gym_id</text>
<polygon fill="none" stroke="#000000" points="557,-191.2 557,-213.2 674,-213.2 674,-191.2 557,-191.2"/>
<text text-anchor="start" x="560" y="-198.9" font-family="Helvetica,sans-Serif" font-size="11.00" fill="#000000">bigint[19]</text>
<polygon fill="#ffffff" stroke="transparent" points="458,-169.2 458,-191.2 557,-191.2 557,-169.2 458,-169.2"/>
<polygon fill="none" stroke="#000000" points="458,-169.2 458,-191.2 557,-191.2 557,-169.2 458,-169.2"/>
<image xlink:href="../../images/foreignKeys.png" width="11px" height="12px" preserveAspectRatio="xMinYMin meet" x="463" y="-186.2"/>
<text text-anchor="start" x="478" y="-176.3" font-family="Helvetica,sans-Serif" font-size="11.00" fill="#000000">class_id</text>
<polygon fill="none" stroke="#000000" points="557,-169.2 557,-191.2 674,-191.2 674,-169.2 557,-169.2"/>
<text text-anchor="start" x="560" y="-176.9" font-family="Helvetica,sans-Serif" font-size="11.00" fill="#000000">bigint[19]</text>
<polygon fill="none" stroke="#000000" points="458,-147.2 458,-169.2 557,-169.2 557,-147.2 458,-147.2"/>
<text text-anchor="start" x="478" y="-154.3" font-family="Helvetica,sans-Serif" font-size="11.00" fill="#000000">is_featured</text>
<polygon fill="none" stroke="#000000" points="557,-147.2 557,-169.2 674,-169.2 674,-147.2 557,-147.2"/>
<text text-anchor="start" x="560" y="-154.9" font-family="Helvetica,sans-Serif" font-size="11.00" fill="#000000">bit[1]</text>
<polygon fill="none" stroke="#000000" points="458,-125.2 458,-147.2 557,-147.2 557,-125.2 458,-125.2"/>
<text text-anchor="start" x="478" y="-132.3" font-family="Helvetica,sans-Serif" font-size="11.00" fill="#000000">featured_date</text>
<polygon fill="none" stroke="#000000" points="557,-125.2 557,-147.2 674,-147.2 674,-125.2 557,-125.2"/>
<text text-anchor="start" x="560" y="-132.9" font-family="Helvetica,sans-Serif" font-size="11.00" fill="#000000">date[10]</text>
<polygon fill="none" stroke="#000000" points="458,-103.2 458,-125.2 557,-125.2 557,-103.2 458,-103.2"/>
<text text-anchor="start" x="478" y="-110.3" font-family="Helvetica,sans-Serif" font-size="11.00" fill="#000000">created_at</text>
<polygon fill="none" stroke="#000000" points="557,-103.2 557,-125.2 674,-125.2 674,-103.2 557,-103.2"/>
<text text-anchor="start" x="560" y="-110.9" font-family="Helvetica,sans-Serif" font-size="11.00" fill="#000000">timestamp[19]</text>
<polygon fill="none" stroke="#000000" points="458,-81.2 458,-103.2 557,-103.2 557,-81.2 458,-81.2"/>
<text text-anchor="start" x="478" y="-88.3" font-family="Helvetica,sans-Serif" font-size="11.00" fill="#000000">updated_at</text>
<polygon fill="none" stroke="#000000" points="557,-81.2 557,-103.2 674,-103.2 674,-81.2 557,-81.2"/>
<text text-anchor="start" x="560" y="-88.9" font-family="Helvetica,sans-Serif" font-size="11.00" fill="#000000">timestamp[19]</text>
<polygon fill="none" stroke="#000000" points="458,-59.2 458,-81.2 557,-81.2 557,-59.2 458,-59.2"/>
<text text-anchor="start" x="478" y="-66.3" font-family="Helvetica,sans-Serif" font-size="11.00" fill="#000000">deleted_at</text>
<polygon fill="none" stroke="#000000" points="557,-59.2 557,-81.2 674,-81.2 674,-59.2 557,-59.2"/>
<text text-anchor="start" x="560" y="-66.9" font-family="Helvetica,sans-Serif" font-size="11.00" fill="#000000">timestamp[19]</text>
<polygon fill="#ffffff" stroke="transparent" points="458,-40.2 458,-59.2 499,-59.2 499,-40.2 458,-40.2"/>
<polygon fill="none" stroke="#000000" points="458,-40.2 458,-59.2 499,-59.2 499,-40.2 458,-40.2"/>
<text text-anchor="start" x="461" y="-46.3" font-family="Helvetica,sans-Serif" font-size="11.00" fill="#000000">&lt; 2</text>
<polygon fill="#ffffff" stroke="transparent" points="499,-40.2 499,-59.2 557,-59.2 557,-40.2 499,-40.2"/>
<polygon fill="none" stroke="#000000" points="499,-40.2 499,-59.2 557,-59.2 557,-40.2 499,-40.2"/>
<text text-anchor="start" x="521.6105" y="-46.3" font-family="Helvetica,sans-Serif" font-size="11.00" fill="#000000">0 rows</text>
<polygon fill="#ffffff" stroke="transparent" points="557,-40.2 557,-59.2 674,-59.2 674,-40.2 557,-40.2"/>
<polygon fill="none" stroke="#000000" points="557,-40.2 557,-59.2 674,-59.2 674,-40.2 557,-40.2"/>
<text text-anchor="start" x="655.4053" y="-46.3" font-family="Helvetica,sans-Serif" font-size="11.00" fill="#000000">1 &gt;</text>
<polygon fill="none" stroke="#000000" stroke-width="2" points="457,-39.2 457,-325.2 675,-325.2 675,-39.2 457,-39.2"/>
</a>
</g>
</g>
<!-- classes -->
<g id="node2" class="node">
<title>classes</title>
<g id="a_node2"><a xlink:href="../../tables/classes.html" xlink:title="classes" target="_top">
<polygon fill="#ffffff" stroke="transparent" points="319.5,-271.7 319.5,-376.7 404.5,-376.7 404.5,-271.7 319.5,-271.7"/>
<polygon fill="#f5f5f5" stroke="transparent" points="320,-353.2 320,-376.2 405,-376.2 405,-353.2 320,-353.2"/>
<polygon fill="none" stroke="#000000" points="320,-353.2 320,-376.2 405,-376.2 405,-353.2 320,-353.2"/>
<text text-anchor="start" x="325" y="-362.3" font-family="Helvetica,sans-Serif" font-weight="bold" font-size="11.00" fill="#000000">classes</text>
<text text-anchor="start" x="370.0437" y="-361.3" font-family="Helvetica,sans-Serif" font-size="11.00" fill="#000000">[table]</text>
<polygon fill="none" stroke="#000000" points="320,-331.2 320,-353.2 405,-353.2 405,-331.2 320,-331.2"/>
<image xlink:href="../../images/primaryKeys.png" width="11px" height="12px" preserveAspectRatio="xMinYMin meet" x="325" y="-348.2"/>
<text text-anchor="start" x="340" y="-338.3" font-family="Helvetica,sans-Serif" font-size="11.00" fill="#000000">id</text>
<polygon fill="#ffffff" stroke="transparent" points="320,-309.2 320,-331.2 405,-331.2 405,-309.2 320,-309.2"/>
<polygon fill="none" stroke="#000000" points="320,-309.2 320,-331.2 405,-331.2 405,-309.2 320,-309.2"/>
<image xlink:href="../../images/foreignKeys.png" width="11px" height="12px" preserveAspectRatio="xMinYMin meet" x="325" y="-326.2"/>
<text text-anchor="start" x="340" y="-316.3" font-family="Helvetica,sans-Serif" font-size="11.00" fill="#000000">skill_list_id</text>
<polygon fill="none" stroke="#000000" points="320,-290.2 320,-309.2 405,-309.2 405,-290.2 320,-290.2"/>
<text text-anchor="start" x="323" y="-296.3" font-family="Helvetica,sans-Serif" font-size="11.00" fill="#000000">...</text>
<polygon fill="#ffffff" stroke="transparent" points="320,-271.2 320,-290.2 343,-290.2 343,-271.2 320,-271.2"/>
<polygon fill="none" stroke="#000000" points="320,-271.2 320,-290.2 343,-290.2 343,-271.2 320,-271.2"/>
<text text-anchor="start" x="323" y="-277.3" font-family="Helvetica,sans-Serif" font-size="11.00" fill="#000000">&lt; 1</text>
<polygon fill="#ffffff" stroke="transparent" points="343,-271.2 343,-290.2 382,-290.2 382,-271.2 343,-271.2"/>
<polygon fill="none" stroke="#000000" points="343,-271.2 343,-290.2 382,-290.2 382,-271.2 343,-271.2"/>
<text text-anchor="start" x="346.6105" y="-277.3" font-family="Helvetica,sans-Serif" font-size="11.00" fill="#000000">0 rows</text>
<polygon fill="#ffffff" stroke="transparent" points="382,-271.2 382,-290.2 405,-290.2 405,-271.2 382,-271.2"/>
<polygon fill="none" stroke="#000000" points="382,-271.2 382,-290.2 405,-290.2 405,-271.2 382,-271.2"/>
<text text-anchor="start" x="386.4053" y="-277.3" font-family="Helvetica,sans-Serif" font-size="11.00" fill="#000000">2 &gt;</text>
</a>
</g>
</g>
<!-- challenges&#45;&gt;classes -->
<g id="edge1" class="edge">
<title>challenges:w&#45;&gt;classes:e</title>
<path fill="none" stroke="#000000" d="M443.568,-182.8767C396.2411,-203.9397 474.9849,-342.2 405,-342.2"/>
<polygon fill="#000000" stroke="#000000" points="450.1341,-181.6589 458.6565,-183.7396 454.0671,-180.9295 458,-180.2 458,-180.2 458,-180.2 454.0671,-180.9295 457.3435,-176.6604 450.1341,-181.6589 450.1341,-181.6589"/>
<ellipse fill="none" stroke="#000000" cx="446.9878" cy="-182.2425" rx="3.2" ry="3.2"/>
</g>
<!-- gyms -->
<g id="node3" class="node">
<title>gyms</title>
<g id="a_node3"><a xlink:href="../../tables/gyms.html" xlink:title="gyms" target="_top">
<polygon fill="#ffffff" stroke="transparent" points="8,-246.7 8,-329.7 93,-329.7 93,-246.7 8,-246.7"/>
<polygon fill="#f5f5f5" stroke="transparent" points="8.5,-306.2 8.5,-329.2 93.5,-329.2 93.5,-306.2 8.5,-306.2"/>
<polygon fill="none" stroke="#000000" points="8.5,-306.2 8.5,-329.2 93.5,-329.2 93.5,-306.2 8.5,-306.2"/>
<text text-anchor="start" x="13.5" y="-315.3" font-family="Helvetica,sans-Serif" font-weight="bold" font-size="11.00" fill="#000000">gyms</text>
<text text-anchor="start" x="58.5437" y="-314.3" font-family="Helvetica,sans-Serif" font-size="11.00" fill="#000000">[table]</text>
<polygon fill="none" stroke="#000000" points="8.5,-284.2 8.5,-306.2 93.5,-306.2 93.5,-284.2 8.5,-284.2"/>
<image xlink:href="../../images/primaryKeys.png" width="11px" height="12px" preserveAspectRatio="xMinYMin meet" x="13.5" y="-301.2"/>
<text text-anchor="start" x="28.5" y="-291.3" font-family="Helvetica,sans-Serif" font-size="11.00" fill="#000000">id</text>
<polygon fill="none" stroke="#000000" points="8.5,-265.2 8.5,-284.2 93.5,-284.2 93.5,-265.2 8.5,-265.2"/>
<text text-anchor="start" x="11.5" y="-271.3" font-family="Helvetica,sans-Serif" font-size="11.00" fill="#000000">...</text>
<polygon fill="#ffffff" stroke="transparent" points="8.5,-246.2 8.5,-265.2 27.5,-265.2 27.5,-246.2 8.5,-246.2"/>
<polygon fill="none" stroke="#000000" points="8.5,-246.2 8.5,-265.2 27.5,-265.2 27.5,-246.2 8.5,-246.2"/>
<text text-anchor="start" x="11.5" y="-252.3" font-family="Helvetica,sans-Serif" font-size="11.00" fill="#000000"> &#160;</text>
<polygon fill="#ffffff" stroke="transparent" points="27.5,-246.2 27.5,-265.2 68.5,-265.2 68.5,-246.2 27.5,-246.2"/>
<polygon fill="none" stroke="#000000" points="27.5,-246.2 27.5,-265.2 68.5,-265.2 68.5,-246.2 27.5,-246.2"/>
<text text-anchor="start" x="33.1105" y="-252.3" font-family="Helvetica,sans-Serif" font-size="11.00" fill="#000000">0 rows</text>
<polygon fill="#ffffff" stroke="transparent" points="68.5,-246.2 68.5,-265.2 93.5,-265.2 93.5,-246.2 68.5,-246.2"/>
<polygon fill="none" stroke="#000000" points="68.5,-246.2 68.5,-265.2 93.5,-265.2 93.5,-246.2 68.5,-246.2"/>
<text text-anchor="start" x="74.9053" y="-252.3" font-family="Helvetica,sans-Serif" font-size="11.00" fill="#000000">4 &gt;</text>
</a>
</g>
</g>
<!-- challenges&#45;&gt;gyms -->
<g id="edge2" class="edge">
<title>challenges:w&#45;&gt;gyms:e</title>
<path fill="none" stroke="#000000" d="M443.5147,-201.9846C309.7913,-198.0044 251.1896,-141.0639 134,-216.2 100.7845,-237.4961 132.9562,-295.2 93.5,-295.2"/>
<polygon fill="#000000" stroke="#000000" points="450.0009,-202.081 457.9465,-205.7996 454.0004,-202.1405 458,-202.2 458,-202.2 458,-202.2 454.0004,-202.1405 458.0535,-198.6004 450.0009,-202.081 450.0009,-202.081"/>
<ellipse fill="none" stroke="#000000" cx="446.8012" cy="-202.0334" rx="3.2" ry="3.2"/>
</g>
<!-- skill_lists -->
<g id="node4" class="node">
<title>skill_lists</title>
<g id="a_node4"><a xlink:href="../../tables/skill_lists.html" xlink:title="skill_lists" target="_top">
<polygon fill="#ffffff" stroke="transparent" points="162,-308.7 162,-369.7 248,-369.7 248,-308.7 162,-308.7"/>
<polygon fill="#f5f5f5" stroke="transparent" points="162,-346.2 162,-369.2 248,-369.2 248,-346.2 162,-346.2"/>
<polygon fill="none" stroke="#000000" points="162,-346.2 162,-369.2 248,-369.2 248,-346.2 162,-346.2"/>
<text text-anchor="start" x="166.8119" y="-355.3" font-family="Helvetica,sans-Serif" font-weight="bold" font-size="11.00" fill="#000000">skill_lists</text>
<text text-anchor="start" x="213.5219" y="-354.3" font-family="Helvetica,sans-Serif" font-size="11.00" fill="#000000">[table]</text>
<polygon fill="none" stroke="#000000" points="162,-327.2 162,-346.2 248,-346.2 248,-327.2 162,-327.2"/>
<text text-anchor="start" x="165" y="-333.3" font-family="Helvetica,sans-Serif" font-size="11.00" fill="#000000">...</text>
<polygon fill="#ffffff" stroke="transparent" points="162,-308.2 162,-327.2 186,-327.2 186,-308.2 162,-308.2"/>
<polygon fill="none" stroke="#000000" points="162,-308.2 162,-327.2 186,-327.2 186,-308.2 162,-308.2"/>
<text text-anchor="start" x="165" y="-314.3" font-family="Helvetica,sans-Serif" font-size="11.00" fill="#000000">&lt; 1</text>
<polygon fill="#ffffff" stroke="transparent" points="186,-308.2 186,-327.2 225,-327.2 225,-308.2 186,-308.2"/>
<polygon fill="none" stroke="#000000" points="186,-308.2 186,-327.2 225,-327.2 225,-308.2 186,-308.2"/>
<text text-anchor="start" x="189.6105" y="-314.3" font-family="Helvetica,sans-Serif" font-size="11.00" fill="#000000">0 rows</text>
<polygon fill="#ffffff" stroke="transparent" points="225,-308.2 225,-327.2 248,-327.2 248,-308.2 225,-308.2"/>
<polygon fill="none" stroke="#000000" points="225,-308.2 225,-327.2 248,-327.2 248,-308.2 225,-308.2"/>
<text text-anchor="start" x="229.4053" y="-314.3" font-family="Helvetica,sans-Serif" font-size="11.00" fill="#000000">2 &gt;</text>
</a>
</g>
</g>
<!-- classes&#45;&gt;skill_lists -->
<g id="edge3" class="edge">
<title>classes:w&#45;&gt;skill_lists:e</title>
<path fill="none" stroke="#000000" d="M305.4616,-321.4026C284.3132,-325.1236 275.2745,-336.2 248,-336.2"/>
<polygon fill="#000000" stroke="#000000" points="312.0272,-320.8595 320.2968,-323.7877 316.0136,-320.5298 320,-320.2 320,-320.2 320,-320.2 316.0136,-320.5298 319.7032,-316.6123 312.0272,-320.8595 312.0272,-320.8595"/>
<ellipse fill="none" stroke="#000000" cx="308.8381" cy="-321.1234" rx="3.2" ry="3.2"/>
</g>
<!-- skill_lists&#45;&gt;gyms -->
<g id="edge12" class="edge">
<title>skill_lists:w&#45;&gt;gyms:e</title>
<path fill="none" stroke="#000000" d="M147.5604,-333.3819C126.3343,-324.1188 123.2986,-295.2 93.5,-295.2"/>
<polygon fill="#000000" stroke="#000000" points="154.1481,-334.6676 161.3104,-339.7333 158.0741,-335.4338 162,-336.2 162,-336.2 162,-336.2 158.0741,-335.4338 162.6896,-332.6667 154.1481,-334.6676 154.1481,-334.6676"/>
<ellipse fill="none" stroke="#000000" cx="151.0074" cy="-334.0546" rx="3.2" ry="3.2"/>
</g>
<!-- completed_challenges -->
<g id="node5" class="node">
<title>completed_challenges</title>
<g id="a_node5"><a xlink:href="../../tables/completed_challenges.html" xlink:title="completed_challenges" target="_top">
<polygon fill="#ffffff" stroke="transparent" points="725,-301.7 725,-428.7 877,-428.7 877,-301.7 725,-301.7"/>
<polygon fill="#f5f5f5" stroke="transparent" points="725,-405.2 725,-428.2 877,-428.2 877,-405.2 725,-405.2"/>
<polygon fill="none" stroke="#000000" points="725,-405.2 725,-428.2 877,-428.2 877,-405.2 725,-405.2"/>
<text text-anchor="start" x="729.7899" y="-414.3" font-family="Helvetica,sans-Serif" font-weight="bold" font-size="11.00" fill="#000000">completed_challenges</text>
<text text-anchor="start" x="842.5219" y="-413.3" font-family="Helvetica,sans-Serif" font-size="11.00" fill="#000000">[table]</text>
<polygon fill="none" stroke="#000000" points="725,-383.2 725,-405.2 877,-405.2 877,-383.2 725,-383.2"/>
<image xlink:href="../../images/primaryKeys.png" width="11px" height="12px" preserveAspectRatio="xMinYMin meet" x="730" y="-400.2"/>
<text text-anchor="start" x="747" y="-390.3" font-family="Helvetica,sans-Serif" font-size="11.00" fill="#000000">id</text>
<polygon fill="#ffffff" stroke="transparent" points="725,-361.2 725,-383.2 877,-383.2 877,-361.2 725,-361.2"/>
<polygon fill="none" stroke="#000000" points="725,-361.2 725,-383.2 877,-383.2 877,-361.2 725,-361.2"/>
<image xlink:href="../../images/foreignKeys.png" width="11px" height="12px" preserveAspectRatio="xMinYMin meet" x="730" y="-378.2"/>
<text text-anchor="start" x="747" y="-368.3" font-family="Helvetica,sans-Serif" font-size="11.00" fill="#000000">gymnast_id</text>
<polygon fill="#ffffff" stroke="transparent" points="725,-339.2 725,-361.2 877,-361.2 877,-339.2 725,-339.2"/>
<polygon fill="none" stroke="#000000" points="725,-339.2 725,-361.2 877,-361.2 877,-339.2 725,-339.2"/>
<image xlink:href="../../images/foreignKeys.png" width="11px" height="12px" preserveAspectRatio="xMinYMin meet" x="730" y="-356.2"/>
<text text-anchor="start" x="747" y="-346.3" font-family="Helvetica,sans-Serif" font-size="11.00" fill="#000000">challenge_id</text>
<polygon fill="none" stroke="#000000" points="725,-320.2 725,-339.2 877,-339.2 877,-320.2 725,-320.2"/>
<text text-anchor="start" x="728" y="-326.3" font-family="Helvetica,sans-Serif" font-size="11.00" fill="#000000">...</text>
<polygon fill="#ffffff" stroke="transparent" points="725,-301.2 725,-320.2 786,-320.2 786,-301.2 725,-301.2"/>
<polygon fill="none" stroke="#000000" points="725,-301.2 725,-320.2 786,-320.2 786,-301.2 725,-301.2"/>
<text text-anchor="start" x="728" y="-307.3" font-family="Helvetica,sans-Serif" font-size="11.00" fill="#000000">&lt; 2</text>
<polygon fill="#ffffff" stroke="transparent" points="786,-301.2 786,-320.2 844,-320.2 844,-301.2 786,-301.2"/>
<polygon fill="none" stroke="#000000" points="786,-301.2 786,-320.2 844,-320.2 844,-301.2 786,-301.2"/>
<text text-anchor="start" x="808.6105" y="-307.3" font-family="Helvetica,sans-Serif" font-size="11.00" fill="#000000">0 rows</text>
<polygon fill="#ffffff" stroke="transparent" points="844,-301.2 844,-320.2 877,-320.2 877,-301.2 844,-301.2"/>
<polygon fill="none" stroke="#000000" points="844,-301.2 844,-320.2 877,-320.2 877,-301.2 844,-301.2"/>
<text text-anchor="start" x="867.8862" y="-307.3" font-family="Helvetica,sans-Serif" font-size="11.00" fill="#000000"> &#160;</text>
</a>
</g>
</g>
<!-- completed_challenges&#45;&gt;challenges -->
<g id="edge4" class="edge">
<title>completed_challenges:w&#45;&gt;challenges:e</title>
<path fill="none" stroke="#000000" d="M711.1909,-345.4919C694.9367,-331.3475 702.9831,-290.2 674,-290.2"/>
<polygon fill="#000000" stroke="#000000" points="717.428,-347.6184 723.8383,-353.6074 721.214,-348.9092 725,-350.2 725,-350.2 725,-350.2 721.214,-348.9092 726.1617,-346.7926 717.428,-347.6184 717.428,-347.6184"/>
<ellipse fill="none" stroke="#000000" cx="714.3992" cy="-346.5857" rx="3.2" ry="3.2"/>
</g>
<!-- gymnasts -->
<g id="node6" class="node">
<title>gymnasts</title>
<g id="a_node6"><a xlink:href="../../tables/gymnasts.html" xlink:title="gymnasts" target="_top">
<polygon fill="#ffffff" stroke="transparent" points="317,-397.7 317,-458.7 407,-458.7 407,-397.7 317,-397.7"/>
<polygon fill="#f5f5f5" stroke="transparent" points="317,-435.2 317,-458.2 407,-458.2 407,-435.2 317,-435.2"/>
<polygon fill="none" stroke="#000000" points="317,-435.2 317,-458.2 407,-458.2 407,-435.2 317,-435.2"/>
<text text-anchor="start" x="321.9683" y="-444.3" font-family="Helvetica,sans-Serif" font-weight="bold" font-size="11.00" fill="#000000">gymnasts</text>
<text text-anchor="start" x="372.5219" y="-443.3" font-family="Helvetica,sans-Serif" font-size="11.00" fill="#000000">[table]</text>
<polygon fill="none" stroke="#000000" points="317,-416.2 317,-435.2 407,-435.2 407,-416.2 317,-416.2"/>
<text text-anchor="start" x="320" y="-422.3" font-family="Helvetica,sans-Serif" font-size="11.00" fill="#000000">...</text>
<polygon fill="#ffffff" stroke="transparent" points="317,-397.2 317,-416.2 343,-416.2 343,-397.2 317,-397.2"/>
<polygon fill="none" stroke="#000000" points="317,-397.2 317,-416.2 343,-416.2 343,-397.2 317,-397.2"/>
<text text-anchor="start" x="320" y="-403.3" font-family="Helvetica,sans-Serif" font-size="11.00" fill="#000000">&lt; 2</text>
<polygon fill="#ffffff" stroke="transparent" points="343,-397.2 343,-416.2 383,-416.2 383,-397.2 343,-397.2"/>
<polygon fill="none" stroke="#000000" points="343,-397.2 343,-416.2 383,-416.2 383,-397.2 343,-397.2"/>
<text text-anchor="start" x="347.6105" y="-403.3" font-family="Helvetica,sans-Serif" font-size="11.00" fill="#000000">0 rows</text>
<polygon fill="#ffffff" stroke="transparent" points="383,-397.2 383,-416.2 407,-416.2 407,-397.2 383,-397.2"/>
<polygon fill="none" stroke="#000000" points="383,-397.2 383,-416.2 407,-416.2 407,-397.2 383,-397.2"/>
<text text-anchor="start" x="388.4053" y="-403.3" font-family="Helvetica,sans-Serif" font-size="11.00" fill="#000000">3 &gt;</text>
</a>
</g>
</g>
<!-- completed_challenges&#45;&gt;gymnasts -->
<g id="edge5" class="edge">
<title>completed_challenges:w&#45;&gt;gymnasts:e</title>
<path fill="none" stroke="#000000" d="M711.3597,-376.9455C700.7438,-386.9678 703.4197,-410.1153 684,-419.2 572.4616,-471.3788 530.14,-425.2 407,-425.2"/>
<polygon fill="#000000" stroke="#000000" points="717.4442,-374.8287 726.1829,-375.6001 721.2221,-373.5143 725,-372.2 725,-372.2 725,-372.2 721.2221,-373.5143 723.8171,-368.7999 717.4442,-374.8287 717.4442,-374.8287"/>
<ellipse fill="none" stroke="#000000" cx="714.4219" cy="-375.8802" rx="3.2" ry="3.2"/>
</g>
<!-- gyms_has_users -->
<g id="node8" class="node">
<title>gyms_has_users</title>
<g id="a_node8"><a xlink:href="../../tables/gyms_has_users.html" xlink:title="gyms_has_users" target="_top">
<polygon fill="#ffffff" stroke="transparent" points="142,-397.7 142,-458.7 268,-458.7 268,-397.7 142,-397.7"/>
<polygon fill="#f5f5f5" stroke="transparent" points="142,-435.2 142,-458.2 268,-458.2 268,-435.2 142,-435.2"/>
<polygon fill="none" stroke="#000000" points="142,-435.2 142,-458.2 268,-458.2 268,-435.2 142,-435.2"/>
<text text-anchor="start" x="146.936" y="-444.3" font-family="Helvetica,sans-Serif" font-weight="bold" font-size="11.00" fill="#000000">gyms_has_users</text>
<text text-anchor="start" x="233.5219" y="-443.3" font-family="Helvetica,sans-Serif" font-size="11.00" fill="#000000">[table]</text>
<polygon fill="none" stroke="#000000" points="142,-416.2 142,-435.2 268,-435.2 268,-416.2 142,-416.2"/>
<text text-anchor="start" x="145" y="-422.3" font-family="Helvetica,sans-Serif" font-size="11.00" fill="#000000">...</text>
<polygon fill="#ffffff" stroke="transparent" points="142,-397.2 142,-416.2 186,-416.2 186,-397.2 142,-397.2"/>
<polygon fill="none" stroke="#000000" points="142,-397.2 142,-416.2 186,-416.2 186,-397.2 142,-397.2"/>
<text text-anchor="start" x="145" y="-403.3" font-family="Helvetica,sans-Serif" font-size="11.00" fill="#000000">&lt; 2</text>
<polygon fill="#ffffff" stroke="transparent" points="186,-397.2 186,-416.2 235,-416.2 235,-397.2 186,-397.2"/>
<polygon fill="none" stroke="#000000" points="186,-397.2 186,-416.2 235,-416.2 235,-397.2 186,-397.2"/>
<text text-anchor="start" x="199.6105" y="-403.3" font-family="Helvetica,sans-Serif" font-size="11.00" fill="#000000">0 rows</text>
<polygon fill="#ffffff" stroke="transparent" points="235,-397.2 235,-416.2 268,-416.2 268,-397.2 235,-397.2"/>
<polygon fill="none" stroke="#000000" points="235,-397.2 235,-416.2 268,-416.2 268,-397.2 235,-397.2"/>
<text text-anchor="start" x="249.4053" y="-403.3" font-family="Helvetica,sans-Serif" font-size="11.00" fill="#000000">2 &gt;</text>
</a>
</g>
</g>
<!-- gymnasts&#45;&gt;gyms_has_users -->
<g id="edge7" class="edge">
<title>gymnasts:w&#45;&gt;gyms_has_users:e</title>
<path fill="none" stroke="#000000" d="M302.8534,-421.7558C291.3293,-419.5988 284.1632,-420.7469 268,-425.2"/>
<polygon fill="#000000" stroke="#000000" points="309.2271,-423.3075 316.1484,-428.6978 313.1135,-424.2538 317,-425.2 317,-425.2 317,-425.2 313.1135,-424.2538 317.8516,-421.7022 309.2271,-423.3075 309.2271,-423.3075"/>
<ellipse fill="none" stroke="#000000" cx="306.1179" cy="-422.5505" rx="3.2" ry="3.2"/>
</g>
<!-- gymnasts&#45;&gt;gyms_has_users -->
<g id="edge8" class="edge">
<title>gymnasts:w&#45;&gt;gyms_has_users:e</title>
<path fill="none" stroke="#000000" d="M302.8534,-429.2182C291.3293,-431.7347 284.1632,-430.3953 268,-425.2"/>
<polygon fill="#000000" stroke="#000000" points="309.3044,-427.3859 317.9837,-428.663 313.1522,-426.293 317,-425.2 317,-425.2 317,-425.2 313.1522,-426.293 316.0163,-421.737 309.3044,-427.3859 309.3044,-427.3859"/>
<ellipse fill="none" stroke="#000000" cx="306.2262" cy="-428.2603" rx="3.2" ry="3.2"/>
</g>
<!-- events -->
<g id="node7" class="node">
<title>events</title>
<g id="a_node7"><a xlink:href="../../tables/events.html" xlink:title="events" target="_top">
<polygon fill="#ffffff" stroke="transparent" points="165,-226.7 165,-287.7 245,-287.7 245,-226.7 165,-226.7"/>
<polygon fill="#f5f5f5" stroke="transparent" points="165,-264.2 165,-287.2 245,-287.2 245,-264.2 165,-264.2"/>
<polygon fill="none" stroke="#000000" points="165,-264.2 165,-287.2 245,-287.2 245,-264.2 165,-264.2"/>
<text text-anchor="start" x="170" y="-273.3" font-family="Helvetica,sans-Serif" font-weight="bold" font-size="11.00" fill="#000000">events</text>
<text text-anchor="start" x="210.0437" y="-272.3" font-family="Helvetica,sans-Serif" font-size="11.00" fill="#000000">[table]</text>
<polygon fill="none" stroke="#000000" points="165,-245.2 165,-264.2 245,-264.2 245,-245.2 165,-245.2"/>
<text text-anchor="start" x="168" y="-251.3" font-family="Helvetica,sans-Serif" font-size="11.00" fill="#000000">...</text>
<polygon fill="#ffffff" stroke="transparent" points="165,-226.2 165,-245.2 186,-245.2 186,-226.2 165,-226.2"/>
<polygon fill="none" stroke="#000000" points="165,-226.2 165,-245.2 186,-245.2 186,-226.2 165,-226.2"/>
<text text-anchor="start" x="167.7027" y="-232.3" font-family="Helvetica,sans-Serif" font-size="11.00" fill="#000000">&lt; 1</text>
<polygon fill="#ffffff" stroke="transparent" points="186,-226.2 186,-245.2 224,-245.2 224,-226.2 186,-226.2"/>
<polygon fill="none" stroke="#000000" points="186,-226.2 186,-245.2 224,-245.2 224,-226.2 186,-226.2"/>
<text text-anchor="start" x="188.8053" y="-232.3" font-family="Helvetica,sans-Serif" font-size="11.00" fill="#000000">0 rows</text>
<polygon fill="#ffffff" stroke="transparent" points="224,-226.2 224,-245.2 245,-245.2 245,-226.2 224,-226.2"/>
<polygon fill="none" stroke="#000000" points="224,-226.2 224,-245.2 245,-245.2 245,-226.2 224,-226.2"/>
<text text-anchor="start" x="226.7027" y="-232.3" font-family="Helvetica,sans-Serif" font-size="11.00" fill="#000000">1 &gt;</text>
</a>
</g>
</g>
<!-- events&#45;&gt;gyms -->
<g id="edge6" class="edge">
<title>events:w&#45;&gt;gyms:e</title>
<path fill="none" stroke="#000000" d="M150.66,-256.7647C128.0145,-265.7406 124.551,-295.2 93.5,-295.2"/>
<polygon fill="#000000" stroke="#000000" points="157.125,-255.6085 165.6338,-257.7438 161.0625,-254.9043 165,-254.2 165,-254.2 165,-254.2 161.0625,-254.9043 164.3662,-250.6562 157.125,-255.6085 157.125,-255.6085"/>
<ellipse fill="none" stroke="#000000" cx="153.9749" cy="-256.1719" rx="3.2" ry="3.2"/>
</g>
<!-- gyms_has_users&#45;&gt;gyms -->
<g id="edge11" class="edge">
<title>gyms_has_users:w&#45;&gt;gyms:e</title>
<path fill="none" stroke="#000000" d="M127.5844,-421.7228C93.6468,-401.0492 149.1455,-295.2 93.5,-295.2"/>
<polygon fill="#000000" stroke="#000000" points="134.223,-423.3241 141.1558,-428.6996 138.1115,-424.262 142,-425.2 142,-425.2 142,-425.2 138.1115,-424.262 142.8442,-421.7004 134.223,-423.3241 134.223,-423.3241"/>
<ellipse fill="none" stroke="#000000" cx="131.1123" cy="-422.5737" rx="3.2" ry="3.2"/>
</g>
<!-- gymnasts_has_classes -->
<g id="node9" class="node">
<title>gymnasts_has_classes</title>
<g id="a_node9"><a xlink:href="../../tables/gymnasts_has_classes.html" xlink:title="gymnasts_has_classes" target="_top">
<polygon fill="#ffffff" stroke="transparent" points="488,-347.7 488,-408.7 644,-408.7 644,-347.7 488,-347.7"/>
<polygon fill="#f5f5f5" stroke="transparent" points="488,-385.2 488,-408.2 644,-408.2 644,-385.2 488,-385.2"/>
<polygon fill="none" stroke="#000000" points="488,-385.2 488,-408.2 644,-408.2 644,-385.2 488,-385.2"/>
<text text-anchor="start" x="492.6531" y="-394.3" font-family="Helvetica,sans-Serif" font-weight="bold" font-size="11.00" fill="#000000">gymnasts_has_classes</text>
<text text-anchor="start" x="609.5219" y="-393.3" font-family="Helvetica,sans-Serif" font-size="11.00" fill="#000000">[table]</text>
<polygon fill="none" stroke="#000000" points="488,-366.2 488,-385.2 644,-385.2 644,-366.2 488,-366.2"/>
<text text-anchor="start" x="491" y="-372.3" font-family="Helvetica,sans-Serif" font-size="11.00" fill="#000000">...</text>
<polygon fill="#ffffff" stroke="transparent" points="488,-347.2 488,-366.2 551,-366.2 551,-347.2 488,-347.2"/>
<polygon fill="none" stroke="#000000" points="488,-347.2 488,-366.2 551,-366.2 551,-347.2 488,-347.2"/>
<text text-anchor="start" x="491" y="-353.3" font-family="Helvetica,sans-Serif" font-size="11.00" fill="#000000">&lt; 2</text>
<polygon fill="#ffffff" stroke="transparent" points="551,-347.2 551,-366.2 610,-366.2 610,-347.2 551,-347.2"/>
<polygon fill="none" stroke="#000000" points="551,-347.2 551,-366.2 610,-366.2 610,-347.2 551,-347.2"/>
<text text-anchor="start" x="574.6105" y="-353.3" font-family="Helvetica,sans-Serif" font-size="11.00" fill="#000000">0 rows</text>
<polygon fill="#ffffff" stroke="transparent" points="610,-347.2 610,-366.2 644,-366.2 644,-347.2 610,-347.2"/>
<polygon fill="none" stroke="#000000" points="610,-347.2 610,-366.2 644,-366.2 644,-347.2 610,-347.2"/>
<text text-anchor="start" x="634.8862" y="-353.3" font-family="Helvetica,sans-Serif" font-size="11.00" fill="#000000"> &#160;</text>
</a>
</g>
</g>
<!-- gymnasts_has_classes&#45;&gt;classes -->
<g id="edge9" class="edge">
<title>gymnasts_has_classes:w&#45;&gt;classes:e</title>
<path fill="none" stroke="#000000" d="M473.5572,-373.5182C446.6421,-366.7934 439.2702,-342.2 405,-342.2"/>
<polygon fill="#000000" stroke="#000000" points="480.0537,-374.2746 487.5836,-378.7758 484.0268,-374.7373 488,-375.2 488,-375.2 488,-375.2 484.0268,-374.7373 488.4164,-371.6242 480.0537,-374.2746 480.0537,-374.2746"/>
<ellipse fill="none" stroke="#000000" cx="476.8752" cy="-373.9045" rx="3.2" ry="3.2"/>
</g>
<!-- gymnasts_has_classes&#45;&gt;gymnasts -->
<g id="edge10" class="edge">
<title>gymnasts_has_classes:w&#45;&gt;gymnasts:e</title>
<path fill="none" stroke="#000000" d="M473.7317,-377.4783C445.862,-387.2598 443.8528,-425.2 407,-425.2"/>
<polygon fill="#000000" stroke="#000000" points="480.1001,-376.4615 488.5677,-378.755 484.05,-375.8307 488,-375.2 488,-375.2 488,-375.2 484.05,-375.8307 487.4323,-371.645 480.1001,-376.4615 480.1001,-376.4615"/>
<ellipse fill="none" stroke="#000000" cx="476.9401" cy="-376.9661" rx="3.2" ry="3.2"/>
</g>
</g>
</svg>
