<?xml version="1.0" encoding="UTF-8" standalone="no"?>
<!DOCTYPE svg PUBLIC "-//W3C//DTD SVG 1.1//EN"
 "http://www.w3.org/Graphics/SVG/1.1/DTD/svg11.dtd">
<!-- Generated by graphviz version 2.40.1 (20161225.0304)
 -->
<!-- Title: oneDegreeRelationshipsDiagram Pages: 1 -->
<svg width="414pt" height="285pt"
 viewBox="0.00 0.00 414.00 284.70" xmlns="http://www.w3.org/2000/svg" xmlns:xlink="http://www.w3.org/1999/xlink">
<g id="graph0" class="graph" transform="scale(1 1) rotate(0) translate(4 280.7)">
<title>oneDegreeRelationshipsDiagram</title>
<polygon fill="#ffffff" stroke="transparent" points="-4,4 -4,-280.7 410,-280.7 410,4 -4,4"/>
<text text-anchor="middle" x="72.4936" y="-7.3" font-family="Helvetica,sans-Serif" font-size="11.00" fill="#000000">Generated by SchemaSpy</text>
<!-- daily_challenges -->
<g id="node1" class="node">
<title>daily_challenges</title>
<g id="a_node1"><a xlink:href="../../tables/daily_challenges.html" xlink:title="daily_challenges" target="_top">
<polygon fill="#ffffff" stroke="transparent" points="268.5,-164.7 268.5,-272.7 392.5,-272.7 392.5,-164.7 268.5,-164.7"/>
<polygon fill="#f5f5f5" stroke="transparent" points="268.5,-249.7 268.5,-272.7 392.5,-272.7 392.5,-249.7 268.5,-249.7"/>
<polygon fill="none" stroke="#000000" points="268.5,-249.7 268.5,-272.7 392.5,-272.7 392.5,-249.7 268.5,-249.7"/>
<text text-anchor="start" x="273.3512" y="-258.8" font-family="Helvetica,sans-Serif" font-weight="bold" font-size="11.00" fill="#000000">daily_challenges</text>
<text text-anchor="start" x="358.0219" y="-257.8" font-family="Helvetica,sans-Serif" font-size="11.00" fill="#000000">[table]</text>
<polygon fill="none" stroke="#000000" points="268.5,-227.7 268.5,-249.7 392.5,-249.7 392.5,-227.7 268.5,-227.7"/>
<image xlink:href="../../images/primaryKeys.png" width="11px" height="12px" preserveAspectRatio="xMinYMin meet" x="273.5" y="-244.7"/>
<text text-anchor="start" x="292.5" y="-234.8" font-family="Helvetica,sans-Serif" font-size="11.00" fill="#000000">classes_id</text>
<polygon fill="none" stroke="#000000" points="268.5,-205.7 268.5,-227.7 392.5,-227.7 392.5,-205.7 268.5,-205.7"/>
<image xlink:href="../../images/primaryKeys.png" width="11px" height="12px" preserveAspectRatio="xMinYMin meet" x="273.5" y="-222.7"/>
<text text-anchor="start" x="292.5" y="-212.8" font-family="Helvetica,sans-Serif" font-size="11.00" fill="#000000">challenges_id</text>
<polygon fill="none" stroke="#000000" points="268.5,-183.7 268.5,-205.7 392.5,-205.7 392.5,-183.7 268.5,-183.7"/>
<image xlink:href="../../images/primaryKeys.png" width="11px" height="12px" preserveAspectRatio="xMinYMin meet" x="273.5" y="-200.7"/>
<text text-anchor="start" x="292.5" y="-190.8" font-family="Helvetica,sans-Serif" font-size="11.00" fill="#000000">date</text>
<polygon fill="#ffffff" stroke="transparent" points="268.5,-164.7 268.5,-183.7 311.5,-183.7 311.5,-164.7 268.5,-164.7"/>
<polygon fill="none" stroke="#000000" points="268.5,-164.7 268.5,-183.7 311.5,-183.7 311.5,-164.7 268.5,-164.7"/>
<text text-anchor="start" x="271.5" y="-170.8" font-family="Helvetica,sans-Serif" font-size="11.00" fill="#000000">&lt; 2</text>
<polygon fill="#ffffff" stroke="transparent" points="311.5,-164.7 311.5,-183.7 360.5,-183.7 360.5,-164.7 311.5,-164.7"/>
<polygon fill="none" stroke="#000000" points="311.5,-164.7 311.5,-183.7 360.5,-183.7 360.5,-164.7 311.5,-164.7"/>
<text text-anchor="start" x="325.1105" y="-170.8" font-family="Helvetica,sans-Serif" font-size="11.00" fill="#000000">0 rows</text>
<polygon fill="#ffffff" stroke="transparent" points="360.5,-164.7 360.5,-183.7 392.5,-183.7 392.5,-164.7 360.5,-164.7"/>
<polygon fill="none" stroke="#000000" points="360.5,-164.7 360.5,-183.7 392.5,-183.7 392.5,-164.7 360.5,-164.7"/>
<text text-anchor="start" x="373.9053" y="-170.8" font-family="Helvetica,sans-Serif" font-size="11.00" fill="#000000">3 &gt;</text>
</a>
</g>
</g>
<!-- challenges -->
<g id="node2" class="node">
<title>challenges</title>
<g id="a_node2"><a xlink:href="../../tables/challenges.html" xlink:title="challenges" target="_top">
<polygon fill="#ffffff" stroke="transparent" points="8,-53.7 8,-187.7 214,-187.7 214,-53.7 8,-53.7"/>
<polygon fill="#f5f5f5" stroke="transparent" points="10,-162.7 10,-185.7 212,-185.7 212,-162.7 10,-162.7"/>
<polygon fill="none" stroke="#000000" points="10,-162.7 10,-185.7 212,-185.7 212,-162.7 10,-162.7"/>
<text text-anchor="start" x="15" y="-171.8" font-family="Helvetica,sans-Serif" font-weight="bold" font-size="11.00" fill="#000000">challenges</text>
<text text-anchor="start" x="177.0437" y="-170.8" font-family="Helvetica,sans-Serif" font-size="11.00" fill="#000000">[table]</text>
<polygon fill="none" stroke="#000000" points="10,-140.7 10,-162.7 95,-162.7 95,-140.7 10,-140.7"/>
<image xlink:href="../../images/primaryKeys.png" width="11px" height="12px" preserveAspectRatio="xMinYMin meet" x="15" y="-157.7"/>
<text text-anchor="start" x="30" y="-147.8" font-family="Helvetica,sans-Serif" font-size="11.00" fill="#000000">id</text>
<polygon fill="none" stroke="#000000" points="95,-140.7 95,-162.7 212,-162.7 212,-140.7 95,-140.7"/>
<text text-anchor="start" x="98" y="-148.4" font-family="Helvetica,sans-Serif" font-size="11.00" fill="#000000">int[10]</text>
<polygon fill="none" stroke="#000000" points="10,-118.7 10,-140.7 95,-140.7 95,-118.7 10,-118.7"/>
<text text-anchor="start" x="30" y="-125.8" font-family="Helvetica,sans-Serif" font-size="11.00" fill="#000000">name</text>
<polygon fill="none" stroke="#000000" points="95,-118.7 95,-140.7 212,-140.7 212,-118.7 95,-118.7"/>
<text text-anchor="start" x="98" y="-126.4" font-family="Helvetica,sans-Serif" font-size="11.00" fill="#000000">varchar[45]</text>
<polygon fill="none" stroke="#000000" points="10,-96.7 10,-118.7 95,-118.7 95,-96.7 10,-96.7"/>
<text text-anchor="start" x="30" y="-103.8" font-family="Helvetica,sans-Serif" font-size="11.00" fill="#000000">description</text>
<polygon fill="none" stroke="#000000" points="95,-96.7 95,-118.7 212,-118.7 212,-96.7 95,-96.7"/>
<text text-anchor="start" x="97.5644" y="-104.4" font-family="Helvetica,sans-Serif" font-size="11.00" fill="#000000">mediumtext[16777215]</text>
<polygon fill="none" stroke="#000000" points="10,-74.7 10,-96.7 95,-96.7 95,-74.7 10,-74.7"/>
<text text-anchor="start" x="30" y="-81.8" font-family="Helvetica,sans-Serif" font-size="11.00" fill="#000000">points</text>
<polygon fill="none" stroke="#000000" points="95,-74.7 95,-96.7 212,-96.7 212,-74.7 95,-74.7"/>
<text text-anchor="start" x="98" y="-82.4" font-family="Helvetica,sans-Serif" font-size="11.00" fill="#000000">int[10]</text>
<polygon fill="#ffffff" stroke="transparent" points="10,-55.7 10,-74.7 44,-74.7 44,-55.7 10,-55.7"/>
<polygon fill="none" stroke="#000000" points="10,-55.7 10,-74.7 44,-74.7 44,-55.7 10,-55.7"/>
<text text-anchor="start" x="13" y="-61.8" font-family="Helvetica,sans-Serif" font-size="11.00" fill="#000000">&lt; 0</text>
<polygon fill="#ffffff" stroke="transparent" points="44,-55.7 44,-74.7 95,-74.7 95,-55.7 44,-55.7"/>
<polygon fill="none" stroke="#000000" points="44,-55.7 44,-74.7 95,-74.7 95,-55.7 44,-55.7"/>
<text text-anchor="start" x="59.6105" y="-61.8" font-family="Helvetica,sans-Serif" font-size="11.00" fill="#000000">0 rows</text>
<polygon fill="#ffffff" stroke="transparent" points="95,-55.7 95,-74.7 212,-74.7 212,-55.7 95,-55.7"/>
<polygon fill="none" stroke="#000000" points="95,-55.7 95,-74.7 212,-74.7 212,-55.7 95,-55.7"/>
<text text-anchor="start" x="193.4053" y="-61.8" font-family="Helvetica,sans-Serif" font-size="11.00" fill="#000000">2 &gt;</text>
<polygon fill="none" stroke="#000000" stroke-width="2" points="9,-54.7 9,-186.7 213,-186.7 213,-54.7 9,-54.7"/>
</a>
</g>
</g>
<!-- daily_challenges&#45;&gt;challenges -->
<g id="edge1" class="edge">
<title>daily_challenges:w&#45;&gt;challenges:e</title>
<path fill="none" stroke="#000000" d="M254.6551,-212.634C234.9794,-198.4039 244.4458,-151.7 212,-151.7"/>
<polygon fill="#000000" stroke="#000000" points="260.8242,-214.4457 267.4856,-220.1541 264.6621,-215.5728 268.5,-216.7 268.5,-216.7 268.5,-216.7 264.6621,-215.5728 269.5144,-213.2459 260.8242,-214.4457 260.8242,-214.4457"/>
<ellipse fill="none" stroke="#000000" cx="257.7538" cy="-213.544" rx="3.2" ry="3.2"/>
</g>
<!-- normal_challenges -->
<g id="node3" class="node">
<title>normal_challenges</title>
<g id="a_node3"><a xlink:href="../../tables/normal_challenges.html" xlink:title="normal_challenges" target="_top">
<polygon fill="#ffffff" stroke="transparent" points="263,-38.2 263,-143.2 398,-143.2 398,-38.2 263,-38.2"/>
<polygon fill="#f5f5f5" stroke="transparent" points="263.5,-119.7 263.5,-142.7 398.5,-142.7 398.5,-119.7 263.5,-119.7"/>
<polygon fill="none" stroke="#000000" points="263.5,-119.7 263.5,-142.7 398.5,-142.7 398.5,-119.7 263.5,-119.7"/>
<text text-anchor="start" x="268.3522" y="-128.8" font-family="Helvetica,sans-Serif" font-weight="bold" font-size="11.00" fill="#000000">normal_challenges</text>
<text text-anchor="start" x="364.0219" y="-127.8" font-family="Helvetica,sans-Serif" font-size="11.00" fill="#000000">[table]</text>
<polygon fill="none" stroke="#000000" points="263.5,-97.7 263.5,-119.7 398.5,-119.7 398.5,-97.7 263.5,-97.7"/>
<image xlink:href="../../images/primaryKeys.png" width="11px" height="12px" preserveAspectRatio="xMinYMin meet" x="268.5" y="-114.7"/>
<text text-anchor="start" x="286.5" y="-104.8" font-family="Helvetica,sans-Serif" font-size="11.00" fill="#000000">classes_id</text>
<polygon fill="none" stroke="#000000" points="263.5,-75.7 263.5,-97.7 398.5,-97.7 398.5,-75.7 263.5,-75.7"/>
<image xlink:href="../../images/primaryKeys.png" width="11px" height="12px" preserveAspectRatio="xMinYMin meet" x="268.5" y="-92.7"/>
<text text-anchor="start" x="286.5" y="-82.8" font-family="Helvetica,sans-Serif" font-size="11.00" fill="#000000">challenges_id</text>
<polygon fill="none" stroke="#000000" points="263.5,-56.7 263.5,-75.7 398.5,-75.7 398.5,-56.7 263.5,-56.7"/>
<text text-anchor="start" x="266.5" y="-62.8" font-family="Helvetica,sans-Serif" font-size="11.00" fill="#000000">...</text>
<polygon fill="#ffffff" stroke="transparent" points="263.5,-37.7 263.5,-56.7 311.5,-56.7 311.5,-37.7 263.5,-37.7"/>
<polygon fill="none" stroke="#000000" points="263.5,-37.7 263.5,-56.7 311.5,-56.7 311.5,-37.7 263.5,-37.7"/>
<text text-anchor="start" x="266.5" y="-43.8" font-family="Helvetica,sans-Serif" font-size="11.00" fill="#000000">&lt; 2</text>
<polygon fill="#ffffff" stroke="transparent" points="311.5,-37.7 311.5,-56.7 363.5,-56.7 363.5,-37.7 311.5,-37.7"/>
<polygon fill="none" stroke="#000000" points="311.5,-37.7 311.5,-56.7 363.5,-56.7 363.5,-37.7 311.5,-37.7"/>
<text text-anchor="start" x="328.1105" y="-43.8" font-family="Helvetica,sans-Serif" font-size="11.00" fill="#000000">0 rows</text>
<polygon fill="#ffffff" stroke="transparent" points="363.5,-37.7 363.5,-56.7 398.5,-56.7 398.5,-37.7 363.5,-37.7"/>
<polygon fill="none" stroke="#000000" points="363.5,-37.7 363.5,-56.7 398.5,-56.7 398.5,-37.7 363.5,-37.7"/>
<text text-anchor="start" x="379.9053" y="-43.8" font-family="Helvetica,sans-Serif" font-size="11.00" fill="#000000">2 &gt;</text>
</a>
</g>
</g>
<!-- normal_challenges&#45;&gt;challenges -->
<g id="edge2" class="edge">
<title>normal_challenges:w&#45;&gt;challenges:e</title>
<path fill="none" stroke="#000000" d="M249.6076,-91.3746C232.3418,-106.2786 242.8105,-151.7 212,-151.7"/>
<polygon fill="#000000" stroke="#000000" points="255.9177,-89.2514 264.6481,-90.112 259.7089,-87.9757 263.5,-86.7 263.5,-86.7 263.5,-86.7 259.7089,-87.9757 262.3519,-83.288 255.9177,-89.2514 255.9177,-89.2514"/>
<ellipse fill="none" stroke="#000000" cx="252.8848" cy="-90.2719" rx="3.2" ry="3.2"/>
</g>
</g>
</svg>
