<?xml version="1.0" encoding="UTF-8" standalone="no"?>
<!DOCTYPE svg PUBLIC "-//W3C//DTD SVG 1.1//EN"
 "http://www.w3.org/Graphics/SVG/1.1/DTD/svg11.dtd">
<!-- Generated by graphviz version 2.40.1 (20161225.0304)
 -->
<!-- Title: twoDegreesRelationshipsDiagram Pages: 1 -->
<svg width="655pt" height="301pt"
 viewBox="0.00 0.00 655.00 301.20" xmlns="http://www.w3.org/2000/svg" xmlns:xlink="http://www.w3.org/1999/xlink">
<g id="graph0" class="graph" transform="scale(1 1) rotate(0) translate(4 297.2)">
<title>twoDegreesRelationshipsDiagram</title>
<polygon fill="#ffffff" stroke="transparent" points="-4,4 -4,-297.2 651,-297.2 651,4 -4,4"/>
<text text-anchor="middle" x="72.4936" y="-7.3" font-family="Helvetica,sans-Serif" font-size="11.00" fill="#000000">Generated by SchemaSpy</text>
<!-- completed_daily_challenges -->
<g id="node1" class="node">
<title>completed_daily_challenges</title>
<g id="a_node1"><a xlink:href="../../tables/completed_daily_challenges.html" xlink:title="completed_daily_challenges" target="_top">
<polygon fill="#ffffff" stroke="transparent" points="452.5,-205.7 452.5,-266.7 633.5,-266.7 633.5,-205.7 452.5,-205.7"/>
<polygon fill="#f5f5f5" stroke="transparent" points="453,-243.2 453,-266.2 634,-266.2 634,-243.2 453,-243.2"/>
<polygon fill="none" stroke="#000000" points="453,-243.2 453,-266.2 634,-266.2 634,-243.2 453,-243.2"/>
<text text-anchor="start" x="457.9266" y="-252.3" font-family="Helvetica,sans-Serif" font-weight="bold" font-size="11.00" fill="#000000">completed_daily_challenges</text>
<text text-anchor="start" x="599.5219" y="-251.3" font-family="Helvetica,sans-Serif" font-size="11.00" fill="#000000">[table]</text>
<polygon fill="none" stroke="#000000" points="453,-224.2 453,-243.2 634,-243.2 634,-224.2 453,-224.2"/>
<text text-anchor="start" x="456" y="-230.3" font-family="Helvetica,sans-Serif" font-size="11.00" fill="#000000">...</text>
<polygon fill="#ffffff" stroke="transparent" points="453,-205.2 453,-224.2 529,-224.2 529,-205.2 453,-205.2"/>
<polygon fill="none" stroke="#000000" points="453,-205.2 453,-224.2 529,-224.2 529,-205.2 453,-205.2"/>
<text text-anchor="start" x="456" y="-211.3" font-family="Helvetica,sans-Serif" font-size="11.00" fill="#000000">&lt; 4</text>
<polygon fill="#ffffff" stroke="transparent" points="529,-205.2 529,-224.2 594,-224.2 594,-205.2 529,-205.2"/>
<polygon fill="none" stroke="#000000" points="529,-205.2 529,-224.2 594,-224.2 594,-205.2 529,-205.2"/>
<text text-anchor="start" x="558.6105" y="-211.3" font-family="Helvetica,sans-Serif" font-size="11.00" fill="#000000">0 rows</text>
<polygon fill="#ffffff" stroke="transparent" points="594,-205.2 594,-224.2 634,-224.2 634,-205.2 594,-205.2"/>
<polygon fill="none" stroke="#000000" points="594,-205.2 594,-224.2 634,-224.2 634,-205.2 594,-205.2"/>
<text text-anchor="start" x="624.8862" y="-211.3" font-family="Helvetica,sans-Serif" font-size="11.00" fill="#000000"> &#160;</text>
</a>
</g>
</g>
<!-- daily_challenges -->
<g id="node2" class="node">
<title>daily_challenges</title>
<g id="a_node2"><a xlink:href="../../tables/daily_challenges.html" xlink:title="daily_challenges" target="_top">
<polygon fill="#ffffff" stroke="transparent" points="268.5,-181.2 268.5,-289.2 392.5,-289.2 392.5,-181.2 268.5,-181.2"/>
<polygon fill="#f5f5f5" stroke="transparent" points="268.5,-266.2 268.5,-289.2 392.5,-289.2 392.5,-266.2 268.5,-266.2"/>
<polygon fill="none" stroke="#000000" points="268.5,-266.2 268.5,-289.2 392.5,-289.2 392.5,-266.2 268.5,-266.2"/>
<text text-anchor="start" x="273.3512" y="-275.3" font-family="Helvetica,sans-Serif" font-weight="bold" font-size="11.00" fill="#000000">daily_challenges</text>
<text text-anchor="start" x="358.0219" y="-274.3" font-family="Helvetica,sans-Serif" font-size="11.00" fill="#000000">[table]</text>
<polygon fill="none" stroke="#000000" points="268.5,-244.2 268.5,-266.2 392.5,-266.2 392.5,-244.2 268.5,-244.2"/>
<image xlink:href="../../images/primaryKeys.png" width="11px" height="12px" preserveAspectRatio="xMinYMin meet" x="273.5" y="-261.2"/>
<text text-anchor="start" x="292.5" y="-251.3" font-family="Helvetica,sans-Serif" font-size="11.00" fill="#000000">classes_id</text>
<polygon fill="none" stroke="#000000" points="268.5,-222.2 268.5,-244.2 392.5,-244.2 392.5,-222.2 268.5,-222.2"/>
<image xlink:href="../../images/primaryKeys.png" width="11px" height="12px" preserveAspectRatio="xMinYMin meet" x="273.5" y="-239.2"/>
<text text-anchor="start" x="292.5" y="-229.3" font-family="Helvetica,sans-Serif" font-size="11.00" fill="#000000">challenges_id</text>
<polygon fill="none" stroke="#000000" points="268.5,-200.2 268.5,-222.2 392.5,-222.2 392.5,-200.2 268.5,-200.2"/>
<image xlink:href="../../images/primaryKeys.png" width="11px" height="12px" preserveAspectRatio="xMinYMin meet" x="273.5" y="-217.2"/>
<text text-anchor="start" x="292.5" y="-207.3" font-family="Helvetica,sans-Serif" font-size="11.00" fill="#000000">date</text>
<polygon fill="#ffffff" stroke="transparent" points="268.5,-181.2 268.5,-200.2 311.5,-200.2 311.5,-181.2 268.5,-181.2"/>
<polygon fill="none" stroke="#000000" points="268.5,-181.2 268.5,-200.2 311.5,-200.2 311.5,-181.2 268.5,-181.2"/>
<text text-anchor="start" x="271.5" y="-187.3" font-family="Helvetica,sans-Serif" font-size="11.00" fill="#000000">&lt; 2</text>
<polygon fill="#ffffff" stroke="transparent" points="311.5,-181.2 311.5,-200.2 360.5,-200.2 360.5,-181.2 311.5,-181.2"/>
<polygon fill="none" stroke="#000000" points="311.5,-181.2 311.5,-200.2 360.5,-200.2 360.5,-181.2 311.5,-181.2"/>
<text text-anchor="start" x="325.1105" y="-187.3" font-family="Helvetica,sans-Serif" font-size="11.00" fill="#000000">0 rows</text>
<polygon fill="#ffffff" stroke="transparent" points="360.5,-181.2 360.5,-200.2 392.5,-200.2 392.5,-181.2 360.5,-181.2"/>
<polygon fill="none" stroke="#000000" points="360.5,-181.2 360.5,-200.2 392.5,-200.2 392.5,-181.2 360.5,-181.2"/>
<text text-anchor="start" x="373.9053" y="-187.3" font-family="Helvetica,sans-Serif" font-size="11.00" fill="#000000">3 &gt;</text>
</a>
</g>
</g>
<!-- completed_daily_challenges&#45;&gt;daily_challenges -->
<g id="edge1" class="edge">
<title>completed_daily_challenges:w&#45;&gt;daily_challenges:e</title>
<path fill="none" stroke="#000000" d="M438.2977,-233.2C422.3779,-233.2 413.717,-233.2 392.5,-233.2"/>
<polygon fill="#000000" stroke="#000000" points="445,-233.2001 453,-236.8 449,-233.2 453,-233.2 453,-233.2 453,-233.2 449,-233.2 453,-229.6 445,-233.2001 445,-233.2001"/>
<ellipse fill="none" stroke="#000000" cx="441.8" cy="-233.2001" rx="3.2" ry="3.2"/>
</g>
<!-- completed_daily_challenges&#45;&gt;daily_challenges -->
<g id="edge2" class="edge">
<title>completed_daily_challenges:w&#45;&gt;daily_challenges:e</title>
<path fill="none" stroke="#000000" d="M438.7572,-235.3899C422.142,-240.9545 415.5233,-255.2 392.5,-255.2"/>
<polygon fill="#000000" stroke="#000000" points="445.0929,-234.4158 453.5471,-236.7582 449.0465,-233.8079 453,-233.2 453,-233.2 453,-233.2 449.0465,-233.8079 452.4529,-229.6418 445.0929,-234.4158 445.0929,-234.4158"/>
<ellipse fill="none" stroke="#000000" cx="441.9301" cy="-234.9021" rx="3.2" ry="3.2"/>
</g>
<!-- completed_daily_challenges&#45;&gt;daily_challenges -->
<g id="edge3" class="edge">
<title>completed_daily_challenges:w&#45;&gt;daily_challenges:e</title>
<path fill="none" stroke="#000000" d="M438.7572,-231.0101C422.142,-225.4455 415.5233,-211.2 392.5,-211.2"/>
<polygon fill="#000000" stroke="#000000" points="445.0929,-231.9842 452.4529,-236.7582 449.0465,-232.5921 453,-233.2 453,-233.2 453,-233.2 449.0465,-232.5921 453.5471,-229.6418 445.0929,-231.9842 445.0929,-231.9842"/>
<ellipse fill="none" stroke="#000000" cx="441.9301" cy="-231.4979" rx="3.2" ry="3.2"/>
</g>
<!-- challenges -->
<g id="node5" class="node">
<title>challenges</title>
<g id="a_node5"><a xlink:href="../../tables/challenges.html" xlink:title="challenges" target="_top">
<polygon fill="#ffffff" stroke="transparent" points="8,-38.2 8,-172.2 214,-172.2 214,-38.2 8,-38.2"/>
<polygon fill="#f5f5f5" stroke="transparent" points="10,-147.2 10,-170.2 212,-170.2 212,-147.2 10,-147.2"/>
<polygon fill="none" stroke="#000000" points="10,-147.2 10,-170.2 212,-170.2 212,-147.2 10,-147.2"/>
<text text-anchor="start" x="15" y="-156.3" font-family="Helvetica,sans-Serif" font-weight="bold" font-size="11.00" fill="#000000">challenges</text>
<text text-anchor="start" x="177.0437" y="-155.3" font-family="Helvetica,sans-Serif" font-size="11.00" fill="#000000">[table]</text>
<polygon fill="none" stroke="#000000" points="10,-125.2 10,-147.2 95,-147.2 95,-125.2 10,-125.2"/>
<image xlink:href="../../images/primaryKeys.png" width="11px" height="12px" preserveAspectRatio="xMinYMin meet" x="15" y="-142.2"/>
<text text-anchor="start" x="30" y="-132.3" font-family="Helvetica,sans-Serif" font-size="11.00" fill="#000000">id</text>
<polygon fill="none" stroke="#000000" points="95,-125.2 95,-147.2 212,-147.2 212,-125.2 95,-125.2"/>
<text text-anchor="start" x="98" y="-132.9" font-family="Helvetica,sans-Serif" font-size="11.00" fill="#000000">int[10]</text>
<polygon fill="none" stroke="#000000" points="10,-103.2 10,-125.2 95,-125.2 95,-103.2 10,-103.2"/>
<text text-anchor="start" x="30" y="-110.3" font-family="Helvetica,sans-Serif" font-size="11.00" fill="#000000">name</text>
<polygon fill="none" stroke="#000000" points="95,-103.2 95,-125.2 212,-125.2 212,-103.2 95,-103.2"/>
<text text-anchor="start" x="98" y="-110.9" font-family="Helvetica,sans-Serif" font-size="11.00" fill="#000000">varchar[45]</text>
<polygon fill="none" stroke="#000000" points="10,-81.2 10,-103.2 95,-103.2 95,-81.2 10,-81.2"/>
<text text-anchor="start" x="30" y="-88.3" font-family="Helvetica,sans-Serif" font-size="11.00" fill="#000000">description</text>
<polygon fill="none" stroke="#000000" points="95,-81.2 95,-103.2 212,-103.2 212,-81.2 95,-81.2"/>
<text text-anchor="start" x="97.5644" y="-88.9" font-family="Helvetica,sans-Serif" font-size="11.00" fill="#000000">mediumtext[16777215]</text>
<polygon fill="none" stroke="#000000" points="10,-59.2 10,-81.2 95,-81.2 95,-59.2 10,-59.2"/>
<text text-anchor="start" x="30" y="-66.3" font-family="Helvetica,sans-Serif" font-size="11.00" fill="#000000">points</text>
<polygon fill="none" stroke="#000000" points="95,-59.2 95,-81.2 212,-81.2 212,-59.2 95,-59.2"/>
<text text-anchor="start" x="98" y="-66.9" font-family="Helvetica,sans-Serif" font-size="11.00" fill="#000000">int[10]</text>
<polygon fill="#ffffff" stroke="transparent" points="10,-40.2 10,-59.2 44,-59.2 44,-40.2 10,-40.2"/>
<polygon fill="none" stroke="#000000" points="10,-40.2 10,-59.2 44,-59.2 44,-40.2 10,-40.2"/>
<text text-anchor="start" x="13" y="-46.3" font-family="Helvetica,sans-Serif" font-size="11.00" fill="#000000">&lt; 0</text>
<polygon fill="#ffffff" stroke="transparent" points="44,-40.2 44,-59.2 95,-59.2 95,-40.2 44,-40.2"/>
<polygon fill="none" stroke="#000000" points="44,-40.2 44,-59.2 95,-59.2 95,-40.2 44,-40.2"/>
<text text-anchor="start" x="59.6105" y="-46.3" font-family="Helvetica,sans-Serif" font-size="11.00" fill="#000000">0 rows</text>
<polygon fill="#ffffff" stroke="transparent" points="95,-40.2 95,-59.2 212,-59.2 212,-40.2 95,-40.2"/>
<polygon fill="none" stroke="#000000" points="95,-40.2 95,-59.2 212,-59.2 212,-40.2 95,-40.2"/>
<text text-anchor="start" x="193.4053" y="-46.3" font-family="Helvetica,sans-Serif" font-size="11.00" fill="#000000">2 &gt;</text>
<polygon fill="none" stroke="#000000" stroke-width="2" points="9,-39.2 9,-171.2 213,-171.2 213,-39.2 9,-39.2"/>
</a>
</g>
</g>
<!-- daily_challenges&#45;&gt;challenges -->
<g id="edge6" class="edge">
<title>daily_challenges:w&#45;&gt;challenges:e</title>
<path fill="none" stroke="#000000" d="M254.4989,-229.5159C227.4735,-211.7977 256.0446,-136.2 212,-136.2"/>
<polygon fill="#000000" stroke="#000000" points="260.7633,-231.1642 267.5839,-236.6815 264.6317,-232.1821 268.5,-233.2 268.5,-233.2 268.5,-233.2 264.6317,-232.1821 269.4161,-229.7185 260.7633,-231.1642 260.7633,-231.1642"/>
<ellipse fill="none" stroke="#000000" cx="257.6687" cy="-230.3499" rx="3.2" ry="3.2"/>
</g>
<!-- classes -->
<g id="node6" class="node">
<title>classes</title>
<g id="a_node6"><a xlink:href="../../tables/classes.html" xlink:title="classes" target="_top">
<polygon fill="#ffffff" stroke="transparent" points="71.5,-210.7 71.5,-271.7 150.5,-271.7 150.5,-210.7 71.5,-210.7"/>
<polygon fill="#f5f5f5" stroke="transparent" points="72,-248.2 72,-271.2 151,-271.2 151,-248.2 72,-248.2"/>
<polygon fill="none" stroke="#000000" points="72,-248.2 72,-271.2 151,-271.2 151,-248.2 72,-248.2"/>
<text text-anchor="start" x="76.6647" y="-257.3" font-family="Helvetica,sans-Serif" font-weight="bold" font-size="11.00" fill="#000000">classes</text>
<text text-anchor="start" x="116.5219" y="-256.3" font-family="Helvetica,sans-Serif" font-size="11.00" fill="#000000">[table]</text>
<polygon fill="none" stroke="#000000" points="72,-229.2 72,-248.2 151,-248.2 151,-229.2 72,-229.2"/>
<text text-anchor="start" x="75" y="-235.3" font-family="Helvetica,sans-Serif" font-size="11.00" fill="#000000">...</text>
<polygon fill="#ffffff" stroke="transparent" points="72,-210.2 72,-229.2 88,-229.2 88,-210.2 72,-210.2"/>
<polygon fill="none" stroke="#000000" points="72,-210.2 72,-229.2 88,-229.2 88,-210.2 72,-210.2"/>
<text text-anchor="start" x="75" y="-216.3" font-family="Helvetica,sans-Serif" font-size="11.00" fill="#000000"> &#160;</text>
<polygon fill="#ffffff" stroke="transparent" points="88,-210.2 88,-229.2 128,-229.2 128,-210.2 88,-210.2"/>
<polygon fill="none" stroke="#000000" points="88,-210.2 88,-229.2 128,-229.2 128,-210.2 88,-210.2"/>
<text text-anchor="start" x="92.6105" y="-216.3" font-family="Helvetica,sans-Serif" font-size="11.00" fill="#000000">0 rows</text>
<polygon fill="#ffffff" stroke="transparent" points="128,-210.2 128,-229.2 151,-229.2 151,-210.2 128,-210.2"/>
<polygon fill="none" stroke="#000000" points="128,-210.2 128,-229.2 151,-229.2 151,-210.2 128,-210.2"/>
<text text-anchor="start" x="132.4053" y="-216.3" font-family="Helvetica,sans-Serif" font-size="11.00" fill="#000000">3 &gt;</text>
</a>
</g>
</g>
<!-- daily_challenges&#45;&gt;classes -->
<g id="edge7" class="edge">
<title>daily_challenges:w&#45;&gt;classes:e</title>
<path fill="none" stroke="#000000" d="M253.8658,-254.7276C212.945,-251.982 198.51,-238.2 151,-238.2"/>
<polygon fill="#000000" stroke="#000000" points="260.5042,-254.9418 268.3838,-258.7981 264.5021,-255.0709 268.5,-255.2 268.5,-255.2 268.5,-255.2 264.5021,-255.0709 268.6162,-251.6019 260.5042,-254.9418 260.5042,-254.9418"/>
<ellipse fill="none" stroke="#000000" cx="257.3058" cy="-254.8386" rx="3.2" ry="3.2"/>
</g>
<!-- completed_normal_challenges -->
<g id="node3" class="node">
<title>completed_normal_challenges</title>
<g id="a_node3"><a xlink:href="../../tables/completed_normal_challenges.html" xlink:title="completed_normal_challenges" target="_top">
<polygon fill="#ffffff" stroke="transparent" points="447,-86.7 447,-147.7 639,-147.7 639,-86.7 447,-86.7"/>
<polygon fill="#f5f5f5" stroke="transparent" points="447,-124.2 447,-147.2 639,-147.2 639,-124.2 447,-124.2"/>
<polygon fill="none" stroke="#000000" points="447,-124.2 447,-147.2 639,-147.2 639,-124.2 447,-124.2"/>
<text text-anchor="start" x="451.9277" y="-133.3" font-family="Helvetica,sans-Serif" font-weight="bold" font-size="11.00" fill="#000000">completed_normal_challenges</text>
<text text-anchor="start" x="604.5219" y="-132.3" font-family="Helvetica,sans-Serif" font-size="11.00" fill="#000000">[table]</text>
<polygon fill="none" stroke="#000000" points="447,-105.2 447,-124.2 639,-124.2 639,-105.2 447,-105.2"/>
<text text-anchor="start" x="450" y="-111.3" font-family="Helvetica,sans-Serif" font-size="11.00" fill="#000000">...</text>
<polygon fill="#ffffff" stroke="transparent" points="447,-86.2 447,-105.2 528,-105.2 528,-86.2 447,-86.2"/>
<polygon fill="none" stroke="#000000" points="447,-86.2 447,-105.2 528,-105.2 528,-86.2 447,-86.2"/>
<text text-anchor="start" x="450" y="-92.3" font-family="Helvetica,sans-Serif" font-size="11.00" fill="#000000">&lt; 3</text>
<polygon fill="#ffffff" stroke="transparent" points="528,-86.2 528,-105.2 596,-105.2 596,-86.2 528,-86.2"/>
<polygon fill="none" stroke="#000000" points="528,-86.2 528,-105.2 596,-105.2 596,-86.2 528,-86.2"/>
<text text-anchor="start" x="560.6105" y="-92.3" font-family="Helvetica,sans-Serif" font-size="11.00" fill="#000000">0 rows</text>
<polygon fill="#ffffff" stroke="transparent" points="596,-86.2 596,-105.2 639,-105.2 639,-86.2 596,-86.2"/>
<polygon fill="none" stroke="#000000" points="596,-86.2 596,-105.2 639,-105.2 639,-86.2 596,-86.2"/>
<text text-anchor="start" x="629.8862" y="-92.3" font-family="Helvetica,sans-Serif" font-size="11.00" fill="#000000"> &#160;</text>
</a>
</g>
</g>
<!-- normal_challenges -->
<g id="node4" class="node">
<title>normal_challenges</title>
<g id="a_node4"><a xlink:href="../../tables/normal_challenges.html" xlink:title="normal_challenges" target="_top">
<polygon fill="#ffffff" stroke="transparent" points="263,-54.7 263,-159.7 398,-159.7 398,-54.7 263,-54.7"/>
<polygon fill="#f5f5f5" stroke="transparent" points="263.5,-136.2 263.5,-159.2 398.5,-159.2 398.5,-136.2 263.5,-136.2"/>
<polygon fill="none" stroke="#000000" points="263.5,-136.2 263.5,-159.2 398.5,-159.2 398.5,-136.2 263.5,-136.2"/>
<text text-anchor="start" x="268.3522" y="-145.3" font-family="Helvetica,sans-Serif" font-weight="bold" font-size="11.00" fill="#000000">normal_challenges</text>
<text text-anchor="start" x="364.0219" y="-144.3" font-family="Helvetica,sans-Serif" font-size="11.00" fill="#000000">[table]</text>
<polygon fill="none" stroke="#000000" points="263.5,-114.2 263.5,-136.2 398.5,-136.2 398.5,-114.2 263.5,-114.2"/>
<image xlink:href="../../images/primaryKeys.png" width="11px" height="12px" preserveAspectRatio="xMinYMin meet" x="268.5" y="-131.2"/>
<text text-anchor="start" x="286.5" y="-121.3" font-family="Helvetica,sans-Serif" font-size="11.00" fill="#000000">classes_id</text>
<polygon fill="none" stroke="#000000" points="263.5,-92.2 263.5,-114.2 398.5,-114.2 398.5,-92.2 263.5,-92.2"/>
<image xlink:href="../../images/primaryKeys.png" width="11px" height="12px" preserveAspectRatio="xMinYMin meet" x="268.5" y="-109.2"/>
<text text-anchor="start" x="286.5" y="-99.3" font-family="Helvetica,sans-Serif" font-size="11.00" fill="#000000">challenges_id</text>
<polygon fill="none" stroke="#000000" points="263.5,-73.2 263.5,-92.2 398.5,-92.2 398.5,-73.2 263.5,-73.2"/>
<text text-anchor="start" x="266.5" y="-79.3" font-family="Helvetica,sans-Serif" font-size="11.00" fill="#000000">...</text>
<polygon fill="#ffffff" stroke="transparent" points="263.5,-54.2 263.5,-73.2 311.5,-73.2 311.5,-54.2 263.5,-54.2"/>
<polygon fill="none" stroke="#000000" points="263.5,-54.2 263.5,-73.2 311.5,-73.2 311.5,-54.2 263.5,-54.2"/>
<text text-anchor="start" x="266.5" y="-60.3" font-family="Helvetica,sans-Serif" font-size="11.00" fill="#000000">&lt; 2</text>
<polygon fill="#ffffff" stroke="transparent" points="311.5,-54.2 311.5,-73.2 363.5,-73.2 363.5,-54.2 311.5,-54.2"/>
<polygon fill="none" stroke="#000000" points="311.5,-54.2 311.5,-73.2 363.5,-73.2 363.5,-54.2 311.5,-54.2"/>
<text text-anchor="start" x="328.1105" y="-60.3" font-family="Helvetica,sans-Serif" font-size="11.00" fill="#000000">0 rows</text>
<polygon fill="#ffffff" stroke="transparent" points="363.5,-54.2 363.5,-73.2 398.5,-73.2 398.5,-54.2 363.5,-54.2"/>
<polygon fill="none" stroke="#000000" points="363.5,-54.2 363.5,-73.2 398.5,-73.2 398.5,-54.2 363.5,-54.2"/>
<text text-anchor="start" x="379.9053" y="-60.3" font-family="Helvetica,sans-Serif" font-size="11.00" fill="#000000">2 &gt;</text>
</a>
</g>
</g>
<!-- completed_normal_challenges&#45;&gt;normal_challenges -->
<g id="edge4" class="edge">
<title>completed_normal_challenges:w&#45;&gt;normal_challenges:e</title>
<path fill="none" stroke="#000000" d="M432.4888,-112.2839C421.3593,-109.1324 414.7319,-103.2 398.5,-103.2"/>
<polygon fill="#000000" stroke="#000000" points="439.0688,-113.1527 446.5287,-117.769 443.0344,-113.6764 447,-114.2 447,-114.2 447,-114.2 443.0344,-113.6764 447.4713,-110.631 439.0688,-113.1527 439.0688,-113.1527"/>
<ellipse fill="none" stroke="#000000" cx="435.8964" cy="-112.7338" rx="3.2" ry="3.2"/>
</g>
<!-- completed_normal_challenges&#45;&gt;normal_challenges -->
<g id="edge5" class="edge">
<title>completed_normal_challenges:w&#45;&gt;normal_challenges:e</title>
<path fill="none" stroke="#000000" d="M432.4888,-116.1161C421.3593,-119.2676 414.7319,-125.2 398.5,-125.2"/>
<polygon fill="#000000" stroke="#000000" points="439.0688,-115.2473 447.4713,-117.769 443.0344,-114.7236 447,-114.2 447,-114.2 447,-114.2 443.0344,-114.7236 446.5287,-110.631 439.0688,-115.2473 439.0688,-115.2473"/>
<ellipse fill="none" stroke="#000000" cx="435.8964" cy="-115.6662" rx="3.2" ry="3.2"/>
</g>
<!-- normal_challenges&#45;&gt;challenges -->
<g id="edge8" class="edge">
<title>normal_challenges:w&#45;&gt;challenges:e</title>
<path fill="none" stroke="#000000" d="M249.3452,-107.2464C236.1325,-116.0584 233.2381,-136.2 212,-136.2"/>
<polygon fill="#000000" stroke="#000000" points="255.8081,-105.3989 264.4895,-106.6613 259.6541,-104.2995 263.5,-103.2 263.5,-103.2 263.5,-103.2 259.6541,-104.2995 262.5105,-99.7387 255.8081,-105.3989 255.8081,-105.3989"/>
<ellipse fill="none" stroke="#000000" cx="252.7314" cy="-106.2785" rx="3.2" ry="3.2"/>
</g>
<!-- normal_challenges&#45;&gt;classes -->
<g id="edge9" class="edge">
<title>normal_challenges:w&#45;&gt;classes:e</title>
<path fill="none" stroke="#000000" d="M249.3675,-128.8704C235.2577,-138.4659 239.6894,-164.8249 222,-183.2 194.3169,-211.9563 190.916,-238.2 151,-238.2"/>
<polygon fill="#000000" stroke="#000000" points="255.7569,-127.211 264.405,-128.6844 259.6284,-126.2055 263.5,-125.2 263.5,-125.2 263.5,-125.2 259.6284,-126.2055 262.595,-121.7156 255.7569,-127.211 255.7569,-127.211"/>
<ellipse fill="none" stroke="#000000" cx="252.6596" cy="-128.0155" rx="3.2" ry="3.2"/>
</g>
</g>
</svg>
