<?xml version="1.0" encoding="UTF-8" standalone="no"?>
<!DOCTYPE svg PUBLIC "-//W3C//DTD SVG 1.1//EN"
 "http://www.w3.org/Graphics/SVG/1.1/DTD/svg11.dtd">
<!-- Generated by graphviz version 2.40.1 (20161225.0304)
 -->
<!-- Title: twoDegreesRelationshipsDiagram Pages: 1 -->
<svg width="655pt" height="395pt"
 viewBox="0.00 0.00 655.00 394.70" xmlns="http://www.w3.org/2000/svg" xmlns:xlink="http://www.w3.org/1999/xlink">
<g id="graph0" class="graph" transform="scale(1 1) rotate(0) translate(4 390.7)">
<title>twoDegreesRelationshipsDiagram</title>
<polygon fill="#ffffff" stroke="transparent" points="-4,4 -4,-390.7 651,-390.7 651,4 -4,4"/>
<text text-anchor="middle" x="72.4936" y="-7.3" font-family="Helvetica,sans-Serif" font-size="11.00" fill="#000000">Generated by SchemaSpy</text>
<!-- completed_daily_challenges -->
<g id="node1" class="node">
<title>completed_daily_challenges</title>
<g id="a_node1"><a xlink:href="../../tables/completed_daily_challenges.html" xlink:title="completed_daily_challenges" target="_top">
<polygon fill="#ffffff" stroke="transparent" points="452.5,-288.2 452.5,-349.2 633.5,-349.2 633.5,-288.2 452.5,-288.2"/>
<polygon fill="#f5f5f5" stroke="transparent" points="453,-325.7 453,-348.7 634,-348.7 634,-325.7 453,-325.7"/>
<polygon fill="none" stroke="#000000" points="453,-325.7 453,-348.7 634,-348.7 634,-325.7 453,-325.7"/>
<text text-anchor="start" x="457.9266" y="-334.8" font-family="Helvetica,sans-Serif" font-weight="bold" font-size="11.00" fill="#000000">completed_daily_challenges</text>
<text text-anchor="start" x="599.5219" y="-333.8" font-family="Helvetica,sans-Serif" font-size="11.00" fill="#000000">[table]</text>
<polygon fill="none" stroke="#000000" points="453,-306.7 453,-325.7 634,-325.7 634,-306.7 453,-306.7"/>
<text text-anchor="start" x="456" y="-312.8" font-family="Helvetica,sans-Serif" font-size="11.00" fill="#000000">...</text>
<polygon fill="#ffffff" stroke="transparent" points="453,-287.7 453,-306.7 529,-306.7 529,-287.7 453,-287.7"/>
<polygon fill="none" stroke="#000000" points="453,-287.7 453,-306.7 529,-306.7 529,-287.7 453,-287.7"/>
<text text-anchor="start" x="456" y="-293.8" font-family="Helvetica,sans-Serif" font-size="11.00" fill="#000000">&lt; 4</text>
<polygon fill="#ffffff" stroke="transparent" points="529,-287.7 529,-306.7 594,-306.7 594,-287.7 529,-287.7"/>
<polygon fill="none" stroke="#000000" points="529,-287.7 529,-306.7 594,-306.7 594,-287.7 529,-287.7"/>
<text text-anchor="start" x="558.6105" y="-293.8" font-family="Helvetica,sans-Serif" font-size="11.00" fill="#000000">0 rows</text>
<polygon fill="#ffffff" stroke="transparent" points="594,-287.7 594,-306.7 634,-306.7 634,-287.7 594,-287.7"/>
<polygon fill="none" stroke="#000000" points="594,-287.7 594,-306.7 634,-306.7 634,-287.7 594,-287.7"/>
<text text-anchor="start" x="624.8862" y="-293.8" font-family="Helvetica,sans-Serif" font-size="11.00" fill="#000000"> &#160;</text>
</a>
</g>
</g>
<!-- daily_challenges -->
<g id="node2" class="node">
<title>daily_challenges</title>
<g id="a_node2"><a xlink:href="../../tables/daily_challenges.html" xlink:title="daily_challenges" target="_top">
<polygon fill="#ffffff" stroke="transparent" points="268.5,-274.7 268.5,-382.7 392.5,-382.7 392.5,-274.7 268.5,-274.7"/>
<polygon fill="#f5f5f5" stroke="transparent" points="268.5,-359.7 268.5,-382.7 392.5,-382.7 392.5,-359.7 268.5,-359.7"/>
<polygon fill="none" stroke="#000000" points="268.5,-359.7 268.5,-382.7 392.5,-382.7 392.5,-359.7 268.5,-359.7"/>
<text text-anchor="start" x="273.3512" y="-368.8" font-family="Helvetica,sans-Serif" font-weight="bold" font-size="11.00" fill="#000000">daily_challenges</text>
<text text-anchor="start" x="358.0219" y="-367.8" font-family="Helvetica,sans-Serif" font-size="11.00" fill="#000000">[table]</text>
<polygon fill="none" stroke="#000000" points="268.5,-337.7 268.5,-359.7 392.5,-359.7 392.5,-337.7 268.5,-337.7"/>
<image xlink:href="../../images/primaryKeys.png" width="11px" height="12px" preserveAspectRatio="xMinYMin meet" x="273.5" y="-354.7"/>
<text text-anchor="start" x="292.5" y="-344.8" font-family="Helvetica,sans-Serif" font-size="11.00" fill="#000000">classes_id</text>
<polygon fill="none" stroke="#000000" points="268.5,-315.7 268.5,-337.7 392.5,-337.7 392.5,-315.7 268.5,-315.7"/>
<image xlink:href="../../images/primaryKeys.png" width="11px" height="12px" preserveAspectRatio="xMinYMin meet" x="273.5" y="-332.7"/>
<text text-anchor="start" x="292.5" y="-322.8" font-family="Helvetica,sans-Serif" font-size="11.00" fill="#000000">challenges_id</text>
<polygon fill="none" stroke="#000000" points="268.5,-293.7 268.5,-315.7 392.5,-315.7 392.5,-293.7 268.5,-293.7"/>
<image xlink:href="../../images/primaryKeys.png" width="11px" height="12px" preserveAspectRatio="xMinYMin meet" x="273.5" y="-310.7"/>
<text text-anchor="start" x="292.5" y="-300.8" font-family="Helvetica,sans-Serif" font-size="11.00" fill="#000000">date</text>
<polygon fill="#ffffff" stroke="transparent" points="268.5,-274.7 268.5,-293.7 311.5,-293.7 311.5,-274.7 268.5,-274.7"/>
<polygon fill="none" stroke="#000000" points="268.5,-274.7 268.5,-293.7 311.5,-293.7 311.5,-274.7 268.5,-274.7"/>
<text text-anchor="start" x="271.5" y="-280.8" font-family="Helvetica,sans-Serif" font-size="11.00" fill="#000000">&lt; 2</text>
<polygon fill="#ffffff" stroke="transparent" points="311.5,-274.7 311.5,-293.7 360.5,-293.7 360.5,-274.7 311.5,-274.7"/>
<polygon fill="none" stroke="#000000" points="311.5,-274.7 311.5,-293.7 360.5,-293.7 360.5,-274.7 311.5,-274.7"/>
<text text-anchor="start" x="325.1105" y="-280.8" font-family="Helvetica,sans-Serif" font-size="11.00" fill="#000000">0 rows</text>
<polygon fill="#ffffff" stroke="transparent" points="360.5,-274.7 360.5,-293.7 392.5,-293.7 392.5,-274.7 360.5,-274.7"/>
<polygon fill="none" stroke="#000000" points="360.5,-274.7 360.5,-293.7 392.5,-293.7 392.5,-274.7 360.5,-274.7"/>
<text text-anchor="start" x="373.9053" y="-280.8" font-family="Helvetica,sans-Serif" font-size="11.00" fill="#000000">3 &gt;</text>
</a>
</g>
</g>
<!-- completed_daily_challenges&#45;&gt;daily_challenges -->
<g id="edge1" class="edge">
<title>completed_daily_challenges:w&#45;&gt;daily_challenges:e</title>
<path fill="none" stroke="#000000" d="M438.6457,-316.8772C422.4109,-319.7149 414.2784,-326.7 392.5,-326.7"/>
<polygon fill="#000000" stroke="#000000" points="445.0268,-316.3539 453.2943,-319.288 449.0134,-316.027 453,-315.7 453,-315.7 453,-315.7 449.0134,-316.027 452.7057,-312.112 445.0268,-316.3539 445.0268,-316.3539"/>
<ellipse fill="none" stroke="#000000" cx="441.8375" cy="-316.6155" rx="3.2" ry="3.2"/>
</g>
<!-- completed_daily_challenges&#45;&gt;daily_challenges -->
<g id="edge2" class="edge">
<title>completed_daily_challenges:w&#45;&gt;daily_challenges:e</title>
<path fill="none" stroke="#000000" d="M438.6678,-318.7454C421.5519,-326.9148 417.3859,-348.7 392.5,-348.7"/>
<polygon fill="#000000" stroke="#000000" points="445.1747,-317.3628 453.7483,-319.2214 449.0874,-316.5314 453,-315.7 453,-315.7 453,-315.7 449.0874,-316.5314 452.2517,-312.1786 445.1747,-317.3628 445.1747,-317.3628"/>
<ellipse fill="none" stroke="#000000" cx="442.0446" cy="-318.0279" rx="3.2" ry="3.2"/>
</g>
<!-- completed_daily_challenges&#45;&gt;daily_challenges -->
<g id="edge3" class="edge">
<title>completed_daily_challenges:w&#45;&gt;daily_challenges:e</title>
<path fill="none" stroke="#000000" d="M438.6457,-314.5228C422.4109,-311.6851 414.2784,-304.7 392.5,-304.7"/>
<polygon fill="#000000" stroke="#000000" points="445.0268,-315.0461 452.7057,-319.288 449.0134,-315.373 453,-315.7 453,-315.7 453,-315.7 449.0134,-315.373 453.2943,-312.112 445.0268,-315.0461 445.0268,-315.0461"/>
<ellipse fill="none" stroke="#000000" cx="441.8375" cy="-314.7845" rx="3.2" ry="3.2"/>
</g>
<!-- gymnasts -->
<g id="node3" class="node">
<title>gymnasts</title>
<g id="a_node3"><a xlink:href="../../tables/gymnasts.html" xlink:title="gymnasts" target="_top">
<polygon fill="#ffffff" stroke="transparent" points="285.5,-192.2 285.5,-253.2 375.5,-253.2 375.5,-192.2 285.5,-192.2"/>
<polygon fill="#f5f5f5" stroke="transparent" points="285.5,-229.7 285.5,-252.7 375.5,-252.7 375.5,-229.7 285.5,-229.7"/>
<polygon fill="none" stroke="#000000" points="285.5,-229.7 285.5,-252.7 375.5,-252.7 375.5,-229.7 285.5,-229.7"/>
<text text-anchor="start" x="290.4683" y="-238.8" font-family="Helvetica,sans-Serif" font-weight="bold" font-size="11.00" fill="#000000">gymnasts</text>
<text text-anchor="start" x="341.0219" y="-237.8" font-family="Helvetica,sans-Serif" font-size="11.00" fill="#000000">[table]</text>
<polygon fill="none" stroke="#000000" points="285.5,-210.7 285.5,-229.7 375.5,-229.7 375.5,-210.7 285.5,-210.7"/>
<text text-anchor="start" x="288.5" y="-216.8" font-family="Helvetica,sans-Serif" font-size="11.00" fill="#000000">...</text>
<polygon fill="#ffffff" stroke="transparent" points="285.5,-191.7 285.5,-210.7 311.5,-210.7 311.5,-191.7 285.5,-191.7"/>
<polygon fill="none" stroke="#000000" points="285.5,-191.7 285.5,-210.7 311.5,-210.7 311.5,-191.7 285.5,-191.7"/>
<text text-anchor="start" x="288.5" y="-197.8" font-family="Helvetica,sans-Serif" font-size="11.00" fill="#000000">&lt; 2</text>
<polygon fill="#ffffff" stroke="transparent" points="311.5,-191.7 311.5,-210.7 351.5,-210.7 351.5,-191.7 311.5,-191.7"/>
<polygon fill="none" stroke="#000000" points="311.5,-191.7 311.5,-210.7 351.5,-210.7 351.5,-191.7 311.5,-191.7"/>
<text text-anchor="start" x="316.1105" y="-197.8" font-family="Helvetica,sans-Serif" font-size="11.00" fill="#000000">0 rows</text>
<polygon fill="#ffffff" stroke="transparent" points="351.5,-191.7 351.5,-210.7 375.5,-210.7 375.5,-191.7 351.5,-191.7"/>
<polygon fill="none" stroke="#000000" points="351.5,-191.7 351.5,-210.7 375.5,-210.7 375.5,-191.7 351.5,-191.7"/>
<text text-anchor="start" x="356.9053" y="-197.8" font-family="Helvetica,sans-Serif" font-size="11.00" fill="#000000">4 &gt;</text>
</a>
</g>
</g>
<!-- completed_daily_challenges&#45;&gt;gymnasts -->
<g id="edge4" class="edge">
<title>completed_daily_challenges:w&#45;&gt;gymnasts:e</title>
<path fill="none" stroke="#000000" d="M438.8025,-312.9304C403.8022,-297.1902 424.7657,-219.7 375.5,-219.7"/>
<polygon fill="#000000" stroke="#000000" points="445.148,-314.1682 452.3107,-319.2334 449.074,-314.9341 453,-315.7 453,-315.7 453,-315.7 449.074,-314.9341 453.6893,-312.1666 445.148,-314.1682 445.148,-314.1682"/>
<ellipse fill="none" stroke="#000000" cx="442.0072" cy="-313.5555" rx="3.2" ry="3.2"/>
</g>
<!-- challenges -->
<g id="node6" class="node">
<title>challenges</title>
<g id="a_node6"><a xlink:href="../../tables/challenges.html" xlink:title="challenges" target="_top">
<polygon fill="#ffffff" stroke="transparent" points="63.5,-59.2 63.5,-120.2 158.5,-120.2 158.5,-59.2 63.5,-59.2"/>
<polygon fill="#f5f5f5" stroke="transparent" points="64,-96.7 64,-119.7 159,-119.7 159,-96.7 64,-96.7"/>
<polygon fill="none" stroke="#000000" points="64,-96.7 64,-119.7 159,-119.7 159,-96.7 64,-96.7"/>
<text text-anchor="start" x="68.7144" y="-105.8" font-family="Helvetica,sans-Serif" font-weight="bold" font-size="11.00" fill="#000000">challenges</text>
<text text-anchor="start" x="124.5219" y="-104.8" font-family="Helvetica,sans-Serif" font-size="11.00" fill="#000000">[table]</text>
<polygon fill="none" stroke="#000000" points="64,-77.7 64,-96.7 159,-96.7 159,-77.7 64,-77.7"/>
<text text-anchor="start" x="67" y="-83.8" font-family="Helvetica,sans-Serif" font-size="11.00" fill="#000000">...</text>
<polygon fill="#ffffff" stroke="transparent" points="64,-58.7 64,-77.7 88,-77.7 88,-58.7 64,-58.7"/>
<polygon fill="none" stroke="#000000" points="64,-58.7 64,-77.7 88,-77.7 88,-58.7 64,-58.7"/>
<text text-anchor="start" x="67" y="-64.8" font-family="Helvetica,sans-Serif" font-size="11.00" fill="#000000"> &#160;</text>
<polygon fill="#ffffff" stroke="transparent" points="88,-58.7 88,-77.7 132,-77.7 132,-58.7 88,-58.7"/>
<polygon fill="none" stroke="#000000" points="88,-58.7 88,-77.7 132,-77.7 132,-58.7 88,-58.7"/>
<text text-anchor="start" x="96.6105" y="-64.8" font-family="Helvetica,sans-Serif" font-size="11.00" fill="#000000">0 rows</text>
<polygon fill="#ffffff" stroke="transparent" points="132,-58.7 132,-77.7 159,-77.7 159,-58.7 132,-58.7"/>
<polygon fill="none" stroke="#000000" points="132,-58.7 132,-77.7 159,-77.7 159,-58.7 132,-58.7"/>
<text text-anchor="start" x="140.4053" y="-64.8" font-family="Helvetica,sans-Serif" font-size="11.00" fill="#000000">2 &gt;</text>
</a>
</g>
</g>
<!-- daily_challenges&#45;&gt;challenges -->
<g id="edge8" class="edge">
<title>daily_challenges:w&#45;&gt;challenges:e</title>
<path fill="none" stroke="#000000" d="M253.8416,-325.3222C190.3906,-311.7491 268.6326,-200.999 222,-131.7 202.7898,-103.1524 193.4093,-86.7 159,-86.7"/>
<polygon fill="#000000" stroke="#000000" points="260.5351,-325.9513 268.1631,-330.2842 264.5176,-326.3256 268.5,-326.7 268.5,-326.7 268.5,-326.7 264.5176,-326.3256 268.8369,-323.1158 260.5351,-325.9513 260.5351,-325.9513"/>
<ellipse fill="none" stroke="#000000" cx="257.3492" cy="-325.6518" rx="3.2" ry="3.2"/>
</g>
<!-- classes -->
<g id="node7" class="node">
<title>classes</title>
<g id="a_node7"><a xlink:href="../../tables/classes.html" xlink:title="classes" target="_top">
<polygon fill="#ffffff" stroke="transparent" points="8,-141.7 8,-253.7 214,-253.7 214,-141.7 8,-141.7"/>
<polygon fill="#f5f5f5" stroke="transparent" points="10,-228.7 10,-251.7 212,-251.7 212,-228.7 10,-228.7"/>
<polygon fill="none" stroke="#000000" points="10,-228.7 10,-251.7 212,-251.7 212,-228.7 10,-228.7"/>
<text text-anchor="start" x="15" y="-237.8" font-family="Helvetica,sans-Serif" font-weight="bold" font-size="11.00" fill="#000000">classes</text>
<text text-anchor="start" x="177.0437" y="-236.8" font-family="Helvetica,sans-Serif" font-size="11.00" fill="#000000">[table]</text>
<polygon fill="none" stroke="#000000" points="10,-206.7 10,-228.7 95,-228.7 95,-206.7 10,-206.7"/>
<image xlink:href="../../images/primaryKeys.png" width="11px" height="12px" preserveAspectRatio="xMinYMin meet" x="15" y="-223.7"/>
<text text-anchor="start" x="30" y="-213.8" font-family="Helvetica,sans-Serif" font-size="11.00" fill="#000000">id</text>
<polygon fill="none" stroke="#000000" points="95,-206.7 95,-228.7 212,-228.7 212,-206.7 95,-206.7"/>
<text text-anchor="start" x="98" y="-214.4" font-family="Helvetica,sans-Serif" font-size="11.00" fill="#000000">int[10]</text>
<polygon fill="none" stroke="#000000" points="10,-184.7 10,-206.7 95,-206.7 95,-184.7 10,-184.7"/>
<text text-anchor="start" x="30" y="-191.8" font-family="Helvetica,sans-Serif" font-size="11.00" fill="#000000">name</text>
<polygon fill="none" stroke="#000000" points="95,-184.7 95,-206.7 212,-206.7 212,-184.7 95,-184.7"/>
<text text-anchor="start" x="98" y="-192.4" font-family="Helvetica,sans-Serif" font-size="11.00" fill="#000000">varchar[45]</text>
<polygon fill="none" stroke="#000000" points="10,-162.7 10,-184.7 95,-184.7 95,-162.7 10,-162.7"/>
<text text-anchor="start" x="30" y="-169.8" font-family="Helvetica,sans-Serif" font-size="11.00" fill="#000000">description</text>
<polygon fill="none" stroke="#000000" points="95,-162.7 95,-184.7 212,-184.7 212,-162.7 95,-162.7"/>
<text text-anchor="start" x="97.5644" y="-170.4" font-family="Helvetica,sans-Serif" font-size="11.00" fill="#000000">mediumtext[16777215]</text>
<polygon fill="#ffffff" stroke="transparent" points="10,-143.7 10,-162.7 44,-162.7 44,-143.7 10,-143.7"/>
<polygon fill="none" stroke="#000000" points="10,-143.7 10,-162.7 44,-162.7 44,-143.7 10,-143.7"/>
<text text-anchor="start" x="13" y="-149.8" font-family="Helvetica,sans-Serif" font-size="11.00" fill="#000000">&lt; 0</text>
<polygon fill="#ffffff" stroke="transparent" points="44,-143.7 44,-162.7 95,-162.7 95,-143.7 44,-143.7"/>
<polygon fill="none" stroke="#000000" points="44,-143.7 44,-162.7 95,-162.7 95,-143.7 44,-143.7"/>
<text text-anchor="start" x="59.6105" y="-149.8" font-family="Helvetica,sans-Serif" font-size="11.00" fill="#000000">0 rows</text>
<polygon fill="#ffffff" stroke="transparent" points="95,-143.7 95,-162.7 212,-162.7 212,-143.7 95,-143.7"/>
<polygon fill="none" stroke="#000000" points="95,-143.7 95,-162.7 212,-162.7 212,-143.7 95,-143.7"/>
<text text-anchor="start" x="193.4053" y="-149.8" font-family="Helvetica,sans-Serif" font-size="11.00" fill="#000000">3 &gt;</text>
<polygon fill="none" stroke="#000000" stroke-width="2" points="9,-142.7 9,-252.7 213,-252.7 213,-142.7 9,-142.7"/>
</a>
</g>
</g>
<!-- daily_challenges&#45;&gt;classes -->
<g id="edge9" class="edge">
<title>daily_challenges:w&#45;&gt;classes:e</title>
<path fill="none" stroke="#000000" d="M253.9723,-345.4618C217.1019,-325.2889 269.4622,-217.7 212,-217.7"/>
<polygon fill="#000000" stroke="#000000" points="260.6916,-346.9595 267.7168,-352.2138 264.5958,-347.8297 268.5,-348.7 268.5,-348.7 268.5,-348.7 264.5958,-347.8297 269.2832,-345.1862 260.6916,-346.9595 260.6916,-346.9595"/>
<ellipse fill="none" stroke="#000000" cx="257.5683" cy="-346.2633" rx="3.2" ry="3.2"/>
</g>
<!-- completed_normal_challenges -->
<g id="node4" class="node">
<title>completed_normal_challenges</title>
<g id="a_node4"><a xlink:href="../../tables/completed_normal_challenges.html" xlink:title="completed_normal_challenges" target="_top">
<polygon fill="#ffffff" stroke="transparent" points="447,-81.2 447,-142.2 639,-142.2 639,-81.2 447,-81.2"/>
<polygon fill="#f5f5f5" stroke="transparent" points="447,-118.7 447,-141.7 639,-141.7 639,-118.7 447,-118.7"/>
<polygon fill="none" stroke="#000000" points="447,-118.7 447,-141.7 639,-141.7 639,-118.7 447,-118.7"/>
<text text-anchor="start" x="451.9277" y="-127.8" font-family="Helvetica,sans-Serif" font-weight="bold" font-size="11.00" fill="#000000">completed_normal_challenges</text>
<text text-anchor="start" x="604.5219" y="-126.8" font-family="Helvetica,sans-Serif" font-size="11.00" fill="#000000">[table]</text>
<polygon fill="none" stroke="#000000" points="447,-99.7 447,-118.7 639,-118.7 639,-99.7 447,-99.7"/>
<text text-anchor="start" x="450" y="-105.8" font-family="Helvetica,sans-Serif" font-size="11.00" fill="#000000">...</text>
<polygon fill="#ffffff" stroke="transparent" points="447,-80.7 447,-99.7 528,-99.7 528,-80.7 447,-80.7"/>
<polygon fill="none" stroke="#000000" points="447,-80.7 447,-99.7 528,-99.7 528,-80.7 447,-80.7"/>
<text text-anchor="start" x="450" y="-86.8" font-family="Helvetica,sans-Serif" font-size="11.00" fill="#000000">&lt; 3</text>
<polygon fill="#ffffff" stroke="transparent" points="528,-80.7 528,-99.7 596,-99.7 596,-80.7 528,-80.7"/>
<polygon fill="none" stroke="#000000" points="528,-80.7 528,-99.7 596,-99.7 596,-80.7 528,-80.7"/>
<text text-anchor="start" x="560.6105" y="-86.8" font-family="Helvetica,sans-Serif" font-size="11.00" fill="#000000">0 rows</text>
<polygon fill="#ffffff" stroke="transparent" points="596,-80.7 596,-99.7 639,-99.7 639,-80.7 596,-80.7"/>
<polygon fill="none" stroke="#000000" points="596,-80.7 596,-99.7 639,-99.7 639,-80.7 596,-80.7"/>
<text text-anchor="start" x="629.8862" y="-86.8" font-family="Helvetica,sans-Serif" font-size="11.00" fill="#000000"> &#160;</text>
</a>
</g>
</g>
<!-- completed_normal_challenges&#45;&gt;gymnasts -->
<g id="edge5" class="edge">
<title>completed_normal_challenges:w&#45;&gt;gymnasts:e</title>
<path fill="none" stroke="#000000" d="M432.6043,-111.669C396.2786,-129.3211 428.4515,-219.7 375.5,-219.7"/>
<polygon fill="#000000" stroke="#000000" points="439.1649,-110.316 447.7272,-112.2258 443.0824,-109.508 447,-108.7 447,-108.7 447,-108.7 443.0824,-109.508 446.2728,-105.1742 439.1649,-110.316 439.1649,-110.316"/>
<ellipse fill="none" stroke="#000000" cx="436.0309" cy="-110.9623" rx="3.2" ry="3.2"/>
</g>
<!-- normal_challenges -->
<g id="node5" class="node">
<title>normal_challenges</title>
<g id="a_node5"><a xlink:href="../../tables/normal_challenges.html" xlink:title="normal_challenges" target="_top">
<polygon fill="#ffffff" stroke="transparent" points="263,-38.2 263,-143.2 398,-143.2 398,-38.2 263,-38.2"/>
<polygon fill="#f5f5f5" stroke="transparent" points="263.5,-119.7 263.5,-142.7 398.5,-142.7 398.5,-119.7 263.5,-119.7"/>
<polygon fill="none" stroke="#000000" points="263.5,-119.7 263.5,-142.7 398.5,-142.7 398.5,-119.7 263.5,-119.7"/>
<text text-anchor="start" x="268.3522" y="-128.8" font-family="Helvetica,sans-Serif" font-weight="bold" font-size="11.00" fill="#000000">normal_challenges</text>
<text text-anchor="start" x="364.0219" y="-127.8" font-family="Helvetica,sans-Serif" font-size="11.00" fill="#000000">[table]</text>
<polygon fill="none" stroke="#000000" points="263.5,-97.7 263.5,-119.7 398.5,-119.7 398.5,-97.7 263.5,-97.7"/>
<image xlink:href="../../images/primaryKeys.png" width="11px" height="12px" preserveAspectRatio="xMinYMin meet" x="268.5" y="-114.7"/>
<text text-anchor="start" x="286.5" y="-104.8" font-family="Helvetica,sans-Serif" font-size="11.00" fill="#000000">classes_id</text>
<polygon fill="none" stroke="#000000" points="263.5,-75.7 263.5,-97.7 398.5,-97.7 398.5,-75.7 263.5,-75.7"/>
<image xlink:href="../../images/primaryKeys.png" width="11px" height="12px" preserveAspectRatio="xMinYMin meet" x="268.5" y="-92.7"/>
<text text-anchor="start" x="286.5" y="-82.8" font-family="Helvetica,sans-Serif" font-size="11.00" fill="#000000">challenges_id</text>
<polygon fill="none" stroke="#000000" points="263.5,-56.7 263.5,-75.7 398.5,-75.7 398.5,-56.7 263.5,-56.7"/>
<text text-anchor="start" x="266.5" y="-62.8" font-family="Helvetica,sans-Serif" font-size="11.00" fill="#000000">...</text>
<polygon fill="#ffffff" stroke="transparent" points="263.5,-37.7 263.5,-56.7 311.5,-56.7 311.5,-37.7 263.5,-37.7"/>
<polygon fill="none" stroke="#000000" points="263.5,-37.7 263.5,-56.7 311.5,-56.7 311.5,-37.7 263.5,-37.7"/>
<text text-anchor="start" x="266.5" y="-43.8" font-family="Helvetica,sans-Serif" font-size="11.00" fill="#000000">&lt; 2</text>
<polygon fill="#ffffff" stroke="transparent" points="311.5,-37.7 311.5,-56.7 363.5,-56.7 363.5,-37.7 311.5,-37.7"/>
<polygon fill="none" stroke="#000000" points="311.5,-37.7 311.5,-56.7 363.5,-56.7 363.5,-37.7 311.5,-37.7"/>
<text text-anchor="start" x="328.1105" y="-43.8" font-family="Helvetica,sans-Serif" font-size="11.00" fill="#000000">0 rows</text>
<polygon fill="#ffffff" stroke="transparent" points="363.5,-37.7 363.5,-56.7 398.5,-56.7 398.5,-37.7 363.5,-37.7"/>
<polygon fill="none" stroke="#000000" points="363.5,-37.7 363.5,-56.7 398.5,-56.7 398.5,-37.7 363.5,-37.7"/>
<text text-anchor="start" x="379.9053" y="-43.8" font-family="Helvetica,sans-Serif" font-size="11.00" fill="#000000">2 &gt;</text>
</a>
</g>
</g>
<!-- completed_normal_challenges&#45;&gt;normal_challenges -->
<g id="edge6" class="edge">
<title>completed_normal_challenges:w&#45;&gt;normal_challenges:e</title>
<path fill="none" stroke="#000000" d="M432.7648,-105.2625C421.3432,-99.075 416.2522,-86.7 398.5,-86.7"/>
<polygon fill="#000000" stroke="#000000" points="439.2235,-106.8221 446.1549,-112.1994 443.1118,-107.7611 447,-108.7 447,-108.7 447,-108.7 443.1118,-107.7611 447.8451,-105.2006 439.2235,-106.8221 439.2235,-106.8221"/>
<ellipse fill="none" stroke="#000000" cx="436.1129" cy="-106.0709" rx="3.2" ry="3.2"/>
</g>
<!-- completed_normal_challenges&#45;&gt;normal_challenges -->
<g id="edge7" class="edge">
<title>completed_normal_challenges:w&#45;&gt;normal_challenges:e</title>
<path fill="none" stroke="#000000" d="M432.2829,-108.7C421.2886,-108.7 414.1615,-108.7 398.5,-108.7"/>
<polygon fill="#000000" stroke="#000000" points="439,-108.7001 447,-112.3 443,-108.7 447,-108.7 447,-108.7 447,-108.7 443,-108.7 447,-105.1 439,-108.7001 439,-108.7001"/>
<ellipse fill="none" stroke="#000000" cx="435.8" cy="-108.7001" rx="3.2" ry="3.2"/>
</g>
<!-- normal_challenges&#45;&gt;challenges -->
<g id="edge12" class="edge">
<title>normal_challenges:w&#45;&gt;challenges:e</title>
<path fill="none" stroke="#000000" d="M248.9559,-86.7C213.9779,-86.7 200.1832,-86.7 159,-86.7"/>
<polygon fill="#000000" stroke="#000000" points="255.5,-86.7001 263.5,-90.3 259.5,-86.7 263.5,-86.7 263.5,-86.7 263.5,-86.7 259.5,-86.7 263.5,-83.1 255.5,-86.7001 255.5,-86.7001"/>
<ellipse fill="none" stroke="#000000" cx="252.3" cy="-86.7001" rx="3.2" ry="3.2"/>
</g>
<!-- normal_challenges&#45;&gt;classes -->
<g id="edge13" class="edge">
<title>normal_challenges:w&#45;&gt;classes:e</title>
<path fill="none" stroke="#000000" d="M249.5538,-112.3266C220.7891,-131.2398 259.7193,-217.7 212,-217.7"/>
<polygon fill="#000000" stroke="#000000" points="255.7575,-110.7134 264.406,-112.1841 259.6288,-109.7067 263.5,-108.7 263.5,-108.7 263.5,-108.7 259.6288,-109.7067 262.594,-105.2159 255.7575,-110.7134 255.7575,-110.7134"/>
<ellipse fill="none" stroke="#000000" cx="252.6605" cy="-111.5188" rx="3.2" ry="3.2"/>
</g>
<!-- gymnasts_classes -->
<g id="node8" class="node">
<title>gymnasts_classes</title>
<g id="a_node8"><a xlink:href="../../tables/gymnasts_classes.html" xlink:title="gymnasts_classes" target="_top">
<polygon fill="#ffffff" stroke="transparent" points="477,-165.7 477,-251.7 609,-251.7 609,-165.7 477,-165.7"/>
<polygon fill="#f5f5f5" stroke="transparent" points="477,-228.7 477,-251.7 609,-251.7 609,-228.7 477,-228.7"/>
<polygon fill="none" stroke="#000000" points="477,-228.7 477,-251.7 609,-251.7 609,-228.7 477,-228.7"/>
<text text-anchor="start" x="481.5755" y="-237.8" font-family="Helvetica,sans-Serif" font-weight="bold" font-size="11.00" fill="#000000">gymnasts_classes</text>
<text text-anchor="start" x="574.5219" y="-236.8" font-family="Helvetica,sans-Serif" font-size="11.00" fill="#000000">[table]</text>
<polygon fill="none" stroke="#000000" points="477,-206.7 477,-228.7 609,-228.7 609,-206.7 477,-206.7"/>
<image xlink:href="../../images/primaryKeys.png" width="11px" height="12px" preserveAspectRatio="xMinYMin meet" x="482" y="-223.7"/>
<text text-anchor="start" x="500" y="-213.8" font-family="Helvetica,sans-Serif" font-size="11.00" fill="#000000">gymnasts_id</text>
<polygon fill="none" stroke="#000000" points="477,-184.7 477,-206.7 609,-206.7 609,-184.7 477,-184.7"/>
<image xlink:href="../../images/primaryKeys.png" width="11px" height="12px" preserveAspectRatio="xMinYMin meet" x="482" y="-201.7"/>
<text text-anchor="start" x="500" y="-191.8" font-family="Helvetica,sans-Serif" font-size="11.00" fill="#000000">classes_id</text>
<polygon fill="#ffffff" stroke="transparent" points="477,-165.7 477,-184.7 528,-184.7 528,-165.7 477,-165.7"/>
<polygon fill="none" stroke="#000000" points="477,-165.7 477,-184.7 528,-184.7 528,-165.7 477,-165.7"/>
<text text-anchor="start" x="480" y="-171.8" font-family="Helvetica,sans-Serif" font-size="11.00" fill="#000000">&lt; 2</text>
<polygon fill="#ffffff" stroke="transparent" points="528,-165.7 528,-184.7 581,-184.7 581,-165.7 528,-165.7"/>
<polygon fill="none" stroke="#000000" points="528,-165.7 528,-184.7 581,-184.7 581,-165.7 528,-165.7"/>
<text text-anchor="start" x="545.6105" y="-171.8" font-family="Helvetica,sans-Serif" font-size="11.00" fill="#000000">0 rows</text>
<polygon fill="#ffffff" stroke="transparent" points="581,-165.7 581,-184.7 609,-184.7 609,-165.7 581,-165.7"/>
<polygon fill="none" stroke="#000000" points="581,-165.7 581,-184.7 609,-184.7 609,-165.7 581,-165.7"/>
<text text-anchor="start" x="599.8862" y="-171.8" font-family="Helvetica,sans-Serif" font-size="11.00" fill="#000000"> &#160;</text>
</a>
</g>
</g>
<!-- gymnasts_classes&#45;&gt;gymnasts -->
<g id="edge11" class="edge">
<title>gymnasts_classes:w&#45;&gt;gymnasts:e</title>
<path fill="none" stroke="#000000" d="M462.4235,-217.776C428.776,-218.1413 415.3324,-219.7 375.5,-219.7"/>
<polygon fill="#000000" stroke="#000000" points="469.0001,-217.7417 477.0188,-221.3 473.0001,-217.7209 477,-217.7 477,-217.7 477,-217.7 473.0001,-217.7209 476.9812,-214.1 469.0001,-217.7417 469.0001,-217.7417"/>
<ellipse fill="none" stroke="#000000" cx="465.8002" cy="-217.7584" rx="3.2" ry="3.2"/>
</g>
<!-- gymnasts_classes&#45;&gt;classes -->
<g id="edge10" class="edge">
<title>gymnasts_classes:w&#45;&gt;classes:e</title>
<path fill="none" stroke="#000000" d="M462.4048,-194.8309C441.7464,-192.1909 432.509,-184.2886 406,-181.7 339.2066,-175.1775 318.0765,-158.7817 255,-181.7 231.5738,-190.2117 236.9246,-217.7 212,-217.7"/>
<polygon fill="#000000" stroke="#000000" points="469.0141,-195.2244 476.786,-199.2936 473.0071,-195.4622 477,-195.7 477,-195.7 477,-195.7 473.0071,-195.4622 477.214,-192.1064 469.0141,-195.2244 469.0141,-195.2244"/>
<ellipse fill="none" stroke="#000000" cx="465.8198" cy="-195.0341" rx="3.2" ry="3.2"/>
</g>
</g>
</svg>
