<?xml version="1.0" encoding="UTF-8" standalone="no"?>
<!DOCTYPE svg PUBLIC "-//W3C//DTD SVG 1.1//EN"
 "http://www.w3.org/Graphics/SVG/1.1/DTD/svg11.dtd">
<!-- Generated by graphviz version 2.40.1 (20161225.0304)
 -->
<!-- Title: oneDegreeRelationshipsDiagram Pages: 1 -->
<svg width="414pt" height="392pt"
 viewBox="0.00 0.00 414.00 391.70" xmlns="http://www.w3.org/2000/svg" xmlns:xlink="http://www.w3.org/1999/xlink">
<g id="graph0" class="graph" transform="scale(1 1) rotate(0) translate(4 387.7)">
<title>oneDegreeRelationshipsDiagram</title>
<polygon fill="#ffffff" stroke="transparent" points="-4,4 -4,-387.7 410,-387.7 410,4 -4,4"/>
<text text-anchor="middle" x="72.4936" y="-7.3" font-family="Helvetica,sans-Serif" font-size="11.00" fill="#000000">Generated by SchemaSpy</text>
<!-- daily_challenges -->
<g id="node1" class="node">
<title>daily_challenges</title>
<g id="a_node1"><a xlink:href="../../tables/daily_challenges.html" xlink:title="daily_challenges" target="_top">
<polygon fill="#ffffff" stroke="transparent" points="268.5,-271.7 268.5,-379.7 392.5,-379.7 392.5,-271.7 268.5,-271.7"/>
<polygon fill="#f5f5f5" stroke="transparent" points="268.5,-356.7 268.5,-379.7 392.5,-379.7 392.5,-356.7 268.5,-356.7"/>
<polygon fill="none" stroke="#000000" points="268.5,-356.7 268.5,-379.7 392.5,-379.7 392.5,-356.7 268.5,-356.7"/>
<text text-anchor="start" x="273.3512" y="-365.8" font-family="Helvetica,sans-Serif" font-weight="bold" font-size="11.00" fill="#000000">daily_challenges</text>
<text text-anchor="start" x="358.0219" y="-364.8" font-family="Helvetica,sans-Serif" font-size="11.00" fill="#000000">[table]</text>
<polygon fill="none" stroke="#000000" points="268.5,-334.7 268.5,-356.7 392.5,-356.7 392.5,-334.7 268.5,-334.7"/>
<image xlink:href="../../images/primaryKeys.png" width="11px" height="12px" preserveAspectRatio="xMinYMin meet" x="273.5" y="-351.7"/>
<text text-anchor="start" x="292.5" y="-341.8" font-family="Helvetica,sans-Serif" font-size="11.00" fill="#000000">classes_id</text>
<polygon fill="none" stroke="#000000" points="268.5,-312.7 268.5,-334.7 392.5,-334.7 392.5,-312.7 268.5,-312.7"/>
<image xlink:href="../../images/primaryKeys.png" width="11px" height="12px" preserveAspectRatio="xMinYMin meet" x="273.5" y="-329.7"/>
<text text-anchor="start" x="292.5" y="-319.8" font-family="Helvetica,sans-Serif" font-size="11.00" fill="#000000">challenges_id</text>
<polygon fill="none" stroke="#000000" points="268.5,-290.7 268.5,-312.7 392.5,-312.7 392.5,-290.7 268.5,-290.7"/>
<image xlink:href="../../images/primaryKeys.png" width="11px" height="12px" preserveAspectRatio="xMinYMin meet" x="273.5" y="-307.7"/>
<text text-anchor="start" x="292.5" y="-297.8" font-family="Helvetica,sans-Serif" font-size="11.00" fill="#000000">date</text>
<polygon fill="#ffffff" stroke="transparent" points="268.5,-271.7 268.5,-290.7 311.5,-290.7 311.5,-271.7 268.5,-271.7"/>
<polygon fill="none" stroke="#000000" points="268.5,-271.7 268.5,-290.7 311.5,-290.7 311.5,-271.7 268.5,-271.7"/>
<text text-anchor="start" x="271.5" y="-277.8" font-family="Helvetica,sans-Serif" font-size="11.00" fill="#000000">&lt; 2</text>
<polygon fill="#ffffff" stroke="transparent" points="311.5,-271.7 311.5,-290.7 360.5,-290.7 360.5,-271.7 311.5,-271.7"/>
<polygon fill="none" stroke="#000000" points="311.5,-271.7 311.5,-290.7 360.5,-290.7 360.5,-271.7 311.5,-271.7"/>
<text text-anchor="start" x="325.1105" y="-277.8" font-family="Helvetica,sans-Serif" font-size="11.00" fill="#000000">0 rows</text>
<polygon fill="#ffffff" stroke="transparent" points="360.5,-271.7 360.5,-290.7 392.5,-290.7 392.5,-271.7 360.5,-271.7"/>
<polygon fill="none" stroke="#000000" points="360.5,-271.7 360.5,-290.7 392.5,-290.7 392.5,-271.7 360.5,-271.7"/>
<text text-anchor="start" x="373.9053" y="-277.8" font-family="Helvetica,sans-Serif" font-size="11.00" fill="#000000">3 &gt;</text>
</a>
</g>
</g>
<!-- classes -->
<g id="node2" class="node">
<title>classes</title>
<g id="a_node2"><a xlink:href="../../tables/classes.html" xlink:title="classes" target="_top">
<polygon fill="#ffffff" stroke="transparent" points="8,-118.7 8,-230.7 214,-230.7 214,-118.7 8,-118.7"/>
<polygon fill="#f5f5f5" stroke="transparent" points="10,-205.7 10,-228.7 212,-228.7 212,-205.7 10,-205.7"/>
<polygon fill="none" stroke="#000000" points="10,-205.7 10,-228.7 212,-228.7 212,-205.7 10,-205.7"/>
<text text-anchor="start" x="15" y="-214.8" font-family="Helvetica,sans-Serif" font-weight="bold" font-size="11.00" fill="#000000">classes</text>
<text text-anchor="start" x="177.0437" y="-213.8" font-family="Helvetica,sans-Serif" font-size="11.00" fill="#000000">[table]</text>
<polygon fill="none" stroke="#000000" points="10,-183.7 10,-205.7 95,-205.7 95,-183.7 10,-183.7"/>
<image xlink:href="../../images/primaryKeys.png" width="11px" height="12px" preserveAspectRatio="xMinYMin meet" x="15" y="-200.7"/>
<text text-anchor="start" x="30" y="-190.8" font-family="Helvetica,sans-Serif" font-size="11.00" fill="#000000">id</text>
<polygon fill="none" stroke="#000000" points="95,-183.7 95,-205.7 212,-205.7 212,-183.7 95,-183.7"/>
<text text-anchor="start" x="98" y="-191.4" font-family="Helvetica,sans-Serif" font-size="11.00" fill="#000000">int[10]</text>
<polygon fill="none" stroke="#000000" points="10,-161.7 10,-183.7 95,-183.7 95,-161.7 10,-161.7"/>
<text text-anchor="start" x="30" y="-168.8" font-family="Helvetica,sans-Serif" font-size="11.00" fill="#000000">name</text>
<polygon fill="none" stroke="#000000" points="95,-161.7 95,-183.7 212,-183.7 212,-161.7 95,-161.7"/>
<text text-anchor="start" x="98" y="-169.4" font-family="Helvetica,sans-Serif" font-size="11.00" fill="#000000">varchar[45]</text>
<polygon fill="none" stroke="#000000" points="10,-139.7 10,-161.7 95,-161.7 95,-139.7 10,-139.7"/>
<text text-anchor="start" x="30" y="-146.8" font-family="Helvetica,sans-Serif" font-size="11.00" fill="#000000">description</text>
<polygon fill="none" stroke="#000000" points="95,-139.7 95,-161.7 212,-161.7 212,-139.7 95,-139.7"/>
<text text-anchor="start" x="97.5644" y="-147.4" font-family="Helvetica,sans-Serif" font-size="11.00" fill="#000000">mediumtext[16777215]</text>
<polygon fill="#ffffff" stroke="transparent" points="10,-120.7 10,-139.7 44,-139.7 44,-120.7 10,-120.7"/>
<polygon fill="none" stroke="#000000" points="10,-120.7 10,-139.7 44,-139.7 44,-120.7 10,-120.7"/>
<text text-anchor="start" x="13" y="-126.8" font-family="Helvetica,sans-Serif" font-size="11.00" fill="#000000">&lt; 0</text>
<polygon fill="#ffffff" stroke="transparent" points="44,-120.7 44,-139.7 95,-139.7 95,-120.7 44,-120.7"/>
<polygon fill="none" stroke="#000000" points="44,-120.7 44,-139.7 95,-139.7 95,-120.7 44,-120.7"/>
<text text-anchor="start" x="59.6105" y="-126.8" font-family="Helvetica,sans-Serif" font-size="11.00" fill="#000000">0 rows</text>
<polygon fill="#ffffff" stroke="transparent" points="95,-120.7 95,-139.7 212,-139.7 212,-120.7 95,-120.7"/>
<polygon fill="none" stroke="#000000" points="95,-120.7 95,-139.7 212,-139.7 212,-120.7 95,-120.7"/>
<text text-anchor="start" x="193.4053" y="-126.8" font-family="Helvetica,sans-Serif" font-size="11.00" fill="#000000">3 &gt;</text>
<polygon fill="none" stroke="#000000" stroke-width="2" points="9,-119.7 9,-229.7 213,-229.7 213,-119.7 9,-119.7"/>
</a>
</g>
</g>
<!-- daily_challenges&#45;&gt;classes -->
<g id="edge1" class="edge">
<title>daily_challenges:w&#45;&gt;classes:e</title>
<path fill="none" stroke="#000000" d="M254.1717,-342.9502C209.7319,-322.4847 277.9172,-194.7 212,-194.7"/>
<polygon fill="#000000" stroke="#000000" points="260.6434,-344.1922 267.8215,-349.2355 264.5717,-344.9461 268.5,-345.7 268.5,-345.7 268.5,-345.7 264.5717,-344.9461 269.1785,-342.1645 260.6434,-344.1922 260.6434,-344.1922"/>
<ellipse fill="none" stroke="#000000" cx="257.5007" cy="-343.589" rx="3.2" ry="3.2"/>
</g>
<!-- gymnasts_classes -->
<g id="node3" class="node">
<title>gymnasts_classes</title>
<g id="a_node3"><a xlink:href="../../tables/gymnasts_classes.html" xlink:title="gymnasts_classes" target="_top">
<polygon fill="#ffffff" stroke="transparent" points="264.5,-164.7 264.5,-250.7 396.5,-250.7 396.5,-164.7 264.5,-164.7"/>
<polygon fill="#f5f5f5" stroke="transparent" points="264.5,-227.7 264.5,-250.7 396.5,-250.7 396.5,-227.7 264.5,-227.7"/>
<polygon fill="none" stroke="#000000" points="264.5,-227.7 264.5,-250.7 396.5,-250.7 396.5,-227.7 264.5,-227.7"/>
<text text-anchor="start" x="269.0755" y="-236.8" font-family="Helvetica,sans-Serif" font-weight="bold" font-size="11.00" fill="#000000">gymnasts_classes</text>
<text text-anchor="start" x="362.0219" y="-235.8" font-family="Helvetica,sans-Serif" font-size="11.00" fill="#000000">[table]</text>
<polygon fill="none" stroke="#000000" points="264.5,-205.7 264.5,-227.7 396.5,-227.7 396.5,-205.7 264.5,-205.7"/>
<image xlink:href="../../images/primaryKeys.png" width="11px" height="12px" preserveAspectRatio="xMinYMin meet" x="269.5" y="-222.7"/>
<text text-anchor="start" x="287.5" y="-212.8" font-family="Helvetica,sans-Serif" font-size="11.00" fill="#000000">gymnasts_id</text>
<polygon fill="none" stroke="#000000" points="264.5,-183.7 264.5,-205.7 396.5,-205.7 396.5,-183.7 264.5,-183.7"/>
<image xlink:href="../../images/primaryKeys.png" width="11px" height="12px" preserveAspectRatio="xMinYMin meet" x="269.5" y="-200.7"/>
<text text-anchor="start" x="287.5" y="-190.8" font-family="Helvetica,sans-Serif" font-size="11.00" fill="#000000">classes_id</text>
<polygon fill="#ffffff" stroke="transparent" points="264.5,-164.7 264.5,-183.7 315.5,-183.7 315.5,-164.7 264.5,-164.7"/>
<polygon fill="none" stroke="#000000" points="264.5,-164.7 264.5,-183.7 315.5,-183.7 315.5,-164.7 264.5,-164.7"/>
<text text-anchor="start" x="267.5" y="-170.8" font-family="Helvetica,sans-Serif" font-size="11.00" fill="#000000">&lt; 2</text>
<polygon fill="#ffffff" stroke="transparent" points="315.5,-164.7 315.5,-183.7 368.5,-183.7 368.5,-164.7 315.5,-164.7"/>
<polygon fill="none" stroke="#000000" points="315.5,-164.7 315.5,-183.7 368.5,-183.7 368.5,-164.7 315.5,-164.7"/>
<text text-anchor="start" x="333.1105" y="-170.8" font-family="Helvetica,sans-Serif" font-size="11.00" fill="#000000">0 rows</text>
<polygon fill="#ffffff" stroke="transparent" points="368.5,-164.7 368.5,-183.7 396.5,-183.7 396.5,-164.7 368.5,-164.7"/>
<polygon fill="none" stroke="#000000" points="368.5,-164.7 368.5,-183.7 396.5,-183.7 396.5,-164.7 368.5,-164.7"/>
<text text-anchor="start" x="387.3862" y="-170.8" font-family="Helvetica,sans-Serif" font-size="11.00" fill="#000000"> &#160;</text>
</a>
</g>
</g>
<!-- gymnasts_classes&#45;&gt;classes -->
<g id="edge2" class="edge">
<title>gymnasts_classes:w&#45;&gt;classes:e</title>
<path fill="none" stroke="#000000" d="M249.7344,-194.7C237.1563,-194.7 229.5,-194.7 212,-194.7"/>
<polygon fill="#000000" stroke="#000000" points="256.5,-194.7001 264.5,-198.3 260.5,-194.7 264.5,-194.7 264.5,-194.7 264.5,-194.7 260.5,-194.7 264.5,-191.1 256.5,-194.7001 256.5,-194.7001"/>
<ellipse fill="none" stroke="#000000" cx="253.3" cy="-194.7001" rx="3.2" ry="3.2"/>
</g>
<!-- normal_challenges -->
<g id="node4" class="node">
<title>normal_challenges</title>
<g id="a_node4"><a xlink:href="../../tables/normal_challenges.html" xlink:title="normal_challenges" target="_top">
<polygon fill="#ffffff" stroke="transparent" points="263,-38.2 263,-143.2 398,-143.2 398,-38.2 263,-38.2"/>
<polygon fill="#f5f5f5" stroke="transparent" points="263.5,-119.7 263.5,-142.7 398.5,-142.7 398.5,-119.7 263.5,-119.7"/>
<polygon fill="none" stroke="#000000" points="263.5,-119.7 263.5,-142.7 398.5,-142.7 398.5,-119.7 263.5,-119.7"/>
<text text-anchor="start" x="268.3522" y="-128.8" font-family="Helvetica,sans-Serif" font-weight="bold" font-size="11.00" fill="#000000">normal_challenges</text>
<text text-anchor="start" x="364.0219" y="-127.8" font-family="Helvetica,sans-Serif" font-size="11.00" fill="#000000">[table]</text>
<polygon fill="none" stroke="#000000" points="263.5,-97.7 263.5,-119.7 398.5,-119.7 398.5,-97.7 263.5,-97.7"/>
<image xlink:href="../../images/primaryKeys.png" width="11px" height="12px" preserveAspectRatio="xMinYMin meet" x="268.5" y="-114.7"/>
<text text-anchor="start" x="286.5" y="-104.8" font-family="Helvetica,sans-Serif" font-size="11.00" fill="#000000">classes_id</text>
<polygon fill="none" stroke="#000000" points="263.5,-75.7 263.5,-97.7 398.5,-97.7 398.5,-75.7 263.5,-75.7"/>
<image xlink:href="../../images/primaryKeys.png" width="11px" height="12px" preserveAspectRatio="xMinYMin meet" x="268.5" y="-92.7"/>
<text text-anchor="start" x="286.5" y="-82.8" font-family="Helvetica,sans-Serif" font-size="11.00" fill="#000000">challenges_id</text>
<polygon fill="none" stroke="#000000" points="263.5,-56.7 263.5,-75.7 398.5,-75.7 398.5,-56.7 263.5,-56.7"/>
<text text-anchor="start" x="266.5" y="-62.8" font-family="Helvetica,sans-Serif" font-size="11.00" fill="#000000">...</text>
<polygon fill="#ffffff" stroke="transparent" points="263.5,-37.7 263.5,-56.7 311.5,-56.7 311.5,-37.7 263.5,-37.7"/>
<polygon fill="none" stroke="#000000" points="263.5,-37.7 263.5,-56.7 311.5,-56.7 311.5,-37.7 263.5,-37.7"/>
<text text-anchor="start" x="266.5" y="-43.8" font-family="Helvetica,sans-Serif" font-size="11.00" fill="#000000">&lt; 2</text>
<polygon fill="#ffffff" stroke="transparent" points="311.5,-37.7 311.5,-56.7 363.5,-56.7 363.5,-37.7 311.5,-37.7"/>
<polygon fill="none" stroke="#000000" points="311.5,-37.7 311.5,-56.7 363.5,-56.7 363.5,-37.7 311.5,-37.7"/>
<text text-anchor="start" x="328.1105" y="-43.8" font-family="Helvetica,sans-Serif" font-size="11.00" fill="#000000">0 rows</text>
<polygon fill="#ffffff" stroke="transparent" points="363.5,-37.7 363.5,-56.7 398.5,-56.7 398.5,-37.7 363.5,-37.7"/>
<polygon fill="none" stroke="#000000" points="363.5,-37.7 363.5,-56.7 398.5,-56.7 398.5,-37.7 363.5,-37.7"/>
<text text-anchor="start" x="379.9053" y="-43.8" font-family="Helvetica,sans-Serif" font-size="11.00" fill="#000000">2 &gt;</text>
</a>
</g>
</g>
<!-- normal_challenges&#45;&gt;classes -->
<g id="edge3" class="edge">
<title>normal_challenges:w&#45;&gt;classes:e</title>
<path fill="none" stroke="#000000" d="M249.4139,-113.083C227.6949,-130.6081 250.4605,-194.7 212,-194.7"/>
<polygon fill="#000000" stroke="#000000" points="255.8612,-111.0769 264.5696,-112.1374 259.6806,-109.8884 263.5,-108.7 263.5,-108.7 263.5,-108.7 259.6806,-109.8884 262.4304,-105.2626 255.8612,-111.0769 255.8612,-111.0769"/>
<ellipse fill="none" stroke="#000000" cx="252.8057" cy="-112.0276" rx="3.2" ry="3.2"/>
</g>
</g>
</svg>
