<?xml version="1.0" encoding="UTF-8" standalone="no"?>
<!DOCTYPE svg PUBLIC "-//W3C//DTD SVG 1.1//EN"
 "http://www.w3.org/Graphics/SVG/1.1/DTD/svg11.dtd">
<!-- Generated by graphviz version 2.40.1 (20161225.0304)
 -->
<!-- Title: twoDegreesRelationshipsDiagram Pages: 1 -->
<svg width="1058pt" height="460pt"
 viewBox="0.00 0.00 1058.00 460.20" xmlns="http://www.w3.org/2000/svg" xmlns:xlink="http://www.w3.org/1999/xlink">
<g id="graph0" class="graph" transform="scale(1 1) rotate(0) translate(4 456.2)">
<title>twoDegreesRelationshipsDiagram</title>
<polygon fill="#ffffff" stroke="transparent" points="-4,4 -4,-456.2 1054,-456.2 1054,4 -4,4"/>
<text text-anchor="middle" x="72.4936" y="-7.3" font-family="Helvetica,sans-Serif" font-size="11.00" fill="#000000">Generated by SchemaSpy</text>
<!-- challenges -->
<g id="node1" class="node">
<title>challenges</title>
<g id="a_node1"><a xlink:href="../../tables/challenges.html" xlink:title="challenges" target="_top">
<polygon fill="#ffffff" stroke="transparent" points="518,-244.7 518,-371.7 617,-371.7 617,-244.7 518,-244.7"/>
<polygon fill="#f5f5f5" stroke="transparent" points="518.5,-348.2 518.5,-371.2 617.5,-371.2 617.5,-348.2 518.5,-348.2"/>
<polygon fill="none" stroke="#000000" points="518.5,-348.2 518.5,-371.2 617.5,-371.2 617.5,-348.2 518.5,-348.2"/>
<text text-anchor="start" x="523.5" y="-357.3" font-family="Helvetica,sans-Serif" font-weight="bold" font-size="11.00" fill="#000000">challenges</text>
<text text-anchor="start" x="582.5437" y="-356.3" font-family="Helvetica,sans-Serif" font-size="11.00" fill="#000000">[table]</text>
<polygon fill="none" stroke="#000000" points="518.5,-326.2 518.5,-348.2 617.5,-348.2 617.5,-326.2 518.5,-326.2"/>
<image xlink:href="../../images/primaryKeys.png" width="11px" height="12px" preserveAspectRatio="xMinYMin meet" x="523.5" y="-343.2"/>
<text text-anchor="start" x="538.5" y="-333.3" font-family="Helvetica,sans-Serif" font-size="11.00" fill="#000000">id</text>
<polygon fill="#ffffff" stroke="transparent" points="518.5,-304.2 518.5,-326.2 617.5,-326.2 617.5,-304.2 518.5,-304.2"/>
<polygon fill="none" stroke="#000000" points="518.5,-304.2 518.5,-326.2 617.5,-326.2 617.5,-304.2 518.5,-304.2"/>
<image xlink:href="../../images/foreignKeys.png" width="11px" height="12px" preserveAspectRatio="xMinYMin meet" x="523.5" y="-321.2"/>
<text text-anchor="start" x="538.5" y="-311.3" font-family="Helvetica,sans-Serif" font-size="11.00" fill="#000000">gym_id</text>
<polygon fill="#ffffff" stroke="transparent" points="518.5,-282.2 518.5,-304.2 617.5,-304.2 617.5,-282.2 518.5,-282.2"/>
<polygon fill="none" stroke="#000000" points="518.5,-282.2 518.5,-304.2 617.5,-304.2 617.5,-282.2 518.5,-282.2"/>
<image xlink:href="../../images/foreignKeys.png" width="11px" height="12px" preserveAspectRatio="xMinYMin meet" x="523.5" y="-299.2"/>
<text text-anchor="start" x="538.5" y="-289.3" font-family="Helvetica,sans-Serif" font-size="11.00" fill="#000000">class_id</text>
<polygon fill="none" stroke="#000000" points="518.5,-263.2 518.5,-282.2 617.5,-282.2 617.5,-263.2 518.5,-263.2"/>
<text text-anchor="start" x="521.5" y="-269.3" font-family="Helvetica,sans-Serif" font-size="11.00" fill="#000000">...</text>
<polygon fill="#ffffff" stroke="transparent" points="518.5,-244.2 518.5,-263.2 548.5,-263.2 548.5,-244.2 518.5,-244.2"/>
<polygon fill="none" stroke="#000000" points="518.5,-244.2 518.5,-263.2 548.5,-263.2 548.5,-244.2 518.5,-244.2"/>
<text text-anchor="start" x="521.5" y="-250.3" font-family="Helvetica,sans-Serif" font-size="11.00" fill="#000000">&lt; 2</text>
<polygon fill="#ffffff" stroke="transparent" points="548.5,-244.2 548.5,-263.2 591.5,-263.2 591.5,-244.2 548.5,-244.2"/>
<polygon fill="none" stroke="#000000" points="548.5,-244.2 548.5,-263.2 591.5,-263.2 591.5,-244.2 548.5,-244.2"/>
<text text-anchor="start" x="556.1105" y="-250.3" font-family="Helvetica,sans-Serif" font-size="11.00" fill="#000000">0 rows</text>
<polygon fill="#ffffff" stroke="transparent" points="591.5,-244.2 591.5,-263.2 617.5,-263.2 617.5,-244.2 591.5,-244.2"/>
<polygon fill="none" stroke="#000000" points="591.5,-244.2 591.5,-263.2 617.5,-263.2 617.5,-244.2 591.5,-244.2"/>
<text text-anchor="start" x="598.9053" y="-250.3" font-family="Helvetica,sans-Serif" font-size="11.00" fill="#000000">2 &gt;</text>
</a>
</g>
</g>
<!-- classes -->
<g id="node2" class="node">
<title>classes</title>
<g id="a_node2"><a xlink:href="../../tables/classes.html" xlink:title="classes" target="_top">
<polygon fill="#ffffff" stroke="transparent" points="263,-38.2 263,-238.2 469,-238.2 469,-38.2 263,-38.2"/>
<polygon fill="#f5f5f5" stroke="transparent" points="265,-213.2 265,-236.2 467,-236.2 467,-213.2 265,-213.2"/>
<polygon fill="none" stroke="#000000" points="265,-213.2 265,-236.2 467,-236.2 467,-213.2 265,-213.2"/>
<text text-anchor="start" x="270" y="-222.3" font-family="Helvetica,sans-Serif" font-weight="bold" font-size="11.00" fill="#000000">classes</text>
<text text-anchor="start" x="432.0437" y="-221.3" font-family="Helvetica,sans-Serif" font-size="11.00" fill="#000000">[table]</text>
<polygon fill="none" stroke="#000000" points="265,-191.2 265,-213.2 350,-213.2 350,-191.2 265,-191.2"/>
<image xlink:href="../../images/primaryKeys.png" width="11px" height="12px" preserveAspectRatio="xMinYMin meet" x="270" y="-208.2"/>
<text text-anchor="start" x="285" y="-198.3" font-family="Helvetica,sans-Serif" font-size="11.00" fill="#000000">id</text>
<polygon fill="none" stroke="#000000" points="350,-191.2 350,-213.2 467,-213.2 467,-191.2 350,-191.2"/>
<text text-anchor="start" x="353" y="-198.9" font-family="Helvetica,sans-Serif" font-size="11.00" fill="#000000">bigint[19]</text>
<polygon fill="none" stroke="#000000" points="265,-169.2 265,-191.2 350,-191.2 350,-169.2 265,-169.2"/>
<text text-anchor="start" x="285" y="-176.3" font-family="Helvetica,sans-Serif" font-size="11.00" fill="#000000">name</text>
<polygon fill="none" stroke="#000000" points="350,-169.2 350,-191.2 467,-191.2 467,-169.2 350,-169.2"/>
<text text-anchor="start" x="353" y="-176.9" font-family="Helvetica,sans-Serif" font-size="11.00" fill="#000000">varchar[45]</text>
<polygon fill="none" stroke="#000000" points="265,-147.2 265,-169.2 350,-169.2 350,-147.2 265,-147.2"/>
<text text-anchor="start" x="285" y="-154.3" font-family="Helvetica,sans-Serif" font-size="11.00" fill="#000000">description</text>
<polygon fill="none" stroke="#000000" points="350,-147.2 350,-169.2 467,-169.2 467,-147.2 350,-147.2"/>
<text text-anchor="start" x="352.5645" y="-154.9" font-family="Helvetica,sans-Serif" font-size="11.00" fill="#000000">mediumtext[16777215]</text>
<polygon fill="#ffffff" stroke="transparent" points="265,-125.2 265,-147.2 350,-147.2 350,-125.2 265,-125.2"/>
<polygon fill="none" stroke="#000000" points="265,-125.2 265,-147.2 350,-147.2 350,-125.2 265,-125.2"/>
<image xlink:href="../../images/foreignKeys.png" width="11px" height="12px" preserveAspectRatio="xMinYMin meet" x="270" y="-142.2"/>
<text text-anchor="start" x="285" y="-132.3" font-family="Helvetica,sans-Serif" font-size="11.00" fill="#000000">skill_list_id</text>
<polygon fill="none" stroke="#000000" points="350,-125.2 350,-147.2 467,-147.2 467,-125.2 350,-125.2"/>
<text text-anchor="start" x="353" y="-132.9" font-family="Helvetica,sans-Serif" font-size="11.00" fill="#000000">bigint unsigned[20]</text>
<polygon fill="none" stroke="#000000" points="265,-103.2 265,-125.2 350,-125.2 350,-103.2 265,-103.2"/>
<text text-anchor="start" x="285" y="-110.3" font-family="Helvetica,sans-Serif" font-size="11.00" fill="#000000">created_at</text>
<polygon fill="none" stroke="#000000" points="350,-103.2 350,-125.2 467,-125.2 467,-103.2 350,-103.2"/>
<text text-anchor="start" x="353" y="-110.9" font-family="Helvetica,sans-Serif" font-size="11.00" fill="#000000">timestamp[19]</text>
<polygon fill="none" stroke="#000000" points="265,-81.2 265,-103.2 350,-103.2 350,-81.2 265,-81.2"/>
<text text-anchor="start" x="285" y="-88.3" font-family="Helvetica,sans-Serif" font-size="11.00" fill="#000000">updated_at</text>
<polygon fill="none" stroke="#000000" points="350,-81.2 350,-103.2 467,-103.2 467,-81.2 350,-81.2"/>
<text text-anchor="start" x="353" y="-88.9" font-family="Helvetica,sans-Serif" font-size="11.00" fill="#000000">timestamp[19]</text>
<polygon fill="none" stroke="#000000" points="265,-59.2 265,-81.2 350,-81.2 350,-59.2 265,-59.2"/>
<text text-anchor="start" x="285" y="-66.3" font-family="Helvetica,sans-Serif" font-size="11.00" fill="#000000">deleted_at</text>
<polygon fill="none" stroke="#000000" points="350,-59.2 350,-81.2 467,-81.2 467,-59.2 350,-59.2"/>
<text text-anchor="start" x="353" y="-66.9" font-family="Helvetica,sans-Serif" font-size="11.00" fill="#000000">timestamp[19]</text>
<polygon fill="#ffffff" stroke="transparent" points="265,-40.2 265,-59.2 299,-59.2 299,-40.2 265,-40.2"/>
<polygon fill="none" stroke="#000000" points="265,-40.2 265,-59.2 299,-59.2 299,-40.2 265,-40.2"/>
<text text-anchor="start" x="268" y="-46.3" font-family="Helvetica,sans-Serif" font-size="11.00" fill="#000000">&lt; 1</text>
<polygon fill="#ffffff" stroke="transparent" points="299,-40.2 299,-59.2 350,-59.2 350,-40.2 299,-40.2"/>
<polygon fill="none" stroke="#000000" points="299,-40.2 299,-59.2 350,-59.2 350,-40.2 299,-40.2"/>
<text text-anchor="start" x="314.6105" y="-46.3" font-family="Helvetica,sans-Serif" font-size="11.00" fill="#000000">0 rows</text>
<polygon fill="#ffffff" stroke="transparent" points="350,-40.2 350,-59.2 467,-59.2 467,-40.2 350,-40.2"/>
<polygon fill="none" stroke="#000000" points="350,-40.2 350,-59.2 467,-59.2 467,-40.2 350,-40.2"/>
<text text-anchor="start" x="448.4053" y="-46.3" font-family="Helvetica,sans-Serif" font-size="11.00" fill="#000000">4 &gt;</text>
<polygon fill="none" stroke="#000000" stroke-width="2" points="264,-39.2 264,-237.2 468,-237.2 468,-39.2 264,-39.2"/>
</a>
</g>
</g>
<!-- challenges&#45;&gt;classes -->
<g id="edge1" class="edge">
<title>challenges:w&#45;&gt;classes:e</title>
<path fill="none" stroke="#000000" d="M504.5344,-289.0535C481.2519,-271.2512 507.4815,-202.2 467,-202.2"/>
<polygon fill="#000000" stroke="#000000" points="510.8309,-290.9229 517.4753,-296.6511 514.6654,-292.0615 518.5,-293.2 518.5,-293.2 518.5,-293.2 514.6654,-292.0615 519.5247,-289.7489 510.8309,-290.9229 510.8309,-290.9229"/>
<ellipse fill="none" stroke="#000000" cx="507.7633" cy="-290.0121" rx="3.2" ry="3.2"/>
</g>
<!-- gyms -->
<g id="node3" class="node">
<title>gyms</title>
<g id="a_node3"><a xlink:href="../../tables/gyms.html" xlink:title="gyms" target="_top">
<polygon fill="#ffffff" stroke="transparent" points="8,-276.7 8,-337.7 79,-337.7 79,-276.7 8,-276.7"/>
<polygon fill="#f5f5f5" stroke="transparent" points="8.5,-314.2 8.5,-337.2 79.5,-337.2 79.5,-314.2 8.5,-314.2"/>
<polygon fill="none" stroke="#000000" points="8.5,-314.2 8.5,-337.2 79.5,-337.2 79.5,-314.2 8.5,-314.2"/>
<text text-anchor="start" x="13.5" y="-323.3" font-family="Helvetica,sans-Serif" font-weight="bold" font-size="11.00" fill="#000000">gyms</text>
<text text-anchor="start" x="44.5437" y="-322.3" font-family="Helvetica,sans-Serif" font-size="11.00" fill="#000000">[table]</text>
<polygon fill="none" stroke="#000000" points="8.5,-295.2 8.5,-314.2 79.5,-314.2 79.5,-295.2 8.5,-295.2"/>
<text text-anchor="start" x="11.5" y="-301.3" font-family="Helvetica,sans-Serif" font-size="11.00" fill="#000000">...</text>
<polygon fill="#ffffff" stroke="transparent" points="8.5,-276.2 8.5,-295.2 20.5,-295.2 20.5,-276.2 8.5,-276.2"/>
<polygon fill="none" stroke="#000000" points="8.5,-276.2 8.5,-295.2 20.5,-295.2 20.5,-276.2 8.5,-276.2"/>
<text text-anchor="start" x="11.4431" y="-282.3" font-family="Helvetica,sans-Serif" font-size="11.00" fill="#000000"> &#160;</text>
<polygon fill="#ffffff" stroke="transparent" points="20.5,-276.2 20.5,-295.2 58.5,-295.2 58.5,-276.2 20.5,-276.2"/>
<polygon fill="none" stroke="#000000" points="20.5,-276.2 20.5,-295.2 58.5,-295.2 58.5,-276.2 20.5,-276.2"/>
<text text-anchor="start" x="23.3053" y="-282.3" font-family="Helvetica,sans-Serif" font-size="11.00" fill="#000000">0 rows</text>
<polygon fill="#ffffff" stroke="transparent" points="58.5,-276.2 58.5,-295.2 79.5,-295.2 79.5,-276.2 58.5,-276.2"/>
<polygon fill="none" stroke="#000000" points="58.5,-276.2 58.5,-295.2 79.5,-295.2 79.5,-276.2 58.5,-276.2"/>
<text text-anchor="start" x="61.2027" y="-282.3" font-family="Helvetica,sans-Serif" font-size="11.00" fill="#000000">4 &gt;</text>
</a>
</g>
</g>
<!-- challenges&#45;&gt;gyms -->
<g id="edge2" class="edge">
<title>challenges:w&#45;&gt;gyms:e</title>
<path fill="none" stroke="#000000" d="M504.3175,-318.0506C495.741,-321.9323 490.5128,-328.6853 477,-331.2 321.0114,-360.2287 271.8586,-377.1791 120,-331.2 99.2949,-324.931 101.1333,-304.2 79.5,-304.2"/>
<polygon fill="#000000" stroke="#000000" points="510.6569,-316.7765 519.2094,-318.7294 514.5784,-315.9882 518.5,-315.2 518.5,-315.2 518.5,-315.2 514.5784,-315.9882 517.7906,-311.6706 510.6569,-316.7765 510.6569,-316.7765"/>
<ellipse fill="none" stroke="#000000" cx="507.5196" cy="-317.407" rx="3.2" ry="3.2"/>
</g>
<!-- skill_lists -->
<g id="node4" class="node">
<title>skill_lists</title>
<g id="a_node4"><a xlink:href="../../tables/skill_lists.html" xlink:title="skill_lists" target="_top">
<polygon fill="#ffffff" stroke="transparent" points="128,-215.7 128,-320.7 214,-320.7 214,-215.7 128,-215.7"/>
<polygon fill="#f5f5f5" stroke="transparent" points="128,-297.2 128,-320.2 214,-320.2 214,-297.2 128,-297.2"/>
<polygon fill="none" stroke="#000000" points="128,-297.2 128,-320.2 214,-320.2 214,-297.2 128,-297.2"/>
<text text-anchor="start" x="132.8119" y="-306.3" font-family="Helvetica,sans-Serif" font-weight="bold" font-size="11.00" fill="#000000">skill_lists</text>
<text text-anchor="start" x="179.5219" y="-305.3" font-family="Helvetica,sans-Serif" font-size="11.00" fill="#000000">[table]</text>
<polygon fill="none" stroke="#000000" points="128,-275.2 128,-297.2 214,-297.2 214,-275.2 128,-275.2"/>
<image xlink:href="../../images/primaryKeys.png" width="11px" height="12px" preserveAspectRatio="xMinYMin meet" x="133" y="-292.2"/>
<text text-anchor="start" x="149" y="-282.3" font-family="Helvetica,sans-Serif" font-size="11.00" fill="#000000">id</text>
<polygon fill="#ffffff" stroke="transparent" points="128,-253.2 128,-275.2 214,-275.2 214,-253.2 128,-253.2"/>
<polygon fill="none" stroke="#000000" points="128,-253.2 128,-275.2 214,-275.2 214,-253.2 128,-253.2"/>
<image xlink:href="../../images/foreignKeys.png" width="11px" height="12px" preserveAspectRatio="xMinYMin meet" x="133" y="-270.2"/>
<text text-anchor="start" x="149" y="-260.3" font-family="Helvetica,sans-Serif" font-size="11.00" fill="#000000">gym_id</text>
<polygon fill="none" stroke="#000000" points="128,-234.2 128,-253.2 214,-253.2 214,-234.2 128,-234.2"/>
<text text-anchor="start" x="131" y="-240.3" font-family="Helvetica,sans-Serif" font-size="11.00" fill="#000000">...</text>
<polygon fill="#ffffff" stroke="transparent" points="128,-215.2 128,-234.2 152,-234.2 152,-215.2 128,-215.2"/>
<polygon fill="none" stroke="#000000" points="128,-215.2 128,-234.2 152,-234.2 152,-215.2 128,-215.2"/>
<text text-anchor="start" x="131" y="-221.3" font-family="Helvetica,sans-Serif" font-size="11.00" fill="#000000">&lt; 1</text>
<polygon fill="#ffffff" stroke="transparent" points="152,-215.2 152,-234.2 191,-234.2 191,-215.2 152,-215.2"/>
<polygon fill="none" stroke="#000000" points="152,-215.2 152,-234.2 191,-234.2 191,-215.2 152,-215.2"/>
<text text-anchor="start" x="155.6105" y="-221.3" font-family="Helvetica,sans-Serif" font-size="11.00" fill="#000000">0 rows</text>
<polygon fill="#ffffff" stroke="transparent" points="191,-215.2 191,-234.2 214,-234.2 214,-215.2 191,-215.2"/>
<polygon fill="none" stroke="#000000" points="191,-215.2 191,-234.2 214,-234.2 214,-215.2 191,-215.2"/>
<text text-anchor="start" x="195.4053" y="-221.3" font-family="Helvetica,sans-Serif" font-size="11.00" fill="#000000">2 &gt;</text>
</a>
</g>
</g>
<!-- classes&#45;&gt;skill_lists -->
<g id="edge3" class="edge">
<title>classes:w&#45;&gt;skill_lists:e</title>
<path fill="none" stroke="#000000" d="M250.7294,-139.0625C208.2447,-159.8 278.6384,-286.2 214,-286.2"/>
<polygon fill="#000000" stroke="#000000" points="257.1562,-137.7734 265.708,-139.7297 261.0781,-136.9867 265,-136.2 265,-136.2 265,-136.2 261.0781,-136.9867 264.292,-132.6703 257.1562,-137.7734 257.1562,-137.7734"/>
<ellipse fill="none" stroke="#000000" cx="254.0187" cy="-138.4028" rx="3.2" ry="3.2"/>
</g>
<!-- skill_lists&#45;&gt;gyms -->
<g id="edge17" class="edge">
<title>skill_lists:w&#45;&gt;gyms:e</title>
<path fill="none" stroke="#000000" d="M113.9951,-269.1048C101.5984,-279.7859 101.3288,-304.2 79.5,-304.2"/>
<polygon fill="#000000" stroke="#000000" points="120.4496,-266.8443 129.1899,-267.5977 124.2248,-265.5222 128,-264.2 128,-264.2 128,-264.2 124.2248,-265.5222 126.8101,-260.8023 120.4496,-266.8443 120.4496,-266.8443"/>
<ellipse fill="none" stroke="#000000" cx="117.4295" cy="-267.902" rx="3.2" ry="3.2"/>
</g>
<!-- completed_daily_challenges -->
<g id="node5" class="node">
<title>completed_daily_challenges</title>
<g id="a_node5"><a xlink:href="../../tables/completed_daily_challenges.html" xlink:title="completed_daily_challenges" target="_top">
<polygon fill="#ffffff" stroke="transparent" points="855.5,-353.7 855.5,-414.7 1036.5,-414.7 1036.5,-353.7 855.5,-353.7"/>
<polygon fill="#f5f5f5" stroke="transparent" points="856,-391.2 856,-414.2 1037,-414.2 1037,-391.2 856,-391.2"/>
<polygon fill="none" stroke="#000000" points="856,-391.2 856,-414.2 1037,-414.2 1037,-391.2 856,-391.2"/>
<text text-anchor="start" x="860.9266" y="-400.3" font-family="Helvetica,sans-Serif" font-weight="bold" font-size="11.00" fill="#000000">completed_daily_challenges</text>
<text text-anchor="start" x="1002.5219" y="-399.3" font-family="Helvetica,sans-Serif" font-size="11.00" fill="#000000">[table]</text>
<polygon fill="none" stroke="#000000" points="856,-372.2 856,-391.2 1037,-391.2 1037,-372.2 856,-372.2"/>
<text text-anchor="start" x="859" y="-378.3" font-family="Helvetica,sans-Serif" font-size="11.00" fill="#000000">...</text>
<polygon fill="#ffffff" stroke="transparent" points="856,-353.2 856,-372.2 932,-372.2 932,-353.2 856,-353.2"/>
<polygon fill="none" stroke="#000000" points="856,-353.2 856,-372.2 932,-372.2 932,-353.2 856,-353.2"/>
<text text-anchor="start" x="859" y="-359.3" font-family="Helvetica,sans-Serif" font-size="11.00" fill="#000000">&lt; 4</text>
<polygon fill="#ffffff" stroke="transparent" points="932,-353.2 932,-372.2 997,-372.2 997,-353.2 932,-353.2"/>
<polygon fill="none" stroke="#000000" points="932,-353.2 932,-372.2 997,-372.2 997,-353.2 932,-353.2"/>
<text text-anchor="start" x="961.6105" y="-359.3" font-family="Helvetica,sans-Serif" font-size="11.00" fill="#000000">0 rows</text>
<polygon fill="#ffffff" stroke="transparent" points="997,-353.2 997,-372.2 1037,-372.2 1037,-353.2 997,-353.2"/>
<polygon fill="none" stroke="#000000" points="997,-353.2 997,-372.2 1037,-372.2 1037,-353.2 997,-353.2"/>
<text text-anchor="start" x="1027.8862" y="-359.3" font-family="Helvetica,sans-Serif" font-size="11.00" fill="#000000"> &#160;</text>
</a>
</g>
</g>
<!-- daily_challenges -->
<g id="node6" class="node">
<title>daily_challenges</title>
<g id="a_node6"><a xlink:href="../../tables/daily_challenges.html" xlink:title="daily_challenges" target="_top">
<polygon fill="#ffffff" stroke="transparent" points="671.5,-340.2 671.5,-448.2 795.5,-448.2 795.5,-340.2 671.5,-340.2"/>
<polygon fill="#f5f5f5" stroke="transparent" points="671.5,-425.2 671.5,-448.2 795.5,-448.2 795.5,-425.2 671.5,-425.2"/>
<polygon fill="none" stroke="#000000" points="671.5,-425.2 671.5,-448.2 795.5,-448.2 795.5,-425.2 671.5,-425.2"/>
<text text-anchor="start" x="676.3512" y="-434.3" font-family="Helvetica,sans-Serif" font-weight="bold" font-size="11.00" fill="#000000">daily_challenges</text>
<text text-anchor="start" x="761.0219" y="-433.3" font-family="Helvetica,sans-Serif" font-size="11.00" fill="#000000">[table]</text>
<polygon fill="none" stroke="#000000" points="671.5,-403.2 671.5,-425.2 795.5,-425.2 795.5,-403.2 671.5,-403.2"/>
<image xlink:href="../../images/primaryKeys.png" width="11px" height="12px" preserveAspectRatio="xMinYMin meet" x="676.5" y="-420.2"/>
<text text-anchor="start" x="695.5" y="-410.3" font-family="Helvetica,sans-Serif" font-size="11.00" fill="#000000">classes_id</text>
<polygon fill="none" stroke="#000000" points="671.5,-381.2 671.5,-403.2 795.5,-403.2 795.5,-381.2 671.5,-381.2"/>
<image xlink:href="../../images/primaryKeys.png" width="11px" height="12px" preserveAspectRatio="xMinYMin meet" x="676.5" y="-398.2"/>
<text text-anchor="start" x="695.5" y="-388.3" font-family="Helvetica,sans-Serif" font-size="11.00" fill="#000000">challenges_id</text>
<polygon fill="none" stroke="#000000" points="671.5,-359.2 671.5,-381.2 795.5,-381.2 795.5,-359.2 671.5,-359.2"/>
<image xlink:href="../../images/primaryKeys.png" width="11px" height="12px" preserveAspectRatio="xMinYMin meet" x="676.5" y="-376.2"/>
<text text-anchor="start" x="695.5" y="-366.3" font-family="Helvetica,sans-Serif" font-size="11.00" fill="#000000">date</text>
<polygon fill="#ffffff" stroke="transparent" points="671.5,-340.2 671.5,-359.2 714.5,-359.2 714.5,-340.2 671.5,-340.2"/>
<polygon fill="none" stroke="#000000" points="671.5,-340.2 671.5,-359.2 714.5,-359.2 714.5,-340.2 671.5,-340.2"/>
<text text-anchor="start" x="674.5" y="-346.3" font-family="Helvetica,sans-Serif" font-size="11.00" fill="#000000">&lt; 2</text>
<polygon fill="#ffffff" stroke="transparent" points="714.5,-340.2 714.5,-359.2 763.5,-359.2 763.5,-340.2 714.5,-340.2"/>
<polygon fill="none" stroke="#000000" points="714.5,-340.2 714.5,-359.2 763.5,-359.2 763.5,-340.2 714.5,-340.2"/>
<text text-anchor="start" x="728.1105" y="-346.3" font-family="Helvetica,sans-Serif" font-size="11.00" fill="#000000">0 rows</text>
<polygon fill="#ffffff" stroke="transparent" points="763.5,-340.2 763.5,-359.2 795.5,-359.2 795.5,-340.2 763.5,-340.2"/>
<polygon fill="none" stroke="#000000" points="763.5,-340.2 763.5,-359.2 795.5,-359.2 795.5,-340.2 763.5,-340.2"/>
<text text-anchor="start" x="776.9053" y="-346.3" font-family="Helvetica,sans-Serif" font-size="11.00" fill="#000000">3 &gt;</text>
</a>
</g>
</g>
<!-- completed_daily_challenges&#45;&gt;daily_challenges -->
<g id="edge4" class="edge">
<title>completed_daily_challenges:w&#45;&gt;daily_challenges:e</title>
<path fill="none" stroke="#000000" d="M841.6457,-382.3772C825.4109,-385.2149 817.2784,-392.2 795.5,-392.2"/>
<polygon fill="#000000" stroke="#000000" points="848.0268,-381.8539 856.2943,-384.788 852.0134,-381.527 856,-381.2 856,-381.2 856,-381.2 852.0134,-381.527 855.7057,-377.612 848.0268,-381.8539 848.0268,-381.8539"/>
<ellipse fill="none" stroke="#000000" cx="844.8375" cy="-382.1155" rx="3.2" ry="3.2"/>
</g>
<!-- completed_daily_challenges&#45;&gt;daily_challenges -->
<g id="edge5" class="edge">
<title>completed_daily_challenges:w&#45;&gt;daily_challenges:e</title>
<path fill="none" stroke="#000000" d="M841.6678,-384.2454C824.5519,-392.4148 820.3859,-414.2 795.5,-414.2"/>
<polygon fill="#000000" stroke="#000000" points="848.1747,-382.8628 856.7483,-384.7214 852.0874,-382.0314 856,-381.2 856,-381.2 856,-381.2 852.0874,-382.0314 855.2517,-377.6786 848.1747,-382.8628 848.1747,-382.8628"/>
<ellipse fill="none" stroke="#000000" cx="845.0446" cy="-383.5279" rx="3.2" ry="3.2"/>
</g>
<!-- completed_daily_challenges&#45;&gt;daily_challenges -->
<g id="edge6" class="edge">
<title>completed_daily_challenges:w&#45;&gt;daily_challenges:e</title>
<path fill="none" stroke="#000000" d="M841.6457,-380.0228C825.4109,-377.1851 817.2784,-370.2 795.5,-370.2"/>
<polygon fill="#000000" stroke="#000000" points="848.0268,-380.5461 855.7057,-384.788 852.0134,-380.873 856,-381.2 856,-381.2 856,-381.2 852.0134,-380.873 856.2943,-377.612 848.0268,-380.5461 848.0268,-380.5461"/>
<ellipse fill="none" stroke="#000000" cx="844.8375" cy="-380.2845" rx="3.2" ry="3.2"/>
</g>
<!-- gymnasts -->
<g id="node7" class="node">
<title>gymnasts</title>
<g id="a_node7"><a xlink:href="../../tables/gymnasts.html" xlink:title="gymnasts" target="_top">
<polygon fill="#ffffff" stroke="transparent" points="688.5,-257.7 688.5,-318.7 778.5,-318.7 778.5,-257.7 688.5,-257.7"/>
<polygon fill="#f5f5f5" stroke="transparent" points="688.5,-295.2 688.5,-318.2 778.5,-318.2 778.5,-295.2 688.5,-295.2"/>
<polygon fill="none" stroke="#000000" points="688.5,-295.2 688.5,-318.2 778.5,-318.2 778.5,-295.2 688.5,-295.2"/>
<text text-anchor="start" x="693.4683" y="-304.3" font-family="Helvetica,sans-Serif" font-weight="bold" font-size="11.00" fill="#000000">gymnasts</text>
<text text-anchor="start" x="744.0219" y="-303.3" font-family="Helvetica,sans-Serif" font-size="11.00" fill="#000000">[table]</text>
<polygon fill="none" stroke="#000000" points="688.5,-276.2 688.5,-295.2 778.5,-295.2 778.5,-276.2 688.5,-276.2"/>
<text text-anchor="start" x="691.5" y="-282.3" font-family="Helvetica,sans-Serif" font-size="11.00" fill="#000000">...</text>
<polygon fill="#ffffff" stroke="transparent" points="688.5,-257.2 688.5,-276.2 714.5,-276.2 714.5,-257.2 688.5,-257.2"/>
<polygon fill="none" stroke="#000000" points="688.5,-257.2 688.5,-276.2 714.5,-276.2 714.5,-257.2 688.5,-257.2"/>
<text text-anchor="start" x="691.5" y="-263.3" font-family="Helvetica,sans-Serif" font-size="11.00" fill="#000000">&lt; 2</text>
<polygon fill="#ffffff" stroke="transparent" points="714.5,-257.2 714.5,-276.2 754.5,-276.2 754.5,-257.2 714.5,-257.2"/>
<polygon fill="none" stroke="#000000" points="714.5,-257.2 714.5,-276.2 754.5,-276.2 754.5,-257.2 714.5,-257.2"/>
<text text-anchor="start" x="719.1105" y="-263.3" font-family="Helvetica,sans-Serif" font-size="11.00" fill="#000000">0 rows</text>
<polygon fill="#ffffff" stroke="transparent" points="754.5,-257.2 754.5,-276.2 778.5,-276.2 778.5,-257.2 754.5,-257.2"/>
<polygon fill="none" stroke="#000000" points="754.5,-257.2 754.5,-276.2 778.5,-276.2 778.5,-257.2 754.5,-257.2"/>
<text text-anchor="start" x="759.9053" y="-263.3" font-family="Helvetica,sans-Serif" font-size="11.00" fill="#000000">4 &gt;</text>
</a>
</g>
</g>
<!-- completed_daily_challenges&#45;&gt;gymnasts -->
<g id="edge7" class="edge">
<title>completed_daily_challenges:w&#45;&gt;gymnasts:e</title>
<path fill="none" stroke="#000000" d="M841.8025,-378.4304C806.8022,-362.6902 827.7657,-285.2 778.5,-285.2"/>
<polygon fill="#000000" stroke="#000000" points="848.148,-379.6682 855.3107,-384.7334 852.074,-380.4341 856,-381.2 856,-381.2 856,-381.2 852.074,-380.4341 856.6893,-377.6666 848.148,-379.6682 848.148,-379.6682"/>
<ellipse fill="none" stroke="#000000" cx="845.0072" cy="-379.0555" rx="3.2" ry="3.2"/>
</g>
<!-- daily_challenges&#45;&gt;challenges -->
<g id="edge11" class="edge">
<title>daily_challenges:w&#45;&gt;challenges:e</title>
<path fill="none" stroke="#000000" d="M657.6633,-387.8842C640.7915,-374.9185 645.8689,-337.2 617.5,-337.2"/>
<polygon fill="#000000" stroke="#000000" points="663.8629,-389.8179 670.4281,-395.6367 667.6814,-391.0089 671.5,-392.2 671.5,-392.2 671.5,-392.2 667.6814,-391.0089 672.5719,-388.7633 663.8629,-389.8179 663.8629,-389.8179"/>
<ellipse fill="none" stroke="#000000" cx="660.808" cy="-388.8651" rx="3.2" ry="3.2"/>
</g>
<!-- daily_challenges&#45;&gt;classes -->
<g id="edge12" class="edge">
<title>daily_challenges:w&#45;&gt;classes:e</title>
<path fill="none" stroke="#000000" d="M657.0032,-414.4343C593.3809,-416.4356 559.1323,-429.458 510,-382.2 450.72,-325.1814 549.251,-202.2 467,-202.2"/>
<polygon fill="#000000" stroke="#000000" points="663.501,-414.3294 671.5582,-417.7995 667.5005,-414.2647 671.5,-414.2 671.5,-414.2 671.5,-414.2 667.5005,-414.2647 671.4418,-410.6005 663.501,-414.3294 663.501,-414.3294"/>
<ellipse fill="none" stroke="#000000" cx="660.3015" cy="-414.3811" rx="3.2" ry="3.2"/>
</g>
<!-- completed_normal_challenges -->
<g id="node8" class="node">
<title>completed_normal_challenges</title>
<g id="a_node8"><a xlink:href="../../tables/completed_normal_challenges.html" xlink:title="completed_normal_challenges" target="_top">
<polygon fill="#ffffff" stroke="transparent" points="850,-184.7 850,-245.7 1042,-245.7 1042,-184.7 850,-184.7"/>
<polygon fill="#f5f5f5" stroke="transparent" points="850,-222.2 850,-245.2 1042,-245.2 1042,-222.2 850,-222.2"/>
<polygon fill="none" stroke="#000000" points="850,-222.2 850,-245.2 1042,-245.2 1042,-222.2 850,-222.2"/>
<text text-anchor="start" x="854.9277" y="-231.3" font-family="Helvetica,sans-Serif" font-weight="bold" font-size="11.00" fill="#000000">completed_normal_challenges</text>
<text text-anchor="start" x="1007.5219" y="-230.3" font-family="Helvetica,sans-Serif" font-size="11.00" fill="#000000">[table]</text>
<polygon fill="none" stroke="#000000" points="850,-203.2 850,-222.2 1042,-222.2 1042,-203.2 850,-203.2"/>
<text text-anchor="start" x="853" y="-209.3" font-family="Helvetica,sans-Serif" font-size="11.00" fill="#000000">...</text>
<polygon fill="#ffffff" stroke="transparent" points="850,-184.2 850,-203.2 931,-203.2 931,-184.2 850,-184.2"/>
<polygon fill="none" stroke="#000000" points="850,-184.2 850,-203.2 931,-203.2 931,-184.2 850,-184.2"/>
<text text-anchor="start" x="853" y="-190.3" font-family="Helvetica,sans-Serif" font-size="11.00" fill="#000000">&lt; 3</text>
<polygon fill="#ffffff" stroke="transparent" points="931,-184.2 931,-203.2 999,-203.2 999,-184.2 931,-184.2"/>
<polygon fill="none" stroke="#000000" points="931,-184.2 931,-203.2 999,-203.2 999,-184.2 931,-184.2"/>
<text text-anchor="start" x="963.6105" y="-190.3" font-family="Helvetica,sans-Serif" font-size="11.00" fill="#000000">0 rows</text>
<polygon fill="#ffffff" stroke="transparent" points="999,-184.2 999,-203.2 1042,-203.2 1042,-184.2 999,-184.2"/>
<polygon fill="none" stroke="#000000" points="999,-184.2 999,-203.2 1042,-203.2 1042,-184.2 999,-184.2"/>
<text text-anchor="start" x="1032.8862" y="-190.3" font-family="Helvetica,sans-Serif" font-size="11.00" fill="#000000"> &#160;</text>
</a>
</g>
</g>
<!-- completed_normal_challenges&#45;&gt;gymnasts -->
<g id="edge8" class="edge">
<title>completed_normal_challenges:w&#45;&gt;gymnasts:e</title>
<path fill="none" stroke="#000000" d="M835.7515,-215.3367C808.4062,-229.3094 818.2376,-285.2 778.5,-285.2"/>
<polygon fill="#000000" stroke="#000000" points="842.1871,-213.92 850.774,-215.7158 846.0935,-213.06 850,-212.2 850,-212.2 850,-212.2 846.0935,-213.06 849.226,-208.6842 842.1871,-213.92 842.1871,-213.92"/>
<ellipse fill="none" stroke="#000000" cx="839.0619" cy="-214.608" rx="3.2" ry="3.2"/>
</g>
<!-- normal_challenges -->
<g id="node9" class="node">
<title>normal_challenges</title>
<g id="a_node9"><a xlink:href="../../tables/normal_challenges.html" xlink:title="normal_challenges" target="_top">
<polygon fill="#ffffff" stroke="transparent" points="666,-131.7 666,-236.7 801,-236.7 801,-131.7 666,-131.7"/>
<polygon fill="#f5f5f5" stroke="transparent" points="666.5,-213.2 666.5,-236.2 801.5,-236.2 801.5,-213.2 666.5,-213.2"/>
<polygon fill="none" stroke="#000000" points="666.5,-213.2 666.5,-236.2 801.5,-236.2 801.5,-213.2 666.5,-213.2"/>
<text text-anchor="start" x="671.3523" y="-222.3" font-family="Helvetica,sans-Serif" font-weight="bold" font-size="11.00" fill="#000000">normal_challenges</text>
<text text-anchor="start" x="767.0219" y="-221.3" font-family="Helvetica,sans-Serif" font-size="11.00" fill="#000000">[table]</text>
<polygon fill="none" stroke="#000000" points="666.5,-191.2 666.5,-213.2 801.5,-213.2 801.5,-191.2 666.5,-191.2"/>
<image xlink:href="../../images/primaryKeys.png" width="11px" height="12px" preserveAspectRatio="xMinYMin meet" x="671.5" y="-208.2"/>
<text text-anchor="start" x="689.5" y="-198.3" font-family="Helvetica,sans-Serif" font-size="11.00" fill="#000000">classes_id</text>
<polygon fill="none" stroke="#000000" points="666.5,-169.2 666.5,-191.2 801.5,-191.2 801.5,-169.2 666.5,-169.2"/>
<image xlink:href="../../images/primaryKeys.png" width="11px" height="12px" preserveAspectRatio="xMinYMin meet" x="671.5" y="-186.2"/>
<text text-anchor="start" x="689.5" y="-176.3" font-family="Helvetica,sans-Serif" font-size="11.00" fill="#000000">challenges_id</text>
<polygon fill="none" stroke="#000000" points="666.5,-150.2 666.5,-169.2 801.5,-169.2 801.5,-150.2 666.5,-150.2"/>
<text text-anchor="start" x="669.5" y="-156.3" font-family="Helvetica,sans-Serif" font-size="11.00" fill="#000000">...</text>
<polygon fill="#ffffff" stroke="transparent" points="666.5,-131.2 666.5,-150.2 714.5,-150.2 714.5,-131.2 666.5,-131.2"/>
<polygon fill="none" stroke="#000000" points="666.5,-131.2 666.5,-150.2 714.5,-150.2 714.5,-131.2 666.5,-131.2"/>
<text text-anchor="start" x="669.5" y="-137.3" font-family="Helvetica,sans-Serif" font-size="11.00" fill="#000000">&lt; 2</text>
<polygon fill="#ffffff" stroke="transparent" points="714.5,-131.2 714.5,-150.2 766.5,-150.2 766.5,-131.2 714.5,-131.2"/>
<polygon fill="none" stroke="#000000" points="714.5,-131.2 714.5,-150.2 766.5,-150.2 766.5,-131.2 714.5,-131.2"/>
<text text-anchor="start" x="731.1105" y="-137.3" font-family="Helvetica,sans-Serif" font-size="11.00" fill="#000000">0 rows</text>
<polygon fill="#ffffff" stroke="transparent" points="766.5,-131.2 766.5,-150.2 801.5,-150.2 801.5,-131.2 766.5,-131.2"/>
<polygon fill="none" stroke="#000000" points="766.5,-131.2 766.5,-150.2 801.5,-150.2 801.5,-131.2 766.5,-131.2"/>
<text text-anchor="start" x="782.9053" y="-137.3" font-family="Helvetica,sans-Serif" font-size="11.00" fill="#000000">2 &gt;</text>
</a>
</g>
</g>
<!-- completed_normal_challenges&#45;&gt;normal_challenges -->
<g id="edge9" class="edge">
<title>completed_normal_challenges:w&#45;&gt;normal_challenges:e</title>
<path fill="none" stroke="#000000" d="M835.8707,-207.7505C824.06,-198.9578 821.272,-180.2 801.5,-180.2"/>
<polygon fill="#000000" stroke="#000000" points="842.3694,-209.797 848.9187,-215.6338 846.1847,-210.9985 850,-212.2 850,-212.2 850,-212.2 846.1847,-210.9985 851.0813,-208.7662 842.3694,-209.797 842.3694,-209.797"/>
<ellipse fill="none" stroke="#000000" cx="839.3172" cy="-208.8358" rx="3.2" ry="3.2"/>
</g>
<!-- completed_normal_challenges&#45;&gt;normal_challenges -->
<g id="edge10" class="edge">
<title>completed_normal_challenges:w&#45;&gt;normal_challenges:e</title>
<path fill="none" stroke="#000000" d="M835.5146,-210.4581C824.3733,-207.5931 817.6628,-202.2 801.5,-202.2"/>
<polygon fill="#000000" stroke="#000000" points="842.0572,-211.2448 849.5702,-215.7743 846.0286,-211.7224 850,-212.2 850,-212.2 850,-212.2 846.0286,-211.7224 850.4298,-208.6257 842.0572,-211.2448 842.0572,-211.2448"/>
<ellipse fill="none" stroke="#000000" cx="838.8801" cy="-210.8628" rx="3.2" ry="3.2"/>
</g>
<!-- normal_challenges&#45;&gt;challenges -->
<g id="edge15" class="edge">
<title>normal_challenges:w&#45;&gt;challenges:e</title>
<path fill="none" stroke="#000000" d="M652.3236,-182.925C607.55,-203.773 684.8865,-337.2 617.5,-337.2"/>
<polygon fill="#000000" stroke="#000000" points="658.6438,-181.7102 667.1796,-183.7353 662.5719,-180.9551 666.5,-180.2 666.5,-180.2 666.5,-180.2 662.5719,-180.9551 665.8204,-176.6647 658.6438,-181.7102 658.6438,-181.7102"/>
<ellipse fill="none" stroke="#000000" cx="655.5014" cy="-182.3142" rx="3.2" ry="3.2"/>
</g>
<!-- normal_challenges&#45;&gt;classes -->
<g id="edge16" class="edge">
<title>normal_challenges:w&#45;&gt;classes:e</title>
<path fill="none" stroke="#000000" d="M652.0495,-202.2C575.1089,-202.2 550.6445,-202.2 467,-202.2"/>
<polygon fill="#000000" stroke="#000000" points="658.5,-202.2001 666.5,-205.8 662.5,-202.2 666.5,-202.2 666.5,-202.2 666.5,-202.2 662.5,-202.2 666.5,-198.6 658.5,-202.2001 658.5,-202.2001"/>
<ellipse fill="none" stroke="#000000" cx="655.3" cy="-202.2001" rx="3.2" ry="3.2"/>
</g>
<!-- gymnasts_has_classes -->
<g id="node10" class="node">
<title>gymnasts_has_classes</title>
<g id="a_node10"><a xlink:href="../../tables/gymnasts_has_classes.html" xlink:title="gymnasts_has_classes" target="_top">
<polygon fill="#ffffff" stroke="transparent" points="868,-77.2 868,-163.2 1024,-163.2 1024,-77.2 868,-77.2"/>
<polygon fill="#f5f5f5" stroke="transparent" points="868,-140.2 868,-163.2 1024,-163.2 1024,-140.2 868,-140.2"/>
<polygon fill="none" stroke="#000000" points="868,-140.2 868,-163.2 1024,-163.2 1024,-140.2 868,-140.2"/>
<text text-anchor="start" x="872.6531" y="-149.3" font-family="Helvetica,sans-Serif" font-weight="bold" font-size="11.00" fill="#000000">gymnasts_has_classes</text>
<text text-anchor="start" x="989.5219" y="-148.3" font-family="Helvetica,sans-Serif" font-size="11.00" fill="#000000">[table]</text>
<polygon fill="none" stroke="#000000" points="868,-118.2 868,-140.2 1024,-140.2 1024,-118.2 868,-118.2"/>
<image xlink:href="../../images/primaryKeys.png" width="11px" height="12px" preserveAspectRatio="xMinYMin meet" x="873" y="-135.2"/>
<text text-anchor="start" x="889" y="-125.3" font-family="Helvetica,sans-Serif" font-size="11.00" fill="#000000">gymnasts_id</text>
<polygon fill="none" stroke="#000000" points="868,-96.2 868,-118.2 1024,-118.2 1024,-96.2 868,-96.2"/>
<image xlink:href="../../images/primaryKeys.png" width="11px" height="12px" preserveAspectRatio="xMinYMin meet" x="873" y="-113.2"/>
<text text-anchor="start" x="889" y="-103.3" font-family="Helvetica,sans-Serif" font-size="11.00" fill="#000000">classes_id</text>
<polygon fill="#ffffff" stroke="transparent" points="868,-77.2 868,-96.2 931,-96.2 931,-77.2 868,-77.2"/>
<polygon fill="none" stroke="#000000" points="868,-77.2 868,-96.2 931,-96.2 931,-77.2 868,-77.2"/>
<text text-anchor="start" x="871" y="-83.3" font-family="Helvetica,sans-Serif" font-size="11.00" fill="#000000">&lt; 2</text>
<polygon fill="#ffffff" stroke="transparent" points="931,-77.2 931,-96.2 990,-96.2 990,-77.2 931,-77.2"/>
<polygon fill="none" stroke="#000000" points="931,-77.2 931,-96.2 990,-96.2 990,-77.2 931,-77.2"/>
<text text-anchor="start" x="954.6105" y="-83.3" font-family="Helvetica,sans-Serif" font-size="11.00" fill="#000000">0 rows</text>
<polygon fill="#ffffff" stroke="transparent" points="990,-77.2 990,-96.2 1024,-96.2 1024,-77.2 990,-77.2"/>
<polygon fill="none" stroke="#000000" points="990,-77.2 990,-96.2 1024,-96.2 1024,-77.2 990,-77.2"/>
<text text-anchor="start" x="1014.8862" y="-83.3" font-family="Helvetica,sans-Serif" font-size="11.00" fill="#000000"> &#160;</text>
</a>
</g>
</g>
<!-- gymnasts_has_classes&#45;&gt;classes -->
<g id="edge13" class="edge">
<title>gymnasts_has_classes:w&#45;&gt;classes:e</title>
<path fill="none" stroke="#000000" d="M853.496,-107.1393C771.535,-106.4603 744.1075,-100.6902 658,-121.2 568.3024,-142.5649 559.207,-202.2 467,-202.2"/>
<polygon fill="#000000" stroke="#000000" points="860.0001,-107.1665 867.9849,-110.8 864,-107.1832 868,-107.2 868,-107.2 868,-107.2 864,-107.1832 868.0151,-103.6 860.0001,-107.1665 860.0001,-107.1665"/>
<ellipse fill="none" stroke="#000000" cx="856.8001" cy="-107.1531" rx="3.2" ry="3.2"/>
</g>
<!-- gymnasts_has_classes&#45;&gt;gymnasts -->
<g id="edge14" class="edge">
<title>gymnasts_has_classes:w&#45;&gt;gymnasts:e</title>
<path fill="none" stroke="#000000" d="M853.6184,-131.2873C796.9845,-149.7991 852.9694,-285.2 778.5,-285.2"/>
<polygon fill="#000000" stroke="#000000" points="860.083,-130.3491 868.5171,-132.7627 864.0415,-129.7746 868,-129.2 868,-129.2 868,-129.2 864.0415,-129.7746 867.4829,-125.6373 860.083,-130.3491 860.083,-130.3491"/>
<ellipse fill="none" stroke="#000000" cx="856.9161" cy="-130.8087" rx="3.2" ry="3.2"/>
</g>
<!-- skill_lists_has_skills -->
<g id="node11" class="node">
<title>skill_lists_has_skills</title>
<g id="a_node11"><a xlink:href="../../tables/skill_lists_has_skills.html" xlink:title="skill_lists_has_skills" target="_top">
<polygon fill="#ffffff" stroke="transparent" points="296,-259.7 296,-320.7 436,-320.7 436,-259.7 296,-259.7"/>
<polygon fill="#f5f5f5" stroke="transparent" points="296,-297.2 296,-320.2 436,-320.2 436,-297.2 296,-297.2"/>
<polygon fill="none" stroke="#000000" points="296,-297.2 296,-320.2 436,-320.2 436,-297.2 296,-297.2"/>
<text text-anchor="start" x="300.9207" y="-306.3" font-family="Helvetica,sans-Serif" font-weight="bold" font-size="11.00" fill="#000000">skill_lists_has_skills</text>
<text text-anchor="start" x="401.5219" y="-305.3" font-family="Helvetica,sans-Serif" font-size="11.00" fill="#000000">[table]</text>
<polygon fill="none" stroke="#000000" points="296,-278.2 296,-297.2 436,-297.2 436,-278.2 296,-278.2"/>
<text text-anchor="start" x="299" y="-284.3" font-family="Helvetica,sans-Serif" font-size="11.00" fill="#000000">...</text>
<polygon fill="#ffffff" stroke="transparent" points="296,-259.2 296,-278.2 351,-278.2 351,-259.2 296,-259.2"/>
<polygon fill="none" stroke="#000000" points="296,-259.2 296,-278.2 351,-278.2 351,-259.2 296,-259.2"/>
<text text-anchor="start" x="299" y="-265.3" font-family="Helvetica,sans-Serif" font-size="11.00" fill="#000000">&lt; 2</text>
<polygon fill="#ffffff" stroke="transparent" points="351,-259.2 351,-278.2 406,-278.2 406,-259.2 351,-259.2"/>
<polygon fill="none" stroke="#000000" points="351,-259.2 351,-278.2 406,-278.2 406,-259.2 351,-259.2"/>
<text text-anchor="start" x="370.6105" y="-265.3" font-family="Helvetica,sans-Serif" font-size="11.00" fill="#000000">0 rows</text>
<polygon fill="#ffffff" stroke="transparent" points="406,-259.2 406,-278.2 436,-278.2 436,-259.2 406,-259.2"/>
<polygon fill="none" stroke="#000000" points="406,-259.2 406,-278.2 436,-278.2 436,-259.2 406,-259.2"/>
<text text-anchor="start" x="426.8862" y="-265.3" font-family="Helvetica,sans-Serif" font-size="11.00" fill="#000000"> &#160;</text>
</a>
</g>
</g>
<!-- skill_lists_has_skills&#45;&gt;skill_lists -->
<g id="edge18" class="edge">
<title>skill_lists_has_skills:w&#45;&gt;skill_lists:e</title>
<path fill="none" stroke="#000000" d="M281.3981,-287.1404C256.2472,-286.9252 245.037,-286.2 214,-286.2"/>
<polygon fill="#000000" stroke="#000000" points="288.0001,-287.1673 295.9853,-290.8 292,-287.1837 296,-287.2 296,-287.2 296,-287.2 292,-287.1837 296.0147,-283.6 288.0001,-287.1673 288.0001,-287.1673"/>
<ellipse fill="none" stroke="#000000" cx="284.8001" cy="-287.1542" rx="3.2" ry="3.2"/>
</g>
</g>
</svg>
