<?xml version="1.0" encoding="UTF-8" standalone="no"?>
<!DOCTYPE svg PUBLIC "-//W3C//DTD SVG 1.1//EN"
 "http://www.w3.org/Graphics/SVG/1.1/DTD/svg11.dtd">
<!-- Generated by graphviz version 2.40.1 (20161225.0304)
 -->
<!-- Title: oneDegreeRelationshipsDiagram Pages: 1 -->
<svg width="754pt" height="395pt"
 viewBox="0.00 0.00 754.00 395.20" xmlns="http://www.w3.org/2000/svg" xmlns:xlink="http://www.w3.org/1999/xlink">
<g id="graph0" class="graph" transform="scale(1 1) rotate(0) translate(4 391.2)">
<title>oneDegreeRelationshipsDiagram</title>
<polygon fill="#ffffff" stroke="transparent" points="-4,4 -4,-391.2 750,-391.2 750,4 -4,4"/>
<text text-anchor="middle" x="72.4936" y="-7.3" font-family="Helvetica,sans-Serif" font-size="11.00" fill="#000000">Generated by SchemaSpy</text>
<!-- challenges -->
<g id="node1" class="node">
<title>challenges</title>
<g id="a_node1"><a xlink:href="../../tables/challenges.html" xlink:title="challenges" target="_top">
<polygon fill="#ffffff" stroke="transparent" points="426.5,-216.7 426.5,-343.7 525.5,-343.7 525.5,-216.7 426.5,-216.7"/>
<polygon fill="#f5f5f5" stroke="transparent" points="427,-320.2 427,-343.2 526,-343.2 526,-320.2 427,-320.2"/>
<polygon fill="none" stroke="#000000" points="427,-320.2 427,-343.2 526,-343.2 526,-320.2 427,-320.2"/>
<text text-anchor="start" x="432" y="-329.3" font-family="Helvetica,sans-Serif" font-weight="bold" font-size="11.00" fill="#000000">challenges</text>
<text text-anchor="start" x="491.0437" y="-328.3" font-family="Helvetica,sans-Serif" font-size="11.00" fill="#000000">[table]</text>
<polygon fill="none" stroke="#000000" points="427,-298.2 427,-320.2 526,-320.2 526,-298.2 427,-298.2"/>
<image xlink:href="../../images/primaryKeys.png" width="11px" height="12px" preserveAspectRatio="xMinYMin meet" x="432" y="-315.2"/>
<text text-anchor="start" x="447" y="-305.3" font-family="Helvetica,sans-Serif" font-size="11.00" fill="#000000">id</text>
<polygon fill="#ffffff" stroke="transparent" points="427,-276.2 427,-298.2 526,-298.2 526,-276.2 427,-276.2"/>
<polygon fill="none" stroke="#000000" points="427,-276.2 427,-298.2 526,-298.2 526,-276.2 427,-276.2"/>
<image xlink:href="../../images/foreignKeys.png" width="11px" height="12px" preserveAspectRatio="xMinYMin meet" x="432" y="-293.2"/>
<text text-anchor="start" x="447" y="-283.3" font-family="Helvetica,sans-Serif" font-size="11.00" fill="#000000">gym_id</text>
<polygon fill="#ffffff" stroke="transparent" points="427,-254.2 427,-276.2 526,-276.2 526,-254.2 427,-254.2"/>
<polygon fill="none" stroke="#000000" points="427,-254.2 427,-276.2 526,-276.2 526,-254.2 427,-254.2"/>
<image xlink:href="../../images/foreignKeys.png" width="11px" height="12px" preserveAspectRatio="xMinYMin meet" x="432" y="-271.2"/>
<text text-anchor="start" x="447" y="-261.3" font-family="Helvetica,sans-Serif" font-size="11.00" fill="#000000">class_id</text>
<polygon fill="none" stroke="#000000" points="427,-235.2 427,-254.2 526,-254.2 526,-235.2 427,-235.2"/>
<text text-anchor="start" x="430" y="-241.3" font-family="Helvetica,sans-Serif" font-size="11.00" fill="#000000">...</text>
<polygon fill="#ffffff" stroke="transparent" points="427,-216.2 427,-235.2 457,-235.2 457,-216.2 427,-216.2"/>
<polygon fill="none" stroke="#000000" points="427,-216.2 427,-235.2 457,-235.2 457,-216.2 427,-216.2"/>
<text text-anchor="start" x="430" y="-222.3" font-family="Helvetica,sans-Serif" font-size="11.00" fill="#000000">&lt; 2</text>
<polygon fill="#ffffff" stroke="transparent" points="457,-216.2 457,-235.2 500,-235.2 500,-216.2 457,-216.2"/>
<polygon fill="none" stroke="#000000" points="457,-216.2 457,-235.2 500,-235.2 500,-216.2 457,-216.2"/>
<text text-anchor="start" x="464.6105" y="-222.3" font-family="Helvetica,sans-Serif" font-size="11.00" fill="#000000">0 rows</text>
<polygon fill="#ffffff" stroke="transparent" points="500,-216.2 500,-235.2 526,-235.2 526,-216.2 500,-216.2"/>
<polygon fill="none" stroke="#000000" points="500,-216.2 500,-235.2 526,-235.2 526,-216.2 500,-216.2"/>
<text text-anchor="start" x="507.4053" y="-222.3" font-family="Helvetica,sans-Serif" font-size="11.00" fill="#000000">2 &gt;</text>
</a>
</g>
</g>
<!-- classes -->
<g id="node2" class="node">
<title>classes</title>
<g id="a_node2"><a xlink:href="../../tables/classes.html" xlink:title="classes" target="_top">
<polygon fill="#ffffff" stroke="transparent" points="143,-38.2 143,-238.2 349,-238.2 349,-38.2 143,-38.2"/>
<polygon fill="#f5f5f5" stroke="transparent" points="145,-213.2 145,-236.2 347,-236.2 347,-213.2 145,-213.2"/>
<polygon fill="none" stroke="#000000" points="145,-213.2 145,-236.2 347,-236.2 347,-213.2 145,-213.2"/>
<text text-anchor="start" x="150" y="-222.3" font-family="Helvetica,sans-Serif" font-weight="bold" font-size="11.00" fill="#000000">classes</text>
<text text-anchor="start" x="312.0437" y="-221.3" font-family="Helvetica,sans-Serif" font-size="11.00" fill="#000000">[table]</text>
<polygon fill="none" stroke="#000000" points="145,-191.2 145,-213.2 230,-213.2 230,-191.2 145,-191.2"/>
<image xlink:href="../../images/primaryKeys.png" width="11px" height="12px" preserveAspectRatio="xMinYMin meet" x="150" y="-208.2"/>
<text text-anchor="start" x="165" y="-198.3" font-family="Helvetica,sans-Serif" font-size="11.00" fill="#000000">id</text>
<polygon fill="none" stroke="#000000" points="230,-191.2 230,-213.2 347,-213.2 347,-191.2 230,-191.2"/>
<text text-anchor="start" x="233" y="-198.9" font-family="Helvetica,sans-Serif" font-size="11.00" fill="#000000">bigint[19]</text>
<polygon fill="none" stroke="#000000" points="145,-169.2 145,-191.2 230,-191.2 230,-169.2 145,-169.2"/>
<text text-anchor="start" x="165" y="-176.3" font-family="Helvetica,sans-Serif" font-size="11.00" fill="#000000">name</text>
<polygon fill="none" stroke="#000000" points="230,-169.2 230,-191.2 347,-191.2 347,-169.2 230,-169.2"/>
<text text-anchor="start" x="233" y="-176.9" font-family="Helvetica,sans-Serif" font-size="11.00" fill="#000000">varchar[45]</text>
<polygon fill="none" stroke="#000000" points="145,-147.2 145,-169.2 230,-169.2 230,-147.2 145,-147.2"/>
<text text-anchor="start" x="165" y="-154.3" font-family="Helvetica,sans-Serif" font-size="11.00" fill="#000000">description</text>
<polygon fill="none" stroke="#000000" points="230,-147.2 230,-169.2 347,-169.2 347,-147.2 230,-147.2"/>
<text text-anchor="start" x="232.5645" y="-154.9" font-family="Helvetica,sans-Serif" font-size="11.00" fill="#000000">mediumtext[16777215]</text>
<polygon fill="#ffffff" stroke="transparent" points="145,-125.2 145,-147.2 230,-147.2 230,-125.2 145,-125.2"/>
<polygon fill="none" stroke="#000000" points="145,-125.2 145,-147.2 230,-147.2 230,-125.2 145,-125.2"/>
<image xlink:href="../../images/foreignKeys.png" width="11px" height="12px" preserveAspectRatio="xMinYMin meet" x="150" y="-142.2"/>
<text text-anchor="start" x="165" y="-132.3" font-family="Helvetica,sans-Serif" font-size="11.00" fill="#000000">skill_list_id</text>
<polygon fill="none" stroke="#000000" points="230,-125.2 230,-147.2 347,-147.2 347,-125.2 230,-125.2"/>
<text text-anchor="start" x="233" y="-132.9" font-family="Helvetica,sans-Serif" font-size="11.00" fill="#000000">bigint unsigned[20]</text>
<polygon fill="none" stroke="#000000" points="145,-103.2 145,-125.2 230,-125.2 230,-103.2 145,-103.2"/>
<text text-anchor="start" x="165" y="-110.3" font-family="Helvetica,sans-Serif" font-size="11.00" fill="#000000">created_at</text>
<polygon fill="none" stroke="#000000" points="230,-103.2 230,-125.2 347,-125.2 347,-103.2 230,-103.2"/>
<text text-anchor="start" x="233" y="-110.9" font-family="Helvetica,sans-Serif" font-size="11.00" fill="#000000">timestamp[19]</text>
<polygon fill="none" stroke="#000000" points="145,-81.2 145,-103.2 230,-103.2 230,-81.2 145,-81.2"/>
<text text-anchor="start" x="165" y="-88.3" font-family="Helvetica,sans-Serif" font-size="11.00" fill="#000000">updated_at</text>
<polygon fill="none" stroke="#000000" points="230,-81.2 230,-103.2 347,-103.2 347,-81.2 230,-81.2"/>
<text text-anchor="start" x="233" y="-88.9" font-family="Helvetica,sans-Serif" font-size="11.00" fill="#000000">timestamp[19]</text>
<polygon fill="none" stroke="#000000" points="145,-59.2 145,-81.2 230,-81.2 230,-59.2 145,-59.2"/>
<text text-anchor="start" x="165" y="-66.3" font-family="Helvetica,sans-Serif" font-size="11.00" fill="#000000">deleted_at</text>
<polygon fill="none" stroke="#000000" points="230,-59.2 230,-81.2 347,-81.2 347,-59.2 230,-59.2"/>
<text text-anchor="start" x="233" y="-66.9" font-family="Helvetica,sans-Serif" font-size="11.00" fill="#000000">timestamp[19]</text>
<polygon fill="#ffffff" stroke="transparent" points="145,-40.2 145,-59.2 179,-59.2 179,-40.2 145,-40.2"/>
<polygon fill="none" stroke="#000000" points="145,-40.2 145,-59.2 179,-59.2 179,-40.2 145,-40.2"/>
<text text-anchor="start" x="148" y="-46.3" font-family="Helvetica,sans-Serif" font-size="11.00" fill="#000000">&lt; 1</text>
<polygon fill="#ffffff" stroke="transparent" points="179,-40.2 179,-59.2 230,-59.2 230,-40.2 179,-40.2"/>
<polygon fill="none" stroke="#000000" points="179,-40.2 179,-59.2 230,-59.2 230,-40.2 179,-40.2"/>
<text text-anchor="start" x="194.6105" y="-46.3" font-family="Helvetica,sans-Serif" font-size="11.00" fill="#000000">0 rows</text>
<polygon fill="#ffffff" stroke="transparent" points="230,-40.2 230,-59.2 347,-59.2 347,-40.2 230,-40.2"/>
<polygon fill="none" stroke="#000000" points="230,-40.2 230,-59.2 347,-59.2 347,-40.2 230,-40.2"/>
<text text-anchor="start" x="328.4053" y="-46.3" font-family="Helvetica,sans-Serif" font-size="11.00" fill="#000000">4 &gt;</text>
<polygon fill="none" stroke="#000000" stroke-width="2" points="144,-39.2 144,-237.2 348,-237.2 348,-39.2 144,-39.2"/>
</a>
</g>
</g>
<!-- challenges&#45;&gt;classes -->
<g id="edge1" class="edge">
<title>challenges:w&#45;&gt;classes:e</title>
<path fill="none" stroke="#000000" d="M412.8143,-262.6523C383.4715,-250.866 386.7767,-202.2 347,-202.2"/>
<polygon fill="#000000" stroke="#000000" points="419.126,-263.7858 426.3636,-268.7433 423.063,-264.4929 427,-265.2 427,-265.2 427,-265.2 423.063,-264.4929 427.6364,-261.6567 419.126,-263.7858 419.126,-263.7858"/>
<ellipse fill="none" stroke="#000000" cx="415.9764" cy="-263.2201" rx="3.2" ry="3.2"/>
</g>
<!-- skill_lists -->
<g id="node3" class="node">
<title>skill_lists</title>
<g id="a_node3"><a xlink:href="../../tables/skill_lists.html" xlink:title="skill_lists" target="_top">
<polygon fill="#ffffff" stroke="transparent" points="8,-65.7 8,-170.7 94,-170.7 94,-65.7 8,-65.7"/>
<polygon fill="#f5f5f5" stroke="transparent" points="8,-147.2 8,-170.2 94,-170.2 94,-147.2 8,-147.2"/>
<polygon fill="none" stroke="#000000" points="8,-147.2 8,-170.2 94,-170.2 94,-147.2 8,-147.2"/>
<text text-anchor="start" x="12.8119" y="-156.3" font-family="Helvetica,sans-Serif" font-weight="bold" font-size="11.00" fill="#000000">skill_lists</text>
<text text-anchor="start" x="59.5219" y="-155.3" font-family="Helvetica,sans-Serif" font-size="11.00" fill="#000000">[table]</text>
<polygon fill="none" stroke="#000000" points="8,-125.2 8,-147.2 94,-147.2 94,-125.2 8,-125.2"/>
<image xlink:href="../../images/primaryKeys.png" width="11px" height="12px" preserveAspectRatio="xMinYMin meet" x="13" y="-142.2"/>
<text text-anchor="start" x="29" y="-132.3" font-family="Helvetica,sans-Serif" font-size="11.00" fill="#000000">id</text>
<polygon fill="#ffffff" stroke="transparent" points="8,-103.2 8,-125.2 94,-125.2 94,-103.2 8,-103.2"/>
<polygon fill="none" stroke="#000000" points="8,-103.2 8,-125.2 94,-125.2 94,-103.2 8,-103.2"/>
<image xlink:href="../../images/foreignKeys.png" width="11px" height="12px" preserveAspectRatio="xMinYMin meet" x="13" y="-120.2"/>
<text text-anchor="start" x="29" y="-110.3" font-family="Helvetica,sans-Serif" font-size="11.00" fill="#000000">gym_id</text>
<polygon fill="none" stroke="#000000" points="8,-84.2 8,-103.2 94,-103.2 94,-84.2 8,-84.2"/>
<text text-anchor="start" x="11" y="-90.3" font-family="Helvetica,sans-Serif" font-size="11.00" fill="#000000">...</text>
<polygon fill="#ffffff" stroke="transparent" points="8,-65.2 8,-84.2 32,-84.2 32,-65.2 8,-65.2"/>
<polygon fill="none" stroke="#000000" points="8,-65.2 8,-84.2 32,-84.2 32,-65.2 8,-65.2"/>
<text text-anchor="start" x="11" y="-71.3" font-family="Helvetica,sans-Serif" font-size="11.00" fill="#000000">&lt; 1</text>
<polygon fill="#ffffff" stroke="transparent" points="32,-65.2 32,-84.2 71,-84.2 71,-65.2 32,-65.2"/>
<polygon fill="none" stroke="#000000" points="32,-65.2 32,-84.2 71,-84.2 71,-65.2 32,-65.2"/>
<text text-anchor="start" x="35.6105" y="-71.3" font-family="Helvetica,sans-Serif" font-size="11.00" fill="#000000">0 rows</text>
<polygon fill="#ffffff" stroke="transparent" points="71,-65.2 71,-84.2 94,-84.2 94,-65.2 71,-65.2"/>
<polygon fill="none" stroke="#000000" points="71,-65.2 71,-84.2 94,-84.2 94,-65.2 71,-65.2"/>
<text text-anchor="start" x="75.4053" y="-71.3" font-family="Helvetica,sans-Serif" font-size="11.00" fill="#000000">2 &gt;</text>
</a>
</g>
</g>
<!-- classes&#45;&gt;skill_lists -->
<g id="edge2" class="edge">
<title>classes:w&#45;&gt;skill_lists:e</title>
<path fill="none" stroke="#000000" d="M130.276,-136.2C118.2815,-136.2 110.8229,-136.2 94,-136.2"/>
<polygon fill="#000000" stroke="#000000" points="137,-136.2001 145,-139.8 141,-136.2 145,-136.2 145,-136.2 145,-136.2 141,-136.2 145,-132.6 137,-136.2001 137,-136.2001"/>
<ellipse fill="none" stroke="#000000" cx="133.8" cy="-136.2001" rx="3.2" ry="3.2"/>
</g>
<!-- daily_challenges -->
<g id="node4" class="node">
<title>daily_challenges</title>
<g id="a_node4"><a xlink:href="../../tables/daily_challenges.html" xlink:title="daily_challenges" target="_top">
<polygon fill="#ffffff" stroke="transparent" points="608.5,-275.2 608.5,-383.2 732.5,-383.2 732.5,-275.2 608.5,-275.2"/>
<polygon fill="#f5f5f5" stroke="transparent" points="608.5,-360.2 608.5,-383.2 732.5,-383.2 732.5,-360.2 608.5,-360.2"/>
<polygon fill="none" stroke="#000000" points="608.5,-360.2 608.5,-383.2 732.5,-383.2 732.5,-360.2 608.5,-360.2"/>
<text text-anchor="start" x="613.3512" y="-369.3" font-family="Helvetica,sans-Serif" font-weight="bold" font-size="11.00" fill="#000000">daily_challenges</text>
<text text-anchor="start" x="698.0219" y="-368.3" font-family="Helvetica,sans-Serif" font-size="11.00" fill="#000000">[table]</text>
<polygon fill="none" stroke="#000000" points="608.5,-338.2 608.5,-360.2 732.5,-360.2 732.5,-338.2 608.5,-338.2"/>
<image xlink:href="../../images/primaryKeys.png" width="11px" height="12px" preserveAspectRatio="xMinYMin meet" x="613.5" y="-355.2"/>
<text text-anchor="start" x="632.5" y="-345.3" font-family="Helvetica,sans-Serif" font-size="11.00" fill="#000000">classes_id</text>
<polygon fill="none" stroke="#000000" points="608.5,-316.2 608.5,-338.2 732.5,-338.2 732.5,-316.2 608.5,-316.2"/>
<image xlink:href="../../images/primaryKeys.png" width="11px" height="12px" preserveAspectRatio="xMinYMin meet" x="613.5" y="-333.2"/>
<text text-anchor="start" x="632.5" y="-323.3" font-family="Helvetica,sans-Serif" font-size="11.00" fill="#000000">challenges_id</text>
<polygon fill="none" stroke="#000000" points="608.5,-294.2 608.5,-316.2 732.5,-316.2 732.5,-294.2 608.5,-294.2"/>
<image xlink:href="../../images/primaryKeys.png" width="11px" height="12px" preserveAspectRatio="xMinYMin meet" x="613.5" y="-311.2"/>
<text text-anchor="start" x="632.5" y="-301.3" font-family="Helvetica,sans-Serif" font-size="11.00" fill="#000000">date</text>
<polygon fill="#ffffff" stroke="transparent" points="608.5,-275.2 608.5,-294.2 651.5,-294.2 651.5,-275.2 608.5,-275.2"/>
<polygon fill="none" stroke="#000000" points="608.5,-275.2 608.5,-294.2 651.5,-294.2 651.5,-275.2 608.5,-275.2"/>
<text text-anchor="start" x="611.5" y="-281.3" font-family="Helvetica,sans-Serif" font-size="11.00" fill="#000000">&lt; 2</text>
<polygon fill="#ffffff" stroke="transparent" points="651.5,-275.2 651.5,-294.2 700.5,-294.2 700.5,-275.2 651.5,-275.2"/>
<polygon fill="none" stroke="#000000" points="651.5,-275.2 651.5,-294.2 700.5,-294.2 700.5,-275.2 651.5,-275.2"/>
<text text-anchor="start" x="665.1105" y="-281.3" font-family="Helvetica,sans-Serif" font-size="11.00" fill="#000000">0 rows</text>
<polygon fill="#ffffff" stroke="transparent" points="700.5,-275.2 700.5,-294.2 732.5,-294.2 732.5,-275.2 700.5,-275.2"/>
<polygon fill="none" stroke="#000000" points="700.5,-275.2 700.5,-294.2 732.5,-294.2 732.5,-275.2 700.5,-275.2"/>
<text text-anchor="start" x="713.9053" y="-281.3" font-family="Helvetica,sans-Serif" font-size="11.00" fill="#000000">3 &gt;</text>
</a>
</g>
</g>
<!-- daily_challenges&#45;&gt;challenges -->
<g id="edge3" class="edge">
<title>daily_challenges:w&#45;&gt;challenges:e</title>
<path fill="none" stroke="#000000" d="M593.9314,-326.1807C568.1912,-322.3729 558.1051,-309.2 526,-309.2"/>
<polygon fill="#000000" stroke="#000000" points="600.5195,-326.6416 608.2487,-330.7912 604.5098,-326.9208 608.5,-327.2 608.5,-327.2 608.5,-327.2 604.5098,-326.9208 608.7513,-323.6088 600.5195,-326.6416 600.5195,-326.6416"/>
<ellipse fill="none" stroke="#000000" cx="597.3273" cy="-326.4182" rx="3.2" ry="3.2"/>
</g>
<!-- daily_challenges&#45;&gt;classes -->
<g id="edge4" class="edge">
<title>daily_challenges:w&#45;&gt;classes:e</title>
<path fill="none" stroke="#000000" d="M594.0144,-349.9743C583.6756,-351.1671 576.9184,-353.4002 562,-354.2 485.6652,-358.2922 450.9692,-400.3141 390,-354.2 334.0057,-311.8487 417.2067,-202.2 347,-202.2"/>
<polygon fill="#000000" stroke="#000000" points="600.5114,-349.627 608.6922,-352.7949 604.5057,-349.4135 608.5,-349.2 608.5,-349.2 608.5,-349.2 604.5057,-349.4135 608.3078,-345.6051 600.5114,-349.627 600.5114,-349.627"/>
<ellipse fill="none" stroke="#000000" cx="597.316" cy="-349.7979" rx="3.2" ry="3.2"/>
</g>
<!-- gymnasts_has_classes -->
<g id="node5" class="node">
<title>gymnasts_has_classes</title>
<g id="a_node5"><a xlink:href="../../tables/gymnasts_has_classes.html" xlink:title="gymnasts_has_classes" target="_top">
<polygon fill="#ffffff" stroke="transparent" points="398,-109.2 398,-195.2 554,-195.2 554,-109.2 398,-109.2"/>
<polygon fill="#f5f5f5" stroke="transparent" points="398,-172.2 398,-195.2 554,-195.2 554,-172.2 398,-172.2"/>
<polygon fill="none" stroke="#000000" points="398,-172.2 398,-195.2 554,-195.2 554,-172.2 398,-172.2"/>
<text text-anchor="start" x="402.6531" y="-181.3" font-family="Helvetica,sans-Serif" font-weight="bold" font-size="11.00" fill="#000000">gymnasts_has_classes</text>
<text text-anchor="start" x="519.5219" y="-180.3" font-family="Helvetica,sans-Serif" font-size="11.00" fill="#000000">[table]</text>
<polygon fill="none" stroke="#000000" points="398,-150.2 398,-172.2 554,-172.2 554,-150.2 398,-150.2"/>
<image xlink:href="../../images/primaryKeys.png" width="11px" height="12px" preserveAspectRatio="xMinYMin meet" x="403" y="-167.2"/>
<text text-anchor="start" x="419" y="-157.3" font-family="Helvetica,sans-Serif" font-size="11.00" fill="#000000">gymnasts_id</text>
<polygon fill="none" stroke="#000000" points="398,-128.2 398,-150.2 554,-150.2 554,-128.2 398,-128.2"/>
<image xlink:href="../../images/primaryKeys.png" width="11px" height="12px" preserveAspectRatio="xMinYMin meet" x="403" y="-145.2"/>
<text text-anchor="start" x="419" y="-135.3" font-family="Helvetica,sans-Serif" font-size="11.00" fill="#000000">classes_id</text>
<polygon fill="#ffffff" stroke="transparent" points="398,-109.2 398,-128.2 461,-128.2 461,-109.2 398,-109.2"/>
<polygon fill="none" stroke="#000000" points="398,-109.2 398,-128.2 461,-128.2 461,-109.2 398,-109.2"/>
<text text-anchor="start" x="401" y="-115.3" font-family="Helvetica,sans-Serif" font-size="11.00" fill="#000000">&lt; 2</text>
<polygon fill="#ffffff" stroke="transparent" points="461,-109.2 461,-128.2 520,-128.2 520,-109.2 461,-109.2"/>
<polygon fill="none" stroke="#000000" points="461,-109.2 461,-128.2 520,-128.2 520,-109.2 461,-109.2"/>
<text text-anchor="start" x="484.6105" y="-115.3" font-family="Helvetica,sans-Serif" font-size="11.00" fill="#000000">0 rows</text>
<polygon fill="#ffffff" stroke="transparent" points="520,-109.2 520,-128.2 554,-128.2 554,-109.2 520,-109.2"/>
<polygon fill="none" stroke="#000000" points="520,-109.2 520,-128.2 554,-128.2 554,-109.2 520,-109.2"/>
<text text-anchor="start" x="544.8862" y="-115.3" font-family="Helvetica,sans-Serif" font-size="11.00" fill="#000000"> &#160;</text>
</a>
</g>
</g>
<!-- gymnasts_has_classes&#45;&gt;classes -->
<g id="edge5" class="edge">
<title>gymnasts_has_classes:w&#45;&gt;classes:e</title>
<path fill="none" stroke="#000000" d="M383.9033,-144.1435C367.525,-158.9952 376.8329,-202.2 347,-202.2"/>
<polygon fill="#000000" stroke="#000000" points="390.4507,-141.8474 399.1913,-142.5972 394.2254,-140.5237 398,-139.2 398,-139.2 398,-139.2 394.2254,-140.5237 396.8087,-135.8028 390.4507,-141.8474 390.4507,-141.8474"/>
<ellipse fill="none" stroke="#000000" cx="387.431" cy="-142.9064" rx="3.2" ry="3.2"/>
</g>
<!-- normal_challenges -->
<g id="node6" class="node">
<title>normal_challenges</title>
<g id="a_node6"><a xlink:href="../../tables/normal_challenges.html" xlink:title="normal_challenges" target="_top">
<polygon fill="#ffffff" stroke="transparent" points="603,-72.7 603,-177.7 738,-177.7 738,-72.7 603,-72.7"/>
<polygon fill="#f5f5f5" stroke="transparent" points="603.5,-154.2 603.5,-177.2 738.5,-177.2 738.5,-154.2 603.5,-154.2"/>
<polygon fill="none" stroke="#000000" points="603.5,-154.2 603.5,-177.2 738.5,-177.2 738.5,-154.2 603.5,-154.2"/>
<text text-anchor="start" x="608.3523" y="-163.3" font-family="Helvetica,sans-Serif" font-weight="bold" font-size="11.00" fill="#000000">normal_challenges</text>
<text text-anchor="start" x="704.0219" y="-162.3" font-family="Helvetica,sans-Serif" font-size="11.00" fill="#000000">[table]</text>
<polygon fill="none" stroke="#000000" points="603.5,-132.2 603.5,-154.2 738.5,-154.2 738.5,-132.2 603.5,-132.2"/>
<image xlink:href="../../images/primaryKeys.png" width="11px" height="12px" preserveAspectRatio="xMinYMin meet" x="608.5" y="-149.2"/>
<text text-anchor="start" x="626.5" y="-139.3" font-family="Helvetica,sans-Serif" font-size="11.00" fill="#000000">classes_id</text>
<polygon fill="none" stroke="#000000" points="603.5,-110.2 603.5,-132.2 738.5,-132.2 738.5,-110.2 603.5,-110.2"/>
<image xlink:href="../../images/primaryKeys.png" width="11px" height="12px" preserveAspectRatio="xMinYMin meet" x="608.5" y="-127.2"/>
<text text-anchor="start" x="626.5" y="-117.3" font-family="Helvetica,sans-Serif" font-size="11.00" fill="#000000">challenges_id</text>
<polygon fill="none" stroke="#000000" points="603.5,-91.2 603.5,-110.2 738.5,-110.2 738.5,-91.2 603.5,-91.2"/>
<text text-anchor="start" x="606.5" y="-97.3" font-family="Helvetica,sans-Serif" font-size="11.00" fill="#000000">...</text>
<polygon fill="#ffffff" stroke="transparent" points="603.5,-72.2 603.5,-91.2 651.5,-91.2 651.5,-72.2 603.5,-72.2"/>
<polygon fill="none" stroke="#000000" points="603.5,-72.2 603.5,-91.2 651.5,-91.2 651.5,-72.2 603.5,-72.2"/>
<text text-anchor="start" x="606.5" y="-78.3" font-family="Helvetica,sans-Serif" font-size="11.00" fill="#000000">&lt; 2</text>
<polygon fill="#ffffff" stroke="transparent" points="651.5,-72.2 651.5,-91.2 703.5,-91.2 703.5,-72.2 651.5,-72.2"/>
<polygon fill="none" stroke="#000000" points="651.5,-72.2 651.5,-91.2 703.5,-91.2 703.5,-72.2 651.5,-72.2"/>
<text text-anchor="start" x="668.1105" y="-78.3" font-family="Helvetica,sans-Serif" font-size="11.00" fill="#000000">0 rows</text>
<polygon fill="#ffffff" stroke="transparent" points="703.5,-72.2 703.5,-91.2 738.5,-91.2 738.5,-72.2 703.5,-72.2"/>
<polygon fill="none" stroke="#000000" points="703.5,-72.2 703.5,-91.2 738.5,-91.2 738.5,-72.2 703.5,-72.2"/>
<text text-anchor="start" x="719.9053" y="-78.3" font-family="Helvetica,sans-Serif" font-size="11.00" fill="#000000">2 &gt;</text>
</a>
</g>
</g>
<!-- normal_challenges&#45;&gt;challenges -->
<g id="edge6" class="edge">
<title>normal_challenges:w&#45;&gt;challenges:e</title>
<path fill="none" stroke="#000000" d="M589.1275,-123.1841C524.9168,-143.2764 610.9047,-309.2 526,-309.2"/>
<polygon fill="#000000" stroke="#000000" points="595.5752,-122.2941 603.9923,-124.7662 599.5376,-121.747 603.5,-121.2 603.5,-121.2 603.5,-121.2 599.5376,-121.747 603.0077,-117.6338 595.5752,-122.2941 595.5752,-122.2941"/>
<ellipse fill="none" stroke="#000000" cx="592.4052" cy="-122.7317" rx="3.2" ry="3.2"/>
</g>
<!-- normal_challenges&#45;&gt;classes -->
<g id="edge7" class="edge">
<title>normal_challenges:w&#45;&gt;classes:e</title>
<path fill="none" stroke="#000000" d="M589.7643,-138.4256C579.4272,-128.8138 580.8974,-107.3531 562,-99.2 491.8096,-68.9169 453.6202,-56.8182 390,-99.2 348.7151,-126.7027 396.6068,-202.2 347,-202.2"/>
<polygon fill="#000000" stroke="#000000" points="595.9435,-140.5734 602.318,-146.6004 599.7217,-141.8867 603.5,-143.2 603.5,-143.2 603.5,-143.2 599.7217,-141.8867 604.682,-139.7996 595.9435,-140.5734 595.9435,-140.5734"/>
<ellipse fill="none" stroke="#000000" cx="592.9209" cy="-139.5227" rx="3.2" ry="3.2"/>
</g>
</g>
</svg>
