<?xml version="1.0" encoding="UTF-8" standalone="no"?>
<!DOCTYPE svg PUBLIC "-//W3C//DTD SVG 1.1//EN"
 "http://www.w3.org/Graphics/SVG/1.1/DTD/svg11.dtd">
<!-- Generated by graphviz version 2.40.1 (20161225.0304)
 -->
<!-- Title: oneDegreeRelationshipsDiagram Pages: 1 -->
<svg width="549pt" height="399pt"
 viewBox="0.00 0.00 549.00 399.20" xmlns="http://www.w3.org/2000/svg" xmlns:xlink="http://www.w3.org/1999/xlink">
<g id="graph0" class="graph" transform="scale(1 1) rotate(0) translate(4 395.2)">
<title>oneDegreeRelationshipsDiagram</title>
<polygon fill="#ffffff" stroke="transparent" points="-4,4 -4,-395.2 545,-395.2 545,4 -4,4"/>
<text text-anchor="middle" x="72.4936" y="-7.3" font-family="Helvetica,sans-Serif" font-size="11.00" fill="#000000">Generated by SchemaSpy</text>
<!-- classes -->
<g id="node1" class="node">
<title>classes</title>
<g id="a_node1"><a xlink:href="../../tables/classes.html" xlink:title="classes" target="_top">
<polygon fill="#ffffff" stroke="transparent" points="143,-38.2 143,-238.2 349,-238.2 349,-38.2 143,-38.2"/>
<polygon fill="#f5f5f5" stroke="transparent" points="145,-213.2 145,-236.2 347,-236.2 347,-213.2 145,-213.2"/>
<polygon fill="none" stroke="#000000" points="145,-213.2 145,-236.2 347,-236.2 347,-213.2 145,-213.2"/>
<text text-anchor="start" x="150" y="-222.3" font-family="Helvetica,sans-Serif" font-weight="bold" font-size="11.00" fill="#000000">classes</text>
<text text-anchor="start" x="312.0437" y="-221.3" font-family="Helvetica,sans-Serif" font-size="11.00" fill="#000000">[table]</text>
<polygon fill="none" stroke="#000000" points="145,-191.2 145,-213.2 230,-213.2 230,-191.2 145,-191.2"/>
<image xlink:href="../../images/primaryKeys.png" width="11px" height="12px" preserveAspectRatio="xMinYMin meet" x="150" y="-208.2"/>
<text text-anchor="start" x="165" y="-198.3" font-family="Helvetica,sans-Serif" font-size="11.00" fill="#000000">id</text>
<polygon fill="none" stroke="#000000" points="230,-191.2 230,-213.2 347,-213.2 347,-191.2 230,-191.2"/>
<text text-anchor="start" x="233" y="-198.9" font-family="Helvetica,sans-Serif" font-size="11.00" fill="#000000">int[10]</text>
<polygon fill="none" stroke="#000000" points="145,-169.2 145,-191.2 230,-191.2 230,-169.2 145,-169.2"/>
<text text-anchor="start" x="165" y="-176.3" font-family="Helvetica,sans-Serif" font-size="11.00" fill="#000000">name</text>
<polygon fill="none" stroke="#000000" points="230,-169.2 230,-191.2 347,-191.2 347,-169.2 230,-169.2"/>
<text text-anchor="start" x="233" y="-176.9" font-family="Helvetica,sans-Serif" font-size="11.00" fill="#000000">varchar[45]</text>
<polygon fill="none" stroke="#000000" points="145,-147.2 145,-169.2 230,-169.2 230,-147.2 145,-147.2"/>
<text text-anchor="start" x="165" y="-154.3" font-family="Helvetica,sans-Serif" font-size="11.00" fill="#000000">description</text>
<polygon fill="none" stroke="#000000" points="230,-147.2 230,-169.2 347,-169.2 347,-147.2 230,-147.2"/>
<text text-anchor="start" x="232.5645" y="-154.9" font-family="Helvetica,sans-Serif" font-size="11.00" fill="#000000">mediumtext[16777215]</text>
<polygon fill="#ffffff" stroke="transparent" points="145,-125.2 145,-147.2 230,-147.2 230,-125.2 145,-125.2"/>
<polygon fill="none" stroke="#000000" points="145,-125.2 145,-147.2 230,-147.2 230,-125.2 145,-125.2"/>
<image xlink:href="../../images/foreignKeys.png" width="11px" height="12px" preserveAspectRatio="xMinYMin meet" x="150" y="-142.2"/>
<text text-anchor="start" x="165" y="-132.3" font-family="Helvetica,sans-Serif" font-size="11.00" fill="#000000">skill_list_id</text>
<polygon fill="none" stroke="#000000" points="230,-125.2 230,-147.2 347,-147.2 347,-125.2 230,-125.2"/>
<text text-anchor="start" x="233" y="-132.9" font-family="Helvetica,sans-Serif" font-size="11.00" fill="#000000">bigint unsigned[20]</text>
<polygon fill="none" stroke="#000000" points="145,-103.2 145,-125.2 230,-125.2 230,-103.2 145,-103.2"/>
<text text-anchor="start" x="165" y="-110.3" font-family="Helvetica,sans-Serif" font-size="11.00" fill="#000000">created_at</text>
<polygon fill="none" stroke="#000000" points="230,-103.2 230,-125.2 347,-125.2 347,-103.2 230,-103.2"/>
<text text-anchor="start" x="233" y="-110.9" font-family="Helvetica,sans-Serif" font-size="11.00" fill="#000000">timestamp[19]</text>
<polygon fill="none" stroke="#000000" points="145,-81.2 145,-103.2 230,-103.2 230,-81.2 145,-81.2"/>
<text text-anchor="start" x="165" y="-88.3" font-family="Helvetica,sans-Serif" font-size="11.00" fill="#000000">updated_at</text>
<polygon fill="none" stroke="#000000" points="230,-81.2 230,-103.2 347,-103.2 347,-81.2 230,-81.2"/>
<text text-anchor="start" x="233" y="-88.9" font-family="Helvetica,sans-Serif" font-size="11.00" fill="#000000">timestamp[19]</text>
<polygon fill="none" stroke="#000000" points="145,-59.2 145,-81.2 230,-81.2 230,-59.2 145,-59.2"/>
<text text-anchor="start" x="165" y="-66.3" font-family="Helvetica,sans-Serif" font-size="11.00" fill="#000000">deleted_at</text>
<polygon fill="none" stroke="#000000" points="230,-59.2 230,-81.2 347,-81.2 347,-59.2 230,-59.2"/>
<text text-anchor="start" x="233" y="-66.9" font-family="Helvetica,sans-Serif" font-size="11.00" fill="#000000">timestamp[19]</text>
<polygon fill="#ffffff" stroke="transparent" points="145,-40.2 145,-59.2 179,-59.2 179,-40.2 145,-40.2"/>
<polygon fill="none" stroke="#000000" points="145,-40.2 145,-59.2 179,-59.2 179,-40.2 145,-40.2"/>
<text text-anchor="start" x="148" y="-46.3" font-family="Helvetica,sans-Serif" font-size="11.00" fill="#000000">&lt; 1</text>
<polygon fill="#ffffff" stroke="transparent" points="179,-40.2 179,-59.2 230,-59.2 230,-40.2 179,-40.2"/>
<polygon fill="none" stroke="#000000" points="179,-40.2 179,-59.2 230,-59.2 230,-40.2 179,-40.2"/>
<text text-anchor="start" x="194.6105" y="-46.3" font-family="Helvetica,sans-Serif" font-size="11.00" fill="#000000">0 rows</text>
<polygon fill="#ffffff" stroke="transparent" points="230,-40.2 230,-59.2 347,-59.2 347,-40.2 230,-40.2"/>
<polygon fill="none" stroke="#000000" points="230,-40.2 230,-59.2 347,-59.2 347,-40.2 230,-40.2"/>
<text text-anchor="start" x="328.4053" y="-46.3" font-family="Helvetica,sans-Serif" font-size="11.00" fill="#000000">3 &gt;</text>
<polygon fill="none" stroke="#000000" stroke-width="2" points="144,-39.2 144,-237.2 348,-237.2 348,-39.2 144,-39.2"/>
</a>
</g>
</g>
<!-- skill_lists -->
<g id="node2" class="node">
<title>skill_lists</title>
<g id="a_node2"><a xlink:href="../../tables/skill_lists.html" xlink:title="skill_lists" target="_top">
<polygon fill="#ffffff" stroke="transparent" points="8,-65.7 8,-170.7 94,-170.7 94,-65.7 8,-65.7"/>
<polygon fill="#f5f5f5" stroke="transparent" points="8,-147.2 8,-170.2 94,-170.2 94,-147.2 8,-147.2"/>
<polygon fill="none" stroke="#000000" points="8,-147.2 8,-170.2 94,-170.2 94,-147.2 8,-147.2"/>
<text text-anchor="start" x="12.8119" y="-156.3" font-family="Helvetica,sans-Serif" font-weight="bold" font-size="11.00" fill="#000000">skill_lists</text>
<text text-anchor="start" x="59.5219" y="-155.3" font-family="Helvetica,sans-Serif" font-size="11.00" fill="#000000">[table]</text>
<polygon fill="none" stroke="#000000" points="8,-125.2 8,-147.2 94,-147.2 94,-125.2 8,-125.2"/>
<image xlink:href="../../images/primaryKeys.png" width="11px" height="12px" preserveAspectRatio="xMinYMin meet" x="13" y="-142.2"/>
<text text-anchor="start" x="29" y="-132.3" font-family="Helvetica,sans-Serif" font-size="11.00" fill="#000000">id</text>
<polygon fill="#ffffff" stroke="transparent" points="8,-103.2 8,-125.2 94,-125.2 94,-103.2 8,-103.2"/>
<polygon fill="none" stroke="#000000" points="8,-103.2 8,-125.2 94,-125.2 94,-103.2 8,-103.2"/>
<image xlink:href="../../images/foreignKeys.png" width="11px" height="12px" preserveAspectRatio="xMinYMin meet" x="13" y="-120.2"/>
<text text-anchor="start" x="29" y="-110.3" font-family="Helvetica,sans-Serif" font-size="11.00" fill="#000000">gym_id</text>
<polygon fill="none" stroke="#000000" points="8,-84.2 8,-103.2 94,-103.2 94,-84.2 8,-84.2"/>
<text text-anchor="start" x="11" y="-90.3" font-family="Helvetica,sans-Serif" font-size="11.00" fill="#000000">...</text>
<polygon fill="#ffffff" stroke="transparent" points="8,-65.2 8,-84.2 32,-84.2 32,-65.2 8,-65.2"/>
<polygon fill="none" stroke="#000000" points="8,-65.2 8,-84.2 32,-84.2 32,-65.2 8,-65.2"/>
<text text-anchor="start" x="11" y="-71.3" font-family="Helvetica,sans-Serif" font-size="11.00" fill="#000000">&lt; 1</text>
<polygon fill="#ffffff" stroke="transparent" points="32,-65.2 32,-84.2 71,-84.2 71,-65.2 32,-65.2"/>
<polygon fill="none" stroke="#000000" points="32,-65.2 32,-84.2 71,-84.2 71,-65.2 32,-65.2"/>
<text text-anchor="start" x="35.6105" y="-71.3" font-family="Helvetica,sans-Serif" font-size="11.00" fill="#000000">0 rows</text>
<polygon fill="#ffffff" stroke="transparent" points="71,-65.2 71,-84.2 94,-84.2 94,-65.2 71,-65.2"/>
<polygon fill="none" stroke="#000000" points="71,-65.2 71,-84.2 94,-84.2 94,-65.2 71,-65.2"/>
<text text-anchor="start" x="75.4053" y="-71.3" font-family="Helvetica,sans-Serif" font-size="11.00" fill="#000000">2 &gt;</text>
</a>
</g>
</g>
<!-- classes&#45;&gt;skill_lists -->
<g id="edge1" class="edge">
<title>classes:w&#45;&gt;skill_lists:e</title>
<path fill="none" stroke="#000000" d="M130.276,-136.2C118.2815,-136.2 110.8229,-136.2 94,-136.2"/>
<polygon fill="#000000" stroke="#000000" points="137,-136.2001 145,-139.8 141,-136.2 145,-136.2 145,-136.2 145,-136.2 141,-136.2 145,-132.6 137,-136.2001 137,-136.2001"/>
<ellipse fill="none" stroke="#000000" cx="133.8" cy="-136.2001" rx="3.2" ry="3.2"/>
</g>
<!-- daily_challenges -->
<g id="node3" class="node">
<title>daily_challenges</title>
<g id="a_node3"><a xlink:href="../../tables/daily_challenges.html" xlink:title="daily_challenges" target="_top">
<polygon fill="#ffffff" stroke="transparent" points="403.5,-279.2 403.5,-387.2 527.5,-387.2 527.5,-279.2 403.5,-279.2"/>
<polygon fill="#f5f5f5" stroke="transparent" points="403.5,-364.2 403.5,-387.2 527.5,-387.2 527.5,-364.2 403.5,-364.2"/>
<polygon fill="none" stroke="#000000" points="403.5,-364.2 403.5,-387.2 527.5,-387.2 527.5,-364.2 403.5,-364.2"/>
<text text-anchor="start" x="408.3512" y="-373.3" font-family="Helvetica,sans-Serif" font-weight="bold" font-size="11.00" fill="#000000">daily_challenges</text>
<text text-anchor="start" x="493.0219" y="-372.3" font-family="Helvetica,sans-Serif" font-size="11.00" fill="#000000">[table]</text>
<polygon fill="none" stroke="#000000" points="403.5,-342.2 403.5,-364.2 527.5,-364.2 527.5,-342.2 403.5,-342.2"/>
<image xlink:href="../../images/primaryKeys.png" width="11px" height="12px" preserveAspectRatio="xMinYMin meet" x="408.5" y="-359.2"/>
<text text-anchor="start" x="427.5" y="-349.3" font-family="Helvetica,sans-Serif" font-size="11.00" fill="#000000">classes_id</text>
<polygon fill="none" stroke="#000000" points="403.5,-320.2 403.5,-342.2 527.5,-342.2 527.5,-320.2 403.5,-320.2"/>
<image xlink:href="../../images/primaryKeys.png" width="11px" height="12px" preserveAspectRatio="xMinYMin meet" x="408.5" y="-337.2"/>
<text text-anchor="start" x="427.5" y="-327.3" font-family="Helvetica,sans-Serif" font-size="11.00" fill="#000000">challenges_id</text>
<polygon fill="none" stroke="#000000" points="403.5,-298.2 403.5,-320.2 527.5,-320.2 527.5,-298.2 403.5,-298.2"/>
<image xlink:href="../../images/primaryKeys.png" width="11px" height="12px" preserveAspectRatio="xMinYMin meet" x="408.5" y="-315.2"/>
<text text-anchor="start" x="427.5" y="-305.3" font-family="Helvetica,sans-Serif" font-size="11.00" fill="#000000">date</text>
<polygon fill="#ffffff" stroke="transparent" points="403.5,-279.2 403.5,-298.2 446.5,-298.2 446.5,-279.2 403.5,-279.2"/>
<polygon fill="none" stroke="#000000" points="403.5,-279.2 403.5,-298.2 446.5,-298.2 446.5,-279.2 403.5,-279.2"/>
<text text-anchor="start" x="406.5" y="-285.3" font-family="Helvetica,sans-Serif" font-size="11.00" fill="#000000">&lt; 2</text>
<polygon fill="#ffffff" stroke="transparent" points="446.5,-279.2 446.5,-298.2 495.5,-298.2 495.5,-279.2 446.5,-279.2"/>
<polygon fill="none" stroke="#000000" points="446.5,-279.2 446.5,-298.2 495.5,-298.2 495.5,-279.2 446.5,-279.2"/>
<text text-anchor="start" x="460.1105" y="-285.3" font-family="Helvetica,sans-Serif" font-size="11.00" fill="#000000">0 rows</text>
<polygon fill="#ffffff" stroke="transparent" points="495.5,-279.2 495.5,-298.2 527.5,-298.2 527.5,-279.2 495.5,-279.2"/>
<polygon fill="none" stroke="#000000" points="495.5,-279.2 495.5,-298.2 527.5,-298.2 527.5,-279.2 495.5,-279.2"/>
<text text-anchor="start" x="508.9053" y="-285.3" font-family="Helvetica,sans-Serif" font-size="11.00" fill="#000000">3 &gt;</text>
</a>
</g>
</g>
<!-- daily_challenges&#45;&gt;classes -->
<g id="edge2" class="edge">
<title>daily_challenges:w&#45;&gt;classes:e</title>
<path fill="none" stroke="#000000" d="M389.1717,-350.4502C344.7319,-329.9847 412.9172,-202.2 347,-202.2"/>
<polygon fill="#000000" stroke="#000000" points="395.6434,-351.6922 402.8215,-356.7355 399.5717,-352.4461 403.5,-353.2 403.5,-353.2 403.5,-353.2 399.5717,-352.4461 404.1785,-349.6645 395.6434,-351.6922 395.6434,-351.6922"/>
<ellipse fill="none" stroke="#000000" cx="392.5007" cy="-351.089" rx="3.2" ry="3.2"/>
</g>
<!-- gymnasts_classes -->
<g id="node4" class="node">
<title>gymnasts_classes</title>
<g id="a_node4"><a xlink:href="../../tables/gymnasts_classes.html" xlink:title="gymnasts_classes" target="_top">
<polygon fill="#ffffff" stroke="transparent" points="399.5,-172.2 399.5,-258.2 531.5,-258.2 531.5,-172.2 399.5,-172.2"/>
<polygon fill="#f5f5f5" stroke="transparent" points="399.5,-235.2 399.5,-258.2 531.5,-258.2 531.5,-235.2 399.5,-235.2"/>
<polygon fill="none" stroke="#000000" points="399.5,-235.2 399.5,-258.2 531.5,-258.2 531.5,-235.2 399.5,-235.2"/>
<text text-anchor="start" x="404.0755" y="-244.3" font-family="Helvetica,sans-Serif" font-weight="bold" font-size="11.00" fill="#000000">gymnasts_classes</text>
<text text-anchor="start" x="497.0219" y="-243.3" font-family="Helvetica,sans-Serif" font-size="11.00" fill="#000000">[table]</text>
<polygon fill="none" stroke="#000000" points="399.5,-213.2 399.5,-235.2 531.5,-235.2 531.5,-213.2 399.5,-213.2"/>
<image xlink:href="../../images/primaryKeys.png" width="11px" height="12px" preserveAspectRatio="xMinYMin meet" x="404.5" y="-230.2"/>
<text text-anchor="start" x="422.5" y="-220.3" font-family="Helvetica,sans-Serif" font-size="11.00" fill="#000000">gymnasts_id</text>
<polygon fill="none" stroke="#000000" points="399.5,-191.2 399.5,-213.2 531.5,-213.2 531.5,-191.2 399.5,-191.2"/>
<image xlink:href="../../images/primaryKeys.png" width="11px" height="12px" preserveAspectRatio="xMinYMin meet" x="404.5" y="-208.2"/>
<text text-anchor="start" x="422.5" y="-198.3" font-family="Helvetica,sans-Serif" font-size="11.00" fill="#000000">classes_id</text>
<polygon fill="#ffffff" stroke="transparent" points="399.5,-172.2 399.5,-191.2 450.5,-191.2 450.5,-172.2 399.5,-172.2"/>
<polygon fill="none" stroke="#000000" points="399.5,-172.2 399.5,-191.2 450.5,-191.2 450.5,-172.2 399.5,-172.2"/>
<text text-anchor="start" x="402.5" y="-178.3" font-family="Helvetica,sans-Serif" font-size="11.00" fill="#000000">&lt; 2</text>
<polygon fill="#ffffff" stroke="transparent" points="450.5,-172.2 450.5,-191.2 503.5,-191.2 503.5,-172.2 450.5,-172.2"/>
<polygon fill="none" stroke="#000000" points="450.5,-172.2 450.5,-191.2 503.5,-191.2 503.5,-172.2 450.5,-172.2"/>
<text text-anchor="start" x="468.1105" y="-178.3" font-family="Helvetica,sans-Serif" font-size="11.00" fill="#000000">0 rows</text>
<polygon fill="#ffffff" stroke="transparent" points="503.5,-172.2 503.5,-191.2 531.5,-191.2 531.5,-172.2 503.5,-172.2"/>
<polygon fill="none" stroke="#000000" points="503.5,-172.2 503.5,-191.2 531.5,-191.2 531.5,-172.2 503.5,-172.2"/>
<text text-anchor="start" x="522.3862" y="-178.3" font-family="Helvetica,sans-Serif" font-size="11.00" fill="#000000"> &#160;</text>
</a>
</g>
</g>
<!-- gymnasts_classes&#45;&gt;classes -->
<g id="edge3" class="edge">
<title>gymnasts_classes:w&#45;&gt;classes:e</title>
<path fill="none" stroke="#000000" d="M384.7344,-202.2C372.1563,-202.2 364.5,-202.2 347,-202.2"/>
<polygon fill="#000000" stroke="#000000" points="391.5,-202.2001 399.5,-205.8 395.5,-202.2 399.5,-202.2 399.5,-202.2 399.5,-202.2 395.5,-202.2 399.5,-198.6 391.5,-202.2001 391.5,-202.2001"/>
<ellipse fill="none" stroke="#000000" cx="388.3" cy="-202.2001" rx="3.2" ry="3.2"/>
</g>
<!-- normal_challenges -->
<g id="node5" class="node">
<title>normal_challenges</title>
<g id="a_node5"><a xlink:href="../../tables/normal_challenges.html" xlink:title="normal_challenges" target="_top">
<polygon fill="#ffffff" stroke="transparent" points="398,-45.7 398,-150.7 533,-150.7 533,-45.7 398,-45.7"/>
<polygon fill="#f5f5f5" stroke="transparent" points="398.5,-127.2 398.5,-150.2 533.5,-150.2 533.5,-127.2 398.5,-127.2"/>
<polygon fill="none" stroke="#000000" points="398.5,-127.2 398.5,-150.2 533.5,-150.2 533.5,-127.2 398.5,-127.2"/>
<text text-anchor="start" x="403.3522" y="-136.3" font-family="Helvetica,sans-Serif" font-weight="bold" font-size="11.00" fill="#000000">normal_challenges</text>
<text text-anchor="start" x="499.0219" y="-135.3" font-family="Helvetica,sans-Serif" font-size="11.00" fill="#000000">[table]</text>
<polygon fill="none" stroke="#000000" points="398.5,-105.2 398.5,-127.2 533.5,-127.2 533.5,-105.2 398.5,-105.2"/>
<image xlink:href="../../images/primaryKeys.png" width="11px" height="12px" preserveAspectRatio="xMinYMin meet" x="403.5" y="-122.2"/>
<text text-anchor="start" x="421.5" y="-112.3" font-family="Helvetica,sans-Serif" font-size="11.00" fill="#000000">classes_id</text>
<polygon fill="none" stroke="#000000" points="398.5,-83.2 398.5,-105.2 533.5,-105.2 533.5,-83.2 398.5,-83.2"/>
<image xlink:href="../../images/primaryKeys.png" width="11px" height="12px" preserveAspectRatio="xMinYMin meet" x="403.5" y="-100.2"/>
<text text-anchor="start" x="421.5" y="-90.3" font-family="Helvetica,sans-Serif" font-size="11.00" fill="#000000">challenges_id</text>
<polygon fill="none" stroke="#000000" points="398.5,-64.2 398.5,-83.2 533.5,-83.2 533.5,-64.2 398.5,-64.2"/>
<text text-anchor="start" x="401.5" y="-70.3" font-family="Helvetica,sans-Serif" font-size="11.00" fill="#000000">...</text>
<polygon fill="#ffffff" stroke="transparent" points="398.5,-45.2 398.5,-64.2 446.5,-64.2 446.5,-45.2 398.5,-45.2"/>
<polygon fill="none" stroke="#000000" points="398.5,-45.2 398.5,-64.2 446.5,-64.2 446.5,-45.2 398.5,-45.2"/>
<text text-anchor="start" x="401.5" y="-51.3" font-family="Helvetica,sans-Serif" font-size="11.00" fill="#000000">&lt; 2</text>
<polygon fill="#ffffff" stroke="transparent" points="446.5,-45.2 446.5,-64.2 498.5,-64.2 498.5,-45.2 446.5,-45.2"/>
<polygon fill="none" stroke="#000000" points="446.5,-45.2 446.5,-64.2 498.5,-64.2 498.5,-45.2 446.5,-45.2"/>
<text text-anchor="start" x="463.1105" y="-51.3" font-family="Helvetica,sans-Serif" font-size="11.00" fill="#000000">0 rows</text>
<polygon fill="#ffffff" stroke="transparent" points="498.5,-45.2 498.5,-64.2 533.5,-64.2 533.5,-45.2 498.5,-45.2"/>
<polygon fill="none" stroke="#000000" points="498.5,-45.2 498.5,-64.2 533.5,-64.2 533.5,-45.2 498.5,-45.2"/>
<text text-anchor="start" x="514.9053" y="-51.3" font-family="Helvetica,sans-Serif" font-size="11.00" fill="#000000">2 &gt;</text>
</a>
</g>
</g>
<!-- normal_challenges&#45;&gt;classes -->
<g id="edge4" class="edge">
<title>normal_challenges:w&#45;&gt;classes:e</title>
<path fill="none" stroke="#000000" d="M384.4139,-120.583C362.6949,-138.1081 385.4605,-202.2 347,-202.2"/>
<polygon fill="#000000" stroke="#000000" points="390.8612,-118.5769 399.5696,-119.6374 394.6806,-117.3884 398.5,-116.2 398.5,-116.2 398.5,-116.2 394.6806,-117.3884 397.4304,-112.7626 390.8612,-118.5769 390.8612,-118.5769"/>
<ellipse fill="none" stroke="#000000" cx="387.8057" cy="-119.5276" rx="3.2" ry="3.2"/>
</g>
</g>
</svg>
