<?xml version="1.0" encoding="UTF-8" standalone="no"?>
<!DOCTYPE svg PUBLIC "-//W3C//DTD SVG 1.1//EN"
 "http://www.w3.org/Graphics/SVG/1.1/DTD/svg11.dtd">
<!-- Generated by graphviz version 2.40.1 (20161225.0304)
 -->
<!-- Title: twoDegreesRelationshipsDiagram Pages: 1 -->
<svg width="838pt" height="413pt"
 viewBox="0.00 0.00 838.00 413.20" xmlns="http://www.w3.org/2000/svg" xmlns:xlink="http://www.w3.org/1999/xlink">
<g id="graph0" class="graph" transform="scale(1 1) rotate(0) translate(4 409.2)">
<title>twoDegreesRelationshipsDiagram</title>
<polygon fill="#ffffff" stroke="transparent" points="-4,4 -4,-409.2 834,-409.2 834,4 -4,4"/>
<text text-anchor="middle" x="72.4936" y="-7.3" font-family="Helvetica,sans-Serif" font-size="11.00" fill="#000000">Generated by SchemaSpy</text>
<!-- challenges -->
<g id="node1" class="node">
<title>challenges</title>
<g id="a_node1"><a xlink:href="../../tables/challenges.html" xlink:title="challenges" target="_top">
<polygon fill="#ffffff" stroke="transparent" points="518,-274.2 518,-401.2 617,-401.2 617,-274.2 518,-274.2"/>
<polygon fill="#f5f5f5" stroke="transparent" points="518.5,-377.7 518.5,-400.7 617.5,-400.7 617.5,-377.7 518.5,-377.7"/>
<polygon fill="none" stroke="#000000" points="518.5,-377.7 518.5,-400.7 617.5,-400.7 617.5,-377.7 518.5,-377.7"/>
<text text-anchor="start" x="523.5" y="-386.8" font-family="Helvetica,sans-Serif" font-weight="bold" font-size="11.00" fill="#000000">challenges</text>
<text text-anchor="start" x="582.5437" y="-385.8" font-family="Helvetica,sans-Serif" font-size="11.00" fill="#000000">[table]</text>
<polygon fill="none" stroke="#000000" points="518.5,-355.7 518.5,-377.7 617.5,-377.7 617.5,-355.7 518.5,-355.7"/>
<image xlink:href="../../images/primaryKeys.png" width="11px" height="12px" preserveAspectRatio="xMinYMin meet" x="523.5" y="-372.7"/>
<text text-anchor="start" x="538.5" y="-362.8" font-family="Helvetica,sans-Serif" font-size="11.00" fill="#000000">id</text>
<polygon fill="#ffffff" stroke="transparent" points="518.5,-333.7 518.5,-355.7 617.5,-355.7 617.5,-333.7 518.5,-333.7"/>
<polygon fill="none" stroke="#000000" points="518.5,-333.7 518.5,-355.7 617.5,-355.7 617.5,-333.7 518.5,-333.7"/>
<image xlink:href="../../images/foreignKeys.png" width="11px" height="12px" preserveAspectRatio="xMinYMin meet" x="523.5" y="-350.7"/>
<text text-anchor="start" x="538.5" y="-340.8" font-family="Helvetica,sans-Serif" font-size="11.00" fill="#000000">gym_id</text>
<polygon fill="#ffffff" stroke="transparent" points="518.5,-311.7 518.5,-333.7 617.5,-333.7 617.5,-311.7 518.5,-311.7"/>
<polygon fill="none" stroke="#000000" points="518.5,-311.7 518.5,-333.7 617.5,-333.7 617.5,-311.7 518.5,-311.7"/>
<image xlink:href="../../images/foreignKeys.png" width="11px" height="12px" preserveAspectRatio="xMinYMin meet" x="523.5" y="-328.7"/>
<text text-anchor="start" x="538.5" y="-318.8" font-family="Helvetica,sans-Serif" font-size="11.00" fill="#000000">class_id</text>
<polygon fill="none" stroke="#000000" points="518.5,-292.7 518.5,-311.7 617.5,-311.7 617.5,-292.7 518.5,-292.7"/>
<text text-anchor="start" x="521.5" y="-298.8" font-family="Helvetica,sans-Serif" font-size="11.00" fill="#000000">...</text>
<polygon fill="#ffffff" stroke="transparent" points="518.5,-273.7 518.5,-292.7 548.5,-292.7 548.5,-273.7 518.5,-273.7"/>
<polygon fill="none" stroke="#000000" points="518.5,-273.7 518.5,-292.7 548.5,-292.7 548.5,-273.7 518.5,-273.7"/>
<text text-anchor="start" x="521.5" y="-279.8" font-family="Helvetica,sans-Serif" font-size="11.00" fill="#000000">&lt; 2</text>
<polygon fill="#ffffff" stroke="transparent" points="548.5,-273.7 548.5,-292.7 591.5,-292.7 591.5,-273.7 548.5,-273.7"/>
<polygon fill="none" stroke="#000000" points="548.5,-273.7 548.5,-292.7 591.5,-292.7 591.5,-273.7 548.5,-273.7"/>
<text text-anchor="start" x="556.1105" y="-279.8" font-family="Helvetica,sans-Serif" font-size="11.00" fill="#000000">0 rows</text>
<polygon fill="#ffffff" stroke="transparent" points="591.5,-273.7 591.5,-292.7 617.5,-292.7 617.5,-273.7 591.5,-273.7"/>
<polygon fill="none" stroke="#000000" points="591.5,-273.7 591.5,-292.7 617.5,-292.7 617.5,-273.7 591.5,-273.7"/>
<text text-anchor="start" x="598.9053" y="-279.8" font-family="Helvetica,sans-Serif" font-size="11.00" fill="#000000">1 &gt;</text>
</a>
</g>
</g>
<!-- classes -->
<g id="node2" class="node">
<title>classes</title>
<g id="a_node2"><a xlink:href="../../tables/classes.html" xlink:title="classes" target="_top">
<polygon fill="#ffffff" stroke="transparent" points="263,-120.7 263,-320.7 469,-320.7 469,-120.7 263,-120.7"/>
<polygon fill="#f5f5f5" stroke="transparent" points="265,-295.7 265,-318.7 467,-318.7 467,-295.7 265,-295.7"/>
<polygon fill="none" stroke="#000000" points="265,-295.7 265,-318.7 467,-318.7 467,-295.7 265,-295.7"/>
<text text-anchor="start" x="270" y="-304.8" font-family="Helvetica,sans-Serif" font-weight="bold" font-size="11.00" fill="#000000">classes</text>
<text text-anchor="start" x="432.0437" y="-303.8" font-family="Helvetica,sans-Serif" font-size="11.00" fill="#000000">[table]</text>
<polygon fill="none" stroke="#000000" points="265,-273.7 265,-295.7 350,-295.7 350,-273.7 265,-273.7"/>
<image xlink:href="../../images/primaryKeys.png" width="11px" height="12px" preserveAspectRatio="xMinYMin meet" x="270" y="-290.7"/>
<text text-anchor="start" x="285" y="-280.8" font-family="Helvetica,sans-Serif" font-size="11.00" fill="#000000">id</text>
<polygon fill="none" stroke="#000000" points="350,-273.7 350,-295.7 467,-295.7 467,-273.7 350,-273.7"/>
<text text-anchor="start" x="353" y="-281.4" font-family="Helvetica,sans-Serif" font-size="11.00" fill="#000000">bigint[19]</text>
<polygon fill="none" stroke="#000000" points="265,-251.7 265,-273.7 350,-273.7 350,-251.7 265,-251.7"/>
<text text-anchor="start" x="285" y="-258.8" font-family="Helvetica,sans-Serif" font-size="11.00" fill="#000000">name</text>
<polygon fill="none" stroke="#000000" points="350,-251.7 350,-273.7 467,-273.7 467,-251.7 350,-251.7"/>
<text text-anchor="start" x="353" y="-259.4" font-family="Helvetica,sans-Serif" font-size="11.00" fill="#000000">varchar[45]</text>
<polygon fill="none" stroke="#000000" points="265,-229.7 265,-251.7 350,-251.7 350,-229.7 265,-229.7"/>
<text text-anchor="start" x="285" y="-236.8" font-family="Helvetica,sans-Serif" font-size="11.00" fill="#000000">description</text>
<polygon fill="none" stroke="#000000" points="350,-229.7 350,-251.7 467,-251.7 467,-229.7 350,-229.7"/>
<text text-anchor="start" x="352.5645" y="-237.4" font-family="Helvetica,sans-Serif" font-size="11.00" fill="#000000">mediumtext[16777215]</text>
<polygon fill="#ffffff" stroke="transparent" points="265,-207.7 265,-229.7 350,-229.7 350,-207.7 265,-207.7"/>
<polygon fill="none" stroke="#000000" points="265,-207.7 265,-229.7 350,-229.7 350,-207.7 265,-207.7"/>
<image xlink:href="../../images/foreignKeys.png" width="11px" height="12px" preserveAspectRatio="xMinYMin meet" x="270" y="-224.7"/>
<text text-anchor="start" x="285" y="-214.8" font-family="Helvetica,sans-Serif" font-size="11.00" fill="#000000">skill_list_id</text>
<polygon fill="none" stroke="#000000" points="350,-207.7 350,-229.7 467,-229.7 467,-207.7 350,-207.7"/>
<text text-anchor="start" x="353" y="-215.4" font-family="Helvetica,sans-Serif" font-size="11.00" fill="#000000">bigint unsigned[20]</text>
<polygon fill="none" stroke="#000000" points="265,-185.7 265,-207.7 350,-207.7 350,-185.7 265,-185.7"/>
<text text-anchor="start" x="285" y="-192.8" font-family="Helvetica,sans-Serif" font-size="11.00" fill="#000000">created_at</text>
<polygon fill="none" stroke="#000000" points="350,-185.7 350,-207.7 467,-207.7 467,-185.7 350,-185.7"/>
<text text-anchor="start" x="353" y="-193.4" font-family="Helvetica,sans-Serif" font-size="11.00" fill="#000000">timestamp[19]</text>
<polygon fill="none" stroke="#000000" points="265,-163.7 265,-185.7 350,-185.7 350,-163.7 265,-163.7"/>
<text text-anchor="start" x="285" y="-170.8" font-family="Helvetica,sans-Serif" font-size="11.00" fill="#000000">updated_at</text>
<polygon fill="none" stroke="#000000" points="350,-163.7 350,-185.7 467,-185.7 467,-163.7 350,-163.7"/>
<text text-anchor="start" x="353" y="-171.4" font-family="Helvetica,sans-Serif" font-size="11.00" fill="#000000">timestamp[19]</text>
<polygon fill="none" stroke="#000000" points="265,-141.7 265,-163.7 350,-163.7 350,-141.7 265,-141.7"/>
<text text-anchor="start" x="285" y="-148.8" font-family="Helvetica,sans-Serif" font-size="11.00" fill="#000000">deleted_at</text>
<polygon fill="none" stroke="#000000" points="350,-141.7 350,-163.7 467,-163.7 467,-141.7 350,-141.7"/>
<text text-anchor="start" x="353" y="-149.4" font-family="Helvetica,sans-Serif" font-size="11.00" fill="#000000">timestamp[19]</text>
<polygon fill="#ffffff" stroke="transparent" points="265,-122.7 265,-141.7 299,-141.7 299,-122.7 265,-122.7"/>
<polygon fill="none" stroke="#000000" points="265,-122.7 265,-141.7 299,-141.7 299,-122.7 265,-122.7"/>
<text text-anchor="start" x="268" y="-128.8" font-family="Helvetica,sans-Serif" font-size="11.00" fill="#000000">&lt; 1</text>
<polygon fill="#ffffff" stroke="transparent" points="299,-122.7 299,-141.7 350,-141.7 350,-122.7 299,-122.7"/>
<polygon fill="none" stroke="#000000" points="299,-122.7 299,-141.7 350,-141.7 350,-122.7 299,-122.7"/>
<text text-anchor="start" x="314.6105" y="-128.8" font-family="Helvetica,sans-Serif" font-size="11.00" fill="#000000">0 rows</text>
<polygon fill="#ffffff" stroke="transparent" points="350,-122.7 350,-141.7 467,-141.7 467,-122.7 350,-122.7"/>
<polygon fill="none" stroke="#000000" points="350,-122.7 350,-141.7 467,-141.7 467,-122.7 350,-122.7"/>
<text text-anchor="start" x="448.4053" y="-128.8" font-family="Helvetica,sans-Serif" font-size="11.00" fill="#000000">2 &gt;</text>
<polygon fill="none" stroke="#000000" stroke-width="2" points="264,-121.7 264,-319.7 468,-319.7 468,-121.7 264,-121.7"/>
</a>
</g>
</g>
<!-- challenges&#45;&gt;classes -->
<g id="edge1" class="edge">
<title>challenges:w&#45;&gt;classes:e</title>
<path fill="none" stroke="#000000" d="M504.3809,-318.3409C490.8233,-308.3595 489.4451,-284.7 467,-284.7"/>
<polygon fill="#000000" stroke="#000000" points="510.856,-320.34 517.438,-326.1398 514.678,-321.52 518.5,-322.7 518.5,-322.7 518.5,-322.7 514.678,-321.52 519.562,-319.2602 510.856,-320.34 510.856,-320.34"/>
<ellipse fill="none" stroke="#000000" cx="507.7984" cy="-319.396" rx="3.2" ry="3.2"/>
</g>
<!-- gyms -->
<g id="node3" class="node">
<title>gyms</title>
<g id="a_node3"><a xlink:href="../../tables/gyms.html" xlink:title="gyms" target="_top">
<polygon fill="#ffffff" stroke="transparent" points="8,-243.2 8,-304.2 79,-304.2 79,-243.2 8,-243.2"/>
<polygon fill="#f5f5f5" stroke="transparent" points="8.5,-280.7 8.5,-303.7 79.5,-303.7 79.5,-280.7 8.5,-280.7"/>
<polygon fill="none" stroke="#000000" points="8.5,-280.7 8.5,-303.7 79.5,-303.7 79.5,-280.7 8.5,-280.7"/>
<text text-anchor="start" x="13.5" y="-289.8" font-family="Helvetica,sans-Serif" font-weight="bold" font-size="11.00" fill="#000000">gyms</text>
<text text-anchor="start" x="44.5437" y="-288.8" font-family="Helvetica,sans-Serif" font-size="11.00" fill="#000000">[table]</text>
<polygon fill="none" stroke="#000000" points="8.5,-261.7 8.5,-280.7 79.5,-280.7 79.5,-261.7 8.5,-261.7"/>
<text text-anchor="start" x="11.5" y="-267.8" font-family="Helvetica,sans-Serif" font-size="11.00" fill="#000000">...</text>
<polygon fill="#ffffff" stroke="transparent" points="8.5,-242.7 8.5,-261.7 20.5,-261.7 20.5,-242.7 8.5,-242.7"/>
<polygon fill="none" stroke="#000000" points="8.5,-242.7 8.5,-261.7 20.5,-261.7 20.5,-242.7 8.5,-242.7"/>
<text text-anchor="start" x="11.4431" y="-248.8" font-family="Helvetica,sans-Serif" font-size="11.00" fill="#000000"> &#160;</text>
<polygon fill="#ffffff" stroke="transparent" points="20.5,-242.7 20.5,-261.7 58.5,-261.7 58.5,-242.7 20.5,-242.7"/>
<polygon fill="none" stroke="#000000" points="20.5,-242.7 20.5,-261.7 58.5,-261.7 58.5,-242.7 20.5,-242.7"/>
<text text-anchor="start" x="23.3053" y="-248.8" font-family="Helvetica,sans-Serif" font-size="11.00" fill="#000000">0 rows</text>
<polygon fill="#ffffff" stroke="transparent" points="58.5,-242.7 58.5,-261.7 79.5,-261.7 79.5,-242.7 58.5,-242.7"/>
<polygon fill="none" stroke="#000000" points="58.5,-242.7 58.5,-261.7 79.5,-261.7 79.5,-242.7 58.5,-242.7"/>
<text text-anchor="start" x="61.2027" y="-248.8" font-family="Helvetica,sans-Serif" font-size="11.00" fill="#000000">4 &gt;</text>
</a>
</g>
</g>
<!-- challenges&#45;&gt;gyms -->
<g id="edge2" class="edge">
<title>challenges:w&#45;&gt;gyms:e</title>
<path fill="none" stroke="#000000" d="M503.8487,-344.7486C398.4149,-345.4461 365.1553,-353.1028 255,-331.7 173.9386,-315.95 162.0773,-270.7 79.5,-270.7"/>
<polygon fill="#000000" stroke="#000000" points="510.5,-344.7266 518.512,-348.3 514.5,-344.7133 518.5,-344.7 518.5,-344.7 518.5,-344.7 514.5,-344.7133 518.488,-341.1 510.5,-344.7266 510.5,-344.7266"/>
<ellipse fill="none" stroke="#000000" cx="507.3001" cy="-344.7372" rx="3.2" ry="3.2"/>
</g>
<!-- skill_lists -->
<g id="node4" class="node">
<title>skill_lists</title>
<g id="a_node4"><a xlink:href="../../tables/skill_lists.html" xlink:title="skill_lists" target="_top">
<polygon fill="#ffffff" stroke="transparent" points="128,-148.2 128,-253.2 214,-253.2 214,-148.2 128,-148.2"/>
<polygon fill="#f5f5f5" stroke="transparent" points="128,-229.7 128,-252.7 214,-252.7 214,-229.7 128,-229.7"/>
<polygon fill="none" stroke="#000000" points="128,-229.7 128,-252.7 214,-252.7 214,-229.7 128,-229.7"/>
<text text-anchor="start" x="132.8119" y="-238.8" font-family="Helvetica,sans-Serif" font-weight="bold" font-size="11.00" fill="#000000">skill_lists</text>
<text text-anchor="start" x="179.5219" y="-237.8" font-family="Helvetica,sans-Serif" font-size="11.00" fill="#000000">[table]</text>
<polygon fill="none" stroke="#000000" points="128,-207.7 128,-229.7 214,-229.7 214,-207.7 128,-207.7"/>
<image xlink:href="../../images/primaryKeys.png" width="11px" height="12px" preserveAspectRatio="xMinYMin meet" x="133" y="-224.7"/>
<text text-anchor="start" x="149" y="-214.8" font-family="Helvetica,sans-Serif" font-size="11.00" fill="#000000">id</text>
<polygon fill="#ffffff" stroke="transparent" points="128,-185.7 128,-207.7 214,-207.7 214,-185.7 128,-185.7"/>
<polygon fill="none" stroke="#000000" points="128,-185.7 128,-207.7 214,-207.7 214,-185.7 128,-185.7"/>
<image xlink:href="../../images/foreignKeys.png" width="11px" height="12px" preserveAspectRatio="xMinYMin meet" x="133" y="-202.7"/>
<text text-anchor="start" x="149" y="-192.8" font-family="Helvetica,sans-Serif" font-size="11.00" fill="#000000">gym_id</text>
<polygon fill="none" stroke="#000000" points="128,-166.7 128,-185.7 214,-185.7 214,-166.7 128,-166.7"/>
<text text-anchor="start" x="131" y="-172.8" font-family="Helvetica,sans-Serif" font-size="11.00" fill="#000000">...</text>
<polygon fill="#ffffff" stroke="transparent" points="128,-147.7 128,-166.7 152,-166.7 152,-147.7 128,-147.7"/>
<polygon fill="none" stroke="#000000" points="128,-147.7 128,-166.7 152,-166.7 152,-147.7 128,-147.7"/>
<text text-anchor="start" x="131" y="-153.8" font-family="Helvetica,sans-Serif" font-size="11.00" fill="#000000">&lt; 1</text>
<polygon fill="#ffffff" stroke="transparent" points="152,-147.7 152,-166.7 191,-166.7 191,-147.7 152,-147.7"/>
<polygon fill="none" stroke="#000000" points="152,-147.7 152,-166.7 191,-166.7 191,-147.7 152,-147.7"/>
<text text-anchor="start" x="155.6105" y="-153.8" font-family="Helvetica,sans-Serif" font-size="11.00" fill="#000000">0 rows</text>
<polygon fill="#ffffff" stroke="transparent" points="191,-147.7 191,-166.7 214,-166.7 214,-147.7 191,-147.7"/>
<polygon fill="none" stroke="#000000" points="191,-147.7 191,-166.7 214,-166.7 214,-147.7 191,-147.7"/>
<text text-anchor="start" x="195.4053" y="-153.8" font-family="Helvetica,sans-Serif" font-size="11.00" fill="#000000">2 &gt;</text>
</a>
</g>
</g>
<!-- classes&#45;&gt;skill_lists -->
<g id="edge3" class="edge">
<title>classes:w&#45;&gt;skill_lists:e</title>
<path fill="none" stroke="#000000" d="M250.276,-218.7C238.2815,-218.7 230.8229,-218.7 214,-218.7"/>
<polygon fill="#000000" stroke="#000000" points="257,-218.7001 265,-222.3 261,-218.7 265,-218.7 265,-218.7 265,-218.7 261,-218.7 265,-215.1 257,-218.7001 257,-218.7001"/>
<ellipse fill="none" stroke="#000000" cx="253.8" cy="-218.7001" rx="3.2" ry="3.2"/>
</g>
<!-- skill_lists&#45;&gt;gyms -->
<g id="edge8" class="edge">
<title>skill_lists:w&#45;&gt;gyms:e</title>
<path fill="none" stroke="#000000" d="M114.1253,-201.5553C96.4015,-218.0184 112.679,-270.7 79.5,-270.7"/>
<polygon fill="#000000" stroke="#000000" points="120.449,-199.3425 129.1891,-200.098 124.2245,-198.0212 128,-196.7 128,-196.7 128,-196.7 124.2245,-198.0212 126.8109,-193.302 120.449,-199.3425 120.449,-199.3425"/>
<ellipse fill="none" stroke="#000000" cx="117.4286" cy="-200.3994" rx="3.2" ry="3.2"/>
</g>
<!-- completed_challenges -->
<g id="node5" class="node">
<title>completed_challenges</title>
<g id="a_node5"><a xlink:href="../../tables/completed_challenges.html" xlink:title="completed_challenges" target="_top">
<polygon fill="#ffffff" stroke="transparent" points="668,-299.2 668,-360.2 820,-360.2 820,-299.2 668,-299.2"/>
<polygon fill="#f5f5f5" stroke="transparent" points="668,-336.7 668,-359.7 820,-359.7 820,-336.7 668,-336.7"/>
<polygon fill="none" stroke="#000000" points="668,-336.7 668,-359.7 820,-359.7 820,-336.7 668,-336.7"/>
<text text-anchor="start" x="672.7899" y="-345.8" font-family="Helvetica,sans-Serif" font-weight="bold" font-size="11.00" fill="#000000">completed_challenges</text>
<text text-anchor="start" x="785.5219" y="-344.8" font-family="Helvetica,sans-Serif" font-size="11.00" fill="#000000">[table]</text>
<polygon fill="none" stroke="#000000" points="668,-317.7 668,-336.7 820,-336.7 820,-317.7 668,-317.7"/>
<text text-anchor="start" x="671" y="-323.8" font-family="Helvetica,sans-Serif" font-size="11.00" fill="#000000">...</text>
<polygon fill="#ffffff" stroke="transparent" points="668,-298.7 668,-317.7 729,-317.7 729,-298.7 668,-298.7"/>
<polygon fill="none" stroke="#000000" points="668,-298.7 668,-317.7 729,-317.7 729,-298.7 668,-298.7"/>
<text text-anchor="start" x="671" y="-304.8" font-family="Helvetica,sans-Serif" font-size="11.00" fill="#000000">&lt; 2</text>
<polygon fill="#ffffff" stroke="transparent" points="729,-298.7 729,-317.7 787,-317.7 787,-298.7 729,-298.7"/>
<polygon fill="none" stroke="#000000" points="729,-298.7 729,-317.7 787,-317.7 787,-298.7 729,-298.7"/>
<text text-anchor="start" x="751.6105" y="-304.8" font-family="Helvetica,sans-Serif" font-size="11.00" fill="#000000">0 rows</text>
<polygon fill="#ffffff" stroke="transparent" points="787,-298.7 787,-317.7 820,-317.7 820,-298.7 787,-298.7"/>
<polygon fill="none" stroke="#000000" points="787,-298.7 787,-317.7 820,-317.7 820,-298.7 787,-298.7"/>
<text text-anchor="start" x="810.8862" y="-304.8" font-family="Helvetica,sans-Serif" font-size="11.00" fill="#000000"> &#160;</text>
</a>
</g>
</g>
<!-- completed_challenges&#45;&gt;challenges -->
<g id="edge4" class="edge">
<title>completed_challenges:w&#45;&gt;challenges:e</title>
<path fill="none" stroke="#000000" d="M653.9416,-331.2885C640.6466,-341.7952 640.0926,-366.7 617.5,-366.7"/>
<polygon fill="#000000" stroke="#000000" points="660.3948,-329.1823 669.117,-330.1223 664.1974,-327.9411 668,-326.7 668,-326.7 668,-326.7 664.1974,-327.9411 666.883,-323.2777 660.3948,-329.1823 660.3948,-329.1823"/>
<ellipse fill="none" stroke="#000000" cx="657.3528" cy="-330.1752" rx="3.2" ry="3.2"/>
</g>
<!-- gymnasts -->
<g id="node6" class="node">
<title>gymnasts</title>
<g id="a_node6"><a xlink:href="../../tables/gymnasts.html" xlink:title="gymnasts" target="_top">
<polygon fill="#ffffff" stroke="transparent" points="522.5,-192.2 522.5,-253.2 612.5,-253.2 612.5,-192.2 522.5,-192.2"/>
<polygon fill="#f5f5f5" stroke="transparent" points="522.5,-229.7 522.5,-252.7 612.5,-252.7 612.5,-229.7 522.5,-229.7"/>
<polygon fill="none" stroke="#000000" points="522.5,-229.7 522.5,-252.7 612.5,-252.7 612.5,-229.7 522.5,-229.7"/>
<text text-anchor="start" x="527.4683" y="-238.8" font-family="Helvetica,sans-Serif" font-weight="bold" font-size="11.00" fill="#000000">gymnasts</text>
<text text-anchor="start" x="578.0219" y="-237.8" font-family="Helvetica,sans-Serif" font-size="11.00" fill="#000000">[table]</text>
<polygon fill="none" stroke="#000000" points="522.5,-210.7 522.5,-229.7 612.5,-229.7 612.5,-210.7 522.5,-210.7"/>
<text text-anchor="start" x="525.5" y="-216.8" font-family="Helvetica,sans-Serif" font-size="11.00" fill="#000000">...</text>
<polygon fill="#ffffff" stroke="transparent" points="522.5,-191.7 522.5,-210.7 548.5,-210.7 548.5,-191.7 522.5,-191.7"/>
<polygon fill="none" stroke="#000000" points="522.5,-191.7 522.5,-210.7 548.5,-210.7 548.5,-191.7 522.5,-191.7"/>
<text text-anchor="start" x="525.5" y="-197.8" font-family="Helvetica,sans-Serif" font-size="11.00" fill="#000000">&lt; 2</text>
<polygon fill="#ffffff" stroke="transparent" points="548.5,-191.7 548.5,-210.7 588.5,-210.7 588.5,-191.7 548.5,-191.7"/>
<polygon fill="none" stroke="#000000" points="548.5,-191.7 548.5,-210.7 588.5,-210.7 588.5,-191.7 548.5,-191.7"/>
<text text-anchor="start" x="553.1105" y="-197.8" font-family="Helvetica,sans-Serif" font-size="11.00" fill="#000000">0 rows</text>
<polygon fill="#ffffff" stroke="transparent" points="588.5,-191.7 588.5,-210.7 612.5,-210.7 612.5,-191.7 588.5,-191.7"/>
<polygon fill="none" stroke="#000000" points="588.5,-191.7 588.5,-210.7 612.5,-210.7 612.5,-191.7 588.5,-191.7"/>
<text text-anchor="start" x="593.9053" y="-197.8" font-family="Helvetica,sans-Serif" font-size="11.00" fill="#000000">3 &gt;</text>
</a>
</g>
</g>
<!-- completed_challenges&#45;&gt;gymnasts -->
<g id="edge5" class="edge">
<title>completed_challenges:w&#45;&gt;gymnasts:e</title>
<path fill="none" stroke="#000000" d="M653.9224,-323.1399C624.4663,-304.5738 660.2127,-219.7 612.5,-219.7"/>
<polygon fill="#000000" stroke="#000000" points="660.2442,-324.7386 667.1174,-330.1901 664.1221,-325.7193 668,-326.7 668,-326.7 668,-326.7 664.1221,-325.7193 668.8826,-323.2099 660.2442,-324.7386 660.2442,-324.7386"/>
<ellipse fill="none" stroke="#000000" cx="657.1418" cy="-323.954" rx="3.2" ry="3.2"/>
</g>
<!-- gymnasts_has_classes -->
<g id="node7" class="node">
<title>gymnasts_has_classes</title>
<g id="a_node7"><a xlink:href="../../tables/gymnasts_has_classes.html" xlink:title="gymnasts_has_classes" target="_top">
<polygon fill="#ffffff" stroke="transparent" points="666,-152.7 666,-238.7 822,-238.7 822,-152.7 666,-152.7"/>
<polygon fill="#f5f5f5" stroke="transparent" points="666,-215.7 666,-238.7 822,-238.7 822,-215.7 666,-215.7"/>
<polygon fill="none" stroke="#000000" points="666,-215.7 666,-238.7 822,-238.7 822,-215.7 666,-215.7"/>
<text text-anchor="start" x="670.6531" y="-224.8" font-family="Helvetica,sans-Serif" font-weight="bold" font-size="11.00" fill="#000000">gymnasts_has_classes</text>
<text text-anchor="start" x="787.5219" y="-223.8" font-family="Helvetica,sans-Serif" font-size="11.00" fill="#000000">[table]</text>
<polygon fill="none" stroke="#000000" points="666,-193.7 666,-215.7 822,-215.7 822,-193.7 666,-193.7"/>
<image xlink:href="../../images/primaryKeys.png" width="11px" height="12px" preserveAspectRatio="xMinYMin meet" x="671" y="-210.7"/>
<text text-anchor="start" x="687" y="-200.8" font-family="Helvetica,sans-Serif" font-size="11.00" fill="#000000">gymnasts_id</text>
<polygon fill="none" stroke="#000000" points="666,-171.7 666,-193.7 822,-193.7 822,-171.7 666,-171.7"/>
<image xlink:href="../../images/primaryKeys.png" width="11px" height="12px" preserveAspectRatio="xMinYMin meet" x="671" y="-188.7"/>
<text text-anchor="start" x="687" y="-178.8" font-family="Helvetica,sans-Serif" font-size="11.00" fill="#000000">classes_id</text>
<polygon fill="#ffffff" stroke="transparent" points="666,-152.7 666,-171.7 729,-171.7 729,-152.7 666,-152.7"/>
<polygon fill="none" stroke="#000000" points="666,-152.7 666,-171.7 729,-171.7 729,-152.7 666,-152.7"/>
<text text-anchor="start" x="669" y="-158.8" font-family="Helvetica,sans-Serif" font-size="11.00" fill="#000000">&lt; 2</text>
<polygon fill="#ffffff" stroke="transparent" points="729,-152.7 729,-171.7 788,-171.7 788,-152.7 729,-152.7"/>
<polygon fill="none" stroke="#000000" points="729,-152.7 729,-171.7 788,-171.7 788,-152.7 729,-152.7"/>
<text text-anchor="start" x="752.6105" y="-158.8" font-family="Helvetica,sans-Serif" font-size="11.00" fill="#000000">0 rows</text>
<polygon fill="#ffffff" stroke="transparent" points="788,-152.7 788,-171.7 822,-171.7 822,-152.7 788,-152.7"/>
<polygon fill="none" stroke="#000000" points="788,-152.7 788,-171.7 822,-171.7 822,-152.7 788,-152.7"/>
<text text-anchor="start" x="812.8862" y="-158.8" font-family="Helvetica,sans-Serif" font-size="11.00" fill="#000000"> &#160;</text>
</a>
</g>
</g>
<!-- gymnasts_has_classes&#45;&gt;classes -->
<g id="edge6" class="edge">
<title>gymnasts_has_classes:w&#45;&gt;classes:e</title>
<path fill="none" stroke="#000000" d="M651.5749,-182.1264C592.3292,-177.4064 563.5333,-146.0378 510,-181.7 468.7151,-209.2027 516.6068,-284.7 467,-284.7"/>
<polygon fill="#000000" stroke="#000000" points="658.0063,-182.3821 665.8569,-186.2972 662.0032,-182.541 666,-182.7 666,-182.7 666,-182.7 662.0032,-182.541 666.1431,-179.1028 658.0063,-182.3821 658.0063,-182.3821"/>
<ellipse fill="none" stroke="#000000" cx="654.8088" cy="-182.2549" rx="3.2" ry="3.2"/>
</g>
<!-- gymnasts_has_classes&#45;&gt;gymnasts -->
<g id="edge7" class="edge">
<title>gymnasts_has_classes:w&#45;&gt;gymnasts:e</title>
<path fill="none" stroke="#000000" d="M651.4987,-206.7857C638.2477,-210.9073 631.4069,-219.7 612.5,-219.7"/>
<polygon fill="#000000" stroke="#000000" points="658.0815,-205.8389 666.5125,-208.2633 662.0407,-205.2695 666,-204.7 666,-204.7 666,-204.7 662.0407,-205.2695 665.4875,-201.1367 658.0815,-205.8389 658.0815,-205.8389"/>
<ellipse fill="none" stroke="#000000" cx="654.9141" cy="-206.2945" rx="3.2" ry="3.2"/>
</g>
<!-- skill_lists_has_skills -->
<g id="node8" class="node">
<title>skill_lists_has_skills</title>
<g id="a_node8"><a xlink:href="../../tables/skill_lists_has_skills.html" xlink:title="skill_lists_has_skills" target="_top">
<polygon fill="#ffffff" stroke="transparent" points="296,-38.2 296,-99.2 436,-99.2 436,-38.2 296,-38.2"/>
<polygon fill="#f5f5f5" stroke="transparent" points="296,-75.7 296,-98.7 436,-98.7 436,-75.7 296,-75.7"/>
<polygon fill="none" stroke="#000000" points="296,-75.7 296,-98.7 436,-98.7 436,-75.7 296,-75.7"/>
<text text-anchor="start" x="300.9207" y="-84.8" font-family="Helvetica,sans-Serif" font-weight="bold" font-size="11.00" fill="#000000">skill_lists_has_skills</text>
<text text-anchor="start" x="401.5219" y="-83.8" font-family="Helvetica,sans-Serif" font-size="11.00" fill="#000000">[table]</text>
<polygon fill="none" stroke="#000000" points="296,-56.7 296,-75.7 436,-75.7 436,-56.7 296,-56.7"/>
<text text-anchor="start" x="299" y="-62.8" font-family="Helvetica,sans-Serif" font-size="11.00" fill="#000000">...</text>
<polygon fill="#ffffff" stroke="transparent" points="296,-37.7 296,-56.7 351,-56.7 351,-37.7 296,-37.7"/>
<polygon fill="none" stroke="#000000" points="296,-37.7 296,-56.7 351,-56.7 351,-37.7 296,-37.7"/>
<text text-anchor="start" x="299" y="-43.8" font-family="Helvetica,sans-Serif" font-size="11.00" fill="#000000">&lt; 2</text>
<polygon fill="#ffffff" stroke="transparent" points="351,-37.7 351,-56.7 406,-56.7 406,-37.7 351,-37.7"/>
<polygon fill="none" stroke="#000000" points="351,-37.7 351,-56.7 406,-56.7 406,-37.7 351,-37.7"/>
<text text-anchor="start" x="370.6105" y="-43.8" font-family="Helvetica,sans-Serif" font-size="11.00" fill="#000000">0 rows</text>
<polygon fill="#ffffff" stroke="transparent" points="406,-37.7 406,-56.7 436,-56.7 436,-37.7 406,-37.7"/>
<polygon fill="none" stroke="#000000" points="406,-37.7 406,-56.7 436,-56.7 436,-37.7 406,-37.7"/>
<text text-anchor="start" x="426.8862" y="-43.8" font-family="Helvetica,sans-Serif" font-size="11.00" fill="#000000"> &#160;</text>
</a>
</g>
</g>
<!-- skill_lists_has_skills&#45;&gt;skill_lists -->
<g id="edge9" class="edge">
<title>skill_lists_has_skills:w&#45;&gt;skill_lists:e</title>
<path fill="none" stroke="#000000" d="M281.8458,-68.5474C268.5238,-75.0795 266.0029,-91.9514 255,-109.7 227.7287,-153.6908 265.7582,-218.7 214,-218.7"/>
<polygon fill="#000000" stroke="#000000" points="288.1571,-67.2778 296.71,-69.2293 292.0786,-66.4889 296,-65.7 296,-65.7 296,-65.7 292.0786,-66.4889 295.29,-62.1707 288.1571,-67.2778 288.1571,-67.2778"/>
<ellipse fill="none" stroke="#000000" cx="285.02" cy="-67.9089" rx="3.2" ry="3.2"/>
</g>
</g>
</svg>
