<?xml version="1.0" encoding="UTF-8" standalone="no"?>
<!DOCTYPE svg PUBLIC "-//W3C//DTD SVG 1.1//EN"
 "http://www.w3.org/Graphics/SVG/1.1/DTD/svg11.dtd">
<!-- Generated by graphviz version 2.40.1 (20161225.0304)
 -->
<!-- Title: twoDegreesRelationshipsDiagram Pages: 1 -->
<svg width="910pt" height="442pt"
 viewBox="0.00 0.00 910.00 441.70" xmlns="http://www.w3.org/2000/svg" xmlns:xlink="http://www.w3.org/1999/xlink">
<g id="graph0" class="graph" transform="scale(1 1) rotate(0) translate(4 437.7)">
<title>twoDegreesRelationshipsDiagram</title>
<polygon fill="#ffffff" stroke="transparent" points="-4,4 -4,-437.7 906,-437.7 906,4 -4,4"/>
<text text-anchor="middle" x="72.4936" y="-7.3" font-family="Helvetica,sans-Serif" font-size="11.00" fill="#000000">Generated by SchemaSpy</text>
<!-- classes -->
<g id="node1" class="node">
<title>classes</title>
<g id="a_node1"><a xlink:href="../../tables/classes.html" xlink:title="classes" target="_top">
<polygon fill="#ffffff" stroke="transparent" points="263,-214.7 263,-414.7 469,-414.7 469,-214.7 263,-214.7"/>
<polygon fill="#f5f5f5" stroke="transparent" points="265,-389.7 265,-412.7 467,-412.7 467,-389.7 265,-389.7"/>
<polygon fill="none" stroke="#000000" points="265,-389.7 265,-412.7 467,-412.7 467,-389.7 265,-389.7"/>
<text text-anchor="start" x="270" y="-398.8" font-family="Helvetica,sans-Serif" font-weight="bold" font-size="11.00" fill="#000000">classes</text>
<text text-anchor="start" x="432.0437" y="-397.8" font-family="Helvetica,sans-Serif" font-size="11.00" fill="#000000">[table]</text>
<polygon fill="none" stroke="#000000" points="265,-367.7 265,-389.7 350,-389.7 350,-367.7 265,-367.7"/>
<image xlink:href="../../images/primaryKeys.png" width="11px" height="12px" preserveAspectRatio="xMinYMin meet" x="270" y="-384.7"/>
<text text-anchor="start" x="285" y="-374.8" font-family="Helvetica,sans-Serif" font-size="11.00" fill="#000000">id</text>
<polygon fill="none" stroke="#000000" points="350,-367.7 350,-389.7 467,-389.7 467,-367.7 350,-367.7"/>
<text text-anchor="start" x="353" y="-375.4" font-family="Helvetica,sans-Serif" font-size="11.00" fill="#000000">int[10]</text>
<polygon fill="none" stroke="#000000" points="265,-345.7 265,-367.7 350,-367.7 350,-345.7 265,-345.7"/>
<text text-anchor="start" x="285" y="-352.8" font-family="Helvetica,sans-Serif" font-size="11.00" fill="#000000">name</text>
<polygon fill="none" stroke="#000000" points="350,-345.7 350,-367.7 467,-367.7 467,-345.7 350,-345.7"/>
<text text-anchor="start" x="353" y="-353.4" font-family="Helvetica,sans-Serif" font-size="11.00" fill="#000000">varchar[45]</text>
<polygon fill="none" stroke="#000000" points="265,-323.7 265,-345.7 350,-345.7 350,-323.7 265,-323.7"/>
<text text-anchor="start" x="285" y="-330.8" font-family="Helvetica,sans-Serif" font-size="11.00" fill="#000000">description</text>
<polygon fill="none" stroke="#000000" points="350,-323.7 350,-345.7 467,-345.7 467,-323.7 350,-323.7"/>
<text text-anchor="start" x="352.5645" y="-331.4" font-family="Helvetica,sans-Serif" font-size="11.00" fill="#000000">mediumtext[16777215]</text>
<polygon fill="#ffffff" stroke="transparent" points="265,-301.7 265,-323.7 350,-323.7 350,-301.7 265,-301.7"/>
<polygon fill="none" stroke="#000000" points="265,-301.7 265,-323.7 350,-323.7 350,-301.7 265,-301.7"/>
<image xlink:href="../../images/foreignKeys.png" width="11px" height="12px" preserveAspectRatio="xMinYMin meet" x="270" y="-318.7"/>
<text text-anchor="start" x="285" y="-308.8" font-family="Helvetica,sans-Serif" font-size="11.00" fill="#000000">skill_list_id</text>
<polygon fill="none" stroke="#000000" points="350,-301.7 350,-323.7 467,-323.7 467,-301.7 350,-301.7"/>
<text text-anchor="start" x="353" y="-309.4" font-family="Helvetica,sans-Serif" font-size="11.00" fill="#000000">bigint unsigned[20]</text>
<polygon fill="none" stroke="#000000" points="265,-279.7 265,-301.7 350,-301.7 350,-279.7 265,-279.7"/>
<text text-anchor="start" x="285" y="-286.8" font-family="Helvetica,sans-Serif" font-size="11.00" fill="#000000">created_at</text>
<polygon fill="none" stroke="#000000" points="350,-279.7 350,-301.7 467,-301.7 467,-279.7 350,-279.7"/>
<text text-anchor="start" x="353" y="-287.4" font-family="Helvetica,sans-Serif" font-size="11.00" fill="#000000">timestamp[19]</text>
<polygon fill="none" stroke="#000000" points="265,-257.7 265,-279.7 350,-279.7 350,-257.7 265,-257.7"/>
<text text-anchor="start" x="285" y="-264.8" font-family="Helvetica,sans-Serif" font-size="11.00" fill="#000000">updated_at</text>
<polygon fill="none" stroke="#000000" points="350,-257.7 350,-279.7 467,-279.7 467,-257.7 350,-257.7"/>
<text text-anchor="start" x="353" y="-265.4" font-family="Helvetica,sans-Serif" font-size="11.00" fill="#000000">timestamp[19]</text>
<polygon fill="none" stroke="#000000" points="265,-235.7 265,-257.7 350,-257.7 350,-235.7 265,-235.7"/>
<text text-anchor="start" x="285" y="-242.8" font-family="Helvetica,sans-Serif" font-size="11.00" fill="#000000">deleted_at</text>
<polygon fill="none" stroke="#000000" points="350,-235.7 350,-257.7 467,-257.7 467,-235.7 350,-235.7"/>
<text text-anchor="start" x="353" y="-243.4" font-family="Helvetica,sans-Serif" font-size="11.00" fill="#000000">timestamp[19]</text>
<polygon fill="#ffffff" stroke="transparent" points="265,-216.7 265,-235.7 299,-235.7 299,-216.7 265,-216.7"/>
<polygon fill="none" stroke="#000000" points="265,-216.7 265,-235.7 299,-235.7 299,-216.7 265,-216.7"/>
<text text-anchor="start" x="268" y="-222.8" font-family="Helvetica,sans-Serif" font-size="11.00" fill="#000000">&lt; 1</text>
<polygon fill="#ffffff" stroke="transparent" points="299,-216.7 299,-235.7 350,-235.7 350,-216.7 299,-216.7"/>
<polygon fill="none" stroke="#000000" points="299,-216.7 299,-235.7 350,-235.7 350,-216.7 299,-216.7"/>
<text text-anchor="start" x="314.6105" y="-222.8" font-family="Helvetica,sans-Serif" font-size="11.00" fill="#000000">0 rows</text>
<polygon fill="#ffffff" stroke="transparent" points="350,-216.7 350,-235.7 467,-235.7 467,-216.7 350,-216.7"/>
<polygon fill="none" stroke="#000000" points="350,-216.7 350,-235.7 467,-235.7 467,-216.7 350,-216.7"/>
<text text-anchor="start" x="448.4053" y="-222.8" font-family="Helvetica,sans-Serif" font-size="11.00" fill="#000000">3 &gt;</text>
<polygon fill="none" stroke="#000000" stroke-width="2" points="264,-215.7 264,-413.7 468,-413.7 468,-215.7 264,-215.7"/>
</a>
</g>
</g>
<!-- skill_lists -->
<g id="node2" class="node">
<title>skill_lists</title>
<g id="a_node2"><a xlink:href="../../tables/skill_lists.html" xlink:title="skill_lists" target="_top">
<polygon fill="#ffffff" stroke="transparent" points="128,-165.2 128,-270.2 214,-270.2 214,-165.2 128,-165.2"/>
<polygon fill="#f5f5f5" stroke="transparent" points="128,-246.7 128,-269.7 214,-269.7 214,-246.7 128,-246.7"/>
<polygon fill="none" stroke="#000000" points="128,-246.7 128,-269.7 214,-269.7 214,-246.7 128,-246.7"/>
<text text-anchor="start" x="132.8119" y="-255.8" font-family="Helvetica,sans-Serif" font-weight="bold" font-size="11.00" fill="#000000">skill_lists</text>
<text text-anchor="start" x="179.5219" y="-254.8" font-family="Helvetica,sans-Serif" font-size="11.00" fill="#000000">[table]</text>
<polygon fill="none" stroke="#000000" points="128,-224.7 128,-246.7 214,-246.7 214,-224.7 128,-224.7"/>
<image xlink:href="../../images/primaryKeys.png" width="11px" height="12px" preserveAspectRatio="xMinYMin meet" x="133" y="-241.7"/>
<text text-anchor="start" x="149" y="-231.8" font-family="Helvetica,sans-Serif" font-size="11.00" fill="#000000">id</text>
<polygon fill="#ffffff" stroke="transparent" points="128,-202.7 128,-224.7 214,-224.7 214,-202.7 128,-202.7"/>
<polygon fill="none" stroke="#000000" points="128,-202.7 128,-224.7 214,-224.7 214,-202.7 128,-202.7"/>
<image xlink:href="../../images/foreignKeys.png" width="11px" height="12px" preserveAspectRatio="xMinYMin meet" x="133" y="-219.7"/>
<text text-anchor="start" x="149" y="-209.8" font-family="Helvetica,sans-Serif" font-size="11.00" fill="#000000">gym_id</text>
<polygon fill="none" stroke="#000000" points="128,-183.7 128,-202.7 214,-202.7 214,-183.7 128,-183.7"/>
<text text-anchor="start" x="131" y="-189.8" font-family="Helvetica,sans-Serif" font-size="11.00" fill="#000000">...</text>
<polygon fill="#ffffff" stroke="transparent" points="128,-164.7 128,-183.7 152,-183.7 152,-164.7 128,-164.7"/>
<polygon fill="none" stroke="#000000" points="128,-164.7 128,-183.7 152,-183.7 152,-164.7 128,-164.7"/>
<text text-anchor="start" x="131" y="-170.8" font-family="Helvetica,sans-Serif" font-size="11.00" fill="#000000">&lt; 1</text>
<polygon fill="#ffffff" stroke="transparent" points="152,-164.7 152,-183.7 191,-183.7 191,-164.7 152,-164.7"/>
<polygon fill="none" stroke="#000000" points="152,-164.7 152,-183.7 191,-183.7 191,-164.7 152,-164.7"/>
<text text-anchor="start" x="155.6105" y="-170.8" font-family="Helvetica,sans-Serif" font-size="11.00" fill="#000000">0 rows</text>
<polygon fill="#ffffff" stroke="transparent" points="191,-164.7 191,-183.7 214,-183.7 214,-164.7 191,-164.7"/>
<polygon fill="none" stroke="#000000" points="191,-164.7 191,-183.7 214,-183.7 214,-164.7 191,-164.7"/>
<text text-anchor="start" x="195.4053" y="-170.8" font-family="Helvetica,sans-Serif" font-size="11.00" fill="#000000">2 &gt;</text>
</a>
</g>
</g>
<!-- classes&#45;&gt;skill_lists -->
<g id="edge1" class="edge">
<title>classes:w&#45;&gt;skill_lists:e</title>
<path fill="none" stroke="#000000" d="M251.0177,-308.1139C231.594,-291.5372 248.9549,-235.7 214,-235.7"/>
<polygon fill="#000000" stroke="#000000" points="257.3984,-310.2067 263.878,-316.1207 261.1992,-311.4534 265,-312.7 265,-312.7 265,-312.7 261.1992,-311.4534 266.122,-309.2793 257.3984,-310.2067 257.3984,-310.2067"/>
<ellipse fill="none" stroke="#000000" cx="254.3578" cy="-309.2094" rx="3.2" ry="3.2"/>
</g>
<!-- gyms -->
<g id="node10" class="node">
<title>gyms</title>
<g id="a_node10"><a xlink:href="../../tables/gyms.html" xlink:title="gyms" target="_top">
<polygon fill="#ffffff" stroke="transparent" points="8,-186.2 8,-247.2 79,-247.2 79,-186.2 8,-186.2"/>
<polygon fill="#f5f5f5" stroke="transparent" points="8.5,-223.7 8.5,-246.7 79.5,-246.7 79.5,-223.7 8.5,-223.7"/>
<polygon fill="none" stroke="#000000" points="8.5,-223.7 8.5,-246.7 79.5,-246.7 79.5,-223.7 8.5,-223.7"/>
<text text-anchor="start" x="13.5" y="-232.8" font-family="Helvetica,sans-Serif" font-weight="bold" font-size="11.00" fill="#000000">gyms</text>
<text text-anchor="start" x="44.5437" y="-231.8" font-family="Helvetica,sans-Serif" font-size="11.00" fill="#000000">[table]</text>
<polygon fill="none" stroke="#000000" points="8.5,-204.7 8.5,-223.7 79.5,-223.7 79.5,-204.7 8.5,-204.7"/>
<text text-anchor="start" x="11.5" y="-210.8" font-family="Helvetica,sans-Serif" font-size="11.00" fill="#000000">...</text>
<polygon fill="#ffffff" stroke="transparent" points="8.5,-185.7 8.5,-204.7 20.5,-204.7 20.5,-185.7 8.5,-185.7"/>
<polygon fill="none" stroke="#000000" points="8.5,-185.7 8.5,-204.7 20.5,-204.7 20.5,-185.7 8.5,-185.7"/>
<text text-anchor="start" x="11.4431" y="-191.8" font-family="Helvetica,sans-Serif" font-size="11.00" fill="#000000"> &#160;</text>
<polygon fill="#ffffff" stroke="transparent" points="20.5,-185.7 20.5,-204.7 58.5,-204.7 58.5,-185.7 20.5,-185.7"/>
<polygon fill="none" stroke="#000000" points="20.5,-185.7 20.5,-204.7 58.5,-204.7 58.5,-185.7 20.5,-185.7"/>
<text text-anchor="start" x="23.3053" y="-191.8" font-family="Helvetica,sans-Serif" font-size="11.00" fill="#000000">0 rows</text>
<polygon fill="#ffffff" stroke="transparent" points="58.5,-185.7 58.5,-204.7 79.5,-204.7 79.5,-185.7 58.5,-185.7"/>
<polygon fill="none" stroke="#000000" points="58.5,-185.7 58.5,-204.7 79.5,-204.7 79.5,-185.7 58.5,-185.7"/>
<text text-anchor="start" x="61.2027" y="-191.8" font-family="Helvetica,sans-Serif" font-size="11.00" fill="#000000">3 &gt;</text>
</a>
</g>
</g>
<!-- skill_lists&#45;&gt;gyms -->
<g id="edge15" class="edge">
<title>skill_lists:w&#45;&gt;gyms:e</title>
<path fill="none" stroke="#000000" d="M113.2829,-213.7C102.2886,-213.7 95.1615,-213.7 79.5,-213.7"/>
<polygon fill="#000000" stroke="#000000" points="120,-213.7001 128,-217.3 124,-213.7 128,-213.7 128,-213.7 128,-213.7 124,-213.7 128,-210.1 120,-213.7001 120,-213.7001"/>
<ellipse fill="none" stroke="#000000" cx="116.8" cy="-213.7001" rx="3.2" ry="3.2"/>
</g>
<!-- completed_daily_challenges -->
<g id="node3" class="node">
<title>completed_daily_challenges</title>
<g id="a_node3"><a xlink:href="../../tables/completed_daily_challenges.html" xlink:title="completed_daily_challenges" target="_top">
<polygon fill="#ffffff" stroke="transparent" points="707.5,-253.2 707.5,-314.2 888.5,-314.2 888.5,-253.2 707.5,-253.2"/>
<polygon fill="#f5f5f5" stroke="transparent" points="708,-290.7 708,-313.7 889,-313.7 889,-290.7 708,-290.7"/>
<polygon fill="none" stroke="#000000" points="708,-290.7 708,-313.7 889,-313.7 889,-290.7 708,-290.7"/>
<text text-anchor="start" x="712.9266" y="-299.8" font-family="Helvetica,sans-Serif" font-weight="bold" font-size="11.00" fill="#000000">completed_daily_challenges</text>
<text text-anchor="start" x="854.5219" y="-298.8" font-family="Helvetica,sans-Serif" font-size="11.00" fill="#000000">[table]</text>
<polygon fill="none" stroke="#000000" points="708,-271.7 708,-290.7 889,-290.7 889,-271.7 708,-271.7"/>
<text text-anchor="start" x="711" y="-277.8" font-family="Helvetica,sans-Serif" font-size="11.00" fill="#000000">...</text>
<polygon fill="#ffffff" stroke="transparent" points="708,-252.7 708,-271.7 784,-271.7 784,-252.7 708,-252.7"/>
<polygon fill="none" stroke="#000000" points="708,-252.7 708,-271.7 784,-271.7 784,-252.7 708,-252.7"/>
<text text-anchor="start" x="711" y="-258.8" font-family="Helvetica,sans-Serif" font-size="11.00" fill="#000000">&lt; 4</text>
<polygon fill="#ffffff" stroke="transparent" points="784,-252.7 784,-271.7 849,-271.7 849,-252.7 784,-252.7"/>
<polygon fill="none" stroke="#000000" points="784,-252.7 784,-271.7 849,-271.7 849,-252.7 784,-252.7"/>
<text text-anchor="start" x="813.6105" y="-258.8" font-family="Helvetica,sans-Serif" font-size="11.00" fill="#000000">0 rows</text>
<polygon fill="#ffffff" stroke="transparent" points="849,-252.7 849,-271.7 889,-271.7 889,-252.7 849,-252.7"/>
<polygon fill="none" stroke="#000000" points="849,-252.7 849,-271.7 889,-271.7 889,-252.7 849,-252.7"/>
<text text-anchor="start" x="879.8862" y="-258.8" font-family="Helvetica,sans-Serif" font-size="11.00" fill="#000000"> &#160;</text>
</a>
</g>
</g>
<!-- daily_challenges -->
<g id="node4" class="node">
<title>daily_challenges</title>
<g id="a_node4"><a xlink:href="../../tables/daily_challenges.html" xlink:title="daily_challenges" target="_top">
<polygon fill="#ffffff" stroke="transparent" points="523.5,-246.7 523.5,-354.7 647.5,-354.7 647.5,-246.7 523.5,-246.7"/>
<polygon fill="#f5f5f5" stroke="transparent" points="523.5,-331.7 523.5,-354.7 647.5,-354.7 647.5,-331.7 523.5,-331.7"/>
<polygon fill="none" stroke="#000000" points="523.5,-331.7 523.5,-354.7 647.5,-354.7 647.5,-331.7 523.5,-331.7"/>
<text text-anchor="start" x="528.3512" y="-340.8" font-family="Helvetica,sans-Serif" font-weight="bold" font-size="11.00" fill="#000000">daily_challenges</text>
<text text-anchor="start" x="613.0219" y="-339.8" font-family="Helvetica,sans-Serif" font-size="11.00" fill="#000000">[table]</text>
<polygon fill="none" stroke="#000000" points="523.5,-309.7 523.5,-331.7 647.5,-331.7 647.5,-309.7 523.5,-309.7"/>
<image xlink:href="../../images/primaryKeys.png" width="11px" height="12px" preserveAspectRatio="xMinYMin meet" x="528.5" y="-326.7"/>
<text text-anchor="start" x="547.5" y="-316.8" font-family="Helvetica,sans-Serif" font-size="11.00" fill="#000000">classes_id</text>
<polygon fill="none" stroke="#000000" points="523.5,-287.7 523.5,-309.7 647.5,-309.7 647.5,-287.7 523.5,-287.7"/>
<image xlink:href="../../images/primaryKeys.png" width="11px" height="12px" preserveAspectRatio="xMinYMin meet" x="528.5" y="-304.7"/>
<text text-anchor="start" x="547.5" y="-294.8" font-family="Helvetica,sans-Serif" font-size="11.00" fill="#000000">challenges_id</text>
<polygon fill="none" stroke="#000000" points="523.5,-265.7 523.5,-287.7 647.5,-287.7 647.5,-265.7 523.5,-265.7"/>
<image xlink:href="../../images/primaryKeys.png" width="11px" height="12px" preserveAspectRatio="xMinYMin meet" x="528.5" y="-282.7"/>
<text text-anchor="start" x="547.5" y="-272.8" font-family="Helvetica,sans-Serif" font-size="11.00" fill="#000000">date</text>
<polygon fill="#ffffff" stroke="transparent" points="523.5,-246.7 523.5,-265.7 566.5,-265.7 566.5,-246.7 523.5,-246.7"/>
<polygon fill="none" stroke="#000000" points="523.5,-246.7 523.5,-265.7 566.5,-265.7 566.5,-246.7 523.5,-246.7"/>
<text text-anchor="start" x="526.5" y="-252.8" font-family="Helvetica,sans-Serif" font-size="11.00" fill="#000000">&lt; 2</text>
<polygon fill="#ffffff" stroke="transparent" points="566.5,-246.7 566.5,-265.7 615.5,-265.7 615.5,-246.7 566.5,-246.7"/>
<polygon fill="none" stroke="#000000" points="566.5,-246.7 566.5,-265.7 615.5,-265.7 615.5,-246.7 566.5,-246.7"/>
<text text-anchor="start" x="580.1105" y="-252.8" font-family="Helvetica,sans-Serif" font-size="11.00" fill="#000000">0 rows</text>
<polygon fill="#ffffff" stroke="transparent" points="615.5,-246.7 615.5,-265.7 647.5,-265.7 647.5,-246.7 615.5,-246.7"/>
<polygon fill="none" stroke="#000000" points="615.5,-246.7 615.5,-265.7 647.5,-265.7 647.5,-246.7 615.5,-246.7"/>
<text text-anchor="start" x="628.9053" y="-252.8" font-family="Helvetica,sans-Serif" font-size="11.00" fill="#000000">3 &gt;</text>
</a>
</g>
</g>
<!-- completed_daily_challenges&#45;&gt;daily_challenges -->
<g id="edge2" class="edge">
<title>completed_daily_challenges:w&#45;&gt;daily_challenges:e</title>
<path fill="none" stroke="#000000" d="M693.4369,-282.6263C677.1855,-287.2698 669.8553,-298.7 647.5,-298.7"/>
<polygon fill="#000000" stroke="#000000" points="700.0691,-281.7491 708.4721,-284.2689 704.0345,-281.2246 708,-280.7 708,-280.7 708,-280.7 704.0345,-281.2246 707.5279,-277.1311 700.0691,-281.7491 700.0691,-281.7491"/>
<ellipse fill="none" stroke="#000000" cx="696.8967" cy="-282.1687" rx="3.2" ry="3.2"/>
</g>
<!-- completed_daily_challenges&#45;&gt;daily_challenges -->
<g id="edge3" class="edge">
<title>completed_daily_challenges:w&#45;&gt;daily_challenges:e</title>
<path fill="none" stroke="#000000" d="M693.964,-283.9734C676.0422,-293.5265 674.0683,-320.7 647.5,-320.7"/>
<polygon fill="#000000" stroke="#000000" points="700.2091,-282.517 708.8176,-284.2059 704.1045,-281.6085 708,-280.7 708,-280.7 708,-280.7 704.1045,-281.6085 707.1824,-277.1941 700.2091,-282.517 700.2091,-282.517"/>
<ellipse fill="none" stroke="#000000" cx="697.0927" cy="-283.2438" rx="3.2" ry="3.2"/>
</g>
<!-- completed_daily_challenges&#45;&gt;daily_challenges -->
<g id="edge4" class="edge">
<title>completed_daily_challenges:w&#45;&gt;daily_challenges:e</title>
<path fill="none" stroke="#000000" d="M693.2808,-280.2411C677.3609,-279.1905 668.7633,-276.7 647.5,-276.7"/>
<polygon fill="#000000" stroke="#000000" points="700.0039,-280.4507 707.8878,-284.2983 704.0019,-280.5753 708,-280.7 708,-280.7 708,-280.7 704.0019,-280.5753 708.1122,-277.1017 700.0039,-280.4507 700.0039,-280.4507"/>
<ellipse fill="none" stroke="#000000" cx="696.8054" cy="-280.351" rx="3.2" ry="3.2"/>
</g>
<!-- gymnasts -->
<g id="node5" class="node">
<title>gymnasts</title>
<g id="a_node5"><a xlink:href="../../tables/gymnasts.html" xlink:title="gymnasts" target="_top">
<polygon fill="#ffffff" stroke="transparent" points="540.5,-164.2 540.5,-225.2 630.5,-225.2 630.5,-164.2 540.5,-164.2"/>
<polygon fill="#f5f5f5" stroke="transparent" points="540.5,-201.7 540.5,-224.7 630.5,-224.7 630.5,-201.7 540.5,-201.7"/>
<polygon fill="none" stroke="#000000" points="540.5,-201.7 540.5,-224.7 630.5,-224.7 630.5,-201.7 540.5,-201.7"/>
<text text-anchor="start" x="545.4683" y="-210.8" font-family="Helvetica,sans-Serif" font-weight="bold" font-size="11.00" fill="#000000">gymnasts</text>
<text text-anchor="start" x="596.0219" y="-209.8" font-family="Helvetica,sans-Serif" font-size="11.00" fill="#000000">[table]</text>
<polygon fill="none" stroke="#000000" points="540.5,-182.7 540.5,-201.7 630.5,-201.7 630.5,-182.7 540.5,-182.7"/>
<text text-anchor="start" x="543.5" y="-188.8" font-family="Helvetica,sans-Serif" font-size="11.00" fill="#000000">...</text>
<polygon fill="#ffffff" stroke="transparent" points="540.5,-163.7 540.5,-182.7 566.5,-182.7 566.5,-163.7 540.5,-163.7"/>
<polygon fill="none" stroke="#000000" points="540.5,-163.7 540.5,-182.7 566.5,-182.7 566.5,-163.7 540.5,-163.7"/>
<text text-anchor="start" x="543.5" y="-169.8" font-family="Helvetica,sans-Serif" font-size="11.00" fill="#000000">&lt; 2</text>
<polygon fill="#ffffff" stroke="transparent" points="566.5,-163.7 566.5,-182.7 606.5,-182.7 606.5,-163.7 566.5,-163.7"/>
<polygon fill="none" stroke="#000000" points="566.5,-163.7 566.5,-182.7 606.5,-182.7 606.5,-163.7 566.5,-163.7"/>
<text text-anchor="start" x="571.1105" y="-169.8" font-family="Helvetica,sans-Serif" font-size="11.00" fill="#000000">0 rows</text>
<polygon fill="#ffffff" stroke="transparent" points="606.5,-163.7 606.5,-182.7 630.5,-182.7 630.5,-163.7 606.5,-163.7"/>
<polygon fill="none" stroke="#000000" points="606.5,-163.7 606.5,-182.7 630.5,-182.7 630.5,-163.7 606.5,-163.7"/>
<text text-anchor="start" x="611.9053" y="-169.8" font-family="Helvetica,sans-Serif" font-size="11.00" fill="#000000">4 &gt;</text>
</a>
</g>
</g>
<!-- completed_daily_challenges&#45;&gt;gymnasts -->
<g id="edge5" class="edge">
<title>completed_daily_challenges:w&#45;&gt;gymnasts:e</title>
<path fill="none" stroke="#000000" d="M693.4465,-277.7388C660.5882,-262.2959 677.2138,-191.7 630.5,-191.7"/>
<polygon fill="#000000" stroke="#000000" points="700.1606,-279.1049 707.2822,-284.2277 704.0803,-279.9024 708,-280.7 708,-280.7 708,-280.7 704.0803,-279.9024 708.7178,-277.1723 700.1606,-279.1049 700.1606,-279.1049"/>
<ellipse fill="none" stroke="#000000" cx="697.0249" cy="-278.4668" rx="3.2" ry="3.2"/>
</g>
<!-- daily_challenges&#45;&gt;classes -->
<g id="edge10" class="edge">
<title>daily_challenges:w&#45;&gt;classes:e</title>
<path fill="none" stroke="#000000" d="M509.4886,-324.8712C491.2053,-338.1701 497.0829,-378.7 467,-378.7"/>
<polygon fill="#000000" stroke="#000000" points="515.8326,-322.9827 524.5272,-324.1504 519.6663,-321.8413 523.5,-320.7 523.5,-320.7 523.5,-320.7 519.6663,-321.8413 522.4728,-317.2496 515.8326,-322.9827 515.8326,-322.9827"/>
<ellipse fill="none" stroke="#000000" cx="512.7656" cy="-323.8957" rx="3.2" ry="3.2"/>
</g>
<!-- challenges -->
<g id="node8" class="node">
<title>challenges</title>
<g id="a_node8"><a xlink:href="../../tables/challenges.html" xlink:title="challenges" target="_top">
<polygon fill="#ffffff" stroke="transparent" points="318.5,-50.2 318.5,-111.2 413.5,-111.2 413.5,-50.2 318.5,-50.2"/>
<polygon fill="#f5f5f5" stroke="transparent" points="319,-87.7 319,-110.7 414,-110.7 414,-87.7 319,-87.7"/>
<polygon fill="none" stroke="#000000" points="319,-87.7 319,-110.7 414,-110.7 414,-87.7 319,-87.7"/>
<text text-anchor="start" x="323.7144" y="-96.8" font-family="Helvetica,sans-Serif" font-weight="bold" font-size="11.00" fill="#000000">challenges</text>
<text text-anchor="start" x="379.5219" y="-95.8" font-family="Helvetica,sans-Serif" font-size="11.00" fill="#000000">[table]</text>
<polygon fill="none" stroke="#000000" points="319,-68.7 319,-87.7 414,-87.7 414,-68.7 319,-68.7"/>
<text text-anchor="start" x="322" y="-74.8" font-family="Helvetica,sans-Serif" font-size="11.00" fill="#000000">...</text>
<polygon fill="#ffffff" stroke="transparent" points="319,-49.7 319,-68.7 343,-68.7 343,-49.7 319,-49.7"/>
<polygon fill="none" stroke="#000000" points="319,-49.7 319,-68.7 343,-68.7 343,-49.7 319,-49.7"/>
<text text-anchor="start" x="322" y="-55.8" font-family="Helvetica,sans-Serif" font-size="11.00" fill="#000000"> &#160;</text>
<polygon fill="#ffffff" stroke="transparent" points="343,-49.7 343,-68.7 387,-68.7 387,-49.7 343,-49.7"/>
<polygon fill="none" stroke="#000000" points="343,-49.7 343,-68.7 387,-68.7 387,-49.7 343,-49.7"/>
<text text-anchor="start" x="351.6105" y="-55.8" font-family="Helvetica,sans-Serif" font-size="11.00" fill="#000000">0 rows</text>
<polygon fill="#ffffff" stroke="transparent" points="387,-49.7 387,-68.7 414,-68.7 414,-49.7 387,-49.7"/>
<polygon fill="none" stroke="#000000" points="387,-49.7 387,-68.7 414,-68.7 414,-49.7 387,-49.7"/>
<text text-anchor="start" x="395.4053" y="-55.8" font-family="Helvetica,sans-Serif" font-size="11.00" fill="#000000">2 &gt;</text>
</a>
</g>
</g>
<!-- daily_challenges&#45;&gt;challenges -->
<g id="edge9" class="edge">
<title>daily_challenges:w&#45;&gt;challenges:e</title>
<path fill="none" stroke="#000000" d="M509.0078,-297.203C452.6905,-283.8253 520.3488,-183.8521 477,-121.7 457.4623,-93.6875 448.1529,-77.7 414,-77.7"/>
<polygon fill="#000000" stroke="#000000" points="515.5423,-297.878 523.1301,-302.2809 519.5212,-298.289 523.5,-298.7 523.5,-298.7 523.5,-298.7 519.5212,-298.289 523.8699,-295.1191 515.5423,-297.878 515.5423,-297.878"/>
<ellipse fill="none" stroke="#000000" cx="512.3593" cy="-297.5491" rx="3.2" ry="3.2"/>
</g>
<!-- completed_normal_challenges -->
<g id="node6" class="node">
<title>completed_normal_challenges</title>
<g id="a_node6"><a xlink:href="../../tables/completed_normal_challenges.html" xlink:title="completed_normal_challenges" target="_top">
<polygon fill="#ffffff" stroke="transparent" points="702,-81.2 702,-142.2 894,-142.2 894,-81.2 702,-81.2"/>
<polygon fill="#f5f5f5" stroke="transparent" points="702,-118.7 702,-141.7 894,-141.7 894,-118.7 702,-118.7"/>
<polygon fill="none" stroke="#000000" points="702,-118.7 702,-141.7 894,-141.7 894,-118.7 702,-118.7"/>
<text text-anchor="start" x="706.9277" y="-127.8" font-family="Helvetica,sans-Serif" font-weight="bold" font-size="11.00" fill="#000000">completed_normal_challenges</text>
<text text-anchor="start" x="859.5219" y="-126.8" font-family="Helvetica,sans-Serif" font-size="11.00" fill="#000000">[table]</text>
<polygon fill="none" stroke="#000000" points="702,-99.7 702,-118.7 894,-118.7 894,-99.7 702,-99.7"/>
<text text-anchor="start" x="705" y="-105.8" font-family="Helvetica,sans-Serif" font-size="11.00" fill="#000000">...</text>
<polygon fill="#ffffff" stroke="transparent" points="702,-80.7 702,-99.7 783,-99.7 783,-80.7 702,-80.7"/>
<polygon fill="none" stroke="#000000" points="702,-80.7 702,-99.7 783,-99.7 783,-80.7 702,-80.7"/>
<text text-anchor="start" x="705" y="-86.8" font-family="Helvetica,sans-Serif" font-size="11.00" fill="#000000">&lt; 3</text>
<polygon fill="#ffffff" stroke="transparent" points="783,-80.7 783,-99.7 851,-99.7 851,-80.7 783,-80.7"/>
<polygon fill="none" stroke="#000000" points="783,-80.7 783,-99.7 851,-99.7 851,-80.7 783,-80.7"/>
<text text-anchor="start" x="815.6105" y="-86.8" font-family="Helvetica,sans-Serif" font-size="11.00" fill="#000000">0 rows</text>
<polygon fill="#ffffff" stroke="transparent" points="851,-80.7 851,-99.7 894,-99.7 894,-80.7 851,-80.7"/>
<polygon fill="none" stroke="#000000" points="851,-80.7 851,-99.7 894,-99.7 894,-80.7 851,-80.7"/>
<text text-anchor="start" x="884.8862" y="-86.8" font-family="Helvetica,sans-Serif" font-size="11.00" fill="#000000"> &#160;</text>
</a>
</g>
</g>
<!-- completed_normal_challenges&#45;&gt;gymnasts -->
<g id="edge6" class="edge">
<title>completed_normal_challenges:w&#45;&gt;gymnasts:e</title>
<path fill="none" stroke="#000000" d="M687.7148,-111.8523C658.3521,-127.0133 673.4832,-191.7 630.5,-191.7"/>
<polygon fill="#000000" stroke="#000000" points="694.1879,-110.424 702.7758,-112.2154 698.094,-109.562 702,-108.7 702,-108.7 702,-108.7 698.094,-109.562 701.2242,-105.1846 694.1879,-110.424 694.1879,-110.424"/>
<ellipse fill="none" stroke="#000000" cx="691.0631" cy="-111.1135" rx="3.2" ry="3.2"/>
</g>
<!-- normal_challenges -->
<g id="node7" class="node">
<title>normal_challenges</title>
<g id="a_node7"><a xlink:href="../../tables/normal_challenges.html" xlink:title="normal_challenges" target="_top">
<polygon fill="#ffffff" stroke="transparent" points="518,-38.2 518,-143.2 653,-143.2 653,-38.2 518,-38.2"/>
<polygon fill="#f5f5f5" stroke="transparent" points="518.5,-119.7 518.5,-142.7 653.5,-142.7 653.5,-119.7 518.5,-119.7"/>
<polygon fill="none" stroke="#000000" points="518.5,-119.7 518.5,-142.7 653.5,-142.7 653.5,-119.7 518.5,-119.7"/>
<text text-anchor="start" x="523.3523" y="-128.8" font-family="Helvetica,sans-Serif" font-weight="bold" font-size="11.00" fill="#000000">normal_challenges</text>
<text text-anchor="start" x="619.0219" y="-127.8" font-family="Helvetica,sans-Serif" font-size="11.00" fill="#000000">[table]</text>
<polygon fill="none" stroke="#000000" points="518.5,-97.7 518.5,-119.7 653.5,-119.7 653.5,-97.7 518.5,-97.7"/>
<image xlink:href="../../images/primaryKeys.png" width="11px" height="12px" preserveAspectRatio="xMinYMin meet" x="523.5" y="-114.7"/>
<text text-anchor="start" x="541.5" y="-104.8" font-family="Helvetica,sans-Serif" font-size="11.00" fill="#000000">classes_id</text>
<polygon fill="none" stroke="#000000" points="518.5,-75.7 518.5,-97.7 653.5,-97.7 653.5,-75.7 518.5,-75.7"/>
<image xlink:href="../../images/primaryKeys.png" width="11px" height="12px" preserveAspectRatio="xMinYMin meet" x="523.5" y="-92.7"/>
<text text-anchor="start" x="541.5" y="-82.8" font-family="Helvetica,sans-Serif" font-size="11.00" fill="#000000">challenges_id</text>
<polygon fill="none" stroke="#000000" points="518.5,-56.7 518.5,-75.7 653.5,-75.7 653.5,-56.7 518.5,-56.7"/>
<text text-anchor="start" x="521.5" y="-62.8" font-family="Helvetica,sans-Serif" font-size="11.00" fill="#000000">...</text>
<polygon fill="#ffffff" stroke="transparent" points="518.5,-37.7 518.5,-56.7 566.5,-56.7 566.5,-37.7 518.5,-37.7"/>
<polygon fill="none" stroke="#000000" points="518.5,-37.7 518.5,-56.7 566.5,-56.7 566.5,-37.7 518.5,-37.7"/>
<text text-anchor="start" x="521.5" y="-43.8" font-family="Helvetica,sans-Serif" font-size="11.00" fill="#000000">&lt; 2</text>
<polygon fill="#ffffff" stroke="transparent" points="566.5,-37.7 566.5,-56.7 618.5,-56.7 618.5,-37.7 566.5,-37.7"/>
<polygon fill="none" stroke="#000000" points="566.5,-37.7 566.5,-56.7 618.5,-56.7 618.5,-37.7 566.5,-37.7"/>
<text text-anchor="start" x="583.1105" y="-43.8" font-family="Helvetica,sans-Serif" font-size="11.00" fill="#000000">0 rows</text>
<polygon fill="#ffffff" stroke="transparent" points="618.5,-37.7 618.5,-56.7 653.5,-56.7 653.5,-37.7 618.5,-37.7"/>
<polygon fill="none" stroke="#000000" points="618.5,-37.7 618.5,-56.7 653.5,-56.7 653.5,-37.7 618.5,-37.7"/>
<text text-anchor="start" x="634.9053" y="-43.8" font-family="Helvetica,sans-Serif" font-size="11.00" fill="#000000">2 &gt;</text>
</a>
</g>
</g>
<!-- completed_normal_challenges&#45;&gt;normal_challenges -->
<g id="edge7" class="edge">
<title>completed_normal_challenges:w&#45;&gt;normal_challenges:e</title>
<path fill="none" stroke="#000000" d="M687.7648,-105.2625C676.3432,-99.075 671.2522,-86.7 653.5,-86.7"/>
<polygon fill="#000000" stroke="#000000" points="694.2235,-106.8221 701.1549,-112.1994 698.1118,-107.7611 702,-108.7 702,-108.7 702,-108.7 698.1118,-107.7611 702.8451,-105.2006 694.2235,-106.8221 694.2235,-106.8221"/>
<ellipse fill="none" stroke="#000000" cx="691.1129" cy="-106.0709" rx="3.2" ry="3.2"/>
</g>
<!-- completed_normal_challenges&#45;&gt;normal_challenges -->
<g id="edge8" class="edge">
<title>completed_normal_challenges:w&#45;&gt;normal_challenges:e</title>
<path fill="none" stroke="#000000" d="M687.2829,-108.7C676.2886,-108.7 669.1615,-108.7 653.5,-108.7"/>
<polygon fill="#000000" stroke="#000000" points="694,-108.7001 702,-112.3 698,-108.7 702,-108.7 702,-108.7 702,-108.7 698,-108.7 702,-105.1 694,-108.7001 694,-108.7001"/>
<ellipse fill="none" stroke="#000000" cx="690.8" cy="-108.7001" rx="3.2" ry="3.2"/>
</g>
<!-- normal_challenges&#45;&gt;classes -->
<g id="edge14" class="edge">
<title>normal_challenges:w&#45;&gt;classes:e</title>
<path fill="none" stroke="#000000" d="M505.2687,-114.5904C468.8219,-154.0753 522.7132,-378.7 467,-378.7"/>
<polygon fill="#000000" stroke="#000000" points="511.1915,-111.9537 519.9642,-111.9888 514.8458,-110.3268 518.5,-108.7 518.5,-108.7 518.5,-108.7 514.8458,-110.3268 517.0358,-105.4112 511.1915,-111.9537 511.1915,-111.9537"/>
<ellipse fill="none" stroke="#000000" cx="508.2681" cy="-113.2552" rx="3.2" ry="3.2"/>
</g>
<!-- normal_challenges&#45;&gt;challenges -->
<g id="edge13" class="edge">
<title>normal_challenges:w&#45;&gt;challenges:e</title>
<path fill="none" stroke="#000000" d="M503.9158,-86.3797C468.8773,-84.7764 455.3356,-77.7 414,-77.7"/>
<polygon fill="#000000" stroke="#000000" points="510.5019,-86.5243 518.4209,-90.2991 514.501,-86.6121 518.5,-86.7 518.5,-86.7 518.5,-86.7 514.501,-86.6121 518.5791,-83.1009 510.5019,-86.5243 510.5019,-86.5243"/>
<ellipse fill="none" stroke="#000000" cx="507.3027" cy="-86.454" rx="3.2" ry="3.2"/>
</g>
<!-- gymnasts_classes -->
<g id="node9" class="node">
<title>gymnasts_classes</title>
<g id="a_node9"><a xlink:href="../../tables/gymnasts_classes.html" xlink:title="gymnasts_classes" target="_top">
<polygon fill="#ffffff" stroke="transparent" points="732,-343.7 732,-429.7 864,-429.7 864,-343.7 732,-343.7"/>
<polygon fill="#f5f5f5" stroke="transparent" points="732,-406.7 732,-429.7 864,-429.7 864,-406.7 732,-406.7"/>
<polygon fill="none" stroke="#000000" points="732,-406.7 732,-429.7 864,-429.7 864,-406.7 732,-406.7"/>
<text text-anchor="start" x="736.5755" y="-415.8" font-family="Helvetica,sans-Serif" font-weight="bold" font-size="11.00" fill="#000000">gymnasts_classes</text>
<text text-anchor="start" x="829.5219" y="-414.8" font-family="Helvetica,sans-Serif" font-size="11.00" fill="#000000">[table]</text>
<polygon fill="none" stroke="#000000" points="732,-384.7 732,-406.7 864,-406.7 864,-384.7 732,-384.7"/>
<image xlink:href="../../images/primaryKeys.png" width="11px" height="12px" preserveAspectRatio="xMinYMin meet" x="737" y="-401.7"/>
<text text-anchor="start" x="755" y="-391.8" font-family="Helvetica,sans-Serif" font-size="11.00" fill="#000000">gymnasts_id</text>
<polygon fill="none" stroke="#000000" points="732,-362.7 732,-384.7 864,-384.7 864,-362.7 732,-362.7"/>
<image xlink:href="../../images/primaryKeys.png" width="11px" height="12px" preserveAspectRatio="xMinYMin meet" x="737" y="-379.7"/>
<text text-anchor="start" x="755" y="-369.8" font-family="Helvetica,sans-Serif" font-size="11.00" fill="#000000">classes_id</text>
<polygon fill="#ffffff" stroke="transparent" points="732,-343.7 732,-362.7 783,-362.7 783,-343.7 732,-343.7"/>
<polygon fill="none" stroke="#000000" points="732,-343.7 732,-362.7 783,-362.7 783,-343.7 732,-343.7"/>
<text text-anchor="start" x="735" y="-349.8" font-family="Helvetica,sans-Serif" font-size="11.00" fill="#000000">&lt; 2</text>
<polygon fill="#ffffff" stroke="transparent" points="783,-343.7 783,-362.7 836,-362.7 836,-343.7 783,-343.7"/>
<polygon fill="none" stroke="#000000" points="783,-343.7 783,-362.7 836,-362.7 836,-343.7 783,-343.7"/>
<text text-anchor="start" x="800.6105" y="-349.8" font-family="Helvetica,sans-Serif" font-size="11.00" fill="#000000">0 rows</text>
<polygon fill="#ffffff" stroke="transparent" points="836,-343.7 836,-362.7 864,-362.7 864,-343.7 836,-343.7"/>
<polygon fill="none" stroke="#000000" points="836,-343.7 836,-362.7 864,-362.7 864,-343.7 836,-343.7"/>
<text text-anchor="start" x="854.8862" y="-349.8" font-family="Helvetica,sans-Serif" font-size="11.00" fill="#000000"> &#160;</text>
</a>
</g>
</g>
<!-- gymnasts_classes&#45;&gt;classes -->
<g id="edge11" class="edge">
<title>gymnasts_classes:w&#45;&gt;classes:e</title>
<path fill="none" stroke="#000000" d="M717.2906,-373.7269C611.5113,-374.1205 579.7371,-378.7 467,-378.7"/>
<polygon fill="#000000" stroke="#000000" points="724,-373.7147 732.0066,-377.3 728,-373.7073 732,-373.7 732,-373.7 732,-373.7 728,-373.7073 731.9934,-370.1 724,-373.7147 724,-373.7147"/>
<ellipse fill="none" stroke="#000000" cx="720.8" cy="-373.7206" rx="3.2" ry="3.2"/>
</g>
<!-- gymnasts_classes&#45;&gt;gymnasts -->
<g id="edge12" class="edge">
<title>gymnasts_classes:w&#45;&gt;gymnasts:e</title>
<path fill="none" stroke="#000000" d="M717.6074,-394.0579C640.8246,-374.7517 726.4289,-191.7 630.5,-191.7"/>
<polygon fill="#000000" stroke="#000000" points="724.0516,-394.7931 731.5919,-399.2768 728.0258,-395.2465 732,-395.7 732,-395.7 732,-395.7 728.0258,-395.2465 732.4081,-392.1232 724.0516,-394.7931 724.0516,-394.7931"/>
<ellipse fill="none" stroke="#000000" cx="720.8722" cy="-394.4303" rx="3.2" ry="3.2"/>
</g>
<!-- skill_lists_has_skills -->
<g id="node11" class="node">
<title>skill_lists_has_skills</title>
<g id="a_node11"><a xlink:href="../../tables/skill_lists_has_skills.html" xlink:title="skill_lists_has_skills" target="_top">
<polygon fill="#ffffff" stroke="transparent" points="296,-132.2 296,-193.2 436,-193.2 436,-132.2 296,-132.2"/>
<polygon fill="#f5f5f5" stroke="transparent" points="296,-169.7 296,-192.7 436,-192.7 436,-169.7 296,-169.7"/>
<polygon fill="none" stroke="#000000" points="296,-169.7 296,-192.7 436,-192.7 436,-169.7 296,-169.7"/>
<text text-anchor="start" x="300.9207" y="-178.8" font-family="Helvetica,sans-Serif" font-weight="bold" font-size="11.00" fill="#000000">skill_lists_has_skills</text>
<text text-anchor="start" x="401.5219" y="-177.8" font-family="Helvetica,sans-Serif" font-size="11.00" fill="#000000">[table]</text>
<polygon fill="none" stroke="#000000" points="296,-150.7 296,-169.7 436,-169.7 436,-150.7 296,-150.7"/>
<text text-anchor="start" x="299" y="-156.8" font-family="Helvetica,sans-Serif" font-size="11.00" fill="#000000">...</text>
<polygon fill="#ffffff" stroke="transparent" points="296,-131.7 296,-150.7 351,-150.7 351,-131.7 296,-131.7"/>
<polygon fill="none" stroke="#000000" points="296,-131.7 296,-150.7 351,-150.7 351,-131.7 296,-131.7"/>
<text text-anchor="start" x="299" y="-137.8" font-family="Helvetica,sans-Serif" font-size="11.00" fill="#000000">&lt; 2</text>
<polygon fill="#ffffff" stroke="transparent" points="351,-131.7 351,-150.7 406,-150.7 406,-131.7 351,-131.7"/>
<polygon fill="none" stroke="#000000" points="351,-131.7 351,-150.7 406,-150.7 406,-131.7 351,-131.7"/>
<text text-anchor="start" x="370.6105" y="-137.8" font-family="Helvetica,sans-Serif" font-size="11.00" fill="#000000">0 rows</text>
<polygon fill="#ffffff" stroke="transparent" points="406,-131.7 406,-150.7 436,-150.7 436,-131.7 406,-131.7"/>
<polygon fill="none" stroke="#000000" points="406,-131.7 406,-150.7 436,-150.7 436,-131.7 406,-131.7"/>
<text text-anchor="start" x="426.8862" y="-137.8" font-family="Helvetica,sans-Serif" font-size="11.00" fill="#000000"> &#160;</text>
</a>
</g>
</g>
<!-- skill_lists_has_skills&#45;&gt;skill_lists -->
<g id="edge16" class="edge">
<title>skill_lists_has_skills:w&#45;&gt;skill_lists:e</title>
<path fill="none" stroke="#000000" d="M281.5001,-162.4049C249.3867,-175.9435 258.0614,-235.7 214,-235.7"/>
<polygon fill="#000000" stroke="#000000" points="288.1357,-161.1671 296.6602,-163.239 292.0678,-160.4335 296,-159.7 296,-159.7 296,-159.7 292.0678,-160.4335 295.3398,-156.161 288.1357,-161.1671 288.1357,-161.1671"/>
<ellipse fill="none" stroke="#000000" cx="284.9899" cy="-161.7539" rx="3.2" ry="3.2"/>
</g>
</g>
</svg>
