<?xml version="1.0" encoding="UTF-8" standalone="no"?>
<!DOCTYPE svg PUBLIC "-//W3C//DTD SVG 1.1//EN"
 "http://www.w3.org/Graphics/SVG/1.1/DTD/svg11.dtd">
<!-- Generated by graphviz version 2.40.1 (20161225.0304)
 -->
<!-- Title: twoDegreesRelationshipsDiagram Pages: 1 -->
<svg width="1102pt" height="460pt"
 viewBox="0.00 0.00 1102.00 460.20" xmlns="http://www.w3.org/2000/svg" xmlns:xlink="http://www.w3.org/1999/xlink">
<g id="graph0" class="graph" transform="scale(1 1) rotate(0) translate(4 456.2)">
<title>twoDegreesRelationshipsDiagram</title>
<polygon fill="#ffffff" stroke="transparent" points="-4,4 -4,-456.2 1098,-456.2 1098,4 -4,4"/>
<text text-anchor="middle" x="72.4936" y="-7.3" font-family="Helvetica,sans-Serif" font-size="11.00" fill="#000000">Generated by SchemaSpy</text>
<!-- challenges -->
<g id="node1" class="node">
<title>challenges</title>
<g id="a_node1"><a xlink:href="../../tables/challenges.html" xlink:title="challenges" target="_top">
<polygon fill="#ffffff" stroke="transparent" points="518,-244.7 518,-371.7 661,-371.7 661,-244.7 518,-244.7"/>
<polygon fill="#f5f5f5" stroke="transparent" points="518.5,-348.2 518.5,-371.2 661.5,-371.2 661.5,-348.2 518.5,-348.2"/>
<polygon fill="none" stroke="#000000" points="518.5,-348.2 518.5,-371.2 661.5,-371.2 661.5,-348.2 518.5,-348.2"/>
<text text-anchor="start" x="523.5" y="-357.3" font-family="Helvetica,sans-Serif" font-weight="bold" font-size="11.00" fill="#000000">challenges</text>
<text text-anchor="start" x="626.5437" y="-356.3" font-family="Helvetica,sans-Serif" font-size="11.00" fill="#000000">[table]</text>
<polygon fill="none" stroke="#000000" points="518.5,-326.2 518.5,-348.2 661.5,-348.2 661.5,-326.2 518.5,-326.2"/>
<image xlink:href="../../images/primaryKeys.png" width="11px" height="12px" preserveAspectRatio="xMinYMin meet" x="523.5" y="-343.2"/>
<text text-anchor="start" x="538.5" y="-333.3" font-family="Helvetica,sans-Serif" font-size="11.00" fill="#000000">id</text>
<polygon fill="#ffffff" stroke="transparent" points="518.5,-304.2 518.5,-326.2 661.5,-326.2 661.5,-304.2 518.5,-304.2"/>
<polygon fill="none" stroke="#000000" points="518.5,-304.2 518.5,-326.2 661.5,-326.2 661.5,-304.2 518.5,-304.2"/>
<image xlink:href="../../images/foreignKeys.png" width="11px" height="12px" preserveAspectRatio="xMinYMin meet" x="523.5" y="-321.2"/>
<text text-anchor="start" x="538.5" y="-311.3" font-family="Helvetica,sans-Serif" font-size="11.00" fill="#000000">gym_id</text>
<polygon fill="#ffffff" stroke="transparent" points="518.5,-282.2 518.5,-304.2 661.5,-304.2 661.5,-282.2 518.5,-282.2"/>
<polygon fill="none" stroke="#000000" points="518.5,-282.2 518.5,-304.2 661.5,-304.2 661.5,-282.2 518.5,-282.2"/>
<image xlink:href="../../images/foreignKeys.png" width="11px" height="12px" preserveAspectRatio="xMinYMin meet" x="523.5" y="-299.2"/>
<text text-anchor="start" x="538.5" y="-289.3" font-family="Helvetica,sans-Serif" font-size="11.00" fill="#000000">class_id</text>
<polygon fill="none" stroke="#000000" points="518.5,-263.2 518.5,-282.2 661.5,-282.2 661.5,-263.2 518.5,-263.2"/>
<text text-anchor="start" x="521.5" y="-269.3" font-family="Helvetica,sans-Serif" font-size="11.00" fill="#000000">...</text>
<polygon fill="#ffffff" stroke="transparent" points="518.5,-244.2 518.5,-263.2 570.5,-263.2 570.5,-244.2 518.5,-244.2"/>
<polygon fill="none" stroke="#000000" points="518.5,-244.2 518.5,-263.2 570.5,-263.2 570.5,-244.2 518.5,-244.2"/>
<text text-anchor="start" x="521.5" y="-250.3" font-family="Helvetica,sans-Serif" font-size="11.00" fill="#000000">&lt; 2</text>
<polygon fill="#ffffff" stroke="transparent" points="570.5,-244.2 570.5,-263.2 624.5,-263.2 624.5,-244.2 570.5,-244.2"/>
<polygon fill="none" stroke="#000000" points="570.5,-244.2 570.5,-263.2 624.5,-263.2 624.5,-244.2 570.5,-244.2"/>
<text text-anchor="start" x="589.1105" y="-250.3" font-family="Helvetica,sans-Serif" font-size="11.00" fill="#000000">0 rows</text>
<polygon fill="#ffffff" stroke="transparent" points="624.5,-244.2 624.5,-263.2 661.5,-263.2 661.5,-244.2 624.5,-244.2"/>
<polygon fill="none" stroke="#000000" points="624.5,-244.2 624.5,-263.2 661.5,-263.2 661.5,-244.2 624.5,-244.2"/>
<text text-anchor="start" x="642.9053" y="-250.3" font-family="Helvetica,sans-Serif" font-size="11.00" fill="#000000">2 &gt;</text>
</a>
</g>
</g>
<!-- classes -->
<g id="node2" class="node">
<title>classes</title>
<g id="a_node2"><a xlink:href="../../tables/classes.html" xlink:title="classes" target="_top">
<polygon fill="#ffffff" stroke="transparent" points="263,-38.2 263,-238.2 469,-238.2 469,-38.2 263,-38.2"/>
<polygon fill="#f5f5f5" stroke="transparent" points="265,-213.2 265,-236.2 467,-236.2 467,-213.2 265,-213.2"/>
<polygon fill="none" stroke="#000000" points="265,-213.2 265,-236.2 467,-236.2 467,-213.2 265,-213.2"/>
<text text-anchor="start" x="270" y="-222.3" font-family="Helvetica,sans-Serif" font-weight="bold" font-size="11.00" fill="#000000">classes</text>
<text text-anchor="start" x="432.0437" y="-221.3" font-family="Helvetica,sans-Serif" font-size="11.00" fill="#000000">[table]</text>
<polygon fill="none" stroke="#000000" points="265,-191.2 265,-213.2 350,-213.2 350,-191.2 265,-191.2"/>
<image xlink:href="../../images/primaryKeys.png" width="11px" height="12px" preserveAspectRatio="xMinYMin meet" x="270" y="-208.2"/>
<text text-anchor="start" x="285" y="-198.3" font-family="Helvetica,sans-Serif" font-size="11.00" fill="#000000">id</text>
<polygon fill="none" stroke="#000000" points="350,-191.2 350,-213.2 467,-213.2 467,-191.2 350,-191.2"/>
<text text-anchor="start" x="353" y="-198.9" font-family="Helvetica,sans-Serif" font-size="11.00" fill="#000000">bigint[19]</text>
<polygon fill="none" stroke="#000000" points="265,-169.2 265,-191.2 350,-191.2 350,-169.2 265,-169.2"/>
<text text-anchor="start" x="285" y="-176.3" font-family="Helvetica,sans-Serif" font-size="11.00" fill="#000000">name</text>
<polygon fill="none" stroke="#000000" points="350,-169.2 350,-191.2 467,-191.2 467,-169.2 350,-169.2"/>
<text text-anchor="start" x="353" y="-176.9" font-family="Helvetica,sans-Serif" font-size="11.00" fill="#000000">varchar[45]</text>
<polygon fill="none" stroke="#000000" points="265,-147.2 265,-169.2 350,-169.2 350,-147.2 265,-147.2"/>
<text text-anchor="start" x="285" y="-154.3" font-family="Helvetica,sans-Serif" font-size="11.00" fill="#000000">description</text>
<polygon fill="none" stroke="#000000" points="350,-147.2 350,-169.2 467,-169.2 467,-147.2 350,-147.2"/>
<text text-anchor="start" x="352.5645" y="-154.9" font-family="Helvetica,sans-Serif" font-size="11.00" fill="#000000">mediumtext[16777215]</text>
<polygon fill="#ffffff" stroke="transparent" points="265,-125.2 265,-147.2 350,-147.2 350,-125.2 265,-125.2"/>
<polygon fill="none" stroke="#000000" points="265,-125.2 265,-147.2 350,-147.2 350,-125.2 265,-125.2"/>
<image xlink:href="../../images/foreignKeys.png" width="11px" height="12px" preserveAspectRatio="xMinYMin meet" x="270" y="-142.2"/>
<text text-anchor="start" x="285" y="-132.3" font-family="Helvetica,sans-Serif" font-size="11.00" fill="#000000">skill_list_id</text>
<polygon fill="none" stroke="#000000" points="350,-125.2 350,-147.2 467,-147.2 467,-125.2 350,-125.2"/>
<text text-anchor="start" x="353" y="-132.9" font-family="Helvetica,sans-Serif" font-size="11.00" fill="#000000">bigint unsigned[20]</text>
<polygon fill="none" stroke="#000000" points="265,-103.2 265,-125.2 350,-125.2 350,-103.2 265,-103.2"/>
<text text-anchor="start" x="285" y="-110.3" font-family="Helvetica,sans-Serif" font-size="11.00" fill="#000000">created_at</text>
<polygon fill="none" stroke="#000000" points="350,-103.2 350,-125.2 467,-125.2 467,-103.2 350,-103.2"/>
<text text-anchor="start" x="353" y="-110.9" font-family="Helvetica,sans-Serif" font-size="11.00" fill="#000000">timestamp[19]</text>
<polygon fill="none" stroke="#000000" points="265,-81.2 265,-103.2 350,-103.2 350,-81.2 265,-81.2"/>
<text text-anchor="start" x="285" y="-88.3" font-family="Helvetica,sans-Serif" font-size="11.00" fill="#000000">updated_at</text>
<polygon fill="none" stroke="#000000" points="350,-81.2 350,-103.2 467,-103.2 467,-81.2 350,-81.2"/>
<text text-anchor="start" x="353" y="-88.9" font-family="Helvetica,sans-Serif" font-size="11.00" fill="#000000">timestamp[19]</text>
<polygon fill="none" stroke="#000000" points="265,-59.2 265,-81.2 350,-81.2 350,-59.2 265,-59.2"/>
<text text-anchor="start" x="285" y="-66.3" font-family="Helvetica,sans-Serif" font-size="11.00" fill="#000000">deleted_at</text>
<polygon fill="none" stroke="#000000" points="350,-59.2 350,-81.2 467,-81.2 467,-59.2 350,-59.2"/>
<text text-anchor="start" x="353" y="-66.9" font-family="Helvetica,sans-Serif" font-size="11.00" fill="#000000">timestamp[19]</text>
<polygon fill="#ffffff" stroke="transparent" points="265,-40.2 265,-59.2 299,-59.2 299,-40.2 265,-40.2"/>
<polygon fill="none" stroke="#000000" points="265,-40.2 265,-59.2 299,-59.2 299,-40.2 265,-40.2"/>
<text text-anchor="start" x="268" y="-46.3" font-family="Helvetica,sans-Serif" font-size="11.00" fill="#000000">&lt; 1</text>
<polygon fill="#ffffff" stroke="transparent" points="299,-40.2 299,-59.2 350,-59.2 350,-40.2 299,-40.2"/>
<polygon fill="none" stroke="#000000" points="299,-40.2 299,-59.2 350,-59.2 350,-40.2 299,-40.2"/>
<text text-anchor="start" x="314.6105" y="-46.3" font-family="Helvetica,sans-Serif" font-size="11.00" fill="#000000">0 rows</text>
<polygon fill="#ffffff" stroke="transparent" points="350,-40.2 350,-59.2 467,-59.2 467,-40.2 350,-40.2"/>
<polygon fill="none" stroke="#000000" points="350,-40.2 350,-59.2 467,-59.2 467,-40.2 350,-40.2"/>
<text text-anchor="start" x="448.4053" y="-46.3" font-family="Helvetica,sans-Serif" font-size="11.00" fill="#000000">4 &gt;</text>
<polygon fill="none" stroke="#000000" stroke-width="2" points="264,-39.2 264,-237.2 468,-237.2 468,-39.2 264,-39.2"/>
</a>
</g>
</g>
<!-- challenges&#45;&gt;classes -->
<g id="edge1" class="edge">
<title>challenges:w&#45;&gt;classes:e</title>
<path fill="none" stroke="#000000" d="M504.5344,-289.0535C481.2519,-271.2512 507.4815,-202.2 467,-202.2"/>
<polygon fill="#000000" stroke="#000000" points="510.8309,-290.9229 517.4753,-296.6511 514.6654,-292.0615 518.5,-293.2 518.5,-293.2 518.5,-293.2 514.6654,-292.0615 519.5247,-289.7489 510.8309,-290.9229 510.8309,-290.9229"/>
<ellipse fill="none" stroke="#000000" cx="507.7633" cy="-290.0121" rx="3.2" ry="3.2"/>
</g>
<!-- gyms -->
<g id="node3" class="node">
<title>gyms</title>
<g id="a_node3"><a xlink:href="../../tables/gyms.html" xlink:title="gyms" target="_top">
<polygon fill="#ffffff" stroke="transparent" points="8,-276.7 8,-337.7 79,-337.7 79,-276.7 8,-276.7"/>
<polygon fill="#f5f5f5" stroke="transparent" points="8.5,-314.2 8.5,-337.2 79.5,-337.2 79.5,-314.2 8.5,-314.2"/>
<polygon fill="none" stroke="#000000" points="8.5,-314.2 8.5,-337.2 79.5,-337.2 79.5,-314.2 8.5,-314.2"/>
<text text-anchor="start" x="13.5" y="-323.3" font-family="Helvetica,sans-Serif" font-weight="bold" font-size="11.00" fill="#000000">gyms</text>
<text text-anchor="start" x="44.5437" y="-322.3" font-family="Helvetica,sans-Serif" font-size="11.00" fill="#000000">[table]</text>
<polygon fill="none" stroke="#000000" points="8.5,-295.2 8.5,-314.2 79.5,-314.2 79.5,-295.2 8.5,-295.2"/>
<text text-anchor="start" x="11.5" y="-301.3" font-family="Helvetica,sans-Serif" font-size="11.00" fill="#000000">...</text>
<polygon fill="#ffffff" stroke="transparent" points="8.5,-276.2 8.5,-295.2 20.5,-295.2 20.5,-276.2 8.5,-276.2"/>
<polygon fill="none" stroke="#000000" points="8.5,-276.2 8.5,-295.2 20.5,-295.2 20.5,-276.2 8.5,-276.2"/>
<text text-anchor="start" x="11.4431" y="-282.3" font-family="Helvetica,sans-Serif" font-size="11.00" fill="#000000"> &#160;</text>
<polygon fill="#ffffff" stroke="transparent" points="20.5,-276.2 20.5,-295.2 58.5,-295.2 58.5,-276.2 20.5,-276.2"/>
<polygon fill="none" stroke="#000000" points="20.5,-276.2 20.5,-295.2 58.5,-295.2 58.5,-276.2 20.5,-276.2"/>
<text text-anchor="start" x="23.3053" y="-282.3" font-family="Helvetica,sans-Serif" font-size="11.00" fill="#000000">0 rows</text>
<polygon fill="#ffffff" stroke="transparent" points="58.5,-276.2 58.5,-295.2 79.5,-295.2 79.5,-276.2 58.5,-276.2"/>
<polygon fill="none" stroke="#000000" points="58.5,-276.2 58.5,-295.2 79.5,-295.2 79.5,-276.2 58.5,-276.2"/>
<text text-anchor="start" x="61.2027" y="-282.3" font-family="Helvetica,sans-Serif" font-size="11.00" fill="#000000">4 &gt;</text>
</a>
</g>
</g>
<!-- challenges&#45;&gt;gyms -->
<g id="edge2" class="edge">
<title>challenges:w&#45;&gt;gyms:e</title>
<path fill="none" stroke="#000000" d="M504.3175,-318.0506C495.741,-321.9323 490.5128,-328.6853 477,-331.2 321.0114,-360.2287 271.8586,-377.1791 120,-331.2 99.2949,-324.931 101.1333,-304.2 79.5,-304.2"/>
<polygon fill="#000000" stroke="#000000" points="510.6569,-316.7765 519.2094,-318.7294 514.5784,-315.9882 518.5,-315.2 518.5,-315.2 518.5,-315.2 514.5784,-315.9882 517.7906,-311.6706 510.6569,-316.7765 510.6569,-316.7765"/>
<ellipse fill="none" stroke="#000000" cx="507.5196" cy="-317.407" rx="3.2" ry="3.2"/>
</g>
<!-- skill_lists -->
<g id="node4" class="node">
<title>skill_lists</title>
<g id="a_node4"><a xlink:href="../../tables/skill_lists.html" xlink:title="skill_lists" target="_top">
<polygon fill="#ffffff" stroke="transparent" points="128,-215.7 128,-320.7 214,-320.7 214,-215.7 128,-215.7"/>
<polygon fill="#f5f5f5" stroke="transparent" points="128,-297.2 128,-320.2 214,-320.2 214,-297.2 128,-297.2"/>
<polygon fill="none" stroke="#000000" points="128,-297.2 128,-320.2 214,-320.2 214,-297.2 128,-297.2"/>
<text text-anchor="start" x="132.8119" y="-306.3" font-family="Helvetica,sans-Serif" font-weight="bold" font-size="11.00" fill="#000000">skill_lists</text>
<text text-anchor="start" x="179.5219" y="-305.3" font-family="Helvetica,sans-Serif" font-size="11.00" fill="#000000">[table]</text>
<polygon fill="none" stroke="#000000" points="128,-275.2 128,-297.2 214,-297.2 214,-275.2 128,-275.2"/>
<image xlink:href="../../images/primaryKeys.png" width="11px" height="12px" preserveAspectRatio="xMinYMin meet" x="133" y="-292.2"/>
<text text-anchor="start" x="149" y="-282.3" font-family="Helvetica,sans-Serif" font-size="11.00" fill="#000000">id</text>
<polygon fill="#ffffff" stroke="transparent" points="128,-253.2 128,-275.2 214,-275.2 214,-253.2 128,-253.2"/>
<polygon fill="none" stroke="#000000" points="128,-253.2 128,-275.2 214,-275.2 214,-253.2 128,-253.2"/>
<image xlink:href="../../images/foreignKeys.png" width="11px" height="12px" preserveAspectRatio="xMinYMin meet" x="133" y="-270.2"/>
<text text-anchor="start" x="149" y="-260.3" font-family="Helvetica,sans-Serif" font-size="11.00" fill="#000000">gym_id</text>
<polygon fill="none" stroke="#000000" points="128,-234.2 128,-253.2 214,-253.2 214,-234.2 128,-234.2"/>
<text text-anchor="start" x="131" y="-240.3" font-family="Helvetica,sans-Serif" font-size="11.00" fill="#000000">...</text>
<polygon fill="#ffffff" stroke="transparent" points="128,-215.2 128,-234.2 152,-234.2 152,-215.2 128,-215.2"/>
<polygon fill="none" stroke="#000000" points="128,-215.2 128,-234.2 152,-234.2 152,-215.2 128,-215.2"/>
<text text-anchor="start" x="131" y="-221.3" font-family="Helvetica,sans-Serif" font-size="11.00" fill="#000000">&lt; 1</text>
<polygon fill="#ffffff" stroke="transparent" points="152,-215.2 152,-234.2 191,-234.2 191,-215.2 152,-215.2"/>
<polygon fill="none" stroke="#000000" points="152,-215.2 152,-234.2 191,-234.2 191,-215.2 152,-215.2"/>
<text text-anchor="start" x="155.6105" y="-221.3" font-family="Helvetica,sans-Serif" font-size="11.00" fill="#000000">0 rows</text>
<polygon fill="#ffffff" stroke="transparent" points="191,-215.2 191,-234.2 214,-234.2 214,-215.2 191,-215.2"/>
<polygon fill="none" stroke="#000000" points="191,-215.2 191,-234.2 214,-234.2 214,-215.2 191,-215.2"/>
<text text-anchor="start" x="195.4053" y="-221.3" font-family="Helvetica,sans-Serif" font-size="11.00" fill="#000000">2 &gt;</text>
</a>
</g>
</g>
<!-- classes&#45;&gt;skill_lists -->
<g id="edge3" class="edge">
<title>classes:w&#45;&gt;skill_lists:e</title>
<path fill="none" stroke="#000000" d="M250.7294,-139.0625C208.2447,-159.8 278.6384,-286.2 214,-286.2"/>
<polygon fill="#000000" stroke="#000000" points="257.1562,-137.7734 265.708,-139.7297 261.0781,-136.9867 265,-136.2 265,-136.2 265,-136.2 261.0781,-136.9867 264.292,-132.6703 257.1562,-137.7734 257.1562,-137.7734"/>
<ellipse fill="none" stroke="#000000" cx="254.0187" cy="-138.4028" rx="3.2" ry="3.2"/>
</g>
<!-- skill_lists&#45;&gt;gyms -->
<g id="edge17" class="edge">
<title>skill_lists:w&#45;&gt;gyms:e</title>
<path fill="none" stroke="#000000" d="M113.9951,-269.1048C101.5984,-279.7859 101.3288,-304.2 79.5,-304.2"/>
<polygon fill="#000000" stroke="#000000" points="120.4496,-266.8443 129.1899,-267.5977 124.2248,-265.5222 128,-264.2 128,-264.2 128,-264.2 124.2248,-265.5222 126.8101,-260.8023 120.4496,-266.8443 120.4496,-266.8443"/>
<ellipse fill="none" stroke="#000000" cx="117.4295" cy="-267.902" rx="3.2" ry="3.2"/>
</g>
<!-- completed_daily_challenges -->
<g id="node5" class="node">
<title>completed_daily_challenges</title>
<g id="a_node5"><a xlink:href="../../tables/completed_daily_challenges.html" xlink:title="completed_daily_challenges" target="_top">
<polygon fill="#ffffff" stroke="transparent" points="899.5,-353.7 899.5,-414.7 1080.5,-414.7 1080.5,-353.7 899.5,-353.7"/>
<polygon fill="#f5f5f5" stroke="transparent" points="900,-391.2 900,-414.2 1081,-414.2 1081,-391.2 900,-391.2"/>
<polygon fill="none" stroke="#000000" points="900,-391.2 900,-414.2 1081,-414.2 1081,-391.2 900,-391.2"/>
<text text-anchor="start" x="904.9266" y="-400.3" font-family="Helvetica,sans-Serif" font-weight="bold" font-size="11.00" fill="#000000">completed_daily_challenges</text>
<text text-anchor="start" x="1046.5219" y="-399.3" font-family="Helvetica,sans-Serif" font-size="11.00" fill="#000000">[table]</text>
<polygon fill="none" stroke="#000000" points="900,-372.2 900,-391.2 1081,-391.2 1081,-372.2 900,-372.2"/>
<text text-anchor="start" x="903" y="-378.3" font-family="Helvetica,sans-Serif" font-size="11.00" fill="#000000">...</text>
<polygon fill="#ffffff" stroke="transparent" points="900,-353.2 900,-372.2 976,-372.2 976,-353.2 900,-353.2"/>
<polygon fill="none" stroke="#000000" points="900,-353.2 900,-372.2 976,-372.2 976,-353.2 900,-353.2"/>
<text text-anchor="start" x="903" y="-359.3" font-family="Helvetica,sans-Serif" font-size="11.00" fill="#000000">&lt; 4</text>
<polygon fill="#ffffff" stroke="transparent" points="976,-353.2 976,-372.2 1041,-372.2 1041,-353.2 976,-353.2"/>
<polygon fill="none" stroke="#000000" points="976,-353.2 976,-372.2 1041,-372.2 1041,-353.2 976,-353.2"/>
<text text-anchor="start" x="1005.6105" y="-359.3" font-family="Helvetica,sans-Serif" font-size="11.00" fill="#000000">0 rows</text>
<polygon fill="#ffffff" stroke="transparent" points="1041,-353.2 1041,-372.2 1081,-372.2 1081,-353.2 1041,-353.2"/>
<polygon fill="none" stroke="#000000" points="1041,-353.2 1041,-372.2 1081,-372.2 1081,-353.2 1041,-353.2"/>
<text text-anchor="start" x="1071.8862" y="-359.3" font-family="Helvetica,sans-Serif" font-size="11.00" fill="#000000"> &#160;</text>
</a>
</g>
</g>
<!-- daily_challenges -->
<g id="node6" class="node">
<title>daily_challenges</title>
<g id="a_node6"><a xlink:href="../../tables/daily_challenges.html" xlink:title="daily_challenges" target="_top">
<polygon fill="#ffffff" stroke="transparent" points="715.5,-340.2 715.5,-448.2 839.5,-448.2 839.5,-340.2 715.5,-340.2"/>
<polygon fill="#f5f5f5" stroke="transparent" points="715.5,-425.2 715.5,-448.2 839.5,-448.2 839.5,-425.2 715.5,-425.2"/>
<polygon fill="none" stroke="#000000" points="715.5,-425.2 715.5,-448.2 839.5,-448.2 839.5,-425.2 715.5,-425.2"/>
<text text-anchor="start" x="720.3512" y="-434.3" font-family="Helvetica,sans-Serif" font-weight="bold" font-size="11.00" fill="#000000">daily_challenges</text>
<text text-anchor="start" x="805.0219" y="-433.3" font-family="Helvetica,sans-Serif" font-size="11.00" fill="#000000">[table]</text>
<polygon fill="none" stroke="#000000" points="715.5,-403.2 715.5,-425.2 839.5,-425.2 839.5,-403.2 715.5,-403.2"/>
<image xlink:href="../../images/primaryKeys.png" width="11px" height="12px" preserveAspectRatio="xMinYMin meet" x="720.5" y="-420.2"/>
<text text-anchor="start" x="739.5" y="-410.3" font-family="Helvetica,sans-Serif" font-size="11.00" fill="#000000">classes_id</text>
<polygon fill="none" stroke="#000000" points="715.5,-381.2 715.5,-403.2 839.5,-403.2 839.5,-381.2 715.5,-381.2"/>
<image xlink:href="../../images/primaryKeys.png" width="11px" height="12px" preserveAspectRatio="xMinYMin meet" x="720.5" y="-398.2"/>
<text text-anchor="start" x="739.5" y="-388.3" font-family="Helvetica,sans-Serif" font-size="11.00" fill="#000000">challenges_id</text>
<polygon fill="none" stroke="#000000" points="715.5,-359.2 715.5,-381.2 839.5,-381.2 839.5,-359.2 715.5,-359.2"/>
<image xlink:href="../../images/primaryKeys.png" width="11px" height="12px" preserveAspectRatio="xMinYMin meet" x="720.5" y="-376.2"/>
<text text-anchor="start" x="739.5" y="-366.3" font-family="Helvetica,sans-Serif" font-size="11.00" fill="#000000">date</text>
<polygon fill="#ffffff" stroke="transparent" points="715.5,-340.2 715.5,-359.2 758.5,-359.2 758.5,-340.2 715.5,-340.2"/>
<polygon fill="none" stroke="#000000" points="715.5,-340.2 715.5,-359.2 758.5,-359.2 758.5,-340.2 715.5,-340.2"/>
<text text-anchor="start" x="718.5" y="-346.3" font-family="Helvetica,sans-Serif" font-size="11.00" fill="#000000">&lt; 2</text>
<polygon fill="#ffffff" stroke="transparent" points="758.5,-340.2 758.5,-359.2 807.5,-359.2 807.5,-340.2 758.5,-340.2"/>
<polygon fill="none" stroke="#000000" points="758.5,-340.2 758.5,-359.2 807.5,-359.2 807.5,-340.2 758.5,-340.2"/>
<text text-anchor="start" x="772.1105" y="-346.3" font-family="Helvetica,sans-Serif" font-size="11.00" fill="#000000">0 rows</text>
<polygon fill="#ffffff" stroke="transparent" points="807.5,-340.2 807.5,-359.2 839.5,-359.2 839.5,-340.2 807.5,-340.2"/>
<polygon fill="none" stroke="#000000" points="807.5,-340.2 807.5,-359.2 839.5,-359.2 839.5,-340.2 807.5,-340.2"/>
<text text-anchor="start" x="820.9053" y="-346.3" font-family="Helvetica,sans-Serif" font-size="11.00" fill="#000000">3 &gt;</text>
</a>
</g>
</g>
<!-- completed_daily_challenges&#45;&gt;daily_challenges -->
<g id="edge4" class="edge">
<title>completed_daily_challenges:w&#45;&gt;daily_challenges:e</title>
<path fill="none" stroke="#000000" d="M885.6457,-382.3772C869.4109,-385.2149 861.2784,-392.2 839.5,-392.2"/>
<polygon fill="#000000" stroke="#000000" points="892.0268,-381.8539 900.2943,-384.788 896.0134,-381.527 900,-381.2 900,-381.2 900,-381.2 896.0134,-381.527 899.7057,-377.612 892.0268,-381.8539 892.0268,-381.8539"/>
<ellipse fill="none" stroke="#000000" cx="888.8375" cy="-382.1155" rx="3.2" ry="3.2"/>
</g>
<!-- completed_daily_challenges&#45;&gt;daily_challenges -->
<g id="edge5" class="edge">
<title>completed_daily_challenges:w&#45;&gt;daily_challenges:e</title>
<path fill="none" stroke="#000000" d="M885.6678,-384.2454C868.5519,-392.4148 864.3859,-414.2 839.5,-414.2"/>
<polygon fill="#000000" stroke="#000000" points="892.1747,-382.8628 900.7483,-384.7214 896.0874,-382.0314 900,-381.2 900,-381.2 900,-381.2 896.0874,-382.0314 899.2517,-377.6786 892.1747,-382.8628 892.1747,-382.8628"/>
<ellipse fill="none" stroke="#000000" cx="889.0446" cy="-383.5279" rx="3.2" ry="3.2"/>
</g>
<!-- completed_daily_challenges&#45;&gt;daily_challenges -->
<g id="edge6" class="edge">
<title>completed_daily_challenges:w&#45;&gt;daily_challenges:e</title>
<path fill="none" stroke="#000000" d="M885.6457,-380.0228C869.4109,-377.1851 861.2784,-370.2 839.5,-370.2"/>
<polygon fill="#000000" stroke="#000000" points="892.0268,-380.5461 899.7057,-384.788 896.0134,-380.873 900,-381.2 900,-381.2 900,-381.2 896.0134,-380.873 900.2943,-377.612 892.0268,-380.5461 892.0268,-380.5461"/>
<ellipse fill="none" stroke="#000000" cx="888.8375" cy="-380.2845" rx="3.2" ry="3.2"/>
</g>
<!-- gymnasts -->
<g id="node7" class="node">
<title>gymnasts</title>
<g id="a_node7"><a xlink:href="../../tables/gymnasts.html" xlink:title="gymnasts" target="_top">
<polygon fill="#ffffff" stroke="transparent" points="732.5,-257.7 732.5,-318.7 822.5,-318.7 822.5,-257.7 732.5,-257.7"/>
<polygon fill="#f5f5f5" stroke="transparent" points="732.5,-295.2 732.5,-318.2 822.5,-318.2 822.5,-295.2 732.5,-295.2"/>
<polygon fill="none" stroke="#000000" points="732.5,-295.2 732.5,-318.2 822.5,-318.2 822.5,-295.2 732.5,-295.2"/>
<text text-anchor="start" x="737.4683" y="-304.3" font-family="Helvetica,sans-Serif" font-weight="bold" font-size="11.00" fill="#000000">gymnasts</text>
<text text-anchor="start" x="788.0219" y="-303.3" font-family="Helvetica,sans-Serif" font-size="11.00" fill="#000000">[table]</text>
<polygon fill="none" stroke="#000000" points="732.5,-276.2 732.5,-295.2 822.5,-295.2 822.5,-276.2 732.5,-276.2"/>
<text text-anchor="start" x="735.5" y="-282.3" font-family="Helvetica,sans-Serif" font-size="11.00" fill="#000000">...</text>
<polygon fill="#ffffff" stroke="transparent" points="732.5,-257.2 732.5,-276.2 758.5,-276.2 758.5,-257.2 732.5,-257.2"/>
<polygon fill="none" stroke="#000000" points="732.5,-257.2 732.5,-276.2 758.5,-276.2 758.5,-257.2 732.5,-257.2"/>
<text text-anchor="start" x="735.5" y="-263.3" font-family="Helvetica,sans-Serif" font-size="11.00" fill="#000000">&lt; 2</text>
<polygon fill="#ffffff" stroke="transparent" points="758.5,-257.2 758.5,-276.2 798.5,-276.2 798.5,-257.2 758.5,-257.2"/>
<polygon fill="none" stroke="#000000" points="758.5,-257.2 758.5,-276.2 798.5,-276.2 798.5,-257.2 758.5,-257.2"/>
<text text-anchor="start" x="763.1105" y="-263.3" font-family="Helvetica,sans-Serif" font-size="11.00" fill="#000000">0 rows</text>
<polygon fill="#ffffff" stroke="transparent" points="798.5,-257.2 798.5,-276.2 822.5,-276.2 822.5,-257.2 798.5,-257.2"/>
<polygon fill="none" stroke="#000000" points="798.5,-257.2 798.5,-276.2 822.5,-276.2 822.5,-257.2 798.5,-257.2"/>
<text text-anchor="start" x="803.9053" y="-263.3" font-family="Helvetica,sans-Serif" font-size="11.00" fill="#000000">4 &gt;</text>
</a>
</g>
</g>
<!-- completed_daily_challenges&#45;&gt;gymnasts -->
<g id="edge7" class="edge">
<title>completed_daily_challenges:w&#45;&gt;gymnasts:e</title>
<path fill="none" stroke="#000000" d="M885.8025,-378.4304C850.8022,-362.6902 871.7657,-285.2 822.5,-285.2"/>
<polygon fill="#000000" stroke="#000000" points="892.148,-379.6682 899.3107,-384.7334 896.074,-380.4341 900,-381.2 900,-381.2 900,-381.2 896.074,-380.4341 900.6893,-377.6666 892.148,-379.6682 892.148,-379.6682"/>
<ellipse fill="none" stroke="#000000" cx="889.0072" cy="-379.0555" rx="3.2" ry="3.2"/>
</g>
<!-- daily_challenges&#45;&gt;challenges -->
<g id="edge11" class="edge">
<title>daily_challenges:w&#45;&gt;challenges:e</title>
<path fill="none" stroke="#000000" d="M701.6633,-387.8842C684.7915,-374.9185 689.8689,-337.2 661.5,-337.2"/>
<polygon fill="#000000" stroke="#000000" points="707.8629,-389.8179 714.4281,-395.6367 711.6814,-391.0089 715.5,-392.2 715.5,-392.2 715.5,-392.2 711.6814,-391.0089 716.5719,-388.7633 707.8629,-389.8179 707.8629,-389.8179"/>
<ellipse fill="none" stroke="#000000" cx="704.808" cy="-388.8651" rx="3.2" ry="3.2"/>
</g>
<!-- daily_challenges&#45;&gt;classes -->
<g id="edge12" class="edge">
<title>daily_challenges:w&#45;&gt;classes:e</title>
<path fill="none" stroke="#000000" d="M701.0043,-414.4464C618.1509,-417.2278 574.2745,-441.5268 510,-382.2 449.56,-326.4126 549.251,-202.2 467,-202.2"/>
<polygon fill="#000000" stroke="#000000" points="707.5012,-414.336 715.5612,-417.7995 711.5006,-414.268 715.5,-414.2 715.5,-414.2 715.5,-414.2 711.5006,-414.268 715.4388,-410.6005 707.5012,-414.336 707.5012,-414.336"/>
<ellipse fill="none" stroke="#000000" cx="704.3016" cy="-414.3904" rx="3.2" ry="3.2"/>
</g>
<!-- completed_normal_challenges -->
<g id="node8" class="node">
<title>completed_normal_challenges</title>
<g id="a_node8"><a xlink:href="../../tables/completed_normal_challenges.html" xlink:title="completed_normal_challenges" target="_top">
<polygon fill="#ffffff" stroke="transparent" points="894,-184.7 894,-245.7 1086,-245.7 1086,-184.7 894,-184.7"/>
<polygon fill="#f5f5f5" stroke="transparent" points="894,-222.2 894,-245.2 1086,-245.2 1086,-222.2 894,-222.2"/>
<polygon fill="none" stroke="#000000" points="894,-222.2 894,-245.2 1086,-245.2 1086,-222.2 894,-222.2"/>
<text text-anchor="start" x="898.9277" y="-231.3" font-family="Helvetica,sans-Serif" font-weight="bold" font-size="11.00" fill="#000000">completed_normal_challenges</text>
<text text-anchor="start" x="1051.5219" y="-230.3" font-family="Helvetica,sans-Serif" font-size="11.00" fill="#000000">[table]</text>
<polygon fill="none" stroke="#000000" points="894,-203.2 894,-222.2 1086,-222.2 1086,-203.2 894,-203.2"/>
<text text-anchor="start" x="897" y="-209.3" font-family="Helvetica,sans-Serif" font-size="11.00" fill="#000000">...</text>
<polygon fill="#ffffff" stroke="transparent" points="894,-184.2 894,-203.2 975,-203.2 975,-184.2 894,-184.2"/>
<polygon fill="none" stroke="#000000" points="894,-184.2 894,-203.2 975,-203.2 975,-184.2 894,-184.2"/>
<text text-anchor="start" x="897" y="-190.3" font-family="Helvetica,sans-Serif" font-size="11.00" fill="#000000">&lt; 3</text>
<polygon fill="#ffffff" stroke="transparent" points="975,-184.2 975,-203.2 1043,-203.2 1043,-184.2 975,-184.2"/>
<polygon fill="none" stroke="#000000" points="975,-184.2 975,-203.2 1043,-203.2 1043,-184.2 975,-184.2"/>
<text text-anchor="start" x="1007.6105" y="-190.3" font-family="Helvetica,sans-Serif" font-size="11.00" fill="#000000">0 rows</text>
<polygon fill="#ffffff" stroke="transparent" points="1043,-184.2 1043,-203.2 1086,-203.2 1086,-184.2 1043,-184.2"/>
<polygon fill="none" stroke="#000000" points="1043,-184.2 1043,-203.2 1086,-203.2 1086,-184.2 1043,-184.2"/>
<text text-anchor="start" x="1076.8862" y="-190.3" font-family="Helvetica,sans-Serif" font-size="11.00" fill="#000000"> &#160;</text>
</a>
</g>
</g>
<!-- completed_normal_challenges&#45;&gt;gymnasts -->
<g id="edge8" class="edge">
<title>completed_normal_challenges:w&#45;&gt;gymnasts:e</title>
<path fill="none" stroke="#000000" d="M879.7515,-215.3367C852.4062,-229.3094 862.2376,-285.2 822.5,-285.2"/>
<polygon fill="#000000" stroke="#000000" points="886.1871,-213.92 894.774,-215.7158 890.0935,-213.06 894,-212.2 894,-212.2 894,-212.2 890.0935,-213.06 893.226,-208.6842 886.1871,-213.92 886.1871,-213.92"/>
<ellipse fill="none" stroke="#000000" cx="883.0619" cy="-214.608" rx="3.2" ry="3.2"/>
</g>
<!-- normal_challenges -->
<g id="node9" class="node">
<title>normal_challenges</title>
<g id="a_node9"><a xlink:href="../../tables/normal_challenges.html" xlink:title="normal_challenges" target="_top">
<polygon fill="#ffffff" stroke="transparent" points="710,-131.7 710,-236.7 845,-236.7 845,-131.7 710,-131.7"/>
<polygon fill="#f5f5f5" stroke="transparent" points="710.5,-213.2 710.5,-236.2 845.5,-236.2 845.5,-213.2 710.5,-213.2"/>
<polygon fill="none" stroke="#000000" points="710.5,-213.2 710.5,-236.2 845.5,-236.2 845.5,-213.2 710.5,-213.2"/>
<text text-anchor="start" x="715.3523" y="-222.3" font-family="Helvetica,sans-Serif" font-weight="bold" font-size="11.00" fill="#000000">normal_challenges</text>
<text text-anchor="start" x="811.0219" y="-221.3" font-family="Helvetica,sans-Serif" font-size="11.00" fill="#000000">[table]</text>
<polygon fill="none" stroke="#000000" points="710.5,-191.2 710.5,-213.2 845.5,-213.2 845.5,-191.2 710.5,-191.2"/>
<image xlink:href="../../images/primaryKeys.png" width="11px" height="12px" preserveAspectRatio="xMinYMin meet" x="715.5" y="-208.2"/>
<text text-anchor="start" x="733.5" y="-198.3" font-family="Helvetica,sans-Serif" font-size="11.00" fill="#000000">classes_id</text>
<polygon fill="none" stroke="#000000" points="710.5,-169.2 710.5,-191.2 845.5,-191.2 845.5,-169.2 710.5,-169.2"/>
<image xlink:href="../../images/primaryKeys.png" width="11px" height="12px" preserveAspectRatio="xMinYMin meet" x="715.5" y="-186.2"/>
<text text-anchor="start" x="733.5" y="-176.3" font-family="Helvetica,sans-Serif" font-size="11.00" fill="#000000">challenges_id</text>
<polygon fill="none" stroke="#000000" points="710.5,-150.2 710.5,-169.2 845.5,-169.2 845.5,-150.2 710.5,-150.2"/>
<text text-anchor="start" x="713.5" y="-156.3" font-family="Helvetica,sans-Serif" font-size="11.00" fill="#000000">...</text>
<polygon fill="#ffffff" stroke="transparent" points="710.5,-131.2 710.5,-150.2 758.5,-150.2 758.5,-131.2 710.5,-131.2"/>
<polygon fill="none" stroke="#000000" points="710.5,-131.2 710.5,-150.2 758.5,-150.2 758.5,-131.2 710.5,-131.2"/>
<text text-anchor="start" x="713.5" y="-137.3" font-family="Helvetica,sans-Serif" font-size="11.00" fill="#000000">&lt; 2</text>
<polygon fill="#ffffff" stroke="transparent" points="758.5,-131.2 758.5,-150.2 810.5,-150.2 810.5,-131.2 758.5,-131.2"/>
<polygon fill="none" stroke="#000000" points="758.5,-131.2 758.5,-150.2 810.5,-150.2 810.5,-131.2 758.5,-131.2"/>
<text text-anchor="start" x="775.1105" y="-137.3" font-family="Helvetica,sans-Serif" font-size="11.00" fill="#000000">0 rows</text>
<polygon fill="#ffffff" stroke="transparent" points="810.5,-131.2 810.5,-150.2 845.5,-150.2 845.5,-131.2 810.5,-131.2"/>
<polygon fill="none" stroke="#000000" points="810.5,-131.2 810.5,-150.2 845.5,-150.2 845.5,-131.2 810.5,-131.2"/>
<text text-anchor="start" x="826.9053" y="-137.3" font-family="Helvetica,sans-Serif" font-size="11.00" fill="#000000">2 &gt;</text>
</a>
</g>
</g>
<!-- completed_normal_challenges&#45;&gt;normal_challenges -->
<g id="edge9" class="edge">
<title>completed_normal_challenges:w&#45;&gt;normal_challenges:e</title>
<path fill="none" stroke="#000000" d="M879.8707,-207.7505C868.06,-198.9578 865.272,-180.2 845.5,-180.2"/>
<polygon fill="#000000" stroke="#000000" points="886.3694,-209.797 892.9187,-215.6338 890.1847,-210.9985 894,-212.2 894,-212.2 894,-212.2 890.1847,-210.9985 895.0813,-208.7662 886.3694,-209.797 886.3694,-209.797"/>
<ellipse fill="none" stroke="#000000" cx="883.3172" cy="-208.8358" rx="3.2" ry="3.2"/>
</g>
<!-- completed_normal_challenges&#45;&gt;normal_challenges -->
<g id="edge10" class="edge">
<title>completed_normal_challenges:w&#45;&gt;normal_challenges:e</title>
<path fill="none" stroke="#000000" d="M879.5146,-210.4581C868.3733,-207.5931 861.6628,-202.2 845.5,-202.2"/>
<polygon fill="#000000" stroke="#000000" points="886.0572,-211.2448 893.5702,-215.7743 890.0286,-211.7224 894,-212.2 894,-212.2 894,-212.2 890.0286,-211.7224 894.4298,-208.6257 886.0572,-211.2448 886.0572,-211.2448"/>
<ellipse fill="none" stroke="#000000" cx="882.8801" cy="-210.8628" rx="3.2" ry="3.2"/>
</g>
<!-- normal_challenges&#45;&gt;challenges -->
<g id="edge15" class="edge">
<title>normal_challenges:w&#45;&gt;challenges:e</title>
<path fill="none" stroke="#000000" d="M696.3236,-182.925C651.55,-203.773 728.8865,-337.2 661.5,-337.2"/>
<polygon fill="#000000" stroke="#000000" points="702.6438,-181.7102 711.1796,-183.7353 706.5719,-180.9551 710.5,-180.2 710.5,-180.2 710.5,-180.2 706.5719,-180.9551 709.8204,-176.6647 702.6438,-181.7102 702.6438,-181.7102"/>
<ellipse fill="none" stroke="#000000" cx="699.5014" cy="-182.3142" rx="3.2" ry="3.2"/>
</g>
<!-- normal_challenges&#45;&gt;classes -->
<g id="edge16" class="edge">
<title>normal_challenges:w&#45;&gt;classes:e</title>
<path fill="none" stroke="#000000" d="M696.0956,-202.2C599.6232,-202.2 570.255,-202.2 467,-202.2"/>
<polygon fill="#000000" stroke="#000000" points="702.5,-202.2001 710.5,-205.8 706.5,-202.2 710.5,-202.2 710.5,-202.2 710.5,-202.2 706.5,-202.2 710.5,-198.6 702.5,-202.2001 702.5,-202.2001"/>
<ellipse fill="none" stroke="#000000" cx="699.3" cy="-202.2001" rx="3.2" ry="3.2"/>
</g>
<!-- gymnasts_has_classes -->
<g id="node10" class="node">
<title>gymnasts_has_classes</title>
<g id="a_node10"><a xlink:href="../../tables/gymnasts_has_classes.html" xlink:title="gymnasts_has_classes" target="_top">
<polygon fill="#ffffff" stroke="transparent" points="912,-77.2 912,-163.2 1068,-163.2 1068,-77.2 912,-77.2"/>
<polygon fill="#f5f5f5" stroke="transparent" points="912,-140.2 912,-163.2 1068,-163.2 1068,-140.2 912,-140.2"/>
<polygon fill="none" stroke="#000000" points="912,-140.2 912,-163.2 1068,-163.2 1068,-140.2 912,-140.2"/>
<text text-anchor="start" x="916.6531" y="-149.3" font-family="Helvetica,sans-Serif" font-weight="bold" font-size="11.00" fill="#000000">gymnasts_has_classes</text>
<text text-anchor="start" x="1033.5219" y="-148.3" font-family="Helvetica,sans-Serif" font-size="11.00" fill="#000000">[table]</text>
<polygon fill="none" stroke="#000000" points="912,-118.2 912,-140.2 1068,-140.2 1068,-118.2 912,-118.2"/>
<image xlink:href="../../images/primaryKeys.png" width="11px" height="12px" preserveAspectRatio="xMinYMin meet" x="917" y="-135.2"/>
<text text-anchor="start" x="933" y="-125.3" font-family="Helvetica,sans-Serif" font-size="11.00" fill="#000000">gymnasts_id</text>
<polygon fill="none" stroke="#000000" points="912,-96.2 912,-118.2 1068,-118.2 1068,-96.2 912,-96.2"/>
<image xlink:href="../../images/primaryKeys.png" width="11px" height="12px" preserveAspectRatio="xMinYMin meet" x="917" y="-113.2"/>
<text text-anchor="start" x="933" y="-103.3" font-family="Helvetica,sans-Serif" font-size="11.00" fill="#000000">classes_id</text>
<polygon fill="#ffffff" stroke="transparent" points="912,-77.2 912,-96.2 975,-96.2 975,-77.2 912,-77.2"/>
<polygon fill="none" stroke="#000000" points="912,-77.2 912,-96.2 975,-96.2 975,-77.2 912,-77.2"/>
<text text-anchor="start" x="915" y="-83.3" font-family="Helvetica,sans-Serif" font-size="11.00" fill="#000000">&lt; 2</text>
<polygon fill="#ffffff" stroke="transparent" points="975,-77.2 975,-96.2 1034,-96.2 1034,-77.2 975,-77.2"/>
<polygon fill="none" stroke="#000000" points="975,-77.2 975,-96.2 1034,-96.2 1034,-77.2 975,-77.2"/>
<text text-anchor="start" x="998.6105" y="-83.3" font-family="Helvetica,sans-Serif" font-size="11.00" fill="#000000">0 rows</text>
<polygon fill="#ffffff" stroke="transparent" points="1034,-77.2 1034,-96.2 1068,-96.2 1068,-77.2 1034,-77.2"/>
<polygon fill="none" stroke="#000000" points="1034,-77.2 1034,-96.2 1068,-96.2 1068,-77.2 1034,-77.2"/>
<text text-anchor="start" x="1058.8862" y="-83.3" font-family="Helvetica,sans-Serif" font-size="11.00" fill="#000000"> &#160;</text>
</a>
</g>
</g>
<!-- gymnasts_has_classes&#45;&gt;classes -->
<g id="edge13" class="edge">
<title>gymnasts_has_classes:w&#45;&gt;classes:e</title>
<path fill="none" stroke="#000000" d="M897.5017,-107.1652C815.6056,-106.7815 788.7651,-103.6797 702,-121.2 593.711,-143.0665 577.4746,-202.2 467,-202.2"/>
<polygon fill="#000000" stroke="#000000" points="904,-107.1807 911.9913,-110.8 908,-107.1904 912,-107.2 912,-107.2 912,-107.2 908,-107.1904 912.0087,-103.6 904,-107.1807 904,-107.1807"/>
<ellipse fill="none" stroke="#000000" cx="900.8" cy="-107.173" rx="3.2" ry="3.2"/>
</g>
<!-- gymnasts_has_classes&#45;&gt;gymnasts -->
<g id="edge14" class="edge">
<title>gymnasts_has_classes:w&#45;&gt;gymnasts:e</title>
<path fill="none" stroke="#000000" d="M897.6184,-131.2873C840.9845,-149.7991 896.9694,-285.2 822.5,-285.2"/>
<polygon fill="#000000" stroke="#000000" points="904.083,-130.3491 912.5171,-132.7627 908.0415,-129.7746 912,-129.2 912,-129.2 912,-129.2 908.0415,-129.7746 911.4829,-125.6373 904.083,-130.3491 904.083,-130.3491"/>
<ellipse fill="none" stroke="#000000" cx="900.9161" cy="-130.8087" rx="3.2" ry="3.2"/>
</g>
<!-- skill_lists_has_skills -->
<g id="node11" class="node">
<title>skill_lists_has_skills</title>
<g id="a_node11"><a xlink:href="../../tables/skill_lists_has_skills.html" xlink:title="skill_lists_has_skills" target="_top">
<polygon fill="#ffffff" stroke="transparent" points="296,-259.7 296,-320.7 436,-320.7 436,-259.7 296,-259.7"/>
<polygon fill="#f5f5f5" stroke="transparent" points="296,-297.2 296,-320.2 436,-320.2 436,-297.2 296,-297.2"/>
<polygon fill="none" stroke="#000000" points="296,-297.2 296,-320.2 436,-320.2 436,-297.2 296,-297.2"/>
<text text-anchor="start" x="300.9207" y="-306.3" font-family="Helvetica,sans-Serif" font-weight="bold" font-size="11.00" fill="#000000">skill_lists_has_skills</text>
<text text-anchor="start" x="401.5219" y="-305.3" font-family="Helvetica,sans-Serif" font-size="11.00" fill="#000000">[table]</text>
<polygon fill="none" stroke="#000000" points="296,-278.2 296,-297.2 436,-297.2 436,-278.2 296,-278.2"/>
<text text-anchor="start" x="299" y="-284.3" font-family="Helvetica,sans-Serif" font-size="11.00" fill="#000000">...</text>
<polygon fill="#ffffff" stroke="transparent" points="296,-259.2 296,-278.2 351,-278.2 351,-259.2 296,-259.2"/>
<polygon fill="none" stroke="#000000" points="296,-259.2 296,-278.2 351,-278.2 351,-259.2 296,-259.2"/>
<text text-anchor="start" x="299" y="-265.3" font-family="Helvetica,sans-Serif" font-size="11.00" fill="#000000">&lt; 2</text>
<polygon fill="#ffffff" stroke="transparent" points="351,-259.2 351,-278.2 406,-278.2 406,-259.2 351,-259.2"/>
<polygon fill="none" stroke="#000000" points="351,-259.2 351,-278.2 406,-278.2 406,-259.2 351,-259.2"/>
<text text-anchor="start" x="370.6105" y="-265.3" font-family="Helvetica,sans-Serif" font-size="11.00" fill="#000000">0 rows</text>
<polygon fill="#ffffff" stroke="transparent" points="406,-259.2 406,-278.2 436,-278.2 436,-259.2 406,-259.2"/>
<polygon fill="none" stroke="#000000" points="406,-259.2 406,-278.2 436,-278.2 436,-259.2 406,-259.2"/>
<text text-anchor="start" x="426.8862" y="-265.3" font-family="Helvetica,sans-Serif" font-size="11.00" fill="#000000"> &#160;</text>
</a>
</g>
</g>
<!-- skill_lists_has_skills&#45;&gt;skill_lists -->
<g id="edge18" class="edge">
<title>skill_lists_has_skills:w&#45;&gt;skill_lists:e</title>
<path fill="none" stroke="#000000" d="M281.3981,-287.1404C256.2472,-286.9252 245.037,-286.2 214,-286.2"/>
<polygon fill="#000000" stroke="#000000" points="288.0001,-287.1673 295.9853,-290.8 292,-287.1837 296,-287.2 296,-287.2 296,-287.2 292,-287.1837 296.0147,-283.6 288.0001,-287.1673 288.0001,-287.1673"/>
<ellipse fill="none" stroke="#000000" cx="284.8001" cy="-287.1542" rx="3.2" ry="3.2"/>
</g>
</g>
</svg>
