<?xml version="1.0" encoding="UTF-8" standalone="no"?>
<!DOCTYPE svg PUBLIC "-//W3C//DTD SVG 1.1//EN"
 "http://www.w3.org/Graphics/SVG/1.1/DTD/svg11.dtd">
<!-- Generated by graphviz version 2.40.1 (20161225.0304)
 -->
<!-- Title: oneDegreeRelationshipsDiagram Pages: 1 -->
<svg width="570pt" height="356pt"
 viewBox="0.00 0.00 570.00 355.70" xmlns="http://www.w3.org/2000/svg" xmlns:xlink="http://www.w3.org/1999/xlink">
<g id="graph0" class="graph" transform="scale(1 1) rotate(0) translate(4 351.7)">
<title>oneDegreeRelationshipsDiagram</title>
<polygon fill="#ffffff" stroke="transparent" points="-4,4 -4,-351.7 566,-351.7 566,4 -4,4"/>
<text text-anchor="middle" x="72.4936" y="-7.3" font-family="Helvetica,sans-Serif" font-size="11.00" fill="#000000">Generated by SchemaSpy</text>
<!-- challenges -->
<g id="node1" class="node">
<title>challenges</title>
<g id="a_node1"><a xlink:href="../../tables/challenges.html" xlink:title="challenges" target="_top">
<polygon fill="#ffffff" stroke="transparent" points="426.5,-216.7 426.5,-343.7 525.5,-343.7 525.5,-216.7 426.5,-216.7"/>
<polygon fill="#f5f5f5" stroke="transparent" points="427,-320.2 427,-343.2 526,-343.2 526,-320.2 427,-320.2"/>
<polygon fill="none" stroke="#000000" points="427,-320.2 427,-343.2 526,-343.2 526,-320.2 427,-320.2"/>
<text text-anchor="start" x="432" y="-329.3" font-family="Helvetica,sans-Serif" font-weight="bold" font-size="11.00" fill="#000000">challenges</text>
<text text-anchor="start" x="491.0437" y="-328.3" font-family="Helvetica,sans-Serif" font-size="11.00" fill="#000000">[table]</text>
<polygon fill="none" stroke="#000000" points="427,-298.2 427,-320.2 526,-320.2 526,-298.2 427,-298.2"/>
<image xlink:href="../../images/primaryKeys.png" width="11px" height="12px" preserveAspectRatio="xMinYMin meet" x="432" y="-315.2"/>
<text text-anchor="start" x="447" y="-305.3" font-family="Helvetica,sans-Serif" font-size="11.00" fill="#000000">id</text>
<polygon fill="#ffffff" stroke="transparent" points="427,-276.2 427,-298.2 526,-298.2 526,-276.2 427,-276.2"/>
<polygon fill="none" stroke="#000000" points="427,-276.2 427,-298.2 526,-298.2 526,-276.2 427,-276.2"/>
<image xlink:href="../../images/foreignKeys.png" width="11px" height="12px" preserveAspectRatio="xMinYMin meet" x="432" y="-293.2"/>
<text text-anchor="start" x="447" y="-283.3" font-family="Helvetica,sans-Serif" font-size="11.00" fill="#000000">gym_id</text>
<polygon fill="#ffffff" stroke="transparent" points="427,-254.2 427,-276.2 526,-276.2 526,-254.2 427,-254.2"/>
<polygon fill="none" stroke="#000000" points="427,-254.2 427,-276.2 526,-276.2 526,-254.2 427,-254.2"/>
<image xlink:href="../../images/foreignKeys.png" width="11px" height="12px" preserveAspectRatio="xMinYMin meet" x="432" y="-271.2"/>
<text text-anchor="start" x="447" y="-261.3" font-family="Helvetica,sans-Serif" font-size="11.00" fill="#000000">class_id</text>
<polygon fill="none" stroke="#000000" points="427,-235.2 427,-254.2 526,-254.2 526,-235.2 427,-235.2"/>
<text text-anchor="start" x="430" y="-241.3" font-family="Helvetica,sans-Serif" font-size="11.00" fill="#000000">...</text>
<polygon fill="#ffffff" stroke="transparent" points="427,-216.2 427,-235.2 457,-235.2 457,-216.2 427,-216.2"/>
<polygon fill="none" stroke="#000000" points="427,-216.2 427,-235.2 457,-235.2 457,-216.2 427,-216.2"/>
<text text-anchor="start" x="430" y="-222.3" font-family="Helvetica,sans-Serif" font-size="11.00" fill="#000000">&lt; 2</text>
<polygon fill="#ffffff" stroke="transparent" points="457,-216.2 457,-235.2 500,-235.2 500,-216.2 457,-216.2"/>
<polygon fill="none" stroke="#000000" points="457,-216.2 457,-235.2 500,-235.2 500,-216.2 457,-216.2"/>
<text text-anchor="start" x="464.6105" y="-222.3" font-family="Helvetica,sans-Serif" font-size="11.00" fill="#000000">0 rows</text>
<polygon fill="#ffffff" stroke="transparent" points="500,-216.2 500,-235.2 526,-235.2 526,-216.2 500,-216.2"/>
<polygon fill="none" stroke="#000000" points="500,-216.2 500,-235.2 526,-235.2 526,-216.2 500,-216.2"/>
<text text-anchor="start" x="507.4053" y="-222.3" font-family="Helvetica,sans-Serif" font-size="11.00" fill="#000000">1 &gt;</text>
</a>
</g>
</g>
<!-- classes -->
<g id="node2" class="node">
<title>classes</title>
<g id="a_node2"><a xlink:href="../../tables/classes.html" xlink:title="classes" target="_top">
<polygon fill="#ffffff" stroke="transparent" points="143,-38.2 143,-238.2 349,-238.2 349,-38.2 143,-38.2"/>
<polygon fill="#f5f5f5" stroke="transparent" points="145,-213.2 145,-236.2 347,-236.2 347,-213.2 145,-213.2"/>
<polygon fill="none" stroke="#000000" points="145,-213.2 145,-236.2 347,-236.2 347,-213.2 145,-213.2"/>
<text text-anchor="start" x="150" y="-222.3" font-family="Helvetica,sans-Serif" font-weight="bold" font-size="11.00" fill="#000000">classes</text>
<text text-anchor="start" x="312.0437" y="-221.3" font-family="Helvetica,sans-Serif" font-size="11.00" fill="#000000">[table]</text>
<polygon fill="none" stroke="#000000" points="145,-191.2 145,-213.2 230,-213.2 230,-191.2 145,-191.2"/>
<image xlink:href="../../images/primaryKeys.png" width="11px" height="12px" preserveAspectRatio="xMinYMin meet" x="150" y="-208.2"/>
<text text-anchor="start" x="165" y="-198.3" font-family="Helvetica,sans-Serif" font-size="11.00" fill="#000000">id</text>
<polygon fill="none" stroke="#000000" points="230,-191.2 230,-213.2 347,-213.2 347,-191.2 230,-191.2"/>
<text text-anchor="start" x="233" y="-198.9" font-family="Helvetica,sans-Serif" font-size="11.00" fill="#000000">bigint[19]</text>
<polygon fill="none" stroke="#000000" points="145,-169.2 145,-191.2 230,-191.2 230,-169.2 145,-169.2"/>
<text text-anchor="start" x="165" y="-176.3" font-family="Helvetica,sans-Serif" font-size="11.00" fill="#000000">name</text>
<polygon fill="none" stroke="#000000" points="230,-169.2 230,-191.2 347,-191.2 347,-169.2 230,-169.2"/>
<text text-anchor="start" x="233" y="-176.9" font-family="Helvetica,sans-Serif" font-size="11.00" fill="#000000">varchar[45]</text>
<polygon fill="none" stroke="#000000" points="145,-147.2 145,-169.2 230,-169.2 230,-147.2 145,-147.2"/>
<text text-anchor="start" x="165" y="-154.3" font-family="Helvetica,sans-Serif" font-size="11.00" fill="#000000">description</text>
<polygon fill="none" stroke="#000000" points="230,-147.2 230,-169.2 347,-169.2 347,-147.2 230,-147.2"/>
<text text-anchor="start" x="232.5645" y="-154.9" font-family="Helvetica,sans-Serif" font-size="11.00" fill="#000000">mediumtext[16777215]</text>
<polygon fill="#ffffff" stroke="transparent" points="145,-125.2 145,-147.2 230,-147.2 230,-125.2 145,-125.2"/>
<polygon fill="none" stroke="#000000" points="145,-125.2 145,-147.2 230,-147.2 230,-125.2 145,-125.2"/>
<image xlink:href="../../images/foreignKeys.png" width="11px" height="12px" preserveAspectRatio="xMinYMin meet" x="150" y="-142.2"/>
<text text-anchor="start" x="165" y="-132.3" font-family="Helvetica,sans-Serif" font-size="11.00" fill="#000000">skill_list_id</text>
<polygon fill="none" stroke="#000000" points="230,-125.2 230,-147.2 347,-147.2 347,-125.2 230,-125.2"/>
<text text-anchor="start" x="233" y="-132.9" font-family="Helvetica,sans-Serif" font-size="11.00" fill="#000000">bigint unsigned[20]</text>
<polygon fill="none" stroke="#000000" points="145,-103.2 145,-125.2 230,-125.2 230,-103.2 145,-103.2"/>
<text text-anchor="start" x="165" y="-110.3" font-family="Helvetica,sans-Serif" font-size="11.00" fill="#000000">created_at</text>
<polygon fill="none" stroke="#000000" points="230,-103.2 230,-125.2 347,-125.2 347,-103.2 230,-103.2"/>
<text text-anchor="start" x="233" y="-110.9" font-family="Helvetica,sans-Serif" font-size="11.00" fill="#000000">timestamp[19]</text>
<polygon fill="none" stroke="#000000" points="145,-81.2 145,-103.2 230,-103.2 230,-81.2 145,-81.2"/>
<text text-anchor="start" x="165" y="-88.3" font-family="Helvetica,sans-Serif" font-size="11.00" fill="#000000">updated_at</text>
<polygon fill="none" stroke="#000000" points="230,-81.2 230,-103.2 347,-103.2 347,-81.2 230,-81.2"/>
<text text-anchor="start" x="233" y="-88.9" font-family="Helvetica,sans-Serif" font-size="11.00" fill="#000000">timestamp[19]</text>
<polygon fill="none" stroke="#000000" points="145,-59.2 145,-81.2 230,-81.2 230,-59.2 145,-59.2"/>
<text text-anchor="start" x="165" y="-66.3" font-family="Helvetica,sans-Serif" font-size="11.00" fill="#000000">deleted_at</text>
<polygon fill="none" stroke="#000000" points="230,-59.2 230,-81.2 347,-81.2 347,-59.2 230,-59.2"/>
<text text-anchor="start" x="233" y="-66.9" font-family="Helvetica,sans-Serif" font-size="11.00" fill="#000000">timestamp[19]</text>
<polygon fill="#ffffff" stroke="transparent" points="145,-40.2 145,-59.2 179,-59.2 179,-40.2 145,-40.2"/>
<polygon fill="none" stroke="#000000" points="145,-40.2 145,-59.2 179,-59.2 179,-40.2 145,-40.2"/>
<text text-anchor="start" x="148" y="-46.3" font-family="Helvetica,sans-Serif" font-size="11.00" fill="#000000">&lt; 1</text>
<polygon fill="#ffffff" stroke="transparent" points="179,-40.2 179,-59.2 230,-59.2 230,-40.2 179,-40.2"/>
<polygon fill="none" stroke="#000000" points="179,-40.2 179,-59.2 230,-59.2 230,-40.2 179,-40.2"/>
<text text-anchor="start" x="194.6105" y="-46.3" font-family="Helvetica,sans-Serif" font-size="11.00" fill="#000000">0 rows</text>
<polygon fill="#ffffff" stroke="transparent" points="230,-40.2 230,-59.2 347,-59.2 347,-40.2 230,-40.2"/>
<polygon fill="none" stroke="#000000" points="230,-40.2 230,-59.2 347,-59.2 347,-40.2 230,-40.2"/>
<text text-anchor="start" x="328.4053" y="-46.3" font-family="Helvetica,sans-Serif" font-size="11.00" fill="#000000">2 &gt;</text>
<polygon fill="none" stroke="#000000" stroke-width="2" points="144,-39.2 144,-237.2 348,-237.2 348,-39.2 144,-39.2"/>
</a>
</g>
</g>
<!-- challenges&#45;&gt;classes -->
<g id="edge1" class="edge">
<title>challenges:w&#45;&gt;classes:e</title>
<path fill="none" stroke="#000000" d="M412.8143,-262.6523C383.4715,-250.866 386.7767,-202.2 347,-202.2"/>
<polygon fill="#000000" stroke="#000000" points="419.126,-263.7858 426.3636,-268.7433 423.063,-264.4929 427,-265.2 427,-265.2 427,-265.2 423.063,-264.4929 427.6364,-261.6567 419.126,-263.7858 419.126,-263.7858"/>
<ellipse fill="none" stroke="#000000" cx="415.9764" cy="-263.2201" rx="3.2" ry="3.2"/>
</g>
<!-- skill_lists -->
<g id="node3" class="node">
<title>skill_lists</title>
<g id="a_node3"><a xlink:href="../../tables/skill_lists.html" xlink:title="skill_lists" target="_top">
<polygon fill="#ffffff" stroke="transparent" points="8,-65.7 8,-170.7 94,-170.7 94,-65.7 8,-65.7"/>
<polygon fill="#f5f5f5" stroke="transparent" points="8,-147.2 8,-170.2 94,-170.2 94,-147.2 8,-147.2"/>
<polygon fill="none" stroke="#000000" points="8,-147.2 8,-170.2 94,-170.2 94,-147.2 8,-147.2"/>
<text text-anchor="start" x="12.8119" y="-156.3" font-family="Helvetica,sans-Serif" font-weight="bold" font-size="11.00" fill="#000000">skill_lists</text>
<text text-anchor="start" x="59.5219" y="-155.3" font-family="Helvetica,sans-Serif" font-size="11.00" fill="#000000">[table]</text>
<polygon fill="none" stroke="#000000" points="8,-125.2 8,-147.2 94,-147.2 94,-125.2 8,-125.2"/>
<image xlink:href="../../images/primaryKeys.png" width="11px" height="12px" preserveAspectRatio="xMinYMin meet" x="13" y="-142.2"/>
<text text-anchor="start" x="29" y="-132.3" font-family="Helvetica,sans-Serif" font-size="11.00" fill="#000000">id</text>
<polygon fill="#ffffff" stroke="transparent" points="8,-103.2 8,-125.2 94,-125.2 94,-103.2 8,-103.2"/>
<polygon fill="none" stroke="#000000" points="8,-103.2 8,-125.2 94,-125.2 94,-103.2 8,-103.2"/>
<image xlink:href="../../images/foreignKeys.png" width="11px" height="12px" preserveAspectRatio="xMinYMin meet" x="13" y="-120.2"/>
<text text-anchor="start" x="29" y="-110.3" font-family="Helvetica,sans-Serif" font-size="11.00" fill="#000000">gym_id</text>
<polygon fill="none" stroke="#000000" points="8,-84.2 8,-103.2 94,-103.2 94,-84.2 8,-84.2"/>
<text text-anchor="start" x="11" y="-90.3" font-family="Helvetica,sans-Serif" font-size="11.00" fill="#000000">...</text>
<polygon fill="#ffffff" stroke="transparent" points="8,-65.2 8,-84.2 32,-84.2 32,-65.2 8,-65.2"/>
<polygon fill="none" stroke="#000000" points="8,-65.2 8,-84.2 32,-84.2 32,-65.2 8,-65.2"/>
<text text-anchor="start" x="11" y="-71.3" font-family="Helvetica,sans-Serif" font-size="11.00" fill="#000000">&lt; 1</text>
<polygon fill="#ffffff" stroke="transparent" points="32,-65.2 32,-84.2 71,-84.2 71,-65.2 32,-65.2"/>
<polygon fill="none" stroke="#000000" points="32,-65.2 32,-84.2 71,-84.2 71,-65.2 32,-65.2"/>
<text text-anchor="start" x="35.6105" y="-71.3" font-family="Helvetica,sans-Serif" font-size="11.00" fill="#000000">0 rows</text>
<polygon fill="#ffffff" stroke="transparent" points="71,-65.2 71,-84.2 94,-84.2 94,-65.2 71,-65.2"/>
<polygon fill="none" stroke="#000000" points="71,-65.2 71,-84.2 94,-84.2 94,-65.2 71,-65.2"/>
<text text-anchor="start" x="75.4053" y="-71.3" font-family="Helvetica,sans-Serif" font-size="11.00" fill="#000000">2 &gt;</text>
</a>
</g>
</g>
<!-- classes&#45;&gt;skill_lists -->
<g id="edge2" class="edge">
<title>classes:w&#45;&gt;skill_lists:e</title>
<path fill="none" stroke="#000000" d="M130.276,-136.2C118.2815,-136.2 110.8229,-136.2 94,-136.2"/>
<polygon fill="#000000" stroke="#000000" points="137,-136.2001 145,-139.8 141,-136.2 145,-136.2 145,-136.2 145,-136.2 141,-136.2 145,-132.6 137,-136.2001 137,-136.2001"/>
<ellipse fill="none" stroke="#000000" cx="133.8" cy="-136.2001" rx="3.2" ry="3.2"/>
</g>
<!-- gymnasts_has_classes -->
<g id="node4" class="node">
<title>gymnasts_has_classes</title>
<g id="a_node4"><a xlink:href="../../tables/gymnasts_has_classes.html" xlink:title="gymnasts_has_classes" target="_top">
<polygon fill="#ffffff" stroke="transparent" points="398,-109.2 398,-195.2 554,-195.2 554,-109.2 398,-109.2"/>
<polygon fill="#f5f5f5" stroke="transparent" points="398,-172.2 398,-195.2 554,-195.2 554,-172.2 398,-172.2"/>
<polygon fill="none" stroke="#000000" points="398,-172.2 398,-195.2 554,-195.2 554,-172.2 398,-172.2"/>
<text text-anchor="start" x="402.6531" y="-181.3" font-family="Helvetica,sans-Serif" font-weight="bold" font-size="11.00" fill="#000000">gymnasts_has_classes</text>
<text text-anchor="start" x="519.5219" y="-180.3" font-family="Helvetica,sans-Serif" font-size="11.00" fill="#000000">[table]</text>
<polygon fill="none" stroke="#000000" points="398,-150.2 398,-172.2 554,-172.2 554,-150.2 398,-150.2"/>
<image xlink:href="../../images/primaryKeys.png" width="11px" height="12px" preserveAspectRatio="xMinYMin meet" x="403" y="-167.2"/>
<text text-anchor="start" x="419" y="-157.3" font-family="Helvetica,sans-Serif" font-size="11.00" fill="#000000">gymnasts_id</text>
<polygon fill="none" stroke="#000000" points="398,-128.2 398,-150.2 554,-150.2 554,-128.2 398,-128.2"/>
<image xlink:href="../../images/primaryKeys.png" width="11px" height="12px" preserveAspectRatio="xMinYMin meet" x="403" y="-145.2"/>
<text text-anchor="start" x="419" y="-135.3" font-family="Helvetica,sans-Serif" font-size="11.00" fill="#000000">classes_id</text>
<polygon fill="#ffffff" stroke="transparent" points="398,-109.2 398,-128.2 461,-128.2 461,-109.2 398,-109.2"/>
<polygon fill="none" stroke="#000000" points="398,-109.2 398,-128.2 461,-128.2 461,-109.2 398,-109.2"/>
<text text-anchor="start" x="401" y="-115.3" font-family="Helvetica,sans-Serif" font-size="11.00" fill="#000000">&lt; 2</text>
<polygon fill="#ffffff" stroke="transparent" points="461,-109.2 461,-128.2 520,-128.2 520,-109.2 461,-109.2"/>
<polygon fill="none" stroke="#000000" points="461,-109.2 461,-128.2 520,-128.2 520,-109.2 461,-109.2"/>
<text text-anchor="start" x="484.6105" y="-115.3" font-family="Helvetica,sans-Serif" font-size="11.00" fill="#000000">0 rows</text>
<polygon fill="#ffffff" stroke="transparent" points="520,-109.2 520,-128.2 554,-128.2 554,-109.2 520,-109.2"/>
<polygon fill="none" stroke="#000000" points="520,-109.2 520,-128.2 554,-128.2 554,-109.2 520,-109.2"/>
<text text-anchor="start" x="544.8862" y="-115.3" font-family="Helvetica,sans-Serif" font-size="11.00" fill="#000000"> &#160;</text>
</a>
</g>
</g>
<!-- gymnasts_has_classes&#45;&gt;classes -->
<g id="edge3" class="edge">
<title>gymnasts_has_classes:w&#45;&gt;classes:e</title>
<path fill="none" stroke="#000000" d="M383.9033,-144.1435C367.525,-158.9952 376.8329,-202.2 347,-202.2"/>
<polygon fill="#000000" stroke="#000000" points="390.4507,-141.8474 399.1913,-142.5972 394.2254,-140.5237 398,-139.2 398,-139.2 398,-139.2 394.2254,-140.5237 396.8087,-135.8028 390.4507,-141.8474 390.4507,-141.8474"/>
<ellipse fill="none" stroke="#000000" cx="387.431" cy="-142.9064" rx="3.2" ry="3.2"/>
</g>
</g>
</svg>
