<?xml version="1.0" encoding="UTF-8" standalone="no"?>
<!DOCTYPE svg PUBLIC "-//W3C//DTD SVG 1.1//EN"
 "http://www.w3.org/Graphics/SVG/1.1/DTD/svg11.dtd">
<!-- Generated by graphviz version 2.40.1 (20161225.0304)
 -->
<!-- Title: oneDegreeRelationshipsDiagram Pages: 1 -->
<svg width="741pt" height="395pt"
 viewBox="0.00 0.00 741.00 395.20" xmlns="http://www.w3.org/2000/svg" xmlns:xlink="http://www.w3.org/1999/xlink">
<g id="graph0" class="graph" transform="scale(1 1) rotate(0) translate(4 391.2)">
<title>oneDegreeRelationshipsDiagram</title>
<polygon fill="#ffffff" stroke="transparent" points="-4,4 -4,-391.2 737,-391.2 737,4 -4,4"/>
<text text-anchor="middle" x="72.4936" y="-7.3" font-family="Helvetica,sans-Serif" font-size="11.00" fill="#000000">Generated by SchemaSpy</text>
<!-- challenges -->
<g id="node1" class="node">
<title>challenges</title>
<g id="a_node1"><a xlink:href="../../tables/challenges.html" xlink:title="challenges" target="_top">
<polygon fill="#ffffff" stroke="transparent" points="398,-216.7 398,-343.7 541,-343.7 541,-216.7 398,-216.7"/>
<polygon fill="#f5f5f5" stroke="transparent" points="398.5,-320.2 398.5,-343.2 541.5,-343.2 541.5,-320.2 398.5,-320.2"/>
<polygon fill="none" stroke="#000000" points="398.5,-320.2 398.5,-343.2 541.5,-343.2 541.5,-320.2 398.5,-320.2"/>
<text text-anchor="start" x="403.5" y="-329.3" font-family="Helvetica,sans-Serif" font-weight="bold" font-size="11.00" fill="#000000">challenges</text>
<text text-anchor="start" x="506.5437" y="-328.3" font-family="Helvetica,sans-Serif" font-size="11.00" fill="#000000">[table]</text>
<polygon fill="none" stroke="#000000" points="398.5,-298.2 398.5,-320.2 541.5,-320.2 541.5,-298.2 398.5,-298.2"/>
<image xlink:href="../../images/primaryKeys.png" width="11px" height="12px" preserveAspectRatio="xMinYMin meet" x="403.5" y="-315.2"/>
<text text-anchor="start" x="418.5" y="-305.3" font-family="Helvetica,sans-Serif" font-size="11.00" fill="#000000">id</text>
<polygon fill="#ffffff" stroke="transparent" points="398.5,-276.2 398.5,-298.2 541.5,-298.2 541.5,-276.2 398.5,-276.2"/>
<polygon fill="none" stroke="#000000" points="398.5,-276.2 398.5,-298.2 541.5,-298.2 541.5,-276.2 398.5,-276.2"/>
<image xlink:href="../../images/foreignKeys.png" width="11px" height="12px" preserveAspectRatio="xMinYMin meet" x="403.5" y="-293.2"/>
<text text-anchor="start" x="418.5" y="-283.3" font-family="Helvetica,sans-Serif" font-size="11.00" fill="#000000">gym_id</text>
<polygon fill="#ffffff" stroke="transparent" points="398.5,-254.2 398.5,-276.2 541.5,-276.2 541.5,-254.2 398.5,-254.2"/>
<polygon fill="none" stroke="#000000" points="398.5,-254.2 398.5,-276.2 541.5,-276.2 541.5,-254.2 398.5,-254.2"/>
<image xlink:href="../../images/foreignKeys.png" width="11px" height="12px" preserveAspectRatio="xMinYMin meet" x="403.5" y="-271.2"/>
<text text-anchor="start" x="418.5" y="-261.3" font-family="Helvetica,sans-Serif" font-size="11.00" fill="#000000">class_id</text>
<polygon fill="none" stroke="#000000" points="398.5,-235.2 398.5,-254.2 541.5,-254.2 541.5,-235.2 398.5,-235.2"/>
<text text-anchor="start" x="401.5" y="-241.3" font-family="Helvetica,sans-Serif" font-size="11.00" fill="#000000">...</text>
<polygon fill="#ffffff" stroke="transparent" points="398.5,-216.2 398.5,-235.2 450.5,-235.2 450.5,-216.2 398.5,-216.2"/>
<polygon fill="none" stroke="#000000" points="398.5,-216.2 398.5,-235.2 450.5,-235.2 450.5,-216.2 398.5,-216.2"/>
<text text-anchor="start" x="401.5" y="-222.3" font-family="Helvetica,sans-Serif" font-size="11.00" fill="#000000">&lt; 2</text>
<polygon fill="#ffffff" stroke="transparent" points="450.5,-216.2 450.5,-235.2 504.5,-235.2 504.5,-216.2 450.5,-216.2"/>
<polygon fill="none" stroke="#000000" points="450.5,-216.2 450.5,-235.2 504.5,-235.2 504.5,-216.2 450.5,-216.2"/>
<text text-anchor="start" x="469.1105" y="-222.3" font-family="Helvetica,sans-Serif" font-size="11.00" fill="#000000">0 rows</text>
<polygon fill="#ffffff" stroke="transparent" points="504.5,-216.2 504.5,-235.2 541.5,-235.2 541.5,-216.2 504.5,-216.2"/>
<polygon fill="none" stroke="#000000" points="504.5,-216.2 504.5,-235.2 541.5,-235.2 541.5,-216.2 504.5,-216.2"/>
<text text-anchor="start" x="522.9053" y="-222.3" font-family="Helvetica,sans-Serif" font-size="11.00" fill="#000000">2 &gt;</text>
</a>
</g>
</g>
<!-- classes -->
<g id="node2" class="node">
<title>classes</title>
<g id="a_node2"><a xlink:href="../../tables/classes.html" xlink:title="classes" target="_top">
<polygon fill="#ffffff" stroke="transparent" points="143,-38.2 143,-238.2 349,-238.2 349,-38.2 143,-38.2"/>
<polygon fill="#f5f5f5" stroke="transparent" points="145,-213.2 145,-236.2 347,-236.2 347,-213.2 145,-213.2"/>
<polygon fill="none" stroke="#000000" points="145,-213.2 145,-236.2 347,-236.2 347,-213.2 145,-213.2"/>
<text text-anchor="start" x="150" y="-222.3" font-family="Helvetica,sans-Serif" font-weight="bold" font-size="11.00" fill="#000000">classes</text>
<text text-anchor="start" x="312.0437" y="-221.3" font-family="Helvetica,sans-Serif" font-size="11.00" fill="#000000">[table]</text>
<polygon fill="none" stroke="#000000" points="145,-191.2 145,-213.2 230,-213.2 230,-191.2 145,-191.2"/>
<image xlink:href="../../images/primaryKeys.png" width="11px" height="12px" preserveAspectRatio="xMinYMin meet" x="150" y="-208.2"/>
<text text-anchor="start" x="165" y="-198.3" font-family="Helvetica,sans-Serif" font-size="11.00" fill="#000000">id</text>
<polygon fill="none" stroke="#000000" points="230,-191.2 230,-213.2 347,-213.2 347,-191.2 230,-191.2"/>
<text text-anchor="start" x="233" y="-198.9" font-family="Helvetica,sans-Serif" font-size="11.00" fill="#000000">bigint[19]</text>
<polygon fill="none" stroke="#000000" points="145,-169.2 145,-191.2 230,-191.2 230,-169.2 145,-169.2"/>
<text text-anchor="start" x="165" y="-176.3" font-family="Helvetica,sans-Serif" font-size="11.00" fill="#000000">name</text>
<polygon fill="none" stroke="#000000" points="230,-169.2 230,-191.2 347,-191.2 347,-169.2 230,-169.2"/>
<text text-anchor="start" x="233" y="-176.9" font-family="Helvetica,sans-Serif" font-size="11.00" fill="#000000">varchar[45]</text>
<polygon fill="none" stroke="#000000" points="145,-147.2 145,-169.2 230,-169.2 230,-147.2 145,-147.2"/>
<text text-anchor="start" x="165" y="-154.3" font-family="Helvetica,sans-Serif" font-size="11.00" fill="#000000">description</text>
<polygon fill="none" stroke="#000000" points="230,-147.2 230,-169.2 347,-169.2 347,-147.2 230,-147.2"/>
<text text-anchor="start" x="232.5645" y="-154.9" font-family="Helvetica,sans-Serif" font-size="11.00" fill="#000000">mediumtext[16777215]</text>
<polygon fill="#ffffff" stroke="transparent" points="145,-125.2 145,-147.2 230,-147.2 230,-125.2 145,-125.2"/>
<polygon fill="none" stroke="#000000" points="145,-125.2 145,-147.2 230,-147.2 230,-125.2 145,-125.2"/>
<image xlink:href="../../images/foreignKeys.png" width="11px" height="12px" preserveAspectRatio="xMinYMin meet" x="150" y="-142.2"/>
<text text-anchor="start" x="165" y="-132.3" font-family="Helvetica,sans-Serif" font-size="11.00" fill="#000000">skill_list_id</text>
<polygon fill="none" stroke="#000000" points="230,-125.2 230,-147.2 347,-147.2 347,-125.2 230,-125.2"/>
<text text-anchor="start" x="233" y="-132.9" font-family="Helvetica,sans-Serif" font-size="11.00" fill="#000000">bigint unsigned[20]</text>
<polygon fill="none" stroke="#000000" points="145,-103.2 145,-125.2 230,-125.2 230,-103.2 145,-103.2"/>
<text text-anchor="start" x="165" y="-110.3" font-family="Helvetica,sans-Serif" font-size="11.00" fill="#000000">created_at</text>
<polygon fill="none" stroke="#000000" points="230,-103.2 230,-125.2 347,-125.2 347,-103.2 230,-103.2"/>
<text text-anchor="start" x="233" y="-110.9" font-family="Helvetica,sans-Serif" font-size="11.00" fill="#000000">timestamp[19]</text>
<polygon fill="none" stroke="#000000" points="145,-81.2 145,-103.2 230,-103.2 230,-81.2 145,-81.2"/>
<text text-anchor="start" x="165" y="-88.3" font-family="Helvetica,sans-Serif" font-size="11.00" fill="#000000">updated_at</text>
<polygon fill="none" stroke="#000000" points="230,-81.2 230,-103.2 347,-103.2 347,-81.2 230,-81.2"/>
<text text-anchor="start" x="233" y="-88.9" font-family="Helvetica,sans-Serif" font-size="11.00" fill="#000000">timestamp[19]</text>
<polygon fill="none" stroke="#000000" points="145,-59.2 145,-81.2 230,-81.2 230,-59.2 145,-59.2"/>
<text text-anchor="start" x="165" y="-66.3" font-family="Helvetica,sans-Serif" font-size="11.00" fill="#000000">deleted_at</text>
<polygon fill="none" stroke="#000000" points="230,-59.2 230,-81.2 347,-81.2 347,-59.2 230,-59.2"/>
<text text-anchor="start" x="233" y="-66.9" font-family="Helvetica,sans-Serif" font-size="11.00" fill="#000000">timestamp[19]</text>
<polygon fill="#ffffff" stroke="transparent" points="145,-40.2 145,-59.2 179,-59.2 179,-40.2 145,-40.2"/>
<polygon fill="none" stroke="#000000" points="145,-40.2 145,-59.2 179,-59.2 179,-40.2 145,-40.2"/>
<text text-anchor="start" x="148" y="-46.3" font-family="Helvetica,sans-Serif" font-size="11.00" fill="#000000">&lt; 1</text>
<polygon fill="#ffffff" stroke="transparent" points="179,-40.2 179,-59.2 230,-59.2 230,-40.2 179,-40.2"/>
<polygon fill="none" stroke="#000000" points="179,-40.2 179,-59.2 230,-59.2 230,-40.2 179,-40.2"/>
<text text-anchor="start" x="194.6105" y="-46.3" font-family="Helvetica,sans-Serif" font-size="11.00" fill="#000000">0 rows</text>
<polygon fill="#ffffff" stroke="transparent" points="230,-40.2 230,-59.2 347,-59.2 347,-40.2 230,-40.2"/>
<polygon fill="none" stroke="#000000" points="230,-40.2 230,-59.2 347,-59.2 347,-40.2 230,-40.2"/>
<text text-anchor="start" x="328.4053" y="-46.3" font-family="Helvetica,sans-Serif" font-size="11.00" fill="#000000">4 &gt;</text>
<polygon fill="none" stroke="#000000" stroke-width="2" points="144,-39.2 144,-237.2 348,-237.2 348,-39.2 144,-39.2"/>
</a>
</g>
</g>
<!-- challenges&#45;&gt;classes -->
<g id="edge1" class="edge">
<title>challenges:w&#45;&gt;classes:e</title>
<path fill="none" stroke="#000000" d="M384.799,-260.6692C367.6358,-246.2239 377.2316,-202.2 347,-202.2"/>
<polygon fill="#000000" stroke="#000000" points="390.9045,-262.6882 397.3697,-268.618 394.7023,-263.9441 398.5,-265.2 398.5,-265.2 398.5,-265.2 394.7023,-263.9441 399.6303,-261.782 390.9045,-262.6882 390.9045,-262.6882"/>
<ellipse fill="none" stroke="#000000" cx="387.8663" cy="-261.6835" rx="3.2" ry="3.2"/>
</g>
<!-- skill_lists -->
<g id="node3" class="node">
<title>skill_lists</title>
<g id="a_node3"><a xlink:href="../../tables/skill_lists.html" xlink:title="skill_lists" target="_top">
<polygon fill="#ffffff" stroke="transparent" points="8,-65.7 8,-170.7 94,-170.7 94,-65.7 8,-65.7"/>
<polygon fill="#f5f5f5" stroke="transparent" points="8,-147.2 8,-170.2 94,-170.2 94,-147.2 8,-147.2"/>
<polygon fill="none" stroke="#000000" points="8,-147.2 8,-170.2 94,-170.2 94,-147.2 8,-147.2"/>
<text text-anchor="start" x="12.8119" y="-156.3" font-family="Helvetica,sans-Serif" font-weight="bold" font-size="11.00" fill="#000000">skill_lists</text>
<text text-anchor="start" x="59.5219" y="-155.3" font-family="Helvetica,sans-Serif" font-size="11.00" fill="#000000">[table]</text>
<polygon fill="none" stroke="#000000" points="8,-125.2 8,-147.2 94,-147.2 94,-125.2 8,-125.2"/>
<image xlink:href="../../images/primaryKeys.png" width="11px" height="12px" preserveAspectRatio="xMinYMin meet" x="13" y="-142.2"/>
<text text-anchor="start" x="29" y="-132.3" font-family="Helvetica,sans-Serif" font-size="11.00" fill="#000000">id</text>
<polygon fill="#ffffff" stroke="transparent" points="8,-103.2 8,-125.2 94,-125.2 94,-103.2 8,-103.2"/>
<polygon fill="none" stroke="#000000" points="8,-103.2 8,-125.2 94,-125.2 94,-103.2 8,-103.2"/>
<image xlink:href="../../images/foreignKeys.png" width="11px" height="12px" preserveAspectRatio="xMinYMin meet" x="13" y="-120.2"/>
<text text-anchor="start" x="29" y="-110.3" font-family="Helvetica,sans-Serif" font-size="11.00" fill="#000000">gym_id</text>
<polygon fill="none" stroke="#000000" points="8,-84.2 8,-103.2 94,-103.2 94,-84.2 8,-84.2"/>
<text text-anchor="start" x="11" y="-90.3" font-family="Helvetica,sans-Serif" font-size="11.00" fill="#000000">...</text>
<polygon fill="#ffffff" stroke="transparent" points="8,-65.2 8,-84.2 32,-84.2 32,-65.2 8,-65.2"/>
<polygon fill="none" stroke="#000000" points="8,-65.2 8,-84.2 32,-84.2 32,-65.2 8,-65.2"/>
<text text-anchor="start" x="11" y="-71.3" font-family="Helvetica,sans-Serif" font-size="11.00" fill="#000000">&lt; 1</text>
<polygon fill="#ffffff" stroke="transparent" points="32,-65.2 32,-84.2 71,-84.2 71,-65.2 32,-65.2"/>
<polygon fill="none" stroke="#000000" points="32,-65.2 32,-84.2 71,-84.2 71,-65.2 32,-65.2"/>
<text text-anchor="start" x="35.6105" y="-71.3" font-family="Helvetica,sans-Serif" font-size="11.00" fill="#000000">0 rows</text>
<polygon fill="#ffffff" stroke="transparent" points="71,-65.2 71,-84.2 94,-84.2 94,-65.2 71,-65.2"/>
<polygon fill="none" stroke="#000000" points="71,-65.2 71,-84.2 94,-84.2 94,-65.2 71,-65.2"/>
<text text-anchor="start" x="75.4053" y="-71.3" font-family="Helvetica,sans-Serif" font-size="11.00" fill="#000000">2 &gt;</text>
</a>
</g>
</g>
<!-- classes&#45;&gt;skill_lists -->
<g id="edge2" class="edge">
<title>classes:w&#45;&gt;skill_lists:e</title>
<path fill="none" stroke="#000000" d="M130.276,-136.2C118.2815,-136.2 110.8229,-136.2 94,-136.2"/>
<polygon fill="#000000" stroke="#000000" points="137,-136.2001 145,-139.8 141,-136.2 145,-136.2 145,-136.2 145,-136.2 141,-136.2 145,-132.6 137,-136.2001 137,-136.2001"/>
<ellipse fill="none" stroke="#000000" cx="133.8" cy="-136.2001" rx="3.2" ry="3.2"/>
</g>
<!-- daily_challenges -->
<g id="node4" class="node">
<title>daily_challenges</title>
<g id="a_node4"><a xlink:href="../../tables/daily_challenges.html" xlink:title="daily_challenges" target="_top">
<polygon fill="#ffffff" stroke="transparent" points="595.5,-275.2 595.5,-383.2 719.5,-383.2 719.5,-275.2 595.5,-275.2"/>
<polygon fill="#f5f5f5" stroke="transparent" points="595.5,-360.2 595.5,-383.2 719.5,-383.2 719.5,-360.2 595.5,-360.2"/>
<polygon fill="none" stroke="#000000" points="595.5,-360.2 595.5,-383.2 719.5,-383.2 719.5,-360.2 595.5,-360.2"/>
<text text-anchor="start" x="600.3512" y="-369.3" font-family="Helvetica,sans-Serif" font-weight="bold" font-size="11.00" fill="#000000">daily_challenges</text>
<text text-anchor="start" x="685.0219" y="-368.3" font-family="Helvetica,sans-Serif" font-size="11.00" fill="#000000">[table]</text>
<polygon fill="none" stroke="#000000" points="595.5,-338.2 595.5,-360.2 719.5,-360.2 719.5,-338.2 595.5,-338.2"/>
<image xlink:href="../../images/primaryKeys.png" width="11px" height="12px" preserveAspectRatio="xMinYMin meet" x="600.5" y="-355.2"/>
<text text-anchor="start" x="619.5" y="-345.3" font-family="Helvetica,sans-Serif" font-size="11.00" fill="#000000">classes_id</text>
<polygon fill="none" stroke="#000000" points="595.5,-316.2 595.5,-338.2 719.5,-338.2 719.5,-316.2 595.5,-316.2"/>
<image xlink:href="../../images/primaryKeys.png" width="11px" height="12px" preserveAspectRatio="xMinYMin meet" x="600.5" y="-333.2"/>
<text text-anchor="start" x="619.5" y="-323.3" font-family="Helvetica,sans-Serif" font-size="11.00" fill="#000000">challenges_id</text>
<polygon fill="none" stroke="#000000" points="595.5,-294.2 595.5,-316.2 719.5,-316.2 719.5,-294.2 595.5,-294.2"/>
<image xlink:href="../../images/primaryKeys.png" width="11px" height="12px" preserveAspectRatio="xMinYMin meet" x="600.5" y="-311.2"/>
<text text-anchor="start" x="619.5" y="-301.3" font-family="Helvetica,sans-Serif" font-size="11.00" fill="#000000">date</text>
<polygon fill="#ffffff" stroke="transparent" points="595.5,-275.2 595.5,-294.2 638.5,-294.2 638.5,-275.2 595.5,-275.2"/>
<polygon fill="none" stroke="#000000" points="595.5,-275.2 595.5,-294.2 638.5,-294.2 638.5,-275.2 595.5,-275.2"/>
<text text-anchor="start" x="598.5" y="-281.3" font-family="Helvetica,sans-Serif" font-size="11.00" fill="#000000">&lt; 2</text>
<polygon fill="#ffffff" stroke="transparent" points="638.5,-275.2 638.5,-294.2 687.5,-294.2 687.5,-275.2 638.5,-275.2"/>
<polygon fill="none" stroke="#000000" points="638.5,-275.2 638.5,-294.2 687.5,-294.2 687.5,-275.2 638.5,-275.2"/>
<text text-anchor="start" x="652.1105" y="-281.3" font-family="Helvetica,sans-Serif" font-size="11.00" fill="#000000">0 rows</text>
<polygon fill="#ffffff" stroke="transparent" points="687.5,-275.2 687.5,-294.2 719.5,-294.2 719.5,-275.2 687.5,-275.2"/>
<polygon fill="none" stroke="#000000" points="687.5,-275.2 687.5,-294.2 719.5,-294.2 719.5,-275.2 687.5,-275.2"/>
<text text-anchor="start" x="700.9053" y="-281.3" font-family="Helvetica,sans-Serif" font-size="11.00" fill="#000000">3 &gt;</text>
</a>
</g>
</g>
<!-- daily_challenges&#45;&gt;challenges -->
<g id="edge3" class="edge">
<title>daily_challenges:w&#45;&gt;challenges:e</title>
<path fill="none" stroke="#000000" d="M581.1675,-324.8468C567.5357,-319.9677 561.0666,-309.2 541.5,-309.2"/>
<polygon fill="#000000" stroke="#000000" points="587.6057,-325.9038 594.9167,-330.7524 591.5528,-326.5519 595.5,-327.2 595.5,-327.2 595.5,-327.2 591.5528,-326.5519 596.0833,-323.6476 587.6057,-325.9038 587.6057,-325.9038"/>
<ellipse fill="none" stroke="#000000" cx="584.448" cy="-325.3854" rx="3.2" ry="3.2"/>
</g>
<!-- daily_challenges&#45;&gt;classes -->
<g id="edge4" class="edge">
<title>daily_challenges:w&#45;&gt;classes:e</title>
<path fill="none" stroke="#000000" d="M580.9472,-349.7107C499.5308,-355.4301 458.8808,-406.298 390,-354.2 334.0057,-311.8487 417.2067,-202.2 347,-202.2"/>
<polygon fill="#000000" stroke="#000000" points="587.5049,-349.4806 595.6263,-352.7978 591.5025,-349.3403 595.5,-349.2 595.5,-349.2 595.5,-349.2 591.5025,-349.3403 595.3737,-345.6022 587.5049,-349.4806 587.5049,-349.4806"/>
<ellipse fill="none" stroke="#000000" cx="584.3069" cy="-349.5928" rx="3.2" ry="3.2"/>
</g>
<!-- gymnasts_classes -->
<g id="node5" class="node">
<title>gymnasts_classes</title>
<g id="a_node5"><a xlink:href="../../tables/gymnasts_classes.html" xlink:title="gymnasts_classes" target="_top">
<polygon fill="#ffffff" stroke="transparent" points="403.5,-109.2 403.5,-195.2 535.5,-195.2 535.5,-109.2 403.5,-109.2"/>
<polygon fill="#f5f5f5" stroke="transparent" points="403.5,-172.2 403.5,-195.2 535.5,-195.2 535.5,-172.2 403.5,-172.2"/>
<polygon fill="none" stroke="#000000" points="403.5,-172.2 403.5,-195.2 535.5,-195.2 535.5,-172.2 403.5,-172.2"/>
<text text-anchor="start" x="408.0755" y="-181.3" font-family="Helvetica,sans-Serif" font-weight="bold" font-size="11.00" fill="#000000">gymnasts_classes</text>
<text text-anchor="start" x="501.0219" y="-180.3" font-family="Helvetica,sans-Serif" font-size="11.00" fill="#000000">[table]</text>
<polygon fill="none" stroke="#000000" points="403.5,-150.2 403.5,-172.2 535.5,-172.2 535.5,-150.2 403.5,-150.2"/>
<image xlink:href="../../images/primaryKeys.png" width="11px" height="12px" preserveAspectRatio="xMinYMin meet" x="408.5" y="-167.2"/>
<text text-anchor="start" x="426.5" y="-157.3" font-family="Helvetica,sans-Serif" font-size="11.00" fill="#000000">gymnasts_id</text>
<polygon fill="none" stroke="#000000" points="403.5,-128.2 403.5,-150.2 535.5,-150.2 535.5,-128.2 403.5,-128.2"/>
<image xlink:href="../../images/primaryKeys.png" width="11px" height="12px" preserveAspectRatio="xMinYMin meet" x="408.5" y="-145.2"/>
<text text-anchor="start" x="426.5" y="-135.3" font-family="Helvetica,sans-Serif" font-size="11.00" fill="#000000">classes_id</text>
<polygon fill="#ffffff" stroke="transparent" points="403.5,-109.2 403.5,-128.2 454.5,-128.2 454.5,-109.2 403.5,-109.2"/>
<polygon fill="none" stroke="#000000" points="403.5,-109.2 403.5,-128.2 454.5,-128.2 454.5,-109.2 403.5,-109.2"/>
<text text-anchor="start" x="406.5" y="-115.3" font-family="Helvetica,sans-Serif" font-size="11.00" fill="#000000">&lt; 2</text>
<polygon fill="#ffffff" stroke="transparent" points="454.5,-109.2 454.5,-128.2 507.5,-128.2 507.5,-109.2 454.5,-109.2"/>
<polygon fill="none" stroke="#000000" points="454.5,-109.2 454.5,-128.2 507.5,-128.2 507.5,-109.2 454.5,-109.2"/>
<text text-anchor="start" x="472.1105" y="-115.3" font-family="Helvetica,sans-Serif" font-size="11.00" fill="#000000">0 rows</text>
<polygon fill="#ffffff" stroke="transparent" points="507.5,-109.2 507.5,-128.2 535.5,-128.2 535.5,-109.2 507.5,-109.2"/>
<polygon fill="none" stroke="#000000" points="507.5,-109.2 507.5,-128.2 535.5,-128.2 535.5,-109.2 507.5,-109.2"/>
<text text-anchor="start" x="526.3862" y="-115.3" font-family="Helvetica,sans-Serif" font-size="11.00" fill="#000000"> &#160;</text>
</a>
</g>
</g>
<!-- gymnasts_classes&#45;&gt;classes -->
<g id="edge5" class="edge">
<title>gymnasts_classes:w&#45;&gt;classes:e</title>
<path fill="none" stroke="#000000" d="M389.5661,-143.3336C370.3644,-157.3494 378.7341,-202.2 347,-202.2"/>
<polygon fill="#000000" stroke="#000000" points="395.8304,-141.4753 404.5239,-142.6513 399.6652,-140.3376 403.5,-139.2 403.5,-139.2 403.5,-139.2 399.6652,-140.3376 402.4761,-135.7487 395.8304,-141.4753 395.8304,-141.4753"/>
<ellipse fill="none" stroke="#000000" cx="392.7625" cy="-142.3854" rx="3.2" ry="3.2"/>
</g>
<!-- normal_challenges -->
<g id="node6" class="node">
<title>normal_challenges</title>
<g id="a_node6"><a xlink:href="../../tables/normal_challenges.html" xlink:title="normal_challenges" target="_top">
<polygon fill="#ffffff" stroke="transparent" points="590,-72.7 590,-177.7 725,-177.7 725,-72.7 590,-72.7"/>
<polygon fill="#f5f5f5" stroke="transparent" points="590.5,-154.2 590.5,-177.2 725.5,-177.2 725.5,-154.2 590.5,-154.2"/>
<polygon fill="none" stroke="#000000" points="590.5,-154.2 590.5,-177.2 725.5,-177.2 725.5,-154.2 590.5,-154.2"/>
<text text-anchor="start" x="595.3523" y="-163.3" font-family="Helvetica,sans-Serif" font-weight="bold" font-size="11.00" fill="#000000">normal_challenges</text>
<text text-anchor="start" x="691.0219" y="-162.3" font-family="Helvetica,sans-Serif" font-size="11.00" fill="#000000">[table]</text>
<polygon fill="none" stroke="#000000" points="590.5,-132.2 590.5,-154.2 725.5,-154.2 725.5,-132.2 590.5,-132.2"/>
<image xlink:href="../../images/primaryKeys.png" width="11px" height="12px" preserveAspectRatio="xMinYMin meet" x="595.5" y="-149.2"/>
<text text-anchor="start" x="613.5" y="-139.3" font-family="Helvetica,sans-Serif" font-size="11.00" fill="#000000">classes_id</text>
<polygon fill="none" stroke="#000000" points="590.5,-110.2 590.5,-132.2 725.5,-132.2 725.5,-110.2 590.5,-110.2"/>
<image xlink:href="../../images/primaryKeys.png" width="11px" height="12px" preserveAspectRatio="xMinYMin meet" x="595.5" y="-127.2"/>
<text text-anchor="start" x="613.5" y="-117.3" font-family="Helvetica,sans-Serif" font-size="11.00" fill="#000000">challenges_id</text>
<polygon fill="none" stroke="#000000" points="590.5,-91.2 590.5,-110.2 725.5,-110.2 725.5,-91.2 590.5,-91.2"/>
<text text-anchor="start" x="593.5" y="-97.3" font-family="Helvetica,sans-Serif" font-size="11.00" fill="#000000">...</text>
<polygon fill="#ffffff" stroke="transparent" points="590.5,-72.2 590.5,-91.2 638.5,-91.2 638.5,-72.2 590.5,-72.2"/>
<polygon fill="none" stroke="#000000" points="590.5,-72.2 590.5,-91.2 638.5,-91.2 638.5,-72.2 590.5,-72.2"/>
<text text-anchor="start" x="593.5" y="-78.3" font-family="Helvetica,sans-Serif" font-size="11.00" fill="#000000">&lt; 2</text>
<polygon fill="#ffffff" stroke="transparent" points="638.5,-72.2 638.5,-91.2 690.5,-91.2 690.5,-72.2 638.5,-72.2"/>
<polygon fill="none" stroke="#000000" points="638.5,-72.2 638.5,-91.2 690.5,-91.2 690.5,-72.2 638.5,-72.2"/>
<text text-anchor="start" x="655.1105" y="-78.3" font-family="Helvetica,sans-Serif" font-size="11.00" fill="#000000">0 rows</text>
<polygon fill="#ffffff" stroke="transparent" points="690.5,-72.2 690.5,-91.2 725.5,-91.2 725.5,-72.2 690.5,-72.2"/>
<polygon fill="none" stroke="#000000" points="690.5,-72.2 690.5,-91.2 725.5,-91.2 725.5,-72.2 690.5,-72.2"/>
<text text-anchor="start" x="706.9053" y="-78.3" font-family="Helvetica,sans-Serif" font-size="11.00" fill="#000000">2 &gt;</text>
</a>
</g>
</g>
<!-- normal_challenges&#45;&gt;challenges -->
<g id="edge6" class="edge">
<title>normal_challenges:w&#45;&gt;challenges:e</title>
<path fill="none" stroke="#000000" d="M575.9538,-123.577C519.6549,-145.3397 622.113,-309.2 541.5,-309.2"/>
<polygon fill="#000000" stroke="#000000" points="582.6047,-122.4902 591.0806,-124.7529 586.5524,-121.8451 590.5,-121.2 590.5,-121.2 590.5,-121.2 586.5524,-121.8451 589.9194,-117.6471 582.6047,-122.4902 582.6047,-122.4902"/>
<ellipse fill="none" stroke="#000000" cx="579.4466" cy="-123.0063" rx="3.2" ry="3.2"/>
</g>
<!-- normal_challenges&#45;&gt;classes -->
<g id="edge7" class="edge">
<title>normal_challenges:w&#45;&gt;classes:e</title>
<path fill="none" stroke="#000000" d="M576.7643,-138.4256C566.4272,-128.8138 567.8974,-107.3531 549,-99.2 484.1147,-71.2057 448.8117,-60.0214 390,-99.2 348.7151,-126.7027 396.6068,-202.2 347,-202.2"/>
<polygon fill="#000000" stroke="#000000" points="582.9435,-140.5734 589.318,-146.6004 586.7217,-141.8867 590.5,-143.2 590.5,-143.2 590.5,-143.2 586.7217,-141.8867 591.682,-139.7996 582.9435,-140.5734 582.9435,-140.5734"/>
<ellipse fill="none" stroke="#000000" cx="579.9209" cy="-139.5227" rx="3.2" ry="3.2"/>
</g>
</g>
</svg>
