<?xml version="1.0" encoding="UTF-8" standalone="no"?>
<!DOCTYPE svg PUBLIC "-//W3C//DTD SVG 1.1//EN"
 "http://www.w3.org/Graphics/SVG/1.1/DTD/svg11.dtd">
<!-- Generated by graphviz version 2.40.1 (20161225.0304)
 -->
<!-- Title: twoDegreesRelationshipsDiagram Pages: 1 -->
<svg width="734pt" height="453pt"
 viewBox="0.00 0.00 734.00 452.70" xmlns="http://www.w3.org/2000/svg" xmlns:xlink="http://www.w3.org/1999/xlink">
<g id="graph0" class="graph" transform="scale(1 1) rotate(0) translate(4 448.7)">
<title>twoDegreesRelationshipsDiagram</title>
<polygon fill="#ffffff" stroke="transparent" points="-4,4 -4,-448.7 730,-448.7 730,4 -4,4"/>
<text text-anchor="middle" x="72.4936" y="-7.3" font-family="Helvetica,sans-Serif" font-size="11.00" fill="#000000">Generated by SchemaSpy</text>
<!-- completed_daily_challenges -->
<g id="node1" class="node">
<title>completed_daily_challenges</title>
<g id="a_node1"><a xlink:href="../../tables/completed_daily_challenges.html" xlink:title="completed_daily_challenges" target="_top">
<polygon fill="#ffffff" stroke="transparent" points="471.5,-379.7 471.5,-440.7 652.5,-440.7 652.5,-379.7 471.5,-379.7"/>
<polygon fill="#f5f5f5" stroke="transparent" points="472,-417.2 472,-440.2 653,-440.2 653,-417.2 472,-417.2"/>
<polygon fill="none" stroke="#000000" points="472,-417.2 472,-440.2 653,-440.2 653,-417.2 472,-417.2"/>
<text text-anchor="start" x="476.9266" y="-426.3" font-family="Helvetica,sans-Serif" font-weight="bold" font-size="11.00" fill="#000000">completed_daily_challenges</text>
<text text-anchor="start" x="618.5219" y="-425.3" font-family="Helvetica,sans-Serif" font-size="11.00" fill="#000000">[table]</text>
<polygon fill="none" stroke="#000000" points="472,-398.2 472,-417.2 653,-417.2 653,-398.2 472,-398.2"/>
<text text-anchor="start" x="475" y="-404.3" font-family="Helvetica,sans-Serif" font-size="11.00" fill="#000000">...</text>
<polygon fill="#ffffff" stroke="transparent" points="472,-379.2 472,-398.2 548,-398.2 548,-379.2 472,-379.2"/>
<polygon fill="none" stroke="#000000" points="472,-379.2 472,-398.2 548,-398.2 548,-379.2 472,-379.2"/>
<text text-anchor="start" x="475" y="-385.3" font-family="Helvetica,sans-Serif" font-size="11.00" fill="#000000">&lt; 4</text>
<polygon fill="#ffffff" stroke="transparent" points="548,-379.2 548,-398.2 613,-398.2 613,-379.2 548,-379.2"/>
<polygon fill="none" stroke="#000000" points="548,-379.2 548,-398.2 613,-398.2 613,-379.2 548,-379.2"/>
<text text-anchor="start" x="577.6105" y="-385.3" font-family="Helvetica,sans-Serif" font-size="11.00" fill="#000000">0 rows</text>
<polygon fill="#ffffff" stroke="transparent" points="613,-379.2 613,-398.2 653,-398.2 653,-379.2 613,-379.2"/>
<polygon fill="none" stroke="#000000" points="613,-379.2 613,-398.2 653,-398.2 653,-379.2 613,-379.2"/>
<text text-anchor="start" x="643.8862" y="-385.3" font-family="Helvetica,sans-Serif" font-size="11.00" fill="#000000"> &#160;</text>
</a>
</g>
</g>
<!-- gymnasts -->
<g id="node2" class="node">
<title>gymnasts</title>
<g id="a_node2"><a xlink:href="../../tables/gymnasts.html" xlink:title="gymnasts" target="_top">
<polygon fill="#ffffff" stroke="transparent" points="183,-230.7 183,-357.7 357,-357.7 357,-230.7 183,-230.7"/>
<polygon fill="#f5f5f5" stroke="transparent" points="183,-334.2 183,-357.2 357,-357.2 357,-334.2 183,-334.2"/>
<polygon fill="none" stroke="#000000" points="183,-334.2 183,-357.2 357,-357.2 357,-334.2 183,-334.2"/>
<text text-anchor="start" x="188" y="-343.3" font-family="Helvetica,sans-Serif" font-weight="bold" font-size="11.00" fill="#000000">gymnasts</text>
<text text-anchor="start" x="322.0437" y="-342.3" font-family="Helvetica,sans-Serif" font-size="11.00" fill="#000000">[table]</text>
<polygon fill="none" stroke="#000000" points="183,-312.2 183,-334.2 357,-334.2 357,-312.2 183,-312.2"/>
<image xlink:href="../../images/primaryKeys.png" width="11px" height="12px" preserveAspectRatio="xMinYMin meet" x="188" y="-329.2"/>
<text text-anchor="start" x="203" y="-319.3" font-family="Helvetica,sans-Serif" font-size="11.00" fill="#000000">id</text>
<polygon fill="#ffffff" stroke="transparent" points="183,-290.2 183,-312.2 357,-312.2 357,-290.2 183,-290.2"/>
<polygon fill="none" stroke="#000000" points="183,-290.2 183,-312.2 357,-312.2 357,-290.2 183,-290.2"/>
<image xlink:href="../../images/foreignKeys.png" width="11px" height="12px" preserveAspectRatio="xMinYMin meet" x="188" y="-307.2"/>
<text text-anchor="start" x="203" y="-297.3" font-family="Helvetica,sans-Serif" font-size="11.00" fill="#000000">gyms_has_users_gyms_id</text>
<polygon fill="#ffffff" stroke="transparent" points="183,-268.2 183,-290.2 357,-290.2 357,-268.2 183,-268.2"/>
<polygon fill="none" stroke="#000000" points="183,-268.2 183,-290.2 357,-290.2 357,-268.2 183,-268.2"/>
<image xlink:href="../../images/foreignKeys.png" width="11px" height="12px" preserveAspectRatio="xMinYMin meet" x="188" y="-285.2"/>
<text text-anchor="start" x="203" y="-275.3" font-family="Helvetica,sans-Serif" font-size="11.00" fill="#000000">gyms_has_users_users_id</text>
<polygon fill="none" stroke="#000000" points="183,-249.2 183,-268.2 357,-268.2 357,-249.2 183,-249.2"/>
<text text-anchor="start" x="186" y="-255.3" font-family="Helvetica,sans-Serif" font-size="11.00" fill="#000000">...</text>
<polygon fill="#ffffff" stroke="transparent" points="183,-230.2 183,-249.2 251,-249.2 251,-230.2 183,-230.2"/>
<polygon fill="none" stroke="#000000" points="183,-230.2 183,-249.2 251,-249.2 251,-230.2 183,-230.2"/>
<text text-anchor="start" x="186" y="-236.3" font-family="Helvetica,sans-Serif" font-size="11.00" fill="#000000">&lt; 2</text>
<polygon fill="#ffffff" stroke="transparent" points="251,-230.2 251,-249.2 312,-249.2 312,-230.2 251,-230.2"/>
<polygon fill="none" stroke="#000000" points="251,-230.2 251,-249.2 312,-249.2 312,-230.2 251,-230.2"/>
<text text-anchor="start" x="276.6105" y="-236.3" font-family="Helvetica,sans-Serif" font-size="11.00" fill="#000000">0 rows</text>
<polygon fill="#ffffff" stroke="transparent" points="312,-230.2 312,-249.2 357,-249.2 357,-230.2 312,-230.2"/>
<polygon fill="none" stroke="#000000" points="312,-230.2 312,-249.2 357,-249.2 357,-230.2 312,-230.2"/>
<text text-anchor="start" x="338.4053" y="-236.3" font-family="Helvetica,sans-Serif" font-size="11.00" fill="#000000">4 &gt;</text>
</a>
</g>
</g>
<!-- completed_daily_challenges&#45;&gt;gymnasts -->
<g id="edge1" class="edge">
<title>completed_daily_challenges:w&#45;&gt;gymnasts:e</title>
<path fill="none" stroke="#000000" d="M457.2994,-406.2104C432.2432,-402.4764 422.8989,-388.4685 398,-369.2 376.3414,-352.4391 384.3866,-323.2 357,-323.2"/>
<polygon fill="#000000" stroke="#000000" points="464.0181,-406.6626 471.7582,-410.7919 468.009,-406.9313 472,-407.2 472,-407.2 472,-407.2 468.009,-406.9313 472.2418,-403.6081 464.0181,-406.6626 464.0181,-406.6626"/>
<ellipse fill="none" stroke="#000000" cx="460.8253" cy="-406.4477" rx="3.2" ry="3.2"/>
</g>
<!-- gyms_has_users -->
<g id="node6" class="node">
<title>gyms_has_users</title>
<g id="a_node6"><a xlink:href="../../tables/gyms_has_users.html" xlink:title="gyms_has_users" target="_top">
<polygon fill="#ffffff" stroke="transparent" points="8,-262.7 8,-323.7 134,-323.7 134,-262.7 8,-262.7"/>
<polygon fill="#f5f5f5" stroke="transparent" points="8,-300.2 8,-323.2 134,-323.2 134,-300.2 8,-300.2"/>
<polygon fill="none" stroke="#000000" points="8,-300.2 8,-323.2 134,-323.2 134,-300.2 8,-300.2"/>
<text text-anchor="start" x="12.9359" y="-309.3" font-family="Helvetica,sans-Serif" font-weight="bold" font-size="11.00" fill="#000000">gyms_has_users</text>
<text text-anchor="start" x="99.5219" y="-308.3" font-family="Helvetica,sans-Serif" font-size="11.00" fill="#000000">[table]</text>
<polygon fill="none" stroke="#000000" points="8,-281.2 8,-300.2 134,-300.2 134,-281.2 8,-281.2"/>
<text text-anchor="start" x="11" y="-287.3" font-family="Helvetica,sans-Serif" font-size="11.00" fill="#000000">...</text>
<polygon fill="#ffffff" stroke="transparent" points="8,-262.2 8,-281.2 52,-281.2 52,-262.2 8,-262.2"/>
<polygon fill="none" stroke="#000000" points="8,-262.2 8,-281.2 52,-281.2 52,-262.2 8,-262.2"/>
<text text-anchor="start" x="11" y="-268.3" font-family="Helvetica,sans-Serif" font-size="11.00" fill="#000000">&lt; 2</text>
<polygon fill="#ffffff" stroke="transparent" points="52,-262.2 52,-281.2 101,-281.2 101,-262.2 52,-262.2"/>
<polygon fill="none" stroke="#000000" points="52,-262.2 52,-281.2 101,-281.2 101,-262.2 52,-262.2"/>
<text text-anchor="start" x="65.6105" y="-268.3" font-family="Helvetica,sans-Serif" font-size="11.00" fill="#000000">0 rows</text>
<polygon fill="#ffffff" stroke="transparent" points="101,-262.2 101,-281.2 134,-281.2 134,-262.2 101,-262.2"/>
<polygon fill="none" stroke="#000000" points="101,-262.2 101,-281.2 134,-281.2 134,-262.2 101,-262.2"/>
<text text-anchor="start" x="115.4053" y="-268.3" font-family="Helvetica,sans-Serif" font-size="11.00" fill="#000000">2 &gt;</text>
</a>
</g>
</g>
<!-- gymnasts&#45;&gt;gyms_has_users -->
<g id="edge6" class="edge">
<title>gymnasts:w&#45;&gt;gyms_has_users:e</title>
<path fill="none" stroke="#000000" d="M168.7027,-299.3836C157.2382,-296.2593 150.5655,-290.2 134,-290.2"/>
<polygon fill="#000000" stroke="#000000" points="175.0638,-300.1917 182.5463,-304.7713 179.0319,-300.6958 183,-301.2 183,-301.2 183,-301.2 179.0319,-300.6958 183.4537,-297.6287 175.0638,-300.1917 175.0638,-300.1917"/>
<ellipse fill="none" stroke="#000000" cx="171.8893" cy="-299.7884" rx="3.2" ry="3.2"/>
</g>
<!-- gymnasts&#45;&gt;gyms_has_users -->
<g id="edge7" class="edge">
<title>gymnasts:w&#45;&gt;gyms_has_users:e</title>
<path fill="none" stroke="#000000" d="M168.7027,-281.0164C157.2382,-284.1407 150.5655,-290.2 134,-290.2"/>
<polygon fill="#000000" stroke="#000000" points="175.0638,-280.2083 183.4537,-282.7713 179.0319,-279.7042 183,-279.2 183,-279.2 183,-279.2 179.0319,-279.7042 182.5463,-275.6287 175.0638,-280.2083 175.0638,-280.2083"/>
<ellipse fill="none" stroke="#000000" cx="171.8893" cy="-280.6116" rx="3.2" ry="3.2"/>
</g>
<!-- completed_normal_challenges -->
<g id="node3" class="node">
<title>completed_normal_challenges</title>
<g id="a_node3"><a xlink:href="../../tables/completed_normal_challenges.html" xlink:title="completed_normal_challenges" target="_top">
<polygon fill="#ffffff" stroke="transparent" points="406,-38.2 406,-194.2 718,-194.2 718,-38.2 406,-38.2"/>
<polygon fill="#f5f5f5" stroke="transparent" points="408,-169.2 408,-192.2 716,-192.2 716,-169.2 408,-169.2"/>
<polygon fill="none" stroke="#000000" points="408,-169.2 408,-192.2 716,-192.2 716,-169.2 408,-169.2"/>
<text text-anchor="start" x="413" y="-178.3" font-family="Helvetica,sans-Serif" font-weight="bold" font-size="11.00" fill="#000000">completed_normal_challenges</text>
<text text-anchor="start" x="681.0437" y="-177.3" font-family="Helvetica,sans-Serif" font-size="11.00" fill="#000000">[table]</text>
<polygon fill="none" stroke="#000000" points="408,-147.2 408,-169.2 623,-169.2 623,-147.2 408,-147.2"/>
<image xlink:href="../../images/primaryKeys.png" width="11px" height="12px" preserveAspectRatio="xMinYMin meet" x="413" y="-164.2"/>
<text text-anchor="start" x="428" y="-154.3" font-family="Helvetica,sans-Serif" font-size="11.00" fill="#000000">gymnasts_id</text>
<polygon fill="none" stroke="#000000" points="623,-147.2 623,-169.2 716,-169.2 716,-147.2 623,-147.2"/>
<text text-anchor="start" x="626" y="-154.9" font-family="Helvetica,sans-Serif" font-size="11.00" fill="#000000">int[10]</text>
<polygon fill="none" stroke="#000000" points="408,-125.2 408,-147.2 623,-147.2 623,-125.2 408,-125.2"/>
<image xlink:href="../../images/primaryKeys.png" width="11px" height="12px" preserveAspectRatio="xMinYMin meet" x="413" y="-142.2"/>
<text text-anchor="start" x="428" y="-132.3" font-family="Helvetica,sans-Serif" font-size="11.00" fill="#000000">normal_challenges_classes_id</text>
<polygon fill="none" stroke="#000000" points="623,-125.2 623,-147.2 716,-147.2 716,-125.2 623,-125.2"/>
<text text-anchor="start" x="626" y="-132.9" font-family="Helvetica,sans-Serif" font-size="11.00" fill="#000000">int[10]</text>
<polygon fill="none" stroke="#000000" points="408,-103.2 408,-125.2 623,-125.2 623,-103.2 408,-103.2"/>
<image xlink:href="../../images/primaryKeys.png" width="11px" height="12px" preserveAspectRatio="xMinYMin meet" x="413" y="-120.2"/>
<text text-anchor="start" x="428" y="-110.3" font-family="Helvetica,sans-Serif" font-size="11.00" fill="#000000">normal_challenges_challenges_id</text>
<polygon fill="none" stroke="#000000" points="623,-103.2 623,-125.2 716,-125.2 716,-103.2 623,-103.2"/>
<text text-anchor="start" x="626" y="-110.9" font-family="Helvetica,sans-Serif" font-size="11.00" fill="#000000">int[10]</text>
<polygon fill="none" stroke="#000000" points="408,-81.2 408,-103.2 623,-103.2 623,-81.2 408,-81.2"/>
<text text-anchor="start" x="428" y="-88.3" font-family="Helvetica,sans-Serif" font-size="11.00" fill="#000000">date_of_completation</text>
<polygon fill="none" stroke="#000000" points="623,-81.2 623,-103.2 716,-103.2 716,-81.2 623,-81.2"/>
<text text-anchor="start" x="626" y="-88.9" font-family="Helvetica,sans-Serif" font-size="11.00" fill="#000000">date[10]</text>
<polygon fill="none" stroke="#000000" points="408,-59.2 408,-81.2 623,-81.2 623,-59.2 408,-59.2"/>
<text text-anchor="start" x="428" y="-66.3" font-family="Helvetica,sans-Serif" font-size="11.00" fill="#000000">Interactions</text>
<polygon fill="none" stroke="#000000" points="623,-59.2 623,-81.2 716,-81.2 716,-59.2 623,-59.2"/>
<text text-anchor="start" x="625.7832" y="-66.9" font-family="Helvetica,sans-Serif" font-size="11.00" fill="#000000">json[1073741824]</text>
<polygon fill="#ffffff" stroke="transparent" points="408,-40.2 408,-59.2 507,-59.2 507,-40.2 408,-40.2"/>
<polygon fill="none" stroke="#000000" points="408,-40.2 408,-59.2 507,-59.2 507,-40.2 408,-40.2"/>
<text text-anchor="start" x="411" y="-46.3" font-family="Helvetica,sans-Serif" font-size="11.00" fill="#000000">&lt; 3</text>
<polygon fill="#ffffff" stroke="transparent" points="507,-40.2 507,-59.2 623,-59.2 623,-40.2 507,-40.2"/>
<polygon fill="none" stroke="#000000" points="507,-40.2 507,-59.2 623,-59.2 623,-40.2 507,-40.2"/>
<text text-anchor="start" x="587.6105" y="-46.3" font-family="Helvetica,sans-Serif" font-size="11.00" fill="#000000">0 rows</text>
<polygon fill="#ffffff" stroke="transparent" points="623,-40.2 623,-59.2 716,-59.2 716,-40.2 623,-40.2"/>
<polygon fill="none" stroke="#000000" points="623,-40.2 623,-59.2 716,-59.2 716,-40.2 623,-40.2"/>
<text text-anchor="start" x="697.4053" y="-46.3" font-family="Helvetica,sans-Serif" font-size="11.00" fill="#000000">0 &gt;</text>
<polygon fill="none" stroke="#000000" stroke-width="2" points="407,-39.2 407,-193.2 717,-193.2 717,-39.2 407,-39.2"/>
</a>
</g>
</g>
<!-- completed_normal_challenges&#45;&gt;gymnasts -->
<g id="edge2" class="edge">
<title>completed_normal_challenges:w&#45;&gt;gymnasts:e</title>
<path fill="none" stroke="#000000" d="M393.7256,-160.7918C345.4728,-181.7833 428.0597,-323.2 357,-323.2"/>
<polygon fill="#000000" stroke="#000000" points="400.1287,-159.6292 408.6431,-161.7421 404.0643,-158.9146 408,-158.2 408,-158.2 408,-158.2 404.0643,-158.9146 407.3569,-154.6579 400.1287,-159.6292 400.1287,-159.6292"/>
<ellipse fill="none" stroke="#000000" cx="396.9802" cy="-160.2009" rx="3.2" ry="3.2"/>
</g>
<!-- normal_challenges -->
<g id="node4" class="node">
<title>normal_challenges</title>
<g id="a_node4"><a xlink:href="../../tables/normal_challenges.html" xlink:title="normal_challenges" target="_top">
<polygon fill="#ffffff" stroke="transparent" points="202.5,-65.7 202.5,-170.7 337.5,-170.7 337.5,-65.7 202.5,-65.7"/>
<polygon fill="#f5f5f5" stroke="transparent" points="203,-147.2 203,-170.2 338,-170.2 338,-147.2 203,-147.2"/>
<polygon fill="none" stroke="#000000" points="203,-147.2 203,-170.2 338,-170.2 338,-147.2 203,-147.2"/>
<text text-anchor="start" x="207.8523" y="-156.3" font-family="Helvetica,sans-Serif" font-weight="bold" font-size="11.00" fill="#000000">normal_challenges</text>
<text text-anchor="start" x="303.5219" y="-155.3" font-family="Helvetica,sans-Serif" font-size="11.00" fill="#000000">[table]</text>
<polygon fill="none" stroke="#000000" points="203,-125.2 203,-147.2 338,-147.2 338,-125.2 203,-125.2"/>
<image xlink:href="../../images/primaryKeys.png" width="11px" height="12px" preserveAspectRatio="xMinYMin meet" x="208" y="-142.2"/>
<text text-anchor="start" x="226" y="-132.3" font-family="Helvetica,sans-Serif" font-size="11.00" fill="#000000">classes_id</text>
<polygon fill="none" stroke="#000000" points="203,-103.2 203,-125.2 338,-125.2 338,-103.2 203,-103.2"/>
<image xlink:href="../../images/primaryKeys.png" width="11px" height="12px" preserveAspectRatio="xMinYMin meet" x="208" y="-120.2"/>
<text text-anchor="start" x="226" y="-110.3" font-family="Helvetica,sans-Serif" font-size="11.00" fill="#000000">challenges_id</text>
<polygon fill="none" stroke="#000000" points="203,-84.2 203,-103.2 338,-103.2 338,-84.2 203,-84.2"/>
<text text-anchor="start" x="206" y="-90.3" font-family="Helvetica,sans-Serif" font-size="11.00" fill="#000000">...</text>
<polygon fill="#ffffff" stroke="transparent" points="203,-65.2 203,-84.2 251,-84.2 251,-65.2 203,-65.2"/>
<polygon fill="none" stroke="#000000" points="203,-65.2 203,-84.2 251,-84.2 251,-65.2 203,-65.2"/>
<text text-anchor="start" x="206" y="-71.3" font-family="Helvetica,sans-Serif" font-size="11.00" fill="#000000">&lt; 2</text>
<polygon fill="#ffffff" stroke="transparent" points="251,-65.2 251,-84.2 303,-84.2 303,-65.2 251,-65.2"/>
<polygon fill="none" stroke="#000000" points="251,-65.2 251,-84.2 303,-84.2 303,-65.2 251,-65.2"/>
<text text-anchor="start" x="267.6105" y="-71.3" font-family="Helvetica,sans-Serif" font-size="11.00" fill="#000000">0 rows</text>
<polygon fill="#ffffff" stroke="transparent" points="303,-65.2 303,-84.2 338,-84.2 338,-65.2 303,-65.2"/>
<polygon fill="none" stroke="#000000" points="303,-65.2 303,-84.2 338,-84.2 338,-65.2 303,-65.2"/>
<text text-anchor="start" x="319.4053" y="-71.3" font-family="Helvetica,sans-Serif" font-size="11.00" fill="#000000">2 &gt;</text>
</a>
</g>
</g>
<!-- completed_normal_challenges&#45;&gt;normal_challenges -->
<g id="edge3" class="edge">
<title>completed_normal_challenges:w&#45;&gt;normal_challenges:e</title>
<path fill="none" stroke="#000000" d="M393.5032,-114.2C373.4335,-114.2 363.6424,-114.2 338,-114.2"/>
<polygon fill="#000000" stroke="#000000" points="400,-114.2001 408,-117.8 404,-114.2 408,-114.2 408,-114.2 408,-114.2 404,-114.2 408,-110.6 400,-114.2001 400,-114.2001"/>
<ellipse fill="none" stroke="#000000" cx="396.8" cy="-114.2001" rx="3.2" ry="3.2"/>
</g>
<!-- completed_normal_challenges&#45;&gt;normal_challenges -->
<g id="edge4" class="edge">
<title>completed_normal_challenges:w&#45;&gt;normal_challenges:e</title>
<path fill="none" stroke="#000000" d="M393.5032,-136.2C373.4335,-136.2 363.6424,-136.2 338,-136.2"/>
<polygon fill="#000000" stroke="#000000" points="400,-136.2001 408,-139.8 404,-136.2 408,-136.2 408,-136.2 408,-136.2 404,-136.2 408,-132.6 400,-136.2001 400,-136.2001"/>
<ellipse fill="none" stroke="#000000" cx="396.8" cy="-136.2001" rx="3.2" ry="3.2"/>
</g>
<!-- classes -->
<g id="node8" class="node">
<title>classes</title>
<g id="a_node8"><a xlink:href="../../tables/classes.html" xlink:title="classes" target="_top">
<polygon fill="#ffffff" stroke="transparent" points="31,-174.7 31,-235.7 111,-235.7 111,-174.7 31,-174.7"/>
<polygon fill="#f5f5f5" stroke="transparent" points="31,-212.2 31,-235.2 111,-235.2 111,-212.2 31,-212.2"/>
<polygon fill="none" stroke="#000000" points="31,-212.2 31,-235.2 111,-235.2 111,-212.2 31,-212.2"/>
<text text-anchor="start" x="36" y="-221.3" font-family="Helvetica,sans-Serif" font-weight="bold" font-size="11.00" fill="#000000">classes</text>
<text text-anchor="start" x="76.5219" y="-220.3" font-family="Helvetica,sans-Serif" font-size="11.00" fill="#000000">[table]</text>
<polygon fill="none" stroke="#000000" points="31,-193.2 31,-212.2 111,-212.2 111,-193.2 31,-193.2"/>
<text text-anchor="start" x="34" y="-199.3" font-family="Helvetica,sans-Serif" font-size="11.00" fill="#000000">...</text>
<polygon fill="#ffffff" stroke="transparent" points="31,-174.2 31,-193.2 52,-193.2 52,-174.2 31,-174.2"/>
<polygon fill="none" stroke="#000000" points="31,-174.2 31,-193.2 52,-193.2 52,-174.2 31,-174.2"/>
<text text-anchor="start" x="33.7027" y="-180.3" font-family="Helvetica,sans-Serif" font-size="11.00" fill="#000000">&lt; 1</text>
<polygon fill="#ffffff" stroke="transparent" points="52,-174.2 52,-193.2 90,-193.2 90,-174.2 52,-174.2"/>
<polygon fill="none" stroke="#000000" points="52,-174.2 52,-193.2 90,-193.2 90,-174.2 52,-174.2"/>
<text text-anchor="start" x="54.8053" y="-180.3" font-family="Helvetica,sans-Serif" font-size="11.00" fill="#000000">0 rows</text>
<polygon fill="#ffffff" stroke="transparent" points="90,-174.2 90,-193.2 111,-193.2 111,-174.2 90,-174.2"/>
<polygon fill="none" stroke="#000000" points="90,-174.2 90,-193.2 111,-193.2 111,-174.2 90,-174.2"/>
<text text-anchor="start" x="92.7027" y="-180.3" font-family="Helvetica,sans-Serif" font-size="11.00" fill="#000000">3 &gt;</text>
</a>
</g>
</g>
<!-- normal_challenges&#45;&gt;classes -->
<g id="edge11" class="edge">
<title>normal_challenges:w&#45;&gt;classes:e</title>
<path fill="none" stroke="#000000" d="M188.4499,-138.3959C153.8632,-149.8479 155.8184,-202.2 111,-202.2"/>
<polygon fill="#000000" stroke="#000000" points="195.0896,-137.3939 203.5373,-139.7597 199.0448,-136.797 203,-136.2 203,-136.2 203,-136.2 199.0448,-136.797 202.4627,-132.6403 195.0896,-137.3939 195.0896,-137.3939"/>
<ellipse fill="none" stroke="#000000" cx="191.9254" cy="-137.8715" rx="3.2" ry="3.2"/>
</g>
<!-- challenges -->
<g id="node9" class="node">
<title>challenges</title>
<g id="a_node9"><a xlink:href="../../tables/challenges.html" xlink:title="challenges" target="_top">
<polygon fill="#ffffff" stroke="transparent" points="23.5,-86.7 23.5,-147.7 118.5,-147.7 118.5,-86.7 23.5,-86.7"/>
<polygon fill="#f5f5f5" stroke="transparent" points="24,-124.2 24,-147.2 119,-147.2 119,-124.2 24,-124.2"/>
<polygon fill="none" stroke="#000000" points="24,-124.2 24,-147.2 119,-147.2 119,-124.2 24,-124.2"/>
<text text-anchor="start" x="28.7144" y="-133.3" font-family="Helvetica,sans-Serif" font-weight="bold" font-size="11.00" fill="#000000">challenges</text>
<text text-anchor="start" x="84.5219" y="-132.3" font-family="Helvetica,sans-Serif" font-size="11.00" fill="#000000">[table]</text>
<polygon fill="none" stroke="#000000" points="24,-105.2 24,-124.2 119,-124.2 119,-105.2 24,-105.2"/>
<text text-anchor="start" x="27" y="-111.3" font-family="Helvetica,sans-Serif" font-size="11.00" fill="#000000">...</text>
<polygon fill="#ffffff" stroke="transparent" points="24,-86.2 24,-105.2 48,-105.2 48,-86.2 24,-86.2"/>
<polygon fill="none" stroke="#000000" points="24,-86.2 24,-105.2 48,-105.2 48,-86.2 24,-86.2"/>
<text text-anchor="start" x="27" y="-92.3" font-family="Helvetica,sans-Serif" font-size="11.00" fill="#000000"> &#160;</text>
<polygon fill="#ffffff" stroke="transparent" points="48,-86.2 48,-105.2 92,-105.2 92,-86.2 48,-86.2"/>
<polygon fill="none" stroke="#000000" points="48,-86.2 48,-105.2 92,-105.2 92,-86.2 48,-86.2"/>
<text text-anchor="start" x="56.6105" y="-92.3" font-family="Helvetica,sans-Serif" font-size="11.00" fill="#000000">0 rows</text>
<polygon fill="#ffffff" stroke="transparent" points="92,-86.2 92,-105.2 119,-105.2 119,-86.2 92,-86.2"/>
<polygon fill="none" stroke="#000000" points="92,-86.2 92,-105.2 119,-105.2 119,-86.2 92,-86.2"/>
<text text-anchor="start" x="100.4053" y="-92.3" font-family="Helvetica,sans-Serif" font-size="11.00" fill="#000000">2 &gt;</text>
</a>
</g>
</g>
<!-- normal_challenges&#45;&gt;challenges -->
<g id="edge10" class="edge">
<title>normal_challenges:w&#45;&gt;challenges:e</title>
<path fill="none" stroke="#000000" d="M188.3981,-114.2C162.3839,-114.2 150.9375,-114.2 119,-114.2"/>
<polygon fill="#000000" stroke="#000000" points="195,-114.2001 203,-117.8 199,-114.2 203,-114.2 203,-114.2 203,-114.2 199,-114.2 203,-110.6 195,-114.2001 195,-114.2001"/>
<ellipse fill="none" stroke="#000000" cx="191.8" cy="-114.2001" rx="3.2" ry="3.2"/>
</g>
<!-- gymnast_has_skills -->
<g id="node5" class="node">
<title>gymnast_has_skills</title>
<g id="a_node5"><a xlink:href="../../tables/gymnast_has_skills.html" xlink:title="gymnast_has_skills" target="_top">
<polygon fill="#ffffff" stroke="transparent" points="493,-297.7 493,-358.7 631,-358.7 631,-297.7 493,-297.7"/>
<polygon fill="#f5f5f5" stroke="transparent" points="493,-335.2 493,-358.2 631,-358.2 631,-335.2 493,-335.2"/>
<polygon fill="none" stroke="#000000" points="493,-335.2 493,-358.2 631,-358.2 631,-335.2 493,-335.2"/>
<text text-anchor="start" x="497.8271" y="-344.3" font-family="Helvetica,sans-Serif" font-weight="bold" font-size="11.00" fill="#000000">gymnast_has_skills</text>
<text text-anchor="start" x="596.5219" y="-343.3" font-family="Helvetica,sans-Serif" font-size="11.00" fill="#000000">[table]</text>
<polygon fill="none" stroke="#000000" points="493,-316.2 493,-335.2 631,-335.2 631,-316.2 493,-316.2"/>
<text text-anchor="start" x="496" y="-322.3" font-family="Helvetica,sans-Serif" font-size="11.00" fill="#000000">...</text>
<polygon fill="#ffffff" stroke="transparent" points="493,-297.2 493,-316.2 547,-316.2 547,-297.2 493,-297.2"/>
<polygon fill="none" stroke="#000000" points="493,-297.2 493,-316.2 547,-316.2 547,-297.2 493,-297.2"/>
<text text-anchor="start" x="496" y="-303.3" font-family="Helvetica,sans-Serif" font-size="11.00" fill="#000000">&lt; 2</text>
<polygon fill="#ffffff" stroke="transparent" points="547,-297.2 547,-316.2 602,-316.2 602,-297.2 547,-297.2"/>
<polygon fill="none" stroke="#000000" points="547,-297.2 547,-316.2 602,-316.2 602,-297.2 547,-297.2"/>
<text text-anchor="start" x="566.6105" y="-303.3" font-family="Helvetica,sans-Serif" font-size="11.00" fill="#000000">0 rows</text>
<polygon fill="#ffffff" stroke="transparent" points="602,-297.2 602,-316.2 631,-316.2 631,-297.2 602,-297.2"/>
<polygon fill="none" stroke="#000000" points="602,-297.2 602,-316.2 631,-316.2 631,-297.2 602,-297.2"/>
<text text-anchor="start" x="621.8862" y="-303.3" font-family="Helvetica,sans-Serif" font-size="11.00" fill="#000000"> &#160;</text>
</a>
</g>
</g>
<!-- gymnast_has_skills&#45;&gt;gymnasts -->
<g id="edge5" class="edge">
<title>gymnast_has_skills:w&#45;&gt;gymnasts:e</title>
<path fill="none" stroke="#000000" d="M478.3622,-325.1582C429.6191,-324.871 412.256,-323.2 357,-323.2"/>
<polygon fill="#000000" stroke="#000000" points="485,-325.1771 492.9897,-328.8 489,-325.1886 493,-325.2 493,-325.2 493,-325.2 489,-325.1886 493.0103,-321.6 485,-325.1771 485,-325.1771"/>
<ellipse fill="none" stroke="#000000" cx="481.8" cy="-325.168" rx="3.2" ry="3.2"/>
</g>
<!-- gymnasts_classes -->
<g id="node7" class="node">
<title>gymnasts_classes</title>
<g id="a_node7"><a xlink:href="../../tables/gymnasts_classes.html" xlink:title="gymnasts_classes" target="_top">
<polygon fill="#ffffff" stroke="transparent" points="496,-215.7 496,-276.7 628,-276.7 628,-215.7 496,-215.7"/>
<polygon fill="#f5f5f5" stroke="transparent" points="496,-253.2 496,-276.2 628,-276.2 628,-253.2 496,-253.2"/>
<polygon fill="none" stroke="#000000" points="496,-253.2 496,-276.2 628,-276.2 628,-253.2 496,-253.2"/>
<text text-anchor="start" x="500.5755" y="-262.3" font-family="Helvetica,sans-Serif" font-weight="bold" font-size="11.00" fill="#000000">gymnasts_classes</text>
<text text-anchor="start" x="593.5219" y="-261.3" font-family="Helvetica,sans-Serif" font-size="11.00" fill="#000000">[table]</text>
<polygon fill="none" stroke="#000000" points="496,-234.2 496,-253.2 628,-253.2 628,-234.2 496,-234.2"/>
<text text-anchor="start" x="499" y="-240.3" font-family="Helvetica,sans-Serif" font-size="11.00" fill="#000000">...</text>
<polygon fill="#ffffff" stroke="transparent" points="496,-215.2 496,-234.2 547,-234.2 547,-215.2 496,-215.2"/>
<polygon fill="none" stroke="#000000" points="496,-215.2 496,-234.2 547,-234.2 547,-215.2 496,-215.2"/>
<text text-anchor="start" x="499" y="-221.3" font-family="Helvetica,sans-Serif" font-size="11.00" fill="#000000">&lt; 2</text>
<polygon fill="#ffffff" stroke="transparent" points="547,-215.2 547,-234.2 600,-234.2 600,-215.2 547,-215.2"/>
<polygon fill="none" stroke="#000000" points="547,-215.2 547,-234.2 600,-234.2 600,-215.2 547,-215.2"/>
<text text-anchor="start" x="564.6105" y="-221.3" font-family="Helvetica,sans-Serif" font-size="11.00" fill="#000000">0 rows</text>
<polygon fill="#ffffff" stroke="transparent" points="600,-215.2 600,-234.2 628,-234.2 628,-215.2 600,-215.2"/>
<polygon fill="none" stroke="#000000" points="600,-215.2 600,-234.2 628,-234.2 628,-215.2 600,-215.2"/>
<text text-anchor="start" x="618.8862" y="-221.3" font-family="Helvetica,sans-Serif" font-size="11.00" fill="#000000"> &#160;</text>
</a>
</g>
</g>
<!-- gymnasts_classes&#45;&gt;gymnasts -->
<g id="edge9" class="edge">
<title>gymnasts_classes:w&#45;&gt;gymnasts:e</title>
<path fill="none" stroke="#000000" d="M481.5966,-243.8388C445.6883,-247.2691 433.7701,-264.2079 398,-287.2 377.6009,-300.312 381.2497,-323.2 357,-323.2"/>
<polygon fill="#000000" stroke="#000000" points="488.0079,-243.5545 496.1595,-246.7965 492.0039,-243.3773 496,-243.2 496,-243.2 496,-243.2 492.0039,-243.3773 495.8405,-239.6035 488.0079,-243.5545 488.0079,-243.5545"/>
<ellipse fill="none" stroke="#000000" cx="484.811" cy="-243.6963" rx="3.2" ry="3.2"/>
</g>
<!-- gymnasts_classes&#45;&gt;classes -->
<g id="edge8" class="edge">
<title>gymnasts_classes:w&#45;&gt;classes:e</title>
<path fill="none" stroke="#000000" d="M481.4152,-242.8506C434.213,-240.4907 418.5148,-226.7763 365,-220.2 252.673,-206.3964 224.172,-202.2 111,-202.2"/>
<polygon fill="#000000" stroke="#000000" points="488.0023,-243.0084 495.9138,-246.799 492.0011,-243.1042 496,-243.2 496,-243.2 496,-243.2 492.0011,-243.1042 496.0862,-239.601 488.0023,-243.0084 488.0023,-243.0084"/>
<ellipse fill="none" stroke="#000000" cx="484.8032" cy="-242.9317" rx="3.2" ry="3.2"/>
</g>
</g>
</svg>
