<?xml version="1.0" encoding="UTF-8" standalone="no"?>
<!DOCTYPE svg PUBLIC "-//W3C//DTD SVG 1.1//EN"
 "http://www.w3.org/Graphics/SVG/1.1/DTD/svg11.dtd">
<!-- Generated by graphviz version 2.40.1 (20161225.0304)
 -->
<!-- Title: twoDegreesRelationshipsDiagram Pages: 1 -->
<svg width="770pt" height="459pt"
 viewBox="0.00 0.00 770.00 459.20" xmlns="http://www.w3.org/2000/svg" xmlns:xlink="http://www.w3.org/1999/xlink">
<g id="graph0" class="graph" transform="scale(1 1) rotate(0) translate(4 455.2)">
<title>twoDegreesRelationshipsDiagram</title>
<polygon fill="#ffffff" stroke="transparent" points="-4,4 -4,-455.2 766,-455.2 766,4 -4,4"/>
<text text-anchor="middle" x="72.4936" y="-7.3" font-family="Helvetica,sans-Serif" font-size="11.00" fill="#000000">Generated by SchemaSpy</text>
<!-- challenges -->
<g id="node1" class="node">
<title>challenges</title>
<g id="a_node1"><a xlink:href="../../tables/challenges.html" xlink:title="challenges" target="_top">
<polygon fill="#ffffff" stroke="transparent" points="340.5,-90.2 340.5,-217.2 439.5,-217.2 439.5,-90.2 340.5,-90.2"/>
<polygon fill="#f5f5f5" stroke="transparent" points="341,-193.7 341,-216.7 440,-216.7 440,-193.7 341,-193.7"/>
<polygon fill="none" stroke="#000000" points="341,-193.7 341,-216.7 440,-216.7 440,-193.7 341,-193.7"/>
<text text-anchor="start" x="346" y="-202.8" font-family="Helvetica,sans-Serif" font-weight="bold" font-size="11.00" fill="#000000">challenges</text>
<text text-anchor="start" x="405.0437" y="-201.8" font-family="Helvetica,sans-Serif" font-size="11.00" fill="#000000">[table]</text>
<polygon fill="none" stroke="#000000" points="341,-171.7 341,-193.7 440,-193.7 440,-171.7 341,-171.7"/>
<image xlink:href="../../images/primaryKeys.png" width="11px" height="12px" preserveAspectRatio="xMinYMin meet" x="346" y="-188.7"/>
<text text-anchor="start" x="361" y="-178.8" font-family="Helvetica,sans-Serif" font-size="11.00" fill="#000000">id</text>
<polygon fill="#ffffff" stroke="transparent" points="341,-149.7 341,-171.7 440,-171.7 440,-149.7 341,-149.7"/>
<polygon fill="none" stroke="#000000" points="341,-149.7 341,-171.7 440,-171.7 440,-149.7 341,-149.7"/>
<image xlink:href="../../images/foreignKeys.png" width="11px" height="12px" preserveAspectRatio="xMinYMin meet" x="346" y="-166.7"/>
<text text-anchor="start" x="361" y="-156.8" font-family="Helvetica,sans-Serif" font-size="11.00" fill="#000000">gym_id</text>
<polygon fill="#ffffff" stroke="transparent" points="341,-127.7 341,-149.7 440,-149.7 440,-127.7 341,-127.7"/>
<polygon fill="none" stroke="#000000" points="341,-127.7 341,-149.7 440,-149.7 440,-127.7 341,-127.7"/>
<image xlink:href="../../images/foreignKeys.png" width="11px" height="12px" preserveAspectRatio="xMinYMin meet" x="346" y="-144.7"/>
<text text-anchor="start" x="361" y="-134.8" font-family="Helvetica,sans-Serif" font-size="11.00" fill="#000000">class_id</text>
<polygon fill="none" stroke="#000000" points="341,-108.7 341,-127.7 440,-127.7 440,-108.7 341,-108.7"/>
<text text-anchor="start" x="344" y="-114.8" font-family="Helvetica,sans-Serif" font-size="11.00" fill="#000000">...</text>
<polygon fill="#ffffff" stroke="transparent" points="341,-89.7 341,-108.7 371,-108.7 371,-89.7 341,-89.7"/>
<polygon fill="none" stroke="#000000" points="341,-89.7 341,-108.7 371,-108.7 371,-89.7 341,-89.7"/>
<text text-anchor="start" x="344" y="-95.8" font-family="Helvetica,sans-Serif" font-size="11.00" fill="#000000">&lt; 2</text>
<polygon fill="#ffffff" stroke="transparent" points="371,-89.7 371,-108.7 414,-108.7 414,-89.7 371,-89.7"/>
<polygon fill="none" stroke="#000000" points="371,-89.7 371,-108.7 414,-108.7 414,-89.7 371,-89.7"/>
<text text-anchor="start" x="378.6105" y="-95.8" font-family="Helvetica,sans-Serif" font-size="11.00" fill="#000000">0 rows</text>
<polygon fill="#ffffff" stroke="transparent" points="414,-89.7 414,-108.7 440,-108.7 440,-89.7 414,-89.7"/>
<polygon fill="none" stroke="#000000" points="414,-89.7 414,-108.7 440,-108.7 440,-89.7 414,-89.7"/>
<text text-anchor="start" x="421.4053" y="-95.8" font-family="Helvetica,sans-Serif" font-size="11.00" fill="#000000">1 &gt;</text>
</a>
</g>
</g>
<!-- classes -->
<g id="node2" class="node">
<title>classes</title>
<g id="a_node2"><a xlink:href="../../tables/classes.html" xlink:title="classes" target="_top">
<polygon fill="#ffffff" stroke="transparent" points="151,-84.2 151,-145.2 231,-145.2 231,-84.2 151,-84.2"/>
<polygon fill="#f5f5f5" stroke="transparent" points="151,-121.7 151,-144.7 231,-144.7 231,-121.7 151,-121.7"/>
<polygon fill="none" stroke="#000000" points="151,-121.7 151,-144.7 231,-144.7 231,-121.7 151,-121.7"/>
<text text-anchor="start" x="156" y="-130.8" font-family="Helvetica,sans-Serif" font-weight="bold" font-size="11.00" fill="#000000">classes</text>
<text text-anchor="start" x="196.5219" y="-129.8" font-family="Helvetica,sans-Serif" font-size="11.00" fill="#000000">[table]</text>
<polygon fill="none" stroke="#000000" points="151,-102.7 151,-121.7 231,-121.7 231,-102.7 151,-102.7"/>
<text text-anchor="start" x="154" y="-108.8" font-family="Helvetica,sans-Serif" font-size="11.00" fill="#000000">...</text>
<polygon fill="#ffffff" stroke="transparent" points="151,-83.7 151,-102.7 172,-102.7 172,-83.7 151,-83.7"/>
<polygon fill="none" stroke="#000000" points="151,-83.7 151,-102.7 172,-102.7 172,-83.7 151,-83.7"/>
<text text-anchor="start" x="153.7027" y="-89.8" font-family="Helvetica,sans-Serif" font-size="11.00" fill="#000000">&lt; 1</text>
<polygon fill="#ffffff" stroke="transparent" points="172,-83.7 172,-102.7 210,-102.7 210,-83.7 172,-83.7"/>
<polygon fill="none" stroke="#000000" points="172,-83.7 172,-102.7 210,-102.7 210,-83.7 172,-83.7"/>
<text text-anchor="start" x="174.8053" y="-89.8" font-family="Helvetica,sans-Serif" font-size="11.00" fill="#000000">0 rows</text>
<polygon fill="#ffffff" stroke="transparent" points="210,-83.7 210,-102.7 231,-102.7 231,-83.7 210,-83.7"/>
<polygon fill="none" stroke="#000000" points="210,-83.7 210,-102.7 231,-102.7 231,-83.7 210,-83.7"/>
<text text-anchor="start" x="212.7027" y="-89.8" font-family="Helvetica,sans-Serif" font-size="11.00" fill="#000000">2 &gt;</text>
</a>
</g>
</g>
<!-- challenges&#45;&gt;classes -->
<g id="edge1" class="edge">
<title>challenges:w&#45;&gt;classes:e</title>
<path fill="none" stroke="#000000" d="M326.5947,-137.8919C288.2909,-133.3995 276.1291,-111.7 231,-111.7"/>
<polygon fill="#000000" stroke="#000000" points="333.0126,-138.2519 340.7984,-142.2943 337.0063,-138.4759 341,-138.7 341,-138.7 341,-138.7 337.0063,-138.4759 341.2016,-135.1057 333.0126,-138.2519 333.0126,-138.2519"/>
<ellipse fill="none" stroke="#000000" cx="329.8176" cy="-138.0727" rx="3.2" ry="3.2"/>
</g>
<!-- gyms -->
<g id="node3" class="node">
<title>gyms</title>
<g id="a_node3"><a xlink:href="../../tables/gyms.html" xlink:title="gyms" target="_top">
<polygon fill="#ffffff" stroke="transparent" points="8,-223.2 8,-284.2 79,-284.2 79,-223.2 8,-223.2"/>
<polygon fill="#f5f5f5" stroke="transparent" points="8.5,-260.7 8.5,-283.7 79.5,-283.7 79.5,-260.7 8.5,-260.7"/>
<polygon fill="none" stroke="#000000" points="8.5,-260.7 8.5,-283.7 79.5,-283.7 79.5,-260.7 8.5,-260.7"/>
<text text-anchor="start" x="13.5" y="-269.8" font-family="Helvetica,sans-Serif" font-weight="bold" font-size="11.00" fill="#000000">gyms</text>
<text text-anchor="start" x="44.5437" y="-268.8" font-family="Helvetica,sans-Serif" font-size="11.00" fill="#000000">[table]</text>
<polygon fill="none" stroke="#000000" points="8.5,-241.7 8.5,-260.7 79.5,-260.7 79.5,-241.7 8.5,-241.7"/>
<text text-anchor="start" x="11.5" y="-247.8" font-family="Helvetica,sans-Serif" font-size="11.00" fill="#000000">...</text>
<polygon fill="#ffffff" stroke="transparent" points="8.5,-222.7 8.5,-241.7 20.5,-241.7 20.5,-222.7 8.5,-222.7"/>
<polygon fill="none" stroke="#000000" points="8.5,-222.7 8.5,-241.7 20.5,-241.7 20.5,-222.7 8.5,-222.7"/>
<text text-anchor="start" x="11.4431" y="-228.8" font-family="Helvetica,sans-Serif" font-size="11.00" fill="#000000"> &#160;</text>
<polygon fill="#ffffff" stroke="transparent" points="20.5,-222.7 20.5,-241.7 58.5,-241.7 58.5,-222.7 20.5,-222.7"/>
<polygon fill="none" stroke="#000000" points="20.5,-222.7 20.5,-241.7 58.5,-241.7 58.5,-222.7 20.5,-222.7"/>
<text text-anchor="start" x="23.3053" y="-228.8" font-family="Helvetica,sans-Serif" font-size="11.00" fill="#000000">0 rows</text>
<polygon fill="#ffffff" stroke="transparent" points="58.5,-222.7 58.5,-241.7 79.5,-241.7 79.5,-222.7 58.5,-222.7"/>
<polygon fill="none" stroke="#000000" points="58.5,-222.7 58.5,-241.7 79.5,-241.7 79.5,-222.7 58.5,-222.7"/>
<text text-anchor="start" x="61.2027" y="-228.8" font-family="Helvetica,sans-Serif" font-size="11.00" fill="#000000">4 &gt;</text>
</a>
</g>
</g>
<!-- challenges&#45;&gt;gyms -->
<g id="edge2" class="edge">
<title>challenges:w&#45;&gt;gyms:e</title>
<path fill="none" stroke="#000000" d="M326.4024,-161.1418C216.6208,-167.9314 197.3716,-250.7 79.5,-250.7"/>
<polygon fill="#000000" stroke="#000000" points="333.0037,-160.9421 341.1089,-164.2984 337.0018,-160.821 341,-160.7 341,-160.7 341,-160.7 337.0018,-160.821 340.8911,-157.1016 333.0037,-160.9421 333.0037,-160.9421"/>
<ellipse fill="none" stroke="#000000" cx="329.8051" cy="-161.0389" rx="3.2" ry="3.2"/>
</g>
<!-- completed_challenges -->
<g id="node4" class="node">
<title>completed_challenges</title>
<g id="a_node4"><a xlink:href="../../tables/completed_challenges.html" xlink:title="completed_challenges" target="_top">
<polygon fill="#ffffff" stroke="transparent" points="526,-120.7 526,-364.7 754,-364.7 754,-120.7 526,-120.7"/>
<polygon fill="#f5f5f5" stroke="transparent" points="528,-339.7 528,-362.7 752,-362.7 752,-339.7 528,-339.7"/>
<polygon fill="none" stroke="#000000" points="528,-339.7 528,-362.7 752,-362.7 752,-339.7 528,-339.7"/>
<text text-anchor="start" x="533" y="-348.8" font-family="Helvetica,sans-Serif" font-weight="bold" font-size="11.00" fill="#000000">completed_challenges</text>
<text text-anchor="start" x="717.0437" y="-347.8" font-family="Helvetica,sans-Serif" font-size="11.00" fill="#000000">[table]</text>
<polygon fill="none" stroke="#000000" points="528,-317.7 528,-339.7 677,-339.7 677,-317.7 528,-317.7"/>
<image xlink:href="../../images/primaryKeys.png" width="11px" height="12px" preserveAspectRatio="xMinYMin meet" x="533" y="-334.7"/>
<text text-anchor="start" x="548" y="-324.8" font-family="Helvetica,sans-Serif" font-size="11.00" fill="#000000">id</text>
<polygon fill="none" stroke="#000000" points="677,-317.7 677,-339.7 752,-339.7 752,-317.7 677,-317.7"/>
<text text-anchor="start" x="680" y="-325.4" font-family="Helvetica,sans-Serif" font-size="11.00" fill="#000000">bigint[19]</text>
<polygon fill="#ffffff" stroke="transparent" points="528,-295.7 528,-317.7 677,-317.7 677,-295.7 528,-295.7"/>
<polygon fill="none" stroke="#000000" points="528,-295.7 528,-317.7 677,-317.7 677,-295.7 528,-295.7"/>
<image xlink:href="../../images/foreignKeys.png" width="11px" height="12px" preserveAspectRatio="xMinYMin meet" x="533" y="-312.7"/>
<text text-anchor="start" x="548" y="-302.8" font-family="Helvetica,sans-Serif" font-size="11.00" fill="#000000">gymnast_id</text>
<polygon fill="none" stroke="#000000" points="677,-295.7 677,-317.7 752,-317.7 752,-295.7 677,-295.7"/>
<text text-anchor="start" x="680" y="-303.4" font-family="Helvetica,sans-Serif" font-size="11.00" fill="#000000">bigint[19]</text>
<polygon fill="#ffffff" stroke="transparent" points="528,-273.7 528,-295.7 677,-295.7 677,-273.7 528,-273.7"/>
<polygon fill="none" stroke="#000000" points="528,-273.7 528,-295.7 677,-295.7 677,-273.7 528,-273.7"/>
<image xlink:href="../../images/foreignKeys.png" width="11px" height="12px" preserveAspectRatio="xMinYMin meet" x="533" y="-290.7"/>
<text text-anchor="start" x="548" y="-280.8" font-family="Helvetica,sans-Serif" font-size="11.00" fill="#000000">challenge_id</text>
<polygon fill="none" stroke="#000000" points="677,-273.7 677,-295.7 752,-295.7 752,-273.7 677,-273.7"/>
<text text-anchor="start" x="680" y="-281.4" font-family="Helvetica,sans-Serif" font-size="11.00" fill="#000000">bigint[19]</text>
<polygon fill="none" stroke="#000000" points="528,-251.7 528,-273.7 677,-273.7 677,-251.7 528,-251.7"/>
<text text-anchor="start" x="548" y="-258.8" font-family="Helvetica,sans-Serif" font-size="11.00" fill="#000000">media_path</text>
<polygon fill="none" stroke="#000000" points="677,-251.7 677,-273.7 752,-273.7 752,-251.7 677,-251.7"/>
<text text-anchor="start" x="680" y="-259.4" font-family="Helvetica,sans-Serif" font-size="11.00" fill="#000000">varchar[100]</text>
<polygon fill="none" stroke="#000000" points="528,-229.7 528,-251.7 677,-251.7 677,-229.7 528,-229.7"/>
<text text-anchor="start" x="548" y="-236.8" font-family="Helvetica,sans-Serif" font-size="11.00" fill="#000000">media_caption</text>
<polygon fill="none" stroke="#000000" points="677,-229.7 677,-251.7 752,-251.7 752,-229.7 677,-229.7"/>
<text text-anchor="start" x="680" y="-237.4" font-family="Helvetica,sans-Serif" font-size="11.00" fill="#000000">varchar[100]</text>
<polygon fill="none" stroke="#000000" points="528,-207.7 528,-229.7 677,-229.7 677,-207.7 528,-207.7"/>
<text text-anchor="start" x="548" y="-214.8" font-family="Helvetica,sans-Serif" font-size="11.00" fill="#000000">date_of_completion</text>
<polygon fill="none" stroke="#000000" points="677,-207.7 677,-229.7 752,-229.7 752,-207.7 677,-207.7"/>
<text text-anchor="start" x="680" y="-215.4" font-family="Helvetica,sans-Serif" font-size="11.00" fill="#000000">date[10]</text>
<polygon fill="none" stroke="#000000" points="528,-185.7 528,-207.7 677,-207.7 677,-185.7 528,-185.7"/>
<text text-anchor="start" x="548" y="-192.8" font-family="Helvetica,sans-Serif" font-size="11.00" fill="#000000">created_at</text>
<polygon fill="none" stroke="#000000" points="677,-185.7 677,-207.7 752,-207.7 752,-185.7 677,-185.7"/>
<text text-anchor="start" x="679.9666" y="-193.4" font-family="Helvetica,sans-Serif" font-size="11.00" fill="#000000">timestamp[19]</text>
<polygon fill="none" stroke="#000000" points="528,-163.7 528,-185.7 677,-185.7 677,-163.7 528,-163.7"/>
<text text-anchor="start" x="548" y="-170.8" font-family="Helvetica,sans-Serif" font-size="11.00" fill="#000000">updated_at</text>
<polygon fill="none" stroke="#000000" points="677,-163.7 677,-185.7 752,-185.7 752,-163.7 677,-163.7"/>
<text text-anchor="start" x="679.9666" y="-171.4" font-family="Helvetica,sans-Serif" font-size="11.00" fill="#000000">timestamp[19]</text>
<polygon fill="none" stroke="#000000" points="528,-141.7 528,-163.7 677,-163.7 677,-141.7 528,-141.7"/>
<text text-anchor="start" x="548" y="-148.8" font-family="Helvetica,sans-Serif" font-size="11.00" fill="#000000">deleted_at</text>
<polygon fill="none" stroke="#000000" points="677,-141.7 677,-163.7 752,-163.7 752,-141.7 677,-141.7"/>
<text text-anchor="start" x="679.9666" y="-149.4" font-family="Helvetica,sans-Serif" font-size="11.00" fill="#000000">timestamp[19]</text>
<polygon fill="#ffffff" stroke="transparent" points="528,-122.7 528,-141.7 594,-141.7 594,-122.7 528,-122.7"/>
<polygon fill="none" stroke="#000000" points="528,-122.7 528,-141.7 594,-141.7 594,-122.7 528,-122.7"/>
<text text-anchor="start" x="531" y="-128.8" font-family="Helvetica,sans-Serif" font-size="11.00" fill="#000000">&lt; 2</text>
<polygon fill="#ffffff" stroke="transparent" points="594,-122.7 594,-141.7 677,-141.7 677,-122.7 594,-122.7"/>
<polygon fill="none" stroke="#000000" points="594,-122.7 594,-141.7 677,-141.7 677,-122.7 594,-122.7"/>
<text text-anchor="start" x="641.6105" y="-128.8" font-family="Helvetica,sans-Serif" font-size="11.00" fill="#000000">0 rows</text>
<polygon fill="#ffffff" stroke="transparent" points="677,-122.7 677,-141.7 752,-141.7 752,-122.7 677,-122.7"/>
<polygon fill="none" stroke="#000000" points="677,-122.7 677,-141.7 752,-141.7 752,-122.7 677,-122.7"/>
<text text-anchor="start" x="733.4053" y="-128.8" font-family="Helvetica,sans-Serif" font-size="11.00" fill="#000000">0 &gt;</text>
<polygon fill="none" stroke="#000000" stroke-width="2" points="527,-121.7 527,-363.7 753,-363.7 753,-121.7 527,-121.7"/>
</a>
</g>
</g>
<!-- completed_challenges&#45;&gt;challenges -->
<g id="edge3" class="edge">
<title>completed_challenges:w&#45;&gt;challenges:e</title>
<path fill="none" stroke="#000000" d="M513.5977,-281.2312C498.8414,-272.1351 501.7579,-246.9675 485,-227.7 466.4382,-206.3585 468.2843,-182.7 440,-182.7"/>
<polygon fill="#000000" stroke="#000000" points="520.2224,-282.8267 527.157,-288.1999 524.1112,-283.7634 528,-284.7 528,-284.7 528,-284.7 524.1112,-283.7634 528.843,-281.2001 520.2224,-282.8267 520.2224,-282.8267"/>
<ellipse fill="none" stroke="#000000" cx="517.1114" cy="-282.0774" rx="3.2" ry="3.2"/>
</g>
<!-- gymnasts -->
<g id="node5" class="node">
<title>gymnasts</title>
<g id="a_node5"><a xlink:href="../../tables/gymnasts.html" xlink:title="gymnasts" target="_top">
<polygon fill="#ffffff" stroke="transparent" points="303,-238.2 303,-365.2 477,-365.2 477,-238.2 303,-238.2"/>
<polygon fill="#f5f5f5" stroke="transparent" points="303,-341.7 303,-364.7 477,-364.7 477,-341.7 303,-341.7"/>
<polygon fill="none" stroke="#000000" points="303,-341.7 303,-364.7 477,-364.7 477,-341.7 303,-341.7"/>
<text text-anchor="start" x="308" y="-350.8" font-family="Helvetica,sans-Serif" font-weight="bold" font-size="11.00" fill="#000000">gymnasts</text>
<text text-anchor="start" x="442.0437" y="-349.8" font-family="Helvetica,sans-Serif" font-size="11.00" fill="#000000">[table]</text>
<polygon fill="none" stroke="#000000" points="303,-319.7 303,-341.7 477,-341.7 477,-319.7 303,-319.7"/>
<image xlink:href="../../images/primaryKeys.png" width="11px" height="12px" preserveAspectRatio="xMinYMin meet" x="308" y="-336.7"/>
<text text-anchor="start" x="323" y="-326.8" font-family="Helvetica,sans-Serif" font-size="11.00" fill="#000000">id</text>
<polygon fill="#ffffff" stroke="transparent" points="303,-297.7 303,-319.7 477,-319.7 477,-297.7 303,-297.7"/>
<polygon fill="none" stroke="#000000" points="303,-297.7 303,-319.7 477,-319.7 477,-297.7 303,-297.7"/>
<image xlink:href="../../images/foreignKeys.png" width="11px" height="12px" preserveAspectRatio="xMinYMin meet" x="308" y="-314.7"/>
<text text-anchor="start" x="323" y="-304.8" font-family="Helvetica,sans-Serif" font-size="11.00" fill="#000000">gyms_has_users_gyms_id</text>
<polygon fill="#ffffff" stroke="transparent" points="303,-275.7 303,-297.7 477,-297.7 477,-275.7 303,-275.7"/>
<polygon fill="none" stroke="#000000" points="303,-275.7 303,-297.7 477,-297.7 477,-275.7 303,-275.7"/>
<image xlink:href="../../images/foreignKeys.png" width="11px" height="12px" preserveAspectRatio="xMinYMin meet" x="308" y="-292.7"/>
<text text-anchor="start" x="323" y="-282.8" font-family="Helvetica,sans-Serif" font-size="11.00" fill="#000000">gyms_has_users_users_id</text>
<polygon fill="none" stroke="#000000" points="303,-256.7 303,-275.7 477,-275.7 477,-256.7 303,-256.7"/>
<text text-anchor="start" x="306" y="-262.8" font-family="Helvetica,sans-Serif" font-size="11.00" fill="#000000">...</text>
<polygon fill="#ffffff" stroke="transparent" points="303,-237.7 303,-256.7 371,-256.7 371,-237.7 303,-237.7"/>
<polygon fill="none" stroke="#000000" points="303,-237.7 303,-256.7 371,-256.7 371,-237.7 303,-237.7"/>
<text text-anchor="start" x="306" y="-243.8" font-family="Helvetica,sans-Serif" font-size="11.00" fill="#000000">&lt; 2</text>
<polygon fill="#ffffff" stroke="transparent" points="371,-237.7 371,-256.7 432,-256.7 432,-237.7 371,-237.7"/>
<polygon fill="none" stroke="#000000" points="371,-237.7 371,-256.7 432,-256.7 432,-237.7 371,-237.7"/>
<text text-anchor="start" x="396.6105" y="-243.8" font-family="Helvetica,sans-Serif" font-size="11.00" fill="#000000">0 rows</text>
<polygon fill="#ffffff" stroke="transparent" points="432,-237.7 432,-256.7 477,-256.7 477,-237.7 432,-237.7"/>
<polygon fill="none" stroke="#000000" points="432,-237.7 432,-256.7 477,-256.7 477,-237.7 432,-237.7"/>
<text text-anchor="start" x="458.4053" y="-243.8" font-family="Helvetica,sans-Serif" font-size="11.00" fill="#000000">3 &gt;</text>
</a>
</g>
</g>
<!-- completed_challenges&#45;&gt;gymnasts -->
<g id="edge4" class="edge">
<title>completed_challenges:w&#45;&gt;gymnasts:e</title>
<path fill="none" stroke="#000000" d="M513.7444,-310.0371C501.2013,-316.6316 496.1797,-330.7 477,-330.7"/>
<polygon fill="#000000" stroke="#000000" points="520.2106,-308.5235 528.8206,-310.2052 524.1053,-307.6117 528,-306.7 528,-306.7 528,-306.7 524.1053,-307.6117 527.1794,-303.1948 520.2106,-308.5235 520.2106,-308.5235"/>
<ellipse fill="none" stroke="#000000" cx="517.0948" cy="-309.2529" rx="3.2" ry="3.2"/>
</g>
<!-- gyms_has_users -->
<g id="node7" class="node">
<title>gyms_has_users</title>
<g id="a_node7"><a xlink:href="../../tables/gyms_has_users.html" xlink:title="gyms_has_users" target="_top">
<polygon fill="#ffffff" stroke="transparent" points="128,-259.2 128,-320.2 254,-320.2 254,-259.2 128,-259.2"/>
<polygon fill="#f5f5f5" stroke="transparent" points="128,-296.7 128,-319.7 254,-319.7 254,-296.7 128,-296.7"/>
<polygon fill="none" stroke="#000000" points="128,-296.7 128,-319.7 254,-319.7 254,-296.7 128,-296.7"/>
<text text-anchor="start" x="132.936" y="-305.8" font-family="Helvetica,sans-Serif" font-weight="bold" font-size="11.00" fill="#000000">gyms_has_users</text>
<text text-anchor="start" x="219.5219" y="-304.8" font-family="Helvetica,sans-Serif" font-size="11.00" fill="#000000">[table]</text>
<polygon fill="none" stroke="#000000" points="128,-277.7 128,-296.7 254,-296.7 254,-277.7 128,-277.7"/>
<text text-anchor="start" x="131" y="-283.8" font-family="Helvetica,sans-Serif" font-size="11.00" fill="#000000">...</text>
<polygon fill="#ffffff" stroke="transparent" points="128,-258.7 128,-277.7 172,-277.7 172,-258.7 128,-258.7"/>
<polygon fill="none" stroke="#000000" points="128,-258.7 128,-277.7 172,-277.7 172,-258.7 128,-258.7"/>
<text text-anchor="start" x="131" y="-264.8" font-family="Helvetica,sans-Serif" font-size="11.00" fill="#000000">&lt; 2</text>
<polygon fill="#ffffff" stroke="transparent" points="172,-258.7 172,-277.7 221,-277.7 221,-258.7 172,-258.7"/>
<polygon fill="none" stroke="#000000" points="172,-258.7 172,-277.7 221,-277.7 221,-258.7 172,-258.7"/>
<text text-anchor="start" x="185.6105" y="-264.8" font-family="Helvetica,sans-Serif" font-size="11.00" fill="#000000">0 rows</text>
<polygon fill="#ffffff" stroke="transparent" points="221,-258.7 221,-277.7 254,-277.7 254,-258.7 221,-258.7"/>
<polygon fill="none" stroke="#000000" points="221,-258.7 221,-277.7 254,-277.7 254,-258.7 221,-258.7"/>
<text text-anchor="start" x="235.4053" y="-264.8" font-family="Helvetica,sans-Serif" font-size="11.00" fill="#000000">2 &gt;</text>
</a>
</g>
</g>
<!-- gymnasts&#45;&gt;gyms_has_users -->
<g id="edge6" class="edge">
<title>gymnasts:w&#45;&gt;gyms_has_users:e</title>
<path fill="none" stroke="#000000" d="M288.6297,-305.2625C277.0865,-299.075 271.9041,-286.7 254,-286.7"/>
<polygon fill="#000000" stroke="#000000" points="295.2195,-306.8388 302.1625,-312.2012 299.1098,-307.7694 303,-308.7 303,-308.7 303,-308.7 299.1098,-307.7694 303.8375,-305.1988 295.2195,-306.8388 295.2195,-306.8388"/>
<ellipse fill="none" stroke="#000000" cx="292.1073" cy="-306.0943" rx="3.2" ry="3.2"/>
</g>
<!-- gymnasts&#45;&gt;gyms_has_users -->
<g id="edge7" class="edge">
<title>gymnasts:w&#45;&gt;gyms_has_users:e</title>
<path fill="none" stroke="#000000" d="M288.4909,-286.7C277.1774,-286.7 269.9931,-286.7 254,-286.7"/>
<polygon fill="#000000" stroke="#000000" points="295,-286.7001 303,-290.3 299,-286.7 303,-286.7 303,-286.7 303,-286.7 299,-286.7 303,-283.1 295,-286.7001 295,-286.7001"/>
<ellipse fill="none" stroke="#000000" cx="291.8" cy="-286.7001" rx="3.2" ry="3.2"/>
</g>
<!-- gymnast_has_skills -->
<g id="node6" class="node">
<title>gymnast_has_skills</title>
<g id="a_node6"><a xlink:href="../../tables/gymnast_has_skills.html" xlink:title="gymnast_has_skills" target="_top">
<polygon fill="#ffffff" stroke="transparent" points="571,-386.2 571,-447.2 709,-447.2 709,-386.2 571,-386.2"/>
<polygon fill="#f5f5f5" stroke="transparent" points="571,-423.7 571,-446.7 709,-446.7 709,-423.7 571,-423.7"/>
<polygon fill="none" stroke="#000000" points="571,-423.7 571,-446.7 709,-446.7 709,-423.7 571,-423.7"/>
<text text-anchor="start" x="575.8271" y="-432.8" font-family="Helvetica,sans-Serif" font-weight="bold" font-size="11.00" fill="#000000">gymnast_has_skills</text>
<text text-anchor="start" x="674.5219" y="-431.8" font-family="Helvetica,sans-Serif" font-size="11.00" fill="#000000">[table]</text>
<polygon fill="none" stroke="#000000" points="571,-404.7 571,-423.7 709,-423.7 709,-404.7 571,-404.7"/>
<text text-anchor="start" x="574" y="-410.8" font-family="Helvetica,sans-Serif" font-size="11.00" fill="#000000">...</text>
<polygon fill="#ffffff" stroke="transparent" points="571,-385.7 571,-404.7 625,-404.7 625,-385.7 571,-385.7"/>
<polygon fill="none" stroke="#000000" points="571,-385.7 571,-404.7 625,-404.7 625,-385.7 571,-385.7"/>
<text text-anchor="start" x="574" y="-391.8" font-family="Helvetica,sans-Serif" font-size="11.00" fill="#000000">&lt; 2</text>
<polygon fill="#ffffff" stroke="transparent" points="625,-385.7 625,-404.7 680,-404.7 680,-385.7 625,-385.7"/>
<polygon fill="none" stroke="#000000" points="625,-385.7 625,-404.7 680,-404.7 680,-385.7 625,-385.7"/>
<text text-anchor="start" x="644.6105" y="-391.8" font-family="Helvetica,sans-Serif" font-size="11.00" fill="#000000">0 rows</text>
<polygon fill="#ffffff" stroke="transparent" points="680,-385.7 680,-404.7 709,-404.7 709,-385.7 680,-385.7"/>
<polygon fill="none" stroke="#000000" points="680,-385.7 680,-404.7 709,-404.7 709,-385.7 680,-385.7"/>
<text text-anchor="start" x="699.8862" y="-391.8" font-family="Helvetica,sans-Serif" font-size="11.00" fill="#000000"> &#160;</text>
</a>
</g>
</g>
<!-- gymnast_has_skills&#45;&gt;gymnasts -->
<g id="edge5" class="edge">
<title>gymnast_has_skills:w&#45;&gt;gymnasts:e</title>
<path fill="none" stroke="#000000" d="M556.7219,-411.6914C540.3581,-406.3608 535.4273,-391.2007 518,-375.7 497.7834,-357.7184 504.0564,-330.7 477,-330.7"/>
<polygon fill="#000000" stroke="#000000" points="563.078,-412.5855 570.4985,-417.2649 567.039,-413.1428 571,-413.7 571,-413.7 571,-413.7 567.039,-413.1428 571.5015,-410.1351 563.078,-412.5855 563.078,-412.5855"/>
<ellipse fill="none" stroke="#000000" cx="559.9092" cy="-412.1397" rx="3.2" ry="3.2"/>
</g>
<!-- gyms_has_users&#45;&gt;gyms -->
<g id="edge10" class="edge">
<title>gyms_has_users:w&#45;&gt;gyms:e</title>
<path fill="none" stroke="#000000" d="M113.9419,-281.9936C101.8624,-272.2354 100.2628,-250.7 79.5,-250.7"/>
<polygon fill="#000000" stroke="#000000" points="120.4138,-284.1603 126.8571,-290.1138 124.2069,-285.4301 128,-286.7 128,-286.7 128,-286.7 124.2069,-285.4301 129.1429,-283.2862 120.4138,-284.1603 120.4138,-284.1603"/>
<ellipse fill="none" stroke="#000000" cx="117.3794" cy="-283.1444" rx="3.2" ry="3.2"/>
</g>
<!-- gymnasts_has_classes -->
<g id="node8" class="node">
<title>gymnasts_has_classes</title>
<g id="a_node8"><a xlink:href="../../tables/gymnasts_has_classes.html" xlink:title="gymnasts_has_classes" target="_top">
<polygon fill="#ffffff" stroke="transparent" points="562,-38.2 562,-99.2 718,-99.2 718,-38.2 562,-38.2"/>
<polygon fill="#f5f5f5" stroke="transparent" points="562,-75.7 562,-98.7 718,-98.7 718,-75.7 562,-75.7"/>
<polygon fill="none" stroke="#000000" points="562,-75.7 562,-98.7 718,-98.7 718,-75.7 562,-75.7"/>
<text text-anchor="start" x="566.6531" y="-84.8" font-family="Helvetica,sans-Serif" font-weight="bold" font-size="11.00" fill="#000000">gymnasts_has_classes</text>
<text text-anchor="start" x="683.5219" y="-83.8" font-family="Helvetica,sans-Serif" font-size="11.00" fill="#000000">[table]</text>
<polygon fill="none" stroke="#000000" points="562,-56.7 562,-75.7 718,-75.7 718,-56.7 562,-56.7"/>
<text text-anchor="start" x="565" y="-62.8" font-family="Helvetica,sans-Serif" font-size="11.00" fill="#000000">...</text>
<polygon fill="#ffffff" stroke="transparent" points="562,-37.7 562,-56.7 625,-56.7 625,-37.7 562,-37.7"/>
<polygon fill="none" stroke="#000000" points="562,-37.7 562,-56.7 625,-56.7 625,-37.7 562,-37.7"/>
<text text-anchor="start" x="565" y="-43.8" font-family="Helvetica,sans-Serif" font-size="11.00" fill="#000000">&lt; 2</text>
<polygon fill="#ffffff" stroke="transparent" points="625,-37.7 625,-56.7 684,-56.7 684,-37.7 625,-37.7"/>
<polygon fill="none" stroke="#000000" points="625,-37.7 625,-56.7 684,-56.7 684,-37.7 625,-37.7"/>
<text text-anchor="start" x="648.6105" y="-43.8" font-family="Helvetica,sans-Serif" font-size="11.00" fill="#000000">0 rows</text>
<polygon fill="#ffffff" stroke="transparent" points="684,-37.7 684,-56.7 718,-56.7 718,-37.7 684,-37.7"/>
<polygon fill="none" stroke="#000000" points="684,-37.7 684,-56.7 718,-56.7 718,-37.7 684,-37.7"/>
<text text-anchor="start" x="708.8862" y="-43.8" font-family="Helvetica,sans-Serif" font-size="11.00" fill="#000000"> &#160;</text>
</a>
</g>
</g>
<!-- gymnasts_has_classes&#45;&gt;classes -->
<g id="edge8" class="edge">
<title>gymnasts_has_classes:w&#45;&gt;classes:e</title>
<path fill="none" stroke="#000000" d="M547.4705,-65.6183C440.2319,-64.4115 405.0714,-50.6522 295,-79.7 264.2509,-87.8147 262.8019,-111.7 231,-111.7"/>
<polygon fill="#000000" stroke="#000000" points="554.0001,-65.655 561.9797,-69.2999 558.0001,-65.6775 562,-65.7 562,-65.7 562,-65.7 558.0001,-65.6775 562.0203,-62.1001 554.0001,-65.655 554.0001,-65.655"/>
<ellipse fill="none" stroke="#000000" cx="550.8002" cy="-65.637" rx="3.2" ry="3.2"/>
</g>
<!-- gymnasts_has_classes&#45;&gt;gymnasts -->
<g id="edge9" class="edge">
<title>gymnasts_has_classes:w&#45;&gt;gymnasts:e</title>
<path fill="none" stroke="#000000" d="M547.4128,-68.1696C532.4635,-74.1577 528.1624,-90.3886 518,-109.7 494.7391,-153.9023 526.9491,-330.7 477,-330.7"/>
<polygon fill="#000000" stroke="#000000" points="554.1122,-67.0354 562.6009,-69.2495 558.0561,-66.3677 562,-65.7 562,-65.7 562,-65.7 558.0561,-66.3677 561.3991,-62.1505 554.1122,-67.0354 554.1122,-67.0354"/>
<ellipse fill="none" stroke="#000000" cx="550.9571" cy="-67.5696" rx="3.2" ry="3.2"/>
</g>
</g>
</svg>
