<?xml version="1.0" encoding="UTF-8" standalone="no"?>
<!DOCTYPE svg PUBLIC "-//W3C//DTD SVG 1.1//EN"
 "http://www.w3.org/Graphics/SVG/1.1/DTD/svg11.dtd">
<!-- Generated by graphviz version 2.40.1 (20161225.0304)
 -->
<!-- Title: oneDegreeRelationshipsDiagram Pages: 1 -->
<svg width="515pt" height="353pt"
 viewBox="0.00 0.00 515.00 352.70" xmlns="http://www.w3.org/2000/svg" xmlns:xlink="http://www.w3.org/1999/xlink">
<g id="graph0" class="graph" transform="scale(1 1) rotate(0) translate(4 348.7)">
<title>oneDegreeRelationshipsDiagram</title>
<polygon fill="#ffffff" stroke="transparent" points="-4,4 -4,-348.7 511,-348.7 511,4 -4,4"/>
<text text-anchor="middle" x="72.4936" y="-7.3" font-family="Helvetica,sans-Serif" font-size="11.00" fill="#000000">Generated by SchemaSpy</text>
<!-- completed_daily_challenges -->
<g id="node1" class="node">
<title>completed_daily_challenges</title>
<g id="a_node1"><a xlink:href="../../tables/completed_daily_challenges.html" xlink:title="completed_daily_challenges" target="_top">
<polygon fill="#ffffff" stroke="transparent" points="231,-38.2 231,-216.2 499,-216.2 499,-38.2 231,-38.2"/>
<polygon fill="#f5f5f5" stroke="transparent" points="233,-191.2 233,-214.2 497,-214.2 497,-191.2 233,-191.2"/>
<polygon fill="none" stroke="#000000" points="233,-191.2 233,-214.2 497,-214.2 497,-191.2 233,-191.2"/>
<text text-anchor="start" x="238" y="-200.3" font-family="Helvetica,sans-Serif" font-weight="bold" font-size="11.00" fill="#000000">completed_daily_challenges</text>
<text text-anchor="start" x="462.0437" y="-199.3" font-family="Helvetica,sans-Serif" font-size="11.00" fill="#000000">[table]</text>
<polygon fill="none" stroke="#000000" points="233,-169.2 233,-191.2 436,-191.2 436,-169.2 233,-169.2"/>
<image xlink:href="../../images/primaryKeys.png" width="11px" height="12px" preserveAspectRatio="xMinYMin meet" x="238" y="-186.2"/>
<text text-anchor="start" x="253" y="-176.3" font-family="Helvetica,sans-Serif" font-size="11.00" fill="#000000">gymnasts_id</text>
<polygon fill="none" stroke="#000000" points="436,-169.2 436,-191.2 497,-191.2 497,-169.2 436,-169.2"/>
<text text-anchor="start" x="439" y="-176.9" font-family="Helvetica,sans-Serif" font-size="11.00" fill="#000000">int[10]</text>
<polygon fill="none" stroke="#000000" points="233,-147.2 233,-169.2 436,-169.2 436,-147.2 233,-147.2"/>
<image xlink:href="../../images/primaryKeys.png" width="11px" height="12px" preserveAspectRatio="xMinYMin meet" x="238" y="-164.2"/>
<text text-anchor="start" x="253" y="-154.3" font-family="Helvetica,sans-Serif" font-size="11.00" fill="#000000">daily_challenges_classes_id</text>
<polygon fill="none" stroke="#000000" points="436,-147.2 436,-169.2 497,-169.2 497,-147.2 436,-147.2"/>
<text text-anchor="start" x="439" y="-154.9" font-family="Helvetica,sans-Serif" font-size="11.00" fill="#000000">int[10]</text>
<polygon fill="none" stroke="#000000" points="233,-125.2 233,-147.2 436,-147.2 436,-125.2 233,-125.2"/>
<image xlink:href="../../images/primaryKeys.png" width="11px" height="12px" preserveAspectRatio="xMinYMin meet" x="238" y="-142.2"/>
<text text-anchor="start" x="253" y="-132.3" font-family="Helvetica,sans-Serif" font-size="11.00" fill="#000000">daily_challenges_challenges_id</text>
<polygon fill="none" stroke="#000000" points="436,-125.2 436,-147.2 497,-147.2 497,-125.2 436,-125.2"/>
<text text-anchor="start" x="439" y="-132.9" font-family="Helvetica,sans-Serif" font-size="11.00" fill="#000000">int[10]</text>
<polygon fill="none" stroke="#000000" points="233,-103.2 233,-125.2 436,-125.2 436,-103.2 233,-103.2"/>
<image xlink:href="../../images/primaryKeys.png" width="11px" height="12px" preserveAspectRatio="xMinYMin meet" x="238" y="-120.2"/>
<text text-anchor="start" x="253" y="-110.3" font-family="Helvetica,sans-Serif" font-size="11.00" fill="#000000">daily_challenges_date</text>
<polygon fill="none" stroke="#000000" points="436,-103.2 436,-125.2 497,-125.2 497,-103.2 436,-103.2"/>
<text text-anchor="start" x="439" y="-110.9" font-family="Helvetica,sans-Serif" font-size="11.00" fill="#000000">date[10]</text>
<polygon fill="none" stroke="#000000" points="233,-81.2 233,-103.2 436,-103.2 436,-81.2 233,-81.2"/>
<text text-anchor="start" x="253" y="-88.3" font-family="Helvetica,sans-Serif" font-size="11.00" fill="#000000">date_of_completation</text>
<polygon fill="none" stroke="#000000" points="436,-81.2 436,-103.2 497,-103.2 497,-81.2 436,-81.2"/>
<text text-anchor="start" x="439" y="-88.9" font-family="Helvetica,sans-Serif" font-size="11.00" fill="#000000">date[10]</text>
<polygon fill="none" stroke="#000000" points="233,-59.2 233,-81.2 436,-81.2 436,-59.2 233,-59.2"/>
<text text-anchor="start" x="253" y="-66.3" font-family="Helvetica,sans-Serif" font-size="11.00" fill="#000000">Interactions</text>
<polygon fill="none" stroke="#000000" points="436,-59.2 436,-81.2 497,-81.2 497,-59.2 436,-59.2"/>
<text text-anchor="start" x="438.994" y="-66.9" font-family="Helvetica,sans-Serif" font-size="11.00" fill="#000000">varchar[45]</text>
<polygon fill="#ffffff" stroke="transparent" points="233,-40.2 233,-59.2 326,-59.2 326,-40.2 233,-40.2"/>
<polygon fill="none" stroke="#000000" points="233,-40.2 233,-59.2 326,-59.2 326,-40.2 233,-40.2"/>
<text text-anchor="start" x="236" y="-46.3" font-family="Helvetica,sans-Serif" font-size="11.00" fill="#000000">&lt; 4</text>
<polygon fill="#ffffff" stroke="transparent" points="326,-40.2 326,-59.2 436,-59.2 436,-40.2 326,-40.2"/>
<polygon fill="none" stroke="#000000" points="326,-40.2 326,-59.2 436,-59.2 436,-40.2 326,-40.2"/>
<text text-anchor="start" x="400.6105" y="-46.3" font-family="Helvetica,sans-Serif" font-size="11.00" fill="#000000">0 rows</text>
<polygon fill="#ffffff" stroke="transparent" points="436,-40.2 436,-59.2 497,-59.2 497,-40.2 436,-40.2"/>
<polygon fill="none" stroke="#000000" points="436,-40.2 436,-59.2 497,-59.2 497,-40.2 436,-40.2"/>
<text text-anchor="start" x="478.4053" y="-46.3" font-family="Helvetica,sans-Serif" font-size="11.00" fill="#000000">0 &gt;</text>
<polygon fill="none" stroke="#000000" stroke-width="2" points="232,-39.2 232,-215.2 498,-215.2 498,-39.2 232,-39.2"/>
</a>
</g>
</g>
<!-- daily_challenges -->
<g id="node2" class="node">
<title>daily_challenges</title>
<g id="a_node2"><a xlink:href="../../tables/daily_challenges.html" xlink:title="daily_challenges" target="_top">
<polygon fill="#ffffff" stroke="transparent" points="33,-84.2 33,-192.2 157,-192.2 157,-84.2 33,-84.2"/>
<polygon fill="#f5f5f5" stroke="transparent" points="33,-169.2 33,-192.2 157,-192.2 157,-169.2 33,-169.2"/>
<polygon fill="none" stroke="#000000" points="33,-169.2 33,-192.2 157,-192.2 157,-169.2 33,-169.2"/>
<text text-anchor="start" x="37.8511" y="-178.3" font-family="Helvetica,sans-Serif" font-weight="bold" font-size="11.00" fill="#000000">daily_challenges</text>
<text text-anchor="start" x="122.5219" y="-177.3" font-family="Helvetica,sans-Serif" font-size="11.00" fill="#000000">[table]</text>
<polygon fill="none" stroke="#000000" points="33,-147.2 33,-169.2 157,-169.2 157,-147.2 33,-147.2"/>
<image xlink:href="../../images/primaryKeys.png" width="11px" height="12px" preserveAspectRatio="xMinYMin meet" x="38" y="-164.2"/>
<text text-anchor="start" x="57" y="-154.3" font-family="Helvetica,sans-Serif" font-size="11.00" fill="#000000">classes_id</text>
<polygon fill="none" stroke="#000000" points="33,-125.2 33,-147.2 157,-147.2 157,-125.2 33,-125.2"/>
<image xlink:href="../../images/primaryKeys.png" width="11px" height="12px" preserveAspectRatio="xMinYMin meet" x="38" y="-142.2"/>
<text text-anchor="start" x="57" y="-132.3" font-family="Helvetica,sans-Serif" font-size="11.00" fill="#000000">challenges_id</text>
<polygon fill="none" stroke="#000000" points="33,-103.2 33,-125.2 157,-125.2 157,-103.2 33,-103.2"/>
<image xlink:href="../../images/primaryKeys.png" width="11px" height="12px" preserveAspectRatio="xMinYMin meet" x="38" y="-120.2"/>
<text text-anchor="start" x="57" y="-110.3" font-family="Helvetica,sans-Serif" font-size="11.00" fill="#000000">date</text>
<polygon fill="#ffffff" stroke="transparent" points="33,-84.2 33,-103.2 76,-103.2 76,-84.2 33,-84.2"/>
<polygon fill="none" stroke="#000000" points="33,-84.2 33,-103.2 76,-103.2 76,-84.2 33,-84.2"/>
<text text-anchor="start" x="36" y="-90.3" font-family="Helvetica,sans-Serif" font-size="11.00" fill="#000000">&lt; 2</text>
<polygon fill="#ffffff" stroke="transparent" points="76,-84.2 76,-103.2 125,-103.2 125,-84.2 76,-84.2"/>
<polygon fill="none" stroke="#000000" points="76,-84.2 76,-103.2 125,-103.2 125,-84.2 76,-84.2"/>
<text text-anchor="start" x="89.6105" y="-90.3" font-family="Helvetica,sans-Serif" font-size="11.00" fill="#000000">0 rows</text>
<polygon fill="#ffffff" stroke="transparent" points="125,-84.2 125,-103.2 157,-103.2 157,-84.2 125,-84.2"/>
<polygon fill="none" stroke="#000000" points="125,-84.2 125,-103.2 157,-103.2 157,-84.2 125,-84.2"/>
<text text-anchor="start" x="138.4053" y="-90.3" font-family="Helvetica,sans-Serif" font-size="11.00" fill="#000000">3 &gt;</text>
</a>
</g>
</g>
<!-- completed_daily_challenges&#45;&gt;daily_challenges -->
<g id="edge1" class="edge">
<title>completed_daily_challenges:w&#45;&gt;daily_challenges:e</title>
<path fill="none" stroke="#000000" d="M218.5121,-136.2C195.8676,-136.2 185.3681,-136.2 157,-136.2"/>
<polygon fill="#000000" stroke="#000000" points="225,-136.2001 233,-139.8 229,-136.2 233,-136.2 233,-136.2 233,-136.2 229,-136.2 233,-132.6 225,-136.2001 225,-136.2001"/>
<ellipse fill="none" stroke="#000000" cx="221.8" cy="-136.2001" rx="3.2" ry="3.2"/>
</g>
<!-- completed_daily_challenges&#45;&gt;daily_challenges -->
<g id="edge2" class="edge">
<title>completed_daily_challenges:w&#45;&gt;daily_challenges:e</title>
<path fill="none" stroke="#000000" d="M218.5121,-158.2C195.8676,-158.2 185.3681,-158.2 157,-158.2"/>
<polygon fill="#000000" stroke="#000000" points="225,-158.2001 233,-161.8 229,-158.2 233,-158.2 233,-158.2 233,-158.2 229,-158.2 233,-154.6 225,-158.2001 225,-158.2001"/>
<ellipse fill="none" stroke="#000000" cx="221.8" cy="-158.2001" rx="3.2" ry="3.2"/>
</g>
<!-- completed_daily_challenges&#45;&gt;daily_challenges -->
<g id="edge3" class="edge">
<title>completed_daily_challenges:w&#45;&gt;daily_challenges:e</title>
<path fill="none" stroke="#000000" d="M218.5121,-114.2C195.8676,-114.2 185.3681,-114.2 157,-114.2"/>
<polygon fill="#000000" stroke="#000000" points="225,-114.2001 233,-117.8 229,-114.2 233,-114.2 233,-114.2 233,-114.2 229,-114.2 233,-110.6 225,-114.2001 225,-114.2001"/>
<ellipse fill="none" stroke="#000000" cx="221.8" cy="-114.2001" rx="3.2" ry="3.2"/>
</g>
<!-- gymnasts -->
<g id="node3" class="node">
<title>gymnasts</title>
<g id="a_node3"><a xlink:href="../../tables/gymnasts.html" xlink:title="gymnasts" target="_top">
<polygon fill="#ffffff" stroke="transparent" points="8,-213.7 8,-340.7 182,-340.7 182,-213.7 8,-213.7"/>
<polygon fill="#f5f5f5" stroke="transparent" points="8,-317.2 8,-340.2 182,-340.2 182,-317.2 8,-317.2"/>
<polygon fill="none" stroke="#000000" points="8,-317.2 8,-340.2 182,-340.2 182,-317.2 8,-317.2"/>
<text text-anchor="start" x="13" y="-326.3" font-family="Helvetica,sans-Serif" font-weight="bold" font-size="11.00" fill="#000000">gymnasts</text>
<text text-anchor="start" x="147.0437" y="-325.3" font-family="Helvetica,sans-Serif" font-size="11.00" fill="#000000">[table]</text>
<polygon fill="none" stroke="#000000" points="8,-295.2 8,-317.2 182,-317.2 182,-295.2 8,-295.2"/>
<image xlink:href="../../images/primaryKeys.png" width="11px" height="12px" preserveAspectRatio="xMinYMin meet" x="13" y="-312.2"/>
<text text-anchor="start" x="28" y="-302.3" font-family="Helvetica,sans-Serif" font-size="11.00" fill="#000000">id</text>
<polygon fill="#ffffff" stroke="transparent" points="8,-273.2 8,-295.2 182,-295.2 182,-273.2 8,-273.2"/>
<polygon fill="none" stroke="#000000" points="8,-273.2 8,-295.2 182,-295.2 182,-273.2 8,-273.2"/>
<image xlink:href="../../images/foreignKeys.png" width="11px" height="12px" preserveAspectRatio="xMinYMin meet" x="13" y="-290.2"/>
<text text-anchor="start" x="28" y="-280.3" font-family="Helvetica,sans-Serif" font-size="11.00" fill="#000000">gyms_has_users_gyms_id</text>
<polygon fill="#ffffff" stroke="transparent" points="8,-251.2 8,-273.2 182,-273.2 182,-251.2 8,-251.2"/>
<polygon fill="none" stroke="#000000" points="8,-251.2 8,-273.2 182,-273.2 182,-251.2 8,-251.2"/>
<image xlink:href="../../images/foreignKeys.png" width="11px" height="12px" preserveAspectRatio="xMinYMin meet" x="13" y="-268.2"/>
<text text-anchor="start" x="28" y="-258.3" font-family="Helvetica,sans-Serif" font-size="11.00" fill="#000000">gyms_has_users_users_id</text>
<polygon fill="none" stroke="#000000" points="8,-232.2 8,-251.2 182,-251.2 182,-232.2 8,-232.2"/>
<text text-anchor="start" x="11" y="-238.3" font-family="Helvetica,sans-Serif" font-size="11.00" fill="#000000">...</text>
<polygon fill="#ffffff" stroke="transparent" points="8,-213.2 8,-232.2 76,-232.2 76,-213.2 8,-213.2"/>
<polygon fill="none" stroke="#000000" points="8,-213.2 8,-232.2 76,-232.2 76,-213.2 8,-213.2"/>
<text text-anchor="start" x="11" y="-219.3" font-family="Helvetica,sans-Serif" font-size="11.00" fill="#000000">&lt; 2</text>
<polygon fill="#ffffff" stroke="transparent" points="76,-213.2 76,-232.2 137,-232.2 137,-213.2 76,-213.2"/>
<polygon fill="none" stroke="#000000" points="76,-213.2 76,-232.2 137,-232.2 137,-213.2 76,-213.2"/>
<text text-anchor="start" x="101.6105" y="-219.3" font-family="Helvetica,sans-Serif" font-size="11.00" fill="#000000">0 rows</text>
<polygon fill="#ffffff" stroke="transparent" points="137,-213.2 137,-232.2 182,-232.2 182,-213.2 137,-213.2"/>
<polygon fill="none" stroke="#000000" points="137,-213.2 137,-232.2 182,-232.2 182,-213.2 137,-213.2"/>
<text text-anchor="start" x="163.4053" y="-219.3" font-family="Helvetica,sans-Serif" font-size="11.00" fill="#000000">4 &gt;</text>
</a>
</g>
</g>
<!-- completed_daily_challenges&#45;&gt;gymnasts -->
<g id="edge4" class="edge">
<title>completed_daily_challenges:w&#45;&gt;gymnasts:e</title>
<path fill="none" stroke="#000000" d="M218.7844,-183.5702C184.9826,-203.6077 236.5136,-306.2 182,-306.2"/>
<polygon fill="#000000" stroke="#000000" points="225.2158,-182.0455 233.8305,-183.7029 229.1079,-181.1228 233,-180.2 233,-180.2 233,-180.2 229.1079,-181.1228 232.1695,-176.6971 225.2158,-182.0455 225.2158,-182.0455"/>
<ellipse fill="none" stroke="#000000" cx="222.1021" cy="-182.7837" rx="3.2" ry="3.2"/>
</g>
</g>
</svg>
