<?xml version="1.0" encoding="UTF-8" standalone="no"?>
<!DOCTYPE svg PUBLIC "-//W3C//DTD SVG 1.1//EN"
 "http://www.w3.org/Graphics/SVG/1.1/DTD/svg11.dtd">
<!-- Generated by graphviz version 2.40.1 (20161225.0304)
 -->
<!-- Title: twoDegreesRelationshipsDiagram Pages: 1 -->
<svg width="690pt" height="475pt"
 viewBox="0.00 0.00 690.00 474.70" xmlns="http://www.w3.org/2000/svg" xmlns:xlink="http://www.w3.org/1999/xlink">
<g id="graph0" class="graph" transform="scale(1 1) rotate(0) translate(4 470.7)">
<title>twoDegreesRelationshipsDiagram</title>
<polygon fill="#ffffff" stroke="transparent" points="-4,4 -4,-470.7 686,-470.7 686,4 -4,4"/>
<text text-anchor="middle" x="72.4936" y="-7.3" font-family="Helvetica,sans-Serif" font-size="11.00" fill="#000000">Generated by SchemaSpy</text>
<!-- completed_daily_challenges -->
<g id="node1" class="node">
<title>completed_daily_challenges</title>
<g id="a_node1"><a xlink:href="../../tables/completed_daily_challenges.html" xlink:title="completed_daily_challenges" target="_top">
<polygon fill="#ffffff" stroke="transparent" points="406,-284.7 406,-462.7 674,-462.7 674,-284.7 406,-284.7"/>
<polygon fill="#f5f5f5" stroke="transparent" points="408,-437.7 408,-460.7 672,-460.7 672,-437.7 408,-437.7"/>
<polygon fill="none" stroke="#000000" points="408,-437.7 408,-460.7 672,-460.7 672,-437.7 408,-437.7"/>
<text text-anchor="start" x="413" y="-446.8" font-family="Helvetica,sans-Serif" font-weight="bold" font-size="11.00" fill="#000000">completed_daily_challenges</text>
<text text-anchor="start" x="637.0437" y="-445.8" font-family="Helvetica,sans-Serif" font-size="11.00" fill="#000000">[table]</text>
<polygon fill="none" stroke="#000000" points="408,-415.7 408,-437.7 611,-437.7 611,-415.7 408,-415.7"/>
<image xlink:href="../../images/primaryKeys.png" width="11px" height="12px" preserveAspectRatio="xMinYMin meet" x="413" y="-432.7"/>
<text text-anchor="start" x="428" y="-422.8" font-family="Helvetica,sans-Serif" font-size="11.00" fill="#000000">gymnasts_id</text>
<polygon fill="none" stroke="#000000" points="611,-415.7 611,-437.7 672,-437.7 672,-415.7 611,-415.7"/>
<text text-anchor="start" x="614" y="-423.4" font-family="Helvetica,sans-Serif" font-size="11.00" fill="#000000">int[10]</text>
<polygon fill="none" stroke="#000000" points="408,-393.7 408,-415.7 611,-415.7 611,-393.7 408,-393.7"/>
<image xlink:href="../../images/primaryKeys.png" width="11px" height="12px" preserveAspectRatio="xMinYMin meet" x="413" y="-410.7"/>
<text text-anchor="start" x="428" y="-400.8" font-family="Helvetica,sans-Serif" font-size="11.00" fill="#000000">daily_challenges_classes_id</text>
<polygon fill="none" stroke="#000000" points="611,-393.7 611,-415.7 672,-415.7 672,-393.7 611,-393.7"/>
<text text-anchor="start" x="614" y="-401.4" font-family="Helvetica,sans-Serif" font-size="11.00" fill="#000000">int[10]</text>
<polygon fill="none" stroke="#000000" points="408,-371.7 408,-393.7 611,-393.7 611,-371.7 408,-371.7"/>
<image xlink:href="../../images/primaryKeys.png" width="11px" height="12px" preserveAspectRatio="xMinYMin meet" x="413" y="-388.7"/>
<text text-anchor="start" x="428" y="-378.8" font-family="Helvetica,sans-Serif" font-size="11.00" fill="#000000">daily_challenges_challenges_id</text>
<polygon fill="none" stroke="#000000" points="611,-371.7 611,-393.7 672,-393.7 672,-371.7 611,-371.7"/>
<text text-anchor="start" x="614" y="-379.4" font-family="Helvetica,sans-Serif" font-size="11.00" fill="#000000">int[10]</text>
<polygon fill="none" stroke="#000000" points="408,-349.7 408,-371.7 611,-371.7 611,-349.7 408,-349.7"/>
<image xlink:href="../../images/primaryKeys.png" width="11px" height="12px" preserveAspectRatio="xMinYMin meet" x="413" y="-366.7"/>
<text text-anchor="start" x="428" y="-356.8" font-family="Helvetica,sans-Serif" font-size="11.00" fill="#000000">daily_challenges_date</text>
<polygon fill="none" stroke="#000000" points="611,-349.7 611,-371.7 672,-371.7 672,-349.7 611,-349.7"/>
<text text-anchor="start" x="614" y="-357.4" font-family="Helvetica,sans-Serif" font-size="11.00" fill="#000000">date[10]</text>
<polygon fill="none" stroke="#000000" points="408,-327.7 408,-349.7 611,-349.7 611,-327.7 408,-327.7"/>
<text text-anchor="start" x="428" y="-334.8" font-family="Helvetica,sans-Serif" font-size="11.00" fill="#000000">date_of_completation</text>
<polygon fill="none" stroke="#000000" points="611,-327.7 611,-349.7 672,-349.7 672,-327.7 611,-327.7"/>
<text text-anchor="start" x="614" y="-335.4" font-family="Helvetica,sans-Serif" font-size="11.00" fill="#000000">date[10]</text>
<polygon fill="none" stroke="#000000" points="408,-305.7 408,-327.7 611,-327.7 611,-305.7 408,-305.7"/>
<text text-anchor="start" x="428" y="-312.8" font-family="Helvetica,sans-Serif" font-size="11.00" fill="#000000">Interactions</text>
<polygon fill="none" stroke="#000000" points="611,-305.7 611,-327.7 672,-327.7 672,-305.7 611,-305.7"/>
<text text-anchor="start" x="613.994" y="-313.4" font-family="Helvetica,sans-Serif" font-size="11.00" fill="#000000">varchar[45]</text>
<polygon fill="#ffffff" stroke="transparent" points="408,-286.7 408,-305.7 501,-305.7 501,-286.7 408,-286.7"/>
<polygon fill="none" stroke="#000000" points="408,-286.7 408,-305.7 501,-305.7 501,-286.7 408,-286.7"/>
<text text-anchor="start" x="411" y="-292.8" font-family="Helvetica,sans-Serif" font-size="11.00" fill="#000000">&lt; 4</text>
<polygon fill="#ffffff" stroke="transparent" points="501,-286.7 501,-305.7 611,-305.7 611,-286.7 501,-286.7"/>
<polygon fill="none" stroke="#000000" points="501,-286.7 501,-305.7 611,-305.7 611,-286.7 501,-286.7"/>
<text text-anchor="start" x="575.6105" y="-292.8" font-family="Helvetica,sans-Serif" font-size="11.00" fill="#000000">0 rows</text>
<polygon fill="#ffffff" stroke="transparent" points="611,-286.7 611,-305.7 672,-305.7 672,-286.7 611,-286.7"/>
<polygon fill="none" stroke="#000000" points="611,-286.7 611,-305.7 672,-305.7 672,-286.7 611,-286.7"/>
<text text-anchor="start" x="653.4053" y="-292.8" font-family="Helvetica,sans-Serif" font-size="11.00" fill="#000000">0 &gt;</text>
<polygon fill="none" stroke="#000000" stroke-width="2" points="407,-285.7 407,-461.7 673,-461.7 673,-285.7 407,-285.7"/>
</a>
</g>
</g>
<!-- daily_challenges -->
<g id="node2" class="node">
<title>daily_challenges</title>
<g id="a_node2"><a xlink:href="../../tables/daily_challenges.html" xlink:title="daily_challenges" target="_top">
<polygon fill="#ffffff" stroke="transparent" points="208,-330.7 208,-438.7 332,-438.7 332,-330.7 208,-330.7"/>
<polygon fill="#f5f5f5" stroke="transparent" points="208,-415.7 208,-438.7 332,-438.7 332,-415.7 208,-415.7"/>
<polygon fill="none" stroke="#000000" points="208,-415.7 208,-438.7 332,-438.7 332,-415.7 208,-415.7"/>
<text text-anchor="start" x="212.8512" y="-424.8" font-family="Helvetica,sans-Serif" font-weight="bold" font-size="11.00" fill="#000000">daily_challenges</text>
<text text-anchor="start" x="297.5219" y="-423.8" font-family="Helvetica,sans-Serif" font-size="11.00" fill="#000000">[table]</text>
<polygon fill="none" stroke="#000000" points="208,-393.7 208,-415.7 332,-415.7 332,-393.7 208,-393.7"/>
<image xlink:href="../../images/primaryKeys.png" width="11px" height="12px" preserveAspectRatio="xMinYMin meet" x="213" y="-410.7"/>
<text text-anchor="start" x="232" y="-400.8" font-family="Helvetica,sans-Serif" font-size="11.00" fill="#000000">classes_id</text>
<polygon fill="none" stroke="#000000" points="208,-371.7 208,-393.7 332,-393.7 332,-371.7 208,-371.7"/>
<image xlink:href="../../images/primaryKeys.png" width="11px" height="12px" preserveAspectRatio="xMinYMin meet" x="213" y="-388.7"/>
<text text-anchor="start" x="232" y="-378.8" font-family="Helvetica,sans-Serif" font-size="11.00" fill="#000000">challenges_id</text>
<polygon fill="none" stroke="#000000" points="208,-349.7 208,-371.7 332,-371.7 332,-349.7 208,-349.7"/>
<image xlink:href="../../images/primaryKeys.png" width="11px" height="12px" preserveAspectRatio="xMinYMin meet" x="213" y="-366.7"/>
<text text-anchor="start" x="232" y="-356.8" font-family="Helvetica,sans-Serif" font-size="11.00" fill="#000000">date</text>
<polygon fill="#ffffff" stroke="transparent" points="208,-330.7 208,-349.7 251,-349.7 251,-330.7 208,-330.7"/>
<polygon fill="none" stroke="#000000" points="208,-330.7 208,-349.7 251,-349.7 251,-330.7 208,-330.7"/>
<text text-anchor="start" x="211" y="-336.8" font-family="Helvetica,sans-Serif" font-size="11.00" fill="#000000">&lt; 2</text>
<polygon fill="#ffffff" stroke="transparent" points="251,-330.7 251,-349.7 300,-349.7 300,-330.7 251,-330.7"/>
<polygon fill="none" stroke="#000000" points="251,-330.7 251,-349.7 300,-349.7 300,-330.7 251,-330.7"/>
<text text-anchor="start" x="264.6105" y="-336.8" font-family="Helvetica,sans-Serif" font-size="11.00" fill="#000000">0 rows</text>
<polygon fill="#ffffff" stroke="transparent" points="300,-330.7 300,-349.7 332,-349.7 332,-330.7 300,-330.7"/>
<polygon fill="none" stroke="#000000" points="300,-330.7 300,-349.7 332,-349.7 332,-330.7 300,-330.7"/>
<text text-anchor="start" x="313.4053" y="-336.8" font-family="Helvetica,sans-Serif" font-size="11.00" fill="#000000">3 &gt;</text>
</a>
</g>
</g>
<!-- completed_daily_challenges&#45;&gt;daily_challenges -->
<g id="edge1" class="edge">
<title>completed_daily_challenges:w&#45;&gt;daily_challenges:e</title>
<path fill="none" stroke="#000000" d="M393.5121,-382.7C370.8676,-382.7 360.3681,-382.7 332,-382.7"/>
<polygon fill="#000000" stroke="#000000" points="400,-382.7001 408,-386.3 404,-382.7 408,-382.7 408,-382.7 408,-382.7 404,-382.7 408,-379.1 400,-382.7001 400,-382.7001"/>
<ellipse fill="none" stroke="#000000" cx="396.8" cy="-382.7001" rx="3.2" ry="3.2"/>
</g>
<!-- completed_daily_challenges&#45;&gt;daily_challenges -->
<g id="edge2" class="edge">
<title>completed_daily_challenges:w&#45;&gt;daily_challenges:e</title>
<path fill="none" stroke="#000000" d="M393.5121,-404.7C370.8676,-404.7 360.3681,-404.7 332,-404.7"/>
<polygon fill="#000000" stroke="#000000" points="400,-404.7001 408,-408.3 404,-404.7 408,-404.7 408,-404.7 408,-404.7 404,-404.7 408,-401.1 400,-404.7001 400,-404.7001"/>
<ellipse fill="none" stroke="#000000" cx="396.8" cy="-404.7001" rx="3.2" ry="3.2"/>
</g>
<!-- completed_daily_challenges&#45;&gt;daily_challenges -->
<g id="edge3" class="edge">
<title>completed_daily_challenges:w&#45;&gt;daily_challenges:e</title>
<path fill="none" stroke="#000000" d="M393.5121,-360.7C370.8676,-360.7 360.3681,-360.7 332,-360.7"/>
<polygon fill="#000000" stroke="#000000" points="400,-360.7001 408,-364.3 404,-360.7 408,-360.7 408,-360.7 408,-360.7 404,-360.7 408,-357.1 400,-360.7001 400,-360.7001"/>
<ellipse fill="none" stroke="#000000" cx="396.8" cy="-360.7001" rx="3.2" ry="3.2"/>
</g>
<!-- gymnasts -->
<g id="node3" class="node">
<title>gymnasts</title>
<g id="a_node3"><a xlink:href="../../tables/gymnasts.html" xlink:title="gymnasts" target="_top">
<polygon fill="#ffffff" stroke="transparent" points="183,-96.2 183,-223.2 357,-223.2 357,-96.2 183,-96.2"/>
<polygon fill="#f5f5f5" stroke="transparent" points="183,-199.7 183,-222.7 357,-222.7 357,-199.7 183,-199.7"/>
<polygon fill="none" stroke="#000000" points="183,-199.7 183,-222.7 357,-222.7 357,-199.7 183,-199.7"/>
<text text-anchor="start" x="188" y="-208.8" font-family="Helvetica,sans-Serif" font-weight="bold" font-size="11.00" fill="#000000">gymnasts</text>
<text text-anchor="start" x="322.0437" y="-207.8" font-family="Helvetica,sans-Serif" font-size="11.00" fill="#000000">[table]</text>
<polygon fill="none" stroke="#000000" points="183,-177.7 183,-199.7 357,-199.7 357,-177.7 183,-177.7"/>
<image xlink:href="../../images/primaryKeys.png" width="11px" height="12px" preserveAspectRatio="xMinYMin meet" x="188" y="-194.7"/>
<text text-anchor="start" x="203" y="-184.8" font-family="Helvetica,sans-Serif" font-size="11.00" fill="#000000">id</text>
<polygon fill="#ffffff" stroke="transparent" points="183,-155.7 183,-177.7 357,-177.7 357,-155.7 183,-155.7"/>
<polygon fill="none" stroke="#000000" points="183,-155.7 183,-177.7 357,-177.7 357,-155.7 183,-155.7"/>
<image xlink:href="../../images/foreignKeys.png" width="11px" height="12px" preserveAspectRatio="xMinYMin meet" x="188" y="-172.7"/>
<text text-anchor="start" x="203" y="-162.8" font-family="Helvetica,sans-Serif" font-size="11.00" fill="#000000">gyms_has_users_gyms_id</text>
<polygon fill="#ffffff" stroke="transparent" points="183,-133.7 183,-155.7 357,-155.7 357,-133.7 183,-133.7"/>
<polygon fill="none" stroke="#000000" points="183,-133.7 183,-155.7 357,-155.7 357,-133.7 183,-133.7"/>
<image xlink:href="../../images/foreignKeys.png" width="11px" height="12px" preserveAspectRatio="xMinYMin meet" x="188" y="-150.7"/>
<text text-anchor="start" x="203" y="-140.8" font-family="Helvetica,sans-Serif" font-size="11.00" fill="#000000">gyms_has_users_users_id</text>
<polygon fill="none" stroke="#000000" points="183,-114.7 183,-133.7 357,-133.7 357,-114.7 183,-114.7"/>
<text text-anchor="start" x="186" y="-120.8" font-family="Helvetica,sans-Serif" font-size="11.00" fill="#000000">...</text>
<polygon fill="#ffffff" stroke="transparent" points="183,-95.7 183,-114.7 251,-114.7 251,-95.7 183,-95.7"/>
<polygon fill="none" stroke="#000000" points="183,-95.7 183,-114.7 251,-114.7 251,-95.7 183,-95.7"/>
<text text-anchor="start" x="186" y="-101.8" font-family="Helvetica,sans-Serif" font-size="11.00" fill="#000000">&lt; 2</text>
<polygon fill="#ffffff" stroke="transparent" points="251,-95.7 251,-114.7 312,-114.7 312,-95.7 251,-95.7"/>
<polygon fill="none" stroke="#000000" points="251,-95.7 251,-114.7 312,-114.7 312,-95.7 251,-95.7"/>
<text text-anchor="start" x="276.6105" y="-101.8" font-family="Helvetica,sans-Serif" font-size="11.00" fill="#000000">0 rows</text>
<polygon fill="#ffffff" stroke="transparent" points="312,-95.7 312,-114.7 357,-114.7 357,-95.7 312,-95.7"/>
<polygon fill="none" stroke="#000000" points="312,-95.7 312,-114.7 357,-114.7 357,-95.7 312,-95.7"/>
<text text-anchor="start" x="338.4053" y="-101.8" font-family="Helvetica,sans-Serif" font-size="11.00" fill="#000000">4 &gt;</text>
</a>
</g>
</g>
<!-- completed_daily_challenges&#45;&gt;gymnasts -->
<g id="edge4" class="edge">
<title>completed_daily_challenges:w&#45;&gt;gymnasts:e</title>
<path fill="none" stroke="#000000" d="M393.5641,-424.9211C315.9097,-403.1419 459.6856,-188.7 357,-188.7"/>
<polygon fill="#000000" stroke="#000000" points="400.0601,-425.7215 407.5597,-430.273 404.03,-426.2108 408,-426.7 408,-426.7 408,-426.7 404.03,-426.2108 408.4403,-423.127 400.0601,-425.7215 400.0601,-425.7215"/>
<ellipse fill="none" stroke="#000000" cx="396.8841" cy="-425.3302" rx="3.2" ry="3.2"/>
</g>
<!-- challenges -->
<g id="node5" class="node">
<title>challenges</title>
<g id="a_node5"><a xlink:href="../../tables/challenges.html" xlink:title="challenges" target="_top">
<polygon fill="#ffffff" stroke="transparent" points="23.5,-295.2 23.5,-356.2 118.5,-356.2 118.5,-295.2 23.5,-295.2"/>
<polygon fill="#f5f5f5" stroke="transparent" points="24,-332.7 24,-355.7 119,-355.7 119,-332.7 24,-332.7"/>
<polygon fill="none" stroke="#000000" points="24,-332.7 24,-355.7 119,-355.7 119,-332.7 24,-332.7"/>
<text text-anchor="start" x="28.7144" y="-341.8" font-family="Helvetica,sans-Serif" font-weight="bold" font-size="11.00" fill="#000000">challenges</text>
<text text-anchor="start" x="84.5219" y="-340.8" font-family="Helvetica,sans-Serif" font-size="11.00" fill="#000000">[table]</text>
<polygon fill="none" stroke="#000000" points="24,-313.7 24,-332.7 119,-332.7 119,-313.7 24,-313.7"/>
<text text-anchor="start" x="27" y="-319.8" font-family="Helvetica,sans-Serif" font-size="11.00" fill="#000000">...</text>
<polygon fill="#ffffff" stroke="transparent" points="24,-294.7 24,-313.7 48,-313.7 48,-294.7 24,-294.7"/>
<polygon fill="none" stroke="#000000" points="24,-294.7 24,-313.7 48,-313.7 48,-294.7 24,-294.7"/>
<text text-anchor="start" x="27" y="-300.8" font-family="Helvetica,sans-Serif" font-size="11.00" fill="#000000"> &#160;</text>
<polygon fill="#ffffff" stroke="transparent" points="48,-294.7 48,-313.7 92,-313.7 92,-294.7 48,-294.7"/>
<polygon fill="none" stroke="#000000" points="48,-294.7 48,-313.7 92,-313.7 92,-294.7 48,-294.7"/>
<text text-anchor="start" x="56.6105" y="-300.8" font-family="Helvetica,sans-Serif" font-size="11.00" fill="#000000">0 rows</text>
<polygon fill="#ffffff" stroke="transparent" points="92,-294.7 92,-313.7 119,-313.7 119,-294.7 92,-294.7"/>
<polygon fill="none" stroke="#000000" points="92,-294.7 92,-313.7 119,-313.7 119,-294.7 92,-294.7"/>
<text text-anchor="start" x="100.4053" y="-300.8" font-family="Helvetica,sans-Serif" font-size="11.00" fill="#000000">2 &gt;</text>
</a>
</g>
</g>
<!-- daily_challenges&#45;&gt;challenges -->
<g id="edge6" class="edge">
<title>daily_challenges:w&#45;&gt;challenges:e</title>
<path fill="none" stroke="#000000" d="M193.7138,-380.5646C161.0529,-369.8762 161.3008,-322.7 119,-322.7"/>
<polygon fill="#000000" stroke="#000000" points="200.0879,-381.5173 207.4678,-386.2604 204.044,-382.1086 208,-382.7 208,-382.7 208,-382.7 204.044,-382.1086 208.5322,-379.1396 200.0879,-381.5173 200.0879,-381.5173"/>
<ellipse fill="none" stroke="#000000" cx="196.9231" cy="-381.0442" rx="3.2" ry="3.2"/>
</g>
<!-- classes -->
<g id="node6" class="node">
<title>classes</title>
<g id="a_node6"><a xlink:href="../../tables/classes.html" xlink:title="classes" target="_top">
<polygon fill="#ffffff" stroke="transparent" points="31,-377.2 31,-438.2 111,-438.2 111,-377.2 31,-377.2"/>
<polygon fill="#f5f5f5" stroke="transparent" points="31,-414.7 31,-437.7 111,-437.7 111,-414.7 31,-414.7"/>
<polygon fill="none" stroke="#000000" points="31,-414.7 31,-437.7 111,-437.7 111,-414.7 31,-414.7"/>
<text text-anchor="start" x="36" y="-423.8" font-family="Helvetica,sans-Serif" font-weight="bold" font-size="11.00" fill="#000000">classes</text>
<text text-anchor="start" x="76.5219" y="-422.8" font-family="Helvetica,sans-Serif" font-size="11.00" fill="#000000">[table]</text>
<polygon fill="none" stroke="#000000" points="31,-395.7 31,-414.7 111,-414.7 111,-395.7 31,-395.7"/>
<text text-anchor="start" x="34" y="-401.8" font-family="Helvetica,sans-Serif" font-size="11.00" fill="#000000">...</text>
<polygon fill="#ffffff" stroke="transparent" points="31,-376.7 31,-395.7 52,-395.7 52,-376.7 31,-376.7"/>
<polygon fill="none" stroke="#000000" points="31,-376.7 31,-395.7 52,-395.7 52,-376.7 31,-376.7"/>
<text text-anchor="start" x="33.7027" y="-382.8" font-family="Helvetica,sans-Serif" font-size="11.00" fill="#000000">&lt; 1</text>
<polygon fill="#ffffff" stroke="transparent" points="52,-376.7 52,-395.7 90,-395.7 90,-376.7 52,-376.7"/>
<polygon fill="none" stroke="#000000" points="52,-376.7 52,-395.7 90,-395.7 90,-376.7 52,-376.7"/>
<text text-anchor="start" x="54.8053" y="-382.8" font-family="Helvetica,sans-Serif" font-size="11.00" fill="#000000">0 rows</text>
<polygon fill="#ffffff" stroke="transparent" points="90,-376.7 90,-395.7 111,-395.7 111,-376.7 90,-376.7"/>
<polygon fill="none" stroke="#000000" points="90,-376.7 90,-395.7 111,-395.7 111,-376.7 90,-376.7"/>
<text text-anchor="start" x="92.7027" y="-382.8" font-family="Helvetica,sans-Serif" font-size="11.00" fill="#000000">3 &gt;</text>
</a>
</g>
</g>
<!-- daily_challenges&#45;&gt;classes -->
<g id="edge7" class="edge">
<title>daily_challenges:w&#45;&gt;classes:e</title>
<path fill="none" stroke="#000000" d="M193.2227,-404.7C161.6892,-404.7 148.7222,-404.7 111,-404.7"/>
<polygon fill="#000000" stroke="#000000" points="200,-404.7001 208,-408.3 204,-404.7 208,-404.7 208,-404.7 208,-404.7 204,-404.7 208,-401.1 200,-404.7001 200,-404.7001"/>
<ellipse fill="none" stroke="#000000" cx="196.8" cy="-404.7001" rx="3.2" ry="3.2"/>
</g>
<!-- gyms_has_users -->
<g id="node8" class="node">
<title>gyms_has_users</title>
<g id="a_node8"><a xlink:href="../../tables/gyms_has_users.html" xlink:title="gyms_has_users" target="_top">
<polygon fill="#ffffff" stroke="transparent" points="8,-128.2 8,-189.2 134,-189.2 134,-128.2 8,-128.2"/>
<polygon fill="#f5f5f5" stroke="transparent" points="8,-165.7 8,-188.7 134,-188.7 134,-165.7 8,-165.7"/>
<polygon fill="none" stroke="#000000" points="8,-165.7 8,-188.7 134,-188.7 134,-165.7 8,-165.7"/>
<text text-anchor="start" x="12.9359" y="-174.8" font-family="Helvetica,sans-Serif" font-weight="bold" font-size="11.00" fill="#000000">gyms_has_users</text>
<text text-anchor="start" x="99.5219" y="-173.8" font-family="Helvetica,sans-Serif" font-size="11.00" fill="#000000">[table]</text>
<polygon fill="none" stroke="#000000" points="8,-146.7 8,-165.7 134,-165.7 134,-146.7 8,-146.7"/>
<text text-anchor="start" x="11" y="-152.8" font-family="Helvetica,sans-Serif" font-size="11.00" fill="#000000">...</text>
<polygon fill="#ffffff" stroke="transparent" points="8,-127.7 8,-146.7 52,-146.7 52,-127.7 8,-127.7"/>
<polygon fill="none" stroke="#000000" points="8,-127.7 8,-146.7 52,-146.7 52,-127.7 8,-127.7"/>
<text text-anchor="start" x="11" y="-133.8" font-family="Helvetica,sans-Serif" font-size="11.00" fill="#000000">&lt; 2</text>
<polygon fill="#ffffff" stroke="transparent" points="52,-127.7 52,-146.7 101,-146.7 101,-127.7 52,-127.7"/>
<polygon fill="none" stroke="#000000" points="52,-127.7 52,-146.7 101,-146.7 101,-127.7 52,-127.7"/>
<text text-anchor="start" x="65.6105" y="-133.8" font-family="Helvetica,sans-Serif" font-size="11.00" fill="#000000">0 rows</text>
<polygon fill="#ffffff" stroke="transparent" points="101,-127.7 101,-146.7 134,-146.7 134,-127.7 101,-127.7"/>
<polygon fill="none" stroke="#000000" points="101,-127.7 101,-146.7 134,-146.7 134,-127.7 101,-127.7"/>
<text text-anchor="start" x="115.4053" y="-133.8" font-family="Helvetica,sans-Serif" font-size="11.00" fill="#000000">2 &gt;</text>
</a>
</g>
</g>
<!-- gymnasts&#45;&gt;gyms_has_users -->
<g id="edge9" class="edge">
<title>gymnasts:w&#45;&gt;gyms_has_users:e</title>
<path fill="none" stroke="#000000" d="M168.7027,-164.8836C157.2382,-161.7593 150.5655,-155.7 134,-155.7"/>
<polygon fill="#000000" stroke="#000000" points="175.0638,-165.6917 182.5463,-170.2713 179.0319,-166.1958 183,-166.7 183,-166.7 183,-166.7 179.0319,-166.1958 183.4537,-163.1287 175.0638,-165.6917 175.0638,-165.6917"/>
<ellipse fill="none" stroke="#000000" cx="171.8893" cy="-165.2884" rx="3.2" ry="3.2"/>
</g>
<!-- gymnasts&#45;&gt;gyms_has_users -->
<g id="edge10" class="edge">
<title>gymnasts:w&#45;&gt;gyms_has_users:e</title>
<path fill="none" stroke="#000000" d="M168.7027,-146.5164C157.2382,-149.6407 150.5655,-155.7 134,-155.7"/>
<polygon fill="#000000" stroke="#000000" points="175.0638,-145.7083 183.4537,-148.2713 179.0319,-145.2042 183,-144.7 183,-144.7 183,-144.7 179.0319,-145.2042 182.5463,-141.1287 175.0638,-145.7083 175.0638,-145.7083"/>
<ellipse fill="none" stroke="#000000" cx="171.8893" cy="-146.1116" rx="3.2" ry="3.2"/>
</g>
<!-- completed_normal_challenges -->
<g id="node4" class="node">
<title>completed_normal_challenges</title>
<g id="a_node4"><a xlink:href="../../tables/completed_normal_challenges.html" xlink:title="completed_normal_challenges" target="_top">
<polygon fill="#ffffff" stroke="transparent" points="444,-120.2 444,-181.2 636,-181.2 636,-120.2 444,-120.2"/>
<polygon fill="#f5f5f5" stroke="transparent" points="444,-157.7 444,-180.7 636,-180.7 636,-157.7 444,-157.7"/>
<polygon fill="none" stroke="#000000" points="444,-157.7 444,-180.7 636,-180.7 636,-157.7 444,-157.7"/>
<text text-anchor="start" x="448.9277" y="-166.8" font-family="Helvetica,sans-Serif" font-weight="bold" font-size="11.00" fill="#000000">completed_normal_challenges</text>
<text text-anchor="start" x="601.5219" y="-165.8" font-family="Helvetica,sans-Serif" font-size="11.00" fill="#000000">[table]</text>
<polygon fill="none" stroke="#000000" points="444,-138.7 444,-157.7 636,-157.7 636,-138.7 444,-138.7"/>
<text text-anchor="start" x="447" y="-144.8" font-family="Helvetica,sans-Serif" font-size="11.00" fill="#000000">...</text>
<polygon fill="#ffffff" stroke="transparent" points="444,-119.7 444,-138.7 525,-138.7 525,-119.7 444,-119.7"/>
<polygon fill="none" stroke="#000000" points="444,-119.7 444,-138.7 525,-138.7 525,-119.7 444,-119.7"/>
<text text-anchor="start" x="447" y="-125.8" font-family="Helvetica,sans-Serif" font-size="11.00" fill="#000000">&lt; 3</text>
<polygon fill="#ffffff" stroke="transparent" points="525,-119.7 525,-138.7 593,-138.7 593,-119.7 525,-119.7"/>
<polygon fill="none" stroke="#000000" points="525,-119.7 525,-138.7 593,-138.7 593,-119.7 525,-119.7"/>
<text text-anchor="start" x="557.6105" y="-125.8" font-family="Helvetica,sans-Serif" font-size="11.00" fill="#000000">0 rows</text>
<polygon fill="#ffffff" stroke="transparent" points="593,-119.7 593,-138.7 636,-138.7 636,-119.7 593,-119.7"/>
<polygon fill="none" stroke="#000000" points="593,-119.7 593,-138.7 636,-138.7 636,-119.7 593,-119.7"/>
<text text-anchor="start" x="626.8862" y="-125.8" font-family="Helvetica,sans-Serif" font-size="11.00" fill="#000000"> &#160;</text>
</a>
</g>
</g>
<!-- completed_normal_challenges&#45;&gt;gymnasts -->
<g id="edge5" class="edge">
<title>completed_normal_challenges:w&#45;&gt;gymnasts:e</title>
<path fill="none" stroke="#000000" d="M429.3486,-149.5682C400.1803,-157.589 394.2352,-188.7 357,-188.7"/>
<polygon fill="#000000" stroke="#000000" points="436.0643,-148.7119 444.4554,-151.2711 440.0321,-148.206 444,-147.7 444,-147.7 444,-147.7 440.0321,-148.206 443.5446,-144.1289 436.0643,-148.7119 436.0643,-148.7119"/>
<ellipse fill="none" stroke="#000000" cx="432.89" cy="-149.1167" rx="3.2" ry="3.2"/>
</g>
<!-- gymnast_has_skills -->
<g id="node7" class="node">
<title>gymnast_has_skills</title>
<g id="a_node7"><a xlink:href="../../tables/gymnast_has_skills.html" xlink:title="gymnast_has_skills" target="_top">
<polygon fill="#ffffff" stroke="transparent" points="471,-38.2 471,-99.2 609,-99.2 609,-38.2 471,-38.2"/>
<polygon fill="#f5f5f5" stroke="transparent" points="471,-75.7 471,-98.7 609,-98.7 609,-75.7 471,-75.7"/>
<polygon fill="none" stroke="#000000" points="471,-75.7 471,-98.7 609,-98.7 609,-75.7 471,-75.7"/>
<text text-anchor="start" x="475.8271" y="-84.8" font-family="Helvetica,sans-Serif" font-weight="bold" font-size="11.00" fill="#000000">gymnast_has_skills</text>
<text text-anchor="start" x="574.5219" y="-83.8" font-family="Helvetica,sans-Serif" font-size="11.00" fill="#000000">[table]</text>
<polygon fill="none" stroke="#000000" points="471,-56.7 471,-75.7 609,-75.7 609,-56.7 471,-56.7"/>
<text text-anchor="start" x="474" y="-62.8" font-family="Helvetica,sans-Serif" font-size="11.00" fill="#000000">...</text>
<polygon fill="#ffffff" stroke="transparent" points="471,-37.7 471,-56.7 525,-56.7 525,-37.7 471,-37.7"/>
<polygon fill="none" stroke="#000000" points="471,-37.7 471,-56.7 525,-56.7 525,-37.7 471,-37.7"/>
<text text-anchor="start" x="474" y="-43.8" font-family="Helvetica,sans-Serif" font-size="11.00" fill="#000000">&lt; 2</text>
<polygon fill="#ffffff" stroke="transparent" points="525,-37.7 525,-56.7 580,-56.7 580,-37.7 525,-37.7"/>
<polygon fill="none" stroke="#000000" points="525,-37.7 525,-56.7 580,-56.7 580,-37.7 525,-37.7"/>
<text text-anchor="start" x="544.6105" y="-43.8" font-family="Helvetica,sans-Serif" font-size="11.00" fill="#000000">0 rows</text>
<polygon fill="#ffffff" stroke="transparent" points="580,-37.7 580,-56.7 609,-56.7 609,-37.7 580,-37.7"/>
<polygon fill="none" stroke="#000000" points="580,-37.7 580,-56.7 609,-56.7 609,-37.7 580,-37.7"/>
<text text-anchor="start" x="599.8862" y="-43.8" font-family="Helvetica,sans-Serif" font-size="11.00" fill="#000000"> &#160;</text>
</a>
</g>
</g>
<!-- gymnast_has_skills&#45;&gt;gymnasts -->
<g id="edge8" class="edge">
<title>gymnast_has_skills:w&#45;&gt;gymnasts:e</title>
<path fill="none" stroke="#000000" d="M456.5939,-66.6571C430.2002,-70.5276 420.275,-85.9586 398,-109.7 370.9333,-138.5485 396.5581,-188.7 357,-188.7"/>
<polygon fill="#000000" stroke="#000000" points="463.0176,-66.2304 471.2387,-69.2921 467.0088,-65.9652 471,-65.7 471,-65.7 471,-65.7 467.0088,-65.9652 470.7613,-62.1079 463.0176,-66.2304 463.0176,-66.2304"/>
<ellipse fill="none" stroke="#000000" cx="459.8246" cy="-66.4426" rx="3.2" ry="3.2"/>
</g>
<!-- gymnasts_classes -->
<g id="node9" class="node">
<title>gymnasts_classes</title>
<g id="a_node9"><a xlink:href="../../tables/gymnasts_classes.html" xlink:title="gymnasts_classes" target="_top">
<polygon fill="#ffffff" stroke="transparent" points="474,-202.2 474,-263.2 606,-263.2 606,-202.2 474,-202.2"/>
<polygon fill="#f5f5f5" stroke="transparent" points="474,-239.7 474,-262.7 606,-262.7 606,-239.7 474,-239.7"/>
<polygon fill="none" stroke="#000000" points="474,-239.7 474,-262.7 606,-262.7 606,-239.7 474,-239.7"/>
<text text-anchor="start" x="478.5755" y="-248.8" font-family="Helvetica,sans-Serif" font-weight="bold" font-size="11.00" fill="#000000">gymnasts_classes</text>
<text text-anchor="start" x="571.5219" y="-247.8" font-family="Helvetica,sans-Serif" font-size="11.00" fill="#000000">[table]</text>
<polygon fill="none" stroke="#000000" points="474,-220.7 474,-239.7 606,-239.7 606,-220.7 474,-220.7"/>
<text text-anchor="start" x="477" y="-226.8" font-family="Helvetica,sans-Serif" font-size="11.00" fill="#000000">...</text>
<polygon fill="#ffffff" stroke="transparent" points="474,-201.7 474,-220.7 525,-220.7 525,-201.7 474,-201.7"/>
<polygon fill="none" stroke="#000000" points="474,-201.7 474,-220.7 525,-220.7 525,-201.7 474,-201.7"/>
<text text-anchor="start" x="477" y="-207.8" font-family="Helvetica,sans-Serif" font-size="11.00" fill="#000000">&lt; 2</text>
<polygon fill="#ffffff" stroke="transparent" points="525,-201.7 525,-220.7 578,-220.7 578,-201.7 525,-201.7"/>
<polygon fill="none" stroke="#000000" points="525,-201.7 525,-220.7 578,-220.7 578,-201.7 525,-201.7"/>
<text text-anchor="start" x="542.6105" y="-207.8" font-family="Helvetica,sans-Serif" font-size="11.00" fill="#000000">0 rows</text>
<polygon fill="#ffffff" stroke="transparent" points="578,-201.7 578,-220.7 606,-220.7 606,-201.7 578,-201.7"/>
<polygon fill="none" stroke="#000000" points="578,-201.7 578,-220.7 606,-220.7 606,-201.7 578,-201.7"/>
<text text-anchor="start" x="596.8862" y="-207.8" font-family="Helvetica,sans-Serif" font-size="11.00" fill="#000000"> &#160;</text>
</a>
</g>
</g>
<!-- gymnasts_classes&#45;&gt;gymnasts -->
<g id="edge12" class="edge">
<title>gymnasts_classes:w&#45;&gt;gymnasts:e</title>
<path fill="none" stroke="#000000" d="M459.4227,-228.6453C417.1558,-222.2279 406.8271,-188.7 357,-188.7"/>
<polygon fill="#000000" stroke="#000000" points="466.0209,-229.1226 473.7402,-233.2906 470.0104,-229.4113 474,-229.7 474,-229.7 474,-229.7 470.0104,-229.4113 474.2598,-226.1094 466.0209,-229.1226 466.0209,-229.1226"/>
<ellipse fill="none" stroke="#000000" cx="462.8292" cy="-228.8917" rx="3.2" ry="3.2"/>
</g>
<!-- gymnasts_classes&#45;&gt;classes -->
<g id="edge11" class="edge">
<title>gymnasts_classes:w&#45;&gt;classes:e</title>
<path fill="none" stroke="#000000" d="M459.2945,-229.7423C331.5962,-230.5201 283.8154,-242.6921 175,-320.7 136.8546,-348.0458 157.9347,-404.7 111,-404.7"/>
<polygon fill="#000000" stroke="#000000" points="466,-229.7231 474.0104,-233.3 470,-229.7115 474,-229.7 474,-229.7 474,-229.7 470,-229.7115 473.9896,-226.1 466,-229.7231 466,-229.7231"/>
<ellipse fill="none" stroke="#000000" cx="462.8" cy="-229.7323" rx="3.2" ry="3.2"/>
</g>
</g>
</svg>
