<?xml version="1.0" encoding="UTF-8" standalone="no"?>
<!DOCTYPE svg PUBLIC "-//W3C//DTD SVG 1.1//EN"
 "http://www.w3.org/Graphics/SVG/1.1/DTD/svg11.dtd">
<!-- Generated by graphviz version 2.40.1 (20161225.0304)
 -->
<!-- Title: oneDegreeRelationshipsDiagram Pages: 1 -->
<svg width="475pt" height="334pt"
 viewBox="0.00 0.00 475.00 333.70" xmlns="http://www.w3.org/2000/svg" xmlns:xlink="http://www.w3.org/1999/xlink">
<g id="graph0" class="graph" transform="scale(1 1) rotate(0) translate(4 329.7)">
<title>oneDegreeRelationshipsDiagram</title>
<polygon fill="#ffffff" stroke="transparent" points="-4,4 -4,-329.7 471,-329.7 471,4 -4,4"/>
<text text-anchor="middle" x="72.4936" y="-7.3" font-family="Helvetica,sans-Serif" font-size="11.00" fill="#000000">Generated by SchemaSpy</text>
<!-- completed_challenges -->
<g id="node1" class="node">
<title>completed_challenges</title>
<g id="a_node1"><a xlink:href="../../tables/completed_challenges.html" xlink:title="completed_challenges" target="_top">
<polygon fill="#ffffff" stroke="transparent" points="231,-38.2 231,-282.2 459,-282.2 459,-38.2 231,-38.2"/>
<polygon fill="#f5f5f5" stroke="transparent" points="233,-257.2 233,-280.2 457,-280.2 457,-257.2 233,-257.2"/>
<polygon fill="none" stroke="#000000" points="233,-257.2 233,-280.2 457,-280.2 457,-257.2 233,-257.2"/>
<text text-anchor="start" x="238" y="-266.3" font-family="Helvetica,sans-Serif" font-weight="bold" font-size="11.00" fill="#000000">completed_challenges</text>
<text text-anchor="start" x="422.0437" y="-265.3" font-family="Helvetica,sans-Serif" font-size="11.00" fill="#000000">[table]</text>
<polygon fill="none" stroke="#000000" points="233,-235.2 233,-257.2 382,-257.2 382,-235.2 233,-235.2"/>
<image xlink:href="../../images/primaryKeys.png" width="11px" height="12px" preserveAspectRatio="xMinYMin meet" x="238" y="-252.2"/>
<text text-anchor="start" x="253" y="-242.3" font-family="Helvetica,sans-Serif" font-size="11.00" fill="#000000">id</text>
<polygon fill="none" stroke="#000000" points="382,-235.2 382,-257.2 457,-257.2 457,-235.2 382,-235.2"/>
<text text-anchor="start" x="385" y="-242.9" font-family="Helvetica,sans-Serif" font-size="11.00" fill="#000000">bigint[19]</text>
<polygon fill="#ffffff" stroke="transparent" points="233,-213.2 233,-235.2 382,-235.2 382,-213.2 233,-213.2"/>
<polygon fill="none" stroke="#000000" points="233,-213.2 233,-235.2 382,-235.2 382,-213.2 233,-213.2"/>
<image xlink:href="../../images/foreignKeys.png" width="11px" height="12px" preserveAspectRatio="xMinYMin meet" x="238" y="-230.2"/>
<text text-anchor="start" x="253" y="-220.3" font-family="Helvetica,sans-Serif" font-size="11.00" fill="#000000">gymnast_id</text>
<polygon fill="none" stroke="#000000" points="382,-213.2 382,-235.2 457,-235.2 457,-213.2 382,-213.2"/>
<text text-anchor="start" x="385" y="-220.9" font-family="Helvetica,sans-Serif" font-size="11.00" fill="#000000">bigint[19]</text>
<polygon fill="#ffffff" stroke="transparent" points="233,-191.2 233,-213.2 382,-213.2 382,-191.2 233,-191.2"/>
<polygon fill="none" stroke="#000000" points="233,-191.2 233,-213.2 382,-213.2 382,-191.2 233,-191.2"/>
<image xlink:href="../../images/foreignKeys.png" width="11px" height="12px" preserveAspectRatio="xMinYMin meet" x="238" y="-208.2"/>
<text text-anchor="start" x="253" y="-198.3" font-family="Helvetica,sans-Serif" font-size="11.00" fill="#000000">challenge_id</text>
<polygon fill="none" stroke="#000000" points="382,-191.2 382,-213.2 457,-213.2 457,-191.2 382,-191.2"/>
<text text-anchor="start" x="385" y="-198.9" font-family="Helvetica,sans-Serif" font-size="11.00" fill="#000000">bigint[19]</text>
<polygon fill="none" stroke="#000000" points="233,-169.2 233,-191.2 382,-191.2 382,-169.2 233,-169.2"/>
<text text-anchor="start" x="253" y="-176.3" font-family="Helvetica,sans-Serif" font-size="11.00" fill="#000000">media_path</text>
<polygon fill="none" stroke="#000000" points="382,-169.2 382,-191.2 457,-191.2 457,-169.2 382,-169.2"/>
<text text-anchor="start" x="385" y="-176.9" font-family="Helvetica,sans-Serif" font-size="11.00" fill="#000000">varchar[100]</text>
<polygon fill="none" stroke="#000000" points="233,-147.2 233,-169.2 382,-169.2 382,-147.2 233,-147.2"/>
<text text-anchor="start" x="253" y="-154.3" font-family="Helvetica,sans-Serif" font-size="11.00" fill="#000000">media_caption</text>
<polygon fill="none" stroke="#000000" points="382,-147.2 382,-169.2 457,-169.2 457,-147.2 382,-147.2"/>
<text text-anchor="start" x="385" y="-154.9" font-family="Helvetica,sans-Serif" font-size="11.00" fill="#000000">varchar[100]</text>
<polygon fill="none" stroke="#000000" points="233,-125.2 233,-147.2 382,-147.2 382,-125.2 233,-125.2"/>
<text text-anchor="start" x="253" y="-132.3" font-family="Helvetica,sans-Serif" font-size="11.00" fill="#000000">date_of_completion</text>
<polygon fill="none" stroke="#000000" points="382,-125.2 382,-147.2 457,-147.2 457,-125.2 382,-125.2"/>
<text text-anchor="start" x="385" y="-132.9" font-family="Helvetica,sans-Serif" font-size="11.00" fill="#000000">date[10]</text>
<polygon fill="none" stroke="#000000" points="233,-103.2 233,-125.2 382,-125.2 382,-103.2 233,-103.2"/>
<text text-anchor="start" x="253" y="-110.3" font-family="Helvetica,sans-Serif" font-size="11.00" fill="#000000">created_at</text>
<polygon fill="none" stroke="#000000" points="382,-103.2 382,-125.2 457,-125.2 457,-103.2 382,-103.2"/>
<text text-anchor="start" x="384.9666" y="-110.9" font-family="Helvetica,sans-Serif" font-size="11.00" fill="#000000">timestamp[19]</text>
<polygon fill="none" stroke="#000000" points="233,-81.2 233,-103.2 382,-103.2 382,-81.2 233,-81.2"/>
<text text-anchor="start" x="253" y="-88.3" font-family="Helvetica,sans-Serif" font-size="11.00" fill="#000000">updated_at</text>
<polygon fill="none" stroke="#000000" points="382,-81.2 382,-103.2 457,-103.2 457,-81.2 382,-81.2"/>
<text text-anchor="start" x="384.9666" y="-88.9" font-family="Helvetica,sans-Serif" font-size="11.00" fill="#000000">timestamp[19]</text>
<polygon fill="none" stroke="#000000" points="233,-59.2 233,-81.2 382,-81.2 382,-59.2 233,-59.2"/>
<text text-anchor="start" x="253" y="-66.3" font-family="Helvetica,sans-Serif" font-size="11.00" fill="#000000">deleted_at</text>
<polygon fill="none" stroke="#000000" points="382,-59.2 382,-81.2 457,-81.2 457,-59.2 382,-59.2"/>
<text text-anchor="start" x="384.9666" y="-66.9" font-family="Helvetica,sans-Serif" font-size="11.00" fill="#000000">timestamp[19]</text>
<polygon fill="#ffffff" stroke="transparent" points="233,-40.2 233,-59.2 299,-59.2 299,-40.2 233,-40.2"/>
<polygon fill="none" stroke="#000000" points="233,-40.2 233,-59.2 299,-59.2 299,-40.2 233,-40.2"/>
<text text-anchor="start" x="236" y="-46.3" font-family="Helvetica,sans-Serif" font-size="11.00" fill="#000000">&lt; 2</text>
<polygon fill="#ffffff" stroke="transparent" points="299,-40.2 299,-59.2 382,-59.2 382,-40.2 299,-40.2"/>
<polygon fill="none" stroke="#000000" points="299,-40.2 299,-59.2 382,-59.2 382,-40.2 299,-40.2"/>
<text text-anchor="start" x="346.6105" y="-46.3" font-family="Helvetica,sans-Serif" font-size="11.00" fill="#000000">0 rows</text>
<polygon fill="#ffffff" stroke="transparent" points="382,-40.2 382,-59.2 457,-59.2 457,-40.2 382,-40.2"/>
<polygon fill="none" stroke="#000000" points="382,-40.2 382,-59.2 457,-59.2 457,-40.2 382,-40.2"/>
<text text-anchor="start" x="438.4053" y="-46.3" font-family="Helvetica,sans-Serif" font-size="11.00" fill="#000000">0 &gt;</text>
<polygon fill="none" stroke="#000000" stroke-width="2" points="232,-39.2 232,-281.2 458,-281.2 458,-39.2 232,-39.2"/>
</a>
</g>
</g>
<!-- challenges -->
<g id="node2" class="node">
<title>challenges</title>
<g id="a_node2"><a xlink:href="../../tables/challenges.html" xlink:title="challenges" target="_top">
<polygon fill="#ffffff" stroke="transparent" points="45.5,-46.7 45.5,-173.7 144.5,-173.7 144.5,-46.7 45.5,-46.7"/>
<polygon fill="#f5f5f5" stroke="transparent" points="46,-150.2 46,-173.2 145,-173.2 145,-150.2 46,-150.2"/>
<polygon fill="none" stroke="#000000" points="46,-150.2 46,-173.2 145,-173.2 145,-150.2 46,-150.2"/>
<text text-anchor="start" x="51" y="-159.3" font-family="Helvetica,sans-Serif" font-weight="bold" font-size="11.00" fill="#000000">challenges</text>
<text text-anchor="start" x="110.0437" y="-158.3" font-family="Helvetica,sans-Serif" font-size="11.00" fill="#000000">[table]</text>
<polygon fill="none" stroke="#000000" points="46,-128.2 46,-150.2 145,-150.2 145,-128.2 46,-128.2"/>
<image xlink:href="../../images/primaryKeys.png" width="11px" height="12px" preserveAspectRatio="xMinYMin meet" x="51" y="-145.2"/>
<text text-anchor="start" x="66" y="-135.3" font-family="Helvetica,sans-Serif" font-size="11.00" fill="#000000">id</text>
<polygon fill="#ffffff" stroke="transparent" points="46,-106.2 46,-128.2 145,-128.2 145,-106.2 46,-106.2"/>
<polygon fill="none" stroke="#000000" points="46,-106.2 46,-128.2 145,-128.2 145,-106.2 46,-106.2"/>
<image xlink:href="../../images/foreignKeys.png" width="11px" height="12px" preserveAspectRatio="xMinYMin meet" x="51" y="-123.2"/>
<text text-anchor="start" x="66" y="-113.3" font-family="Helvetica,sans-Serif" font-size="11.00" fill="#000000">gym_id</text>
<polygon fill="#ffffff" stroke="transparent" points="46,-84.2 46,-106.2 145,-106.2 145,-84.2 46,-84.2"/>
<polygon fill="none" stroke="#000000" points="46,-84.2 46,-106.2 145,-106.2 145,-84.2 46,-84.2"/>
<image xlink:href="../../images/foreignKeys.png" width="11px" height="12px" preserveAspectRatio="xMinYMin meet" x="51" y="-101.2"/>
<text text-anchor="start" x="66" y="-91.3" font-family="Helvetica,sans-Serif" font-size="11.00" fill="#000000">class_id</text>
<polygon fill="none" stroke="#000000" points="46,-65.2 46,-84.2 145,-84.2 145,-65.2 46,-65.2"/>
<text text-anchor="start" x="49" y="-71.3" font-family="Helvetica,sans-Serif" font-size="11.00" fill="#000000">...</text>
<polygon fill="#ffffff" stroke="transparent" points="46,-46.2 46,-65.2 76,-65.2 76,-46.2 46,-46.2"/>
<polygon fill="none" stroke="#000000" points="46,-46.2 46,-65.2 76,-65.2 76,-46.2 46,-46.2"/>
<text text-anchor="start" x="49" y="-52.3" font-family="Helvetica,sans-Serif" font-size="11.00" fill="#000000">&lt; 2</text>
<polygon fill="#ffffff" stroke="transparent" points="76,-46.2 76,-65.2 119,-65.2 119,-46.2 76,-46.2"/>
<polygon fill="none" stroke="#000000" points="76,-46.2 76,-65.2 119,-65.2 119,-46.2 76,-46.2"/>
<text text-anchor="start" x="83.6105" y="-52.3" font-family="Helvetica,sans-Serif" font-size="11.00" fill="#000000">0 rows</text>
<polygon fill="#ffffff" stroke="transparent" points="119,-46.2 119,-65.2 145,-65.2 145,-46.2 119,-46.2"/>
<polygon fill="none" stroke="#000000" points="119,-46.2 119,-65.2 145,-65.2 145,-46.2 119,-46.2"/>
<text text-anchor="start" x="126.4053" y="-52.3" font-family="Helvetica,sans-Serif" font-size="11.00" fill="#000000">1 &gt;</text>
</a>
</g>
</g>
<!-- completed_challenges&#45;&gt;challenges -->
<g id="edge1" class="edge">
<title>completed_challenges:w&#45;&gt;challenges:e</title>
<path fill="none" stroke="#000000" d="M218.6571,-199.9578C186.0349,-188.735 187.6518,-139.2 145,-139.2"/>
<polygon fill="#000000" stroke="#000000" points="225.096,-200.9643 232.444,-205.7568 229.048,-201.5822 233,-202.2 233,-202.2 233,-202.2 229.048,-201.5822 233.556,-198.6432 225.096,-200.9643 225.096,-200.9643"/>
<ellipse fill="none" stroke="#000000" cx="221.9344" cy="-200.4701" rx="3.2" ry="3.2"/>
</g>
<!-- gymnasts -->
<g id="node3" class="node">
<title>gymnasts</title>
<g id="a_node3"><a xlink:href="../../tables/gymnasts.html" xlink:title="gymnasts" target="_top">
<polygon fill="#ffffff" stroke="transparent" points="8,-194.7 8,-321.7 182,-321.7 182,-194.7 8,-194.7"/>
<polygon fill="#f5f5f5" stroke="transparent" points="8,-298.2 8,-321.2 182,-321.2 182,-298.2 8,-298.2"/>
<polygon fill="none" stroke="#000000" points="8,-298.2 8,-321.2 182,-321.2 182,-298.2 8,-298.2"/>
<text text-anchor="start" x="13" y="-307.3" font-family="Helvetica,sans-Serif" font-weight="bold" font-size="11.00" fill="#000000">gymnasts</text>
<text text-anchor="start" x="147.0437" y="-306.3" font-family="Helvetica,sans-Serif" font-size="11.00" fill="#000000">[table]</text>
<polygon fill="none" stroke="#000000" points="8,-276.2 8,-298.2 182,-298.2 182,-276.2 8,-276.2"/>
<image xlink:href="../../images/primaryKeys.png" width="11px" height="12px" preserveAspectRatio="xMinYMin meet" x="13" y="-293.2"/>
<text text-anchor="start" x="28" y="-283.3" font-family="Helvetica,sans-Serif" font-size="11.00" fill="#000000">id</text>
<polygon fill="#ffffff" stroke="transparent" points="8,-254.2 8,-276.2 182,-276.2 182,-254.2 8,-254.2"/>
<polygon fill="none" stroke="#000000" points="8,-254.2 8,-276.2 182,-276.2 182,-254.2 8,-254.2"/>
<image xlink:href="../../images/foreignKeys.png" width="11px" height="12px" preserveAspectRatio="xMinYMin meet" x="13" y="-271.2"/>
<text text-anchor="start" x="28" y="-261.3" font-family="Helvetica,sans-Serif" font-size="11.00" fill="#000000">gyms_has_users_gyms_id</text>
<polygon fill="#ffffff" stroke="transparent" points="8,-232.2 8,-254.2 182,-254.2 182,-232.2 8,-232.2"/>
<polygon fill="none" stroke="#000000" points="8,-232.2 8,-254.2 182,-254.2 182,-232.2 8,-232.2"/>
<image xlink:href="../../images/foreignKeys.png" width="11px" height="12px" preserveAspectRatio="xMinYMin meet" x="13" y="-249.2"/>
<text text-anchor="start" x="28" y="-239.3" font-family="Helvetica,sans-Serif" font-size="11.00" fill="#000000">gyms_has_users_users_id</text>
<polygon fill="none" stroke="#000000" points="8,-213.2 8,-232.2 182,-232.2 182,-213.2 8,-213.2"/>
<text text-anchor="start" x="11" y="-219.3" font-family="Helvetica,sans-Serif" font-size="11.00" fill="#000000">...</text>
<polygon fill="#ffffff" stroke="transparent" points="8,-194.2 8,-213.2 76,-213.2 76,-194.2 8,-194.2"/>
<polygon fill="none" stroke="#000000" points="8,-194.2 8,-213.2 76,-213.2 76,-194.2 8,-194.2"/>
<text text-anchor="start" x="11" y="-200.3" font-family="Helvetica,sans-Serif" font-size="11.00" fill="#000000">&lt; 2</text>
<polygon fill="#ffffff" stroke="transparent" points="76,-194.2 76,-213.2 137,-213.2 137,-194.2 76,-194.2"/>
<polygon fill="none" stroke="#000000" points="76,-194.2 76,-213.2 137,-213.2 137,-194.2 76,-194.2"/>
<text text-anchor="start" x="101.6105" y="-200.3" font-family="Helvetica,sans-Serif" font-size="11.00" fill="#000000">0 rows</text>
<polygon fill="#ffffff" stroke="transparent" points="137,-194.2 137,-213.2 182,-213.2 182,-194.2 137,-194.2"/>
<polygon fill="none" stroke="#000000" points="137,-194.2 137,-213.2 182,-213.2 182,-194.2 137,-194.2"/>
<text text-anchor="start" x="163.4053" y="-200.3" font-family="Helvetica,sans-Serif" font-size="11.00" fill="#000000">3 &gt;</text>
</a>
</g>
</g>
<!-- completed_challenges&#45;&gt;gymnasts -->
<g id="edge2" class="edge">
<title>completed_challenges:w&#45;&gt;gymnasts:e</title>
<path fill="none" stroke="#000000" d="M218.9033,-229.1435C202.525,-243.9952 211.8329,-287.2 182,-287.2"/>
<polygon fill="#000000" stroke="#000000" points="225.4507,-226.8474 234.1913,-227.5972 229.2254,-225.5237 233,-224.2 233,-224.2 233,-224.2 229.2254,-225.5237 231.8087,-220.8028 225.4507,-226.8474 225.4507,-226.8474"/>
<ellipse fill="none" stroke="#000000" cx="222.431" cy="-227.9064" rx="3.2" ry="3.2"/>
</g>
</g>
</svg>
