<?xml version="1.0" encoding="UTF-8" standalone="no"?>
<!DOCTYPE svg PUBLIC "-//W3C//DTD SVG 1.1//EN"
 "http://www.w3.org/Graphics/SVG/1.1/DTD/svg11.dtd">
<!-- Generated by graphviz version 2.40.1 (20161225.0304)
 -->
<!-- Title: twoDegreesRelationshipsDiagram Pages: 1 -->
<svg width="819pt" height="475pt"
 viewBox="0.00 0.00 819.00 474.70" xmlns="http://www.w3.org/2000/svg" xmlns:xlink="http://www.w3.org/1999/xlink">
<g id="graph0" class="graph" transform="scale(1 1) rotate(0) translate(4 470.7)">
<title>twoDegreesRelationshipsDiagram</title>
<polygon fill="#ffffff" stroke="transparent" points="-4,4 -4,-470.7 815,-470.7 815,4 -4,4"/>
<text text-anchor="middle" x="72.4936" y="-7.3" font-family="Helvetica,sans-Serif" font-size="11.00" fill="#000000">Generated by SchemaSpy</text>
<!-- challenges -->
<g id="node1" class="node">
<title>challenges</title>
<g id="a_node1"><a xlink:href="../../tables/challenges.html" xlink:title="challenges" target="_top">
<polygon fill="#ffffff" stroke="transparent" points="152.5,-319.2 152.5,-380.2 247.5,-380.2 247.5,-319.2 152.5,-319.2"/>
<polygon fill="#f5f5f5" stroke="transparent" points="153,-356.7 153,-379.7 248,-379.7 248,-356.7 153,-356.7"/>
<polygon fill="none" stroke="#000000" points="153,-356.7 153,-379.7 248,-379.7 248,-356.7 153,-356.7"/>
<text text-anchor="start" x="157.7144" y="-365.8" font-family="Helvetica,sans-Serif" font-weight="bold" font-size="11.00" fill="#000000">challenges</text>
<text text-anchor="start" x="213.5219" y="-364.8" font-family="Helvetica,sans-Serif" font-size="11.00" fill="#000000">[table]</text>
<polygon fill="none" stroke="#000000" points="153,-337.7 153,-356.7 248,-356.7 248,-337.7 153,-337.7"/>
<text text-anchor="start" x="156" y="-343.8" font-family="Helvetica,sans-Serif" font-size="11.00" fill="#000000">...</text>
<polygon fill="#ffffff" stroke="transparent" points="153,-318.7 153,-337.7 181,-337.7 181,-318.7 153,-318.7"/>
<polygon fill="none" stroke="#000000" points="153,-318.7 153,-337.7 181,-337.7 181,-318.7 153,-318.7"/>
<text text-anchor="start" x="156" y="-324.8" font-family="Helvetica,sans-Serif" font-size="11.00" fill="#000000">&lt; 2</text>
<polygon fill="#ffffff" stroke="transparent" points="181,-318.7 181,-337.7 223,-337.7 223,-318.7 181,-318.7"/>
<polygon fill="none" stroke="#000000" points="181,-318.7 181,-337.7 223,-337.7 223,-318.7 181,-318.7"/>
<text text-anchor="start" x="187.6105" y="-324.8" font-family="Helvetica,sans-Serif" font-size="11.00" fill="#000000">0 rows</text>
<polygon fill="#ffffff" stroke="transparent" points="223,-318.7 223,-337.7 248,-337.7 248,-318.7 223,-318.7"/>
<polygon fill="none" stroke="#000000" points="223,-318.7 223,-337.7 248,-337.7 248,-318.7 223,-318.7"/>
<text text-anchor="start" x="229.4053" y="-324.8" font-family="Helvetica,sans-Serif" font-size="11.00" fill="#000000">2 &gt;</text>
</a>
</g>
</g>
<!-- classes -->
<g id="node2" class="node">
<title>classes</title>
<g id="a_node2"><a xlink:href="../../tables/classes.html" xlink:title="classes" target="_top">
<polygon fill="#ffffff" stroke="transparent" points="8,-319.2 8,-380.2 88,-380.2 88,-319.2 8,-319.2"/>
<polygon fill="#f5f5f5" stroke="transparent" points="8,-356.7 8,-379.7 88,-379.7 88,-356.7 8,-356.7"/>
<polygon fill="none" stroke="#000000" points="8,-356.7 8,-379.7 88,-379.7 88,-356.7 8,-356.7"/>
<text text-anchor="start" x="13" y="-365.8" font-family="Helvetica,sans-Serif" font-weight="bold" font-size="11.00" fill="#000000">classes</text>
<text text-anchor="start" x="53.5219" y="-364.8" font-family="Helvetica,sans-Serif" font-size="11.00" fill="#000000">[table]</text>
<polygon fill="none" stroke="#000000" points="8,-337.7 8,-356.7 88,-356.7 88,-337.7 8,-337.7"/>
<text text-anchor="start" x="11" y="-343.8" font-family="Helvetica,sans-Serif" font-size="11.00" fill="#000000">...</text>
<polygon fill="#ffffff" stroke="transparent" points="8,-318.7 8,-337.7 29,-337.7 29,-318.7 8,-318.7"/>
<polygon fill="none" stroke="#000000" points="8,-318.7 8,-337.7 29,-337.7 29,-318.7 8,-318.7"/>
<text text-anchor="start" x="10.7027" y="-324.8" font-family="Helvetica,sans-Serif" font-size="11.00" fill="#000000">&lt; 1</text>
<polygon fill="#ffffff" stroke="transparent" points="29,-318.7 29,-337.7 67,-337.7 67,-318.7 29,-318.7"/>
<polygon fill="none" stroke="#000000" points="29,-318.7 29,-337.7 67,-337.7 67,-318.7 29,-318.7"/>
<text text-anchor="start" x="31.8053" y="-324.8" font-family="Helvetica,sans-Serif" font-size="11.00" fill="#000000">0 rows</text>
<polygon fill="#ffffff" stroke="transparent" points="67,-318.7 67,-337.7 88,-337.7 88,-318.7 67,-318.7"/>
<polygon fill="none" stroke="#000000" points="67,-318.7 67,-337.7 88,-337.7 88,-318.7 67,-318.7"/>
<text text-anchor="start" x="69.7027" y="-324.8" font-family="Helvetica,sans-Serif" font-size="11.00" fill="#000000">4 &gt;</text>
</a>
</g>
</g>
<!-- challenges&#45;&gt;classes -->
<g id="edge1" class="edge">
<title>challenges:w&#45;&gt;classes:e</title>
<path fill="none" stroke="#000000" d="M138.4889,-346.7C120.5526,-346.7 111.3594,-346.7 88,-346.7"/>
<polygon fill="#000000" stroke="#000000" points="145,-346.7001 153,-350.3 149,-346.7 153,-346.7 153,-346.7 153,-346.7 149,-346.7 153,-343.1 145,-346.7001 145,-346.7001"/>
<ellipse fill="none" stroke="#000000" cx="141.8" cy="-346.7001" rx="3.2" ry="3.2"/>
</g>
<!-- completed_daily_challenges -->
<g id="node3" class="node">
<title>completed_daily_challenges</title>
<g id="a_node3"><a xlink:href="../../tables/completed_daily_challenges.html" xlink:title="completed_daily_challenges" target="_top">
<polygon fill="#ffffff" stroke="transparent" points="535,-284.7 535,-462.7 803,-462.7 803,-284.7 535,-284.7"/>
<polygon fill="#f5f5f5" stroke="transparent" points="537,-437.7 537,-460.7 801,-460.7 801,-437.7 537,-437.7"/>
<polygon fill="none" stroke="#000000" points="537,-437.7 537,-460.7 801,-460.7 801,-437.7 537,-437.7"/>
<text text-anchor="start" x="542" y="-446.8" font-family="Helvetica,sans-Serif" font-weight="bold" font-size="11.00" fill="#000000">completed_daily_challenges</text>
<text text-anchor="start" x="766.0437" y="-445.8" font-family="Helvetica,sans-Serif" font-size="11.00" fill="#000000">[table]</text>
<polygon fill="none" stroke="#000000" points="537,-415.7 537,-437.7 740,-437.7 740,-415.7 537,-415.7"/>
<image xlink:href="../../images/primaryKeys.png" width="11px" height="12px" preserveAspectRatio="xMinYMin meet" x="542" y="-432.7"/>
<text text-anchor="start" x="557" y="-422.8" font-family="Helvetica,sans-Serif" font-size="11.00" fill="#000000">gymnasts_id</text>
<polygon fill="none" stroke="#000000" points="740,-415.7 740,-437.7 801,-437.7 801,-415.7 740,-415.7"/>
<text text-anchor="start" x="743" y="-423.4" font-family="Helvetica,sans-Serif" font-size="11.00" fill="#000000">int[10]</text>
<polygon fill="none" stroke="#000000" points="537,-393.7 537,-415.7 740,-415.7 740,-393.7 537,-393.7"/>
<image xlink:href="../../images/primaryKeys.png" width="11px" height="12px" preserveAspectRatio="xMinYMin meet" x="542" y="-410.7"/>
<text text-anchor="start" x="557" y="-400.8" font-family="Helvetica,sans-Serif" font-size="11.00" fill="#000000">daily_challenges_classes_id</text>
<polygon fill="none" stroke="#000000" points="740,-393.7 740,-415.7 801,-415.7 801,-393.7 740,-393.7"/>
<text text-anchor="start" x="743" y="-401.4" font-family="Helvetica,sans-Serif" font-size="11.00" fill="#000000">bigint[19]</text>
<polygon fill="none" stroke="#000000" points="537,-371.7 537,-393.7 740,-393.7 740,-371.7 537,-371.7"/>
<image xlink:href="../../images/primaryKeys.png" width="11px" height="12px" preserveAspectRatio="xMinYMin meet" x="542" y="-388.7"/>
<text text-anchor="start" x="557" y="-378.8" font-family="Helvetica,sans-Serif" font-size="11.00" fill="#000000">daily_challenges_challenges_id</text>
<polygon fill="none" stroke="#000000" points="740,-371.7 740,-393.7 801,-393.7 801,-371.7 740,-371.7"/>
<text text-anchor="start" x="743" y="-379.4" font-family="Helvetica,sans-Serif" font-size="11.00" fill="#000000">bigint[19]</text>
<polygon fill="none" stroke="#000000" points="537,-349.7 537,-371.7 740,-371.7 740,-349.7 537,-349.7"/>
<image xlink:href="../../images/primaryKeys.png" width="11px" height="12px" preserveAspectRatio="xMinYMin meet" x="542" y="-366.7"/>
<text text-anchor="start" x="557" y="-356.8" font-family="Helvetica,sans-Serif" font-size="11.00" fill="#000000">daily_challenges_date</text>
<polygon fill="none" stroke="#000000" points="740,-349.7 740,-371.7 801,-371.7 801,-349.7 740,-349.7"/>
<text text-anchor="start" x="743" y="-357.4" font-family="Helvetica,sans-Serif" font-size="11.00" fill="#000000">date[10]</text>
<polygon fill="none" stroke="#000000" points="537,-327.7 537,-349.7 740,-349.7 740,-327.7 537,-327.7"/>
<text text-anchor="start" x="557" y="-334.8" font-family="Helvetica,sans-Serif" font-size="11.00" fill="#000000">date_of_completation</text>
<polygon fill="none" stroke="#000000" points="740,-327.7 740,-349.7 801,-349.7 801,-327.7 740,-327.7"/>
<text text-anchor="start" x="743" y="-335.4" font-family="Helvetica,sans-Serif" font-size="11.00" fill="#000000">date[10]</text>
<polygon fill="none" stroke="#000000" points="537,-305.7 537,-327.7 740,-327.7 740,-305.7 537,-305.7"/>
<text text-anchor="start" x="557" y="-312.8" font-family="Helvetica,sans-Serif" font-size="11.00" fill="#000000">Interactions</text>
<polygon fill="none" stroke="#000000" points="740,-305.7 740,-327.7 801,-327.7 801,-305.7 740,-305.7"/>
<text text-anchor="start" x="742.994" y="-313.4" font-family="Helvetica,sans-Serif" font-size="11.00" fill="#000000">varchar[45]</text>
<polygon fill="#ffffff" stroke="transparent" points="537,-286.7 537,-305.7 630,-305.7 630,-286.7 537,-286.7"/>
<polygon fill="none" stroke="#000000" points="537,-286.7 537,-305.7 630,-305.7 630,-286.7 537,-286.7"/>
<text text-anchor="start" x="540" y="-292.8" font-family="Helvetica,sans-Serif" font-size="11.00" fill="#000000">&lt; 4</text>
<polygon fill="#ffffff" stroke="transparent" points="630,-286.7 630,-305.7 740,-305.7 740,-286.7 630,-286.7"/>
<polygon fill="none" stroke="#000000" points="630,-286.7 630,-305.7 740,-305.7 740,-286.7 630,-286.7"/>
<text text-anchor="start" x="704.6105" y="-292.8" font-family="Helvetica,sans-Serif" font-size="11.00" fill="#000000">0 rows</text>
<polygon fill="#ffffff" stroke="transparent" points="740,-286.7 740,-305.7 801,-305.7 801,-286.7 740,-286.7"/>
<polygon fill="none" stroke="#000000" points="740,-286.7 740,-305.7 801,-305.7 801,-286.7 740,-286.7"/>
<text text-anchor="start" x="782.4053" y="-292.8" font-family="Helvetica,sans-Serif" font-size="11.00" fill="#000000">0 &gt;</text>
<polygon fill="none" stroke="#000000" stroke-width="2" points="536,-285.7 536,-461.7 802,-461.7 802,-285.7 536,-285.7"/>
</a>
</g>
</g>
<!-- daily_challenges -->
<g id="node4" class="node">
<title>daily_challenges</title>
<g id="a_node4"><a xlink:href="../../tables/daily_challenges.html" xlink:title="daily_challenges" target="_top">
<polygon fill="#ffffff" stroke="transparent" points="337,-330.7 337,-438.7 461,-438.7 461,-330.7 337,-330.7"/>
<polygon fill="#f5f5f5" stroke="transparent" points="337,-415.7 337,-438.7 461,-438.7 461,-415.7 337,-415.7"/>
<polygon fill="none" stroke="#000000" points="337,-415.7 337,-438.7 461,-438.7 461,-415.7 337,-415.7"/>
<text text-anchor="start" x="341.8512" y="-424.8" font-family="Helvetica,sans-Serif" font-weight="bold" font-size="11.00" fill="#000000">daily_challenges</text>
<text text-anchor="start" x="426.5219" y="-423.8" font-family="Helvetica,sans-Serif" font-size="11.00" fill="#000000">[table]</text>
<polygon fill="none" stroke="#000000" points="337,-393.7 337,-415.7 461,-415.7 461,-393.7 337,-393.7"/>
<image xlink:href="../../images/primaryKeys.png" width="11px" height="12px" preserveAspectRatio="xMinYMin meet" x="342" y="-410.7"/>
<text text-anchor="start" x="361" y="-400.8" font-family="Helvetica,sans-Serif" font-size="11.00" fill="#000000">classes_id</text>
<polygon fill="none" stroke="#000000" points="337,-371.7 337,-393.7 461,-393.7 461,-371.7 337,-371.7"/>
<image xlink:href="../../images/primaryKeys.png" width="11px" height="12px" preserveAspectRatio="xMinYMin meet" x="342" y="-388.7"/>
<text text-anchor="start" x="361" y="-378.8" font-family="Helvetica,sans-Serif" font-size="11.00" fill="#000000">challenges_id</text>
<polygon fill="none" stroke="#000000" points="337,-349.7 337,-371.7 461,-371.7 461,-349.7 337,-349.7"/>
<image xlink:href="../../images/primaryKeys.png" width="11px" height="12px" preserveAspectRatio="xMinYMin meet" x="342" y="-366.7"/>
<text text-anchor="start" x="361" y="-356.8" font-family="Helvetica,sans-Serif" font-size="11.00" fill="#000000">date</text>
<polygon fill="#ffffff" stroke="transparent" points="337,-330.7 337,-349.7 380,-349.7 380,-330.7 337,-330.7"/>
<polygon fill="none" stroke="#000000" points="337,-330.7 337,-349.7 380,-349.7 380,-330.7 337,-330.7"/>
<text text-anchor="start" x="340" y="-336.8" font-family="Helvetica,sans-Serif" font-size="11.00" fill="#000000">&lt; 2</text>
<polygon fill="#ffffff" stroke="transparent" points="380,-330.7 380,-349.7 429,-349.7 429,-330.7 380,-330.7"/>
<polygon fill="none" stroke="#000000" points="380,-330.7 380,-349.7 429,-349.7 429,-330.7 380,-330.7"/>
<text text-anchor="start" x="393.6105" y="-336.8" font-family="Helvetica,sans-Serif" font-size="11.00" fill="#000000">0 rows</text>
<polygon fill="#ffffff" stroke="transparent" points="429,-330.7 429,-349.7 461,-349.7 461,-330.7 429,-330.7"/>
<polygon fill="none" stroke="#000000" points="429,-330.7 429,-349.7 461,-349.7 461,-330.7 429,-330.7"/>
<text text-anchor="start" x="442.4053" y="-336.8" font-family="Helvetica,sans-Serif" font-size="11.00" fill="#000000">3 &gt;</text>
</a>
</g>
</g>
<!-- completed_daily_challenges&#45;&gt;daily_challenges -->
<g id="edge2" class="edge">
<title>completed_daily_challenges:w&#45;&gt;daily_challenges:e</title>
<path fill="none" stroke="#000000" d="M522.5121,-382.7C499.8676,-382.7 489.3681,-382.7 461,-382.7"/>
<polygon fill="#000000" stroke="#000000" points="529,-382.7001 537,-386.3 533,-382.7 537,-382.7 537,-382.7 537,-382.7 533,-382.7 537,-379.1 529,-382.7001 529,-382.7001"/>
<ellipse fill="none" stroke="#000000" cx="525.8" cy="-382.7001" rx="3.2" ry="3.2"/>
</g>
<!-- completed_daily_challenges&#45;&gt;daily_challenges -->
<g id="edge3" class="edge">
<title>completed_daily_challenges:w&#45;&gt;daily_challenges:e</title>
<path fill="none" stroke="#000000" d="M522.5121,-404.7C499.8676,-404.7 489.3681,-404.7 461,-404.7"/>
<polygon fill="#000000" stroke="#000000" points="529,-404.7001 537,-408.3 533,-404.7 537,-404.7 537,-404.7 537,-404.7 533,-404.7 537,-401.1 529,-404.7001 529,-404.7001"/>
<ellipse fill="none" stroke="#000000" cx="525.8" cy="-404.7001" rx="3.2" ry="3.2"/>
</g>
<!-- completed_daily_challenges&#45;&gt;daily_challenges -->
<g id="edge4" class="edge">
<title>completed_daily_challenges:w&#45;&gt;daily_challenges:e</title>
<path fill="none" stroke="#000000" d="M522.5121,-360.7C499.8676,-360.7 489.3681,-360.7 461,-360.7"/>
<polygon fill="#000000" stroke="#000000" points="529,-360.7001 537,-364.3 533,-360.7 537,-360.7 537,-360.7 537,-360.7 533,-360.7 537,-357.1 529,-360.7001 529,-360.7001"/>
<ellipse fill="none" stroke="#000000" cx="525.8" cy="-360.7001" rx="3.2" ry="3.2"/>
</g>
<!-- gymnasts -->
<g id="node5" class="node">
<title>gymnasts</title>
<g id="a_node5"><a xlink:href="../../tables/gymnasts.html" xlink:title="gymnasts" target="_top">
<polygon fill="#ffffff" stroke="transparent" points="312,-114.2 312,-241.2 486,-241.2 486,-114.2 312,-114.2"/>
<polygon fill="#f5f5f5" stroke="transparent" points="312,-217.7 312,-240.7 486,-240.7 486,-217.7 312,-217.7"/>
<polygon fill="none" stroke="#000000" points="312,-217.7 312,-240.7 486,-240.7 486,-217.7 312,-217.7"/>
<text text-anchor="start" x="317" y="-226.8" font-family="Helvetica,sans-Serif" font-weight="bold" font-size="11.00" fill="#000000">gymnasts</text>
<text text-anchor="start" x="451.0437" y="-225.8" font-family="Helvetica,sans-Serif" font-size="11.00" fill="#000000">[table]</text>
<polygon fill="none" stroke="#000000" points="312,-195.7 312,-217.7 486,-217.7 486,-195.7 312,-195.7"/>
<image xlink:href="../../images/primaryKeys.png" width="11px" height="12px" preserveAspectRatio="xMinYMin meet" x="317" y="-212.7"/>
<text text-anchor="start" x="332" y="-202.8" font-family="Helvetica,sans-Serif" font-size="11.00" fill="#000000">id</text>
<polygon fill="#ffffff" stroke="transparent" points="312,-173.7 312,-195.7 486,-195.7 486,-173.7 312,-173.7"/>
<polygon fill="none" stroke="#000000" points="312,-173.7 312,-195.7 486,-195.7 486,-173.7 312,-173.7"/>
<image xlink:href="../../images/foreignKeys.png" width="11px" height="12px" preserveAspectRatio="xMinYMin meet" x="317" y="-190.7"/>
<text text-anchor="start" x="332" y="-180.8" font-family="Helvetica,sans-Serif" font-size="11.00" fill="#000000">gyms_has_users_gyms_id</text>
<polygon fill="#ffffff" stroke="transparent" points="312,-151.7 312,-173.7 486,-173.7 486,-151.7 312,-151.7"/>
<polygon fill="none" stroke="#000000" points="312,-151.7 312,-173.7 486,-173.7 486,-151.7 312,-151.7"/>
<image xlink:href="../../images/foreignKeys.png" width="11px" height="12px" preserveAspectRatio="xMinYMin meet" x="317" y="-168.7"/>
<text text-anchor="start" x="332" y="-158.8" font-family="Helvetica,sans-Serif" font-size="11.00" fill="#000000">gyms_has_users_users_id</text>
<polygon fill="none" stroke="#000000" points="312,-132.7 312,-151.7 486,-151.7 486,-132.7 312,-132.7"/>
<text text-anchor="start" x="315" y="-138.8" font-family="Helvetica,sans-Serif" font-size="11.00" fill="#000000">...</text>
<polygon fill="#ffffff" stroke="transparent" points="312,-113.7 312,-132.7 380,-132.7 380,-113.7 312,-113.7"/>
<polygon fill="none" stroke="#000000" points="312,-113.7 312,-132.7 380,-132.7 380,-113.7 312,-113.7"/>
<text text-anchor="start" x="315" y="-119.8" font-family="Helvetica,sans-Serif" font-size="11.00" fill="#000000">&lt; 2</text>
<polygon fill="#ffffff" stroke="transparent" points="380,-113.7 380,-132.7 441,-132.7 441,-113.7 380,-113.7"/>
<polygon fill="none" stroke="#000000" points="380,-113.7 380,-132.7 441,-132.7 441,-113.7 380,-113.7"/>
<text text-anchor="start" x="405.6105" y="-119.8" font-family="Helvetica,sans-Serif" font-size="11.00" fill="#000000">0 rows</text>
<polygon fill="#ffffff" stroke="transparent" points="441,-113.7 441,-132.7 486,-132.7 486,-113.7 441,-113.7"/>
<polygon fill="none" stroke="#000000" points="441,-113.7 441,-132.7 486,-132.7 486,-113.7 441,-113.7"/>
<text text-anchor="start" x="467.4053" y="-119.8" font-family="Helvetica,sans-Serif" font-size="11.00" fill="#000000">4 &gt;</text>
</a>
</g>
</g>
<!-- completed_daily_challenges&#45;&gt;gymnasts -->
<g id="edge5" class="edge">
<title>completed_daily_challenges:w&#45;&gt;gymnasts:e</title>
<path fill="none" stroke="#000000" d="M522.6952,-424.7981C452.2593,-403.2955 580.8816,-206.7 486,-206.7"/>
<polygon fill="#000000" stroke="#000000" points="529.0698,-425.6456 536.5255,-430.2686 533.0349,-426.1728 537,-426.7 537,-426.7 537,-426.7 533.0349,-426.1728 537.4745,-423.1314 529.0698,-425.6456 529.0698,-425.6456"/>
<ellipse fill="none" stroke="#000000" cx="525.8977" cy="-425.2238" rx="3.2" ry="3.2"/>
</g>
<!-- daily_challenges&#45;&gt;challenges -->
<g id="edge7" class="edge">
<title>daily_challenges:w&#45;&gt;challenges:e</title>
<path fill="none" stroke="#000000" d="M322.6752,-381.1531C292.806,-374.2625 285.3354,-346.7 248,-346.7"/>
<polygon fill="#000000" stroke="#000000" points="329.0462,-381.8411 336.6135,-386.2792 333.0231,-382.2705 337,-382.7 337,-382.7 337,-382.7 333.0231,-382.2705 337.3865,-379.1208 329.0462,-381.8411 329.0462,-381.8411"/>
<ellipse fill="none" stroke="#000000" cx="325.8647" cy="-381.4975" rx="3.2" ry="3.2"/>
</g>
<!-- daily_challenges&#45;&gt;classes -->
<g id="edge8" class="edge">
<title>daily_challenges:w&#45;&gt;classes:e</title>
<path fill="none" stroke="#000000" d="M322.5807,-404.9091C240.7939,-407.2817 208.1782,-428.3575 129,-390.7 104.8615,-379.2196 114.7296,-346.7 88,-346.7"/>
<polygon fill="#000000" stroke="#000000" points="329.0008,-404.816 337.0522,-408.2996 333.0004,-404.758 337,-404.7 337,-404.7 337,-404.7 333.0004,-404.758 336.9478,-401.1004 329.0008,-404.816 329.0008,-404.816"/>
<ellipse fill="none" stroke="#000000" cx="325.8012" cy="-404.8625" rx="3.2" ry="3.2"/>
</g>
<!-- gyms_has_users -->
<g id="node8" class="node">
<title>gyms_has_users</title>
<g id="a_node8"><a xlink:href="../../tables/gyms_has_users.html" xlink:title="gyms_has_users" target="_top">
<polygon fill="#ffffff" stroke="transparent" points="137,-146.2 137,-207.2 263,-207.2 263,-146.2 137,-146.2"/>
<polygon fill="#f5f5f5" stroke="transparent" points="137,-183.7 137,-206.7 263,-206.7 263,-183.7 137,-183.7"/>
<polygon fill="none" stroke="#000000" points="137,-183.7 137,-206.7 263,-206.7 263,-183.7 137,-183.7"/>
<text text-anchor="start" x="141.936" y="-192.8" font-family="Helvetica,sans-Serif" font-weight="bold" font-size="11.00" fill="#000000">gyms_has_users</text>
<text text-anchor="start" x="228.5219" y="-191.8" font-family="Helvetica,sans-Serif" font-size="11.00" fill="#000000">[table]</text>
<polygon fill="none" stroke="#000000" points="137,-164.7 137,-183.7 263,-183.7 263,-164.7 137,-164.7"/>
<text text-anchor="start" x="140" y="-170.8" font-family="Helvetica,sans-Serif" font-size="11.00" fill="#000000">...</text>
<polygon fill="#ffffff" stroke="transparent" points="137,-145.7 137,-164.7 181,-164.7 181,-145.7 137,-145.7"/>
<polygon fill="none" stroke="#000000" points="137,-145.7 137,-164.7 181,-164.7 181,-145.7 137,-145.7"/>
<text text-anchor="start" x="140" y="-151.8" font-family="Helvetica,sans-Serif" font-size="11.00" fill="#000000">&lt; 2</text>
<polygon fill="#ffffff" stroke="transparent" points="181,-145.7 181,-164.7 230,-164.7 230,-145.7 181,-145.7"/>
<polygon fill="none" stroke="#000000" points="181,-145.7 181,-164.7 230,-164.7 230,-145.7 181,-145.7"/>
<text text-anchor="start" x="194.6105" y="-151.8" font-family="Helvetica,sans-Serif" font-size="11.00" fill="#000000">0 rows</text>
<polygon fill="#ffffff" stroke="transparent" points="230,-145.7 230,-164.7 263,-164.7 263,-145.7 230,-145.7"/>
<polygon fill="none" stroke="#000000" points="230,-145.7 230,-164.7 263,-164.7 263,-145.7 230,-145.7"/>
<text text-anchor="start" x="244.4053" y="-151.8" font-family="Helvetica,sans-Serif" font-size="11.00" fill="#000000">2 &gt;</text>
</a>
</g>
</g>
<!-- gymnasts&#45;&gt;gyms_has_users -->
<g id="edge10" class="edge">
<title>gymnasts:w&#45;&gt;gyms_has_users:e</title>
<path fill="none" stroke="#000000" d="M297.7027,-182.8836C286.2382,-179.7593 279.5655,-173.7 263,-173.7"/>
<polygon fill="#000000" stroke="#000000" points="304.0638,-183.6917 311.5463,-188.2713 308.0319,-184.1958 312,-184.7 312,-184.7 312,-184.7 308.0319,-184.1958 312.4537,-181.1287 304.0638,-183.6917 304.0638,-183.6917"/>
<ellipse fill="none" stroke="#000000" cx="300.8893" cy="-183.2884" rx="3.2" ry="3.2"/>
</g>
<!-- gymnasts&#45;&gt;gyms_has_users -->
<g id="edge11" class="edge">
<title>gymnasts:w&#45;&gt;gyms_has_users:e</title>
<path fill="none" stroke="#000000" d="M297.7027,-164.5164C286.2382,-167.6407 279.5655,-173.7 263,-173.7"/>
<polygon fill="#000000" stroke="#000000" points="304.0638,-163.7083 312.4537,-166.2713 308.0319,-163.2042 312,-162.7 312,-162.7 312,-162.7 308.0319,-163.2042 311.5463,-159.1287 304.0638,-163.7083 304.0638,-163.7083"/>
<ellipse fill="none" stroke="#000000" cx="300.8893" cy="-164.1116" rx="3.2" ry="3.2"/>
</g>
<!-- completed_normal_challenges -->
<g id="node6" class="node">
<title>completed_normal_challenges</title>
<g id="a_node6"><a xlink:href="../../tables/completed_normal_challenges.html" xlink:title="completed_normal_challenges" target="_top">
<polygon fill="#ffffff" stroke="transparent" points="573,-202.2 573,-263.2 765,-263.2 765,-202.2 573,-202.2"/>
<polygon fill="#f5f5f5" stroke="transparent" points="573,-239.7 573,-262.7 765,-262.7 765,-239.7 573,-239.7"/>
<polygon fill="none" stroke="#000000" points="573,-239.7 573,-262.7 765,-262.7 765,-239.7 573,-239.7"/>
<text text-anchor="start" x="577.9277" y="-248.8" font-family="Helvetica,sans-Serif" font-weight="bold" font-size="11.00" fill="#000000">completed_normal_challenges</text>
<text text-anchor="start" x="730.5219" y="-247.8" font-family="Helvetica,sans-Serif" font-size="11.00" fill="#000000">[table]</text>
<polygon fill="none" stroke="#000000" points="573,-220.7 573,-239.7 765,-239.7 765,-220.7 573,-220.7"/>
<text text-anchor="start" x="576" y="-226.8" font-family="Helvetica,sans-Serif" font-size="11.00" fill="#000000">...</text>
<polygon fill="#ffffff" stroke="transparent" points="573,-201.7 573,-220.7 654,-220.7 654,-201.7 573,-201.7"/>
<polygon fill="none" stroke="#000000" points="573,-201.7 573,-220.7 654,-220.7 654,-201.7 573,-201.7"/>
<text text-anchor="start" x="576" y="-207.8" font-family="Helvetica,sans-Serif" font-size="11.00" fill="#000000">&lt; 3</text>
<polygon fill="#ffffff" stroke="transparent" points="654,-201.7 654,-220.7 722,-220.7 722,-201.7 654,-201.7"/>
<polygon fill="none" stroke="#000000" points="654,-201.7 654,-220.7 722,-220.7 722,-201.7 654,-201.7"/>
<text text-anchor="start" x="686.6105" y="-207.8" font-family="Helvetica,sans-Serif" font-size="11.00" fill="#000000">0 rows</text>
<polygon fill="#ffffff" stroke="transparent" points="722,-201.7 722,-220.7 765,-220.7 765,-201.7 722,-201.7"/>
<polygon fill="none" stroke="#000000" points="722,-201.7 722,-220.7 765,-220.7 765,-201.7 722,-201.7"/>
<text text-anchor="start" x="755.8862" y="-207.8" font-family="Helvetica,sans-Serif" font-size="11.00" fill="#000000"> &#160;</text>
</a>
</g>
</g>
<!-- completed_normal_challenges&#45;&gt;gymnasts -->
<g id="edge6" class="edge">
<title>completed_normal_challenges:w&#45;&gt;gymnasts:e</title>
<path fill="none" stroke="#000000" d="M558.2769,-228.5278C530.4716,-223.8409 520.527,-206.7 486,-206.7"/>
<polygon fill="#000000" stroke="#000000" points="565.0252,-229.065 572.7143,-233.2886 569.0126,-229.3825 573,-229.7 573,-229.7 573,-229.7 569.0126,-229.3825 573.2857,-226.1114 565.0252,-229.065 565.0252,-229.065"/>
<ellipse fill="none" stroke="#000000" cx="561.8353" cy="-228.811" rx="3.2" ry="3.2"/>
</g>
<!-- gymnast_has_skills -->
<g id="node7" class="node">
<title>gymnast_has_skills</title>
<g id="a_node7"><a xlink:href="../../tables/gymnast_has_skills.html" xlink:title="gymnast_has_skills" target="_top">
<polygon fill="#ffffff" stroke="transparent" points="600,-120.2 600,-181.2 738,-181.2 738,-120.2 600,-120.2"/>
<polygon fill="#f5f5f5" stroke="transparent" points="600,-157.7 600,-180.7 738,-180.7 738,-157.7 600,-157.7"/>
<polygon fill="none" stroke="#000000" points="600,-157.7 600,-180.7 738,-180.7 738,-157.7 600,-157.7"/>
<text text-anchor="start" x="604.8271" y="-166.8" font-family="Helvetica,sans-Serif" font-weight="bold" font-size="11.00" fill="#000000">gymnast_has_skills</text>
<text text-anchor="start" x="703.5219" y="-165.8" font-family="Helvetica,sans-Serif" font-size="11.00" fill="#000000">[table]</text>
<polygon fill="none" stroke="#000000" points="600,-138.7 600,-157.7 738,-157.7 738,-138.7 600,-138.7"/>
<text text-anchor="start" x="603" y="-144.8" font-family="Helvetica,sans-Serif" font-size="11.00" fill="#000000">...</text>
<polygon fill="#ffffff" stroke="transparent" points="600,-119.7 600,-138.7 654,-138.7 654,-119.7 600,-119.7"/>
<polygon fill="none" stroke="#000000" points="600,-119.7 600,-138.7 654,-138.7 654,-119.7 600,-119.7"/>
<text text-anchor="start" x="603" y="-125.8" font-family="Helvetica,sans-Serif" font-size="11.00" fill="#000000">&lt; 2</text>
<polygon fill="#ffffff" stroke="transparent" points="654,-119.7 654,-138.7 709,-138.7 709,-119.7 654,-119.7"/>
<polygon fill="none" stroke="#000000" points="654,-119.7 654,-138.7 709,-138.7 709,-119.7 654,-119.7"/>
<text text-anchor="start" x="673.6105" y="-125.8" font-family="Helvetica,sans-Serif" font-size="11.00" fill="#000000">0 rows</text>
<polygon fill="#ffffff" stroke="transparent" points="709,-119.7 709,-138.7 738,-138.7 738,-119.7 709,-119.7"/>
<polygon fill="none" stroke="#000000" points="709,-119.7 709,-138.7 738,-138.7 738,-119.7 709,-119.7"/>
<text text-anchor="start" x="728.8862" y="-125.8" font-family="Helvetica,sans-Serif" font-size="11.00" fill="#000000"> &#160;</text>
</a>
</g>
</g>
<!-- gymnast_has_skills&#45;&gt;gymnasts -->
<g id="edge9" class="edge">
<title>gymnast_has_skills:w&#45;&gt;gymnasts:e</title>
<path fill="none" stroke="#000000" d="M585.6045,-151.214C555.1942,-163.9156 510.2909,-206.7 486,-206.7"/>
<polygon fill="#000000" stroke="#000000" points="592.2282,-149.5972 600.8537,-151.1973 596.1141,-148.6486 600,-147.7 600,-147.7 600,-147.7 596.1141,-148.6486 599.1463,-144.2027 592.2282,-149.5972 592.2282,-149.5972"/>
<ellipse fill="none" stroke="#000000" cx="589.1195" cy="-150.3561" rx="3.2" ry="3.2"/>
</g>
<!-- gymnasts_has_classes -->
<g id="node9" class="node">
<title>gymnasts_has_classes</title>
<g id="a_node9"><a xlink:href="../../tables/gymnasts_has_classes.html" xlink:title="gymnasts_has_classes" target="_top">
<polygon fill="#ffffff" stroke="transparent" points="591,-38.2 591,-99.2 747,-99.2 747,-38.2 591,-38.2"/>
<polygon fill="#f5f5f5" stroke="transparent" points="591,-75.7 591,-98.7 747,-98.7 747,-75.7 591,-75.7"/>
<polygon fill="none" stroke="#000000" points="591,-75.7 591,-98.7 747,-98.7 747,-75.7 591,-75.7"/>
<text text-anchor="start" x="595.6531" y="-84.8" font-family="Helvetica,sans-Serif" font-weight="bold" font-size="11.00" fill="#000000">gymnasts_has_classes</text>
<text text-anchor="start" x="712.5219" y="-83.8" font-family="Helvetica,sans-Serif" font-size="11.00" fill="#000000">[table]</text>
<polygon fill="none" stroke="#000000" points="591,-56.7 591,-75.7 747,-75.7 747,-56.7 591,-56.7"/>
<text text-anchor="start" x="594" y="-62.8" font-family="Helvetica,sans-Serif" font-size="11.00" fill="#000000">...</text>
<polygon fill="#ffffff" stroke="transparent" points="591,-37.7 591,-56.7 654,-56.7 654,-37.7 591,-37.7"/>
<polygon fill="none" stroke="#000000" points="591,-37.7 591,-56.7 654,-56.7 654,-37.7 591,-37.7"/>
<text text-anchor="start" x="594" y="-43.8" font-family="Helvetica,sans-Serif" font-size="11.00" fill="#000000">&lt; 2</text>
<polygon fill="#ffffff" stroke="transparent" points="654,-37.7 654,-56.7 713,-56.7 713,-37.7 654,-37.7"/>
<polygon fill="none" stroke="#000000" points="654,-37.7 654,-56.7 713,-56.7 713,-37.7 654,-37.7"/>
<text text-anchor="start" x="677.6105" y="-43.8" font-family="Helvetica,sans-Serif" font-size="11.00" fill="#000000">0 rows</text>
<polygon fill="#ffffff" stroke="transparent" points="713,-37.7 713,-56.7 747,-56.7 747,-37.7 713,-37.7"/>
<polygon fill="none" stroke="#000000" points="713,-37.7 713,-56.7 747,-56.7 747,-37.7 713,-37.7"/>
<text text-anchor="start" x="737.8862" y="-43.8" font-family="Helvetica,sans-Serif" font-size="11.00" fill="#000000"> &#160;</text>
</a>
</g>
</g>
<!-- gymnasts_has_classes&#45;&gt;classes -->
<g id="edge12" class="edge">
<title>gymnasts_has_classes:w&#45;&gt;classes:e</title>
<path fill="none" stroke="#000000" d="M576.5624,-65.5785C378.3008,-62.2578 273.1989,6.9125 129,-135.7 61.0762,-202.8765 183.5318,-346.7 88,-346.7"/>
<polygon fill="#000000" stroke="#000000" points="583.0003,-65.6326 590.9697,-69.2999 587.0001,-65.6663 591,-65.7 591,-65.7 591,-65.7 587.0001,-65.6663 591.0303,-62.1001 583.0003,-65.6326 583.0003,-65.6326"/>
<ellipse fill="none" stroke="#000000" cx="579.8004" cy="-65.6057" rx="3.2" ry="3.2"/>
</g>
<!-- gymnasts_has_classes&#45;&gt;gymnasts -->
<g id="edge13" class="edge">
<title>gymnasts_has_classes:w&#45;&gt;gymnasts:e</title>
<path fill="none" stroke="#000000" d="M576.63,-66.9339C553.7412,-71.3229 545.4085,-87.1306 527,-109.7 497.4171,-145.9694 532.804,-206.7 486,-206.7"/>
<polygon fill="#000000" stroke="#000000" points="583.0293,-66.3845 591.308,-69.2868 587.0147,-66.0422 591,-65.7 591,-65.7 591,-65.7 587.0147,-66.0422 590.692,-62.1132 583.0293,-66.3845 583.0293,-66.3845"/>
<ellipse fill="none" stroke="#000000" cx="579.8411" cy="-66.6583" rx="3.2" ry="3.2"/>
</g>
</g>
</svg>
