<?xml version="1.0" encoding="UTF-8" standalone="no"?>
<!DOCTYPE svg PUBLIC "-//W3C//DTD SVG 1.1//EN"
 "http://www.w3.org/Graphics/SVG/1.1/DTD/svg11.dtd">
<!-- Generated by graphviz version 2.40.1 (20161225.0304)
 -->
<!-- Title: oneDegreeRelationshipsDiagram Pages: 1 -->
<svg width="559pt" height="331pt"
 viewBox="0.00 0.00 559.00 330.70" xmlns="http://www.w3.org/2000/svg" xmlns:xlink="http://www.w3.org/1999/xlink">
<g id="graph0" class="graph" transform="scale(1 1) rotate(0) translate(4 326.7)">
<title>oneDegreeRelationshipsDiagram</title>
<polygon fill="#ffffff" stroke="transparent" points="-4,4 -4,-326.7 555,-326.7 555,4 -4,4"/>
<text text-anchor="middle" x="72.4936" y="-7.3" font-family="Helvetica,sans-Serif" font-size="11.00" fill="#000000">Generated by SchemaSpy</text>
<!-- completed_normal_challenges -->
<g id="node1" class="node">
<title>completed_normal_challenges</title>
<g id="a_node1"><a xlink:href="../../tables/completed_normal_challenges.html" xlink:title="completed_normal_challenges" target="_top">
<polygon fill="#ffffff" stroke="transparent" points="231,-38.2 231,-194.2 543,-194.2 543,-38.2 231,-38.2"/>
<polygon fill="#f5f5f5" stroke="transparent" points="233,-169.2 233,-192.2 541,-192.2 541,-169.2 233,-169.2"/>
<polygon fill="none" stroke="#000000" points="233,-169.2 233,-192.2 541,-192.2 541,-169.2 233,-169.2"/>
<text text-anchor="start" x="238" y="-178.3" font-family="Helvetica,sans-Serif" font-weight="bold" font-size="11.00" fill="#000000">completed_normal_challenges</text>
<text text-anchor="start" x="506.0437" y="-177.3" font-family="Helvetica,sans-Serif" font-size="11.00" fill="#000000">[table]</text>
<polygon fill="none" stroke="#000000" points="233,-147.2 233,-169.2 448,-169.2 448,-147.2 233,-147.2"/>
<image xlink:href="../../images/primaryKeys.png" width="11px" height="12px" preserveAspectRatio="xMinYMin meet" x="238" y="-164.2"/>
<text text-anchor="start" x="253" y="-154.3" font-family="Helvetica,sans-Serif" font-size="11.00" fill="#000000">gymnasts_id</text>
<polygon fill="none" stroke="#000000" points="448,-147.2 448,-169.2 541,-169.2 541,-147.2 448,-147.2"/>
<text text-anchor="start" x="451" y="-154.9" font-family="Helvetica,sans-Serif" font-size="11.00" fill="#000000">int[10]</text>
<polygon fill="none" stroke="#000000" points="233,-125.2 233,-147.2 448,-147.2 448,-125.2 233,-125.2"/>
<image xlink:href="../../images/primaryKeys.png" width="11px" height="12px" preserveAspectRatio="xMinYMin meet" x="238" y="-142.2"/>
<text text-anchor="start" x="253" y="-132.3" font-family="Helvetica,sans-Serif" font-size="11.00" fill="#000000">normal_challenges_classes_id</text>
<polygon fill="none" stroke="#000000" points="448,-125.2 448,-147.2 541,-147.2 541,-125.2 448,-125.2"/>
<text text-anchor="start" x="451" y="-132.9" font-family="Helvetica,sans-Serif" font-size="11.00" fill="#000000">int[10]</text>
<polygon fill="none" stroke="#000000" points="233,-103.2 233,-125.2 448,-125.2 448,-103.2 233,-103.2"/>
<image xlink:href="../../images/primaryKeys.png" width="11px" height="12px" preserveAspectRatio="xMinYMin meet" x="238" y="-120.2"/>
<text text-anchor="start" x="253" y="-110.3" font-family="Helvetica,sans-Serif" font-size="11.00" fill="#000000">normal_challenges_challenges_id</text>
<polygon fill="none" stroke="#000000" points="448,-103.2 448,-125.2 541,-125.2 541,-103.2 448,-103.2"/>
<text text-anchor="start" x="451" y="-110.9" font-family="Helvetica,sans-Serif" font-size="11.00" fill="#000000">int[10]</text>
<polygon fill="none" stroke="#000000" points="233,-81.2 233,-103.2 448,-103.2 448,-81.2 233,-81.2"/>
<text text-anchor="start" x="253" y="-88.3" font-family="Helvetica,sans-Serif" font-size="11.00" fill="#000000">date_of_completation</text>
<polygon fill="none" stroke="#000000" points="448,-81.2 448,-103.2 541,-103.2 541,-81.2 448,-81.2"/>
<text text-anchor="start" x="451" y="-88.9" font-family="Helvetica,sans-Serif" font-size="11.00" fill="#000000">date[10]</text>
<polygon fill="none" stroke="#000000" points="233,-59.2 233,-81.2 448,-81.2 448,-59.2 233,-59.2"/>
<text text-anchor="start" x="253" y="-66.3" font-family="Helvetica,sans-Serif" font-size="11.00" fill="#000000">Interactions</text>
<polygon fill="none" stroke="#000000" points="448,-59.2 448,-81.2 541,-81.2 541,-59.2 448,-59.2"/>
<text text-anchor="start" x="450.7833" y="-66.9" font-family="Helvetica,sans-Serif" font-size="11.00" fill="#000000">json[1073741824]</text>
<polygon fill="#ffffff" stroke="transparent" points="233,-40.2 233,-59.2 332,-59.2 332,-40.2 233,-40.2"/>
<polygon fill="none" stroke="#000000" points="233,-40.2 233,-59.2 332,-59.2 332,-40.2 233,-40.2"/>
<text text-anchor="start" x="236" y="-46.3" font-family="Helvetica,sans-Serif" font-size="11.00" fill="#000000">&lt; 3</text>
<polygon fill="#ffffff" stroke="transparent" points="332,-40.2 332,-59.2 448,-59.2 448,-40.2 332,-40.2"/>
<polygon fill="none" stroke="#000000" points="332,-40.2 332,-59.2 448,-59.2 448,-40.2 332,-40.2"/>
<text text-anchor="start" x="412.6105" y="-46.3" font-family="Helvetica,sans-Serif" font-size="11.00" fill="#000000">0 rows</text>
<polygon fill="#ffffff" stroke="transparent" points="448,-40.2 448,-59.2 541,-59.2 541,-40.2 448,-40.2"/>
<polygon fill="none" stroke="#000000" points="448,-40.2 448,-59.2 541,-59.2 541,-40.2 448,-40.2"/>
<text text-anchor="start" x="522.4053" y="-46.3" font-family="Helvetica,sans-Serif" font-size="11.00" fill="#000000">0 &gt;</text>
<polygon fill="none" stroke="#000000" stroke-width="2" points="232,-39.2 232,-193.2 542,-193.2 542,-39.2 232,-39.2"/>
</a>
</g>
</g>
<!-- gymnasts -->
<g id="node2" class="node">
<title>gymnasts</title>
<g id="a_node2"><a xlink:href="../../tables/gymnasts.html" xlink:title="gymnasts" target="_top">
<polygon fill="#ffffff" stroke="transparent" points="8,-191.7 8,-318.7 182,-318.7 182,-191.7 8,-191.7"/>
<polygon fill="#f5f5f5" stroke="transparent" points="8,-295.2 8,-318.2 182,-318.2 182,-295.2 8,-295.2"/>
<polygon fill="none" stroke="#000000" points="8,-295.2 8,-318.2 182,-318.2 182,-295.2 8,-295.2"/>
<text text-anchor="start" x="13" y="-304.3" font-family="Helvetica,sans-Serif" font-weight="bold" font-size="11.00" fill="#000000">gymnasts</text>
<text text-anchor="start" x="147.0437" y="-303.3" font-family="Helvetica,sans-Serif" font-size="11.00" fill="#000000">[table]</text>
<polygon fill="none" stroke="#000000" points="8,-273.2 8,-295.2 182,-295.2 182,-273.2 8,-273.2"/>
<image xlink:href="../../images/primaryKeys.png" width="11px" height="12px" preserveAspectRatio="xMinYMin meet" x="13" y="-290.2"/>
<text text-anchor="start" x="28" y="-280.3" font-family="Helvetica,sans-Serif" font-size="11.00" fill="#000000">id</text>
<polygon fill="#ffffff" stroke="transparent" points="8,-251.2 8,-273.2 182,-273.2 182,-251.2 8,-251.2"/>
<polygon fill="none" stroke="#000000" points="8,-251.2 8,-273.2 182,-273.2 182,-251.2 8,-251.2"/>
<image xlink:href="../../images/foreignKeys.png" width="11px" height="12px" preserveAspectRatio="xMinYMin meet" x="13" y="-268.2"/>
<text text-anchor="start" x="28" y="-258.3" font-family="Helvetica,sans-Serif" font-size="11.00" fill="#000000">gyms_has_users_gyms_id</text>
<polygon fill="#ffffff" stroke="transparent" points="8,-229.2 8,-251.2 182,-251.2 182,-229.2 8,-229.2"/>
<polygon fill="none" stroke="#000000" points="8,-229.2 8,-251.2 182,-251.2 182,-229.2 8,-229.2"/>
<image xlink:href="../../images/foreignKeys.png" width="11px" height="12px" preserveAspectRatio="xMinYMin meet" x="13" y="-246.2"/>
<text text-anchor="start" x="28" y="-236.3" font-family="Helvetica,sans-Serif" font-size="11.00" fill="#000000">gyms_has_users_users_id</text>
<polygon fill="none" stroke="#000000" points="8,-210.2 8,-229.2 182,-229.2 182,-210.2 8,-210.2"/>
<text text-anchor="start" x="11" y="-216.3" font-family="Helvetica,sans-Serif" font-size="11.00" fill="#000000">...</text>
<polygon fill="#ffffff" stroke="transparent" points="8,-191.2 8,-210.2 76,-210.2 76,-191.2 8,-191.2"/>
<polygon fill="none" stroke="#000000" points="8,-191.2 8,-210.2 76,-210.2 76,-191.2 8,-191.2"/>
<text text-anchor="start" x="11" y="-197.3" font-family="Helvetica,sans-Serif" font-size="11.00" fill="#000000">&lt; 2</text>
<polygon fill="#ffffff" stroke="transparent" points="76,-191.2 76,-210.2 137,-210.2 137,-191.2 76,-191.2"/>
<polygon fill="none" stroke="#000000" points="76,-191.2 76,-210.2 137,-210.2 137,-191.2 76,-191.2"/>
<text text-anchor="start" x="101.6105" y="-197.3" font-family="Helvetica,sans-Serif" font-size="11.00" fill="#000000">0 rows</text>
<polygon fill="#ffffff" stroke="transparent" points="137,-191.2 137,-210.2 182,-210.2 182,-191.2 137,-191.2"/>
<polygon fill="none" stroke="#000000" points="137,-191.2 137,-210.2 182,-210.2 182,-191.2 137,-191.2"/>
<text text-anchor="start" x="163.4053" y="-197.3" font-family="Helvetica,sans-Serif" font-size="11.00" fill="#000000">4 &gt;</text>
</a>
</g>
</g>
<!-- completed_normal_challenges&#45;&gt;gymnasts -->
<g id="edge1" class="edge">
<title>completed_normal_challenges:w&#45;&gt;gymnasts:e</title>
<path fill="none" stroke="#000000" d="M218.7844,-161.5702C184.9826,-181.6077 236.5136,-284.2 182,-284.2"/>
<polygon fill="#000000" stroke="#000000" points="225.2158,-160.0455 233.8305,-161.7029 229.1079,-159.1228 233,-158.2 233,-158.2 233,-158.2 229.1079,-159.1228 232.1695,-154.6971 225.2158,-160.0455 225.2158,-160.0455"/>
<ellipse fill="none" stroke="#000000" cx="222.1021" cy="-160.7837" rx="3.2" ry="3.2"/>
</g>
<!-- normal_challenges -->
<g id="node3" class="node">
<title>normal_challenges</title>
<g id="a_node3"><a xlink:href="../../tables/normal_challenges.html" xlink:title="normal_challenges" target="_top">
<polygon fill="#ffffff" stroke="transparent" points="27.5,-65.7 27.5,-170.7 162.5,-170.7 162.5,-65.7 27.5,-65.7"/>
<polygon fill="#f5f5f5" stroke="transparent" points="28,-147.2 28,-170.2 163,-170.2 163,-147.2 28,-147.2"/>
<polygon fill="none" stroke="#000000" points="28,-147.2 28,-170.2 163,-170.2 163,-147.2 28,-147.2"/>
<text text-anchor="start" x="32.8522" y="-156.3" font-family="Helvetica,sans-Serif" font-weight="bold" font-size="11.00" fill="#000000">normal_challenges</text>
<text text-anchor="start" x="128.5219" y="-155.3" font-family="Helvetica,sans-Serif" font-size="11.00" fill="#000000">[table]</text>
<polygon fill="none" stroke="#000000" points="28,-125.2 28,-147.2 163,-147.2 163,-125.2 28,-125.2"/>
<image xlink:href="../../images/primaryKeys.png" width="11px" height="12px" preserveAspectRatio="xMinYMin meet" x="33" y="-142.2"/>
<text text-anchor="start" x="51" y="-132.3" font-family="Helvetica,sans-Serif" font-size="11.00" fill="#000000">classes_id</text>
<polygon fill="none" stroke="#000000" points="28,-103.2 28,-125.2 163,-125.2 163,-103.2 28,-103.2"/>
<image xlink:href="../../images/primaryKeys.png" width="11px" height="12px" preserveAspectRatio="xMinYMin meet" x="33" y="-120.2"/>
<text text-anchor="start" x="51" y="-110.3" font-family="Helvetica,sans-Serif" font-size="11.00" fill="#000000">challenges_id</text>
<polygon fill="none" stroke="#000000" points="28,-84.2 28,-103.2 163,-103.2 163,-84.2 28,-84.2"/>
<text text-anchor="start" x="31" y="-90.3" font-family="Helvetica,sans-Serif" font-size="11.00" fill="#000000">...</text>
<polygon fill="#ffffff" stroke="transparent" points="28,-65.2 28,-84.2 76,-84.2 76,-65.2 28,-65.2"/>
<polygon fill="none" stroke="#000000" points="28,-65.2 28,-84.2 76,-84.2 76,-65.2 28,-65.2"/>
<text text-anchor="start" x="31" y="-71.3" font-family="Helvetica,sans-Serif" font-size="11.00" fill="#000000">&lt; 2</text>
<polygon fill="#ffffff" stroke="transparent" points="76,-65.2 76,-84.2 128,-84.2 128,-65.2 76,-65.2"/>
<polygon fill="none" stroke="#000000" points="76,-65.2 76,-84.2 128,-84.2 128,-65.2 76,-65.2"/>
<text text-anchor="start" x="92.6105" y="-71.3" font-family="Helvetica,sans-Serif" font-size="11.00" fill="#000000">0 rows</text>
<polygon fill="#ffffff" stroke="transparent" points="128,-65.2 128,-84.2 163,-84.2 163,-65.2 128,-65.2"/>
<polygon fill="none" stroke="#000000" points="128,-65.2 128,-84.2 163,-84.2 163,-65.2 128,-65.2"/>
<text text-anchor="start" x="144.4053" y="-71.3" font-family="Helvetica,sans-Serif" font-size="11.00" fill="#000000">2 &gt;</text>
</a>
</g>
</g>
<!-- completed_normal_challenges&#45;&gt;normal_challenges -->
<g id="edge2" class="edge">
<title>completed_normal_challenges:w&#45;&gt;normal_challenges:e</title>
<path fill="none" stroke="#000000" d="M218.5032,-114.2C198.4335,-114.2 188.6424,-114.2 163,-114.2"/>
<polygon fill="#000000" stroke="#000000" points="225,-114.2001 233,-117.8 229,-114.2 233,-114.2 233,-114.2 233,-114.2 229,-114.2 233,-110.6 225,-114.2001 225,-114.2001"/>
<ellipse fill="none" stroke="#000000" cx="221.8" cy="-114.2001" rx="3.2" ry="3.2"/>
</g>
<!-- completed_normal_challenges&#45;&gt;normal_challenges -->
<g id="edge3" class="edge">
<title>completed_normal_challenges:w&#45;&gt;normal_challenges:e</title>
<path fill="none" stroke="#000000" d="M218.5032,-136.2C198.4335,-136.2 188.6424,-136.2 163,-136.2"/>
<polygon fill="#000000" stroke="#000000" points="225,-136.2001 233,-139.8 229,-136.2 233,-136.2 233,-136.2 233,-136.2 229,-136.2 233,-132.6 225,-136.2001 225,-136.2001"/>
<ellipse fill="none" stroke="#000000" cx="221.8" cy="-136.2001" rx="3.2" ry="3.2"/>
</g>
</g>
</svg>
