<?xml version="1.0" encoding="UTF-8" standalone="no"?>
<!DOCTYPE svg PUBLIC "-//W3C//DTD SVG 1.1//EN"
 "http://www.w3.org/Graphics/SVG/1.1/DTD/svg11.dtd">
<!-- Generated by graphviz version 2.40.1 (20161225.0304)
 -->
<!-- Title: twoDegreesRelationshipsDiagram Pages: 1 -->
<svg width="863pt" height="453pt"
 viewBox="0.00 0.00 863.00 452.70" xmlns="http://www.w3.org/2000/svg" xmlns:xlink="http://www.w3.org/1999/xlink">
<g id="graph0" class="graph" transform="scale(1 1) rotate(0) translate(4 448.7)">
<title>twoDegreesRelationshipsDiagram</title>
<polygon fill="#ffffff" stroke="transparent" points="-4,4 -4,-448.7 859,-448.7 859,4 -4,4"/>
<text text-anchor="middle" x="72.4936" y="-7.3" font-family="Helvetica,sans-Serif" font-size="11.00" fill="#000000">Generated by SchemaSpy</text>
<!-- challenges -->
<g id="node1" class="node">
<title>challenges</title>
<g id="a_node1"><a xlink:href="../../tables/challenges.html" xlink:title="challenges" target="_top">
<polygon fill="#ffffff" stroke="transparent" points="152.5,-86.7 152.5,-147.7 247.5,-147.7 247.5,-86.7 152.5,-86.7"/>
<polygon fill="#f5f5f5" stroke="transparent" points="153,-124.2 153,-147.2 248,-147.2 248,-124.2 153,-124.2"/>
<polygon fill="none" stroke="#000000" points="153,-124.2 153,-147.2 248,-147.2 248,-124.2 153,-124.2"/>
<text text-anchor="start" x="157.7144" y="-133.3" font-family="Helvetica,sans-Serif" font-weight="bold" font-size="11.00" fill="#000000">challenges</text>
<text text-anchor="start" x="213.5219" y="-132.3" font-family="Helvetica,sans-Serif" font-size="11.00" fill="#000000">[table]</text>
<polygon fill="none" stroke="#000000" points="153,-105.2 153,-124.2 248,-124.2 248,-105.2 153,-105.2"/>
<text text-anchor="start" x="156" y="-111.3" font-family="Helvetica,sans-Serif" font-size="11.00" fill="#000000">...</text>
<polygon fill="#ffffff" stroke="transparent" points="153,-86.2 153,-105.2 181,-105.2 181,-86.2 153,-86.2"/>
<polygon fill="none" stroke="#000000" points="153,-86.2 153,-105.2 181,-105.2 181,-86.2 153,-86.2"/>
<text text-anchor="start" x="156" y="-92.3" font-family="Helvetica,sans-Serif" font-size="11.00" fill="#000000">&lt; 2</text>
<polygon fill="#ffffff" stroke="transparent" points="181,-86.2 181,-105.2 223,-105.2 223,-86.2 181,-86.2"/>
<polygon fill="none" stroke="#000000" points="181,-86.2 181,-105.2 223,-105.2 223,-86.2 181,-86.2"/>
<text text-anchor="start" x="187.6105" y="-92.3" font-family="Helvetica,sans-Serif" font-size="11.00" fill="#000000">0 rows</text>
<polygon fill="#ffffff" stroke="transparent" points="223,-86.2 223,-105.2 248,-105.2 248,-86.2 223,-86.2"/>
<polygon fill="none" stroke="#000000" points="223,-86.2 223,-105.2 248,-105.2 248,-86.2 223,-86.2"/>
<text text-anchor="start" x="229.4053" y="-92.3" font-family="Helvetica,sans-Serif" font-size="11.00" fill="#000000">2 &gt;</text>
</a>
</g>
</g>
<!-- classes -->
<g id="node2" class="node">
<title>classes</title>
<g id="a_node2"><a xlink:href="../../tables/classes.html" xlink:title="classes" target="_top">
<polygon fill="#ffffff" stroke="transparent" points="8,-144.7 8,-205.7 88,-205.7 88,-144.7 8,-144.7"/>
<polygon fill="#f5f5f5" stroke="transparent" points="8,-182.2 8,-205.2 88,-205.2 88,-182.2 8,-182.2"/>
<polygon fill="none" stroke="#000000" points="8,-182.2 8,-205.2 88,-205.2 88,-182.2 8,-182.2"/>
<text text-anchor="start" x="13" y="-191.3" font-family="Helvetica,sans-Serif" font-weight="bold" font-size="11.00" fill="#000000">classes</text>
<text text-anchor="start" x="53.5219" y="-190.3" font-family="Helvetica,sans-Serif" font-size="11.00" fill="#000000">[table]</text>
<polygon fill="none" stroke="#000000" points="8,-163.2 8,-182.2 88,-182.2 88,-163.2 8,-163.2"/>
<text text-anchor="start" x="11" y="-169.3" font-family="Helvetica,sans-Serif" font-size="11.00" fill="#000000">...</text>
<polygon fill="#ffffff" stroke="transparent" points="8,-144.2 8,-163.2 29,-163.2 29,-144.2 8,-144.2"/>
<polygon fill="none" stroke="#000000" points="8,-144.2 8,-163.2 29,-163.2 29,-144.2 8,-144.2"/>
<text text-anchor="start" x="10.7027" y="-150.3" font-family="Helvetica,sans-Serif" font-size="11.00" fill="#000000">&lt; 1</text>
<polygon fill="#ffffff" stroke="transparent" points="29,-144.2 29,-163.2 67,-163.2 67,-144.2 29,-144.2"/>
<polygon fill="none" stroke="#000000" points="29,-144.2 29,-163.2 67,-163.2 67,-144.2 29,-144.2"/>
<text text-anchor="start" x="31.8053" y="-150.3" font-family="Helvetica,sans-Serif" font-size="11.00" fill="#000000">0 rows</text>
<polygon fill="#ffffff" stroke="transparent" points="67,-144.2 67,-163.2 88,-163.2 88,-144.2 67,-144.2"/>
<polygon fill="none" stroke="#000000" points="67,-144.2 67,-163.2 88,-163.2 88,-144.2 67,-144.2"/>
<text text-anchor="start" x="69.7027" y="-150.3" font-family="Helvetica,sans-Serif" font-size="11.00" fill="#000000">4 &gt;</text>
</a>
</g>
</g>
<!-- challenges&#45;&gt;classes -->
<g id="edge1" class="edge">
<title>challenges:w&#45;&gt;classes:e</title>
<path fill="none" stroke="#000000" d="M138.8052,-117.6545C116.847,-130.1408 120.9706,-172.2 88,-172.2"/>
<polygon fill="#000000" stroke="#000000" points="145.2269,-116.0917 153.8513,-117.6979 149.1134,-115.1459 153,-114.2 153,-114.2 153,-114.2 149.1134,-115.1459 152.1487,-110.7021 145.2269,-116.0917 145.2269,-116.0917"/>
<ellipse fill="none" stroke="#000000" cx="142.1176" cy="-116.8484" rx="3.2" ry="3.2"/>
</g>
<!-- completed_daily_challenges -->
<g id="node3" class="node">
<title>completed_daily_challenges</title>
<g id="a_node3"><a xlink:href="../../tables/completed_daily_challenges.html" xlink:title="completed_daily_challenges" target="_top">
<polygon fill="#ffffff" stroke="transparent" points="600.5,-379.7 600.5,-440.7 781.5,-440.7 781.5,-379.7 600.5,-379.7"/>
<polygon fill="#f5f5f5" stroke="transparent" points="601,-417.2 601,-440.2 782,-440.2 782,-417.2 601,-417.2"/>
<polygon fill="none" stroke="#000000" points="601,-417.2 601,-440.2 782,-440.2 782,-417.2 601,-417.2"/>
<text text-anchor="start" x="605.9266" y="-426.3" font-family="Helvetica,sans-Serif" font-weight="bold" font-size="11.00" fill="#000000">completed_daily_challenges</text>
<text text-anchor="start" x="747.5219" y="-425.3" font-family="Helvetica,sans-Serif" font-size="11.00" fill="#000000">[table]</text>
<polygon fill="none" stroke="#000000" points="601,-398.2 601,-417.2 782,-417.2 782,-398.2 601,-398.2"/>
<text text-anchor="start" x="604" y="-404.3" font-family="Helvetica,sans-Serif" font-size="11.00" fill="#000000">...</text>
<polygon fill="#ffffff" stroke="transparent" points="601,-379.2 601,-398.2 677,-398.2 677,-379.2 601,-379.2"/>
<polygon fill="none" stroke="#000000" points="601,-379.2 601,-398.2 677,-398.2 677,-379.2 601,-379.2"/>
<text text-anchor="start" x="604" y="-385.3" font-family="Helvetica,sans-Serif" font-size="11.00" fill="#000000">&lt; 4</text>
<polygon fill="#ffffff" stroke="transparent" points="677,-379.2 677,-398.2 742,-398.2 742,-379.2 677,-379.2"/>
<polygon fill="none" stroke="#000000" points="677,-379.2 677,-398.2 742,-398.2 742,-379.2 677,-379.2"/>
<text text-anchor="start" x="706.6105" y="-385.3" font-family="Helvetica,sans-Serif" font-size="11.00" fill="#000000">0 rows</text>
<polygon fill="#ffffff" stroke="transparent" points="742,-379.2 742,-398.2 782,-398.2 782,-379.2 742,-379.2"/>
<polygon fill="none" stroke="#000000" points="742,-379.2 742,-398.2 782,-398.2 782,-379.2 742,-379.2"/>
<text text-anchor="start" x="772.8862" y="-385.3" font-family="Helvetica,sans-Serif" font-size="11.00" fill="#000000"> &#160;</text>
</a>
</g>
</g>
<!-- gymnasts -->
<g id="node4" class="node">
<title>gymnasts</title>
<g id="a_node4"><a xlink:href="../../tables/gymnasts.html" xlink:title="gymnasts" target="_top">
<polygon fill="#ffffff" stroke="transparent" points="312,-229.7 312,-356.7 486,-356.7 486,-229.7 312,-229.7"/>
<polygon fill="#f5f5f5" stroke="transparent" points="312,-333.2 312,-356.2 486,-356.2 486,-333.2 312,-333.2"/>
<polygon fill="none" stroke="#000000" points="312,-333.2 312,-356.2 486,-356.2 486,-333.2 312,-333.2"/>
<text text-anchor="start" x="317" y="-342.3" font-family="Helvetica,sans-Serif" font-weight="bold" font-size="11.00" fill="#000000">gymnasts</text>
<text text-anchor="start" x="451.0437" y="-341.3" font-family="Helvetica,sans-Serif" font-size="11.00" fill="#000000">[table]</text>
<polygon fill="none" stroke="#000000" points="312,-311.2 312,-333.2 486,-333.2 486,-311.2 312,-311.2"/>
<image xlink:href="../../images/primaryKeys.png" width="11px" height="12px" preserveAspectRatio="xMinYMin meet" x="317" y="-328.2"/>
<text text-anchor="start" x="332" y="-318.3" font-family="Helvetica,sans-Serif" font-size="11.00" fill="#000000">id</text>
<polygon fill="#ffffff" stroke="transparent" points="312,-289.2 312,-311.2 486,-311.2 486,-289.2 312,-289.2"/>
<polygon fill="none" stroke="#000000" points="312,-289.2 312,-311.2 486,-311.2 486,-289.2 312,-289.2"/>
<image xlink:href="../../images/foreignKeys.png" width="11px" height="12px" preserveAspectRatio="xMinYMin meet" x="317" y="-306.2"/>
<text text-anchor="start" x="332" y="-296.3" font-family="Helvetica,sans-Serif" font-size="11.00" fill="#000000">gyms_has_users_gyms_id</text>
<polygon fill="#ffffff" stroke="transparent" points="312,-267.2 312,-289.2 486,-289.2 486,-267.2 312,-267.2"/>
<polygon fill="none" stroke="#000000" points="312,-267.2 312,-289.2 486,-289.2 486,-267.2 312,-267.2"/>
<image xlink:href="../../images/foreignKeys.png" width="11px" height="12px" preserveAspectRatio="xMinYMin meet" x="317" y="-284.2"/>
<text text-anchor="start" x="332" y="-274.3" font-family="Helvetica,sans-Serif" font-size="11.00" fill="#000000">gyms_has_users_users_id</text>
<polygon fill="none" stroke="#000000" points="312,-248.2 312,-267.2 486,-267.2 486,-248.2 312,-248.2"/>
<text text-anchor="start" x="315" y="-254.3" font-family="Helvetica,sans-Serif" font-size="11.00" fill="#000000">...</text>
<polygon fill="#ffffff" stroke="transparent" points="312,-229.2 312,-248.2 380,-248.2 380,-229.2 312,-229.2"/>
<polygon fill="none" stroke="#000000" points="312,-229.2 312,-248.2 380,-248.2 380,-229.2 312,-229.2"/>
<text text-anchor="start" x="315" y="-235.3" font-family="Helvetica,sans-Serif" font-size="11.00" fill="#000000">&lt; 2</text>
<polygon fill="#ffffff" stroke="transparent" points="380,-229.2 380,-248.2 441,-248.2 441,-229.2 380,-229.2"/>
<polygon fill="none" stroke="#000000" points="380,-229.2 380,-248.2 441,-248.2 441,-229.2 380,-229.2"/>
<text text-anchor="start" x="405.6105" y="-235.3" font-family="Helvetica,sans-Serif" font-size="11.00" fill="#000000">0 rows</text>
<polygon fill="#ffffff" stroke="transparent" points="441,-229.2 441,-248.2 486,-248.2 486,-229.2 441,-229.2"/>
<polygon fill="none" stroke="#000000" points="441,-229.2 441,-248.2 486,-248.2 486,-229.2 441,-229.2"/>
<text text-anchor="start" x="467.4053" y="-235.3" font-family="Helvetica,sans-Serif" font-size="11.00" fill="#000000">4 &gt;</text>
</a>
</g>
</g>
<!-- completed_daily_challenges&#45;&gt;gymnasts -->
<g id="edge2" class="edge">
<title>completed_daily_challenges:w&#45;&gt;gymnasts:e</title>
<path fill="none" stroke="#000000" d="M586.2926,-406.2192C561.2126,-402.5157 551.7958,-388.601 527,-369.2 505.1685,-352.1183 513.7199,-322.2 486,-322.2"/>
<polygon fill="#000000" stroke="#000000" points="593.0177,-406.6676 600.7604,-410.792 597.0089,-406.9338 601,-407.2 601,-407.2 601,-407.2 597.0089,-406.9338 601.2396,-403.608 593.0177,-406.6676 593.0177,-406.6676"/>
<ellipse fill="none" stroke="#000000" cx="589.8248" cy="-406.4547" rx="3.2" ry="3.2"/>
</g>
<!-- gyms_has_users -->
<g id="node8" class="node">
<title>gyms_has_users</title>
<g id="a_node8"><a xlink:href="../../tables/gyms_has_users.html" xlink:title="gyms_has_users" target="_top">
<polygon fill="#ffffff" stroke="transparent" points="137,-261.7 137,-322.7 263,-322.7 263,-261.7 137,-261.7"/>
<polygon fill="#f5f5f5" stroke="transparent" points="137,-299.2 137,-322.2 263,-322.2 263,-299.2 137,-299.2"/>
<polygon fill="none" stroke="#000000" points="137,-299.2 137,-322.2 263,-322.2 263,-299.2 137,-299.2"/>
<text text-anchor="start" x="141.936" y="-308.3" font-family="Helvetica,sans-Serif" font-weight="bold" font-size="11.00" fill="#000000">gyms_has_users</text>
<text text-anchor="start" x="228.5219" y="-307.3" font-family="Helvetica,sans-Serif" font-size="11.00" fill="#000000">[table]</text>
<polygon fill="none" stroke="#000000" points="137,-280.2 137,-299.2 263,-299.2 263,-280.2 137,-280.2"/>
<text text-anchor="start" x="140" y="-286.3" font-family="Helvetica,sans-Serif" font-size="11.00" fill="#000000">...</text>
<polygon fill="#ffffff" stroke="transparent" points="137,-261.2 137,-280.2 181,-280.2 181,-261.2 137,-261.2"/>
<polygon fill="none" stroke="#000000" points="137,-261.2 137,-280.2 181,-280.2 181,-261.2 137,-261.2"/>
<text text-anchor="start" x="140" y="-267.3" font-family="Helvetica,sans-Serif" font-size="11.00" fill="#000000">&lt; 2</text>
<polygon fill="#ffffff" stroke="transparent" points="181,-261.2 181,-280.2 230,-280.2 230,-261.2 181,-261.2"/>
<polygon fill="none" stroke="#000000" points="181,-261.2 181,-280.2 230,-280.2 230,-261.2 181,-261.2"/>
<text text-anchor="start" x="194.6105" y="-267.3" font-family="Helvetica,sans-Serif" font-size="11.00" fill="#000000">0 rows</text>
<polygon fill="#ffffff" stroke="transparent" points="230,-261.2 230,-280.2 263,-280.2 263,-261.2 230,-261.2"/>
<polygon fill="none" stroke="#000000" points="230,-261.2 230,-280.2 263,-280.2 263,-261.2 230,-261.2"/>
<text text-anchor="start" x="244.4053" y="-267.3" font-family="Helvetica,sans-Serif" font-size="11.00" fill="#000000">2 &gt;</text>
</a>
</g>
</g>
<!-- gymnasts&#45;&gt;gyms_has_users -->
<g id="edge7" class="edge">
<title>gymnasts:w&#45;&gt;gyms_has_users:e</title>
<path fill="none" stroke="#000000" d="M297.7027,-298.3836C286.2382,-295.2593 279.5655,-289.2 263,-289.2"/>
<polygon fill="#000000" stroke="#000000" points="304.0638,-299.1917 311.5463,-303.7713 308.0319,-299.6958 312,-300.2 312,-300.2 312,-300.2 308.0319,-299.6958 312.4537,-296.6287 304.0638,-299.1917 304.0638,-299.1917"/>
<ellipse fill="none" stroke="#000000" cx="300.8893" cy="-298.7884" rx="3.2" ry="3.2"/>
</g>
<!-- gymnasts&#45;&gt;gyms_has_users -->
<g id="edge8" class="edge">
<title>gymnasts:w&#45;&gt;gyms_has_users:e</title>
<path fill="none" stroke="#000000" d="M297.7027,-280.0164C286.2382,-283.1407 279.5655,-289.2 263,-289.2"/>
<polygon fill="#000000" stroke="#000000" points="304.0638,-279.2083 312.4537,-281.7713 308.0319,-278.7042 312,-278.2 312,-278.2 312,-278.2 308.0319,-278.7042 311.5463,-274.6287 304.0638,-279.2083 304.0638,-279.2083"/>
<ellipse fill="none" stroke="#000000" cx="300.8893" cy="-279.6116" rx="3.2" ry="3.2"/>
</g>
<!-- completed_normal_challenges -->
<g id="node5" class="node">
<title>completed_normal_challenges</title>
<g id="a_node5"><a xlink:href="../../tables/completed_normal_challenges.html" xlink:title="completed_normal_challenges" target="_top">
<polygon fill="#ffffff" stroke="transparent" points="535,-38.2 535,-194.2 847,-194.2 847,-38.2 535,-38.2"/>
<polygon fill="#f5f5f5" stroke="transparent" points="537,-169.2 537,-192.2 845,-192.2 845,-169.2 537,-169.2"/>
<polygon fill="none" stroke="#000000" points="537,-169.2 537,-192.2 845,-192.2 845,-169.2 537,-169.2"/>
<text text-anchor="start" x="542" y="-178.3" font-family="Helvetica,sans-Serif" font-weight="bold" font-size="11.00" fill="#000000">completed_normal_challenges</text>
<text text-anchor="start" x="810.0437" y="-177.3" font-family="Helvetica,sans-Serif" font-size="11.00" fill="#000000">[table]</text>
<polygon fill="none" stroke="#000000" points="537,-147.2 537,-169.2 752,-169.2 752,-147.2 537,-147.2"/>
<image xlink:href="../../images/primaryKeys.png" width="11px" height="12px" preserveAspectRatio="xMinYMin meet" x="542" y="-164.2"/>
<text text-anchor="start" x="557" y="-154.3" font-family="Helvetica,sans-Serif" font-size="11.00" fill="#000000">gymnasts_id</text>
<polygon fill="none" stroke="#000000" points="752,-147.2 752,-169.2 845,-169.2 845,-147.2 752,-147.2"/>
<text text-anchor="start" x="755" y="-154.9" font-family="Helvetica,sans-Serif" font-size="11.00" fill="#000000">int[10]</text>
<polygon fill="none" stroke="#000000" points="537,-125.2 537,-147.2 752,-147.2 752,-125.2 537,-125.2"/>
<image xlink:href="../../images/primaryKeys.png" width="11px" height="12px" preserveAspectRatio="xMinYMin meet" x="542" y="-142.2"/>
<text text-anchor="start" x="557" y="-132.3" font-family="Helvetica,sans-Serif" font-size="11.00" fill="#000000">normal_challenges_classes_id</text>
<polygon fill="none" stroke="#000000" points="752,-125.2 752,-147.2 845,-147.2 845,-125.2 752,-125.2"/>
<text text-anchor="start" x="755" y="-132.9" font-family="Helvetica,sans-Serif" font-size="11.00" fill="#000000">bigint[19]</text>
<polygon fill="none" stroke="#000000" points="537,-103.2 537,-125.2 752,-125.2 752,-103.2 537,-103.2"/>
<image xlink:href="../../images/primaryKeys.png" width="11px" height="12px" preserveAspectRatio="xMinYMin meet" x="542" y="-120.2"/>
<text text-anchor="start" x="557" y="-110.3" font-family="Helvetica,sans-Serif" font-size="11.00" fill="#000000">normal_challenges_challenges_id</text>
<polygon fill="none" stroke="#000000" points="752,-103.2 752,-125.2 845,-125.2 845,-103.2 752,-103.2"/>
<text text-anchor="start" x="755" y="-110.9" font-family="Helvetica,sans-Serif" font-size="11.00" fill="#000000">bigint[19]</text>
<polygon fill="none" stroke="#000000" points="537,-81.2 537,-103.2 752,-103.2 752,-81.2 537,-81.2"/>
<text text-anchor="start" x="557" y="-88.3" font-family="Helvetica,sans-Serif" font-size="11.00" fill="#000000">date_of_completation</text>
<polygon fill="none" stroke="#000000" points="752,-81.2 752,-103.2 845,-103.2 845,-81.2 752,-81.2"/>
<text text-anchor="start" x="755" y="-88.9" font-family="Helvetica,sans-Serif" font-size="11.00" fill="#000000">date[10]</text>
<polygon fill="none" stroke="#000000" points="537,-59.2 537,-81.2 752,-81.2 752,-59.2 537,-59.2"/>
<text text-anchor="start" x="557" y="-66.3" font-family="Helvetica,sans-Serif" font-size="11.00" fill="#000000">Interactions</text>
<polygon fill="none" stroke="#000000" points="752,-59.2 752,-81.2 845,-81.2 845,-59.2 752,-59.2"/>
<text text-anchor="start" x="754.7832" y="-66.9" font-family="Helvetica,sans-Serif" font-size="11.00" fill="#000000">json[1073741824]</text>
<polygon fill="#ffffff" stroke="transparent" points="537,-40.2 537,-59.2 636,-59.2 636,-40.2 537,-40.2"/>
<polygon fill="none" stroke="#000000" points="537,-40.2 537,-59.2 636,-59.2 636,-40.2 537,-40.2"/>
<text text-anchor="start" x="540" y="-46.3" font-family="Helvetica,sans-Serif" font-size="11.00" fill="#000000">&lt; 3</text>
<polygon fill="#ffffff" stroke="transparent" points="636,-40.2 636,-59.2 752,-59.2 752,-40.2 636,-40.2"/>
<polygon fill="none" stroke="#000000" points="636,-40.2 636,-59.2 752,-59.2 752,-40.2 636,-40.2"/>
<text text-anchor="start" x="716.6105" y="-46.3" font-family="Helvetica,sans-Serif" font-size="11.00" fill="#000000">0 rows</text>
<polygon fill="#ffffff" stroke="transparent" points="752,-40.2 752,-59.2 845,-59.2 845,-40.2 752,-40.2"/>
<polygon fill="none" stroke="#000000" points="752,-40.2 752,-59.2 845,-59.2 845,-40.2 752,-40.2"/>
<text text-anchor="start" x="826.4053" y="-46.3" font-family="Helvetica,sans-Serif" font-size="11.00" fill="#000000">0 &gt;</text>
<polygon fill="none" stroke="#000000" stroke-width="2" points="536,-39.2 536,-193.2 846,-193.2 846,-39.2 536,-39.2"/>
</a>
</g>
</g>
<!-- completed_normal_challenges&#45;&gt;gymnasts -->
<g id="edge3" class="edge">
<title>completed_normal_challenges:w&#45;&gt;gymnasts:e</title>
<path fill="none" stroke="#000000" d="M522.8001,-160.776C474.7783,-181.6404 556.6667,-322.2 486,-322.2"/>
<polygon fill="#000000" stroke="#000000" points="529.1285,-159.628 537.6426,-161.7422 533.0642,-158.914 537,-158.2 537,-158.2 537,-158.2 533.0642,-158.914 536.3574,-154.6578 529.1285,-159.628 529.1285,-159.628"/>
<ellipse fill="none" stroke="#000000" cx="525.9799" cy="-160.1993" rx="3.2" ry="3.2"/>
</g>
<!-- normal_challenges -->
<g id="node6" class="node">
<title>normal_challenges</title>
<g id="a_node6"><a xlink:href="../../tables/normal_challenges.html" xlink:title="normal_challenges" target="_top">
<polygon fill="#ffffff" stroke="transparent" points="331.5,-65.7 331.5,-170.7 466.5,-170.7 466.5,-65.7 331.5,-65.7"/>
<polygon fill="#f5f5f5" stroke="transparent" points="332,-147.2 332,-170.2 467,-170.2 467,-147.2 332,-147.2"/>
<polygon fill="none" stroke="#000000" points="332,-147.2 332,-170.2 467,-170.2 467,-147.2 332,-147.2"/>
<text text-anchor="start" x="336.8522" y="-156.3" font-family="Helvetica,sans-Serif" font-weight="bold" font-size="11.00" fill="#000000">normal_challenges</text>
<text text-anchor="start" x="432.5219" y="-155.3" font-family="Helvetica,sans-Serif" font-size="11.00" fill="#000000">[table]</text>
<polygon fill="none" stroke="#000000" points="332,-125.2 332,-147.2 467,-147.2 467,-125.2 332,-125.2"/>
<image xlink:href="../../images/primaryKeys.png" width="11px" height="12px" preserveAspectRatio="xMinYMin meet" x="337" y="-142.2"/>
<text text-anchor="start" x="355" y="-132.3" font-family="Helvetica,sans-Serif" font-size="11.00" fill="#000000">classes_id</text>
<polygon fill="none" stroke="#000000" points="332,-103.2 332,-125.2 467,-125.2 467,-103.2 332,-103.2"/>
<image xlink:href="../../images/primaryKeys.png" width="11px" height="12px" preserveAspectRatio="xMinYMin meet" x="337" y="-120.2"/>
<text text-anchor="start" x="355" y="-110.3" font-family="Helvetica,sans-Serif" font-size="11.00" fill="#000000">challenges_id</text>
<polygon fill="none" stroke="#000000" points="332,-84.2 332,-103.2 467,-103.2 467,-84.2 332,-84.2"/>
<text text-anchor="start" x="335" y="-90.3" font-family="Helvetica,sans-Serif" font-size="11.00" fill="#000000">...</text>
<polygon fill="#ffffff" stroke="transparent" points="332,-65.2 332,-84.2 380,-84.2 380,-65.2 332,-65.2"/>
<polygon fill="none" stroke="#000000" points="332,-65.2 332,-84.2 380,-84.2 380,-65.2 332,-65.2"/>
<text text-anchor="start" x="335" y="-71.3" font-family="Helvetica,sans-Serif" font-size="11.00" fill="#000000">&lt; 2</text>
<polygon fill="#ffffff" stroke="transparent" points="380,-65.2 380,-84.2 432,-84.2 432,-65.2 380,-65.2"/>
<polygon fill="none" stroke="#000000" points="380,-65.2 380,-84.2 432,-84.2 432,-65.2 380,-65.2"/>
<text text-anchor="start" x="396.6105" y="-71.3" font-family="Helvetica,sans-Serif" font-size="11.00" fill="#000000">0 rows</text>
<polygon fill="#ffffff" stroke="transparent" points="432,-65.2 432,-84.2 467,-84.2 467,-65.2 432,-65.2"/>
<polygon fill="none" stroke="#000000" points="432,-65.2 432,-84.2 467,-84.2 467,-65.2 432,-65.2"/>
<text text-anchor="start" x="448.4053" y="-71.3" font-family="Helvetica,sans-Serif" font-size="11.00" fill="#000000">2 &gt;</text>
</a>
</g>
</g>
<!-- completed_normal_challenges&#45;&gt;normal_challenges -->
<g id="edge4" class="edge">
<title>completed_normal_challenges:w&#45;&gt;normal_challenges:e</title>
<path fill="none" stroke="#000000" d="M522.5032,-114.2C502.4335,-114.2 492.6424,-114.2 467,-114.2"/>
<polygon fill="#000000" stroke="#000000" points="529,-114.2001 537,-117.8 533,-114.2 537,-114.2 537,-114.2 537,-114.2 533,-114.2 537,-110.6 529,-114.2001 529,-114.2001"/>
<ellipse fill="none" stroke="#000000" cx="525.8" cy="-114.2001" rx="3.2" ry="3.2"/>
</g>
<!-- completed_normal_challenges&#45;&gt;normal_challenges -->
<g id="edge5" class="edge">
<title>completed_normal_challenges:w&#45;&gt;normal_challenges:e</title>
<path fill="none" stroke="#000000" d="M522.5032,-136.2C502.4335,-136.2 492.6424,-136.2 467,-136.2"/>
<polygon fill="#000000" stroke="#000000" points="529,-136.2001 537,-139.8 533,-136.2 537,-136.2 537,-136.2 537,-136.2 533,-136.2 537,-132.6 529,-136.2001 529,-136.2001"/>
<ellipse fill="none" stroke="#000000" cx="525.8" cy="-136.2001" rx="3.2" ry="3.2"/>
</g>
<!-- normal_challenges&#45;&gt;challenges -->
<g id="edge11" class="edge">
<title>normal_challenges:w&#45;&gt;challenges:e</title>
<path fill="none" stroke="#000000" d="M317.3981,-114.2C291.3839,-114.2 279.9375,-114.2 248,-114.2"/>
<polygon fill="#000000" stroke="#000000" points="324,-114.2001 332,-117.8 328,-114.2 332,-114.2 332,-114.2 332,-114.2 328,-114.2 332,-110.6 324,-114.2001 324,-114.2001"/>
<ellipse fill="none" stroke="#000000" cx="320.8" cy="-114.2001" rx="3.2" ry="3.2"/>
</g>
<!-- normal_challenges&#45;&gt;classes -->
<g id="edge12" class="edge">
<title>normal_challenges:w&#45;&gt;classes:e</title>
<path fill="none" stroke="#000000" d="M317.5884,-137.8334C300.6948,-142.055 293.6759,-153.3373 271,-158.2 191.2423,-175.3036 169.571,-172.2 88,-172.2"/>
<polygon fill="#000000" stroke="#000000" points="324.0509,-137.101 332.4054,-139.7771 328.0254,-136.6505 332,-136.2 332,-136.2 332,-136.2 328.0254,-136.6505 331.5946,-132.6229 324.0509,-137.101 324.0509,-137.101"/>
<ellipse fill="none" stroke="#000000" cx="320.8712" cy="-137.4614" rx="3.2" ry="3.2"/>
</g>
<!-- gymnast_has_skills -->
<g id="node7" class="node">
<title>gymnast_has_skills</title>
<g id="a_node7"><a xlink:href="../../tables/gymnast_has_skills.html" xlink:title="gymnast_has_skills" target="_top">
<polygon fill="#ffffff" stroke="transparent" points="622,-297.7 622,-358.7 760,-358.7 760,-297.7 622,-297.7"/>
<polygon fill="#f5f5f5" stroke="transparent" points="622,-335.2 622,-358.2 760,-358.2 760,-335.2 622,-335.2"/>
<polygon fill="none" stroke="#000000" points="622,-335.2 622,-358.2 760,-358.2 760,-335.2 622,-335.2"/>
<text text-anchor="start" x="626.8271" y="-344.3" font-family="Helvetica,sans-Serif" font-weight="bold" font-size="11.00" fill="#000000">gymnast_has_skills</text>
<text text-anchor="start" x="725.5219" y="-343.3" font-family="Helvetica,sans-Serif" font-size="11.00" fill="#000000">[table]</text>
<polygon fill="none" stroke="#000000" points="622,-316.2 622,-335.2 760,-335.2 760,-316.2 622,-316.2"/>
<text text-anchor="start" x="625" y="-322.3" font-family="Helvetica,sans-Serif" font-size="11.00" fill="#000000">...</text>
<polygon fill="#ffffff" stroke="transparent" points="622,-297.2 622,-316.2 676,-316.2 676,-297.2 622,-297.2"/>
<polygon fill="none" stroke="#000000" points="622,-297.2 622,-316.2 676,-316.2 676,-297.2 622,-297.2"/>
<text text-anchor="start" x="625" y="-303.3" font-family="Helvetica,sans-Serif" font-size="11.00" fill="#000000">&lt; 2</text>
<polygon fill="#ffffff" stroke="transparent" points="676,-297.2 676,-316.2 731,-316.2 731,-297.2 676,-297.2"/>
<polygon fill="none" stroke="#000000" points="676,-297.2 676,-316.2 731,-316.2 731,-297.2 676,-297.2"/>
<text text-anchor="start" x="695.6105" y="-303.3" font-family="Helvetica,sans-Serif" font-size="11.00" fill="#000000">0 rows</text>
<polygon fill="#ffffff" stroke="transparent" points="731,-297.2 731,-316.2 760,-316.2 760,-297.2 731,-297.2"/>
<polygon fill="none" stroke="#000000" points="731,-297.2 731,-316.2 760,-316.2 760,-297.2 731,-297.2"/>
<text text-anchor="start" x="750.8862" y="-303.3" font-family="Helvetica,sans-Serif" font-size="11.00" fill="#000000"> &#160;</text>
</a>
</g>
</g>
<!-- gymnast_has_skills&#45;&gt;gymnasts -->
<g id="edge6" class="edge">
<title>gymnast_has_skills:w&#45;&gt;gymnasts:e</title>
<path fill="none" stroke="#000000" d="M607.3606,-325.1373C558.6136,-324.7065 541.2634,-322.2 486,-322.2"/>
<polygon fill="#000000" stroke="#000000" points="614.0001,-325.1657 621.9846,-328.8 618,-325.1829 622,-325.2 622,-325.2 622,-325.2 618,-325.1829 622.0154,-321.6 614.0001,-325.1657 614.0001,-325.1657"/>
<ellipse fill="none" stroke="#000000" cx="610.8001" cy="-325.152" rx="3.2" ry="3.2"/>
</g>
<!-- gymnasts_classes -->
<g id="node9" class="node">
<title>gymnasts_classes</title>
<g id="a_node9"><a xlink:href="../../tables/gymnasts_classes.html" xlink:title="gymnasts_classes" target="_top">
<polygon fill="#ffffff" stroke="transparent" points="625,-215.7 625,-276.7 757,-276.7 757,-215.7 625,-215.7"/>
<polygon fill="#f5f5f5" stroke="transparent" points="625,-253.2 625,-276.2 757,-276.2 757,-253.2 625,-253.2"/>
<polygon fill="none" stroke="#000000" points="625,-253.2 625,-276.2 757,-276.2 757,-253.2 625,-253.2"/>
<text text-anchor="start" x="629.5755" y="-262.3" font-family="Helvetica,sans-Serif" font-weight="bold" font-size="11.00" fill="#000000">gymnasts_classes</text>
<text text-anchor="start" x="722.5219" y="-261.3" font-family="Helvetica,sans-Serif" font-size="11.00" fill="#000000">[table]</text>
<polygon fill="none" stroke="#000000" points="625,-234.2 625,-253.2 757,-253.2 757,-234.2 625,-234.2"/>
<text text-anchor="start" x="628" y="-240.3" font-family="Helvetica,sans-Serif" font-size="11.00" fill="#000000">...</text>
<polygon fill="#ffffff" stroke="transparent" points="625,-215.2 625,-234.2 676,-234.2 676,-215.2 625,-215.2"/>
<polygon fill="none" stroke="#000000" points="625,-215.2 625,-234.2 676,-234.2 676,-215.2 625,-215.2"/>
<text text-anchor="start" x="628" y="-221.3" font-family="Helvetica,sans-Serif" font-size="11.00" fill="#000000">&lt; 2</text>
<polygon fill="#ffffff" stroke="transparent" points="676,-215.2 676,-234.2 729,-234.2 729,-215.2 676,-215.2"/>
<polygon fill="none" stroke="#000000" points="676,-215.2 676,-234.2 729,-234.2 729,-215.2 676,-215.2"/>
<text text-anchor="start" x="693.6105" y="-221.3" font-family="Helvetica,sans-Serif" font-size="11.00" fill="#000000">0 rows</text>
<polygon fill="#ffffff" stroke="transparent" points="729,-215.2 729,-234.2 757,-234.2 757,-215.2 729,-215.2"/>
<polygon fill="none" stroke="#000000" points="729,-215.2 729,-234.2 757,-234.2 757,-215.2 729,-215.2"/>
<text text-anchor="start" x="747.8862" y="-221.3" font-family="Helvetica,sans-Serif" font-size="11.00" fill="#000000"> &#160;</text>
</a>
</g>
</g>
<!-- gymnasts_classes&#45;&gt;classes -->
<g id="edge9" class="edge">
<title>gymnasts_classes:w&#45;&gt;classes:e</title>
<path fill="none" stroke="#000000" d="M610.3953,-242.8612C563.127,-240.5682 547.3969,-227.1732 494,-219.2 482.7714,-217.5234 99.3531,-172.2 88,-172.2"/>
<polygon fill="#000000" stroke="#000000" points="617.0022,-243.0144 624.9165,-246.799 621.0011,-243.1072 625,-243.2 625,-243.2 625,-243.2 621.0011,-243.1072 625.0835,-239.601 617.0022,-243.0144 617.0022,-243.0144"/>
<ellipse fill="none" stroke="#000000" cx="613.803" cy="-242.9402" rx="3.2" ry="3.2"/>
</g>
<!-- gymnasts_classes&#45;&gt;gymnasts -->
<g id="edge10" class="edge">
<title>gymnasts_classes:w&#45;&gt;gymnasts:e</title>
<path fill="none" stroke="#000000" d="M610.6023,-243.8478C574.7231,-247.3238 562.9294,-264.4578 527,-287.2 506.7558,-300.014 509.9588,-322.2 486,-322.2"/>
<polygon fill="#000000" stroke="#000000" points="617.0081,-243.5596 625.1618,-246.7964 621.004,-243.3798 625,-243.2 625,-243.2 625,-243.2 621.004,-243.3798 624.8382,-239.6036 617.0081,-243.5596 617.0081,-243.5596"/>
<ellipse fill="none" stroke="#000000" cx="613.8113" cy="-243.7035" rx="3.2" ry="3.2"/>
</g>
</g>
</svg>
