<?xml version="1.0" encoding="UTF-8" standalone="no"?>
<!DOCTYPE svg PUBLIC "-//W3C//DTD SVG 1.1//EN"
 "http://www.w3.org/Graphics/SVG/1.1/DTD/svg11.dtd">
<!-- Generated by graphviz version 2.40.1 (20161225.0304)
 -->
<!-- Title: twoDegreesRelationshipsDiagram Pages: 1 -->
<svg width="586pt" height="413pt"
 viewBox="0.00 0.00 586.00 413.20" xmlns="http://www.w3.org/2000/svg" xmlns:xlink="http://www.w3.org/1999/xlink">
<g id="graph0" class="graph" transform="scale(1 1) rotate(0) translate(4 409.2)">
<title>twoDegreesRelationshipsDiagram</title>
<polygon fill="#ffffff" stroke="transparent" points="-4,4 -4,-409.2 582,-409.2 582,4 -4,4"/>
<text text-anchor="middle" x="72.4936" y="-7.3" font-family="Helvetica,sans-Serif" font-size="11.00" fill="#000000">Generated by SchemaSpy</text>
<!-- completed_daily_challenges -->
<g id="node1" class="node">
<title>completed_daily_challenges</title>
<g id="a_node1"><a xlink:href="../../tables/completed_daily_challenges.html" xlink:title="completed_daily_challenges" target="_top">
<polygon fill="#ffffff" stroke="transparent" points="367,-120.2 367,-269.2 570,-269.2 570,-120.2 367,-120.2"/>
<polygon fill="#f5f5f5" stroke="transparent" points="367.5,-245.7 367.5,-268.7 570.5,-268.7 570.5,-245.7 367.5,-245.7"/>
<polygon fill="none" stroke="#000000" points="367.5,-245.7 367.5,-268.7 570.5,-268.7 570.5,-245.7 367.5,-245.7"/>
<text text-anchor="start" x="372.5" y="-254.8" font-family="Helvetica,sans-Serif" font-weight="bold" font-size="11.00" fill="#000000">completed_daily_challenges</text>
<text text-anchor="start" x="535.5437" y="-253.8" font-family="Helvetica,sans-Serif" font-size="11.00" fill="#000000">[table]</text>
<polygon fill="none" stroke="#000000" points="367.5,-223.7 367.5,-245.7 570.5,-245.7 570.5,-223.7 367.5,-223.7"/>
<image xlink:href="../../images/primaryKeys.png" width="11px" height="12px" preserveAspectRatio="xMinYMin meet" x="372.5" y="-240.7"/>
<text text-anchor="start" x="387.5" y="-230.8" font-family="Helvetica,sans-Serif" font-size="11.00" fill="#000000">gymnasts_id</text>
<polygon fill="none" stroke="#000000" points="367.5,-201.7 367.5,-223.7 570.5,-223.7 570.5,-201.7 367.5,-201.7"/>
<image xlink:href="../../images/primaryKeys.png" width="11px" height="12px" preserveAspectRatio="xMinYMin meet" x="372.5" y="-218.7"/>
<text text-anchor="start" x="387.5" y="-208.8" font-family="Helvetica,sans-Serif" font-size="11.00" fill="#000000">daily_challenges_classes_id</text>
<polygon fill="none" stroke="#000000" points="367.5,-179.7 367.5,-201.7 570.5,-201.7 570.5,-179.7 367.5,-179.7"/>
<image xlink:href="../../images/primaryKeys.png" width="11px" height="12px" preserveAspectRatio="xMinYMin meet" x="372.5" y="-196.7"/>
<text text-anchor="start" x="387.5" y="-186.8" font-family="Helvetica,sans-Serif" font-size="11.00" fill="#000000">daily_challenges_challenges_id</text>
<polygon fill="none" stroke="#000000" points="367.5,-157.7 367.5,-179.7 570.5,-179.7 570.5,-157.7 367.5,-157.7"/>
<image xlink:href="../../images/primaryKeys.png" width="11px" height="12px" preserveAspectRatio="xMinYMin meet" x="372.5" y="-174.7"/>
<text text-anchor="start" x="387.5" y="-164.8" font-family="Helvetica,sans-Serif" font-size="11.00" fill="#000000">daily_challenges_date</text>
<polygon fill="none" stroke="#000000" points="367.5,-138.7 367.5,-157.7 570.5,-157.7 570.5,-138.7 367.5,-138.7"/>
<text text-anchor="start" x="370.5" y="-144.8" font-family="Helvetica,sans-Serif" font-size="11.00" fill="#000000">...</text>
<polygon fill="#ffffff" stroke="transparent" points="367.5,-119.7 367.5,-138.7 454.5,-138.7 454.5,-119.7 367.5,-119.7"/>
<polygon fill="none" stroke="#000000" points="367.5,-119.7 367.5,-138.7 454.5,-138.7 454.5,-119.7 367.5,-119.7"/>
<text text-anchor="start" x="370.5" y="-125.8" font-family="Helvetica,sans-Serif" font-size="11.00" fill="#000000">&lt; 4</text>
<polygon fill="#ffffff" stroke="transparent" points="454.5,-119.7 454.5,-138.7 525.5,-138.7 525.5,-119.7 454.5,-119.7"/>
<polygon fill="none" stroke="#000000" points="454.5,-119.7 454.5,-138.7 525.5,-138.7 525.5,-119.7 454.5,-119.7"/>
<text text-anchor="start" x="490.1105" y="-125.8" font-family="Helvetica,sans-Serif" font-size="11.00" fill="#000000">0 rows</text>
<polygon fill="#ffffff" stroke="transparent" points="525.5,-119.7 525.5,-138.7 570.5,-138.7 570.5,-119.7 525.5,-119.7"/>
<polygon fill="none" stroke="#000000" points="525.5,-119.7 525.5,-138.7 570.5,-138.7 570.5,-119.7 525.5,-119.7"/>
<text text-anchor="start" x="561.3862" y="-125.8" font-family="Helvetica,sans-Serif" font-size="11.00" fill="#000000"> &#160;</text>
</a>
</g>
</g>
<!-- daily_challenges -->
<g id="node2" class="node">
<title>daily_challenges</title>
<g id="a_node2"><a xlink:href="../../tables/daily_challenges.html" xlink:title="daily_challenges" target="_top">
<polygon fill="#ffffff" stroke="transparent" points="152,-124.7 152,-236.7 318,-236.7 318,-124.7 152,-124.7"/>
<polygon fill="#f5f5f5" stroke="transparent" points="154,-211.7 154,-234.7 316,-234.7 316,-211.7 154,-211.7"/>
<polygon fill="none" stroke="#000000" points="154,-211.7 154,-234.7 316,-234.7 316,-211.7 154,-211.7"/>
<text text-anchor="start" x="159" y="-220.8" font-family="Helvetica,sans-Serif" font-weight="bold" font-size="11.00" fill="#000000">daily_challenges</text>
<text text-anchor="start" x="281.0437" y="-219.8" font-family="Helvetica,sans-Serif" font-size="11.00" fill="#000000">[table]</text>
<polygon fill="none" stroke="#000000" points="154,-189.7 154,-211.7 271,-211.7 271,-189.7 154,-189.7"/>
<image xlink:href="../../images/primaryKeys.png" width="11px" height="12px" preserveAspectRatio="xMinYMin meet" x="159" y="-206.7"/>
<text text-anchor="start" x="174" y="-196.8" font-family="Helvetica,sans-Serif" font-size="11.00" fill="#000000">classes_id</text>
<polygon fill="none" stroke="#000000" points="271,-189.7 271,-211.7 316,-211.7 316,-189.7 271,-189.7"/>
<text text-anchor="start" x="274" y="-197.4" font-family="Helvetica,sans-Serif" font-size="11.00" fill="#000000">int[10]</text>
<polygon fill="none" stroke="#000000" points="154,-167.7 154,-189.7 271,-189.7 271,-167.7 154,-167.7"/>
<image xlink:href="../../images/primaryKeys.png" width="11px" height="12px" preserveAspectRatio="xMinYMin meet" x="159" y="-184.7"/>
<text text-anchor="start" x="174" y="-174.8" font-family="Helvetica,sans-Serif" font-size="11.00" fill="#000000">challenges_id</text>
<polygon fill="none" stroke="#000000" points="271,-167.7 271,-189.7 316,-189.7 316,-167.7 271,-167.7"/>
<text text-anchor="start" x="274" y="-175.4" font-family="Helvetica,sans-Serif" font-size="11.00" fill="#000000">int[10]</text>
<polygon fill="none" stroke="#000000" points="154,-145.7 154,-167.7 271,-167.7 271,-145.7 154,-145.7"/>
<image xlink:href="../../images/primaryKeys.png" width="11px" height="12px" preserveAspectRatio="xMinYMin meet" x="159" y="-162.7"/>
<text text-anchor="start" x="174" y="-152.8" font-family="Helvetica,sans-Serif" font-size="11.00" fill="#000000">date</text>
<polygon fill="none" stroke="#000000" points="271,-145.7 271,-167.7 316,-167.7 316,-145.7 271,-145.7"/>
<text text-anchor="start" x="273.6274" y="-153.4" font-family="Helvetica,sans-Serif" font-size="11.00" fill="#000000">date[10]</text>
<polygon fill="#ffffff" stroke="transparent" points="154,-126.7 154,-145.7 204,-145.7 204,-126.7 154,-126.7"/>
<polygon fill="none" stroke="#000000" points="154,-126.7 154,-145.7 204,-145.7 204,-126.7 154,-126.7"/>
<text text-anchor="start" x="157" y="-132.8" font-family="Helvetica,sans-Serif" font-size="11.00" fill="#000000">&lt; 2</text>
<polygon fill="#ffffff" stroke="transparent" points="204,-126.7 204,-145.7 271,-145.7 271,-126.7 204,-126.7"/>
<polygon fill="none" stroke="#000000" points="204,-126.7 204,-145.7 271,-145.7 271,-126.7 204,-126.7"/>
<text text-anchor="start" x="235.6105" y="-132.8" font-family="Helvetica,sans-Serif" font-size="11.00" fill="#000000">0 rows</text>
<polygon fill="#ffffff" stroke="transparent" points="271,-126.7 271,-145.7 316,-145.7 316,-126.7 271,-126.7"/>
<polygon fill="none" stroke="#000000" points="271,-126.7 271,-145.7 316,-145.7 316,-126.7 271,-126.7"/>
<text text-anchor="start" x="297.4053" y="-132.8" font-family="Helvetica,sans-Serif" font-size="11.00" fill="#000000">3 &gt;</text>
<polygon fill="none" stroke="#000000" stroke-width="2" points="153,-125.7 153,-235.7 317,-235.7 317,-125.7 153,-125.7"/>
</a>
</g>
</g>
<!-- completed_daily_challenges&#45;&gt;daily_challenges -->
<g id="edge1" class="edge">
<title>completed_daily_challenges:w&#45;&gt;daily_challenges:e</title>
<path fill="none" stroke="#000000" d="M352.8432,-188.825C340.5621,-185.45 333.6265,-178.7 316,-178.7"/>
<polygon fill="#000000" stroke="#000000" points="359.5647,-189.6848 367.0432,-194.2709 363.5323,-190.1924 367.5,-190.7 367.5,-190.7 367.5,-190.7 363.5323,-190.1924 367.9568,-187.1291 359.5647,-189.6848 359.5647,-189.6848"/>
<ellipse fill="none" stroke="#000000" cx="356.3905" cy="-189.2787" rx="3.2" ry="3.2"/>
</g>
<!-- completed_daily_challenges&#45;&gt;daily_challenges -->
<g id="edge2" class="edge">
<title>completed_daily_challenges:w&#45;&gt;daily_challenges:e</title>
<path fill="none" stroke="#000000" d="M352.8432,-210.825C340.5621,-207.45 333.6265,-200.7 316,-200.7"/>
<polygon fill="#000000" stroke="#000000" points="359.5647,-211.6848 367.0432,-216.2709 363.5323,-212.1924 367.5,-212.7 367.5,-212.7 367.5,-212.7 363.5323,-212.1924 367.9568,-209.1291 359.5647,-211.6848 359.5647,-211.6848"/>
<ellipse fill="none" stroke="#000000" cx="356.3905" cy="-211.2787" rx="3.2" ry="3.2"/>
</g>
<!-- completed_daily_challenges&#45;&gt;daily_challenges -->
<g id="edge3" class="edge">
<title>completed_daily_challenges:w&#45;&gt;daily_challenges:e</title>
<path fill="none" stroke="#000000" d="M352.8432,-166.825C340.5621,-163.45 333.6265,-156.7 316,-156.7"/>
<polygon fill="#000000" stroke="#000000" points="359.5647,-167.6848 367.0432,-172.2709 363.5323,-168.1924 367.5,-168.7 367.5,-168.7 367.5,-168.7 363.5323,-168.1924 367.9568,-165.1291 359.5647,-167.6848 359.5647,-167.6848"/>
<ellipse fill="none" stroke="#000000" cx="356.3905" cy="-167.2787" rx="3.2" ry="3.2"/>
</g>
<!-- gymnasts -->
<g id="node3" class="node">
<title>gymnasts</title>
<g id="a_node3"><a xlink:href="../../tables/gymnasts.html" xlink:title="gymnasts" target="_top">
<polygon fill="#ffffff" stroke="transparent" points="190,-258.2 190,-319.2 280,-319.2 280,-258.2 190,-258.2"/>
<polygon fill="#f5f5f5" stroke="transparent" points="190,-295.7 190,-318.7 280,-318.7 280,-295.7 190,-295.7"/>
<polygon fill="none" stroke="#000000" points="190,-295.7 190,-318.7 280,-318.7 280,-295.7 190,-295.7"/>
<text text-anchor="start" x="194.9683" y="-304.8" font-family="Helvetica,sans-Serif" font-weight="bold" font-size="11.00" fill="#000000">gymnasts</text>
<text text-anchor="start" x="245.5219" y="-303.8" font-family="Helvetica,sans-Serif" font-size="11.00" fill="#000000">[table]</text>
<polygon fill="none" stroke="#000000" points="190,-276.7 190,-295.7 280,-295.7 280,-276.7 190,-276.7"/>
<text text-anchor="start" x="193" y="-282.8" font-family="Helvetica,sans-Serif" font-size="11.00" fill="#000000">...</text>
<polygon fill="#ffffff" stroke="transparent" points="190,-257.7 190,-276.7 216,-276.7 216,-257.7 190,-257.7"/>
<polygon fill="none" stroke="#000000" points="190,-257.7 190,-276.7 216,-276.7 216,-257.7 190,-257.7"/>
<text text-anchor="start" x="193" y="-263.8" font-family="Helvetica,sans-Serif" font-size="11.00" fill="#000000">&lt; 2</text>
<polygon fill="#ffffff" stroke="transparent" points="216,-257.7 216,-276.7 256,-276.7 256,-257.7 216,-257.7"/>
<polygon fill="none" stroke="#000000" points="216,-257.7 216,-276.7 256,-276.7 256,-257.7 216,-257.7"/>
<text text-anchor="start" x="220.6105" y="-263.8" font-family="Helvetica,sans-Serif" font-size="11.00" fill="#000000">0 rows</text>
<polygon fill="#ffffff" stroke="transparent" points="256,-257.7 256,-276.7 280,-276.7 280,-257.7 256,-257.7"/>
<polygon fill="none" stroke="#000000" points="256,-257.7 256,-276.7 280,-276.7 280,-257.7 256,-257.7"/>
<text text-anchor="start" x="261.4053" y="-263.8" font-family="Helvetica,sans-Serif" font-size="11.00" fill="#000000">4 &gt;</text>
</a>
</g>
</g>
<!-- completed_daily_challenges&#45;&gt;gymnasts -->
<g id="edge4" class="edge">
<title>completed_daily_challenges:w&#45;&gt;gymnasts:e</title>
<path fill="none" stroke="#000000" d="M353.0702,-236.7624C322.402,-246.3037 319.5618,-285.7 280,-285.7"/>
<polygon fill="#000000" stroke="#000000" points="359.5805,-235.832 368.0094,-238.2638 363.5402,-235.266 367.5,-234.7 367.5,-234.7 367.5,-234.7 363.5402,-235.266 366.9906,-231.1362 359.5805,-235.832 359.5805,-235.832"/>
<ellipse fill="none" stroke="#000000" cx="356.4127" cy="-236.2848" rx="3.2" ry="3.2"/>
</g>
<!-- challenges -->
<g id="node4" class="node">
<title>challenges</title>
<g id="a_node4"><a xlink:href="../../tables/challenges.html" xlink:title="challenges" target="_top">
<polygon fill="#ffffff" stroke="transparent" points="8,-287.2 8,-370.2 103,-370.2 103,-287.2 8,-287.2"/>
<polygon fill="#f5f5f5" stroke="transparent" points="8.5,-346.7 8.5,-369.7 103.5,-369.7 103.5,-346.7 8.5,-346.7"/>
<polygon fill="none" stroke="#000000" points="8.5,-346.7 8.5,-369.7 103.5,-369.7 103.5,-346.7 8.5,-346.7"/>
<text text-anchor="start" x="13.2144" y="-355.8" font-family="Helvetica,sans-Serif" font-weight="bold" font-size="11.00" fill="#000000">challenges</text>
<text text-anchor="start" x="69.0219" y="-354.8" font-family="Helvetica,sans-Serif" font-size="11.00" fill="#000000">[table]</text>
<polygon fill="none" stroke="#000000" points="8.5,-324.7 8.5,-346.7 103.5,-346.7 103.5,-324.7 8.5,-324.7"/>
<image xlink:href="../../images/primaryKeys.png" width="11px" height="12px" preserveAspectRatio="xMinYMin meet" x="13.5" y="-341.7"/>
<text text-anchor="start" x="33.5" y="-331.8" font-family="Helvetica,sans-Serif" font-size="11.00" fill="#000000">id</text>
<polygon fill="none" stroke="#000000" points="8.5,-305.7 8.5,-324.7 103.5,-324.7 103.5,-305.7 8.5,-305.7"/>
<text text-anchor="start" x="11.5" y="-311.8" font-family="Helvetica,sans-Serif" font-size="11.00" fill="#000000">...</text>
<polygon fill="#ffffff" stroke="transparent" points="8.5,-286.7 8.5,-305.7 32.5,-305.7 32.5,-286.7 8.5,-286.7"/>
<polygon fill="none" stroke="#000000" points="8.5,-286.7 8.5,-305.7 32.5,-305.7 32.5,-286.7 8.5,-286.7"/>
<text text-anchor="start" x="11.5" y="-292.8" font-family="Helvetica,sans-Serif" font-size="11.00" fill="#000000"> &#160;</text>
<polygon fill="#ffffff" stroke="transparent" points="32.5,-286.7 32.5,-305.7 76.5,-305.7 76.5,-286.7 32.5,-286.7"/>
<polygon fill="none" stroke="#000000" points="32.5,-286.7 32.5,-305.7 76.5,-305.7 76.5,-286.7 32.5,-286.7"/>
<text text-anchor="start" x="41.1105" y="-292.8" font-family="Helvetica,sans-Serif" font-size="11.00" fill="#000000">0 rows</text>
<polygon fill="#ffffff" stroke="transparent" points="76.5,-286.7 76.5,-305.7 103.5,-305.7 103.5,-286.7 76.5,-286.7"/>
<polygon fill="none" stroke="#000000" points="76.5,-286.7 76.5,-305.7 103.5,-305.7 103.5,-286.7 76.5,-286.7"/>
<text text-anchor="start" x="84.9053" y="-292.8" font-family="Helvetica,sans-Serif" font-size="11.00" fill="#000000">2 &gt;</text>
</a>
</g>
</g>
<!-- daily_challenges&#45;&gt;challenges -->
<g id="edge5" class="edge">
<title>daily_challenges:w&#45;&gt;challenges:e</title>
<path fill="none" stroke="#000000" d="M139.7608,-181.425C94.6826,-202.273 171.0722,-335.7 103.5,-335.7"/>
<polygon fill="#000000" stroke="#000000" points="146.1426,-180.2038 154.6767,-182.2358 150.0713,-179.4519 154,-178.7 154,-178.7 154,-178.7 150.0713,-179.4519 153.3233,-175.1642 146.1426,-180.2038 146.1426,-180.2038"/>
<ellipse fill="none" stroke="#000000" cx="142.9996" cy="-180.8053" rx="3.2" ry="3.2"/>
</g>
<!-- classes -->
<g id="node5" class="node">
<title>classes</title>
<g id="a_node5"><a xlink:href="../../tables/classes.html" xlink:title="classes" target="_top">
<polygon fill="#ffffff" stroke="transparent" points="13,-152.2 13,-235.2 98,-235.2 98,-152.2 13,-152.2"/>
<polygon fill="#f5f5f5" stroke="transparent" points="13.5,-211.7 13.5,-234.7 98.5,-234.7 98.5,-211.7 13.5,-211.7"/>
<polygon fill="none" stroke="#000000" points="13.5,-211.7 13.5,-234.7 98.5,-234.7 98.5,-211.7 13.5,-211.7"/>
<text text-anchor="start" x="18.5" y="-220.8" font-family="Helvetica,sans-Serif" font-weight="bold" font-size="11.00" fill="#000000">classes</text>
<text text-anchor="start" x="63.5437" y="-219.8" font-family="Helvetica,sans-Serif" font-size="11.00" fill="#000000">[table]</text>
<polygon fill="none" stroke="#000000" points="13.5,-189.7 13.5,-211.7 98.5,-211.7 98.5,-189.7 13.5,-189.7"/>
<image xlink:href="../../images/primaryKeys.png" width="11px" height="12px" preserveAspectRatio="xMinYMin meet" x="18.5" y="-206.7"/>
<text text-anchor="start" x="33.5" y="-196.8" font-family="Helvetica,sans-Serif" font-size="11.00" fill="#000000">id</text>
<polygon fill="none" stroke="#000000" points="13.5,-170.7 13.5,-189.7 98.5,-189.7 98.5,-170.7 13.5,-170.7"/>
<text text-anchor="start" x="16.5" y="-176.8" font-family="Helvetica,sans-Serif" font-size="11.00" fill="#000000">...</text>
<polygon fill="#ffffff" stroke="transparent" points="13.5,-151.7 13.5,-170.7 32.5,-170.7 32.5,-151.7 13.5,-151.7"/>
<polygon fill="none" stroke="#000000" points="13.5,-151.7 13.5,-170.7 32.5,-170.7 32.5,-151.7 13.5,-151.7"/>
<text text-anchor="start" x="16.5" y="-157.8" font-family="Helvetica,sans-Serif" font-size="11.00" fill="#000000"> &#160;</text>
<polygon fill="#ffffff" stroke="transparent" points="32.5,-151.7 32.5,-170.7 73.5,-170.7 73.5,-151.7 32.5,-151.7"/>
<polygon fill="none" stroke="#000000" points="32.5,-151.7 32.5,-170.7 73.5,-170.7 73.5,-151.7 32.5,-151.7"/>
<text text-anchor="start" x="38.1105" y="-157.8" font-family="Helvetica,sans-Serif" font-size="11.00" fill="#000000">0 rows</text>
<polygon fill="#ffffff" stroke="transparent" points="73.5,-151.7 73.5,-170.7 98.5,-170.7 98.5,-151.7 73.5,-151.7"/>
<polygon fill="none" stroke="#000000" points="73.5,-151.7 73.5,-170.7 98.5,-170.7 98.5,-151.7 73.5,-151.7"/>
<text text-anchor="start" x="79.9053" y="-157.8" font-family="Helvetica,sans-Serif" font-size="11.00" fill="#000000">3 &gt;</text>
</a>
</g>
</g>
<!-- daily_challenges&#45;&gt;classes -->
<g id="edge6" class="edge">
<title>daily_challenges:w&#45;&gt;classes:e</title>
<path fill="none" stroke="#000000" d="M139.2286,-200.7C125.4265,-200.7 117.3854,-200.7 98.5,-200.7"/>
<polygon fill="#000000" stroke="#000000" points="146,-200.7001 154,-204.3 150,-200.7 154,-200.7 154,-200.7 154,-200.7 150,-200.7 154,-197.1 146,-200.7001 146,-200.7001"/>
<ellipse fill="none" stroke="#000000" cx="142.8" cy="-200.7001" rx="3.2" ry="3.2"/>
</g>
<!-- gymnasts_classes -->
<g id="node6" class="node">
<title>gymnasts_classes</title>
<g id="a_node6"><a xlink:href="../../tables/gymnasts_classes.html" xlink:title="gymnasts_classes" target="_top">
<polygon fill="#ffffff" stroke="transparent" points="402.5,-38.2 402.5,-99.2 534.5,-99.2 534.5,-38.2 402.5,-38.2"/>
<polygon fill="#f5f5f5" stroke="transparent" points="402.5,-75.7 402.5,-98.7 534.5,-98.7 534.5,-75.7 402.5,-75.7"/>
<polygon fill="none" stroke="#000000" points="402.5,-75.7 402.5,-98.7 534.5,-98.7 534.5,-75.7 402.5,-75.7"/>
<text text-anchor="start" x="407.0755" y="-84.8" font-family="Helvetica,sans-Serif" font-weight="bold" font-size="11.00" fill="#000000">gymnasts_classes</text>
<text text-anchor="start" x="500.0219" y="-83.8" font-family="Helvetica,sans-Serif" font-size="11.00" fill="#000000">[table]</text>
<polygon fill="none" stroke="#000000" points="402.5,-56.7 402.5,-75.7 534.5,-75.7 534.5,-56.7 402.5,-56.7"/>
<text text-anchor="start" x="405.5" y="-62.8" font-family="Helvetica,sans-Serif" font-size="11.00" fill="#000000">...</text>
<polygon fill="#ffffff" stroke="transparent" points="402.5,-37.7 402.5,-56.7 453.5,-56.7 453.5,-37.7 402.5,-37.7"/>
<polygon fill="none" stroke="#000000" points="402.5,-37.7 402.5,-56.7 453.5,-56.7 453.5,-37.7 402.5,-37.7"/>
<text text-anchor="start" x="405.5" y="-43.8" font-family="Helvetica,sans-Serif" font-size="11.00" fill="#000000">&lt; 2</text>
<polygon fill="#ffffff" stroke="transparent" points="453.5,-37.7 453.5,-56.7 506.5,-56.7 506.5,-37.7 453.5,-37.7"/>
<polygon fill="none" stroke="#000000" points="453.5,-37.7 453.5,-56.7 506.5,-56.7 506.5,-37.7 453.5,-37.7"/>
<text text-anchor="start" x="471.1105" y="-43.8" font-family="Helvetica,sans-Serif" font-size="11.00" fill="#000000">0 rows</text>
<polygon fill="#ffffff" stroke="transparent" points="506.5,-37.7 506.5,-56.7 534.5,-56.7 534.5,-37.7 506.5,-37.7"/>
<polygon fill="none" stroke="#000000" points="506.5,-37.7 506.5,-56.7 534.5,-56.7 534.5,-37.7 506.5,-37.7"/>
<text text-anchor="start" x="525.3862" y="-43.8" font-family="Helvetica,sans-Serif" font-size="11.00" fill="#000000"> &#160;</text>
</a>
</g>
</g>
<!-- gymnasts_classes&#45;&gt;gymnasts -->
<g id="edge8" class="edge">
<title>gymnasts_classes:w&#45;&gt;gymnasts:e</title>
<path fill="none" stroke="#000000" d="M388.1238,-67.1049C299.6171,-85.8416 386.6678,-285.7 280,-285.7"/>
<polygon fill="#000000" stroke="#000000" points="394.5379,-66.4781 402.8502,-69.2829 398.519,-66.0891 402.5,-65.7 402.5,-65.7 402.5,-65.7 398.519,-66.0891 402.1498,-62.1171 394.5379,-66.4781 394.5379,-66.4781"/>
<ellipse fill="none" stroke="#000000" cx="391.3531" cy="-66.7894" rx="3.2" ry="3.2"/>
</g>
<!-- gymnasts_classes&#45;&gt;classes -->
<g id="edge7" class="edge">
<title>gymnasts_classes:w&#45;&gt;classes:e</title>
<path fill="none" stroke="#000000" d="M387.8019,-65.5956C281.3992,-64.1099 234.046,-48.25 144,-114.7 109.2062,-140.3763 141.7421,-200.7 98.5,-200.7"/>
<polygon fill="#000000" stroke="#000000" points="394.5002,-65.6431 402.4744,-69.2999 398.5001,-65.6716 402.5,-65.7 402.5,-65.7 402.5,-65.7 398.5001,-65.6716 402.5256,-62.1001 394.5002,-65.6431 394.5002,-65.6431"/>
<ellipse fill="none" stroke="#000000" cx="391.3003" cy="-65.6204" rx="3.2" ry="3.2"/>
</g>
<!-- normal_challenges -->
<g id="node7" class="node">
<title>normal_challenges</title>
<g id="a_node7"><a xlink:href="../../tables/normal_challenges.html" xlink:title="normal_challenges" target="_top">
<polygon fill="#ffffff" stroke="transparent" points="167.5,-340.2 167.5,-401.2 302.5,-401.2 302.5,-340.2 167.5,-340.2"/>
<polygon fill="#f5f5f5" stroke="transparent" points="168,-377.7 168,-400.7 303,-400.7 303,-377.7 168,-377.7"/>
<polygon fill="none" stroke="#000000" points="168,-377.7 168,-400.7 303,-400.7 303,-377.7 168,-377.7"/>
<text text-anchor="start" x="172.8523" y="-386.8" font-family="Helvetica,sans-Serif" font-weight="bold" font-size="11.00" fill="#000000">normal_challenges</text>
<text text-anchor="start" x="268.5219" y="-385.8" font-family="Helvetica,sans-Serif" font-size="11.00" fill="#000000">[table]</text>
<polygon fill="none" stroke="#000000" points="168,-358.7 168,-377.7 303,-377.7 303,-358.7 168,-358.7"/>
<text text-anchor="start" x="171" y="-364.8" font-family="Helvetica,sans-Serif" font-size="11.00" fill="#000000">...</text>
<polygon fill="#ffffff" stroke="transparent" points="168,-339.7 168,-358.7 216,-358.7 216,-339.7 168,-339.7"/>
<polygon fill="none" stroke="#000000" points="168,-339.7 168,-358.7 216,-358.7 216,-339.7 168,-339.7"/>
<text text-anchor="start" x="171" y="-345.8" font-family="Helvetica,sans-Serif" font-size="11.00" fill="#000000">&lt; 2</text>
<polygon fill="#ffffff" stroke="transparent" points="216,-339.7 216,-358.7 268,-358.7 268,-339.7 216,-339.7"/>
<polygon fill="none" stroke="#000000" points="216,-339.7 216,-358.7 268,-358.7 268,-339.7 216,-339.7"/>
<text text-anchor="start" x="232.6105" y="-345.8" font-family="Helvetica,sans-Serif" font-size="11.00" fill="#000000">0 rows</text>
<polygon fill="#ffffff" stroke="transparent" points="268,-339.7 268,-358.7 303,-358.7 303,-339.7 268,-339.7"/>
<polygon fill="none" stroke="#000000" points="268,-339.7 268,-358.7 303,-358.7 303,-339.7 268,-339.7"/>
<text text-anchor="start" x="284.4053" y="-345.8" font-family="Helvetica,sans-Serif" font-size="11.00" fill="#000000">2 &gt;</text>
</a>
</g>
</g>
<!-- normal_challenges&#45;&gt;challenges -->
<g id="edge9" class="edge">
<title>normal_challenges:w&#45;&gt;challenges:e</title>
<path fill="none" stroke="#000000" d="M153.7026,-365.0813C134.8506,-357.4388 129.8756,-335.7 103.5,-335.7"/>
<polygon fill="#000000" stroke="#000000" points="160.1309,-366.2587 167.3514,-371.2411 164.0655,-366.9793 168,-367.7 168,-367.7 168,-367.7 164.0655,-366.9793 168.6486,-364.1589 160.1309,-366.2587 160.1309,-366.2587"/>
<ellipse fill="none" stroke="#000000" cx="156.9833" cy="-365.6821" rx="3.2" ry="3.2"/>
</g>
<!-- normal_challenges&#45;&gt;classes -->
<g id="edge10" class="edge">
<title>normal_challenges:w&#45;&gt;classes:e</title>
<path fill="none" stroke="#000000" d="M153.469,-365.3392C99.5952,-345.0412 173.2405,-200.7 98.5,-200.7"/>
<polygon fill="#000000" stroke="#000000" points="160.1035,-366.4171 167.4227,-371.2534 164.0518,-367.0585 168,-367.7 168,-367.7 168,-367.7 164.0518,-367.0585 168.5773,-364.1466 160.1035,-366.4171 160.1035,-366.4171"/>
<ellipse fill="none" stroke="#000000" cx="156.9449" cy="-365.9039" rx="3.2" ry="3.2"/>
</g>
</g>
</svg>
