<?xml version="1.0" encoding="UTF-8" standalone="no"?>
<!DOCTYPE svg PUBLIC "-//W3C//DTD SVG 1.1//EN"
 "http://www.w3.org/Graphics/SVG/1.1/DTD/svg11.dtd">
<!-- Generated by graphviz version 2.40.1 (20161225.0304)
 -->
<!-- Title: oneDegreeRelationshipsDiagram Pages: 1 -->
<svg width="773pt" height="239pt"
 viewBox="0.00 0.00 773.00 239.20" xmlns="http://www.w3.org/2000/svg" xmlns:xlink="http://www.w3.org/1999/xlink">
<g id="graph0" class="graph" transform="scale(1 1) rotate(0) translate(4 235.2)">
<title>oneDegreeRelationshipsDiagram</title>
<polygon fill="#ffffff" stroke="transparent" points="-4,4 -4,-235.2 769,-235.2 769,4 -4,4"/>
<text text-anchor="middle" x="72.4936" y="-7.3" font-family="Helvetica,sans-Serif" font-size="11.00" fill="#000000">Generated by SchemaSpy</text>
<!-- challenges -->
<g id="node1" class="node">
<title>challenges</title>
<g id="a_node1"><a xlink:href="../../tables/challenges.html" xlink:title="challenges" target="_top">
<polygon fill="#ffffff" stroke="transparent" points="142,-38.2 142,-165.2 285,-165.2 285,-38.2 142,-38.2"/>
<polygon fill="#f5f5f5" stroke="transparent" points="142.5,-141.7 142.5,-164.7 285.5,-164.7 285.5,-141.7 142.5,-141.7"/>
<polygon fill="none" stroke="#000000" points="142.5,-141.7 142.5,-164.7 285.5,-164.7 285.5,-141.7 142.5,-141.7"/>
<text text-anchor="start" x="147.5" y="-150.8" font-family="Helvetica,sans-Serif" font-weight="bold" font-size="11.00" fill="#000000">challenges</text>
<text text-anchor="start" x="250.5437" y="-149.8" font-family="Helvetica,sans-Serif" font-size="11.00" fill="#000000">[table]</text>
<polygon fill="none" stroke="#000000" points="142.5,-119.7 142.5,-141.7 285.5,-141.7 285.5,-119.7 142.5,-119.7"/>
<image xlink:href="../../images/primaryKeys.png" width="11px" height="12px" preserveAspectRatio="xMinYMin meet" x="147.5" y="-136.7"/>
<text text-anchor="start" x="162.5" y="-126.8" font-family="Helvetica,sans-Serif" font-size="11.00" fill="#000000">id</text>
<polygon fill="#ffffff" stroke="transparent" points="142.5,-97.7 142.5,-119.7 285.5,-119.7 285.5,-97.7 142.5,-97.7"/>
<polygon fill="none" stroke="#000000" points="142.5,-97.7 142.5,-119.7 285.5,-119.7 285.5,-97.7 142.5,-97.7"/>
<image xlink:href="../../images/foreignKeys.png" width="11px" height="12px" preserveAspectRatio="xMinYMin meet" x="147.5" y="-114.7"/>
<text text-anchor="start" x="162.5" y="-104.8" font-family="Helvetica,sans-Serif" font-size="11.00" fill="#000000">gym_id</text>
<polygon fill="#ffffff" stroke="transparent" points="142.5,-75.7 142.5,-97.7 285.5,-97.7 285.5,-75.7 142.5,-75.7"/>
<polygon fill="none" stroke="#000000" points="142.5,-75.7 142.5,-97.7 285.5,-97.7 285.5,-75.7 142.5,-75.7"/>
<image xlink:href="../../images/foreignKeys.png" width="11px" height="12px" preserveAspectRatio="xMinYMin meet" x="147.5" y="-92.7"/>
<text text-anchor="start" x="162.5" y="-82.8" font-family="Helvetica,sans-Serif" font-size="11.00" fill="#000000">class_id</text>
<polygon fill="none" stroke="#000000" points="142.5,-56.7 142.5,-75.7 285.5,-75.7 285.5,-56.7 142.5,-56.7"/>
<text text-anchor="start" x="145.5" y="-62.8" font-family="Helvetica,sans-Serif" font-size="11.00" fill="#000000">...</text>
<polygon fill="#ffffff" stroke="transparent" points="142.5,-37.7 142.5,-56.7 194.5,-56.7 194.5,-37.7 142.5,-37.7"/>
<polygon fill="none" stroke="#000000" points="142.5,-37.7 142.5,-56.7 194.5,-56.7 194.5,-37.7 142.5,-37.7"/>
<text text-anchor="start" x="145.5" y="-43.8" font-family="Helvetica,sans-Serif" font-size="11.00" fill="#000000">&lt; 2</text>
<polygon fill="#ffffff" stroke="transparent" points="194.5,-37.7 194.5,-56.7 248.5,-56.7 248.5,-37.7 194.5,-37.7"/>
<polygon fill="none" stroke="#000000" points="194.5,-37.7 194.5,-56.7 248.5,-56.7 248.5,-37.7 194.5,-37.7"/>
<text text-anchor="start" x="213.1105" y="-43.8" font-family="Helvetica,sans-Serif" font-size="11.00" fill="#000000">0 rows</text>
<polygon fill="#ffffff" stroke="transparent" points="248.5,-37.7 248.5,-56.7 285.5,-56.7 285.5,-37.7 248.5,-37.7"/>
<polygon fill="none" stroke="#000000" points="248.5,-37.7 248.5,-56.7 285.5,-56.7 285.5,-37.7 248.5,-37.7"/>
<text text-anchor="start" x="266.9053" y="-43.8" font-family="Helvetica,sans-Serif" font-size="11.00" fill="#000000">2 &gt;</text>
</a>
</g>
</g>
<!-- classes -->
<g id="node2" class="node">
<title>classes</title>
<g id="a_node2"><a xlink:href="../../tables/classes.html" xlink:title="classes" target="_top">
<polygon fill="#ffffff" stroke="transparent" points="8,-67.2 8,-172.2 93,-172.2 93,-67.2 8,-67.2"/>
<polygon fill="#f5f5f5" stroke="transparent" points="8.5,-148.7 8.5,-171.7 93.5,-171.7 93.5,-148.7 8.5,-148.7"/>
<polygon fill="none" stroke="#000000" points="8.5,-148.7 8.5,-171.7 93.5,-171.7 93.5,-148.7 8.5,-148.7"/>
<text text-anchor="start" x="13.5" y="-157.8" font-family="Helvetica,sans-Serif" font-weight="bold" font-size="11.00" fill="#000000">classes</text>
<text text-anchor="start" x="58.5437" y="-156.8" font-family="Helvetica,sans-Serif" font-size="11.00" fill="#000000">[table]</text>
<polygon fill="none" stroke="#000000" points="8.5,-126.7 8.5,-148.7 93.5,-148.7 93.5,-126.7 8.5,-126.7"/>
<image xlink:href="../../images/primaryKeys.png" width="11px" height="12px" preserveAspectRatio="xMinYMin meet" x="13.5" y="-143.7"/>
<text text-anchor="start" x="28.5" y="-133.8" font-family="Helvetica,sans-Serif" font-size="11.00" fill="#000000">id</text>
<polygon fill="#ffffff" stroke="transparent" points="8.5,-104.7 8.5,-126.7 93.5,-126.7 93.5,-104.7 8.5,-104.7"/>
<polygon fill="none" stroke="#000000" points="8.5,-104.7 8.5,-126.7 93.5,-126.7 93.5,-104.7 8.5,-104.7"/>
<image xlink:href="../../images/foreignKeys.png" width="11px" height="12px" preserveAspectRatio="xMinYMin meet" x="13.5" y="-121.7"/>
<text text-anchor="start" x="28.5" y="-111.8" font-family="Helvetica,sans-Serif" font-size="11.00" fill="#000000">skill_list_id</text>
<polygon fill="none" stroke="#000000" points="8.5,-85.7 8.5,-104.7 93.5,-104.7 93.5,-85.7 8.5,-85.7"/>
<text text-anchor="start" x="11.5" y="-91.8" font-family="Helvetica,sans-Serif" font-size="11.00" fill="#000000">...</text>
<polygon fill="#ffffff" stroke="transparent" points="8.5,-66.7 8.5,-85.7 31.5,-85.7 31.5,-66.7 8.5,-66.7"/>
<polygon fill="none" stroke="#000000" points="8.5,-66.7 8.5,-85.7 31.5,-85.7 31.5,-66.7 8.5,-66.7"/>
<text text-anchor="start" x="11.5" y="-72.8" font-family="Helvetica,sans-Serif" font-size="11.00" fill="#000000">&lt; 1</text>
<polygon fill="#ffffff" stroke="transparent" points="31.5,-66.7 31.5,-85.7 70.5,-85.7 70.5,-66.7 31.5,-66.7"/>
<polygon fill="none" stroke="#000000" points="31.5,-66.7 31.5,-85.7 70.5,-85.7 70.5,-66.7 31.5,-66.7"/>
<text text-anchor="start" x="35.1105" y="-72.8" font-family="Helvetica,sans-Serif" font-size="11.00" fill="#000000">0 rows</text>
<polygon fill="#ffffff" stroke="transparent" points="70.5,-66.7 70.5,-85.7 93.5,-85.7 93.5,-66.7 70.5,-66.7"/>
<polygon fill="none" stroke="#000000" points="70.5,-66.7 70.5,-85.7 93.5,-85.7 93.5,-66.7 70.5,-66.7"/>
<text text-anchor="start" x="74.9053" y="-72.8" font-family="Helvetica,sans-Serif" font-size="11.00" fill="#000000">4 &gt;</text>
</a>
</g>
</g>
<!-- challenges&#45;&gt;classes -->
<g id="edge1" class="edge">
<title>challenges:w&#45;&gt;classes:e</title>
<path fill="none" stroke="#000000" d="M128.5912,-91.7765C114.7553,-104.6764 118.7939,-137.7 93.5,-137.7"/>
<polygon fill="#000000" stroke="#000000" points="134.9849,-89.4429 143.7343,-90.0818 138.7425,-88.0715 142.5,-86.7 142.5,-86.7 142.5,-86.7 138.7425,-88.0715 141.2657,-83.3182 134.9849,-89.4429 134.9849,-89.4429"/>
<ellipse fill="none" stroke="#000000" cx="131.9789" cy="-90.5401" rx="3.2" ry="3.2"/>
</g>
<!-- completed_daily_challenges -->
<g id="node3" class="node">
<title>completed_daily_challenges</title>
<g id="a_node3"><a xlink:href="../../tables/completed_daily_challenges.html" xlink:title="completed_daily_challenges" target="_top">
<polygon fill="#ffffff" stroke="transparent" points="554,-78.2 554,-227.2 757,-227.2 757,-78.2 554,-78.2"/>
<polygon fill="#f5f5f5" stroke="transparent" points="554.5,-203.7 554.5,-226.7 757.5,-226.7 757.5,-203.7 554.5,-203.7"/>
<polygon fill="none" stroke="#000000" points="554.5,-203.7 554.5,-226.7 757.5,-226.7 757.5,-203.7 554.5,-203.7"/>
<text text-anchor="start" x="559.5" y="-212.8" font-family="Helvetica,sans-Serif" font-weight="bold" font-size="11.00" fill="#000000">completed_daily_challenges</text>
<text text-anchor="start" x="722.5437" y="-211.8" font-family="Helvetica,sans-Serif" font-size="11.00" fill="#000000">[table]</text>
<polygon fill="none" stroke="#000000" points="554.5,-181.7 554.5,-203.7 757.5,-203.7 757.5,-181.7 554.5,-181.7"/>
<image xlink:href="../../images/primaryKeys.png" width="11px" height="12px" preserveAspectRatio="xMinYMin meet" x="559.5" y="-198.7"/>
<text text-anchor="start" x="574.5" y="-188.8" font-family="Helvetica,sans-Serif" font-size="11.00" fill="#000000">gymnasts_id</text>
<polygon fill="none" stroke="#000000" points="554.5,-159.7 554.5,-181.7 757.5,-181.7 757.5,-159.7 554.5,-159.7"/>
<image xlink:href="../../images/primaryKeys.png" width="11px" height="12px" preserveAspectRatio="xMinYMin meet" x="559.5" y="-176.7"/>
<text text-anchor="start" x="574.5" y="-166.8" font-family="Helvetica,sans-Serif" font-size="11.00" fill="#000000">daily_challenges_classes_id</text>
<polygon fill="none" stroke="#000000" points="554.5,-137.7 554.5,-159.7 757.5,-159.7 757.5,-137.7 554.5,-137.7"/>
<image xlink:href="../../images/primaryKeys.png" width="11px" height="12px" preserveAspectRatio="xMinYMin meet" x="559.5" y="-154.7"/>
<text text-anchor="start" x="574.5" y="-144.8" font-family="Helvetica,sans-Serif" font-size="11.00" fill="#000000">daily_challenges_challenges_id</text>
<polygon fill="none" stroke="#000000" points="554.5,-115.7 554.5,-137.7 757.5,-137.7 757.5,-115.7 554.5,-115.7"/>
<image xlink:href="../../images/primaryKeys.png" width="11px" height="12px" preserveAspectRatio="xMinYMin meet" x="559.5" y="-132.7"/>
<text text-anchor="start" x="574.5" y="-122.8" font-family="Helvetica,sans-Serif" font-size="11.00" fill="#000000">daily_challenges_date</text>
<polygon fill="none" stroke="#000000" points="554.5,-96.7 554.5,-115.7 757.5,-115.7 757.5,-96.7 554.5,-96.7"/>
<text text-anchor="start" x="557.5" y="-102.8" font-family="Helvetica,sans-Serif" font-size="11.00" fill="#000000">...</text>
<polygon fill="#ffffff" stroke="transparent" points="554.5,-77.7 554.5,-96.7 641.5,-96.7 641.5,-77.7 554.5,-77.7"/>
<polygon fill="none" stroke="#000000" points="554.5,-77.7 554.5,-96.7 641.5,-96.7 641.5,-77.7 554.5,-77.7"/>
<text text-anchor="start" x="557.5" y="-83.8" font-family="Helvetica,sans-Serif" font-size="11.00" fill="#000000">&lt; 4</text>
<polygon fill="#ffffff" stroke="transparent" points="641.5,-77.7 641.5,-96.7 712.5,-96.7 712.5,-77.7 641.5,-77.7"/>
<polygon fill="none" stroke="#000000" points="641.5,-77.7 641.5,-96.7 712.5,-96.7 712.5,-77.7 641.5,-77.7"/>
<text text-anchor="start" x="677.1105" y="-83.8" font-family="Helvetica,sans-Serif" font-size="11.00" fill="#000000">0 rows</text>
<polygon fill="#ffffff" stroke="transparent" points="712.5,-77.7 712.5,-96.7 757.5,-96.7 757.5,-77.7 712.5,-77.7"/>
<polygon fill="none" stroke="#000000" points="712.5,-77.7 712.5,-96.7 757.5,-96.7 757.5,-77.7 712.5,-77.7"/>
<text text-anchor="start" x="748.3862" y="-83.8" font-family="Helvetica,sans-Serif" font-size="11.00" fill="#000000"> &#160;</text>
</a>
</g>
</g>
<!-- daily_challenges -->
<g id="node4" class="node">
<title>daily_challenges</title>
<g id="a_node4"><a xlink:href="../../tables/daily_challenges.html" xlink:title="daily_challenges" target="_top">
<polygon fill="#ffffff" stroke="transparent" points="334,-94.7 334,-206.7 505,-206.7 505,-94.7 334,-94.7"/>
<polygon fill="#f5f5f5" stroke="transparent" points="336.5,-181.7 336.5,-204.7 503.5,-204.7 503.5,-181.7 336.5,-181.7"/>
<polygon fill="none" stroke="#000000" points="336.5,-181.7 336.5,-204.7 503.5,-204.7 503.5,-181.7 336.5,-181.7"/>
<text text-anchor="start" x="341.5" y="-190.8" font-family="Helvetica,sans-Serif" font-weight="bold" font-size="11.00" fill="#000000">daily_challenges</text>
<text text-anchor="start" x="468.5437" y="-189.8" font-family="Helvetica,sans-Serif" font-size="11.00" fill="#000000">[table]</text>
<polygon fill="none" stroke="#000000" points="336.5,-159.7 336.5,-181.7 453.5,-181.7 453.5,-159.7 336.5,-159.7"/>
<image xlink:href="../../images/primaryKeys.png" width="11px" height="12px" preserveAspectRatio="xMinYMin meet" x="341.5" y="-176.7"/>
<text text-anchor="start" x="356.5" y="-166.8" font-family="Helvetica,sans-Serif" font-size="11.00" fill="#000000">classes_id</text>
<polygon fill="none" stroke="#000000" points="453.5,-159.7 453.5,-181.7 503.5,-181.7 503.5,-159.7 453.5,-159.7"/>
<text text-anchor="start" x="456.1865" y="-167.4" font-family="Helvetica,sans-Serif" font-size="11.00" fill="#000000">bigint[19]</text>
<polygon fill="none" stroke="#000000" points="336.5,-137.7 336.5,-159.7 453.5,-159.7 453.5,-137.7 336.5,-137.7"/>
<image xlink:href="../../images/primaryKeys.png" width="11px" height="12px" preserveAspectRatio="xMinYMin meet" x="341.5" y="-154.7"/>
<text text-anchor="start" x="356.5" y="-144.8" font-family="Helvetica,sans-Serif" font-size="11.00" fill="#000000">challenges_id</text>
<polygon fill="none" stroke="#000000" points="453.5,-137.7 453.5,-159.7 503.5,-159.7 503.5,-137.7 453.5,-137.7"/>
<text text-anchor="start" x="456.1865" y="-145.4" font-family="Helvetica,sans-Serif" font-size="11.00" fill="#000000">bigint[19]</text>
<polygon fill="none" stroke="#000000" points="336.5,-115.7 336.5,-137.7 453.5,-137.7 453.5,-115.7 336.5,-115.7"/>
<image xlink:href="../../images/primaryKeys.png" width="11px" height="12px" preserveAspectRatio="xMinYMin meet" x="341.5" y="-132.7"/>
<text text-anchor="start" x="356.5" y="-122.8" font-family="Helvetica,sans-Serif" font-size="11.00" fill="#000000">date</text>
<polygon fill="none" stroke="#000000" points="453.5,-115.7 453.5,-137.7 503.5,-137.7 503.5,-115.7 453.5,-115.7"/>
<text text-anchor="start" x="456.5" y="-123.4" font-family="Helvetica,sans-Serif" font-size="11.00" fill="#000000">date[10]</text>
<polygon fill="#ffffff" stroke="transparent" points="336.5,-96.7 336.5,-115.7 386.5,-115.7 386.5,-96.7 336.5,-96.7"/>
<polygon fill="none" stroke="#000000" points="336.5,-96.7 336.5,-115.7 386.5,-115.7 386.5,-96.7 336.5,-96.7"/>
<text text-anchor="start" x="339.5" y="-102.8" font-family="Helvetica,sans-Serif" font-size="11.00" fill="#000000">&lt; 2</text>
<polygon fill="#ffffff" stroke="transparent" points="386.5,-96.7 386.5,-115.7 453.5,-115.7 453.5,-96.7 386.5,-96.7"/>
<polygon fill="none" stroke="#000000" points="386.5,-96.7 386.5,-115.7 453.5,-115.7 453.5,-96.7 386.5,-96.7"/>
<text text-anchor="start" x="418.1105" y="-102.8" font-family="Helvetica,sans-Serif" font-size="11.00" fill="#000000">0 rows</text>
<polygon fill="#ffffff" stroke="transparent" points="453.5,-96.7 453.5,-115.7 503.5,-115.7 503.5,-96.7 453.5,-96.7"/>
<polygon fill="none" stroke="#000000" points="453.5,-96.7 453.5,-115.7 503.5,-115.7 503.5,-96.7 453.5,-96.7"/>
<text text-anchor="start" x="484.9053" y="-102.8" font-family="Helvetica,sans-Serif" font-size="11.00" fill="#000000">3 &gt;</text>
<polygon fill="none" stroke="#000000" stroke-width="2" points="335,-95.7 335,-205.7 504,-205.7 504,-95.7 335,-95.7"/>
</a>
</g>
</g>
<!-- completed_daily_challenges&#45;&gt;daily_challenges -->
<g id="edge2" class="edge">
<title>completed_daily_challenges:w&#45;&gt;daily_challenges:e</title>
<path fill="none" stroke="#000000" d="M539.776,-148.7C527.7815,-148.7 520.3229,-148.7 503.5,-148.7"/>
<polygon fill="#000000" stroke="#000000" points="546.5,-148.7001 554.5,-152.3 550.5,-148.7 554.5,-148.7 554.5,-148.7 554.5,-148.7 550.5,-148.7 554.5,-145.1 546.5,-148.7001 546.5,-148.7001"/>
<ellipse fill="none" stroke="#000000" cx="543.3" cy="-148.7001" rx="3.2" ry="3.2"/>
</g>
<!-- completed_daily_challenges&#45;&gt;daily_challenges -->
<g id="edge3" class="edge">
<title>completed_daily_challenges:w&#45;&gt;daily_challenges:e</title>
<path fill="none" stroke="#000000" d="M539.776,-170.7C527.7815,-170.7 520.3229,-170.7 503.5,-170.7"/>
<polygon fill="#000000" stroke="#000000" points="546.5,-170.7001 554.5,-174.3 550.5,-170.7 554.5,-170.7 554.5,-170.7 554.5,-170.7 550.5,-170.7 554.5,-167.1 546.5,-170.7001 546.5,-170.7001"/>
<ellipse fill="none" stroke="#000000" cx="543.3" cy="-170.7001" rx="3.2" ry="3.2"/>
</g>
<!-- completed_daily_challenges&#45;&gt;daily_challenges -->
<g id="edge4" class="edge">
<title>completed_daily_challenges:w&#45;&gt;daily_challenges:e</title>
<path fill="none" stroke="#000000" d="M539.776,-126.7C527.7815,-126.7 520.3229,-126.7 503.5,-126.7"/>
<polygon fill="#000000" stroke="#000000" points="546.5,-126.7001 554.5,-130.3 550.5,-126.7 554.5,-126.7 554.5,-126.7 554.5,-126.7 550.5,-126.7 554.5,-123.1 546.5,-126.7001 546.5,-126.7001"/>
<ellipse fill="none" stroke="#000000" cx="543.3" cy="-126.7001" rx="3.2" ry="3.2"/>
</g>
<!-- daily_challenges&#45;&gt;challenges -->
<g id="edge5" class="edge">
<title>daily_challenges:w&#45;&gt;challenges:e</title>
<path fill="none" stroke="#000000" d="M322.1506,-146.044C309.8075,-141.037 303.7155,-130.7 285.5,-130.7"/>
<polygon fill="#000000" stroke="#000000" points="328.6336,-147.2439 335.8448,-152.2399 332.5668,-147.972 336.5,-148.7 336.5,-148.7 336.5,-148.7 332.5668,-147.972 337.1552,-145.1601 328.6336,-147.2439 328.6336,-147.2439"/>
<ellipse fill="none" stroke="#000000" cx="325.4871" cy="-146.6615" rx="3.2" ry="3.2"/>
</g>
<!-- daily_challenges&#45;&gt;classes -->
<g id="edge6" class="edge">
<title>daily_challenges:w&#45;&gt;classes:e</title>
<path fill="none" stroke="#000000" d="M322.0084,-171.5941C312.8542,-172.8111 306.5091,-174.9262 293,-175.7 222.449,-179.7414 199.7097,-201.7003 134,-175.7 111.0487,-166.6185 118.1827,-137.7 93.5,-137.7"/>
<polygon fill="#000000" stroke="#000000" points="328.5152,-171.1927 336.7217,-174.2932 332.5076,-170.9464 336.5,-170.7 336.5,-170.7 336.5,-170.7 332.5076,-170.9464 336.2783,-167.1068 328.5152,-171.1927 328.5152,-171.1927"/>
<ellipse fill="none" stroke="#000000" cx="325.3213" cy="-171.3898" rx="3.2" ry="3.2"/>
</g>
</g>
</svg>
