<?xml version="1.0" encoding="UTF-8" standalone="no"?>
<!DOCTYPE svg PUBLIC "-//W3C//DTD SVG 1.1//EN"
 "http://www.w3.org/Graphics/SVG/1.1/DTD/svg11.dtd">
<!-- Generated by graphviz version 2.40.1 (20161225.0304)
 -->
<!-- Title: oneDegreeRelationshipsDiagram Pages: 1 -->
<svg width="586pt" height="237pt"
 viewBox="0.00 0.00 586.00 237.20" xmlns="http://www.w3.org/2000/svg" xmlns:xlink="http://www.w3.org/1999/xlink">
<g id="graph0" class="graph" transform="scale(1 1) rotate(0) translate(4 233.2)">
<title>oneDegreeRelationshipsDiagram</title>
<polygon fill="#ffffff" stroke="transparent" points="-4,4 -4,-233.2 582,-233.2 582,4 -4,4"/>
<text text-anchor="middle" x="72.4936" y="-7.3" font-family="Helvetica,sans-Serif" font-size="11.00" fill="#000000">Generated by SchemaSpy</text>
<!-- completed_daily_challenges -->
<g id="node1" class="node">
<title>completed_daily_challenges</title>
<g id="a_node1"><a xlink:href="../../tables/completed_daily_challenges.html" xlink:title="completed_daily_challenges" target="_top">
<polygon fill="#ffffff" stroke="transparent" points="367,-57.2 367,-206.2 570,-206.2 570,-57.2 367,-57.2"/>
<polygon fill="#f5f5f5" stroke="transparent" points="367.5,-182.7 367.5,-205.7 570.5,-205.7 570.5,-182.7 367.5,-182.7"/>
<polygon fill="none" stroke="#000000" points="367.5,-182.7 367.5,-205.7 570.5,-205.7 570.5,-182.7 367.5,-182.7"/>
<text text-anchor="start" x="372.5" y="-191.8" font-family="Helvetica,sans-Serif" font-weight="bold" font-size="11.00" fill="#000000">completed_daily_challenges</text>
<text text-anchor="start" x="535.5437" y="-190.8" font-family="Helvetica,sans-Serif" font-size="11.00" fill="#000000">[table]</text>
<polygon fill="none" stroke="#000000" points="367.5,-160.7 367.5,-182.7 570.5,-182.7 570.5,-160.7 367.5,-160.7"/>
<image xlink:href="../../images/primaryKeys.png" width="11px" height="12px" preserveAspectRatio="xMinYMin meet" x="372.5" y="-177.7"/>
<text text-anchor="start" x="387.5" y="-167.8" font-family="Helvetica,sans-Serif" font-size="11.00" fill="#000000">gymnasts_id</text>
<polygon fill="none" stroke="#000000" points="367.5,-138.7 367.5,-160.7 570.5,-160.7 570.5,-138.7 367.5,-138.7"/>
<image xlink:href="../../images/primaryKeys.png" width="11px" height="12px" preserveAspectRatio="xMinYMin meet" x="372.5" y="-155.7"/>
<text text-anchor="start" x="387.5" y="-145.8" font-family="Helvetica,sans-Serif" font-size="11.00" fill="#000000">daily_challenges_classes_id</text>
<polygon fill="none" stroke="#000000" points="367.5,-116.7 367.5,-138.7 570.5,-138.7 570.5,-116.7 367.5,-116.7"/>
<image xlink:href="../../images/primaryKeys.png" width="11px" height="12px" preserveAspectRatio="xMinYMin meet" x="372.5" y="-133.7"/>
<text text-anchor="start" x="387.5" y="-123.8" font-family="Helvetica,sans-Serif" font-size="11.00" fill="#000000">daily_challenges_challenges_id</text>
<polygon fill="none" stroke="#000000" points="367.5,-94.7 367.5,-116.7 570.5,-116.7 570.5,-94.7 367.5,-94.7"/>
<image xlink:href="../../images/primaryKeys.png" width="11px" height="12px" preserveAspectRatio="xMinYMin meet" x="372.5" y="-111.7"/>
<text text-anchor="start" x="387.5" y="-101.8" font-family="Helvetica,sans-Serif" font-size="11.00" fill="#000000">daily_challenges_date</text>
<polygon fill="none" stroke="#000000" points="367.5,-75.7 367.5,-94.7 570.5,-94.7 570.5,-75.7 367.5,-75.7"/>
<text text-anchor="start" x="370.5" y="-81.8" font-family="Helvetica,sans-Serif" font-size="11.00" fill="#000000">...</text>
<polygon fill="#ffffff" stroke="transparent" points="367.5,-56.7 367.5,-75.7 454.5,-75.7 454.5,-56.7 367.5,-56.7"/>
<polygon fill="none" stroke="#000000" points="367.5,-56.7 367.5,-75.7 454.5,-75.7 454.5,-56.7 367.5,-56.7"/>
<text text-anchor="start" x="370.5" y="-62.8" font-family="Helvetica,sans-Serif" font-size="11.00" fill="#000000">&lt; 4</text>
<polygon fill="#ffffff" stroke="transparent" points="454.5,-56.7 454.5,-75.7 525.5,-75.7 525.5,-56.7 454.5,-56.7"/>
<polygon fill="none" stroke="#000000" points="454.5,-56.7 454.5,-75.7 525.5,-75.7 525.5,-56.7 454.5,-56.7"/>
<text text-anchor="start" x="490.1105" y="-62.8" font-family="Helvetica,sans-Serif" font-size="11.00" fill="#000000">0 rows</text>
<polygon fill="#ffffff" stroke="transparent" points="525.5,-56.7 525.5,-75.7 570.5,-75.7 570.5,-56.7 525.5,-56.7"/>
<polygon fill="none" stroke="#000000" points="525.5,-56.7 525.5,-75.7 570.5,-75.7 570.5,-56.7 525.5,-56.7"/>
<text text-anchor="start" x="561.3862" y="-62.8" font-family="Helvetica,sans-Serif" font-size="11.00" fill="#000000"> &#160;</text>
</a>
</g>
</g>
<!-- daily_challenges -->
<g id="node2" class="node">
<title>daily_challenges</title>
<g id="a_node2"><a xlink:href="../../tables/daily_challenges.html" xlink:title="daily_challenges" target="_top">
<polygon fill="#ffffff" stroke="transparent" points="152,-73.7 152,-185.7 318,-185.7 318,-73.7 152,-73.7"/>
<polygon fill="#f5f5f5" stroke="transparent" points="154,-160.7 154,-183.7 316,-183.7 316,-160.7 154,-160.7"/>
<polygon fill="none" stroke="#000000" points="154,-160.7 154,-183.7 316,-183.7 316,-160.7 154,-160.7"/>
<text text-anchor="start" x="159" y="-169.8" font-family="Helvetica,sans-Serif" font-weight="bold" font-size="11.00" fill="#000000">daily_challenges</text>
<text text-anchor="start" x="281.0437" y="-168.8" font-family="Helvetica,sans-Serif" font-size="11.00" fill="#000000">[table]</text>
<polygon fill="none" stroke="#000000" points="154,-138.7 154,-160.7 271,-160.7 271,-138.7 154,-138.7"/>
<image xlink:href="../../images/primaryKeys.png" width="11px" height="12px" preserveAspectRatio="xMinYMin meet" x="159" y="-155.7"/>
<text text-anchor="start" x="174" y="-145.8" font-family="Helvetica,sans-Serif" font-size="11.00" fill="#000000">classes_id</text>
<polygon fill="none" stroke="#000000" points="271,-138.7 271,-160.7 316,-160.7 316,-138.7 271,-138.7"/>
<text text-anchor="start" x="274" y="-146.4" font-family="Helvetica,sans-Serif" font-size="11.00" fill="#000000">int[10]</text>
<polygon fill="none" stroke="#000000" points="154,-116.7 154,-138.7 271,-138.7 271,-116.7 154,-116.7"/>
<image xlink:href="../../images/primaryKeys.png" width="11px" height="12px" preserveAspectRatio="xMinYMin meet" x="159" y="-133.7"/>
<text text-anchor="start" x="174" y="-123.8" font-family="Helvetica,sans-Serif" font-size="11.00" fill="#000000">challenges_id</text>
<polygon fill="none" stroke="#000000" points="271,-116.7 271,-138.7 316,-138.7 316,-116.7 271,-116.7"/>
<text text-anchor="start" x="274" y="-124.4" font-family="Helvetica,sans-Serif" font-size="11.00" fill="#000000">int[10]</text>
<polygon fill="none" stroke="#000000" points="154,-94.7 154,-116.7 271,-116.7 271,-94.7 154,-94.7"/>
<image xlink:href="../../images/primaryKeys.png" width="11px" height="12px" preserveAspectRatio="xMinYMin meet" x="159" y="-111.7"/>
<text text-anchor="start" x="174" y="-101.8" font-family="Helvetica,sans-Serif" font-size="11.00" fill="#000000">date</text>
<polygon fill="none" stroke="#000000" points="271,-94.7 271,-116.7 316,-116.7 316,-94.7 271,-94.7"/>
<text text-anchor="start" x="273.6274" y="-102.4" font-family="Helvetica,sans-Serif" font-size="11.00" fill="#000000">date[10]</text>
<polygon fill="#ffffff" stroke="transparent" points="154,-75.7 154,-94.7 204,-94.7 204,-75.7 154,-75.7"/>
<polygon fill="none" stroke="#000000" points="154,-75.7 154,-94.7 204,-94.7 204,-75.7 154,-75.7"/>
<text text-anchor="start" x="157" y="-81.8" font-family="Helvetica,sans-Serif" font-size="11.00" fill="#000000">&lt; 2</text>
<polygon fill="#ffffff" stroke="transparent" points="204,-75.7 204,-94.7 271,-94.7 271,-75.7 204,-75.7"/>
<polygon fill="none" stroke="#000000" points="204,-75.7 204,-94.7 271,-94.7 271,-75.7 204,-75.7"/>
<text text-anchor="start" x="235.6105" y="-81.8" font-family="Helvetica,sans-Serif" font-size="11.00" fill="#000000">0 rows</text>
<polygon fill="#ffffff" stroke="transparent" points="271,-75.7 271,-94.7 316,-94.7 316,-75.7 271,-75.7"/>
<polygon fill="none" stroke="#000000" points="271,-75.7 271,-94.7 316,-94.7 316,-75.7 271,-75.7"/>
<text text-anchor="start" x="297.4053" y="-81.8" font-family="Helvetica,sans-Serif" font-size="11.00" fill="#000000">3 &gt;</text>
<polygon fill="none" stroke="#000000" stroke-width="2" points="153,-74.7 153,-184.7 317,-184.7 317,-74.7 153,-74.7"/>
</a>
</g>
</g>
<!-- completed_daily_challenges&#45;&gt;daily_challenges -->
<g id="edge1" class="edge">
<title>completed_daily_challenges:w&#45;&gt;daily_challenges:e</title>
<path fill="none" stroke="#000000" d="M353.0156,-127.7C340.6771,-127.7 333.1667,-127.7 316,-127.7"/>
<polygon fill="#000000" stroke="#000000" points="359.5,-127.7001 367.5,-131.3 363.5,-127.7 367.5,-127.7 367.5,-127.7 367.5,-127.7 363.5,-127.7 367.5,-124.1 359.5,-127.7001 359.5,-127.7001"/>
<ellipse fill="none" stroke="#000000" cx="356.3" cy="-127.7001" rx="3.2" ry="3.2"/>
</g>
<!-- completed_daily_challenges&#45;&gt;daily_challenges -->
<g id="edge2" class="edge">
<title>completed_daily_challenges:w&#45;&gt;daily_challenges:e</title>
<path fill="none" stroke="#000000" d="M353.0156,-149.7C340.6771,-149.7 333.1667,-149.7 316,-149.7"/>
<polygon fill="#000000" stroke="#000000" points="359.5,-149.7001 367.5,-153.3 363.5,-149.7 367.5,-149.7 367.5,-149.7 367.5,-149.7 363.5,-149.7 367.5,-146.1 359.5,-149.7001 359.5,-149.7001"/>
<ellipse fill="none" stroke="#000000" cx="356.3" cy="-149.7001" rx="3.2" ry="3.2"/>
</g>
<!-- completed_daily_challenges&#45;&gt;daily_challenges -->
<g id="edge3" class="edge">
<title>completed_daily_challenges:w&#45;&gt;daily_challenges:e</title>
<path fill="none" stroke="#000000" d="M353.0156,-105.7C340.6771,-105.7 333.1667,-105.7 316,-105.7"/>
<polygon fill="#000000" stroke="#000000" points="359.5,-105.7001 367.5,-109.3 363.5,-105.7 367.5,-105.7 367.5,-105.7 367.5,-105.7 363.5,-105.7 367.5,-102.1 359.5,-105.7001 359.5,-105.7001"/>
<ellipse fill="none" stroke="#000000" cx="356.3" cy="-105.7001" rx="3.2" ry="3.2"/>
</g>
<!-- challenges -->
<g id="node3" class="node">
<title>challenges</title>
<g id="a_node3"><a xlink:href="../../tables/challenges.html" xlink:title="challenges" target="_top">
<polygon fill="#ffffff" stroke="transparent" points="8,-38.2 8,-121.2 103,-121.2 103,-38.2 8,-38.2"/>
<polygon fill="#f5f5f5" stroke="transparent" points="8.5,-97.7 8.5,-120.7 103.5,-120.7 103.5,-97.7 8.5,-97.7"/>
<polygon fill="none" stroke="#000000" points="8.5,-97.7 8.5,-120.7 103.5,-120.7 103.5,-97.7 8.5,-97.7"/>
<text text-anchor="start" x="13.2144" y="-106.8" font-family="Helvetica,sans-Serif" font-weight="bold" font-size="11.00" fill="#000000">challenges</text>
<text text-anchor="start" x="69.0219" y="-105.8" font-family="Helvetica,sans-Serif" font-size="11.00" fill="#000000">[table]</text>
<polygon fill="none" stroke="#000000" points="8.5,-75.7 8.5,-97.7 103.5,-97.7 103.5,-75.7 8.5,-75.7"/>
<image xlink:href="../../images/primaryKeys.png" width="11px" height="12px" preserveAspectRatio="xMinYMin meet" x="13.5" y="-92.7"/>
<text text-anchor="start" x="33.5" y="-82.8" font-family="Helvetica,sans-Serif" font-size="11.00" fill="#000000">id</text>
<polygon fill="none" stroke="#000000" points="8.5,-56.7 8.5,-75.7 103.5,-75.7 103.5,-56.7 8.5,-56.7"/>
<text text-anchor="start" x="11.5" y="-62.8" font-family="Helvetica,sans-Serif" font-size="11.00" fill="#000000">...</text>
<polygon fill="#ffffff" stroke="transparent" points="8.5,-37.7 8.5,-56.7 32.5,-56.7 32.5,-37.7 8.5,-37.7"/>
<polygon fill="none" stroke="#000000" points="8.5,-37.7 8.5,-56.7 32.5,-56.7 32.5,-37.7 8.5,-37.7"/>
<text text-anchor="start" x="11.5" y="-43.8" font-family="Helvetica,sans-Serif" font-size="11.00" fill="#000000"> &#160;</text>
<polygon fill="#ffffff" stroke="transparent" points="32.5,-37.7 32.5,-56.7 76.5,-56.7 76.5,-37.7 32.5,-37.7"/>
<polygon fill="none" stroke="#000000" points="32.5,-37.7 32.5,-56.7 76.5,-56.7 76.5,-37.7 32.5,-37.7"/>
<text text-anchor="start" x="41.1105" y="-43.8" font-family="Helvetica,sans-Serif" font-size="11.00" fill="#000000">0 rows</text>
<polygon fill="#ffffff" stroke="transparent" points="76.5,-37.7 76.5,-56.7 103.5,-56.7 103.5,-37.7 76.5,-37.7"/>
<polygon fill="none" stroke="#000000" points="76.5,-37.7 76.5,-56.7 103.5,-56.7 103.5,-37.7 76.5,-37.7"/>
<text text-anchor="start" x="84.9053" y="-43.8" font-family="Helvetica,sans-Serif" font-size="11.00" fill="#000000">2 &gt;</text>
</a>
</g>
</g>
<!-- daily_challenges&#45;&gt;challenges -->
<g id="edge4" class="edge">
<title>daily_challenges:w&#45;&gt;challenges:e</title>
<path fill="none" stroke="#000000" d="M140.2601,-123.3123C126.5688,-112.7354 126.5379,-86.7 103.5,-86.7"/>
<polygon fill="#000000" stroke="#000000" points="146.3792,-125.2663 152.9048,-131.1294 150.1896,-126.4832 154,-127.7 154,-127.7 154,-127.7 150.1896,-126.4832 155.0952,-124.2706 146.3792,-125.2663 146.3792,-125.2663"/>
<ellipse fill="none" stroke="#000000" cx="143.3308" cy="-124.2928" rx="3.2" ry="3.2"/>
</g>
<!-- classes -->
<g id="node4" class="node">
<title>classes</title>
<g id="a_node4"><a xlink:href="../../tables/classes.html" xlink:title="classes" target="_top">
<polygon fill="#ffffff" stroke="transparent" points="13,-142.2 13,-225.2 98,-225.2 98,-142.2 13,-142.2"/>
<polygon fill="#f5f5f5" stroke="transparent" points="13.5,-201.7 13.5,-224.7 98.5,-224.7 98.5,-201.7 13.5,-201.7"/>
<polygon fill="none" stroke="#000000" points="13.5,-201.7 13.5,-224.7 98.5,-224.7 98.5,-201.7 13.5,-201.7"/>
<text text-anchor="start" x="18.5" y="-210.8" font-family="Helvetica,sans-Serif" font-weight="bold" font-size="11.00" fill="#000000">classes</text>
<text text-anchor="start" x="63.5437" y="-209.8" font-family="Helvetica,sans-Serif" font-size="11.00" fill="#000000">[table]</text>
<polygon fill="none" stroke="#000000" points="13.5,-179.7 13.5,-201.7 98.5,-201.7 98.5,-179.7 13.5,-179.7"/>
<image xlink:href="../../images/primaryKeys.png" width="11px" height="12px" preserveAspectRatio="xMinYMin meet" x="18.5" y="-196.7"/>
<text text-anchor="start" x="33.5" y="-186.8" font-family="Helvetica,sans-Serif" font-size="11.00" fill="#000000">id</text>
<polygon fill="none" stroke="#000000" points="13.5,-160.7 13.5,-179.7 98.5,-179.7 98.5,-160.7 13.5,-160.7"/>
<text text-anchor="start" x="16.5" y="-166.8" font-family="Helvetica,sans-Serif" font-size="11.00" fill="#000000">...</text>
<polygon fill="#ffffff" stroke="transparent" points="13.5,-141.7 13.5,-160.7 32.5,-160.7 32.5,-141.7 13.5,-141.7"/>
<polygon fill="none" stroke="#000000" points="13.5,-141.7 13.5,-160.7 32.5,-160.7 32.5,-141.7 13.5,-141.7"/>
<text text-anchor="start" x="16.5" y="-147.8" font-family="Helvetica,sans-Serif" font-size="11.00" fill="#000000"> &#160;</text>
<polygon fill="#ffffff" stroke="transparent" points="32.5,-141.7 32.5,-160.7 73.5,-160.7 73.5,-141.7 32.5,-141.7"/>
<polygon fill="none" stroke="#000000" points="32.5,-141.7 32.5,-160.7 73.5,-160.7 73.5,-141.7 32.5,-141.7"/>
<text text-anchor="start" x="38.1105" y="-147.8" font-family="Helvetica,sans-Serif" font-size="11.00" fill="#000000">0 rows</text>
<polygon fill="#ffffff" stroke="transparent" points="73.5,-141.7 73.5,-160.7 98.5,-160.7 98.5,-141.7 73.5,-141.7"/>
<polygon fill="none" stroke="#000000" points="73.5,-141.7 73.5,-160.7 98.5,-160.7 98.5,-141.7 73.5,-141.7"/>
<text text-anchor="start" x="79.9053" y="-147.8" font-family="Helvetica,sans-Serif" font-size="11.00" fill="#000000">3 &gt;</text>
</a>
</g>
</g>
<!-- daily_challenges&#45;&gt;classes -->
<g id="edge5" class="edge">
<title>daily_challenges:w&#45;&gt;classes:e</title>
<path fill="none" stroke="#000000" d="M139.6642,-153.7811C124.2193,-164.1516 123.1777,-190.7 98.5,-190.7"/>
<polygon fill="#000000" stroke="#000000" points="146.3057,-151.8905 154.9857,-153.1624 150.1529,-150.7952 154,-149.7 154,-149.7 154,-149.7 150.1529,-150.7952 153.0143,-146.2376 146.3057,-151.8905 146.3057,-151.8905"/>
<ellipse fill="none" stroke="#000000" cx="143.228" cy="-152.7666" rx="3.2" ry="3.2"/>
</g>
</g>
</svg>
