<?xml version="1.0" encoding="UTF-8" standalone="no"?>
<!DOCTYPE svg PUBLIC "-//W3C//DTD SVG 1.1//EN"
 "http://www.w3.org/Graphics/SVG/1.1/DTD/svg11.dtd">
<!-- Generated by graphviz version 2.40.1 (20161225.0304)
 -->
<!-- Title: twoDegreesRelationshipsDiagram Pages: 1 -->
<svg width="1028pt" height="373pt"
 viewBox="0.00 0.00 1028.00 373.20" xmlns="http://www.w3.org/2000/svg" xmlns:xlink="http://www.w3.org/1999/xlink">
<g id="graph0" class="graph" transform="scale(1 1) rotate(0) translate(4 369.2)">
<title>twoDegreesRelationshipsDiagram</title>
<polygon fill="#ffffff" stroke="transparent" points="-4,4 -4,-369.2 1024,-369.2 1024,4 -4,4"/>
<text text-anchor="middle" x="72.4936" y="-7.3" font-family="Helvetica,sans-Serif" font-size="11.00" fill="#000000">Generated by SchemaSpy</text>
<!-- challenges -->
<g id="node1" class="node">
<title>challenges</title>
<g id="a_node1"><a xlink:href="../../tables/challenges.html" xlink:title="challenges" target="_top">
<polygon fill="#ffffff" stroke="transparent" points="397,-153.2 397,-280.2 540,-280.2 540,-153.2 397,-153.2"/>
<polygon fill="#f5f5f5" stroke="transparent" points="397.5,-256.7 397.5,-279.7 540.5,-279.7 540.5,-256.7 397.5,-256.7"/>
<polygon fill="none" stroke="#000000" points="397.5,-256.7 397.5,-279.7 540.5,-279.7 540.5,-256.7 397.5,-256.7"/>
<text text-anchor="start" x="402.5" y="-265.8" font-family="Helvetica,sans-Serif" font-weight="bold" font-size="11.00" fill="#000000">challenges</text>
<text text-anchor="start" x="505.5437" y="-264.8" font-family="Helvetica,sans-Serif" font-size="11.00" fill="#000000">[table]</text>
<polygon fill="none" stroke="#000000" points="397.5,-234.7 397.5,-256.7 540.5,-256.7 540.5,-234.7 397.5,-234.7"/>
<image xlink:href="../../images/primaryKeys.png" width="11px" height="12px" preserveAspectRatio="xMinYMin meet" x="402.5" y="-251.7"/>
<text text-anchor="start" x="417.5" y="-241.8" font-family="Helvetica,sans-Serif" font-size="11.00" fill="#000000">id</text>
<polygon fill="#ffffff" stroke="transparent" points="397.5,-212.7 397.5,-234.7 540.5,-234.7 540.5,-212.7 397.5,-212.7"/>
<polygon fill="none" stroke="#000000" points="397.5,-212.7 397.5,-234.7 540.5,-234.7 540.5,-212.7 397.5,-212.7"/>
<image xlink:href="../../images/foreignKeys.png" width="11px" height="12px" preserveAspectRatio="xMinYMin meet" x="402.5" y="-229.7"/>
<text text-anchor="start" x="417.5" y="-219.8" font-family="Helvetica,sans-Serif" font-size="11.00" fill="#000000">gym_id</text>
<polygon fill="#ffffff" stroke="transparent" points="397.5,-190.7 397.5,-212.7 540.5,-212.7 540.5,-190.7 397.5,-190.7"/>
<polygon fill="none" stroke="#000000" points="397.5,-190.7 397.5,-212.7 540.5,-212.7 540.5,-190.7 397.5,-190.7"/>
<image xlink:href="../../images/foreignKeys.png" width="11px" height="12px" preserveAspectRatio="xMinYMin meet" x="402.5" y="-207.7"/>
<text text-anchor="start" x="417.5" y="-197.8" font-family="Helvetica,sans-Serif" font-size="11.00" fill="#000000">class_id</text>
<polygon fill="none" stroke="#000000" points="397.5,-171.7 397.5,-190.7 540.5,-190.7 540.5,-171.7 397.5,-171.7"/>
<text text-anchor="start" x="400.5" y="-177.8" font-family="Helvetica,sans-Serif" font-size="11.00" fill="#000000">...</text>
<polygon fill="#ffffff" stroke="transparent" points="397.5,-152.7 397.5,-171.7 449.5,-171.7 449.5,-152.7 397.5,-152.7"/>
<polygon fill="none" stroke="#000000" points="397.5,-152.7 397.5,-171.7 449.5,-171.7 449.5,-152.7 397.5,-152.7"/>
<text text-anchor="start" x="400.5" y="-158.8" font-family="Helvetica,sans-Serif" font-size="11.00" fill="#000000">&lt; 2</text>
<polygon fill="#ffffff" stroke="transparent" points="449.5,-152.7 449.5,-171.7 503.5,-171.7 503.5,-152.7 449.5,-152.7"/>
<polygon fill="none" stroke="#000000" points="449.5,-152.7 449.5,-171.7 503.5,-171.7 503.5,-152.7 449.5,-152.7"/>
<text text-anchor="start" x="468.1105" y="-158.8" font-family="Helvetica,sans-Serif" font-size="11.00" fill="#000000">0 rows</text>
<polygon fill="#ffffff" stroke="transparent" points="503.5,-152.7 503.5,-171.7 540.5,-171.7 540.5,-152.7 503.5,-152.7"/>
<polygon fill="none" stroke="#000000" points="503.5,-152.7 503.5,-171.7 540.5,-171.7 540.5,-152.7 503.5,-152.7"/>
<text text-anchor="start" x="521.9053" y="-158.8" font-family="Helvetica,sans-Serif" font-size="11.00" fill="#000000">2 &gt;</text>
</a>
</g>
</g>
<!-- classes -->
<g id="node2" class="node">
<title>classes</title>
<g id="a_node2"><a xlink:href="../../tables/classes.html" xlink:title="classes" target="_top">
<polygon fill="#ffffff" stroke="transparent" points="263,-94.2 263,-199.2 348,-199.2 348,-94.2 263,-94.2"/>
<polygon fill="#f5f5f5" stroke="transparent" points="263.5,-175.7 263.5,-198.7 348.5,-198.7 348.5,-175.7 263.5,-175.7"/>
<polygon fill="none" stroke="#000000" points="263.5,-175.7 263.5,-198.7 348.5,-198.7 348.5,-175.7 263.5,-175.7"/>
<text text-anchor="start" x="268.5" y="-184.8" font-family="Helvetica,sans-Serif" font-weight="bold" font-size="11.00" fill="#000000">classes</text>
<text text-anchor="start" x="313.5437" y="-183.8" font-family="Helvetica,sans-Serif" font-size="11.00" fill="#000000">[table]</text>
<polygon fill="none" stroke="#000000" points="263.5,-153.7 263.5,-175.7 348.5,-175.7 348.5,-153.7 263.5,-153.7"/>
<image xlink:href="../../images/primaryKeys.png" width="11px" height="12px" preserveAspectRatio="xMinYMin meet" x="268.5" y="-170.7"/>
<text text-anchor="start" x="283.5" y="-160.8" font-family="Helvetica,sans-Serif" font-size="11.00" fill="#000000">id</text>
<polygon fill="#ffffff" stroke="transparent" points="263.5,-131.7 263.5,-153.7 348.5,-153.7 348.5,-131.7 263.5,-131.7"/>
<polygon fill="none" stroke="#000000" points="263.5,-131.7 263.5,-153.7 348.5,-153.7 348.5,-131.7 263.5,-131.7"/>
<image xlink:href="../../images/foreignKeys.png" width="11px" height="12px" preserveAspectRatio="xMinYMin meet" x="268.5" y="-148.7"/>
<text text-anchor="start" x="283.5" y="-138.8" font-family="Helvetica,sans-Serif" font-size="11.00" fill="#000000">skill_list_id</text>
<polygon fill="none" stroke="#000000" points="263.5,-112.7 263.5,-131.7 348.5,-131.7 348.5,-112.7 263.5,-112.7"/>
<text text-anchor="start" x="266.5" y="-118.8" font-family="Helvetica,sans-Serif" font-size="11.00" fill="#000000">...</text>
<polygon fill="#ffffff" stroke="transparent" points="263.5,-93.7 263.5,-112.7 286.5,-112.7 286.5,-93.7 263.5,-93.7"/>
<polygon fill="none" stroke="#000000" points="263.5,-93.7 263.5,-112.7 286.5,-112.7 286.5,-93.7 263.5,-93.7"/>
<text text-anchor="start" x="266.5" y="-99.8" font-family="Helvetica,sans-Serif" font-size="11.00" fill="#000000">&lt; 1</text>
<polygon fill="#ffffff" stroke="transparent" points="286.5,-93.7 286.5,-112.7 325.5,-112.7 325.5,-93.7 286.5,-93.7"/>
<polygon fill="none" stroke="#000000" points="286.5,-93.7 286.5,-112.7 325.5,-112.7 325.5,-93.7 286.5,-93.7"/>
<text text-anchor="start" x="290.1105" y="-99.8" font-family="Helvetica,sans-Serif" font-size="11.00" fill="#000000">0 rows</text>
<polygon fill="#ffffff" stroke="transparent" points="325.5,-93.7 325.5,-112.7 348.5,-112.7 348.5,-93.7 325.5,-93.7"/>
<polygon fill="none" stroke="#000000" points="325.5,-93.7 325.5,-112.7 348.5,-112.7 348.5,-93.7 325.5,-93.7"/>
<text text-anchor="start" x="329.9053" y="-99.8" font-family="Helvetica,sans-Serif" font-size="11.00" fill="#000000">4 &gt;</text>
</a>
</g>
</g>
<!-- challenges&#45;&gt;classes -->
<g id="edge1" class="edge">
<title>challenges:w&#45;&gt;classes:e</title>
<path fill="none" stroke="#000000" d="M383.6217,-197.1631C371.0786,-187.283 369.8196,-164.7 348.5,-164.7"/>
<polygon fill="#000000" stroke="#000000" points="389.896,-199.2142 396.3814,-205.1218 393.698,-200.4571 397.5,-201.7 397.5,-201.7 397.5,-201.7 393.698,-200.4571 398.6186,-198.2782 389.896,-199.2142 389.896,-199.2142"/>
<ellipse fill="none" stroke="#000000" cx="386.8544" cy="-198.2198" rx="3.2" ry="3.2"/>
</g>
<!-- gyms -->
<g id="node3" class="node">
<title>gyms</title>
<g id="a_node3"><a xlink:href="../../tables/gyms.html" xlink:title="gyms" target="_top">
<polygon fill="#ffffff" stroke="transparent" points="8,-161.2 8,-222.2 79,-222.2 79,-161.2 8,-161.2"/>
<polygon fill="#f5f5f5" stroke="transparent" points="8.5,-198.7 8.5,-221.7 79.5,-221.7 79.5,-198.7 8.5,-198.7"/>
<polygon fill="none" stroke="#000000" points="8.5,-198.7 8.5,-221.7 79.5,-221.7 79.5,-198.7 8.5,-198.7"/>
<text text-anchor="start" x="13.5" y="-207.8" font-family="Helvetica,sans-Serif" font-weight="bold" font-size="11.00" fill="#000000">gyms</text>
<text text-anchor="start" x="44.5437" y="-206.8" font-family="Helvetica,sans-Serif" font-size="11.00" fill="#000000">[table]</text>
<polygon fill="none" stroke="#000000" points="8.5,-179.7 8.5,-198.7 79.5,-198.7 79.5,-179.7 8.5,-179.7"/>
<text text-anchor="start" x="11.5" y="-185.8" font-family="Helvetica,sans-Serif" font-size="11.00" fill="#000000">...</text>
<polygon fill="#ffffff" stroke="transparent" points="8.5,-160.7 8.5,-179.7 20.5,-179.7 20.5,-160.7 8.5,-160.7"/>
<polygon fill="none" stroke="#000000" points="8.5,-160.7 8.5,-179.7 20.5,-179.7 20.5,-160.7 8.5,-160.7"/>
<text text-anchor="start" x="11.4431" y="-166.8" font-family="Helvetica,sans-Serif" font-size="11.00" fill="#000000"> &#160;</text>
<polygon fill="#ffffff" stroke="transparent" points="20.5,-160.7 20.5,-179.7 58.5,-179.7 58.5,-160.7 20.5,-160.7"/>
<polygon fill="none" stroke="#000000" points="20.5,-160.7 20.5,-179.7 58.5,-179.7 58.5,-160.7 20.5,-160.7"/>
<text text-anchor="start" x="23.3053" y="-166.8" font-family="Helvetica,sans-Serif" font-size="11.00" fill="#000000">0 rows</text>
<polygon fill="#ffffff" stroke="transparent" points="58.5,-160.7 58.5,-179.7 79.5,-179.7 79.5,-160.7 58.5,-160.7"/>
<polygon fill="none" stroke="#000000" points="58.5,-160.7 58.5,-179.7 79.5,-179.7 79.5,-160.7 58.5,-160.7"/>
<text text-anchor="start" x="61.2027" y="-166.8" font-family="Helvetica,sans-Serif" font-size="11.00" fill="#000000">4 &gt;</text>
</a>
</g>
</g>
<!-- challenges&#45;&gt;gyms -->
<g id="edge2" class="edge">
<title>challenges:w&#45;&gt;gyms:e</title>
<path fill="none" stroke="#000000" d="M383.0577,-223.6774C270.9966,-223.3107 237.2414,-218.338 120,-198.7 101.7142,-195.6371 98.0406,-188.7 79.5,-188.7"/>
<polygon fill="#000000" stroke="#000000" points="389.5,-223.6874 397.4943,-227.3 393.5,-223.6937 397.5,-223.7 397.5,-223.7 397.5,-223.7 393.5,-223.6937 397.5057,-220.1 389.5,-223.6874 389.5,-223.6874"/>
<ellipse fill="none" stroke="#000000" cx="386.3" cy="-223.6824" rx="3.2" ry="3.2"/>
</g>
<!-- skill_lists -->
<g id="node4" class="node">
<title>skill_lists</title>
<g id="a_node4"><a xlink:href="../../tables/skill_lists.html" xlink:title="skill_lists" target="_top">
<polygon fill="#ffffff" stroke="transparent" points="128,-127.2 128,-188.2 214,-188.2 214,-127.2 128,-127.2"/>
<polygon fill="#f5f5f5" stroke="transparent" points="128,-164.7 128,-187.7 214,-187.7 214,-164.7 128,-164.7"/>
<polygon fill="none" stroke="#000000" points="128,-164.7 128,-187.7 214,-187.7 214,-164.7 128,-164.7"/>
<text text-anchor="start" x="132.8119" y="-173.8" font-family="Helvetica,sans-Serif" font-weight="bold" font-size="11.00" fill="#000000">skill_lists</text>
<text text-anchor="start" x="179.5219" y="-172.8" font-family="Helvetica,sans-Serif" font-size="11.00" fill="#000000">[table]</text>
<polygon fill="none" stroke="#000000" points="128,-145.7 128,-164.7 214,-164.7 214,-145.7 128,-145.7"/>
<text text-anchor="start" x="131" y="-151.8" font-family="Helvetica,sans-Serif" font-size="11.00" fill="#000000">...</text>
<polygon fill="#ffffff" stroke="transparent" points="128,-126.7 128,-145.7 152,-145.7 152,-126.7 128,-126.7"/>
<polygon fill="none" stroke="#000000" points="128,-126.7 128,-145.7 152,-145.7 152,-126.7 128,-126.7"/>
<text text-anchor="start" x="131" y="-132.8" font-family="Helvetica,sans-Serif" font-size="11.00" fill="#000000">&lt; 1</text>
<polygon fill="#ffffff" stroke="transparent" points="152,-126.7 152,-145.7 191,-145.7 191,-126.7 152,-126.7"/>
<polygon fill="none" stroke="#000000" points="152,-126.7 152,-145.7 191,-145.7 191,-126.7 152,-126.7"/>
<text text-anchor="start" x="155.6105" y="-132.8" font-family="Helvetica,sans-Serif" font-size="11.00" fill="#000000">0 rows</text>
<polygon fill="#ffffff" stroke="transparent" points="191,-126.7 191,-145.7 214,-145.7 214,-126.7 191,-126.7"/>
<polygon fill="none" stroke="#000000" points="191,-126.7 191,-145.7 214,-145.7 214,-126.7 191,-126.7"/>
<text text-anchor="start" x="195.4053" y="-132.8" font-family="Helvetica,sans-Serif" font-size="11.00" fill="#000000">2 &gt;</text>
</a>
</g>
</g>
<!-- classes&#45;&gt;skill_lists -->
<g id="edge3" class="edge">
<title>classes:w&#45;&gt;skill_lists:e</title>
<path fill="none" stroke="#000000" d="M249.0318,-144.6816C237.4602,-148.0899 230.8011,-154.7 214,-154.7"/>
<polygon fill="#000000" stroke="#000000" points="255.574,-143.7856 263.9885,-146.2667 259.537,-143.2428 263.5,-142.7 263.5,-142.7 263.5,-142.7 259.537,-143.2428 263.0115,-139.1333 255.574,-143.7856 255.574,-143.7856"/>
<ellipse fill="none" stroke="#000000" cx="252.4036" cy="-144.2198" rx="3.2" ry="3.2"/>
</g>
<!-- skill_lists&#45;&gt;gyms -->
<g id="edge14" class="edge">
<title>skill_lists:w&#45;&gt;gyms:e</title>
<path fill="none" stroke="#000000" d="M114.0914,-159.1449C101.9913,-168.361 99.8605,-188.7 79.5,-188.7"/>
<polygon fill="#000000" stroke="#000000" points="120.3797,-157.1353 129.0959,-158.1291 124.1898,-155.9177 128,-154.7 128,-154.7 128,-154.7 124.1898,-155.9177 126.9041,-151.2709 120.3797,-157.1353 120.3797,-157.1353"/>
<ellipse fill="none" stroke="#000000" cx="117.3315" cy="-158.1095" rx="3.2" ry="3.2"/>
</g>
<!-- completed_daily_challenges -->
<g id="node5" class="node">
<title>completed_daily_challenges</title>
<g id="a_node5"><a xlink:href="../../tables/completed_daily_challenges.html" xlink:title="completed_daily_challenges" target="_top">
<polygon fill="#ffffff" stroke="transparent" points="809,-212.2 809,-361.2 1012,-361.2 1012,-212.2 809,-212.2"/>
<polygon fill="#f5f5f5" stroke="transparent" points="809.5,-337.7 809.5,-360.7 1012.5,-360.7 1012.5,-337.7 809.5,-337.7"/>
<polygon fill="none" stroke="#000000" points="809.5,-337.7 809.5,-360.7 1012.5,-360.7 1012.5,-337.7 809.5,-337.7"/>
<text text-anchor="start" x="814.5" y="-346.8" font-family="Helvetica,sans-Serif" font-weight="bold" font-size="11.00" fill="#000000">completed_daily_challenges</text>
<text text-anchor="start" x="977.5437" y="-345.8" font-family="Helvetica,sans-Serif" font-size="11.00" fill="#000000">[table]</text>
<polygon fill="none" stroke="#000000" points="809.5,-315.7 809.5,-337.7 1012.5,-337.7 1012.5,-315.7 809.5,-315.7"/>
<image xlink:href="../../images/primaryKeys.png" width="11px" height="12px" preserveAspectRatio="xMinYMin meet" x="814.5" y="-332.7"/>
<text text-anchor="start" x="829.5" y="-322.8" font-family="Helvetica,sans-Serif" font-size="11.00" fill="#000000">gymnasts_id</text>
<polygon fill="none" stroke="#000000" points="809.5,-293.7 809.5,-315.7 1012.5,-315.7 1012.5,-293.7 809.5,-293.7"/>
<image xlink:href="../../images/primaryKeys.png" width="11px" height="12px" preserveAspectRatio="xMinYMin meet" x="814.5" y="-310.7"/>
<text text-anchor="start" x="829.5" y="-300.8" font-family="Helvetica,sans-Serif" font-size="11.00" fill="#000000">daily_challenges_classes_id</text>
<polygon fill="none" stroke="#000000" points="809.5,-271.7 809.5,-293.7 1012.5,-293.7 1012.5,-271.7 809.5,-271.7"/>
<image xlink:href="../../images/primaryKeys.png" width="11px" height="12px" preserveAspectRatio="xMinYMin meet" x="814.5" y="-288.7"/>
<text text-anchor="start" x="829.5" y="-278.8" font-family="Helvetica,sans-Serif" font-size="11.00" fill="#000000">daily_challenges_challenges_id</text>
<polygon fill="none" stroke="#000000" points="809.5,-249.7 809.5,-271.7 1012.5,-271.7 1012.5,-249.7 809.5,-249.7"/>
<image xlink:href="../../images/primaryKeys.png" width="11px" height="12px" preserveAspectRatio="xMinYMin meet" x="814.5" y="-266.7"/>
<text text-anchor="start" x="829.5" y="-256.8" font-family="Helvetica,sans-Serif" font-size="11.00" fill="#000000">daily_challenges_date</text>
<polygon fill="none" stroke="#000000" points="809.5,-230.7 809.5,-249.7 1012.5,-249.7 1012.5,-230.7 809.5,-230.7"/>
<text text-anchor="start" x="812.5" y="-236.8" font-family="Helvetica,sans-Serif" font-size="11.00" fill="#000000">...</text>
<polygon fill="#ffffff" stroke="transparent" points="809.5,-211.7 809.5,-230.7 896.5,-230.7 896.5,-211.7 809.5,-211.7"/>
<polygon fill="none" stroke="#000000" points="809.5,-211.7 809.5,-230.7 896.5,-230.7 896.5,-211.7 809.5,-211.7"/>
<text text-anchor="start" x="812.5" y="-217.8" font-family="Helvetica,sans-Serif" font-size="11.00" fill="#000000">&lt; 4</text>
<polygon fill="#ffffff" stroke="transparent" points="896.5,-211.7 896.5,-230.7 967.5,-230.7 967.5,-211.7 896.5,-211.7"/>
<polygon fill="none" stroke="#000000" points="896.5,-211.7 896.5,-230.7 967.5,-230.7 967.5,-211.7 896.5,-211.7"/>
<text text-anchor="start" x="932.1105" y="-217.8" font-family="Helvetica,sans-Serif" font-size="11.00" fill="#000000">0 rows</text>
<polygon fill="#ffffff" stroke="transparent" points="967.5,-211.7 967.5,-230.7 1012.5,-230.7 1012.5,-211.7 967.5,-211.7"/>
<polygon fill="none" stroke="#000000" points="967.5,-211.7 967.5,-230.7 1012.5,-230.7 1012.5,-211.7 967.5,-211.7"/>
<text text-anchor="start" x="1003.3862" y="-217.8" font-family="Helvetica,sans-Serif" font-size="11.00" fill="#000000"> &#160;</text>
</a>
</g>
</g>
<!-- daily_challenges -->
<g id="node6" class="node">
<title>daily_challenges</title>
<g id="a_node6"><a xlink:href="../../tables/daily_challenges.html" xlink:title="daily_challenges" target="_top">
<polygon fill="#ffffff" stroke="transparent" points="589,-228.7 589,-340.7 760,-340.7 760,-228.7 589,-228.7"/>
<polygon fill="#f5f5f5" stroke="transparent" points="591.5,-315.7 591.5,-338.7 758.5,-338.7 758.5,-315.7 591.5,-315.7"/>
<polygon fill="none" stroke="#000000" points="591.5,-315.7 591.5,-338.7 758.5,-338.7 758.5,-315.7 591.5,-315.7"/>
<text text-anchor="start" x="596.5" y="-324.8" font-family="Helvetica,sans-Serif" font-weight="bold" font-size="11.00" fill="#000000">daily_challenges</text>
<text text-anchor="start" x="723.5437" y="-323.8" font-family="Helvetica,sans-Serif" font-size="11.00" fill="#000000">[table]</text>
<polygon fill="none" stroke="#000000" points="591.5,-293.7 591.5,-315.7 708.5,-315.7 708.5,-293.7 591.5,-293.7"/>
<image xlink:href="../../images/primaryKeys.png" width="11px" height="12px" preserveAspectRatio="xMinYMin meet" x="596.5" y="-310.7"/>
<text text-anchor="start" x="611.5" y="-300.8" font-family="Helvetica,sans-Serif" font-size="11.00" fill="#000000">classes_id</text>
<polygon fill="none" stroke="#000000" points="708.5,-293.7 708.5,-315.7 758.5,-315.7 758.5,-293.7 708.5,-293.7"/>
<text text-anchor="start" x="711.1865" y="-301.4" font-family="Helvetica,sans-Serif" font-size="11.00" fill="#000000">bigint[19]</text>
<polygon fill="none" stroke="#000000" points="591.5,-271.7 591.5,-293.7 708.5,-293.7 708.5,-271.7 591.5,-271.7"/>
<image xlink:href="../../images/primaryKeys.png" width="11px" height="12px" preserveAspectRatio="xMinYMin meet" x="596.5" y="-288.7"/>
<text text-anchor="start" x="611.5" y="-278.8" font-family="Helvetica,sans-Serif" font-size="11.00" fill="#000000">challenges_id</text>
<polygon fill="none" stroke="#000000" points="708.5,-271.7 708.5,-293.7 758.5,-293.7 758.5,-271.7 708.5,-271.7"/>
<text text-anchor="start" x="711.1865" y="-279.4" font-family="Helvetica,sans-Serif" font-size="11.00" fill="#000000">bigint[19]</text>
<polygon fill="none" stroke="#000000" points="591.5,-249.7 591.5,-271.7 708.5,-271.7 708.5,-249.7 591.5,-249.7"/>
<image xlink:href="../../images/primaryKeys.png" width="11px" height="12px" preserveAspectRatio="xMinYMin meet" x="596.5" y="-266.7"/>
<text text-anchor="start" x="611.5" y="-256.8" font-family="Helvetica,sans-Serif" font-size="11.00" fill="#000000">date</text>
<polygon fill="none" stroke="#000000" points="708.5,-249.7 708.5,-271.7 758.5,-271.7 758.5,-249.7 708.5,-249.7"/>
<text text-anchor="start" x="711.5" y="-257.4" font-family="Helvetica,sans-Serif" font-size="11.00" fill="#000000">date[10]</text>
<polygon fill="#ffffff" stroke="transparent" points="591.5,-230.7 591.5,-249.7 641.5,-249.7 641.5,-230.7 591.5,-230.7"/>
<polygon fill="none" stroke="#000000" points="591.5,-230.7 591.5,-249.7 641.5,-249.7 641.5,-230.7 591.5,-230.7"/>
<text text-anchor="start" x="594.5" y="-236.8" font-family="Helvetica,sans-Serif" font-size="11.00" fill="#000000">&lt; 2</text>
<polygon fill="#ffffff" stroke="transparent" points="641.5,-230.7 641.5,-249.7 708.5,-249.7 708.5,-230.7 641.5,-230.7"/>
<polygon fill="none" stroke="#000000" points="641.5,-230.7 641.5,-249.7 708.5,-249.7 708.5,-230.7 641.5,-230.7"/>
<text text-anchor="start" x="673.1105" y="-236.8" font-family="Helvetica,sans-Serif" font-size="11.00" fill="#000000">0 rows</text>
<polygon fill="#ffffff" stroke="transparent" points="708.5,-230.7 708.5,-249.7 758.5,-249.7 758.5,-230.7 708.5,-230.7"/>
<polygon fill="none" stroke="#000000" points="708.5,-230.7 708.5,-249.7 758.5,-249.7 758.5,-230.7 708.5,-230.7"/>
<text text-anchor="start" x="739.9053" y="-236.8" font-family="Helvetica,sans-Serif" font-size="11.00" fill="#000000">3 &gt;</text>
<polygon fill="none" stroke="#000000" stroke-width="2" points="590,-229.7 590,-339.7 759,-339.7 759,-229.7 590,-229.7"/>
</a>
</g>
</g>
<!-- completed_daily_challenges&#45;&gt;daily_challenges -->
<g id="edge4" class="edge">
<title>completed_daily_challenges:w&#45;&gt;daily_challenges:e</title>
<path fill="none" stroke="#000000" d="M794.776,-282.7C782.7815,-282.7 775.3229,-282.7 758.5,-282.7"/>
<polygon fill="#000000" stroke="#000000" points="801.5,-282.7001 809.5,-286.3 805.5,-282.7 809.5,-282.7 809.5,-282.7 809.5,-282.7 805.5,-282.7 809.5,-279.1 801.5,-282.7001 801.5,-282.7001"/>
<ellipse fill="none" stroke="#000000" cx="798.3" cy="-282.7001" rx="3.2" ry="3.2"/>
</g>
<!-- completed_daily_challenges&#45;&gt;daily_challenges -->
<g id="edge5" class="edge">
<title>completed_daily_challenges:w&#45;&gt;daily_challenges:e</title>
<path fill="none" stroke="#000000" d="M794.776,-304.7C782.7815,-304.7 775.3229,-304.7 758.5,-304.7"/>
<polygon fill="#000000" stroke="#000000" points="801.5,-304.7001 809.5,-308.3 805.5,-304.7 809.5,-304.7 809.5,-304.7 809.5,-304.7 805.5,-304.7 809.5,-301.1 801.5,-304.7001 801.5,-304.7001"/>
<ellipse fill="none" stroke="#000000" cx="798.3" cy="-304.7001" rx="3.2" ry="3.2"/>
</g>
<!-- completed_daily_challenges&#45;&gt;daily_challenges -->
<g id="edge6" class="edge">
<title>completed_daily_challenges:w&#45;&gt;daily_challenges:e</title>
<path fill="none" stroke="#000000" d="M794.776,-260.7C782.7815,-260.7 775.3229,-260.7 758.5,-260.7"/>
<polygon fill="#000000" stroke="#000000" points="801.5,-260.7001 809.5,-264.3 805.5,-260.7 809.5,-260.7 809.5,-260.7 809.5,-260.7 805.5,-260.7 809.5,-257.1 801.5,-260.7001 801.5,-260.7001"/>
<ellipse fill="none" stroke="#000000" cx="798.3" cy="-260.7001" rx="3.2" ry="3.2"/>
</g>
<!-- gymnasts -->
<g id="node7" class="node">
<title>gymnasts</title>
<g id="a_node7"><a xlink:href="../../tables/gymnasts.html" xlink:title="gymnasts" target="_top">
<polygon fill="#ffffff" stroke="transparent" points="629.5,-64.2 629.5,-125.2 719.5,-125.2 719.5,-64.2 629.5,-64.2"/>
<polygon fill="#f5f5f5" stroke="transparent" points="629.5,-101.7 629.5,-124.7 719.5,-124.7 719.5,-101.7 629.5,-101.7"/>
<polygon fill="none" stroke="#000000" points="629.5,-101.7 629.5,-124.7 719.5,-124.7 719.5,-101.7 629.5,-101.7"/>
<text text-anchor="start" x="634.4683" y="-110.8" font-family="Helvetica,sans-Serif" font-weight="bold" font-size="11.00" fill="#000000">gymnasts</text>
<text text-anchor="start" x="685.0219" y="-109.8" font-family="Helvetica,sans-Serif" font-size="11.00" fill="#000000">[table]</text>
<polygon fill="none" stroke="#000000" points="629.5,-82.7 629.5,-101.7 719.5,-101.7 719.5,-82.7 629.5,-82.7"/>
<text text-anchor="start" x="632.5" y="-88.8" font-family="Helvetica,sans-Serif" font-size="11.00" fill="#000000">...</text>
<polygon fill="#ffffff" stroke="transparent" points="629.5,-63.7 629.5,-82.7 655.5,-82.7 655.5,-63.7 629.5,-63.7"/>
<polygon fill="none" stroke="#000000" points="629.5,-63.7 629.5,-82.7 655.5,-82.7 655.5,-63.7 629.5,-63.7"/>
<text text-anchor="start" x="632.5" y="-69.8" font-family="Helvetica,sans-Serif" font-size="11.00" fill="#000000">&lt; 2</text>
<polygon fill="#ffffff" stroke="transparent" points="655.5,-63.7 655.5,-82.7 695.5,-82.7 695.5,-63.7 655.5,-63.7"/>
<polygon fill="none" stroke="#000000" points="655.5,-63.7 655.5,-82.7 695.5,-82.7 695.5,-63.7 655.5,-63.7"/>
<text text-anchor="start" x="660.1105" y="-69.8" font-family="Helvetica,sans-Serif" font-size="11.00" fill="#000000">0 rows</text>
<polygon fill="#ffffff" stroke="transparent" points="695.5,-63.7 695.5,-82.7 719.5,-82.7 719.5,-63.7 695.5,-63.7"/>
<polygon fill="none" stroke="#000000" points="695.5,-63.7 695.5,-82.7 719.5,-82.7 719.5,-63.7 695.5,-63.7"/>
<text text-anchor="start" x="700.9053" y="-69.8" font-family="Helvetica,sans-Serif" font-size="11.00" fill="#000000">4 &gt;</text>
</a>
</g>
</g>
<!-- completed_daily_challenges&#45;&gt;gymnasts -->
<g id="edge7" class="edge">
<title>completed_daily_challenges:w&#45;&gt;gymnasts:e</title>
<path fill="none" stroke="#000000" d="M794.8102,-325.2989C733.532,-311.9431 808.6621,-206.0669 768,-135.7 753.4382,-110.5005 748.6043,-91.7 719.5,-91.7"/>
<polygon fill="#000000" stroke="#000000" points="801.5361,-325.9404 809.1582,-330.2837 805.5181,-326.3202 809.5,-326.7 809.5,-326.7 809.5,-326.7 805.5181,-326.3202 809.8418,-323.1163 801.5361,-325.9404 801.5361,-325.9404"/>
<ellipse fill="none" stroke="#000000" cx="798.3506" cy="-325.6365" rx="3.2" ry="3.2"/>
</g>
<!-- daily_challenges&#45;&gt;challenges -->
<g id="edge8" class="edge">
<title>daily_challenges:w&#45;&gt;challenges:e</title>
<path fill="none" stroke="#000000" d="M577.5658,-278.4556C564.14,-268.7369 562.5965,-245.7 540.5,-245.7"/>
<polygon fill="#000000" stroke="#000000" points="583.8471,-280.3689 590.451,-286.1438 587.6736,-281.5345 591.5,-282.7 591.5,-282.7 591.5,-282.7 587.6736,-281.5345 592.549,-279.2562 583.8471,-280.3689 583.8471,-280.3689"/>
<ellipse fill="none" stroke="#000000" cx="580.786" cy="-279.4365" rx="3.2" ry="3.2"/>
</g>
<!-- daily_challenges&#45;&gt;classes -->
<g id="edge9" class="edge">
<title>daily_challenges:w&#45;&gt;classes:e</title>
<path fill="none" stroke="#000000" d="M576.6274,-305.0754C496.5156,-309.1035 456.0014,-343.1754 389,-290.7 342.6908,-254.4307 407.3218,-164.7 348.5,-164.7"/>
<polygon fill="#000000" stroke="#000000" points="583.5025,-304.9019 591.5909,-308.2989 587.5013,-304.801 591.5,-304.7 591.5,-304.7 591.5,-304.7 587.5013,-304.801 591.4091,-301.1011 583.5025,-304.9019 583.5025,-304.9019"/>
<ellipse fill="none" stroke="#000000" cx="580.3036" cy="-304.9827" rx="3.2" ry="3.2"/>
</g>
<!-- gymnasts_classes -->
<g id="node8" class="node">
<title>gymnasts_classes</title>
<g id="a_node8"><a xlink:href="../../tables/gymnasts_classes.html" xlink:title="gymnasts_classes" target="_top">
<polygon fill="#ffffff" stroke="transparent" points="844.5,-38.2 844.5,-99.2 976.5,-99.2 976.5,-38.2 844.5,-38.2"/>
<polygon fill="#f5f5f5" stroke="transparent" points="844.5,-75.7 844.5,-98.7 976.5,-98.7 976.5,-75.7 844.5,-75.7"/>
<polygon fill="none" stroke="#000000" points="844.5,-75.7 844.5,-98.7 976.5,-98.7 976.5,-75.7 844.5,-75.7"/>
<text text-anchor="start" x="849.0755" y="-84.8" font-family="Helvetica,sans-Serif" font-weight="bold" font-size="11.00" fill="#000000">gymnasts_classes</text>
<text text-anchor="start" x="942.0219" y="-83.8" font-family="Helvetica,sans-Serif" font-size="11.00" fill="#000000">[table]</text>
<polygon fill="none" stroke="#000000" points="844.5,-56.7 844.5,-75.7 976.5,-75.7 976.5,-56.7 844.5,-56.7"/>
<text text-anchor="start" x="847.5" y="-62.8" font-family="Helvetica,sans-Serif" font-size="11.00" fill="#000000">...</text>
<polygon fill="#ffffff" stroke="transparent" points="844.5,-37.7 844.5,-56.7 895.5,-56.7 895.5,-37.7 844.5,-37.7"/>
<polygon fill="none" stroke="#000000" points="844.5,-37.7 844.5,-56.7 895.5,-56.7 895.5,-37.7 844.5,-37.7"/>
<text text-anchor="start" x="847.5" y="-43.8" font-family="Helvetica,sans-Serif" font-size="11.00" fill="#000000">&lt; 2</text>
<polygon fill="#ffffff" stroke="transparent" points="895.5,-37.7 895.5,-56.7 948.5,-56.7 948.5,-37.7 895.5,-37.7"/>
<polygon fill="none" stroke="#000000" points="895.5,-37.7 895.5,-56.7 948.5,-56.7 948.5,-37.7 895.5,-37.7"/>
<text text-anchor="start" x="913.1105" y="-43.8" font-family="Helvetica,sans-Serif" font-size="11.00" fill="#000000">0 rows</text>
<polygon fill="#ffffff" stroke="transparent" points="948.5,-37.7 948.5,-56.7 976.5,-56.7 976.5,-37.7 948.5,-37.7"/>
<polygon fill="none" stroke="#000000" points="948.5,-37.7 948.5,-56.7 976.5,-56.7 976.5,-37.7 948.5,-37.7"/>
<text text-anchor="start" x="967.3862" y="-43.8" font-family="Helvetica,sans-Serif" font-size="11.00" fill="#000000"> &#160;</text>
</a>
</g>
</g>
<!-- gymnasts_classes&#45;&gt;classes -->
<g id="edge10" class="edge">
<title>gymnasts_classes:w&#45;&gt;classes:e</title>
<path fill="none" stroke="#000000" d="M829.796,-65.0481C806.9139,-62.8836 796.8164,-55.9464 768,-53.7 685.1403,-47.2407 662.7091,-38.4989 581,-53.7 491.0907,-70.4266 466.7698,-79.5824 389,-127.7 368.2669,-140.528 372.8807,-164.7 348.5,-164.7"/>
<polygon fill="#000000" stroke="#000000" points="836.5079,-65.3456 844.3405,-69.2965 840.5039,-65.5228 844.5,-65.7 844.5,-65.7 844.5,-65.7 840.5039,-65.5228 844.6595,-62.1035 836.5079,-65.3456 836.5079,-65.3456"/>
<ellipse fill="none" stroke="#000000" cx="833.311" cy="-65.2038" rx="3.2" ry="3.2"/>
</g>
<!-- gymnasts_classes&#45;&gt;gymnasts -->
<g id="edge11" class="edge">
<title>gymnasts_classes:w&#45;&gt;gymnasts:e</title>
<path fill="none" stroke="#000000" d="M829.9466,-66.3171C785.2609,-70.2543 771.0356,-91.7 719.5,-91.7"/>
<polygon fill="#000000" stroke="#000000" points="836.5072,-66.0389 844.6525,-69.2968 840.5036,-65.8695 844.5,-65.7 844.5,-65.7 844.5,-65.7 840.5036,-65.8695 844.3475,-62.1032 836.5072,-66.0389 836.5072,-66.0389"/>
<ellipse fill="none" stroke="#000000" cx="833.3101" cy="-66.1745" rx="3.2" ry="3.2"/>
</g>
<!-- normal_challenges -->
<g id="node9" class="node">
<title>normal_challenges</title>
<g id="a_node9"><a xlink:href="../../tables/normal_challenges.html" xlink:title="normal_challenges" target="_top">
<polygon fill="#ffffff" stroke="transparent" points="607,-146.2 607,-207.2 742,-207.2 742,-146.2 607,-146.2"/>
<polygon fill="#f5f5f5" stroke="transparent" points="607.5,-183.7 607.5,-206.7 742.5,-206.7 742.5,-183.7 607.5,-183.7"/>
<polygon fill="none" stroke="#000000" points="607.5,-183.7 607.5,-206.7 742.5,-206.7 742.5,-183.7 607.5,-183.7"/>
<text text-anchor="start" x="612.3523" y="-192.8" font-family="Helvetica,sans-Serif" font-weight="bold" font-size="11.00" fill="#000000">normal_challenges</text>
<text text-anchor="start" x="708.0219" y="-191.8" font-family="Helvetica,sans-Serif" font-size="11.00" fill="#000000">[table]</text>
<polygon fill="none" stroke="#000000" points="607.5,-164.7 607.5,-183.7 742.5,-183.7 742.5,-164.7 607.5,-164.7"/>
<text text-anchor="start" x="610.5" y="-170.8" font-family="Helvetica,sans-Serif" font-size="11.00" fill="#000000">...</text>
<polygon fill="#ffffff" stroke="transparent" points="607.5,-145.7 607.5,-164.7 655.5,-164.7 655.5,-145.7 607.5,-145.7"/>
<polygon fill="none" stroke="#000000" points="607.5,-145.7 607.5,-164.7 655.5,-164.7 655.5,-145.7 607.5,-145.7"/>
<text text-anchor="start" x="610.5" y="-151.8" font-family="Helvetica,sans-Serif" font-size="11.00" fill="#000000">&lt; 2</text>
<polygon fill="#ffffff" stroke="transparent" points="655.5,-145.7 655.5,-164.7 707.5,-164.7 707.5,-145.7 655.5,-145.7"/>
<polygon fill="none" stroke="#000000" points="655.5,-145.7 655.5,-164.7 707.5,-164.7 707.5,-145.7 655.5,-145.7"/>
<text text-anchor="start" x="672.1105" y="-151.8" font-family="Helvetica,sans-Serif" font-size="11.00" fill="#000000">0 rows</text>
<polygon fill="#ffffff" stroke="transparent" points="707.5,-145.7 707.5,-164.7 742.5,-164.7 742.5,-145.7 707.5,-145.7"/>
<polygon fill="none" stroke="#000000" points="707.5,-145.7 707.5,-164.7 742.5,-164.7 742.5,-145.7 707.5,-145.7"/>
<text text-anchor="start" x="723.9053" y="-151.8" font-family="Helvetica,sans-Serif" font-size="11.00" fill="#000000">2 &gt;</text>
</a>
</g>
</g>
<!-- normal_challenges&#45;&gt;challenges -->
<g id="edge12" class="edge">
<title>normal_challenges:w&#45;&gt;challenges:e</title>
<path fill="none" stroke="#000000" d="M593.177,-177.1727C568.082,-191.555 578.4063,-245.7 540.5,-245.7"/>
<polygon fill="#000000" stroke="#000000" points="599.7253,-175.5851 608.3483,-177.1986 603.6126,-174.6425 607.5,-173.7 607.5,-173.7 607.5,-173.7 603.6126,-174.6425 606.6517,-170.2014 599.7253,-175.5851 599.7253,-175.5851"/>
<ellipse fill="none" stroke="#000000" cx="596.6154" cy="-176.3391" rx="3.2" ry="3.2"/>
</g>
<!-- normal_challenges&#45;&gt;classes -->
<g id="edge13" class="edge">
<title>normal_challenges:w&#45;&gt;classes:e</title>
<path fill="none" stroke="#000000" d="M592.9312,-171.2674C576.3234,-165.0026 571.3059,-148.4072 548,-142.7 479.3614,-125.8916 457.4906,-125.2984 389,-142.7 369.1465,-147.7442 368.9843,-164.7 348.5,-164.7"/>
<polygon fill="#000000" stroke="#000000" points="599.6092,-172.3824 606.9071,-177.2508 603.5546,-173.0412 607.5,-173.7 607.5,-173.7 607.5,-173.7 603.5546,-173.0412 608.0929,-170.1492 599.6092,-172.3824 599.6092,-172.3824"/>
<ellipse fill="none" stroke="#000000" cx="596.4529" cy="-171.8554" rx="3.2" ry="3.2"/>
</g>
</g>
</svg>
