<?xml version="1.0" encoding="UTF-8" standalone="no"?>
<!DOCTYPE svg PUBLIC "-//W3C//DTD SVG 1.1//EN"
 "http://www.w3.org/Graphics/SVG/1.1/DTD/svg11.dtd">
<!-- Generated by graphviz version 2.40.1 (20161225.0304)
 -->
<!-- Title: twoDegreesRelationshipsDiagram Pages: 1 -->
<svg width="984pt" height="373pt"
 viewBox="0.00 0.00 984.00 373.20" xmlns="http://www.w3.org/2000/svg" xmlns:xlink="http://www.w3.org/1999/xlink">
<g id="graph0" class="graph" transform="scale(1 1) rotate(0) translate(4 369.2)">
<title>twoDegreesRelationshipsDiagram</title>
<polygon fill="#ffffff" stroke="transparent" points="-4,4 -4,-369.2 980,-369.2 980,4 -4,4"/>
<text text-anchor="middle" x="72.4936" y="-7.3" font-family="Helvetica,sans-Serif" font-size="11.00" fill="#000000">Generated by SchemaSpy</text>
<!-- challenges -->
<g id="node1" class="node">
<title>challenges</title>
<g id="a_node1"><a xlink:href="../../tables/challenges.html" xlink:title="challenges" target="_top">
<polygon fill="#ffffff" stroke="transparent" points="397,-153.2 397,-280.2 496,-280.2 496,-153.2 397,-153.2"/>
<polygon fill="#f5f5f5" stroke="transparent" points="397.5,-256.7 397.5,-279.7 496.5,-279.7 496.5,-256.7 397.5,-256.7"/>
<polygon fill="none" stroke="#000000" points="397.5,-256.7 397.5,-279.7 496.5,-279.7 496.5,-256.7 397.5,-256.7"/>
<text text-anchor="start" x="402.5" y="-265.8" font-family="Helvetica,sans-Serif" font-weight="bold" font-size="11.00" fill="#000000">challenges</text>
<text text-anchor="start" x="461.5437" y="-264.8" font-family="Helvetica,sans-Serif" font-size="11.00" fill="#000000">[table]</text>
<polygon fill="none" stroke="#000000" points="397.5,-234.7 397.5,-256.7 496.5,-256.7 496.5,-234.7 397.5,-234.7"/>
<image xlink:href="../../images/primaryKeys.png" width="11px" height="12px" preserveAspectRatio="xMinYMin meet" x="402.5" y="-251.7"/>
<text text-anchor="start" x="417.5" y="-241.8" font-family="Helvetica,sans-Serif" font-size="11.00" fill="#000000">id</text>
<polygon fill="#ffffff" stroke="transparent" points="397.5,-212.7 397.5,-234.7 496.5,-234.7 496.5,-212.7 397.5,-212.7"/>
<polygon fill="none" stroke="#000000" points="397.5,-212.7 397.5,-234.7 496.5,-234.7 496.5,-212.7 397.5,-212.7"/>
<image xlink:href="../../images/foreignKeys.png" width="11px" height="12px" preserveAspectRatio="xMinYMin meet" x="402.5" y="-229.7"/>
<text text-anchor="start" x="417.5" y="-219.8" font-family="Helvetica,sans-Serif" font-size="11.00" fill="#000000">gym_id</text>
<polygon fill="#ffffff" stroke="transparent" points="397.5,-190.7 397.5,-212.7 496.5,-212.7 496.5,-190.7 397.5,-190.7"/>
<polygon fill="none" stroke="#000000" points="397.5,-190.7 397.5,-212.7 496.5,-212.7 496.5,-190.7 397.5,-190.7"/>
<image xlink:href="../../images/foreignKeys.png" width="11px" height="12px" preserveAspectRatio="xMinYMin meet" x="402.5" y="-207.7"/>
<text text-anchor="start" x="417.5" y="-197.8" font-family="Helvetica,sans-Serif" font-size="11.00" fill="#000000">class_id</text>
<polygon fill="none" stroke="#000000" points="397.5,-171.7 397.5,-190.7 496.5,-190.7 496.5,-171.7 397.5,-171.7"/>
<text text-anchor="start" x="400.5" y="-177.8" font-family="Helvetica,sans-Serif" font-size="11.00" fill="#000000">...</text>
<polygon fill="#ffffff" stroke="transparent" points="397.5,-152.7 397.5,-171.7 427.5,-171.7 427.5,-152.7 397.5,-152.7"/>
<polygon fill="none" stroke="#000000" points="397.5,-152.7 397.5,-171.7 427.5,-171.7 427.5,-152.7 397.5,-152.7"/>
<text text-anchor="start" x="400.5" y="-158.8" font-family="Helvetica,sans-Serif" font-size="11.00" fill="#000000">&lt; 2</text>
<polygon fill="#ffffff" stroke="transparent" points="427.5,-152.7 427.5,-171.7 470.5,-171.7 470.5,-152.7 427.5,-152.7"/>
<polygon fill="none" stroke="#000000" points="427.5,-152.7 427.5,-171.7 470.5,-171.7 470.5,-152.7 427.5,-152.7"/>
<text text-anchor="start" x="435.1105" y="-158.8" font-family="Helvetica,sans-Serif" font-size="11.00" fill="#000000">0 rows</text>
<polygon fill="#ffffff" stroke="transparent" points="470.5,-152.7 470.5,-171.7 496.5,-171.7 496.5,-152.7 470.5,-152.7"/>
<polygon fill="none" stroke="#000000" points="470.5,-152.7 470.5,-171.7 496.5,-171.7 496.5,-152.7 470.5,-152.7"/>
<text text-anchor="start" x="477.9053" y="-158.8" font-family="Helvetica,sans-Serif" font-size="11.00" fill="#000000">2 &gt;</text>
</a>
</g>
</g>
<!-- classes -->
<g id="node2" class="node">
<title>classes</title>
<g id="a_node2"><a xlink:href="../../tables/classes.html" xlink:title="classes" target="_top">
<polygon fill="#ffffff" stroke="transparent" points="263,-94.2 263,-199.2 348,-199.2 348,-94.2 263,-94.2"/>
<polygon fill="#f5f5f5" stroke="transparent" points="263.5,-175.7 263.5,-198.7 348.5,-198.7 348.5,-175.7 263.5,-175.7"/>
<polygon fill="none" stroke="#000000" points="263.5,-175.7 263.5,-198.7 348.5,-198.7 348.5,-175.7 263.5,-175.7"/>
<text text-anchor="start" x="268.5" y="-184.8" font-family="Helvetica,sans-Serif" font-weight="bold" font-size="11.00" fill="#000000">classes</text>
<text text-anchor="start" x="313.5437" y="-183.8" font-family="Helvetica,sans-Serif" font-size="11.00" fill="#000000">[table]</text>
<polygon fill="none" stroke="#000000" points="263.5,-153.7 263.5,-175.7 348.5,-175.7 348.5,-153.7 263.5,-153.7"/>
<image xlink:href="../../images/primaryKeys.png" width="11px" height="12px" preserveAspectRatio="xMinYMin meet" x="268.5" y="-170.7"/>
<text text-anchor="start" x="283.5" y="-160.8" font-family="Helvetica,sans-Serif" font-size="11.00" fill="#000000">id</text>
<polygon fill="#ffffff" stroke="transparent" points="263.5,-131.7 263.5,-153.7 348.5,-153.7 348.5,-131.7 263.5,-131.7"/>
<polygon fill="none" stroke="#000000" points="263.5,-131.7 263.5,-153.7 348.5,-153.7 348.5,-131.7 263.5,-131.7"/>
<image xlink:href="../../images/foreignKeys.png" width="11px" height="12px" preserveAspectRatio="xMinYMin meet" x="268.5" y="-148.7"/>
<text text-anchor="start" x="283.5" y="-138.8" font-family="Helvetica,sans-Serif" font-size="11.00" fill="#000000">skill_list_id</text>
<polygon fill="none" stroke="#000000" points="263.5,-112.7 263.5,-131.7 348.5,-131.7 348.5,-112.7 263.5,-112.7"/>
<text text-anchor="start" x="266.5" y="-118.8" font-family="Helvetica,sans-Serif" font-size="11.00" fill="#000000">...</text>
<polygon fill="#ffffff" stroke="transparent" points="263.5,-93.7 263.5,-112.7 286.5,-112.7 286.5,-93.7 263.5,-93.7"/>
<polygon fill="none" stroke="#000000" points="263.5,-93.7 263.5,-112.7 286.5,-112.7 286.5,-93.7 263.5,-93.7"/>
<text text-anchor="start" x="266.5" y="-99.8" font-family="Helvetica,sans-Serif" font-size="11.00" fill="#000000">&lt; 1</text>
<polygon fill="#ffffff" stroke="transparent" points="286.5,-93.7 286.5,-112.7 325.5,-112.7 325.5,-93.7 286.5,-93.7"/>
<polygon fill="none" stroke="#000000" points="286.5,-93.7 286.5,-112.7 325.5,-112.7 325.5,-93.7 286.5,-93.7"/>
<text text-anchor="start" x="290.1105" y="-99.8" font-family="Helvetica,sans-Serif" font-size="11.00" fill="#000000">0 rows</text>
<polygon fill="#ffffff" stroke="transparent" points="325.5,-93.7 325.5,-112.7 348.5,-112.7 348.5,-93.7 325.5,-93.7"/>
<polygon fill="none" stroke="#000000" points="325.5,-93.7 325.5,-112.7 348.5,-112.7 348.5,-93.7 325.5,-93.7"/>
<text text-anchor="start" x="329.9053" y="-99.8" font-family="Helvetica,sans-Serif" font-size="11.00" fill="#000000">4 &gt;</text>
</a>
</g>
</g>
<!-- challenges&#45;&gt;classes -->
<g id="edge1" class="edge">
<title>challenges:w&#45;&gt;classes:e</title>
<path fill="none" stroke="#000000" d="M383.6217,-197.1631C371.0786,-187.283 369.8196,-164.7 348.5,-164.7"/>
<polygon fill="#000000" stroke="#000000" points="389.896,-199.2142 396.3814,-205.1218 393.698,-200.4571 397.5,-201.7 397.5,-201.7 397.5,-201.7 393.698,-200.4571 398.6186,-198.2782 389.896,-199.2142 389.896,-199.2142"/>
<ellipse fill="none" stroke="#000000" cx="386.8544" cy="-198.2198" rx="3.2" ry="3.2"/>
</g>
<!-- gyms -->
<g id="node3" class="node">
<title>gyms</title>
<g id="a_node3"><a xlink:href="../../tables/gyms.html" xlink:title="gyms" target="_top">
<polygon fill="#ffffff" stroke="transparent" points="8,-161.2 8,-222.2 79,-222.2 79,-161.2 8,-161.2"/>
<polygon fill="#f5f5f5" stroke="transparent" points="8.5,-198.7 8.5,-221.7 79.5,-221.7 79.5,-198.7 8.5,-198.7"/>
<polygon fill="none" stroke="#000000" points="8.5,-198.7 8.5,-221.7 79.5,-221.7 79.5,-198.7 8.5,-198.7"/>
<text text-anchor="start" x="13.5" y="-207.8" font-family="Helvetica,sans-Serif" font-weight="bold" font-size="11.00" fill="#000000">gyms</text>
<text text-anchor="start" x="44.5437" y="-206.8" font-family="Helvetica,sans-Serif" font-size="11.00" fill="#000000">[table]</text>
<polygon fill="none" stroke="#000000" points="8.5,-179.7 8.5,-198.7 79.5,-198.7 79.5,-179.7 8.5,-179.7"/>
<text text-anchor="start" x="11.5" y="-185.8" font-family="Helvetica,sans-Serif" font-size="11.00" fill="#000000">...</text>
<polygon fill="#ffffff" stroke="transparent" points="8.5,-160.7 8.5,-179.7 20.5,-179.7 20.5,-160.7 8.5,-160.7"/>
<polygon fill="none" stroke="#000000" points="8.5,-160.7 8.5,-179.7 20.5,-179.7 20.5,-160.7 8.5,-160.7"/>
<text text-anchor="start" x="11.4431" y="-166.8" font-family="Helvetica,sans-Serif" font-size="11.00" fill="#000000"> &#160;</text>
<polygon fill="#ffffff" stroke="transparent" points="20.5,-160.7 20.5,-179.7 58.5,-179.7 58.5,-160.7 20.5,-160.7"/>
<polygon fill="none" stroke="#000000" points="20.5,-160.7 20.5,-179.7 58.5,-179.7 58.5,-160.7 20.5,-160.7"/>
<text text-anchor="start" x="23.3053" y="-166.8" font-family="Helvetica,sans-Serif" font-size="11.00" fill="#000000">0 rows</text>
<polygon fill="#ffffff" stroke="transparent" points="58.5,-160.7 58.5,-179.7 79.5,-179.7 79.5,-160.7 58.5,-160.7"/>
<polygon fill="none" stroke="#000000" points="58.5,-160.7 58.5,-179.7 79.5,-179.7 79.5,-160.7 58.5,-160.7"/>
<text text-anchor="start" x="61.2027" y="-166.8" font-family="Helvetica,sans-Serif" font-size="11.00" fill="#000000">4 &gt;</text>
</a>
</g>
</g>
<!-- challenges&#45;&gt;gyms -->
<g id="edge2" class="edge">
<title>challenges:w&#45;&gt;gyms:e</title>
<path fill="none" stroke="#000000" d="M383.0577,-223.6774C270.9966,-223.3107 237.2414,-218.338 120,-198.7 101.7142,-195.6371 98.0406,-188.7 79.5,-188.7"/>
<polygon fill="#000000" stroke="#000000" points="389.5,-223.6874 397.4943,-227.3 393.5,-223.6937 397.5,-223.7 397.5,-223.7 397.5,-223.7 393.5,-223.6937 397.5057,-220.1 389.5,-223.6874 389.5,-223.6874"/>
<ellipse fill="none" stroke="#000000" cx="386.3" cy="-223.6824" rx="3.2" ry="3.2"/>
</g>
<!-- skill_lists -->
<g id="node4" class="node">
<title>skill_lists</title>
<g id="a_node4"><a xlink:href="../../tables/skill_lists.html" xlink:title="skill_lists" target="_top">
<polygon fill="#ffffff" stroke="transparent" points="128,-127.2 128,-188.2 214,-188.2 214,-127.2 128,-127.2"/>
<polygon fill="#f5f5f5" stroke="transparent" points="128,-164.7 128,-187.7 214,-187.7 214,-164.7 128,-164.7"/>
<polygon fill="none" stroke="#000000" points="128,-164.7 128,-187.7 214,-187.7 214,-164.7 128,-164.7"/>
<text text-anchor="start" x="132.8119" y="-173.8" font-family="Helvetica,sans-Serif" font-weight="bold" font-size="11.00" fill="#000000">skill_lists</text>
<text text-anchor="start" x="179.5219" y="-172.8" font-family="Helvetica,sans-Serif" font-size="11.00" fill="#000000">[table]</text>
<polygon fill="none" stroke="#000000" points="128,-145.7 128,-164.7 214,-164.7 214,-145.7 128,-145.7"/>
<text text-anchor="start" x="131" y="-151.8" font-family="Helvetica,sans-Serif" font-size="11.00" fill="#000000">...</text>
<polygon fill="#ffffff" stroke="transparent" points="128,-126.7 128,-145.7 152,-145.7 152,-126.7 128,-126.7"/>
<polygon fill="none" stroke="#000000" points="128,-126.7 128,-145.7 152,-145.7 152,-126.7 128,-126.7"/>
<text text-anchor="start" x="131" y="-132.8" font-family="Helvetica,sans-Serif" font-size="11.00" fill="#000000">&lt; 1</text>
<polygon fill="#ffffff" stroke="transparent" points="152,-126.7 152,-145.7 191,-145.7 191,-126.7 152,-126.7"/>
<polygon fill="none" stroke="#000000" points="152,-126.7 152,-145.7 191,-145.7 191,-126.7 152,-126.7"/>
<text text-anchor="start" x="155.6105" y="-132.8" font-family="Helvetica,sans-Serif" font-size="11.00" fill="#000000">0 rows</text>
<polygon fill="#ffffff" stroke="transparent" points="191,-126.7 191,-145.7 214,-145.7 214,-126.7 191,-126.7"/>
<polygon fill="none" stroke="#000000" points="191,-126.7 191,-145.7 214,-145.7 214,-126.7 191,-126.7"/>
<text text-anchor="start" x="195.4053" y="-132.8" font-family="Helvetica,sans-Serif" font-size="11.00" fill="#000000">2 &gt;</text>
</a>
</g>
</g>
<!-- classes&#45;&gt;skill_lists -->
<g id="edge3" class="edge">
<title>classes:w&#45;&gt;skill_lists:e</title>
<path fill="none" stroke="#000000" d="M249.0318,-144.6816C237.4602,-148.0899 230.8011,-154.7 214,-154.7"/>
<polygon fill="#000000" stroke="#000000" points="255.574,-143.7856 263.9885,-146.2667 259.537,-143.2428 263.5,-142.7 263.5,-142.7 263.5,-142.7 259.537,-143.2428 263.0115,-139.1333 255.574,-143.7856 255.574,-143.7856"/>
<ellipse fill="none" stroke="#000000" cx="252.4036" cy="-144.2198" rx="3.2" ry="3.2"/>
</g>
<!-- skill_lists&#45;&gt;gyms -->
<g id="edge14" class="edge">
<title>skill_lists:w&#45;&gt;gyms:e</title>
<path fill="none" stroke="#000000" d="M114.0914,-159.1449C101.9913,-168.361 99.8605,-188.7 79.5,-188.7"/>
<polygon fill="#000000" stroke="#000000" points="120.3797,-157.1353 129.0959,-158.1291 124.1898,-155.9177 128,-154.7 128,-154.7 128,-154.7 124.1898,-155.9177 126.9041,-151.2709 120.3797,-157.1353 120.3797,-157.1353"/>
<ellipse fill="none" stroke="#000000" cx="117.3315" cy="-158.1095" rx="3.2" ry="3.2"/>
</g>
<!-- completed_daily_challenges -->
<g id="node5" class="node">
<title>completed_daily_challenges</title>
<g id="a_node5"><a xlink:href="../../tables/completed_daily_challenges.html" xlink:title="completed_daily_challenges" target="_top">
<polygon fill="#ffffff" stroke="transparent" points="765,-212.2 765,-361.2 968,-361.2 968,-212.2 765,-212.2"/>
<polygon fill="#f5f5f5" stroke="transparent" points="765.5,-337.7 765.5,-360.7 968.5,-360.7 968.5,-337.7 765.5,-337.7"/>
<polygon fill="none" stroke="#000000" points="765.5,-337.7 765.5,-360.7 968.5,-360.7 968.5,-337.7 765.5,-337.7"/>
<text text-anchor="start" x="770.5" y="-346.8" font-family="Helvetica,sans-Serif" font-weight="bold" font-size="11.00" fill="#000000">completed_daily_challenges</text>
<text text-anchor="start" x="933.5437" y="-345.8" font-family="Helvetica,sans-Serif" font-size="11.00" fill="#000000">[table]</text>
<polygon fill="none" stroke="#000000" points="765.5,-315.7 765.5,-337.7 968.5,-337.7 968.5,-315.7 765.5,-315.7"/>
<image xlink:href="../../images/primaryKeys.png" width="11px" height="12px" preserveAspectRatio="xMinYMin meet" x="770.5" y="-332.7"/>
<text text-anchor="start" x="785.5" y="-322.8" font-family="Helvetica,sans-Serif" font-size="11.00" fill="#000000">gymnasts_id</text>
<polygon fill="none" stroke="#000000" points="765.5,-293.7 765.5,-315.7 968.5,-315.7 968.5,-293.7 765.5,-293.7"/>
<image xlink:href="../../images/primaryKeys.png" width="11px" height="12px" preserveAspectRatio="xMinYMin meet" x="770.5" y="-310.7"/>
<text text-anchor="start" x="785.5" y="-300.8" font-family="Helvetica,sans-Serif" font-size="11.00" fill="#000000">daily_challenges_classes_id</text>
<polygon fill="none" stroke="#000000" points="765.5,-271.7 765.5,-293.7 968.5,-293.7 968.5,-271.7 765.5,-271.7"/>
<image xlink:href="../../images/primaryKeys.png" width="11px" height="12px" preserveAspectRatio="xMinYMin meet" x="770.5" y="-288.7"/>
<text text-anchor="start" x="785.5" y="-278.8" font-family="Helvetica,sans-Serif" font-size="11.00" fill="#000000">daily_challenges_challenges_id</text>
<polygon fill="none" stroke="#000000" points="765.5,-249.7 765.5,-271.7 968.5,-271.7 968.5,-249.7 765.5,-249.7"/>
<image xlink:href="../../images/primaryKeys.png" width="11px" height="12px" preserveAspectRatio="xMinYMin meet" x="770.5" y="-266.7"/>
<text text-anchor="start" x="785.5" y="-256.8" font-family="Helvetica,sans-Serif" font-size="11.00" fill="#000000">daily_challenges_date</text>
<polygon fill="none" stroke="#000000" points="765.5,-230.7 765.5,-249.7 968.5,-249.7 968.5,-230.7 765.5,-230.7"/>
<text text-anchor="start" x="768.5" y="-236.8" font-family="Helvetica,sans-Serif" font-size="11.00" fill="#000000">...</text>
<polygon fill="#ffffff" stroke="transparent" points="765.5,-211.7 765.5,-230.7 852.5,-230.7 852.5,-211.7 765.5,-211.7"/>
<polygon fill="none" stroke="#000000" points="765.5,-211.7 765.5,-230.7 852.5,-230.7 852.5,-211.7 765.5,-211.7"/>
<text text-anchor="start" x="768.5" y="-217.8" font-family="Helvetica,sans-Serif" font-size="11.00" fill="#000000">&lt; 4</text>
<polygon fill="#ffffff" stroke="transparent" points="852.5,-211.7 852.5,-230.7 923.5,-230.7 923.5,-211.7 852.5,-211.7"/>
<polygon fill="none" stroke="#000000" points="852.5,-211.7 852.5,-230.7 923.5,-230.7 923.5,-211.7 852.5,-211.7"/>
<text text-anchor="start" x="888.1105" y="-217.8" font-family="Helvetica,sans-Serif" font-size="11.00" fill="#000000">0 rows</text>
<polygon fill="#ffffff" stroke="transparent" points="923.5,-211.7 923.5,-230.7 968.5,-230.7 968.5,-211.7 923.5,-211.7"/>
<polygon fill="none" stroke="#000000" points="923.5,-211.7 923.5,-230.7 968.5,-230.7 968.5,-211.7 923.5,-211.7"/>
<text text-anchor="start" x="959.3862" y="-217.8" font-family="Helvetica,sans-Serif" font-size="11.00" fill="#000000"> &#160;</text>
</a>
</g>
</g>
<!-- daily_challenges -->
<g id="node6" class="node">
<title>daily_challenges</title>
<g id="a_node6"><a xlink:href="../../tables/daily_challenges.html" xlink:title="daily_challenges" target="_top">
<polygon fill="#ffffff" stroke="transparent" points="545,-228.7 545,-340.7 716,-340.7 716,-228.7 545,-228.7"/>
<polygon fill="#f5f5f5" stroke="transparent" points="547.5,-315.7 547.5,-338.7 714.5,-338.7 714.5,-315.7 547.5,-315.7"/>
<polygon fill="none" stroke="#000000" points="547.5,-315.7 547.5,-338.7 714.5,-338.7 714.5,-315.7 547.5,-315.7"/>
<text text-anchor="start" x="552.5" y="-324.8" font-family="Helvetica,sans-Serif" font-weight="bold" font-size="11.00" fill="#000000">daily_challenges</text>
<text text-anchor="start" x="679.5437" y="-323.8" font-family="Helvetica,sans-Serif" font-size="11.00" fill="#000000">[table]</text>
<polygon fill="none" stroke="#000000" points="547.5,-293.7 547.5,-315.7 664.5,-315.7 664.5,-293.7 547.5,-293.7"/>
<image xlink:href="../../images/primaryKeys.png" width="11px" height="12px" preserveAspectRatio="xMinYMin meet" x="552.5" y="-310.7"/>
<text text-anchor="start" x="567.5" y="-300.8" font-family="Helvetica,sans-Serif" font-size="11.00" fill="#000000">classes_id</text>
<polygon fill="none" stroke="#000000" points="664.5,-293.7 664.5,-315.7 714.5,-315.7 714.5,-293.7 664.5,-293.7"/>
<text text-anchor="start" x="667.1865" y="-301.4" font-family="Helvetica,sans-Serif" font-size="11.00" fill="#000000">bigint[19]</text>
<polygon fill="none" stroke="#000000" points="547.5,-271.7 547.5,-293.7 664.5,-293.7 664.5,-271.7 547.5,-271.7"/>
<image xlink:href="../../images/primaryKeys.png" width="11px" height="12px" preserveAspectRatio="xMinYMin meet" x="552.5" y="-288.7"/>
<text text-anchor="start" x="567.5" y="-278.8" font-family="Helvetica,sans-Serif" font-size="11.00" fill="#000000">challenges_id</text>
<polygon fill="none" stroke="#000000" points="664.5,-271.7 664.5,-293.7 714.5,-293.7 714.5,-271.7 664.5,-271.7"/>
<text text-anchor="start" x="667.1865" y="-279.4" font-family="Helvetica,sans-Serif" font-size="11.00" fill="#000000">bigint[19]</text>
<polygon fill="none" stroke="#000000" points="547.5,-249.7 547.5,-271.7 664.5,-271.7 664.5,-249.7 547.5,-249.7"/>
<image xlink:href="../../images/primaryKeys.png" width="11px" height="12px" preserveAspectRatio="xMinYMin meet" x="552.5" y="-266.7"/>
<text text-anchor="start" x="567.5" y="-256.8" font-family="Helvetica,sans-Serif" font-size="11.00" fill="#000000">date</text>
<polygon fill="none" stroke="#000000" points="664.5,-249.7 664.5,-271.7 714.5,-271.7 714.5,-249.7 664.5,-249.7"/>
<text text-anchor="start" x="667.5" y="-257.4" font-family="Helvetica,sans-Serif" font-size="11.00" fill="#000000">date[10]</text>
<polygon fill="#ffffff" stroke="transparent" points="547.5,-230.7 547.5,-249.7 597.5,-249.7 597.5,-230.7 547.5,-230.7"/>
<polygon fill="none" stroke="#000000" points="547.5,-230.7 547.5,-249.7 597.5,-249.7 597.5,-230.7 547.5,-230.7"/>
<text text-anchor="start" x="550.5" y="-236.8" font-family="Helvetica,sans-Serif" font-size="11.00" fill="#000000">&lt; 2</text>
<polygon fill="#ffffff" stroke="transparent" points="597.5,-230.7 597.5,-249.7 664.5,-249.7 664.5,-230.7 597.5,-230.7"/>
<polygon fill="none" stroke="#000000" points="597.5,-230.7 597.5,-249.7 664.5,-249.7 664.5,-230.7 597.5,-230.7"/>
<text text-anchor="start" x="629.1105" y="-236.8" font-family="Helvetica,sans-Serif" font-size="11.00" fill="#000000">0 rows</text>
<polygon fill="#ffffff" stroke="transparent" points="664.5,-230.7 664.5,-249.7 714.5,-249.7 714.5,-230.7 664.5,-230.7"/>
<polygon fill="none" stroke="#000000" points="664.5,-230.7 664.5,-249.7 714.5,-249.7 714.5,-230.7 664.5,-230.7"/>
<text text-anchor="start" x="695.9053" y="-236.8" font-family="Helvetica,sans-Serif" font-size="11.00" fill="#000000">3 &gt;</text>
<polygon fill="none" stroke="#000000" stroke-width="2" points="546,-229.7 546,-339.7 715,-339.7 715,-229.7 546,-229.7"/>
</a>
</g>
</g>
<!-- completed_daily_challenges&#45;&gt;daily_challenges -->
<g id="edge4" class="edge">
<title>completed_daily_challenges:w&#45;&gt;daily_challenges:e</title>
<path fill="none" stroke="#000000" d="M750.776,-282.7C738.7815,-282.7 731.3229,-282.7 714.5,-282.7"/>
<polygon fill="#000000" stroke="#000000" points="757.5,-282.7001 765.5,-286.3 761.5,-282.7 765.5,-282.7 765.5,-282.7 765.5,-282.7 761.5,-282.7 765.5,-279.1 757.5,-282.7001 757.5,-282.7001"/>
<ellipse fill="none" stroke="#000000" cx="754.3" cy="-282.7001" rx="3.2" ry="3.2"/>
</g>
<!-- completed_daily_challenges&#45;&gt;daily_challenges -->
<g id="edge5" class="edge">
<title>completed_daily_challenges:w&#45;&gt;daily_challenges:e</title>
<path fill="none" stroke="#000000" d="M750.776,-304.7C738.7815,-304.7 731.3229,-304.7 714.5,-304.7"/>
<polygon fill="#000000" stroke="#000000" points="757.5,-304.7001 765.5,-308.3 761.5,-304.7 765.5,-304.7 765.5,-304.7 765.5,-304.7 761.5,-304.7 765.5,-301.1 757.5,-304.7001 757.5,-304.7001"/>
<ellipse fill="none" stroke="#000000" cx="754.3" cy="-304.7001" rx="3.2" ry="3.2"/>
</g>
<!-- completed_daily_challenges&#45;&gt;daily_challenges -->
<g id="edge6" class="edge">
<title>completed_daily_challenges:w&#45;&gt;daily_challenges:e</title>
<path fill="none" stroke="#000000" d="M750.776,-260.7C738.7815,-260.7 731.3229,-260.7 714.5,-260.7"/>
<polygon fill="#000000" stroke="#000000" points="757.5,-260.7001 765.5,-264.3 761.5,-260.7 765.5,-260.7 765.5,-260.7 765.5,-260.7 761.5,-260.7 765.5,-257.1 757.5,-260.7001 757.5,-260.7001"/>
<ellipse fill="none" stroke="#000000" cx="754.3" cy="-260.7001" rx="3.2" ry="3.2"/>
</g>
<!-- gymnasts -->
<g id="node7" class="node">
<title>gymnasts</title>
<g id="a_node7"><a xlink:href="../../tables/gymnasts.html" xlink:title="gymnasts" target="_top">
<polygon fill="#ffffff" stroke="transparent" points="585.5,-64.2 585.5,-125.2 675.5,-125.2 675.5,-64.2 585.5,-64.2"/>
<polygon fill="#f5f5f5" stroke="transparent" points="585.5,-101.7 585.5,-124.7 675.5,-124.7 675.5,-101.7 585.5,-101.7"/>
<polygon fill="none" stroke="#000000" points="585.5,-101.7 585.5,-124.7 675.5,-124.7 675.5,-101.7 585.5,-101.7"/>
<text text-anchor="start" x="590.4683" y="-110.8" font-family="Helvetica,sans-Serif" font-weight="bold" font-size="11.00" fill="#000000">gymnasts</text>
<text text-anchor="start" x="641.0219" y="-109.8" font-family="Helvetica,sans-Serif" font-size="11.00" fill="#000000">[table]</text>
<polygon fill="none" stroke="#000000" points="585.5,-82.7 585.5,-101.7 675.5,-101.7 675.5,-82.7 585.5,-82.7"/>
<text text-anchor="start" x="588.5" y="-88.8" font-family="Helvetica,sans-Serif" font-size="11.00" fill="#000000">...</text>
<polygon fill="#ffffff" stroke="transparent" points="585.5,-63.7 585.5,-82.7 611.5,-82.7 611.5,-63.7 585.5,-63.7"/>
<polygon fill="none" stroke="#000000" points="585.5,-63.7 585.5,-82.7 611.5,-82.7 611.5,-63.7 585.5,-63.7"/>
<text text-anchor="start" x="588.5" y="-69.8" font-family="Helvetica,sans-Serif" font-size="11.00" fill="#000000">&lt; 2</text>
<polygon fill="#ffffff" stroke="transparent" points="611.5,-63.7 611.5,-82.7 651.5,-82.7 651.5,-63.7 611.5,-63.7"/>
<polygon fill="none" stroke="#000000" points="611.5,-63.7 611.5,-82.7 651.5,-82.7 651.5,-63.7 611.5,-63.7"/>
<text text-anchor="start" x="616.1105" y="-69.8" font-family="Helvetica,sans-Serif" font-size="11.00" fill="#000000">0 rows</text>
<polygon fill="#ffffff" stroke="transparent" points="651.5,-63.7 651.5,-82.7 675.5,-82.7 675.5,-63.7 651.5,-63.7"/>
<polygon fill="none" stroke="#000000" points="651.5,-63.7 651.5,-82.7 675.5,-82.7 675.5,-63.7 651.5,-63.7"/>
<text text-anchor="start" x="656.9053" y="-69.8" font-family="Helvetica,sans-Serif" font-size="11.00" fill="#000000">4 &gt;</text>
</a>
</g>
</g>
<!-- completed_daily_challenges&#45;&gt;gymnasts -->
<g id="edge7" class="edge">
<title>completed_daily_challenges:w&#45;&gt;gymnasts:e</title>
<path fill="none" stroke="#000000" d="M750.8102,-325.2989C689.532,-311.9431 764.6621,-206.0669 724,-135.7 709.4382,-110.5005 704.6043,-91.7 675.5,-91.7"/>
<polygon fill="#000000" stroke="#000000" points="757.5361,-325.9404 765.1582,-330.2837 761.5181,-326.3202 765.5,-326.7 765.5,-326.7 765.5,-326.7 761.5181,-326.3202 765.8418,-323.1163 757.5361,-325.9404 757.5361,-325.9404"/>
<ellipse fill="none" stroke="#000000" cx="754.3506" cy="-325.6365" rx="3.2" ry="3.2"/>
</g>
<!-- daily_challenges&#45;&gt;challenges -->
<g id="edge8" class="edge">
<title>daily_challenges:w&#45;&gt;challenges:e</title>
<path fill="none" stroke="#000000" d="M533.5658,-278.4556C520.14,-268.7369 518.5965,-245.7 496.5,-245.7"/>
<polygon fill="#000000" stroke="#000000" points="539.8471,-280.3689 546.451,-286.1438 543.6736,-281.5345 547.5,-282.7 547.5,-282.7 547.5,-282.7 543.6736,-281.5345 548.549,-279.2562 539.8471,-280.3689 539.8471,-280.3689"/>
<ellipse fill="none" stroke="#000000" cx="536.786" cy="-279.4365" rx="3.2" ry="3.2"/>
</g>
<!-- daily_challenges&#45;&gt;classes -->
<g id="edge9" class="edge">
<title>daily_challenges:w&#45;&gt;classes:e</title>
<path fill="none" stroke="#000000" d="M532.7438,-305.1327C471.9618,-308.6674 440.2638,-331.6445 389,-290.7 343.0388,-253.9907 407.3218,-164.7 348.5,-164.7"/>
<polygon fill="#000000" stroke="#000000" points="539.5034,-304.9345 547.6055,-308.2985 543.5017,-304.8173 547.5,-304.7 547.5,-304.7 547.5,-304.7 543.5017,-304.8173 547.3945,-301.1015 539.5034,-304.9345 539.5034,-304.9345"/>
<ellipse fill="none" stroke="#000000" cx="536.3048" cy="-305.0284" rx="3.2" ry="3.2"/>
</g>
<!-- gymnasts_has_classes -->
<g id="node8" class="node">
<title>gymnasts_has_classes</title>
<g id="a_node8"><a xlink:href="../../tables/gymnasts_has_classes.html" xlink:title="gymnasts_has_classes" target="_top">
<polygon fill="#ffffff" stroke="transparent" points="788.5,-38.2 788.5,-99.2 944.5,-99.2 944.5,-38.2 788.5,-38.2"/>
<polygon fill="#f5f5f5" stroke="transparent" points="788.5,-75.7 788.5,-98.7 944.5,-98.7 944.5,-75.7 788.5,-75.7"/>
<polygon fill="none" stroke="#000000" points="788.5,-75.7 788.5,-98.7 944.5,-98.7 944.5,-75.7 788.5,-75.7"/>
<text text-anchor="start" x="793.1531" y="-84.8" font-family="Helvetica,sans-Serif" font-weight="bold" font-size="11.00" fill="#000000">gymnasts_has_classes</text>
<text text-anchor="start" x="910.0219" y="-83.8" font-family="Helvetica,sans-Serif" font-size="11.00" fill="#000000">[table]</text>
<polygon fill="none" stroke="#000000" points="788.5,-56.7 788.5,-75.7 944.5,-75.7 944.5,-56.7 788.5,-56.7"/>
<text text-anchor="start" x="791.5" y="-62.8" font-family="Helvetica,sans-Serif" font-size="11.00" fill="#000000">...</text>
<polygon fill="#ffffff" stroke="transparent" points="788.5,-37.7 788.5,-56.7 851.5,-56.7 851.5,-37.7 788.5,-37.7"/>
<polygon fill="none" stroke="#000000" points="788.5,-37.7 788.5,-56.7 851.5,-56.7 851.5,-37.7 788.5,-37.7"/>
<text text-anchor="start" x="791.5" y="-43.8" font-family="Helvetica,sans-Serif" font-size="11.00" fill="#000000">&lt; 2</text>
<polygon fill="#ffffff" stroke="transparent" points="851.5,-37.7 851.5,-56.7 910.5,-56.7 910.5,-37.7 851.5,-37.7"/>
<polygon fill="none" stroke="#000000" points="851.5,-37.7 851.5,-56.7 910.5,-56.7 910.5,-37.7 851.5,-37.7"/>
<text text-anchor="start" x="875.1105" y="-43.8" font-family="Helvetica,sans-Serif" font-size="11.00" fill="#000000">0 rows</text>
<polygon fill="#ffffff" stroke="transparent" points="910.5,-37.7 910.5,-56.7 944.5,-56.7 944.5,-37.7 910.5,-37.7"/>
<polygon fill="none" stroke="#000000" points="910.5,-37.7 910.5,-56.7 944.5,-56.7 944.5,-37.7 910.5,-37.7"/>
<text text-anchor="start" x="935.3862" y="-43.8" font-family="Helvetica,sans-Serif" font-size="11.00" fill="#000000"> &#160;</text>
</a>
</g>
</g>
<!-- gymnasts_has_classes&#45;&gt;classes -->
<g id="edge10" class="edge">
<title>gymnasts_has_classes:w&#45;&gt;classes:e</title>
<path fill="none" stroke="#000000" d="M773.9487,-64.7874C756.0947,-62.3748 747.4778,-55.8654 724,-53.7 641.2402,-46.0669 617.7316,-33.9551 537,-53.7 464.9752,-71.3154 450.6514,-89.5056 389,-130.7 369.4588,-143.7571 372.002,-164.7 348.5,-164.7"/>
<polygon fill="#000000" stroke="#000000" points="780.5157,-65.1992 788.2746,-69.2929 784.5078,-65.4496 788.5,-65.7 788.5,-65.7 788.5,-65.7 784.5078,-65.4496 788.7254,-62.1071 780.5157,-65.1992 780.5157,-65.1992"/>
<ellipse fill="none" stroke="#000000" cx="777.322" cy="-64.9989" rx="3.2" ry="3.2"/>
</g>
<!-- gymnasts_has_classes&#45;&gt;gymnasts -->
<g id="edge11" class="edge">
<title>gymnasts_has_classes:w&#45;&gt;gymnasts:e</title>
<path fill="none" stroke="#000000" d="M773.9983,-66.4501C734.5191,-70.7131 721.8005,-91.7 675.5,-91.7"/>
<polygon fill="#000000" stroke="#000000" points="780.5107,-66.1133 788.686,-69.2952 784.5053,-65.9066 788.5,-65.7 788.5,-65.7 788.5,-65.7 784.5053,-65.9066 788.314,-62.1048 780.5107,-66.1133 780.5107,-66.1133"/>
<ellipse fill="none" stroke="#000000" cx="777.315" cy="-66.2786" rx="3.2" ry="3.2"/>
</g>
<!-- normal_challenges -->
<g id="node9" class="node">
<title>normal_challenges</title>
<g id="a_node9"><a xlink:href="../../tables/normal_challenges.html" xlink:title="normal_challenges" target="_top">
<polygon fill="#ffffff" stroke="transparent" points="563,-146.2 563,-207.2 698,-207.2 698,-146.2 563,-146.2"/>
<polygon fill="#f5f5f5" stroke="transparent" points="563.5,-183.7 563.5,-206.7 698.5,-206.7 698.5,-183.7 563.5,-183.7"/>
<polygon fill="none" stroke="#000000" points="563.5,-183.7 563.5,-206.7 698.5,-206.7 698.5,-183.7 563.5,-183.7"/>
<text text-anchor="start" x="568.3523" y="-192.8" font-family="Helvetica,sans-Serif" font-weight="bold" font-size="11.00" fill="#000000">normal_challenges</text>
<text text-anchor="start" x="664.0219" y="-191.8" font-family="Helvetica,sans-Serif" font-size="11.00" fill="#000000">[table]</text>
<polygon fill="none" stroke="#000000" points="563.5,-164.7 563.5,-183.7 698.5,-183.7 698.5,-164.7 563.5,-164.7"/>
<text text-anchor="start" x="566.5" y="-170.8" font-family="Helvetica,sans-Serif" font-size="11.00" fill="#000000">...</text>
<polygon fill="#ffffff" stroke="transparent" points="563.5,-145.7 563.5,-164.7 611.5,-164.7 611.5,-145.7 563.5,-145.7"/>
<polygon fill="none" stroke="#000000" points="563.5,-145.7 563.5,-164.7 611.5,-164.7 611.5,-145.7 563.5,-145.7"/>
<text text-anchor="start" x="566.5" y="-151.8" font-family="Helvetica,sans-Serif" font-size="11.00" fill="#000000">&lt; 2</text>
<polygon fill="#ffffff" stroke="transparent" points="611.5,-145.7 611.5,-164.7 663.5,-164.7 663.5,-145.7 611.5,-145.7"/>
<polygon fill="none" stroke="#000000" points="611.5,-145.7 611.5,-164.7 663.5,-164.7 663.5,-145.7 611.5,-145.7"/>
<text text-anchor="start" x="628.1105" y="-151.8" font-family="Helvetica,sans-Serif" font-size="11.00" fill="#000000">0 rows</text>
<polygon fill="#ffffff" stroke="transparent" points="663.5,-145.7 663.5,-164.7 698.5,-164.7 698.5,-145.7 663.5,-145.7"/>
<polygon fill="none" stroke="#000000" points="663.5,-145.7 663.5,-164.7 698.5,-164.7 698.5,-145.7 663.5,-145.7"/>
<text text-anchor="start" x="679.9053" y="-151.8" font-family="Helvetica,sans-Serif" font-size="11.00" fill="#000000">2 &gt;</text>
</a>
</g>
</g>
<!-- normal_challenges&#45;&gt;challenges -->
<g id="edge12" class="edge">
<title>normal_challenges:w&#45;&gt;challenges:e</title>
<path fill="none" stroke="#000000" d="M549.177,-177.1727C524.082,-191.555 534.4063,-245.7 496.5,-245.7"/>
<polygon fill="#000000" stroke="#000000" points="555.7253,-175.5851 564.3483,-177.1986 559.6126,-174.6425 563.5,-173.7 563.5,-173.7 563.5,-173.7 559.6126,-174.6425 562.6517,-170.2014 555.7253,-175.5851 555.7253,-175.5851"/>
<ellipse fill="none" stroke="#000000" cx="552.6154" cy="-176.3391" rx="3.2" ry="3.2"/>
</g>
<!-- normal_challenges&#45;&gt;classes -->
<g id="edge13" class="edge">
<title>normal_challenges:w&#45;&gt;classes:e</title>
<path fill="none" stroke="#000000" d="M548.9312,-171.2674C532.3234,-165.0026 527.3059,-148.4072 504,-142.7 454.3557,-130.543 438.5372,-130.114 389,-142.7 369.1465,-147.7442 368.9843,-164.7 348.5,-164.7"/>
<polygon fill="#000000" stroke="#000000" points="555.6092,-172.3824 562.9071,-177.2508 559.5546,-173.0412 563.5,-173.7 563.5,-173.7 563.5,-173.7 559.5546,-173.0412 564.0929,-170.1492 555.6092,-172.3824 555.6092,-172.3824"/>
<ellipse fill="none" stroke="#000000" cx="552.4529" cy="-171.8554" rx="3.2" ry="3.2"/>
</g>
</g>
</svg>
