<?xml version="1.0" encoding="UTF-8" standalone="no"?>
<!DOCTYPE svg PUBLIC "-//W3C//DTD SVG 1.1//EN"
 "http://www.w3.org/Graphics/SVG/1.1/DTD/svg11.dtd">
<!-- Generated by graphviz version 2.40.1 (20161225.0304)
 -->
<!-- Title: twoDegreesRelationshipsDiagram Pages: 1 -->
<svg width="721pt" height="376pt"
 viewBox="0.00 0.00 721.00 375.74" xmlns="http://www.w3.org/2000/svg" xmlns:xlink="http://www.w3.org/1999/xlink">
<g id="graph0" class="graph" transform="scale(1 1) rotate(0) translate(4 371.7425)">
<title>twoDegreesRelationshipsDiagram</title>
<polygon fill="#ffffff" stroke="transparent" points="-4,4 -4,-371.7425 717,-371.7425 717,4 -4,4"/>
<text text-anchor="middle" x="72.4936" y="-7.3" font-family="Helvetica,sans-Serif" font-size="11.00" fill="#000000">Generated by SchemaSpy</text>
<!-- classes -->
<g id="node1" class="node">
<title>classes</title>
<g id="a_node1"><a xlink:href="../../tables/classes.html" xlink:title="classes" target="_top">
<polygon fill="#ffffff" stroke="transparent" points="148,-105.7425 148,-210.7425 233,-210.7425 233,-105.7425 148,-105.7425"/>
<polygon fill="#f5f5f5" stroke="transparent" points="148.5,-187.2425 148.5,-210.2425 233.5,-210.2425 233.5,-187.2425 148.5,-187.2425"/>
<polygon fill="none" stroke="#000000" points="148.5,-187.2425 148.5,-210.2425 233.5,-210.2425 233.5,-187.2425 148.5,-187.2425"/>
<text text-anchor="start" x="153.5" y="-196.3425" font-family="Helvetica,sans-Serif" font-weight="bold" font-size="11.00" fill="#000000">classes</text>
<text text-anchor="start" x="198.5437" y="-195.3425" font-family="Helvetica,sans-Serif" font-size="11.00" fill="#000000">[table]</text>
<polygon fill="none" stroke="#000000" points="148.5,-165.2425 148.5,-187.2425 233.5,-187.2425 233.5,-165.2425 148.5,-165.2425"/>
<image xlink:href="../../images/primaryKeys.png" width="11px" height="12px" preserveAspectRatio="xMinYMin meet" x="153.5" y="-182.242"/>
<text text-anchor="start" x="168.5" y="-172.3425" font-family="Helvetica,sans-Serif" font-size="11.00" fill="#000000">id</text>
<polygon fill="#ffffff" stroke="transparent" points="148.5,-143.2425 148.5,-165.2425 233.5,-165.2425 233.5,-143.2425 148.5,-143.2425"/>
<polygon fill="none" stroke="#000000" points="148.5,-143.2425 148.5,-165.2425 233.5,-165.2425 233.5,-143.2425 148.5,-143.2425"/>
<image xlink:href="../../images/foreignKeys.png" width="11px" height="12px" preserveAspectRatio="xMinYMin meet" x="153.5" y="-160.242"/>
<text text-anchor="start" x="168.5" y="-150.3425" font-family="Helvetica,sans-Serif" font-size="11.00" fill="#000000">skill_list_id</text>
<polygon fill="none" stroke="#000000" points="148.5,-124.2425 148.5,-143.2425 233.5,-143.2425 233.5,-124.2425 148.5,-124.2425"/>
<text text-anchor="start" x="151.5" y="-130.3425" font-family="Helvetica,sans-Serif" font-size="11.00" fill="#000000">...</text>
<polygon fill="#ffffff" stroke="transparent" points="148.5,-105.2425 148.5,-124.2425 171.5,-124.2425 171.5,-105.2425 148.5,-105.2425"/>
<polygon fill="none" stroke="#000000" points="148.5,-105.2425 148.5,-124.2425 171.5,-124.2425 171.5,-105.2425 148.5,-105.2425"/>
<text text-anchor="start" x="151.5" y="-111.3425" font-family="Helvetica,sans-Serif" font-size="11.00" fill="#000000">&lt; 1</text>
<polygon fill="#ffffff" stroke="transparent" points="171.5,-105.2425 171.5,-124.2425 210.5,-124.2425 210.5,-105.2425 171.5,-105.2425"/>
<polygon fill="none" stroke="#000000" points="171.5,-105.2425 171.5,-124.2425 210.5,-124.2425 210.5,-105.2425 171.5,-105.2425"/>
<text text-anchor="start" x="175.1105" y="-111.3425" font-family="Helvetica,sans-Serif" font-size="11.00" fill="#000000">0 rows</text>
<polygon fill="#ffffff" stroke="transparent" points="210.5,-105.2425 210.5,-124.2425 233.5,-124.2425 233.5,-105.2425 210.5,-105.2425"/>
<polygon fill="none" stroke="#000000" points="210.5,-105.2425 210.5,-124.2425 233.5,-124.2425 233.5,-105.2425 210.5,-105.2425"/>
<text text-anchor="start" x="214.9053" y="-111.3425" font-family="Helvetica,sans-Serif" font-size="11.00" fill="#000000">3 &gt;</text>
</a>
</g>
</g>
<!-- skill_lists -->
<g id="node2" class="node">
<title>skill_lists</title>
<g id="a_node2"><a xlink:href="../../tables/skill_lists.html" xlink:title="skill_lists" target="_top">
<polygon fill="#ffffff" stroke="transparent" points="8,-126.7425 8,-187.7425 94,-187.7425 94,-126.7425 8,-126.7425"/>
<polygon fill="#f5f5f5" stroke="transparent" points="8,-164.2425 8,-187.2425 94,-187.2425 94,-164.2425 8,-164.2425"/>
<polygon fill="none" stroke="#000000" points="8,-164.2425 8,-187.2425 94,-187.2425 94,-164.2425 8,-164.2425"/>
<text text-anchor="start" x="12.8119" y="-173.3425" font-family="Helvetica,sans-Serif" font-weight="bold" font-size="11.00" fill="#000000">skill_lists</text>
<text text-anchor="start" x="59.5219" y="-172.3425" font-family="Helvetica,sans-Serif" font-size="11.00" fill="#000000">[table]</text>
<polygon fill="none" stroke="#000000" points="8,-145.2425 8,-164.2425 94,-164.2425 94,-145.2425 8,-145.2425"/>
<text text-anchor="start" x="11" y="-151.3425" font-family="Helvetica,sans-Serif" font-size="11.00" fill="#000000">...</text>
<polygon fill="#ffffff" stroke="transparent" points="8,-126.2425 8,-145.2425 32,-145.2425 32,-126.2425 8,-126.2425"/>
<polygon fill="none" stroke="#000000" points="8,-126.2425 8,-145.2425 32,-145.2425 32,-126.2425 8,-126.2425"/>
<text text-anchor="start" x="11" y="-132.3425" font-family="Helvetica,sans-Serif" font-size="11.00" fill="#000000">&lt; 1</text>
<polygon fill="#ffffff" stroke="transparent" points="32,-126.2425 32,-145.2425 71,-145.2425 71,-126.2425 32,-126.2425"/>
<polygon fill="none" stroke="#000000" points="32,-126.2425 32,-145.2425 71,-145.2425 71,-126.2425 32,-126.2425"/>
<text text-anchor="start" x="35.6105" y="-132.3425" font-family="Helvetica,sans-Serif" font-size="11.00" fill="#000000">0 rows</text>
<polygon fill="#ffffff" stroke="transparent" points="71,-126.2425 71,-145.2425 94,-145.2425 94,-126.2425 71,-126.2425"/>
<polygon fill="none" stroke="#000000" points="71,-126.2425 71,-145.2425 94,-145.2425 94,-126.2425 71,-126.2425"/>
<text text-anchor="start" x="75.4053" y="-132.3425" font-family="Helvetica,sans-Serif" font-size="11.00" fill="#000000">2 &gt;</text>
</a>
</g>
</g>
<!-- classes&#45;&gt;skill_lists -->
<g id="edge1" class="edge">
<title>classes:w&#45;&gt;skill_lists:e</title>
<path fill="none" stroke="#000000" d="M133.9947,-154.2425C120.4413,-154.2425 112.5451,-154.2425 94,-154.2425"/>
<polygon fill="#000000" stroke="#000000" points="140.5,-154.2426 148.5,-157.8425 144.5,-154.2425 148.5,-154.2425 148.5,-154.2425 148.5,-154.2425 144.5,-154.2425 148.5,-150.6425 140.5,-154.2426 140.5,-154.2426"/>
<ellipse fill="none" stroke="#000000" cx="137.3" cy="-154.2426" rx="3.2" ry="3.2"/>
</g>
<!-- completed_daily_challenges -->
<g id="node3" class="node">
<title>completed_daily_challenges</title>
<g id="a_node3"><a xlink:href="../../tables/completed_daily_challenges.html" xlink:title="completed_daily_challenges" target="_top">
<polygon fill="#ffffff" stroke="transparent" points="502,-214.7425 502,-363.7425 705,-363.7425 705,-214.7425 502,-214.7425"/>
<polygon fill="#f5f5f5" stroke="transparent" points="502.5,-340.2425 502.5,-363.2425 705.5,-363.2425 705.5,-340.2425 502.5,-340.2425"/>
<polygon fill="none" stroke="#000000" points="502.5,-340.2425 502.5,-363.2425 705.5,-363.2425 705.5,-340.2425 502.5,-340.2425"/>
<text text-anchor="start" x="507.5" y="-349.3425" font-family="Helvetica,sans-Serif" font-weight="bold" font-size="11.00" fill="#000000">completed_daily_challenges</text>
<text text-anchor="start" x="670.5437" y="-348.3425" font-family="Helvetica,sans-Serif" font-size="11.00" fill="#000000">[table]</text>
<polygon fill="none" stroke="#000000" points="502.5,-318.2425 502.5,-340.2425 705.5,-340.2425 705.5,-318.2425 502.5,-318.2425"/>
<image xlink:href="../../images/primaryKeys.png" width="11px" height="12px" preserveAspectRatio="xMinYMin meet" x="507.5" y="-335.242"/>
<text text-anchor="start" x="522.5" y="-325.3425" font-family="Helvetica,sans-Serif" font-size="11.00" fill="#000000">gymnasts_id</text>
<polygon fill="none" stroke="#000000" points="502.5,-296.2425 502.5,-318.2425 705.5,-318.2425 705.5,-296.2425 502.5,-296.2425"/>
<image xlink:href="../../images/primaryKeys.png" width="11px" height="12px" preserveAspectRatio="xMinYMin meet" x="507.5" y="-313.242"/>
<text text-anchor="start" x="522.5" y="-303.3425" font-family="Helvetica,sans-Serif" font-size="11.00" fill="#000000">daily_challenges_classes_id</text>
<polygon fill="none" stroke="#000000" points="502.5,-274.2425 502.5,-296.2425 705.5,-296.2425 705.5,-274.2425 502.5,-274.2425"/>
<image xlink:href="../../images/primaryKeys.png" width="11px" height="12px" preserveAspectRatio="xMinYMin meet" x="507.5" y="-291.242"/>
<text text-anchor="start" x="522.5" y="-281.3425" font-family="Helvetica,sans-Serif" font-size="11.00" fill="#000000">daily_challenges_challenges_id</text>
<polygon fill="none" stroke="#000000" points="502.5,-252.2425 502.5,-274.2425 705.5,-274.2425 705.5,-252.2425 502.5,-252.2425"/>
<image xlink:href="../../images/primaryKeys.png" width="11px" height="12px" preserveAspectRatio="xMinYMin meet" x="507.5" y="-269.242"/>
<text text-anchor="start" x="522.5" y="-259.3425" font-family="Helvetica,sans-Serif" font-size="11.00" fill="#000000">daily_challenges_date</text>
<polygon fill="none" stroke="#000000" points="502.5,-233.2425 502.5,-252.2425 705.5,-252.2425 705.5,-233.2425 502.5,-233.2425"/>
<text text-anchor="start" x="505.5" y="-239.3425" font-family="Helvetica,sans-Serif" font-size="11.00" fill="#000000">...</text>
<polygon fill="#ffffff" stroke="transparent" points="502.5,-214.2425 502.5,-233.2425 589.5,-233.2425 589.5,-214.2425 502.5,-214.2425"/>
<polygon fill="none" stroke="#000000" points="502.5,-214.2425 502.5,-233.2425 589.5,-233.2425 589.5,-214.2425 502.5,-214.2425"/>
<text text-anchor="start" x="505.5" y="-220.3425" font-family="Helvetica,sans-Serif" font-size="11.00" fill="#000000">&lt; 4</text>
<polygon fill="#ffffff" stroke="transparent" points="589.5,-214.2425 589.5,-233.2425 660.5,-233.2425 660.5,-214.2425 589.5,-214.2425"/>
<polygon fill="none" stroke="#000000" points="589.5,-214.2425 589.5,-233.2425 660.5,-233.2425 660.5,-214.2425 589.5,-214.2425"/>
<text text-anchor="start" x="625.1105" y="-220.3425" font-family="Helvetica,sans-Serif" font-size="11.00" fill="#000000">0 rows</text>
<polygon fill="#ffffff" stroke="transparent" points="660.5,-214.2425 660.5,-233.2425 705.5,-233.2425 705.5,-214.2425 660.5,-214.2425"/>
<polygon fill="none" stroke="#000000" points="660.5,-214.2425 660.5,-233.2425 705.5,-233.2425 705.5,-214.2425 660.5,-214.2425"/>
<text text-anchor="start" x="696.3862" y="-220.3425" font-family="Helvetica,sans-Serif" font-size="11.00" fill="#000000"> &#160;</text>
</a>
</g>
</g>
<!-- daily_challenges -->
<g id="node4" class="node">
<title>daily_challenges</title>
<g id="a_node4"><a xlink:href="../../tables/daily_challenges.html" xlink:title="daily_challenges" target="_top">
<polygon fill="#ffffff" stroke="transparent" points="287,-231.2425 287,-343.2425 453,-343.2425 453,-231.2425 287,-231.2425"/>
<polygon fill="#f5f5f5" stroke="transparent" points="289,-318.2425 289,-341.2425 451,-341.2425 451,-318.2425 289,-318.2425"/>
<polygon fill="none" stroke="#000000" points="289,-318.2425 289,-341.2425 451,-341.2425 451,-318.2425 289,-318.2425"/>
<text text-anchor="start" x="294" y="-327.3425" font-family="Helvetica,sans-Serif" font-weight="bold" font-size="11.00" fill="#000000">daily_challenges</text>
<text text-anchor="start" x="416.0437" y="-326.3425" font-family="Helvetica,sans-Serif" font-size="11.00" fill="#000000">[table]</text>
<polygon fill="none" stroke="#000000" points="289,-296.2425 289,-318.2425 406,-318.2425 406,-296.2425 289,-296.2425"/>
<image xlink:href="../../images/primaryKeys.png" width="11px" height="12px" preserveAspectRatio="xMinYMin meet" x="294" y="-313.242"/>
<text text-anchor="start" x="309" y="-303.3425" font-family="Helvetica,sans-Serif" font-size="11.00" fill="#000000">classes_id</text>
<polygon fill="none" stroke="#000000" points="406,-296.2425 406,-318.2425 451,-318.2425 451,-296.2425 406,-296.2425"/>
<text text-anchor="start" x="409" y="-303.9425" font-family="Helvetica,sans-Serif" font-size="11.00" fill="#000000">int[10]</text>
<polygon fill="none" stroke="#000000" points="289,-274.2425 289,-296.2425 406,-296.2425 406,-274.2425 289,-274.2425"/>
<image xlink:href="../../images/primaryKeys.png" width="11px" height="12px" preserveAspectRatio="xMinYMin meet" x="294" y="-291.242"/>
<text text-anchor="start" x="309" y="-281.3425" font-family="Helvetica,sans-Serif" font-size="11.00" fill="#000000">challenges_id</text>
<polygon fill="none" stroke="#000000" points="406,-274.2425 406,-296.2425 451,-296.2425 451,-274.2425 406,-274.2425"/>
<text text-anchor="start" x="409" y="-281.9425" font-family="Helvetica,sans-Serif" font-size="11.00" fill="#000000">int[10]</text>
<polygon fill="none" stroke="#000000" points="289,-252.2425 289,-274.2425 406,-274.2425 406,-252.2425 289,-252.2425"/>
<image xlink:href="../../images/primaryKeys.png" width="11px" height="12px" preserveAspectRatio="xMinYMin meet" x="294" y="-269.242"/>
<text text-anchor="start" x="309" y="-259.3425" font-family="Helvetica,sans-Serif" font-size="11.00" fill="#000000">date</text>
<polygon fill="none" stroke="#000000" points="406,-252.2425 406,-274.2425 451,-274.2425 451,-252.2425 406,-252.2425"/>
<text text-anchor="start" x="408.6274" y="-259.9425" font-family="Helvetica,sans-Serif" font-size="11.00" fill="#000000">date[10]</text>
<polygon fill="#ffffff" stroke="transparent" points="289,-233.2425 289,-252.2425 339,-252.2425 339,-233.2425 289,-233.2425"/>
<polygon fill="none" stroke="#000000" points="289,-233.2425 289,-252.2425 339,-252.2425 339,-233.2425 289,-233.2425"/>
<text text-anchor="start" x="292" y="-239.3425" font-family="Helvetica,sans-Serif" font-size="11.00" fill="#000000">&lt; 2</text>
<polygon fill="#ffffff" stroke="transparent" points="339,-233.2425 339,-252.2425 406,-252.2425 406,-233.2425 339,-233.2425"/>
<polygon fill="none" stroke="#000000" points="339,-233.2425 339,-252.2425 406,-252.2425 406,-233.2425 339,-233.2425"/>
<text text-anchor="start" x="370.6105" y="-239.3425" font-family="Helvetica,sans-Serif" font-size="11.00" fill="#000000">0 rows</text>
<polygon fill="#ffffff" stroke="transparent" points="406,-233.2425 406,-252.2425 451,-252.2425 451,-233.2425 406,-233.2425"/>
<polygon fill="none" stroke="#000000" points="406,-233.2425 406,-252.2425 451,-252.2425 451,-233.2425 406,-233.2425"/>
<text text-anchor="start" x="432.4053" y="-239.3425" font-family="Helvetica,sans-Serif" font-size="11.00" fill="#000000">3 &gt;</text>
<polygon fill="none" stroke="#000000" stroke-width="2" points="288,-232.2425 288,-342.2425 452,-342.2425 452,-232.2425 288,-232.2425"/>
</a>
</g>
</g>
<!-- completed_daily_challenges&#45;&gt;daily_challenges -->
<g id="edge2" class="edge">
<title>completed_daily_challenges:w&#45;&gt;daily_challenges:e</title>
<path fill="none" stroke="#000000" d="M488.0156,-285.2425C475.6771,-285.2425 468.1667,-285.2425 451,-285.2425"/>
<polygon fill="#000000" stroke="#000000" points="494.5,-285.2426 502.5,-288.8425 498.5,-285.2425 502.5,-285.2425 502.5,-285.2425 502.5,-285.2425 498.5,-285.2425 502.5,-281.6425 494.5,-285.2426 494.5,-285.2426"/>
<ellipse fill="none" stroke="#000000" cx="491.3" cy="-285.2426" rx="3.2" ry="3.2"/>
</g>
<!-- completed_daily_challenges&#45;&gt;daily_challenges -->
<g id="edge3" class="edge">
<title>completed_daily_challenges:w&#45;&gt;daily_challenges:e</title>
<path fill="none" stroke="#000000" d="M488.0156,-307.2425C475.6771,-307.2425 468.1667,-307.2425 451,-307.2425"/>
<polygon fill="#000000" stroke="#000000" points="494.5,-307.2426 502.5,-310.8425 498.5,-307.2425 502.5,-307.2425 502.5,-307.2425 502.5,-307.2425 498.5,-307.2425 502.5,-303.6425 494.5,-307.2426 494.5,-307.2426"/>
<ellipse fill="none" stroke="#000000" cx="491.3" cy="-307.2426" rx="3.2" ry="3.2"/>
</g>
<!-- completed_daily_challenges&#45;&gt;daily_challenges -->
<g id="edge4" class="edge">
<title>completed_daily_challenges:w&#45;&gt;daily_challenges:e</title>
<path fill="none" stroke="#000000" d="M488.0156,-263.2425C475.6771,-263.2425 468.1667,-263.2425 451,-263.2425"/>
<polygon fill="#000000" stroke="#000000" points="494.5,-263.2426 502.5,-266.8425 498.5,-263.2425 502.5,-263.2425 502.5,-263.2425 502.5,-263.2425 498.5,-263.2425 502.5,-259.6425 494.5,-263.2426 494.5,-263.2426"/>
<ellipse fill="none" stroke="#000000" cx="491.3" cy="-263.2426" rx="3.2" ry="3.2"/>
</g>
<!-- gymnasts -->
<g id="node5" class="node">
<title>gymnasts</title>
<g id="a_node5"><a xlink:href="../../tables/gymnasts.html" xlink:title="gymnasts" target="_top">
<polygon fill="#ffffff" stroke="transparent" points="325,-66.7425 325,-127.7425 415,-127.7425 415,-66.7425 325,-66.7425"/>
<polygon fill="#f5f5f5" stroke="transparent" points="325,-104.2425 325,-127.2425 415,-127.2425 415,-104.2425 325,-104.2425"/>
<polygon fill="none" stroke="#000000" points="325,-104.2425 325,-127.2425 415,-127.2425 415,-104.2425 325,-104.2425"/>
<text text-anchor="start" x="329.9683" y="-113.3425" font-family="Helvetica,sans-Serif" font-weight="bold" font-size="11.00" fill="#000000">gymnasts</text>
<text text-anchor="start" x="380.5219" y="-112.3425" font-family="Helvetica,sans-Serif" font-size="11.00" fill="#000000">[table]</text>
<polygon fill="none" stroke="#000000" points="325,-85.2425 325,-104.2425 415,-104.2425 415,-85.2425 325,-85.2425"/>
<text text-anchor="start" x="328" y="-91.3425" font-family="Helvetica,sans-Serif" font-size="11.00" fill="#000000">...</text>
<polygon fill="#ffffff" stroke="transparent" points="325,-66.2425 325,-85.2425 351,-85.2425 351,-66.2425 325,-66.2425"/>
<polygon fill="none" stroke="#000000" points="325,-66.2425 325,-85.2425 351,-85.2425 351,-66.2425 325,-66.2425"/>
<text text-anchor="start" x="328" y="-72.3425" font-family="Helvetica,sans-Serif" font-size="11.00" fill="#000000">&lt; 2</text>
<polygon fill="#ffffff" stroke="transparent" points="351,-66.2425 351,-85.2425 391,-85.2425 391,-66.2425 351,-66.2425"/>
<polygon fill="none" stroke="#000000" points="351,-66.2425 351,-85.2425 391,-85.2425 391,-66.2425 351,-66.2425"/>
<text text-anchor="start" x="355.6105" y="-72.3425" font-family="Helvetica,sans-Serif" font-size="11.00" fill="#000000">0 rows</text>
<polygon fill="#ffffff" stroke="transparent" points="391,-66.2425 391,-85.2425 415,-85.2425 415,-66.2425 391,-66.2425"/>
<polygon fill="none" stroke="#000000" points="391,-66.2425 391,-85.2425 415,-85.2425 415,-66.2425 391,-66.2425"/>
<text text-anchor="start" x="396.4053" y="-72.3425" font-family="Helvetica,sans-Serif" font-size="11.00" fill="#000000">4 &gt;</text>
</a>
</g>
</g>
<!-- completed_daily_challenges&#45;&gt;gymnasts -->
<g id="edge5" class="edge">
<title>completed_daily_challenges:w&#45;&gt;gymnasts:e</title>
<path fill="none" stroke="#000000" d="M487.7986,-327.848C426.4118,-314.554 500.7301,-209.1398 461,-138.2425 447.1695,-113.5623 443.2913,-94.2425 415,-94.2425"/>
<polygon fill="#000000" stroke="#000000" points="494.5357,-328.487 502.16,-332.8264 498.5179,-328.8647 502.5,-329.2425 502.5,-329.2425 502.5,-329.2425 498.5179,-328.8647 502.84,-325.6586 494.5357,-328.487 494.5357,-328.487"/>
<ellipse fill="none" stroke="#000000" cx="491.35" cy="-328.1848" rx="3.2" ry="3.2"/>
</g>
<!-- daily_challenges&#45;&gt;classes -->
<g id="edge7" class="edge">
<title>daily_challenges:w&#45;&gt;classes:e</title>
<path fill="none" stroke="#000000" d="M274.5332,-304.0043C237.8944,-283.8314 290.8039,-176.2425 233.5,-176.2425"/>
<polygon fill="#000000" stroke="#000000" points="281.1932,-305.495 288.2136,-310.7556 285.0966,-306.3687 289,-307.2425 289,-307.2425 289,-307.2425 285.0966,-306.3687 289.7864,-303.7294 281.1932,-305.495 281.1932,-305.495"/>
<ellipse fill="none" stroke="#000000" cx="278.0705" cy="-304.796" rx="3.2" ry="3.2"/>
</g>
<!-- challenges -->
<g id="node6" class="node">
<title>challenges</title>
<g id="a_node6"><a xlink:href="../../tables/challenges.html" xlink:title="challenges" target="_top">
<polygon fill="#ffffff" stroke="transparent" points="143,-233.7425 143,-316.7425 238,-316.7425 238,-233.7425 143,-233.7425"/>
<polygon fill="#f5f5f5" stroke="transparent" points="143.5,-293.2425 143.5,-316.2425 238.5,-316.2425 238.5,-293.2425 143.5,-293.2425"/>
<polygon fill="none" stroke="#000000" points="143.5,-293.2425 143.5,-316.2425 238.5,-316.2425 238.5,-293.2425 143.5,-293.2425"/>
<text text-anchor="start" x="148.2144" y="-302.3425" font-family="Helvetica,sans-Serif" font-weight="bold" font-size="11.00" fill="#000000">challenges</text>
<text text-anchor="start" x="204.0219" y="-301.3425" font-family="Helvetica,sans-Serif" font-size="11.00" fill="#000000">[table]</text>
<polygon fill="none" stroke="#000000" points="143.5,-271.2425 143.5,-293.2425 238.5,-293.2425 238.5,-271.2425 143.5,-271.2425"/>
<image xlink:href="../../images/primaryKeys.png" width="11px" height="12px" preserveAspectRatio="xMinYMin meet" x="148.5" y="-288.242"/>
<text text-anchor="start" x="168.5" y="-278.3425" font-family="Helvetica,sans-Serif" font-size="11.00" fill="#000000">id</text>
<polygon fill="none" stroke="#000000" points="143.5,-252.2425 143.5,-271.2425 238.5,-271.2425 238.5,-252.2425 143.5,-252.2425"/>
<text text-anchor="start" x="146.5" y="-258.3425" font-family="Helvetica,sans-Serif" font-size="11.00" fill="#000000">...</text>
<polygon fill="#ffffff" stroke="transparent" points="143.5,-233.2425 143.5,-252.2425 167.5,-252.2425 167.5,-233.2425 143.5,-233.2425"/>
<polygon fill="none" stroke="#000000" points="143.5,-233.2425 143.5,-252.2425 167.5,-252.2425 167.5,-233.2425 143.5,-233.2425"/>
<text text-anchor="start" x="146.5" y="-239.3425" font-family="Helvetica,sans-Serif" font-size="11.00" fill="#000000"> &#160;</text>
<polygon fill="#ffffff" stroke="transparent" points="167.5,-233.2425 167.5,-252.2425 211.5,-252.2425 211.5,-233.2425 167.5,-233.2425"/>
<polygon fill="none" stroke="#000000" points="167.5,-233.2425 167.5,-252.2425 211.5,-252.2425 211.5,-233.2425 167.5,-233.2425"/>
<text text-anchor="start" x="176.1105" y="-239.3425" font-family="Helvetica,sans-Serif" font-size="11.00" fill="#000000">0 rows</text>
<polygon fill="#ffffff" stroke="transparent" points="211.5,-233.2425 211.5,-252.2425 238.5,-252.2425 238.5,-233.2425 211.5,-233.2425"/>
<polygon fill="none" stroke="#000000" points="211.5,-233.2425 211.5,-252.2425 238.5,-252.2425 238.5,-233.2425 211.5,-233.2425"/>
<text text-anchor="start" x="219.9053" y="-239.3425" font-family="Helvetica,sans-Serif" font-size="11.00" fill="#000000">2 &gt;</text>
</a>
</g>
</g>
<!-- daily_challenges&#45;&gt;challenges -->
<g id="edge6" class="edge">
<title>daily_challenges:w&#45;&gt;challenges:e</title>
<path fill="none" stroke="#000000" d="M274.4093,-284.7471C262.5368,-283.895 255.1874,-282.2425 238.5,-282.2425"/>
<polygon fill="#000000" stroke="#000000" points="281.0046,-284.971 288.8778,-288.8404 285.0023,-285.1067 289,-285.2425 289,-285.2425 289,-285.2425 285.0023,-285.1067 289.1222,-281.6446 281.0046,-284.971 281.0046,-284.971"/>
<ellipse fill="none" stroke="#000000" cx="277.8064" cy="-284.8624" rx="3.2" ry="3.2"/>
</g>
<!-- gymnasts_classes -->
<g id="node7" class="node">
<title>gymnasts_classes</title>
<g id="a_node7"><a xlink:href="../../tables/gymnasts_classes.html" xlink:title="gymnasts_classes" target="_top">
<polygon fill="#ffffff" stroke="transparent" points="537.5,-40.7425 537.5,-101.7425 669.5,-101.7425 669.5,-40.7425 537.5,-40.7425"/>
<polygon fill="#f5f5f5" stroke="transparent" points="537.5,-78.2425 537.5,-101.2425 669.5,-101.2425 669.5,-78.2425 537.5,-78.2425"/>
<polygon fill="none" stroke="#000000" points="537.5,-78.2425 537.5,-101.2425 669.5,-101.2425 669.5,-78.2425 537.5,-78.2425"/>
<text text-anchor="start" x="542.0755" y="-87.3425" font-family="Helvetica,sans-Serif" font-weight="bold" font-size="11.00" fill="#000000">gymnasts_classes</text>
<text text-anchor="start" x="635.0219" y="-86.3425" font-family="Helvetica,sans-Serif" font-size="11.00" fill="#000000">[table]</text>
<polygon fill="none" stroke="#000000" points="537.5,-59.2425 537.5,-78.2425 669.5,-78.2425 669.5,-59.2425 537.5,-59.2425"/>
<text text-anchor="start" x="540.5" y="-65.3425" font-family="Helvetica,sans-Serif" font-size="11.00" fill="#000000">...</text>
<polygon fill="#ffffff" stroke="transparent" points="537.5,-40.2425 537.5,-59.2425 588.5,-59.2425 588.5,-40.2425 537.5,-40.2425"/>
<polygon fill="none" stroke="#000000" points="537.5,-40.2425 537.5,-59.2425 588.5,-59.2425 588.5,-40.2425 537.5,-40.2425"/>
<text text-anchor="start" x="540.5" y="-46.3425" font-family="Helvetica,sans-Serif" font-size="11.00" fill="#000000">&lt; 2</text>
<polygon fill="#ffffff" stroke="transparent" points="588.5,-40.2425 588.5,-59.2425 641.5,-59.2425 641.5,-40.2425 588.5,-40.2425"/>
<polygon fill="none" stroke="#000000" points="588.5,-40.2425 588.5,-59.2425 641.5,-59.2425 641.5,-40.2425 588.5,-40.2425"/>
<text text-anchor="start" x="606.1105" y="-46.3425" font-family="Helvetica,sans-Serif" font-size="11.00" fill="#000000">0 rows</text>
<polygon fill="#ffffff" stroke="transparent" points="641.5,-40.2425 641.5,-59.2425 669.5,-59.2425 669.5,-40.2425 641.5,-40.2425"/>
<polygon fill="none" stroke="#000000" points="641.5,-40.2425 641.5,-59.2425 669.5,-59.2425 669.5,-40.2425 641.5,-40.2425"/>
<text text-anchor="start" x="660.3862" y="-46.3425" font-family="Helvetica,sans-Serif" font-size="11.00" fill="#000000"> &#160;</text>
</a>
</g>
</g>
<!-- gymnasts_classes&#45;&gt;classes -->
<g id="edge8" class="edge">
<title>gymnasts_classes:w&#45;&gt;classes:e</title>
<path fill="none" stroke="#000000" d="M522.796,-67.5905C499.9139,-65.4261 489.8164,-58.4889 461,-56.2425 380.3558,-49.9559 345.5686,-10.2899 279,-56.2425 232.0595,-88.6457 290.5384,-176.2425 233.5,-176.2425"/>
<polygon fill="#000000" stroke="#000000" points="529.5079,-67.8881 537.3405,-71.839 533.5039,-68.0653 537.5,-68.2425 537.5,-68.2425 537.5,-68.2425 533.5039,-68.0653 537.6595,-64.646 529.5079,-67.8881 529.5079,-67.8881"/>
<ellipse fill="none" stroke="#000000" cx="526.311" cy="-67.7463" rx="3.2" ry="3.2"/>
</g>
<!-- gymnasts_classes&#45;&gt;gymnasts -->
<g id="edge9" class="edge">
<title>gymnasts_classes:w&#45;&gt;gymnasts:e</title>
<path fill="none" stroke="#000000" d="M522.9457,-68.8852C479.3546,-72.889 465.4394,-94.2425 415,-94.2425"/>
<polygon fill="#000000" stroke="#000000" points="529.5078,-68.5955 537.6588,-71.839 533.5039,-68.419 537.5,-68.2425 537.5,-68.2425 537.5,-68.2425 533.5039,-68.419 537.3412,-64.646 529.5078,-68.5955 529.5078,-68.5955"/>
<ellipse fill="none" stroke="#000000" cx="526.3109" cy="-68.7367" rx="3.2" ry="3.2"/>
</g>
<!-- normal_challenges -->
<g id="node8" class="node">
<title>normal_challenges</title>
<g id="a_node8"><a xlink:href="../../tables/normal_challenges.html" xlink:title="normal_challenges" target="_top">
<polygon fill="#ffffff" stroke="transparent" points="302.5,-148.7425 302.5,-209.7425 437.5,-209.7425 437.5,-148.7425 302.5,-148.7425"/>
<polygon fill="#f5f5f5" stroke="transparent" points="303,-186.2425 303,-209.2425 438,-209.2425 438,-186.2425 303,-186.2425"/>
<polygon fill="none" stroke="#000000" points="303,-186.2425 303,-209.2425 438,-209.2425 438,-186.2425 303,-186.2425"/>
<text text-anchor="start" x="307.8522" y="-195.3425" font-family="Helvetica,sans-Serif" font-weight="bold" font-size="11.00" fill="#000000">normal_challenges</text>
<text text-anchor="start" x="403.5219" y="-194.3425" font-family="Helvetica,sans-Serif" font-size="11.00" fill="#000000">[table]</text>
<polygon fill="none" stroke="#000000" points="303,-167.2425 303,-186.2425 438,-186.2425 438,-167.2425 303,-167.2425"/>
<text text-anchor="start" x="306" y="-173.3425" font-family="Helvetica,sans-Serif" font-size="11.00" fill="#000000">...</text>
<polygon fill="#ffffff" stroke="transparent" points="303,-148.2425 303,-167.2425 351,-167.2425 351,-148.2425 303,-148.2425"/>
<polygon fill="none" stroke="#000000" points="303,-148.2425 303,-167.2425 351,-167.2425 351,-148.2425 303,-148.2425"/>
<text text-anchor="start" x="306" y="-154.3425" font-family="Helvetica,sans-Serif" font-size="11.00" fill="#000000">&lt; 2</text>
<polygon fill="#ffffff" stroke="transparent" points="351,-148.2425 351,-167.2425 403,-167.2425 403,-148.2425 351,-148.2425"/>
<polygon fill="none" stroke="#000000" points="351,-148.2425 351,-167.2425 403,-167.2425 403,-148.2425 351,-148.2425"/>
<text text-anchor="start" x="367.6105" y="-154.3425" font-family="Helvetica,sans-Serif" font-size="11.00" fill="#000000">0 rows</text>
<polygon fill="#ffffff" stroke="transparent" points="403,-148.2425 403,-167.2425 438,-167.2425 438,-148.2425 403,-148.2425"/>
<polygon fill="none" stroke="#000000" points="403,-148.2425 403,-167.2425 438,-167.2425 438,-148.2425 403,-148.2425"/>
<text text-anchor="start" x="419.4053" y="-154.3425" font-family="Helvetica,sans-Serif" font-size="11.00" fill="#000000">2 &gt;</text>
</a>
</g>
</g>
<!-- normal_challenges&#45;&gt;classes -->
<g id="edge11" class="edge">
<title>normal_challenges:w&#45;&gt;classes:e</title>
<path fill="none" stroke="#000000" d="M288.3241,-176.2425C268.5879,-176.2425 258.8385,-176.2425 233.5,-176.2425"/>
<polygon fill="#000000" stroke="#000000" points="295,-176.2426 303,-179.8425 299,-176.2425 303,-176.2425 303,-176.2425 303,-176.2425 299,-176.2425 303,-172.6425 295,-176.2426 295,-176.2426"/>
<ellipse fill="none" stroke="#000000" cx="291.8" cy="-176.2426" rx="3.2" ry="3.2"/>
</g>
<!-- normal_challenges&#45;&gt;challenges -->
<g id="edge10" class="edge">
<title>normal_challenges:w&#45;&gt;challenges:e</title>
<path fill="none" stroke="#000000" d="M288.6827,-179.5311C256.3896,-197.4228 287.8311,-282.2425 238.5,-282.2425"/>
<polygon fill="#000000" stroke="#000000" points="295.203,-178.0335 303.8059,-179.7511 299.1015,-177.138 303,-176.2425 303,-176.2425 303,-176.2425 299.1015,-177.138 302.1941,-172.7339 295.203,-178.0335 295.203,-178.0335"/>
<ellipse fill="none" stroke="#000000" cx="292.0843" cy="-178.7498" rx="3.2" ry="3.2"/>
</g>
</g>
</svg>
