<?xml version="1.0" encoding="UTF-8" standalone="no"?>
<!DOCTYPE svg PUBLIC "-//W3C//DTD SVG 1.1//EN"
 "http://www.w3.org/Graphics/SVG/1.1/DTD/svg11.dtd">
<!-- Generated by graphviz version 2.40.1 (20161225.0304)
 -->
<!-- Title: oneDegreeRelationshipsDiagram Pages: 1 -->
<svg width="586pt" height="259pt"
 viewBox="0.00 0.00 586.00 259.20" xmlns="http://www.w3.org/2000/svg" xmlns:xlink="http://www.w3.org/1999/xlink">
<g id="graph0" class="graph" transform="scale(1 1) rotate(0) translate(4 255.2)">
<title>oneDegreeRelationshipsDiagram</title>
<polygon fill="#ffffff" stroke="transparent" points="-4,4 -4,-255.2 582,-255.2 582,4 -4,4"/>
<text text-anchor="middle" x="72.4936" y="-7.3" font-family="Helvetica,sans-Serif" font-size="11.00" fill="#000000">Generated by SchemaSpy</text>
<!-- completed_daily_challenges -->
<g id="node1" class="node">
<title>completed_daily_challenges</title>
<g id="a_node1"><a xlink:href="../../tables/completed_daily_challenges.html" xlink:title="completed_daily_challenges" target="_top">
<polygon fill="#ffffff" stroke="transparent" points="367,-68.2 367,-217.2 570,-217.2 570,-68.2 367,-68.2"/>
<polygon fill="#f5f5f5" stroke="transparent" points="367.5,-193.7 367.5,-216.7 570.5,-216.7 570.5,-193.7 367.5,-193.7"/>
<polygon fill="none" stroke="#000000" points="367.5,-193.7 367.5,-216.7 570.5,-216.7 570.5,-193.7 367.5,-193.7"/>
<text text-anchor="start" x="372.5" y="-202.8" font-family="Helvetica,sans-Serif" font-weight="bold" font-size="11.00" fill="#000000">completed_daily_challenges</text>
<text text-anchor="start" x="535.5437" y="-201.8" font-family="Helvetica,sans-Serif" font-size="11.00" fill="#000000">[table]</text>
<polygon fill="none" stroke="#000000" points="367.5,-171.7 367.5,-193.7 570.5,-193.7 570.5,-171.7 367.5,-171.7"/>
<image xlink:href="../../images/primaryKeys.png" width="11px" height="12px" preserveAspectRatio="xMinYMin meet" x="372.5" y="-188.7"/>
<text text-anchor="start" x="387.5" y="-178.8" font-family="Helvetica,sans-Serif" font-size="11.00" fill="#000000">gymnasts_id</text>
<polygon fill="none" stroke="#000000" points="367.5,-149.7 367.5,-171.7 570.5,-171.7 570.5,-149.7 367.5,-149.7"/>
<image xlink:href="../../images/primaryKeys.png" width="11px" height="12px" preserveAspectRatio="xMinYMin meet" x="372.5" y="-166.7"/>
<text text-anchor="start" x="387.5" y="-156.8" font-family="Helvetica,sans-Serif" font-size="11.00" fill="#000000">daily_challenges_classes_id</text>
<polygon fill="none" stroke="#000000" points="367.5,-127.7 367.5,-149.7 570.5,-149.7 570.5,-127.7 367.5,-127.7"/>
<image xlink:href="../../images/primaryKeys.png" width="11px" height="12px" preserveAspectRatio="xMinYMin meet" x="372.5" y="-144.7"/>
<text text-anchor="start" x="387.5" y="-134.8" font-family="Helvetica,sans-Serif" font-size="11.00" fill="#000000">daily_challenges_challenges_id</text>
<polygon fill="none" stroke="#000000" points="367.5,-105.7 367.5,-127.7 570.5,-127.7 570.5,-105.7 367.5,-105.7"/>
<image xlink:href="../../images/primaryKeys.png" width="11px" height="12px" preserveAspectRatio="xMinYMin meet" x="372.5" y="-122.7"/>
<text text-anchor="start" x="387.5" y="-112.8" font-family="Helvetica,sans-Serif" font-size="11.00" fill="#000000">daily_challenges_date</text>
<polygon fill="none" stroke="#000000" points="367.5,-86.7 367.5,-105.7 570.5,-105.7 570.5,-86.7 367.5,-86.7"/>
<text text-anchor="start" x="370.5" y="-92.8" font-family="Helvetica,sans-Serif" font-size="11.00" fill="#000000">...</text>
<polygon fill="#ffffff" stroke="transparent" points="367.5,-67.7 367.5,-86.7 454.5,-86.7 454.5,-67.7 367.5,-67.7"/>
<polygon fill="none" stroke="#000000" points="367.5,-67.7 367.5,-86.7 454.5,-86.7 454.5,-67.7 367.5,-67.7"/>
<text text-anchor="start" x="370.5" y="-73.8" font-family="Helvetica,sans-Serif" font-size="11.00" fill="#000000">&lt; 4</text>
<polygon fill="#ffffff" stroke="transparent" points="454.5,-67.7 454.5,-86.7 525.5,-86.7 525.5,-67.7 454.5,-67.7"/>
<polygon fill="none" stroke="#000000" points="454.5,-67.7 454.5,-86.7 525.5,-86.7 525.5,-67.7 454.5,-67.7"/>
<text text-anchor="start" x="490.1105" y="-73.8" font-family="Helvetica,sans-Serif" font-size="11.00" fill="#000000">0 rows</text>
<polygon fill="#ffffff" stroke="transparent" points="525.5,-67.7 525.5,-86.7 570.5,-86.7 570.5,-67.7 525.5,-67.7"/>
<polygon fill="none" stroke="#000000" points="525.5,-67.7 525.5,-86.7 570.5,-86.7 570.5,-67.7 525.5,-67.7"/>
<text text-anchor="start" x="561.3862" y="-73.8" font-family="Helvetica,sans-Serif" font-size="11.00" fill="#000000"> &#160;</text>
</a>
</g>
</g>
<!-- daily_challenges -->
<g id="node2" class="node">
<title>daily_challenges</title>
<g id="a_node2"><a xlink:href="../../tables/daily_challenges.html" xlink:title="daily_challenges" target="_top">
<polygon fill="#ffffff" stroke="transparent" points="152,-84.7 152,-196.7 318,-196.7 318,-84.7 152,-84.7"/>
<polygon fill="#f5f5f5" stroke="transparent" points="154,-171.7 154,-194.7 316,-194.7 316,-171.7 154,-171.7"/>
<polygon fill="none" stroke="#000000" points="154,-171.7 154,-194.7 316,-194.7 316,-171.7 154,-171.7"/>
<text text-anchor="start" x="159" y="-180.8" font-family="Helvetica,sans-Serif" font-weight="bold" font-size="11.00" fill="#000000">daily_challenges</text>
<text text-anchor="start" x="281.0437" y="-179.8" font-family="Helvetica,sans-Serif" font-size="11.00" fill="#000000">[table]</text>
<polygon fill="none" stroke="#000000" points="154,-149.7 154,-171.7 271,-171.7 271,-149.7 154,-149.7"/>
<image xlink:href="../../images/primaryKeys.png" width="11px" height="12px" preserveAspectRatio="xMinYMin meet" x="159" y="-166.7"/>
<text text-anchor="start" x="174" y="-156.8" font-family="Helvetica,sans-Serif" font-size="11.00" fill="#000000">classes_id</text>
<polygon fill="none" stroke="#000000" points="271,-149.7 271,-171.7 316,-171.7 316,-149.7 271,-149.7"/>
<text text-anchor="start" x="274" y="-157.4" font-family="Helvetica,sans-Serif" font-size="11.00" fill="#000000">int[10]</text>
<polygon fill="none" stroke="#000000" points="154,-127.7 154,-149.7 271,-149.7 271,-127.7 154,-127.7"/>
<image xlink:href="../../images/primaryKeys.png" width="11px" height="12px" preserveAspectRatio="xMinYMin meet" x="159" y="-144.7"/>
<text text-anchor="start" x="174" y="-134.8" font-family="Helvetica,sans-Serif" font-size="11.00" fill="#000000">challenges_id</text>
<polygon fill="none" stroke="#000000" points="271,-127.7 271,-149.7 316,-149.7 316,-127.7 271,-127.7"/>
<text text-anchor="start" x="274" y="-135.4" font-family="Helvetica,sans-Serif" font-size="11.00" fill="#000000">int[10]</text>
<polygon fill="none" stroke="#000000" points="154,-105.7 154,-127.7 271,-127.7 271,-105.7 154,-105.7"/>
<image xlink:href="../../images/primaryKeys.png" width="11px" height="12px" preserveAspectRatio="xMinYMin meet" x="159" y="-122.7"/>
<text text-anchor="start" x="174" y="-112.8" font-family="Helvetica,sans-Serif" font-size="11.00" fill="#000000">date</text>
<polygon fill="none" stroke="#000000" points="271,-105.7 271,-127.7 316,-127.7 316,-105.7 271,-105.7"/>
<text text-anchor="start" x="273.6274" y="-113.4" font-family="Helvetica,sans-Serif" font-size="11.00" fill="#000000">date[10]</text>
<polygon fill="#ffffff" stroke="transparent" points="154,-86.7 154,-105.7 204,-105.7 204,-86.7 154,-86.7"/>
<polygon fill="none" stroke="#000000" points="154,-86.7 154,-105.7 204,-105.7 204,-86.7 154,-86.7"/>
<text text-anchor="start" x="157" y="-92.8" font-family="Helvetica,sans-Serif" font-size="11.00" fill="#000000">&lt; 2</text>
<polygon fill="#ffffff" stroke="transparent" points="204,-86.7 204,-105.7 271,-105.7 271,-86.7 204,-86.7"/>
<polygon fill="none" stroke="#000000" points="204,-86.7 204,-105.7 271,-105.7 271,-86.7 204,-86.7"/>
<text text-anchor="start" x="235.6105" y="-92.8" font-family="Helvetica,sans-Serif" font-size="11.00" fill="#000000">0 rows</text>
<polygon fill="#ffffff" stroke="transparent" points="271,-86.7 271,-105.7 316,-105.7 316,-86.7 271,-86.7"/>
<polygon fill="none" stroke="#000000" points="271,-86.7 271,-105.7 316,-105.7 316,-86.7 271,-86.7"/>
<text text-anchor="start" x="297.4053" y="-92.8" font-family="Helvetica,sans-Serif" font-size="11.00" fill="#000000">3 &gt;</text>
<polygon fill="none" stroke="#000000" stroke-width="2" points="153,-85.7 153,-195.7 317,-195.7 317,-85.7 153,-85.7"/>
</a>
</g>
</g>
<!-- completed_daily_challenges&#45;&gt;daily_challenges -->
<g id="edge1" class="edge">
<title>completed_daily_challenges:w&#45;&gt;daily_challenges:e</title>
<path fill="none" stroke="#000000" d="M353.0156,-138.7C340.6771,-138.7 333.1667,-138.7 316,-138.7"/>
<polygon fill="#000000" stroke="#000000" points="359.5,-138.7001 367.5,-142.3 363.5,-138.7 367.5,-138.7 367.5,-138.7 367.5,-138.7 363.5,-138.7 367.5,-135.1 359.5,-138.7001 359.5,-138.7001"/>
<ellipse fill="none" stroke="#000000" cx="356.3" cy="-138.7001" rx="3.2" ry="3.2"/>
</g>
<!-- completed_daily_challenges&#45;&gt;daily_challenges -->
<g id="edge2" class="edge">
<title>completed_daily_challenges:w&#45;&gt;daily_challenges:e</title>
<path fill="none" stroke="#000000" d="M353.0156,-160.7C340.6771,-160.7 333.1667,-160.7 316,-160.7"/>
<polygon fill="#000000" stroke="#000000" points="359.5,-160.7001 367.5,-164.3 363.5,-160.7 367.5,-160.7 367.5,-160.7 367.5,-160.7 363.5,-160.7 367.5,-157.1 359.5,-160.7001 359.5,-160.7001"/>
<ellipse fill="none" stroke="#000000" cx="356.3" cy="-160.7001" rx="3.2" ry="3.2"/>
</g>
<!-- completed_daily_challenges&#45;&gt;daily_challenges -->
<g id="edge3" class="edge">
<title>completed_daily_challenges:w&#45;&gt;daily_challenges:e</title>
<path fill="none" stroke="#000000" d="M353.0156,-116.7C340.6771,-116.7 333.1667,-116.7 316,-116.7"/>
<polygon fill="#000000" stroke="#000000" points="359.5,-116.7001 367.5,-120.3 363.5,-116.7 367.5,-116.7 367.5,-116.7 367.5,-116.7 363.5,-116.7 367.5,-113.1 359.5,-116.7001 359.5,-116.7001"/>
<ellipse fill="none" stroke="#000000" cx="356.3" cy="-116.7001" rx="3.2" ry="3.2"/>
</g>
<!-- challenges -->
<g id="node3" class="node">
<title>challenges</title>
<g id="a_node3"><a xlink:href="../../tables/challenges.html" xlink:title="challenges" target="_top">
<polygon fill="#ffffff" stroke="transparent" points="8,-38.2 8,-121.2 103,-121.2 103,-38.2 8,-38.2"/>
<polygon fill="#f5f5f5" stroke="transparent" points="8.5,-97.7 8.5,-120.7 103.5,-120.7 103.5,-97.7 8.5,-97.7"/>
<polygon fill="none" stroke="#000000" points="8.5,-97.7 8.5,-120.7 103.5,-120.7 103.5,-97.7 8.5,-97.7"/>
<text text-anchor="start" x="13.2144" y="-106.8" font-family="Helvetica,sans-Serif" font-weight="bold" font-size="11.00" fill="#000000">challenges</text>
<text text-anchor="start" x="69.0219" y="-105.8" font-family="Helvetica,sans-Serif" font-size="11.00" fill="#000000">[table]</text>
<polygon fill="none" stroke="#000000" points="8.5,-75.7 8.5,-97.7 103.5,-97.7 103.5,-75.7 8.5,-75.7"/>
<image xlink:href="../../images/primaryKeys.png" width="11px" height="12px" preserveAspectRatio="xMinYMin meet" x="13.5" y="-92.7"/>
<text text-anchor="start" x="33.5" y="-82.8" font-family="Helvetica,sans-Serif" font-size="11.00" fill="#000000">id</text>
<polygon fill="none" stroke="#000000" points="8.5,-56.7 8.5,-75.7 103.5,-75.7 103.5,-56.7 8.5,-56.7"/>
<text text-anchor="start" x="11.5" y="-62.8" font-family="Helvetica,sans-Serif" font-size="11.00" fill="#000000">...</text>
<polygon fill="#ffffff" stroke="transparent" points="8.5,-37.7 8.5,-56.7 32.5,-56.7 32.5,-37.7 8.5,-37.7"/>
<polygon fill="none" stroke="#000000" points="8.5,-37.7 8.5,-56.7 32.5,-56.7 32.5,-37.7 8.5,-37.7"/>
<text text-anchor="start" x="11.5" y="-43.8" font-family="Helvetica,sans-Serif" font-size="11.00" fill="#000000"> &#160;</text>
<polygon fill="#ffffff" stroke="transparent" points="32.5,-37.7 32.5,-56.7 76.5,-56.7 76.5,-37.7 32.5,-37.7"/>
<polygon fill="none" stroke="#000000" points="32.5,-37.7 32.5,-56.7 76.5,-56.7 76.5,-37.7 32.5,-37.7"/>
<text text-anchor="start" x="41.1105" y="-43.8" font-family="Helvetica,sans-Serif" font-size="11.00" fill="#000000">0 rows</text>
<polygon fill="#ffffff" stroke="transparent" points="76.5,-37.7 76.5,-56.7 103.5,-56.7 103.5,-37.7 76.5,-37.7"/>
<polygon fill="none" stroke="#000000" points="76.5,-37.7 76.5,-56.7 103.5,-56.7 103.5,-37.7 76.5,-37.7"/>
<text text-anchor="start" x="84.9053" y="-43.8" font-family="Helvetica,sans-Serif" font-size="11.00" fill="#000000">2 &gt;</text>
</a>
</g>
</g>
<!-- daily_challenges&#45;&gt;challenges -->
<g id="edge4" class="edge">
<title>daily_challenges:w&#45;&gt;challenges:e</title>
<path fill="none" stroke="#000000" d="M140.1372,-133.9012C125.3861,-121.0281 129.6756,-86.7 103.5,-86.7"/>
<polygon fill="#000000" stroke="#000000" points="146.4401,-136.083 152.8223,-142.1019 150.2201,-137.3915 154,-138.7 154,-138.7 154,-138.7 150.2201,-137.3915 155.1777,-135.2981 146.4401,-136.083 146.4401,-136.083"/>
<ellipse fill="none" stroke="#000000" cx="143.4162" cy="-135.0362" rx="3.2" ry="3.2"/>
</g>
<!-- classes -->
<g id="node4" class="node">
<title>classes</title>
<g id="a_node4"><a xlink:href="../../tables/classes.html" xlink:title="classes" target="_top">
<polygon fill="#ffffff" stroke="transparent" points="13,-142.2 13,-247.2 98,-247.2 98,-142.2 13,-142.2"/>
<polygon fill="#f5f5f5" stroke="transparent" points="13.5,-223.7 13.5,-246.7 98.5,-246.7 98.5,-223.7 13.5,-223.7"/>
<polygon fill="none" stroke="#000000" points="13.5,-223.7 13.5,-246.7 98.5,-246.7 98.5,-223.7 13.5,-223.7"/>
<text text-anchor="start" x="18.5" y="-232.8" font-family="Helvetica,sans-Serif" font-weight="bold" font-size="11.00" fill="#000000">classes</text>
<text text-anchor="start" x="63.5437" y="-231.8" font-family="Helvetica,sans-Serif" font-size="11.00" fill="#000000">[table]</text>
<polygon fill="none" stroke="#000000" points="13.5,-201.7 13.5,-223.7 98.5,-223.7 98.5,-201.7 13.5,-201.7"/>
<image xlink:href="../../images/primaryKeys.png" width="11px" height="12px" preserveAspectRatio="xMinYMin meet" x="18.5" y="-218.7"/>
<text text-anchor="start" x="33.5" y="-208.8" font-family="Helvetica,sans-Serif" font-size="11.00" fill="#000000">id</text>
<polygon fill="#ffffff" stroke="transparent" points="13.5,-179.7 13.5,-201.7 98.5,-201.7 98.5,-179.7 13.5,-179.7"/>
<polygon fill="none" stroke="#000000" points="13.5,-179.7 13.5,-201.7 98.5,-201.7 98.5,-179.7 13.5,-179.7"/>
<image xlink:href="../../images/foreignKeys.png" width="11px" height="12px" preserveAspectRatio="xMinYMin meet" x="18.5" y="-196.7"/>
<text text-anchor="start" x="33.5" y="-186.8" font-family="Helvetica,sans-Serif" font-size="11.00" fill="#000000">skill_list_id</text>
<polygon fill="none" stroke="#000000" points="13.5,-160.7 13.5,-179.7 98.5,-179.7 98.5,-160.7 13.5,-160.7"/>
<text text-anchor="start" x="16.5" y="-166.8" font-family="Helvetica,sans-Serif" font-size="11.00" fill="#000000">...</text>
<polygon fill="#ffffff" stroke="transparent" points="13.5,-141.7 13.5,-160.7 36.5,-160.7 36.5,-141.7 13.5,-141.7"/>
<polygon fill="none" stroke="#000000" points="13.5,-141.7 13.5,-160.7 36.5,-160.7 36.5,-141.7 13.5,-141.7"/>
<text text-anchor="start" x="16.5" y="-147.8" font-family="Helvetica,sans-Serif" font-size="11.00" fill="#000000">&lt; 1</text>
<polygon fill="#ffffff" stroke="transparent" points="36.5,-141.7 36.5,-160.7 75.5,-160.7 75.5,-141.7 36.5,-141.7"/>
<polygon fill="none" stroke="#000000" points="36.5,-141.7 36.5,-160.7 75.5,-160.7 75.5,-141.7 36.5,-141.7"/>
<text text-anchor="start" x="40.1105" y="-147.8" font-family="Helvetica,sans-Serif" font-size="11.00" fill="#000000">0 rows</text>
<polygon fill="#ffffff" stroke="transparent" points="75.5,-141.7 75.5,-160.7 98.5,-160.7 98.5,-141.7 75.5,-141.7"/>
<polygon fill="none" stroke="#000000" points="75.5,-141.7 75.5,-160.7 98.5,-160.7 98.5,-141.7 75.5,-141.7"/>
<text text-anchor="start" x="79.9053" y="-147.8" font-family="Helvetica,sans-Serif" font-size="11.00" fill="#000000">3 &gt;</text>
</a>
</g>
</g>
<!-- daily_challenges&#45;&gt;classes -->
<g id="edge5" class="edge">
<title>daily_challenges:w&#45;&gt;classes:e</title>
<path fill="none" stroke="#000000" d="M140.173,-164.7804C123.0027,-177.0389 126.4922,-212.7 98.5,-212.7"/>
<polygon fill="#000000" stroke="#000000" points="146.3271,-162.9643 155.0189,-164.1528 150.1636,-161.8322 154,-160.7 154,-160.7 154,-160.7 150.1636,-161.8322 152.9811,-157.2472 146.3271,-162.9643 146.3271,-162.9643"/>
<ellipse fill="none" stroke="#000000" cx="143.258" cy="-163.87" rx="3.2" ry="3.2"/>
</g>
</g>
</svg>
