<?xml version="1.0" encoding="UTF-8" standalone="no"?>
<!DOCTYPE svg PUBLIC "-//W3C//DTD SVG 1.1//EN"
 "http://www.w3.org/Graphics/SVG/1.1/DTD/svg11.dtd">
<!-- Generated by graphviz version 2.40.1 (20161225.0304)
 -->
<!-- Title: oneDegreeRelationshipsDiagram Pages: 1 -->
<svg width="729pt" height="239pt"
 viewBox="0.00 0.00 729.00 239.20" xmlns="http://www.w3.org/2000/svg" xmlns:xlink="http://www.w3.org/1999/xlink">
<g id="graph0" class="graph" transform="scale(1 1) rotate(0) translate(4 235.2)">
<title>oneDegreeRelationshipsDiagram</title>
<polygon fill="#ffffff" stroke="transparent" points="-4,4 -4,-235.2 725,-235.2 725,4 -4,4"/>
<text text-anchor="middle" x="72.4936" y="-7.3" font-family="Helvetica,sans-Serif" font-size="11.00" fill="#000000">Generated by SchemaSpy</text>
<!-- challenges -->
<g id="node1" class="node">
<title>challenges</title>
<g id="a_node1"><a xlink:href="../../tables/challenges.html" xlink:title="challenges" target="_top">
<polygon fill="#ffffff" stroke="transparent" points="142,-38.2 142,-165.2 241,-165.2 241,-38.2 142,-38.2"/>
<polygon fill="#f5f5f5" stroke="transparent" points="142.5,-141.7 142.5,-164.7 241.5,-164.7 241.5,-141.7 142.5,-141.7"/>
<polygon fill="none" stroke="#000000" points="142.5,-141.7 142.5,-164.7 241.5,-164.7 241.5,-141.7 142.5,-141.7"/>
<text text-anchor="start" x="147.5" y="-150.8" font-family="Helvetica,sans-Serif" font-weight="bold" font-size="11.00" fill="#000000">challenges</text>
<text text-anchor="start" x="206.5437" y="-149.8" font-family="Helvetica,sans-Serif" font-size="11.00" fill="#000000">[table]</text>
<polygon fill="none" stroke="#000000" points="142.5,-119.7 142.5,-141.7 241.5,-141.7 241.5,-119.7 142.5,-119.7"/>
<image xlink:href="../../images/primaryKeys.png" width="11px" height="12px" preserveAspectRatio="xMinYMin meet" x="147.5" y="-136.7"/>
<text text-anchor="start" x="162.5" y="-126.8" font-family="Helvetica,sans-Serif" font-size="11.00" fill="#000000">id</text>
<polygon fill="#ffffff" stroke="transparent" points="142.5,-97.7 142.5,-119.7 241.5,-119.7 241.5,-97.7 142.5,-97.7"/>
<polygon fill="none" stroke="#000000" points="142.5,-97.7 142.5,-119.7 241.5,-119.7 241.5,-97.7 142.5,-97.7"/>
<image xlink:href="../../images/foreignKeys.png" width="11px" height="12px" preserveAspectRatio="xMinYMin meet" x="147.5" y="-114.7"/>
<text text-anchor="start" x="162.5" y="-104.8" font-family="Helvetica,sans-Serif" font-size="11.00" fill="#000000">gym_id</text>
<polygon fill="#ffffff" stroke="transparent" points="142.5,-75.7 142.5,-97.7 241.5,-97.7 241.5,-75.7 142.5,-75.7"/>
<polygon fill="none" stroke="#000000" points="142.5,-75.7 142.5,-97.7 241.5,-97.7 241.5,-75.7 142.5,-75.7"/>
<image xlink:href="../../images/foreignKeys.png" width="11px" height="12px" preserveAspectRatio="xMinYMin meet" x="147.5" y="-92.7"/>
<text text-anchor="start" x="162.5" y="-82.8" font-family="Helvetica,sans-Serif" font-size="11.00" fill="#000000">class_id</text>
<polygon fill="none" stroke="#000000" points="142.5,-56.7 142.5,-75.7 241.5,-75.7 241.5,-56.7 142.5,-56.7"/>
<text text-anchor="start" x="145.5" y="-62.8" font-family="Helvetica,sans-Serif" font-size="11.00" fill="#000000">...</text>
<polygon fill="#ffffff" stroke="transparent" points="142.5,-37.7 142.5,-56.7 172.5,-56.7 172.5,-37.7 142.5,-37.7"/>
<polygon fill="none" stroke="#000000" points="142.5,-37.7 142.5,-56.7 172.5,-56.7 172.5,-37.7 142.5,-37.7"/>
<text text-anchor="start" x="145.5" y="-43.8" font-family="Helvetica,sans-Serif" font-size="11.00" fill="#000000">&lt; 2</text>
<polygon fill="#ffffff" stroke="transparent" points="172.5,-37.7 172.5,-56.7 215.5,-56.7 215.5,-37.7 172.5,-37.7"/>
<polygon fill="none" stroke="#000000" points="172.5,-37.7 172.5,-56.7 215.5,-56.7 215.5,-37.7 172.5,-37.7"/>
<text text-anchor="start" x="180.1105" y="-43.8" font-family="Helvetica,sans-Serif" font-size="11.00" fill="#000000">0 rows</text>
<polygon fill="#ffffff" stroke="transparent" points="215.5,-37.7 215.5,-56.7 241.5,-56.7 241.5,-37.7 215.5,-37.7"/>
<polygon fill="none" stroke="#000000" points="215.5,-37.7 215.5,-56.7 241.5,-56.7 241.5,-37.7 215.5,-37.7"/>
<text text-anchor="start" x="222.9053" y="-43.8" font-family="Helvetica,sans-Serif" font-size="11.00" fill="#000000">2 &gt;</text>
</a>
</g>
</g>
<!-- classes -->
<g id="node2" class="node">
<title>classes</title>
<g id="a_node2"><a xlink:href="../../tables/classes.html" xlink:title="classes" target="_top">
<polygon fill="#ffffff" stroke="transparent" points="8,-67.2 8,-172.2 93,-172.2 93,-67.2 8,-67.2"/>
<polygon fill="#f5f5f5" stroke="transparent" points="8.5,-148.7 8.5,-171.7 93.5,-171.7 93.5,-148.7 8.5,-148.7"/>
<polygon fill="none" stroke="#000000" points="8.5,-148.7 8.5,-171.7 93.5,-171.7 93.5,-148.7 8.5,-148.7"/>
<text text-anchor="start" x="13.5" y="-157.8" font-family="Helvetica,sans-Serif" font-weight="bold" font-size="11.00" fill="#000000">classes</text>
<text text-anchor="start" x="58.5437" y="-156.8" font-family="Helvetica,sans-Serif" font-size="11.00" fill="#000000">[table]</text>
<polygon fill="none" stroke="#000000" points="8.5,-126.7 8.5,-148.7 93.5,-148.7 93.5,-126.7 8.5,-126.7"/>
<image xlink:href="../../images/primaryKeys.png" width="11px" height="12px" preserveAspectRatio="xMinYMin meet" x="13.5" y="-143.7"/>
<text text-anchor="start" x="28.5" y="-133.8" font-family="Helvetica,sans-Serif" font-size="11.00" fill="#000000">id</text>
<polygon fill="#ffffff" stroke="transparent" points="8.5,-104.7 8.5,-126.7 93.5,-126.7 93.5,-104.7 8.5,-104.7"/>
<polygon fill="none" stroke="#000000" points="8.5,-104.7 8.5,-126.7 93.5,-126.7 93.5,-104.7 8.5,-104.7"/>
<image xlink:href="../../images/foreignKeys.png" width="11px" height="12px" preserveAspectRatio="xMinYMin meet" x="13.5" y="-121.7"/>
<text text-anchor="start" x="28.5" y="-111.8" font-family="Helvetica,sans-Serif" font-size="11.00" fill="#000000">skill_list_id</text>
<polygon fill="none" stroke="#000000" points="8.5,-85.7 8.5,-104.7 93.5,-104.7 93.5,-85.7 8.5,-85.7"/>
<text text-anchor="start" x="11.5" y="-91.8" font-family="Helvetica,sans-Serif" font-size="11.00" fill="#000000">...</text>
<polygon fill="#ffffff" stroke="transparent" points="8.5,-66.7 8.5,-85.7 31.5,-85.7 31.5,-66.7 8.5,-66.7"/>
<polygon fill="none" stroke="#000000" points="8.5,-66.7 8.5,-85.7 31.5,-85.7 31.5,-66.7 8.5,-66.7"/>
<text text-anchor="start" x="11.5" y="-72.8" font-family="Helvetica,sans-Serif" font-size="11.00" fill="#000000">&lt; 1</text>
<polygon fill="#ffffff" stroke="transparent" points="31.5,-66.7 31.5,-85.7 70.5,-85.7 70.5,-66.7 31.5,-66.7"/>
<polygon fill="none" stroke="#000000" points="31.5,-66.7 31.5,-85.7 70.5,-85.7 70.5,-66.7 31.5,-66.7"/>
<text text-anchor="start" x="35.1105" y="-72.8" font-family="Helvetica,sans-Serif" font-size="11.00" fill="#000000">0 rows</text>
<polygon fill="#ffffff" stroke="transparent" points="70.5,-66.7 70.5,-85.7 93.5,-85.7 93.5,-66.7 70.5,-66.7"/>
<polygon fill="none" stroke="#000000" points="70.5,-66.7 70.5,-85.7 93.5,-85.7 93.5,-66.7 70.5,-66.7"/>
<text text-anchor="start" x="74.9053" y="-72.8" font-family="Helvetica,sans-Serif" font-size="11.00" fill="#000000">4 &gt;</text>
</a>
</g>
</g>
<!-- challenges&#45;&gt;classes -->
<g id="edge1" class="edge">
<title>challenges:w&#45;&gt;classes:e</title>
<path fill="none" stroke="#000000" d="M128.5912,-91.7765C114.7553,-104.6764 118.7939,-137.7 93.5,-137.7"/>
<polygon fill="#000000" stroke="#000000" points="134.9849,-89.4429 143.7343,-90.0818 138.7425,-88.0715 142.5,-86.7 142.5,-86.7 142.5,-86.7 138.7425,-88.0715 141.2657,-83.3182 134.9849,-89.4429 134.9849,-89.4429"/>
<ellipse fill="none" stroke="#000000" cx="131.9789" cy="-90.5401" rx="3.2" ry="3.2"/>
</g>
<!-- completed_daily_challenges -->
<g id="node3" class="node">
<title>completed_daily_challenges</title>
<g id="a_node3"><a xlink:href="../../tables/completed_daily_challenges.html" xlink:title="completed_daily_challenges" target="_top">
<polygon fill="#ffffff" stroke="transparent" points="510,-78.2 510,-227.2 713,-227.2 713,-78.2 510,-78.2"/>
<polygon fill="#f5f5f5" stroke="transparent" points="510.5,-203.7 510.5,-226.7 713.5,-226.7 713.5,-203.7 510.5,-203.7"/>
<polygon fill="none" stroke="#000000" points="510.5,-203.7 510.5,-226.7 713.5,-226.7 713.5,-203.7 510.5,-203.7"/>
<text text-anchor="start" x="515.5" y="-212.8" font-family="Helvetica,sans-Serif" font-weight="bold" font-size="11.00" fill="#000000">completed_daily_challenges</text>
<text text-anchor="start" x="678.5437" y="-211.8" font-family="Helvetica,sans-Serif" font-size="11.00" fill="#000000">[table]</text>
<polygon fill="none" stroke="#000000" points="510.5,-181.7 510.5,-203.7 713.5,-203.7 713.5,-181.7 510.5,-181.7"/>
<image xlink:href="../../images/primaryKeys.png" width="11px" height="12px" preserveAspectRatio="xMinYMin meet" x="515.5" y="-198.7"/>
<text text-anchor="start" x="530.5" y="-188.8" font-family="Helvetica,sans-Serif" font-size="11.00" fill="#000000">gymnasts_id</text>
<polygon fill="none" stroke="#000000" points="510.5,-159.7 510.5,-181.7 713.5,-181.7 713.5,-159.7 510.5,-159.7"/>
<image xlink:href="../../images/primaryKeys.png" width="11px" height="12px" preserveAspectRatio="xMinYMin meet" x="515.5" y="-176.7"/>
<text text-anchor="start" x="530.5" y="-166.8" font-family="Helvetica,sans-Serif" font-size="11.00" fill="#000000">daily_challenges_classes_id</text>
<polygon fill="none" stroke="#000000" points="510.5,-137.7 510.5,-159.7 713.5,-159.7 713.5,-137.7 510.5,-137.7"/>
<image xlink:href="../../images/primaryKeys.png" width="11px" height="12px" preserveAspectRatio="xMinYMin meet" x="515.5" y="-154.7"/>
<text text-anchor="start" x="530.5" y="-144.8" font-family="Helvetica,sans-Serif" font-size="11.00" fill="#000000">daily_challenges_challenges_id</text>
<polygon fill="none" stroke="#000000" points="510.5,-115.7 510.5,-137.7 713.5,-137.7 713.5,-115.7 510.5,-115.7"/>
<image xlink:href="../../images/primaryKeys.png" width="11px" height="12px" preserveAspectRatio="xMinYMin meet" x="515.5" y="-132.7"/>
<text text-anchor="start" x="530.5" y="-122.8" font-family="Helvetica,sans-Serif" font-size="11.00" fill="#000000">daily_challenges_date</text>
<polygon fill="none" stroke="#000000" points="510.5,-96.7 510.5,-115.7 713.5,-115.7 713.5,-96.7 510.5,-96.7"/>
<text text-anchor="start" x="513.5" y="-102.8" font-family="Helvetica,sans-Serif" font-size="11.00" fill="#000000">...</text>
<polygon fill="#ffffff" stroke="transparent" points="510.5,-77.7 510.5,-96.7 597.5,-96.7 597.5,-77.7 510.5,-77.7"/>
<polygon fill="none" stroke="#000000" points="510.5,-77.7 510.5,-96.7 597.5,-96.7 597.5,-77.7 510.5,-77.7"/>
<text text-anchor="start" x="513.5" y="-83.8" font-family="Helvetica,sans-Serif" font-size="11.00" fill="#000000">&lt; 4</text>
<polygon fill="#ffffff" stroke="transparent" points="597.5,-77.7 597.5,-96.7 668.5,-96.7 668.5,-77.7 597.5,-77.7"/>
<polygon fill="none" stroke="#000000" points="597.5,-77.7 597.5,-96.7 668.5,-96.7 668.5,-77.7 597.5,-77.7"/>
<text text-anchor="start" x="633.1105" y="-83.8" font-family="Helvetica,sans-Serif" font-size="11.00" fill="#000000">0 rows</text>
<polygon fill="#ffffff" stroke="transparent" points="668.5,-77.7 668.5,-96.7 713.5,-96.7 713.5,-77.7 668.5,-77.7"/>
<polygon fill="none" stroke="#000000" points="668.5,-77.7 668.5,-96.7 713.5,-96.7 713.5,-77.7 668.5,-77.7"/>
<text text-anchor="start" x="704.3862" y="-83.8" font-family="Helvetica,sans-Serif" font-size="11.00" fill="#000000"> &#160;</text>
</a>
</g>
</g>
<!-- daily_challenges -->
<g id="node4" class="node">
<title>daily_challenges</title>
<g id="a_node4"><a xlink:href="../../tables/daily_challenges.html" xlink:title="daily_challenges" target="_top">
<polygon fill="#ffffff" stroke="transparent" points="290,-94.7 290,-206.7 461,-206.7 461,-94.7 290,-94.7"/>
<polygon fill="#f5f5f5" stroke="transparent" points="292.5,-181.7 292.5,-204.7 459.5,-204.7 459.5,-181.7 292.5,-181.7"/>
<polygon fill="none" stroke="#000000" points="292.5,-181.7 292.5,-204.7 459.5,-204.7 459.5,-181.7 292.5,-181.7"/>
<text text-anchor="start" x="297.5" y="-190.8" font-family="Helvetica,sans-Serif" font-weight="bold" font-size="11.00" fill="#000000">daily_challenges</text>
<text text-anchor="start" x="424.5437" y="-189.8" font-family="Helvetica,sans-Serif" font-size="11.00" fill="#000000">[table]</text>
<polygon fill="none" stroke="#000000" points="292.5,-159.7 292.5,-181.7 409.5,-181.7 409.5,-159.7 292.5,-159.7"/>
<image xlink:href="../../images/primaryKeys.png" width="11px" height="12px" preserveAspectRatio="xMinYMin meet" x="297.5" y="-176.7"/>
<text text-anchor="start" x="312.5" y="-166.8" font-family="Helvetica,sans-Serif" font-size="11.00" fill="#000000">classes_id</text>
<polygon fill="none" stroke="#000000" points="409.5,-159.7 409.5,-181.7 459.5,-181.7 459.5,-159.7 409.5,-159.7"/>
<text text-anchor="start" x="412.1865" y="-167.4" font-family="Helvetica,sans-Serif" font-size="11.00" fill="#000000">bigint[19]</text>
<polygon fill="none" stroke="#000000" points="292.5,-137.7 292.5,-159.7 409.5,-159.7 409.5,-137.7 292.5,-137.7"/>
<image xlink:href="../../images/primaryKeys.png" width="11px" height="12px" preserveAspectRatio="xMinYMin meet" x="297.5" y="-154.7"/>
<text text-anchor="start" x="312.5" y="-144.8" font-family="Helvetica,sans-Serif" font-size="11.00" fill="#000000">challenges_id</text>
<polygon fill="none" stroke="#000000" points="409.5,-137.7 409.5,-159.7 459.5,-159.7 459.5,-137.7 409.5,-137.7"/>
<text text-anchor="start" x="412.1865" y="-145.4" font-family="Helvetica,sans-Serif" font-size="11.00" fill="#000000">bigint[19]</text>
<polygon fill="none" stroke="#000000" points="292.5,-115.7 292.5,-137.7 409.5,-137.7 409.5,-115.7 292.5,-115.7"/>
<image xlink:href="../../images/primaryKeys.png" width="11px" height="12px" preserveAspectRatio="xMinYMin meet" x="297.5" y="-132.7"/>
<text text-anchor="start" x="312.5" y="-122.8" font-family="Helvetica,sans-Serif" font-size="11.00" fill="#000000">date</text>
<polygon fill="none" stroke="#000000" points="409.5,-115.7 409.5,-137.7 459.5,-137.7 459.5,-115.7 409.5,-115.7"/>
<text text-anchor="start" x="412.5" y="-123.4" font-family="Helvetica,sans-Serif" font-size="11.00" fill="#000000">date[10]</text>
<polygon fill="#ffffff" stroke="transparent" points="292.5,-96.7 292.5,-115.7 342.5,-115.7 342.5,-96.7 292.5,-96.7"/>
<polygon fill="none" stroke="#000000" points="292.5,-96.7 292.5,-115.7 342.5,-115.7 342.5,-96.7 292.5,-96.7"/>
<text text-anchor="start" x="295.5" y="-102.8" font-family="Helvetica,sans-Serif" font-size="11.00" fill="#000000">&lt; 2</text>
<polygon fill="#ffffff" stroke="transparent" points="342.5,-96.7 342.5,-115.7 409.5,-115.7 409.5,-96.7 342.5,-96.7"/>
<polygon fill="none" stroke="#000000" points="342.5,-96.7 342.5,-115.7 409.5,-115.7 409.5,-96.7 342.5,-96.7"/>
<text text-anchor="start" x="374.1105" y="-102.8" font-family="Helvetica,sans-Serif" font-size="11.00" fill="#000000">0 rows</text>
<polygon fill="#ffffff" stroke="transparent" points="409.5,-96.7 409.5,-115.7 459.5,-115.7 459.5,-96.7 409.5,-96.7"/>
<polygon fill="none" stroke="#000000" points="409.5,-96.7 409.5,-115.7 459.5,-115.7 459.5,-96.7 409.5,-96.7"/>
<text text-anchor="start" x="440.9053" y="-102.8" font-family="Helvetica,sans-Serif" font-size="11.00" fill="#000000">3 &gt;</text>
<polygon fill="none" stroke="#000000" stroke-width="2" points="291,-95.7 291,-205.7 460,-205.7 460,-95.7 291,-95.7"/>
</a>
</g>
</g>
<!-- completed_daily_challenges&#45;&gt;daily_challenges -->
<g id="edge2" class="edge">
<title>completed_daily_challenges:w&#45;&gt;daily_challenges:e</title>
<path fill="none" stroke="#000000" d="M495.776,-148.7C483.7815,-148.7 476.3229,-148.7 459.5,-148.7"/>
<polygon fill="#000000" stroke="#000000" points="502.5,-148.7001 510.5,-152.3 506.5,-148.7 510.5,-148.7 510.5,-148.7 510.5,-148.7 506.5,-148.7 510.5,-145.1 502.5,-148.7001 502.5,-148.7001"/>
<ellipse fill="none" stroke="#000000" cx="499.3" cy="-148.7001" rx="3.2" ry="3.2"/>
</g>
<!-- completed_daily_challenges&#45;&gt;daily_challenges -->
<g id="edge3" class="edge">
<title>completed_daily_challenges:w&#45;&gt;daily_challenges:e</title>
<path fill="none" stroke="#000000" d="M495.776,-170.7C483.7815,-170.7 476.3229,-170.7 459.5,-170.7"/>
<polygon fill="#000000" stroke="#000000" points="502.5,-170.7001 510.5,-174.3 506.5,-170.7 510.5,-170.7 510.5,-170.7 510.5,-170.7 506.5,-170.7 510.5,-167.1 502.5,-170.7001 502.5,-170.7001"/>
<ellipse fill="none" stroke="#000000" cx="499.3" cy="-170.7001" rx="3.2" ry="3.2"/>
</g>
<!-- completed_daily_challenges&#45;&gt;daily_challenges -->
<g id="edge4" class="edge">
<title>completed_daily_challenges:w&#45;&gt;daily_challenges:e</title>
<path fill="none" stroke="#000000" d="M495.776,-126.7C483.7815,-126.7 476.3229,-126.7 459.5,-126.7"/>
<polygon fill="#000000" stroke="#000000" points="502.5,-126.7001 510.5,-130.3 506.5,-126.7 510.5,-126.7 510.5,-126.7 510.5,-126.7 506.5,-126.7 510.5,-123.1 502.5,-126.7001 502.5,-126.7001"/>
<ellipse fill="none" stroke="#000000" cx="499.3" cy="-126.7001" rx="3.2" ry="3.2"/>
</g>
<!-- daily_challenges&#45;&gt;challenges -->
<g id="edge5" class="edge">
<title>daily_challenges:w&#45;&gt;challenges:e</title>
<path fill="none" stroke="#000000" d="M278.1506,-146.044C265.8075,-141.037 259.7155,-130.7 241.5,-130.7"/>
<polygon fill="#000000" stroke="#000000" points="284.6336,-147.2439 291.8448,-152.2399 288.5668,-147.972 292.5,-148.7 292.5,-148.7 292.5,-148.7 288.5668,-147.972 293.1552,-145.1601 284.6336,-147.2439 284.6336,-147.2439"/>
<ellipse fill="none" stroke="#000000" cx="281.4871" cy="-146.6615" rx="3.2" ry="3.2"/>
</g>
<!-- daily_challenges&#45;&gt;classes -->
<g id="edge6" class="edge">
<title>daily_challenges:w&#45;&gt;classes:e</title>
<path fill="none" stroke="#000000" d="M278.0084,-171.5941C268.8542,-172.8111 262.5091,-174.9262 249,-175.7 197.9725,-178.623 181.5259,-194.5053 134,-175.7 111.0487,-166.6185 118.1827,-137.7 93.5,-137.7"/>
<polygon fill="#000000" stroke="#000000" points="284.5152,-171.1927 292.7217,-174.2932 288.5076,-170.9464 292.5,-170.7 292.5,-170.7 292.5,-170.7 288.5076,-170.9464 292.2783,-167.1068 284.5152,-171.1927 284.5152,-171.1927"/>
<ellipse fill="none" stroke="#000000" cx="281.3213" cy="-171.3898" rx="3.2" ry="3.2"/>
</g>
</g>
</svg>
