<?xml version="1.0" encoding="UTF-8" standalone="no"?>
<!DOCTYPE svg PUBLIC "-//W3C//DTD SVG 1.1//EN"
 "http://www.w3.org/Graphics/SVG/1.1/DTD/svg11.dtd">
<!-- Generated by graphviz version 2.40.1 (20161225.0304)
 -->
<!-- Title: twoDegreesRelationshipsDiagram Pages: 1 -->
<svg width="648pt" height="607pt"
 viewBox="0.00 0.00 648.00 607.20" xmlns="http://www.w3.org/2000/svg" xmlns:xlink="http://www.w3.org/1999/xlink">
<g id="graph0" class="graph" transform="scale(1 1) rotate(0) translate(4 603.2)">
<title>twoDegreesRelationshipsDiagram</title>
<polygon fill="#ffffff" stroke="transparent" points="-4,4 -4,-603.2 644,-603.2 644,4 -4,4"/>
<text text-anchor="middle" x="72.4936" y="-7.3" font-family="Helvetica,sans-Serif" font-size="11.00" fill="#000000">Generated by SchemaSpy</text>
<!-- challenges -->
<g id="node1" class="node">
<title>challenges</title>
<g id="a_node1"><a xlink:href="../../tables/challenges.html" xlink:title="challenges" target="_top">
<polygon fill="#ffffff" stroke="transparent" points="176.5,-534.2 176.5,-595.2 271.5,-595.2 271.5,-534.2 176.5,-534.2"/>
<polygon fill="#f5f5f5" stroke="transparent" points="177,-571.7 177,-594.7 272,-594.7 272,-571.7 177,-571.7"/>
<polygon fill="none" stroke="#000000" points="177,-571.7 177,-594.7 272,-594.7 272,-571.7 177,-571.7"/>
<text text-anchor="start" x="181.7144" y="-580.8" font-family="Helvetica,sans-Serif" font-weight="bold" font-size="11.00" fill="#000000">challenges</text>
<text text-anchor="start" x="237.5219" y="-579.8" font-family="Helvetica,sans-Serif" font-size="11.00" fill="#000000">[table]</text>
<polygon fill="none" stroke="#000000" points="177,-552.7 177,-571.7 272,-571.7 272,-552.7 177,-552.7"/>
<text text-anchor="start" x="180" y="-558.8" font-family="Helvetica,sans-Serif" font-size="11.00" fill="#000000">...</text>
<polygon fill="#ffffff" stroke="transparent" points="177,-533.7 177,-552.7 205,-552.7 205,-533.7 177,-533.7"/>
<polygon fill="none" stroke="#000000" points="177,-533.7 177,-552.7 205,-552.7 205,-533.7 177,-533.7"/>
<text text-anchor="start" x="180" y="-539.8" font-family="Helvetica,sans-Serif" font-size="11.00" fill="#000000">&lt; 2</text>
<polygon fill="#ffffff" stroke="transparent" points="205,-533.7 205,-552.7 247,-552.7 247,-533.7 205,-533.7"/>
<polygon fill="none" stroke="#000000" points="205,-533.7 205,-552.7 247,-552.7 247,-533.7 205,-533.7"/>
<text text-anchor="start" x="211.6105" y="-539.8" font-family="Helvetica,sans-Serif" font-size="11.00" fill="#000000">0 rows</text>
<polygon fill="#ffffff" stroke="transparent" points="247,-533.7 247,-552.7 272,-552.7 272,-533.7 247,-533.7"/>
<polygon fill="none" stroke="#000000" points="247,-533.7 247,-552.7 272,-552.7 272,-533.7 247,-533.7"/>
<text text-anchor="start" x="253.4053" y="-539.8" font-family="Helvetica,sans-Serif" font-size="11.00" fill="#000000">1 &gt;</text>
</a>
</g>
</g>
<!-- gyms -->
<g id="node2" class="node">
<title>gyms</title>
<g id="a_node2"><a xlink:href="../../tables/gyms.html" xlink:title="gyms" target="_top">
<polygon fill="#ffffff" stroke="transparent" points="8,-240.2 8,-323.2 93,-323.2 93,-240.2 8,-240.2"/>
<polygon fill="#f5f5f5" stroke="transparent" points="8.5,-299.7 8.5,-322.7 93.5,-322.7 93.5,-299.7 8.5,-299.7"/>
<polygon fill="none" stroke="#000000" points="8.5,-299.7 8.5,-322.7 93.5,-322.7 93.5,-299.7 8.5,-299.7"/>
<text text-anchor="start" x="13.5" y="-308.8" font-family="Helvetica,sans-Serif" font-weight="bold" font-size="11.00" fill="#000000">gyms</text>
<text text-anchor="start" x="58.5437" y="-307.8" font-family="Helvetica,sans-Serif" font-size="11.00" fill="#000000">[table]</text>
<polygon fill="none" stroke="#000000" points="8.5,-277.7 8.5,-299.7 93.5,-299.7 93.5,-277.7 8.5,-277.7"/>
<image xlink:href="../../images/primaryKeys.png" width="11px" height="12px" preserveAspectRatio="xMinYMin meet" x="13.5" y="-294.7"/>
<text text-anchor="start" x="28.5" y="-284.8" font-family="Helvetica,sans-Serif" font-size="11.00" fill="#000000">id</text>
<polygon fill="none" stroke="#000000" points="8.5,-258.7 8.5,-277.7 93.5,-277.7 93.5,-258.7 8.5,-258.7"/>
<text text-anchor="start" x="11.5" y="-264.8" font-family="Helvetica,sans-Serif" font-size="11.00" fill="#000000">...</text>
<polygon fill="#ffffff" stroke="transparent" points="8.5,-239.7 8.5,-258.7 27.5,-258.7 27.5,-239.7 8.5,-239.7"/>
<polygon fill="none" stroke="#000000" points="8.5,-239.7 8.5,-258.7 27.5,-258.7 27.5,-239.7 8.5,-239.7"/>
<text text-anchor="start" x="11.5" y="-245.8" font-family="Helvetica,sans-Serif" font-size="11.00" fill="#000000"> &#160;</text>
<polygon fill="#ffffff" stroke="transparent" points="27.5,-239.7 27.5,-258.7 68.5,-258.7 68.5,-239.7 27.5,-239.7"/>
<polygon fill="none" stroke="#000000" points="27.5,-239.7 27.5,-258.7 68.5,-258.7 68.5,-239.7 27.5,-239.7"/>
<text text-anchor="start" x="33.1105" y="-245.8" font-family="Helvetica,sans-Serif" font-size="11.00" fill="#000000">0 rows</text>
<polygon fill="#ffffff" stroke="transparent" points="68.5,-239.7 68.5,-258.7 93.5,-258.7 93.5,-239.7 68.5,-239.7"/>
<polygon fill="none" stroke="#000000" points="68.5,-239.7 68.5,-258.7 93.5,-258.7 93.5,-239.7 68.5,-239.7"/>
<text text-anchor="start" x="74.9053" y="-245.8" font-family="Helvetica,sans-Serif" font-size="11.00" fill="#000000">4 &gt;</text>
</a>
</g>
</g>
<!-- challenges&#45;&gt;gyms -->
<g id="edge1" class="edge">
<title>challenges:w&#45;&gt;gyms:e</title>
<path fill="none" stroke="#000000" d="M162.4885,-559.3849C148.8206,-554.2377 143.6101,-540.9267 134,-523.7 108.1834,-477.4219 146.4921,-288.7 93.5,-288.7"/>
<polygon fill="#000000" stroke="#000000" points="169.0999,-560.4396 176.4328,-565.255 173.0499,-561.0698 177,-561.7 177,-561.7 177,-561.7 173.0499,-561.0698 177.5672,-558.145 169.0999,-560.4396 169.0999,-560.4396"/>
<ellipse fill="none" stroke="#000000" cx="165.9399" cy="-559.9355" rx="3.2" ry="3.2"/>
</g>
<!-- events -->
<g id="node3" class="node">
<title>events</title>
<g id="a_node3"><a xlink:href="../../tables/events.html" xlink:title="events" target="_top">
<polygon fill="#ffffff" stroke="transparent" points="142,-312.7 142,-512.7 306,-512.7 306,-312.7 142,-312.7"/>
<polygon fill="#f5f5f5" stroke="transparent" points="144,-487.7 144,-510.7 304,-510.7 304,-487.7 144,-487.7"/>
<polygon fill="none" stroke="#000000" points="144,-487.7 144,-510.7 304,-510.7 304,-487.7 144,-487.7"/>
<text text-anchor="start" x="149" y="-496.8" font-family="Helvetica,sans-Serif" font-weight="bold" font-size="11.00" fill="#000000">events</text>
<text text-anchor="start" x="269.0437" y="-495.8" font-family="Helvetica,sans-Serif" font-size="11.00" fill="#000000">[table]</text>
<polygon fill="none" stroke="#000000" points="144,-465.7 144,-487.7 229,-487.7 229,-465.7 144,-465.7"/>
<image xlink:href="../../images/primaryKeys.png" width="11px" height="12px" preserveAspectRatio="xMinYMin meet" x="149" y="-482.7"/>
<text text-anchor="start" x="164" y="-472.8" font-family="Helvetica,sans-Serif" font-size="11.00" fill="#000000">id</text>
<polygon fill="none" stroke="#000000" points="229,-465.7 229,-487.7 304,-487.7 304,-465.7 229,-465.7"/>
<text text-anchor="start" x="232" y="-473.4" font-family="Helvetica,sans-Serif" font-size="11.00" fill="#000000">bigint[19]</text>
<polygon fill="#ffffff" stroke="transparent" points="144,-443.7 144,-465.7 229,-465.7 229,-443.7 144,-443.7"/>
<polygon fill="none" stroke="#000000" points="144,-443.7 144,-465.7 229,-465.7 229,-443.7 144,-443.7"/>
<image xlink:href="../../images/foreignKeys.png" width="11px" height="12px" preserveAspectRatio="xMinYMin meet" x="149" y="-460.7"/>
<text text-anchor="start" x="164" y="-450.8" font-family="Helvetica,sans-Serif" font-size="11.00" fill="#000000">gym_id</text>
<polygon fill="none" stroke="#000000" points="229,-443.7 229,-465.7 304,-465.7 304,-443.7 229,-443.7"/>
<text text-anchor="start" x="232" y="-451.4" font-family="Helvetica,sans-Serif" font-size="11.00" fill="#000000">bigint[19]</text>
<polygon fill="none" stroke="#000000" points="144,-421.7 144,-443.7 229,-443.7 229,-421.7 144,-421.7"/>
<text text-anchor="start" x="164" y="-428.8" font-family="Helvetica,sans-Serif" font-size="11.00" fill="#000000">name</text>
<polygon fill="none" stroke="#000000" points="229,-421.7 229,-443.7 304,-443.7 304,-421.7 229,-421.7"/>
<text text-anchor="start" x="232" y="-429.4" font-family="Helvetica,sans-Serif" font-size="11.00" fill="#000000">char[45]</text>
<polygon fill="none" stroke="#000000" points="144,-399.7 144,-421.7 229,-421.7 229,-399.7 144,-399.7"/>
<text text-anchor="start" x="164" y="-406.8" font-family="Helvetica,sans-Serif" font-size="11.00" fill="#000000">abbrev</text>
<polygon fill="none" stroke="#000000" points="229,-399.7 229,-421.7 304,-421.7 304,-399.7 229,-399.7"/>
<text text-anchor="start" x="232" y="-407.4" font-family="Helvetica,sans-Serif" font-size="11.00" fill="#000000">char[5]</text>
<polygon fill="none" stroke="#000000" points="144,-377.7 144,-399.7 229,-399.7 229,-377.7 144,-377.7"/>
<text text-anchor="start" x="164" y="-384.8" font-family="Helvetica,sans-Serif" font-size="11.00" fill="#000000">created_at</text>
<polygon fill="none" stroke="#000000" points="229,-377.7 229,-399.7 304,-399.7 304,-377.7 229,-377.7"/>
<text text-anchor="start" x="231.9666" y="-385.4" font-family="Helvetica,sans-Serif" font-size="11.00" fill="#000000">timestamp[19]</text>
<polygon fill="none" stroke="#000000" points="144,-355.7 144,-377.7 229,-377.7 229,-355.7 144,-355.7"/>
<text text-anchor="start" x="164" y="-362.8" font-family="Helvetica,sans-Serif" font-size="11.00" fill="#000000">updated_at</text>
<polygon fill="none" stroke="#000000" points="229,-355.7 229,-377.7 304,-377.7 304,-355.7 229,-355.7"/>
<text text-anchor="start" x="231.9666" y="-363.4" font-family="Helvetica,sans-Serif" font-size="11.00" fill="#000000">timestamp[19]</text>
<polygon fill="none" stroke="#000000" points="144,-333.7 144,-355.7 229,-355.7 229,-333.7 144,-333.7"/>
<text text-anchor="start" x="164" y="-340.8" font-family="Helvetica,sans-Serif" font-size="11.00" fill="#000000">deleted_at</text>
<polygon fill="none" stroke="#000000" points="229,-333.7 229,-355.7 304,-355.7 304,-333.7 229,-333.7"/>
<text text-anchor="start" x="231.9666" y="-341.4" font-family="Helvetica,sans-Serif" font-size="11.00" fill="#000000">timestamp[19]</text>
<polygon fill="#ffffff" stroke="transparent" points="144,-314.7 144,-333.7 178,-333.7 178,-314.7 144,-314.7"/>
<polygon fill="none" stroke="#000000" points="144,-314.7 144,-333.7 178,-333.7 178,-314.7 144,-314.7"/>
<text text-anchor="start" x="147" y="-320.8" font-family="Helvetica,sans-Serif" font-size="11.00" fill="#000000">&lt; 1</text>
<polygon fill="#ffffff" stroke="transparent" points="178,-314.7 178,-333.7 229,-333.7 229,-314.7 178,-314.7"/>
<polygon fill="none" stroke="#000000" points="178,-314.7 178,-333.7 229,-333.7 229,-314.7 178,-314.7"/>
<text text-anchor="start" x="193.6105" y="-320.8" font-family="Helvetica,sans-Serif" font-size="11.00" fill="#000000">0 rows</text>
<polygon fill="#ffffff" stroke="transparent" points="229,-314.7 229,-333.7 304,-333.7 304,-314.7 229,-314.7"/>
<polygon fill="none" stroke="#000000" points="229,-314.7 229,-333.7 304,-333.7 304,-314.7 229,-314.7"/>
<text text-anchor="start" x="285.4053" y="-320.8" font-family="Helvetica,sans-Serif" font-size="11.00" fill="#000000">1 &gt;</text>
<polygon fill="none" stroke="#000000" stroke-width="2" points="143,-313.7 143,-511.7 305,-511.7 305,-313.7 143,-313.7"/>
</a>
</g>
</g>
<!-- events&#45;&gt;gyms -->
<g id="edge2" class="edge">
<title>events:w&#45;&gt;gyms:e</title>
<path fill="none" stroke="#000000" d="M129.6703,-452.0925C81.2854,-430.9738 164.8928,-288.7 93.5,-288.7"/>
<polygon fill="#000000" stroke="#000000" points="136.1292,-453.2678 143.3555,-458.2418 140.0646,-453.9839 144,-454.7 144,-454.7 144,-454.7 140.0646,-453.9839 144.6445,-451.1582 136.1292,-453.2678 136.1292,-453.2678"/>
<ellipse fill="none" stroke="#000000" cx="132.9809" cy="-452.6949" rx="3.2" ry="3.2"/>
</g>
<!-- gymnast_has_skills -->
<g id="node4" class="node">
<title>gymnast_has_skills</title>
<g id="a_node4"><a xlink:href="../../tables/gymnast_has_skills.html" xlink:title="gymnast_has_skills" target="_top">
<polygon fill="#ffffff" stroke="transparent" points="493,-271.2 493,-332.2 631,-332.2 631,-271.2 493,-271.2"/>
<polygon fill="#f5f5f5" stroke="transparent" points="493,-308.7 493,-331.7 631,-331.7 631,-308.7 493,-308.7"/>
<polygon fill="none" stroke="#000000" points="493,-308.7 493,-331.7 631,-331.7 631,-308.7 493,-308.7"/>
<text text-anchor="start" x="497.8271" y="-317.8" font-family="Helvetica,sans-Serif" font-weight="bold" font-size="11.00" fill="#000000">gymnast_has_skills</text>
<text text-anchor="start" x="596.5219" y="-316.8" font-family="Helvetica,sans-Serif" font-size="11.00" fill="#000000">[table]</text>
<polygon fill="none" stroke="#000000" points="493,-289.7 493,-308.7 631,-308.7 631,-289.7 493,-289.7"/>
<text text-anchor="start" x="496" y="-295.8" font-family="Helvetica,sans-Serif" font-size="11.00" fill="#000000">...</text>
<polygon fill="#ffffff" stroke="transparent" points="493,-270.7 493,-289.7 547,-289.7 547,-270.7 493,-270.7"/>
<polygon fill="none" stroke="#000000" points="493,-270.7 493,-289.7 547,-289.7 547,-270.7 493,-270.7"/>
<text text-anchor="start" x="496" y="-276.8" font-family="Helvetica,sans-Serif" font-size="11.00" fill="#000000">&lt; 2</text>
<polygon fill="#ffffff" stroke="transparent" points="547,-270.7 547,-289.7 602,-289.7 602,-270.7 547,-270.7"/>
<polygon fill="none" stroke="#000000" points="547,-270.7 547,-289.7 602,-289.7 602,-270.7 547,-270.7"/>
<text text-anchor="start" x="566.6105" y="-276.8" font-family="Helvetica,sans-Serif" font-size="11.00" fill="#000000">0 rows</text>
<polygon fill="#ffffff" stroke="transparent" points="602,-270.7 602,-289.7 631,-289.7 631,-270.7 602,-270.7"/>
<polygon fill="none" stroke="#000000" points="602,-270.7 602,-289.7 631,-289.7 631,-270.7 602,-270.7"/>
<text text-anchor="start" x="621.8862" y="-276.8" font-family="Helvetica,sans-Serif" font-size="11.00" fill="#000000"> &#160;</text>
</a>
</g>
</g>
<!-- skills -->
<g id="node5" class="node">
<title>skills</title>
<g id="a_node5"><a xlink:href="../../tables/skills.html" xlink:title="skills" target="_top">
<polygon fill="#ffffff" stroke="transparent" points="355,-184.2 355,-333.2 443,-333.2 443,-184.2 355,-184.2"/>
<polygon fill="#f5f5f5" stroke="transparent" points="355,-309.7 355,-332.7 443,-332.7 443,-309.7 355,-309.7"/>
<polygon fill="none" stroke="#000000" points="355,-309.7 355,-332.7 443,-332.7 443,-309.7 355,-309.7"/>
<text text-anchor="start" x="360" y="-318.8" font-family="Helvetica,sans-Serif" font-weight="bold" font-size="11.00" fill="#000000">skills</text>
<text text-anchor="start" x="408.0437" y="-317.8" font-family="Helvetica,sans-Serif" font-size="11.00" fill="#000000">[table]</text>
<polygon fill="none" stroke="#000000" points="355,-287.7 355,-309.7 443,-309.7 443,-287.7 355,-287.7"/>
<image xlink:href="../../images/primaryKeys.png" width="11px" height="12px" preserveAspectRatio="xMinYMin meet" x="360" y="-304.7"/>
<text text-anchor="start" x="375" y="-294.8" font-family="Helvetica,sans-Serif" font-size="11.00" fill="#000000">id</text>
<polygon fill="#ffffff" stroke="transparent" points="355,-265.7 355,-287.7 443,-287.7 443,-265.7 355,-265.7"/>
<polygon fill="none" stroke="#000000" points="355,-265.7 355,-287.7 443,-287.7 443,-265.7 355,-265.7"/>
<image xlink:href="../../images/foreignKeys.png" width="11px" height="12px" preserveAspectRatio="xMinYMin meet" x="360" y="-282.7"/>
<text text-anchor="start" x="375" y="-272.8" font-family="Helvetica,sans-Serif" font-size="11.00" fill="#000000">event_id</text>
<polygon fill="#ffffff" stroke="transparent" points="355,-243.7 355,-265.7 443,-265.7 443,-243.7 355,-243.7"/>
<polygon fill="none" stroke="#000000" points="355,-243.7 355,-265.7 443,-265.7 443,-243.7 355,-243.7"/>
<image xlink:href="../../images/foreignKeys.png" width="11px" height="12px" preserveAspectRatio="xMinYMin meet" x="360" y="-260.7"/>
<text text-anchor="start" x="375" y="-250.8" font-family="Helvetica,sans-Serif" font-size="11.00" fill="#000000">category_id</text>
<polygon fill="#ffffff" stroke="transparent" points="355,-221.7 355,-243.7 443,-243.7 443,-221.7 355,-221.7"/>
<polygon fill="none" stroke="#000000" points="355,-221.7 355,-243.7 443,-243.7 443,-221.7 355,-221.7"/>
<image xlink:href="../../images/foreignKeys.png" width="11px" height="12px" preserveAspectRatio="xMinYMin meet" x="360" y="-238.7"/>
<text text-anchor="start" x="375" y="-228.8" font-family="Helvetica,sans-Serif" font-size="11.00" fill="#000000">level_id</text>
<polygon fill="none" stroke="#000000" points="355,-202.7 355,-221.7 443,-221.7 443,-202.7 355,-202.7"/>
<text text-anchor="start" x="358" y="-208.8" font-family="Helvetica,sans-Serif" font-size="11.00" fill="#000000">...</text>
<polygon fill="#ffffff" stroke="transparent" points="355,-183.7 355,-202.7 380,-202.7 380,-183.7 355,-183.7"/>
<polygon fill="none" stroke="#000000" points="355,-183.7 355,-202.7 380,-202.7 380,-183.7 355,-183.7"/>
<text text-anchor="start" x="358" y="-189.8" font-family="Helvetica,sans-Serif" font-size="11.00" fill="#000000">&lt; 3</text>
<polygon fill="#ffffff" stroke="transparent" points="380,-183.7 380,-202.7 420,-202.7 420,-183.7 380,-183.7"/>
<polygon fill="none" stroke="#000000" points="380,-183.7 380,-202.7 420,-202.7 420,-183.7 380,-183.7"/>
<text text-anchor="start" x="384.6105" y="-189.8" font-family="Helvetica,sans-Serif" font-size="11.00" fill="#000000">0 rows</text>
<polygon fill="#ffffff" stroke="transparent" points="420,-183.7 420,-202.7 443,-202.7 443,-183.7 420,-183.7"/>
<polygon fill="none" stroke="#000000" points="420,-183.7 420,-202.7 443,-202.7 443,-183.7 420,-183.7"/>
<text text-anchor="start" x="424.4053" y="-189.8" font-family="Helvetica,sans-Serif" font-size="11.00" fill="#000000">2 &gt;</text>
</a>
</g>
</g>
<!-- gymnast_has_skills&#45;&gt;skills -->
<g id="edge3" class="edge">
<title>gymnast_has_skills:w&#45;&gt;skills:e</title>
<path fill="none" stroke="#000000" d="M478.5647,-298.7C466.8054,-298.7 459.4931,-298.7 443,-298.7"/>
<polygon fill="#000000" stroke="#000000" points="485,-298.7001 493,-302.3 489,-298.7 493,-298.7 493,-298.7 493,-298.7 489,-298.7 493,-295.1 485,-298.7001 485,-298.7001"/>
<ellipse fill="none" stroke="#000000" cx="481.8" cy="-298.7001" rx="3.2" ry="3.2"/>
</g>
<!-- skills&#45;&gt;events -->
<g id="edge9" class="edge">
<title>skills:w&#45;&gt;events:e</title>
<path fill="none" stroke="#000000" d="M340.7037,-278.8108C278.4856,-300.1856 390.1792,-476.7 304,-476.7"/>
<polygon fill="#000000" stroke="#000000" points="347.0858,-277.8685 355.5258,-280.2614 351.0429,-277.2843 355,-276.7 355,-276.7 355,-276.7 351.0429,-277.2843 354.4742,-273.1386 347.0858,-277.8685 347.0858,-277.8685"/>
<ellipse fill="none" stroke="#000000" cx="343.9201" cy="-278.3359" rx="3.2" ry="3.2"/>
</g>
<!-- categories -->
<g id="node9" class="node">
<title>categories</title>
<g id="a_node9"><a xlink:href="../../tables/categories.html" xlink:title="categories" target="_top">
<polygon fill="#ffffff" stroke="transparent" points="177.5,-230.2 177.5,-291.2 270.5,-291.2 270.5,-230.2 177.5,-230.2"/>
<polygon fill="#f5f5f5" stroke="transparent" points="178,-267.7 178,-290.7 271,-290.7 271,-267.7 178,-267.7"/>
<polygon fill="none" stroke="#000000" points="178,-267.7 178,-290.7 271,-290.7 271,-267.7 178,-267.7"/>
<text text-anchor="start" x="182.6329" y="-276.8" font-family="Helvetica,sans-Serif" font-weight="bold" font-size="11.00" fill="#000000">categories</text>
<text text-anchor="start" x="236.5219" y="-275.8" font-family="Helvetica,sans-Serif" font-size="11.00" fill="#000000">[table]</text>
<polygon fill="none" stroke="#000000" points="178,-248.7 178,-267.7 271,-267.7 271,-248.7 178,-248.7"/>
<text text-anchor="start" x="181" y="-254.8" font-family="Helvetica,sans-Serif" font-size="11.00" fill="#000000">...</text>
<polygon fill="#ffffff" stroke="transparent" points="178,-229.7 178,-248.7 201,-248.7 201,-229.7 178,-229.7"/>
<polygon fill="none" stroke="#000000" points="178,-229.7 178,-248.7 201,-248.7 201,-229.7 178,-229.7"/>
<text text-anchor="start" x="181" y="-235.8" font-family="Helvetica,sans-Serif" font-size="11.00" fill="#000000"> &#160;</text>
<polygon fill="#ffffff" stroke="transparent" points="201,-229.7 201,-248.7 244,-248.7 244,-229.7 201,-229.7"/>
<polygon fill="none" stroke="#000000" points="201,-229.7 201,-248.7 244,-248.7 244,-229.7 201,-229.7"/>
<text text-anchor="start" x="208.6105" y="-235.8" font-family="Helvetica,sans-Serif" font-size="11.00" fill="#000000">0 rows</text>
<polygon fill="#ffffff" stroke="transparent" points="244,-229.7 244,-248.7 271,-248.7 271,-229.7 244,-229.7"/>
<polygon fill="none" stroke="#000000" points="244,-229.7 244,-248.7 271,-248.7 271,-229.7 244,-229.7"/>
<text text-anchor="start" x="252.4053" y="-235.8" font-family="Helvetica,sans-Serif" font-size="11.00" fill="#000000">1 &gt;</text>
</a>
</g>
</g>
<!-- skills&#45;&gt;categories -->
<g id="edge8" class="edge">
<title>skills:w&#45;&gt;categories:e</title>
<path fill="none" stroke="#000000" d="M340.3919,-254.8699C314.3723,-255.5045 302.9579,-257.7 271,-257.7"/>
<polygon fill="#000000" stroke="#000000" points="347.0005,-254.7931 355.0419,-258.2998 351.0003,-254.7465 355,-254.7 355,-254.7 355,-254.7 351.0003,-254.7465 354.9581,-251.1002 347.0005,-254.7931 347.0005,-254.7931"/>
<ellipse fill="none" stroke="#000000" cx="343.8008" cy="-254.8303" rx="3.2" ry="3.2"/>
</g>
<!-- levels -->
<g id="node10" class="node">
<title>levels</title>
<g id="a_node10"><a xlink:href="../../tables/levels.html" xlink:title="levels" target="_top">
<polygon fill="#ffffff" stroke="transparent" points="188.5,-148.2 188.5,-209.2 259.5,-209.2 259.5,-148.2 188.5,-148.2"/>
<polygon fill="#f5f5f5" stroke="transparent" points="189,-185.7 189,-208.7 260,-208.7 260,-185.7 189,-185.7"/>
<polygon fill="none" stroke="#000000" points="189,-185.7 189,-208.7 260,-208.7 260,-185.7 189,-185.7"/>
<text text-anchor="start" x="193.9442" y="-194.8" font-family="Helvetica,sans-Serif" font-weight="bold" font-size="11.00" fill="#000000">levels</text>
<text text-anchor="start" x="225.5219" y="-193.8" font-family="Helvetica,sans-Serif" font-size="11.00" fill="#000000">[table]</text>
<polygon fill="none" stroke="#000000" points="189,-166.7 189,-185.7 260,-185.7 260,-166.7 189,-166.7"/>
<text text-anchor="start" x="192" y="-172.8" font-family="Helvetica,sans-Serif" font-size="11.00" fill="#000000">...</text>
<polygon fill="#ffffff" stroke="transparent" points="189,-147.7 189,-166.7 201,-166.7 201,-147.7 189,-147.7"/>
<polygon fill="none" stroke="#000000" points="189,-147.7 189,-166.7 201,-166.7 201,-147.7 189,-147.7"/>
<text text-anchor="start" x="191.9431" y="-153.8" font-family="Helvetica,sans-Serif" font-size="11.00" fill="#000000"> &#160;</text>
<polygon fill="#ffffff" stroke="transparent" points="201,-147.7 201,-166.7 239,-166.7 239,-147.7 201,-147.7"/>
<polygon fill="none" stroke="#000000" points="201,-147.7 201,-166.7 239,-166.7 239,-147.7 201,-147.7"/>
<text text-anchor="start" x="203.8053" y="-153.8" font-family="Helvetica,sans-Serif" font-size="11.00" fill="#000000">0 rows</text>
<polygon fill="#ffffff" stroke="transparent" points="239,-147.7 239,-166.7 260,-166.7 260,-147.7 239,-147.7"/>
<polygon fill="none" stroke="#000000" points="239,-147.7 239,-166.7 260,-166.7 260,-147.7 239,-147.7"/>
<text text-anchor="start" x="241.7027" y="-153.8" font-family="Helvetica,sans-Serif" font-size="11.00" fill="#000000">1 &gt;</text>
</a>
</g>
</g>
<!-- skills&#45;&gt;levels -->
<g id="edge10" class="edge">
<title>skills:w&#45;&gt;levels:e</title>
<path fill="none" stroke="#000000" d="M340.5974,-230.8035C305.8911,-220.9131 303.8536,-175.7 260,-175.7"/>
<polygon fill="#000000" stroke="#000000" points="347.0685,-231.6556 354.53,-236.2692 351.0342,-232.1778 355,-232.7 355,-232.7 355,-232.7 351.0342,-232.1778 355.47,-229.1308 347.0685,-231.6556 347.0685,-231.6556"/>
<ellipse fill="none" stroke="#000000" cx="343.8959" cy="-231.2378" rx="3.2" ry="3.2"/>
</g>
<!-- gyms_has_users -->
<g id="node6" class="node">
<title>gyms_has_users</title>
<g id="a_node6"><a xlink:href="../../tables/gyms_has_users.html" xlink:title="gyms_has_users" target="_top">
<polygon fill="#ffffff" stroke="transparent" points="161,-38.2 161,-99.2 287,-99.2 287,-38.2 161,-38.2"/>
<polygon fill="#f5f5f5" stroke="transparent" points="161,-75.7 161,-98.7 287,-98.7 287,-75.7 161,-75.7"/>
<polygon fill="none" stroke="#000000" points="161,-75.7 161,-98.7 287,-98.7 287,-75.7 161,-75.7"/>
<text text-anchor="start" x="165.936" y="-84.8" font-family="Helvetica,sans-Serif" font-weight="bold" font-size="11.00" fill="#000000">gyms_has_users</text>
<text text-anchor="start" x="252.5219" y="-83.8" font-family="Helvetica,sans-Serif" font-size="11.00" fill="#000000">[table]</text>
<polygon fill="none" stroke="#000000" points="161,-56.7 161,-75.7 287,-75.7 287,-56.7 161,-56.7"/>
<text text-anchor="start" x="164" y="-62.8" font-family="Helvetica,sans-Serif" font-size="11.00" fill="#000000">...</text>
<polygon fill="#ffffff" stroke="transparent" points="161,-37.7 161,-56.7 205,-56.7 205,-37.7 161,-37.7"/>
<polygon fill="none" stroke="#000000" points="161,-37.7 161,-56.7 205,-56.7 205,-37.7 161,-37.7"/>
<text text-anchor="start" x="164" y="-43.8" font-family="Helvetica,sans-Serif" font-size="11.00" fill="#000000">&lt; 2</text>
<polygon fill="#ffffff" stroke="transparent" points="205,-37.7 205,-56.7 254,-56.7 254,-37.7 205,-37.7"/>
<polygon fill="none" stroke="#000000" points="205,-37.7 205,-56.7 254,-56.7 254,-37.7 205,-37.7"/>
<text text-anchor="start" x="218.6105" y="-43.8" font-family="Helvetica,sans-Serif" font-size="11.00" fill="#000000">0 rows</text>
<polygon fill="#ffffff" stroke="transparent" points="254,-37.7 254,-56.7 287,-56.7 287,-37.7 254,-37.7"/>
<polygon fill="none" stroke="#000000" points="254,-37.7 254,-56.7 287,-56.7 287,-37.7 254,-37.7"/>
<text text-anchor="start" x="268.4053" y="-43.8" font-family="Helvetica,sans-Serif" font-size="11.00" fill="#000000">2 &gt;</text>
</a>
</g>
</g>
<!-- gyms_has_users&#45;&gt;gyms -->
<g id="edge4" class="edge">
<title>gyms_has_users:w&#45;&gt;gyms:e</title>
<path fill="none" stroke="#000000" d="M147.7583,-72.1335C115.6411,-108.6966 140.0175,-288.7 93.5,-288.7"/>
<polygon fill="#000000" stroke="#000000" points="153.8043,-69.196 162.5732,-68.9381 157.4022,-67.448 161,-65.7 161,-65.7 161,-65.7 157.4022,-67.448 159.4268,-62.4619 153.8043,-69.196 153.8043,-69.196"/>
<ellipse fill="none" stroke="#000000" cx="150.926" cy="-70.5945" rx="3.2" ry="3.2"/>
</g>
<!-- skill_lists -->
<g id="node7" class="node">
<title>skill_lists</title>
<g id="a_node7"><a xlink:href="../../tables/skill_lists.html" xlink:title="skill_lists" target="_top">
<polygon fill="#ffffff" stroke="transparent" points="356,-100.2 356,-161.2 442,-161.2 442,-100.2 356,-100.2"/>
<polygon fill="#f5f5f5" stroke="transparent" points="356,-137.7 356,-160.7 442,-160.7 442,-137.7 356,-137.7"/>
<polygon fill="none" stroke="#000000" points="356,-137.7 356,-160.7 442,-160.7 442,-137.7 356,-137.7"/>
<text text-anchor="start" x="360.8119" y="-146.8" font-family="Helvetica,sans-Serif" font-weight="bold" font-size="11.00" fill="#000000">skill_lists</text>
<text text-anchor="start" x="407.5219" y="-145.8" font-family="Helvetica,sans-Serif" font-size="11.00" fill="#000000">[table]</text>
<polygon fill="none" stroke="#000000" points="356,-118.7 356,-137.7 442,-137.7 442,-118.7 356,-118.7"/>
<text text-anchor="start" x="359" y="-124.8" font-family="Helvetica,sans-Serif" font-size="11.00" fill="#000000">...</text>
<polygon fill="#ffffff" stroke="transparent" points="356,-99.7 356,-118.7 380,-118.7 380,-99.7 356,-99.7"/>
<polygon fill="none" stroke="#000000" points="356,-99.7 356,-118.7 380,-118.7 380,-99.7 356,-99.7"/>
<text text-anchor="start" x="359" y="-105.8" font-family="Helvetica,sans-Serif" font-size="11.00" fill="#000000">&lt; 1</text>
<polygon fill="#ffffff" stroke="transparent" points="380,-99.7 380,-118.7 419,-118.7 419,-99.7 380,-99.7"/>
<polygon fill="none" stroke="#000000" points="380,-99.7 380,-118.7 419,-118.7 419,-99.7 380,-99.7"/>
<text text-anchor="start" x="383.6105" y="-105.8" font-family="Helvetica,sans-Serif" font-size="11.00" fill="#000000">0 rows</text>
<polygon fill="#ffffff" stroke="transparent" points="419,-99.7 419,-118.7 442,-118.7 442,-99.7 419,-99.7"/>
<polygon fill="none" stroke="#000000" points="419,-99.7 419,-118.7 442,-118.7 442,-99.7 419,-99.7"/>
<text text-anchor="start" x="423.4053" y="-105.8" font-family="Helvetica,sans-Serif" font-size="11.00" fill="#000000">2 &gt;</text>
</a>
</g>
</g>
<!-- skill_lists&#45;&gt;gyms -->
<g id="edge5" class="edge">
<title>skill_lists:w&#45;&gt;gyms:e</title>
<path fill="none" stroke="#000000" d="M341.5054,-127.2824C284.2708,-124.4853 169.1875,-109.4261 134,-137.7 79.8359,-181.2219 162.9831,-288.7 93.5,-288.7"/>
<polygon fill="#000000" stroke="#000000" points="348.0033,-127.4696 355.8963,-131.2985 352.0017,-127.5848 356,-127.7 356,-127.7 356,-127.7 352.0017,-127.5848 356.1037,-124.1015 348.0033,-127.4696 348.0033,-127.4696"/>
<ellipse fill="none" stroke="#000000" cx="344.8046" cy="-127.3774" rx="3.2" ry="3.2"/>
</g>
<!-- skill_lists_has_skills -->
<g id="node8" class="node">
<title>skill_lists_has_skills</title>
<g id="a_node8"><a xlink:href="../../tables/skill_lists_has_skills.html" xlink:title="skill_lists_has_skills" target="_top">
<polygon fill="#ffffff" stroke="transparent" points="492,-144.2 492,-205.2 632,-205.2 632,-144.2 492,-144.2"/>
<polygon fill="#f5f5f5" stroke="transparent" points="492,-181.7 492,-204.7 632,-204.7 632,-181.7 492,-181.7"/>
<polygon fill="none" stroke="#000000" points="492,-181.7 492,-204.7 632,-204.7 632,-181.7 492,-181.7"/>
<text text-anchor="start" x="496.9207" y="-190.8" font-family="Helvetica,sans-Serif" font-weight="bold" font-size="11.00" fill="#000000">skill_lists_has_skills</text>
<text text-anchor="start" x="597.5219" y="-189.8" font-family="Helvetica,sans-Serif" font-size="11.00" fill="#000000">[table]</text>
<polygon fill="none" stroke="#000000" points="492,-162.7 492,-181.7 632,-181.7 632,-162.7 492,-162.7"/>
<text text-anchor="start" x="495" y="-168.8" font-family="Helvetica,sans-Serif" font-size="11.00" fill="#000000">...</text>
<polygon fill="#ffffff" stroke="transparent" points="492,-143.7 492,-162.7 547,-162.7 547,-143.7 492,-143.7"/>
<polygon fill="none" stroke="#000000" points="492,-143.7 492,-162.7 547,-162.7 547,-143.7 492,-143.7"/>
<text text-anchor="start" x="495" y="-149.8" font-family="Helvetica,sans-Serif" font-size="11.00" fill="#000000">&lt; 2</text>
<polygon fill="#ffffff" stroke="transparent" points="547,-143.7 547,-162.7 602,-162.7 602,-143.7 547,-143.7"/>
<polygon fill="none" stroke="#000000" points="547,-143.7 547,-162.7 602,-162.7 602,-143.7 547,-143.7"/>
<text text-anchor="start" x="566.6105" y="-149.8" font-family="Helvetica,sans-Serif" font-size="11.00" fill="#000000">0 rows</text>
<polygon fill="#ffffff" stroke="transparent" points="602,-143.7 602,-162.7 632,-162.7 632,-143.7 602,-143.7"/>
<polygon fill="none" stroke="#000000" points="602,-143.7 602,-162.7 632,-162.7 632,-143.7 602,-143.7"/>
<text text-anchor="start" x="622.8862" y="-149.8" font-family="Helvetica,sans-Serif" font-size="11.00" fill="#000000"> &#160;</text>
</a>
</g>
</g>
<!-- skill_lists_has_skills&#45;&gt;skills -->
<g id="edge6" class="edge">
<title>skill_lists_has_skills:w&#45;&gt;skills:e</title>
<path fill="none" stroke="#000000" d="M477.8195,-175.0969C444.2989,-195.2935 497.5918,-298.7 443,-298.7"/>
<polygon fill="#000000" stroke="#000000" points="484.2201,-173.5637 492.8387,-175.201 488.1101,-172.6319 492,-171.7 492,-171.7 492,-171.7 488.1101,-172.6319 491.1613,-168.199 484.2201,-173.5637 484.2201,-173.5637"/>
<ellipse fill="none" stroke="#000000" cx="481.1081" cy="-174.3092" rx="3.2" ry="3.2"/>
</g>
<!-- skill_lists_has_skills&#45;&gt;skill_lists -->
<g id="edge7" class="edge">
<title>skill_lists_has_skills:w&#45;&gt;skill_lists:e</title>
<path fill="none" stroke="#000000" d="M478.1144,-166.9912C464.5362,-155.6404 465.5887,-127.7 442,-127.7"/>
<polygon fill="#000000" stroke="#000000" points="484.4238,-169.1308 490.8439,-175.1093 488.2119,-170.4154 492,-171.7 492,-171.7 492,-171.7 488.2119,-170.4154 493.1561,-168.2907 484.4238,-169.1308 484.4238,-169.1308"/>
<ellipse fill="none" stroke="#000000" cx="481.3933" cy="-168.1031" rx="3.2" ry="3.2"/>
</g>
</g>
</svg>
