<?xml version="1.0" encoding="UTF-8" standalone="no"?>
<!DOCTYPE svg PUBLIC "-//W3C//DTD SVG 1.1//EN"
 "http://www.w3.org/Graphics/SVG/1.1/DTD/svg11.dtd">
<!-- Generated by graphviz version 2.40.1 (20161225.0304)
 -->
<!-- Title: twoDegreesRelationshipsDiagram Pages: 1 -->
<svg width="646pt" height="497pt"
 viewBox="0.00 0.00 646.00 497.20" xmlns="http://www.w3.org/2000/svg" xmlns:xlink="http://www.w3.org/1999/xlink">
<g id="graph0" class="graph" transform="scale(1 1) rotate(0) translate(4 493.2)">
<title>twoDegreesRelationshipsDiagram</title>
<polygon fill="#ffffff" stroke="transparent" points="-4,4 -4,-493.2 642,-493.2 642,4 -4,4"/>
<text text-anchor="middle" x="72.4936" y="-7.3" font-family="Helvetica,sans-Serif" font-size="11.00" fill="#000000">Generated by SchemaSpy</text>
<!-- events -->
<g id="node1" class="node">
<title>events</title>
<g id="a_node1"><a xlink:href="../../tables/events.html" xlink:title="events" target="_top">
<polygon fill="#ffffff" stroke="transparent" points="142,-202.7 142,-402.7 306,-402.7 306,-202.7 142,-202.7"/>
<polygon fill="#f5f5f5" stroke="transparent" points="144,-377.7 144,-400.7 304,-400.7 304,-377.7 144,-377.7"/>
<polygon fill="none" stroke="#000000" points="144,-377.7 144,-400.7 304,-400.7 304,-377.7 144,-377.7"/>
<text text-anchor="start" x="149" y="-386.8" font-family="Helvetica,sans-Serif" font-weight="bold" font-size="11.00" fill="#000000">events</text>
<text text-anchor="start" x="269.0437" y="-385.8" font-family="Helvetica,sans-Serif" font-size="11.00" fill="#000000">[table]</text>
<polygon fill="none" stroke="#000000" points="144,-355.7 144,-377.7 229,-377.7 229,-355.7 144,-355.7"/>
<image xlink:href="../../images/primaryKeys.png" width="11px" height="12px" preserveAspectRatio="xMinYMin meet" x="149" y="-372.7"/>
<text text-anchor="start" x="164" y="-362.8" font-family="Helvetica,sans-Serif" font-size="11.00" fill="#000000">id</text>
<polygon fill="none" stroke="#000000" points="229,-355.7 229,-377.7 304,-377.7 304,-355.7 229,-355.7"/>
<text text-anchor="start" x="232" y="-363.4" font-family="Helvetica,sans-Serif" font-size="11.00" fill="#000000">bigint[19]</text>
<polygon fill="#ffffff" stroke="transparent" points="144,-333.7 144,-355.7 229,-355.7 229,-333.7 144,-333.7"/>
<polygon fill="none" stroke="#000000" points="144,-333.7 144,-355.7 229,-355.7 229,-333.7 144,-333.7"/>
<image xlink:href="../../images/foreignKeys.png" width="11px" height="12px" preserveAspectRatio="xMinYMin meet" x="149" y="-350.7"/>
<text text-anchor="start" x="164" y="-340.8" font-family="Helvetica,sans-Serif" font-size="11.00" fill="#000000">gym_id</text>
<polygon fill="none" stroke="#000000" points="229,-333.7 229,-355.7 304,-355.7 304,-333.7 229,-333.7"/>
<text text-anchor="start" x="232" y="-341.4" font-family="Helvetica,sans-Serif" font-size="11.00" fill="#000000">bigint[19]</text>
<polygon fill="none" stroke="#000000" points="144,-311.7 144,-333.7 229,-333.7 229,-311.7 144,-311.7"/>
<text text-anchor="start" x="164" y="-318.8" font-family="Helvetica,sans-Serif" font-size="11.00" fill="#000000">name</text>
<polygon fill="none" stroke="#000000" points="229,-311.7 229,-333.7 304,-333.7 304,-311.7 229,-311.7"/>
<text text-anchor="start" x="232" y="-319.4" font-family="Helvetica,sans-Serif" font-size="11.00" fill="#000000">char[45]</text>
<polygon fill="none" stroke="#000000" points="144,-289.7 144,-311.7 229,-311.7 229,-289.7 144,-289.7"/>
<text text-anchor="start" x="164" y="-296.8" font-family="Helvetica,sans-Serif" font-size="11.00" fill="#000000">abbrev</text>
<polygon fill="none" stroke="#000000" points="229,-289.7 229,-311.7 304,-311.7 304,-289.7 229,-289.7"/>
<text text-anchor="start" x="232" y="-297.4" font-family="Helvetica,sans-Serif" font-size="11.00" fill="#000000">char[5]</text>
<polygon fill="none" stroke="#000000" points="144,-267.7 144,-289.7 229,-289.7 229,-267.7 144,-267.7"/>
<text text-anchor="start" x="164" y="-274.8" font-family="Helvetica,sans-Serif" font-size="11.00" fill="#000000">created_at</text>
<polygon fill="none" stroke="#000000" points="229,-267.7 229,-289.7 304,-289.7 304,-267.7 229,-267.7"/>
<text text-anchor="start" x="231.9666" y="-275.4" font-family="Helvetica,sans-Serif" font-size="11.00" fill="#000000">timestamp[19]</text>
<polygon fill="none" stroke="#000000" points="144,-245.7 144,-267.7 229,-267.7 229,-245.7 144,-245.7"/>
<text text-anchor="start" x="164" y="-252.8" font-family="Helvetica,sans-Serif" font-size="11.00" fill="#000000">updated_at</text>
<polygon fill="none" stroke="#000000" points="229,-245.7 229,-267.7 304,-267.7 304,-245.7 229,-245.7"/>
<text text-anchor="start" x="231.9666" y="-253.4" font-family="Helvetica,sans-Serif" font-size="11.00" fill="#000000">timestamp[19]</text>
<polygon fill="none" stroke="#000000" points="144,-223.7 144,-245.7 229,-245.7 229,-223.7 144,-223.7"/>
<text text-anchor="start" x="164" y="-230.8" font-family="Helvetica,sans-Serif" font-size="11.00" fill="#000000">deleted_at</text>
<polygon fill="none" stroke="#000000" points="229,-223.7 229,-245.7 304,-245.7 304,-223.7 229,-223.7"/>
<text text-anchor="start" x="231.9666" y="-231.4" font-family="Helvetica,sans-Serif" font-size="11.00" fill="#000000">timestamp[19]</text>
<polygon fill="#ffffff" stroke="transparent" points="144,-204.7 144,-223.7 178,-223.7 178,-204.7 144,-204.7"/>
<polygon fill="none" stroke="#000000" points="144,-204.7 144,-223.7 178,-223.7 178,-204.7 144,-204.7"/>
<text text-anchor="start" x="147" y="-210.8" font-family="Helvetica,sans-Serif" font-size="11.00" fill="#000000">&lt; 1</text>
<polygon fill="#ffffff" stroke="transparent" points="178,-204.7 178,-223.7 229,-223.7 229,-204.7 178,-204.7"/>
<polygon fill="none" stroke="#000000" points="178,-204.7 178,-223.7 229,-223.7 229,-204.7 178,-204.7"/>
<text text-anchor="start" x="193.6105" y="-210.8" font-family="Helvetica,sans-Serif" font-size="11.00" fill="#000000">0 rows</text>
<polygon fill="#ffffff" stroke="transparent" points="229,-204.7 229,-223.7 304,-223.7 304,-204.7 229,-204.7"/>
<polygon fill="none" stroke="#000000" points="229,-204.7 229,-223.7 304,-223.7 304,-204.7 229,-204.7"/>
<text text-anchor="start" x="285.4053" y="-210.8" font-family="Helvetica,sans-Serif" font-size="11.00" fill="#000000">1 &gt;</text>
<polygon fill="none" stroke="#000000" stroke-width="2" points="143,-203.7 143,-401.7 305,-401.7 305,-203.7 143,-203.7"/>
</a>
</g>
</g>
<!-- gyms -->
<g id="node2" class="node">
<title>gyms</title>
<g id="a_node2"><a xlink:href="../../tables/gyms.html" xlink:title="gyms" target="_top">
<polygon fill="#ffffff" stroke="transparent" points="8,-349.2 8,-432.2 93,-432.2 93,-349.2 8,-349.2"/>
<polygon fill="#f5f5f5" stroke="transparent" points="8.5,-408.7 8.5,-431.7 93.5,-431.7 93.5,-408.7 8.5,-408.7"/>
<polygon fill="none" stroke="#000000" points="8.5,-408.7 8.5,-431.7 93.5,-431.7 93.5,-408.7 8.5,-408.7"/>
<text text-anchor="start" x="13.5" y="-417.8" font-family="Helvetica,sans-Serif" font-weight="bold" font-size="11.00" fill="#000000">gyms</text>
<text text-anchor="start" x="58.5437" y="-416.8" font-family="Helvetica,sans-Serif" font-size="11.00" fill="#000000">[table]</text>
<polygon fill="none" stroke="#000000" points="8.5,-386.7 8.5,-408.7 93.5,-408.7 93.5,-386.7 8.5,-386.7"/>
<image xlink:href="../../images/primaryKeys.png" width="11px" height="12px" preserveAspectRatio="xMinYMin meet" x="13.5" y="-403.7"/>
<text text-anchor="start" x="28.5" y="-393.8" font-family="Helvetica,sans-Serif" font-size="11.00" fill="#000000">id</text>
<polygon fill="none" stroke="#000000" points="8.5,-367.7 8.5,-386.7 93.5,-386.7 93.5,-367.7 8.5,-367.7"/>
<text text-anchor="start" x="11.5" y="-373.8" font-family="Helvetica,sans-Serif" font-size="11.00" fill="#000000">...</text>
<polygon fill="#ffffff" stroke="transparent" points="8.5,-348.7 8.5,-367.7 27.5,-367.7 27.5,-348.7 8.5,-348.7"/>
<polygon fill="none" stroke="#000000" points="8.5,-348.7 8.5,-367.7 27.5,-367.7 27.5,-348.7 8.5,-348.7"/>
<text text-anchor="start" x="11.5" y="-354.8" font-family="Helvetica,sans-Serif" font-size="11.00" fill="#000000"> &#160;</text>
<polygon fill="#ffffff" stroke="transparent" points="27.5,-348.7 27.5,-367.7 68.5,-367.7 68.5,-348.7 27.5,-348.7"/>
<polygon fill="none" stroke="#000000" points="27.5,-348.7 27.5,-367.7 68.5,-367.7 68.5,-348.7 27.5,-348.7"/>
<text text-anchor="start" x="33.1105" y="-354.8" font-family="Helvetica,sans-Serif" font-size="11.00" fill="#000000">0 rows</text>
<polygon fill="#ffffff" stroke="transparent" points="68.5,-348.7 68.5,-367.7 93.5,-367.7 93.5,-348.7 68.5,-348.7"/>
<polygon fill="none" stroke="#000000" points="68.5,-348.7 68.5,-367.7 93.5,-367.7 93.5,-348.7 68.5,-348.7"/>
<text text-anchor="start" x="74.9053" y="-354.8" font-family="Helvetica,sans-Serif" font-size="11.00" fill="#000000">2 &gt;</text>
</a>
</g>
</g>
<!-- events&#45;&gt;gyms -->
<g id="edge1" class="edge">
<title>events:w&#45;&gt;gyms:e</title>
<path fill="none" stroke="#000000" d="M130.0458,-349.5911C115.2722,-362.7117 119.9358,-397.7 93.5,-397.7"/>
<polygon fill="#000000" stroke="#000000" points="136.4503,-347.3463 145.1908,-348.0974 140.2252,-346.0231 144,-344.7 144,-344.7 144,-344.7 140.2252,-346.0231 142.8092,-341.3026 136.4503,-347.3463 136.4503,-347.3463"/>
<ellipse fill="none" stroke="#000000" cx="133.4305" cy="-348.4048" rx="3.2" ry="3.2"/>
</g>
<!-- gymnast_has_skills -->
<g id="node3" class="node">
<title>gymnast_has_skills</title>
<g id="a_node3"><a xlink:href="../../tables/gymnast_has_skills.html" xlink:title="gymnast_has_skills" target="_top">
<polygon fill="#ffffff" stroke="transparent" points="492,-164.2 492,-225.2 630,-225.2 630,-164.2 492,-164.2"/>
<polygon fill="#f5f5f5" stroke="transparent" points="492,-201.7 492,-224.7 630,-224.7 630,-201.7 492,-201.7"/>
<polygon fill="none" stroke="#000000" points="492,-201.7 492,-224.7 630,-224.7 630,-201.7 492,-201.7"/>
<text text-anchor="start" x="496.8271" y="-210.8" font-family="Helvetica,sans-Serif" font-weight="bold" font-size="11.00" fill="#000000">gymnast_has_skills</text>
<text text-anchor="start" x="595.5219" y="-209.8" font-family="Helvetica,sans-Serif" font-size="11.00" fill="#000000">[table]</text>
<polygon fill="none" stroke="#000000" points="492,-182.7 492,-201.7 630,-201.7 630,-182.7 492,-182.7"/>
<text text-anchor="start" x="495" y="-188.8" font-family="Helvetica,sans-Serif" font-size="11.00" fill="#000000">...</text>
<polygon fill="#ffffff" stroke="transparent" points="492,-163.7 492,-182.7 546,-182.7 546,-163.7 492,-163.7"/>
<polygon fill="none" stroke="#000000" points="492,-163.7 492,-182.7 546,-182.7 546,-163.7 492,-163.7"/>
<text text-anchor="start" x="495" y="-169.8" font-family="Helvetica,sans-Serif" font-size="11.00" fill="#000000">&lt; 2</text>
<polygon fill="#ffffff" stroke="transparent" points="546,-163.7 546,-182.7 601,-182.7 601,-163.7 546,-163.7"/>
<polygon fill="none" stroke="#000000" points="546,-163.7 546,-182.7 601,-182.7 601,-163.7 546,-163.7"/>
<text text-anchor="start" x="565.6105" y="-169.8" font-family="Helvetica,sans-Serif" font-size="11.00" fill="#000000">0 rows</text>
<polygon fill="#ffffff" stroke="transparent" points="601,-163.7 601,-182.7 630,-182.7 630,-163.7 601,-163.7"/>
<polygon fill="none" stroke="#000000" points="601,-163.7 601,-182.7 630,-182.7 630,-163.7 601,-163.7"/>
<text text-anchor="start" x="620.8862" y="-169.8" font-family="Helvetica,sans-Serif" font-size="11.00" fill="#000000"> &#160;</text>
</a>
</g>
</g>
<!-- skills -->
<g id="node4" class="node">
<title>skills</title>
<g id="a_node4"><a xlink:href="../../tables/skills.html" xlink:title="skills" target="_top">
<polygon fill="#ffffff" stroke="transparent" points="355,-77.2 355,-226.2 443,-226.2 443,-77.2 355,-77.2"/>
<polygon fill="#f5f5f5" stroke="transparent" points="355,-202.7 355,-225.7 443,-225.7 443,-202.7 355,-202.7"/>
<polygon fill="none" stroke="#000000" points="355,-202.7 355,-225.7 443,-225.7 443,-202.7 355,-202.7"/>
<text text-anchor="start" x="360" y="-211.8" font-family="Helvetica,sans-Serif" font-weight="bold" font-size="11.00" fill="#000000">skills</text>
<text text-anchor="start" x="408.0437" y="-210.8" font-family="Helvetica,sans-Serif" font-size="11.00" fill="#000000">[table]</text>
<polygon fill="none" stroke="#000000" points="355,-180.7 355,-202.7 443,-202.7 443,-180.7 355,-180.7"/>
<image xlink:href="../../images/primaryKeys.png" width="11px" height="12px" preserveAspectRatio="xMinYMin meet" x="360" y="-197.7"/>
<text text-anchor="start" x="375" y="-187.8" font-family="Helvetica,sans-Serif" font-size="11.00" fill="#000000">id</text>
<polygon fill="#ffffff" stroke="transparent" points="355,-158.7 355,-180.7 443,-180.7 443,-158.7 355,-158.7"/>
<polygon fill="none" stroke="#000000" points="355,-158.7 355,-180.7 443,-180.7 443,-158.7 355,-158.7"/>
<image xlink:href="../../images/foreignKeys.png" width="11px" height="12px" preserveAspectRatio="xMinYMin meet" x="360" y="-175.7"/>
<text text-anchor="start" x="375" y="-165.8" font-family="Helvetica,sans-Serif" font-size="11.00" fill="#000000">event_id</text>
<polygon fill="#ffffff" stroke="transparent" points="355,-136.7 355,-158.7 443,-158.7 443,-136.7 355,-136.7"/>
<polygon fill="none" stroke="#000000" points="355,-136.7 355,-158.7 443,-158.7 443,-136.7 355,-136.7"/>
<image xlink:href="../../images/foreignKeys.png" width="11px" height="12px" preserveAspectRatio="xMinYMin meet" x="360" y="-153.7"/>
<text text-anchor="start" x="375" y="-143.8" font-family="Helvetica,sans-Serif" font-size="11.00" fill="#000000">category_id</text>
<polygon fill="#ffffff" stroke="transparent" points="355,-114.7 355,-136.7 443,-136.7 443,-114.7 355,-114.7"/>
<polygon fill="none" stroke="#000000" points="355,-114.7 355,-136.7 443,-136.7 443,-114.7 355,-114.7"/>
<image xlink:href="../../images/foreignKeys.png" width="11px" height="12px" preserveAspectRatio="xMinYMin meet" x="360" y="-131.7"/>
<text text-anchor="start" x="375" y="-121.8" font-family="Helvetica,sans-Serif" font-size="11.00" fill="#000000">level_id</text>
<polygon fill="none" stroke="#000000" points="355,-95.7 355,-114.7 443,-114.7 443,-95.7 355,-95.7"/>
<text text-anchor="start" x="358" y="-101.8" font-family="Helvetica,sans-Serif" font-size="11.00" fill="#000000">...</text>
<polygon fill="#ffffff" stroke="transparent" points="355,-76.7 355,-95.7 380,-95.7 380,-76.7 355,-76.7"/>
<polygon fill="none" stroke="#000000" points="355,-76.7 355,-95.7 380,-95.7 380,-76.7 355,-76.7"/>
<text text-anchor="start" x="358" y="-82.8" font-family="Helvetica,sans-Serif" font-size="11.00" fill="#000000">&lt; 3</text>
<polygon fill="#ffffff" stroke="transparent" points="380,-76.7 380,-95.7 420,-95.7 420,-76.7 380,-76.7"/>
<polygon fill="none" stroke="#000000" points="380,-76.7 380,-95.7 420,-95.7 420,-76.7 380,-76.7"/>
<text text-anchor="start" x="384.6105" y="-82.8" font-family="Helvetica,sans-Serif" font-size="11.00" fill="#000000">0 rows</text>
<polygon fill="#ffffff" stroke="transparent" points="420,-76.7 420,-95.7 443,-95.7 443,-76.7 420,-76.7"/>
<polygon fill="none" stroke="#000000" points="420,-76.7 420,-95.7 443,-95.7 443,-76.7 420,-76.7"/>
<text text-anchor="start" x="424.4053" y="-82.8" font-family="Helvetica,sans-Serif" font-size="11.00" fill="#000000">1 &gt;</text>
</a>
</g>
</g>
<!-- gymnast_has_skills&#45;&gt;skills -->
<g id="edge2" class="edge">
<title>gymnast_has_skills:w&#45;&gt;skills:e</title>
<path fill="none" stroke="#000000" d="M477.4909,-191.7C466.1774,-191.7 458.9931,-191.7 443,-191.7"/>
<polygon fill="#000000" stroke="#000000" points="484,-191.7001 492,-195.3 488,-191.7 492,-191.7 492,-191.7 492,-191.7 488,-191.7 492,-188.1 484,-191.7001 484,-191.7001"/>
<ellipse fill="none" stroke="#000000" cx="480.8" cy="-191.7001" rx="3.2" ry="3.2"/>
</g>
<!-- skills&#45;&gt;events -->
<g id="edge5" class="edge">
<title>skills:w&#45;&gt;events:e</title>
<path fill="none" stroke="#000000" d="M340.5165,-171.9124C279.9329,-193.5555 388.7894,-366.7 304,-366.7"/>
<polygon fill="#000000" stroke="#000000" points="347.0917,-170.9081 355.5436,-173.2587 351.0459,-170.304 355,-169.7 355,-169.7 355,-169.7 351.0459,-170.304 354.4564,-166.1413 347.0917,-170.9081 347.0917,-170.9081"/>
<ellipse fill="none" stroke="#000000" cx="343.9284" cy="-171.3913" rx="3.2" ry="3.2"/>
</g>
<!-- categories -->
<g id="node6" class="node">
<title>categories</title>
<g id="a_node6"><a xlink:href="../../tables/categories.html" xlink:title="categories" target="_top">
<polygon fill="#ffffff" stroke="transparent" points="177.5,-120.2 177.5,-181.2 270.5,-181.2 270.5,-120.2 177.5,-120.2"/>
<polygon fill="#f5f5f5" stroke="transparent" points="178,-157.7 178,-180.7 271,-180.7 271,-157.7 178,-157.7"/>
<polygon fill="none" stroke="#000000" points="178,-157.7 178,-180.7 271,-180.7 271,-157.7 178,-157.7"/>
<text text-anchor="start" x="182.6329" y="-166.8" font-family="Helvetica,sans-Serif" font-weight="bold" font-size="11.00" fill="#000000">categories</text>
<text text-anchor="start" x="236.5219" y="-165.8" font-family="Helvetica,sans-Serif" font-size="11.00" fill="#000000">[table]</text>
<polygon fill="none" stroke="#000000" points="178,-138.7 178,-157.7 271,-157.7 271,-138.7 178,-138.7"/>
<text text-anchor="start" x="181" y="-144.8" font-family="Helvetica,sans-Serif" font-size="11.00" fill="#000000">...</text>
<polygon fill="#ffffff" stroke="transparent" points="178,-119.7 178,-138.7 201,-138.7 201,-119.7 178,-119.7"/>
<polygon fill="none" stroke="#000000" points="178,-119.7 178,-138.7 201,-138.7 201,-119.7 178,-119.7"/>
<text text-anchor="start" x="181" y="-125.8" font-family="Helvetica,sans-Serif" font-size="11.00" fill="#000000"> &#160;</text>
<polygon fill="#ffffff" stroke="transparent" points="201,-119.7 201,-138.7 244,-138.7 244,-119.7 201,-119.7"/>
<polygon fill="none" stroke="#000000" points="201,-119.7 201,-138.7 244,-138.7 244,-119.7 201,-119.7"/>
<text text-anchor="start" x="208.6105" y="-125.8" font-family="Helvetica,sans-Serif" font-size="11.00" fill="#000000">0 rows</text>
<polygon fill="#ffffff" stroke="transparent" points="244,-119.7 244,-138.7 271,-138.7 271,-119.7 244,-119.7"/>
<polygon fill="none" stroke="#000000" points="244,-119.7 244,-138.7 271,-138.7 271,-119.7 244,-119.7"/>
<text text-anchor="start" x="252.4053" y="-125.8" font-family="Helvetica,sans-Serif" font-size="11.00" fill="#000000">1 &gt;</text>
</a>
</g>
</g>
<!-- skills&#45;&gt;categories -->
<g id="edge4" class="edge">
<title>skills:w&#45;&gt;categories:e</title>
<path fill="none" stroke="#000000" d="M340.3981,-147.7C314.3839,-147.7 302.9375,-147.7 271,-147.7"/>
<polygon fill="#000000" stroke="#000000" points="347,-147.7001 355,-151.3 351,-147.7 355,-147.7 355,-147.7 355,-147.7 351,-147.7 355,-144.1 347,-147.7001 347,-147.7001"/>
<ellipse fill="none" stroke="#000000" cx="343.8" cy="-147.7001" rx="3.2" ry="3.2"/>
</g>
<!-- levels -->
<g id="node7" class="node">
<title>levels</title>
<g id="a_node7"><a xlink:href="../../tables/levels.html" xlink:title="levels" target="_top">
<polygon fill="#ffffff" stroke="transparent" points="188.5,-38.2 188.5,-99.2 259.5,-99.2 259.5,-38.2 188.5,-38.2"/>
<polygon fill="#f5f5f5" stroke="transparent" points="189,-75.7 189,-98.7 260,-98.7 260,-75.7 189,-75.7"/>
<polygon fill="none" stroke="#000000" points="189,-75.7 189,-98.7 260,-98.7 260,-75.7 189,-75.7"/>
<text text-anchor="start" x="193.9442" y="-84.8" font-family="Helvetica,sans-Serif" font-weight="bold" font-size="11.00" fill="#000000">levels</text>
<text text-anchor="start" x="225.5219" y="-83.8" font-family="Helvetica,sans-Serif" font-size="11.00" fill="#000000">[table]</text>
<polygon fill="none" stroke="#000000" points="189,-56.7 189,-75.7 260,-75.7 260,-56.7 189,-56.7"/>
<text text-anchor="start" x="192" y="-62.8" font-family="Helvetica,sans-Serif" font-size="11.00" fill="#000000">...</text>
<polygon fill="#ffffff" stroke="transparent" points="189,-37.7 189,-56.7 201,-56.7 201,-37.7 189,-37.7"/>
<polygon fill="none" stroke="#000000" points="189,-37.7 189,-56.7 201,-56.7 201,-37.7 189,-37.7"/>
<text text-anchor="start" x="191.9431" y="-43.8" font-family="Helvetica,sans-Serif" font-size="11.00" fill="#000000"> &#160;</text>
<polygon fill="#ffffff" stroke="transparent" points="201,-37.7 201,-56.7 239,-56.7 239,-37.7 201,-37.7"/>
<polygon fill="none" stroke="#000000" points="201,-37.7 201,-56.7 239,-56.7 239,-37.7 201,-37.7"/>
<text text-anchor="start" x="203.8053" y="-43.8" font-family="Helvetica,sans-Serif" font-size="11.00" fill="#000000">0 rows</text>
<polygon fill="#ffffff" stroke="transparent" points="239,-37.7 239,-56.7 260,-56.7 260,-37.7 239,-37.7"/>
<polygon fill="none" stroke="#000000" points="239,-37.7 239,-56.7 260,-56.7 260,-37.7 239,-37.7"/>
<text text-anchor="start" x="241.7027" y="-43.8" font-family="Helvetica,sans-Serif" font-size="11.00" fill="#000000">1 &gt;</text>
</a>
</g>
</g>
<!-- skills&#45;&gt;levels -->
<g id="edge6" class="edge">
<title>skills:w&#45;&gt;levels:e</title>
<path fill="none" stroke="#000000" d="M340.4378,-123.7037C305.4728,-113.2928 304.4762,-65.7 260,-65.7"/>
<polygon fill="#000000" stroke="#000000" points="347.0741,-124.6134 354.511,-129.2666 351.0371,-125.1567 355,-125.7 355,-125.7 355,-125.7 351.0371,-125.1567 355.489,-122.1334 347.0741,-124.6134 347.0741,-124.6134"/>
<ellipse fill="none" stroke="#000000" cx="343.9038" cy="-124.1788" rx="3.2" ry="3.2"/>
</g>
<!-- gyms_has_users -->
<g id="node5" class="node">
<title>gyms_has_users</title>
<g id="a_node5"><a xlink:href="../../tables/gyms_has_users.html" xlink:title="gyms_has_users" target="_top">
<polygon fill="#ffffff" stroke="transparent" points="161,-424.2 161,-485.2 287,-485.2 287,-424.2 161,-424.2"/>
<polygon fill="#f5f5f5" stroke="transparent" points="161,-461.7 161,-484.7 287,-484.7 287,-461.7 161,-461.7"/>
<polygon fill="none" stroke="#000000" points="161,-461.7 161,-484.7 287,-484.7 287,-461.7 161,-461.7"/>
<text text-anchor="start" x="165.936" y="-470.8" font-family="Helvetica,sans-Serif" font-weight="bold" font-size="11.00" fill="#000000">gyms_has_users</text>
<text text-anchor="start" x="252.5219" y="-469.8" font-family="Helvetica,sans-Serif" font-size="11.00" fill="#000000">[table]</text>
<polygon fill="none" stroke="#000000" points="161,-442.7 161,-461.7 287,-461.7 287,-442.7 161,-442.7"/>
<text text-anchor="start" x="164" y="-448.8" font-family="Helvetica,sans-Serif" font-size="11.00" fill="#000000">...</text>
<polygon fill="#ffffff" stroke="transparent" points="161,-423.7 161,-442.7 205,-442.7 205,-423.7 161,-423.7"/>
<polygon fill="none" stroke="#000000" points="161,-423.7 161,-442.7 205,-442.7 205,-423.7 161,-423.7"/>
<text text-anchor="start" x="164" y="-429.8" font-family="Helvetica,sans-Serif" font-size="11.00" fill="#000000">&lt; 2</text>
<polygon fill="#ffffff" stroke="transparent" points="205,-423.7 205,-442.7 254,-442.7 254,-423.7 205,-423.7"/>
<polygon fill="none" stroke="#000000" points="205,-423.7 205,-442.7 254,-442.7 254,-423.7 205,-423.7"/>
<text text-anchor="start" x="218.6105" y="-429.8" font-family="Helvetica,sans-Serif" font-size="11.00" fill="#000000">0 rows</text>
<polygon fill="#ffffff" stroke="transparent" points="254,-423.7 254,-442.7 287,-442.7 287,-423.7 254,-423.7"/>
<polygon fill="none" stroke="#000000" points="254,-423.7 254,-442.7 287,-442.7 287,-423.7 254,-423.7"/>
<text text-anchor="start" x="268.4053" y="-429.8" font-family="Helvetica,sans-Serif" font-size="11.00" fill="#000000">2 &gt;</text>
</a>
</g>
</g>
<!-- gyms_has_users&#45;&gt;gyms -->
<g id="edge3" class="edge">
<title>gyms_has_users:w&#45;&gt;gyms:e</title>
<path fill="none" stroke="#000000" d="M146.736,-448.4838C124.3011,-436.8586 126.216,-397.7 93.5,-397.7"/>
<polygon fill="#000000" stroke="#000000" points="153.1959,-449.9403 160.2081,-455.2118 157.098,-450.8202 161,-451.7 161,-451.7 161,-451.7 157.098,-450.8202 161.7919,-448.1882 153.1959,-449.9403 153.1959,-449.9403"/>
<ellipse fill="none" stroke="#000000" cx="150.0743" cy="-449.2364" rx="3.2" ry="3.2"/>
</g>
</g>
</svg>
