<?xml version="1.0" encoding="UTF-8" standalone="no"?>
<!DOCTYPE svg PUBLIC "-//W3C//DTD SVG 1.1//EN"
 "http://www.w3.org/Graphics/SVG/1.1/DTD/svg11.dtd">
<!-- Generated by graphviz version 2.40.1 (20161225.0304)
 -->
<!-- Title: twoDegreesRelationshipsDiagram Pages: 1 -->
<svg width="646pt" height="500pt"
 viewBox="0.00 0.00 646.00 500.20" xmlns="http://www.w3.org/2000/svg" xmlns:xlink="http://www.w3.org/1999/xlink">
<g id="graph0" class="graph" transform="scale(1 1) rotate(0) translate(4 496.2)">
<title>twoDegreesRelationshipsDiagram</title>
<polygon fill="#ffffff" stroke="transparent" points="-4,4 -4,-496.2 642,-496.2 642,4 -4,4"/>
<text text-anchor="middle" x="72.4936" y="-7.3" font-family="Helvetica,sans-Serif" font-size="11.00" fill="#000000">Generated by SchemaSpy</text>
<!-- events -->
<g id="node1" class="node">
<title>events</title>
<g id="a_node1"><a xlink:href="../../tables/events.html" xlink:title="events" target="_top">
<polygon fill="#ffffff" stroke="transparent" points="142,-205.7 142,-405.7 306,-405.7 306,-205.7 142,-205.7"/>
<polygon fill="#f5f5f5" stroke="transparent" points="144,-380.7 144,-403.7 304,-403.7 304,-380.7 144,-380.7"/>
<polygon fill="none" stroke="#000000" points="144,-380.7 144,-403.7 304,-403.7 304,-380.7 144,-380.7"/>
<text text-anchor="start" x="149" y="-389.8" font-family="Helvetica,sans-Serif" font-weight="bold" font-size="11.00" fill="#000000">events</text>
<text text-anchor="start" x="269.0437" y="-388.8" font-family="Helvetica,sans-Serif" font-size="11.00" fill="#000000">[table]</text>
<polygon fill="none" stroke="#000000" points="144,-358.7 144,-380.7 229,-380.7 229,-358.7 144,-358.7"/>
<image xlink:href="../../images/primaryKeys.png" width="11px" height="12px" preserveAspectRatio="xMinYMin meet" x="149" y="-375.7"/>
<text text-anchor="start" x="164" y="-365.8" font-family="Helvetica,sans-Serif" font-size="11.00" fill="#000000">id</text>
<polygon fill="none" stroke="#000000" points="229,-358.7 229,-380.7 304,-380.7 304,-358.7 229,-358.7"/>
<text text-anchor="start" x="232" y="-366.4" font-family="Helvetica,sans-Serif" font-size="11.00" fill="#000000">bigint[19]</text>
<polygon fill="#ffffff" stroke="transparent" points="144,-336.7 144,-358.7 229,-358.7 229,-336.7 144,-336.7"/>
<polygon fill="none" stroke="#000000" points="144,-336.7 144,-358.7 229,-358.7 229,-336.7 144,-336.7"/>
<image xlink:href="../../images/foreignKeys.png" width="11px" height="12px" preserveAspectRatio="xMinYMin meet" x="149" y="-353.7"/>
<text text-anchor="start" x="164" y="-343.8" font-family="Helvetica,sans-Serif" font-size="11.00" fill="#000000">gym_id</text>
<polygon fill="none" stroke="#000000" points="229,-336.7 229,-358.7 304,-358.7 304,-336.7 229,-336.7"/>
<text text-anchor="start" x="232" y="-344.4" font-family="Helvetica,sans-Serif" font-size="11.00" fill="#000000">bigint[19]</text>
<polygon fill="none" stroke="#000000" points="144,-314.7 144,-336.7 229,-336.7 229,-314.7 144,-314.7"/>
<text text-anchor="start" x="164" y="-321.8" font-family="Helvetica,sans-Serif" font-size="11.00" fill="#000000">name</text>
<polygon fill="none" stroke="#000000" points="229,-314.7 229,-336.7 304,-336.7 304,-314.7 229,-314.7"/>
<text text-anchor="start" x="232" y="-322.4" font-family="Helvetica,sans-Serif" font-size="11.00" fill="#000000">char[45]</text>
<polygon fill="none" stroke="#000000" points="144,-292.7 144,-314.7 229,-314.7 229,-292.7 144,-292.7"/>
<text text-anchor="start" x="164" y="-299.8" font-family="Helvetica,sans-Serif" font-size="11.00" fill="#000000">abbrev</text>
<polygon fill="none" stroke="#000000" points="229,-292.7 229,-314.7 304,-314.7 304,-292.7 229,-292.7"/>
<text text-anchor="start" x="232" y="-300.4" font-family="Helvetica,sans-Serif" font-size="11.00" fill="#000000">char[5]</text>
<polygon fill="none" stroke="#000000" points="144,-270.7 144,-292.7 229,-292.7 229,-270.7 144,-270.7"/>
<text text-anchor="start" x="164" y="-277.8" font-family="Helvetica,sans-Serif" font-size="11.00" fill="#000000">created_at</text>
<polygon fill="none" stroke="#000000" points="229,-270.7 229,-292.7 304,-292.7 304,-270.7 229,-270.7"/>
<text text-anchor="start" x="231.9666" y="-278.4" font-family="Helvetica,sans-Serif" font-size="11.00" fill="#000000">timestamp[19]</text>
<polygon fill="none" stroke="#000000" points="144,-248.7 144,-270.7 229,-270.7 229,-248.7 144,-248.7"/>
<text text-anchor="start" x="164" y="-255.8" font-family="Helvetica,sans-Serif" font-size="11.00" fill="#000000">updated_at</text>
<polygon fill="none" stroke="#000000" points="229,-248.7 229,-270.7 304,-270.7 304,-248.7 229,-248.7"/>
<text text-anchor="start" x="231.9666" y="-256.4" font-family="Helvetica,sans-Serif" font-size="11.00" fill="#000000">timestamp[19]</text>
<polygon fill="none" stroke="#000000" points="144,-226.7 144,-248.7 229,-248.7 229,-226.7 144,-226.7"/>
<text text-anchor="start" x="164" y="-233.8" font-family="Helvetica,sans-Serif" font-size="11.00" fill="#000000">deleted_at</text>
<polygon fill="none" stroke="#000000" points="229,-226.7 229,-248.7 304,-248.7 304,-226.7 229,-226.7"/>
<text text-anchor="start" x="231.9666" y="-234.4" font-family="Helvetica,sans-Serif" font-size="11.00" fill="#000000">timestamp[19]</text>
<polygon fill="#ffffff" stroke="transparent" points="144,-207.7 144,-226.7 178,-226.7 178,-207.7 144,-207.7"/>
<polygon fill="none" stroke="#000000" points="144,-207.7 144,-226.7 178,-226.7 178,-207.7 144,-207.7"/>
<text text-anchor="start" x="147" y="-213.8" font-family="Helvetica,sans-Serif" font-size="11.00" fill="#000000">&lt; 1</text>
<polygon fill="#ffffff" stroke="transparent" points="178,-207.7 178,-226.7 229,-226.7 229,-207.7 178,-207.7"/>
<polygon fill="none" stroke="#000000" points="178,-207.7 178,-226.7 229,-226.7 229,-207.7 178,-207.7"/>
<text text-anchor="start" x="193.6105" y="-213.8" font-family="Helvetica,sans-Serif" font-size="11.00" fill="#000000">0 rows</text>
<polygon fill="#ffffff" stroke="transparent" points="229,-207.7 229,-226.7 304,-226.7 304,-207.7 229,-207.7"/>
<polygon fill="none" stroke="#000000" points="229,-207.7 229,-226.7 304,-226.7 304,-207.7 229,-207.7"/>
<text text-anchor="start" x="285.4053" y="-213.8" font-family="Helvetica,sans-Serif" font-size="11.00" fill="#000000">1 &gt;</text>
<polygon fill="none" stroke="#000000" stroke-width="2" points="143,-206.7 143,-404.7 305,-404.7 305,-206.7 143,-206.7"/>
</a>
</g>
</g>
<!-- gyms -->
<g id="node2" class="node">
<title>gyms</title>
<g id="a_node2"><a xlink:href="../../tables/gyms.html" xlink:title="gyms" target="_top">
<polygon fill="#ffffff" stroke="transparent" points="8,-352.2 8,-435.2 93,-435.2 93,-352.2 8,-352.2"/>
<polygon fill="#f5f5f5" stroke="transparent" points="8.5,-411.7 8.5,-434.7 93.5,-434.7 93.5,-411.7 8.5,-411.7"/>
<polygon fill="none" stroke="#000000" points="8.5,-411.7 8.5,-434.7 93.5,-434.7 93.5,-411.7 8.5,-411.7"/>
<text text-anchor="start" x="13.5" y="-420.8" font-family="Helvetica,sans-Serif" font-weight="bold" font-size="11.00" fill="#000000">gyms</text>
<text text-anchor="start" x="58.5437" y="-419.8" font-family="Helvetica,sans-Serif" font-size="11.00" fill="#000000">[table]</text>
<polygon fill="none" stroke="#000000" points="8.5,-389.7 8.5,-411.7 93.5,-411.7 93.5,-389.7 8.5,-389.7"/>
<image xlink:href="../../images/primaryKeys.png" width="11px" height="12px" preserveAspectRatio="xMinYMin meet" x="13.5" y="-406.7"/>
<text text-anchor="start" x="28.5" y="-396.8" font-family="Helvetica,sans-Serif" font-size="11.00" fill="#000000">id</text>
<polygon fill="none" stroke="#000000" points="8.5,-370.7 8.5,-389.7 93.5,-389.7 93.5,-370.7 8.5,-370.7"/>
<text text-anchor="start" x="11.5" y="-376.8" font-family="Helvetica,sans-Serif" font-size="11.00" fill="#000000">...</text>
<polygon fill="#ffffff" stroke="transparent" points="8.5,-351.7 8.5,-370.7 27.5,-370.7 27.5,-351.7 8.5,-351.7"/>
<polygon fill="none" stroke="#000000" points="8.5,-351.7 8.5,-370.7 27.5,-370.7 27.5,-351.7 8.5,-351.7"/>
<text text-anchor="start" x="11.5" y="-357.8" font-family="Helvetica,sans-Serif" font-size="11.00" fill="#000000"> &#160;</text>
<polygon fill="#ffffff" stroke="transparent" points="27.5,-351.7 27.5,-370.7 68.5,-370.7 68.5,-351.7 27.5,-351.7"/>
<polygon fill="none" stroke="#000000" points="27.5,-351.7 27.5,-370.7 68.5,-370.7 68.5,-351.7 27.5,-351.7"/>
<text text-anchor="start" x="33.1105" y="-357.8" font-family="Helvetica,sans-Serif" font-size="11.00" fill="#000000">0 rows</text>
<polygon fill="#ffffff" stroke="transparent" points="68.5,-351.7 68.5,-370.7 93.5,-370.7 93.5,-351.7 68.5,-351.7"/>
<polygon fill="none" stroke="#000000" points="68.5,-351.7 68.5,-370.7 93.5,-370.7 93.5,-351.7 68.5,-351.7"/>
<text text-anchor="start" x="74.9053" y="-357.8" font-family="Helvetica,sans-Serif" font-size="11.00" fill="#000000">2 &gt;</text>
</a>
</g>
</g>
<!-- events&#45;&gt;gyms -->
<g id="edge1" class="edge">
<title>events:w&#45;&gt;gyms:e</title>
<path fill="none" stroke="#000000" d="M130.0458,-352.5911C115.2722,-365.7117 119.9358,-400.7 93.5,-400.7"/>
<polygon fill="#000000" stroke="#000000" points="136.4503,-350.3463 145.1908,-351.0974 140.2252,-349.0231 144,-347.7 144,-347.7 144,-347.7 140.2252,-349.0231 142.8092,-344.3026 136.4503,-350.3463 136.4503,-350.3463"/>
<ellipse fill="none" stroke="#000000" cx="133.4305" cy="-351.4048" rx="3.2" ry="3.2"/>
</g>
<!-- gymnast_has_skills -->
<g id="node3" class="node">
<title>gymnast_has_skills</title>
<g id="a_node3"><a xlink:href="../../tables/gymnast_has_skills.html" xlink:title="gymnast_has_skills" target="_top">
<polygon fill="#ffffff" stroke="transparent" points="492,-171.2 492,-232.2 630,-232.2 630,-171.2 492,-171.2"/>
<polygon fill="#f5f5f5" stroke="transparent" points="492,-208.7 492,-231.7 630,-231.7 630,-208.7 492,-208.7"/>
<polygon fill="none" stroke="#000000" points="492,-208.7 492,-231.7 630,-231.7 630,-208.7 492,-208.7"/>
<text text-anchor="start" x="496.8271" y="-217.8" font-family="Helvetica,sans-Serif" font-weight="bold" font-size="11.00" fill="#000000">gymnast_has_skills</text>
<text text-anchor="start" x="595.5219" y="-216.8" font-family="Helvetica,sans-Serif" font-size="11.00" fill="#000000">[table]</text>
<polygon fill="none" stroke="#000000" points="492,-189.7 492,-208.7 630,-208.7 630,-189.7 492,-189.7"/>
<text text-anchor="start" x="495" y="-195.8" font-family="Helvetica,sans-Serif" font-size="11.00" fill="#000000">...</text>
<polygon fill="#ffffff" stroke="transparent" points="492,-170.7 492,-189.7 546,-189.7 546,-170.7 492,-170.7"/>
<polygon fill="none" stroke="#000000" points="492,-170.7 492,-189.7 546,-189.7 546,-170.7 492,-170.7"/>
<text text-anchor="start" x="495" y="-176.8" font-family="Helvetica,sans-Serif" font-size="11.00" fill="#000000">&lt; 2</text>
<polygon fill="#ffffff" stroke="transparent" points="546,-170.7 546,-189.7 601,-189.7 601,-170.7 546,-170.7"/>
<polygon fill="none" stroke="#000000" points="546,-170.7 546,-189.7 601,-189.7 601,-170.7 546,-170.7"/>
<text text-anchor="start" x="565.6105" y="-176.8" font-family="Helvetica,sans-Serif" font-size="11.00" fill="#000000">0 rows</text>
<polygon fill="#ffffff" stroke="transparent" points="601,-170.7 601,-189.7 630,-189.7 630,-170.7 601,-170.7"/>
<polygon fill="none" stroke="#000000" points="601,-170.7 601,-189.7 630,-189.7 630,-170.7 601,-170.7"/>
<text text-anchor="start" x="620.8862" y="-176.8" font-family="Helvetica,sans-Serif" font-size="11.00" fill="#000000"> &#160;</text>
</a>
</g>
</g>
<!-- skills -->
<g id="node4" class="node">
<title>skills</title>
<g id="a_node4"><a xlink:href="../../tables/skills.html" xlink:title="skills" target="_top">
<polygon fill="#ffffff" stroke="transparent" points="355,-84.2 355,-233.2 443,-233.2 443,-84.2 355,-84.2"/>
<polygon fill="#f5f5f5" stroke="transparent" points="355,-209.7 355,-232.7 443,-232.7 443,-209.7 355,-209.7"/>
<polygon fill="none" stroke="#000000" points="355,-209.7 355,-232.7 443,-232.7 443,-209.7 355,-209.7"/>
<text text-anchor="start" x="360" y="-218.8" font-family="Helvetica,sans-Serif" font-weight="bold" font-size="11.00" fill="#000000">skills</text>
<text text-anchor="start" x="408.0437" y="-217.8" font-family="Helvetica,sans-Serif" font-size="11.00" fill="#000000">[table]</text>
<polygon fill="none" stroke="#000000" points="355,-187.7 355,-209.7 443,-209.7 443,-187.7 355,-187.7"/>
<image xlink:href="../../images/primaryKeys.png" width="11px" height="12px" preserveAspectRatio="xMinYMin meet" x="360" y="-204.7"/>
<text text-anchor="start" x="375" y="-194.8" font-family="Helvetica,sans-Serif" font-size="11.00" fill="#000000">id</text>
<polygon fill="#ffffff" stroke="transparent" points="355,-165.7 355,-187.7 443,-187.7 443,-165.7 355,-165.7"/>
<polygon fill="none" stroke="#000000" points="355,-165.7 355,-187.7 443,-187.7 443,-165.7 355,-165.7"/>
<image xlink:href="../../images/foreignKeys.png" width="11px" height="12px" preserveAspectRatio="xMinYMin meet" x="360" y="-182.7"/>
<text text-anchor="start" x="375" y="-172.8" font-family="Helvetica,sans-Serif" font-size="11.00" fill="#000000">event_id</text>
<polygon fill="#ffffff" stroke="transparent" points="355,-143.7 355,-165.7 443,-165.7 443,-143.7 355,-143.7"/>
<polygon fill="none" stroke="#000000" points="355,-143.7 355,-165.7 443,-165.7 443,-143.7 355,-143.7"/>
<image xlink:href="../../images/foreignKeys.png" width="11px" height="12px" preserveAspectRatio="xMinYMin meet" x="360" y="-160.7"/>
<text text-anchor="start" x="375" y="-150.8" font-family="Helvetica,sans-Serif" font-size="11.00" fill="#000000">category_id</text>
<polygon fill="#ffffff" stroke="transparent" points="355,-121.7 355,-143.7 443,-143.7 443,-121.7 355,-121.7"/>
<polygon fill="none" stroke="#000000" points="355,-121.7 355,-143.7 443,-143.7 443,-121.7 355,-121.7"/>
<image xlink:href="../../images/foreignKeys.png" width="11px" height="12px" preserveAspectRatio="xMinYMin meet" x="360" y="-138.7"/>
<text text-anchor="start" x="375" y="-128.8" font-family="Helvetica,sans-Serif" font-size="11.00" fill="#000000">level_id</text>
<polygon fill="none" stroke="#000000" points="355,-102.7 355,-121.7 443,-121.7 443,-102.7 355,-102.7"/>
<text text-anchor="start" x="358" y="-108.8" font-family="Helvetica,sans-Serif" font-size="11.00" fill="#000000">...</text>
<polygon fill="#ffffff" stroke="transparent" points="355,-83.7 355,-102.7 380,-102.7 380,-83.7 355,-83.7"/>
<polygon fill="none" stroke="#000000" points="355,-83.7 355,-102.7 380,-102.7 380,-83.7 355,-83.7"/>
<text text-anchor="start" x="358" y="-89.8" font-family="Helvetica,sans-Serif" font-size="11.00" fill="#000000">&lt; 3</text>
<polygon fill="#ffffff" stroke="transparent" points="380,-83.7 380,-102.7 420,-102.7 420,-83.7 380,-83.7"/>
<polygon fill="none" stroke="#000000" points="380,-83.7 380,-102.7 420,-102.7 420,-83.7 380,-83.7"/>
<text text-anchor="start" x="384.6105" y="-89.8" font-family="Helvetica,sans-Serif" font-size="11.00" fill="#000000">0 rows</text>
<polygon fill="#ffffff" stroke="transparent" points="420,-83.7 420,-102.7 443,-102.7 443,-83.7 420,-83.7"/>
<polygon fill="none" stroke="#000000" points="420,-83.7 420,-102.7 443,-102.7 443,-83.7 420,-83.7"/>
<text text-anchor="start" x="424.4053" y="-89.8" font-family="Helvetica,sans-Serif" font-size="11.00" fill="#000000">2 &gt;</text>
</a>
</g>
</g>
<!-- gymnast_has_skills&#45;&gt;skills -->
<g id="edge2" class="edge">
<title>gymnast_has_skills:w&#45;&gt;skills:e</title>
<path fill="none" stroke="#000000" d="M477.4909,-198.7C466.1774,-198.7 458.9931,-198.7 443,-198.7"/>
<polygon fill="#000000" stroke="#000000" points="484,-198.7001 492,-202.3 488,-198.7 492,-198.7 492,-198.7 492,-198.7 488,-198.7 492,-195.1 484,-198.7001 484,-198.7001"/>
<ellipse fill="none" stroke="#000000" cx="480.8" cy="-198.7001" rx="3.2" ry="3.2"/>
</g>
<!-- skills&#45;&gt;events -->
<g id="edge7" class="edge">
<title>skills:w&#45;&gt;events:e</title>
<path fill="none" stroke="#000000" d="M340.4111,-179.0019C281.6835,-200.7771 387.0037,-369.7 304,-369.7"/>
<polygon fill="#000000" stroke="#000000" points="347.0978,-177.9469 355.5611,-180.256 351.0489,-177.3235 355,-176.7 355,-176.7 355,-176.7 351.0489,-177.3235 354.4389,-173.144 347.0978,-177.9469 347.0978,-177.9469"/>
<ellipse fill="none" stroke="#000000" cx="343.9369" cy="-178.4457" rx="3.2" ry="3.2"/>
</g>
<!-- levels -->
<g id="node7" class="node">
<title>levels</title>
<g id="a_node7"><a xlink:href="../../tables/levels.html" xlink:title="levels" target="_top">
<polygon fill="#ffffff" stroke="transparent" points="188.5,-38.2 188.5,-99.2 259.5,-99.2 259.5,-38.2 188.5,-38.2"/>
<polygon fill="#f5f5f5" stroke="transparent" points="189,-75.7 189,-98.7 260,-98.7 260,-75.7 189,-75.7"/>
<polygon fill="none" stroke="#000000" points="189,-75.7 189,-98.7 260,-98.7 260,-75.7 189,-75.7"/>
<text text-anchor="start" x="193.9442" y="-84.8" font-family="Helvetica,sans-Serif" font-weight="bold" font-size="11.00" fill="#000000">levels</text>
<text text-anchor="start" x="225.5219" y="-83.8" font-family="Helvetica,sans-Serif" font-size="11.00" fill="#000000">[table]</text>
<polygon fill="none" stroke="#000000" points="189,-56.7 189,-75.7 260,-75.7 260,-56.7 189,-56.7"/>
<text text-anchor="start" x="192" y="-62.8" font-family="Helvetica,sans-Serif" font-size="11.00" fill="#000000">...</text>
<polygon fill="#ffffff" stroke="transparent" points="189,-37.7 189,-56.7 201,-56.7 201,-37.7 189,-37.7"/>
<polygon fill="none" stroke="#000000" points="189,-37.7 189,-56.7 201,-56.7 201,-37.7 189,-37.7"/>
<text text-anchor="start" x="191.9431" y="-43.8" font-family="Helvetica,sans-Serif" font-size="11.00" fill="#000000"> &#160;</text>
<polygon fill="#ffffff" stroke="transparent" points="201,-37.7 201,-56.7 239,-56.7 239,-37.7 201,-37.7"/>
<polygon fill="none" stroke="#000000" points="201,-37.7 201,-56.7 239,-56.7 239,-37.7 201,-37.7"/>
<text text-anchor="start" x="203.8053" y="-43.8" font-family="Helvetica,sans-Serif" font-size="11.00" fill="#000000">0 rows</text>
<polygon fill="#ffffff" stroke="transparent" points="239,-37.7 239,-56.7 260,-56.7 260,-37.7 239,-37.7"/>
<polygon fill="none" stroke="#000000" points="239,-37.7 239,-56.7 260,-56.7 260,-37.7 239,-37.7"/>
<text text-anchor="start" x="241.7027" y="-43.8" font-family="Helvetica,sans-Serif" font-size="11.00" fill="#000000">2 &gt;</text>
</a>
</g>
</g>
<!-- skills&#45;&gt;levels -->
<g id="edge8" class="edge">
<title>skills:w&#45;&gt;levels:e</title>
<path fill="none" stroke="#000000" d="M340.5138,-130.6214C304.4238,-119.3125 306.2173,-65.7 260,-65.7"/>
<polygon fill="#000000" stroke="#000000" points="347.0811,-131.5637 354.4886,-136.2635 351.0406,-132.1318 355,-132.7 355,-132.7 355,-132.7 351.0406,-132.1318 355.5114,-129.1365 347.0811,-131.5637 347.0811,-131.5637"/>
<ellipse fill="none" stroke="#000000" cx="343.9136" cy="-131.1091" rx="3.2" ry="3.2"/>
</g>
<!-- categories -->
<g id="node8" class="node">
<title>categories</title>
<g id="a_node8"><a xlink:href="../../tables/categories.html" xlink:title="categories" target="_top">
<polygon fill="#ffffff" stroke="transparent" points="177.5,-123.2 177.5,-184.2 270.5,-184.2 270.5,-123.2 177.5,-123.2"/>
<polygon fill="#f5f5f5" stroke="transparent" points="178,-160.7 178,-183.7 271,-183.7 271,-160.7 178,-160.7"/>
<polygon fill="none" stroke="#000000" points="178,-160.7 178,-183.7 271,-183.7 271,-160.7 178,-160.7"/>
<text text-anchor="start" x="182.6329" y="-169.8" font-family="Helvetica,sans-Serif" font-weight="bold" font-size="11.00" fill="#000000">categories</text>
<text text-anchor="start" x="236.5219" y="-168.8" font-family="Helvetica,sans-Serif" font-size="11.00" fill="#000000">[table]</text>
<polygon fill="none" stroke="#000000" points="178,-141.7 178,-160.7 271,-160.7 271,-141.7 178,-141.7"/>
<text text-anchor="start" x="181" y="-147.8" font-family="Helvetica,sans-Serif" font-size="11.00" fill="#000000">...</text>
<polygon fill="#ffffff" stroke="transparent" points="178,-122.7 178,-141.7 201,-141.7 201,-122.7 178,-122.7"/>
<polygon fill="none" stroke="#000000" points="178,-122.7 178,-141.7 201,-141.7 201,-122.7 178,-122.7"/>
<text text-anchor="start" x="181" y="-128.8" font-family="Helvetica,sans-Serif" font-size="11.00" fill="#000000"> &#160;</text>
<polygon fill="#ffffff" stroke="transparent" points="201,-122.7 201,-141.7 244,-141.7 244,-122.7 201,-122.7"/>
<polygon fill="none" stroke="#000000" points="201,-122.7 201,-141.7 244,-141.7 244,-122.7 201,-122.7"/>
<text text-anchor="start" x="208.6105" y="-128.8" font-family="Helvetica,sans-Serif" font-size="11.00" fill="#000000">0 rows</text>
<polygon fill="#ffffff" stroke="transparent" points="244,-122.7 244,-141.7 271,-141.7 271,-122.7 244,-122.7"/>
<polygon fill="none" stroke="#000000" points="244,-122.7 244,-141.7 271,-141.7 271,-122.7 244,-122.7"/>
<text text-anchor="start" x="252.4053" y="-128.8" font-family="Helvetica,sans-Serif" font-size="11.00" fill="#000000">1 &gt;</text>
</a>
</g>
</g>
<!-- skills&#45;&gt;categories -->
<g id="edge6" class="edge">
<title>skills:w&#45;&gt;categories:e</title>
<path fill="none" stroke="#000000" d="M340.387,-154.4735C314.3634,-153.6273 302.9737,-150.7 271,-150.7"/>
<polygon fill="#000000" stroke="#000000" points="347.001,-154.576 354.9442,-158.2996 351.0005,-154.638 355,-154.7 355,-154.7 355,-154.7 351.0005,-154.638 355.0558,-151.1004 347.001,-154.576 347.001,-154.576"/>
<ellipse fill="none" stroke="#000000" cx="343.8013" cy="-154.5263" rx="3.2" ry="3.2"/>
</g>
<!-- gyms_has_users -->
<g id="node5" class="node">
<title>gyms_has_users</title>
<g id="a_node5"><a xlink:href="../../tables/gyms_has_users.html" xlink:title="gyms_has_users" target="_top">
<polygon fill="#ffffff" stroke="transparent" points="161,-427.2 161,-488.2 287,-488.2 287,-427.2 161,-427.2"/>
<polygon fill="#f5f5f5" stroke="transparent" points="161,-464.7 161,-487.7 287,-487.7 287,-464.7 161,-464.7"/>
<polygon fill="none" stroke="#000000" points="161,-464.7 161,-487.7 287,-487.7 287,-464.7 161,-464.7"/>
<text text-anchor="start" x="165.936" y="-473.8" font-family="Helvetica,sans-Serif" font-weight="bold" font-size="11.00" fill="#000000">gyms_has_users</text>
<text text-anchor="start" x="252.5219" y="-472.8" font-family="Helvetica,sans-Serif" font-size="11.00" fill="#000000">[table]</text>
<polygon fill="none" stroke="#000000" points="161,-445.7 161,-464.7 287,-464.7 287,-445.7 161,-445.7"/>
<text text-anchor="start" x="164" y="-451.8" font-family="Helvetica,sans-Serif" font-size="11.00" fill="#000000">...</text>
<polygon fill="#ffffff" stroke="transparent" points="161,-426.7 161,-445.7 205,-445.7 205,-426.7 161,-426.7"/>
<polygon fill="none" stroke="#000000" points="161,-426.7 161,-445.7 205,-445.7 205,-426.7 161,-426.7"/>
<text text-anchor="start" x="164" y="-432.8" font-family="Helvetica,sans-Serif" font-size="11.00" fill="#000000">&lt; 2</text>
<polygon fill="#ffffff" stroke="transparent" points="205,-426.7 205,-445.7 254,-445.7 254,-426.7 205,-426.7"/>
<polygon fill="none" stroke="#000000" points="205,-426.7 205,-445.7 254,-445.7 254,-426.7 205,-426.7"/>
<text text-anchor="start" x="218.6105" y="-432.8" font-family="Helvetica,sans-Serif" font-size="11.00" fill="#000000">0 rows</text>
<polygon fill="#ffffff" stroke="transparent" points="254,-426.7 254,-445.7 287,-445.7 287,-426.7 254,-426.7"/>
<polygon fill="none" stroke="#000000" points="254,-426.7 254,-445.7 287,-445.7 287,-426.7 254,-426.7"/>
<text text-anchor="start" x="268.4053" y="-432.8" font-family="Helvetica,sans-Serif" font-size="11.00" fill="#000000">2 &gt;</text>
</a>
</g>
</g>
<!-- gyms_has_users&#45;&gt;gyms -->
<g id="edge3" class="edge">
<title>gyms_has_users:w&#45;&gt;gyms:e</title>
<path fill="none" stroke="#000000" d="M146.736,-451.4838C124.3011,-439.8586 126.216,-400.7 93.5,-400.7"/>
<polygon fill="#000000" stroke="#000000" points="153.1959,-452.9403 160.2081,-458.2118 157.098,-453.8202 161,-454.7 161,-454.7 161,-454.7 157.098,-453.8202 161.7919,-451.1882 153.1959,-452.9403 153.1959,-452.9403"/>
<ellipse fill="none" stroke="#000000" cx="150.0743" cy="-452.2364" rx="3.2" ry="3.2"/>
</g>
<!-- skill_has_levels -->
<g id="node6" class="node">
<title>skill_has_levels</title>
<g id="a_node6"><a xlink:href="../../tables/skill_has_levels.html" xlink:title="skill_has_levels" target="_top">
<polygon fill="#ffffff" stroke="transparent" points="501.5,-61.2 501.5,-122.2 620.5,-122.2 620.5,-61.2 501.5,-61.2"/>
<polygon fill="#f5f5f5" stroke="transparent" points="502,-98.7 502,-121.7 621,-121.7 621,-98.7 502,-98.7"/>
<polygon fill="none" stroke="#000000" points="502,-98.7 502,-121.7 621,-121.7 621,-98.7 502,-98.7"/>
<text text-anchor="start" x="506.8031" y="-107.8" font-family="Helvetica,sans-Serif" font-weight="bold" font-size="11.00" fill="#000000">skill_has_levels</text>
<text text-anchor="start" x="586.5219" y="-106.8" font-family="Helvetica,sans-Serif" font-size="11.00" fill="#000000">[table]</text>
<polygon fill="none" stroke="#000000" points="502,-79.7 502,-98.7 621,-98.7 621,-79.7 502,-79.7"/>
<text text-anchor="start" x="505" y="-85.8" font-family="Helvetica,sans-Serif" font-size="11.00" fill="#000000">...</text>
<polygon fill="#ffffff" stroke="transparent" points="502,-60.7 502,-79.7 547,-79.7 547,-60.7 502,-60.7"/>
<polygon fill="none" stroke="#000000" points="502,-60.7 502,-79.7 547,-79.7 547,-60.7 502,-60.7"/>
<text text-anchor="start" x="505" y="-66.8" font-family="Helvetica,sans-Serif" font-size="11.00" fill="#000000">&lt; 2</text>
<polygon fill="#ffffff" stroke="transparent" points="547,-60.7 547,-79.7 597,-79.7 597,-60.7 547,-60.7"/>
<polygon fill="none" stroke="#000000" points="547,-60.7 547,-79.7 597,-79.7 597,-60.7 547,-60.7"/>
<text text-anchor="start" x="561.6105" y="-66.8" font-family="Helvetica,sans-Serif" font-size="11.00" fill="#000000">0 rows</text>
<polygon fill="#ffffff" stroke="transparent" points="597,-60.7 597,-79.7 621,-79.7 621,-60.7 597,-60.7"/>
<polygon fill="none" stroke="#000000" points="597,-60.7 597,-79.7 621,-79.7 621,-60.7 597,-60.7"/>
<text text-anchor="start" x="611.8862" y="-66.8" font-family="Helvetica,sans-Serif" font-size="11.00" fill="#000000"> &#160;</text>
</a>
</g>
</g>
<!-- skill_has_levels&#45;&gt;skills -->
<g id="edge5" class="edge">
<title>skill_has_levels:w&#45;&gt;skills:e</title>
<path fill="none" stroke="#000000" d="M487.7797,-92.1127C456.2869,-110.6795 492.6262,-198.7 443,-198.7"/>
<polygon fill="#000000" stroke="#000000" points="494.2209,-90.5669 502.8401,-92.2006 498.1104,-89.6335 502,-88.7 502,-88.7 502,-88.7 498.1104,-89.6335 501.1599,-85.1994 494.2209,-90.5669 494.2209,-90.5669"/>
<ellipse fill="none" stroke="#000000" cx="491.1092" cy="-91.3137" rx="3.2" ry="3.2"/>
</g>
<!-- skill_has_levels&#45;&gt;levels -->
<g id="edge4" class="edge">
<title>skill_has_levels:w&#45;&gt;levels:e</title>
<path fill="none" stroke="#000000" d="M487.3417,-86.8986C475.1387,-83.5837 468.4824,-76.5923 451,-73.7 367.1761,-59.8321 344.9633,-65.7 260,-65.7"/>
<polygon fill="#000000" stroke="#000000" points="494.0597,-87.7241 501.5609,-92.2731 498.0299,-88.2121 502,-88.7 502,-88.7 502,-88.7 498.0299,-88.2121 502.4391,-85.1269 494.0597,-87.7241 494.0597,-87.7241"/>
<ellipse fill="none" stroke="#000000" cx="490.8836" cy="-87.3338" rx="3.2" ry="3.2"/>
</g>
</g>
</svg>
