<?xml version="1.0" encoding="UTF-8" standalone="no"?>
<!DOCTYPE svg PUBLIC "-//W3C//DTD SVG 1.1//EN"
 "http://www.w3.org/Graphics/SVG/1.1/DTD/svg11.dtd">
<!-- Generated by graphviz version 2.40.1 (20161225.0304)
 -->
<!-- Title: twoDegreesRelationshipsDiagram Pages: 1 -->
<svg width="470pt" height="223pt"
 viewBox="0.00 0.00 470.00 222.70" xmlns="http://www.w3.org/2000/svg" xmlns:xlink="http://www.w3.org/1999/xlink">
<g id="graph0" class="graph" transform="scale(1 1) rotate(0) translate(4 218.7)">
<title>twoDegreesRelationshipsDiagram</title>
<polygon fill="#ffffff" stroke="transparent" points="-4,4 -4,-218.7 466,-218.7 466,4 -4,4"/>
<text text-anchor="middle" x="72.4936" y="-7.3" font-family="Helvetica,sans-Serif" font-size="11.00" fill="#000000">Generated by SchemaSpy</text>
<!-- gymnast_has_skills -->
<g id="node1" class="node">
<title>gymnast_has_skills</title>
<g id="a_node1"><a xlink:href="../../tables/gymnast_has_skills.html" xlink:title="gymnast_has_skills" target="_top">
<polygon fill="#ffffff" stroke="transparent" points="316,-149.7 316,-210.7 454,-210.7 454,-149.7 316,-149.7"/>
<polygon fill="#f5f5f5" stroke="transparent" points="316,-187.2 316,-210.2 454,-210.2 454,-187.2 316,-187.2"/>
<polygon fill="none" stroke="#000000" points="316,-187.2 316,-210.2 454,-210.2 454,-187.2 316,-187.2"/>
<text text-anchor="start" x="320.8271" y="-196.3" font-family="Helvetica,sans-Serif" font-weight="bold" font-size="11.00" fill="#000000">gymnast_has_skills</text>
<text text-anchor="start" x="419.5219" y="-195.3" font-family="Helvetica,sans-Serif" font-size="11.00" fill="#000000">[table]</text>
<polygon fill="none" stroke="#000000" points="316,-168.2 316,-187.2 454,-187.2 454,-168.2 316,-168.2"/>
<text text-anchor="start" x="319" y="-174.3" font-family="Helvetica,sans-Serif" font-size="11.00" fill="#000000">...</text>
<polygon fill="#ffffff" stroke="transparent" points="316,-149.2 316,-168.2 370,-168.2 370,-149.2 316,-149.2"/>
<polygon fill="none" stroke="#000000" points="316,-149.2 316,-168.2 370,-168.2 370,-149.2 316,-149.2"/>
<text text-anchor="start" x="319" y="-155.3" font-family="Helvetica,sans-Serif" font-size="11.00" fill="#000000">&lt; 2</text>
<polygon fill="#ffffff" stroke="transparent" points="370,-149.2 370,-168.2 425,-168.2 425,-149.2 370,-149.2"/>
<polygon fill="none" stroke="#000000" points="370,-149.2 370,-168.2 425,-168.2 425,-149.2 370,-149.2"/>
<text text-anchor="start" x="389.6105" y="-155.3" font-family="Helvetica,sans-Serif" font-size="11.00" fill="#000000">0 rows</text>
<polygon fill="#ffffff" stroke="transparent" points="425,-149.2 425,-168.2 454,-168.2 454,-149.2 425,-149.2"/>
<polygon fill="none" stroke="#000000" points="425,-149.2 425,-168.2 454,-168.2 454,-149.2 425,-149.2"/>
<text text-anchor="start" x="444.8862" y="-155.3" font-family="Helvetica,sans-Serif" font-size="11.00" fill="#000000"> &#160;</text>
</a>
</g>
</g>
<!-- skills -->
<g id="node2" class="node">
<title>skills</title>
<g id="a_node2"><a xlink:href="../../tables/skills.html" xlink:title="skills" target="_top">
<polygon fill="#ffffff" stroke="transparent" points="182,-65.7 182,-170.7 267,-170.7 267,-65.7 182,-65.7"/>
<polygon fill="#f5f5f5" stroke="transparent" points="182.5,-147.2 182.5,-170.2 267.5,-170.2 267.5,-147.2 182.5,-147.2"/>
<polygon fill="none" stroke="#000000" points="182.5,-147.2 182.5,-170.2 267.5,-170.2 267.5,-147.2 182.5,-147.2"/>
<text text-anchor="start" x="187.5" y="-156.3" font-family="Helvetica,sans-Serif" font-weight="bold" font-size="11.00" fill="#000000">skills</text>
<text text-anchor="start" x="232.5437" y="-155.3" font-family="Helvetica,sans-Serif" font-size="11.00" fill="#000000">[table]</text>
<polygon fill="none" stroke="#000000" points="182.5,-125.2 182.5,-147.2 267.5,-147.2 267.5,-125.2 182.5,-125.2"/>
<image xlink:href="../../images/primaryKeys.png" width="11px" height="12px" preserveAspectRatio="xMinYMin meet" x="187.5" y="-142.2"/>
<text text-anchor="start" x="202.5" y="-132.3" font-family="Helvetica,sans-Serif" font-size="11.00" fill="#000000">id</text>
<polygon fill="#ffffff" stroke="transparent" points="182.5,-103.2 182.5,-125.2 267.5,-125.2 267.5,-103.2 182.5,-103.2"/>
<polygon fill="none" stroke="#000000" points="182.5,-103.2 182.5,-125.2 267.5,-125.2 267.5,-103.2 182.5,-103.2"/>
<image xlink:href="../../images/foreignKeys.png" width="11px" height="12px" preserveAspectRatio="xMinYMin meet" x="187.5" y="-120.2"/>
<text text-anchor="start" x="202.5" y="-110.3" font-family="Helvetica,sans-Serif" font-size="11.00" fill="#000000">events_id</text>
<polygon fill="none" stroke="#000000" points="182.5,-84.2 182.5,-103.2 267.5,-103.2 267.5,-84.2 182.5,-84.2"/>
<text text-anchor="start" x="185.5" y="-90.3" font-family="Helvetica,sans-Serif" font-size="11.00" fill="#000000">...</text>
<polygon fill="#ffffff" stroke="transparent" points="182.5,-65.2 182.5,-84.2 205.5,-84.2 205.5,-65.2 182.5,-65.2"/>
<polygon fill="none" stroke="#000000" points="182.5,-65.2 182.5,-84.2 205.5,-84.2 205.5,-65.2 182.5,-65.2"/>
<text text-anchor="start" x="185.5" y="-71.3" font-family="Helvetica,sans-Serif" font-size="11.00" fill="#000000">&lt; 1</text>
<polygon fill="#ffffff" stroke="transparent" points="205.5,-65.2 205.5,-84.2 244.5,-84.2 244.5,-65.2 205.5,-65.2"/>
<polygon fill="none" stroke="#000000" points="205.5,-65.2 205.5,-84.2 244.5,-84.2 244.5,-65.2 205.5,-65.2"/>
<text text-anchor="start" x="209.1105" y="-71.3" font-family="Helvetica,sans-Serif" font-size="11.00" fill="#000000">0 rows</text>
<polygon fill="#ffffff" stroke="transparent" points="244.5,-65.2 244.5,-84.2 267.5,-84.2 267.5,-65.2 244.5,-65.2"/>
<polygon fill="none" stroke="#000000" points="244.5,-65.2 244.5,-84.2 267.5,-84.2 267.5,-65.2 244.5,-65.2"/>
<text text-anchor="start" x="248.9053" y="-71.3" font-family="Helvetica,sans-Serif" font-size="11.00" fill="#000000">2 &gt;</text>
</a>
</g>
</g>
<!-- gymnast_has_skills&#45;&gt;skills -->
<g id="edge1" class="edge">
<title>gymnast_has_skills:w&#45;&gt;skills:e</title>
<path fill="none" stroke="#000000" d="M302.2884,-172.4968C289.5191,-161.7274 289.7719,-136.2 267.5,-136.2"/>
<polygon fill="#000000" stroke="#000000" points="308.4328,-174.6043 314.8319,-180.6052 312.2164,-175.9022 316,-177.2 316,-177.2 316,-177.2 312.2164,-175.9022 317.1681,-173.7948 308.4328,-174.6043 308.4328,-174.6043"/>
<ellipse fill="none" stroke="#000000" cx="305.4059" cy="-173.5661" rx="3.2" ry="3.2"/>
</g>
<!-- events -->
<g id="node4" class="node">
<title>events</title>
<g id="a_node4"><a xlink:href="../../tables/events.html" xlink:title="events" target="_top">
<polygon fill="#ffffff" stroke="transparent" points="8,-38.2 8,-150.2 133,-150.2 133,-38.2 8,-38.2"/>
<polygon fill="#f5f5f5" stroke="transparent" points="10.5,-125.2 10.5,-148.2 131.5,-148.2 131.5,-125.2 10.5,-125.2"/>
<polygon fill="none" stroke="#000000" points="10.5,-125.2 10.5,-148.2 131.5,-148.2 131.5,-125.2 10.5,-125.2"/>
<text text-anchor="start" x="15.5" y="-134.3" font-family="Helvetica,sans-Serif" font-weight="bold" font-size="11.00" fill="#000000">events</text>
<text text-anchor="start" x="96.5437" y="-133.3" font-family="Helvetica,sans-Serif" font-size="11.00" fill="#000000">[table]</text>
<polygon fill="none" stroke="#000000" points="10.5,-103.2 10.5,-125.2 70.5,-125.2 70.5,-103.2 10.5,-103.2"/>
<image xlink:href="../../images/primaryKeys.png" width="11px" height="12px" preserveAspectRatio="xMinYMin meet" x="15.5" y="-120.2"/>
<text text-anchor="start" x="30.5" y="-110.3" font-family="Helvetica,sans-Serif" font-size="11.00" fill="#000000">id</text>
<polygon fill="none" stroke="#000000" points="70.5,-103.2 70.5,-125.2 131.5,-125.2 131.5,-103.2 70.5,-103.2"/>
<text text-anchor="start" x="73.5" y="-110.9" font-family="Helvetica,sans-Serif" font-size="11.00" fill="#000000">int[10]</text>
<polygon fill="none" stroke="#000000" points="10.5,-81.2 10.5,-103.2 70.5,-103.2 70.5,-81.2 10.5,-81.2"/>
<text text-anchor="start" x="30.5" y="-88.3" font-family="Helvetica,sans-Serif" font-size="11.00" fill="#000000">name</text>
<polygon fill="none" stroke="#000000" points="70.5,-81.2 70.5,-103.2 131.5,-103.2 131.5,-81.2 70.5,-81.2"/>
<text text-anchor="start" x="73.494" y="-88.9" font-family="Helvetica,sans-Serif" font-size="11.00" fill="#000000">varchar[45]</text>
<polygon fill="none" stroke="#000000" points="10.5,-59.2 10.5,-81.2 70.5,-81.2 70.5,-59.2 10.5,-59.2"/>
<text text-anchor="start" x="30.5" y="-66.3" font-family="Helvetica,sans-Serif" font-size="11.00" fill="#000000">abbrev</text>
<polygon fill="none" stroke="#000000" points="70.5,-59.2 70.5,-81.2 131.5,-81.2 131.5,-59.2 70.5,-59.2"/>
<text text-anchor="start" x="73.494" y="-66.9" font-family="Helvetica,sans-Serif" font-size="11.00" fill="#000000">varchar[45]</text>
<polygon fill="#ffffff" stroke="transparent" points="10.5,-40.2 10.5,-59.2 31.5,-59.2 31.5,-40.2 10.5,-40.2"/>
<polygon fill="none" stroke="#000000" points="10.5,-40.2 10.5,-59.2 31.5,-59.2 31.5,-40.2 10.5,-40.2"/>
<text text-anchor="start" x="13.2027" y="-46.3" font-family="Helvetica,sans-Serif" font-size="11.00" fill="#000000">&lt; 0</text>
<polygon fill="#ffffff" stroke="transparent" points="31.5,-40.2 31.5,-59.2 70.5,-59.2 70.5,-40.2 31.5,-40.2"/>
<polygon fill="none" stroke="#000000" points="31.5,-40.2 31.5,-59.2 70.5,-59.2 70.5,-40.2 31.5,-40.2"/>
<text text-anchor="start" x="35.1105" y="-46.3" font-family="Helvetica,sans-Serif" font-size="11.00" fill="#000000">0 rows</text>
<polygon fill="#ffffff" stroke="transparent" points="70.5,-40.2 70.5,-59.2 131.5,-59.2 131.5,-40.2 70.5,-40.2"/>
<polygon fill="none" stroke="#000000" points="70.5,-40.2 70.5,-59.2 131.5,-59.2 131.5,-40.2 70.5,-40.2"/>
<text text-anchor="start" x="112.9053" y="-46.3" font-family="Helvetica,sans-Serif" font-size="11.00" fill="#000000">1 &gt;</text>
<polygon fill="none" stroke="#000000" stroke-width="2" points="9,-39.2 9,-149.2 132,-149.2 132,-39.2 9,-39.2"/>
</a>
</g>
</g>
<!-- skills&#45;&gt;events -->
<g id="edge3" class="edge">
<title>skills:w&#45;&gt;events:e</title>
<path fill="none" stroke="#000000" d="M167.776,-114.2C155.7815,-114.2 148.3229,-114.2 131.5,-114.2"/>
<polygon fill="#000000" stroke="#000000" points="174.5,-114.2001 182.5,-117.8 178.5,-114.2 182.5,-114.2 182.5,-114.2 182.5,-114.2 178.5,-114.2 182.5,-110.6 174.5,-114.2001 174.5,-114.2001"/>
<ellipse fill="none" stroke="#000000" cx="171.3" cy="-114.2001" rx="3.2" ry="3.2"/>
</g>
<!-- skill_has_levels -->
<g id="node3" class="node">
<title>skill_has_levels</title>
<g id="a_node3"><a xlink:href="../../tables/skill_has_levels.html" xlink:title="skill_has_levels" target="_top">
<polygon fill="#ffffff" stroke="transparent" points="325.5,-67.7 325.5,-128.7 444.5,-128.7 444.5,-67.7 325.5,-67.7"/>
<polygon fill="#f5f5f5" stroke="transparent" points="326,-105.2 326,-128.2 445,-128.2 445,-105.2 326,-105.2"/>
<polygon fill="none" stroke="#000000" points="326,-105.2 326,-128.2 445,-128.2 445,-105.2 326,-105.2"/>
<text text-anchor="start" x="330.8031" y="-114.3" font-family="Helvetica,sans-Serif" font-weight="bold" font-size="11.00" fill="#000000">skill_has_levels</text>
<text text-anchor="start" x="410.5219" y="-113.3" font-family="Helvetica,sans-Serif" font-size="11.00" fill="#000000">[table]</text>
<polygon fill="none" stroke="#000000" points="326,-86.2 326,-105.2 445,-105.2 445,-86.2 326,-86.2"/>
<text text-anchor="start" x="329" y="-92.3" font-family="Helvetica,sans-Serif" font-size="11.00" fill="#000000">...</text>
<polygon fill="#ffffff" stroke="transparent" points="326,-67.2 326,-86.2 371,-86.2 371,-67.2 326,-67.2"/>
<polygon fill="none" stroke="#000000" points="326,-67.2 326,-86.2 371,-86.2 371,-67.2 326,-67.2"/>
<text text-anchor="start" x="329" y="-73.3" font-family="Helvetica,sans-Serif" font-size="11.00" fill="#000000">&lt; 2</text>
<polygon fill="#ffffff" stroke="transparent" points="371,-67.2 371,-86.2 421,-86.2 421,-67.2 371,-67.2"/>
<polygon fill="none" stroke="#000000" points="371,-67.2 371,-86.2 421,-86.2 421,-67.2 371,-67.2"/>
<text text-anchor="start" x="385.6105" y="-73.3" font-family="Helvetica,sans-Serif" font-size="11.00" fill="#000000">0 rows</text>
<polygon fill="#ffffff" stroke="transparent" points="421,-67.2 421,-86.2 445,-86.2 445,-67.2 421,-67.2"/>
<polygon fill="none" stroke="#000000" points="421,-67.2 421,-86.2 445,-86.2 445,-67.2 421,-67.2"/>
<text text-anchor="start" x="435.8862" y="-73.3" font-family="Helvetica,sans-Serif" font-size="11.00" fill="#000000"> &#160;</text>
</a>
</g>
</g>
<!-- skill_has_levels&#45;&gt;skills -->
<g id="edge2" class="edge">
<title>skill_has_levels:w&#45;&gt;skills:e</title>
<path fill="none" stroke="#000000" d="M312.0181,-98.6956C294.8604,-108.6106 293.5448,-136.2 267.5,-136.2"/>
<polygon fill="#000000" stroke="#000000" points="318.2389,-97.1404 326.8732,-98.6925 322.1194,-96.1702 326,-95.2 326,-95.2 326,-95.2 322.1194,-96.1702 325.1268,-91.7075 318.2389,-97.1404 318.2389,-97.1404"/>
<ellipse fill="none" stroke="#000000" cx="315.1344" cy="-97.9166" rx="3.2" ry="3.2"/>
</g>
</g>
</svg>
