<?xml version="1.0" encoding="UTF-8" standalone="no"?>
<!DOCTYPE svg PUBLIC "-//W3C//DTD SVG 1.1//EN"
 "http://www.w3.org/Graphics/SVG/1.1/DTD/svg11.dtd">
<!-- Generated by graphviz version 2.40.1 (20161225.0304)
 -->
<!-- Title: oneDegreeRelationshipsDiagram Pages: 1 -->
<svg width="283pt" height="183pt"
 viewBox="0.00 0.00 283.00 182.70" xmlns="http://www.w3.org/2000/svg" xmlns:xlink="http://www.w3.org/1999/xlink">
<g id="graph0" class="graph" transform="scale(1 1) rotate(0) translate(4 178.7)">
<title>oneDegreeRelationshipsDiagram</title>
<polygon fill="#ffffff" stroke="transparent" points="-4,4 -4,-178.7 279,-178.7 279,4 -4,4"/>
<text text-anchor="middle" x="72.4936" y="-7.3" font-family="Helvetica,sans-Serif" font-size="11.00" fill="#000000">Generated by SchemaSpy</text>
<!-- skills -->
<g id="node1" class="node">
<title>skills</title>
<g id="a_node1"><a xlink:href="../../tables/skills.html" xlink:title="skills" target="_top">
<polygon fill="#ffffff" stroke="transparent" points="182,-65.7 182,-170.7 267,-170.7 267,-65.7 182,-65.7"/>
<polygon fill="#f5f5f5" stroke="transparent" points="182.5,-147.2 182.5,-170.2 267.5,-170.2 267.5,-147.2 182.5,-147.2"/>
<polygon fill="none" stroke="#000000" points="182.5,-147.2 182.5,-170.2 267.5,-170.2 267.5,-147.2 182.5,-147.2"/>
<text text-anchor="start" x="187.5" y="-156.3" font-family="Helvetica,sans-Serif" font-weight="bold" font-size="11.00" fill="#000000">skills</text>
<text text-anchor="start" x="232.5437" y="-155.3" font-family="Helvetica,sans-Serif" font-size="11.00" fill="#000000">[table]</text>
<polygon fill="none" stroke="#000000" points="182.5,-125.2 182.5,-147.2 267.5,-147.2 267.5,-125.2 182.5,-125.2"/>
<image xlink:href="../../images/primaryKeys.png" width="11px" height="12px" preserveAspectRatio="xMinYMin meet" x="187.5" y="-142.2"/>
<text text-anchor="start" x="202.5" y="-132.3" font-family="Helvetica,sans-Serif" font-size="11.00" fill="#000000">id</text>
<polygon fill="#ffffff" stroke="transparent" points="182.5,-103.2 182.5,-125.2 267.5,-125.2 267.5,-103.2 182.5,-103.2"/>
<polygon fill="none" stroke="#000000" points="182.5,-103.2 182.5,-125.2 267.5,-125.2 267.5,-103.2 182.5,-103.2"/>
<image xlink:href="../../images/foreignKeys.png" width="11px" height="12px" preserveAspectRatio="xMinYMin meet" x="187.5" y="-120.2"/>
<text text-anchor="start" x="202.5" y="-110.3" font-family="Helvetica,sans-Serif" font-size="11.00" fill="#000000">events_id</text>
<polygon fill="none" stroke="#000000" points="182.5,-84.2 182.5,-103.2 267.5,-103.2 267.5,-84.2 182.5,-84.2"/>
<text text-anchor="start" x="185.5" y="-90.3" font-family="Helvetica,sans-Serif" font-size="11.00" fill="#000000">...</text>
<polygon fill="#ffffff" stroke="transparent" points="182.5,-65.2 182.5,-84.2 205.5,-84.2 205.5,-65.2 182.5,-65.2"/>
<polygon fill="none" stroke="#000000" points="182.5,-65.2 182.5,-84.2 205.5,-84.2 205.5,-65.2 182.5,-65.2"/>
<text text-anchor="start" x="185.5" y="-71.3" font-family="Helvetica,sans-Serif" font-size="11.00" fill="#000000">&lt; 1</text>
<polygon fill="#ffffff" stroke="transparent" points="205.5,-65.2 205.5,-84.2 244.5,-84.2 244.5,-65.2 205.5,-65.2"/>
<polygon fill="none" stroke="#000000" points="205.5,-65.2 205.5,-84.2 244.5,-84.2 244.5,-65.2 205.5,-65.2"/>
<text text-anchor="start" x="209.1105" y="-71.3" font-family="Helvetica,sans-Serif" font-size="11.00" fill="#000000">0 rows</text>
<polygon fill="#ffffff" stroke="transparent" points="244.5,-65.2 244.5,-84.2 267.5,-84.2 267.5,-65.2 244.5,-65.2"/>
<polygon fill="none" stroke="#000000" points="244.5,-65.2 244.5,-84.2 267.5,-84.2 267.5,-65.2 244.5,-65.2"/>
<text text-anchor="start" x="248.9053" y="-71.3" font-family="Helvetica,sans-Serif" font-size="11.00" fill="#000000">2 &gt;</text>
</a>
</g>
</g>
<!-- events -->
<g id="node2" class="node">
<title>events</title>
<g id="a_node2"><a xlink:href="../../tables/events.html" xlink:title="events" target="_top">
<polygon fill="#ffffff" stroke="transparent" points="8,-38.2 8,-150.2 133,-150.2 133,-38.2 8,-38.2"/>
<polygon fill="#f5f5f5" stroke="transparent" points="10.5,-125.2 10.5,-148.2 131.5,-148.2 131.5,-125.2 10.5,-125.2"/>
<polygon fill="none" stroke="#000000" points="10.5,-125.2 10.5,-148.2 131.5,-148.2 131.5,-125.2 10.5,-125.2"/>
<text text-anchor="start" x="15.5" y="-134.3" font-family="Helvetica,sans-Serif" font-weight="bold" font-size="11.00" fill="#000000">events</text>
<text text-anchor="start" x="96.5437" y="-133.3" font-family="Helvetica,sans-Serif" font-size="11.00" fill="#000000">[table]</text>
<polygon fill="none" stroke="#000000" points="10.5,-103.2 10.5,-125.2 70.5,-125.2 70.5,-103.2 10.5,-103.2"/>
<image xlink:href="../../images/primaryKeys.png" width="11px" height="12px" preserveAspectRatio="xMinYMin meet" x="15.5" y="-120.2"/>
<text text-anchor="start" x="30.5" y="-110.3" font-family="Helvetica,sans-Serif" font-size="11.00" fill="#000000">id</text>
<polygon fill="none" stroke="#000000" points="70.5,-103.2 70.5,-125.2 131.5,-125.2 131.5,-103.2 70.5,-103.2"/>
<text text-anchor="start" x="73.5" y="-110.9" font-family="Helvetica,sans-Serif" font-size="11.00" fill="#000000">int[10]</text>
<polygon fill="none" stroke="#000000" points="10.5,-81.2 10.5,-103.2 70.5,-103.2 70.5,-81.2 10.5,-81.2"/>
<text text-anchor="start" x="30.5" y="-88.3" font-family="Helvetica,sans-Serif" font-size="11.00" fill="#000000">name</text>
<polygon fill="none" stroke="#000000" points="70.5,-81.2 70.5,-103.2 131.5,-103.2 131.5,-81.2 70.5,-81.2"/>
<text text-anchor="start" x="73.494" y="-88.9" font-family="Helvetica,sans-Serif" font-size="11.00" fill="#000000">varchar[45]</text>
<polygon fill="none" stroke="#000000" points="10.5,-59.2 10.5,-81.2 70.5,-81.2 70.5,-59.2 10.5,-59.2"/>
<text text-anchor="start" x="30.5" y="-66.3" font-family="Helvetica,sans-Serif" font-size="11.00" fill="#000000">abbrev</text>
<polygon fill="none" stroke="#000000" points="70.5,-59.2 70.5,-81.2 131.5,-81.2 131.5,-59.2 70.5,-59.2"/>
<text text-anchor="start" x="73.494" y="-66.9" font-family="Helvetica,sans-Serif" font-size="11.00" fill="#000000">varchar[45]</text>
<polygon fill="#ffffff" stroke="transparent" points="10.5,-40.2 10.5,-59.2 31.5,-59.2 31.5,-40.2 10.5,-40.2"/>
<polygon fill="none" stroke="#000000" points="10.5,-40.2 10.5,-59.2 31.5,-59.2 31.5,-40.2 10.5,-40.2"/>
<text text-anchor="start" x="13.2027" y="-46.3" font-family="Helvetica,sans-Serif" font-size="11.00" fill="#000000">&lt; 0</text>
<polygon fill="#ffffff" stroke="transparent" points="31.5,-40.2 31.5,-59.2 70.5,-59.2 70.5,-40.2 31.5,-40.2"/>
<polygon fill="none" stroke="#000000" points="31.5,-40.2 31.5,-59.2 70.5,-59.2 70.5,-40.2 31.5,-40.2"/>
<text text-anchor="start" x="35.1105" y="-46.3" font-family="Helvetica,sans-Serif" font-size="11.00" fill="#000000">0 rows</text>
<polygon fill="#ffffff" stroke="transparent" points="70.5,-40.2 70.5,-59.2 131.5,-59.2 131.5,-40.2 70.5,-40.2"/>
<polygon fill="none" stroke="#000000" points="70.5,-40.2 70.5,-59.2 131.5,-59.2 131.5,-40.2 70.5,-40.2"/>
<text text-anchor="start" x="112.9053" y="-46.3" font-family="Helvetica,sans-Serif" font-size="11.00" fill="#000000">1 &gt;</text>
<polygon fill="none" stroke="#000000" stroke-width="2" points="9,-39.2 9,-149.2 132,-149.2 132,-39.2 9,-39.2"/>
</a>
</g>
</g>
<!-- skills&#45;&gt;events -->
<g id="edge1" class="edge">
<title>skills:w&#45;&gt;events:e</title>
<path fill="none" stroke="#000000" d="M167.776,-114.2C155.7815,-114.2 148.3229,-114.2 131.5,-114.2"/>
<polygon fill="#000000" stroke="#000000" points="174.5,-114.2001 182.5,-117.8 178.5,-114.2 182.5,-114.2 182.5,-114.2 182.5,-114.2 178.5,-114.2 182.5,-110.6 174.5,-114.2001 174.5,-114.2001"/>
<ellipse fill="none" stroke="#000000" cx="171.3" cy="-114.2001" rx="3.2" ry="3.2"/>
</g>
</g>
</svg>
