<?xml version="1.0" encoding="UTF-8" standalone="no"?>
<!DOCTYPE svg PUBLIC "-//W3C//DTD SVG 1.1//EN"
 "http://www.w3.org/Graphics/SVG/1.1/DTD/svg11.dtd">
<!-- Generated by graphviz version 2.40.1 (20161225.0304)
 -->
<!-- Title: twoDegreesRelationshipsDiagram Pages: 1 -->
<svg width="648pt" height="545pt"
 viewBox="0.00 0.00 648.00 545.20" xmlns="http://www.w3.org/2000/svg" xmlns:xlink="http://www.w3.org/1999/xlink">
<g id="graph0" class="graph" transform="scale(1 1) rotate(0) translate(4 541.2)">
<title>twoDegreesRelationshipsDiagram</title>
<polygon fill="#ffffff" stroke="transparent" points="-4,4 -4,-541.2 644,-541.2 644,4 -4,4"/>
<text text-anchor="middle" x="72.4936" y="-7.3" font-family="Helvetica,sans-Serif" font-size="11.00" fill="#000000">Generated by SchemaSpy</text>
<!-- events -->
<g id="node1" class="node">
<title>events</title>
<g id="a_node1"><a xlink:href="../../tables/events.html" xlink:title="events" target="_top">
<polygon fill="#ffffff" stroke="transparent" points="142,-250.7 142,-450.7 306,-450.7 306,-250.7 142,-250.7"/>
<polygon fill="#f5f5f5" stroke="transparent" points="144,-425.7 144,-448.7 304,-448.7 304,-425.7 144,-425.7"/>
<polygon fill="none" stroke="#000000" points="144,-425.7 144,-448.7 304,-448.7 304,-425.7 144,-425.7"/>
<text text-anchor="start" x="149" y="-434.8" font-family="Helvetica,sans-Serif" font-weight="bold" font-size="11.00" fill="#000000">events</text>
<text text-anchor="start" x="269.0437" y="-433.8" font-family="Helvetica,sans-Serif" font-size="11.00" fill="#000000">[table]</text>
<polygon fill="none" stroke="#000000" points="144,-403.7 144,-425.7 229,-425.7 229,-403.7 144,-403.7"/>
<image xlink:href="../../images/primaryKeys.png" width="11px" height="12px" preserveAspectRatio="xMinYMin meet" x="149" y="-420.7"/>
<text text-anchor="start" x="164" y="-410.8" font-family="Helvetica,sans-Serif" font-size="11.00" fill="#000000">id</text>
<polygon fill="none" stroke="#000000" points="229,-403.7 229,-425.7 304,-425.7 304,-403.7 229,-403.7"/>
<text text-anchor="start" x="232" y="-411.4" font-family="Helvetica,sans-Serif" font-size="11.00" fill="#000000">bigint[19]</text>
<polygon fill="#ffffff" stroke="transparent" points="144,-381.7 144,-403.7 229,-403.7 229,-381.7 144,-381.7"/>
<polygon fill="none" stroke="#000000" points="144,-381.7 144,-403.7 229,-403.7 229,-381.7 144,-381.7"/>
<image xlink:href="../../images/foreignKeys.png" width="11px" height="12px" preserveAspectRatio="xMinYMin meet" x="149" y="-398.7"/>
<text text-anchor="start" x="164" y="-388.8" font-family="Helvetica,sans-Serif" font-size="11.00" fill="#000000">gym_id</text>
<polygon fill="none" stroke="#000000" points="229,-381.7 229,-403.7 304,-403.7 304,-381.7 229,-381.7"/>
<text text-anchor="start" x="232" y="-389.4" font-family="Helvetica,sans-Serif" font-size="11.00" fill="#000000">bigint[19]</text>
<polygon fill="none" stroke="#000000" points="144,-359.7 144,-381.7 229,-381.7 229,-359.7 144,-359.7"/>
<text text-anchor="start" x="164" y="-366.8" font-family="Helvetica,sans-Serif" font-size="11.00" fill="#000000">name</text>
<polygon fill="none" stroke="#000000" points="229,-359.7 229,-381.7 304,-381.7 304,-359.7 229,-359.7"/>
<text text-anchor="start" x="232" y="-367.4" font-family="Helvetica,sans-Serif" font-size="11.00" fill="#000000">char[45]</text>
<polygon fill="none" stroke="#000000" points="144,-337.7 144,-359.7 229,-359.7 229,-337.7 144,-337.7"/>
<text text-anchor="start" x="164" y="-344.8" font-family="Helvetica,sans-Serif" font-size="11.00" fill="#000000">abbrev</text>
<polygon fill="none" stroke="#000000" points="229,-337.7 229,-359.7 304,-359.7 304,-337.7 229,-337.7"/>
<text text-anchor="start" x="232" y="-345.4" font-family="Helvetica,sans-Serif" font-size="11.00" fill="#000000">char[5]</text>
<polygon fill="none" stroke="#000000" points="144,-315.7 144,-337.7 229,-337.7 229,-315.7 144,-315.7"/>
<text text-anchor="start" x="164" y="-322.8" font-family="Helvetica,sans-Serif" font-size="11.00" fill="#000000">created_at</text>
<polygon fill="none" stroke="#000000" points="229,-315.7 229,-337.7 304,-337.7 304,-315.7 229,-315.7"/>
<text text-anchor="start" x="231.9666" y="-323.4" font-family="Helvetica,sans-Serif" font-size="11.00" fill="#000000">timestamp[19]</text>
<polygon fill="none" stroke="#000000" points="144,-293.7 144,-315.7 229,-315.7 229,-293.7 144,-293.7"/>
<text text-anchor="start" x="164" y="-300.8" font-family="Helvetica,sans-Serif" font-size="11.00" fill="#000000">updated_at</text>
<polygon fill="none" stroke="#000000" points="229,-293.7 229,-315.7 304,-315.7 304,-293.7 229,-293.7"/>
<text text-anchor="start" x="231.9666" y="-301.4" font-family="Helvetica,sans-Serif" font-size="11.00" fill="#000000">timestamp[19]</text>
<polygon fill="none" stroke="#000000" points="144,-271.7 144,-293.7 229,-293.7 229,-271.7 144,-271.7"/>
<text text-anchor="start" x="164" y="-278.8" font-family="Helvetica,sans-Serif" font-size="11.00" fill="#000000">deleted_at</text>
<polygon fill="none" stroke="#000000" points="229,-271.7 229,-293.7 304,-293.7 304,-271.7 229,-271.7"/>
<text text-anchor="start" x="231.9666" y="-279.4" font-family="Helvetica,sans-Serif" font-size="11.00" fill="#000000">timestamp[19]</text>
<polygon fill="#ffffff" stroke="transparent" points="144,-252.7 144,-271.7 178,-271.7 178,-252.7 144,-252.7"/>
<polygon fill="none" stroke="#000000" points="144,-252.7 144,-271.7 178,-271.7 178,-252.7 144,-252.7"/>
<text text-anchor="start" x="147" y="-258.8" font-family="Helvetica,sans-Serif" font-size="11.00" fill="#000000">&lt; 1</text>
<polygon fill="#ffffff" stroke="transparent" points="178,-252.7 178,-271.7 229,-271.7 229,-252.7 178,-252.7"/>
<polygon fill="none" stroke="#000000" points="178,-252.7 178,-271.7 229,-271.7 229,-252.7 178,-252.7"/>
<text text-anchor="start" x="193.6105" y="-258.8" font-family="Helvetica,sans-Serif" font-size="11.00" fill="#000000">0 rows</text>
<polygon fill="#ffffff" stroke="transparent" points="229,-252.7 229,-271.7 304,-271.7 304,-252.7 229,-252.7"/>
<polygon fill="none" stroke="#000000" points="229,-252.7 229,-271.7 304,-271.7 304,-252.7 229,-252.7"/>
<text text-anchor="start" x="285.4053" y="-258.8" font-family="Helvetica,sans-Serif" font-size="11.00" fill="#000000">1 &gt;</text>
<polygon fill="none" stroke="#000000" stroke-width="2" points="143,-251.7 143,-449.7 305,-449.7 305,-251.7 143,-251.7"/>
</a>
</g>
</g>
<!-- gyms -->
<g id="node2" class="node">
<title>gyms</title>
<g id="a_node2"><a xlink:href="../../tables/gyms.html" xlink:title="gyms" target="_top">
<polygon fill="#ffffff" stroke="transparent" points="8,-344.2 8,-427.2 93,-427.2 93,-344.2 8,-344.2"/>
<polygon fill="#f5f5f5" stroke="transparent" points="8.5,-403.7 8.5,-426.7 93.5,-426.7 93.5,-403.7 8.5,-403.7"/>
<polygon fill="none" stroke="#000000" points="8.5,-403.7 8.5,-426.7 93.5,-426.7 93.5,-403.7 8.5,-403.7"/>
<text text-anchor="start" x="13.5" y="-412.8" font-family="Helvetica,sans-Serif" font-weight="bold" font-size="11.00" fill="#000000">gyms</text>
<text text-anchor="start" x="58.5437" y="-411.8" font-family="Helvetica,sans-Serif" font-size="11.00" fill="#000000">[table]</text>
<polygon fill="none" stroke="#000000" points="8.5,-381.7 8.5,-403.7 93.5,-403.7 93.5,-381.7 8.5,-381.7"/>
<image xlink:href="../../images/primaryKeys.png" width="11px" height="12px" preserveAspectRatio="xMinYMin meet" x="13.5" y="-398.7"/>
<text text-anchor="start" x="28.5" y="-388.8" font-family="Helvetica,sans-Serif" font-size="11.00" fill="#000000">id</text>
<polygon fill="none" stroke="#000000" points="8.5,-362.7 8.5,-381.7 93.5,-381.7 93.5,-362.7 8.5,-362.7"/>
<text text-anchor="start" x="11.5" y="-368.8" font-family="Helvetica,sans-Serif" font-size="11.00" fill="#000000">...</text>
<polygon fill="#ffffff" stroke="transparent" points="8.5,-343.7 8.5,-362.7 27.5,-362.7 27.5,-343.7 8.5,-343.7"/>
<polygon fill="none" stroke="#000000" points="8.5,-343.7 8.5,-362.7 27.5,-362.7 27.5,-343.7 8.5,-343.7"/>
<text text-anchor="start" x="11.5" y="-349.8" font-family="Helvetica,sans-Serif" font-size="11.00" fill="#000000"> &#160;</text>
<polygon fill="#ffffff" stroke="transparent" points="27.5,-343.7 27.5,-362.7 68.5,-362.7 68.5,-343.7 27.5,-343.7"/>
<polygon fill="none" stroke="#000000" points="27.5,-343.7 27.5,-362.7 68.5,-362.7 68.5,-343.7 27.5,-343.7"/>
<text text-anchor="start" x="33.1105" y="-349.8" font-family="Helvetica,sans-Serif" font-size="11.00" fill="#000000">0 rows</text>
<polygon fill="#ffffff" stroke="transparent" points="68.5,-343.7 68.5,-362.7 93.5,-362.7 93.5,-343.7 68.5,-343.7"/>
<polygon fill="none" stroke="#000000" points="68.5,-343.7 68.5,-362.7 93.5,-362.7 93.5,-343.7 68.5,-343.7"/>
<text text-anchor="start" x="74.9053" y="-349.8" font-family="Helvetica,sans-Serif" font-size="11.00" fill="#000000">3 &gt;</text>
</a>
</g>
</g>
<!-- events&#45;&gt;gyms -->
<g id="edge1" class="edge">
<title>events:w&#45;&gt;gyms:e</title>
<path fill="none" stroke="#000000" d="M129.4203,-392.7C117.5435,-392.7 110.158,-392.7 93.5,-392.7"/>
<polygon fill="#000000" stroke="#000000" points="136,-392.7001 144,-396.3 140,-392.7 144,-392.7 144,-392.7 144,-392.7 140,-392.7 144,-389.1 136,-392.7001 136,-392.7001"/>
<ellipse fill="none" stroke="#000000" cx="132.8" cy="-392.7001" rx="3.2" ry="3.2"/>
</g>
<!-- gymnast_has_skills -->
<g id="node3" class="node">
<title>gymnast_has_skills</title>
<g id="a_node3"><a xlink:href="../../tables/gymnast_has_skills.html" xlink:title="gymnast_has_skills" target="_top">
<polygon fill="#ffffff" stroke="transparent" points="493,-209.2 493,-270.2 631,-270.2 631,-209.2 493,-209.2"/>
<polygon fill="#f5f5f5" stroke="transparent" points="493,-246.7 493,-269.7 631,-269.7 631,-246.7 493,-246.7"/>
<polygon fill="none" stroke="#000000" points="493,-246.7 493,-269.7 631,-269.7 631,-246.7 493,-246.7"/>
<text text-anchor="start" x="497.8271" y="-255.8" font-family="Helvetica,sans-Serif" font-weight="bold" font-size="11.00" fill="#000000">gymnast_has_skills</text>
<text text-anchor="start" x="596.5219" y="-254.8" font-family="Helvetica,sans-Serif" font-size="11.00" fill="#000000">[table]</text>
<polygon fill="none" stroke="#000000" points="493,-227.7 493,-246.7 631,-246.7 631,-227.7 493,-227.7"/>
<text text-anchor="start" x="496" y="-233.8" font-family="Helvetica,sans-Serif" font-size="11.00" fill="#000000">...</text>
<polygon fill="#ffffff" stroke="transparent" points="493,-208.7 493,-227.7 547,-227.7 547,-208.7 493,-208.7"/>
<polygon fill="none" stroke="#000000" points="493,-208.7 493,-227.7 547,-227.7 547,-208.7 493,-208.7"/>
<text text-anchor="start" x="496" y="-214.8" font-family="Helvetica,sans-Serif" font-size="11.00" fill="#000000">&lt; 2</text>
<polygon fill="#ffffff" stroke="transparent" points="547,-208.7 547,-227.7 602,-227.7 602,-208.7 547,-208.7"/>
<polygon fill="none" stroke="#000000" points="547,-208.7 547,-227.7 602,-227.7 602,-208.7 547,-208.7"/>
<text text-anchor="start" x="566.6105" y="-214.8" font-family="Helvetica,sans-Serif" font-size="11.00" fill="#000000">0 rows</text>
<polygon fill="#ffffff" stroke="transparent" points="602,-208.7 602,-227.7 631,-227.7 631,-208.7 602,-208.7"/>
<polygon fill="none" stroke="#000000" points="602,-208.7 602,-227.7 631,-227.7 631,-208.7 602,-208.7"/>
<text text-anchor="start" x="621.8862" y="-214.8" font-family="Helvetica,sans-Serif" font-size="11.00" fill="#000000"> &#160;</text>
</a>
</g>
</g>
<!-- skills -->
<g id="node4" class="node">
<title>skills</title>
<g id="a_node4"><a xlink:href="../../tables/skills.html" xlink:title="skills" target="_top">
<polygon fill="#ffffff" stroke="transparent" points="355,-122.2 355,-271.2 443,-271.2 443,-122.2 355,-122.2"/>
<polygon fill="#f5f5f5" stroke="transparent" points="355,-247.7 355,-270.7 443,-270.7 443,-247.7 355,-247.7"/>
<polygon fill="none" stroke="#000000" points="355,-247.7 355,-270.7 443,-270.7 443,-247.7 355,-247.7"/>
<text text-anchor="start" x="360" y="-256.8" font-family="Helvetica,sans-Serif" font-weight="bold" font-size="11.00" fill="#000000">skills</text>
<text text-anchor="start" x="408.0437" y="-255.8" font-family="Helvetica,sans-Serif" font-size="11.00" fill="#000000">[table]</text>
<polygon fill="none" stroke="#000000" points="355,-225.7 355,-247.7 443,-247.7 443,-225.7 355,-225.7"/>
<image xlink:href="../../images/primaryKeys.png" width="11px" height="12px" preserveAspectRatio="xMinYMin meet" x="360" y="-242.7"/>
<text text-anchor="start" x="375" y="-232.8" font-family="Helvetica,sans-Serif" font-size="11.00" fill="#000000">id</text>
<polygon fill="#ffffff" stroke="transparent" points="355,-203.7 355,-225.7 443,-225.7 443,-203.7 355,-203.7"/>
<polygon fill="none" stroke="#000000" points="355,-203.7 355,-225.7 443,-225.7 443,-203.7 355,-203.7"/>
<image xlink:href="../../images/foreignKeys.png" width="11px" height="12px" preserveAspectRatio="xMinYMin meet" x="360" y="-220.7"/>
<text text-anchor="start" x="375" y="-210.8" font-family="Helvetica,sans-Serif" font-size="11.00" fill="#000000">event_id</text>
<polygon fill="#ffffff" stroke="transparent" points="355,-181.7 355,-203.7 443,-203.7 443,-181.7 355,-181.7"/>
<polygon fill="none" stroke="#000000" points="355,-181.7 355,-203.7 443,-203.7 443,-181.7 355,-181.7"/>
<image xlink:href="../../images/foreignKeys.png" width="11px" height="12px" preserveAspectRatio="xMinYMin meet" x="360" y="-198.7"/>
<text text-anchor="start" x="375" y="-188.8" font-family="Helvetica,sans-Serif" font-size="11.00" fill="#000000">category_id</text>
<polygon fill="#ffffff" stroke="transparent" points="355,-159.7 355,-181.7 443,-181.7 443,-159.7 355,-159.7"/>
<polygon fill="none" stroke="#000000" points="355,-159.7 355,-181.7 443,-181.7 443,-159.7 355,-159.7"/>
<image xlink:href="../../images/foreignKeys.png" width="11px" height="12px" preserveAspectRatio="xMinYMin meet" x="360" y="-176.7"/>
<text text-anchor="start" x="375" y="-166.8" font-family="Helvetica,sans-Serif" font-size="11.00" fill="#000000">level_id</text>
<polygon fill="none" stroke="#000000" points="355,-140.7 355,-159.7 443,-159.7 443,-140.7 355,-140.7"/>
<text text-anchor="start" x="358" y="-146.8" font-family="Helvetica,sans-Serif" font-size="11.00" fill="#000000">...</text>
<polygon fill="#ffffff" stroke="transparent" points="355,-121.7 355,-140.7 380,-140.7 380,-121.7 355,-121.7"/>
<polygon fill="none" stroke="#000000" points="355,-121.7 355,-140.7 380,-140.7 380,-121.7 355,-121.7"/>
<text text-anchor="start" x="358" y="-127.8" font-family="Helvetica,sans-Serif" font-size="11.00" fill="#000000">&lt; 3</text>
<polygon fill="#ffffff" stroke="transparent" points="380,-121.7 380,-140.7 420,-140.7 420,-121.7 380,-121.7"/>
<polygon fill="none" stroke="#000000" points="380,-121.7 380,-140.7 420,-140.7 420,-121.7 380,-121.7"/>
<text text-anchor="start" x="384.6105" y="-127.8" font-family="Helvetica,sans-Serif" font-size="11.00" fill="#000000">0 rows</text>
<polygon fill="#ffffff" stroke="transparent" points="420,-121.7 420,-140.7 443,-140.7 443,-121.7 420,-121.7"/>
<polygon fill="none" stroke="#000000" points="420,-121.7 420,-140.7 443,-140.7 443,-121.7 420,-121.7"/>
<text text-anchor="start" x="424.4053" y="-127.8" font-family="Helvetica,sans-Serif" font-size="11.00" fill="#000000">2 &gt;</text>
</a>
</g>
</g>
<!-- gymnast_has_skills&#45;&gt;skills -->
<g id="edge2" class="edge">
<title>gymnast_has_skills:w&#45;&gt;skills:e</title>
<path fill="none" stroke="#000000" d="M478.5647,-236.7C466.8054,-236.7 459.4931,-236.7 443,-236.7"/>
<polygon fill="#000000" stroke="#000000" points="485,-236.7001 493,-240.3 489,-236.7 493,-236.7 493,-236.7 493,-236.7 489,-236.7 493,-233.1 485,-236.7001 485,-236.7001"/>
<ellipse fill="none" stroke="#000000" cx="481.8" cy="-236.7001" rx="3.2" ry="3.2"/>
</g>
<!-- skills&#45;&gt;events -->
<g id="edge8" class="edge">
<title>skills:w&#45;&gt;events:e</title>
<path fill="none" stroke="#000000" d="M340.7037,-216.8108C278.4856,-238.1856 390.1792,-414.7 304,-414.7"/>
<polygon fill="#000000" stroke="#000000" points="347.0858,-215.8685 355.5258,-218.2614 351.0429,-215.2843 355,-214.7 355,-214.7 355,-214.7 351.0429,-215.2843 354.4742,-211.1386 347.0858,-215.8685 347.0858,-215.8685"/>
<ellipse fill="none" stroke="#000000" cx="343.9201" cy="-216.3359" rx="3.2" ry="3.2"/>
</g>
<!-- categories -->
<g id="node8" class="node">
<title>categories</title>
<g id="a_node8"><a xlink:href="../../tables/categories.html" xlink:title="categories" target="_top">
<polygon fill="#ffffff" stroke="transparent" points="177.5,-168.2 177.5,-229.2 270.5,-229.2 270.5,-168.2 177.5,-168.2"/>
<polygon fill="#f5f5f5" stroke="transparent" points="178,-205.7 178,-228.7 271,-228.7 271,-205.7 178,-205.7"/>
<polygon fill="none" stroke="#000000" points="178,-205.7 178,-228.7 271,-228.7 271,-205.7 178,-205.7"/>
<text text-anchor="start" x="182.6329" y="-214.8" font-family="Helvetica,sans-Serif" font-weight="bold" font-size="11.00" fill="#000000">categories</text>
<text text-anchor="start" x="236.5219" y="-213.8" font-family="Helvetica,sans-Serif" font-size="11.00" fill="#000000">[table]</text>
<polygon fill="none" stroke="#000000" points="178,-186.7 178,-205.7 271,-205.7 271,-186.7 178,-186.7"/>
<text text-anchor="start" x="181" y="-192.8" font-family="Helvetica,sans-Serif" font-size="11.00" fill="#000000">...</text>
<polygon fill="#ffffff" stroke="transparent" points="178,-167.7 178,-186.7 201,-186.7 201,-167.7 178,-167.7"/>
<polygon fill="none" stroke="#000000" points="178,-167.7 178,-186.7 201,-186.7 201,-167.7 178,-167.7"/>
<text text-anchor="start" x="181" y="-173.8" font-family="Helvetica,sans-Serif" font-size="11.00" fill="#000000"> &#160;</text>
<polygon fill="#ffffff" stroke="transparent" points="201,-167.7 201,-186.7 244,-186.7 244,-167.7 201,-167.7"/>
<polygon fill="none" stroke="#000000" points="201,-167.7 201,-186.7 244,-186.7 244,-167.7 201,-167.7"/>
<text text-anchor="start" x="208.6105" y="-173.8" font-family="Helvetica,sans-Serif" font-size="11.00" fill="#000000">0 rows</text>
<polygon fill="#ffffff" stroke="transparent" points="244,-167.7 244,-186.7 271,-186.7 271,-167.7 244,-167.7"/>
<polygon fill="none" stroke="#000000" points="244,-167.7 244,-186.7 271,-186.7 271,-167.7 244,-167.7"/>
<text text-anchor="start" x="252.4053" y="-173.8" font-family="Helvetica,sans-Serif" font-size="11.00" fill="#000000">1 &gt;</text>
</a>
</g>
</g>
<!-- skills&#45;&gt;categories -->
<g id="edge7" class="edge">
<title>skills:w&#45;&gt;categories:e</title>
<path fill="none" stroke="#000000" d="M340.3919,-192.8699C314.3723,-193.5045 302.9579,-195.7 271,-195.7"/>
<polygon fill="#000000" stroke="#000000" points="347.0005,-192.7931 355.0419,-196.2998 351.0003,-192.7465 355,-192.7 355,-192.7 355,-192.7 351.0003,-192.7465 354.9581,-189.1002 347.0005,-192.7931 347.0005,-192.7931"/>
<ellipse fill="none" stroke="#000000" cx="343.8008" cy="-192.8303" rx="3.2" ry="3.2"/>
</g>
<!-- levels -->
<g id="node9" class="node">
<title>levels</title>
<g id="a_node9"><a xlink:href="../../tables/levels.html" xlink:title="levels" target="_top">
<polygon fill="#ffffff" stroke="transparent" points="188.5,-86.2 188.5,-147.2 259.5,-147.2 259.5,-86.2 188.5,-86.2"/>
<polygon fill="#f5f5f5" stroke="transparent" points="189,-123.7 189,-146.7 260,-146.7 260,-123.7 189,-123.7"/>
<polygon fill="none" stroke="#000000" points="189,-123.7 189,-146.7 260,-146.7 260,-123.7 189,-123.7"/>
<text text-anchor="start" x="193.9442" y="-132.8" font-family="Helvetica,sans-Serif" font-weight="bold" font-size="11.00" fill="#000000">levels</text>
<text text-anchor="start" x="225.5219" y="-131.8" font-family="Helvetica,sans-Serif" font-size="11.00" fill="#000000">[table]</text>
<polygon fill="none" stroke="#000000" points="189,-104.7 189,-123.7 260,-123.7 260,-104.7 189,-104.7"/>
<text text-anchor="start" x="192" y="-110.8" font-family="Helvetica,sans-Serif" font-size="11.00" fill="#000000">...</text>
<polygon fill="#ffffff" stroke="transparent" points="189,-85.7 189,-104.7 201,-104.7 201,-85.7 189,-85.7"/>
<polygon fill="none" stroke="#000000" points="189,-85.7 189,-104.7 201,-104.7 201,-85.7 189,-85.7"/>
<text text-anchor="start" x="191.9431" y="-91.8" font-family="Helvetica,sans-Serif" font-size="11.00" fill="#000000"> &#160;</text>
<polygon fill="#ffffff" stroke="transparent" points="201,-85.7 201,-104.7 239,-104.7 239,-85.7 201,-85.7"/>
<polygon fill="none" stroke="#000000" points="201,-85.7 201,-104.7 239,-104.7 239,-85.7 201,-85.7"/>
<text text-anchor="start" x="203.8053" y="-91.8" font-family="Helvetica,sans-Serif" font-size="11.00" fill="#000000">0 rows</text>
<polygon fill="#ffffff" stroke="transparent" points="239,-85.7 239,-104.7 260,-104.7 260,-85.7 239,-85.7"/>
<polygon fill="none" stroke="#000000" points="239,-85.7 239,-104.7 260,-104.7 260,-85.7 239,-85.7"/>
<text text-anchor="start" x="241.7027" y="-91.8" font-family="Helvetica,sans-Serif" font-size="11.00" fill="#000000">1 &gt;</text>
</a>
</g>
</g>
<!-- skills&#45;&gt;levels -->
<g id="edge9" class="edge">
<title>skills:w&#45;&gt;levels:e</title>
<path fill="none" stroke="#000000" d="M340.5974,-168.8035C305.8911,-158.9131 303.8536,-113.7 260,-113.7"/>
<polygon fill="#000000" stroke="#000000" points="347.0685,-169.6556 354.53,-174.2692 351.0342,-170.1778 355,-170.7 355,-170.7 355,-170.7 351.0342,-170.1778 355.47,-167.1308 347.0685,-169.6556 347.0685,-169.6556"/>
<ellipse fill="none" stroke="#000000" cx="343.8959" cy="-169.2378" rx="3.2" ry="3.2"/>
</g>
<!-- gyms_has_users -->
<g id="node5" class="node">
<title>gyms_has_users</title>
<g id="a_node5"><a xlink:href="../../tables/gyms_has_users.html" xlink:title="gyms_has_users" target="_top">
<polygon fill="#ffffff" stroke="transparent" points="161,-472.2 161,-533.2 287,-533.2 287,-472.2 161,-472.2"/>
<polygon fill="#f5f5f5" stroke="transparent" points="161,-509.7 161,-532.7 287,-532.7 287,-509.7 161,-509.7"/>
<polygon fill="none" stroke="#000000" points="161,-509.7 161,-532.7 287,-532.7 287,-509.7 161,-509.7"/>
<text text-anchor="start" x="165.936" y="-518.8" font-family="Helvetica,sans-Serif" font-weight="bold" font-size="11.00" fill="#000000">gyms_has_users</text>
<text text-anchor="start" x="252.5219" y="-517.8" font-family="Helvetica,sans-Serif" font-size="11.00" fill="#000000">[table]</text>
<polygon fill="none" stroke="#000000" points="161,-490.7 161,-509.7 287,-509.7 287,-490.7 161,-490.7"/>
<text text-anchor="start" x="164" y="-496.8" font-family="Helvetica,sans-Serif" font-size="11.00" fill="#000000">...</text>
<polygon fill="#ffffff" stroke="transparent" points="161,-471.7 161,-490.7 205,-490.7 205,-471.7 161,-471.7"/>
<polygon fill="none" stroke="#000000" points="161,-471.7 161,-490.7 205,-490.7 205,-471.7 161,-471.7"/>
<text text-anchor="start" x="164" y="-477.8" font-family="Helvetica,sans-Serif" font-size="11.00" fill="#000000">&lt; 2</text>
<polygon fill="#ffffff" stroke="transparent" points="205,-471.7 205,-490.7 254,-490.7 254,-471.7 205,-471.7"/>
<polygon fill="none" stroke="#000000" points="205,-471.7 205,-490.7 254,-490.7 254,-471.7 205,-471.7"/>
<text text-anchor="start" x="218.6105" y="-477.8" font-family="Helvetica,sans-Serif" font-size="11.00" fill="#000000">0 rows</text>
<polygon fill="#ffffff" stroke="transparent" points="254,-471.7 254,-490.7 287,-490.7 287,-471.7 254,-471.7"/>
<polygon fill="none" stroke="#000000" points="254,-471.7 254,-490.7 287,-490.7 287,-471.7 254,-471.7"/>
<text text-anchor="start" x="268.4053" y="-477.8" font-family="Helvetica,sans-Serif" font-size="11.00" fill="#000000">2 &gt;</text>
</a>
</g>
</g>
<!-- gyms_has_users&#45;&gt;gyms -->
<g id="edge3" class="edge">
<title>gyms_has_users:w&#45;&gt;gyms:e</title>
<path fill="none" stroke="#000000" d="M146.7873,-496.6131C112.8603,-479.0693 144.0169,-392.7 93.5,-392.7"/>
<polygon fill="#000000" stroke="#000000" points="153.1823,-498.002 160.2359,-503.218 157.0911,-498.851 161,-499.7 161,-499.7 161,-499.7 157.0911,-498.851 161.7641,-496.182 153.1823,-498.002 153.1823,-498.002"/>
<ellipse fill="none" stroke="#000000" cx="150.0552" cy="-497.3228" rx="3.2" ry="3.2"/>
</g>
<!-- skill_lists -->
<g id="node6" class="node">
<title>skill_lists</title>
<g id="a_node6"><a xlink:href="../../tables/skill_lists.html" xlink:title="skill_lists" target="_top">
<polygon fill="#ffffff" stroke="transparent" points="356,-38.2 356,-99.2 442,-99.2 442,-38.2 356,-38.2"/>
<polygon fill="#f5f5f5" stroke="transparent" points="356,-75.7 356,-98.7 442,-98.7 442,-75.7 356,-75.7"/>
<polygon fill="none" stroke="#000000" points="356,-75.7 356,-98.7 442,-98.7 442,-75.7 356,-75.7"/>
<text text-anchor="start" x="360.8119" y="-84.8" font-family="Helvetica,sans-Serif" font-weight="bold" font-size="11.00" fill="#000000">skill_lists</text>
<text text-anchor="start" x="407.5219" y="-83.8" font-family="Helvetica,sans-Serif" font-size="11.00" fill="#000000">[table]</text>
<polygon fill="none" stroke="#000000" points="356,-56.7 356,-75.7 442,-75.7 442,-56.7 356,-56.7"/>
<text text-anchor="start" x="359" y="-62.8" font-family="Helvetica,sans-Serif" font-size="11.00" fill="#000000">...</text>
<polygon fill="#ffffff" stroke="transparent" points="356,-37.7 356,-56.7 380,-56.7 380,-37.7 356,-37.7"/>
<polygon fill="none" stroke="#000000" points="356,-37.7 356,-56.7 380,-56.7 380,-37.7 356,-37.7"/>
<text text-anchor="start" x="359" y="-43.8" font-family="Helvetica,sans-Serif" font-size="11.00" fill="#000000">&lt; 1</text>
<polygon fill="#ffffff" stroke="transparent" points="380,-37.7 380,-56.7 419,-56.7 419,-37.7 380,-37.7"/>
<polygon fill="none" stroke="#000000" points="380,-37.7 380,-56.7 419,-56.7 419,-37.7 380,-37.7"/>
<text text-anchor="start" x="383.6105" y="-43.8" font-family="Helvetica,sans-Serif" font-size="11.00" fill="#000000">0 rows</text>
<polygon fill="#ffffff" stroke="transparent" points="419,-37.7 419,-56.7 442,-56.7 442,-37.7 419,-37.7"/>
<polygon fill="none" stroke="#000000" points="419,-37.7 419,-56.7 442,-56.7 442,-37.7 419,-37.7"/>
<text text-anchor="start" x="423.4053" y="-43.8" font-family="Helvetica,sans-Serif" font-size="11.00" fill="#000000">2 &gt;</text>
</a>
</g>
</g>
<!-- skill_lists&#45;&gt;gyms -->
<g id="edge4" class="edge">
<title>skill_lists:w&#45;&gt;gyms:e</title>
<path fill="none" stroke="#000000" d="M341.5927,-65.2988C252.1394,-60.3379 203.0264,-12.1174 134,-75.7 81.7659,-123.8146 164.517,-392.7 93.5,-392.7"/>
<polygon fill="#000000" stroke="#000000" points="348.0031,-65.4773 355.8998,-69.2986 352.0016,-65.5886 356,-65.7 356,-65.7 356,-65.7 352.0016,-65.5886 356.1002,-62.1014 348.0031,-65.4773 348.0031,-65.4773"/>
<ellipse fill="none" stroke="#000000" cx="344.8043" cy="-65.3882" rx="3.2" ry="3.2"/>
</g>
<!-- skill_lists_has_skills -->
<g id="node7" class="node">
<title>skill_lists_has_skills</title>
<g id="a_node7"><a xlink:href="../../tables/skill_lists_has_skills.html" xlink:title="skill_lists_has_skills" target="_top">
<polygon fill="#ffffff" stroke="transparent" points="492,-82.2 492,-143.2 632,-143.2 632,-82.2 492,-82.2"/>
<polygon fill="#f5f5f5" stroke="transparent" points="492,-119.7 492,-142.7 632,-142.7 632,-119.7 492,-119.7"/>
<polygon fill="none" stroke="#000000" points="492,-119.7 492,-142.7 632,-142.7 632,-119.7 492,-119.7"/>
<text text-anchor="start" x="496.9207" y="-128.8" font-family="Helvetica,sans-Serif" font-weight="bold" font-size="11.00" fill="#000000">skill_lists_has_skills</text>
<text text-anchor="start" x="597.5219" y="-127.8" font-family="Helvetica,sans-Serif" font-size="11.00" fill="#000000">[table]</text>
<polygon fill="none" stroke="#000000" points="492,-100.7 492,-119.7 632,-119.7 632,-100.7 492,-100.7"/>
<text text-anchor="start" x="495" y="-106.8" font-family="Helvetica,sans-Serif" font-size="11.00" fill="#000000">...</text>
<polygon fill="#ffffff" stroke="transparent" points="492,-81.7 492,-100.7 547,-100.7 547,-81.7 492,-81.7"/>
<polygon fill="none" stroke="#000000" points="492,-81.7 492,-100.7 547,-100.7 547,-81.7 492,-81.7"/>
<text text-anchor="start" x="495" y="-87.8" font-family="Helvetica,sans-Serif" font-size="11.00" fill="#000000">&lt; 2</text>
<polygon fill="#ffffff" stroke="transparent" points="547,-81.7 547,-100.7 602,-100.7 602,-81.7 547,-81.7"/>
<polygon fill="none" stroke="#000000" points="547,-81.7 547,-100.7 602,-100.7 602,-81.7 547,-81.7"/>
<text text-anchor="start" x="566.6105" y="-87.8" font-family="Helvetica,sans-Serif" font-size="11.00" fill="#000000">0 rows</text>
<polygon fill="#ffffff" stroke="transparent" points="602,-81.7 602,-100.7 632,-100.7 632,-81.7 602,-81.7"/>
<polygon fill="none" stroke="#000000" points="602,-81.7 602,-100.7 632,-100.7 632,-81.7 602,-81.7"/>
<text text-anchor="start" x="622.8862" y="-87.8" font-family="Helvetica,sans-Serif" font-size="11.00" fill="#000000"> &#160;</text>
</a>
</g>
</g>
<!-- skill_lists_has_skills&#45;&gt;skills -->
<g id="edge5" class="edge">
<title>skill_lists_has_skills:w&#45;&gt;skills:e</title>
<path fill="none" stroke="#000000" d="M477.8195,-113.0969C444.2989,-133.2935 497.5918,-236.7 443,-236.7"/>
<polygon fill="#000000" stroke="#000000" points="484.2201,-111.5637 492.8387,-113.201 488.1101,-110.6319 492,-109.7 492,-109.7 492,-109.7 488.1101,-110.6319 491.1613,-106.199 484.2201,-111.5637 484.2201,-111.5637"/>
<ellipse fill="none" stroke="#000000" cx="481.1081" cy="-112.3092" rx="3.2" ry="3.2"/>
</g>
<!-- skill_lists_has_skills&#45;&gt;skill_lists -->
<g id="edge6" class="edge">
<title>skill_lists_has_skills:w&#45;&gt;skill_lists:e</title>
<path fill="none" stroke="#000000" d="M478.1144,-104.9912C464.5362,-93.6404 465.5887,-65.7 442,-65.7"/>
<polygon fill="#000000" stroke="#000000" points="484.4238,-107.1308 490.8439,-113.1093 488.2119,-108.4154 492,-109.7 492,-109.7 492,-109.7 488.2119,-108.4154 493.1561,-106.2907 484.4238,-107.1308 484.4238,-107.1308"/>
<ellipse fill="none" stroke="#000000" cx="481.3933" cy="-106.1031" rx="3.2" ry="3.2"/>
</g>
</g>
</svg>
