<?xml version="1.0" encoding="UTF-8" standalone="no"?>
<!DOCTYPE svg PUBLIC "-//W3C//DTD SVG 1.1//EN"
 "http://www.w3.org/Graphics/SVG/1.1/DTD/svg11.dtd">
<!-- Generated by graphviz version 2.40.1 (20161225.0304)
 -->
<!-- Title: oneDegreeRelationshipsDiagram Pages: 1 -->
<svg width="459pt" height="271pt"
 viewBox="0.00 0.00 459.00 270.70" xmlns="http://www.w3.org/2000/svg" xmlns:xlink="http://www.w3.org/1999/xlink">
<g id="graph0" class="graph" transform="scale(1 1) rotate(0) translate(4 266.7)">
<title>oneDegreeRelationshipsDiagram</title>
<polygon fill="#ffffff" stroke="transparent" points="-4,4 -4,-266.7 455,-266.7 455,4 -4,4"/>
<text text-anchor="middle" x="72.4936" y="-7.3" font-family="Helvetica,sans-Serif" font-size="11.00" fill="#000000">Generated by SchemaSpy</text>
<!-- events -->
<g id="node1" class="node">
<title>events</title>
<g id="a_node1"><a xlink:href="../../tables/events.html" xlink:title="events" target="_top">
<polygon fill="#ffffff" stroke="transparent" points="142,-38.2 142,-238.2 306,-238.2 306,-38.2 142,-38.2"/>
<polygon fill="#f5f5f5" stroke="transparent" points="144,-213.2 144,-236.2 304,-236.2 304,-213.2 144,-213.2"/>
<polygon fill="none" stroke="#000000" points="144,-213.2 144,-236.2 304,-236.2 304,-213.2 144,-213.2"/>
<text text-anchor="start" x="149" y="-222.3" font-family="Helvetica,sans-Serif" font-weight="bold" font-size="11.00" fill="#000000">events</text>
<text text-anchor="start" x="269.0437" y="-221.3" font-family="Helvetica,sans-Serif" font-size="11.00" fill="#000000">[table]</text>
<polygon fill="none" stroke="#000000" points="144,-191.2 144,-213.2 229,-213.2 229,-191.2 144,-191.2"/>
<image xlink:href="../../images/primaryKeys.png" width="11px" height="12px" preserveAspectRatio="xMinYMin meet" x="149" y="-208.2"/>
<text text-anchor="start" x="164" y="-198.3" font-family="Helvetica,sans-Serif" font-size="11.00" fill="#000000">id</text>
<polygon fill="none" stroke="#000000" points="229,-191.2 229,-213.2 304,-213.2 304,-191.2 229,-191.2"/>
<text text-anchor="start" x="232" y="-198.9" font-family="Helvetica,sans-Serif" font-size="11.00" fill="#000000">bigint[19]</text>
<polygon fill="#ffffff" stroke="transparent" points="144,-169.2 144,-191.2 229,-191.2 229,-169.2 144,-169.2"/>
<polygon fill="none" stroke="#000000" points="144,-169.2 144,-191.2 229,-191.2 229,-169.2 144,-169.2"/>
<image xlink:href="../../images/foreignKeys.png" width="11px" height="12px" preserveAspectRatio="xMinYMin meet" x="149" y="-186.2"/>
<text text-anchor="start" x="164" y="-176.3" font-family="Helvetica,sans-Serif" font-size="11.00" fill="#000000">gym_id</text>
<polygon fill="none" stroke="#000000" points="229,-169.2 229,-191.2 304,-191.2 304,-169.2 229,-169.2"/>
<text text-anchor="start" x="232" y="-176.9" font-family="Helvetica,sans-Serif" font-size="11.00" fill="#000000">bigint[19]</text>
<polygon fill="none" stroke="#000000" points="144,-147.2 144,-169.2 229,-169.2 229,-147.2 144,-147.2"/>
<text text-anchor="start" x="164" y="-154.3" font-family="Helvetica,sans-Serif" font-size="11.00" fill="#000000">name</text>
<polygon fill="none" stroke="#000000" points="229,-147.2 229,-169.2 304,-169.2 304,-147.2 229,-147.2"/>
<text text-anchor="start" x="232" y="-154.9" font-family="Helvetica,sans-Serif" font-size="11.00" fill="#000000">char[45]</text>
<polygon fill="none" stroke="#000000" points="144,-125.2 144,-147.2 229,-147.2 229,-125.2 144,-125.2"/>
<text text-anchor="start" x="164" y="-132.3" font-family="Helvetica,sans-Serif" font-size="11.00" fill="#000000">abbrev</text>
<polygon fill="none" stroke="#000000" points="229,-125.2 229,-147.2 304,-147.2 304,-125.2 229,-125.2"/>
<text text-anchor="start" x="232" y="-132.9" font-family="Helvetica,sans-Serif" font-size="11.00" fill="#000000">char[5]</text>
<polygon fill="none" stroke="#000000" points="144,-103.2 144,-125.2 229,-125.2 229,-103.2 144,-103.2"/>
<text text-anchor="start" x="164" y="-110.3" font-family="Helvetica,sans-Serif" font-size="11.00" fill="#000000">created_at</text>
<polygon fill="none" stroke="#000000" points="229,-103.2 229,-125.2 304,-125.2 304,-103.2 229,-103.2"/>
<text text-anchor="start" x="231.9666" y="-110.9" font-family="Helvetica,sans-Serif" font-size="11.00" fill="#000000">timestamp[19]</text>
<polygon fill="none" stroke="#000000" points="144,-81.2 144,-103.2 229,-103.2 229,-81.2 144,-81.2"/>
<text text-anchor="start" x="164" y="-88.3" font-family="Helvetica,sans-Serif" font-size="11.00" fill="#000000">updated_at</text>
<polygon fill="none" stroke="#000000" points="229,-81.2 229,-103.2 304,-103.2 304,-81.2 229,-81.2"/>
<text text-anchor="start" x="231.9666" y="-88.9" font-family="Helvetica,sans-Serif" font-size="11.00" fill="#000000">timestamp[19]</text>
<polygon fill="none" stroke="#000000" points="144,-59.2 144,-81.2 229,-81.2 229,-59.2 144,-59.2"/>
<text text-anchor="start" x="164" y="-66.3" font-family="Helvetica,sans-Serif" font-size="11.00" fill="#000000">deleted_at</text>
<polygon fill="none" stroke="#000000" points="229,-59.2 229,-81.2 304,-81.2 304,-59.2 229,-59.2"/>
<text text-anchor="start" x="231.9666" y="-66.9" font-family="Helvetica,sans-Serif" font-size="11.00" fill="#000000">timestamp[19]</text>
<polygon fill="#ffffff" stroke="transparent" points="144,-40.2 144,-59.2 178,-59.2 178,-40.2 144,-40.2"/>
<polygon fill="none" stroke="#000000" points="144,-40.2 144,-59.2 178,-59.2 178,-40.2 144,-40.2"/>
<text text-anchor="start" x="147" y="-46.3" font-family="Helvetica,sans-Serif" font-size="11.00" fill="#000000">&lt; 1</text>
<polygon fill="#ffffff" stroke="transparent" points="178,-40.2 178,-59.2 229,-59.2 229,-40.2 178,-40.2"/>
<polygon fill="none" stroke="#000000" points="178,-40.2 178,-59.2 229,-59.2 229,-40.2 178,-40.2"/>
<text text-anchor="start" x="193.6105" y="-46.3" font-family="Helvetica,sans-Serif" font-size="11.00" fill="#000000">0 rows</text>
<polygon fill="#ffffff" stroke="transparent" points="229,-40.2 229,-59.2 304,-59.2 304,-40.2 229,-40.2"/>
<polygon fill="none" stroke="#000000" points="229,-40.2 229,-59.2 304,-59.2 304,-40.2 229,-40.2"/>
<text text-anchor="start" x="285.4053" y="-46.3" font-family="Helvetica,sans-Serif" font-size="11.00" fill="#000000">1 &gt;</text>
<polygon fill="none" stroke="#000000" stroke-width="2" points="143,-39.2 143,-237.2 305,-237.2 305,-39.2 143,-39.2"/>
</a>
</g>
</g>
<!-- gyms -->
<g id="node2" class="node">
<title>gyms</title>
<g id="a_node2"><a xlink:href="../../tables/gyms.html" xlink:title="gyms" target="_top">
<polygon fill="#ffffff" stroke="transparent" points="8,-131.7 8,-214.7 93,-214.7 93,-131.7 8,-131.7"/>
<polygon fill="#f5f5f5" stroke="transparent" points="8.5,-191.2 8.5,-214.2 93.5,-214.2 93.5,-191.2 8.5,-191.2"/>
<polygon fill="none" stroke="#000000" points="8.5,-191.2 8.5,-214.2 93.5,-214.2 93.5,-191.2 8.5,-191.2"/>
<text text-anchor="start" x="13.5" y="-200.3" font-family="Helvetica,sans-Serif" font-weight="bold" font-size="11.00" fill="#000000">gyms</text>
<text text-anchor="start" x="58.5437" y="-199.3" font-family="Helvetica,sans-Serif" font-size="11.00" fill="#000000">[table]</text>
<polygon fill="none" stroke="#000000" points="8.5,-169.2 8.5,-191.2 93.5,-191.2 93.5,-169.2 8.5,-169.2"/>
<image xlink:href="../../images/primaryKeys.png" width="11px" height="12px" preserveAspectRatio="xMinYMin meet" x="13.5" y="-186.2"/>
<text text-anchor="start" x="28.5" y="-176.3" font-family="Helvetica,sans-Serif" font-size="11.00" fill="#000000">id</text>
<polygon fill="none" stroke="#000000" points="8.5,-150.2 8.5,-169.2 93.5,-169.2 93.5,-150.2 8.5,-150.2"/>
<text text-anchor="start" x="11.5" y="-156.3" font-family="Helvetica,sans-Serif" font-size="11.00" fill="#000000">...</text>
<polygon fill="#ffffff" stroke="transparent" points="8.5,-131.2 8.5,-150.2 27.5,-150.2 27.5,-131.2 8.5,-131.2"/>
<polygon fill="none" stroke="#000000" points="8.5,-131.2 8.5,-150.2 27.5,-150.2 27.5,-131.2 8.5,-131.2"/>
<text text-anchor="start" x="11.5" y="-137.3" font-family="Helvetica,sans-Serif" font-size="11.00" fill="#000000"> &#160;</text>
<polygon fill="#ffffff" stroke="transparent" points="27.5,-131.2 27.5,-150.2 68.5,-150.2 68.5,-131.2 27.5,-131.2"/>
<polygon fill="none" stroke="#000000" points="27.5,-131.2 27.5,-150.2 68.5,-150.2 68.5,-131.2 27.5,-131.2"/>
<text text-anchor="start" x="33.1105" y="-137.3" font-family="Helvetica,sans-Serif" font-size="11.00" fill="#000000">0 rows</text>
<polygon fill="#ffffff" stroke="transparent" points="68.5,-131.2 68.5,-150.2 93.5,-150.2 93.5,-131.2 68.5,-131.2"/>
<polygon fill="none" stroke="#000000" points="68.5,-131.2 68.5,-150.2 93.5,-150.2 93.5,-131.2 68.5,-131.2"/>
<text text-anchor="start" x="74.9053" y="-137.3" font-family="Helvetica,sans-Serif" font-size="11.00" fill="#000000">2 &gt;</text>
</a>
</g>
</g>
<!-- events&#45;&gt;gyms -->
<g id="edge1" class="edge">
<title>events:w&#45;&gt;gyms:e</title>
<path fill="none" stroke="#000000" d="M129.4203,-180.2C117.5435,-180.2 110.158,-180.2 93.5,-180.2"/>
<polygon fill="#000000" stroke="#000000" points="136,-180.2001 144,-183.8 140,-180.2 144,-180.2 144,-180.2 144,-180.2 140,-180.2 144,-176.6 136,-180.2001 136,-180.2001"/>
<ellipse fill="none" stroke="#000000" cx="132.8" cy="-180.2001" rx="3.2" ry="3.2"/>
</g>
<!-- skills -->
<g id="node3" class="node">
<title>skills</title>
<g id="a_node3"><a xlink:href="../../tables/skills.html" xlink:title="skills" target="_top">
<polygon fill="#ffffff" stroke="transparent" points="355,-109.7 355,-258.7 443,-258.7 443,-109.7 355,-109.7"/>
<polygon fill="#f5f5f5" stroke="transparent" points="355,-235.2 355,-258.2 443,-258.2 443,-235.2 355,-235.2"/>
<polygon fill="none" stroke="#000000" points="355,-235.2 355,-258.2 443,-258.2 443,-235.2 355,-235.2"/>
<text text-anchor="start" x="360" y="-244.3" font-family="Helvetica,sans-Serif" font-weight="bold" font-size="11.00" fill="#000000">skills</text>
<text text-anchor="start" x="408.0437" y="-243.3" font-family="Helvetica,sans-Serif" font-size="11.00" fill="#000000">[table]</text>
<polygon fill="none" stroke="#000000" points="355,-213.2 355,-235.2 443,-235.2 443,-213.2 355,-213.2"/>
<image xlink:href="../../images/primaryKeys.png" width="11px" height="12px" preserveAspectRatio="xMinYMin meet" x="360" y="-230.2"/>
<text text-anchor="start" x="375" y="-220.3" font-family="Helvetica,sans-Serif" font-size="11.00" fill="#000000">id</text>
<polygon fill="#ffffff" stroke="transparent" points="355,-191.2 355,-213.2 443,-213.2 443,-191.2 355,-191.2"/>
<polygon fill="none" stroke="#000000" points="355,-191.2 355,-213.2 443,-213.2 443,-191.2 355,-191.2"/>
<image xlink:href="../../images/foreignKeys.png" width="11px" height="12px" preserveAspectRatio="xMinYMin meet" x="360" y="-208.2"/>
<text text-anchor="start" x="375" y="-198.3" font-family="Helvetica,sans-Serif" font-size="11.00" fill="#000000">event_id</text>
<polygon fill="#ffffff" stroke="transparent" points="355,-169.2 355,-191.2 443,-191.2 443,-169.2 355,-169.2"/>
<polygon fill="none" stroke="#000000" points="355,-169.2 355,-191.2 443,-191.2 443,-169.2 355,-169.2"/>
<image xlink:href="../../images/foreignKeys.png" width="11px" height="12px" preserveAspectRatio="xMinYMin meet" x="360" y="-186.2"/>
<text text-anchor="start" x="375" y="-176.3" font-family="Helvetica,sans-Serif" font-size="11.00" fill="#000000">category_id</text>
<polygon fill="#ffffff" stroke="transparent" points="355,-147.2 355,-169.2 443,-169.2 443,-147.2 355,-147.2"/>
<polygon fill="none" stroke="#000000" points="355,-147.2 355,-169.2 443,-169.2 443,-147.2 355,-147.2"/>
<image xlink:href="../../images/foreignKeys.png" width="11px" height="12px" preserveAspectRatio="xMinYMin meet" x="360" y="-164.2"/>
<text text-anchor="start" x="375" y="-154.3" font-family="Helvetica,sans-Serif" font-size="11.00" fill="#000000">level_id</text>
<polygon fill="none" stroke="#000000" points="355,-128.2 355,-147.2 443,-147.2 443,-128.2 355,-128.2"/>
<text text-anchor="start" x="358" y="-134.3" font-family="Helvetica,sans-Serif" font-size="11.00" fill="#000000">...</text>
<polygon fill="#ffffff" stroke="transparent" points="355,-109.2 355,-128.2 380,-128.2 380,-109.2 355,-109.2"/>
<polygon fill="none" stroke="#000000" points="355,-109.2 355,-128.2 380,-128.2 380,-109.2 355,-109.2"/>
<text text-anchor="start" x="358" y="-115.3" font-family="Helvetica,sans-Serif" font-size="11.00" fill="#000000">&lt; 3</text>
<polygon fill="#ffffff" stroke="transparent" points="380,-109.2 380,-128.2 420,-128.2 420,-109.2 380,-109.2"/>
<polygon fill="none" stroke="#000000" points="380,-109.2 380,-128.2 420,-128.2 420,-109.2 380,-109.2"/>
<text text-anchor="start" x="384.6105" y="-115.3" font-family="Helvetica,sans-Serif" font-size="11.00" fill="#000000">0 rows</text>
<polygon fill="#ffffff" stroke="transparent" points="420,-109.2 420,-128.2 443,-128.2 443,-109.2 420,-109.2"/>
<polygon fill="none" stroke="#000000" points="420,-109.2 420,-128.2 443,-128.2 443,-109.2 420,-109.2"/>
<text text-anchor="start" x="424.4053" y="-115.3" font-family="Helvetica,sans-Serif" font-size="11.00" fill="#000000">2 &gt;</text>
</a>
</g>
</g>
<!-- skills&#45;&gt;events -->
<g id="edge2" class="edge">
<title>skills:w&#45;&gt;events:e</title>
<path fill="none" stroke="#000000" d="M340.276,-202.2C328.2815,-202.2 320.8229,-202.2 304,-202.2"/>
<polygon fill="#000000" stroke="#000000" points="347,-202.2001 355,-205.8 351,-202.2 355,-202.2 355,-202.2 355,-202.2 351,-202.2 355,-198.6 347,-202.2001 347,-202.2001"/>
<ellipse fill="none" stroke="#000000" cx="343.8" cy="-202.2001" rx="3.2" ry="3.2"/>
</g>
</g>
</svg>
