<?xml version="1.0" encoding="UTF-8" standalone="no"?>
<!DOCTYPE svg PUBLIC "-//W3C//DTD SVG 1.1//EN"
 "http://www.w3.org/Graphics/SVG/1.1/DTD/svg11.dtd">
<!-- Generated by graphviz version 2.40.1 (20161225.0304)
 -->
<!-- Title: twoDegreesRelationshipsDiagram Pages: 1 -->
<svg width="643pt" height="333pt"
 viewBox="0.00 0.00 643.00 332.70" xmlns="http://www.w3.org/2000/svg" xmlns:xlink="http://www.w3.org/1999/xlink">
<g id="graph0" class="graph" transform="scale(1 1) rotate(0) translate(4 328.7)">
<title>twoDegreesRelationshipsDiagram</title>
<polygon fill="#ffffff" stroke="transparent" points="-4,4 -4,-328.7 639,-328.7 639,4 -4,4"/>
<text text-anchor="middle" x="72.4936" y="-7.3" font-family="Helvetica,sans-Serif" font-size="11.00" fill="#000000">Generated by SchemaSpy</text>
<!-- events -->
<g id="node1" class="node">
<title>events</title>
<g id="a_node1"><a xlink:href="../../tables/events.html" xlink:title="events" target="_top">
<polygon fill="#ffffff" stroke="transparent" points="142,-38.2 142,-238.2 306,-238.2 306,-38.2 142,-38.2"/>
<polygon fill="#f5f5f5" stroke="transparent" points="144,-213.2 144,-236.2 304,-236.2 304,-213.2 144,-213.2"/>
<polygon fill="none" stroke="#000000" points="144,-213.2 144,-236.2 304,-236.2 304,-213.2 144,-213.2"/>
<text text-anchor="start" x="149" y="-222.3" font-family="Helvetica,sans-Serif" font-weight="bold" font-size="11.00" fill="#000000">events</text>
<text text-anchor="start" x="269.0437" y="-221.3" font-family="Helvetica,sans-Serif" font-size="11.00" fill="#000000">[table]</text>
<polygon fill="none" stroke="#000000" points="144,-191.2 144,-213.2 229,-213.2 229,-191.2 144,-191.2"/>
<image xlink:href="../../images/primaryKeys.png" width="11px" height="12px" preserveAspectRatio="xMinYMin meet" x="149" y="-208.2"/>
<text text-anchor="start" x="164" y="-198.3" font-family="Helvetica,sans-Serif" font-size="11.00" fill="#000000">id</text>
<polygon fill="none" stroke="#000000" points="229,-191.2 229,-213.2 304,-213.2 304,-191.2 229,-191.2"/>
<text text-anchor="start" x="232" y="-198.9" font-family="Helvetica,sans-Serif" font-size="11.00" fill="#000000">int[10]</text>
<polygon fill="#ffffff" stroke="transparent" points="144,-169.2 144,-191.2 229,-191.2 229,-169.2 144,-169.2"/>
<polygon fill="none" stroke="#000000" points="144,-169.2 144,-191.2 229,-191.2 229,-169.2 144,-169.2"/>
<image xlink:href="../../images/foreignKeys.png" width="11px" height="12px" preserveAspectRatio="xMinYMin meet" x="149" y="-186.2"/>
<text text-anchor="start" x="164" y="-176.3" font-family="Helvetica,sans-Serif" font-size="11.00" fill="#000000">gym_id</text>
<polygon fill="none" stroke="#000000" points="229,-169.2 229,-191.2 304,-191.2 304,-169.2 229,-169.2"/>
<text text-anchor="start" x="232" y="-176.9" font-family="Helvetica,sans-Serif" font-size="11.00" fill="#000000">bigint[19]</text>
<polygon fill="none" stroke="#000000" points="144,-147.2 144,-169.2 229,-169.2 229,-147.2 144,-147.2"/>
<text text-anchor="start" x="164" y="-154.3" font-family="Helvetica,sans-Serif" font-size="11.00" fill="#000000">name</text>
<polygon fill="none" stroke="#000000" points="229,-147.2 229,-169.2 304,-169.2 304,-147.2 229,-147.2"/>
<text text-anchor="start" x="232" y="-154.9" font-family="Helvetica,sans-Serif" font-size="11.00" fill="#000000">char[45]</text>
<polygon fill="none" stroke="#000000" points="144,-125.2 144,-147.2 229,-147.2 229,-125.2 144,-125.2"/>
<text text-anchor="start" x="164" y="-132.3" font-family="Helvetica,sans-Serif" font-size="11.00" fill="#000000">abbrev</text>
<polygon fill="none" stroke="#000000" points="229,-125.2 229,-147.2 304,-147.2 304,-125.2 229,-125.2"/>
<text text-anchor="start" x="232" y="-132.9" font-family="Helvetica,sans-Serif" font-size="11.00" fill="#000000">char[5]</text>
<polygon fill="none" stroke="#000000" points="144,-103.2 144,-125.2 229,-125.2 229,-103.2 144,-103.2"/>
<text text-anchor="start" x="164" y="-110.3" font-family="Helvetica,sans-Serif" font-size="11.00" fill="#000000">created_at</text>
<polygon fill="none" stroke="#000000" points="229,-103.2 229,-125.2 304,-125.2 304,-103.2 229,-103.2"/>
<text text-anchor="start" x="231.9666" y="-110.9" font-family="Helvetica,sans-Serif" font-size="11.00" fill="#000000">timestamp[19]</text>
<polygon fill="none" stroke="#000000" points="144,-81.2 144,-103.2 229,-103.2 229,-81.2 144,-81.2"/>
<text text-anchor="start" x="164" y="-88.3" font-family="Helvetica,sans-Serif" font-size="11.00" fill="#000000">updated_at</text>
<polygon fill="none" stroke="#000000" points="229,-81.2 229,-103.2 304,-103.2 304,-81.2 229,-81.2"/>
<text text-anchor="start" x="231.9666" y="-88.9" font-family="Helvetica,sans-Serif" font-size="11.00" fill="#000000">timestamp[19]</text>
<polygon fill="none" stroke="#000000" points="144,-59.2 144,-81.2 229,-81.2 229,-59.2 144,-59.2"/>
<text text-anchor="start" x="164" y="-66.3" font-family="Helvetica,sans-Serif" font-size="11.00" fill="#000000">deleted_at</text>
<polygon fill="none" stroke="#000000" points="229,-59.2 229,-81.2 304,-81.2 304,-59.2 229,-59.2"/>
<text text-anchor="start" x="231.9666" y="-66.9" font-family="Helvetica,sans-Serif" font-size="11.00" fill="#000000">timestamp[19]</text>
<polygon fill="#ffffff" stroke="transparent" points="144,-40.2 144,-59.2 178,-59.2 178,-40.2 144,-40.2"/>
<polygon fill="none" stroke="#000000" points="144,-40.2 144,-59.2 178,-59.2 178,-40.2 144,-40.2"/>
<text text-anchor="start" x="147" y="-46.3" font-family="Helvetica,sans-Serif" font-size="11.00" fill="#000000">&lt; 1</text>
<polygon fill="#ffffff" stroke="transparent" points="178,-40.2 178,-59.2 229,-59.2 229,-40.2 178,-40.2"/>
<polygon fill="none" stroke="#000000" points="178,-40.2 178,-59.2 229,-59.2 229,-40.2 178,-40.2"/>
<text text-anchor="start" x="193.6105" y="-46.3" font-family="Helvetica,sans-Serif" font-size="11.00" fill="#000000">0 rows</text>
<polygon fill="#ffffff" stroke="transparent" points="229,-40.2 229,-59.2 304,-59.2 304,-40.2 229,-40.2"/>
<polygon fill="none" stroke="#000000" points="229,-40.2 229,-59.2 304,-59.2 304,-40.2 229,-40.2"/>
<text text-anchor="start" x="285.4053" y="-46.3" font-family="Helvetica,sans-Serif" font-size="11.00" fill="#000000">1 &gt;</text>
<polygon fill="none" stroke="#000000" stroke-width="2" points="143,-39.2 143,-237.2 305,-237.2 305,-39.2 143,-39.2"/>
</a>
</g>
</g>
<!-- gyms -->
<g id="node2" class="node">
<title>gyms</title>
<g id="a_node2"><a xlink:href="../../tables/gyms.html" xlink:title="gyms" target="_top">
<polygon fill="#ffffff" stroke="transparent" points="8,-184.7 8,-267.7 93,-267.7 93,-184.7 8,-184.7"/>
<polygon fill="#f5f5f5" stroke="transparent" points="8.5,-244.2 8.5,-267.2 93.5,-267.2 93.5,-244.2 8.5,-244.2"/>
<polygon fill="none" stroke="#000000" points="8.5,-244.2 8.5,-267.2 93.5,-267.2 93.5,-244.2 8.5,-244.2"/>
<text text-anchor="start" x="13.5" y="-253.3" font-family="Helvetica,sans-Serif" font-weight="bold" font-size="11.00" fill="#000000">gyms</text>
<text text-anchor="start" x="58.5437" y="-252.3" font-family="Helvetica,sans-Serif" font-size="11.00" fill="#000000">[table]</text>
<polygon fill="none" stroke="#000000" points="8.5,-222.2 8.5,-244.2 93.5,-244.2 93.5,-222.2 8.5,-222.2"/>
<image xlink:href="../../images/primaryKeys.png" width="11px" height="12px" preserveAspectRatio="xMinYMin meet" x="13.5" y="-239.2"/>
<text text-anchor="start" x="28.5" y="-229.3" font-family="Helvetica,sans-Serif" font-size="11.00" fill="#000000">id</text>
<polygon fill="none" stroke="#000000" points="8.5,-203.2 8.5,-222.2 93.5,-222.2 93.5,-203.2 8.5,-203.2"/>
<text text-anchor="start" x="11.5" y="-209.3" font-family="Helvetica,sans-Serif" font-size="11.00" fill="#000000">...</text>
<polygon fill="#ffffff" stroke="transparent" points="8.5,-184.2 8.5,-203.2 27.5,-203.2 27.5,-184.2 8.5,-184.2"/>
<polygon fill="none" stroke="#000000" points="8.5,-184.2 8.5,-203.2 27.5,-203.2 27.5,-184.2 8.5,-184.2"/>
<text text-anchor="start" x="11.5" y="-190.3" font-family="Helvetica,sans-Serif" font-size="11.00" fill="#000000"> &#160;</text>
<polygon fill="#ffffff" stroke="transparent" points="27.5,-184.2 27.5,-203.2 68.5,-203.2 68.5,-184.2 27.5,-184.2"/>
<polygon fill="none" stroke="#000000" points="27.5,-184.2 27.5,-203.2 68.5,-203.2 68.5,-184.2 27.5,-184.2"/>
<text text-anchor="start" x="33.1105" y="-190.3" font-family="Helvetica,sans-Serif" font-size="11.00" fill="#000000">0 rows</text>
<polygon fill="#ffffff" stroke="transparent" points="68.5,-184.2 68.5,-203.2 93.5,-203.2 93.5,-184.2 68.5,-184.2"/>
<polygon fill="none" stroke="#000000" points="68.5,-184.2 68.5,-203.2 93.5,-203.2 93.5,-184.2 68.5,-184.2"/>
<text text-anchor="start" x="74.9053" y="-190.3" font-family="Helvetica,sans-Serif" font-size="11.00" fill="#000000">2 &gt;</text>
</a>
</g>
</g>
<!-- events&#45;&gt;gyms -->
<g id="edge1" class="edge">
<title>events:w&#45;&gt;gyms:e</title>
<path fill="none" stroke="#000000" d="M130.0458,-185.0911C115.2722,-198.2117 119.9358,-233.2 93.5,-233.2"/>
<polygon fill="#000000" stroke="#000000" points="136.4503,-182.8463 145.1908,-183.5974 140.2252,-181.5231 144,-180.2 144,-180.2 144,-180.2 140.2252,-181.5231 142.8092,-176.8026 136.4503,-182.8463 136.4503,-182.8463"/>
<ellipse fill="none" stroke="#000000" cx="133.4305" cy="-183.9048" rx="3.2" ry="3.2"/>
</g>
<!-- gymnast_has_skills -->
<g id="node3" class="node">
<title>gymnast_has_skills</title>
<g id="a_node3"><a xlink:href="../../tables/gymnast_has_skills.html" xlink:title="gymnast_has_skills" target="_top">
<polygon fill="#ffffff" stroke="transparent" points="489,-237.7 489,-298.7 627,-298.7 627,-237.7 489,-237.7"/>
<polygon fill="#f5f5f5" stroke="transparent" points="489,-275.2 489,-298.2 627,-298.2 627,-275.2 489,-275.2"/>
<polygon fill="none" stroke="#000000" points="489,-275.2 489,-298.2 627,-298.2 627,-275.2 489,-275.2"/>
<text text-anchor="start" x="493.8271" y="-284.3" font-family="Helvetica,sans-Serif" font-weight="bold" font-size="11.00" fill="#000000">gymnast_has_skills</text>
<text text-anchor="start" x="592.5219" y="-283.3" font-family="Helvetica,sans-Serif" font-size="11.00" fill="#000000">[table]</text>
<polygon fill="none" stroke="#000000" points="489,-256.2 489,-275.2 627,-275.2 627,-256.2 489,-256.2"/>
<text text-anchor="start" x="492" y="-262.3" font-family="Helvetica,sans-Serif" font-size="11.00" fill="#000000">...</text>
<polygon fill="#ffffff" stroke="transparent" points="489,-237.2 489,-256.2 543,-256.2 543,-237.2 489,-237.2"/>
<polygon fill="none" stroke="#000000" points="489,-237.2 489,-256.2 543,-256.2 543,-237.2 489,-237.2"/>
<text text-anchor="start" x="492" y="-243.3" font-family="Helvetica,sans-Serif" font-size="11.00" fill="#000000">&lt; 2</text>
<polygon fill="#ffffff" stroke="transparent" points="543,-237.2 543,-256.2 598,-256.2 598,-237.2 543,-237.2"/>
<polygon fill="none" stroke="#000000" points="543,-237.2 543,-256.2 598,-256.2 598,-237.2 543,-237.2"/>
<text text-anchor="start" x="562.6105" y="-243.3" font-family="Helvetica,sans-Serif" font-size="11.00" fill="#000000">0 rows</text>
<polygon fill="#ffffff" stroke="transparent" points="598,-237.2 598,-256.2 627,-256.2 627,-237.2 598,-237.2"/>
<polygon fill="none" stroke="#000000" points="598,-237.2 598,-256.2 627,-256.2 627,-237.2 598,-237.2"/>
<text text-anchor="start" x="617.8862" y="-243.3" font-family="Helvetica,sans-Serif" font-size="11.00" fill="#000000"> &#160;</text>
</a>
</g>
</g>
<!-- skills -->
<g id="node4" class="node">
<title>skills</title>
<g id="a_node4"><a xlink:href="../../tables/skills.html" xlink:title="skills" target="_top">
<polygon fill="#ffffff" stroke="transparent" points="355,-153.7 355,-258.7 440,-258.7 440,-153.7 355,-153.7"/>
<polygon fill="#f5f5f5" stroke="transparent" points="355.5,-235.2 355.5,-258.2 440.5,-258.2 440.5,-235.2 355.5,-235.2"/>
<polygon fill="none" stroke="#000000" points="355.5,-235.2 355.5,-258.2 440.5,-258.2 440.5,-235.2 355.5,-235.2"/>
<text text-anchor="start" x="360.5" y="-244.3" font-family="Helvetica,sans-Serif" font-weight="bold" font-size="11.00" fill="#000000">skills</text>
<text text-anchor="start" x="405.5437" y="-243.3" font-family="Helvetica,sans-Serif" font-size="11.00" fill="#000000">[table]</text>
<polygon fill="none" stroke="#000000" points="355.5,-213.2 355.5,-235.2 440.5,-235.2 440.5,-213.2 355.5,-213.2"/>
<image xlink:href="../../images/primaryKeys.png" width="11px" height="12px" preserveAspectRatio="xMinYMin meet" x="360.5" y="-230.2"/>
<text text-anchor="start" x="375.5" y="-220.3" font-family="Helvetica,sans-Serif" font-size="11.00" fill="#000000">id</text>
<polygon fill="#ffffff" stroke="transparent" points="355.5,-191.2 355.5,-213.2 440.5,-213.2 440.5,-191.2 355.5,-191.2"/>
<polygon fill="none" stroke="#000000" points="355.5,-191.2 355.5,-213.2 440.5,-213.2 440.5,-191.2 355.5,-191.2"/>
<image xlink:href="../../images/foreignKeys.png" width="11px" height="12px" preserveAspectRatio="xMinYMin meet" x="360.5" y="-208.2"/>
<text text-anchor="start" x="375.5" y="-198.3" font-family="Helvetica,sans-Serif" font-size="11.00" fill="#000000">events_id</text>
<polygon fill="none" stroke="#000000" points="355.5,-172.2 355.5,-191.2 440.5,-191.2 440.5,-172.2 355.5,-172.2"/>
<text text-anchor="start" x="358.5" y="-178.3" font-family="Helvetica,sans-Serif" font-size="11.00" fill="#000000">...</text>
<polygon fill="#ffffff" stroke="transparent" points="355.5,-153.2 355.5,-172.2 378.5,-172.2 378.5,-153.2 355.5,-153.2"/>
<polygon fill="none" stroke="#000000" points="355.5,-153.2 355.5,-172.2 378.5,-172.2 378.5,-153.2 355.5,-153.2"/>
<text text-anchor="start" x="358.5" y="-159.3" font-family="Helvetica,sans-Serif" font-size="11.00" fill="#000000">&lt; 1</text>
<polygon fill="#ffffff" stroke="transparent" points="378.5,-153.2 378.5,-172.2 417.5,-172.2 417.5,-153.2 378.5,-153.2"/>
<polygon fill="none" stroke="#000000" points="378.5,-153.2 378.5,-172.2 417.5,-172.2 417.5,-153.2 378.5,-153.2"/>
<text text-anchor="start" x="382.1105" y="-159.3" font-family="Helvetica,sans-Serif" font-size="11.00" fill="#000000">0 rows</text>
<polygon fill="#ffffff" stroke="transparent" points="417.5,-153.2 417.5,-172.2 440.5,-172.2 440.5,-153.2 417.5,-153.2"/>
<polygon fill="none" stroke="#000000" points="417.5,-153.2 417.5,-172.2 440.5,-172.2 440.5,-153.2 417.5,-153.2"/>
<text text-anchor="start" x="421.9053" y="-159.3" font-family="Helvetica,sans-Serif" font-size="11.00" fill="#000000">2 &gt;</text>
</a>
</g>
</g>
<!-- gymnast_has_skills&#45;&gt;skills -->
<g id="edge2" class="edge">
<title>gymnast_has_skills:w&#45;&gt;skills:e</title>
<path fill="none" stroke="#000000" d="M475.2884,-260.4968C462.5191,-249.7274 462.7719,-224.2 440.5,-224.2"/>
<polygon fill="#000000" stroke="#000000" points="481.4328,-262.6043 487.8319,-268.6052 485.2164,-263.9022 489,-265.2 489,-265.2 489,-265.2 485.2164,-263.9022 490.1681,-261.7948 481.4328,-262.6043 481.4328,-262.6043"/>
<ellipse fill="none" stroke="#000000" cx="478.4059" cy="-261.5661" rx="3.2" ry="3.2"/>
</g>
<!-- skills&#45;&gt;events -->
<g id="edge5" class="edge">
<title>skills:w&#45;&gt;events:e</title>
<path fill="none" stroke="#000000" d="M341.0156,-202.2C328.6771,-202.2 321.1667,-202.2 304,-202.2"/>
<polygon fill="#000000" stroke="#000000" points="347.5,-202.2001 355.5,-205.8 351.5,-202.2 355.5,-202.2 355.5,-202.2 355.5,-202.2 351.5,-202.2 355.5,-198.6 347.5,-202.2001 347.5,-202.2001"/>
<ellipse fill="none" stroke="#000000" cx="344.3" cy="-202.2001" rx="3.2" ry="3.2"/>
</g>
<!-- gyms_has_users -->
<g id="node5" class="node">
<title>gyms_has_users</title>
<g id="a_node5"><a xlink:href="../../tables/gyms_has_users.html" xlink:title="gyms_has_users" target="_top">
<polygon fill="#ffffff" stroke="transparent" points="161,-259.7 161,-320.7 287,-320.7 287,-259.7 161,-259.7"/>
<polygon fill="#f5f5f5" stroke="transparent" points="161,-297.2 161,-320.2 287,-320.2 287,-297.2 161,-297.2"/>
<polygon fill="none" stroke="#000000" points="161,-297.2 161,-320.2 287,-320.2 287,-297.2 161,-297.2"/>
<text text-anchor="start" x="165.936" y="-306.3" font-family="Helvetica,sans-Serif" font-weight="bold" font-size="11.00" fill="#000000">gyms_has_users</text>
<text text-anchor="start" x="252.5219" y="-305.3" font-family="Helvetica,sans-Serif" font-size="11.00" fill="#000000">[table]</text>
<polygon fill="none" stroke="#000000" points="161,-278.2 161,-297.2 287,-297.2 287,-278.2 161,-278.2"/>
<text text-anchor="start" x="164" y="-284.3" font-family="Helvetica,sans-Serif" font-size="11.00" fill="#000000">...</text>
<polygon fill="#ffffff" stroke="transparent" points="161,-259.2 161,-278.2 205,-278.2 205,-259.2 161,-259.2"/>
<polygon fill="none" stroke="#000000" points="161,-259.2 161,-278.2 205,-278.2 205,-259.2 161,-259.2"/>
<text text-anchor="start" x="164" y="-265.3" font-family="Helvetica,sans-Serif" font-size="11.00" fill="#000000">&lt; 2</text>
<polygon fill="#ffffff" stroke="transparent" points="205,-259.2 205,-278.2 254,-278.2 254,-259.2 205,-259.2"/>
<polygon fill="none" stroke="#000000" points="205,-259.2 205,-278.2 254,-278.2 254,-259.2 205,-259.2"/>
<text text-anchor="start" x="218.6105" y="-265.3" font-family="Helvetica,sans-Serif" font-size="11.00" fill="#000000">0 rows</text>
<polygon fill="#ffffff" stroke="transparent" points="254,-259.2 254,-278.2 287,-278.2 287,-259.2 254,-259.2"/>
<polygon fill="none" stroke="#000000" points="254,-259.2 254,-278.2 287,-278.2 287,-259.2 254,-259.2"/>
<text text-anchor="start" x="268.4053" y="-265.3" font-family="Helvetica,sans-Serif" font-size="11.00" fill="#000000">2 &gt;</text>
</a>
</g>
</g>
<!-- gyms_has_users&#45;&gt;gyms -->
<g id="edge3" class="edge">
<title>gyms_has_users:w&#45;&gt;gyms:e</title>
<path fill="none" stroke="#000000" d="M146.736,-283.9838C124.3011,-272.3586 126.216,-233.2 93.5,-233.2"/>
<polygon fill="#000000" stroke="#000000" points="153.1959,-285.4403 160.2081,-290.7118 157.098,-286.3202 161,-287.2 161,-287.2 161,-287.2 157.098,-286.3202 161.7919,-283.6882 153.1959,-285.4403 153.1959,-285.4403"/>
<ellipse fill="none" stroke="#000000" cx="150.0743" cy="-284.7364" rx="3.2" ry="3.2"/>
</g>
<!-- skill_has_levels -->
<g id="node6" class="node">
<title>skill_has_levels</title>
<g id="a_node6"><a xlink:href="../../tables/skill_has_levels.html" xlink:title="skill_has_levels" target="_top">
<polygon fill="#ffffff" stroke="transparent" points="498.5,-155.7 498.5,-216.7 617.5,-216.7 617.5,-155.7 498.5,-155.7"/>
<polygon fill="#f5f5f5" stroke="transparent" points="499,-193.2 499,-216.2 618,-216.2 618,-193.2 499,-193.2"/>
<polygon fill="none" stroke="#000000" points="499,-193.2 499,-216.2 618,-216.2 618,-193.2 499,-193.2"/>
<text text-anchor="start" x="503.8031" y="-202.3" font-family="Helvetica,sans-Serif" font-weight="bold" font-size="11.00" fill="#000000">skill_has_levels</text>
<text text-anchor="start" x="583.5219" y="-201.3" font-family="Helvetica,sans-Serif" font-size="11.00" fill="#000000">[table]</text>
<polygon fill="none" stroke="#000000" points="499,-174.2 499,-193.2 618,-193.2 618,-174.2 499,-174.2"/>
<text text-anchor="start" x="502" y="-180.3" font-family="Helvetica,sans-Serif" font-size="11.00" fill="#000000">...</text>
<polygon fill="#ffffff" stroke="transparent" points="499,-155.2 499,-174.2 544,-174.2 544,-155.2 499,-155.2"/>
<polygon fill="none" stroke="#000000" points="499,-155.2 499,-174.2 544,-174.2 544,-155.2 499,-155.2"/>
<text text-anchor="start" x="502" y="-161.3" font-family="Helvetica,sans-Serif" font-size="11.00" fill="#000000">&lt; 2</text>
<polygon fill="#ffffff" stroke="transparent" points="544,-155.2 544,-174.2 594,-174.2 594,-155.2 544,-155.2"/>
<polygon fill="none" stroke="#000000" points="544,-155.2 544,-174.2 594,-174.2 594,-155.2 544,-155.2"/>
<text text-anchor="start" x="558.6105" y="-161.3" font-family="Helvetica,sans-Serif" font-size="11.00" fill="#000000">0 rows</text>
<polygon fill="#ffffff" stroke="transparent" points="594,-155.2 594,-174.2 618,-174.2 618,-155.2 594,-155.2"/>
<polygon fill="none" stroke="#000000" points="594,-155.2 594,-174.2 618,-174.2 618,-155.2 594,-155.2"/>
<text text-anchor="start" x="608.8862" y="-161.3" font-family="Helvetica,sans-Serif" font-size="11.00" fill="#000000"> &#160;</text>
</a>
</g>
</g>
<!-- skill_has_levels&#45;&gt;skills -->
<g id="edge4" class="edge">
<title>skill_has_levels:w&#45;&gt;skills:e</title>
<path fill="none" stroke="#000000" d="M485.0181,-186.6956C467.8604,-196.6106 466.5448,-224.2 440.5,-224.2"/>
<polygon fill="#000000" stroke="#000000" points="491.2389,-185.1404 499.8732,-186.6925 495.1194,-184.1702 499,-183.2 499,-183.2 499,-183.2 495.1194,-184.1702 498.1268,-179.7075 491.2389,-185.1404 491.2389,-185.1404"/>
<ellipse fill="none" stroke="#000000" cx="488.1344" cy="-185.9166" rx="3.2" ry="3.2"/>
</g>
</g>
</svg>
