<?xml version="1.0" encoding="UTF-8" standalone="no"?>
<!DOCTYPE svg PUBLIC "-//W3C//DTD SVG 1.1//EN"
 "http://www.w3.org/Graphics/SVG/1.1/DTD/svg11.dtd">
<!-- Generated by graphviz version 2.40.1 (20161225.0304)
 -->
<!-- Title: twoDegreesRelationshipsDiagram Pages: 1 -->
<svg width="658pt" height="557pt"
 viewBox="0.00 0.00 658.00 557.20" xmlns="http://www.w3.org/2000/svg" xmlns:xlink="http://www.w3.org/1999/xlink">
<g id="graph0" class="graph" transform="scale(1 1) rotate(0) translate(4 553.2)">
<title>twoDegreesRelationshipsDiagram</title>
<polygon fill="#ffffff" stroke="transparent" points="-4,4 -4,-553.2 654,-553.2 654,4 -4,4"/>
<text text-anchor="middle" x="72.4936" y="-7.3" font-family="Helvetica,sans-Serif" font-size="11.00" fill="#000000">Generated by SchemaSpy</text>
<!-- completed_daily_challenges -->
<g id="node1" class="node">
<title>completed_daily_challenges</title>
<g id="a_node1"><a xlink:href="../../tables/completed_daily_challenges.html" xlink:title="completed_daily_challenges" target="_top">
<polygon fill="#ffffff" stroke="transparent" points="433.5,-484.2 433.5,-545.2 614.5,-545.2 614.5,-484.2 433.5,-484.2"/>
<polygon fill="#f5f5f5" stroke="transparent" points="434,-521.7 434,-544.7 615,-544.7 615,-521.7 434,-521.7"/>
<polygon fill="none" stroke="#000000" points="434,-521.7 434,-544.7 615,-544.7 615,-521.7 434,-521.7"/>
<text text-anchor="start" x="438.9266" y="-530.8" font-family="Helvetica,sans-Serif" font-weight="bold" font-size="11.00" fill="#000000">completed_daily_challenges</text>
<text text-anchor="start" x="580.5219" y="-529.8" font-family="Helvetica,sans-Serif" font-size="11.00" fill="#000000">[table]</text>
<polygon fill="none" stroke="#000000" points="434,-502.7 434,-521.7 615,-521.7 615,-502.7 434,-502.7"/>
<text text-anchor="start" x="437" y="-508.8" font-family="Helvetica,sans-Serif" font-size="11.00" fill="#000000">...</text>
<polygon fill="#ffffff" stroke="transparent" points="434,-483.7 434,-502.7 510,-502.7 510,-483.7 434,-483.7"/>
<polygon fill="none" stroke="#000000" points="434,-483.7 434,-502.7 510,-502.7 510,-483.7 434,-483.7"/>
<text text-anchor="start" x="437" y="-489.8" font-family="Helvetica,sans-Serif" font-size="11.00" fill="#000000">&lt; 4</text>
<polygon fill="#ffffff" stroke="transparent" points="510,-483.7 510,-502.7 575,-502.7 575,-483.7 510,-483.7"/>
<polygon fill="none" stroke="#000000" points="510,-483.7 510,-502.7 575,-502.7 575,-483.7 510,-483.7"/>
<text text-anchor="start" x="539.6105" y="-489.8" font-family="Helvetica,sans-Serif" font-size="11.00" fill="#000000">0 rows</text>
<polygon fill="#ffffff" stroke="transparent" points="575,-483.7 575,-502.7 615,-502.7 615,-483.7 575,-483.7"/>
<polygon fill="none" stroke="#000000" points="575,-483.7 575,-502.7 615,-502.7 615,-483.7 575,-483.7"/>
<text text-anchor="start" x="605.8862" y="-489.8" font-family="Helvetica,sans-Serif" font-size="11.00" fill="#000000"> &#160;</text>
</a>
</g>
</g>
<!-- gymnasts -->
<g id="node2" class="node">
<title>gymnasts</title>
<g id="a_node2"><a xlink:href="../../tables/gymnasts.html" xlink:title="gymnasts" target="_top">
<polygon fill="#ffffff" stroke="transparent" points="183,-268.2 183,-395.2 357,-395.2 357,-268.2 183,-268.2"/>
<polygon fill="#f5f5f5" stroke="transparent" points="183,-371.7 183,-394.7 357,-394.7 357,-371.7 183,-371.7"/>
<polygon fill="none" stroke="#000000" points="183,-371.7 183,-394.7 357,-394.7 357,-371.7 183,-371.7"/>
<text text-anchor="start" x="188" y="-380.8" font-family="Helvetica,sans-Serif" font-weight="bold" font-size="11.00" fill="#000000">gymnasts</text>
<text text-anchor="start" x="322.0437" y="-379.8" font-family="Helvetica,sans-Serif" font-size="11.00" fill="#000000">[table]</text>
<polygon fill="none" stroke="#000000" points="183,-349.7 183,-371.7 357,-371.7 357,-349.7 183,-349.7"/>
<image xlink:href="../../images/primaryKeys.png" width="11px" height="12px" preserveAspectRatio="xMinYMin meet" x="188" y="-366.7"/>
<text text-anchor="start" x="203" y="-356.8" font-family="Helvetica,sans-Serif" font-size="11.00" fill="#000000">id</text>
<polygon fill="#ffffff" stroke="transparent" points="183,-327.7 183,-349.7 357,-349.7 357,-327.7 183,-327.7"/>
<polygon fill="none" stroke="#000000" points="183,-327.7 183,-349.7 357,-349.7 357,-327.7 183,-327.7"/>
<image xlink:href="../../images/foreignKeys.png" width="11px" height="12px" preserveAspectRatio="xMinYMin meet" x="188" y="-344.7"/>
<text text-anchor="start" x="203" y="-334.8" font-family="Helvetica,sans-Serif" font-size="11.00" fill="#000000">gyms_has_users_gyms_id</text>
<polygon fill="#ffffff" stroke="transparent" points="183,-305.7 183,-327.7 357,-327.7 357,-305.7 183,-305.7"/>
<polygon fill="none" stroke="#000000" points="183,-305.7 183,-327.7 357,-327.7 357,-305.7 183,-305.7"/>
<image xlink:href="../../images/foreignKeys.png" width="11px" height="12px" preserveAspectRatio="xMinYMin meet" x="188" y="-322.7"/>
<text text-anchor="start" x="203" y="-312.8" font-family="Helvetica,sans-Serif" font-size="11.00" fill="#000000">gyms_has_users_users_id</text>
<polygon fill="none" stroke="#000000" points="183,-286.7 183,-305.7 357,-305.7 357,-286.7 183,-286.7"/>
<text text-anchor="start" x="186" y="-292.8" font-family="Helvetica,sans-Serif" font-size="11.00" fill="#000000">...</text>
<polygon fill="#ffffff" stroke="transparent" points="183,-267.7 183,-286.7 251,-286.7 251,-267.7 183,-267.7"/>
<polygon fill="none" stroke="#000000" points="183,-267.7 183,-286.7 251,-286.7 251,-267.7 183,-267.7"/>
<text text-anchor="start" x="186" y="-273.8" font-family="Helvetica,sans-Serif" font-size="11.00" fill="#000000">&lt; 2</text>
<polygon fill="#ffffff" stroke="transparent" points="251,-267.7 251,-286.7 312,-286.7 312,-267.7 251,-267.7"/>
<polygon fill="none" stroke="#000000" points="251,-267.7 251,-286.7 312,-286.7 312,-267.7 251,-267.7"/>
<text text-anchor="start" x="276.6105" y="-273.8" font-family="Helvetica,sans-Serif" font-size="11.00" fill="#000000">0 rows</text>
<polygon fill="#ffffff" stroke="transparent" points="312,-267.7 312,-286.7 357,-286.7 357,-267.7 312,-267.7"/>
<polygon fill="none" stroke="#000000" points="312,-267.7 312,-286.7 357,-286.7 357,-267.7 312,-267.7"/>
<text text-anchor="start" x="338.4053" y="-273.8" font-family="Helvetica,sans-Serif" font-size="11.00" fill="#000000">4 &gt;</text>
</a>
</g>
</g>
<!-- completed_daily_challenges&#45;&gt;gymnasts -->
<g id="edge1" class="edge">
<title>completed_daily_challenges:w&#45;&gt;gymnasts:e</title>
<path fill="none" stroke="#000000" d="M419.5671,-509.3282C368.781,-490.1177 426.7419,-360.7 357,-360.7"/>
<polygon fill="#000000" stroke="#000000" points="426.1059,-510.4027 433.4162,-515.2524 430.0529,-511.0513 434,-511.7 434,-511.7 434,-511.7 430.0529,-511.0513 434.5838,-508.1476 426.1059,-510.4027 426.1059,-510.4027"/>
<ellipse fill="none" stroke="#000000" cx="422.9482" cy="-509.8837" rx="3.2" ry="3.2"/>
</g>
<!-- gyms_has_users -->
<g id="node6" class="node">
<title>gyms_has_users</title>
<g id="a_node6"><a xlink:href="../../tables/gyms_has_users.html" xlink:title="gyms_has_users" target="_top">
<polygon fill="#ffffff" stroke="transparent" points="8,-298.2 8,-359.2 134,-359.2 134,-298.2 8,-298.2"/>
<polygon fill="#f5f5f5" stroke="transparent" points="8,-335.7 8,-358.7 134,-358.7 134,-335.7 8,-335.7"/>
<polygon fill="none" stroke="#000000" points="8,-335.7 8,-358.7 134,-358.7 134,-335.7 8,-335.7"/>
<text text-anchor="start" x="12.9359" y="-344.8" font-family="Helvetica,sans-Serif" font-weight="bold" font-size="11.00" fill="#000000">gyms_has_users</text>
<text text-anchor="start" x="99.5219" y="-343.8" font-family="Helvetica,sans-Serif" font-size="11.00" fill="#000000">[table]</text>
<polygon fill="none" stroke="#000000" points="8,-316.7 8,-335.7 134,-335.7 134,-316.7 8,-316.7"/>
<text text-anchor="start" x="11" y="-322.8" font-family="Helvetica,sans-Serif" font-size="11.00" fill="#000000">...</text>
<polygon fill="#ffffff" stroke="transparent" points="8,-297.7 8,-316.7 52,-316.7 52,-297.7 8,-297.7"/>
<polygon fill="none" stroke="#000000" points="8,-297.7 8,-316.7 52,-316.7 52,-297.7 8,-297.7"/>
<text text-anchor="start" x="11" y="-303.8" font-family="Helvetica,sans-Serif" font-size="11.00" fill="#000000">&lt; 2</text>
<polygon fill="#ffffff" stroke="transparent" points="52,-297.7 52,-316.7 101,-316.7 101,-297.7 52,-297.7"/>
<polygon fill="none" stroke="#000000" points="52,-297.7 52,-316.7 101,-316.7 101,-297.7 52,-297.7"/>
<text text-anchor="start" x="65.6105" y="-303.8" font-family="Helvetica,sans-Serif" font-size="11.00" fill="#000000">0 rows</text>
<polygon fill="#ffffff" stroke="transparent" points="101,-297.7 101,-316.7 134,-316.7 134,-297.7 101,-297.7"/>
<polygon fill="none" stroke="#000000" points="101,-297.7 101,-316.7 134,-316.7 134,-297.7 101,-297.7"/>
<text text-anchor="start" x="115.4053" y="-303.8" font-family="Helvetica,sans-Serif" font-size="11.00" fill="#000000">2 &gt;</text>
</a>
</g>
</g>
<!-- gymnasts&#45;&gt;gyms_has_users -->
<g id="edge5" class="edge">
<title>gymnasts:w&#45;&gt;gyms_has_users:e</title>
<path fill="none" stroke="#000000" d="M168.6439,-336.5533C157.2026,-332.8609 150.7224,-325.7 134,-325.7"/>
<polygon fill="#000000" stroke="#000000" points="175.088,-337.5169 182.4676,-342.2604 179.044,-338.1084 183,-338.7 183,-338.7 183,-338.7 179.044,-338.1084 183.5324,-335.1396 175.088,-337.5169 175.088,-337.5169"/>
<ellipse fill="none" stroke="#000000" cx="171.9232" cy="-337.0436" rx="3.2" ry="3.2"/>
</g>
<!-- gymnasts&#45;&gt;gyms_has_users -->
<g id="edge6" class="edge">
<title>gymnasts:w&#45;&gt;gyms_has_users:e</title>
<path fill="none" stroke="#000000" d="M168.3909,-318.2677C157.1231,-320.8462 150.2606,-325.7 134,-325.7"/>
<polygon fill="#000000" stroke="#000000" points="175.0457,-317.5536 183.3841,-320.2795 179.0228,-317.1268 183,-316.7 183,-316.7 183,-316.7 179.0228,-317.1268 182.6159,-313.1205 175.0457,-317.5536 175.0457,-317.5536"/>
<ellipse fill="none" stroke="#000000" cx="171.8639" cy="-317.8951" rx="3.2" ry="3.2"/>
</g>
<!-- completed_normal_challenges -->
<g id="node3" class="node">
<title>completed_normal_challenges</title>
<g id="a_node3"><a xlink:href="../../tables/completed_normal_challenges.html" xlink:title="completed_normal_challenges" target="_top">
<polygon fill="#ffffff" stroke="transparent" points="428,-402.2 428,-463.2 620,-463.2 620,-402.2 428,-402.2"/>
<polygon fill="#f5f5f5" stroke="transparent" points="428,-439.7 428,-462.7 620,-462.7 620,-439.7 428,-439.7"/>
<polygon fill="none" stroke="#000000" points="428,-439.7 428,-462.7 620,-462.7 620,-439.7 428,-439.7"/>
<text text-anchor="start" x="432.9277" y="-448.8" font-family="Helvetica,sans-Serif" font-weight="bold" font-size="11.00" fill="#000000">completed_normal_challenges</text>
<text text-anchor="start" x="585.5219" y="-447.8" font-family="Helvetica,sans-Serif" font-size="11.00" fill="#000000">[table]</text>
<polygon fill="none" stroke="#000000" points="428,-420.7 428,-439.7 620,-439.7 620,-420.7 428,-420.7"/>
<text text-anchor="start" x="431" y="-426.8" font-family="Helvetica,sans-Serif" font-size="11.00" fill="#000000">...</text>
<polygon fill="#ffffff" stroke="transparent" points="428,-401.7 428,-420.7 509,-420.7 509,-401.7 428,-401.7"/>
<polygon fill="none" stroke="#000000" points="428,-401.7 428,-420.7 509,-420.7 509,-401.7 428,-401.7"/>
<text text-anchor="start" x="431" y="-407.8" font-family="Helvetica,sans-Serif" font-size="11.00" fill="#000000">&lt; 3</text>
<polygon fill="#ffffff" stroke="transparent" points="509,-401.7 509,-420.7 577,-420.7 577,-401.7 509,-401.7"/>
<polygon fill="none" stroke="#000000" points="509,-401.7 509,-420.7 577,-420.7 577,-401.7 509,-401.7"/>
<text text-anchor="start" x="541.6105" y="-407.8" font-family="Helvetica,sans-Serif" font-size="11.00" fill="#000000">0 rows</text>
<polygon fill="#ffffff" stroke="transparent" points="577,-401.7 577,-420.7 620,-420.7 620,-401.7 577,-401.7"/>
<polygon fill="none" stroke="#000000" points="577,-401.7 577,-420.7 620,-420.7 620,-401.7 577,-401.7"/>
<text text-anchor="start" x="610.8862" y="-407.8" font-family="Helvetica,sans-Serif" font-size="11.00" fill="#000000"> &#160;</text>
</a>
</g>
</g>
<!-- completed_normal_challenges&#45;&gt;gymnasts -->
<g id="edge2" class="edge">
<title>completed_normal_challenges:w&#45;&gt;gymnasts:e</title>
<path fill="none" stroke="#000000" d="M413.7634,-426.5559C387.368,-413.0575 395.3301,-360.7 357,-360.7"/>
<polygon fill="#000000" stroke="#000000" points="420.1882,-427.9748 427.2236,-433.2153 424.0941,-428.8374 428,-429.7 428,-429.7 428,-429.7 424.0941,-428.8374 428.7764,-426.1847 420.1882,-427.9748 420.1882,-427.9748"/>
<ellipse fill="none" stroke="#000000" cx="417.0635" cy="-427.2847" rx="3.2" ry="3.2"/>
</g>
<!-- gymnast_has_skills -->
<g id="node4" class="node">
<title>gymnast_has_skills</title>
<g id="a_node4"><a xlink:href="../../tables/gymnast_has_skills.html" xlink:title="gymnast_has_skills" target="_top">
<polygon fill="#ffffff" stroke="transparent" points="406,-120.7 406,-298.7 642,-298.7 642,-120.7 406,-120.7"/>
<polygon fill="#f5f5f5" stroke="transparent" points="408,-273.7 408,-296.7 640,-296.7 640,-273.7 408,-273.7"/>
<polygon fill="none" stroke="#000000" points="408,-273.7 408,-296.7 640,-296.7 640,-273.7 408,-273.7"/>
<text text-anchor="start" x="413" y="-282.8" font-family="Helvetica,sans-Serif" font-weight="bold" font-size="11.00" fill="#000000">gymnast_has_skills</text>
<text text-anchor="start" x="605.0437" y="-281.8" font-family="Helvetica,sans-Serif" font-size="11.00" fill="#000000">[table]</text>
<polygon fill="none" stroke="#000000" points="408,-251.7 408,-273.7 542,-273.7 542,-251.7 408,-251.7"/>
<image xlink:href="../../images/primaryKeys.png" width="11px" height="12px" preserveAspectRatio="xMinYMin meet" x="413" y="-268.7"/>
<text text-anchor="start" x="428" y="-258.8" font-family="Helvetica,sans-Serif" font-size="11.00" fill="#000000">gymnast_id</text>
<polygon fill="none" stroke="#000000" points="542,-251.7 542,-273.7 640,-273.7 640,-251.7 542,-251.7"/>
<text text-anchor="start" x="545" y="-259.4" font-family="Helvetica,sans-Serif" font-size="11.00" fill="#000000">int[10]</text>
<polygon fill="none" stroke="#000000" points="408,-229.7 408,-251.7 542,-251.7 542,-229.7 408,-229.7"/>
<image xlink:href="../../images/primaryKeys.png" width="11px" height="12px" preserveAspectRatio="xMinYMin meet" x="413" y="-246.7"/>
<text text-anchor="start" x="428" y="-236.8" font-family="Helvetica,sans-Serif" font-size="11.00" fill="#000000">skills_Id</text>
<polygon fill="none" stroke="#000000" points="542,-229.7 542,-251.7 640,-251.7 640,-229.7 542,-229.7"/>
<text text-anchor="start" x="544.8429" y="-237.4" font-family="Helvetica,sans-Serif" font-size="11.00" fill="#000000">bigint unsigned[20]</text>
<polygon fill="none" stroke="#000000" points="408,-207.7 408,-229.7 542,-229.7 542,-207.7 408,-207.7"/>
<text text-anchor="start" x="428" y="-214.8" font-family="Helvetica,sans-Serif" font-size="11.00" fill="#000000">progress_status</text>
<polygon fill="none" stroke="#000000" points="542,-207.7 542,-229.7 640,-229.7 640,-207.7 542,-207.7"/>
<text text-anchor="start" x="545" y="-215.4" font-family="Helvetica,sans-Serif" font-size="11.00" fill="#000000">varchar[45]</text>
<polygon fill="none" stroke="#000000" points="408,-185.7 408,-207.7 542,-207.7 542,-185.7 408,-185.7"/>
<text text-anchor="start" x="428" y="-192.8" font-family="Helvetica,sans-Serif" font-size="11.00" fill="#000000">coach_verify</text>
<polygon fill="none" stroke="#000000" points="542,-185.7 542,-207.7 640,-207.7 640,-185.7 542,-185.7"/>
<text text-anchor="start" x="545" y="-193.4" font-family="Helvetica,sans-Serif" font-size="11.00" fill="#000000">json[1073741824]</text>
<polygon fill="none" stroke="#000000" points="408,-163.7 408,-185.7 542,-185.7 542,-163.7 408,-163.7"/>
<text text-anchor="start" x="428" y="-170.8" font-family="Helvetica,sans-Serif" font-size="11.00" fill="#000000">timestamp</text>
<polygon fill="none" stroke="#000000" points="542,-163.7 542,-185.7 640,-185.7 640,-163.7 542,-163.7"/>
<text text-anchor="start" x="545" y="-171.4" font-family="Helvetica,sans-Serif" font-size="11.00" fill="#000000">date[10]</text>
<polygon fill="none" stroke="#000000" points="408,-141.7 408,-163.7 542,-163.7 542,-141.7 408,-141.7"/>
<text text-anchor="start" x="428" y="-148.8" font-family="Helvetica,sans-Serif" font-size="11.00" fill="#000000">interactions</text>
<polygon fill="none" stroke="#000000" points="542,-141.7 542,-163.7 640,-163.7 640,-141.7 542,-141.7"/>
<text text-anchor="start" x="545" y="-149.4" font-family="Helvetica,sans-Serif" font-size="11.00" fill="#000000">json[1073741824]</text>
<polygon fill="#ffffff" stroke="transparent" points="408,-122.7 408,-141.7 466,-141.7 466,-122.7 408,-122.7"/>
<polygon fill="none" stroke="#000000" points="408,-122.7 408,-141.7 466,-141.7 466,-122.7 408,-122.7"/>
<text text-anchor="start" x="411" y="-128.8" font-family="Helvetica,sans-Serif" font-size="11.00" fill="#000000">&lt; 2</text>
<polygon fill="#ffffff" stroke="transparent" points="466,-122.7 466,-141.7 542,-141.7 542,-122.7 466,-122.7"/>
<polygon fill="none" stroke="#000000" points="466,-122.7 466,-141.7 542,-141.7 542,-122.7 466,-122.7"/>
<text text-anchor="start" x="506.6105" y="-128.8" font-family="Helvetica,sans-Serif" font-size="11.00" fill="#000000">0 rows</text>
<polygon fill="#ffffff" stroke="transparent" points="542,-122.7 542,-141.7 640,-141.7 640,-122.7 542,-122.7"/>
<polygon fill="none" stroke="#000000" points="542,-122.7 542,-141.7 640,-141.7 640,-122.7 542,-122.7"/>
<text text-anchor="start" x="621.4053" y="-128.8" font-family="Helvetica,sans-Serif" font-size="11.00" fill="#000000">0 &gt;</text>
<polygon fill="none" stroke="#000000" stroke-width="2" points="407,-121.7 407,-297.7 641,-297.7 641,-121.7 407,-121.7"/>
</a>
</g>
</g>
<!-- gymnast_has_skills&#45;&gt;gymnasts -->
<g id="edge3" class="edge">
<title>gymnast_has_skills:w&#45;&gt;gymnasts:e</title>
<path fill="none" stroke="#000000" d="M394.0571,-266.6631C368.9188,-284.9973 400.1548,-360.7 357,-360.7"/>
<polygon fill="#000000" stroke="#000000" points="400.3048,-264.8873 408.9843,-266.1628 404.1524,-263.7936 408,-262.7 408,-262.7 408,-262.7 404.1524,-263.7936 407.0157,-259.2372 400.3048,-264.8873 400.3048,-264.8873"/>
<ellipse fill="none" stroke="#000000" cx="397.2267" cy="-265.7622" rx="3.2" ry="3.2"/>
</g>
<!-- skills -->
<g id="node5" class="node">
<title>skills</title>
<g id="a_node5"><a xlink:href="../../tables/skills.html" xlink:title="skills" target="_top">
<polygon fill="#ffffff" stroke="transparent" points="226,-90.2 226,-239.2 314,-239.2 314,-90.2 226,-90.2"/>
<polygon fill="#f5f5f5" stroke="transparent" points="226,-215.7 226,-238.7 314,-238.7 314,-215.7 226,-215.7"/>
<polygon fill="none" stroke="#000000" points="226,-215.7 226,-238.7 314,-238.7 314,-215.7 226,-215.7"/>
<text text-anchor="start" x="231" y="-224.8" font-family="Helvetica,sans-Serif" font-weight="bold" font-size="11.00" fill="#000000">skills</text>
<text text-anchor="start" x="279.0437" y="-223.8" font-family="Helvetica,sans-Serif" font-size="11.00" fill="#000000">[table]</text>
<polygon fill="none" stroke="#000000" points="226,-193.7 226,-215.7 314,-215.7 314,-193.7 226,-193.7"/>
<image xlink:href="../../images/primaryKeys.png" width="11px" height="12px" preserveAspectRatio="xMinYMin meet" x="231" y="-210.7"/>
<text text-anchor="start" x="246" y="-200.8" font-family="Helvetica,sans-Serif" font-size="11.00" fill="#000000">id</text>
<polygon fill="#ffffff" stroke="transparent" points="226,-171.7 226,-193.7 314,-193.7 314,-171.7 226,-171.7"/>
<polygon fill="none" stroke="#000000" points="226,-171.7 226,-193.7 314,-193.7 314,-171.7 226,-171.7"/>
<image xlink:href="../../images/foreignKeys.png" width="11px" height="12px" preserveAspectRatio="xMinYMin meet" x="231" y="-188.7"/>
<text text-anchor="start" x="246" y="-178.8" font-family="Helvetica,sans-Serif" font-size="11.00" fill="#000000">event_id</text>
<polygon fill="#ffffff" stroke="transparent" points="226,-149.7 226,-171.7 314,-171.7 314,-149.7 226,-149.7"/>
<polygon fill="none" stroke="#000000" points="226,-149.7 226,-171.7 314,-171.7 314,-149.7 226,-149.7"/>
<image xlink:href="../../images/foreignKeys.png" width="11px" height="12px" preserveAspectRatio="xMinYMin meet" x="231" y="-166.7"/>
<text text-anchor="start" x="246" y="-156.8" font-family="Helvetica,sans-Serif" font-size="11.00" fill="#000000">category_id</text>
<polygon fill="#ffffff" stroke="transparent" points="226,-127.7 226,-149.7 314,-149.7 314,-127.7 226,-127.7"/>
<polygon fill="none" stroke="#000000" points="226,-127.7 226,-149.7 314,-149.7 314,-127.7 226,-127.7"/>
<image xlink:href="../../images/foreignKeys.png" width="11px" height="12px" preserveAspectRatio="xMinYMin meet" x="231" y="-144.7"/>
<text text-anchor="start" x="246" y="-134.8" font-family="Helvetica,sans-Serif" font-size="11.00" fill="#000000">level_id</text>
<polygon fill="none" stroke="#000000" points="226,-108.7 226,-127.7 314,-127.7 314,-108.7 226,-108.7"/>
<text text-anchor="start" x="229" y="-114.8" font-family="Helvetica,sans-Serif" font-size="11.00" fill="#000000">...</text>
<polygon fill="#ffffff" stroke="transparent" points="226,-89.7 226,-108.7 251,-108.7 251,-89.7 226,-89.7"/>
<polygon fill="none" stroke="#000000" points="226,-89.7 226,-108.7 251,-108.7 251,-89.7 226,-89.7"/>
<text text-anchor="start" x="229" y="-95.8" font-family="Helvetica,sans-Serif" font-size="11.00" fill="#000000">&lt; 3</text>
<polygon fill="#ffffff" stroke="transparent" points="251,-89.7 251,-108.7 291,-108.7 291,-89.7 251,-89.7"/>
<polygon fill="none" stroke="#000000" points="251,-89.7 251,-108.7 291,-108.7 291,-89.7 251,-89.7"/>
<text text-anchor="start" x="255.6105" y="-95.8" font-family="Helvetica,sans-Serif" font-size="11.00" fill="#000000">0 rows</text>
<polygon fill="#ffffff" stroke="transparent" points="291,-89.7 291,-108.7 314,-108.7 314,-89.7 291,-89.7"/>
<polygon fill="none" stroke="#000000" points="291,-89.7 291,-108.7 314,-108.7 314,-89.7 291,-89.7"/>
<text text-anchor="start" x="295.4053" y="-95.8" font-family="Helvetica,sans-Serif" font-size="11.00" fill="#000000">2 &gt;</text>
</a>
</g>
</g>
<!-- gymnast_has_skills&#45;&gt;skills -->
<g id="edge4" class="edge">
<title>gymnast_has_skills:w&#45;&gt;skills:e</title>
<path fill="none" stroke="#000000" d="M393.3741,-239.2442C361.5773,-232.5091 353.3195,-204.7 314,-204.7"/>
<polygon fill="#000000" stroke="#000000" points="400.0393,-239.9076 407.6434,-244.2823 404.0197,-240.3038 408,-240.7 408,-240.7 408,-240.7 404.0197,-240.3038 408.3566,-237.1177 400.0393,-239.9076 400.0393,-239.9076"/>
<ellipse fill="none" stroke="#000000" cx="396.8551" cy="-239.5906" rx="3.2" ry="3.2"/>
</g>
<!-- levels -->
<g id="node9" class="node">
<title>levels</title>
<g id="a_node9"><a xlink:href="../../tables/levels.html" xlink:title="levels" target="_top">
<polygon fill="#ffffff" stroke="transparent" points="35.5,-44.2 35.5,-105.2 106.5,-105.2 106.5,-44.2 35.5,-44.2"/>
<polygon fill="#f5f5f5" stroke="transparent" points="36,-81.7 36,-104.7 107,-104.7 107,-81.7 36,-81.7"/>
<polygon fill="none" stroke="#000000" points="36,-81.7 36,-104.7 107,-104.7 107,-81.7 36,-81.7"/>
<text text-anchor="start" x="40.9442" y="-90.8" font-family="Helvetica,sans-Serif" font-weight="bold" font-size="11.00" fill="#000000">levels</text>
<text text-anchor="start" x="72.5219" y="-89.8" font-family="Helvetica,sans-Serif" font-size="11.00" fill="#000000">[table]</text>
<polygon fill="none" stroke="#000000" points="36,-62.7 36,-81.7 107,-81.7 107,-62.7 36,-62.7"/>
<text text-anchor="start" x="39" y="-68.8" font-family="Helvetica,sans-Serif" font-size="11.00" fill="#000000">...</text>
<polygon fill="#ffffff" stroke="transparent" points="36,-43.7 36,-62.7 48,-62.7 48,-43.7 36,-43.7"/>
<polygon fill="none" stroke="#000000" points="36,-43.7 36,-62.7 48,-62.7 48,-43.7 36,-43.7"/>
<text text-anchor="start" x="38.9431" y="-49.8" font-family="Helvetica,sans-Serif" font-size="11.00" fill="#000000"> &#160;</text>
<polygon fill="#ffffff" stroke="transparent" points="48,-43.7 48,-62.7 86,-62.7 86,-43.7 48,-43.7"/>
<polygon fill="none" stroke="#000000" points="48,-43.7 48,-62.7 86,-62.7 86,-43.7 48,-43.7"/>
<text text-anchor="start" x="50.8053" y="-49.8" font-family="Helvetica,sans-Serif" font-size="11.00" fill="#000000">0 rows</text>
<polygon fill="#ffffff" stroke="transparent" points="86,-43.7 86,-62.7 107,-62.7 107,-43.7 86,-43.7"/>
<polygon fill="none" stroke="#000000" points="86,-43.7 86,-62.7 107,-62.7 107,-43.7 86,-43.7"/>
<text text-anchor="start" x="88.7027" y="-49.8" font-family="Helvetica,sans-Serif" font-size="11.00" fill="#000000">2 &gt;</text>
</a>
</g>
</g>
<!-- skills&#45;&gt;levels -->
<g id="edge12" class="edge">
<title>skills:w&#45;&gt;levels:e</title>
<path fill="none" stroke="#000000" d="M211.3726,-137.2383C165.2374,-127.4402 162.361,-71.7 107,-71.7"/>
<polygon fill="#000000" stroke="#000000" points="218.0396,-137.9045 225.642,-142.2822 222.0198,-138.3022 226,-138.7 226,-138.7 226,-138.7 222.0198,-138.3022 226.358,-135.1178 218.0396,-137.9045 218.0396,-137.9045"/>
<ellipse fill="none" stroke="#000000" cx="214.8555" cy="-137.5863" rx="3.2" ry="3.2"/>
</g>
<!-- categories -->
<g id="node10" class="node">
<title>categories</title>
<g id="a_node10"><a xlink:href="../../tables/categories.html" xlink:title="categories" target="_top">
<polygon fill="#ffffff" stroke="transparent" points="24.5,-129.2 24.5,-190.2 117.5,-190.2 117.5,-129.2 24.5,-129.2"/>
<polygon fill="#f5f5f5" stroke="transparent" points="25,-166.7 25,-189.7 118,-189.7 118,-166.7 25,-166.7"/>
<polygon fill="none" stroke="#000000" points="25,-166.7 25,-189.7 118,-189.7 118,-166.7 25,-166.7"/>
<text text-anchor="start" x="29.6329" y="-175.8" font-family="Helvetica,sans-Serif" font-weight="bold" font-size="11.00" fill="#000000">categories</text>
<text text-anchor="start" x="83.5219" y="-174.8" font-family="Helvetica,sans-Serif" font-size="11.00" fill="#000000">[table]</text>
<polygon fill="none" stroke="#000000" points="25,-147.7 25,-166.7 118,-166.7 118,-147.7 25,-147.7"/>
<text text-anchor="start" x="28" y="-153.8" font-family="Helvetica,sans-Serif" font-size="11.00" fill="#000000">...</text>
<polygon fill="#ffffff" stroke="transparent" points="25,-128.7 25,-147.7 48,-147.7 48,-128.7 25,-128.7"/>
<polygon fill="none" stroke="#000000" points="25,-128.7 25,-147.7 48,-147.7 48,-128.7 25,-128.7"/>
<text text-anchor="start" x="28" y="-134.8" font-family="Helvetica,sans-Serif" font-size="11.00" fill="#000000"> &#160;</text>
<polygon fill="#ffffff" stroke="transparent" points="48,-128.7 48,-147.7 91,-147.7 91,-128.7 48,-128.7"/>
<polygon fill="none" stroke="#000000" points="48,-128.7 48,-147.7 91,-147.7 91,-128.7 48,-128.7"/>
<text text-anchor="start" x="55.6105" y="-134.8" font-family="Helvetica,sans-Serif" font-size="11.00" fill="#000000">0 rows</text>
<polygon fill="#ffffff" stroke="transparent" points="91,-128.7 91,-147.7 118,-147.7 118,-128.7 91,-128.7"/>
<polygon fill="none" stroke="#000000" points="91,-128.7 91,-147.7 118,-147.7 118,-128.7 91,-128.7"/>
<text text-anchor="start" x="99.4053" y="-134.8" font-family="Helvetica,sans-Serif" font-size="11.00" fill="#000000">1 &gt;</text>
</a>
</g>
</g>
<!-- skills&#45;&gt;categories -->
<g id="edge10" class="edge">
<title>skills:w&#45;&gt;categories:e</title>
<path fill="none" stroke="#000000" d="M211.4403,-160.5669C174.9246,-159.8729 160.7793,-156.7 118,-156.7"/>
<polygon fill="#000000" stroke="#000000" points="218.0003,-160.6268 225.9671,-164.2998 222.0002,-160.6634 226,-160.7 226,-160.7 226,-160.7 222.0002,-160.6634 226.0329,-157.1002 218.0003,-160.6268 218.0003,-160.6268"/>
<ellipse fill="none" stroke="#000000" cx="214.8005" cy="-160.5976" rx="3.2" ry="3.2"/>
</g>
<!-- events -->
<g id="node11" class="node">
<title>events</title>
<g id="a_node11"><a xlink:href="../../tables/events.html" xlink:title="events" target="_top">
<polygon fill="#ffffff" stroke="transparent" points="31,-211.2 31,-272.2 111,-272.2 111,-211.2 31,-211.2"/>
<polygon fill="#f5f5f5" stroke="transparent" points="31,-248.7 31,-271.7 111,-271.7 111,-248.7 31,-248.7"/>
<polygon fill="none" stroke="#000000" points="31,-248.7 31,-271.7 111,-271.7 111,-248.7 31,-248.7"/>
<text text-anchor="start" x="36" y="-257.8" font-family="Helvetica,sans-Serif" font-weight="bold" font-size="11.00" fill="#000000">events</text>
<text text-anchor="start" x="76.0437" y="-256.8" font-family="Helvetica,sans-Serif" font-size="11.00" fill="#000000">[table]</text>
<polygon fill="none" stroke="#000000" points="31,-229.7 31,-248.7 111,-248.7 111,-229.7 31,-229.7"/>
<text text-anchor="start" x="34" y="-235.8" font-family="Helvetica,sans-Serif" font-size="11.00" fill="#000000">...</text>
<polygon fill="#ffffff" stroke="transparent" points="31,-210.7 31,-229.7 52,-229.7 52,-210.7 31,-210.7"/>
<polygon fill="none" stroke="#000000" points="31,-210.7 31,-229.7 52,-229.7 52,-210.7 31,-210.7"/>
<text text-anchor="start" x="33.7027" y="-216.8" font-family="Helvetica,sans-Serif" font-size="11.00" fill="#000000">&lt; 1</text>
<polygon fill="#ffffff" stroke="transparent" points="52,-210.7 52,-229.7 90,-229.7 90,-210.7 52,-210.7"/>
<polygon fill="none" stroke="#000000" points="52,-210.7 52,-229.7 90,-229.7 90,-210.7 52,-210.7"/>
<text text-anchor="start" x="54.8053" y="-216.8" font-family="Helvetica,sans-Serif" font-size="11.00" fill="#000000">0 rows</text>
<polygon fill="#ffffff" stroke="transparent" points="90,-210.7 90,-229.7 111,-229.7 111,-210.7 90,-210.7"/>
<polygon fill="none" stroke="#000000" points="90,-210.7 90,-229.7 111,-229.7 111,-210.7 90,-210.7"/>
<text text-anchor="start" x="92.7027" y="-216.8" font-family="Helvetica,sans-Serif" font-size="11.00" fill="#000000">1 &gt;</text>
</a>
</g>
</g>
<!-- skills&#45;&gt;events -->
<g id="edge11" class="edge">
<title>skills:w&#45;&gt;events:e</title>
<path fill="none" stroke="#000000" d="M211.3843,-184.0843C168.4187,-192.7078 162.5194,-238.7 111,-238.7"/>
<polygon fill="#000000" stroke="#000000" points="218.0356,-183.4544 226.3395,-186.284 222.0178,-183.0772 226,-182.7 226,-182.7 226,-182.7 222.0178,-183.0772 225.6605,-179.116 218.0356,-183.4544 218.0356,-183.4544"/>
<ellipse fill="none" stroke="#000000" cx="214.8499" cy="-183.7561" rx="3.2" ry="3.2"/>
</g>
<!-- gymnasts_classes -->
<g id="node7" class="node">
<title>gymnasts_classes</title>
<g id="a_node7"><a xlink:href="../../tables/gymnasts_classes.html" xlink:title="gymnasts_classes" target="_top">
<polygon fill="#ffffff" stroke="transparent" points="458,-320.2 458,-381.2 590,-381.2 590,-320.2 458,-320.2"/>
<polygon fill="#f5f5f5" stroke="transparent" points="458,-357.7 458,-380.7 590,-380.7 590,-357.7 458,-357.7"/>
<polygon fill="none" stroke="#000000" points="458,-357.7 458,-380.7 590,-380.7 590,-357.7 458,-357.7"/>
<text text-anchor="start" x="462.5755" y="-366.8" font-family="Helvetica,sans-Serif" font-weight="bold" font-size="11.00" fill="#000000">gymnasts_classes</text>
<text text-anchor="start" x="555.5219" y="-365.8" font-family="Helvetica,sans-Serif" font-size="11.00" fill="#000000">[table]</text>
<polygon fill="none" stroke="#000000" points="458,-338.7 458,-357.7 590,-357.7 590,-338.7 458,-338.7"/>
<text text-anchor="start" x="461" y="-344.8" font-family="Helvetica,sans-Serif" font-size="11.00" fill="#000000">...</text>
<polygon fill="#ffffff" stroke="transparent" points="458,-319.7 458,-338.7 509,-338.7 509,-319.7 458,-319.7"/>
<polygon fill="none" stroke="#000000" points="458,-319.7 458,-338.7 509,-338.7 509,-319.7 458,-319.7"/>
<text text-anchor="start" x="461" y="-325.8" font-family="Helvetica,sans-Serif" font-size="11.00" fill="#000000">&lt; 2</text>
<polygon fill="#ffffff" stroke="transparent" points="509,-319.7 509,-338.7 562,-338.7 562,-319.7 509,-319.7"/>
<polygon fill="none" stroke="#000000" points="509,-319.7 509,-338.7 562,-338.7 562,-319.7 509,-319.7"/>
<text text-anchor="start" x="526.6105" y="-325.8" font-family="Helvetica,sans-Serif" font-size="11.00" fill="#000000">0 rows</text>
<polygon fill="#ffffff" stroke="transparent" points="562,-319.7 562,-338.7 590,-338.7 590,-319.7 562,-319.7"/>
<polygon fill="none" stroke="#000000" points="562,-319.7 562,-338.7 590,-338.7 590,-319.7 562,-319.7"/>
<text text-anchor="start" x="580.8862" y="-325.8" font-family="Helvetica,sans-Serif" font-size="11.00" fill="#000000"> &#160;</text>
</a>
</g>
</g>
<!-- gymnasts_classes&#45;&gt;gymnasts -->
<g id="edge7" class="edge">
<title>gymnasts_classes:w&#45;&gt;gymnasts:e</title>
<path fill="none" stroke="#000000" d="M443.4094,-348.1937C409.8066,-350.5683 396.9554,-360.7 357,-360.7"/>
<polygon fill="#000000" stroke="#000000" points="450.0046,-347.9706 458.1218,-351.2979 454.0023,-347.8353 458,-347.7 458,-347.7 458,-347.7 454.0023,-347.8353 457.8782,-344.1021 450.0046,-347.9706 450.0046,-347.9706"/>
<ellipse fill="none" stroke="#000000" cx="446.8064" cy="-348.0789" rx="3.2" ry="3.2"/>
</g>
<!-- skill_has_levels -->
<g id="node8" class="node">
<title>skill_has_levels</title>
<g id="a_node8"><a xlink:href="../../tables/skill_has_levels.html" xlink:title="skill_has_levels" target="_top">
<polygon fill="#ffffff" stroke="transparent" points="464.5,-38.2 464.5,-99.2 583.5,-99.2 583.5,-38.2 464.5,-38.2"/>
<polygon fill="#f5f5f5" stroke="transparent" points="465,-75.7 465,-98.7 584,-98.7 584,-75.7 465,-75.7"/>
<polygon fill="none" stroke="#000000" points="465,-75.7 465,-98.7 584,-98.7 584,-75.7 465,-75.7"/>
<text text-anchor="start" x="469.8031" y="-84.8" font-family="Helvetica,sans-Serif" font-weight="bold" font-size="11.00" fill="#000000">skill_has_levels</text>
<text text-anchor="start" x="549.5219" y="-83.8" font-family="Helvetica,sans-Serif" font-size="11.00" fill="#000000">[table]</text>
<polygon fill="none" stroke="#000000" points="465,-56.7 465,-75.7 584,-75.7 584,-56.7 465,-56.7"/>
<text text-anchor="start" x="468" y="-62.8" font-family="Helvetica,sans-Serif" font-size="11.00" fill="#000000">...</text>
<polygon fill="#ffffff" stroke="transparent" points="465,-37.7 465,-56.7 510,-56.7 510,-37.7 465,-37.7"/>
<polygon fill="none" stroke="#000000" points="465,-37.7 465,-56.7 510,-56.7 510,-37.7 465,-37.7"/>
<text text-anchor="start" x="468" y="-43.8" font-family="Helvetica,sans-Serif" font-size="11.00" fill="#000000">&lt; 2</text>
<polygon fill="#ffffff" stroke="transparent" points="510,-37.7 510,-56.7 560,-56.7 560,-37.7 510,-37.7"/>
<polygon fill="none" stroke="#000000" points="510,-37.7 510,-56.7 560,-56.7 560,-37.7 510,-37.7"/>
<text text-anchor="start" x="524.6105" y="-43.8" font-family="Helvetica,sans-Serif" font-size="11.00" fill="#000000">0 rows</text>
<polygon fill="#ffffff" stroke="transparent" points="560,-37.7 560,-56.7 584,-56.7 584,-37.7 560,-37.7"/>
<polygon fill="none" stroke="#000000" points="560,-37.7 560,-56.7 584,-56.7 584,-37.7 560,-37.7"/>
<text text-anchor="start" x="574.8862" y="-43.8" font-family="Helvetica,sans-Serif" font-size="11.00" fill="#000000"> &#160;</text>
</a>
</g>
</g>
<!-- skill_has_levels&#45;&gt;skills -->
<g id="edge9" class="edge">
<title>skill_has_levels:w&#45;&gt;skills:e</title>
<path fill="none" stroke="#000000" d="M450.6259,-67.1246C427.3534,-72.2823 420.93,-90.7313 398,-110.7 355.7478,-147.4956 370.0282,-204.7 314,-204.7"/>
<polygon fill="#000000" stroke="#000000" points="457.039,-66.4891 465.3551,-69.2824 461.0195,-66.0945 465,-65.7 465,-65.7 465,-65.7 461.0195,-66.0945 464.6449,-62.1176 457.039,-66.4891 457.039,-66.4891"/>
<ellipse fill="none" stroke="#000000" cx="453.8546" cy="-66.8047" rx="3.2" ry="3.2"/>
</g>
<!-- skill_has_levels&#45;&gt;levels -->
<g id="edge8" class="edge">
<title>skill_has_levels:w&#45;&gt;levels:e</title>
<path fill="none" stroke="#000000" d="M450.4238,-65.7172C303.2666,-66.0691 261.1605,-71.7 107,-71.7"/>
<polygon fill="#000000" stroke="#000000" points="457,-65.7095 465.0043,-69.3 461,-65.7048 465,-65.7 465,-65.7 465,-65.7 461,-65.7048 464.9957,-62.1 457,-65.7095 457,-65.7095"/>
<ellipse fill="none" stroke="#000000" cx="453.8" cy="-65.7133" rx="3.2" ry="3.2"/>
</g>
</g>
</svg>
