<?xml version="1.0" encoding="UTF-8" standalone="no"?>
<!DOCTYPE svg PUBLIC "-//W3C//DTD SVG 1.1//EN"
 "http://www.w3.org/Graphics/SVG/1.1/DTD/svg11.dtd">
<!-- Generated by graphviz version 2.40.1 (20161225.0304)
 -->
<!-- Title: twoDegreesRelationshipsDiagram Pages: 1 -->
<svg width="658pt" height="609pt"
 viewBox="0.00 0.00 658.00 609.20" xmlns="http://www.w3.org/2000/svg" xmlns:xlink="http://www.w3.org/1999/xlink">
<g id="graph0" class="graph" transform="scale(1 1) rotate(0) translate(4 605.2)">
<title>twoDegreesRelationshipsDiagram</title>
<polygon fill="#ffffff" stroke="transparent" points="-4,4 -4,-605.2 654,-605.2 654,4 -4,4"/>
<text text-anchor="middle" x="72.4936" y="-7.3" font-family="Helvetica,sans-Serif" font-size="11.00" fill="#000000">Generated by SchemaSpy</text>
<!-- completed_daily_challenges -->
<g id="node1" class="node">
<title>completed_daily_challenges</title>
<g id="a_node1"><a xlink:href="../../tables/completed_daily_challenges.html" xlink:title="completed_daily_challenges" target="_top">
<polygon fill="#ffffff" stroke="transparent" points="433.5,-536.2 433.5,-597.2 614.5,-597.2 614.5,-536.2 433.5,-536.2"/>
<polygon fill="#f5f5f5" stroke="transparent" points="434,-573.7 434,-596.7 615,-596.7 615,-573.7 434,-573.7"/>
<polygon fill="none" stroke="#000000" points="434,-573.7 434,-596.7 615,-596.7 615,-573.7 434,-573.7"/>
<text text-anchor="start" x="438.9266" y="-582.8" font-family="Helvetica,sans-Serif" font-weight="bold" font-size="11.00" fill="#000000">completed_daily_challenges</text>
<text text-anchor="start" x="580.5219" y="-581.8" font-family="Helvetica,sans-Serif" font-size="11.00" fill="#000000">[table]</text>
<polygon fill="none" stroke="#000000" points="434,-554.7 434,-573.7 615,-573.7 615,-554.7 434,-554.7"/>
<text text-anchor="start" x="437" y="-560.8" font-family="Helvetica,sans-Serif" font-size="11.00" fill="#000000">...</text>
<polygon fill="#ffffff" stroke="transparent" points="434,-535.7 434,-554.7 510,-554.7 510,-535.7 434,-535.7"/>
<polygon fill="none" stroke="#000000" points="434,-535.7 434,-554.7 510,-554.7 510,-535.7 434,-535.7"/>
<text text-anchor="start" x="437" y="-541.8" font-family="Helvetica,sans-Serif" font-size="11.00" fill="#000000">&lt; 4</text>
<polygon fill="#ffffff" stroke="transparent" points="510,-535.7 510,-554.7 575,-554.7 575,-535.7 510,-535.7"/>
<polygon fill="none" stroke="#000000" points="510,-535.7 510,-554.7 575,-554.7 575,-535.7 510,-535.7"/>
<text text-anchor="start" x="539.6105" y="-541.8" font-family="Helvetica,sans-Serif" font-size="11.00" fill="#000000">0 rows</text>
<polygon fill="#ffffff" stroke="transparent" points="575,-535.7 575,-554.7 615,-554.7 615,-535.7 575,-535.7"/>
<polygon fill="none" stroke="#000000" points="575,-535.7 575,-554.7 615,-554.7 615,-535.7 575,-535.7"/>
<text text-anchor="start" x="605.8862" y="-541.8" font-family="Helvetica,sans-Serif" font-size="11.00" fill="#000000"> &#160;</text>
</a>
</g>
</g>
<!-- gymnasts -->
<g id="node2" class="node">
<title>gymnasts</title>
<g id="a_node2"><a xlink:href="../../tables/gymnasts.html" xlink:title="gymnasts" target="_top">
<polygon fill="#ffffff" stroke="transparent" points="183,-348.2 183,-475.2 357,-475.2 357,-348.2 183,-348.2"/>
<polygon fill="#f5f5f5" stroke="transparent" points="183,-451.7 183,-474.7 357,-474.7 357,-451.7 183,-451.7"/>
<polygon fill="none" stroke="#000000" points="183,-451.7 183,-474.7 357,-474.7 357,-451.7 183,-451.7"/>
<text text-anchor="start" x="188" y="-460.8" font-family="Helvetica,sans-Serif" font-weight="bold" font-size="11.00" fill="#000000">gymnasts</text>
<text text-anchor="start" x="322.0437" y="-459.8" font-family="Helvetica,sans-Serif" font-size="11.00" fill="#000000">[table]</text>
<polygon fill="none" stroke="#000000" points="183,-429.7 183,-451.7 357,-451.7 357,-429.7 183,-429.7"/>
<image xlink:href="../../images/primaryKeys.png" width="11px" height="12px" preserveAspectRatio="xMinYMin meet" x="188" y="-446.7"/>
<text text-anchor="start" x="203" y="-436.8" font-family="Helvetica,sans-Serif" font-size="11.00" fill="#000000">id</text>
<polygon fill="#ffffff" stroke="transparent" points="183,-407.7 183,-429.7 357,-429.7 357,-407.7 183,-407.7"/>
<polygon fill="none" stroke="#000000" points="183,-407.7 183,-429.7 357,-429.7 357,-407.7 183,-407.7"/>
<image xlink:href="../../images/foreignKeys.png" width="11px" height="12px" preserveAspectRatio="xMinYMin meet" x="188" y="-424.7"/>
<text text-anchor="start" x="203" y="-414.8" font-family="Helvetica,sans-Serif" font-size="11.00" fill="#000000">gyms_has_users_gyms_id</text>
<polygon fill="#ffffff" stroke="transparent" points="183,-385.7 183,-407.7 357,-407.7 357,-385.7 183,-385.7"/>
<polygon fill="none" stroke="#000000" points="183,-385.7 183,-407.7 357,-407.7 357,-385.7 183,-385.7"/>
<image xlink:href="../../images/foreignKeys.png" width="11px" height="12px" preserveAspectRatio="xMinYMin meet" x="188" y="-402.7"/>
<text text-anchor="start" x="203" y="-392.8" font-family="Helvetica,sans-Serif" font-size="11.00" fill="#000000">gyms_has_users_users_id</text>
<polygon fill="none" stroke="#000000" points="183,-366.7 183,-385.7 357,-385.7 357,-366.7 183,-366.7"/>
<text text-anchor="start" x="186" y="-372.8" font-family="Helvetica,sans-Serif" font-size="11.00" fill="#000000">...</text>
<polygon fill="#ffffff" stroke="transparent" points="183,-347.7 183,-366.7 251,-366.7 251,-347.7 183,-347.7"/>
<polygon fill="none" stroke="#000000" points="183,-347.7 183,-366.7 251,-366.7 251,-347.7 183,-347.7"/>
<text text-anchor="start" x="186" y="-353.8" font-family="Helvetica,sans-Serif" font-size="11.00" fill="#000000">&lt; 2</text>
<polygon fill="#ffffff" stroke="transparent" points="251,-347.7 251,-366.7 312,-366.7 312,-347.7 251,-347.7"/>
<polygon fill="none" stroke="#000000" points="251,-347.7 251,-366.7 312,-366.7 312,-347.7 251,-347.7"/>
<text text-anchor="start" x="276.6105" y="-353.8" font-family="Helvetica,sans-Serif" font-size="11.00" fill="#000000">0 rows</text>
<polygon fill="#ffffff" stroke="transparent" points="312,-347.7 312,-366.7 357,-366.7 357,-347.7 312,-347.7"/>
<polygon fill="none" stroke="#000000" points="312,-347.7 312,-366.7 357,-366.7 357,-347.7 312,-347.7"/>
<text text-anchor="start" x="338.4053" y="-353.8" font-family="Helvetica,sans-Serif" font-size="11.00" fill="#000000">4 &gt;</text>
</a>
</g>
</g>
<!-- completed_daily_challenges&#45;&gt;gymnasts -->
<g id="edge1" class="edge">
<title>completed_daily_challenges:w&#45;&gt;gymnasts:e</title>
<path fill="none" stroke="#000000" d="M419.7847,-560.0576C410.0224,-553.6646 407.7018,-539.7629 398,-525.7 374.1823,-491.1757 398.9429,-440.7 357,-440.7"/>
<polygon fill="#000000" stroke="#000000" points="426.2504,-561.7143 433.1064,-567.1873 430.1252,-562.7071 434,-563.7 434,-563.7 434,-563.7 430.1252,-562.7071 434.8936,-560.2127 426.2504,-561.7143 426.2504,-561.7143"/>
<ellipse fill="none" stroke="#000000" cx="423.1505" cy="-560.92" rx="3.2" ry="3.2"/>
</g>
<!-- gyms_has_users -->
<g id="node6" class="node">
<title>gyms_has_users</title>
<g id="a_node6"><a xlink:href="../../tables/gyms_has_users.html" xlink:title="gyms_has_users" target="_top">
<polygon fill="#ffffff" stroke="transparent" points="8,-380.2 8,-441.2 134,-441.2 134,-380.2 8,-380.2"/>
<polygon fill="#f5f5f5" stroke="transparent" points="8,-417.7 8,-440.7 134,-440.7 134,-417.7 8,-417.7"/>
<polygon fill="none" stroke="#000000" points="8,-417.7 8,-440.7 134,-440.7 134,-417.7 8,-417.7"/>
<text text-anchor="start" x="12.9359" y="-426.8" font-family="Helvetica,sans-Serif" font-weight="bold" font-size="11.00" fill="#000000">gyms_has_users</text>
<text text-anchor="start" x="99.5219" y="-425.8" font-family="Helvetica,sans-Serif" font-size="11.00" fill="#000000">[table]</text>
<polygon fill="none" stroke="#000000" points="8,-398.7 8,-417.7 134,-417.7 134,-398.7 8,-398.7"/>
<text text-anchor="start" x="11" y="-404.8" font-family="Helvetica,sans-Serif" font-size="11.00" fill="#000000">...</text>
<polygon fill="#ffffff" stroke="transparent" points="8,-379.7 8,-398.7 52,-398.7 52,-379.7 8,-379.7"/>
<polygon fill="none" stroke="#000000" points="8,-379.7 8,-398.7 52,-398.7 52,-379.7 8,-379.7"/>
<text text-anchor="start" x="11" y="-385.8" font-family="Helvetica,sans-Serif" font-size="11.00" fill="#000000">&lt; 2</text>
<polygon fill="#ffffff" stroke="transparent" points="52,-379.7 52,-398.7 101,-398.7 101,-379.7 52,-379.7"/>
<polygon fill="none" stroke="#000000" points="52,-379.7 52,-398.7 101,-398.7 101,-379.7 52,-379.7"/>
<text text-anchor="start" x="65.6105" y="-385.8" font-family="Helvetica,sans-Serif" font-size="11.00" fill="#000000">0 rows</text>
<polygon fill="#ffffff" stroke="transparent" points="101,-379.7 101,-398.7 134,-398.7 134,-379.7 101,-379.7"/>
<polygon fill="none" stroke="#000000" points="101,-379.7 101,-398.7 134,-398.7 134,-379.7 101,-379.7"/>
<text text-anchor="start" x="115.4053" y="-385.8" font-family="Helvetica,sans-Serif" font-size="11.00" fill="#000000">2 &gt;</text>
</a>
</g>
</g>
<!-- gymnasts&#45;&gt;gyms_has_users -->
<g id="edge5" class="edge">
<title>gymnasts:w&#45;&gt;gyms_has_users:e</title>
<path fill="none" stroke="#000000" d="M168.7027,-416.8836C157.2382,-413.7593 150.5655,-407.7 134,-407.7"/>
<polygon fill="#000000" stroke="#000000" points="175.0638,-417.6917 182.5463,-422.2713 179.0319,-418.1958 183,-418.7 183,-418.7 183,-418.7 179.0319,-418.1958 183.4537,-415.1287 175.0638,-417.6917 175.0638,-417.6917"/>
<ellipse fill="none" stroke="#000000" cx="171.8893" cy="-417.2884" rx="3.2" ry="3.2"/>
</g>
<!-- gymnasts&#45;&gt;gyms_has_users -->
<g id="edge6" class="edge">
<title>gymnasts:w&#45;&gt;gyms_has_users:e</title>
<path fill="none" stroke="#000000" d="M168.7027,-398.5164C157.2382,-401.6407 150.5655,-407.7 134,-407.7"/>
<polygon fill="#000000" stroke="#000000" points="175.0638,-397.7083 183.4537,-400.2713 179.0319,-397.2042 183,-396.7 183,-396.7 183,-396.7 179.0319,-397.2042 182.5463,-393.1287 175.0638,-397.7083 175.0638,-397.7083"/>
<ellipse fill="none" stroke="#000000" cx="171.8893" cy="-398.1116" rx="3.2" ry="3.2"/>
</g>
<!-- completed_normal_challenges -->
<g id="node3" class="node">
<title>completed_normal_challenges</title>
<g id="a_node3"><a xlink:href="../../tables/completed_normal_challenges.html" xlink:title="completed_normal_challenges" target="_top">
<polygon fill="#ffffff" stroke="transparent" points="428,-454.2 428,-515.2 620,-515.2 620,-454.2 428,-454.2"/>
<polygon fill="#f5f5f5" stroke="transparent" points="428,-491.7 428,-514.7 620,-514.7 620,-491.7 428,-491.7"/>
<polygon fill="none" stroke="#000000" points="428,-491.7 428,-514.7 620,-514.7 620,-491.7 428,-491.7"/>
<text text-anchor="start" x="432.9277" y="-500.8" font-family="Helvetica,sans-Serif" font-weight="bold" font-size="11.00" fill="#000000">completed_normal_challenges</text>
<text text-anchor="start" x="585.5219" y="-499.8" font-family="Helvetica,sans-Serif" font-size="11.00" fill="#000000">[table]</text>
<polygon fill="none" stroke="#000000" points="428,-472.7 428,-491.7 620,-491.7 620,-472.7 428,-472.7"/>
<text text-anchor="start" x="431" y="-478.8" font-family="Helvetica,sans-Serif" font-size="11.00" fill="#000000">...</text>
<polygon fill="#ffffff" stroke="transparent" points="428,-453.7 428,-472.7 509,-472.7 509,-453.7 428,-453.7"/>
<polygon fill="none" stroke="#000000" points="428,-453.7 428,-472.7 509,-472.7 509,-453.7 428,-453.7"/>
<text text-anchor="start" x="431" y="-459.8" font-family="Helvetica,sans-Serif" font-size="11.00" fill="#000000">&lt; 3</text>
<polygon fill="#ffffff" stroke="transparent" points="509,-453.7 509,-472.7 577,-472.7 577,-453.7 509,-453.7"/>
<polygon fill="none" stroke="#000000" points="509,-453.7 509,-472.7 577,-472.7 577,-453.7 509,-453.7"/>
<text text-anchor="start" x="541.6105" y="-459.8" font-family="Helvetica,sans-Serif" font-size="11.00" fill="#000000">0 rows</text>
<polygon fill="#ffffff" stroke="transparent" points="577,-453.7 577,-472.7 620,-472.7 620,-453.7 577,-453.7"/>
<polygon fill="none" stroke="#000000" points="577,-453.7 577,-472.7 620,-472.7 620,-453.7 577,-453.7"/>
<text text-anchor="start" x="610.8862" y="-459.8" font-family="Helvetica,sans-Serif" font-size="11.00" fill="#000000"> &#160;</text>
</a>
</g>
</g>
<!-- completed_normal_challenges&#45;&gt;gymnasts -->
<g id="edge2" class="edge">
<title>completed_normal_challenges:w&#45;&gt;gymnasts:e</title>
<path fill="none" stroke="#000000" d="M413.7431,-479.1353C391.2439,-470.1594 387.8878,-440.7 357,-440.7"/>
<polygon fill="#000000" stroke="#000000" points="420.1264,-480.2835 427.3626,-485.2431 424.0632,-480.9918 428,-481.7 428,-481.7 428,-481.7 424.0632,-480.9918 428.6374,-478.1569 420.1264,-480.2835 420.1264,-480.2835"/>
<ellipse fill="none" stroke="#000000" cx="416.9769" cy="-479.7169" rx="3.2" ry="3.2"/>
</g>
<!-- gymnast_has_skills -->
<g id="node4" class="node">
<title>gymnast_has_skills</title>
<g id="a_node4"><a xlink:href="../../tables/gymnast_has_skills.html" xlink:title="gymnast_has_skills" target="_top">
<polygon fill="#ffffff" stroke="transparent" points="406,-150.7 406,-350.7 642,-350.7 642,-150.7 406,-150.7"/>
<polygon fill="#f5f5f5" stroke="transparent" points="408,-325.7 408,-348.7 640,-348.7 640,-325.7 408,-325.7"/>
<polygon fill="none" stroke="#000000" points="408,-325.7 408,-348.7 640,-348.7 640,-325.7 408,-325.7"/>
<text text-anchor="start" x="413" y="-334.8" font-family="Helvetica,sans-Serif" font-weight="bold" font-size="11.00" fill="#000000">gymnast_has_skills</text>
<text text-anchor="start" x="605.0437" y="-333.8" font-family="Helvetica,sans-Serif" font-size="11.00" fill="#000000">[table]</text>
<polygon fill="none" stroke="#000000" points="408,-303.7 408,-325.7 542,-325.7 542,-303.7 408,-303.7"/>
<image xlink:href="../../images/primaryKeys.png" width="11px" height="12px" preserveAspectRatio="xMinYMin meet" x="413" y="-320.7"/>
<text text-anchor="start" x="428" y="-310.8" font-family="Helvetica,sans-Serif" font-size="11.00" fill="#000000">gymnast_id</text>
<polygon fill="none" stroke="#000000" points="542,-303.7 542,-325.7 640,-325.7 640,-303.7 542,-303.7"/>
<text text-anchor="start" x="545" y="-311.4" font-family="Helvetica,sans-Serif" font-size="11.00" fill="#000000">int[10]</text>
<polygon fill="none" stroke="#000000" points="408,-281.7 408,-303.7 542,-303.7 542,-281.7 408,-281.7"/>
<image xlink:href="../../images/primaryKeys.png" width="11px" height="12px" preserveAspectRatio="xMinYMin meet" x="413" y="-298.7"/>
<text text-anchor="start" x="428" y="-288.8" font-family="Helvetica,sans-Serif" font-size="11.00" fill="#000000">skills_Id</text>
<polygon fill="none" stroke="#000000" points="542,-281.7 542,-303.7 640,-303.7 640,-281.7 542,-281.7"/>
<text text-anchor="start" x="544.8429" y="-289.4" font-family="Helvetica,sans-Serif" font-size="11.00" fill="#000000">bigint unsigned[20]</text>
<polygon fill="none" stroke="#000000" points="408,-259.7 408,-281.7 542,-281.7 542,-259.7 408,-259.7"/>
<text text-anchor="start" x="428" y="-266.8" font-family="Helvetica,sans-Serif" font-size="11.00" fill="#000000">progress_status</text>
<polygon fill="none" stroke="#000000" points="542,-259.7 542,-281.7 640,-281.7 640,-259.7 542,-259.7"/>
<text text-anchor="start" x="545" y="-267.4" font-family="Helvetica,sans-Serif" font-size="11.00" fill="#000000">int[10]</text>
<polygon fill="none" stroke="#000000" points="408,-237.7 408,-259.7 542,-259.7 542,-237.7 408,-237.7"/>
<text text-anchor="start" x="428" y="-244.8" font-family="Helvetica,sans-Serif" font-size="11.00" fill="#000000">coach_verify</text>
<polygon fill="none" stroke="#000000" points="542,-237.7 542,-259.7 640,-259.7 640,-237.7 542,-237.7"/>
<text text-anchor="start" x="545" y="-245.4" font-family="Helvetica,sans-Serif" font-size="11.00" fill="#000000">json[1073741824]</text>
<polygon fill="none" stroke="#000000" points="408,-215.7 408,-237.7 542,-237.7 542,-215.7 408,-215.7"/>
<text text-anchor="start" x="428" y="-222.8" font-family="Helvetica,sans-Serif" font-size="11.00" fill="#000000">interactions</text>
<polygon fill="none" stroke="#000000" points="542,-215.7 542,-237.7 640,-237.7 640,-215.7 542,-215.7"/>
<text text-anchor="start" x="545" y="-223.4" font-family="Helvetica,sans-Serif" font-size="11.00" fill="#000000">json[1073741824]</text>
<polygon fill="none" stroke="#000000" points="408,-193.7 408,-215.7 542,-215.7 542,-193.7 408,-193.7"/>
<text text-anchor="start" x="428" y="-200.8" font-family="Helvetica,sans-Serif" font-size="11.00" fill="#000000">created_at</text>
<polygon fill="none" stroke="#000000" points="542,-193.7 542,-215.7 640,-215.7 640,-193.7 542,-193.7"/>
<text text-anchor="start" x="545" y="-201.4" font-family="Helvetica,sans-Serif" font-size="11.00" fill="#000000">timestamp[19]</text>
<polygon fill="none" stroke="#000000" points="408,-171.7 408,-193.7 542,-193.7 542,-171.7 408,-171.7"/>
<text text-anchor="start" x="428" y="-178.8" font-family="Helvetica,sans-Serif" font-size="11.00" fill="#000000">updated_at</text>
<polygon fill="none" stroke="#000000" points="542,-171.7 542,-193.7 640,-193.7 640,-171.7 542,-171.7"/>
<text text-anchor="start" x="545" y="-179.4" font-family="Helvetica,sans-Serif" font-size="11.00" fill="#000000">timestamp[19]</text>
<polygon fill="#ffffff" stroke="transparent" points="408,-152.7 408,-171.7 466,-171.7 466,-152.7 408,-152.7"/>
<polygon fill="none" stroke="#000000" points="408,-152.7 408,-171.7 466,-171.7 466,-152.7 408,-152.7"/>
<text text-anchor="start" x="411" y="-158.8" font-family="Helvetica,sans-Serif" font-size="11.00" fill="#000000">&lt; 2</text>
<polygon fill="#ffffff" stroke="transparent" points="466,-152.7 466,-171.7 542,-171.7 542,-152.7 466,-152.7"/>
<polygon fill="none" stroke="#000000" points="466,-152.7 466,-171.7 542,-171.7 542,-152.7 466,-152.7"/>
<text text-anchor="start" x="506.6105" y="-158.8" font-family="Helvetica,sans-Serif" font-size="11.00" fill="#000000">0 rows</text>
<polygon fill="#ffffff" stroke="transparent" points="542,-152.7 542,-171.7 640,-171.7 640,-152.7 542,-152.7"/>
<polygon fill="none" stroke="#000000" points="542,-152.7 542,-171.7 640,-171.7 640,-152.7 542,-152.7"/>
<text text-anchor="start" x="621.4053" y="-158.8" font-family="Helvetica,sans-Serif" font-size="11.00" fill="#000000">0 &gt;</text>
<polygon fill="none" stroke="#000000" stroke-width="2" points="407,-151.7 407,-349.7 641,-349.7 641,-151.7 407,-151.7"/>
</a>
</g>
</g>
<!-- gymnast_has_skills&#45;&gt;gymnasts -->
<g id="edge3" class="edge">
<title>gymnast_has_skills:w&#45;&gt;gymnasts:e</title>
<path fill="none" stroke="#000000" d="M393.7844,-318.0702C359.9826,-338.1077 411.5136,-440.7 357,-440.7"/>
<polygon fill="#000000" stroke="#000000" points="400.2158,-316.5455 408.8305,-318.2029 404.1079,-315.6228 408,-314.7 408,-314.7 408,-314.7 404.1079,-315.6228 407.1695,-311.1971 400.2158,-316.5455 400.2158,-316.5455"/>
<ellipse fill="none" stroke="#000000" cx="397.1021" cy="-317.2837" rx="3.2" ry="3.2"/>
</g>
<!-- skills -->
<g id="node5" class="node">
<title>skills</title>
<g id="a_node5"><a xlink:href="../../tables/skills.html" xlink:title="skills" target="_top">
<polygon fill="#ffffff" stroke="transparent" points="226,-77.2 226,-226.2 314,-226.2 314,-77.2 226,-77.2"/>
<polygon fill="#f5f5f5" stroke="transparent" points="226,-202.7 226,-225.7 314,-225.7 314,-202.7 226,-202.7"/>
<polygon fill="none" stroke="#000000" points="226,-202.7 226,-225.7 314,-225.7 314,-202.7 226,-202.7"/>
<text text-anchor="start" x="231" y="-211.8" font-family="Helvetica,sans-Serif" font-weight="bold" font-size="11.00" fill="#000000">skills</text>
<text text-anchor="start" x="279.0437" y="-210.8" font-family="Helvetica,sans-Serif" font-size="11.00" fill="#000000">[table]</text>
<polygon fill="none" stroke="#000000" points="226,-180.7 226,-202.7 314,-202.7 314,-180.7 226,-180.7"/>
<image xlink:href="../../images/primaryKeys.png" width="11px" height="12px" preserveAspectRatio="xMinYMin meet" x="231" y="-197.7"/>
<text text-anchor="start" x="246" y="-187.8" font-family="Helvetica,sans-Serif" font-size="11.00" fill="#000000">id</text>
<polygon fill="#ffffff" stroke="transparent" points="226,-158.7 226,-180.7 314,-180.7 314,-158.7 226,-158.7"/>
<polygon fill="none" stroke="#000000" points="226,-158.7 226,-180.7 314,-180.7 314,-158.7 226,-158.7"/>
<image xlink:href="../../images/foreignKeys.png" width="11px" height="12px" preserveAspectRatio="xMinYMin meet" x="231" y="-175.7"/>
<text text-anchor="start" x="246" y="-165.8" font-family="Helvetica,sans-Serif" font-size="11.00" fill="#000000">event_id</text>
<polygon fill="#ffffff" stroke="transparent" points="226,-136.7 226,-158.7 314,-158.7 314,-136.7 226,-136.7"/>
<polygon fill="none" stroke="#000000" points="226,-136.7 226,-158.7 314,-158.7 314,-136.7 226,-136.7"/>
<image xlink:href="../../images/foreignKeys.png" width="11px" height="12px" preserveAspectRatio="xMinYMin meet" x="231" y="-153.7"/>
<text text-anchor="start" x="246" y="-143.8" font-family="Helvetica,sans-Serif" font-size="11.00" fill="#000000">category_id</text>
<polygon fill="#ffffff" stroke="transparent" points="226,-114.7 226,-136.7 314,-136.7 314,-114.7 226,-114.7"/>
<polygon fill="none" stroke="#000000" points="226,-114.7 226,-136.7 314,-136.7 314,-114.7 226,-114.7"/>
<image xlink:href="../../images/foreignKeys.png" width="11px" height="12px" preserveAspectRatio="xMinYMin meet" x="231" y="-131.7"/>
<text text-anchor="start" x="246" y="-121.8" font-family="Helvetica,sans-Serif" font-size="11.00" fill="#000000">level_id</text>
<polygon fill="none" stroke="#000000" points="226,-95.7 226,-114.7 314,-114.7 314,-95.7 226,-95.7"/>
<text text-anchor="start" x="229" y="-101.8" font-family="Helvetica,sans-Serif" font-size="11.00" fill="#000000">...</text>
<polygon fill="#ffffff" stroke="transparent" points="226,-76.7 226,-95.7 251,-95.7 251,-76.7 226,-76.7"/>
<polygon fill="none" stroke="#000000" points="226,-76.7 226,-95.7 251,-95.7 251,-76.7 226,-76.7"/>
<text text-anchor="start" x="229" y="-82.8" font-family="Helvetica,sans-Serif" font-size="11.00" fill="#000000">&lt; 3</text>
<polygon fill="#ffffff" stroke="transparent" points="251,-76.7 251,-95.7 291,-95.7 291,-76.7 251,-76.7"/>
<polygon fill="none" stroke="#000000" points="251,-76.7 251,-95.7 291,-95.7 291,-76.7 251,-76.7"/>
<text text-anchor="start" x="255.6105" y="-82.8" font-family="Helvetica,sans-Serif" font-size="11.00" fill="#000000">0 rows</text>
<polygon fill="#ffffff" stroke="transparent" points="291,-76.7 291,-95.7 314,-95.7 314,-76.7 291,-76.7"/>
<polygon fill="none" stroke="#000000" points="291,-76.7 291,-95.7 314,-95.7 314,-76.7 291,-76.7"/>
<text text-anchor="start" x="295.4053" y="-82.8" font-family="Helvetica,sans-Serif" font-size="11.00" fill="#000000">2 &gt;</text>
</a>
</g>
</g>
<!-- gymnast_has_skills&#45;&gt;skills -->
<g id="edge4" class="edge">
<title>gymnast_has_skills:w&#45;&gt;skills:e</title>
<path fill="none" stroke="#000000" d="M393.5199,-290.4007C351.0987,-275.3668 369.8127,-191.7 314,-191.7"/>
<polygon fill="#000000" stroke="#000000" points="400.099,-291.4454 407.4354,-296.2555 404.0495,-292.0727 408,-292.7 408,-292.7 408,-292.7 404.0495,-292.0727 408.5646,-289.1445 400.099,-291.4454 400.099,-291.4454"/>
<ellipse fill="none" stroke="#000000" cx="396.9386" cy="-290.9435" rx="3.2" ry="3.2"/>
</g>
<!-- categories -->
<g id="node9" class="node">
<title>categories</title>
<g id="a_node9"><a xlink:href="../../tables/categories.html" xlink:title="categories" target="_top">
<polygon fill="#ffffff" stroke="transparent" points="24.5,-120.2 24.5,-181.2 117.5,-181.2 117.5,-120.2 24.5,-120.2"/>
<polygon fill="#f5f5f5" stroke="transparent" points="25,-157.7 25,-180.7 118,-180.7 118,-157.7 25,-157.7"/>
<polygon fill="none" stroke="#000000" points="25,-157.7 25,-180.7 118,-180.7 118,-157.7 25,-157.7"/>
<text text-anchor="start" x="29.6329" y="-166.8" font-family="Helvetica,sans-Serif" font-weight="bold" font-size="11.00" fill="#000000">categories</text>
<text text-anchor="start" x="83.5219" y="-165.8" font-family="Helvetica,sans-Serif" font-size="11.00" fill="#000000">[table]</text>
<polygon fill="none" stroke="#000000" points="25,-138.7 25,-157.7 118,-157.7 118,-138.7 25,-138.7"/>
<text text-anchor="start" x="28" y="-144.8" font-family="Helvetica,sans-Serif" font-size="11.00" fill="#000000">...</text>
<polygon fill="#ffffff" stroke="transparent" points="25,-119.7 25,-138.7 48,-138.7 48,-119.7 25,-119.7"/>
<polygon fill="none" stroke="#000000" points="25,-119.7 25,-138.7 48,-138.7 48,-119.7 25,-119.7"/>
<text text-anchor="start" x="28" y="-125.8" font-family="Helvetica,sans-Serif" font-size="11.00" fill="#000000"> &#160;</text>
<polygon fill="#ffffff" stroke="transparent" points="48,-119.7 48,-138.7 91,-138.7 91,-119.7 48,-119.7"/>
<polygon fill="none" stroke="#000000" points="48,-119.7 48,-138.7 91,-138.7 91,-119.7 48,-119.7"/>
<text text-anchor="start" x="55.6105" y="-125.8" font-family="Helvetica,sans-Serif" font-size="11.00" fill="#000000">0 rows</text>
<polygon fill="#ffffff" stroke="transparent" points="91,-119.7 91,-138.7 118,-138.7 118,-119.7 91,-119.7"/>
<polygon fill="none" stroke="#000000" points="91,-119.7 91,-138.7 118,-138.7 118,-119.7 91,-119.7"/>
<text text-anchor="start" x="99.4053" y="-125.8" font-family="Helvetica,sans-Serif" font-size="11.00" fill="#000000">1 &gt;</text>
</a>
</g>
</g>
<!-- skills&#45;&gt;categories -->
<g id="edge9" class="edge">
<title>skills:w&#45;&gt;categories:e</title>
<path fill="none" stroke="#000000" d="M211.4478,-147.7C174.9443,-147.7 160.75,-147.7 118,-147.7"/>
<polygon fill="#000000" stroke="#000000" points="218,-147.7001 226,-151.3 222,-147.7 226,-147.7 226,-147.7 226,-147.7 222,-147.7 226,-144.1 218,-147.7001 218,-147.7001"/>
<ellipse fill="none" stroke="#000000" cx="214.8" cy="-147.7001" rx="3.2" ry="3.2"/>
</g>
<!-- events -->
<g id="node10" class="node">
<title>events</title>
<g id="a_node10"><a xlink:href="../../tables/events.html" xlink:title="events" target="_top">
<polygon fill="#ffffff" stroke="transparent" points="31,-202.2 31,-263.2 111,-263.2 111,-202.2 31,-202.2"/>
<polygon fill="#f5f5f5" stroke="transparent" points="31,-239.7 31,-262.7 111,-262.7 111,-239.7 31,-239.7"/>
<polygon fill="none" stroke="#000000" points="31,-239.7 31,-262.7 111,-262.7 111,-239.7 31,-239.7"/>
<text text-anchor="start" x="36" y="-248.8" font-family="Helvetica,sans-Serif" font-weight="bold" font-size="11.00" fill="#000000">events</text>
<text text-anchor="start" x="76.0437" y="-247.8" font-family="Helvetica,sans-Serif" font-size="11.00" fill="#000000">[table]</text>
<polygon fill="none" stroke="#000000" points="31,-220.7 31,-239.7 111,-239.7 111,-220.7 31,-220.7"/>
<text text-anchor="start" x="34" y="-226.8" font-family="Helvetica,sans-Serif" font-size="11.00" fill="#000000">...</text>
<polygon fill="#ffffff" stroke="transparent" points="31,-201.7 31,-220.7 52,-220.7 52,-201.7 31,-201.7"/>
<polygon fill="none" stroke="#000000" points="31,-201.7 31,-220.7 52,-220.7 52,-201.7 31,-201.7"/>
<text text-anchor="start" x="33.7027" y="-207.8" font-family="Helvetica,sans-Serif" font-size="11.00" fill="#000000">&lt; 1</text>
<polygon fill="#ffffff" stroke="transparent" points="52,-201.7 52,-220.7 90,-220.7 90,-201.7 52,-201.7"/>
<polygon fill="none" stroke="#000000" points="52,-201.7 52,-220.7 90,-220.7 90,-201.7 52,-201.7"/>
<text text-anchor="start" x="54.8053" y="-207.8" font-family="Helvetica,sans-Serif" font-size="11.00" fill="#000000">0 rows</text>
<polygon fill="#ffffff" stroke="transparent" points="90,-201.7 90,-220.7 111,-220.7 111,-201.7 90,-201.7"/>
<polygon fill="none" stroke="#000000" points="90,-201.7 90,-220.7 111,-220.7 111,-201.7 90,-201.7"/>
<text text-anchor="start" x="92.7027" y="-207.8" font-family="Helvetica,sans-Serif" font-size="11.00" fill="#000000">1 &gt;</text>
</a>
</g>
</g>
<!-- skills&#45;&gt;events -->
<g id="edge10" class="edge">
<title>skills:w&#45;&gt;events:e</title>
<path fill="none" stroke="#000000" d="M211.4992,-171.124C167.9171,-180.21 163.3574,-229.7 111,-229.7"/>
<polygon fill="#000000" stroke="#000000" points="218.0383,-170.4819 226.3518,-173.2828 222.0191,-170.0909 226,-169.7 226,-169.7 226,-169.7 222.0191,-170.0909 225.6482,-166.1172 218.0383,-170.4819 218.0383,-170.4819"/>
<ellipse fill="none" stroke="#000000" cx="214.8536" cy="-170.7946" rx="3.2" ry="3.2"/>
</g>
<!-- levels -->
<g id="node11" class="node">
<title>levels</title>
<g id="a_node11"><a xlink:href="../../tables/levels.html" xlink:title="levels" target="_top">
<polygon fill="#ffffff" stroke="transparent" points="35.5,-38.2 35.5,-99.2 106.5,-99.2 106.5,-38.2 35.5,-38.2"/>
<polygon fill="#f5f5f5" stroke="transparent" points="36,-75.7 36,-98.7 107,-98.7 107,-75.7 36,-75.7"/>
<polygon fill="none" stroke="#000000" points="36,-75.7 36,-98.7 107,-98.7 107,-75.7 36,-75.7"/>
<text text-anchor="start" x="40.9442" y="-84.8" font-family="Helvetica,sans-Serif" font-weight="bold" font-size="11.00" fill="#000000">levels</text>
<text text-anchor="start" x="72.5219" y="-83.8" font-family="Helvetica,sans-Serif" font-size="11.00" fill="#000000">[table]</text>
<polygon fill="none" stroke="#000000" points="36,-56.7 36,-75.7 107,-75.7 107,-56.7 36,-56.7"/>
<text text-anchor="start" x="39" y="-62.8" font-family="Helvetica,sans-Serif" font-size="11.00" fill="#000000">...</text>
<polygon fill="#ffffff" stroke="transparent" points="36,-37.7 36,-56.7 48,-56.7 48,-37.7 36,-37.7"/>
<polygon fill="none" stroke="#000000" points="36,-37.7 36,-56.7 48,-56.7 48,-37.7 36,-37.7"/>
<text text-anchor="start" x="38.9431" y="-43.8" font-family="Helvetica,sans-Serif" font-size="11.00" fill="#000000"> &#160;</text>
<polygon fill="#ffffff" stroke="transparent" points="48,-37.7 48,-56.7 86,-56.7 86,-37.7 48,-37.7"/>
<polygon fill="none" stroke="#000000" points="48,-37.7 48,-56.7 86,-56.7 86,-37.7 48,-37.7"/>
<text text-anchor="start" x="50.8053" y="-43.8" font-family="Helvetica,sans-Serif" font-size="11.00" fill="#000000">0 rows</text>
<polygon fill="#ffffff" stroke="transparent" points="86,-37.7 86,-56.7 107,-56.7 107,-37.7 86,-37.7"/>
<polygon fill="none" stroke="#000000" points="86,-37.7 86,-56.7 107,-56.7 107,-37.7 86,-37.7"/>
<text text-anchor="start" x="88.7027" y="-43.8" font-family="Helvetica,sans-Serif" font-size="11.00" fill="#000000">1 &gt;</text>
</a>
</g>
</g>
<!-- skills&#45;&gt;levels -->
<g id="edge11" class="edge">
<title>skills:w&#45;&gt;levels:e</title>
<path fill="none" stroke="#000000" d="M211.3715,-124.3341C166.1984,-115.4031 160.9097,-65.7 107,-65.7"/>
<polygon fill="#000000" stroke="#000000" points="218.0346,-124.9562 225.6653,-129.2844 222.0173,-125.3281 226,-125.7 226,-125.7 226,-125.7 222.0173,-125.3281 226.3347,-122.1156 218.0346,-124.9562 218.0346,-124.9562"/>
<ellipse fill="none" stroke="#000000" cx="214.8485" cy="-124.6587" rx="3.2" ry="3.2"/>
</g>
<!-- gymnasts_has_classes -->
<g id="node7" class="node">
<title>gymnasts_has_classes</title>
<g id="a_node7"><a xlink:href="../../tables/gymnasts_has_classes.html" xlink:title="gymnasts_has_classes" target="_top">
<polygon fill="#ffffff" stroke="transparent" points="446,-372.2 446,-433.2 602,-433.2 602,-372.2 446,-372.2"/>
<polygon fill="#f5f5f5" stroke="transparent" points="446,-409.7 446,-432.7 602,-432.7 602,-409.7 446,-409.7"/>
<polygon fill="none" stroke="#000000" points="446,-409.7 446,-432.7 602,-432.7 602,-409.7 446,-409.7"/>
<text text-anchor="start" x="450.6531" y="-418.8" font-family="Helvetica,sans-Serif" font-weight="bold" font-size="11.00" fill="#000000">gymnasts_has_classes</text>
<text text-anchor="start" x="567.5219" y="-417.8" font-family="Helvetica,sans-Serif" font-size="11.00" fill="#000000">[table]</text>
<polygon fill="none" stroke="#000000" points="446,-390.7 446,-409.7 602,-409.7 602,-390.7 446,-390.7"/>
<text text-anchor="start" x="449" y="-396.8" font-family="Helvetica,sans-Serif" font-size="11.00" fill="#000000">...</text>
<polygon fill="#ffffff" stroke="transparent" points="446,-371.7 446,-390.7 509,-390.7 509,-371.7 446,-371.7"/>
<polygon fill="none" stroke="#000000" points="446,-371.7 446,-390.7 509,-390.7 509,-371.7 446,-371.7"/>
<text text-anchor="start" x="449" y="-377.8" font-family="Helvetica,sans-Serif" font-size="11.00" fill="#000000">&lt; 2</text>
<polygon fill="#ffffff" stroke="transparent" points="509,-371.7 509,-390.7 568,-390.7 568,-371.7 509,-371.7"/>
<polygon fill="none" stroke="#000000" points="509,-371.7 509,-390.7 568,-390.7 568,-371.7 509,-371.7"/>
<text text-anchor="start" x="532.6105" y="-377.8" font-family="Helvetica,sans-Serif" font-size="11.00" fill="#000000">0 rows</text>
<polygon fill="#ffffff" stroke="transparent" points="568,-371.7 568,-390.7 602,-390.7 602,-371.7 568,-371.7"/>
<polygon fill="none" stroke="#000000" points="568,-371.7 568,-390.7 602,-390.7 602,-371.7 568,-371.7"/>
<text text-anchor="start" x="592.8862" y="-377.8" font-family="Helvetica,sans-Serif" font-size="11.00" fill="#000000"> &#160;</text>
</a>
</g>
</g>
<!-- gymnasts_has_classes&#45;&gt;gymnasts -->
<g id="edge7" class="edge">
<title>gymnasts_has_classes:w&#45;&gt;gymnasts:e</title>
<path fill="none" stroke="#000000" d="M431.4581,-401.4617C401.3237,-409.3094 395.1071,-440.7 357,-440.7"/>
<polygon fill="#000000" stroke="#000000" points="438.0581,-400.6622 446.433,-403.2739 442.029,-400.1811 446,-399.7 446,-399.7 446,-399.7 442.029,-400.1811 445.567,-396.1261 438.0581,-400.6622 438.0581,-400.6622"/>
<ellipse fill="none" stroke="#000000" cx="434.8813" cy="-401.0471" rx="3.2" ry="3.2"/>
</g>
<!-- skill_lists_has_skills -->
<g id="node8" class="node">
<title>skill_lists_has_skills</title>
<g id="a_node8"><a xlink:href="../../tables/skill_lists_has_skills.html" xlink:title="skill_lists_has_skills" target="_top">
<polygon fill="#ffffff" stroke="transparent" points="454,-68.2 454,-129.2 594,-129.2 594,-68.2 454,-68.2"/>
<polygon fill="#f5f5f5" stroke="transparent" points="454,-105.7 454,-128.7 594,-128.7 594,-105.7 454,-105.7"/>
<polygon fill="none" stroke="#000000" points="454,-105.7 454,-128.7 594,-128.7 594,-105.7 454,-105.7"/>
<text text-anchor="start" x="458.9207" y="-114.8" font-family="Helvetica,sans-Serif" font-weight="bold" font-size="11.00" fill="#000000">skill_lists_has_skills</text>
<text text-anchor="start" x="559.5219" y="-113.8" font-family="Helvetica,sans-Serif" font-size="11.00" fill="#000000">[table]</text>
<polygon fill="none" stroke="#000000" points="454,-86.7 454,-105.7 594,-105.7 594,-86.7 454,-86.7"/>
<text text-anchor="start" x="457" y="-92.8" font-family="Helvetica,sans-Serif" font-size="11.00" fill="#000000">...</text>
<polygon fill="#ffffff" stroke="transparent" points="454,-67.7 454,-86.7 509,-86.7 509,-67.7 454,-67.7"/>
<polygon fill="none" stroke="#000000" points="454,-67.7 454,-86.7 509,-86.7 509,-67.7 454,-67.7"/>
<text text-anchor="start" x="457" y="-73.8" font-family="Helvetica,sans-Serif" font-size="11.00" fill="#000000">&lt; 2</text>
<polygon fill="#ffffff" stroke="transparent" points="509,-67.7 509,-86.7 564,-86.7 564,-67.7 509,-67.7"/>
<polygon fill="none" stroke="#000000" points="509,-67.7 509,-86.7 564,-86.7 564,-67.7 509,-67.7"/>
<text text-anchor="start" x="528.6105" y="-73.8" font-family="Helvetica,sans-Serif" font-size="11.00" fill="#000000">0 rows</text>
<polygon fill="#ffffff" stroke="transparent" points="564,-67.7 564,-86.7 594,-86.7 594,-67.7 564,-67.7"/>
<polygon fill="none" stroke="#000000" points="564,-67.7 564,-86.7 594,-86.7 594,-67.7 564,-67.7"/>
<text text-anchor="start" x="584.8862" y="-73.8" font-family="Helvetica,sans-Serif" font-size="11.00" fill="#000000"> &#160;</text>
</a>
</g>
</g>
<!-- skill_lists_has_skills&#45;&gt;skills -->
<g id="edge8" class="edge">
<title>skill_lists_has_skills:w&#45;&gt;skills:e</title>
<path fill="none" stroke="#000000" d="M439.3062,-97.0571C379.6591,-108.7254 384.1409,-191.7 314,-191.7"/>
<polygon fill="#000000" stroke="#000000" points="446.0339,-96.4358 454.3311,-99.2847 450.017,-96.0679 454,-95.7 454,-95.7 454,-95.7 450.017,-96.0679 453.6689,-92.1153 446.0339,-96.4358 446.0339,-96.4358"/>
<ellipse fill="none" stroke="#000000" cx="442.8475" cy="-96.7301" rx="3.2" ry="3.2"/>
</g>
</g>
</svg>
