<?xml version="1.0" encoding="UTF-8" standalone="no"?>
<!DOCTYPE svg PUBLIC "-//W3C//DTD SVG 1.1//EN"
 "http://www.w3.org/Graphics/SVG/1.1/DTD/svg11.dtd">
<!-- Generated by graphviz version 2.40.1 (20161225.0304)
 -->
<!-- Title: twoDegreesRelationshipsDiagram Pages: 1 -->
<svg width="883pt" height="393pt"
 viewBox="0.00 0.00 883.00 392.70" xmlns="http://www.w3.org/2000/svg" xmlns:xlink="http://www.w3.org/1999/xlink">
<g id="graph0" class="graph" transform="scale(1 1) rotate(0) translate(4 388.7)">
<title>twoDegreesRelationshipsDiagram</title>
<polygon fill="#ffffff" stroke="transparent" points="-4,4 -4,-388.7 879,-388.7 879,4 -4,4"/>
<text text-anchor="middle" x="72.4936" y="-7.3" font-family="Helvetica,sans-Serif" font-size="11.00" fill="#000000">Generated by SchemaSpy</text>
<!-- challenges -->
<g id="node1" class="node">
<title>challenges</title>
<g id="a_node1"><a xlink:href="../../tables/challenges.html" xlink:title="challenges" target="_top">
<polygon fill="#ffffff" stroke="transparent" points="292.5,-261.7 292.5,-322.7 387.5,-322.7 387.5,-261.7 292.5,-261.7"/>
<polygon fill="#f5f5f5" stroke="transparent" points="293,-299.2 293,-322.2 388,-322.2 388,-299.2 293,-299.2"/>
<polygon fill="none" stroke="#000000" points="293,-299.2 293,-322.2 388,-322.2 388,-299.2 293,-299.2"/>
<text text-anchor="start" x="297.7144" y="-308.3" font-family="Helvetica,sans-Serif" font-weight="bold" font-size="11.00" fill="#000000">challenges</text>
<text text-anchor="start" x="353.5219" y="-307.3" font-family="Helvetica,sans-Serif" font-size="11.00" fill="#000000">[table]</text>
<polygon fill="none" stroke="#000000" points="293,-280.2 293,-299.2 388,-299.2 388,-280.2 293,-280.2"/>
<text text-anchor="start" x="296" y="-286.3" font-family="Helvetica,sans-Serif" font-size="11.00" fill="#000000">...</text>
<polygon fill="#ffffff" stroke="transparent" points="293,-261.2 293,-280.2 321,-280.2 321,-261.2 293,-261.2"/>
<polygon fill="none" stroke="#000000" points="293,-261.2 293,-280.2 321,-280.2 321,-261.2 293,-261.2"/>
<text text-anchor="start" x="296" y="-267.3" font-family="Helvetica,sans-Serif" font-size="11.00" fill="#000000">&lt; 2</text>
<polygon fill="#ffffff" stroke="transparent" points="321,-261.2 321,-280.2 363,-280.2 363,-261.2 321,-261.2"/>
<polygon fill="none" stroke="#000000" points="321,-261.2 321,-280.2 363,-280.2 363,-261.2 321,-261.2"/>
<text text-anchor="start" x="327.6105" y="-267.3" font-family="Helvetica,sans-Serif" font-size="11.00" fill="#000000">0 rows</text>
<polygon fill="#ffffff" stroke="transparent" points="363,-261.2 363,-280.2 388,-280.2 388,-261.2 363,-261.2"/>
<polygon fill="none" stroke="#000000" points="363,-261.2 363,-280.2 388,-280.2 388,-261.2 363,-261.2"/>
<text text-anchor="start" x="369.4053" y="-267.3" font-family="Helvetica,sans-Serif" font-size="11.00" fill="#000000">2 &gt;</text>
</a>
</g>
</g>
<!-- classes -->
<g id="node2" class="node">
<title>classes</title>
<g id="a_node2"><a xlink:href="../../tables/classes.html" xlink:title="classes" target="_top">
<polygon fill="#ffffff" stroke="transparent" points="143,-192.7 143,-297.7 228,-297.7 228,-192.7 143,-192.7"/>
<polygon fill="#f5f5f5" stroke="transparent" points="143.5,-274.2 143.5,-297.2 228.5,-297.2 228.5,-274.2 143.5,-274.2"/>
<polygon fill="none" stroke="#000000" points="143.5,-274.2 143.5,-297.2 228.5,-297.2 228.5,-274.2 143.5,-274.2"/>
<text text-anchor="start" x="148.5" y="-283.3" font-family="Helvetica,sans-Serif" font-weight="bold" font-size="11.00" fill="#000000">classes</text>
<text text-anchor="start" x="193.5437" y="-282.3" font-family="Helvetica,sans-Serif" font-size="11.00" fill="#000000">[table]</text>
<polygon fill="none" stroke="#000000" points="143.5,-252.2 143.5,-274.2 228.5,-274.2 228.5,-252.2 143.5,-252.2"/>
<image xlink:href="../../images/primaryKeys.png" width="11px" height="12px" preserveAspectRatio="xMinYMin meet" x="148.5" y="-269.2"/>
<text text-anchor="start" x="163.5" y="-259.3" font-family="Helvetica,sans-Serif" font-size="11.00" fill="#000000">id</text>
<polygon fill="#ffffff" stroke="transparent" points="143.5,-230.2 143.5,-252.2 228.5,-252.2 228.5,-230.2 143.5,-230.2"/>
<polygon fill="none" stroke="#000000" points="143.5,-230.2 143.5,-252.2 228.5,-252.2 228.5,-230.2 143.5,-230.2"/>
<image xlink:href="../../images/foreignKeys.png" width="11px" height="12px" preserveAspectRatio="xMinYMin meet" x="148.5" y="-247.2"/>
<text text-anchor="start" x="163.5" y="-237.3" font-family="Helvetica,sans-Serif" font-size="11.00" fill="#000000">skill_list_id</text>
<polygon fill="none" stroke="#000000" points="143.5,-211.2 143.5,-230.2 228.5,-230.2 228.5,-211.2 143.5,-211.2"/>
<text text-anchor="start" x="146.5" y="-217.3" font-family="Helvetica,sans-Serif" font-size="11.00" fill="#000000">...</text>
<polygon fill="#ffffff" stroke="transparent" points="143.5,-192.2 143.5,-211.2 166.5,-211.2 166.5,-192.2 143.5,-192.2"/>
<polygon fill="none" stroke="#000000" points="143.5,-192.2 143.5,-211.2 166.5,-211.2 166.5,-192.2 143.5,-192.2"/>
<text text-anchor="start" x="146.5" y="-198.3" font-family="Helvetica,sans-Serif" font-size="11.00" fill="#000000">&lt; 1</text>
<polygon fill="#ffffff" stroke="transparent" points="166.5,-192.2 166.5,-211.2 205.5,-211.2 205.5,-192.2 166.5,-192.2"/>
<polygon fill="none" stroke="#000000" points="166.5,-192.2 166.5,-211.2 205.5,-211.2 205.5,-192.2 166.5,-192.2"/>
<text text-anchor="start" x="170.1105" y="-198.3" font-family="Helvetica,sans-Serif" font-size="11.00" fill="#000000">0 rows</text>
<polygon fill="#ffffff" stroke="transparent" points="205.5,-192.2 205.5,-211.2 228.5,-211.2 228.5,-192.2 205.5,-192.2"/>
<polygon fill="none" stroke="#000000" points="205.5,-192.2 205.5,-211.2 228.5,-211.2 228.5,-192.2 205.5,-192.2"/>
<text text-anchor="start" x="209.9053" y="-198.3" font-family="Helvetica,sans-Serif" font-size="11.00" fill="#000000">4 &gt;</text>
</a>
</g>
</g>
<!-- challenges&#45;&gt;classes -->
<g id="edge1" class="edge">
<title>challenges:w&#45;&gt;classes:e</title>
<path fill="none" stroke="#000000" d="M278.745,-286.9833C260.2161,-280.6957 253.8543,-263.2 228.5,-263.2"/>
<polygon fill="#000000" stroke="#000000" points="285.095,-287.9707 292.4468,-292.7572 289.0475,-288.5853 293,-289.2 293,-289.2 293,-289.2 289.0475,-288.5853 293.5532,-285.6428 285.095,-287.9707 285.095,-287.9707"/>
<ellipse fill="none" stroke="#000000" cx="281.933" cy="-287.4789" rx="3.2" ry="3.2"/>
</g>
<!-- skill_lists -->
<g id="node3" class="node">
<title>skill_lists</title>
<g id="a_node3"><a xlink:href="../../tables/skill_lists.html" xlink:title="skill_lists" target="_top">
<polygon fill="#ffffff" stroke="transparent" points="8,-213.7 8,-274.7 94,-274.7 94,-213.7 8,-213.7"/>
<polygon fill="#f5f5f5" stroke="transparent" points="8,-251.2 8,-274.2 94,-274.2 94,-251.2 8,-251.2"/>
<polygon fill="none" stroke="#000000" points="8,-251.2 8,-274.2 94,-274.2 94,-251.2 8,-251.2"/>
<text text-anchor="start" x="12.8119" y="-260.3" font-family="Helvetica,sans-Serif" font-weight="bold" font-size="11.00" fill="#000000">skill_lists</text>
<text text-anchor="start" x="59.5219" y="-259.3" font-family="Helvetica,sans-Serif" font-size="11.00" fill="#000000">[table]</text>
<polygon fill="none" stroke="#000000" points="8,-232.2 8,-251.2 94,-251.2 94,-232.2 8,-232.2"/>
<text text-anchor="start" x="11" y="-238.3" font-family="Helvetica,sans-Serif" font-size="11.00" fill="#000000">...</text>
<polygon fill="#ffffff" stroke="transparent" points="8,-213.2 8,-232.2 32,-232.2 32,-213.2 8,-213.2"/>
<polygon fill="none" stroke="#000000" points="8,-213.2 8,-232.2 32,-232.2 32,-213.2 8,-213.2"/>
<text text-anchor="start" x="11" y="-219.3" font-family="Helvetica,sans-Serif" font-size="11.00" fill="#000000">&lt; 1</text>
<polygon fill="#ffffff" stroke="transparent" points="32,-213.2 32,-232.2 71,-232.2 71,-213.2 32,-213.2"/>
<polygon fill="none" stroke="#000000" points="32,-213.2 32,-232.2 71,-232.2 71,-213.2 32,-213.2"/>
<text text-anchor="start" x="35.6105" y="-219.3" font-family="Helvetica,sans-Serif" font-size="11.00" fill="#000000">0 rows</text>
<polygon fill="#ffffff" stroke="transparent" points="71,-213.2 71,-232.2 94,-232.2 94,-213.2 71,-213.2"/>
<polygon fill="none" stroke="#000000" points="71,-213.2 71,-232.2 94,-232.2 94,-213.2 71,-213.2"/>
<text text-anchor="start" x="75.4053" y="-219.3" font-family="Helvetica,sans-Serif" font-size="11.00" fill="#000000">2 &gt;</text>
</a>
</g>
</g>
<!-- classes&#45;&gt;skill_lists -->
<g id="edge2" class="edge">
<title>classes:w&#45;&gt;skill_lists:e</title>
<path fill="none" stroke="#000000" d="M128.8428,-241.2C117.4139,-241.2 110.1563,-241.2 94,-241.2"/>
<polygon fill="#000000" stroke="#000000" points="135.5,-241.2001 143.5,-244.8 139.5,-241.2 143.5,-241.2 143.5,-241.2 143.5,-241.2 139.5,-241.2 143.5,-237.6 135.5,-241.2001 135.5,-241.2001"/>
<ellipse fill="none" stroke="#000000" cx="132.3" cy="-241.2001" rx="3.2" ry="3.2"/>
</g>
<!-- completed_daily_challenges -->
<g id="node4" class="node">
<title>completed_daily_challenges</title>
<g id="a_node4"><a xlink:href="../../tables/completed_daily_challenges.html" xlink:title="completed_daily_challenges" target="_top">
<polygon fill="#ffffff" stroke="transparent" points="680.5,-319.7 680.5,-380.7 861.5,-380.7 861.5,-319.7 680.5,-319.7"/>
<polygon fill="#f5f5f5" stroke="transparent" points="681,-357.2 681,-380.2 862,-380.2 862,-357.2 681,-357.2"/>
<polygon fill="none" stroke="#000000" points="681,-357.2 681,-380.2 862,-380.2 862,-357.2 681,-357.2"/>
<text text-anchor="start" x="685.9266" y="-366.3" font-family="Helvetica,sans-Serif" font-weight="bold" font-size="11.00" fill="#000000">completed_daily_challenges</text>
<text text-anchor="start" x="827.5219" y="-365.3" font-family="Helvetica,sans-Serif" font-size="11.00" fill="#000000">[table]</text>
<polygon fill="none" stroke="#000000" points="681,-338.2 681,-357.2 862,-357.2 862,-338.2 681,-338.2"/>
<text text-anchor="start" x="684" y="-344.3" font-family="Helvetica,sans-Serif" font-size="11.00" fill="#000000">...</text>
<polygon fill="#ffffff" stroke="transparent" points="681,-319.2 681,-338.2 757,-338.2 757,-319.2 681,-319.2"/>
<polygon fill="none" stroke="#000000" points="681,-319.2 681,-338.2 757,-338.2 757,-319.2 681,-319.2"/>
<text text-anchor="start" x="684" y="-325.3" font-family="Helvetica,sans-Serif" font-size="11.00" fill="#000000">&lt; 4</text>
<polygon fill="#ffffff" stroke="transparent" points="757,-319.2 757,-338.2 822,-338.2 822,-319.2 757,-319.2"/>
<polygon fill="none" stroke="#000000" points="757,-319.2 757,-338.2 822,-338.2 822,-319.2 757,-319.2"/>
<text text-anchor="start" x="786.6105" y="-325.3" font-family="Helvetica,sans-Serif" font-size="11.00" fill="#000000">0 rows</text>
<polygon fill="#ffffff" stroke="transparent" points="822,-319.2 822,-338.2 862,-338.2 862,-319.2 822,-319.2"/>
<polygon fill="none" stroke="#000000" points="822,-319.2 822,-338.2 862,-338.2 862,-319.2 822,-319.2"/>
<text text-anchor="start" x="852.8862" y="-325.3" font-family="Helvetica,sans-Serif" font-size="11.00" fill="#000000"> &#160;</text>
</a>
</g>
</g>
<!-- daily_challenges -->
<g id="node5" class="node">
<title>daily_challenges</title>
<g id="a_node5"><a xlink:href="../../tables/daily_challenges.html" xlink:title="daily_challenges" target="_top">
<polygon fill="#ffffff" stroke="transparent" points="477,-319.7 477,-380.7 601,-380.7 601,-319.7 477,-319.7"/>
<polygon fill="#f5f5f5" stroke="transparent" points="477,-357.2 477,-380.2 601,-380.2 601,-357.2 477,-357.2"/>
<polygon fill="none" stroke="#000000" points="477,-357.2 477,-380.2 601,-380.2 601,-357.2 477,-357.2"/>
<text text-anchor="start" x="481.8512" y="-366.3" font-family="Helvetica,sans-Serif" font-weight="bold" font-size="11.00" fill="#000000">daily_challenges</text>
<text text-anchor="start" x="566.5219" y="-365.3" font-family="Helvetica,sans-Serif" font-size="11.00" fill="#000000">[table]</text>
<polygon fill="none" stroke="#000000" points="477,-338.2 477,-357.2 601,-357.2 601,-338.2 477,-338.2"/>
<text text-anchor="start" x="480" y="-344.3" font-family="Helvetica,sans-Serif" font-size="11.00" fill="#000000">...</text>
<polygon fill="#ffffff" stroke="transparent" points="477,-319.2 477,-338.2 520,-338.2 520,-319.2 477,-319.2"/>
<polygon fill="none" stroke="#000000" points="477,-319.2 477,-338.2 520,-338.2 520,-319.2 477,-319.2"/>
<text text-anchor="start" x="480" y="-325.3" font-family="Helvetica,sans-Serif" font-size="11.00" fill="#000000">&lt; 2</text>
<polygon fill="#ffffff" stroke="transparent" points="520,-319.2 520,-338.2 569,-338.2 569,-319.2 520,-319.2"/>
<polygon fill="none" stroke="#000000" points="520,-319.2 520,-338.2 569,-338.2 569,-319.2 520,-319.2"/>
<text text-anchor="start" x="533.6105" y="-325.3" font-family="Helvetica,sans-Serif" font-size="11.00" fill="#000000">0 rows</text>
<polygon fill="#ffffff" stroke="transparent" points="569,-319.2 569,-338.2 601,-338.2 601,-319.2 569,-319.2"/>
<polygon fill="none" stroke="#000000" points="569,-319.2 569,-338.2 601,-338.2 601,-319.2 569,-319.2"/>
<text text-anchor="start" x="582.4053" y="-325.3" font-family="Helvetica,sans-Serif" font-size="11.00" fill="#000000">3 &gt;</text>
</a>
</g>
</g>
<!-- completed_daily_challenges&#45;&gt;daily_challenges -->
<g id="edge3" class="edge">
<title>completed_daily_challenges:w&#45;&gt;daily_challenges:e</title>
<path fill="none" stroke="#000000" d="M667.0935,-342.378C642.318,-334.4716 631.4167,-336.0789 601,-347.2"/>
<polygon fill="#000000" stroke="#000000" points="673.4415,-344.5791 679.8206,-350.6013 677.2207,-345.8895 681,-347.2 681,-347.2 681,-347.2 677.2207,-345.8895 682.1794,-343.7987 673.4415,-344.5791 673.4415,-344.5791"/>
<ellipse fill="none" stroke="#000000" cx="670.4181" cy="-343.5307" rx="3.2" ry="3.2"/>
</g>
<!-- completed_daily_challenges&#45;&gt;daily_challenges -->
<g id="edge4" class="edge">
<title>completed_daily_challenges:w&#45;&gt;daily_challenges:e</title>
<path fill="none" stroke="#000000" d="M666.4181,-347.2C642.1172,-347.2 631.1389,-347.2 601,-347.2"/>
<polygon fill="#000000" stroke="#000000" points="673,-347.2001 681,-350.8 677,-347.2 681,-347.2 681,-347.2 681,-347.2 677,-347.2 681,-343.6 673,-347.2001 673,-347.2001"/>
<ellipse fill="none" stroke="#000000" cx="669.8" cy="-347.2001" rx="3.2" ry="3.2"/>
</g>
<!-- completed_daily_challenges&#45;&gt;daily_challenges -->
<g id="edge5" class="edge">
<title>completed_daily_challenges:w&#45;&gt;daily_challenges:e</title>
<path fill="none" stroke="#000000" d="M667.0935,-352.022C642.318,-359.9284 631.4167,-358.3211 601,-347.2"/>
<polygon fill="#000000" stroke="#000000" points="673.4415,-349.8209 682.1794,-350.6013 677.2207,-348.5105 681,-347.2 681,-347.2 681,-347.2 677.2207,-348.5105 679.8206,-343.7987 673.4415,-349.8209 673.4415,-349.8209"/>
<ellipse fill="none" stroke="#000000" cx="670.4181" cy="-350.8693" rx="3.2" ry="3.2"/>
</g>
<!-- gymnasts -->
<g id="node6" class="node">
<title>gymnasts</title>
<g id="a_node6"><a xlink:href="../../tables/gymnasts.html" xlink:title="gymnasts" target="_top">
<polygon fill="#ffffff" stroke="transparent" points="452,-89.7 452,-216.7 626,-216.7 626,-89.7 452,-89.7"/>
<polygon fill="#f5f5f5" stroke="transparent" points="452,-193.2 452,-216.2 626,-216.2 626,-193.2 452,-193.2"/>
<polygon fill="none" stroke="#000000" points="452,-193.2 452,-216.2 626,-216.2 626,-193.2 452,-193.2"/>
<text text-anchor="start" x="457" y="-202.3" font-family="Helvetica,sans-Serif" font-weight="bold" font-size="11.00" fill="#000000">gymnasts</text>
<text text-anchor="start" x="591.0437" y="-201.3" font-family="Helvetica,sans-Serif" font-size="11.00" fill="#000000">[table]</text>
<polygon fill="none" stroke="#000000" points="452,-171.2 452,-193.2 626,-193.2 626,-171.2 452,-171.2"/>
<image xlink:href="../../images/primaryKeys.png" width="11px" height="12px" preserveAspectRatio="xMinYMin meet" x="457" y="-188.2"/>
<text text-anchor="start" x="472" y="-178.3" font-family="Helvetica,sans-Serif" font-size="11.00" fill="#000000">id</text>
<polygon fill="#ffffff" stroke="transparent" points="452,-149.2 452,-171.2 626,-171.2 626,-149.2 452,-149.2"/>
<polygon fill="none" stroke="#000000" points="452,-149.2 452,-171.2 626,-171.2 626,-149.2 452,-149.2"/>
<image xlink:href="../../images/foreignKeys.png" width="11px" height="12px" preserveAspectRatio="xMinYMin meet" x="457" y="-166.2"/>
<text text-anchor="start" x="472" y="-156.3" font-family="Helvetica,sans-Serif" font-size="11.00" fill="#000000">gyms_has_users_gyms_id</text>
<polygon fill="#ffffff" stroke="transparent" points="452,-127.2 452,-149.2 626,-149.2 626,-127.2 452,-127.2"/>
<polygon fill="none" stroke="#000000" points="452,-127.2 452,-149.2 626,-149.2 626,-127.2 452,-127.2"/>
<image xlink:href="../../images/foreignKeys.png" width="11px" height="12px" preserveAspectRatio="xMinYMin meet" x="457" y="-144.2"/>
<text text-anchor="start" x="472" y="-134.3" font-family="Helvetica,sans-Serif" font-size="11.00" fill="#000000">gyms_has_users_users_id</text>
<polygon fill="none" stroke="#000000" points="452,-108.2 452,-127.2 626,-127.2 626,-108.2 452,-108.2"/>
<text text-anchor="start" x="455" y="-114.3" font-family="Helvetica,sans-Serif" font-size="11.00" fill="#000000">...</text>
<polygon fill="#ffffff" stroke="transparent" points="452,-89.2 452,-108.2 520,-108.2 520,-89.2 452,-89.2"/>
<polygon fill="none" stroke="#000000" points="452,-89.2 452,-108.2 520,-108.2 520,-89.2 452,-89.2"/>
<text text-anchor="start" x="455" y="-95.3" font-family="Helvetica,sans-Serif" font-size="11.00" fill="#000000">&lt; 2</text>
<polygon fill="#ffffff" stroke="transparent" points="520,-89.2 520,-108.2 581,-108.2 581,-89.2 520,-89.2"/>
<polygon fill="none" stroke="#000000" points="520,-89.2 520,-108.2 581,-108.2 581,-89.2 520,-89.2"/>
<text text-anchor="start" x="545.6105" y="-95.3" font-family="Helvetica,sans-Serif" font-size="11.00" fill="#000000">0 rows</text>
<polygon fill="#ffffff" stroke="transparent" points="581,-89.2 581,-108.2 626,-108.2 626,-89.2 581,-89.2"/>
<polygon fill="none" stroke="#000000" points="581,-89.2 581,-108.2 626,-108.2 626,-89.2 581,-89.2"/>
<text text-anchor="start" x="607.4053" y="-95.3" font-family="Helvetica,sans-Serif" font-size="11.00" fill="#000000">4 &gt;</text>
</a>
</g>
</g>
<!-- completed_daily_challenges&#45;&gt;gymnasts -->
<g id="edge6" class="edge">
<title>completed_daily_challenges:w&#45;&gt;gymnasts:e</title>
<path fill="none" stroke="#000000" d="M666.5673,-344.6082C617.5098,-323.6167 697.563,-182.2 626,-182.2"/>
<polygon fill="#000000" stroke="#000000" points="673.126,-345.786 680.3637,-350.7433 677.063,-346.493 681,-347.2 681,-347.2 681,-347.2 677.063,-346.493 681.6363,-343.6567 673.126,-345.786 673.126,-345.786"/>
<ellipse fill="none" stroke="#000000" cx="669.9763" cy="-345.2204" rx="3.2" ry="3.2"/>
</g>
<!-- daily_challenges&#45;&gt;challenges -->
<g id="edge10" class="edge">
<title>daily_challenges:w&#45;&gt;challenges:e</title>
<path fill="none" stroke="#000000" d="M462.4007,-344.9972C430.3354,-334.4028 429.6809,-289.2 388,-289.2"/>
<polygon fill="#000000" stroke="#000000" points="469.0895,-346.0064 476.4629,-350.7597 473.0448,-346.6032 477,-347.2 477,-347.2 477,-347.2 473.0448,-346.6032 477.5371,-343.6403 469.0895,-346.0064 469.0895,-346.0064"/>
<ellipse fill="none" stroke="#000000" cx="465.9254" cy="-345.5289" rx="3.2" ry="3.2"/>
</g>
<!-- daily_challenges&#45;&gt;classes -->
<g id="edge11" class="edge">
<title>daily_challenges:w&#45;&gt;classes:e</title>
<path fill="none" stroke="#000000" d="M462.5397,-347.4841C380.2845,-350.7134 343.4361,-379.5308 269,-333.2 238.4851,-314.2068 264.443,-263.2 228.5,-263.2"/>
<polygon fill="#000000" stroke="#000000" points="469.0015,-347.3572 477.0708,-350.7993 473.0008,-347.2786 477,-347.2 477,-347.2 477,-347.2 473.0008,-347.2786 476.9292,-343.6007 469.0015,-347.3572 469.0015,-347.3572"/>
<ellipse fill="none" stroke="#000000" cx="465.8022" cy="-347.4201" rx="3.2" ry="3.2"/>
</g>
<!-- gyms_has_users -->
<g id="node10" class="node">
<title>gyms_has_users</title>
<g id="a_node10"><a xlink:href="../../tables/gyms_has_users.html" xlink:title="gyms_has_users" target="_top">
<polygon fill="#ffffff" stroke="transparent" points="277,-121.7 277,-182.7 403,-182.7 403,-121.7 277,-121.7"/>
<polygon fill="#f5f5f5" stroke="transparent" points="277,-159.2 277,-182.2 403,-182.2 403,-159.2 277,-159.2"/>
<polygon fill="none" stroke="#000000" points="277,-159.2 277,-182.2 403,-182.2 403,-159.2 277,-159.2"/>
<text text-anchor="start" x="281.936" y="-168.3" font-family="Helvetica,sans-Serif" font-weight="bold" font-size="11.00" fill="#000000">gyms_has_users</text>
<text text-anchor="start" x="368.5219" y="-167.3" font-family="Helvetica,sans-Serif" font-size="11.00" fill="#000000">[table]</text>
<polygon fill="none" stroke="#000000" points="277,-140.2 277,-159.2 403,-159.2 403,-140.2 277,-140.2"/>
<text text-anchor="start" x="280" y="-146.3" font-family="Helvetica,sans-Serif" font-size="11.00" fill="#000000">...</text>
<polygon fill="#ffffff" stroke="transparent" points="277,-121.2 277,-140.2 321,-140.2 321,-121.2 277,-121.2"/>
<polygon fill="none" stroke="#000000" points="277,-121.2 277,-140.2 321,-140.2 321,-121.2 277,-121.2"/>
<text text-anchor="start" x="280" y="-127.3" font-family="Helvetica,sans-Serif" font-size="11.00" fill="#000000">&lt; 2</text>
<polygon fill="#ffffff" stroke="transparent" points="321,-121.2 321,-140.2 370,-140.2 370,-121.2 321,-121.2"/>
<polygon fill="none" stroke="#000000" points="321,-121.2 321,-140.2 370,-140.2 370,-121.2 321,-121.2"/>
<text text-anchor="start" x="334.6105" y="-127.3" font-family="Helvetica,sans-Serif" font-size="11.00" fill="#000000">0 rows</text>
<polygon fill="#ffffff" stroke="transparent" points="370,-121.2 370,-140.2 403,-140.2 403,-121.2 370,-121.2"/>
<polygon fill="none" stroke="#000000" points="370,-121.2 370,-140.2 403,-140.2 403,-121.2 370,-121.2"/>
<text text-anchor="start" x="384.4053" y="-127.3" font-family="Helvetica,sans-Serif" font-size="11.00" fill="#000000">2 &gt;</text>
</a>
</g>
</g>
<!-- gymnasts&#45;&gt;gyms_has_users -->
<g id="edge13" class="edge">
<title>gymnasts:w&#45;&gt;gyms_has_users:e</title>
<path fill="none" stroke="#000000" d="M437.7027,-158.3836C426.2382,-155.2593 419.5655,-149.2 403,-149.2"/>
<polygon fill="#000000" stroke="#000000" points="444.0638,-159.1917 451.5463,-163.7713 448.0319,-159.6958 452,-160.2 452,-160.2 452,-160.2 448.0319,-159.6958 452.4537,-156.6287 444.0638,-159.1917 444.0638,-159.1917"/>
<ellipse fill="none" stroke="#000000" cx="440.8893" cy="-158.7884" rx="3.2" ry="3.2"/>
</g>
<!-- gymnasts&#45;&gt;gyms_has_users -->
<g id="edge14" class="edge">
<title>gymnasts:w&#45;&gt;gyms_has_users:e</title>
<path fill="none" stroke="#000000" d="M437.7027,-140.0164C426.2382,-143.1407 419.5655,-149.2 403,-149.2"/>
<polygon fill="#000000" stroke="#000000" points="444.0638,-139.2083 452.4537,-141.7713 448.0319,-138.7042 452,-138.2 452,-138.2 452,-138.2 448.0319,-138.7042 451.5463,-134.6287 444.0638,-139.2083 444.0638,-139.2083"/>
<ellipse fill="none" stroke="#000000" cx="440.8893" cy="-139.6116" rx="3.2" ry="3.2"/>
</g>
<!-- completed_normal_challenges -->
<g id="node7" class="node">
<title>completed_normal_challenges</title>
<g id="a_node7"><a xlink:href="../../tables/completed_normal_challenges.html" xlink:title="completed_normal_challenges" target="_top">
<polygon fill="#ffffff" stroke="transparent" points="675,-237.7 675,-298.7 867,-298.7 867,-237.7 675,-237.7"/>
<polygon fill="#f5f5f5" stroke="transparent" points="675,-275.2 675,-298.2 867,-298.2 867,-275.2 675,-275.2"/>
<polygon fill="none" stroke="#000000" points="675,-275.2 675,-298.2 867,-298.2 867,-275.2 675,-275.2"/>
<text text-anchor="start" x="679.9277" y="-284.3" font-family="Helvetica,sans-Serif" font-weight="bold" font-size="11.00" fill="#000000">completed_normal_challenges</text>
<text text-anchor="start" x="832.5219" y="-283.3" font-family="Helvetica,sans-Serif" font-size="11.00" fill="#000000">[table]</text>
<polygon fill="none" stroke="#000000" points="675,-256.2 675,-275.2 867,-275.2 867,-256.2 675,-256.2"/>
<text text-anchor="start" x="678" y="-262.3" font-family="Helvetica,sans-Serif" font-size="11.00" fill="#000000">...</text>
<polygon fill="#ffffff" stroke="transparent" points="675,-237.2 675,-256.2 756,-256.2 756,-237.2 675,-237.2"/>
<polygon fill="none" stroke="#000000" points="675,-237.2 675,-256.2 756,-256.2 756,-237.2 675,-237.2"/>
<text text-anchor="start" x="678" y="-243.3" font-family="Helvetica,sans-Serif" font-size="11.00" fill="#000000">&lt; 3</text>
<polygon fill="#ffffff" stroke="transparent" points="756,-237.2 756,-256.2 824,-256.2 824,-237.2 756,-237.2"/>
<polygon fill="none" stroke="#000000" points="756,-237.2 756,-256.2 824,-256.2 824,-237.2 756,-237.2"/>
<text text-anchor="start" x="788.6105" y="-243.3" font-family="Helvetica,sans-Serif" font-size="11.00" fill="#000000">0 rows</text>
<polygon fill="#ffffff" stroke="transparent" points="824,-237.2 824,-256.2 867,-256.2 867,-237.2 824,-237.2"/>
<polygon fill="none" stroke="#000000" points="824,-237.2 824,-256.2 867,-256.2 867,-237.2 824,-237.2"/>
<text text-anchor="start" x="857.8862" y="-243.3" font-family="Helvetica,sans-Serif" font-size="11.00" fill="#000000"> &#160;</text>
</a>
</g>
</g>
<!-- completed_normal_challenges&#45;&gt;gymnasts -->
<g id="edge7" class="edge">
<title>completed_normal_challenges:w&#45;&gt;gymnasts:e</title>
<path fill="none" stroke="#000000" d="M661.2028,-260.7376C640.9049,-243.4976 662.8136,-182.2 626,-182.2"/>
<polygon fill="#000000" stroke="#000000" points="667.3882,-262.7381 673.8921,-268.6253 671.1941,-263.969 675,-265.2 675,-265.2 675,-265.2 671.1941,-263.969 676.1079,-261.7747 667.3882,-262.7381 667.3882,-262.7381"/>
<ellipse fill="none" stroke="#000000" cx="664.3435" cy="-261.7533" rx="3.2" ry="3.2"/>
</g>
<!-- normal_challenges -->
<g id="node8" class="node">
<title>normal_challenges</title>
<g id="a_node8"><a xlink:href="../../tables/normal_challenges.html" xlink:title="normal_challenges" target="_top">
<polygon fill="#ffffff" stroke="transparent" points="471.5,-237.7 471.5,-298.7 606.5,-298.7 606.5,-237.7 471.5,-237.7"/>
<polygon fill="#f5f5f5" stroke="transparent" points="472,-275.2 472,-298.2 607,-298.2 607,-275.2 472,-275.2"/>
<polygon fill="none" stroke="#000000" points="472,-275.2 472,-298.2 607,-298.2 607,-275.2 472,-275.2"/>
<text text-anchor="start" x="476.8523" y="-284.3" font-family="Helvetica,sans-Serif" font-weight="bold" font-size="11.00" fill="#000000">normal_challenges</text>
<text text-anchor="start" x="572.5219" y="-283.3" font-family="Helvetica,sans-Serif" font-size="11.00" fill="#000000">[table]</text>
<polygon fill="none" stroke="#000000" points="472,-256.2 472,-275.2 607,-275.2 607,-256.2 472,-256.2"/>
<text text-anchor="start" x="475" y="-262.3" font-family="Helvetica,sans-Serif" font-size="11.00" fill="#000000">...</text>
<polygon fill="#ffffff" stroke="transparent" points="472,-237.2 472,-256.2 520,-256.2 520,-237.2 472,-237.2"/>
<polygon fill="none" stroke="#000000" points="472,-237.2 472,-256.2 520,-256.2 520,-237.2 472,-237.2"/>
<text text-anchor="start" x="475" y="-243.3" font-family="Helvetica,sans-Serif" font-size="11.00" fill="#000000">&lt; 2</text>
<polygon fill="#ffffff" stroke="transparent" points="520,-237.2 520,-256.2 572,-256.2 572,-237.2 520,-237.2"/>
<polygon fill="none" stroke="#000000" points="520,-237.2 520,-256.2 572,-256.2 572,-237.2 520,-237.2"/>
<text text-anchor="start" x="536.6105" y="-243.3" font-family="Helvetica,sans-Serif" font-size="11.00" fill="#000000">0 rows</text>
<polygon fill="#ffffff" stroke="transparent" points="572,-237.2 572,-256.2 607,-256.2 607,-237.2 572,-237.2"/>
<polygon fill="none" stroke="#000000" points="572,-237.2 572,-256.2 607,-256.2 607,-237.2 572,-237.2"/>
<text text-anchor="start" x="588.4053" y="-243.3" font-family="Helvetica,sans-Serif" font-size="11.00" fill="#000000">2 &gt;</text>
</a>
</g>
</g>
<!-- completed_normal_challenges&#45;&gt;normal_challenges -->
<g id="edge8" class="edge">
<title>completed_normal_challenges:w&#45;&gt;normal_challenges:e</title>
<path fill="none" stroke="#000000" d="M660.6409,-262.5468C641.3306,-259.3937 631.7917,-260.2781 607,-265.2"/>
<polygon fill="#000000" stroke="#000000" points="667.1332,-263.7464 674.3459,-268.7401 671.0666,-264.4732 675,-265.2 675,-265.2 675,-265.2 671.0666,-264.4732 675.6541,-261.6599 667.1332,-263.7464 667.1332,-263.7464"/>
<ellipse fill="none" stroke="#000000" cx="663.9864" cy="-263.1649" rx="3.2" ry="3.2"/>
</g>
<!-- completed_normal_challenges&#45;&gt;normal_challenges -->
<g id="edge9" class="edge">
<title>completed_normal_challenges:w&#45;&gt;normal_challenges:e</title>
<path fill="none" stroke="#000000" d="M660.9174,-268.2425C641.4211,-271.9837 631.9097,-270.9695 607,-265.2"/>
<polygon fill="#000000" stroke="#000000" points="667.1804,-266.8895 675.7603,-268.7188 671.0902,-266.0447 675,-265.2 675,-265.2 675,-265.2 671.0902,-266.0447 674.2397,-261.6812 667.1804,-266.8895 667.1804,-266.8895"/>
<ellipse fill="none" stroke="#000000" cx="664.0526" cy="-267.5652" rx="3.2" ry="3.2"/>
</g>
<!-- normal_challenges&#45;&gt;challenges -->
<g id="edge17" class="edge">
<title>normal_challenges:w&#45;&gt;challenges:e</title>
<path fill="none" stroke="#000000" d="M457.3661,-266.4903C430.7457,-271.4754 421.3672,-289.2 388,-289.2"/>
<polygon fill="#000000" stroke="#000000" points="464.0309,-265.9027 472.3162,-268.7861 468.0155,-265.5514 472,-265.2 472,-265.2 472,-265.2 468.0155,-265.5514 471.6838,-261.6139 464.0309,-265.9027 464.0309,-265.9027"/>
<ellipse fill="none" stroke="#000000" cx="460.8433" cy="-266.1838" rx="3.2" ry="3.2"/>
</g>
<!-- normal_challenges&#45;&gt;classes -->
<g id="edge18" class="edge">
<title>normal_challenges:w&#45;&gt;classes:e</title>
<path fill="none" stroke="#000000" d="M457.4345,-264.0106C441.0198,-261.1037 433.025,-253.695 411,-251.2 348.29,-244.0961 331.4577,-242.1416 269,-251.2 250.4209,-253.8946 247.2735,-263.2 228.5,-263.2"/>
<polygon fill="#000000" stroke="#000000" points="464.0265,-264.5488 471.707,-268.7881 468.0133,-264.8744 472,-265.2 472,-265.2 472,-265.2 468.0133,-264.8744 472.293,-261.6119 464.0265,-264.5488 464.0265,-264.5488"/>
<ellipse fill="none" stroke="#000000" cx="460.8372" cy="-264.2884" rx="3.2" ry="3.2"/>
</g>
<!-- gymnast_has_skills -->
<g id="node9" class="node">
<title>gymnast_has_skills</title>
<g id="a_node9"><a xlink:href="../../tables/gymnast_has_skills.html" xlink:title="gymnast_has_skills" target="_top">
<polygon fill="#ffffff" stroke="transparent" points="702,-154.7 702,-215.7 840,-215.7 840,-154.7 702,-154.7"/>
<polygon fill="#f5f5f5" stroke="transparent" points="702,-192.2 702,-215.2 840,-215.2 840,-192.2 702,-192.2"/>
<polygon fill="none" stroke="#000000" points="702,-192.2 702,-215.2 840,-215.2 840,-192.2 702,-192.2"/>
<text text-anchor="start" x="706.8271" y="-201.3" font-family="Helvetica,sans-Serif" font-weight="bold" font-size="11.00" fill="#000000">gymnast_has_skills</text>
<text text-anchor="start" x="805.5219" y="-200.3" font-family="Helvetica,sans-Serif" font-size="11.00" fill="#000000">[table]</text>
<polygon fill="none" stroke="#000000" points="702,-173.2 702,-192.2 840,-192.2 840,-173.2 702,-173.2"/>
<text text-anchor="start" x="705" y="-179.3" font-family="Helvetica,sans-Serif" font-size="11.00" fill="#000000">...</text>
<polygon fill="#ffffff" stroke="transparent" points="702,-154.2 702,-173.2 756,-173.2 756,-154.2 702,-154.2"/>
<polygon fill="none" stroke="#000000" points="702,-154.2 702,-173.2 756,-173.2 756,-154.2 702,-154.2"/>
<text text-anchor="start" x="705" y="-160.3" font-family="Helvetica,sans-Serif" font-size="11.00" fill="#000000">&lt; 2</text>
<polygon fill="#ffffff" stroke="transparent" points="756,-154.2 756,-173.2 811,-173.2 811,-154.2 756,-154.2"/>
<polygon fill="none" stroke="#000000" points="756,-154.2 756,-173.2 811,-173.2 811,-154.2 756,-154.2"/>
<text text-anchor="start" x="775.6105" y="-160.3" font-family="Helvetica,sans-Serif" font-size="11.00" fill="#000000">0 rows</text>
<polygon fill="#ffffff" stroke="transparent" points="811,-154.2 811,-173.2 840,-173.2 840,-154.2 811,-154.2"/>
<polygon fill="none" stroke="#000000" points="811,-154.2 811,-173.2 840,-173.2 840,-154.2 811,-154.2"/>
<text text-anchor="start" x="830.8862" y="-160.3" font-family="Helvetica,sans-Serif" font-size="11.00" fill="#000000"> &#160;</text>
</a>
</g>
</g>
<!-- gymnast_has_skills&#45;&gt;gymnasts -->
<g id="edge12" class="edge">
<title>gymnast_has_skills:w&#45;&gt;gymnasts:e</title>
<path fill="none" stroke="#000000" d="M687.5121,-182.2C664.8676,-182.2 654.3681,-182.2 626,-182.2"/>
<polygon fill="#000000" stroke="#000000" points="694,-182.2001 702,-185.8 698,-182.2 702,-182.2 702,-182.2 702,-182.2 698,-182.2 702,-178.6 694,-182.2001 694,-182.2001"/>
<ellipse fill="none" stroke="#000000" cx="690.8" cy="-182.2001" rx="3.2" ry="3.2"/>
</g>
<!-- gymnasts_classes -->
<g id="node11" class="node">
<title>gymnasts_classes</title>
<g id="a_node11"><a xlink:href="../../tables/gymnasts_classes.html" xlink:title="gymnasts_classes" target="_top">
<polygon fill="#ffffff" stroke="transparent" points="680.5,-38.2 680.5,-128.2 861.5,-128.2 861.5,-38.2 680.5,-38.2"/>
<polygon fill="#f5f5f5" stroke="transparent" points="683,-103.2 683,-126.2 860,-126.2 860,-103.2 683,-103.2"/>
<polygon fill="none" stroke="#000000" points="683,-103.2 683,-126.2 860,-126.2 860,-103.2 683,-103.2"/>
<text text-anchor="start" x="688" y="-112.3" font-family="Helvetica,sans-Serif" font-weight="bold" font-size="11.00" fill="#000000">gymnasts_classes</text>
<text text-anchor="start" x="825.0437" y="-111.3" font-family="Helvetica,sans-Serif" font-size="11.00" fill="#000000">[table]</text>
<polygon fill="none" stroke="#000000" points="683,-81.2 683,-103.2 810,-103.2 810,-81.2 683,-81.2"/>
<image xlink:href="../../images/primaryKeys.png" width="11px" height="12px" preserveAspectRatio="xMinYMin meet" x="688" y="-98.2"/>
<text text-anchor="start" x="703" y="-88.3" font-family="Helvetica,sans-Serif" font-size="11.00" fill="#000000">gymnasts_id</text>
<polygon fill="none" stroke="#000000" points="810,-81.2 810,-103.2 860,-103.2 860,-81.2 810,-81.2"/>
<text text-anchor="start" x="813" y="-88.9" font-family="Helvetica,sans-Serif" font-size="11.00" fill="#000000">int[10]</text>
<polygon fill="none" stroke="#000000" points="683,-59.2 683,-81.2 810,-81.2 810,-59.2 683,-59.2"/>
<image xlink:href="../../images/primaryKeys.png" width="11px" height="12px" preserveAspectRatio="xMinYMin meet" x="688" y="-76.2"/>
<text text-anchor="start" x="703" y="-66.3" font-family="Helvetica,sans-Serif" font-size="11.00" fill="#000000">classes_id</text>
<polygon fill="none" stroke="#000000" points="810,-59.2 810,-81.2 860,-81.2 860,-59.2 810,-59.2"/>
<text text-anchor="start" x="812.6865" y="-66.9" font-family="Helvetica,sans-Serif" font-size="11.00" fill="#000000">bigint[19]</text>
<polygon fill="#ffffff" stroke="transparent" points="683,-40.2 683,-59.2 738,-59.2 738,-40.2 683,-40.2"/>
<polygon fill="none" stroke="#000000" points="683,-40.2 683,-59.2 738,-59.2 738,-40.2 683,-40.2"/>
<text text-anchor="start" x="686" y="-46.3" font-family="Helvetica,sans-Serif" font-size="11.00" fill="#000000">&lt; 2</text>
<polygon fill="#ffffff" stroke="transparent" points="738,-40.2 738,-59.2 810,-59.2 810,-40.2 738,-40.2"/>
<polygon fill="none" stroke="#000000" points="738,-40.2 738,-59.2 810,-59.2 810,-40.2 738,-40.2"/>
<text text-anchor="start" x="774.6105" y="-46.3" font-family="Helvetica,sans-Serif" font-size="11.00" fill="#000000">0 rows</text>
<polygon fill="#ffffff" stroke="transparent" points="810,-40.2 810,-59.2 860,-59.2 860,-40.2 810,-40.2"/>
<polygon fill="none" stroke="#000000" points="810,-40.2 810,-59.2 860,-59.2 860,-40.2 810,-40.2"/>
<text text-anchor="start" x="841.4053" y="-46.3" font-family="Helvetica,sans-Serif" font-size="11.00" fill="#000000">0 &gt;</text>
<polygon fill="none" stroke="#000000" stroke-width="2" points="681.5,-39.2 681.5,-127.2 860.5,-127.2 860.5,-39.2 681.5,-39.2"/>
</a>
</g>
</g>
<!-- gymnasts_classes&#45;&gt;classes -->
<g id="edge15" class="edge">
<title>gymnasts_classes:w&#45;&gt;classes:e</title>
<path fill="none" stroke="#000000" d="M668.5628,-70.0293C493.1522,-65.8929 401.2573,10.9349 269,-111.2 217.638,-158.631 298.4125,-263.2 228.5,-263.2"/>
<polygon fill="#000000" stroke="#000000" points="675.0006,-70.1053 682.9574,-73.7997 679.0003,-70.1527 683,-70.2 683,-70.2 683,-70.2 679.0003,-70.1527 683.0426,-66.6003 675.0006,-70.1053 675.0006,-70.1053"/>
<ellipse fill="none" stroke="#000000" cx="671.8008" cy="-70.0675" rx="3.2" ry="3.2"/>
</g>
<!-- gymnasts_classes&#45;&gt;gymnasts -->
<g id="edge16" class="edge">
<title>gymnasts_classes:w&#45;&gt;gymnasts:e</title>
<path fill="none" stroke="#000000" d="M668.8989,-96.0672C643.7475,-113.2938 667.429,-182.2 626,-182.2"/>
<polygon fill="#000000" stroke="#000000" points="675.2849,-94.3159 683.9522,-95.6718 679.1424,-93.2579 683,-92.2 683,-92.2 683,-92.2 679.1424,-93.2579 682.0478,-88.7282 675.2849,-94.3159 675.2849,-94.3159"/>
<ellipse fill="none" stroke="#000000" cx="672.1988" cy="-95.1622" rx="3.2" ry="3.2"/>
</g>
</g>
</svg>
