<?xml version="1.0" encoding="UTF-8" standalone="no"?>
<!DOCTYPE svg PUBLIC "-//W3C//DTD SVG 1.1//EN"
 "http://www.w3.org/Graphics/SVG/1.1/DTD/svg11.dtd">
<!-- Generated by graphviz version 2.40.1 (20161225.0304)
 -->
<!-- Title: twoDegreesRelationshipsDiagram Pages: 1 -->
<svg width="658pt" height="598pt"
 viewBox="0.00 0.00 658.00 598.20" xmlns="http://www.w3.org/2000/svg" xmlns:xlink="http://www.w3.org/1999/xlink">
<g id="graph0" class="graph" transform="scale(1 1) rotate(0) translate(4 594.2)">
<title>twoDegreesRelationshipsDiagram</title>
<polygon fill="#ffffff" stroke="transparent" points="-4,4 -4,-594.2 654,-594.2 654,4 -4,4"/>
<text text-anchor="middle" x="72.4936" y="-7.3" font-family="Helvetica,sans-Serif" font-size="11.00" fill="#000000">Generated by SchemaSpy</text>
<!-- completed_daily_challenges -->
<g id="node1" class="node">
<title>completed_daily_challenges</title>
<g id="a_node1"><a xlink:href="../../tables/completed_daily_challenges.html" xlink:title="completed_daily_challenges" target="_top">
<polygon fill="#ffffff" stroke="transparent" points="433.5,-525.2 433.5,-586.2 614.5,-586.2 614.5,-525.2 433.5,-525.2"/>
<polygon fill="#f5f5f5" stroke="transparent" points="434,-562.7 434,-585.7 615,-585.7 615,-562.7 434,-562.7"/>
<polygon fill="none" stroke="#000000" points="434,-562.7 434,-585.7 615,-585.7 615,-562.7 434,-562.7"/>
<text text-anchor="start" x="438.9266" y="-571.8" font-family="Helvetica,sans-Serif" font-weight="bold" font-size="11.00" fill="#000000">completed_daily_challenges</text>
<text text-anchor="start" x="580.5219" y="-570.8" font-family="Helvetica,sans-Serif" font-size="11.00" fill="#000000">[table]</text>
<polygon fill="none" stroke="#000000" points="434,-543.7 434,-562.7 615,-562.7 615,-543.7 434,-543.7"/>
<text text-anchor="start" x="437" y="-549.8" font-family="Helvetica,sans-Serif" font-size="11.00" fill="#000000">...</text>
<polygon fill="#ffffff" stroke="transparent" points="434,-524.7 434,-543.7 510,-543.7 510,-524.7 434,-524.7"/>
<polygon fill="none" stroke="#000000" points="434,-524.7 434,-543.7 510,-543.7 510,-524.7 434,-524.7"/>
<text text-anchor="start" x="437" y="-530.8" font-family="Helvetica,sans-Serif" font-size="11.00" fill="#000000">&lt; 4</text>
<polygon fill="#ffffff" stroke="transparent" points="510,-524.7 510,-543.7 575,-543.7 575,-524.7 510,-524.7"/>
<polygon fill="none" stroke="#000000" points="510,-524.7 510,-543.7 575,-543.7 575,-524.7 510,-524.7"/>
<text text-anchor="start" x="539.6105" y="-530.8" font-family="Helvetica,sans-Serif" font-size="11.00" fill="#000000">0 rows</text>
<polygon fill="#ffffff" stroke="transparent" points="575,-524.7 575,-543.7 615,-543.7 615,-524.7 575,-524.7"/>
<polygon fill="none" stroke="#000000" points="575,-524.7 575,-543.7 615,-543.7 615,-524.7 575,-524.7"/>
<text text-anchor="start" x="605.8862" y="-530.8" font-family="Helvetica,sans-Serif" font-size="11.00" fill="#000000"> &#160;</text>
</a>
</g>
</g>
<!-- gymnasts -->
<g id="node2" class="node">
<title>gymnasts</title>
<g id="a_node2"><a xlink:href="../../tables/gymnasts.html" xlink:title="gymnasts" target="_top">
<polygon fill="#ffffff" stroke="transparent" points="183,-337.2 183,-464.2 357,-464.2 357,-337.2 183,-337.2"/>
<polygon fill="#f5f5f5" stroke="transparent" points="183,-440.7 183,-463.7 357,-463.7 357,-440.7 183,-440.7"/>
<polygon fill="none" stroke="#000000" points="183,-440.7 183,-463.7 357,-463.7 357,-440.7 183,-440.7"/>
<text text-anchor="start" x="188" y="-449.8" font-family="Helvetica,sans-Serif" font-weight="bold" font-size="11.00" fill="#000000">gymnasts</text>
<text text-anchor="start" x="322.0437" y="-448.8" font-family="Helvetica,sans-Serif" font-size="11.00" fill="#000000">[table]</text>
<polygon fill="none" stroke="#000000" points="183,-418.7 183,-440.7 357,-440.7 357,-418.7 183,-418.7"/>
<image xlink:href="../../images/primaryKeys.png" width="11px" height="12px" preserveAspectRatio="xMinYMin meet" x="188" y="-435.7"/>
<text text-anchor="start" x="203" y="-425.8" font-family="Helvetica,sans-Serif" font-size="11.00" fill="#000000">id</text>
<polygon fill="#ffffff" stroke="transparent" points="183,-396.7 183,-418.7 357,-418.7 357,-396.7 183,-396.7"/>
<polygon fill="none" stroke="#000000" points="183,-396.7 183,-418.7 357,-418.7 357,-396.7 183,-396.7"/>
<image xlink:href="../../images/foreignKeys.png" width="11px" height="12px" preserveAspectRatio="xMinYMin meet" x="188" y="-413.7"/>
<text text-anchor="start" x="203" y="-403.8" font-family="Helvetica,sans-Serif" font-size="11.00" fill="#000000">gyms_has_users_gyms_id</text>
<polygon fill="#ffffff" stroke="transparent" points="183,-374.7 183,-396.7 357,-396.7 357,-374.7 183,-374.7"/>
<polygon fill="none" stroke="#000000" points="183,-374.7 183,-396.7 357,-396.7 357,-374.7 183,-374.7"/>
<image xlink:href="../../images/foreignKeys.png" width="11px" height="12px" preserveAspectRatio="xMinYMin meet" x="188" y="-391.7"/>
<text text-anchor="start" x="203" y="-381.8" font-family="Helvetica,sans-Serif" font-size="11.00" fill="#000000">gyms_has_users_users_id</text>
<polygon fill="none" stroke="#000000" points="183,-355.7 183,-374.7 357,-374.7 357,-355.7 183,-355.7"/>
<text text-anchor="start" x="186" y="-361.8" font-family="Helvetica,sans-Serif" font-size="11.00" fill="#000000">...</text>
<polygon fill="#ffffff" stroke="transparent" points="183,-336.7 183,-355.7 251,-355.7 251,-336.7 183,-336.7"/>
<polygon fill="none" stroke="#000000" points="183,-336.7 183,-355.7 251,-355.7 251,-336.7 183,-336.7"/>
<text text-anchor="start" x="186" y="-342.8" font-family="Helvetica,sans-Serif" font-size="11.00" fill="#000000">&lt; 2</text>
<polygon fill="#ffffff" stroke="transparent" points="251,-336.7 251,-355.7 312,-355.7 312,-336.7 251,-336.7"/>
<polygon fill="none" stroke="#000000" points="251,-336.7 251,-355.7 312,-355.7 312,-336.7 251,-336.7"/>
<text text-anchor="start" x="276.6105" y="-342.8" font-family="Helvetica,sans-Serif" font-size="11.00" fill="#000000">0 rows</text>
<polygon fill="#ffffff" stroke="transparent" points="312,-336.7 312,-355.7 357,-355.7 357,-336.7 312,-336.7"/>
<polygon fill="none" stroke="#000000" points="312,-336.7 312,-355.7 357,-355.7 357,-336.7 312,-336.7"/>
<text text-anchor="start" x="338.4053" y="-342.8" font-family="Helvetica,sans-Serif" font-size="11.00" fill="#000000">4 &gt;</text>
</a>
</g>
</g>
<!-- completed_daily_challenges&#45;&gt;gymnasts -->
<g id="edge1" class="edge">
<title>completed_daily_challenges:w&#45;&gt;gymnasts:e</title>
<path fill="none" stroke="#000000" d="M419.7847,-549.0576C410.0224,-542.6646 407.7018,-528.7629 398,-514.7 374.1823,-480.1757 398.9429,-429.7 357,-429.7"/>
<polygon fill="#000000" stroke="#000000" points="426.2504,-550.7143 433.1064,-556.1873 430.1252,-551.7071 434,-552.7 434,-552.7 434,-552.7 430.1252,-551.7071 434.8936,-549.2127 426.2504,-550.7143 426.2504,-550.7143"/>
<ellipse fill="none" stroke="#000000" cx="423.1505" cy="-549.92" rx="3.2" ry="3.2"/>
</g>
<!-- gyms_has_users -->
<g id="node6" class="node">
<title>gyms_has_users</title>
<g id="a_node6"><a xlink:href="../../tables/gyms_has_users.html" xlink:title="gyms_has_users" target="_top">
<polygon fill="#ffffff" stroke="transparent" points="8,-369.2 8,-430.2 134,-430.2 134,-369.2 8,-369.2"/>
<polygon fill="#f5f5f5" stroke="transparent" points="8,-406.7 8,-429.7 134,-429.7 134,-406.7 8,-406.7"/>
<polygon fill="none" stroke="#000000" points="8,-406.7 8,-429.7 134,-429.7 134,-406.7 8,-406.7"/>
<text text-anchor="start" x="12.9359" y="-415.8" font-family="Helvetica,sans-Serif" font-weight="bold" font-size="11.00" fill="#000000">gyms_has_users</text>
<text text-anchor="start" x="99.5219" y="-414.8" font-family="Helvetica,sans-Serif" font-size="11.00" fill="#000000">[table]</text>
<polygon fill="none" stroke="#000000" points="8,-387.7 8,-406.7 134,-406.7 134,-387.7 8,-387.7"/>
<text text-anchor="start" x="11" y="-393.8" font-family="Helvetica,sans-Serif" font-size="11.00" fill="#000000">...</text>
<polygon fill="#ffffff" stroke="transparent" points="8,-368.7 8,-387.7 52,-387.7 52,-368.7 8,-368.7"/>
<polygon fill="none" stroke="#000000" points="8,-368.7 8,-387.7 52,-387.7 52,-368.7 8,-368.7"/>
<text text-anchor="start" x="11" y="-374.8" font-family="Helvetica,sans-Serif" font-size="11.00" fill="#000000">&lt; 2</text>
<polygon fill="#ffffff" stroke="transparent" points="52,-368.7 52,-387.7 101,-387.7 101,-368.7 52,-368.7"/>
<polygon fill="none" stroke="#000000" points="52,-368.7 52,-387.7 101,-387.7 101,-368.7 52,-368.7"/>
<text text-anchor="start" x="65.6105" y="-374.8" font-family="Helvetica,sans-Serif" font-size="11.00" fill="#000000">0 rows</text>
<polygon fill="#ffffff" stroke="transparent" points="101,-368.7 101,-387.7 134,-387.7 134,-368.7 101,-368.7"/>
<polygon fill="none" stroke="#000000" points="101,-368.7 101,-387.7 134,-387.7 134,-368.7 101,-368.7"/>
<text text-anchor="start" x="115.4053" y="-374.8" font-family="Helvetica,sans-Serif" font-size="11.00" fill="#000000">2 &gt;</text>
</a>
</g>
</g>
<!-- gymnasts&#45;&gt;gyms_has_users -->
<g id="edge5" class="edge">
<title>gymnasts:w&#45;&gt;gyms_has_users:e</title>
<path fill="none" stroke="#000000" d="M168.7027,-405.8836C157.2382,-402.7593 150.5655,-396.7 134,-396.7"/>
<polygon fill="#000000" stroke="#000000" points="175.0638,-406.6917 182.5463,-411.2713 179.0319,-407.1958 183,-407.7 183,-407.7 183,-407.7 179.0319,-407.1958 183.4537,-404.1287 175.0638,-406.6917 175.0638,-406.6917"/>
<ellipse fill="none" stroke="#000000" cx="171.8893" cy="-406.2884" rx="3.2" ry="3.2"/>
</g>
<!-- gymnasts&#45;&gt;gyms_has_users -->
<g id="edge6" class="edge">
<title>gymnasts:w&#45;&gt;gyms_has_users:e</title>
<path fill="none" stroke="#000000" d="M168.7027,-387.5164C157.2382,-390.6407 150.5655,-396.7 134,-396.7"/>
<polygon fill="#000000" stroke="#000000" points="175.0638,-386.7083 183.4537,-389.2713 179.0319,-386.2042 183,-385.7 183,-385.7 183,-385.7 179.0319,-386.2042 182.5463,-382.1287 175.0638,-386.7083 175.0638,-386.7083"/>
<ellipse fill="none" stroke="#000000" cx="171.8893" cy="-387.1116" rx="3.2" ry="3.2"/>
</g>
<!-- completed_normal_challenges -->
<g id="node3" class="node">
<title>completed_normal_challenges</title>
<g id="a_node3"><a xlink:href="../../tables/completed_normal_challenges.html" xlink:title="completed_normal_challenges" target="_top">
<polygon fill="#ffffff" stroke="transparent" points="428,-443.2 428,-504.2 620,-504.2 620,-443.2 428,-443.2"/>
<polygon fill="#f5f5f5" stroke="transparent" points="428,-480.7 428,-503.7 620,-503.7 620,-480.7 428,-480.7"/>
<polygon fill="none" stroke="#000000" points="428,-480.7 428,-503.7 620,-503.7 620,-480.7 428,-480.7"/>
<text text-anchor="start" x="432.9277" y="-489.8" font-family="Helvetica,sans-Serif" font-weight="bold" font-size="11.00" fill="#000000">completed_normal_challenges</text>
<text text-anchor="start" x="585.5219" y="-488.8" font-family="Helvetica,sans-Serif" font-size="11.00" fill="#000000">[table]</text>
<polygon fill="none" stroke="#000000" points="428,-461.7 428,-480.7 620,-480.7 620,-461.7 428,-461.7"/>
<text text-anchor="start" x="431" y="-467.8" font-family="Helvetica,sans-Serif" font-size="11.00" fill="#000000">...</text>
<polygon fill="#ffffff" stroke="transparent" points="428,-442.7 428,-461.7 509,-461.7 509,-442.7 428,-442.7"/>
<polygon fill="none" stroke="#000000" points="428,-442.7 428,-461.7 509,-461.7 509,-442.7 428,-442.7"/>
<text text-anchor="start" x="431" y="-448.8" font-family="Helvetica,sans-Serif" font-size="11.00" fill="#000000">&lt; 3</text>
<polygon fill="#ffffff" stroke="transparent" points="509,-442.7 509,-461.7 577,-461.7 577,-442.7 509,-442.7"/>
<polygon fill="none" stroke="#000000" points="509,-442.7 509,-461.7 577,-461.7 577,-442.7 509,-442.7"/>
<text text-anchor="start" x="541.6105" y="-448.8" font-family="Helvetica,sans-Serif" font-size="11.00" fill="#000000">0 rows</text>
<polygon fill="#ffffff" stroke="transparent" points="577,-442.7 577,-461.7 620,-461.7 620,-442.7 577,-442.7"/>
<polygon fill="none" stroke="#000000" points="577,-442.7 577,-461.7 620,-461.7 620,-442.7 577,-442.7"/>
<text text-anchor="start" x="610.8862" y="-448.8" font-family="Helvetica,sans-Serif" font-size="11.00" fill="#000000"> &#160;</text>
</a>
</g>
</g>
<!-- completed_normal_challenges&#45;&gt;gymnasts -->
<g id="edge2" class="edge">
<title>completed_normal_challenges:w&#45;&gt;gymnasts:e</title>
<path fill="none" stroke="#000000" d="M413.7431,-468.1353C391.2439,-459.1594 387.8878,-429.7 357,-429.7"/>
<polygon fill="#000000" stroke="#000000" points="420.1264,-469.2835 427.3626,-474.2431 424.0632,-469.9918 428,-470.7 428,-470.7 428,-470.7 424.0632,-469.9918 428.6374,-467.1569 420.1264,-469.2835 420.1264,-469.2835"/>
<ellipse fill="none" stroke="#000000" cx="416.9769" cy="-468.7169" rx="3.2" ry="3.2"/>
</g>
<!-- gymnast_has_skills -->
<g id="node4" class="node">
<title>gymnast_has_skills</title>
<g id="a_node4"><a xlink:href="../../tables/gymnast_has_skills.html" xlink:title="gymnast_has_skills" target="_top">
<polygon fill="#ffffff" stroke="transparent" points="406,-161.7 406,-339.7 642,-339.7 642,-161.7 406,-161.7"/>
<polygon fill="#f5f5f5" stroke="transparent" points="408,-314.7 408,-337.7 640,-337.7 640,-314.7 408,-314.7"/>
<polygon fill="none" stroke="#000000" points="408,-314.7 408,-337.7 640,-337.7 640,-314.7 408,-314.7"/>
<text text-anchor="start" x="413" y="-323.8" font-family="Helvetica,sans-Serif" font-weight="bold" font-size="11.00" fill="#000000">gymnast_has_skills</text>
<text text-anchor="start" x="605.0437" y="-322.8" font-family="Helvetica,sans-Serif" font-size="11.00" fill="#000000">[table]</text>
<polygon fill="none" stroke="#000000" points="408,-292.7 408,-314.7 542,-314.7 542,-292.7 408,-292.7"/>
<image xlink:href="../../images/primaryKeys.png" width="11px" height="12px" preserveAspectRatio="xMinYMin meet" x="413" y="-309.7"/>
<text text-anchor="start" x="428" y="-299.8" font-family="Helvetica,sans-Serif" font-size="11.00" fill="#000000">gymnast_id</text>
<polygon fill="none" stroke="#000000" points="542,-292.7 542,-314.7 640,-314.7 640,-292.7 542,-292.7"/>
<text text-anchor="start" x="545" y="-300.4" font-family="Helvetica,sans-Serif" font-size="11.00" fill="#000000">int[10]</text>
<polygon fill="none" stroke="#000000" points="408,-270.7 408,-292.7 542,-292.7 542,-270.7 408,-270.7"/>
<image xlink:href="../../images/primaryKeys.png" width="11px" height="12px" preserveAspectRatio="xMinYMin meet" x="413" y="-287.7"/>
<text text-anchor="start" x="428" y="-277.8" font-family="Helvetica,sans-Serif" font-size="11.00" fill="#000000">skills_Id</text>
<polygon fill="none" stroke="#000000" points="542,-270.7 542,-292.7 640,-292.7 640,-270.7 542,-270.7"/>
<text text-anchor="start" x="544.8429" y="-278.4" font-family="Helvetica,sans-Serif" font-size="11.00" fill="#000000">bigint unsigned[20]</text>
<polygon fill="none" stroke="#000000" points="408,-248.7 408,-270.7 542,-270.7 542,-248.7 408,-248.7"/>
<text text-anchor="start" x="428" y="-255.8" font-family="Helvetica,sans-Serif" font-size="11.00" fill="#000000">progress_status</text>
<polygon fill="none" stroke="#000000" points="542,-248.7 542,-270.7 640,-270.7 640,-248.7 542,-248.7"/>
<text text-anchor="start" x="545" y="-256.4" font-family="Helvetica,sans-Serif" font-size="11.00" fill="#000000">varchar[45]</text>
<polygon fill="none" stroke="#000000" points="408,-226.7 408,-248.7 542,-248.7 542,-226.7 408,-226.7"/>
<text text-anchor="start" x="428" y="-233.8" font-family="Helvetica,sans-Serif" font-size="11.00" fill="#000000">coach_verify</text>
<polygon fill="none" stroke="#000000" points="542,-226.7 542,-248.7 640,-248.7 640,-226.7 542,-226.7"/>
<text text-anchor="start" x="545" y="-234.4" font-family="Helvetica,sans-Serif" font-size="11.00" fill="#000000">json[1073741824]</text>
<polygon fill="none" stroke="#000000" points="408,-204.7 408,-226.7 542,-226.7 542,-204.7 408,-204.7"/>
<text text-anchor="start" x="428" y="-211.8" font-family="Helvetica,sans-Serif" font-size="11.00" fill="#000000">timestamp</text>
<polygon fill="none" stroke="#000000" points="542,-204.7 542,-226.7 640,-226.7 640,-204.7 542,-204.7"/>
<text text-anchor="start" x="545" y="-212.4" font-family="Helvetica,sans-Serif" font-size="11.00" fill="#000000">date[10]</text>
<polygon fill="none" stroke="#000000" points="408,-182.7 408,-204.7 542,-204.7 542,-182.7 408,-182.7"/>
<text text-anchor="start" x="428" y="-189.8" font-family="Helvetica,sans-Serif" font-size="11.00" fill="#000000">interactions</text>
<polygon fill="none" stroke="#000000" points="542,-182.7 542,-204.7 640,-204.7 640,-182.7 542,-182.7"/>
<text text-anchor="start" x="545" y="-190.4" font-family="Helvetica,sans-Serif" font-size="11.00" fill="#000000">json[1073741824]</text>
<polygon fill="#ffffff" stroke="transparent" points="408,-163.7 408,-182.7 466,-182.7 466,-163.7 408,-163.7"/>
<polygon fill="none" stroke="#000000" points="408,-163.7 408,-182.7 466,-182.7 466,-163.7 408,-163.7"/>
<text text-anchor="start" x="411" y="-169.8" font-family="Helvetica,sans-Serif" font-size="11.00" fill="#000000">&lt; 2</text>
<polygon fill="#ffffff" stroke="transparent" points="466,-163.7 466,-182.7 542,-182.7 542,-163.7 466,-163.7"/>
<polygon fill="none" stroke="#000000" points="466,-163.7 466,-182.7 542,-182.7 542,-163.7 466,-163.7"/>
<text text-anchor="start" x="506.6105" y="-169.8" font-family="Helvetica,sans-Serif" font-size="11.00" fill="#000000">0 rows</text>
<polygon fill="#ffffff" stroke="transparent" points="542,-163.7 542,-182.7 640,-182.7 640,-163.7 542,-163.7"/>
<polygon fill="none" stroke="#000000" points="542,-163.7 542,-182.7 640,-182.7 640,-163.7 542,-163.7"/>
<text text-anchor="start" x="621.4053" y="-169.8" font-family="Helvetica,sans-Serif" font-size="11.00" fill="#000000">0 &gt;</text>
<polygon fill="none" stroke="#000000" stroke-width="2" points="407,-162.7 407,-338.7 641,-338.7 641,-162.7 407,-162.7"/>
</a>
</g>
</g>
<!-- gymnast_has_skills&#45;&gt;gymnasts -->
<g id="edge3" class="edge">
<title>gymnast_has_skills:w&#45;&gt;gymnasts:e</title>
<path fill="none" stroke="#000000" d="M393.7844,-307.0702C359.9826,-327.1077 411.5136,-429.7 357,-429.7"/>
<polygon fill="#000000" stroke="#000000" points="400.2158,-305.5455 408.8305,-307.2029 404.1079,-304.6228 408,-303.7 408,-303.7 408,-303.7 404.1079,-304.6228 407.1695,-300.1971 400.2158,-305.5455 400.2158,-305.5455"/>
<ellipse fill="none" stroke="#000000" cx="397.1021" cy="-306.2837" rx="3.2" ry="3.2"/>
</g>
<!-- skills -->
<g id="node5" class="node">
<title>skills</title>
<g id="a_node5"><a xlink:href="../../tables/skills.html" xlink:title="skills" target="_top">
<polygon fill="#ffffff" stroke="transparent" points="226,-77.2 226,-226.2 314,-226.2 314,-77.2 226,-77.2"/>
<polygon fill="#f5f5f5" stroke="transparent" points="226,-202.7 226,-225.7 314,-225.7 314,-202.7 226,-202.7"/>
<polygon fill="none" stroke="#000000" points="226,-202.7 226,-225.7 314,-225.7 314,-202.7 226,-202.7"/>
<text text-anchor="start" x="231" y="-211.8" font-family="Helvetica,sans-Serif" font-weight="bold" font-size="11.00" fill="#000000">skills</text>
<text text-anchor="start" x="279.0437" y="-210.8" font-family="Helvetica,sans-Serif" font-size="11.00" fill="#000000">[table]</text>
<polygon fill="none" stroke="#000000" points="226,-180.7 226,-202.7 314,-202.7 314,-180.7 226,-180.7"/>
<image xlink:href="../../images/primaryKeys.png" width="11px" height="12px" preserveAspectRatio="xMinYMin meet" x="231" y="-197.7"/>
<text text-anchor="start" x="246" y="-187.8" font-family="Helvetica,sans-Serif" font-size="11.00" fill="#000000">id</text>
<polygon fill="#ffffff" stroke="transparent" points="226,-158.7 226,-180.7 314,-180.7 314,-158.7 226,-158.7"/>
<polygon fill="none" stroke="#000000" points="226,-158.7 226,-180.7 314,-180.7 314,-158.7 226,-158.7"/>
<image xlink:href="../../images/foreignKeys.png" width="11px" height="12px" preserveAspectRatio="xMinYMin meet" x="231" y="-175.7"/>
<text text-anchor="start" x="246" y="-165.8" font-family="Helvetica,sans-Serif" font-size="11.00" fill="#000000">event_id</text>
<polygon fill="#ffffff" stroke="transparent" points="226,-136.7 226,-158.7 314,-158.7 314,-136.7 226,-136.7"/>
<polygon fill="none" stroke="#000000" points="226,-136.7 226,-158.7 314,-158.7 314,-136.7 226,-136.7"/>
<image xlink:href="../../images/foreignKeys.png" width="11px" height="12px" preserveAspectRatio="xMinYMin meet" x="231" y="-153.7"/>
<text text-anchor="start" x="246" y="-143.8" font-family="Helvetica,sans-Serif" font-size="11.00" fill="#000000">category_id</text>
<polygon fill="#ffffff" stroke="transparent" points="226,-114.7 226,-136.7 314,-136.7 314,-114.7 226,-114.7"/>
<polygon fill="none" stroke="#000000" points="226,-114.7 226,-136.7 314,-136.7 314,-114.7 226,-114.7"/>
<image xlink:href="../../images/foreignKeys.png" width="11px" height="12px" preserveAspectRatio="xMinYMin meet" x="231" y="-131.7"/>
<text text-anchor="start" x="246" y="-121.8" font-family="Helvetica,sans-Serif" font-size="11.00" fill="#000000">level_id</text>
<polygon fill="none" stroke="#000000" points="226,-95.7 226,-114.7 314,-114.7 314,-95.7 226,-95.7"/>
<text text-anchor="start" x="229" y="-101.8" font-family="Helvetica,sans-Serif" font-size="11.00" fill="#000000">...</text>
<polygon fill="#ffffff" stroke="transparent" points="226,-76.7 226,-95.7 251,-95.7 251,-76.7 226,-76.7"/>
<polygon fill="none" stroke="#000000" points="226,-76.7 226,-95.7 251,-95.7 251,-76.7 226,-76.7"/>
<text text-anchor="start" x="229" y="-82.8" font-family="Helvetica,sans-Serif" font-size="11.00" fill="#000000">&lt; 3</text>
<polygon fill="#ffffff" stroke="transparent" points="251,-76.7 251,-95.7 291,-95.7 291,-76.7 251,-76.7"/>
<polygon fill="none" stroke="#000000" points="251,-76.7 251,-95.7 291,-95.7 291,-76.7 251,-76.7"/>
<text text-anchor="start" x="255.6105" y="-82.8" font-family="Helvetica,sans-Serif" font-size="11.00" fill="#000000">0 rows</text>
<polygon fill="#ffffff" stroke="transparent" points="291,-76.7 291,-95.7 314,-95.7 314,-76.7 291,-76.7"/>
<polygon fill="none" stroke="#000000" points="291,-76.7 291,-95.7 314,-95.7 314,-76.7 291,-76.7"/>
<text text-anchor="start" x="295.4053" y="-82.8" font-family="Helvetica,sans-Serif" font-size="11.00" fill="#000000">2 &gt;</text>
</a>
</g>
</g>
<!-- gymnast_has_skills&#45;&gt;skills -->
<g id="edge4" class="edge">
<title>gymnast_has_skills:w&#45;&gt;skills:e</title>
<path fill="none" stroke="#000000" d="M393.6983,-279.4753C353.5266,-265.616 366.4169,-191.7 314,-191.7"/>
<polygon fill="#000000" stroke="#000000" points="400.0951,-280.4703 407.4466,-285.2572 404.0475,-281.0851 408,-281.7 408,-281.7 408,-281.7 404.0475,-281.0851 408.5534,-278.1428 400.0951,-280.4703 400.0951,-280.4703"/>
<ellipse fill="none" stroke="#000000" cx="396.9331" cy="-279.9784" rx="3.2" ry="3.2"/>
</g>
<!-- categories -->
<g id="node9" class="node">
<title>categories</title>
<g id="a_node9"><a xlink:href="../../tables/categories.html" xlink:title="categories" target="_top">
<polygon fill="#ffffff" stroke="transparent" points="24.5,-120.2 24.5,-181.2 117.5,-181.2 117.5,-120.2 24.5,-120.2"/>
<polygon fill="#f5f5f5" stroke="transparent" points="25,-157.7 25,-180.7 118,-180.7 118,-157.7 25,-157.7"/>
<polygon fill="none" stroke="#000000" points="25,-157.7 25,-180.7 118,-180.7 118,-157.7 25,-157.7"/>
<text text-anchor="start" x="29.6329" y="-166.8" font-family="Helvetica,sans-Serif" font-weight="bold" font-size="11.00" fill="#000000">categories</text>
<text text-anchor="start" x="83.5219" y="-165.8" font-family="Helvetica,sans-Serif" font-size="11.00" fill="#000000">[table]</text>
<polygon fill="none" stroke="#000000" points="25,-138.7 25,-157.7 118,-157.7 118,-138.7 25,-138.7"/>
<text text-anchor="start" x="28" y="-144.8" font-family="Helvetica,sans-Serif" font-size="11.00" fill="#000000">...</text>
<polygon fill="#ffffff" stroke="transparent" points="25,-119.7 25,-138.7 48,-138.7 48,-119.7 25,-119.7"/>
<polygon fill="none" stroke="#000000" points="25,-119.7 25,-138.7 48,-138.7 48,-119.7 25,-119.7"/>
<text text-anchor="start" x="28" y="-125.8" font-family="Helvetica,sans-Serif" font-size="11.00" fill="#000000"> &#160;</text>
<polygon fill="#ffffff" stroke="transparent" points="48,-119.7 48,-138.7 91,-138.7 91,-119.7 48,-119.7"/>
<polygon fill="none" stroke="#000000" points="48,-119.7 48,-138.7 91,-138.7 91,-119.7 48,-119.7"/>
<text text-anchor="start" x="55.6105" y="-125.8" font-family="Helvetica,sans-Serif" font-size="11.00" fill="#000000">0 rows</text>
<polygon fill="#ffffff" stroke="transparent" points="91,-119.7 91,-138.7 118,-138.7 118,-119.7 91,-119.7"/>
<polygon fill="none" stroke="#000000" points="91,-119.7 91,-138.7 118,-138.7 118,-119.7 91,-119.7"/>
<text text-anchor="start" x="99.4053" y="-125.8" font-family="Helvetica,sans-Serif" font-size="11.00" fill="#000000">1 &gt;</text>
</a>
</g>
</g>
<!-- skills&#45;&gt;categories -->
<g id="edge9" class="edge">
<title>skills:w&#45;&gt;categories:e</title>
<path fill="none" stroke="#000000" d="M211.4478,-147.7C174.9443,-147.7 160.75,-147.7 118,-147.7"/>
<polygon fill="#000000" stroke="#000000" points="218,-147.7001 226,-151.3 222,-147.7 226,-147.7 226,-147.7 226,-147.7 222,-147.7 226,-144.1 218,-147.7001 218,-147.7001"/>
<ellipse fill="none" stroke="#000000" cx="214.8" cy="-147.7001" rx="3.2" ry="3.2"/>
</g>
<!-- events -->
<g id="node10" class="node">
<title>events</title>
<g id="a_node10"><a xlink:href="../../tables/events.html" xlink:title="events" target="_top">
<polygon fill="#ffffff" stroke="transparent" points="31,-202.2 31,-263.2 111,-263.2 111,-202.2 31,-202.2"/>
<polygon fill="#f5f5f5" stroke="transparent" points="31,-239.7 31,-262.7 111,-262.7 111,-239.7 31,-239.7"/>
<polygon fill="none" stroke="#000000" points="31,-239.7 31,-262.7 111,-262.7 111,-239.7 31,-239.7"/>
<text text-anchor="start" x="36" y="-248.8" font-family="Helvetica,sans-Serif" font-weight="bold" font-size="11.00" fill="#000000">events</text>
<text text-anchor="start" x="76.0437" y="-247.8" font-family="Helvetica,sans-Serif" font-size="11.00" fill="#000000">[table]</text>
<polygon fill="none" stroke="#000000" points="31,-220.7 31,-239.7 111,-239.7 111,-220.7 31,-220.7"/>
<text text-anchor="start" x="34" y="-226.8" font-family="Helvetica,sans-Serif" font-size="11.00" fill="#000000">...</text>
<polygon fill="#ffffff" stroke="transparent" points="31,-201.7 31,-220.7 52,-220.7 52,-201.7 31,-201.7"/>
<polygon fill="none" stroke="#000000" points="31,-201.7 31,-220.7 52,-220.7 52,-201.7 31,-201.7"/>
<text text-anchor="start" x="33.7027" y="-207.8" font-family="Helvetica,sans-Serif" font-size="11.00" fill="#000000">&lt; 1</text>
<polygon fill="#ffffff" stroke="transparent" points="52,-201.7 52,-220.7 90,-220.7 90,-201.7 52,-201.7"/>
<polygon fill="none" stroke="#000000" points="52,-201.7 52,-220.7 90,-220.7 90,-201.7 52,-201.7"/>
<text text-anchor="start" x="54.8053" y="-207.8" font-family="Helvetica,sans-Serif" font-size="11.00" fill="#000000">0 rows</text>
<polygon fill="#ffffff" stroke="transparent" points="90,-201.7 90,-220.7 111,-220.7 111,-201.7 90,-201.7"/>
<polygon fill="none" stroke="#000000" points="90,-201.7 90,-220.7 111,-220.7 111,-201.7 90,-201.7"/>
<text text-anchor="start" x="92.7027" y="-207.8" font-family="Helvetica,sans-Serif" font-size="11.00" fill="#000000">1 &gt;</text>
</a>
</g>
</g>
<!-- skills&#45;&gt;events -->
<g id="edge10" class="edge">
<title>skills:w&#45;&gt;events:e</title>
<path fill="none" stroke="#000000" d="M211.4992,-171.124C167.9171,-180.21 163.3574,-229.7 111,-229.7"/>
<polygon fill="#000000" stroke="#000000" points="218.0383,-170.4819 226.3518,-173.2828 222.0191,-170.0909 226,-169.7 226,-169.7 226,-169.7 222.0191,-170.0909 225.6482,-166.1172 218.0383,-170.4819 218.0383,-170.4819"/>
<ellipse fill="none" stroke="#000000" cx="214.8536" cy="-170.7946" rx="3.2" ry="3.2"/>
</g>
<!-- levels -->
<g id="node11" class="node">
<title>levels</title>
<g id="a_node11"><a xlink:href="../../tables/levels.html" xlink:title="levels" target="_top">
<polygon fill="#ffffff" stroke="transparent" points="35.5,-38.2 35.5,-99.2 106.5,-99.2 106.5,-38.2 35.5,-38.2"/>
<polygon fill="#f5f5f5" stroke="transparent" points="36,-75.7 36,-98.7 107,-98.7 107,-75.7 36,-75.7"/>
<polygon fill="none" stroke="#000000" points="36,-75.7 36,-98.7 107,-98.7 107,-75.7 36,-75.7"/>
<text text-anchor="start" x="40.9442" y="-84.8" font-family="Helvetica,sans-Serif" font-weight="bold" font-size="11.00" fill="#000000">levels</text>
<text text-anchor="start" x="72.5219" y="-83.8" font-family="Helvetica,sans-Serif" font-size="11.00" fill="#000000">[table]</text>
<polygon fill="none" stroke="#000000" points="36,-56.7 36,-75.7 107,-75.7 107,-56.7 36,-56.7"/>
<text text-anchor="start" x="39" y="-62.8" font-family="Helvetica,sans-Serif" font-size="11.00" fill="#000000">...</text>
<polygon fill="#ffffff" stroke="transparent" points="36,-37.7 36,-56.7 48,-56.7 48,-37.7 36,-37.7"/>
<polygon fill="none" stroke="#000000" points="36,-37.7 36,-56.7 48,-56.7 48,-37.7 36,-37.7"/>
<text text-anchor="start" x="38.9431" y="-43.8" font-family="Helvetica,sans-Serif" font-size="11.00" fill="#000000"> &#160;</text>
<polygon fill="#ffffff" stroke="transparent" points="48,-37.7 48,-56.7 86,-56.7 86,-37.7 48,-37.7"/>
<polygon fill="none" stroke="#000000" points="48,-37.7 48,-56.7 86,-56.7 86,-37.7 48,-37.7"/>
<text text-anchor="start" x="50.8053" y="-43.8" font-family="Helvetica,sans-Serif" font-size="11.00" fill="#000000">0 rows</text>
<polygon fill="#ffffff" stroke="transparent" points="86,-37.7 86,-56.7 107,-56.7 107,-37.7 86,-37.7"/>
<polygon fill="none" stroke="#000000" points="86,-37.7 86,-56.7 107,-56.7 107,-37.7 86,-37.7"/>
<text text-anchor="start" x="88.7027" y="-43.8" font-family="Helvetica,sans-Serif" font-size="11.00" fill="#000000">1 &gt;</text>
</a>
</g>
</g>
<!-- skills&#45;&gt;levels -->
<g id="edge11" class="edge">
<title>skills:w&#45;&gt;levels:e</title>
<path fill="none" stroke="#000000" d="M211.3715,-124.3341C166.1984,-115.4031 160.9097,-65.7 107,-65.7"/>
<polygon fill="#000000" stroke="#000000" points="218.0346,-124.9562 225.6653,-129.2844 222.0173,-125.3281 226,-125.7 226,-125.7 226,-125.7 222.0173,-125.3281 226.3347,-122.1156 218.0346,-124.9562 218.0346,-124.9562"/>
<ellipse fill="none" stroke="#000000" cx="214.8485" cy="-124.6587" rx="3.2" ry="3.2"/>
</g>
<!-- gymnasts_has_classes -->
<g id="node7" class="node">
<title>gymnasts_has_classes</title>
<g id="a_node7"><a xlink:href="../../tables/gymnasts_has_classes.html" xlink:title="gymnasts_has_classes" target="_top">
<polygon fill="#ffffff" stroke="transparent" points="446,-361.2 446,-422.2 602,-422.2 602,-361.2 446,-361.2"/>
<polygon fill="#f5f5f5" stroke="transparent" points="446,-398.7 446,-421.7 602,-421.7 602,-398.7 446,-398.7"/>
<polygon fill="none" stroke="#000000" points="446,-398.7 446,-421.7 602,-421.7 602,-398.7 446,-398.7"/>
<text text-anchor="start" x="450.6531" y="-407.8" font-family="Helvetica,sans-Serif" font-weight="bold" font-size="11.00" fill="#000000">gymnasts_has_classes</text>
<text text-anchor="start" x="567.5219" y="-406.8" font-family="Helvetica,sans-Serif" font-size="11.00" fill="#000000">[table]</text>
<polygon fill="none" stroke="#000000" points="446,-379.7 446,-398.7 602,-398.7 602,-379.7 446,-379.7"/>
<text text-anchor="start" x="449" y="-385.8" font-family="Helvetica,sans-Serif" font-size="11.00" fill="#000000">...</text>
<polygon fill="#ffffff" stroke="transparent" points="446,-360.7 446,-379.7 509,-379.7 509,-360.7 446,-360.7"/>
<polygon fill="none" stroke="#000000" points="446,-360.7 446,-379.7 509,-379.7 509,-360.7 446,-360.7"/>
<text text-anchor="start" x="449" y="-366.8" font-family="Helvetica,sans-Serif" font-size="11.00" fill="#000000">&lt; 2</text>
<polygon fill="#ffffff" stroke="transparent" points="509,-360.7 509,-379.7 568,-379.7 568,-360.7 509,-360.7"/>
<polygon fill="none" stroke="#000000" points="509,-360.7 509,-379.7 568,-379.7 568,-360.7 509,-360.7"/>
<text text-anchor="start" x="532.6105" y="-366.8" font-family="Helvetica,sans-Serif" font-size="11.00" fill="#000000">0 rows</text>
<polygon fill="#ffffff" stroke="transparent" points="568,-360.7 568,-379.7 602,-379.7 602,-360.7 568,-360.7"/>
<polygon fill="none" stroke="#000000" points="568,-360.7 568,-379.7 602,-379.7 602,-360.7 568,-360.7"/>
<text text-anchor="start" x="592.8862" y="-366.8" font-family="Helvetica,sans-Serif" font-size="11.00" fill="#000000"> &#160;</text>
</a>
</g>
</g>
<!-- gymnasts_has_classes&#45;&gt;gymnasts -->
<g id="edge7" class="edge">
<title>gymnasts_has_classes:w&#45;&gt;gymnasts:e</title>
<path fill="none" stroke="#000000" d="M431.4581,-390.4617C401.3237,-398.3094 395.1071,-429.7 357,-429.7"/>
<polygon fill="#000000" stroke="#000000" points="438.0581,-389.6622 446.433,-392.2739 442.029,-389.1811 446,-388.7 446,-388.7 446,-388.7 442.029,-389.1811 445.567,-385.1261 438.0581,-389.6622 438.0581,-389.6622"/>
<ellipse fill="none" stroke="#000000" cx="434.8813" cy="-390.0471" rx="3.2" ry="3.2"/>
</g>
<!-- skill_lists_has_skills -->
<g id="node8" class="node">
<title>skill_lists_has_skills</title>
<g id="a_node8"><a xlink:href="../../tables/skill_lists_has_skills.html" xlink:title="skill_lists_has_skills" target="_top">
<polygon fill="#ffffff" stroke="transparent" points="454,-79.2 454,-140.2 594,-140.2 594,-79.2 454,-79.2"/>
<polygon fill="#f5f5f5" stroke="transparent" points="454,-116.7 454,-139.7 594,-139.7 594,-116.7 454,-116.7"/>
<polygon fill="none" stroke="#000000" points="454,-116.7 454,-139.7 594,-139.7 594,-116.7 454,-116.7"/>
<text text-anchor="start" x="458.9207" y="-125.8" font-family="Helvetica,sans-Serif" font-weight="bold" font-size="11.00" fill="#000000">skill_lists_has_skills</text>
<text text-anchor="start" x="559.5219" y="-124.8" font-family="Helvetica,sans-Serif" font-size="11.00" fill="#000000">[table]</text>
<polygon fill="none" stroke="#000000" points="454,-97.7 454,-116.7 594,-116.7 594,-97.7 454,-97.7"/>
<text text-anchor="start" x="457" y="-103.8" font-family="Helvetica,sans-Serif" font-size="11.00" fill="#000000">...</text>
<polygon fill="#ffffff" stroke="transparent" points="454,-78.7 454,-97.7 509,-97.7 509,-78.7 454,-78.7"/>
<polygon fill="none" stroke="#000000" points="454,-78.7 454,-97.7 509,-97.7 509,-78.7 454,-78.7"/>
<text text-anchor="start" x="457" y="-84.8" font-family="Helvetica,sans-Serif" font-size="11.00" fill="#000000">&lt; 2</text>
<polygon fill="#ffffff" stroke="transparent" points="509,-78.7 509,-97.7 564,-97.7 564,-78.7 509,-78.7"/>
<polygon fill="none" stroke="#000000" points="509,-78.7 509,-97.7 564,-97.7 564,-78.7 509,-78.7"/>
<text text-anchor="start" x="528.6105" y="-84.8" font-family="Helvetica,sans-Serif" font-size="11.00" fill="#000000">0 rows</text>
<polygon fill="#ffffff" stroke="transparent" points="564,-78.7 564,-97.7 594,-97.7 594,-78.7 564,-78.7"/>
<polygon fill="none" stroke="#000000" points="564,-78.7 564,-97.7 594,-97.7 594,-78.7 564,-78.7"/>
<text text-anchor="start" x="584.8862" y="-84.8" font-family="Helvetica,sans-Serif" font-size="11.00" fill="#000000"> &#160;</text>
</a>
</g>
</g>
<!-- skill_lists_has_skills&#45;&gt;skills -->
<g id="edge8" class="edge">
<title>skill_lists_has_skills:w&#45;&gt;skills:e</title>
<path fill="none" stroke="#000000" d="M439.3876,-107.9675C381.6053,-118.5413 381.5322,-191.7 314,-191.7"/>
<polygon fill="#000000" stroke="#000000" points="446.0299,-107.3914 454.3111,-110.2865 450.015,-107.0457 454,-106.7 454,-106.7 454,-106.7 450.015,-107.0457 453.6889,-103.1135 446.0299,-107.3914 446.0299,-107.3914"/>
<ellipse fill="none" stroke="#000000" cx="442.8419" cy="-107.668" rx="3.2" ry="3.2"/>
</g>
</g>
</svg>
