<?xml version="1.0" encoding="UTF-8" standalone="no"?>
<!DOCTYPE svg PUBLIC "-//W3C//DTD SVG 1.1//EN"
 "http://www.w3.org/Graphics/SVG/1.1/DTD/svg11.dtd">
<!-- Generated by graphviz version 2.40.1 (20161225.0304)
 -->
<!-- Title: oneDegreeRelationshipsDiagram Pages: 1 -->
<svg width="699pt" height="551pt"
 viewBox="0.00 0.00 699.00 550.70" xmlns="http://www.w3.org/2000/svg" xmlns:xlink="http://www.w3.org/1999/xlink">
<g id="graph0" class="graph" transform="scale(1 1) rotate(0) translate(4 546.7)">
<title>oneDegreeRelationshipsDiagram</title>
<polygon fill="#ffffff" stroke="transparent" points="-4,4 -4,-546.7 695,-546.7 695,4 -4,4"/>
<text text-anchor="middle" x="72.4936" y="-7.3" font-family="Helvetica,sans-Serif" font-size="11.00" fill="#000000">Generated by SchemaSpy</text>
<!-- completed_challenges -->
<g id="node1" class="node">
<title>completed_challenges</title>
<g id="a_node1"><a xlink:href="../../tables/completed_challenges.html" xlink:title="completed_challenges" target="_top">
<polygon fill="#ffffff" stroke="transparent" points="529,-411.7 529,-538.7 681,-538.7 681,-411.7 529,-411.7"/>
<polygon fill="#f5f5f5" stroke="transparent" points="529,-515.2 529,-538.2 681,-538.2 681,-515.2 529,-515.2"/>
<polygon fill="none" stroke="#000000" points="529,-515.2 529,-538.2 681,-538.2 681,-515.2 529,-515.2"/>
<text text-anchor="start" x="533.7899" y="-524.3" font-family="Helvetica,sans-Serif" font-weight="bold" font-size="11.00" fill="#000000">completed_challenges</text>
<text text-anchor="start" x="646.5219" y="-523.3" font-family="Helvetica,sans-Serif" font-size="11.00" fill="#000000">[table]</text>
<polygon fill="none" stroke="#000000" points="529,-493.2 529,-515.2 681,-515.2 681,-493.2 529,-493.2"/>
<image xlink:href="../../images/primaryKeys.png" width="11px" height="12px" preserveAspectRatio="xMinYMin meet" x="534" y="-510.2"/>
<text text-anchor="start" x="551" y="-500.3" font-family="Helvetica,sans-Serif" font-size="11.00" fill="#000000">id</text>
<polygon fill="#ffffff" stroke="transparent" points="529,-471.2 529,-493.2 681,-493.2 681,-471.2 529,-471.2"/>
<polygon fill="none" stroke="#000000" points="529,-471.2 529,-493.2 681,-493.2 681,-471.2 529,-471.2"/>
<image xlink:href="../../images/foreignKeys.png" width="11px" height="12px" preserveAspectRatio="xMinYMin meet" x="534" y="-488.2"/>
<text text-anchor="start" x="551" y="-478.3" font-family="Helvetica,sans-Serif" font-size="11.00" fill="#000000">gymnast_id</text>
<polygon fill="#ffffff" stroke="transparent" points="529,-449.2 529,-471.2 681,-471.2 681,-449.2 529,-449.2"/>
<polygon fill="none" stroke="#000000" points="529,-449.2 529,-471.2 681,-471.2 681,-449.2 529,-449.2"/>
<image xlink:href="../../images/foreignKeys.png" width="11px" height="12px" preserveAspectRatio="xMinYMin meet" x="534" y="-466.2"/>
<text text-anchor="start" x="551" y="-456.3" font-family="Helvetica,sans-Serif" font-size="11.00" fill="#000000">challenge_id</text>
<polygon fill="none" stroke="#000000" points="529,-430.2 529,-449.2 681,-449.2 681,-430.2 529,-430.2"/>
<text text-anchor="start" x="532" y="-436.3" font-family="Helvetica,sans-Serif" font-size="11.00" fill="#000000">...</text>
<polygon fill="#ffffff" stroke="transparent" points="529,-411.2 529,-430.2 590,-430.2 590,-411.2 529,-411.2"/>
<polygon fill="none" stroke="#000000" points="529,-411.2 529,-430.2 590,-430.2 590,-411.2 529,-411.2"/>
<text text-anchor="start" x="532" y="-417.3" font-family="Helvetica,sans-Serif" font-size="11.00" fill="#000000">&lt; 2</text>
<polygon fill="#ffffff" stroke="transparent" points="590,-411.2 590,-430.2 648,-430.2 648,-411.2 590,-411.2"/>
<polygon fill="none" stroke="#000000" points="590,-411.2 590,-430.2 648,-430.2 648,-411.2 590,-411.2"/>
<text text-anchor="start" x="612.6105" y="-417.3" font-family="Helvetica,sans-Serif" font-size="11.00" fill="#000000">0 rows</text>
<polygon fill="#ffffff" stroke="transparent" points="648,-411.2 648,-430.2 681,-430.2 681,-411.2 648,-411.2"/>
<polygon fill="none" stroke="#000000" points="648,-411.2 648,-430.2 681,-430.2 681,-411.2 648,-411.2"/>
<text text-anchor="start" x="671.8862" y="-417.3" font-family="Helvetica,sans-Serif" font-size="11.00" fill="#000000"> &#160;</text>
</a>
</g>
</g>
<!-- gymnasts -->
<g id="node2" class="node">
<title>gymnasts</title>
<g id="a_node2"><a xlink:href="../../tables/gymnasts.html" xlink:title="gymnasts" target="_top">
<polygon fill="#ffffff" stroke="transparent" points="183,-38.2 183,-392.2 478,-392.2 478,-38.2 183,-38.2"/>
<polygon fill="#f5f5f5" stroke="transparent" points="185.5,-367.2 185.5,-390.2 476.5,-390.2 476.5,-367.2 185.5,-367.2"/>
<polygon fill="none" stroke="#000000" points="185.5,-367.2 185.5,-390.2 476.5,-390.2 476.5,-367.2 185.5,-367.2"/>
<text text-anchor="start" x="190.5" y="-376.3" font-family="Helvetica,sans-Serif" font-weight="bold" font-size="11.00" fill="#000000">gymnasts</text>
<text text-anchor="start" x="441.5437" y="-375.3" font-family="Helvetica,sans-Serif" font-size="11.00" fill="#000000">[table]</text>
<polygon fill="none" stroke="#000000" points="185.5,-345.2 185.5,-367.2 359.5,-367.2 359.5,-345.2 185.5,-345.2"/>
<image xlink:href="../../images/primaryKeys.png" width="11px" height="12px" preserveAspectRatio="xMinYMin meet" x="190.5" y="-362.2"/>
<text text-anchor="start" x="205.5" y="-352.3" font-family="Helvetica,sans-Serif" font-size="11.00" fill="#000000">id</text>
<polygon fill="none" stroke="#000000" points="359.5,-345.2 359.5,-367.2 476.5,-367.2 476.5,-345.2 359.5,-345.2"/>
<text text-anchor="start" x="362.5" y="-352.9" font-family="Helvetica,sans-Serif" font-size="11.00" fill="#000000">bigint[19]</text>
<polygon fill="none" stroke="#000000" points="185.5,-323.2 185.5,-345.2 359.5,-345.2 359.5,-323.2 185.5,-323.2"/>
<text text-anchor="start" x="205.5" y="-330.3" font-family="Helvetica,sans-Serif" font-size="11.00" fill="#000000">first_name</text>
<polygon fill="none" stroke="#000000" points="359.5,-323.2 359.5,-345.2 476.5,-345.2 476.5,-323.2 359.5,-323.2"/>
<text text-anchor="start" x="362.5" y="-330.9" font-family="Helvetica,sans-Serif" font-size="11.00" fill="#000000">varchar[45]</text>
<polygon fill="none" stroke="#000000" points="185.5,-301.2 185.5,-323.2 359.5,-323.2 359.5,-301.2 185.5,-301.2"/>
<text text-anchor="start" x="205.5" y="-308.3" font-family="Helvetica,sans-Serif" font-size="11.00" fill="#000000">last_name</text>
<polygon fill="none" stroke="#000000" points="359.5,-301.2 359.5,-323.2 476.5,-323.2 476.5,-301.2 359.5,-301.2"/>
<text text-anchor="start" x="362.5" y="-308.9" font-family="Helvetica,sans-Serif" font-size="11.00" fill="#000000">varchar[45]</text>
<polygon fill="none" stroke="#000000" points="185.5,-279.2 185.5,-301.2 359.5,-301.2 359.5,-279.2 185.5,-279.2"/>
<text text-anchor="start" x="205.5" y="-286.3" font-family="Helvetica,sans-Serif" font-size="11.00" fill="#000000">birth_date</text>
<polygon fill="none" stroke="#000000" points="359.5,-279.2 359.5,-301.2 476.5,-301.2 476.5,-279.2 359.5,-279.2"/>
<text text-anchor="start" x="362.5" y="-286.9" font-family="Helvetica,sans-Serif" font-size="11.00" fill="#000000">date[10]</text>
<polygon fill="none" stroke="#000000" points="185.5,-257.2 185.5,-279.2 359.5,-279.2 359.5,-257.2 185.5,-257.2"/>
<text text-anchor="start" x="205.5" y="-264.3" font-family="Helvetica,sans-Serif" font-size="11.00" fill="#000000">life_time_score</text>
<polygon fill="none" stroke="#000000" points="359.5,-257.2 359.5,-279.2 476.5,-279.2 476.5,-257.2 359.5,-257.2"/>
<text text-anchor="start" x="362.5" y="-264.9" font-family="Helvetica,sans-Serif" font-size="11.00" fill="#000000">int[10]</text>
<polygon fill="none" stroke="#000000" points="185.5,-235.2 185.5,-257.2 359.5,-257.2 359.5,-235.2 185.5,-235.2"/>
<text text-anchor="start" x="205.5" y="-242.3" font-family="Helvetica,sans-Serif" font-size="11.00" fill="#000000">current_streak_points</text>
<polygon fill="none" stroke="#000000" points="359.5,-235.2 359.5,-257.2 476.5,-257.2 476.5,-235.2 359.5,-235.2"/>
<text text-anchor="start" x="362.5" y="-242.9" font-family="Helvetica,sans-Serif" font-size="11.00" fill="#000000">int[10]</text>
<polygon fill="none" stroke="#000000" points="185.5,-213.2 185.5,-235.2 359.5,-235.2 359.5,-213.2 185.5,-213.2"/>
<text text-anchor="start" x="205.5" y="-220.3" font-family="Helvetica,sans-Serif" font-size="11.00" fill="#000000">last_streak</text>
<polygon fill="none" stroke="#000000" points="359.5,-213.2 359.5,-235.2 476.5,-235.2 476.5,-213.2 359.5,-213.2"/>
<text text-anchor="start" x="362.5" y="-220.9" font-family="Helvetica,sans-Serif" font-size="11.00" fill="#000000">date[10]</text>
<polygon fill="none" stroke="#000000" points="185.5,-191.2 185.5,-213.2 359.5,-213.2 359.5,-191.2 185.5,-191.2"/>
<text text-anchor="start" x="205.5" y="-198.3" font-family="Helvetica,sans-Serif" font-size="11.00" fill="#000000">about</text>
<polygon fill="none" stroke="#000000" points="359.5,-191.2 359.5,-213.2 476.5,-213.2 476.5,-191.2 359.5,-191.2"/>
<text text-anchor="start" x="362.0645" y="-198.9" font-family="Helvetica,sans-Serif" font-size="11.00" fill="#000000">mediumtext[16777215]</text>
<polygon fill="none" stroke="#000000" points="185.5,-169.2 185.5,-191.2 359.5,-191.2 359.5,-169.2 185.5,-169.2"/>
<text text-anchor="start" x="205.5" y="-176.3" font-family="Helvetica,sans-Serif" font-size="11.00" fill="#000000">created</text>
<polygon fill="none" stroke="#000000" points="359.5,-169.2 359.5,-191.2 476.5,-191.2 476.5,-169.2 359.5,-169.2"/>
<text text-anchor="start" x="362.5" y="-176.9" font-family="Helvetica,sans-Serif" font-size="11.00" fill="#000000">date[10]</text>
<polygon fill="none" stroke="#000000" points="185.5,-147.2 185.5,-169.2 359.5,-169.2 359.5,-147.2 185.5,-147.2"/>
<text text-anchor="start" x="205.5" y="-154.3" font-family="Helvetica,sans-Serif" font-size="11.00" fill="#000000">updated</text>
<polygon fill="none" stroke="#000000" points="359.5,-147.2 359.5,-169.2 476.5,-169.2 476.5,-147.2 359.5,-147.2"/>
<text text-anchor="start" x="362.5" y="-154.9" font-family="Helvetica,sans-Serif" font-size="11.00" fill="#000000">date[10]</text>
<polygon fill="none" stroke="#000000" points="185.5,-125.2 185.5,-147.2 359.5,-147.2 359.5,-125.2 185.5,-125.2"/>
<text text-anchor="start" x="205.5" y="-132.3" font-family="Helvetica,sans-Serif" font-size="11.00" fill="#000000">deleted_at</text>
<polygon fill="none" stroke="#000000" points="359.5,-125.2 359.5,-147.2 476.5,-147.2 476.5,-125.2 359.5,-125.2"/>
<text text-anchor="start" x="362.5" y="-132.9" font-family="Helvetica,sans-Serif" font-size="11.00" fill="#000000">timestamp[19]</text>
<polygon fill="#ffffff" stroke="transparent" points="185.5,-103.2 185.5,-125.2 359.5,-125.2 359.5,-103.2 185.5,-103.2"/>
<polygon fill="none" stroke="#000000" points="185.5,-103.2 185.5,-125.2 359.5,-125.2 359.5,-103.2 185.5,-103.2"/>
<image xlink:href="../../images/foreignKeys.png" width="11px" height="12px" preserveAspectRatio="xMinYMin meet" x="190.5" y="-120.2"/>
<text text-anchor="start" x="205.5" y="-110.3" font-family="Helvetica,sans-Serif" font-size="11.00" fill="#000000">gyms_has_users_gyms_id</text>
<polygon fill="none" stroke="#000000" points="359.5,-103.2 359.5,-125.2 476.5,-125.2 476.5,-103.2 359.5,-103.2"/>
<text text-anchor="start" x="362.5" y="-110.9" font-family="Helvetica,sans-Serif" font-size="11.00" fill="#000000">bigint[19]</text>
<polygon fill="#ffffff" stroke="transparent" points="185.5,-81.2 185.5,-103.2 359.5,-103.2 359.5,-81.2 185.5,-81.2"/>
<polygon fill="none" stroke="#000000" points="185.5,-81.2 185.5,-103.2 359.5,-103.2 359.5,-81.2 185.5,-81.2"/>
<image xlink:href="../../images/foreignKeys.png" width="11px" height="12px" preserveAspectRatio="xMinYMin meet" x="190.5" y="-98.2"/>
<text text-anchor="start" x="205.5" y="-88.3" font-family="Helvetica,sans-Serif" font-size="11.00" fill="#000000">gyms_has_users_users_id</text>
<polygon fill="none" stroke="#000000" points="359.5,-81.2 359.5,-103.2 476.5,-103.2 476.5,-81.2 359.5,-81.2"/>
<text text-anchor="start" x="362.5" y="-88.9" font-family="Helvetica,sans-Serif" font-size="11.00" fill="#000000">int[10]</text>
<polygon fill="none" stroke="#000000" points="185.5,-59.2 185.5,-81.2 359.5,-81.2 359.5,-59.2 185.5,-59.2"/>
<text text-anchor="start" x="205.5" y="-66.3" font-family="Helvetica,sans-Serif" font-size="11.00" fill="#000000">image_profile</text>
<polygon fill="none" stroke="#000000" points="359.5,-59.2 359.5,-81.2 476.5,-81.2 476.5,-59.2 359.5,-59.2"/>
<text text-anchor="start" x="362.5" y="-66.9" font-family="Helvetica,sans-Serif" font-size="11.00" fill="#000000">varchar[100]</text>
<polygon fill="#ffffff" stroke="transparent" points="185.5,-40.2 185.5,-59.2 263.5,-59.2 263.5,-40.2 185.5,-40.2"/>
<polygon fill="none" stroke="#000000" points="185.5,-40.2 185.5,-59.2 263.5,-59.2 263.5,-40.2 185.5,-40.2"/>
<text text-anchor="start" x="188.5" y="-46.3" font-family="Helvetica,sans-Serif" font-size="11.00" fill="#000000">&lt; 2</text>
<polygon fill="#ffffff" stroke="transparent" points="263.5,-40.2 263.5,-59.2 359.5,-59.2 359.5,-40.2 263.5,-40.2"/>
<polygon fill="none" stroke="#000000" points="263.5,-40.2 263.5,-59.2 359.5,-59.2 359.5,-40.2 263.5,-40.2"/>
<text text-anchor="start" x="324.1105" y="-46.3" font-family="Helvetica,sans-Serif" font-size="11.00" fill="#000000">0 rows</text>
<polygon fill="#ffffff" stroke="transparent" points="359.5,-40.2 359.5,-59.2 476.5,-59.2 476.5,-40.2 359.5,-40.2"/>
<polygon fill="none" stroke="#000000" points="359.5,-40.2 359.5,-59.2 476.5,-59.2 476.5,-40.2 359.5,-40.2"/>
<text text-anchor="start" x="457.9053" y="-46.3" font-family="Helvetica,sans-Serif" font-size="11.00" fill="#000000">3 &gt;</text>
<polygon fill="none" stroke="#000000" stroke-width="2" points="184,-39.2 184,-391.2 477,-391.2 477,-39.2 184,-39.2"/>
</a>
</g>
</g>
<!-- completed_challenges&#45;&gt;gymnasts -->
<g id="edge1" class="edge">
<title>completed_challenges:w&#45;&gt;gymnasts:e</title>
<path fill="none" stroke="#000000" d="M514.6904,-478.8298C480.5423,-458.7923 531.2422,-356.2 476.5,-356.2"/>
<polygon fill="#000000" stroke="#000000" points="521.2131,-480.366 528.1747,-485.7041 525.1065,-481.283 529,-482.2 529,-482.2 529,-482.2 525.1065,-481.283 529.8253,-478.6959 521.2131,-480.366 521.2131,-480.366"/>
<ellipse fill="none" stroke="#000000" cx="518.0983" cy="-479.6324" rx="3.2" ry="3.2"/>
</g>
<!-- gyms_has_users -->
<g id="node4" class="node">
<title>gyms_has_users</title>
<g id="a_node4"><a xlink:href="../../tables/gyms_has_users.html" xlink:title="gyms_has_users" target="_top">
<polygon fill="#ffffff" stroke="transparent" points="8,-62.2 8,-148.2 134,-148.2 134,-62.2 8,-62.2"/>
<polygon fill="#f5f5f5" stroke="transparent" points="8,-125.2 8,-148.2 134,-148.2 134,-125.2 8,-125.2"/>
<polygon fill="none" stroke="#000000" points="8,-125.2 8,-148.2 134,-148.2 134,-125.2 8,-125.2"/>
<text text-anchor="start" x="12.9359" y="-134.3" font-family="Helvetica,sans-Serif" font-weight="bold" font-size="11.00" fill="#000000">gyms_has_users</text>
<text text-anchor="start" x="99.5219" y="-133.3" font-family="Helvetica,sans-Serif" font-size="11.00" fill="#000000">[table]</text>
<polygon fill="none" stroke="#000000" points="8,-103.2 8,-125.2 134,-125.2 134,-103.2 8,-103.2"/>
<image xlink:href="../../images/primaryKeys.png" width="11px" height="12px" preserveAspectRatio="xMinYMin meet" x="13" y="-120.2"/>
<text text-anchor="start" x="32" y="-110.3" font-family="Helvetica,sans-Serif" font-size="11.00" fill="#000000">gym_id</text>
<polygon fill="none" stroke="#000000" points="8,-81.2 8,-103.2 134,-103.2 134,-81.2 8,-81.2"/>
<image xlink:href="../../images/primaryKeys.png" width="11px" height="12px" preserveAspectRatio="xMinYMin meet" x="13" y="-98.2"/>
<text text-anchor="start" x="32" y="-88.3" font-family="Helvetica,sans-Serif" font-size="11.00" fill="#000000">user_id</text>
<polygon fill="#ffffff" stroke="transparent" points="8,-62.2 8,-81.2 52,-81.2 52,-62.2 8,-62.2"/>
<polygon fill="none" stroke="#000000" points="8,-62.2 8,-81.2 52,-81.2 52,-62.2 8,-62.2"/>
<text text-anchor="start" x="11" y="-68.3" font-family="Helvetica,sans-Serif" font-size="11.00" fill="#000000">&lt; 2</text>
<polygon fill="#ffffff" stroke="transparent" points="52,-62.2 52,-81.2 101,-81.2 101,-62.2 52,-62.2"/>
<polygon fill="none" stroke="#000000" points="52,-62.2 52,-81.2 101,-81.2 101,-62.2 52,-62.2"/>
<text text-anchor="start" x="65.6105" y="-68.3" font-family="Helvetica,sans-Serif" font-size="11.00" fill="#000000">0 rows</text>
<polygon fill="#ffffff" stroke="transparent" points="101,-62.2 101,-81.2 134,-81.2 134,-62.2 101,-62.2"/>
<polygon fill="none" stroke="#000000" points="101,-62.2 101,-81.2 134,-81.2 134,-62.2 101,-62.2"/>
<text text-anchor="start" x="115.4053" y="-68.3" font-family="Helvetica,sans-Serif" font-size="11.00" fill="#000000">2 &gt;</text>
</a>
</g>
</g>
<!-- gymnasts&#45;&gt;gyms_has_users -->
<g id="edge3" class="edge">
<title>gymnasts:w&#45;&gt;gyms_has_users:e</title>
<path fill="none" stroke="#000000" d="M171.0156,-114.2C158.6771,-114.2 151.1667,-114.2 134,-114.2"/>
<polygon fill="#000000" stroke="#000000" points="177.5,-114.2001 185.5,-117.8 181.5,-114.2 185.5,-114.2 185.5,-114.2 185.5,-114.2 181.5,-114.2 185.5,-110.6 177.5,-114.2001 177.5,-114.2001"/>
<ellipse fill="none" stroke="#000000" cx="174.3" cy="-114.2001" rx="3.2" ry="3.2"/>
</g>
<!-- gymnasts&#45;&gt;gyms_has_users -->
<g id="edge4" class="edge">
<title>gymnasts:w&#45;&gt;gyms_has_users:e</title>
<path fill="none" stroke="#000000" d="M171.0156,-92.2C158.6771,-92.2 151.1667,-92.2 134,-92.2"/>
<polygon fill="#000000" stroke="#000000" points="177.5,-92.2001 185.5,-95.8 181.5,-92.2 185.5,-92.2 185.5,-92.2 185.5,-92.2 181.5,-92.2 185.5,-88.6 177.5,-92.2001 177.5,-92.2001"/>
<ellipse fill="none" stroke="#000000" cx="174.3" cy="-92.2001" rx="3.2" ry="3.2"/>
</g>
<!-- gymnast_has_skills -->
<g id="node3" class="node">
<title>gymnast_has_skills</title>
<g id="a_node3"><a xlink:href="../../tables/gymnast_has_skills.html" xlink:title="gymnast_has_skills" target="_top">
<polygon fill="#ffffff" stroke="transparent" points="536,-285.7 536,-390.7 674,-390.7 674,-285.7 536,-285.7"/>
<polygon fill="#f5f5f5" stroke="transparent" points="536,-367.2 536,-390.2 674,-390.2 674,-367.2 536,-367.2"/>
<polygon fill="none" stroke="#000000" points="536,-367.2 536,-390.2 674,-390.2 674,-367.2 536,-367.2"/>
<text text-anchor="start" x="540.8271" y="-376.3" font-family="Helvetica,sans-Serif" font-weight="bold" font-size="11.00" fill="#000000">gymnast_has_skills</text>
<text text-anchor="start" x="639.5219" y="-375.3" font-family="Helvetica,sans-Serif" font-size="11.00" fill="#000000">[table]</text>
<polygon fill="none" stroke="#000000" points="536,-345.2 536,-367.2 674,-367.2 674,-345.2 536,-345.2"/>
<image xlink:href="../../images/primaryKeys.png" width="11px" height="12px" preserveAspectRatio="xMinYMin meet" x="541" y="-362.2"/>
<text text-anchor="start" x="558" y="-352.3" font-family="Helvetica,sans-Serif" font-size="11.00" fill="#000000">gymnast_id</text>
<polygon fill="none" stroke="#000000" points="536,-323.2 536,-345.2 674,-345.2 674,-323.2 536,-323.2"/>
<image xlink:href="../../images/primaryKeys.png" width="11px" height="12px" preserveAspectRatio="xMinYMin meet" x="541" y="-340.2"/>
<text text-anchor="start" x="558" y="-330.3" font-family="Helvetica,sans-Serif" font-size="11.00" fill="#000000">skills_Id</text>
<polygon fill="none" stroke="#000000" points="536,-304.2 536,-323.2 674,-323.2 674,-304.2 536,-304.2"/>
<text text-anchor="start" x="539" y="-310.3" font-family="Helvetica,sans-Serif" font-size="11.00" fill="#000000">...</text>
<polygon fill="#ffffff" stroke="transparent" points="536,-285.2 536,-304.2 590,-304.2 590,-285.2 536,-285.2"/>
<polygon fill="none" stroke="#000000" points="536,-285.2 536,-304.2 590,-304.2 590,-285.2 536,-285.2"/>
<text text-anchor="start" x="539" y="-291.3" font-family="Helvetica,sans-Serif" font-size="11.00" fill="#000000">&lt; 2</text>
<polygon fill="#ffffff" stroke="transparent" points="590,-285.2 590,-304.2 645,-304.2 645,-285.2 590,-285.2"/>
<polygon fill="none" stroke="#000000" points="590,-285.2 590,-304.2 645,-304.2 645,-285.2 590,-285.2"/>
<text text-anchor="start" x="609.6105" y="-291.3" font-family="Helvetica,sans-Serif" font-size="11.00" fill="#000000">0 rows</text>
<polygon fill="#ffffff" stroke="transparent" points="645,-285.2 645,-304.2 674,-304.2 674,-285.2 645,-285.2"/>
<polygon fill="none" stroke="#000000" points="645,-285.2 645,-304.2 674,-304.2 674,-285.2 645,-285.2"/>
<text text-anchor="start" x="664.8862" y="-291.3" font-family="Helvetica,sans-Serif" font-size="11.00" fill="#000000"> &#160;</text>
</a>
</g>
</g>
<!-- gymnast_has_skills&#45;&gt;gymnasts -->
<g id="edge2" class="edge">
<title>gymnast_has_skills:w&#45;&gt;gymnasts:e</title>
<path fill="none" stroke="#000000" d="M521.5408,-356.2C505.884,-356.2 497.3663,-356.2 476.5,-356.2"/>
<polygon fill="#000000" stroke="#000000" points="528,-356.2001 536,-359.8 532,-356.2 536,-356.2 536,-356.2 536,-356.2 532,-356.2 536,-352.6 528,-356.2001 528,-356.2001"/>
<ellipse fill="none" stroke="#000000" cx="524.8" cy="-356.2001" rx="3.2" ry="3.2"/>
</g>
<!-- gymnasts_has_classes -->
<g id="node5" class="node">
<title>gymnasts_has_classes</title>
<g id="a_node5"><a xlink:href="../../tables/gymnasts_has_classes.html" xlink:title="gymnasts_has_classes" target="_top">
<polygon fill="#ffffff" stroke="transparent" points="527,-178.2 527,-264.2 683,-264.2 683,-178.2 527,-178.2"/>
<polygon fill="#f5f5f5" stroke="transparent" points="527,-241.2 527,-264.2 683,-264.2 683,-241.2 527,-241.2"/>
<polygon fill="none" stroke="#000000" points="527,-241.2 527,-264.2 683,-264.2 683,-241.2 527,-241.2"/>
<text text-anchor="start" x="531.6531" y="-250.3" font-family="Helvetica,sans-Serif" font-weight="bold" font-size="11.00" fill="#000000">gymnasts_has_classes</text>
<text text-anchor="start" x="648.5219" y="-249.3" font-family="Helvetica,sans-Serif" font-size="11.00" fill="#000000">[table]</text>
<polygon fill="none" stroke="#000000" points="527,-219.2 527,-241.2 683,-241.2 683,-219.2 527,-219.2"/>
<image xlink:href="../../images/primaryKeys.png" width="11px" height="12px" preserveAspectRatio="xMinYMin meet" x="532" y="-236.2"/>
<text text-anchor="start" x="548" y="-226.3" font-family="Helvetica,sans-Serif" font-size="11.00" fill="#000000">gymnasts_id</text>
<polygon fill="none" stroke="#000000" points="527,-197.2 527,-219.2 683,-219.2 683,-197.2 527,-197.2"/>
<image xlink:href="../../images/primaryKeys.png" width="11px" height="12px" preserveAspectRatio="xMinYMin meet" x="532" y="-214.2"/>
<text text-anchor="start" x="548" y="-204.3" font-family="Helvetica,sans-Serif" font-size="11.00" fill="#000000">classes_id</text>
<polygon fill="#ffffff" stroke="transparent" points="527,-178.2 527,-197.2 590,-197.2 590,-178.2 527,-178.2"/>
<polygon fill="none" stroke="#000000" points="527,-178.2 527,-197.2 590,-197.2 590,-178.2 527,-178.2"/>
<text text-anchor="start" x="530" y="-184.3" font-family="Helvetica,sans-Serif" font-size="11.00" fill="#000000">&lt; 2</text>
<polygon fill="#ffffff" stroke="transparent" points="590,-178.2 590,-197.2 649,-197.2 649,-178.2 590,-178.2"/>
<polygon fill="none" stroke="#000000" points="590,-178.2 590,-197.2 649,-197.2 649,-178.2 590,-178.2"/>
<text text-anchor="start" x="613.6105" y="-184.3" font-family="Helvetica,sans-Serif" font-size="11.00" fill="#000000">0 rows</text>
<polygon fill="#ffffff" stroke="transparent" points="649,-178.2 649,-197.2 683,-197.2 683,-178.2 649,-178.2"/>
<polygon fill="none" stroke="#000000" points="649,-178.2 649,-197.2 683,-197.2 683,-178.2 649,-178.2"/>
<text text-anchor="start" x="673.8862" y="-184.3" font-family="Helvetica,sans-Serif" font-size="11.00" fill="#000000"> &#160;</text>
</a>
</g>
</g>
<!-- gymnasts_has_classes&#45;&gt;gymnasts -->
<g id="edge5" class="edge">
<title>gymnasts_has_classes:w&#45;&gt;gymnasts:e</title>
<path fill="none" stroke="#000000" d="M512.8154,-233.5702C479.1284,-253.6077 530.9387,-356.2 476.5,-356.2"/>
<polygon fill="#000000" stroke="#000000" points="519.2167,-232.0493 527.8322,-233.7025 523.1083,-231.1247 527,-230.2 527,-230.2 527,-230.2 523.1083,-231.1247 526.1678,-226.6975 519.2167,-232.0493 519.2167,-232.0493"/>
<ellipse fill="none" stroke="#000000" cx="516.1033" cy="-232.7891" rx="3.2" ry="3.2"/>
</g>
</g>
</svg>
