<?xml version="1.0" encoding="UTF-8" standalone="no"?>
<!DOCTYPE svg PUBLIC "-//W3C//DTD SVG 1.1//EN"
 "http://www.w3.org/Graphics/SVG/1.1/DTD/svg11.dtd">
<!-- Generated by graphviz version 2.40.1 (20161225.0304)
 -->
<!-- Title: twoDegreesRelationshipsDiagram Pages: 1 -->
<svg width="749pt" height="387pt"
 viewBox="0.00 0.00 749.00 387.20" xmlns="http://www.w3.org/2000/svg" xmlns:xlink="http://www.w3.org/1999/xlink">
<g id="graph0" class="graph" transform="scale(1 1) rotate(0) translate(4 383.2)">
<title>twoDegreesRelationshipsDiagram</title>
<polygon fill="#ffffff" stroke="transparent" points="-4,4 -4,-383.2 745,-383.2 745,4 -4,4"/>
<text text-anchor="middle" x="72.4936" y="-7.3" font-family="Helvetica,sans-Serif" font-size="11.00" fill="#000000">Generated by SchemaSpy</text>
<!-- classes -->
<g id="node1" class="node">
<title>classes</title>
<g id="a_node1"><a xlink:href="../../tables/classes.html" xlink:title="classes" target="_top">
<polygon fill="#ffffff" stroke="transparent" points="163.5,-71.2 163.5,-176.2 248.5,-176.2 248.5,-71.2 163.5,-71.2"/>
<polygon fill="#f5f5f5" stroke="transparent" points="164,-152.7 164,-175.7 249,-175.7 249,-152.7 164,-152.7"/>
<polygon fill="none" stroke="#000000" points="164,-152.7 164,-175.7 249,-175.7 249,-152.7 164,-152.7"/>
<text text-anchor="start" x="169" y="-161.8" font-family="Helvetica,sans-Serif" font-weight="bold" font-size="11.00" fill="#000000">classes</text>
<text text-anchor="start" x="214.0437" y="-160.8" font-family="Helvetica,sans-Serif" font-size="11.00" fill="#000000">[table]</text>
<polygon fill="none" stroke="#000000" points="164,-130.7 164,-152.7 249,-152.7 249,-130.7 164,-130.7"/>
<image xlink:href="../../images/primaryKeys.png" width="11px" height="12px" preserveAspectRatio="xMinYMin meet" x="169" y="-147.7"/>
<text text-anchor="start" x="184" y="-137.8" font-family="Helvetica,sans-Serif" font-size="11.00" fill="#000000">id</text>
<polygon fill="#ffffff" stroke="transparent" points="164,-108.7 164,-130.7 249,-130.7 249,-108.7 164,-108.7"/>
<polygon fill="none" stroke="#000000" points="164,-108.7 164,-130.7 249,-130.7 249,-108.7 164,-108.7"/>
<image xlink:href="../../images/foreignKeys.png" width="11px" height="12px" preserveAspectRatio="xMinYMin meet" x="169" y="-125.7"/>
<text text-anchor="start" x="184" y="-115.8" font-family="Helvetica,sans-Serif" font-size="11.00" fill="#000000">skill_list_id</text>
<polygon fill="none" stroke="#000000" points="164,-89.7 164,-108.7 249,-108.7 249,-89.7 164,-89.7"/>
<text text-anchor="start" x="167" y="-95.8" font-family="Helvetica,sans-Serif" font-size="11.00" fill="#000000">...</text>
<polygon fill="#ffffff" stroke="transparent" points="164,-70.7 164,-89.7 187,-89.7 187,-70.7 164,-70.7"/>
<polygon fill="none" stroke="#000000" points="164,-70.7 164,-89.7 187,-89.7 187,-70.7 164,-70.7"/>
<text text-anchor="start" x="167" y="-76.8" font-family="Helvetica,sans-Serif" font-size="11.00" fill="#000000">&lt; 1</text>
<polygon fill="#ffffff" stroke="transparent" points="187,-70.7 187,-89.7 226,-89.7 226,-70.7 187,-70.7"/>
<polygon fill="none" stroke="#000000" points="187,-70.7 187,-89.7 226,-89.7 226,-70.7 187,-70.7"/>
<text text-anchor="start" x="190.6105" y="-76.8" font-family="Helvetica,sans-Serif" font-size="11.00" fill="#000000">0 rows</text>
<polygon fill="#ffffff" stroke="transparent" points="226,-70.7 226,-89.7 249,-89.7 249,-70.7 226,-70.7"/>
<polygon fill="none" stroke="#000000" points="226,-70.7 226,-89.7 249,-89.7 249,-70.7 226,-70.7"/>
<text text-anchor="start" x="230.4053" y="-76.8" font-family="Helvetica,sans-Serif" font-size="11.00" fill="#000000">3 &gt;</text>
</a>
</g>
</g>
<!-- skill_lists -->
<g id="node2" class="node">
<title>skill_lists</title>
<g id="a_node2"><a xlink:href="../../tables/skill_lists.html" xlink:title="skill_lists" target="_top">
<polygon fill="#ffffff" stroke="transparent" points="8,-92.2 8,-153.2 94,-153.2 94,-92.2 8,-92.2"/>
<polygon fill="#f5f5f5" stroke="transparent" points="8,-129.7 8,-152.7 94,-152.7 94,-129.7 8,-129.7"/>
<polygon fill="none" stroke="#000000" points="8,-129.7 8,-152.7 94,-152.7 94,-129.7 8,-129.7"/>
<text text-anchor="start" x="12.8119" y="-138.8" font-family="Helvetica,sans-Serif" font-weight="bold" font-size="11.00" fill="#000000">skill_lists</text>
<text text-anchor="start" x="59.5219" y="-137.8" font-family="Helvetica,sans-Serif" font-size="11.00" fill="#000000">[table]</text>
<polygon fill="none" stroke="#000000" points="8,-110.7 8,-129.7 94,-129.7 94,-110.7 8,-110.7"/>
<text text-anchor="start" x="11" y="-116.8" font-family="Helvetica,sans-Serif" font-size="11.00" fill="#000000">...</text>
<polygon fill="#ffffff" stroke="transparent" points="8,-91.7 8,-110.7 32,-110.7 32,-91.7 8,-91.7"/>
<polygon fill="none" stroke="#000000" points="8,-91.7 8,-110.7 32,-110.7 32,-91.7 8,-91.7"/>
<text text-anchor="start" x="11" y="-97.8" font-family="Helvetica,sans-Serif" font-size="11.00" fill="#000000">&lt; 1</text>
<polygon fill="#ffffff" stroke="transparent" points="32,-91.7 32,-110.7 71,-110.7 71,-91.7 32,-91.7"/>
<polygon fill="none" stroke="#000000" points="32,-91.7 32,-110.7 71,-110.7 71,-91.7 32,-91.7"/>
<text text-anchor="start" x="35.6105" y="-97.8" font-family="Helvetica,sans-Serif" font-size="11.00" fill="#000000">0 rows</text>
<polygon fill="#ffffff" stroke="transparent" points="71,-91.7 71,-110.7 94,-110.7 94,-91.7 71,-91.7"/>
<polygon fill="none" stroke="#000000" points="71,-91.7 71,-110.7 94,-110.7 94,-91.7 71,-91.7"/>
<text text-anchor="start" x="75.4053" y="-97.8" font-family="Helvetica,sans-Serif" font-size="11.00" fill="#000000">2 &gt;</text>
</a>
</g>
</g>
<!-- classes&#45;&gt;skill_lists -->
<g id="edge1" class="edge">
<title>classes:w&#45;&gt;skill_lists:e</title>
<path fill="none" stroke="#000000" d="M149.5032,-119.7C129.4335,-119.7 119.6424,-119.7 94,-119.7"/>
<polygon fill="#000000" stroke="#000000" points="156,-119.7001 164,-123.3 160,-119.7 164,-119.7 164,-119.7 164,-119.7 160,-119.7 164,-116.1 156,-119.7001 156,-119.7001"/>
<ellipse fill="none" stroke="#000000" cx="152.8" cy="-119.7001" rx="3.2" ry="3.2"/>
</g>
<!-- completed_daily_challenges -->
<g id="node3" class="node">
<title>completed_daily_challenges</title>
<g id="a_node3"><a xlink:href="../../tables/completed_daily_challenges.html" xlink:title="completed_daily_challenges" target="_top">
<polygon fill="#ffffff" stroke="transparent" points="546.5,-314.2 546.5,-375.2 727.5,-375.2 727.5,-314.2 546.5,-314.2"/>
<polygon fill="#f5f5f5" stroke="transparent" points="547,-351.7 547,-374.7 728,-374.7 728,-351.7 547,-351.7"/>
<polygon fill="none" stroke="#000000" points="547,-351.7 547,-374.7 728,-374.7 728,-351.7 547,-351.7"/>
<text text-anchor="start" x="551.9266" y="-360.8" font-family="Helvetica,sans-Serif" font-weight="bold" font-size="11.00" fill="#000000">completed_daily_challenges</text>
<text text-anchor="start" x="693.5219" y="-359.8" font-family="Helvetica,sans-Serif" font-size="11.00" fill="#000000">[table]</text>
<polygon fill="none" stroke="#000000" points="547,-332.7 547,-351.7 728,-351.7 728,-332.7 547,-332.7"/>
<text text-anchor="start" x="550" y="-338.8" font-family="Helvetica,sans-Serif" font-size="11.00" fill="#000000">...</text>
<polygon fill="#ffffff" stroke="transparent" points="547,-313.7 547,-332.7 623,-332.7 623,-313.7 547,-313.7"/>
<polygon fill="none" stroke="#000000" points="547,-313.7 547,-332.7 623,-332.7 623,-313.7 547,-313.7"/>
<text text-anchor="start" x="550" y="-319.8" font-family="Helvetica,sans-Serif" font-size="11.00" fill="#000000">&lt; 4</text>
<polygon fill="#ffffff" stroke="transparent" points="623,-313.7 623,-332.7 688,-332.7 688,-313.7 623,-313.7"/>
<polygon fill="none" stroke="#000000" points="623,-313.7 623,-332.7 688,-332.7 688,-313.7 623,-313.7"/>
<text text-anchor="start" x="652.6105" y="-319.8" font-family="Helvetica,sans-Serif" font-size="11.00" fill="#000000">0 rows</text>
<polygon fill="#ffffff" stroke="transparent" points="688,-313.7 688,-332.7 728,-332.7 728,-313.7 688,-313.7"/>
<polygon fill="none" stroke="#000000" points="688,-313.7 688,-332.7 728,-332.7 728,-313.7 688,-313.7"/>
<text text-anchor="start" x="718.8862" y="-319.8" font-family="Helvetica,sans-Serif" font-size="11.00" fill="#000000"> &#160;</text>
</a>
</g>
</g>
<!-- daily_challenges -->
<g id="node4" class="node">
<title>daily_challenges</title>
<g id="a_node4"><a xlink:href="../../tables/daily_challenges.html" xlink:title="daily_challenges" target="_top">
<polygon fill="#ffffff" stroke="transparent" points="343,-314.2 343,-375.2 467,-375.2 467,-314.2 343,-314.2"/>
<polygon fill="#f5f5f5" stroke="transparent" points="343,-351.7 343,-374.7 467,-374.7 467,-351.7 343,-351.7"/>
<polygon fill="none" stroke="#000000" points="343,-351.7 343,-374.7 467,-374.7 467,-351.7 343,-351.7"/>
<text text-anchor="start" x="347.8512" y="-360.8" font-family="Helvetica,sans-Serif" font-weight="bold" font-size="11.00" fill="#000000">daily_challenges</text>
<text text-anchor="start" x="432.5219" y="-359.8" font-family="Helvetica,sans-Serif" font-size="11.00" fill="#000000">[table]</text>
<polygon fill="none" stroke="#000000" points="343,-332.7 343,-351.7 467,-351.7 467,-332.7 343,-332.7"/>
<text text-anchor="start" x="346" y="-338.8" font-family="Helvetica,sans-Serif" font-size="11.00" fill="#000000">...</text>
<polygon fill="#ffffff" stroke="transparent" points="343,-313.7 343,-332.7 386,-332.7 386,-313.7 343,-313.7"/>
<polygon fill="none" stroke="#000000" points="343,-313.7 343,-332.7 386,-332.7 386,-313.7 343,-313.7"/>
<text text-anchor="start" x="346" y="-319.8" font-family="Helvetica,sans-Serif" font-size="11.00" fill="#000000">&lt; 2</text>
<polygon fill="#ffffff" stroke="transparent" points="386,-313.7 386,-332.7 435,-332.7 435,-313.7 386,-313.7"/>
<polygon fill="none" stroke="#000000" points="386,-313.7 386,-332.7 435,-332.7 435,-313.7 386,-313.7"/>
<text text-anchor="start" x="399.6105" y="-319.8" font-family="Helvetica,sans-Serif" font-size="11.00" fill="#000000">0 rows</text>
<polygon fill="#ffffff" stroke="transparent" points="435,-313.7 435,-332.7 467,-332.7 467,-313.7 435,-313.7"/>
<polygon fill="none" stroke="#000000" points="435,-313.7 435,-332.7 467,-332.7 467,-313.7 435,-313.7"/>
<text text-anchor="start" x="448.4053" y="-319.8" font-family="Helvetica,sans-Serif" font-size="11.00" fill="#000000">3 &gt;</text>
</a>
</g>
</g>
<!-- completed_daily_challenges&#45;&gt;daily_challenges -->
<g id="edge2" class="edge">
<title>completed_daily_challenges:w&#45;&gt;daily_challenges:e</title>
<path fill="none" stroke="#000000" d="M533.0935,-336.878C508.318,-328.9716 497.4167,-330.5789 467,-341.7"/>
<polygon fill="#000000" stroke="#000000" points="539.4415,-339.0791 545.8206,-345.1013 543.2207,-340.3895 547,-341.7 547,-341.7 547,-341.7 543.2207,-340.3895 548.1794,-338.2987 539.4415,-339.0791 539.4415,-339.0791"/>
<ellipse fill="none" stroke="#000000" cx="536.4181" cy="-338.0307" rx="3.2" ry="3.2"/>
</g>
<!-- completed_daily_challenges&#45;&gt;daily_challenges -->
<g id="edge3" class="edge">
<title>completed_daily_challenges:w&#45;&gt;daily_challenges:e</title>
<path fill="none" stroke="#000000" d="M532.4181,-341.7C508.1172,-341.7 497.1389,-341.7 467,-341.7"/>
<polygon fill="#000000" stroke="#000000" points="539,-341.7001 547,-345.3 543,-341.7 547,-341.7 547,-341.7 547,-341.7 543,-341.7 547,-338.1 539,-341.7001 539,-341.7001"/>
<ellipse fill="none" stroke="#000000" cx="535.8" cy="-341.7001" rx="3.2" ry="3.2"/>
</g>
<!-- completed_daily_challenges&#45;&gt;daily_challenges -->
<g id="edge4" class="edge">
<title>completed_daily_challenges:w&#45;&gt;daily_challenges:e</title>
<path fill="none" stroke="#000000" d="M533.0935,-346.522C508.318,-354.4284 497.4167,-352.8211 467,-341.7"/>
<polygon fill="#000000" stroke="#000000" points="539.4415,-344.3209 548.1794,-345.1013 543.2207,-343.0105 547,-341.7 547,-341.7 547,-341.7 543.2207,-343.0105 545.8206,-338.2987 539.4415,-344.3209 539.4415,-344.3209"/>
<ellipse fill="none" stroke="#000000" cx="536.4181" cy="-345.3693" rx="3.2" ry="3.2"/>
</g>
<!-- gymnasts -->
<g id="node5" class="node">
<title>gymnasts</title>
<g id="a_node5"><a xlink:href="../../tables/gymnasts.html" xlink:title="gymnasts" target="_top">
<polygon fill="#ffffff" stroke="transparent" points="318,-166.2 318,-293.2 492,-293.2 492,-166.2 318,-166.2"/>
<polygon fill="#f5f5f5" stroke="transparent" points="318,-269.7 318,-292.7 492,-292.7 492,-269.7 318,-269.7"/>
<polygon fill="none" stroke="#000000" points="318,-269.7 318,-292.7 492,-292.7 492,-269.7 318,-269.7"/>
<text text-anchor="start" x="323" y="-278.8" font-family="Helvetica,sans-Serif" font-weight="bold" font-size="11.00" fill="#000000">gymnasts</text>
<text text-anchor="start" x="457.0437" y="-277.8" font-family="Helvetica,sans-Serif" font-size="11.00" fill="#000000">[table]</text>
<polygon fill="none" stroke="#000000" points="318,-247.7 318,-269.7 492,-269.7 492,-247.7 318,-247.7"/>
<image xlink:href="../../images/primaryKeys.png" width="11px" height="12px" preserveAspectRatio="xMinYMin meet" x="323" y="-264.7"/>
<text text-anchor="start" x="338" y="-254.8" font-family="Helvetica,sans-Serif" font-size="11.00" fill="#000000">id</text>
<polygon fill="#ffffff" stroke="transparent" points="318,-225.7 318,-247.7 492,-247.7 492,-225.7 318,-225.7"/>
<polygon fill="none" stroke="#000000" points="318,-225.7 318,-247.7 492,-247.7 492,-225.7 318,-225.7"/>
<image xlink:href="../../images/foreignKeys.png" width="11px" height="12px" preserveAspectRatio="xMinYMin meet" x="323" y="-242.7"/>
<text text-anchor="start" x="338" y="-232.8" font-family="Helvetica,sans-Serif" font-size="11.00" fill="#000000">gyms_has_users_gyms_id</text>
<polygon fill="#ffffff" stroke="transparent" points="318,-203.7 318,-225.7 492,-225.7 492,-203.7 318,-203.7"/>
<polygon fill="none" stroke="#000000" points="318,-203.7 318,-225.7 492,-225.7 492,-203.7 318,-203.7"/>
<image xlink:href="../../images/foreignKeys.png" width="11px" height="12px" preserveAspectRatio="xMinYMin meet" x="323" y="-220.7"/>
<text text-anchor="start" x="338" y="-210.8" font-family="Helvetica,sans-Serif" font-size="11.00" fill="#000000">gyms_has_users_users_id</text>
<polygon fill="none" stroke="#000000" points="318,-184.7 318,-203.7 492,-203.7 492,-184.7 318,-184.7"/>
<text text-anchor="start" x="321" y="-190.8" font-family="Helvetica,sans-Serif" font-size="11.00" fill="#000000">...</text>
<polygon fill="#ffffff" stroke="transparent" points="318,-165.7 318,-184.7 386,-184.7 386,-165.7 318,-165.7"/>
<polygon fill="none" stroke="#000000" points="318,-165.7 318,-184.7 386,-184.7 386,-165.7 318,-165.7"/>
<text text-anchor="start" x="321" y="-171.8" font-family="Helvetica,sans-Serif" font-size="11.00" fill="#000000">&lt; 2</text>
<polygon fill="#ffffff" stroke="transparent" points="386,-165.7 386,-184.7 447,-184.7 447,-165.7 386,-165.7"/>
<polygon fill="none" stroke="#000000" points="386,-165.7 386,-184.7 447,-184.7 447,-165.7 386,-165.7"/>
<text text-anchor="start" x="411.6105" y="-171.8" font-family="Helvetica,sans-Serif" font-size="11.00" fill="#000000">0 rows</text>
<polygon fill="#ffffff" stroke="transparent" points="447,-165.7 447,-184.7 492,-184.7 492,-165.7 447,-165.7"/>
<polygon fill="none" stroke="#000000" points="447,-165.7 447,-184.7 492,-184.7 492,-165.7 447,-165.7"/>
<text text-anchor="start" x="473.4053" y="-171.8" font-family="Helvetica,sans-Serif" font-size="11.00" fill="#000000">4 &gt;</text>
</a>
</g>
</g>
<!-- completed_daily_challenges&#45;&gt;gymnasts -->
<g id="edge5" class="edge">
<title>completed_daily_challenges:w&#45;&gt;gymnasts:e</title>
<path fill="none" stroke="#000000" d="M533.1184,-337.6967C510.2755,-321.1172 530.3756,-258.7 492,-258.7"/>
<polygon fill="#000000" stroke="#000000" points="539.3133,-339.4832 546.0024,-345.159 543.1566,-340.5916 547,-341.7 547,-341.7 547,-341.7 543.1566,-340.5916 547.9976,-338.241 539.3133,-339.4832 539.3133,-339.4832"/>
<ellipse fill="none" stroke="#000000" cx="536.2386" cy="-338.5965" rx="3.2" ry="3.2"/>
</g>
<!-- daily_challenges&#45;&gt;classes -->
<g id="edge9" class="edge">
<title>daily_challenges:w&#45;&gt;classes:e</title>
<path fill="none" stroke="#000000" d="M328.6209,-339.971C255.3865,-320.4231 341.8459,-141.7 249,-141.7"/>
<polygon fill="#000000" stroke="#000000" points="335.0572,-340.7449 342.5702,-345.2743 339.0286,-341.2224 343,-341.7 343,-341.7 343,-341.7 339.0286,-341.2224 343.4298,-338.1257 335.0572,-340.7449 335.0572,-340.7449"/>
<ellipse fill="none" stroke="#000000" cx="331.8801" cy="-340.3628" rx="3.2" ry="3.2"/>
</g>
<!-- gyms_has_users -->
<g id="node9" class="node">
<title>gyms_has_users</title>
<g id="a_node9"><a xlink:href="../../tables/gyms_has_users.html" xlink:title="gyms_has_users" target="_top">
<polygon fill="#ffffff" stroke="transparent" points="143,-203.2 143,-264.2 269,-264.2 269,-203.2 143,-203.2"/>
<polygon fill="#f5f5f5" stroke="transparent" points="143,-240.7 143,-263.7 269,-263.7 269,-240.7 143,-240.7"/>
<polygon fill="none" stroke="#000000" points="143,-240.7 143,-263.7 269,-263.7 269,-240.7 143,-240.7"/>
<text text-anchor="start" x="147.936" y="-249.8" font-family="Helvetica,sans-Serif" font-weight="bold" font-size="11.00" fill="#000000">gyms_has_users</text>
<text text-anchor="start" x="234.5219" y="-248.8" font-family="Helvetica,sans-Serif" font-size="11.00" fill="#000000">[table]</text>
<polygon fill="none" stroke="#000000" points="143,-221.7 143,-240.7 269,-240.7 269,-221.7 143,-221.7"/>
<text text-anchor="start" x="146" y="-227.8" font-family="Helvetica,sans-Serif" font-size="11.00" fill="#000000">...</text>
<polygon fill="#ffffff" stroke="transparent" points="143,-202.7 143,-221.7 187,-221.7 187,-202.7 143,-202.7"/>
<polygon fill="none" stroke="#000000" points="143,-202.7 143,-221.7 187,-221.7 187,-202.7 143,-202.7"/>
<text text-anchor="start" x="146" y="-208.8" font-family="Helvetica,sans-Serif" font-size="11.00" fill="#000000">&lt; 2</text>
<polygon fill="#ffffff" stroke="transparent" points="187,-202.7 187,-221.7 236,-221.7 236,-202.7 187,-202.7"/>
<polygon fill="none" stroke="#000000" points="187,-202.7 187,-221.7 236,-221.7 236,-202.7 187,-202.7"/>
<text text-anchor="start" x="200.6105" y="-208.8" font-family="Helvetica,sans-Serif" font-size="11.00" fill="#000000">0 rows</text>
<polygon fill="#ffffff" stroke="transparent" points="236,-202.7 236,-221.7 269,-221.7 269,-202.7 236,-202.7"/>
<polygon fill="none" stroke="#000000" points="236,-202.7 236,-221.7 269,-221.7 269,-202.7 236,-202.7"/>
<text text-anchor="start" x="250.4053" y="-208.8" font-family="Helvetica,sans-Serif" font-size="11.00" fill="#000000">2 &gt;</text>
</a>
</g>
</g>
<!-- gymnasts&#45;&gt;gyms_has_users -->
<g id="edge11" class="edge">
<title>gymnasts:w&#45;&gt;gyms_has_users:e</title>
<path fill="none" stroke="#000000" d="M303.4463,-235.6549C292.1532,-233.9358 285.1125,-230.7 269,-230.7"/>
<polygon fill="#000000" stroke="#000000" points="310.0205,-236.1269 317.7421,-240.2908 314.0103,-236.4135 318,-236.7 318,-236.7 318,-236.7 314.0103,-236.4135 318.2579,-233.1092 310.0205,-236.1269 310.0205,-236.1269"/>
<ellipse fill="none" stroke="#000000" cx="306.8288" cy="-235.8977" rx="3.2" ry="3.2"/>
</g>
<!-- gymnasts&#45;&gt;gyms_has_users -->
<g id="edge12" class="edge">
<title>gymnasts:w&#45;&gt;gyms_has_users:e</title>
<path fill="none" stroke="#000000" d="M303.5387,-217.3421C292.139,-221.8865 286.0031,-230.7 269,-230.7"/>
<polygon fill="#000000" stroke="#000000" points="310.1303,-216.1378 318.647,-218.2414 314.0651,-215.4189 318,-214.7 318,-214.7 318,-214.7 314.0651,-215.4189 317.353,-211.1586 310.1303,-216.1378 310.1303,-216.1378"/>
<ellipse fill="none" stroke="#000000" cx="306.9824" cy="-216.713" rx="3.2" ry="3.2"/>
</g>
<!-- completed_normal_challenges -->
<g id="node6" class="node">
<title>completed_normal_challenges</title>
<g id="a_node6"><a xlink:href="../../tables/completed_normal_challenges.html" xlink:title="completed_normal_challenges" target="_top">
<polygon fill="#ffffff" stroke="transparent" points="541,-38.2 541,-99.2 733,-99.2 733,-38.2 541,-38.2"/>
<polygon fill="#f5f5f5" stroke="transparent" points="541,-75.7 541,-98.7 733,-98.7 733,-75.7 541,-75.7"/>
<polygon fill="none" stroke="#000000" points="541,-75.7 541,-98.7 733,-98.7 733,-75.7 541,-75.7"/>
<text text-anchor="start" x="545.9277" y="-84.8" font-family="Helvetica,sans-Serif" font-weight="bold" font-size="11.00" fill="#000000">completed_normal_challenges</text>
<text text-anchor="start" x="698.5219" y="-83.8" font-family="Helvetica,sans-Serif" font-size="11.00" fill="#000000">[table]</text>
<polygon fill="none" stroke="#000000" points="541,-56.7 541,-75.7 733,-75.7 733,-56.7 541,-56.7"/>
<text text-anchor="start" x="544" y="-62.8" font-family="Helvetica,sans-Serif" font-size="11.00" fill="#000000">...</text>
<polygon fill="#ffffff" stroke="transparent" points="541,-37.7 541,-56.7 622,-56.7 622,-37.7 541,-37.7"/>
<polygon fill="none" stroke="#000000" points="541,-37.7 541,-56.7 622,-56.7 622,-37.7 541,-37.7"/>
<text text-anchor="start" x="544" y="-43.8" font-family="Helvetica,sans-Serif" font-size="11.00" fill="#000000">&lt; 3</text>
<polygon fill="#ffffff" stroke="transparent" points="622,-37.7 622,-56.7 690,-56.7 690,-37.7 622,-37.7"/>
<polygon fill="none" stroke="#000000" points="622,-37.7 622,-56.7 690,-56.7 690,-37.7 622,-37.7"/>
<text text-anchor="start" x="654.6105" y="-43.8" font-family="Helvetica,sans-Serif" font-size="11.00" fill="#000000">0 rows</text>
<polygon fill="#ffffff" stroke="transparent" points="690,-37.7 690,-56.7 733,-56.7 733,-37.7 690,-37.7"/>
<polygon fill="none" stroke="#000000" points="690,-37.7 690,-56.7 733,-56.7 733,-37.7 690,-37.7"/>
<text text-anchor="start" x="723.8862" y="-43.8" font-family="Helvetica,sans-Serif" font-size="11.00" fill="#000000"> &#160;</text>
</a>
</g>
</g>
<!-- completed_normal_challenges&#45;&gt;gymnasts -->
<g id="edge6" class="edge">
<title>completed_normal_challenges:w&#45;&gt;gymnasts:e</title>
<path fill="none" stroke="#000000" d="M526.47,-68.0019C468.1013,-89.7771 574.7951,-258.7 492,-258.7"/>
<polygon fill="#000000" stroke="#000000" points="533.0985,-66.9518 541.5633,-69.2557 537.0493,-66.3259 541,-65.7 541,-65.7 541,-65.7 537.0493,-66.3259 540.4367,-62.1443 533.0985,-66.9518 533.0985,-66.9518"/>
<ellipse fill="none" stroke="#000000" cx="529.938" cy="-67.4526" rx="3.2" ry="3.2"/>
</g>
<!-- normal_challenges -->
<g id="node7" class="node">
<title>normal_challenges</title>
<g id="a_node7"><a xlink:href="../../tables/normal_challenges.html" xlink:title="normal_challenges" target="_top">
<polygon fill="#ffffff" stroke="transparent" points="337.5,-38.2 337.5,-99.2 472.5,-99.2 472.5,-38.2 337.5,-38.2"/>
<polygon fill="#f5f5f5" stroke="transparent" points="338,-75.7 338,-98.7 473,-98.7 473,-75.7 338,-75.7"/>
<polygon fill="none" stroke="#000000" points="338,-75.7 338,-98.7 473,-98.7 473,-75.7 338,-75.7"/>
<text text-anchor="start" x="342.8522" y="-84.8" font-family="Helvetica,sans-Serif" font-weight="bold" font-size="11.00" fill="#000000">normal_challenges</text>
<text text-anchor="start" x="438.5219" y="-83.8" font-family="Helvetica,sans-Serif" font-size="11.00" fill="#000000">[table]</text>
<polygon fill="none" stroke="#000000" points="338,-56.7 338,-75.7 473,-75.7 473,-56.7 338,-56.7"/>
<text text-anchor="start" x="341" y="-62.8" font-family="Helvetica,sans-Serif" font-size="11.00" fill="#000000">...</text>
<polygon fill="#ffffff" stroke="transparent" points="338,-37.7 338,-56.7 386,-56.7 386,-37.7 338,-37.7"/>
<polygon fill="none" stroke="#000000" points="338,-37.7 338,-56.7 386,-56.7 386,-37.7 338,-37.7"/>
<text text-anchor="start" x="341" y="-43.8" font-family="Helvetica,sans-Serif" font-size="11.00" fill="#000000">&lt; 2</text>
<polygon fill="#ffffff" stroke="transparent" points="386,-37.7 386,-56.7 438,-56.7 438,-37.7 386,-37.7"/>
<polygon fill="none" stroke="#000000" points="386,-37.7 386,-56.7 438,-56.7 438,-37.7 386,-37.7"/>
<text text-anchor="start" x="402.6105" y="-43.8" font-family="Helvetica,sans-Serif" font-size="11.00" fill="#000000">0 rows</text>
<polygon fill="#ffffff" stroke="transparent" points="438,-37.7 438,-56.7 473,-56.7 473,-37.7 438,-37.7"/>
<polygon fill="none" stroke="#000000" points="438,-37.7 438,-56.7 473,-56.7 473,-37.7 438,-37.7"/>
<text text-anchor="start" x="454.4053" y="-43.8" font-family="Helvetica,sans-Serif" font-size="11.00" fill="#000000">2 &gt;</text>
</a>
</g>
</g>
<!-- completed_normal_challenges&#45;&gt;normal_challenges -->
<g id="edge7" class="edge">
<title>completed_normal_challenges:w&#45;&gt;normal_challenges:e</title>
<path fill="none" stroke="#000000" d="M526.6409,-63.0468C507.3306,-59.8937 497.7917,-60.7781 473,-65.7"/>
<polygon fill="#000000" stroke="#000000" points="533.1332,-64.2464 540.3459,-69.2401 537.0666,-64.9732 541,-65.7 541,-65.7 541,-65.7 537.0666,-64.9732 541.6541,-62.1599 533.1332,-64.2464 533.1332,-64.2464"/>
<ellipse fill="none" stroke="#000000" cx="529.9864" cy="-63.6649" rx="3.2" ry="3.2"/>
</g>
<!-- completed_normal_challenges&#45;&gt;normal_challenges -->
<g id="edge8" class="edge">
<title>completed_normal_challenges:w&#45;&gt;normal_challenges:e</title>
<path fill="none" stroke="#000000" d="M526.9174,-68.7425C507.4211,-72.4837 497.9097,-71.4695 473,-65.7"/>
<polygon fill="#000000" stroke="#000000" points="533.1804,-67.3895 541.7603,-69.2188 537.0902,-66.5447 541,-65.7 541,-65.7 541,-65.7 537.0902,-66.5447 540.2397,-62.1812 533.1804,-67.3895 533.1804,-67.3895"/>
<ellipse fill="none" stroke="#000000" cx="530.0526" cy="-68.0652" rx="3.2" ry="3.2"/>
</g>
<!-- normal_challenges&#45;&gt;classes -->
<g id="edge15" class="edge">
<title>normal_challenges:w&#45;&gt;classes:e</title>
<path fill="none" stroke="#000000" d="M323.6221,-68.0579C288.4095,-80.8859 295.5292,-141.7 249,-141.7"/>
<polygon fill="#000000" stroke="#000000" points="330.1055,-66.9947 338.5826,-69.2525 334.0527,-66.3473 338,-65.7 338,-65.7 338,-65.7 334.0527,-66.3473 337.4174,-62.1475 330.1055,-66.9947 330.1055,-66.9947"/>
<ellipse fill="none" stroke="#000000" cx="326.9476" cy="-67.5126" rx="3.2" ry="3.2"/>
</g>
<!-- gymnast_has_skills -->
<g id="node8" class="node">
<title>gymnast_has_skills</title>
<g id="a_node8"><a xlink:href="../../tables/gymnast_has_skills.html" xlink:title="gymnast_has_skills" target="_top">
<polygon fill="#ffffff" stroke="transparent" points="568,-232.2 568,-293.2 706,-293.2 706,-232.2 568,-232.2"/>
<polygon fill="#f5f5f5" stroke="transparent" points="568,-269.7 568,-292.7 706,-292.7 706,-269.7 568,-269.7"/>
<polygon fill="none" stroke="#000000" points="568,-269.7 568,-292.7 706,-292.7 706,-269.7 568,-269.7"/>
<text text-anchor="start" x="572.8271" y="-278.8" font-family="Helvetica,sans-Serif" font-weight="bold" font-size="11.00" fill="#000000">gymnast_has_skills</text>
<text text-anchor="start" x="671.5219" y="-277.8" font-family="Helvetica,sans-Serif" font-size="11.00" fill="#000000">[table]</text>
<polygon fill="none" stroke="#000000" points="568,-250.7 568,-269.7 706,-269.7 706,-250.7 568,-250.7"/>
<text text-anchor="start" x="571" y="-256.8" font-family="Helvetica,sans-Serif" font-size="11.00" fill="#000000">...</text>
<polygon fill="#ffffff" stroke="transparent" points="568,-231.7 568,-250.7 622,-250.7 622,-231.7 568,-231.7"/>
<polygon fill="none" stroke="#000000" points="568,-231.7 568,-250.7 622,-250.7 622,-231.7 568,-231.7"/>
<text text-anchor="start" x="571" y="-237.8" font-family="Helvetica,sans-Serif" font-size="11.00" fill="#000000">&lt; 2</text>
<polygon fill="#ffffff" stroke="transparent" points="622,-231.7 622,-250.7 677,-250.7 677,-231.7 622,-231.7"/>
<polygon fill="none" stroke="#000000" points="622,-231.7 622,-250.7 677,-250.7 677,-231.7 622,-231.7"/>
<text text-anchor="start" x="641.6105" y="-237.8" font-family="Helvetica,sans-Serif" font-size="11.00" fill="#000000">0 rows</text>
<polygon fill="#ffffff" stroke="transparent" points="677,-231.7 677,-250.7 706,-250.7 706,-231.7 677,-231.7"/>
<polygon fill="none" stroke="#000000" points="677,-231.7 677,-250.7 706,-250.7 706,-231.7 677,-231.7"/>
<text text-anchor="start" x="696.8862" y="-237.8" font-family="Helvetica,sans-Serif" font-size="11.00" fill="#000000"> &#160;</text>
</a>
</g>
</g>
<!-- gymnast_has_skills&#45;&gt;gymnasts -->
<g id="edge10" class="edge">
<title>gymnast_has_skills:w&#45;&gt;gymnasts:e</title>
<path fill="none" stroke="#000000" d="M553.5113,-259.6313C530.8663,-259.4053 520.3705,-258.7 492,-258.7"/>
<polygon fill="#000000" stroke="#000000" points="560.0001,-259.662 567.9829,-263.3 564,-259.681 568,-259.7 568,-259.7 568,-259.7 564,-259.681 568.0171,-256.1 560.0001,-259.662 560.0001,-259.662"/>
<ellipse fill="none" stroke="#000000" cx="556.8001" cy="-259.6468" rx="3.2" ry="3.2"/>
</g>
<!-- gymnasts_classes -->
<g id="node10" class="node">
<title>gymnasts_classes</title>
<g id="a_node10"><a xlink:href="../../tables/gymnasts_classes.html" xlink:title="gymnasts_classes" target="_top">
<polygon fill="#ffffff" stroke="transparent" points="554,-120.7 554,-210.7 720,-210.7 720,-120.7 554,-120.7"/>
<polygon fill="#f5f5f5" stroke="transparent" points="556,-185.7 556,-208.7 718,-208.7 718,-185.7 556,-185.7"/>
<polygon fill="none" stroke="#000000" points="556,-185.7 556,-208.7 718,-208.7 718,-185.7 556,-185.7"/>
<text text-anchor="start" x="561" y="-194.8" font-family="Helvetica,sans-Serif" font-weight="bold" font-size="11.00" fill="#000000">gymnasts_classes</text>
<text text-anchor="start" x="683.0437" y="-193.8" font-family="Helvetica,sans-Serif" font-size="11.00" fill="#000000">[table]</text>
<polygon fill="none" stroke="#000000" points="556,-163.7 556,-185.7 683,-185.7 683,-163.7 556,-163.7"/>
<image xlink:href="../../images/primaryKeys.png" width="11px" height="12px" preserveAspectRatio="xMinYMin meet" x="561" y="-180.7"/>
<text text-anchor="start" x="576" y="-170.8" font-family="Helvetica,sans-Serif" font-size="11.00" fill="#000000">gymnasts_id</text>
<polygon fill="none" stroke="#000000" points="683,-163.7 683,-185.7 718,-185.7 718,-163.7 683,-163.7"/>
<text text-anchor="start" x="685.5219" y="-171.4" font-family="Helvetica,sans-Serif" font-size="11.00" fill="#000000">int[10]</text>
<polygon fill="none" stroke="#000000" points="556,-141.7 556,-163.7 683,-163.7 683,-141.7 556,-141.7"/>
<image xlink:href="../../images/primaryKeys.png" width="11px" height="12px" preserveAspectRatio="xMinYMin meet" x="561" y="-158.7"/>
<text text-anchor="start" x="576" y="-148.8" font-family="Helvetica,sans-Serif" font-size="11.00" fill="#000000">classes_id</text>
<polygon fill="none" stroke="#000000" points="683,-141.7 683,-163.7 718,-163.7 718,-141.7 683,-141.7"/>
<text text-anchor="start" x="685.5219" y="-149.4" font-family="Helvetica,sans-Serif" font-size="11.00" fill="#000000">int[10]</text>
<polygon fill="#ffffff" stroke="transparent" points="556,-122.7 556,-141.7 611,-141.7 611,-122.7 556,-122.7"/>
<polygon fill="none" stroke="#000000" points="556,-122.7 556,-141.7 611,-141.7 611,-122.7 556,-122.7"/>
<text text-anchor="start" x="559" y="-128.8" font-family="Helvetica,sans-Serif" font-size="11.00" fill="#000000">&lt; 2</text>
<polygon fill="#ffffff" stroke="transparent" points="611,-122.7 611,-141.7 683,-141.7 683,-122.7 611,-122.7"/>
<polygon fill="none" stroke="#000000" points="611,-122.7 611,-141.7 683,-141.7 683,-122.7 611,-122.7"/>
<text text-anchor="start" x="647.6105" y="-128.8" font-family="Helvetica,sans-Serif" font-size="11.00" fill="#000000">0 rows</text>
<polygon fill="#ffffff" stroke="transparent" points="683,-122.7 683,-141.7 718,-141.7 718,-122.7 683,-122.7"/>
<polygon fill="none" stroke="#000000" points="683,-122.7 683,-141.7 718,-141.7 718,-122.7 683,-122.7"/>
<text text-anchor="start" x="699.4053" y="-128.8" font-family="Helvetica,sans-Serif" font-size="11.00" fill="#000000">0 &gt;</text>
<polygon fill="none" stroke="#000000" stroke-width="2" points="555,-121.7 555,-209.7 719,-209.7 719,-121.7 555,-121.7"/>
</a>
</g>
</g>
<!-- gymnasts_classes&#45;&gt;classes -->
<g id="edge13" class="edge">
<title>gymnasts_classes:w&#45;&gt;classes:e</title>
<path fill="none" stroke="#000000" d="M541.5923,-152.658C416.8816,-151.9194 380.5987,-141.7 249,-141.7"/>
<polygon fill="#000000" stroke="#000000" points="548,-152.6766 555.9895,-156.3 552,-152.6883 556,-152.7 556,-152.7 556,-152.7 552,-152.6883 556.0105,-149.1 548,-152.6766 548,-152.6766"/>
<ellipse fill="none" stroke="#000000" cx="544.8" cy="-152.6672" rx="3.2" ry="3.2"/>
</g>
<!-- gymnasts_classes&#45;&gt;gymnasts -->
<g id="edge14" class="edge">
<title>gymnasts_classes:w&#45;&gt;gymnasts:e</title>
<path fill="none" stroke="#000000" d="M541.6997,-178.3094C515.3326,-194.3875 533.0678,-258.7 492,-258.7"/>
<polygon fill="#000000" stroke="#000000" points="548.2433,-176.6578 556.881,-178.1905 552.1216,-175.6789 556,-174.7 556,-174.7 556,-174.7 552.1216,-175.6789 555.119,-171.2095 548.2433,-176.6578 548.2433,-176.6578"/>
<ellipse fill="none" stroke="#000000" cx="545.1406" cy="-177.441" rx="3.2" ry="3.2"/>
</g>
</g>
</svg>
