<?xml version="1.0" encoding="UTF-8" standalone="no"?>
<!DOCTYPE svg PUBLIC "-//W3C//DTD SVG 1.1//EN"
 "http://www.w3.org/Graphics/SVG/1.1/DTD/svg11.dtd">
<!-- Generated by graphviz version 2.40.1 (20161225.0304)
 -->
<!-- Title: oneDegreeRelationshipsDiagram Pages: 1 -->
<svg width="413pt" height="281pt"
 viewBox="0.00 0.00 413.00 281.20" xmlns="http://www.w3.org/2000/svg" xmlns:xlink="http://www.w3.org/1999/xlink">
<g id="graph0" class="graph" transform="scale(1 1) rotate(0) translate(4 277.2)">
<title>oneDegreeRelationshipsDiagram</title>
<polygon fill="#ffffff" stroke="transparent" points="-4,4 -4,-277.2 409,-277.2 409,4 -4,4"/>
<text text-anchor="middle" x="72.4936" y="-7.3" font-family="Helvetica,sans-Serif" font-size="11.00" fill="#000000">Generated by SchemaSpy</text>
<!-- gymnasts_classes -->
<g id="node1" class="node">
<title>gymnasts_classes</title>
<g id="a_node1"><a xlink:href="../../tables/gymnasts_classes.html" xlink:title="gymnasts_classes" target="_top">
<polygon fill="#ffffff" stroke="transparent" points="231,-117.7 231,-207.7 397,-207.7 397,-117.7 231,-117.7"/>
<polygon fill="#f5f5f5" stroke="transparent" points="233,-182.7 233,-205.7 395,-205.7 395,-182.7 233,-182.7"/>
<polygon fill="none" stroke="#000000" points="233,-182.7 233,-205.7 395,-205.7 395,-182.7 233,-182.7"/>
<text text-anchor="start" x="238" y="-191.8" font-family="Helvetica,sans-Serif" font-weight="bold" font-size="11.00" fill="#000000">gymnasts_classes</text>
<text text-anchor="start" x="360.0437" y="-190.8" font-family="Helvetica,sans-Serif" font-size="11.00" fill="#000000">[table]</text>
<polygon fill="none" stroke="#000000" points="233,-160.7 233,-182.7 360,-182.7 360,-160.7 233,-160.7"/>
<image xlink:href="../../images/primaryKeys.png" width="11px" height="12px" preserveAspectRatio="xMinYMin meet" x="238" y="-177.7"/>
<text text-anchor="start" x="253" y="-167.8" font-family="Helvetica,sans-Serif" font-size="11.00" fill="#000000">gymnasts_id</text>
<polygon fill="none" stroke="#000000" points="360,-160.7 360,-182.7 395,-182.7 395,-160.7 360,-160.7"/>
<text text-anchor="start" x="362.5219" y="-168.4" font-family="Helvetica,sans-Serif" font-size="11.00" fill="#000000">int[10]</text>
<polygon fill="none" stroke="#000000" points="233,-138.7 233,-160.7 360,-160.7 360,-138.7 233,-138.7"/>
<image xlink:href="../../images/primaryKeys.png" width="11px" height="12px" preserveAspectRatio="xMinYMin meet" x="238" y="-155.7"/>
<text text-anchor="start" x="253" y="-145.8" font-family="Helvetica,sans-Serif" font-size="11.00" fill="#000000">classes_id</text>
<polygon fill="none" stroke="#000000" points="360,-138.7 360,-160.7 395,-160.7 395,-138.7 360,-138.7"/>
<text text-anchor="start" x="362.5219" y="-146.4" font-family="Helvetica,sans-Serif" font-size="11.00" fill="#000000">int[10]</text>
<polygon fill="#ffffff" stroke="transparent" points="233,-119.7 233,-138.7 288,-138.7 288,-119.7 233,-119.7"/>
<polygon fill="none" stroke="#000000" points="233,-119.7 233,-138.7 288,-138.7 288,-119.7 233,-119.7"/>
<text text-anchor="start" x="236" y="-125.8" font-family="Helvetica,sans-Serif" font-size="11.00" fill="#000000">&lt; 2</text>
<polygon fill="#ffffff" stroke="transparent" points="288,-119.7 288,-138.7 360,-138.7 360,-119.7 288,-119.7"/>
<polygon fill="none" stroke="#000000" points="288,-119.7 288,-138.7 360,-138.7 360,-119.7 288,-119.7"/>
<text text-anchor="start" x="324.6105" y="-125.8" font-family="Helvetica,sans-Serif" font-size="11.00" fill="#000000">0 rows</text>
<polygon fill="#ffffff" stroke="transparent" points="360,-119.7 360,-138.7 395,-138.7 395,-119.7 360,-119.7"/>
<polygon fill="none" stroke="#000000" points="360,-119.7 360,-138.7 395,-138.7 395,-119.7 360,-119.7"/>
<text text-anchor="start" x="376.4053" y="-125.8" font-family="Helvetica,sans-Serif" font-size="11.00" fill="#000000">0 &gt;</text>
<polygon fill="none" stroke="#000000" stroke-width="2" points="232,-118.7 232,-206.7 396,-206.7 396,-118.7 232,-118.7"/>
</a>
</g>
</g>
<!-- classes -->
<g id="node2" class="node">
<title>classes</title>
<g id="a_node2"><a xlink:href="../../tables/classes.html" xlink:title="classes" target="_top">
<polygon fill="#ffffff" stroke="transparent" points="52.5,-38.2 52.5,-121.2 137.5,-121.2 137.5,-38.2 52.5,-38.2"/>
<polygon fill="#f5f5f5" stroke="transparent" points="53,-97.7 53,-120.7 138,-120.7 138,-97.7 53,-97.7"/>
<polygon fill="none" stroke="#000000" points="53,-97.7 53,-120.7 138,-120.7 138,-97.7 53,-97.7"/>
<text text-anchor="start" x="58" y="-106.8" font-family="Helvetica,sans-Serif" font-weight="bold" font-size="11.00" fill="#000000">classes</text>
<text text-anchor="start" x="103.0437" y="-105.8" font-family="Helvetica,sans-Serif" font-size="11.00" fill="#000000">[table]</text>
<polygon fill="none" stroke="#000000" points="53,-75.7 53,-97.7 138,-97.7 138,-75.7 53,-75.7"/>
<image xlink:href="../../images/primaryKeys.png" width="11px" height="12px" preserveAspectRatio="xMinYMin meet" x="58" y="-92.7"/>
<text text-anchor="start" x="73" y="-82.8" font-family="Helvetica,sans-Serif" font-size="11.00" fill="#000000">id</text>
<polygon fill="none" stroke="#000000" points="53,-56.7 53,-75.7 138,-75.7 138,-56.7 53,-56.7"/>
<text text-anchor="start" x="56" y="-62.8" font-family="Helvetica,sans-Serif" font-size="11.00" fill="#000000">...</text>
<polygon fill="#ffffff" stroke="transparent" points="53,-37.7 53,-56.7 72,-56.7 72,-37.7 53,-37.7"/>
<polygon fill="none" stroke="#000000" points="53,-37.7 53,-56.7 72,-56.7 72,-37.7 53,-37.7"/>
<text text-anchor="start" x="56" y="-43.8" font-family="Helvetica,sans-Serif" font-size="11.00" fill="#000000"> &#160;</text>
<polygon fill="#ffffff" stroke="transparent" points="72,-37.7 72,-56.7 113,-56.7 113,-37.7 72,-37.7"/>
<polygon fill="none" stroke="#000000" points="72,-37.7 72,-56.7 113,-56.7 113,-37.7 72,-37.7"/>
<text text-anchor="start" x="77.6105" y="-43.8" font-family="Helvetica,sans-Serif" font-size="11.00" fill="#000000">0 rows</text>
<polygon fill="#ffffff" stroke="transparent" points="113,-37.7 113,-56.7 138,-56.7 138,-37.7 113,-37.7"/>
<polygon fill="none" stroke="#000000" points="113,-37.7 113,-56.7 138,-56.7 138,-37.7 113,-37.7"/>
<text text-anchor="start" x="119.4053" y="-43.8" font-family="Helvetica,sans-Serif" font-size="11.00" fill="#000000">3 &gt;</text>
</a>
</g>
</g>
<!-- gymnasts_classes&#45;&gt;classes -->
<g id="edge1" class="edge">
<title>gymnasts_classes:w&#45;&gt;classes:e</title>
<path fill="none" stroke="#000000" d="M218.2724,-147.6039C183.0392,-136.6724 183.1215,-86.7 138,-86.7"/>
<polygon fill="#000000" stroke="#000000" points="225.0798,-148.5727 232.4927,-153.2641 229.0399,-149.1364 233,-149.7 233,-149.7 233,-149.7 229.0399,-149.1364 233.5073,-146.1359 225.0798,-148.5727 225.0798,-148.5727"/>
<ellipse fill="none" stroke="#000000" cx="221.9117" cy="-148.1218" rx="3.2" ry="3.2"/>
</g>
<!-- gymnasts -->
<g id="node3" class="node">
<title>gymnasts</title>
<g id="a_node3"><a xlink:href="../../tables/gymnasts.html" xlink:title="gymnasts" target="_top">
<polygon fill="#ffffff" stroke="transparent" points="8,-142.2 8,-269.2 182,-269.2 182,-142.2 8,-142.2"/>
<polygon fill="#f5f5f5" stroke="transparent" points="8,-245.7 8,-268.7 182,-268.7 182,-245.7 8,-245.7"/>
<polygon fill="none" stroke="#000000" points="8,-245.7 8,-268.7 182,-268.7 182,-245.7 8,-245.7"/>
<text text-anchor="start" x="13" y="-254.8" font-family="Helvetica,sans-Serif" font-weight="bold" font-size="11.00" fill="#000000">gymnasts</text>
<text text-anchor="start" x="147.0437" y="-253.8" font-family="Helvetica,sans-Serif" font-size="11.00" fill="#000000">[table]</text>
<polygon fill="none" stroke="#000000" points="8,-223.7 8,-245.7 182,-245.7 182,-223.7 8,-223.7"/>
<image xlink:href="../../images/primaryKeys.png" width="11px" height="12px" preserveAspectRatio="xMinYMin meet" x="13" y="-240.7"/>
<text text-anchor="start" x="28" y="-230.8" font-family="Helvetica,sans-Serif" font-size="11.00" fill="#000000">id</text>
<polygon fill="#ffffff" stroke="transparent" points="8,-201.7 8,-223.7 182,-223.7 182,-201.7 8,-201.7"/>
<polygon fill="none" stroke="#000000" points="8,-201.7 8,-223.7 182,-223.7 182,-201.7 8,-201.7"/>
<image xlink:href="../../images/foreignKeys.png" width="11px" height="12px" preserveAspectRatio="xMinYMin meet" x="13" y="-218.7"/>
<text text-anchor="start" x="28" y="-208.8" font-family="Helvetica,sans-Serif" font-size="11.00" fill="#000000">gyms_has_users_gyms_id</text>
<polygon fill="#ffffff" stroke="transparent" points="8,-179.7 8,-201.7 182,-201.7 182,-179.7 8,-179.7"/>
<polygon fill="none" stroke="#000000" points="8,-179.7 8,-201.7 182,-201.7 182,-179.7 8,-179.7"/>
<image xlink:href="../../images/foreignKeys.png" width="11px" height="12px" preserveAspectRatio="xMinYMin meet" x="13" y="-196.7"/>
<text text-anchor="start" x="28" y="-186.8" font-family="Helvetica,sans-Serif" font-size="11.00" fill="#000000">gyms_has_users_users_id</text>
<polygon fill="none" stroke="#000000" points="8,-160.7 8,-179.7 182,-179.7 182,-160.7 8,-160.7"/>
<text text-anchor="start" x="11" y="-166.8" font-family="Helvetica,sans-Serif" font-size="11.00" fill="#000000">...</text>
<polygon fill="#ffffff" stroke="transparent" points="8,-141.7 8,-160.7 76,-160.7 76,-141.7 8,-141.7"/>
<polygon fill="none" stroke="#000000" points="8,-141.7 8,-160.7 76,-160.7 76,-141.7 8,-141.7"/>
<text text-anchor="start" x="11" y="-147.8" font-family="Helvetica,sans-Serif" font-size="11.00" fill="#000000">&lt; 2</text>
<polygon fill="#ffffff" stroke="transparent" points="76,-141.7 76,-160.7 137,-160.7 137,-141.7 76,-141.7"/>
<polygon fill="none" stroke="#000000" points="76,-141.7 76,-160.7 137,-160.7 137,-141.7 76,-141.7"/>
<text text-anchor="start" x="101.6105" y="-147.8" font-family="Helvetica,sans-Serif" font-size="11.00" fill="#000000">0 rows</text>
<polygon fill="#ffffff" stroke="transparent" points="137,-141.7 137,-160.7 182,-160.7 182,-141.7 137,-141.7"/>
<polygon fill="none" stroke="#000000" points="137,-141.7 137,-160.7 182,-160.7 182,-141.7 137,-141.7"/>
<text text-anchor="start" x="163.4053" y="-147.8" font-family="Helvetica,sans-Serif" font-size="11.00" fill="#000000">4 &gt;</text>
</a>
</g>
</g>
<!-- gymnasts_classes&#45;&gt;gymnasts -->
<g id="edge2" class="edge">
<title>gymnasts_classes:w&#45;&gt;gymnasts:e</title>
<path fill="none" stroke="#000000" d="M218.9033,-176.6435C202.525,-191.4952 211.8329,-234.7 182,-234.7"/>
<polygon fill="#000000" stroke="#000000" points="225.4507,-174.3474 234.1913,-175.0972 229.2254,-173.0237 233,-171.7 233,-171.7 233,-171.7 229.2254,-173.0237 231.8087,-168.3028 225.4507,-174.3474 225.4507,-174.3474"/>
<ellipse fill="none" stroke="#000000" cx="222.431" cy="-175.4064" rx="3.2" ry="3.2"/>
</g>
</g>
</svg>
