<?xml version="1.0" encoding="UTF-8" standalone="no"?>
<!DOCTYPE svg PUBLIC "-//W3C//DTD SVG 1.1//EN"
 "http://www.w3.org/Graphics/SVG/1.1/DTD/svg11.dtd">
<!-- Generated by graphviz version 2.40.1 (20161225.0304)
 -->
<!-- Title: twoDegreesRelationshipsDiagram Pages: 1 -->
<svg width="658pt" height="508pt"
 viewBox="0.00 0.00 658.00 508.20" xmlns="http://www.w3.org/2000/svg" xmlns:xlink="http://www.w3.org/1999/xlink">
<g id="graph0" class="graph" transform="scale(1 1) rotate(0) translate(4 504.2)">
<title>twoDegreesRelationshipsDiagram</title>
<polygon fill="#ffffff" stroke="transparent" points="-4,4 -4,-504.2 654,-504.2 654,4 -4,4"/>
<text text-anchor="middle" x="72.4936" y="-7.3" font-family="Helvetica,sans-Serif" font-size="11.00" fill="#000000">Generated by SchemaSpy</text>
<!-- completed_daily_challenges -->
<g id="node1" class="node">
<title>completed_daily_challenges</title>
<g id="a_node1"><a xlink:href="../../tables/completed_daily_challenges.html" xlink:title="completed_daily_challenges" target="_top">
<polygon fill="#ffffff" stroke="transparent" points="433.5,-435.2 433.5,-496.2 614.5,-496.2 614.5,-435.2 433.5,-435.2"/>
<polygon fill="#f5f5f5" stroke="transparent" points="434,-472.7 434,-495.7 615,-495.7 615,-472.7 434,-472.7"/>
<polygon fill="none" stroke="#000000" points="434,-472.7 434,-495.7 615,-495.7 615,-472.7 434,-472.7"/>
<text text-anchor="start" x="438.9266" y="-481.8" font-family="Helvetica,sans-Serif" font-weight="bold" font-size="11.00" fill="#000000">completed_daily_challenges</text>
<text text-anchor="start" x="580.5219" y="-480.8" font-family="Helvetica,sans-Serif" font-size="11.00" fill="#000000">[table]</text>
<polygon fill="none" stroke="#000000" points="434,-453.7 434,-472.7 615,-472.7 615,-453.7 434,-453.7"/>
<text text-anchor="start" x="437" y="-459.8" font-family="Helvetica,sans-Serif" font-size="11.00" fill="#000000">...</text>
<polygon fill="#ffffff" stroke="transparent" points="434,-434.7 434,-453.7 510,-453.7 510,-434.7 434,-434.7"/>
<polygon fill="none" stroke="#000000" points="434,-434.7 434,-453.7 510,-453.7 510,-434.7 434,-434.7"/>
<text text-anchor="start" x="437" y="-440.8" font-family="Helvetica,sans-Serif" font-size="11.00" fill="#000000">&lt; 4</text>
<polygon fill="#ffffff" stroke="transparent" points="510,-434.7 510,-453.7 575,-453.7 575,-434.7 510,-434.7"/>
<polygon fill="none" stroke="#000000" points="510,-434.7 510,-453.7 575,-453.7 575,-434.7 510,-434.7"/>
<text text-anchor="start" x="539.6105" y="-440.8" font-family="Helvetica,sans-Serif" font-size="11.00" fill="#000000">0 rows</text>
<polygon fill="#ffffff" stroke="transparent" points="575,-434.7 575,-453.7 615,-453.7 615,-434.7 575,-434.7"/>
<polygon fill="none" stroke="#000000" points="575,-434.7 575,-453.7 615,-453.7 615,-434.7 575,-434.7"/>
<text text-anchor="start" x="605.8862" y="-440.8" font-family="Helvetica,sans-Serif" font-size="11.00" fill="#000000"> &#160;</text>
</a>
</g>
</g>
<!-- gymnasts -->
<g id="node2" class="node">
<title>gymnasts</title>
<g id="a_node2"><a xlink:href="../../tables/gymnasts.html" xlink:title="gymnasts" target="_top">
<polygon fill="#ffffff" stroke="transparent" points="183,-270.2 183,-397.2 357,-397.2 357,-270.2 183,-270.2"/>
<polygon fill="#f5f5f5" stroke="transparent" points="183,-373.7 183,-396.7 357,-396.7 357,-373.7 183,-373.7"/>
<polygon fill="none" stroke="#000000" points="183,-373.7 183,-396.7 357,-396.7 357,-373.7 183,-373.7"/>
<text text-anchor="start" x="188" y="-382.8" font-family="Helvetica,sans-Serif" font-weight="bold" font-size="11.00" fill="#000000">gymnasts</text>
<text text-anchor="start" x="322.0437" y="-381.8" font-family="Helvetica,sans-Serif" font-size="11.00" fill="#000000">[table]</text>
<polygon fill="none" stroke="#000000" points="183,-351.7 183,-373.7 357,-373.7 357,-351.7 183,-351.7"/>
<image xlink:href="../../images/primaryKeys.png" width="11px" height="12px" preserveAspectRatio="xMinYMin meet" x="188" y="-368.7"/>
<text text-anchor="start" x="203" y="-358.8" font-family="Helvetica,sans-Serif" font-size="11.00" fill="#000000">id</text>
<polygon fill="#ffffff" stroke="transparent" points="183,-329.7 183,-351.7 357,-351.7 357,-329.7 183,-329.7"/>
<polygon fill="none" stroke="#000000" points="183,-329.7 183,-351.7 357,-351.7 357,-329.7 183,-329.7"/>
<image xlink:href="../../images/foreignKeys.png" width="11px" height="12px" preserveAspectRatio="xMinYMin meet" x="188" y="-346.7"/>
<text text-anchor="start" x="203" y="-336.8" font-family="Helvetica,sans-Serif" font-size="11.00" fill="#000000">gyms_has_users_gyms_id</text>
<polygon fill="#ffffff" stroke="transparent" points="183,-307.7 183,-329.7 357,-329.7 357,-307.7 183,-307.7"/>
<polygon fill="none" stroke="#000000" points="183,-307.7 183,-329.7 357,-329.7 357,-307.7 183,-307.7"/>
<image xlink:href="../../images/foreignKeys.png" width="11px" height="12px" preserveAspectRatio="xMinYMin meet" x="188" y="-324.7"/>
<text text-anchor="start" x="203" y="-314.8" font-family="Helvetica,sans-Serif" font-size="11.00" fill="#000000">gyms_has_users_users_id</text>
<polygon fill="none" stroke="#000000" points="183,-288.7 183,-307.7 357,-307.7 357,-288.7 183,-288.7"/>
<text text-anchor="start" x="186" y="-294.8" font-family="Helvetica,sans-Serif" font-size="11.00" fill="#000000">...</text>
<polygon fill="#ffffff" stroke="transparent" points="183,-269.7 183,-288.7 251,-288.7 251,-269.7 183,-269.7"/>
<polygon fill="none" stroke="#000000" points="183,-269.7 183,-288.7 251,-288.7 251,-269.7 183,-269.7"/>
<text text-anchor="start" x="186" y="-275.8" font-family="Helvetica,sans-Serif" font-size="11.00" fill="#000000">&lt; 2</text>
<polygon fill="#ffffff" stroke="transparent" points="251,-269.7 251,-288.7 312,-288.7 312,-269.7 251,-269.7"/>
<polygon fill="none" stroke="#000000" points="251,-269.7 251,-288.7 312,-288.7 312,-269.7 251,-269.7"/>
<text text-anchor="start" x="276.6105" y="-275.8" font-family="Helvetica,sans-Serif" font-size="11.00" fill="#000000">0 rows</text>
<polygon fill="#ffffff" stroke="transparent" points="312,-269.7 312,-288.7 357,-288.7 357,-269.7 312,-269.7"/>
<polygon fill="none" stroke="#000000" points="312,-269.7 312,-288.7 357,-288.7 357,-269.7 312,-269.7"/>
<text text-anchor="start" x="338.4053" y="-275.8" font-family="Helvetica,sans-Serif" font-size="11.00" fill="#000000">4 &gt;</text>
</a>
</g>
</g>
<!-- completed_daily_challenges&#45;&gt;gymnasts -->
<g id="edge1" class="edge">
<title>completed_daily_challenges:w&#45;&gt;gymnasts:e</title>
<path fill="none" stroke="#000000" d="M419.9806,-458.9125C410.5141,-452.3004 408.6272,-438.0774 398,-424.7 377.451,-398.8331 390.0357,-362.7 357,-362.7"/>
<polygon fill="#000000" stroke="#000000" points="426.2769,-460.6135 433.0611,-466.1754 430.1384,-461.6567 434,-462.7 434,-462.7 434,-462.7 430.1384,-461.6567 434.9389,-459.2246 426.2769,-460.6135 426.2769,-460.6135"/>
<ellipse fill="none" stroke="#000000" cx="423.1876" cy="-459.7789" rx="3.2" ry="3.2"/>
</g>
<!-- gyms_has_users -->
<g id="node6" class="node">
<title>gyms_has_users</title>
<g id="a_node6"><a xlink:href="../../tables/gyms_has_users.html" xlink:title="gyms_has_users" target="_top">
<polygon fill="#ffffff" stroke="transparent" points="8,-302.2 8,-363.2 134,-363.2 134,-302.2 8,-302.2"/>
<polygon fill="#f5f5f5" stroke="transparent" points="8,-339.7 8,-362.7 134,-362.7 134,-339.7 8,-339.7"/>
<polygon fill="none" stroke="#000000" points="8,-339.7 8,-362.7 134,-362.7 134,-339.7 8,-339.7"/>
<text text-anchor="start" x="12.9359" y="-348.8" font-family="Helvetica,sans-Serif" font-weight="bold" font-size="11.00" fill="#000000">gyms_has_users</text>
<text text-anchor="start" x="99.5219" y="-347.8" font-family="Helvetica,sans-Serif" font-size="11.00" fill="#000000">[table]</text>
<polygon fill="none" stroke="#000000" points="8,-320.7 8,-339.7 134,-339.7 134,-320.7 8,-320.7"/>
<text text-anchor="start" x="11" y="-326.8" font-family="Helvetica,sans-Serif" font-size="11.00" fill="#000000">...</text>
<polygon fill="#ffffff" stroke="transparent" points="8,-301.7 8,-320.7 52,-320.7 52,-301.7 8,-301.7"/>
<polygon fill="none" stroke="#000000" points="8,-301.7 8,-320.7 52,-320.7 52,-301.7 8,-301.7"/>
<text text-anchor="start" x="11" y="-307.8" font-family="Helvetica,sans-Serif" font-size="11.00" fill="#000000">&lt; 2</text>
<polygon fill="#ffffff" stroke="transparent" points="52,-301.7 52,-320.7 101,-320.7 101,-301.7 52,-301.7"/>
<polygon fill="none" stroke="#000000" points="52,-301.7 52,-320.7 101,-320.7 101,-301.7 52,-301.7"/>
<text text-anchor="start" x="65.6105" y="-307.8" font-family="Helvetica,sans-Serif" font-size="11.00" fill="#000000">0 rows</text>
<polygon fill="#ffffff" stroke="transparent" points="101,-301.7 101,-320.7 134,-320.7 134,-301.7 101,-301.7"/>
<polygon fill="none" stroke="#000000" points="101,-301.7 101,-320.7 134,-320.7 134,-301.7 101,-301.7"/>
<text text-anchor="start" x="115.4053" y="-307.8" font-family="Helvetica,sans-Serif" font-size="11.00" fill="#000000">2 &gt;</text>
</a>
</g>
</g>
<!-- gymnasts&#45;&gt;gyms_has_users -->
<g id="edge5" class="edge">
<title>gymnasts:w&#45;&gt;gyms_has_users:e</title>
<path fill="none" stroke="#000000" d="M168.7027,-338.8836C157.2382,-335.7593 150.5655,-329.7 134,-329.7"/>
<polygon fill="#000000" stroke="#000000" points="175.0638,-339.6917 182.5463,-344.2713 179.0319,-340.1958 183,-340.7 183,-340.7 183,-340.7 179.0319,-340.1958 183.4537,-337.1287 175.0638,-339.6917 175.0638,-339.6917"/>
<ellipse fill="none" stroke="#000000" cx="171.8893" cy="-339.2884" rx="3.2" ry="3.2"/>
</g>
<!-- gymnasts&#45;&gt;gyms_has_users -->
<g id="edge6" class="edge">
<title>gymnasts:w&#45;&gt;gyms_has_users:e</title>
<path fill="none" stroke="#000000" d="M168.7027,-320.5164C157.2382,-323.6407 150.5655,-329.7 134,-329.7"/>
<polygon fill="#000000" stroke="#000000" points="175.0638,-319.7083 183.4537,-322.2713 179.0319,-319.2042 183,-318.7 183,-318.7 183,-318.7 179.0319,-319.2042 182.5463,-315.1287 175.0638,-319.7083 175.0638,-319.7083"/>
<ellipse fill="none" stroke="#000000" cx="171.8893" cy="-320.1116" rx="3.2" ry="3.2"/>
</g>
<!-- completed_normal_challenges -->
<g id="node3" class="node">
<title>completed_normal_challenges</title>
<g id="a_node3"><a xlink:href="../../tables/completed_normal_challenges.html" xlink:title="completed_normal_challenges" target="_top">
<polygon fill="#ffffff" stroke="transparent" points="428,-353.2 428,-414.2 620,-414.2 620,-353.2 428,-353.2"/>
<polygon fill="#f5f5f5" stroke="transparent" points="428,-390.7 428,-413.7 620,-413.7 620,-390.7 428,-390.7"/>
<polygon fill="none" stroke="#000000" points="428,-390.7 428,-413.7 620,-413.7 620,-390.7 428,-390.7"/>
<text text-anchor="start" x="432.9277" y="-399.8" font-family="Helvetica,sans-Serif" font-weight="bold" font-size="11.00" fill="#000000">completed_normal_challenges</text>
<text text-anchor="start" x="585.5219" y="-398.8" font-family="Helvetica,sans-Serif" font-size="11.00" fill="#000000">[table]</text>
<polygon fill="none" stroke="#000000" points="428,-371.7 428,-390.7 620,-390.7 620,-371.7 428,-371.7"/>
<text text-anchor="start" x="431" y="-377.8" font-family="Helvetica,sans-Serif" font-size="11.00" fill="#000000">...</text>
<polygon fill="#ffffff" stroke="transparent" points="428,-352.7 428,-371.7 509,-371.7 509,-352.7 428,-352.7"/>
<polygon fill="none" stroke="#000000" points="428,-352.7 428,-371.7 509,-371.7 509,-352.7 428,-352.7"/>
<text text-anchor="start" x="431" y="-358.8" font-family="Helvetica,sans-Serif" font-size="11.00" fill="#000000">&lt; 3</text>
<polygon fill="#ffffff" stroke="transparent" points="509,-352.7 509,-371.7 577,-371.7 577,-352.7 509,-352.7"/>
<polygon fill="none" stroke="#000000" points="509,-352.7 509,-371.7 577,-371.7 577,-352.7 509,-352.7"/>
<text text-anchor="start" x="541.6105" y="-358.8" font-family="Helvetica,sans-Serif" font-size="11.00" fill="#000000">0 rows</text>
<polygon fill="#ffffff" stroke="transparent" points="577,-352.7 577,-371.7 620,-371.7 620,-352.7 577,-352.7"/>
<polygon fill="none" stroke="#000000" points="577,-352.7 577,-371.7 620,-371.7 620,-352.7 577,-352.7"/>
<text text-anchor="start" x="610.8862" y="-358.8" font-family="Helvetica,sans-Serif" font-size="11.00" fill="#000000"> &#160;</text>
</a>
</g>
</g>
<!-- completed_normal_challenges&#45;&gt;gymnasts -->
<g id="edge2" class="edge">
<title>completed_normal_challenges:w&#45;&gt;gymnasts:e</title>
<path fill="none" stroke="#000000" d="M413.5999,-379.3471C392.7145,-375.161 384.0858,-362.7 357,-362.7"/>
<polygon fill="#000000" stroke="#000000" points="420.0351,-379.9516 427.6632,-384.2842 424.0175,-380.3258 428,-380.7 428,-380.7 428,-380.7 424.0175,-380.3258 428.3368,-377.1158 420.0351,-379.9516 420.0351,-379.9516"/>
<ellipse fill="none" stroke="#000000" cx="416.8491" cy="-379.6523" rx="3.2" ry="3.2"/>
</g>
<!-- gymnast_has_skills -->
<g id="node4" class="node">
<title>gymnast_has_skills</title>
<g id="a_node4"><a xlink:href="../../tables/gymnast_has_skills.html" xlink:title="gymnast_has_skills" target="_top">
<polygon fill="#ffffff" stroke="transparent" points="406,-71.7 406,-249.7 642,-249.7 642,-71.7 406,-71.7"/>
<polygon fill="#f5f5f5" stroke="transparent" points="408,-224.7 408,-247.7 640,-247.7 640,-224.7 408,-224.7"/>
<polygon fill="none" stroke="#000000" points="408,-224.7 408,-247.7 640,-247.7 640,-224.7 408,-224.7"/>
<text text-anchor="start" x="413" y="-233.8" font-family="Helvetica,sans-Serif" font-weight="bold" font-size="11.00" fill="#000000">gymnast_has_skills</text>
<text text-anchor="start" x="605.0437" y="-232.8" font-family="Helvetica,sans-Serif" font-size="11.00" fill="#000000">[table]</text>
<polygon fill="none" stroke="#000000" points="408,-202.7 408,-224.7 542,-224.7 542,-202.7 408,-202.7"/>
<image xlink:href="../../images/primaryKeys.png" width="11px" height="12px" preserveAspectRatio="xMinYMin meet" x="413" y="-219.7"/>
<text text-anchor="start" x="428" y="-209.8" font-family="Helvetica,sans-Serif" font-size="11.00" fill="#000000">gymnast_id</text>
<polygon fill="none" stroke="#000000" points="542,-202.7 542,-224.7 640,-224.7 640,-202.7 542,-202.7"/>
<text text-anchor="start" x="545" y="-210.4" font-family="Helvetica,sans-Serif" font-size="11.00" fill="#000000">int[10]</text>
<polygon fill="none" stroke="#000000" points="408,-180.7 408,-202.7 542,-202.7 542,-180.7 408,-180.7"/>
<image xlink:href="../../images/primaryKeys.png" width="11px" height="12px" preserveAspectRatio="xMinYMin meet" x="413" y="-197.7"/>
<text text-anchor="start" x="428" y="-187.8" font-family="Helvetica,sans-Serif" font-size="11.00" fill="#000000">skills_Id</text>
<polygon fill="none" stroke="#000000" points="542,-180.7 542,-202.7 640,-202.7 640,-180.7 542,-180.7"/>
<text text-anchor="start" x="544.8429" y="-188.4" font-family="Helvetica,sans-Serif" font-size="11.00" fill="#000000">bigint unsigned[20]</text>
<polygon fill="none" stroke="#000000" points="408,-158.7 408,-180.7 542,-180.7 542,-158.7 408,-158.7"/>
<text text-anchor="start" x="428" y="-165.8" font-family="Helvetica,sans-Serif" font-size="11.00" fill="#000000">progress_status</text>
<polygon fill="none" stroke="#000000" points="542,-158.7 542,-180.7 640,-180.7 640,-158.7 542,-158.7"/>
<text text-anchor="start" x="545" y="-166.4" font-family="Helvetica,sans-Serif" font-size="11.00" fill="#000000">varchar[45]</text>
<polygon fill="none" stroke="#000000" points="408,-136.7 408,-158.7 542,-158.7 542,-136.7 408,-136.7"/>
<text text-anchor="start" x="428" y="-143.8" font-family="Helvetica,sans-Serif" font-size="11.00" fill="#000000">coach_verify</text>
<polygon fill="none" stroke="#000000" points="542,-136.7 542,-158.7 640,-158.7 640,-136.7 542,-136.7"/>
<text text-anchor="start" x="545" y="-144.4" font-family="Helvetica,sans-Serif" font-size="11.00" fill="#000000">json[1073741824]</text>
<polygon fill="none" stroke="#000000" points="408,-114.7 408,-136.7 542,-136.7 542,-114.7 408,-114.7"/>
<text text-anchor="start" x="428" y="-121.8" font-family="Helvetica,sans-Serif" font-size="11.00" fill="#000000">timestamp</text>
<polygon fill="none" stroke="#000000" points="542,-114.7 542,-136.7 640,-136.7 640,-114.7 542,-114.7"/>
<text text-anchor="start" x="545" y="-122.4" font-family="Helvetica,sans-Serif" font-size="11.00" fill="#000000">date[10]</text>
<polygon fill="none" stroke="#000000" points="408,-92.7 408,-114.7 542,-114.7 542,-92.7 408,-92.7"/>
<text text-anchor="start" x="428" y="-99.8" font-family="Helvetica,sans-Serif" font-size="11.00" fill="#000000">interactions</text>
<polygon fill="none" stroke="#000000" points="542,-92.7 542,-114.7 640,-114.7 640,-92.7 542,-92.7"/>
<text text-anchor="start" x="545" y="-100.4" font-family="Helvetica,sans-Serif" font-size="11.00" fill="#000000">json[1073741824]</text>
<polygon fill="#ffffff" stroke="transparent" points="408,-73.7 408,-92.7 466,-92.7 466,-73.7 408,-73.7"/>
<polygon fill="none" stroke="#000000" points="408,-73.7 408,-92.7 466,-92.7 466,-73.7 408,-73.7"/>
<text text-anchor="start" x="411" y="-79.8" font-family="Helvetica,sans-Serif" font-size="11.00" fill="#000000">&lt; 2</text>
<polygon fill="#ffffff" stroke="transparent" points="466,-73.7 466,-92.7 542,-92.7 542,-73.7 466,-73.7"/>
<polygon fill="none" stroke="#000000" points="466,-73.7 466,-92.7 542,-92.7 542,-73.7 466,-73.7"/>
<text text-anchor="start" x="506.6105" y="-79.8" font-family="Helvetica,sans-Serif" font-size="11.00" fill="#000000">0 rows</text>
<polygon fill="#ffffff" stroke="transparent" points="542,-73.7 542,-92.7 640,-92.7 640,-73.7 542,-73.7"/>
<polygon fill="none" stroke="#000000" points="542,-73.7 542,-92.7 640,-92.7 640,-73.7 542,-73.7"/>
<text text-anchor="start" x="621.4053" y="-79.8" font-family="Helvetica,sans-Serif" font-size="11.00" fill="#000000">0 &gt;</text>
<polygon fill="none" stroke="#000000" stroke-width="2" points="407,-72.7 407,-248.7 641,-248.7 641,-72.7 407,-72.7"/>
</a>
</g>
</g>
<!-- gymnast_has_skills&#45;&gt;gymnasts -->
<g id="edge3" class="edge">
<title>gymnast_has_skills:w&#45;&gt;gymnasts:e</title>
<path fill="none" stroke="#000000" d="M393.8088,-216.5434C351.5358,-237.1427 421.2523,-362.7 357,-362.7"/>
<polygon fill="#000000" stroke="#000000" points="400.1559,-215.2717 408.7073,-217.2298 404.078,-214.4859 408,-213.7 408,-213.7 408,-213.7 404.078,-214.4859 407.2927,-210.1702 400.1559,-215.2717 400.1559,-215.2717"/>
<ellipse fill="none" stroke="#000000" cx="397.0183" cy="-215.9004" rx="3.2" ry="3.2"/>
</g>
<!-- skills -->
<g id="node5" class="node">
<title>skills</title>
<g id="a_node5"><a xlink:href="../../tables/skills.html" xlink:title="skills" target="_top">
<polygon fill="#ffffff" stroke="transparent" points="226,-77.2 226,-226.2 314,-226.2 314,-77.2 226,-77.2"/>
<polygon fill="#f5f5f5" stroke="transparent" points="226,-202.7 226,-225.7 314,-225.7 314,-202.7 226,-202.7"/>
<polygon fill="none" stroke="#000000" points="226,-202.7 226,-225.7 314,-225.7 314,-202.7 226,-202.7"/>
<text text-anchor="start" x="231" y="-211.8" font-family="Helvetica,sans-Serif" font-weight="bold" font-size="11.00" fill="#000000">skills</text>
<text text-anchor="start" x="279.0437" y="-210.8" font-family="Helvetica,sans-Serif" font-size="11.00" fill="#000000">[table]</text>
<polygon fill="none" stroke="#000000" points="226,-180.7 226,-202.7 314,-202.7 314,-180.7 226,-180.7"/>
<image xlink:href="../../images/primaryKeys.png" width="11px" height="12px" preserveAspectRatio="xMinYMin meet" x="231" y="-197.7"/>
<text text-anchor="start" x="246" y="-187.8" font-family="Helvetica,sans-Serif" font-size="11.00" fill="#000000">id</text>
<polygon fill="#ffffff" stroke="transparent" points="226,-158.7 226,-180.7 314,-180.7 314,-158.7 226,-158.7"/>
<polygon fill="none" stroke="#000000" points="226,-158.7 226,-180.7 314,-180.7 314,-158.7 226,-158.7"/>
<image xlink:href="../../images/foreignKeys.png" width="11px" height="12px" preserveAspectRatio="xMinYMin meet" x="231" y="-175.7"/>
<text text-anchor="start" x="246" y="-165.8" font-family="Helvetica,sans-Serif" font-size="11.00" fill="#000000">event_id</text>
<polygon fill="#ffffff" stroke="transparent" points="226,-136.7 226,-158.7 314,-158.7 314,-136.7 226,-136.7"/>
<polygon fill="none" stroke="#000000" points="226,-136.7 226,-158.7 314,-158.7 314,-136.7 226,-136.7"/>
<image xlink:href="../../images/foreignKeys.png" width="11px" height="12px" preserveAspectRatio="xMinYMin meet" x="231" y="-153.7"/>
<text text-anchor="start" x="246" y="-143.8" font-family="Helvetica,sans-Serif" font-size="11.00" fill="#000000">category_id</text>
<polygon fill="#ffffff" stroke="transparent" points="226,-114.7 226,-136.7 314,-136.7 314,-114.7 226,-114.7"/>
<polygon fill="none" stroke="#000000" points="226,-114.7 226,-136.7 314,-136.7 314,-114.7 226,-114.7"/>
<image xlink:href="../../images/foreignKeys.png" width="11px" height="12px" preserveAspectRatio="xMinYMin meet" x="231" y="-131.7"/>
<text text-anchor="start" x="246" y="-121.8" font-family="Helvetica,sans-Serif" font-size="11.00" fill="#000000">level_id</text>
<polygon fill="none" stroke="#000000" points="226,-95.7 226,-114.7 314,-114.7 314,-95.7 226,-95.7"/>
<text text-anchor="start" x="229" y="-101.8" font-family="Helvetica,sans-Serif" font-size="11.00" fill="#000000">...</text>
<polygon fill="#ffffff" stroke="transparent" points="226,-76.7 226,-95.7 251,-95.7 251,-76.7 226,-76.7"/>
<polygon fill="none" stroke="#000000" points="226,-76.7 226,-95.7 251,-95.7 251,-76.7 226,-76.7"/>
<text text-anchor="start" x="229" y="-82.8" font-family="Helvetica,sans-Serif" font-size="11.00" fill="#000000">&lt; 3</text>
<polygon fill="#ffffff" stroke="transparent" points="251,-76.7 251,-95.7 291,-95.7 291,-76.7 251,-76.7"/>
<polygon fill="none" stroke="#000000" points="251,-76.7 251,-95.7 291,-95.7 291,-76.7 251,-76.7"/>
<text text-anchor="start" x="255.6105" y="-82.8" font-family="Helvetica,sans-Serif" font-size="11.00" fill="#000000">0 rows</text>
<polygon fill="#ffffff" stroke="transparent" points="291,-76.7 291,-95.7 314,-95.7 314,-76.7 291,-76.7"/>
<polygon fill="none" stroke="#000000" points="291,-76.7 291,-95.7 314,-95.7 314,-76.7 291,-76.7"/>
<text text-anchor="start" x="295.4053" y="-82.8" font-family="Helvetica,sans-Serif" font-size="11.00" fill="#000000">1 &gt;</text>
</a>
</g>
</g>
<!-- gymnast_has_skills&#45;&gt;skills -->
<g id="edge4" class="edge">
<title>gymnast_has_skills:w&#45;&gt;skills:e</title>
<path fill="none" stroke="#000000" d="M393.2715,-191.7C363.0089,-191.7 350.3924,-191.7 314,-191.7"/>
<polygon fill="#000000" stroke="#000000" points="400,-191.7001 408,-195.3 404,-191.7 408,-191.7 408,-191.7 408,-191.7 404,-191.7 408,-188.1 400,-191.7001 400,-191.7001"/>
<ellipse fill="none" stroke="#000000" cx="396.8" cy="-191.7001" rx="3.2" ry="3.2"/>
</g>
<!-- categories -->
<g id="node8" class="node">
<title>categories</title>
<g id="a_node8"><a xlink:href="../../tables/categories.html" xlink:title="categories" target="_top">
<polygon fill="#ffffff" stroke="transparent" points="24.5,-120.2 24.5,-181.2 117.5,-181.2 117.5,-120.2 24.5,-120.2"/>
<polygon fill="#f5f5f5" stroke="transparent" points="25,-157.7 25,-180.7 118,-180.7 118,-157.7 25,-157.7"/>
<polygon fill="none" stroke="#000000" points="25,-157.7 25,-180.7 118,-180.7 118,-157.7 25,-157.7"/>
<text text-anchor="start" x="29.6329" y="-166.8" font-family="Helvetica,sans-Serif" font-weight="bold" font-size="11.00" fill="#000000">categories</text>
<text text-anchor="start" x="83.5219" y="-165.8" font-family="Helvetica,sans-Serif" font-size="11.00" fill="#000000">[table]</text>
<polygon fill="none" stroke="#000000" points="25,-138.7 25,-157.7 118,-157.7 118,-138.7 25,-138.7"/>
<text text-anchor="start" x="28" y="-144.8" font-family="Helvetica,sans-Serif" font-size="11.00" fill="#000000">...</text>
<polygon fill="#ffffff" stroke="transparent" points="25,-119.7 25,-138.7 48,-138.7 48,-119.7 25,-119.7"/>
<polygon fill="none" stroke="#000000" points="25,-119.7 25,-138.7 48,-138.7 48,-119.7 25,-119.7"/>
<text text-anchor="start" x="28" y="-125.8" font-family="Helvetica,sans-Serif" font-size="11.00" fill="#000000"> &#160;</text>
<polygon fill="#ffffff" stroke="transparent" points="48,-119.7 48,-138.7 91,-138.7 91,-119.7 48,-119.7"/>
<polygon fill="none" stroke="#000000" points="48,-119.7 48,-138.7 91,-138.7 91,-119.7 48,-119.7"/>
<text text-anchor="start" x="55.6105" y="-125.8" font-family="Helvetica,sans-Serif" font-size="11.00" fill="#000000">0 rows</text>
<polygon fill="#ffffff" stroke="transparent" points="91,-119.7 91,-138.7 118,-138.7 118,-119.7 91,-119.7"/>
<polygon fill="none" stroke="#000000" points="91,-119.7 91,-138.7 118,-138.7 118,-119.7 91,-119.7"/>
<text text-anchor="start" x="99.4053" y="-125.8" font-family="Helvetica,sans-Serif" font-size="11.00" fill="#000000">1 &gt;</text>
</a>
</g>
</g>
<!-- skills&#45;&gt;categories -->
<g id="edge8" class="edge">
<title>skills:w&#45;&gt;categories:e</title>
<path fill="none" stroke="#000000" d="M211.4478,-147.7C174.9443,-147.7 160.75,-147.7 118,-147.7"/>
<polygon fill="#000000" stroke="#000000" points="218,-147.7001 226,-151.3 222,-147.7 226,-147.7 226,-147.7 226,-147.7 222,-147.7 226,-144.1 218,-147.7001 218,-147.7001"/>
<ellipse fill="none" stroke="#000000" cx="214.8" cy="-147.7001" rx="3.2" ry="3.2"/>
</g>
<!-- events -->
<g id="node9" class="node">
<title>events</title>
<g id="a_node9"><a xlink:href="../../tables/events.html" xlink:title="events" target="_top">
<polygon fill="#ffffff" stroke="transparent" points="31,-202.2 31,-263.2 111,-263.2 111,-202.2 31,-202.2"/>
<polygon fill="#f5f5f5" stroke="transparent" points="31,-239.7 31,-262.7 111,-262.7 111,-239.7 31,-239.7"/>
<polygon fill="none" stroke="#000000" points="31,-239.7 31,-262.7 111,-262.7 111,-239.7 31,-239.7"/>
<text text-anchor="start" x="36" y="-248.8" font-family="Helvetica,sans-Serif" font-weight="bold" font-size="11.00" fill="#000000">events</text>
<text text-anchor="start" x="76.0437" y="-247.8" font-family="Helvetica,sans-Serif" font-size="11.00" fill="#000000">[table]</text>
<polygon fill="none" stroke="#000000" points="31,-220.7 31,-239.7 111,-239.7 111,-220.7 31,-220.7"/>
<text text-anchor="start" x="34" y="-226.8" font-family="Helvetica,sans-Serif" font-size="11.00" fill="#000000">...</text>
<polygon fill="#ffffff" stroke="transparent" points="31,-201.7 31,-220.7 52,-220.7 52,-201.7 31,-201.7"/>
<polygon fill="none" stroke="#000000" points="31,-201.7 31,-220.7 52,-220.7 52,-201.7 31,-201.7"/>
<text text-anchor="start" x="33.7027" y="-207.8" font-family="Helvetica,sans-Serif" font-size="11.00" fill="#000000">&lt; 1</text>
<polygon fill="#ffffff" stroke="transparent" points="52,-201.7 52,-220.7 90,-220.7 90,-201.7 52,-201.7"/>
<polygon fill="none" stroke="#000000" points="52,-201.7 52,-220.7 90,-220.7 90,-201.7 52,-201.7"/>
<text text-anchor="start" x="54.8053" y="-207.8" font-family="Helvetica,sans-Serif" font-size="11.00" fill="#000000">0 rows</text>
<polygon fill="#ffffff" stroke="transparent" points="90,-201.7 90,-220.7 111,-220.7 111,-201.7 90,-201.7"/>
<polygon fill="none" stroke="#000000" points="90,-201.7 90,-220.7 111,-220.7 111,-201.7 90,-201.7"/>
<text text-anchor="start" x="92.7027" y="-207.8" font-family="Helvetica,sans-Serif" font-size="11.00" fill="#000000">1 &gt;</text>
</a>
</g>
</g>
<!-- skills&#45;&gt;events -->
<g id="edge9" class="edge">
<title>skills:w&#45;&gt;events:e</title>
<path fill="none" stroke="#000000" d="M211.4992,-171.124C167.9171,-180.21 163.3574,-229.7 111,-229.7"/>
<polygon fill="#000000" stroke="#000000" points="218.0383,-170.4819 226.3518,-173.2828 222.0191,-170.0909 226,-169.7 226,-169.7 226,-169.7 222.0191,-170.0909 225.6482,-166.1172 218.0383,-170.4819 218.0383,-170.4819"/>
<ellipse fill="none" stroke="#000000" cx="214.8536" cy="-170.7946" rx="3.2" ry="3.2"/>
</g>
<!-- levels -->
<g id="node10" class="node">
<title>levels</title>
<g id="a_node10"><a xlink:href="../../tables/levels.html" xlink:title="levels" target="_top">
<polygon fill="#ffffff" stroke="transparent" points="35.5,-38.2 35.5,-99.2 106.5,-99.2 106.5,-38.2 35.5,-38.2"/>
<polygon fill="#f5f5f5" stroke="transparent" points="36,-75.7 36,-98.7 107,-98.7 107,-75.7 36,-75.7"/>
<polygon fill="none" stroke="#000000" points="36,-75.7 36,-98.7 107,-98.7 107,-75.7 36,-75.7"/>
<text text-anchor="start" x="40.9442" y="-84.8" font-family="Helvetica,sans-Serif" font-weight="bold" font-size="11.00" fill="#000000">levels</text>
<text text-anchor="start" x="72.5219" y="-83.8" font-family="Helvetica,sans-Serif" font-size="11.00" fill="#000000">[table]</text>
<polygon fill="none" stroke="#000000" points="36,-56.7 36,-75.7 107,-75.7 107,-56.7 36,-56.7"/>
<text text-anchor="start" x="39" y="-62.8" font-family="Helvetica,sans-Serif" font-size="11.00" fill="#000000">...</text>
<polygon fill="#ffffff" stroke="transparent" points="36,-37.7 36,-56.7 48,-56.7 48,-37.7 36,-37.7"/>
<polygon fill="none" stroke="#000000" points="36,-37.7 36,-56.7 48,-56.7 48,-37.7 36,-37.7"/>
<text text-anchor="start" x="38.9431" y="-43.8" font-family="Helvetica,sans-Serif" font-size="11.00" fill="#000000"> &#160;</text>
<polygon fill="#ffffff" stroke="transparent" points="48,-37.7 48,-56.7 86,-56.7 86,-37.7 48,-37.7"/>
<polygon fill="none" stroke="#000000" points="48,-37.7 48,-56.7 86,-56.7 86,-37.7 48,-37.7"/>
<text text-anchor="start" x="50.8053" y="-43.8" font-family="Helvetica,sans-Serif" font-size="11.00" fill="#000000">0 rows</text>
<polygon fill="#ffffff" stroke="transparent" points="86,-37.7 86,-56.7 107,-56.7 107,-37.7 86,-37.7"/>
<polygon fill="none" stroke="#000000" points="86,-37.7 86,-56.7 107,-56.7 107,-37.7 86,-37.7"/>
<text text-anchor="start" x="88.7027" y="-43.8" font-family="Helvetica,sans-Serif" font-size="11.00" fill="#000000">1 &gt;</text>
</a>
</g>
</g>
<!-- skills&#45;&gt;levels -->
<g id="edge10" class="edge">
<title>skills:w&#45;&gt;levels:e</title>
<path fill="none" stroke="#000000" d="M211.3715,-124.3341C166.1984,-115.4031 160.9097,-65.7 107,-65.7"/>
<polygon fill="#000000" stroke="#000000" points="218.0346,-124.9562 225.6653,-129.2844 222.0173,-125.3281 226,-125.7 226,-125.7 226,-125.7 222.0173,-125.3281 226.3347,-122.1156 218.0346,-124.9562 218.0346,-124.9562"/>
<ellipse fill="none" stroke="#000000" cx="214.8485" cy="-124.6587" rx="3.2" ry="3.2"/>
</g>
<!-- gymnasts_classes -->
<g id="node7" class="node">
<title>gymnasts_classes</title>
<g id="a_node7"><a xlink:href="../../tables/gymnasts_classes.html" xlink:title="gymnasts_classes" target="_top">
<polygon fill="#ffffff" stroke="transparent" points="458,-271.2 458,-332.2 590,-332.2 590,-271.2 458,-271.2"/>
<polygon fill="#f5f5f5" stroke="transparent" points="458,-308.7 458,-331.7 590,-331.7 590,-308.7 458,-308.7"/>
<polygon fill="none" stroke="#000000" points="458,-308.7 458,-331.7 590,-331.7 590,-308.7 458,-308.7"/>
<text text-anchor="start" x="462.5755" y="-317.8" font-family="Helvetica,sans-Serif" font-weight="bold" font-size="11.00" fill="#000000">gymnasts_classes</text>
<text text-anchor="start" x="555.5219" y="-316.8" font-family="Helvetica,sans-Serif" font-size="11.00" fill="#000000">[table]</text>
<polygon fill="none" stroke="#000000" points="458,-289.7 458,-308.7 590,-308.7 590,-289.7 458,-289.7"/>
<text text-anchor="start" x="461" y="-295.8" font-family="Helvetica,sans-Serif" font-size="11.00" fill="#000000">...</text>
<polygon fill="#ffffff" stroke="transparent" points="458,-270.7 458,-289.7 509,-289.7 509,-270.7 458,-270.7"/>
<polygon fill="none" stroke="#000000" points="458,-270.7 458,-289.7 509,-289.7 509,-270.7 458,-270.7"/>
<text text-anchor="start" x="461" y="-276.8" font-family="Helvetica,sans-Serif" font-size="11.00" fill="#000000">&lt; 2</text>
<polygon fill="#ffffff" stroke="transparent" points="509,-270.7 509,-289.7 562,-289.7 562,-270.7 509,-270.7"/>
<polygon fill="none" stroke="#000000" points="509,-270.7 509,-289.7 562,-289.7 562,-270.7 509,-270.7"/>
<text text-anchor="start" x="526.6105" y="-276.8" font-family="Helvetica,sans-Serif" font-size="11.00" fill="#000000">0 rows</text>
<polygon fill="#ffffff" stroke="transparent" points="562,-270.7 562,-289.7 590,-289.7 590,-270.7 562,-270.7"/>
<polygon fill="none" stroke="#000000" points="562,-270.7 562,-289.7 590,-289.7 590,-270.7 562,-270.7"/>
<text text-anchor="start" x="580.8862" y="-276.8" font-family="Helvetica,sans-Serif" font-size="11.00" fill="#000000"> &#160;</text>
</a>
</g>
</g>
<!-- gymnasts_classes&#45;&gt;gymnasts -->
<g id="edge7" class="edge">
<title>gymnasts_classes:w&#45;&gt;gymnasts:e</title>
<path fill="none" stroke="#000000" d="M444.1481,-302.8992C416.993,-317.1375 379.4194,-362.7 357,-362.7"/>
<polygon fill="#000000" stroke="#000000" points="450.3441,-301.0209 459.0444,-302.1452 454.172,-299.8605 458,-298.7 458,-298.7 458,-298.7 454.172,-299.8605 456.9556,-295.2548 450.3441,-301.0209 450.3441,-301.0209"/>
<ellipse fill="none" stroke="#000000" cx="447.2817" cy="-301.9493" rx="3.2" ry="3.2"/>
</g>
</g>
</svg>
