<?xml version="1.0" encoding="UTF-8" standalone="no"?>
<!DOCTYPE svg PUBLIC "-//W3C//DTD SVG 1.1//EN"
 "http://www.w3.org/Graphics/SVG/1.1/DTD/svg11.dtd">
<!-- Generated by graphviz version 2.40.1 (20161225.0304)
 -->
<!-- Title: twoDegreesRelationshipsDiagram Pages: 1 -->
<svg width="658pt" height="548pt"
 viewBox="0.00 0.00 658.00 548.20" xmlns="http://www.w3.org/2000/svg" xmlns:xlink="http://www.w3.org/1999/xlink">
<g id="graph0" class="graph" transform="scale(1 1) rotate(0) translate(4 544.2)">
<title>twoDegreesRelationshipsDiagram</title>
<polygon fill="#ffffff" stroke="transparent" points="-4,4 -4,-544.2 654,-544.2 654,4 -4,4"/>
<text text-anchor="middle" x="72.4936" y="-7.3" font-family="Helvetica,sans-Serif" font-size="11.00" fill="#000000">Generated by SchemaSpy</text>
<!-- completed_challenges -->
<g id="node1" class="node">
<title>completed_challenges</title>
<g id="a_node1"><a xlink:href="../../tables/completed_challenges.html" xlink:title="completed_challenges" target="_top">
<polygon fill="#ffffff" stroke="transparent" points="448,-475.2 448,-536.2 600,-536.2 600,-475.2 448,-475.2"/>
<polygon fill="#f5f5f5" stroke="transparent" points="448,-512.7 448,-535.7 600,-535.7 600,-512.7 448,-512.7"/>
<polygon fill="none" stroke="#000000" points="448,-512.7 448,-535.7 600,-535.7 600,-512.7 448,-512.7"/>
<text text-anchor="start" x="452.7899" y="-521.8" font-family="Helvetica,sans-Serif" font-weight="bold" font-size="11.00" fill="#000000">completed_challenges</text>
<text text-anchor="start" x="565.5219" y="-520.8" font-family="Helvetica,sans-Serif" font-size="11.00" fill="#000000">[table]</text>
<polygon fill="none" stroke="#000000" points="448,-493.7 448,-512.7 600,-512.7 600,-493.7 448,-493.7"/>
<text text-anchor="start" x="451" y="-499.8" font-family="Helvetica,sans-Serif" font-size="11.00" fill="#000000">...</text>
<polygon fill="#ffffff" stroke="transparent" points="448,-474.7 448,-493.7 509,-493.7 509,-474.7 448,-474.7"/>
<polygon fill="none" stroke="#000000" points="448,-474.7 448,-493.7 509,-493.7 509,-474.7 448,-474.7"/>
<text text-anchor="start" x="451" y="-480.8" font-family="Helvetica,sans-Serif" font-size="11.00" fill="#000000">&lt; 2</text>
<polygon fill="#ffffff" stroke="transparent" points="509,-474.7 509,-493.7 567,-493.7 567,-474.7 509,-474.7"/>
<polygon fill="none" stroke="#000000" points="509,-474.7 509,-493.7 567,-493.7 567,-474.7 509,-474.7"/>
<text text-anchor="start" x="531.6105" y="-480.8" font-family="Helvetica,sans-Serif" font-size="11.00" fill="#000000">0 rows</text>
<polygon fill="#ffffff" stroke="transparent" points="567,-474.7 567,-493.7 600,-493.7 600,-474.7 567,-474.7"/>
<polygon fill="none" stroke="#000000" points="567,-474.7 567,-493.7 600,-493.7 600,-474.7 567,-474.7"/>
<text text-anchor="start" x="590.8862" y="-480.8" font-family="Helvetica,sans-Serif" font-size="11.00" fill="#000000"> &#160;</text>
</a>
</g>
</g>
<!-- gymnasts -->
<g id="node2" class="node">
<title>gymnasts</title>
<g id="a_node2"><a xlink:href="../../tables/gymnasts.html" xlink:title="gymnasts" target="_top">
<polygon fill="#ffffff" stroke="transparent" points="183,-328.2 183,-455.2 357,-455.2 357,-328.2 183,-328.2"/>
<polygon fill="#f5f5f5" stroke="transparent" points="183,-431.7 183,-454.7 357,-454.7 357,-431.7 183,-431.7"/>
<polygon fill="none" stroke="#000000" points="183,-431.7 183,-454.7 357,-454.7 357,-431.7 183,-431.7"/>
<text text-anchor="start" x="188" y="-440.8" font-family="Helvetica,sans-Serif" font-weight="bold" font-size="11.00" fill="#000000">gymnasts</text>
<text text-anchor="start" x="322.0437" y="-439.8" font-family="Helvetica,sans-Serif" font-size="11.00" fill="#000000">[table]</text>
<polygon fill="none" stroke="#000000" points="183,-409.7 183,-431.7 357,-431.7 357,-409.7 183,-409.7"/>
<image xlink:href="../../images/primaryKeys.png" width="11px" height="12px" preserveAspectRatio="xMinYMin meet" x="188" y="-426.7"/>
<text text-anchor="start" x="203" y="-416.8" font-family="Helvetica,sans-Serif" font-size="11.00" fill="#000000">id</text>
<polygon fill="#ffffff" stroke="transparent" points="183,-387.7 183,-409.7 357,-409.7 357,-387.7 183,-387.7"/>
<polygon fill="none" stroke="#000000" points="183,-387.7 183,-409.7 357,-409.7 357,-387.7 183,-387.7"/>
<image xlink:href="../../images/foreignKeys.png" width="11px" height="12px" preserveAspectRatio="xMinYMin meet" x="188" y="-404.7"/>
<text text-anchor="start" x="203" y="-394.8" font-family="Helvetica,sans-Serif" font-size="11.00" fill="#000000">gyms_has_users_gyms_id</text>
<polygon fill="#ffffff" stroke="transparent" points="183,-365.7 183,-387.7 357,-387.7 357,-365.7 183,-365.7"/>
<polygon fill="none" stroke="#000000" points="183,-365.7 183,-387.7 357,-387.7 357,-365.7 183,-365.7"/>
<image xlink:href="../../images/foreignKeys.png" width="11px" height="12px" preserveAspectRatio="xMinYMin meet" x="188" y="-382.7"/>
<text text-anchor="start" x="203" y="-372.8" font-family="Helvetica,sans-Serif" font-size="11.00" fill="#000000">gyms_has_users_users_id</text>
<polygon fill="none" stroke="#000000" points="183,-346.7 183,-365.7 357,-365.7 357,-346.7 183,-346.7"/>
<text text-anchor="start" x="186" y="-352.8" font-family="Helvetica,sans-Serif" font-size="11.00" fill="#000000">...</text>
<polygon fill="#ffffff" stroke="transparent" points="183,-327.7 183,-346.7 251,-346.7 251,-327.7 183,-327.7"/>
<polygon fill="none" stroke="#000000" points="183,-327.7 183,-346.7 251,-346.7 251,-327.7 183,-327.7"/>
<text text-anchor="start" x="186" y="-333.8" font-family="Helvetica,sans-Serif" font-size="11.00" fill="#000000">&lt; 2</text>
<polygon fill="#ffffff" stroke="transparent" points="251,-327.7 251,-346.7 312,-346.7 312,-327.7 251,-327.7"/>
<polygon fill="none" stroke="#000000" points="251,-327.7 251,-346.7 312,-346.7 312,-327.7 251,-327.7"/>
<text text-anchor="start" x="276.6105" y="-333.8" font-family="Helvetica,sans-Serif" font-size="11.00" fill="#000000">0 rows</text>
<polygon fill="#ffffff" stroke="transparent" points="312,-327.7 312,-346.7 357,-346.7 357,-327.7 312,-327.7"/>
<polygon fill="none" stroke="#000000" points="312,-327.7 312,-346.7 357,-346.7 357,-327.7 312,-327.7"/>
<text text-anchor="start" x="338.4053" y="-333.8" font-family="Helvetica,sans-Serif" font-size="11.00" fill="#000000">3 &gt;</text>
</a>
</g>
</g>
<!-- completed_challenges&#45;&gt;gymnasts -->
<g id="edge1" class="edge">
<title>completed_challenges:w&#45;&gt;gymnasts:e</title>
<path fill="none" stroke="#000000" d="M433.4475,-500.3129C418.6436,-494.5921 414.3341,-479.4735 398,-464.7 378.1761,-446.7701 383.7296,-420.7 357,-420.7"/>
<polygon fill="#000000" stroke="#000000" points="440.1055,-501.405 447.4173,-506.2525 444.0527,-502.0525 448,-502.7 448,-502.7 448,-502.7 444.0527,-502.0525 448.5827,-499.1475 440.1055,-501.405 440.1055,-501.405"/>
<ellipse fill="none" stroke="#000000" cx="436.9477" cy="-500.887" rx="3.2" ry="3.2"/>
</g>
<!-- gyms_has_users -->
<g id="node5" class="node">
<title>gyms_has_users</title>
<g id="a_node5"><a xlink:href="../../tables/gyms_has_users.html" xlink:title="gyms_has_users" target="_top">
<polygon fill="#ffffff" stroke="transparent" points="8,-360.2 8,-421.2 134,-421.2 134,-360.2 8,-360.2"/>
<polygon fill="#f5f5f5" stroke="transparent" points="8,-397.7 8,-420.7 134,-420.7 134,-397.7 8,-397.7"/>
<polygon fill="none" stroke="#000000" points="8,-397.7 8,-420.7 134,-420.7 134,-397.7 8,-397.7"/>
<text text-anchor="start" x="12.9359" y="-406.8" font-family="Helvetica,sans-Serif" font-weight="bold" font-size="11.00" fill="#000000">gyms_has_users</text>
<text text-anchor="start" x="99.5219" y="-405.8" font-family="Helvetica,sans-Serif" font-size="11.00" fill="#000000">[table]</text>
<polygon fill="none" stroke="#000000" points="8,-378.7 8,-397.7 134,-397.7 134,-378.7 8,-378.7"/>
<text text-anchor="start" x="11" y="-384.8" font-family="Helvetica,sans-Serif" font-size="11.00" fill="#000000">...</text>
<polygon fill="#ffffff" stroke="transparent" points="8,-359.7 8,-378.7 52,-378.7 52,-359.7 8,-359.7"/>
<polygon fill="none" stroke="#000000" points="8,-359.7 8,-378.7 52,-378.7 52,-359.7 8,-359.7"/>
<text text-anchor="start" x="11" y="-365.8" font-family="Helvetica,sans-Serif" font-size="11.00" fill="#000000">&lt; 2</text>
<polygon fill="#ffffff" stroke="transparent" points="52,-359.7 52,-378.7 101,-378.7 101,-359.7 52,-359.7"/>
<polygon fill="none" stroke="#000000" points="52,-359.7 52,-378.7 101,-378.7 101,-359.7 52,-359.7"/>
<text text-anchor="start" x="65.6105" y="-365.8" font-family="Helvetica,sans-Serif" font-size="11.00" fill="#000000">0 rows</text>
<polygon fill="#ffffff" stroke="transparent" points="101,-359.7 101,-378.7 134,-378.7 134,-359.7 101,-359.7"/>
<polygon fill="none" stroke="#000000" points="101,-359.7 101,-378.7 134,-378.7 134,-359.7 101,-359.7"/>
<text text-anchor="start" x="115.4053" y="-365.8" font-family="Helvetica,sans-Serif" font-size="11.00" fill="#000000">2 &gt;</text>
</a>
</g>
</g>
<!-- gymnasts&#45;&gt;gyms_has_users -->
<g id="edge4" class="edge">
<title>gymnasts:w&#45;&gt;gyms_has_users:e</title>
<path fill="none" stroke="#000000" d="M168.7027,-396.8836C157.2382,-393.7593 150.5655,-387.7 134,-387.7"/>
<polygon fill="#000000" stroke="#000000" points="175.0638,-397.6917 182.5463,-402.2713 179.0319,-398.1958 183,-398.7 183,-398.7 183,-398.7 179.0319,-398.1958 183.4537,-395.1287 175.0638,-397.6917 175.0638,-397.6917"/>
<ellipse fill="none" stroke="#000000" cx="171.8893" cy="-397.2884" rx="3.2" ry="3.2"/>
</g>
<!-- gymnasts&#45;&gt;gyms_has_users -->
<g id="edge5" class="edge">
<title>gymnasts:w&#45;&gt;gyms_has_users:e</title>
<path fill="none" stroke="#000000" d="M168.7027,-378.5164C157.2382,-381.6407 150.5655,-387.7 134,-387.7"/>
<polygon fill="#000000" stroke="#000000" points="175.0638,-377.7083 183.4537,-380.2713 179.0319,-377.2042 183,-376.7 183,-376.7 183,-376.7 179.0319,-377.2042 182.5463,-373.1287 175.0638,-377.7083 175.0638,-377.7083"/>
<ellipse fill="none" stroke="#000000" cx="171.8893" cy="-378.1116" rx="3.2" ry="3.2"/>
</g>
<!-- gymnast_has_skills -->
<g id="node3" class="node">
<title>gymnast_has_skills</title>
<g id="a_node3"><a xlink:href="../../tables/gymnast_has_skills.html" xlink:title="gymnast_has_skills" target="_top">
<polygon fill="#ffffff" stroke="transparent" points="406,-171.7 406,-371.7 642,-371.7 642,-171.7 406,-171.7"/>
<polygon fill="#f5f5f5" stroke="transparent" points="408,-346.7 408,-369.7 640,-369.7 640,-346.7 408,-346.7"/>
<polygon fill="none" stroke="#000000" points="408,-346.7 408,-369.7 640,-369.7 640,-346.7 408,-346.7"/>
<text text-anchor="start" x="413" y="-355.8" font-family="Helvetica,sans-Serif" font-weight="bold" font-size="11.00" fill="#000000">gymnast_has_skills</text>
<text text-anchor="start" x="605.0437" y="-354.8" font-family="Helvetica,sans-Serif" font-size="11.00" fill="#000000">[table]</text>
<polygon fill="none" stroke="#000000" points="408,-324.7 408,-346.7 542,-346.7 542,-324.7 408,-324.7"/>
<image xlink:href="../../images/primaryKeys.png" width="11px" height="12px" preserveAspectRatio="xMinYMin meet" x="413" y="-341.7"/>
<text text-anchor="start" x="428" y="-331.8" font-family="Helvetica,sans-Serif" font-size="11.00" fill="#000000">gymnast_id</text>
<polygon fill="none" stroke="#000000" points="542,-324.7 542,-346.7 640,-346.7 640,-324.7 542,-324.7"/>
<text text-anchor="start" x="545" y="-332.4" font-family="Helvetica,sans-Serif" font-size="11.00" fill="#000000">bigint[19]</text>
<polygon fill="none" stroke="#000000" points="408,-302.7 408,-324.7 542,-324.7 542,-302.7 408,-302.7"/>
<image xlink:href="../../images/primaryKeys.png" width="11px" height="12px" preserveAspectRatio="xMinYMin meet" x="413" y="-319.7"/>
<text text-anchor="start" x="428" y="-309.8" font-family="Helvetica,sans-Serif" font-size="11.00" fill="#000000">skills_Id</text>
<polygon fill="none" stroke="#000000" points="542,-302.7 542,-324.7 640,-324.7 640,-302.7 542,-302.7"/>
<text text-anchor="start" x="544.8429" y="-310.4" font-family="Helvetica,sans-Serif" font-size="11.00" fill="#000000">bigint unsigned[20]</text>
<polygon fill="none" stroke="#000000" points="408,-280.7 408,-302.7 542,-302.7 542,-280.7 408,-280.7"/>
<text text-anchor="start" x="428" y="-287.8" font-family="Helvetica,sans-Serif" font-size="11.00" fill="#000000">progress_status</text>
<polygon fill="none" stroke="#000000" points="542,-280.7 542,-302.7 640,-302.7 640,-280.7 542,-280.7"/>
<text text-anchor="start" x="545" y="-288.4" font-family="Helvetica,sans-Serif" font-size="11.00" fill="#000000">int[10]</text>
<polygon fill="none" stroke="#000000" points="408,-258.7 408,-280.7 542,-280.7 542,-258.7 408,-258.7"/>
<text text-anchor="start" x="428" y="-265.8" font-family="Helvetica,sans-Serif" font-size="11.00" fill="#000000">coach_verify</text>
<polygon fill="none" stroke="#000000" points="542,-258.7 542,-280.7 640,-280.7 640,-258.7 542,-258.7"/>
<text text-anchor="start" x="545" y="-266.4" font-family="Helvetica,sans-Serif" font-size="11.00" fill="#000000">json[1073741824]</text>
<polygon fill="none" stroke="#000000" points="408,-236.7 408,-258.7 542,-258.7 542,-236.7 408,-236.7"/>
<text text-anchor="start" x="428" y="-243.8" font-family="Helvetica,sans-Serif" font-size="11.00" fill="#000000">interactions</text>
<polygon fill="none" stroke="#000000" points="542,-236.7 542,-258.7 640,-258.7 640,-236.7 542,-236.7"/>
<text text-anchor="start" x="545" y="-244.4" font-family="Helvetica,sans-Serif" font-size="11.00" fill="#000000">json[1073741824]</text>
<polygon fill="none" stroke="#000000" points="408,-214.7 408,-236.7 542,-236.7 542,-214.7 408,-214.7"/>
<text text-anchor="start" x="428" y="-221.8" font-family="Helvetica,sans-Serif" font-size="11.00" fill="#000000">created_at</text>
<polygon fill="none" stroke="#000000" points="542,-214.7 542,-236.7 640,-236.7 640,-214.7 542,-214.7"/>
<text text-anchor="start" x="545" y="-222.4" font-family="Helvetica,sans-Serif" font-size="11.00" fill="#000000">timestamp[19]</text>
<polygon fill="none" stroke="#000000" points="408,-192.7 408,-214.7 542,-214.7 542,-192.7 408,-192.7"/>
<text text-anchor="start" x="428" y="-199.8" font-family="Helvetica,sans-Serif" font-size="11.00" fill="#000000">updated_at</text>
<polygon fill="none" stroke="#000000" points="542,-192.7 542,-214.7 640,-214.7 640,-192.7 542,-192.7"/>
<text text-anchor="start" x="545" y="-200.4" font-family="Helvetica,sans-Serif" font-size="11.00" fill="#000000">timestamp[19]</text>
<polygon fill="#ffffff" stroke="transparent" points="408,-173.7 408,-192.7 466,-192.7 466,-173.7 408,-173.7"/>
<polygon fill="none" stroke="#000000" points="408,-173.7 408,-192.7 466,-192.7 466,-173.7 408,-173.7"/>
<text text-anchor="start" x="411" y="-179.8" font-family="Helvetica,sans-Serif" font-size="11.00" fill="#000000">&lt; 2</text>
<polygon fill="#ffffff" stroke="transparent" points="466,-173.7 466,-192.7 542,-192.7 542,-173.7 466,-173.7"/>
<polygon fill="none" stroke="#000000" points="466,-173.7 466,-192.7 542,-192.7 542,-173.7 466,-173.7"/>
<text text-anchor="start" x="506.6105" y="-179.8" font-family="Helvetica,sans-Serif" font-size="11.00" fill="#000000">0 rows</text>
<polygon fill="#ffffff" stroke="transparent" points="542,-173.7 542,-192.7 640,-192.7 640,-173.7 542,-173.7"/>
<polygon fill="none" stroke="#000000" points="542,-173.7 542,-192.7 640,-192.7 640,-173.7 542,-173.7"/>
<text text-anchor="start" x="621.4053" y="-179.8" font-family="Helvetica,sans-Serif" font-size="11.00" fill="#000000">0 &gt;</text>
<polygon fill="none" stroke="#000000" stroke-width="2" points="407,-172.7 407,-370.7 641,-370.7 641,-172.7 407,-172.7"/>
</a>
</g>
</g>
<!-- gymnast_has_skills&#45;&gt;gymnasts -->
<g id="edge2" class="edge">
<title>gymnast_has_skills:w&#45;&gt;gymnasts:e</title>
<path fill="none" stroke="#000000" d="M394.0669,-340.032C372.5746,-357.3534 395.0328,-420.7 357,-420.7"/>
<polygon fill="#000000" stroke="#000000" points="400.3607,-338.0752 409.0688,-339.1377 404.1804,-336.8876 408,-335.7 408,-335.7 408,-335.7 404.1804,-336.8876 406.9312,-332.2623 400.3607,-338.0752 400.3607,-338.0752"/>
<ellipse fill="none" stroke="#000000" cx="397.305" cy="-339.0253" rx="3.2" ry="3.2"/>
</g>
<!-- skills -->
<g id="node4" class="node">
<title>skills</title>
<g id="a_node4"><a xlink:href="../../tables/skills.html" xlink:title="skills" target="_top">
<polygon fill="#ffffff" stroke="transparent" points="226,-77.2 226,-226.2 314,-226.2 314,-77.2 226,-77.2"/>
<polygon fill="#f5f5f5" stroke="transparent" points="226,-202.7 226,-225.7 314,-225.7 314,-202.7 226,-202.7"/>
<polygon fill="none" stroke="#000000" points="226,-202.7 226,-225.7 314,-225.7 314,-202.7 226,-202.7"/>
<text text-anchor="start" x="231" y="-211.8" font-family="Helvetica,sans-Serif" font-weight="bold" font-size="11.00" fill="#000000">skills</text>
<text text-anchor="start" x="279.0437" y="-210.8" font-family="Helvetica,sans-Serif" font-size="11.00" fill="#000000">[table]</text>
<polygon fill="none" stroke="#000000" points="226,-180.7 226,-202.7 314,-202.7 314,-180.7 226,-180.7"/>
<image xlink:href="../../images/primaryKeys.png" width="11px" height="12px" preserveAspectRatio="xMinYMin meet" x="231" y="-197.7"/>
<text text-anchor="start" x="246" y="-187.8" font-family="Helvetica,sans-Serif" font-size="11.00" fill="#000000">id</text>
<polygon fill="#ffffff" stroke="transparent" points="226,-158.7 226,-180.7 314,-180.7 314,-158.7 226,-158.7"/>
<polygon fill="none" stroke="#000000" points="226,-158.7 226,-180.7 314,-180.7 314,-158.7 226,-158.7"/>
<image xlink:href="../../images/foreignKeys.png" width="11px" height="12px" preserveAspectRatio="xMinYMin meet" x="231" y="-175.7"/>
<text text-anchor="start" x="246" y="-165.8" font-family="Helvetica,sans-Serif" font-size="11.00" fill="#000000">event_id</text>
<polygon fill="#ffffff" stroke="transparent" points="226,-136.7 226,-158.7 314,-158.7 314,-136.7 226,-136.7"/>
<polygon fill="none" stroke="#000000" points="226,-136.7 226,-158.7 314,-158.7 314,-136.7 226,-136.7"/>
<image xlink:href="../../images/foreignKeys.png" width="11px" height="12px" preserveAspectRatio="xMinYMin meet" x="231" y="-153.7"/>
<text text-anchor="start" x="246" y="-143.8" font-family="Helvetica,sans-Serif" font-size="11.00" fill="#000000">category_id</text>
<polygon fill="#ffffff" stroke="transparent" points="226,-114.7 226,-136.7 314,-136.7 314,-114.7 226,-114.7"/>
<polygon fill="none" stroke="#000000" points="226,-114.7 226,-136.7 314,-136.7 314,-114.7 226,-114.7"/>
<image xlink:href="../../images/foreignKeys.png" width="11px" height="12px" preserveAspectRatio="xMinYMin meet" x="231" y="-131.7"/>
<text text-anchor="start" x="246" y="-121.8" font-family="Helvetica,sans-Serif" font-size="11.00" fill="#000000">level_id</text>
<polygon fill="none" stroke="#000000" points="226,-95.7 226,-114.7 314,-114.7 314,-95.7 226,-95.7"/>
<text text-anchor="start" x="229" y="-101.8" font-family="Helvetica,sans-Serif" font-size="11.00" fill="#000000">...</text>
<polygon fill="#ffffff" stroke="transparent" points="226,-76.7 226,-95.7 251,-95.7 251,-76.7 226,-76.7"/>
<polygon fill="none" stroke="#000000" points="226,-76.7 226,-95.7 251,-95.7 251,-76.7 226,-76.7"/>
<text text-anchor="start" x="229" y="-82.8" font-family="Helvetica,sans-Serif" font-size="11.00" fill="#000000">&lt; 3</text>
<polygon fill="#ffffff" stroke="transparent" points="251,-76.7 251,-95.7 291,-95.7 291,-76.7 251,-76.7"/>
<polygon fill="none" stroke="#000000" points="251,-76.7 251,-95.7 291,-95.7 291,-76.7 251,-76.7"/>
<text text-anchor="start" x="255.6105" y="-82.8" font-family="Helvetica,sans-Serif" font-size="11.00" fill="#000000">0 rows</text>
<polygon fill="#ffffff" stroke="transparent" points="291,-76.7 291,-95.7 314,-95.7 314,-76.7 291,-76.7"/>
<polygon fill="none" stroke="#000000" points="291,-76.7 291,-95.7 314,-95.7 314,-76.7 291,-76.7"/>
<text text-anchor="start" x="295.4053" y="-82.8" font-family="Helvetica,sans-Serif" font-size="11.00" fill="#000000">2 &gt;</text>
</a>
</g>
</g>
<!-- gymnast_has_skills&#45;&gt;skills -->
<g id="edge3" class="edge">
<title>gymnast_has_skills:w&#45;&gt;skills:e</title>
<path fill="none" stroke="#000000" d="M393.5837,-311.4783C345.7065,-294.9433 376.9689,-191.7 314,-191.7"/>
<polygon fill="#000000" stroke="#000000" points="400.0933,-312.4815 407.4517,-317.258 404.0467,-313.0907 408,-313.7 408,-313.7 408,-313.7 404.0467,-313.0907 408.5483,-310.142 400.0933,-312.4815 400.0933,-312.4815"/>
<ellipse fill="none" stroke="#000000" cx="396.9307" cy="-311.9941" rx="3.2" ry="3.2"/>
</g>
<!-- categories -->
<g id="node8" class="node">
<title>categories</title>
<g id="a_node8"><a xlink:href="../../tables/categories.html" xlink:title="categories" target="_top">
<polygon fill="#ffffff" stroke="transparent" points="24.5,-120.2 24.5,-181.2 117.5,-181.2 117.5,-120.2 24.5,-120.2"/>
<polygon fill="#f5f5f5" stroke="transparent" points="25,-157.7 25,-180.7 118,-180.7 118,-157.7 25,-157.7"/>
<polygon fill="none" stroke="#000000" points="25,-157.7 25,-180.7 118,-180.7 118,-157.7 25,-157.7"/>
<text text-anchor="start" x="29.6329" y="-166.8" font-family="Helvetica,sans-Serif" font-weight="bold" font-size="11.00" fill="#000000">categories</text>
<text text-anchor="start" x="83.5219" y="-165.8" font-family="Helvetica,sans-Serif" font-size="11.00" fill="#000000">[table]</text>
<polygon fill="none" stroke="#000000" points="25,-138.7 25,-157.7 118,-157.7 118,-138.7 25,-138.7"/>
<text text-anchor="start" x="28" y="-144.8" font-family="Helvetica,sans-Serif" font-size="11.00" fill="#000000">...</text>
<polygon fill="#ffffff" stroke="transparent" points="25,-119.7 25,-138.7 48,-138.7 48,-119.7 25,-119.7"/>
<polygon fill="none" stroke="#000000" points="25,-119.7 25,-138.7 48,-138.7 48,-119.7 25,-119.7"/>
<text text-anchor="start" x="28" y="-125.8" font-family="Helvetica,sans-Serif" font-size="11.00" fill="#000000"> &#160;</text>
<polygon fill="#ffffff" stroke="transparent" points="48,-119.7 48,-138.7 91,-138.7 91,-119.7 48,-119.7"/>
<polygon fill="none" stroke="#000000" points="48,-119.7 48,-138.7 91,-138.7 91,-119.7 48,-119.7"/>
<text text-anchor="start" x="55.6105" y="-125.8" font-family="Helvetica,sans-Serif" font-size="11.00" fill="#000000">0 rows</text>
<polygon fill="#ffffff" stroke="transparent" points="91,-119.7 91,-138.7 118,-138.7 118,-119.7 91,-119.7"/>
<polygon fill="none" stroke="#000000" points="91,-119.7 91,-138.7 118,-138.7 118,-119.7 91,-119.7"/>
<text text-anchor="start" x="99.4053" y="-125.8" font-family="Helvetica,sans-Serif" font-size="11.00" fill="#000000">1 &gt;</text>
</a>
</g>
</g>
<!-- skills&#45;&gt;categories -->
<g id="edge8" class="edge">
<title>skills:w&#45;&gt;categories:e</title>
<path fill="none" stroke="#000000" d="M211.4478,-147.7C174.9443,-147.7 160.75,-147.7 118,-147.7"/>
<polygon fill="#000000" stroke="#000000" points="218,-147.7001 226,-151.3 222,-147.7 226,-147.7 226,-147.7 226,-147.7 222,-147.7 226,-144.1 218,-147.7001 218,-147.7001"/>
<ellipse fill="none" stroke="#000000" cx="214.8" cy="-147.7001" rx="3.2" ry="3.2"/>
</g>
<!-- events -->
<g id="node9" class="node">
<title>events</title>
<g id="a_node9"><a xlink:href="../../tables/events.html" xlink:title="events" target="_top">
<polygon fill="#ffffff" stroke="transparent" points="31,-202.2 31,-263.2 111,-263.2 111,-202.2 31,-202.2"/>
<polygon fill="#f5f5f5" stroke="transparent" points="31,-239.7 31,-262.7 111,-262.7 111,-239.7 31,-239.7"/>
<polygon fill="none" stroke="#000000" points="31,-239.7 31,-262.7 111,-262.7 111,-239.7 31,-239.7"/>
<text text-anchor="start" x="36" y="-248.8" font-family="Helvetica,sans-Serif" font-weight="bold" font-size="11.00" fill="#000000">events</text>
<text text-anchor="start" x="76.0437" y="-247.8" font-family="Helvetica,sans-Serif" font-size="11.00" fill="#000000">[table]</text>
<polygon fill="none" stroke="#000000" points="31,-220.7 31,-239.7 111,-239.7 111,-220.7 31,-220.7"/>
<text text-anchor="start" x="34" y="-226.8" font-family="Helvetica,sans-Serif" font-size="11.00" fill="#000000">...</text>
<polygon fill="#ffffff" stroke="transparent" points="31,-201.7 31,-220.7 52,-220.7 52,-201.7 31,-201.7"/>
<polygon fill="none" stroke="#000000" points="31,-201.7 31,-220.7 52,-220.7 52,-201.7 31,-201.7"/>
<text text-anchor="start" x="33.7027" y="-207.8" font-family="Helvetica,sans-Serif" font-size="11.00" fill="#000000">&lt; 1</text>
<polygon fill="#ffffff" stroke="transparent" points="52,-201.7 52,-220.7 90,-220.7 90,-201.7 52,-201.7"/>
<polygon fill="none" stroke="#000000" points="52,-201.7 52,-220.7 90,-220.7 90,-201.7 52,-201.7"/>
<text text-anchor="start" x="54.8053" y="-207.8" font-family="Helvetica,sans-Serif" font-size="11.00" fill="#000000">0 rows</text>
<polygon fill="#ffffff" stroke="transparent" points="90,-201.7 90,-220.7 111,-220.7 111,-201.7 90,-201.7"/>
<polygon fill="none" stroke="#000000" points="90,-201.7 90,-220.7 111,-220.7 111,-201.7 90,-201.7"/>
<text text-anchor="start" x="92.7027" y="-207.8" font-family="Helvetica,sans-Serif" font-size="11.00" fill="#000000">1 &gt;</text>
</a>
</g>
</g>
<!-- skills&#45;&gt;events -->
<g id="edge9" class="edge">
<title>skills:w&#45;&gt;events:e</title>
<path fill="none" stroke="#000000" d="M211.4992,-171.124C167.9171,-180.21 163.3574,-229.7 111,-229.7"/>
<polygon fill="#000000" stroke="#000000" points="218.0383,-170.4819 226.3518,-173.2828 222.0191,-170.0909 226,-169.7 226,-169.7 226,-169.7 222.0191,-170.0909 225.6482,-166.1172 218.0383,-170.4819 218.0383,-170.4819"/>
<ellipse fill="none" stroke="#000000" cx="214.8536" cy="-170.7946" rx="3.2" ry="3.2"/>
</g>
<!-- levels -->
<g id="node10" class="node">
<title>levels</title>
<g id="a_node10"><a xlink:href="../../tables/levels.html" xlink:title="levels" target="_top">
<polygon fill="#ffffff" stroke="transparent" points="35.5,-38.2 35.5,-99.2 106.5,-99.2 106.5,-38.2 35.5,-38.2"/>
<polygon fill="#f5f5f5" stroke="transparent" points="36,-75.7 36,-98.7 107,-98.7 107,-75.7 36,-75.7"/>
<polygon fill="none" stroke="#000000" points="36,-75.7 36,-98.7 107,-98.7 107,-75.7 36,-75.7"/>
<text text-anchor="start" x="40.9442" y="-84.8" font-family="Helvetica,sans-Serif" font-weight="bold" font-size="11.00" fill="#000000">levels</text>
<text text-anchor="start" x="72.5219" y="-83.8" font-family="Helvetica,sans-Serif" font-size="11.00" fill="#000000">[table]</text>
<polygon fill="none" stroke="#000000" points="36,-56.7 36,-75.7 107,-75.7 107,-56.7 36,-56.7"/>
<text text-anchor="start" x="39" y="-62.8" font-family="Helvetica,sans-Serif" font-size="11.00" fill="#000000">...</text>
<polygon fill="#ffffff" stroke="transparent" points="36,-37.7 36,-56.7 48,-56.7 48,-37.7 36,-37.7"/>
<polygon fill="none" stroke="#000000" points="36,-37.7 36,-56.7 48,-56.7 48,-37.7 36,-37.7"/>
<text text-anchor="start" x="38.9431" y="-43.8" font-family="Helvetica,sans-Serif" font-size="11.00" fill="#000000"> &#160;</text>
<polygon fill="#ffffff" stroke="transparent" points="48,-37.7 48,-56.7 86,-56.7 86,-37.7 48,-37.7"/>
<polygon fill="none" stroke="#000000" points="48,-37.7 48,-56.7 86,-56.7 86,-37.7 48,-37.7"/>
<text text-anchor="start" x="50.8053" y="-43.8" font-family="Helvetica,sans-Serif" font-size="11.00" fill="#000000">0 rows</text>
<polygon fill="#ffffff" stroke="transparent" points="86,-37.7 86,-56.7 107,-56.7 107,-37.7 86,-37.7"/>
<polygon fill="none" stroke="#000000" points="86,-37.7 86,-56.7 107,-56.7 107,-37.7 86,-37.7"/>
<text text-anchor="start" x="88.7027" y="-43.8" font-family="Helvetica,sans-Serif" font-size="11.00" fill="#000000">1 &gt;</text>
</a>
</g>
</g>
<!-- skills&#45;&gt;levels -->
<g id="edge10" class="edge">
<title>skills:w&#45;&gt;levels:e</title>
<path fill="none" stroke="#000000" d="M211.3715,-124.3341C166.1984,-115.4031 160.9097,-65.7 107,-65.7"/>
<polygon fill="#000000" stroke="#000000" points="218.0346,-124.9562 225.6653,-129.2844 222.0173,-125.3281 226,-125.7 226,-125.7 226,-125.7 222.0173,-125.3281 226.3347,-122.1156 218.0346,-124.9562 218.0346,-124.9562"/>
<ellipse fill="none" stroke="#000000" cx="214.8485" cy="-124.6587" rx="3.2" ry="3.2"/>
</g>
<!-- gymnasts_has_classes -->
<g id="node6" class="node">
<title>gymnasts_has_classes</title>
<g id="a_node6"><a xlink:href="../../tables/gymnasts_has_classes.html" xlink:title="gymnasts_has_classes" target="_top">
<polygon fill="#ffffff" stroke="transparent" points="446,-393.2 446,-454.2 602,-454.2 602,-393.2 446,-393.2"/>
<polygon fill="#f5f5f5" stroke="transparent" points="446,-430.7 446,-453.7 602,-453.7 602,-430.7 446,-430.7"/>
<polygon fill="none" stroke="#000000" points="446,-430.7 446,-453.7 602,-453.7 602,-430.7 446,-430.7"/>
<text text-anchor="start" x="450.6531" y="-439.8" font-family="Helvetica,sans-Serif" font-weight="bold" font-size="11.00" fill="#000000">gymnasts_has_classes</text>
<text text-anchor="start" x="567.5219" y="-438.8" font-family="Helvetica,sans-Serif" font-size="11.00" fill="#000000">[table]</text>
<polygon fill="none" stroke="#000000" points="446,-411.7 446,-430.7 602,-430.7 602,-411.7 446,-411.7"/>
<text text-anchor="start" x="449" y="-417.8" font-family="Helvetica,sans-Serif" font-size="11.00" fill="#000000">...</text>
<polygon fill="#ffffff" stroke="transparent" points="446,-392.7 446,-411.7 509,-411.7 509,-392.7 446,-392.7"/>
<polygon fill="none" stroke="#000000" points="446,-392.7 446,-411.7 509,-411.7 509,-392.7 446,-392.7"/>
<text text-anchor="start" x="449" y="-398.8" font-family="Helvetica,sans-Serif" font-size="11.00" fill="#000000">&lt; 2</text>
<polygon fill="#ffffff" stroke="transparent" points="509,-392.7 509,-411.7 568,-411.7 568,-392.7 509,-392.7"/>
<polygon fill="none" stroke="#000000" points="509,-392.7 509,-411.7 568,-411.7 568,-392.7 509,-392.7"/>
<text text-anchor="start" x="532.6105" y="-398.8" font-family="Helvetica,sans-Serif" font-size="11.00" fill="#000000">0 rows</text>
<polygon fill="#ffffff" stroke="transparent" points="568,-392.7 568,-411.7 602,-411.7 602,-392.7 568,-392.7"/>
<polygon fill="none" stroke="#000000" points="568,-392.7 568,-411.7 602,-411.7 602,-392.7 568,-392.7"/>
<text text-anchor="start" x="592.8862" y="-398.8" font-family="Helvetica,sans-Serif" font-size="11.00" fill="#000000"> &#160;</text>
</a>
</g>
</g>
<!-- gymnasts_has_classes&#45;&gt;gymnasts -->
<g id="edge6" class="edge">
<title>gymnasts_has_classes:w&#45;&gt;gymnasts:e</title>
<path fill="none" stroke="#000000" d="M431.288,-420.7C403.1859,-420.7 391.1476,-420.7 357,-420.7"/>
<polygon fill="#000000" stroke="#000000" points="438,-420.7001 446,-424.3 442,-420.7 446,-420.7 446,-420.7 446,-420.7 442,-420.7 446,-417.1 438,-420.7001 438,-420.7001"/>
<ellipse fill="none" stroke="#000000" cx="434.8" cy="-420.7001" rx="3.2" ry="3.2"/>
</g>
<!-- skill_lists_has_skills -->
<g id="node7" class="node">
<title>skill_lists_has_skills</title>
<g id="a_node7"><a xlink:href="../../tables/skill_lists_has_skills.html" xlink:title="skill_lists_has_skills" target="_top">
<polygon fill="#ffffff" stroke="transparent" points="454,-89.2 454,-150.2 594,-150.2 594,-89.2 454,-89.2"/>
<polygon fill="#f5f5f5" stroke="transparent" points="454,-126.7 454,-149.7 594,-149.7 594,-126.7 454,-126.7"/>
<polygon fill="none" stroke="#000000" points="454,-126.7 454,-149.7 594,-149.7 594,-126.7 454,-126.7"/>
<text text-anchor="start" x="458.9207" y="-135.8" font-family="Helvetica,sans-Serif" font-weight="bold" font-size="11.00" fill="#000000">skill_lists_has_skills</text>
<text text-anchor="start" x="559.5219" y="-134.8" font-family="Helvetica,sans-Serif" font-size="11.00" fill="#000000">[table]</text>
<polygon fill="none" stroke="#000000" points="454,-107.7 454,-126.7 594,-126.7 594,-107.7 454,-107.7"/>
<text text-anchor="start" x="457" y="-113.8" font-family="Helvetica,sans-Serif" font-size="11.00" fill="#000000">...</text>
<polygon fill="#ffffff" stroke="transparent" points="454,-88.7 454,-107.7 509,-107.7 509,-88.7 454,-88.7"/>
<polygon fill="none" stroke="#000000" points="454,-88.7 454,-107.7 509,-107.7 509,-88.7 454,-88.7"/>
<text text-anchor="start" x="457" y="-94.8" font-family="Helvetica,sans-Serif" font-size="11.00" fill="#000000">&lt; 2</text>
<polygon fill="#ffffff" stroke="transparent" points="509,-88.7 509,-107.7 564,-107.7 564,-88.7 509,-88.7"/>
<polygon fill="none" stroke="#000000" points="509,-88.7 509,-107.7 564,-107.7 564,-88.7 509,-88.7"/>
<text text-anchor="start" x="528.6105" y="-94.8" font-family="Helvetica,sans-Serif" font-size="11.00" fill="#000000">0 rows</text>
<polygon fill="#ffffff" stroke="transparent" points="564,-88.7 564,-107.7 594,-107.7 594,-88.7 564,-88.7"/>
<polygon fill="none" stroke="#000000" points="564,-88.7 564,-107.7 594,-107.7 594,-88.7 564,-88.7"/>
<text text-anchor="start" x="584.8862" y="-94.8" font-family="Helvetica,sans-Serif" font-size="11.00" fill="#000000"> &#160;</text>
</a>
</g>
</g>
<!-- skill_lists_has_skills&#45;&gt;skills -->
<g id="edge7" class="edge">
<title>skill_lists_has_skills:w&#45;&gt;skills:e</title>
<path fill="none" stroke="#000000" d="M439.4103,-117.8781C383.191,-127.4197 379.3494,-191.7 314,-191.7"/>
<polygon fill="#000000" stroke="#000000" points="446.026,-117.3439 454.2898,-120.2883 450.013,-117.022 454,-116.7 454,-116.7 454,-116.7 450.013,-117.022 453.7102,-113.1117 446.026,-117.3439 446.026,-117.3439"/>
<ellipse fill="none" stroke="#000000" cx="442.8363" cy="-117.6015" rx="3.2" ry="3.2"/>
</g>
</g>
</svg>
