<?xml version="1.0" encoding="UTF-8" standalone="no"?>
<!DOCTYPE svg PUBLIC "-//W3C//DTD SVG 1.1//EN"
 "http://www.w3.org/Graphics/SVG/1.1/DTD/svg11.dtd">
<!-- Generated by graphviz version 2.40.1 (20161225.0304)
 -->
<!-- Title: twoDegreesRelationshipsDiagram Pages: 1 -->
<svg width="658pt" height="537pt"
 viewBox="0.00 0.00 658.00 537.20" xmlns="http://www.w3.org/2000/svg" xmlns:xlink="http://www.w3.org/1999/xlink">
<g id="graph0" class="graph" transform="scale(1 1) rotate(0) translate(4 533.2)">
<title>twoDegreesRelationshipsDiagram</title>
<polygon fill="#ffffff" stroke="transparent" points="-4,4 -4,-533.2 654,-533.2 654,4 -4,4"/>
<text text-anchor="middle" x="72.4936" y="-7.3" font-family="Helvetica,sans-Serif" font-size="11.00" fill="#000000">Generated by SchemaSpy</text>
<!-- completed_challenges -->
<g id="node1" class="node">
<title>completed_challenges</title>
<g id="a_node1"><a xlink:href="../../tables/completed_challenges.html" xlink:title="completed_challenges" target="_top">
<polygon fill="#ffffff" stroke="transparent" points="448,-464.2 448,-525.2 600,-525.2 600,-464.2 448,-464.2"/>
<polygon fill="#f5f5f5" stroke="transparent" points="448,-501.7 448,-524.7 600,-524.7 600,-501.7 448,-501.7"/>
<polygon fill="none" stroke="#000000" points="448,-501.7 448,-524.7 600,-524.7 600,-501.7 448,-501.7"/>
<text text-anchor="start" x="452.7899" y="-510.8" font-family="Helvetica,sans-Serif" font-weight="bold" font-size="11.00" fill="#000000">completed_challenges</text>
<text text-anchor="start" x="565.5219" y="-509.8" font-family="Helvetica,sans-Serif" font-size="11.00" fill="#000000">[table]</text>
<polygon fill="none" stroke="#000000" points="448,-482.7 448,-501.7 600,-501.7 600,-482.7 448,-482.7"/>
<text text-anchor="start" x="451" y="-488.8" font-family="Helvetica,sans-Serif" font-size="11.00" fill="#000000">...</text>
<polygon fill="#ffffff" stroke="transparent" points="448,-463.7 448,-482.7 509,-482.7 509,-463.7 448,-463.7"/>
<polygon fill="none" stroke="#000000" points="448,-463.7 448,-482.7 509,-482.7 509,-463.7 448,-463.7"/>
<text text-anchor="start" x="451" y="-469.8" font-family="Helvetica,sans-Serif" font-size="11.00" fill="#000000">&lt; 2</text>
<polygon fill="#ffffff" stroke="transparent" points="509,-463.7 509,-482.7 567,-482.7 567,-463.7 509,-463.7"/>
<polygon fill="none" stroke="#000000" points="509,-463.7 509,-482.7 567,-482.7 567,-463.7 509,-463.7"/>
<text text-anchor="start" x="531.6105" y="-469.8" font-family="Helvetica,sans-Serif" font-size="11.00" fill="#000000">0 rows</text>
<polygon fill="#ffffff" stroke="transparent" points="567,-463.7 567,-482.7 600,-482.7 600,-463.7 567,-463.7"/>
<polygon fill="none" stroke="#000000" points="567,-463.7 567,-482.7 600,-482.7 600,-463.7 567,-463.7"/>
<text text-anchor="start" x="590.8862" y="-469.8" font-family="Helvetica,sans-Serif" font-size="11.00" fill="#000000"> &#160;</text>
</a>
</g>
</g>
<!-- gymnasts -->
<g id="node2" class="node">
<title>gymnasts</title>
<g id="a_node2"><a xlink:href="../../tables/gymnasts.html" xlink:title="gymnasts" target="_top">
<polygon fill="#ffffff" stroke="transparent" points="183,-317.2 183,-444.2 357,-444.2 357,-317.2 183,-317.2"/>
<polygon fill="#f5f5f5" stroke="transparent" points="183,-420.7 183,-443.7 357,-443.7 357,-420.7 183,-420.7"/>
<polygon fill="none" stroke="#000000" points="183,-420.7 183,-443.7 357,-443.7 357,-420.7 183,-420.7"/>
<text text-anchor="start" x="188" y="-429.8" font-family="Helvetica,sans-Serif" font-weight="bold" font-size="11.00" fill="#000000">gymnasts</text>
<text text-anchor="start" x="322.0437" y="-428.8" font-family="Helvetica,sans-Serif" font-size="11.00" fill="#000000">[table]</text>
<polygon fill="none" stroke="#000000" points="183,-398.7 183,-420.7 357,-420.7 357,-398.7 183,-398.7"/>
<image xlink:href="../../images/primaryKeys.png" width="11px" height="12px" preserveAspectRatio="xMinYMin meet" x="188" y="-415.7"/>
<text text-anchor="start" x="203" y="-405.8" font-family="Helvetica,sans-Serif" font-size="11.00" fill="#000000">id</text>
<polygon fill="#ffffff" stroke="transparent" points="183,-376.7 183,-398.7 357,-398.7 357,-376.7 183,-376.7"/>
<polygon fill="none" stroke="#000000" points="183,-376.7 183,-398.7 357,-398.7 357,-376.7 183,-376.7"/>
<image xlink:href="../../images/foreignKeys.png" width="11px" height="12px" preserveAspectRatio="xMinYMin meet" x="188" y="-393.7"/>
<text text-anchor="start" x="203" y="-383.8" font-family="Helvetica,sans-Serif" font-size="11.00" fill="#000000">gyms_has_users_gyms_id</text>
<polygon fill="#ffffff" stroke="transparent" points="183,-354.7 183,-376.7 357,-376.7 357,-354.7 183,-354.7"/>
<polygon fill="none" stroke="#000000" points="183,-354.7 183,-376.7 357,-376.7 357,-354.7 183,-354.7"/>
<image xlink:href="../../images/foreignKeys.png" width="11px" height="12px" preserveAspectRatio="xMinYMin meet" x="188" y="-371.7"/>
<text text-anchor="start" x="203" y="-361.8" font-family="Helvetica,sans-Serif" font-size="11.00" fill="#000000">gyms_has_users_users_id</text>
<polygon fill="none" stroke="#000000" points="183,-335.7 183,-354.7 357,-354.7 357,-335.7 183,-335.7"/>
<text text-anchor="start" x="186" y="-341.8" font-family="Helvetica,sans-Serif" font-size="11.00" fill="#000000">...</text>
<polygon fill="#ffffff" stroke="transparent" points="183,-316.7 183,-335.7 251,-335.7 251,-316.7 183,-316.7"/>
<polygon fill="none" stroke="#000000" points="183,-316.7 183,-335.7 251,-335.7 251,-316.7 183,-316.7"/>
<text text-anchor="start" x="186" y="-322.8" font-family="Helvetica,sans-Serif" font-size="11.00" fill="#000000">&lt; 2</text>
<polygon fill="#ffffff" stroke="transparent" points="251,-316.7 251,-335.7 312,-335.7 312,-316.7 251,-316.7"/>
<polygon fill="none" stroke="#000000" points="251,-316.7 251,-335.7 312,-335.7 312,-316.7 251,-316.7"/>
<text text-anchor="start" x="276.6105" y="-322.8" font-family="Helvetica,sans-Serif" font-size="11.00" fill="#000000">0 rows</text>
<polygon fill="#ffffff" stroke="transparent" points="312,-316.7 312,-335.7 357,-335.7 357,-316.7 312,-316.7"/>
<polygon fill="none" stroke="#000000" points="312,-316.7 312,-335.7 357,-335.7 357,-316.7 312,-316.7"/>
<text text-anchor="start" x="338.4053" y="-322.8" font-family="Helvetica,sans-Serif" font-size="11.00" fill="#000000">3 &gt;</text>
</a>
</g>
</g>
<!-- completed_challenges&#45;&gt;gymnasts -->
<g id="edge1" class="edge">
<title>completed_challenges:w&#45;&gt;gymnasts:e</title>
<path fill="none" stroke="#000000" d="M433.4475,-489.3129C418.6436,-483.5921 414.3341,-468.4735 398,-453.7 378.1761,-435.7701 383.7296,-409.7 357,-409.7"/>
<polygon fill="#000000" stroke="#000000" points="440.1055,-490.405 447.4173,-495.2525 444.0527,-491.0525 448,-491.7 448,-491.7 448,-491.7 444.0527,-491.0525 448.5827,-488.1475 440.1055,-490.405 440.1055,-490.405"/>
<ellipse fill="none" stroke="#000000" cx="436.9477" cy="-489.887" rx="3.2" ry="3.2"/>
</g>
<!-- gyms_has_users -->
<g id="node5" class="node">
<title>gyms_has_users</title>
<g id="a_node5"><a xlink:href="../../tables/gyms_has_users.html" xlink:title="gyms_has_users" target="_top">
<polygon fill="#ffffff" stroke="transparent" points="8,-349.2 8,-410.2 134,-410.2 134,-349.2 8,-349.2"/>
<polygon fill="#f5f5f5" stroke="transparent" points="8,-386.7 8,-409.7 134,-409.7 134,-386.7 8,-386.7"/>
<polygon fill="none" stroke="#000000" points="8,-386.7 8,-409.7 134,-409.7 134,-386.7 8,-386.7"/>
<text text-anchor="start" x="12.9359" y="-395.8" font-family="Helvetica,sans-Serif" font-weight="bold" font-size="11.00" fill="#000000">gyms_has_users</text>
<text text-anchor="start" x="99.5219" y="-394.8" font-family="Helvetica,sans-Serif" font-size="11.00" fill="#000000">[table]</text>
<polygon fill="none" stroke="#000000" points="8,-367.7 8,-386.7 134,-386.7 134,-367.7 8,-367.7"/>
<text text-anchor="start" x="11" y="-373.8" font-family="Helvetica,sans-Serif" font-size="11.00" fill="#000000">...</text>
<polygon fill="#ffffff" stroke="transparent" points="8,-348.7 8,-367.7 52,-367.7 52,-348.7 8,-348.7"/>
<polygon fill="none" stroke="#000000" points="8,-348.7 8,-367.7 52,-367.7 52,-348.7 8,-348.7"/>
<text text-anchor="start" x="11" y="-354.8" font-family="Helvetica,sans-Serif" font-size="11.00" fill="#000000">&lt; 2</text>
<polygon fill="#ffffff" stroke="transparent" points="52,-348.7 52,-367.7 101,-367.7 101,-348.7 52,-348.7"/>
<polygon fill="none" stroke="#000000" points="52,-348.7 52,-367.7 101,-367.7 101,-348.7 52,-348.7"/>
<text text-anchor="start" x="65.6105" y="-354.8" font-family="Helvetica,sans-Serif" font-size="11.00" fill="#000000">0 rows</text>
<polygon fill="#ffffff" stroke="transparent" points="101,-348.7 101,-367.7 134,-367.7 134,-348.7 101,-348.7"/>
<polygon fill="none" stroke="#000000" points="101,-348.7 101,-367.7 134,-367.7 134,-348.7 101,-348.7"/>
<text text-anchor="start" x="115.4053" y="-354.8" font-family="Helvetica,sans-Serif" font-size="11.00" fill="#000000">2 &gt;</text>
</a>
</g>
</g>
<!-- gymnasts&#45;&gt;gyms_has_users -->
<g id="edge4" class="edge">
<title>gymnasts:w&#45;&gt;gyms_has_users:e</title>
<path fill="none" stroke="#000000" d="M168.7027,-385.8836C157.2382,-382.7593 150.5655,-376.7 134,-376.7"/>
<polygon fill="#000000" stroke="#000000" points="175.0638,-386.6917 182.5463,-391.2713 179.0319,-387.1958 183,-387.7 183,-387.7 183,-387.7 179.0319,-387.1958 183.4537,-384.1287 175.0638,-386.6917 175.0638,-386.6917"/>
<ellipse fill="none" stroke="#000000" cx="171.8893" cy="-386.2884" rx="3.2" ry="3.2"/>
</g>
<!-- gymnasts&#45;&gt;gyms_has_users -->
<g id="edge5" class="edge">
<title>gymnasts:w&#45;&gt;gyms_has_users:e</title>
<path fill="none" stroke="#000000" d="M168.7027,-367.5164C157.2382,-370.6407 150.5655,-376.7 134,-376.7"/>
<polygon fill="#000000" stroke="#000000" points="175.0638,-366.7083 183.4537,-369.2713 179.0319,-366.2042 183,-365.7 183,-365.7 183,-365.7 179.0319,-366.2042 182.5463,-362.1287 175.0638,-366.7083 175.0638,-366.7083"/>
<ellipse fill="none" stroke="#000000" cx="171.8893" cy="-367.1116" rx="3.2" ry="3.2"/>
</g>
<!-- gymnast_has_skills -->
<g id="node3" class="node">
<title>gymnast_has_skills</title>
<g id="a_node3"><a xlink:href="../../tables/gymnast_has_skills.html" xlink:title="gymnast_has_skills" target="_top">
<polygon fill="#ffffff" stroke="transparent" points="406,-182.7 406,-360.7 642,-360.7 642,-182.7 406,-182.7"/>
<polygon fill="#f5f5f5" stroke="transparent" points="408,-335.7 408,-358.7 640,-358.7 640,-335.7 408,-335.7"/>
<polygon fill="none" stroke="#000000" points="408,-335.7 408,-358.7 640,-358.7 640,-335.7 408,-335.7"/>
<text text-anchor="start" x="413" y="-344.8" font-family="Helvetica,sans-Serif" font-weight="bold" font-size="11.00" fill="#000000">gymnast_has_skills</text>
<text text-anchor="start" x="605.0437" y="-343.8" font-family="Helvetica,sans-Serif" font-size="11.00" fill="#000000">[table]</text>
<polygon fill="none" stroke="#000000" points="408,-313.7 408,-335.7 542,-335.7 542,-313.7 408,-313.7"/>
<image xlink:href="../../images/primaryKeys.png" width="11px" height="12px" preserveAspectRatio="xMinYMin meet" x="413" y="-330.7"/>
<text text-anchor="start" x="428" y="-320.8" font-family="Helvetica,sans-Serif" font-size="11.00" fill="#000000">gymnast_id</text>
<polygon fill="none" stroke="#000000" points="542,-313.7 542,-335.7 640,-335.7 640,-313.7 542,-313.7"/>
<text text-anchor="start" x="545" y="-321.4" font-family="Helvetica,sans-Serif" font-size="11.00" fill="#000000">bigint[19]</text>
<polygon fill="none" stroke="#000000" points="408,-291.7 408,-313.7 542,-313.7 542,-291.7 408,-291.7"/>
<image xlink:href="../../images/primaryKeys.png" width="11px" height="12px" preserveAspectRatio="xMinYMin meet" x="413" y="-308.7"/>
<text text-anchor="start" x="428" y="-298.8" font-family="Helvetica,sans-Serif" font-size="11.00" fill="#000000">skills_Id</text>
<polygon fill="none" stroke="#000000" points="542,-291.7 542,-313.7 640,-313.7 640,-291.7 542,-291.7"/>
<text text-anchor="start" x="544.8429" y="-299.4" font-family="Helvetica,sans-Serif" font-size="11.00" fill="#000000">bigint unsigned[20]</text>
<polygon fill="none" stroke="#000000" points="408,-269.7 408,-291.7 542,-291.7 542,-269.7 408,-269.7"/>
<text text-anchor="start" x="428" y="-276.8" font-family="Helvetica,sans-Serif" font-size="11.00" fill="#000000">progress_status</text>
<polygon fill="none" stroke="#000000" points="542,-269.7 542,-291.7 640,-291.7 640,-269.7 542,-269.7"/>
<text text-anchor="start" x="545" y="-277.4" font-family="Helvetica,sans-Serif" font-size="11.00" fill="#000000">int[10]</text>
<polygon fill="none" stroke="#000000" points="408,-247.7 408,-269.7 542,-269.7 542,-247.7 408,-247.7"/>
<text text-anchor="start" x="428" y="-254.8" font-family="Helvetica,sans-Serif" font-size="11.00" fill="#000000">coach_verify</text>
<polygon fill="none" stroke="#000000" points="542,-247.7 542,-269.7 640,-269.7 640,-247.7 542,-247.7"/>
<text text-anchor="start" x="545" y="-255.4" font-family="Helvetica,sans-Serif" font-size="11.00" fill="#000000">json[1073741824]</text>
<polygon fill="none" stroke="#000000" points="408,-225.7 408,-247.7 542,-247.7 542,-225.7 408,-225.7"/>
<text text-anchor="start" x="428" y="-232.8" font-family="Helvetica,sans-Serif" font-size="11.00" fill="#000000">created_at</text>
<polygon fill="none" stroke="#000000" points="542,-225.7 542,-247.7 640,-247.7 640,-225.7 542,-225.7"/>
<text text-anchor="start" x="545" y="-233.4" font-family="Helvetica,sans-Serif" font-size="11.00" fill="#000000">timestamp[19]</text>
<polygon fill="none" stroke="#000000" points="408,-203.7 408,-225.7 542,-225.7 542,-203.7 408,-203.7"/>
<text text-anchor="start" x="428" y="-210.8" font-family="Helvetica,sans-Serif" font-size="11.00" fill="#000000">updated_at</text>
<polygon fill="none" stroke="#000000" points="542,-203.7 542,-225.7 640,-225.7 640,-203.7 542,-203.7"/>
<text text-anchor="start" x="545" y="-211.4" font-family="Helvetica,sans-Serif" font-size="11.00" fill="#000000">timestamp[19]</text>
<polygon fill="#ffffff" stroke="transparent" points="408,-184.7 408,-203.7 466,-203.7 466,-184.7 408,-184.7"/>
<polygon fill="none" stroke="#000000" points="408,-184.7 408,-203.7 466,-203.7 466,-184.7 408,-184.7"/>
<text text-anchor="start" x="411" y="-190.8" font-family="Helvetica,sans-Serif" font-size="11.00" fill="#000000">&lt; 2</text>
<polygon fill="#ffffff" stroke="transparent" points="466,-184.7 466,-203.7 542,-203.7 542,-184.7 466,-184.7"/>
<polygon fill="none" stroke="#000000" points="466,-184.7 466,-203.7 542,-203.7 542,-184.7 466,-184.7"/>
<text text-anchor="start" x="506.6105" y="-190.8" font-family="Helvetica,sans-Serif" font-size="11.00" fill="#000000">0 rows</text>
<polygon fill="#ffffff" stroke="transparent" points="542,-184.7 542,-203.7 640,-203.7 640,-184.7 542,-184.7"/>
<polygon fill="none" stroke="#000000" points="542,-184.7 542,-203.7 640,-203.7 640,-184.7 542,-184.7"/>
<text text-anchor="start" x="621.4053" y="-190.8" font-family="Helvetica,sans-Serif" font-size="11.00" fill="#000000">0 &gt;</text>
<polygon fill="none" stroke="#000000" stroke-width="2" points="407,-183.7 407,-359.7 641,-359.7 641,-183.7 407,-183.7"/>
</a>
</g>
</g>
<!-- gymnast_has_skills&#45;&gt;gymnasts -->
<g id="edge2" class="edge">
<title>gymnast_has_skills:w&#45;&gt;gymnasts:e</title>
<path fill="none" stroke="#000000" d="M394.0669,-329.032C372.5746,-346.3534 395.0328,-409.7 357,-409.7"/>
<polygon fill="#000000" stroke="#000000" points="400.3607,-327.0752 409.0688,-328.1377 404.1804,-325.8876 408,-324.7 408,-324.7 408,-324.7 404.1804,-325.8876 406.9312,-321.2623 400.3607,-327.0752 400.3607,-327.0752"/>
<ellipse fill="none" stroke="#000000" cx="397.305" cy="-328.0253" rx="3.2" ry="3.2"/>
</g>
<!-- skills -->
<g id="node4" class="node">
<title>skills</title>
<g id="a_node4"><a xlink:href="../../tables/skills.html" xlink:title="skills" target="_top">
<polygon fill="#ffffff" stroke="transparent" points="226,-77.2 226,-226.2 314,-226.2 314,-77.2 226,-77.2"/>
<polygon fill="#f5f5f5" stroke="transparent" points="226,-202.7 226,-225.7 314,-225.7 314,-202.7 226,-202.7"/>
<polygon fill="none" stroke="#000000" points="226,-202.7 226,-225.7 314,-225.7 314,-202.7 226,-202.7"/>
<text text-anchor="start" x="231" y="-211.8" font-family="Helvetica,sans-Serif" font-weight="bold" font-size="11.00" fill="#000000">skills</text>
<text text-anchor="start" x="279.0437" y="-210.8" font-family="Helvetica,sans-Serif" font-size="11.00" fill="#000000">[table]</text>
<polygon fill="none" stroke="#000000" points="226,-180.7 226,-202.7 314,-202.7 314,-180.7 226,-180.7"/>
<image xlink:href="../../images/primaryKeys.png" width="11px" height="12px" preserveAspectRatio="xMinYMin meet" x="231" y="-197.7"/>
<text text-anchor="start" x="246" y="-187.8" font-family="Helvetica,sans-Serif" font-size="11.00" fill="#000000">id</text>
<polygon fill="#ffffff" stroke="transparent" points="226,-158.7 226,-180.7 314,-180.7 314,-158.7 226,-158.7"/>
<polygon fill="none" stroke="#000000" points="226,-158.7 226,-180.7 314,-180.7 314,-158.7 226,-158.7"/>
<image xlink:href="../../images/foreignKeys.png" width="11px" height="12px" preserveAspectRatio="xMinYMin meet" x="231" y="-175.7"/>
<text text-anchor="start" x="246" y="-165.8" font-family="Helvetica,sans-Serif" font-size="11.00" fill="#000000">event_id</text>
<polygon fill="#ffffff" stroke="transparent" points="226,-136.7 226,-158.7 314,-158.7 314,-136.7 226,-136.7"/>
<polygon fill="none" stroke="#000000" points="226,-136.7 226,-158.7 314,-158.7 314,-136.7 226,-136.7"/>
<image xlink:href="../../images/foreignKeys.png" width="11px" height="12px" preserveAspectRatio="xMinYMin meet" x="231" y="-153.7"/>
<text text-anchor="start" x="246" y="-143.8" font-family="Helvetica,sans-Serif" font-size="11.00" fill="#000000">category_id</text>
<polygon fill="#ffffff" stroke="transparent" points="226,-114.7 226,-136.7 314,-136.7 314,-114.7 226,-114.7"/>
<polygon fill="none" stroke="#000000" points="226,-114.7 226,-136.7 314,-136.7 314,-114.7 226,-114.7"/>
<image xlink:href="../../images/foreignKeys.png" width="11px" height="12px" preserveAspectRatio="xMinYMin meet" x="231" y="-131.7"/>
<text text-anchor="start" x="246" y="-121.8" font-family="Helvetica,sans-Serif" font-size="11.00" fill="#000000">level_id</text>
<polygon fill="none" stroke="#000000" points="226,-95.7 226,-114.7 314,-114.7 314,-95.7 226,-95.7"/>
<text text-anchor="start" x="229" y="-101.8" font-family="Helvetica,sans-Serif" font-size="11.00" fill="#000000">...</text>
<polygon fill="#ffffff" stroke="transparent" points="226,-76.7 226,-95.7 251,-95.7 251,-76.7 226,-76.7"/>
<polygon fill="none" stroke="#000000" points="226,-76.7 226,-95.7 251,-95.7 251,-76.7 226,-76.7"/>
<text text-anchor="start" x="229" y="-82.8" font-family="Helvetica,sans-Serif" font-size="11.00" fill="#000000">&lt; 3</text>
<polygon fill="#ffffff" stroke="transparent" points="251,-76.7 251,-95.7 291,-95.7 291,-76.7 251,-76.7"/>
<polygon fill="none" stroke="#000000" points="251,-76.7 251,-95.7 291,-95.7 291,-76.7 251,-76.7"/>
<text text-anchor="start" x="255.6105" y="-82.8" font-family="Helvetica,sans-Serif" font-size="11.00" fill="#000000">0 rows</text>
<polygon fill="#ffffff" stroke="transparent" points="291,-76.7 291,-95.7 314,-95.7 314,-76.7 291,-76.7"/>
<polygon fill="none" stroke="#000000" points="291,-76.7 291,-95.7 314,-95.7 314,-76.7 291,-76.7"/>
<text text-anchor="start" x="295.4053" y="-82.8" font-family="Helvetica,sans-Serif" font-size="11.00" fill="#000000">2 &gt;</text>
</a>
</g>
</g>
<!-- gymnast_has_skills&#45;&gt;skills -->
<g id="edge3" class="edge">
<title>gymnast_has_skills:w&#45;&gt;skills:e</title>
<path fill="none" stroke="#000000" d="M393.7085,-300.4827C348.5768,-284.8384 373.2171,-191.7 314,-191.7"/>
<polygon fill="#000000" stroke="#000000" points="400.0946,-301.4735 407.4481,-306.2574 404.0473,-302.0867 408,-302.7 408,-302.7 408,-302.7 404.0473,-302.0867 408.5519,-299.1426 400.0946,-301.4735 400.0946,-301.4735"/>
<ellipse fill="none" stroke="#000000" cx="396.9324" cy="-300.9828" rx="3.2" ry="3.2"/>
</g>
<!-- categories -->
<g id="node8" class="node">
<title>categories</title>
<g id="a_node8"><a xlink:href="../../tables/categories.html" xlink:title="categories" target="_top">
<polygon fill="#ffffff" stroke="transparent" points="24.5,-120.2 24.5,-181.2 117.5,-181.2 117.5,-120.2 24.5,-120.2"/>
<polygon fill="#f5f5f5" stroke="transparent" points="25,-157.7 25,-180.7 118,-180.7 118,-157.7 25,-157.7"/>
<polygon fill="none" stroke="#000000" points="25,-157.7 25,-180.7 118,-180.7 118,-157.7 25,-157.7"/>
<text text-anchor="start" x="29.6329" y="-166.8" font-family="Helvetica,sans-Serif" font-weight="bold" font-size="11.00" fill="#000000">categories</text>
<text text-anchor="start" x="83.5219" y="-165.8" font-family="Helvetica,sans-Serif" font-size="11.00" fill="#000000">[table]</text>
<polygon fill="none" stroke="#000000" points="25,-138.7 25,-157.7 118,-157.7 118,-138.7 25,-138.7"/>
<text text-anchor="start" x="28" y="-144.8" font-family="Helvetica,sans-Serif" font-size="11.00" fill="#000000">...</text>
<polygon fill="#ffffff" stroke="transparent" points="25,-119.7 25,-138.7 48,-138.7 48,-119.7 25,-119.7"/>
<polygon fill="none" stroke="#000000" points="25,-119.7 25,-138.7 48,-138.7 48,-119.7 25,-119.7"/>
<text text-anchor="start" x="28" y="-125.8" font-family="Helvetica,sans-Serif" font-size="11.00" fill="#000000"> &#160;</text>
<polygon fill="#ffffff" stroke="transparent" points="48,-119.7 48,-138.7 91,-138.7 91,-119.7 48,-119.7"/>
<polygon fill="none" stroke="#000000" points="48,-119.7 48,-138.7 91,-138.7 91,-119.7 48,-119.7"/>
<text text-anchor="start" x="55.6105" y="-125.8" font-family="Helvetica,sans-Serif" font-size="11.00" fill="#000000">0 rows</text>
<polygon fill="#ffffff" stroke="transparent" points="91,-119.7 91,-138.7 118,-138.7 118,-119.7 91,-119.7"/>
<polygon fill="none" stroke="#000000" points="91,-119.7 91,-138.7 118,-138.7 118,-119.7 91,-119.7"/>
<text text-anchor="start" x="99.4053" y="-125.8" font-family="Helvetica,sans-Serif" font-size="11.00" fill="#000000">1 &gt;</text>
</a>
</g>
</g>
<!-- skills&#45;&gt;categories -->
<g id="edge8" class="edge">
<title>skills:w&#45;&gt;categories:e</title>
<path fill="none" stroke="#000000" d="M211.4478,-147.7C174.9443,-147.7 160.75,-147.7 118,-147.7"/>
<polygon fill="#000000" stroke="#000000" points="218,-147.7001 226,-151.3 222,-147.7 226,-147.7 226,-147.7 226,-147.7 222,-147.7 226,-144.1 218,-147.7001 218,-147.7001"/>
<ellipse fill="none" stroke="#000000" cx="214.8" cy="-147.7001" rx="3.2" ry="3.2"/>
</g>
<!-- events -->
<g id="node9" class="node">
<title>events</title>
<g id="a_node9"><a xlink:href="../../tables/events.html" xlink:title="events" target="_top">
<polygon fill="#ffffff" stroke="transparent" points="31,-202.2 31,-263.2 111,-263.2 111,-202.2 31,-202.2"/>
<polygon fill="#f5f5f5" stroke="transparent" points="31,-239.7 31,-262.7 111,-262.7 111,-239.7 31,-239.7"/>
<polygon fill="none" stroke="#000000" points="31,-239.7 31,-262.7 111,-262.7 111,-239.7 31,-239.7"/>
<text text-anchor="start" x="36" y="-248.8" font-family="Helvetica,sans-Serif" font-weight="bold" font-size="11.00" fill="#000000">events</text>
<text text-anchor="start" x="76.0437" y="-247.8" font-family="Helvetica,sans-Serif" font-size="11.00" fill="#000000">[table]</text>
<polygon fill="none" stroke="#000000" points="31,-220.7 31,-239.7 111,-239.7 111,-220.7 31,-220.7"/>
<text text-anchor="start" x="34" y="-226.8" font-family="Helvetica,sans-Serif" font-size="11.00" fill="#000000">...</text>
<polygon fill="#ffffff" stroke="transparent" points="31,-201.7 31,-220.7 52,-220.7 52,-201.7 31,-201.7"/>
<polygon fill="none" stroke="#000000" points="31,-201.7 31,-220.7 52,-220.7 52,-201.7 31,-201.7"/>
<text text-anchor="start" x="33.7027" y="-207.8" font-family="Helvetica,sans-Serif" font-size="11.00" fill="#000000">&lt; 1</text>
<polygon fill="#ffffff" stroke="transparent" points="52,-201.7 52,-220.7 90,-220.7 90,-201.7 52,-201.7"/>
<polygon fill="none" stroke="#000000" points="52,-201.7 52,-220.7 90,-220.7 90,-201.7 52,-201.7"/>
<text text-anchor="start" x="54.8053" y="-207.8" font-family="Helvetica,sans-Serif" font-size="11.00" fill="#000000">0 rows</text>
<polygon fill="#ffffff" stroke="transparent" points="90,-201.7 90,-220.7 111,-220.7 111,-201.7 90,-201.7"/>
<polygon fill="none" stroke="#000000" points="90,-201.7 90,-220.7 111,-220.7 111,-201.7 90,-201.7"/>
<text text-anchor="start" x="92.7027" y="-207.8" font-family="Helvetica,sans-Serif" font-size="11.00" fill="#000000">1 &gt;</text>
</a>
</g>
</g>
<!-- skills&#45;&gt;events -->
<g id="edge9" class="edge">
<title>skills:w&#45;&gt;events:e</title>
<path fill="none" stroke="#000000" d="M211.4992,-171.124C167.9171,-180.21 163.3574,-229.7 111,-229.7"/>
<polygon fill="#000000" stroke="#000000" points="218.0383,-170.4819 226.3518,-173.2828 222.0191,-170.0909 226,-169.7 226,-169.7 226,-169.7 222.0191,-170.0909 225.6482,-166.1172 218.0383,-170.4819 218.0383,-170.4819"/>
<ellipse fill="none" stroke="#000000" cx="214.8536" cy="-170.7946" rx="3.2" ry="3.2"/>
</g>
<!-- levels -->
<g id="node10" class="node">
<title>levels</title>
<g id="a_node10"><a xlink:href="../../tables/levels.html" xlink:title="levels" target="_top">
<polygon fill="#ffffff" stroke="transparent" points="35.5,-38.2 35.5,-99.2 106.5,-99.2 106.5,-38.2 35.5,-38.2"/>
<polygon fill="#f5f5f5" stroke="transparent" points="36,-75.7 36,-98.7 107,-98.7 107,-75.7 36,-75.7"/>
<polygon fill="none" stroke="#000000" points="36,-75.7 36,-98.7 107,-98.7 107,-75.7 36,-75.7"/>
<text text-anchor="start" x="40.9442" y="-84.8" font-family="Helvetica,sans-Serif" font-weight="bold" font-size="11.00" fill="#000000">levels</text>
<text text-anchor="start" x="72.5219" y="-83.8" font-family="Helvetica,sans-Serif" font-size="11.00" fill="#000000">[table]</text>
<polygon fill="none" stroke="#000000" points="36,-56.7 36,-75.7 107,-75.7 107,-56.7 36,-56.7"/>
<text text-anchor="start" x="39" y="-62.8" font-family="Helvetica,sans-Serif" font-size="11.00" fill="#000000">...</text>
<polygon fill="#ffffff" stroke="transparent" points="36,-37.7 36,-56.7 48,-56.7 48,-37.7 36,-37.7"/>
<polygon fill="none" stroke="#000000" points="36,-37.7 36,-56.7 48,-56.7 48,-37.7 36,-37.7"/>
<text text-anchor="start" x="38.9431" y="-43.8" font-family="Helvetica,sans-Serif" font-size="11.00" fill="#000000"> &#160;</text>
<polygon fill="#ffffff" stroke="transparent" points="48,-37.7 48,-56.7 86,-56.7 86,-37.7 48,-37.7"/>
<polygon fill="none" stroke="#000000" points="48,-37.7 48,-56.7 86,-56.7 86,-37.7 48,-37.7"/>
<text text-anchor="start" x="50.8053" y="-43.8" font-family="Helvetica,sans-Serif" font-size="11.00" fill="#000000">0 rows</text>
<polygon fill="#ffffff" stroke="transparent" points="86,-37.7 86,-56.7 107,-56.7 107,-37.7 86,-37.7"/>
<polygon fill="none" stroke="#000000" points="86,-37.7 86,-56.7 107,-56.7 107,-37.7 86,-37.7"/>
<text text-anchor="start" x="88.7027" y="-43.8" font-family="Helvetica,sans-Serif" font-size="11.00" fill="#000000">1 &gt;</text>
</a>
</g>
</g>
<!-- skills&#45;&gt;levels -->
<g id="edge10" class="edge">
<title>skills:w&#45;&gt;levels:e</title>
<path fill="none" stroke="#000000" d="M211.3715,-124.3341C166.1984,-115.4031 160.9097,-65.7 107,-65.7"/>
<polygon fill="#000000" stroke="#000000" points="218.0346,-124.9562 225.6653,-129.2844 222.0173,-125.3281 226,-125.7 226,-125.7 226,-125.7 222.0173,-125.3281 226.3347,-122.1156 218.0346,-124.9562 218.0346,-124.9562"/>
<ellipse fill="none" stroke="#000000" cx="214.8485" cy="-124.6587" rx="3.2" ry="3.2"/>
</g>
<!-- gymnasts_has_classes -->
<g id="node6" class="node">
<title>gymnasts_has_classes</title>
<g id="a_node6"><a xlink:href="../../tables/gymnasts_has_classes.html" xlink:title="gymnasts_has_classes" target="_top">
<polygon fill="#ffffff" stroke="transparent" points="446,-382.2 446,-443.2 602,-443.2 602,-382.2 446,-382.2"/>
<polygon fill="#f5f5f5" stroke="transparent" points="446,-419.7 446,-442.7 602,-442.7 602,-419.7 446,-419.7"/>
<polygon fill="none" stroke="#000000" points="446,-419.7 446,-442.7 602,-442.7 602,-419.7 446,-419.7"/>
<text text-anchor="start" x="450.6531" y="-428.8" font-family="Helvetica,sans-Serif" font-weight="bold" font-size="11.00" fill="#000000">gymnasts_has_classes</text>
<text text-anchor="start" x="567.5219" y="-427.8" font-family="Helvetica,sans-Serif" font-size="11.00" fill="#000000">[table]</text>
<polygon fill="none" stroke="#000000" points="446,-400.7 446,-419.7 602,-419.7 602,-400.7 446,-400.7"/>
<text text-anchor="start" x="449" y="-406.8" font-family="Helvetica,sans-Serif" font-size="11.00" fill="#000000">...</text>
<polygon fill="#ffffff" stroke="transparent" points="446,-381.7 446,-400.7 509,-400.7 509,-381.7 446,-381.7"/>
<polygon fill="none" stroke="#000000" points="446,-381.7 446,-400.7 509,-400.7 509,-381.7 446,-381.7"/>
<text text-anchor="start" x="449" y="-387.8" font-family="Helvetica,sans-Serif" font-size="11.00" fill="#000000">&lt; 2</text>
<polygon fill="#ffffff" stroke="transparent" points="509,-381.7 509,-400.7 568,-400.7 568,-381.7 509,-381.7"/>
<polygon fill="none" stroke="#000000" points="509,-381.7 509,-400.7 568,-400.7 568,-381.7 509,-381.7"/>
<text text-anchor="start" x="532.6105" y="-387.8" font-family="Helvetica,sans-Serif" font-size="11.00" fill="#000000">0 rows</text>
<polygon fill="#ffffff" stroke="transparent" points="568,-381.7 568,-400.7 602,-400.7 602,-381.7 568,-381.7"/>
<polygon fill="none" stroke="#000000" points="568,-381.7 568,-400.7 602,-400.7 602,-381.7 568,-381.7"/>
<text text-anchor="start" x="592.8862" y="-387.8" font-family="Helvetica,sans-Serif" font-size="11.00" fill="#000000"> &#160;</text>
</a>
</g>
</g>
<!-- gymnasts_has_classes&#45;&gt;gymnasts -->
<g id="edge6" class="edge">
<title>gymnasts_has_classes:w&#45;&gt;gymnasts:e</title>
<path fill="none" stroke="#000000" d="M431.288,-409.7C403.1859,-409.7 391.1476,-409.7 357,-409.7"/>
<polygon fill="#000000" stroke="#000000" points="438,-409.7001 446,-413.3 442,-409.7 446,-409.7 446,-409.7 446,-409.7 442,-409.7 446,-406.1 438,-409.7001 438,-409.7001"/>
<ellipse fill="none" stroke="#000000" cx="434.8" cy="-409.7001" rx="3.2" ry="3.2"/>
</g>
<!-- skill_lists_has_skills -->
<g id="node7" class="node">
<title>skill_lists_has_skills</title>
<g id="a_node7"><a xlink:href="../../tables/skill_lists_has_skills.html" xlink:title="skill_lists_has_skills" target="_top">
<polygon fill="#ffffff" stroke="transparent" points="454,-100.2 454,-161.2 594,-161.2 594,-100.2 454,-100.2"/>
<polygon fill="#f5f5f5" stroke="transparent" points="454,-137.7 454,-160.7 594,-160.7 594,-137.7 454,-137.7"/>
<polygon fill="none" stroke="#000000" points="454,-137.7 454,-160.7 594,-160.7 594,-137.7 454,-137.7"/>
<text text-anchor="start" x="458.9207" y="-146.8" font-family="Helvetica,sans-Serif" font-weight="bold" font-size="11.00" fill="#000000">skill_lists_has_skills</text>
<text text-anchor="start" x="559.5219" y="-145.8" font-family="Helvetica,sans-Serif" font-size="11.00" fill="#000000">[table]</text>
<polygon fill="none" stroke="#000000" points="454,-118.7 454,-137.7 594,-137.7 594,-118.7 454,-118.7"/>
<text text-anchor="start" x="457" y="-124.8" font-family="Helvetica,sans-Serif" font-size="11.00" fill="#000000">...</text>
<polygon fill="#ffffff" stroke="transparent" points="454,-99.7 454,-118.7 509,-118.7 509,-99.7 454,-99.7"/>
<polygon fill="none" stroke="#000000" points="454,-99.7 454,-118.7 509,-118.7 509,-99.7 454,-99.7"/>
<text text-anchor="start" x="457" y="-105.8" font-family="Helvetica,sans-Serif" font-size="11.00" fill="#000000">&lt; 2</text>
<polygon fill="#ffffff" stroke="transparent" points="509,-99.7 509,-118.7 564,-118.7 564,-99.7 509,-99.7"/>
<polygon fill="none" stroke="#000000" points="509,-99.7 509,-118.7 564,-118.7 564,-99.7 509,-99.7"/>
<text text-anchor="start" x="528.6105" y="-105.8" font-family="Helvetica,sans-Serif" font-size="11.00" fill="#000000">0 rows</text>
<polygon fill="#ffffff" stroke="transparent" points="564,-99.7 564,-118.7 594,-118.7 594,-99.7 564,-99.7"/>
<polygon fill="none" stroke="#000000" points="564,-99.7 564,-118.7 594,-118.7 594,-99.7 564,-99.7"/>
<text text-anchor="start" x="584.8862" y="-105.8" font-family="Helvetica,sans-Serif" font-size="11.00" fill="#000000"> &#160;</text>
</a>
</g>
</g>
<!-- skill_lists_has_skills&#45;&gt;skills -->
<g id="edge7" class="edge">
<title>skill_lists_has_skills:w&#45;&gt;skills:e</title>
<path fill="none" stroke="#000000" d="M439.444,-128.7574C384.7231,-137.0787 377.2042,-191.7 314,-191.7"/>
<polygon fill="#000000" stroke="#000000" points="446.021,-128.2797 454.2609,-131.2905 450.0105,-127.9898 454,-127.7 454,-127.7 454,-127.7 450.0105,-127.9898 453.7391,-124.1095 446.021,-128.2797 446.021,-128.2797"/>
<ellipse fill="none" stroke="#000000" cx="442.8294" cy="-128.5116" rx="3.2" ry="3.2"/>
</g>
</g>
</svg>
