<?xml version="1.0" encoding="UTF-8" standalone="no"?>
<!DOCTYPE svg PUBLIC "-//W3C//DTD SVG 1.1//EN"
 "http://www.w3.org/Graphics/SVG/1.1/DTD/svg11.dtd">
<!-- Generated by graphviz version 2.40.1 (20161225.0304)
 -->
<!-- Title: oneDegreeRelationshipsDiagram Pages: 1 -->
<svg width="483pt" height="347pt"
 viewBox="0.00 0.00 483.00 347.20" xmlns="http://www.w3.org/2000/svg" xmlns:xlink="http://www.w3.org/1999/xlink">
<g id="graph0" class="graph" transform="scale(1 1) rotate(0) translate(4 343.2)">
<title>oneDegreeRelationshipsDiagram</title>
<polygon fill="#ffffff" stroke="transparent" points="-4,4 -4,-343.2 479,-343.2 479,4 -4,4"/>
<text text-anchor="middle" x="72.4936" y="-7.3" font-family="Helvetica,sans-Serif" font-size="11.00" fill="#000000">Generated by SchemaSpy</text>
<!-- gymnast_has_skills -->
<g id="node1" class="node">
<title>gymnast_has_skills</title>
<g id="a_node1"><a xlink:href="../../tables/gymnast_has_skills.html" xlink:title="gymnast_has_skills" target="_top">
<polygon fill="#ffffff" stroke="transparent" points="231,-73.7 231,-273.7 467,-273.7 467,-73.7 231,-73.7"/>
<polygon fill="#f5f5f5" stroke="transparent" points="233,-248.7 233,-271.7 465,-271.7 465,-248.7 233,-248.7"/>
<polygon fill="none" stroke="#000000" points="233,-248.7 233,-271.7 465,-271.7 465,-248.7 233,-248.7"/>
<text text-anchor="start" x="238" y="-257.8" font-family="Helvetica,sans-Serif" font-weight="bold" font-size="11.00" fill="#000000">gymnast_has_skills</text>
<text text-anchor="start" x="430.0437" y="-256.8" font-family="Helvetica,sans-Serif" font-size="11.00" fill="#000000">[table]</text>
<polygon fill="none" stroke="#000000" points="233,-226.7 233,-248.7 367,-248.7 367,-226.7 233,-226.7"/>
<image xlink:href="../../images/primaryKeys.png" width="11px" height="12px" preserveAspectRatio="xMinYMin meet" x="238" y="-243.7"/>
<text text-anchor="start" x="253" y="-233.8" font-family="Helvetica,sans-Serif" font-size="11.00" fill="#000000">gymnast_id</text>
<polygon fill="none" stroke="#000000" points="367,-226.7 367,-248.7 465,-248.7 465,-226.7 367,-226.7"/>
<text text-anchor="start" x="370" y="-234.4" font-family="Helvetica,sans-Serif" font-size="11.00" fill="#000000">bigint[19]</text>
<polygon fill="none" stroke="#000000" points="233,-204.7 233,-226.7 367,-226.7 367,-204.7 233,-204.7"/>
<image xlink:href="../../images/primaryKeys.png" width="11px" height="12px" preserveAspectRatio="xMinYMin meet" x="238" y="-221.7"/>
<text text-anchor="start" x="253" y="-211.8" font-family="Helvetica,sans-Serif" font-size="11.00" fill="#000000">skills_Id</text>
<polygon fill="none" stroke="#000000" points="367,-204.7 367,-226.7 465,-226.7 465,-204.7 367,-204.7"/>
<text text-anchor="start" x="369.8429" y="-212.4" font-family="Helvetica,sans-Serif" font-size="11.00" fill="#000000">bigint unsigned[20]</text>
<polygon fill="none" stroke="#000000" points="233,-182.7 233,-204.7 367,-204.7 367,-182.7 233,-182.7"/>
<text text-anchor="start" x="253" y="-189.8" font-family="Helvetica,sans-Serif" font-size="11.00" fill="#000000">progress_status</text>
<polygon fill="none" stroke="#000000" points="367,-182.7 367,-204.7 465,-204.7 465,-182.7 367,-182.7"/>
<text text-anchor="start" x="370" y="-190.4" font-family="Helvetica,sans-Serif" font-size="11.00" fill="#000000">int[10]</text>
<polygon fill="none" stroke="#000000" points="233,-160.7 233,-182.7 367,-182.7 367,-160.7 233,-160.7"/>
<text text-anchor="start" x="253" y="-167.8" font-family="Helvetica,sans-Serif" font-size="11.00" fill="#000000">coach_verify</text>
<polygon fill="none" stroke="#000000" points="367,-160.7 367,-182.7 465,-182.7 465,-160.7 367,-160.7"/>
<text text-anchor="start" x="370" y="-168.4" font-family="Helvetica,sans-Serif" font-size="11.00" fill="#000000">json[1073741824]</text>
<polygon fill="none" stroke="#000000" points="233,-138.7 233,-160.7 367,-160.7 367,-138.7 233,-138.7"/>
<text text-anchor="start" x="253" y="-145.8" font-family="Helvetica,sans-Serif" font-size="11.00" fill="#000000">interactions</text>
<polygon fill="none" stroke="#000000" points="367,-138.7 367,-160.7 465,-160.7 465,-138.7 367,-138.7"/>
<text text-anchor="start" x="370" y="-146.4" font-family="Helvetica,sans-Serif" font-size="11.00" fill="#000000">json[1073741824]</text>
<polygon fill="none" stroke="#000000" points="233,-116.7 233,-138.7 367,-138.7 367,-116.7 233,-116.7"/>
<text text-anchor="start" x="253" y="-123.8" font-family="Helvetica,sans-Serif" font-size="11.00" fill="#000000">created_at</text>
<polygon fill="none" stroke="#000000" points="367,-116.7 367,-138.7 465,-138.7 465,-116.7 367,-116.7"/>
<text text-anchor="start" x="370" y="-124.4" font-family="Helvetica,sans-Serif" font-size="11.00" fill="#000000">timestamp[19]</text>
<polygon fill="none" stroke="#000000" points="233,-94.7 233,-116.7 367,-116.7 367,-94.7 233,-94.7"/>
<text text-anchor="start" x="253" y="-101.8" font-family="Helvetica,sans-Serif" font-size="11.00" fill="#000000">updated_at</text>
<polygon fill="none" stroke="#000000" points="367,-94.7 367,-116.7 465,-116.7 465,-94.7 367,-94.7"/>
<text text-anchor="start" x="370" y="-102.4" font-family="Helvetica,sans-Serif" font-size="11.00" fill="#000000">timestamp[19]</text>
<polygon fill="#ffffff" stroke="transparent" points="233,-75.7 233,-94.7 291,-94.7 291,-75.7 233,-75.7"/>
<polygon fill="none" stroke="#000000" points="233,-75.7 233,-94.7 291,-94.7 291,-75.7 233,-75.7"/>
<text text-anchor="start" x="236" y="-81.8" font-family="Helvetica,sans-Serif" font-size="11.00" fill="#000000">&lt; 2</text>
<polygon fill="#ffffff" stroke="transparent" points="291,-75.7 291,-94.7 367,-94.7 367,-75.7 291,-75.7"/>
<polygon fill="none" stroke="#000000" points="291,-75.7 291,-94.7 367,-94.7 367,-75.7 291,-75.7"/>
<text text-anchor="start" x="331.6105" y="-81.8" font-family="Helvetica,sans-Serif" font-size="11.00" fill="#000000">0 rows</text>
<polygon fill="#ffffff" stroke="transparent" points="367,-75.7 367,-94.7 465,-94.7 465,-75.7 367,-75.7"/>
<polygon fill="none" stroke="#000000" points="367,-75.7 367,-94.7 465,-94.7 465,-75.7 367,-75.7"/>
<text text-anchor="start" x="446.4053" y="-81.8" font-family="Helvetica,sans-Serif" font-size="11.00" fill="#000000">0 &gt;</text>
<polygon fill="none" stroke="#000000" stroke-width="2" points="232,-74.7 232,-272.7 466,-272.7 466,-74.7 232,-74.7"/>
</a>
</g>
</g>
<!-- gymnasts -->
<g id="node2" class="node">
<title>gymnasts</title>
<g id="a_node2"><a xlink:href="../../tables/gymnasts.html" xlink:title="gymnasts" target="_top">
<polygon fill="#ffffff" stroke="transparent" points="8,-208.2 8,-335.2 182,-335.2 182,-208.2 8,-208.2"/>
<polygon fill="#f5f5f5" stroke="transparent" points="8,-311.7 8,-334.7 182,-334.7 182,-311.7 8,-311.7"/>
<polygon fill="none" stroke="#000000" points="8,-311.7 8,-334.7 182,-334.7 182,-311.7 8,-311.7"/>
<text text-anchor="start" x="13" y="-320.8" font-family="Helvetica,sans-Serif" font-weight="bold" font-size="11.00" fill="#000000">gymnasts</text>
<text text-anchor="start" x="147.0437" y="-319.8" font-family="Helvetica,sans-Serif" font-size="11.00" fill="#000000">[table]</text>
<polygon fill="none" stroke="#000000" points="8,-289.7 8,-311.7 182,-311.7 182,-289.7 8,-289.7"/>
<image xlink:href="../../images/primaryKeys.png" width="11px" height="12px" preserveAspectRatio="xMinYMin meet" x="13" y="-306.7"/>
<text text-anchor="start" x="28" y="-296.8" font-family="Helvetica,sans-Serif" font-size="11.00" fill="#000000">id</text>
<polygon fill="#ffffff" stroke="transparent" points="8,-267.7 8,-289.7 182,-289.7 182,-267.7 8,-267.7"/>
<polygon fill="none" stroke="#000000" points="8,-267.7 8,-289.7 182,-289.7 182,-267.7 8,-267.7"/>
<image xlink:href="../../images/foreignKeys.png" width="11px" height="12px" preserveAspectRatio="xMinYMin meet" x="13" y="-284.7"/>
<text text-anchor="start" x="28" y="-274.8" font-family="Helvetica,sans-Serif" font-size="11.00" fill="#000000">gyms_has_users_gyms_id</text>
<polygon fill="#ffffff" stroke="transparent" points="8,-245.7 8,-267.7 182,-267.7 182,-245.7 8,-245.7"/>
<polygon fill="none" stroke="#000000" points="8,-245.7 8,-267.7 182,-267.7 182,-245.7 8,-245.7"/>
<image xlink:href="../../images/foreignKeys.png" width="11px" height="12px" preserveAspectRatio="xMinYMin meet" x="13" y="-262.7"/>
<text text-anchor="start" x="28" y="-252.8" font-family="Helvetica,sans-Serif" font-size="11.00" fill="#000000">gyms_has_users_users_id</text>
<polygon fill="none" stroke="#000000" points="8,-226.7 8,-245.7 182,-245.7 182,-226.7 8,-226.7"/>
<text text-anchor="start" x="11" y="-232.8" font-family="Helvetica,sans-Serif" font-size="11.00" fill="#000000">...</text>
<polygon fill="#ffffff" stroke="transparent" points="8,-207.7 8,-226.7 76,-226.7 76,-207.7 8,-207.7"/>
<polygon fill="none" stroke="#000000" points="8,-207.7 8,-226.7 76,-226.7 76,-207.7 8,-207.7"/>
<text text-anchor="start" x="11" y="-213.8" font-family="Helvetica,sans-Serif" font-size="11.00" fill="#000000">&lt; 2</text>
<polygon fill="#ffffff" stroke="transparent" points="76,-207.7 76,-226.7 137,-226.7 137,-207.7 76,-207.7"/>
<polygon fill="none" stroke="#000000" points="76,-207.7 76,-226.7 137,-226.7 137,-207.7 76,-207.7"/>
<text text-anchor="start" x="101.6105" y="-213.8" font-family="Helvetica,sans-Serif" font-size="11.00" fill="#000000">0 rows</text>
<polygon fill="#ffffff" stroke="transparent" points="137,-207.7 137,-226.7 182,-226.7 182,-207.7 137,-207.7"/>
<polygon fill="none" stroke="#000000" points="137,-207.7 137,-226.7 182,-226.7 182,-207.7 137,-207.7"/>
<text text-anchor="start" x="163.4053" y="-213.8" font-family="Helvetica,sans-Serif" font-size="11.00" fill="#000000">3 &gt;</text>
</a>
</g>
</g>
<!-- gymnast_has_skills&#45;&gt;gymnasts -->
<g id="edge1" class="edge">
<title>gymnast_has_skills:w&#45;&gt;gymnasts:e</title>
<path fill="none" stroke="#000000" d="M218.9033,-242.6435C202.525,-257.4952 211.8329,-300.7 182,-300.7"/>
<polygon fill="#000000" stroke="#000000" points="225.4507,-240.3474 234.1913,-241.0972 229.2254,-239.0237 233,-237.7 233,-237.7 233,-237.7 229.2254,-239.0237 231.8087,-234.3028 225.4507,-240.3474 225.4507,-240.3474"/>
<ellipse fill="none" stroke="#000000" cx="222.431" cy="-241.4064" rx="3.2" ry="3.2"/>
</g>
<!-- skills -->
<g id="node3" class="node">
<title>skills</title>
<g id="a_node3"><a xlink:href="../../tables/skills.html" xlink:title="skills" target="_top">
<polygon fill="#ffffff" stroke="transparent" points="51,-38.2 51,-187.2 139,-187.2 139,-38.2 51,-38.2"/>
<polygon fill="#f5f5f5" stroke="transparent" points="51,-163.7 51,-186.7 139,-186.7 139,-163.7 51,-163.7"/>
<polygon fill="none" stroke="#000000" points="51,-163.7 51,-186.7 139,-186.7 139,-163.7 51,-163.7"/>
<text text-anchor="start" x="56" y="-172.8" font-family="Helvetica,sans-Serif" font-weight="bold" font-size="11.00" fill="#000000">skills</text>
<text text-anchor="start" x="104.0437" y="-171.8" font-family="Helvetica,sans-Serif" font-size="11.00" fill="#000000">[table]</text>
<polygon fill="none" stroke="#000000" points="51,-141.7 51,-163.7 139,-163.7 139,-141.7 51,-141.7"/>
<image xlink:href="../../images/primaryKeys.png" width="11px" height="12px" preserveAspectRatio="xMinYMin meet" x="56" y="-158.7"/>
<text text-anchor="start" x="71" y="-148.8" font-family="Helvetica,sans-Serif" font-size="11.00" fill="#000000">id</text>
<polygon fill="#ffffff" stroke="transparent" points="51,-119.7 51,-141.7 139,-141.7 139,-119.7 51,-119.7"/>
<polygon fill="none" stroke="#000000" points="51,-119.7 51,-141.7 139,-141.7 139,-119.7 51,-119.7"/>
<image xlink:href="../../images/foreignKeys.png" width="11px" height="12px" preserveAspectRatio="xMinYMin meet" x="56" y="-136.7"/>
<text text-anchor="start" x="71" y="-126.8" font-family="Helvetica,sans-Serif" font-size="11.00" fill="#000000">event_id</text>
<polygon fill="#ffffff" stroke="transparent" points="51,-97.7 51,-119.7 139,-119.7 139,-97.7 51,-97.7"/>
<polygon fill="none" stroke="#000000" points="51,-97.7 51,-119.7 139,-119.7 139,-97.7 51,-97.7"/>
<image xlink:href="../../images/foreignKeys.png" width="11px" height="12px" preserveAspectRatio="xMinYMin meet" x="56" y="-114.7"/>
<text text-anchor="start" x="71" y="-104.8" font-family="Helvetica,sans-Serif" font-size="11.00" fill="#000000">category_id</text>
<polygon fill="#ffffff" stroke="transparent" points="51,-75.7 51,-97.7 139,-97.7 139,-75.7 51,-75.7"/>
<polygon fill="none" stroke="#000000" points="51,-75.7 51,-97.7 139,-97.7 139,-75.7 51,-75.7"/>
<image xlink:href="../../images/foreignKeys.png" width="11px" height="12px" preserveAspectRatio="xMinYMin meet" x="56" y="-92.7"/>
<text text-anchor="start" x="71" y="-82.8" font-family="Helvetica,sans-Serif" font-size="11.00" fill="#000000">level_id</text>
<polygon fill="none" stroke="#000000" points="51,-56.7 51,-75.7 139,-75.7 139,-56.7 51,-56.7"/>
<text text-anchor="start" x="54" y="-62.8" font-family="Helvetica,sans-Serif" font-size="11.00" fill="#000000">...</text>
<polygon fill="#ffffff" stroke="transparent" points="51,-37.7 51,-56.7 76,-56.7 76,-37.7 51,-37.7"/>
<polygon fill="none" stroke="#000000" points="51,-37.7 51,-56.7 76,-56.7 76,-37.7 51,-37.7"/>
<text text-anchor="start" x="54" y="-43.8" font-family="Helvetica,sans-Serif" font-size="11.00" fill="#000000">&lt; 3</text>
<polygon fill="#ffffff" stroke="transparent" points="76,-37.7 76,-56.7 116,-56.7 116,-37.7 76,-37.7"/>
<polygon fill="none" stroke="#000000" points="76,-37.7 76,-56.7 116,-56.7 116,-37.7 76,-37.7"/>
<text text-anchor="start" x="80.6105" y="-43.8" font-family="Helvetica,sans-Serif" font-size="11.00" fill="#000000">0 rows</text>
<polygon fill="#ffffff" stroke="transparent" points="116,-37.7 116,-56.7 139,-56.7 139,-37.7 116,-37.7"/>
<polygon fill="none" stroke="#000000" points="116,-37.7 116,-56.7 139,-56.7 139,-37.7 116,-37.7"/>
<text text-anchor="start" x="120.4053" y="-43.8" font-family="Helvetica,sans-Serif" font-size="11.00" fill="#000000">2 &gt;</text>
</a>
</g>
</g>
<!-- gymnast_has_skills&#45;&gt;skills -->
<g id="edge2" class="edge">
<title>gymnast_has_skills:w&#45;&gt;skills:e</title>
<path fill="none" stroke="#000000" d="M218.3901,-213.6039C183.4673,-202.6724 183.7922,-152.7 139,-152.7"/>
<polygon fill="#000000" stroke="#000000" points="225.0811,-214.5638 232.4887,-219.2635 229.0405,-215.1319 233,-215.7 233,-215.7 233,-215.7 229.0405,-215.1319 233.5113,-212.1365 225.0811,-214.5638 225.0811,-214.5638"/>
<ellipse fill="none" stroke="#000000" cx="221.9135" cy="-214.1093" rx="3.2" ry="3.2"/>
</g>
</g>
</svg>
