<?xml version="1.0" encoding="UTF-8" standalone="no"?>
<!DOCTYPE svg PUBLIC "-//W3C//DTD SVG 1.1//EN"
 "http://www.w3.org/Graphics/SVG/1.1/DTD/svg11.dtd">
<!-- Generated by graphviz version 2.40.1 (20161225.0304)
 -->
<!-- Title: twoDegreesRelationshipsDiagram Pages: 1 -->
<svg width="878pt" height="714pt"
 viewBox="0.00 0.00 878.00 714.20" xmlns="http://www.w3.org/2000/svg" xmlns:xlink="http://www.w3.org/1999/xlink">
<g id="graph0" class="graph" transform="scale(1 1) rotate(0) translate(4 710.2)">
<title>twoDegreesRelationshipsDiagram</title>
<polygon fill="#ffffff" stroke="transparent" points="-4,4 -4,-710.2 874,-710.2 874,4 -4,4"/>
<text text-anchor="middle" x="72.4936" y="-7.3" font-family="Helvetica,sans-Serif" font-size="11.00" fill="#000000">Generated by SchemaSpy</text>
<!-- completed_daily_challenges -->
<g id="node1" class="node">
<title>completed_daily_challenges</title>
<g id="a_node1"><a xlink:href="../../tables/completed_daily_challenges.html" xlink:title="completed_daily_challenges" target="_top">
<polygon fill="#ffffff" stroke="transparent" points="653,-164.2 653,-313.2 856,-313.2 856,-164.2 653,-164.2"/>
<polygon fill="#f5f5f5" stroke="transparent" points="653.5,-289.7 653.5,-312.7 856.5,-312.7 856.5,-289.7 653.5,-289.7"/>
<polygon fill="none" stroke="#000000" points="653.5,-289.7 653.5,-312.7 856.5,-312.7 856.5,-289.7 653.5,-289.7"/>
<text text-anchor="start" x="658.5" y="-298.8" font-family="Helvetica,sans-Serif" font-weight="bold" font-size="11.00" fill="#000000">completed_daily_challenges</text>
<text text-anchor="start" x="821.5437" y="-297.8" font-family="Helvetica,sans-Serif" font-size="11.00" fill="#000000">[table]</text>
<polygon fill="none" stroke="#000000" points="653.5,-267.7 653.5,-289.7 856.5,-289.7 856.5,-267.7 653.5,-267.7"/>
<image xlink:href="../../images/primaryKeys.png" width="11px" height="12px" preserveAspectRatio="xMinYMin meet" x="658.5" y="-284.7"/>
<text text-anchor="start" x="673.5" y="-274.8" font-family="Helvetica,sans-Serif" font-size="11.00" fill="#000000">gymnasts_id</text>
<polygon fill="none" stroke="#000000" points="653.5,-245.7 653.5,-267.7 856.5,-267.7 856.5,-245.7 653.5,-245.7"/>
<image xlink:href="../../images/primaryKeys.png" width="11px" height="12px" preserveAspectRatio="xMinYMin meet" x="658.5" y="-262.7"/>
<text text-anchor="start" x="673.5" y="-252.8" font-family="Helvetica,sans-Serif" font-size="11.00" fill="#000000">daily_challenges_classes_id</text>
<polygon fill="none" stroke="#000000" points="653.5,-223.7 653.5,-245.7 856.5,-245.7 856.5,-223.7 653.5,-223.7"/>
<image xlink:href="../../images/primaryKeys.png" width="11px" height="12px" preserveAspectRatio="xMinYMin meet" x="658.5" y="-240.7"/>
<text text-anchor="start" x="673.5" y="-230.8" font-family="Helvetica,sans-Serif" font-size="11.00" fill="#000000">daily_challenges_challenges_id</text>
<polygon fill="none" stroke="#000000" points="653.5,-201.7 653.5,-223.7 856.5,-223.7 856.5,-201.7 653.5,-201.7"/>
<image xlink:href="../../images/primaryKeys.png" width="11px" height="12px" preserveAspectRatio="xMinYMin meet" x="658.5" y="-218.7"/>
<text text-anchor="start" x="673.5" y="-208.8" font-family="Helvetica,sans-Serif" font-size="11.00" fill="#000000">daily_challenges_date</text>
<polygon fill="none" stroke="#000000" points="653.5,-182.7 653.5,-201.7 856.5,-201.7 856.5,-182.7 653.5,-182.7"/>
<text text-anchor="start" x="656.5" y="-188.8" font-family="Helvetica,sans-Serif" font-size="11.00" fill="#000000">...</text>
<polygon fill="#ffffff" stroke="transparent" points="653.5,-163.7 653.5,-182.7 740.5,-182.7 740.5,-163.7 653.5,-163.7"/>
<polygon fill="none" stroke="#000000" points="653.5,-163.7 653.5,-182.7 740.5,-182.7 740.5,-163.7 653.5,-163.7"/>
<text text-anchor="start" x="656.5" y="-169.8" font-family="Helvetica,sans-Serif" font-size="11.00" fill="#000000">&lt; 4</text>
<polygon fill="#ffffff" stroke="transparent" points="740.5,-163.7 740.5,-182.7 811.5,-182.7 811.5,-163.7 740.5,-163.7"/>
<polygon fill="none" stroke="#000000" points="740.5,-163.7 740.5,-182.7 811.5,-182.7 811.5,-163.7 740.5,-163.7"/>
<text text-anchor="start" x="776.1105" y="-169.8" font-family="Helvetica,sans-Serif" font-size="11.00" fill="#000000">0 rows</text>
<polygon fill="#ffffff" stroke="transparent" points="811.5,-163.7 811.5,-182.7 856.5,-182.7 856.5,-163.7 811.5,-163.7"/>
<polygon fill="none" stroke="#000000" points="811.5,-163.7 811.5,-182.7 856.5,-182.7 856.5,-163.7 811.5,-163.7"/>
<text text-anchor="start" x="847.3862" y="-169.8" font-family="Helvetica,sans-Serif" font-size="11.00" fill="#000000"> &#160;</text>
</a>
</g>
</g>
<!-- daily_challenges -->
<g id="node2" class="node">
<title>daily_challenges</title>
<g id="a_node2"><a xlink:href="../../tables/daily_challenges.html" xlink:title="daily_challenges" target="_top">
<polygon fill="#ffffff" stroke="transparent" points="388.5,-185.2 388.5,-246.2 512.5,-246.2 512.5,-185.2 388.5,-185.2"/>
<polygon fill="#f5f5f5" stroke="transparent" points="388.5,-222.7 388.5,-245.7 512.5,-245.7 512.5,-222.7 388.5,-222.7"/>
<polygon fill="none" stroke="#000000" points="388.5,-222.7 388.5,-245.7 512.5,-245.7 512.5,-222.7 388.5,-222.7"/>
<text text-anchor="start" x="393.3512" y="-231.8" font-family="Helvetica,sans-Serif" font-weight="bold" font-size="11.00" fill="#000000">daily_challenges</text>
<text text-anchor="start" x="478.0219" y="-230.8" font-family="Helvetica,sans-Serif" font-size="11.00" fill="#000000">[table]</text>
<polygon fill="none" stroke="#000000" points="388.5,-203.7 388.5,-222.7 512.5,-222.7 512.5,-203.7 388.5,-203.7"/>
<text text-anchor="start" x="391.5" y="-209.8" font-family="Helvetica,sans-Serif" font-size="11.00" fill="#000000">...</text>
<polygon fill="#ffffff" stroke="transparent" points="388.5,-184.7 388.5,-203.7 431.5,-203.7 431.5,-184.7 388.5,-184.7"/>
<polygon fill="none" stroke="#000000" points="388.5,-184.7 388.5,-203.7 431.5,-203.7 431.5,-184.7 388.5,-184.7"/>
<text text-anchor="start" x="391.5" y="-190.8" font-family="Helvetica,sans-Serif" font-size="11.00" fill="#000000">&lt; 2</text>
<polygon fill="#ffffff" stroke="transparent" points="431.5,-184.7 431.5,-203.7 480.5,-203.7 480.5,-184.7 431.5,-184.7"/>
<polygon fill="none" stroke="#000000" points="431.5,-184.7 431.5,-203.7 480.5,-203.7 480.5,-184.7 431.5,-184.7"/>
<text text-anchor="start" x="445.1105" y="-190.8" font-family="Helvetica,sans-Serif" font-size="11.00" fill="#000000">0 rows</text>
<polygon fill="#ffffff" stroke="transparent" points="480.5,-184.7 480.5,-203.7 512.5,-203.7 512.5,-184.7 480.5,-184.7"/>
<polygon fill="none" stroke="#000000" points="480.5,-184.7 480.5,-203.7 512.5,-203.7 512.5,-184.7 480.5,-184.7"/>
<text text-anchor="start" x="493.9053" y="-190.8" font-family="Helvetica,sans-Serif" font-size="11.00" fill="#000000">3 &gt;</text>
</a>
</g>
</g>
<!-- completed_daily_challenges&#45;&gt;daily_challenges -->
<g id="edge1" class="edge">
<title>completed_daily_challenges:w&#45;&gt;daily_challenges:e</title>
<path fill="none" stroke="#000000" d="M638.8319,-234.2802C587.422,-231.2387 570.7221,-212.7 512.5,-212.7"/>
<polygon fill="#000000" stroke="#000000" points="645.5033,-234.4711 653.397,-238.2985 649.5016,-234.5855 653.5,-234.7 653.5,-234.7 653.5,-234.7 649.5016,-234.5855 653.603,-231.1015 645.5033,-234.4711 645.5033,-234.4711"/>
<ellipse fill="none" stroke="#000000" cx="642.3046" cy="-234.3795" rx="3.2" ry="3.2"/>
</g>
<!-- completed_daily_challenges&#45;&gt;daily_challenges -->
<g id="edge2" class="edge">
<title>completed_daily_challenges:w&#45;&gt;daily_challenges:e</title>
<path fill="none" stroke="#000000" d="M639.0849,-255.9363C585.995,-250.0936 573.0183,-212.7 512.5,-212.7"/>
<polygon fill="#000000" stroke="#000000" points="645.5112,-256.2767 653.3095,-260.295 649.5056,-256.4884 653.5,-256.7 653.5,-256.7 653.5,-256.7 649.5056,-256.4884 653.6905,-253.105 645.5112,-256.2767 645.5112,-256.2767"/>
<ellipse fill="none" stroke="#000000" cx="642.3157" cy="-256.1074" rx="3.2" ry="3.2"/>
</g>
<!-- completed_daily_challenges&#45;&gt;daily_challenges -->
<g id="edge3" class="edge">
<title>completed_daily_challenges:w&#45;&gt;daily_challenges:e</title>
<path fill="none" stroke="#000000" d="M638.975,-212.7C587.9468,-212.7 570.026,-212.7 512.5,-212.7"/>
<polygon fill="#000000" stroke="#000000" points="645.5,-212.7001 653.5,-216.3 649.5,-212.7 653.5,-212.7 653.5,-212.7 653.5,-212.7 649.5,-212.7 653.5,-209.1 645.5,-212.7001 645.5,-212.7001"/>
<ellipse fill="none" stroke="#000000" cx="642.3" cy="-212.7001" rx="3.2" ry="3.2"/>
</g>
<!-- gymnasts -->
<g id="node3" class="node">
<title>gymnasts</title>
<g id="a_node3"><a xlink:href="../../tables/gymnasts.html" xlink:title="gymnasts" target="_top">
<polygon fill="#ffffff" stroke="transparent" points="303,-267.7 303,-555.7 598,-555.7 598,-267.7 303,-267.7"/>
<polygon fill="#f5f5f5" stroke="transparent" points="305.5,-530.7 305.5,-553.7 596.5,-553.7 596.5,-530.7 305.5,-530.7"/>
<polygon fill="none" stroke="#000000" points="305.5,-530.7 305.5,-553.7 596.5,-553.7 596.5,-530.7 305.5,-530.7"/>
<text text-anchor="start" x="310.5" y="-539.8" font-family="Helvetica,sans-Serif" font-weight="bold" font-size="11.00" fill="#000000">gymnasts</text>
<text text-anchor="start" x="561.5437" y="-538.8" font-family="Helvetica,sans-Serif" font-size="11.00" fill="#000000">[table]</text>
<polygon fill="none" stroke="#000000" points="305.5,-508.7 305.5,-530.7 479.5,-530.7 479.5,-508.7 305.5,-508.7"/>
<image xlink:href="../../images/primaryKeys.png" width="11px" height="12px" preserveAspectRatio="xMinYMin meet" x="310.5" y="-525.7"/>
<text text-anchor="start" x="325.5" y="-515.8" font-family="Helvetica,sans-Serif" font-size="11.00" fill="#000000">id</text>
<polygon fill="none" stroke="#000000" points="479.5,-508.7 479.5,-530.7 596.5,-530.7 596.5,-508.7 479.5,-508.7"/>
<text text-anchor="start" x="482.5" y="-516.4" font-family="Helvetica,sans-Serif" font-size="11.00" fill="#000000">int[10]</text>
<polygon fill="none" stroke="#000000" points="305.5,-486.7 305.5,-508.7 479.5,-508.7 479.5,-486.7 305.5,-486.7"/>
<text text-anchor="start" x="325.5" y="-493.8" font-family="Helvetica,sans-Serif" font-size="11.00" fill="#000000">name</text>
<polygon fill="none" stroke="#000000" points="479.5,-486.7 479.5,-508.7 596.5,-508.7 596.5,-486.7 479.5,-486.7"/>
<text text-anchor="start" x="482.5" y="-494.4" font-family="Helvetica,sans-Serif" font-size="11.00" fill="#000000">varchar[45]</text>
<polygon fill="none" stroke="#000000" points="305.5,-464.7 305.5,-486.7 479.5,-486.7 479.5,-464.7 305.5,-464.7"/>
<text text-anchor="start" x="325.5" y="-471.8" font-family="Helvetica,sans-Serif" font-size="11.00" fill="#000000">birth_date</text>
<polygon fill="none" stroke="#000000" points="479.5,-464.7 479.5,-486.7 596.5,-486.7 596.5,-464.7 479.5,-464.7"/>
<text text-anchor="start" x="482.5" y="-472.4" font-family="Helvetica,sans-Serif" font-size="11.00" fill="#000000">date[10]</text>
<polygon fill="none" stroke="#000000" points="305.5,-442.7 305.5,-464.7 479.5,-464.7 479.5,-442.7 305.5,-442.7"/>
<text text-anchor="start" x="325.5" y="-449.8" font-family="Helvetica,sans-Serif" font-size="11.00" fill="#000000">life_time_score</text>
<polygon fill="none" stroke="#000000" points="479.5,-442.7 479.5,-464.7 596.5,-464.7 596.5,-442.7 479.5,-442.7"/>
<text text-anchor="start" x="482.5" y="-450.4" font-family="Helvetica,sans-Serif" font-size="11.00" fill="#000000">int[10]</text>
<polygon fill="none" stroke="#000000" points="305.5,-420.7 305.5,-442.7 479.5,-442.7 479.5,-420.7 305.5,-420.7"/>
<text text-anchor="start" x="325.5" y="-427.8" font-family="Helvetica,sans-Serif" font-size="11.00" fill="#000000">current_streak_points</text>
<polygon fill="none" stroke="#000000" points="479.5,-420.7 479.5,-442.7 596.5,-442.7 596.5,-420.7 479.5,-420.7"/>
<text text-anchor="start" x="482.5" y="-428.4" font-family="Helvetica,sans-Serif" font-size="11.00" fill="#000000">int[10]</text>
<polygon fill="none" stroke="#000000" points="305.5,-398.7 305.5,-420.7 479.5,-420.7 479.5,-398.7 305.5,-398.7"/>
<text text-anchor="start" x="325.5" y="-405.8" font-family="Helvetica,sans-Serif" font-size="11.00" fill="#000000">last_streak</text>
<polygon fill="none" stroke="#000000" points="479.5,-398.7 479.5,-420.7 596.5,-420.7 596.5,-398.7 479.5,-398.7"/>
<text text-anchor="start" x="482.5" y="-406.4" font-family="Helvetica,sans-Serif" font-size="11.00" fill="#000000">date[10]</text>
<polygon fill="none" stroke="#000000" points="305.5,-376.7 305.5,-398.7 479.5,-398.7 479.5,-376.7 305.5,-376.7"/>
<text text-anchor="start" x="325.5" y="-383.8" font-family="Helvetica,sans-Serif" font-size="11.00" fill="#000000">about</text>
<polygon fill="none" stroke="#000000" points="479.5,-376.7 479.5,-398.7 596.5,-398.7 596.5,-376.7 479.5,-376.7"/>
<text text-anchor="start" x="482.0645" y="-384.4" font-family="Helvetica,sans-Serif" font-size="11.00" fill="#000000">mediumtext[16777215]</text>
<polygon fill="none" stroke="#000000" points="305.5,-354.7 305.5,-376.7 479.5,-376.7 479.5,-354.7 305.5,-354.7"/>
<text text-anchor="start" x="325.5" y="-361.8" font-family="Helvetica,sans-Serif" font-size="11.00" fill="#000000">created</text>
<polygon fill="none" stroke="#000000" points="479.5,-354.7 479.5,-376.7 596.5,-376.7 596.5,-354.7 479.5,-354.7"/>
<text text-anchor="start" x="482.5" y="-362.4" font-family="Helvetica,sans-Serif" font-size="11.00" fill="#000000">date[10]</text>
<polygon fill="none" stroke="#000000" points="305.5,-332.7 305.5,-354.7 479.5,-354.7 479.5,-332.7 305.5,-332.7"/>
<text text-anchor="start" x="325.5" y="-339.8" font-family="Helvetica,sans-Serif" font-size="11.00" fill="#000000">updated</text>
<polygon fill="none" stroke="#000000" points="479.5,-332.7 479.5,-354.7 596.5,-354.7 596.5,-332.7 479.5,-332.7"/>
<text text-anchor="start" x="482.5" y="-340.4" font-family="Helvetica,sans-Serif" font-size="11.00" fill="#000000">date[10]</text>
<polygon fill="#ffffff" stroke="transparent" points="305.5,-310.7 305.5,-332.7 479.5,-332.7 479.5,-310.7 305.5,-310.7"/>
<polygon fill="none" stroke="#000000" points="305.5,-310.7 305.5,-332.7 479.5,-332.7 479.5,-310.7 305.5,-310.7"/>
<image xlink:href="../../images/foreignKeys.png" width="11px" height="12px" preserveAspectRatio="xMinYMin meet" x="310.5" y="-327.7"/>
<text text-anchor="start" x="325.5" y="-317.8" font-family="Helvetica,sans-Serif" font-size="11.00" fill="#000000">gyms_has_users_gyms_id</text>
<polygon fill="none" stroke="#000000" points="479.5,-310.7 479.5,-332.7 596.5,-332.7 596.5,-310.7 479.5,-310.7"/>
<text text-anchor="start" x="482.5" y="-318.4" font-family="Helvetica,sans-Serif" font-size="11.00" fill="#000000">bigint[19]</text>
<polygon fill="#ffffff" stroke="transparent" points="305.5,-288.7 305.5,-310.7 479.5,-310.7 479.5,-288.7 305.5,-288.7"/>
<polygon fill="none" stroke="#000000" points="305.5,-288.7 305.5,-310.7 479.5,-310.7 479.5,-288.7 305.5,-288.7"/>
<image xlink:href="../../images/foreignKeys.png" width="11px" height="12px" preserveAspectRatio="xMinYMin meet" x="310.5" y="-305.7"/>
<text text-anchor="start" x="325.5" y="-295.8" font-family="Helvetica,sans-Serif" font-size="11.00" fill="#000000">gyms_has_users_users_id</text>
<polygon fill="none" stroke="#000000" points="479.5,-288.7 479.5,-310.7 596.5,-310.7 596.5,-288.7 479.5,-288.7"/>
<text text-anchor="start" x="482.5" y="-296.4" font-family="Helvetica,sans-Serif" font-size="11.00" fill="#000000">int[10]</text>
<polygon fill="#ffffff" stroke="transparent" points="305.5,-269.7 305.5,-288.7 383.5,-288.7 383.5,-269.7 305.5,-269.7"/>
<polygon fill="none" stroke="#000000" points="305.5,-269.7 305.5,-288.7 383.5,-288.7 383.5,-269.7 305.5,-269.7"/>
<text text-anchor="start" x="308.5" y="-275.8" font-family="Helvetica,sans-Serif" font-size="11.00" fill="#000000">&lt; 2</text>
<polygon fill="#ffffff" stroke="transparent" points="383.5,-269.7 383.5,-288.7 479.5,-288.7 479.5,-269.7 383.5,-269.7"/>
<polygon fill="none" stroke="#000000" points="383.5,-269.7 383.5,-288.7 479.5,-288.7 479.5,-269.7 383.5,-269.7"/>
<text text-anchor="start" x="444.1105" y="-275.8" font-family="Helvetica,sans-Serif" font-size="11.00" fill="#000000">0 rows</text>
<polygon fill="#ffffff" stroke="transparent" points="479.5,-269.7 479.5,-288.7 596.5,-288.7 596.5,-269.7 479.5,-269.7"/>
<polygon fill="none" stroke="#000000" points="479.5,-269.7 479.5,-288.7 596.5,-288.7 596.5,-269.7 479.5,-269.7"/>
<text text-anchor="start" x="577.9053" y="-275.8" font-family="Helvetica,sans-Serif" font-size="11.00" fill="#000000">4 &gt;</text>
<polygon fill="none" stroke="#000000" stroke-width="2" points="304,-268.7 304,-554.7 597,-554.7 597,-268.7 304,-268.7"/>
</a>
</g>
</g>
<!-- completed_daily_challenges&#45;&gt;gymnasts -->
<g id="edge4" class="edge">
<title>completed_daily_challenges:w&#45;&gt;gymnasts:e</title>
<path fill="none" stroke="#000000" d="M638.7741,-280.5013C559.2974,-302.5551 700.9769,-519.7 596.5,-519.7"/>
<polygon fill="#000000" stroke="#000000" points="645.5592,-279.6714 653.9371,-282.2734 649.5296,-279.1857 653.5,-278.7 653.5,-278.7 653.5,-278.7 649.5296,-279.1857 653.0629,-275.1266 645.5592,-279.6714 645.5592,-279.6714"/>
<ellipse fill="none" stroke="#000000" cx="642.3829" cy="-280.0599" rx="3.2" ry="3.2"/>
</g>
<!-- classes -->
<g id="node6" class="node">
<title>classes</title>
<g id="a_node6"><a xlink:href="../../tables/classes.html" xlink:title="classes" target="_top">
<polygon fill="#ffffff" stroke="transparent" points="151,-552.2 151,-613.2 231,-613.2 231,-552.2 151,-552.2"/>
<polygon fill="#f5f5f5" stroke="transparent" points="151,-589.7 151,-612.7 231,-612.7 231,-589.7 151,-589.7"/>
<polygon fill="none" stroke="#000000" points="151,-589.7 151,-612.7 231,-612.7 231,-589.7 151,-589.7"/>
<text text-anchor="start" x="156" y="-598.8" font-family="Helvetica,sans-Serif" font-weight="bold" font-size="11.00" fill="#000000">classes</text>
<text text-anchor="start" x="196.5219" y="-597.8" font-family="Helvetica,sans-Serif" font-size="11.00" fill="#000000">[table]</text>
<polygon fill="none" stroke="#000000" points="151,-570.7 151,-589.7 231,-589.7 231,-570.7 151,-570.7"/>
<text text-anchor="start" x="154" y="-576.8" font-family="Helvetica,sans-Serif" font-size="11.00" fill="#000000">...</text>
<polygon fill="#ffffff" stroke="transparent" points="151,-551.7 151,-570.7 172,-570.7 172,-551.7 151,-551.7"/>
<polygon fill="none" stroke="#000000" points="151,-551.7 151,-570.7 172,-570.7 172,-551.7 151,-551.7"/>
<text text-anchor="start" x="153.7027" y="-557.8" font-family="Helvetica,sans-Serif" font-size="11.00" fill="#000000">&lt; 1</text>
<polygon fill="#ffffff" stroke="transparent" points="172,-551.7 172,-570.7 210,-570.7 210,-551.7 172,-551.7"/>
<polygon fill="none" stroke="#000000" points="172,-551.7 172,-570.7 210,-570.7 210,-551.7 172,-551.7"/>
<text text-anchor="start" x="174.8053" y="-557.8" font-family="Helvetica,sans-Serif" font-size="11.00" fill="#000000">0 rows</text>
<polygon fill="#ffffff" stroke="transparent" points="210,-551.7 210,-570.7 231,-570.7 231,-551.7 210,-551.7"/>
<polygon fill="none" stroke="#000000" points="210,-551.7 210,-570.7 231,-570.7 231,-551.7 210,-551.7"/>
<text text-anchor="start" x="212.7027" y="-557.8" font-family="Helvetica,sans-Serif" font-size="11.00" fill="#000000">4 &gt;</text>
</a>
</g>
</g>
<!-- daily_challenges&#45;&gt;classes -->
<g id="edge8" class="edge">
<title>daily_challenges:w&#45;&gt;classes:e</title>
<path fill="none" stroke="#000000" d="M373.8655,-213.0306C338.0861,-214.8338 320.0742,-224.6102 295,-256.7 204.8937,-372.0175 377.3465,-579.7 231,-579.7"/>
<polygon fill="#000000" stroke="#000000" points="380.502,-212.8807 388.5813,-216.2991 384.501,-212.7904 388.5,-212.7 388.5,-212.7 388.5,-212.7 384.501,-212.7904 388.4187,-209.1009 380.502,-212.8807 380.502,-212.8807"/>
<ellipse fill="none" stroke="#000000" cx="377.3029" cy="-212.953" rx="3.2" ry="3.2"/>
</g>
<!-- gyms_has_users -->
<g id="node9" class="node">
<title>gyms_has_users</title>
<g id="a_node9"><a xlink:href="../../tables/gyms_has_users.html" xlink:title="gyms_has_users" target="_top">
<polygon fill="#ffffff" stroke="transparent" points="128,-269.7 128,-355.7 254,-355.7 254,-269.7 128,-269.7"/>
<polygon fill="#f5f5f5" stroke="transparent" points="128,-332.7 128,-355.7 254,-355.7 254,-332.7 128,-332.7"/>
<polygon fill="none" stroke="#000000" points="128,-332.7 128,-355.7 254,-355.7 254,-332.7 128,-332.7"/>
<text text-anchor="start" x="132.936" y="-341.8" font-family="Helvetica,sans-Serif" font-weight="bold" font-size="11.00" fill="#000000">gyms_has_users</text>
<text text-anchor="start" x="219.5219" y="-340.8" font-family="Helvetica,sans-Serif" font-size="11.00" fill="#000000">[table]</text>
<polygon fill="none" stroke="#000000" points="128,-310.7 128,-332.7 254,-332.7 254,-310.7 128,-310.7"/>
<image xlink:href="../../images/primaryKeys.png" width="11px" height="12px" preserveAspectRatio="xMinYMin meet" x="133" y="-327.7"/>
<text text-anchor="start" x="152" y="-317.8" font-family="Helvetica,sans-Serif" font-size="11.00" fill="#000000">gym_id</text>
<polygon fill="none" stroke="#000000" points="128,-288.7 128,-310.7 254,-310.7 254,-288.7 128,-288.7"/>
<image xlink:href="../../images/primaryKeys.png" width="11px" height="12px" preserveAspectRatio="xMinYMin meet" x="133" y="-305.7"/>
<text text-anchor="start" x="152" y="-295.8" font-family="Helvetica,sans-Serif" font-size="11.00" fill="#000000">user_id</text>
<polygon fill="#ffffff" stroke="transparent" points="128,-269.7 128,-288.7 172,-288.7 172,-269.7 128,-269.7"/>
<polygon fill="none" stroke="#000000" points="128,-269.7 128,-288.7 172,-288.7 172,-269.7 128,-269.7"/>
<text text-anchor="start" x="131" y="-275.8" font-family="Helvetica,sans-Serif" font-size="11.00" fill="#000000">&lt; 2</text>
<polygon fill="#ffffff" stroke="transparent" points="172,-269.7 172,-288.7 221,-288.7 221,-269.7 172,-269.7"/>
<polygon fill="none" stroke="#000000" points="172,-269.7 172,-288.7 221,-288.7 221,-269.7 172,-269.7"/>
<text text-anchor="start" x="185.6105" y="-275.8" font-family="Helvetica,sans-Serif" font-size="11.00" fill="#000000">0 rows</text>
<polygon fill="#ffffff" stroke="transparent" points="221,-269.7 221,-288.7 254,-288.7 254,-269.7 221,-269.7"/>
<polygon fill="none" stroke="#000000" points="221,-269.7 221,-288.7 254,-288.7 254,-269.7 221,-269.7"/>
<text text-anchor="start" x="235.4053" y="-275.8" font-family="Helvetica,sans-Serif" font-size="11.00" fill="#000000">2 &gt;</text>
</a>
</g>
</g>
<!-- gymnasts&#45;&gt;gyms_has_users -->
<g id="edge11" class="edge">
<title>gymnasts:w&#45;&gt;gyms_has_users:e</title>
<path fill="none" stroke="#000000" d="M291.0156,-321.7C278.6771,-321.7 271.1667,-321.7 254,-321.7"/>
<polygon fill="#000000" stroke="#000000" points="297.5,-321.7001 305.5,-325.3 301.5,-321.7 305.5,-321.7 305.5,-321.7 305.5,-321.7 301.5,-321.7 305.5,-318.1 297.5,-321.7001 297.5,-321.7001"/>
<ellipse fill="none" stroke="#000000" cx="294.3" cy="-321.7001" rx="3.2" ry="3.2"/>
</g>
<!-- gymnasts&#45;&gt;gyms_has_users -->
<g id="edge12" class="edge">
<title>gymnasts:w&#45;&gt;gyms_has_users:e</title>
<path fill="none" stroke="#000000" d="M291.0156,-299.7C278.6771,-299.7 271.1667,-299.7 254,-299.7"/>
<polygon fill="#000000" stroke="#000000" points="297.5,-299.7001 305.5,-303.3 301.5,-299.7 305.5,-299.7 305.5,-299.7 305.5,-299.7 301.5,-299.7 305.5,-296.1 297.5,-299.7001 297.5,-299.7001"/>
<ellipse fill="none" stroke="#000000" cx="294.3" cy="-299.7001" rx="3.2" ry="3.2"/>
</g>
<!-- completed_normal_challenges -->
<g id="node4" class="node">
<title>completed_normal_challenges</title>
<g id="a_node4"><a xlink:href="../../tables/completed_normal_challenges.html" xlink:title="completed_normal_challenges" target="_top">
<polygon fill="#ffffff" stroke="transparent" points="647,-575.2 647,-702.2 862,-702.2 862,-575.2 647,-575.2"/>
<polygon fill="#f5f5f5" stroke="transparent" points="647.5,-678.7 647.5,-701.7 862.5,-701.7 862.5,-678.7 647.5,-678.7"/>
<polygon fill="none" stroke="#000000" points="647.5,-678.7 647.5,-701.7 862.5,-701.7 862.5,-678.7 647.5,-678.7"/>
<text text-anchor="start" x="652.5" y="-687.8" font-family="Helvetica,sans-Serif" font-weight="bold" font-size="11.00" fill="#000000">completed_normal_challenges</text>
<text text-anchor="start" x="827.5437" y="-686.8" font-family="Helvetica,sans-Serif" font-size="11.00" fill="#000000">[table]</text>
<polygon fill="none" stroke="#000000" points="647.5,-656.7 647.5,-678.7 862.5,-678.7 862.5,-656.7 647.5,-656.7"/>
<image xlink:href="../../images/primaryKeys.png" width="11px" height="12px" preserveAspectRatio="xMinYMin meet" x="652.5" y="-673.7"/>
<text text-anchor="start" x="667.5" y="-663.8" font-family="Helvetica,sans-Serif" font-size="11.00" fill="#000000">gymnasts_id</text>
<polygon fill="none" stroke="#000000" points="647.5,-634.7 647.5,-656.7 862.5,-656.7 862.5,-634.7 647.5,-634.7"/>
<image xlink:href="../../images/primaryKeys.png" width="11px" height="12px" preserveAspectRatio="xMinYMin meet" x="652.5" y="-651.7"/>
<text text-anchor="start" x="667.5" y="-641.8" font-family="Helvetica,sans-Serif" font-size="11.00" fill="#000000">normal_challenges_classes_id</text>
<polygon fill="none" stroke="#000000" points="647.5,-612.7 647.5,-634.7 862.5,-634.7 862.5,-612.7 647.5,-612.7"/>
<image xlink:href="../../images/primaryKeys.png" width="11px" height="12px" preserveAspectRatio="xMinYMin meet" x="652.5" y="-629.7"/>
<text text-anchor="start" x="667.5" y="-619.8" font-family="Helvetica,sans-Serif" font-size="11.00" fill="#000000">normal_challenges_challenges_id</text>
<polygon fill="none" stroke="#000000" points="647.5,-593.7 647.5,-612.7 862.5,-612.7 862.5,-593.7 647.5,-593.7"/>
<text text-anchor="start" x="650.5" y="-599.8" font-family="Helvetica,sans-Serif" font-size="11.00" fill="#000000">...</text>
<polygon fill="#ffffff" stroke="transparent" points="647.5,-574.7 647.5,-593.7 740.5,-593.7 740.5,-574.7 647.5,-574.7"/>
<polygon fill="none" stroke="#000000" points="647.5,-574.7 647.5,-593.7 740.5,-593.7 740.5,-574.7 647.5,-574.7"/>
<text text-anchor="start" x="650.5" y="-580.8" font-family="Helvetica,sans-Serif" font-size="11.00" fill="#000000">&lt; 3</text>
<polygon fill="#ffffff" stroke="transparent" points="740.5,-574.7 740.5,-593.7 814.5,-593.7 814.5,-574.7 740.5,-574.7"/>
<polygon fill="none" stroke="#000000" points="740.5,-574.7 740.5,-593.7 814.5,-593.7 814.5,-574.7 740.5,-574.7"/>
<text text-anchor="start" x="779.1105" y="-580.8" font-family="Helvetica,sans-Serif" font-size="11.00" fill="#000000">0 rows</text>
<polygon fill="#ffffff" stroke="transparent" points="814.5,-574.7 814.5,-593.7 862.5,-593.7 862.5,-574.7 814.5,-574.7"/>
<polygon fill="none" stroke="#000000" points="814.5,-574.7 814.5,-593.7 862.5,-593.7 862.5,-574.7 814.5,-574.7"/>
<text text-anchor="start" x="853.3862" y="-580.8" font-family="Helvetica,sans-Serif" font-size="11.00" fill="#000000"> &#160;</text>
</a>
</g>
</g>
<!-- completed_normal_challenges&#45;&gt;gymnasts -->
<g id="edge5" class="edge">
<title>completed_normal_challenges:w&#45;&gt;gymnasts:e</title>
<path fill="none" stroke="#000000" d="M633.1212,-664.7436C591.6199,-643.8845 660.2306,-519.7 596.5,-519.7"/>
<polygon fill="#000000" stroke="#000000" points="639.6639,-666.0888 646.775,-671.2262 643.582,-666.8944 647.5,-667.7 647.5,-667.7 647.5,-667.7 643.582,-666.8944 648.225,-664.1738 639.6639,-666.0888 639.6639,-666.0888"/>
<ellipse fill="none" stroke="#000000" cx="636.5295" cy="-665.4443" rx="3.2" ry="3.2"/>
</g>
<!-- normal_challenges -->
<g id="node5" class="node">
<title>normal_challenges</title>
<g id="a_node5"><a xlink:href="../../tables/normal_challenges.html" xlink:title="normal_challenges" target="_top">
<polygon fill="#ffffff" stroke="transparent" points="383,-604.2 383,-665.2 518,-665.2 518,-604.2 383,-604.2"/>
<polygon fill="#f5f5f5" stroke="transparent" points="383.5,-641.7 383.5,-664.7 518.5,-664.7 518.5,-641.7 383.5,-641.7"/>
<polygon fill="none" stroke="#000000" points="383.5,-641.7 383.5,-664.7 518.5,-664.7 518.5,-641.7 383.5,-641.7"/>
<text text-anchor="start" x="388.3522" y="-650.8" font-family="Helvetica,sans-Serif" font-weight="bold" font-size="11.00" fill="#000000">normal_challenges</text>
<text text-anchor="start" x="484.0219" y="-649.8" font-family="Helvetica,sans-Serif" font-size="11.00" fill="#000000">[table]</text>
<polygon fill="none" stroke="#000000" points="383.5,-622.7 383.5,-641.7 518.5,-641.7 518.5,-622.7 383.5,-622.7"/>
<text text-anchor="start" x="386.5" y="-628.8" font-family="Helvetica,sans-Serif" font-size="11.00" fill="#000000">...</text>
<polygon fill="#ffffff" stroke="transparent" points="383.5,-603.7 383.5,-622.7 431.5,-622.7 431.5,-603.7 383.5,-603.7"/>
<polygon fill="none" stroke="#000000" points="383.5,-603.7 383.5,-622.7 431.5,-622.7 431.5,-603.7 383.5,-603.7"/>
<text text-anchor="start" x="386.5" y="-609.8" font-family="Helvetica,sans-Serif" font-size="11.00" fill="#000000">&lt; 2</text>
<polygon fill="#ffffff" stroke="transparent" points="431.5,-603.7 431.5,-622.7 483.5,-622.7 483.5,-603.7 431.5,-603.7"/>
<polygon fill="none" stroke="#000000" points="431.5,-603.7 431.5,-622.7 483.5,-622.7 483.5,-603.7 431.5,-603.7"/>
<text text-anchor="start" x="448.1105" y="-609.8" font-family="Helvetica,sans-Serif" font-size="11.00" fill="#000000">0 rows</text>
<polygon fill="#ffffff" stroke="transparent" points="483.5,-603.7 483.5,-622.7 518.5,-622.7 518.5,-603.7 483.5,-603.7"/>
<polygon fill="none" stroke="#000000" points="483.5,-603.7 483.5,-622.7 518.5,-622.7 518.5,-603.7 483.5,-603.7"/>
<text text-anchor="start" x="499.9053" y="-609.8" font-family="Helvetica,sans-Serif" font-size="11.00" fill="#000000">2 &gt;</text>
</a>
</g>
</g>
<!-- completed_normal_challenges&#45;&gt;normal_challenges -->
<g id="edge6" class="edge">
<title>completed_normal_challenges:w&#45;&gt;normal_challenges:e</title>
<path fill="none" stroke="#000000" d="M633.0036,-623.8821C587.1708,-625.0729 570.7825,-631.7 518.5,-631.7"/>
<polygon fill="#000000" stroke="#000000" points="639.5006,-623.8006 647.5452,-627.2997 643.5003,-623.7503 647.5,-623.7 647.5,-623.7 647.5,-623.7 643.5003,-623.7503 647.4548,-620.1003 639.5006,-623.8006 639.5006,-623.8006"/>
<ellipse fill="none" stroke="#000000" cx="636.3009" cy="-623.8408" rx="3.2" ry="3.2"/>
</g>
<!-- completed_normal_challenges&#45;&gt;normal_challenges -->
<g id="edge7" class="edge">
<title>completed_normal_challenges:w&#45;&gt;normal_challenges:e</title>
<path fill="none" stroke="#000000" d="M632.958,-645.3813C587.0202,-643.2974 570.9887,-631.7 518.5,-631.7"/>
<polygon fill="#000000" stroke="#000000" points="639.5019,-645.5247 647.4211,-649.2991 643.501,-645.6123 647.5,-645.7 647.5,-645.7 647.5,-645.7 643.501,-645.6123 647.5789,-642.1009 639.5019,-645.5247 639.5019,-645.5247"/>
<ellipse fill="none" stroke="#000000" cx="636.3027" cy="-645.4545" rx="3.2" ry="3.2"/>
</g>
<!-- normal_challenges&#45;&gt;classes -->
<g id="edge17" class="edge">
<title>normal_challenges:w&#45;&gt;classes:e</title>
<path fill="none" stroke="#000000" d="M368.9047,-630.9246C310.2235,-624.4559 297.4348,-579.7 231,-579.7"/>
<polygon fill="#000000" stroke="#000000" points="375.5113,-631.2755 383.309,-635.2949 379.5056,-631.4878 383.5,-631.7 383.5,-631.7 383.5,-631.7 379.5056,-631.4878 383.691,-628.1051 375.5113,-631.2755 375.5113,-631.2755"/>
<ellipse fill="none" stroke="#000000" cx="372.3158" cy="-631.1057" rx="3.2" ry="3.2"/>
</g>
<!-- gymnast_has_skills -->
<g id="node7" class="node">
<title>gymnast_has_skills</title>
<g id="a_node7"><a xlink:href="../../tables/gymnast_has_skills.html" xlink:title="gymnast_has_skills" target="_top">
<polygon fill="#ffffff" stroke="transparent" points="685.5,-38.2 685.5,-143.2 823.5,-143.2 823.5,-38.2 685.5,-38.2"/>
<polygon fill="#f5f5f5" stroke="transparent" points="685.5,-119.7 685.5,-142.7 823.5,-142.7 823.5,-119.7 685.5,-119.7"/>
<polygon fill="none" stroke="#000000" points="685.5,-119.7 685.5,-142.7 823.5,-142.7 823.5,-119.7 685.5,-119.7"/>
<text text-anchor="start" x="690.3271" y="-128.8" font-family="Helvetica,sans-Serif" font-weight="bold" font-size="11.00" fill="#000000">gymnast_has_skills</text>
<text text-anchor="start" x="789.0219" y="-127.8" font-family="Helvetica,sans-Serif" font-size="11.00" fill="#000000">[table]</text>
<polygon fill="none" stroke="#000000" points="685.5,-97.7 685.5,-119.7 823.5,-119.7 823.5,-97.7 685.5,-97.7"/>
<image xlink:href="../../images/primaryKeys.png" width="11px" height="12px" preserveAspectRatio="xMinYMin meet" x="690.5" y="-114.7"/>
<text text-anchor="start" x="707.5" y="-104.8" font-family="Helvetica,sans-Serif" font-size="11.00" fill="#000000">gymnast_id</text>
<polygon fill="none" stroke="#000000" points="685.5,-75.7 685.5,-97.7 823.5,-97.7 823.5,-75.7 685.5,-75.7"/>
<image xlink:href="../../images/primaryKeys.png" width="11px" height="12px" preserveAspectRatio="xMinYMin meet" x="690.5" y="-92.7"/>
<text text-anchor="start" x="707.5" y="-82.8" font-family="Helvetica,sans-Serif" font-size="11.00" fill="#000000">skills_Id</text>
<polygon fill="none" stroke="#000000" points="685.5,-56.7 685.5,-75.7 823.5,-75.7 823.5,-56.7 685.5,-56.7"/>
<text text-anchor="start" x="688.5" y="-62.8" font-family="Helvetica,sans-Serif" font-size="11.00" fill="#000000">...</text>
<polygon fill="#ffffff" stroke="transparent" points="685.5,-37.7 685.5,-56.7 739.5,-56.7 739.5,-37.7 685.5,-37.7"/>
<polygon fill="none" stroke="#000000" points="685.5,-37.7 685.5,-56.7 739.5,-56.7 739.5,-37.7 685.5,-37.7"/>
<text text-anchor="start" x="688.5" y="-43.8" font-family="Helvetica,sans-Serif" font-size="11.00" fill="#000000">&lt; 2</text>
<polygon fill="#ffffff" stroke="transparent" points="739.5,-37.7 739.5,-56.7 794.5,-56.7 794.5,-37.7 739.5,-37.7"/>
<polygon fill="none" stroke="#000000" points="739.5,-37.7 739.5,-56.7 794.5,-56.7 794.5,-37.7 739.5,-37.7"/>
<text text-anchor="start" x="759.1105" y="-43.8" font-family="Helvetica,sans-Serif" font-size="11.00" fill="#000000">0 rows</text>
<polygon fill="#ffffff" stroke="transparent" points="794.5,-37.7 794.5,-56.7 823.5,-56.7 823.5,-37.7 794.5,-37.7"/>
<polygon fill="none" stroke="#000000" points="794.5,-37.7 794.5,-56.7 823.5,-56.7 823.5,-37.7 794.5,-37.7"/>
<text text-anchor="start" x="814.3862" y="-43.8" font-family="Helvetica,sans-Serif" font-size="11.00" fill="#000000"> &#160;</text>
</a>
</g>
</g>
<!-- gymnast_has_skills&#45;&gt;gymnasts -->
<g id="edge9" class="edge">
<title>gymnast_has_skills:w&#45;&gt;gymnasts:e</title>
<path fill="none" stroke="#000000" d="M671.1325,-110.8046C654.4901,-116.456 649.247,-132.9498 639,-153.7 602.7453,-227.116 678.3798,-519.7 596.5,-519.7"/>
<polygon fill="#000000" stroke="#000000" points="677.5845,-109.8595 686.0218,-112.262 681.5422,-109.2798 685.5,-108.7 685.5,-108.7 685.5,-108.7 681.5422,-109.2798 684.9782,-105.138 677.5845,-109.8595 677.5845,-109.8595"/>
<ellipse fill="none" stroke="#000000" cx="674.4183" cy="-110.3234" rx="3.2" ry="3.2"/>
</g>
<!-- skills -->
<g id="node8" class="node">
<title>skills</title>
<g id="a_node8"><a xlink:href="../../tables/skills.html" xlink:title="skills" target="_top">
<polygon fill="#ffffff" stroke="transparent" points="410.5,-59.2 410.5,-120.2 490.5,-120.2 490.5,-59.2 410.5,-59.2"/>
<polygon fill="#f5f5f5" stroke="transparent" points="410.5,-96.7 410.5,-119.7 490.5,-119.7 490.5,-96.7 410.5,-96.7"/>
<polygon fill="none" stroke="#000000" points="410.5,-96.7 410.5,-119.7 490.5,-119.7 490.5,-96.7 410.5,-96.7"/>
<text text-anchor="start" x="415.5" y="-105.8" font-family="Helvetica,sans-Serif" font-weight="bold" font-size="11.00" fill="#000000">skills</text>
<text text-anchor="start" x="455.5437" y="-104.8" font-family="Helvetica,sans-Serif" font-size="11.00" fill="#000000">[table]</text>
<polygon fill="none" stroke="#000000" points="410.5,-77.7 410.5,-96.7 490.5,-96.7 490.5,-77.7 410.5,-77.7"/>
<text text-anchor="start" x="413.5" y="-83.8" font-family="Helvetica,sans-Serif" font-size="11.00" fill="#000000">...</text>
<polygon fill="#ffffff" stroke="transparent" points="410.5,-58.7 410.5,-77.7 431.5,-77.7 431.5,-58.7 410.5,-58.7"/>
<polygon fill="none" stroke="#000000" points="410.5,-58.7 410.5,-77.7 431.5,-77.7 431.5,-58.7 410.5,-58.7"/>
<text text-anchor="start" x="413.2027" y="-64.8" font-family="Helvetica,sans-Serif" font-size="11.00" fill="#000000">&lt; 3</text>
<polygon fill="#ffffff" stroke="transparent" points="431.5,-58.7 431.5,-77.7 469.5,-77.7 469.5,-58.7 431.5,-58.7"/>
<polygon fill="none" stroke="#000000" points="431.5,-58.7 431.5,-77.7 469.5,-77.7 469.5,-58.7 431.5,-58.7"/>
<text text-anchor="start" x="434.3053" y="-64.8" font-family="Helvetica,sans-Serif" font-size="11.00" fill="#000000">0 rows</text>
<polygon fill="#ffffff" stroke="transparent" points="469.5,-58.7 469.5,-77.7 490.5,-77.7 490.5,-58.7 469.5,-58.7"/>
<polygon fill="none" stroke="#000000" points="469.5,-58.7 469.5,-77.7 490.5,-77.7 490.5,-58.7 469.5,-58.7"/>
<text text-anchor="start" x="472.2027" y="-64.8" font-family="Helvetica,sans-Serif" font-size="11.00" fill="#000000">2 &gt;</text>
</a>
</g>
</g>
<!-- gymnast_has_skills&#45;&gt;skills -->
<g id="edge10" class="edge">
<title>gymnast_has_skills:w&#45;&gt;skills:e</title>
<path fill="none" stroke="#000000" d="M670.909,-86.7C596.0711,-86.7 572.0885,-86.7 490.5,-86.7"/>
<polygon fill="#000000" stroke="#000000" points="677.5,-86.7001 685.5,-90.3 681.5,-86.7 685.5,-86.7 685.5,-86.7 685.5,-86.7 681.5,-86.7 685.5,-83.1 677.5,-86.7001 677.5,-86.7001"/>
<ellipse fill="none" stroke="#000000" cx="674.3" cy="-86.7001" rx="3.2" ry="3.2"/>
</g>
<!-- gyms -->
<g id="node11" class="node">
<title>gyms</title>
<g id="a_node11"><a xlink:href="../../tables/gyms.html" xlink:title="gyms" target="_top">
<polygon fill="#ffffff" stroke="transparent" points="8,-324.2 8,-385.2 79,-385.2 79,-324.2 8,-324.2"/>
<polygon fill="#f5f5f5" stroke="transparent" points="8.5,-361.7 8.5,-384.7 79.5,-384.7 79.5,-361.7 8.5,-361.7"/>
<polygon fill="none" stroke="#000000" points="8.5,-361.7 8.5,-384.7 79.5,-384.7 79.5,-361.7 8.5,-361.7"/>
<text text-anchor="start" x="13.5" y="-370.8" font-family="Helvetica,sans-Serif" font-weight="bold" font-size="11.00" fill="#000000">gyms</text>
<text text-anchor="start" x="44.5437" y="-369.8" font-family="Helvetica,sans-Serif" font-size="11.00" fill="#000000">[table]</text>
<polygon fill="none" stroke="#000000" points="8.5,-342.7 8.5,-361.7 79.5,-361.7 79.5,-342.7 8.5,-342.7"/>
<text text-anchor="start" x="11.5" y="-348.8" font-family="Helvetica,sans-Serif" font-size="11.00" fill="#000000">...</text>
<polygon fill="#ffffff" stroke="transparent" points="8.5,-323.7 8.5,-342.7 20.5,-342.7 20.5,-323.7 8.5,-323.7"/>
<polygon fill="none" stroke="#000000" points="8.5,-323.7 8.5,-342.7 20.5,-342.7 20.5,-323.7 8.5,-323.7"/>
<text text-anchor="start" x="11.4431" y="-329.8" font-family="Helvetica,sans-Serif" font-size="11.00" fill="#000000"> &#160;</text>
<polygon fill="#ffffff" stroke="transparent" points="20.5,-323.7 20.5,-342.7 58.5,-342.7 58.5,-323.7 20.5,-323.7"/>
<polygon fill="none" stroke="#000000" points="20.5,-323.7 20.5,-342.7 58.5,-342.7 58.5,-323.7 20.5,-323.7"/>
<text text-anchor="start" x="23.3053" y="-329.8" font-family="Helvetica,sans-Serif" font-size="11.00" fill="#000000">0 rows</text>
<polygon fill="#ffffff" stroke="transparent" points="58.5,-323.7 58.5,-342.7 79.5,-342.7 79.5,-323.7 58.5,-323.7"/>
<polygon fill="none" stroke="#000000" points="58.5,-323.7 58.5,-342.7 79.5,-342.7 79.5,-323.7 58.5,-323.7"/>
<text text-anchor="start" x="61.2027" y="-329.8" font-family="Helvetica,sans-Serif" font-size="11.00" fill="#000000">4 &gt;</text>
</a>
</g>
</g>
<!-- gyms_has_users&#45;&gt;gyms -->
<g id="edge15" class="edge">
<title>gyms_has_users:w&#45;&gt;gyms:e</title>
<path fill="none" stroke="#000000" d="M114.0076,-325.8714C102.1688,-334.1146 98.9055,-351.7 79.5,-351.7"/>
<polygon fill="#000000" stroke="#000000" points="120.3334,-323.9856 129.0285,-325.15 124.1667,-322.8428 128,-321.7 128,-321.7 128,-321.7 124.1667,-322.8428 126.9715,-318.25 120.3334,-323.9856 120.3334,-323.9856"/>
<ellipse fill="none" stroke="#000000" cx="117.2668" cy="-324.8998" rx="3.2" ry="3.2"/>
</g>
<!-- users -->
<g id="node12" class="node">
<title>users</title>
<g id="a_node12"><a xlink:href="../../tables/users.html" xlink:title="users" target="_top">
<polygon fill="#ffffff" stroke="transparent" points="8,-242.2 8,-303.2 79,-303.2 79,-242.2 8,-242.2"/>
<polygon fill="#f5f5f5" stroke="transparent" points="8.5,-279.7 8.5,-302.7 79.5,-302.7 79.5,-279.7 8.5,-279.7"/>
<polygon fill="none" stroke="#000000" points="8.5,-279.7 8.5,-302.7 79.5,-302.7 79.5,-279.7 8.5,-279.7"/>
<text text-anchor="start" x="13.5" y="-288.8" font-family="Helvetica,sans-Serif" font-weight="bold" font-size="11.00" fill="#000000">users</text>
<text text-anchor="start" x="44.5437" y="-287.8" font-family="Helvetica,sans-Serif" font-size="11.00" fill="#000000">[table]</text>
<polygon fill="none" stroke="#000000" points="8.5,-260.7 8.5,-279.7 79.5,-279.7 79.5,-260.7 8.5,-260.7"/>
<text text-anchor="start" x="11.5" y="-266.8" font-family="Helvetica,sans-Serif" font-size="11.00" fill="#000000">...</text>
<polygon fill="#ffffff" stroke="transparent" points="8.5,-241.7 8.5,-260.7 20.5,-260.7 20.5,-241.7 8.5,-241.7"/>
<polygon fill="none" stroke="#000000" points="8.5,-241.7 8.5,-260.7 20.5,-260.7 20.5,-241.7 8.5,-241.7"/>
<text text-anchor="start" x="11.4431" y="-247.8" font-family="Helvetica,sans-Serif" font-size="11.00" fill="#000000"> &#160;</text>
<polygon fill="#ffffff" stroke="transparent" points="20.5,-241.7 20.5,-260.7 58.5,-260.7 58.5,-241.7 20.5,-241.7"/>
<polygon fill="none" stroke="#000000" points="20.5,-241.7 20.5,-260.7 58.5,-260.7 58.5,-241.7 20.5,-241.7"/>
<text text-anchor="start" x="23.3053" y="-247.8" font-family="Helvetica,sans-Serif" font-size="11.00" fill="#000000">0 rows</text>
<polygon fill="#ffffff" stroke="transparent" points="58.5,-241.7 58.5,-260.7 79.5,-260.7 79.5,-241.7 58.5,-241.7"/>
<polygon fill="none" stroke="#000000" points="58.5,-241.7 58.5,-260.7 79.5,-260.7 79.5,-241.7 58.5,-241.7"/>
<text text-anchor="start" x="61.2027" y="-247.8" font-family="Helvetica,sans-Serif" font-size="11.00" fill="#000000">2 &gt;</text>
</a>
</g>
</g>
<!-- gyms_has_users&#45;&gt;users -->
<g id="edge16" class="edge">
<title>gyms_has_users:w&#45;&gt;users:e</title>
<path fill="none" stroke="#000000" d="M114.0076,-295.5286C102.1688,-287.2854 98.9055,-269.7 79.5,-269.7"/>
<polygon fill="#000000" stroke="#000000" points="120.3334,-297.4144 126.9715,-303.15 124.1667,-298.5572 128,-299.7 128,-299.7 128,-299.7 124.1667,-298.5572 129.0285,-296.25 120.3334,-297.4144 120.3334,-297.4144"/>
<ellipse fill="none" stroke="#000000" cx="117.2668" cy="-296.5002" rx="3.2" ry="3.2"/>
</g>
<!-- gymnasts_has_classes -->
<g id="node10" class="node">
<title>gymnasts_has_classes</title>
<g id="a_node10"><a xlink:href="../../tables/gymnasts_has_classes.html" xlink:title="gymnasts_has_classes" target="_top">
<polygon fill="#ffffff" stroke="transparent" points="676.5,-467.7 676.5,-553.7 832.5,-553.7 832.5,-467.7 676.5,-467.7"/>
<polygon fill="#f5f5f5" stroke="transparent" points="676.5,-530.7 676.5,-553.7 832.5,-553.7 832.5,-530.7 676.5,-530.7"/>
<polygon fill="none" stroke="#000000" points="676.5,-530.7 676.5,-553.7 832.5,-553.7 832.5,-530.7 676.5,-530.7"/>
<text text-anchor="start" x="681.1531" y="-539.8" font-family="Helvetica,sans-Serif" font-weight="bold" font-size="11.00" fill="#000000">gymnasts_has_classes</text>
<text text-anchor="start" x="798.0219" y="-538.8" font-family="Helvetica,sans-Serif" font-size="11.00" fill="#000000">[table]</text>
<polygon fill="none" stroke="#000000" points="676.5,-508.7 676.5,-530.7 832.5,-530.7 832.5,-508.7 676.5,-508.7"/>
<image xlink:href="../../images/primaryKeys.png" width="11px" height="12px" preserveAspectRatio="xMinYMin meet" x="681.5" y="-525.7"/>
<text text-anchor="start" x="697.5" y="-515.8" font-family="Helvetica,sans-Serif" font-size="11.00" fill="#000000">gymnasts_id</text>
<polygon fill="none" stroke="#000000" points="676.5,-486.7 676.5,-508.7 832.5,-508.7 832.5,-486.7 676.5,-486.7"/>
<image xlink:href="../../images/primaryKeys.png" width="11px" height="12px" preserveAspectRatio="xMinYMin meet" x="681.5" y="-503.7"/>
<text text-anchor="start" x="697.5" y="-493.8" font-family="Helvetica,sans-Serif" font-size="11.00" fill="#000000">classes_id</text>
<polygon fill="#ffffff" stroke="transparent" points="676.5,-467.7 676.5,-486.7 739.5,-486.7 739.5,-467.7 676.5,-467.7"/>
<polygon fill="none" stroke="#000000" points="676.5,-467.7 676.5,-486.7 739.5,-486.7 739.5,-467.7 676.5,-467.7"/>
<text text-anchor="start" x="679.5" y="-473.8" font-family="Helvetica,sans-Serif" font-size="11.00" fill="#000000">&lt; 2</text>
<polygon fill="#ffffff" stroke="transparent" points="739.5,-467.7 739.5,-486.7 798.5,-486.7 798.5,-467.7 739.5,-467.7"/>
<polygon fill="none" stroke="#000000" points="739.5,-467.7 739.5,-486.7 798.5,-486.7 798.5,-467.7 739.5,-467.7"/>
<text text-anchor="start" x="763.1105" y="-473.8" font-family="Helvetica,sans-Serif" font-size="11.00" fill="#000000">0 rows</text>
<polygon fill="#ffffff" stroke="transparent" points="798.5,-467.7 798.5,-486.7 832.5,-486.7 832.5,-467.7 798.5,-467.7"/>
<polygon fill="none" stroke="#000000" points="798.5,-467.7 798.5,-486.7 832.5,-486.7 832.5,-467.7 798.5,-467.7"/>
<text text-anchor="start" x="823.3862" y="-473.8" font-family="Helvetica,sans-Serif" font-size="11.00" fill="#000000"> &#160;</text>
</a>
</g>
</g>
<!-- gymnasts_has_classes&#45;&gt;gymnasts -->
<g id="edge14" class="edge">
<title>gymnasts_has_classes:w&#45;&gt;gymnasts:e</title>
<path fill="none" stroke="#000000" d="M661.9181,-519.7C637.6172,-519.7 626.6389,-519.7 596.5,-519.7"/>
<polygon fill="#000000" stroke="#000000" points="668.5,-519.7001 676.5,-523.3 672.5,-519.7 676.5,-519.7 676.5,-519.7 676.5,-519.7 672.5,-519.7 676.5,-516.1 668.5,-519.7001 668.5,-519.7001"/>
<ellipse fill="none" stroke="#000000" cx="665.3" cy="-519.7001" rx="3.2" ry="3.2"/>
</g>
<!-- gymnasts_has_classes&#45;&gt;classes -->
<g id="edge13" class="edge">
<title>gymnasts_has_classes:w&#45;&gt;classes:e</title>
<path fill="none" stroke="#000000" d="M662.2524,-500.0583C635.4584,-510.2731 640.8937,-550.8512 606,-565.7 529.2674,-598.3532 314.3914,-579.7 231,-579.7"/>
<polygon fill="#000000" stroke="#000000" points="668.6074,-499.0065 677.0879,-501.2517 672.5537,-498.3532 676.5,-497.7 676.5,-497.7 676.5,-497.7 672.5537,-498.3532 675.9121,-494.1483 668.6074,-499.0065 668.6074,-499.0065"/>
<ellipse fill="none" stroke="#000000" cx="665.4503" cy="-499.529" rx="3.2" ry="3.2"/>
</g>
</g>
</svg>
