<?xml version="1.0" encoding="UTF-8" standalone="no"?>
<!DOCTYPE svg PUBLIC "-//W3C//DTD SVG 1.1//EN"
 "http://www.w3.org/Graphics/SVG/1.1/DTD/svg11.dtd">
<!-- Generated by graphviz version 2.40.1 (20161225.0304)
 -->
<!-- Title: oneDegreeRelationshipsDiagram Pages: 1 -->
<svg width="478pt" height="303pt"
 viewBox="0.00 0.00 478.00 303.20" xmlns="http://www.w3.org/2000/svg" xmlns:xlink="http://www.w3.org/1999/xlink">
<g id="graph0" class="graph" transform="scale(1 1) rotate(0) translate(4 299.2)">
<title>oneDegreeRelationshipsDiagram</title>
<polygon fill="#ffffff" stroke="transparent" points="-4,4 -4,-299.2 474,-299.2 474,4 -4,4"/>
<text text-anchor="middle" x="72.4936" y="-7.3" font-family="Helvetica,sans-Serif" font-size="11.00" fill="#000000">Generated by SchemaSpy</text>
<!-- gymnast_has_skills -->
<g id="node1" class="node">
<title>gymnast_has_skills</title>
<g id="a_node1"><a xlink:href="../../tables/gymnast_has_skills.html" xlink:title="gymnast_has_skills" target="_top">
<polygon fill="#ffffff" stroke="transparent" points="231,-51.7 231,-229.7 462,-229.7 462,-51.7 231,-51.7"/>
<polygon fill="#f5f5f5" stroke="transparent" points="233.5,-204.7 233.5,-227.7 460.5,-227.7 460.5,-204.7 233.5,-204.7"/>
<polygon fill="none" stroke="#000000" points="233.5,-204.7 233.5,-227.7 460.5,-227.7 460.5,-204.7 233.5,-204.7"/>
<text text-anchor="start" x="238.5" y="-213.8" font-family="Helvetica,sans-Serif" font-weight="bold" font-size="11.00" fill="#000000">gymnast_has_skills</text>
<text text-anchor="start" x="425.5437" y="-212.8" font-family="Helvetica,sans-Serif" font-size="11.00" fill="#000000">[table]</text>
<polygon fill="none" stroke="#000000" points="233.5,-182.7 233.5,-204.7 367.5,-204.7 367.5,-182.7 233.5,-182.7"/>
<image xlink:href="../../images/primaryKeys.png" width="11px" height="12px" preserveAspectRatio="xMinYMin meet" x="238.5" y="-199.7"/>
<text text-anchor="start" x="253.5" y="-189.8" font-family="Helvetica,sans-Serif" font-size="11.00" fill="#000000">gymnast_id</text>
<polygon fill="none" stroke="#000000" points="367.5,-182.7 367.5,-204.7 460.5,-204.7 460.5,-182.7 367.5,-182.7"/>
<text text-anchor="start" x="370.5" y="-190.4" font-family="Helvetica,sans-Serif" font-size="11.00" fill="#000000">int[10]</text>
<polygon fill="none" stroke="#000000" points="233.5,-160.7 233.5,-182.7 367.5,-182.7 367.5,-160.7 233.5,-160.7"/>
<image xlink:href="../../images/primaryKeys.png" width="11px" height="12px" preserveAspectRatio="xMinYMin meet" x="238.5" y="-177.7"/>
<text text-anchor="start" x="253.5" y="-167.8" font-family="Helvetica,sans-Serif" font-size="11.00" fill="#000000">skills_Id</text>
<polygon fill="none" stroke="#000000" points="367.5,-160.7 367.5,-182.7 460.5,-182.7 460.5,-160.7 367.5,-160.7"/>
<text text-anchor="start" x="370.5" y="-168.4" font-family="Helvetica,sans-Serif" font-size="11.00" fill="#000000">int[10]</text>
<polygon fill="none" stroke="#000000" points="233.5,-138.7 233.5,-160.7 367.5,-160.7 367.5,-138.7 233.5,-138.7"/>
<text text-anchor="start" x="253.5" y="-145.8" font-family="Helvetica,sans-Serif" font-size="11.00" fill="#000000">progress_status</text>
<polygon fill="none" stroke="#000000" points="367.5,-138.7 367.5,-160.7 460.5,-160.7 460.5,-138.7 367.5,-138.7"/>
<text text-anchor="start" x="370.5" y="-146.4" font-family="Helvetica,sans-Serif" font-size="11.00" fill="#000000">varchar[45]</text>
<polygon fill="none" stroke="#000000" points="233.5,-116.7 233.5,-138.7 367.5,-138.7 367.5,-116.7 233.5,-116.7"/>
<text text-anchor="start" x="253.5" y="-123.8" font-family="Helvetica,sans-Serif" font-size="11.00" fill="#000000">coach_verify</text>
<polygon fill="none" stroke="#000000" points="367.5,-116.7 367.5,-138.7 460.5,-138.7 460.5,-116.7 367.5,-116.7"/>
<text text-anchor="start" x="370.2833" y="-124.4" font-family="Helvetica,sans-Serif" font-size="11.00" fill="#000000">json[1073741824]</text>
<polygon fill="none" stroke="#000000" points="233.5,-94.7 233.5,-116.7 367.5,-116.7 367.5,-94.7 233.5,-94.7"/>
<text text-anchor="start" x="253.5" y="-101.8" font-family="Helvetica,sans-Serif" font-size="11.00" fill="#000000">timestamp</text>
<polygon fill="none" stroke="#000000" points="367.5,-94.7 367.5,-116.7 460.5,-116.7 460.5,-94.7 367.5,-94.7"/>
<text text-anchor="start" x="370.5" y="-102.4" font-family="Helvetica,sans-Serif" font-size="11.00" fill="#000000">date[10]</text>
<polygon fill="none" stroke="#000000" points="233.5,-72.7 233.5,-94.7 367.5,-94.7 367.5,-72.7 233.5,-72.7"/>
<text text-anchor="start" x="253.5" y="-79.8" font-family="Helvetica,sans-Serif" font-size="11.00" fill="#000000">interactions</text>
<polygon fill="none" stroke="#000000" points="367.5,-72.7 367.5,-94.7 460.5,-94.7 460.5,-72.7 367.5,-72.7"/>
<text text-anchor="start" x="370.2833" y="-80.4" font-family="Helvetica,sans-Serif" font-size="11.00" fill="#000000">json[1073741824]</text>
<polygon fill="#ffffff" stroke="transparent" points="233.5,-53.7 233.5,-72.7 291.5,-72.7 291.5,-53.7 233.5,-53.7"/>
<polygon fill="none" stroke="#000000" points="233.5,-53.7 233.5,-72.7 291.5,-72.7 291.5,-53.7 233.5,-53.7"/>
<text text-anchor="start" x="236.5" y="-59.8" font-family="Helvetica,sans-Serif" font-size="11.00" fill="#000000">&lt; 2</text>
<polygon fill="#ffffff" stroke="transparent" points="291.5,-53.7 291.5,-72.7 367.5,-72.7 367.5,-53.7 291.5,-53.7"/>
<polygon fill="none" stroke="#000000" points="291.5,-53.7 291.5,-72.7 367.5,-72.7 367.5,-53.7 291.5,-53.7"/>
<text text-anchor="start" x="332.1105" y="-59.8" font-family="Helvetica,sans-Serif" font-size="11.00" fill="#000000">0 rows</text>
<polygon fill="#ffffff" stroke="transparent" points="367.5,-53.7 367.5,-72.7 460.5,-72.7 460.5,-53.7 367.5,-53.7"/>
<polygon fill="none" stroke="#000000" points="367.5,-53.7 367.5,-72.7 460.5,-72.7 460.5,-53.7 367.5,-53.7"/>
<text text-anchor="start" x="441.9053" y="-59.8" font-family="Helvetica,sans-Serif" font-size="11.00" fill="#000000">0 &gt;</text>
<polygon fill="none" stroke="#000000" stroke-width="2" points="232,-52.7 232,-228.7 461,-228.7 461,-52.7 232,-52.7"/>
</a>
</g>
</g>
<!-- gymnasts -->
<g id="node2" class="node">
<title>gymnasts</title>
<g id="a_node2"><a xlink:href="../../tables/gymnasts.html" xlink:title="gymnasts" target="_top">
<polygon fill="#ffffff" stroke="transparent" points="8,-164.2 8,-291.2 182,-291.2 182,-164.2 8,-164.2"/>
<polygon fill="#f5f5f5" stroke="transparent" points="8,-267.7 8,-290.7 182,-290.7 182,-267.7 8,-267.7"/>
<polygon fill="none" stroke="#000000" points="8,-267.7 8,-290.7 182,-290.7 182,-267.7 8,-267.7"/>
<text text-anchor="start" x="13" y="-276.8" font-family="Helvetica,sans-Serif" font-weight="bold" font-size="11.00" fill="#000000">gymnasts</text>
<text text-anchor="start" x="147.0437" y="-275.8" font-family="Helvetica,sans-Serif" font-size="11.00" fill="#000000">[table]</text>
<polygon fill="none" stroke="#000000" points="8,-245.7 8,-267.7 182,-267.7 182,-245.7 8,-245.7"/>
<image xlink:href="../../images/primaryKeys.png" width="11px" height="12px" preserveAspectRatio="xMinYMin meet" x="13" y="-262.7"/>
<text text-anchor="start" x="28" y="-252.8" font-family="Helvetica,sans-Serif" font-size="11.00" fill="#000000">id</text>
<polygon fill="#ffffff" stroke="transparent" points="8,-223.7 8,-245.7 182,-245.7 182,-223.7 8,-223.7"/>
<polygon fill="none" stroke="#000000" points="8,-223.7 8,-245.7 182,-245.7 182,-223.7 8,-223.7"/>
<image xlink:href="../../images/foreignKeys.png" width="11px" height="12px" preserveAspectRatio="xMinYMin meet" x="13" y="-240.7"/>
<text text-anchor="start" x="28" y="-230.8" font-family="Helvetica,sans-Serif" font-size="11.00" fill="#000000">gyms_has_users_gyms_id</text>
<polygon fill="#ffffff" stroke="transparent" points="8,-201.7 8,-223.7 182,-223.7 182,-201.7 8,-201.7"/>
<polygon fill="none" stroke="#000000" points="8,-201.7 8,-223.7 182,-223.7 182,-201.7 8,-201.7"/>
<image xlink:href="../../images/foreignKeys.png" width="11px" height="12px" preserveAspectRatio="xMinYMin meet" x="13" y="-218.7"/>
<text text-anchor="start" x="28" y="-208.8" font-family="Helvetica,sans-Serif" font-size="11.00" fill="#000000">gyms_has_users_users_id</text>
<polygon fill="none" stroke="#000000" points="8,-182.7 8,-201.7 182,-201.7 182,-182.7 8,-182.7"/>
<text text-anchor="start" x="11" y="-188.8" font-family="Helvetica,sans-Serif" font-size="11.00" fill="#000000">...</text>
<polygon fill="#ffffff" stroke="transparent" points="8,-163.7 8,-182.7 76,-182.7 76,-163.7 8,-163.7"/>
<polygon fill="none" stroke="#000000" points="8,-163.7 8,-182.7 76,-182.7 76,-163.7 8,-163.7"/>
<text text-anchor="start" x="11" y="-169.8" font-family="Helvetica,sans-Serif" font-size="11.00" fill="#000000">&lt; 2</text>
<polygon fill="#ffffff" stroke="transparent" points="76,-163.7 76,-182.7 137,-182.7 137,-163.7 76,-163.7"/>
<polygon fill="none" stroke="#000000" points="76,-163.7 76,-182.7 137,-182.7 137,-163.7 76,-163.7"/>
<text text-anchor="start" x="101.6105" y="-169.8" font-family="Helvetica,sans-Serif" font-size="11.00" fill="#000000">0 rows</text>
<polygon fill="#ffffff" stroke="transparent" points="137,-163.7 137,-182.7 182,-182.7 182,-163.7 137,-163.7"/>
<polygon fill="none" stroke="#000000" points="137,-163.7 137,-182.7 182,-182.7 182,-163.7 137,-163.7"/>
<text text-anchor="start" x="163.4053" y="-169.8" font-family="Helvetica,sans-Serif" font-size="11.00" fill="#000000">4 &gt;</text>
</a>
</g>
</g>
<!-- gymnast_has_skills&#45;&gt;gymnasts -->
<g id="edge1" class="edge">
<title>gymnast_has_skills:w&#45;&gt;gymnasts:e</title>
<path fill="none" stroke="#000000" d="M219.799,-198.2308C202.6358,-212.6761 212.2316,-256.7 182,-256.7"/>
<polygon fill="#000000" stroke="#000000" points="225.9045,-196.2118 234.6303,-197.118 229.7023,-194.9559 233.5,-193.7 233.5,-193.7 233.5,-193.7 229.7023,-194.9559 232.3697,-190.282 225.9045,-196.2118 225.9045,-196.2118"/>
<ellipse fill="none" stroke="#000000" cx="222.8663" cy="-197.2165" rx="3.2" ry="3.2"/>
</g>
<!-- skills -->
<g id="node3" class="node">
<title>skills</title>
<g id="a_node3"><a xlink:href="../../tables/skills.html" xlink:title="skills" target="_top">
<polygon fill="#ffffff" stroke="transparent" points="52.5,-38.2 52.5,-143.2 137.5,-143.2 137.5,-38.2 52.5,-38.2"/>
<polygon fill="#f5f5f5" stroke="transparent" points="53,-119.7 53,-142.7 138,-142.7 138,-119.7 53,-119.7"/>
<polygon fill="none" stroke="#000000" points="53,-119.7 53,-142.7 138,-142.7 138,-119.7 53,-119.7"/>
<text text-anchor="start" x="58" y="-128.8" font-family="Helvetica,sans-Serif" font-weight="bold" font-size="11.00" fill="#000000">skills</text>
<text text-anchor="start" x="103.0437" y="-127.8" font-family="Helvetica,sans-Serif" font-size="11.00" fill="#000000">[table]</text>
<polygon fill="none" stroke="#000000" points="53,-97.7 53,-119.7 138,-119.7 138,-97.7 53,-97.7"/>
<image xlink:href="../../images/primaryKeys.png" width="11px" height="12px" preserveAspectRatio="xMinYMin meet" x="58" y="-114.7"/>
<text text-anchor="start" x="73" y="-104.8" font-family="Helvetica,sans-Serif" font-size="11.00" fill="#000000">id</text>
<polygon fill="#ffffff" stroke="transparent" points="53,-75.7 53,-97.7 138,-97.7 138,-75.7 53,-75.7"/>
<polygon fill="none" stroke="#000000" points="53,-75.7 53,-97.7 138,-97.7 138,-75.7 53,-75.7"/>
<image xlink:href="../../images/foreignKeys.png" width="11px" height="12px" preserveAspectRatio="xMinYMin meet" x="58" y="-92.7"/>
<text text-anchor="start" x="73" y="-82.8" font-family="Helvetica,sans-Serif" font-size="11.00" fill="#000000">events_id</text>
<polygon fill="none" stroke="#000000" points="53,-56.7 53,-75.7 138,-75.7 138,-56.7 53,-56.7"/>
<text text-anchor="start" x="56" y="-62.8" font-family="Helvetica,sans-Serif" font-size="11.00" fill="#000000">...</text>
<polygon fill="#ffffff" stroke="transparent" points="53,-37.7 53,-56.7 76,-56.7 76,-37.7 53,-37.7"/>
<polygon fill="none" stroke="#000000" points="53,-37.7 53,-56.7 76,-56.7 76,-37.7 53,-37.7"/>
<text text-anchor="start" x="56" y="-43.8" font-family="Helvetica,sans-Serif" font-size="11.00" fill="#000000">&lt; 1</text>
<polygon fill="#ffffff" stroke="transparent" points="76,-37.7 76,-56.7 115,-56.7 115,-37.7 76,-37.7"/>
<polygon fill="none" stroke="#000000" points="76,-37.7 76,-56.7 115,-56.7 115,-37.7 76,-37.7"/>
<text text-anchor="start" x="79.6105" y="-43.8" font-family="Helvetica,sans-Serif" font-size="11.00" fill="#000000">0 rows</text>
<polygon fill="#ffffff" stroke="transparent" points="115,-37.7 115,-56.7 138,-56.7 138,-37.7 115,-37.7"/>
<polygon fill="none" stroke="#000000" points="115,-37.7 115,-56.7 138,-56.7 138,-37.7 115,-37.7"/>
<text text-anchor="start" x="119.4053" y="-43.8" font-family="Helvetica,sans-Serif" font-size="11.00" fill="#000000">2 &gt;</text>
</a>
</g>
</g>
<!-- gymnast_has_skills&#45;&gt;skills -->
<g id="edge2" class="edge">
<title>gymnast_has_skills:w&#45;&gt;skills:e</title>
<path fill="none" stroke="#000000" d="M219.1811,-169.7455C183.3244,-159.1117 183.4852,-108.7 138,-108.7"/>
<polygon fill="#000000" stroke="#000000" points="225.5735,-170.618 233.0131,-175.2669 229.5368,-171.159 233.5,-171.7 233.5,-171.7 233.5,-171.7 229.5368,-171.159 233.9869,-168.1331 225.5735,-170.618 225.5735,-170.618"/>
<ellipse fill="none" stroke="#000000" cx="222.4029" cy="-170.1852" rx="3.2" ry="3.2"/>
</g>
</g>
</svg>
