<?xml version="1.0" encoding="UTF-8" standalone="no"?>
<!DOCTYPE svg PUBLIC "-//W3C//DTD SVG 1.1//EN"
 "http://www.w3.org/Graphics/SVG/1.1/DTD/svg11.dtd">
<!-- Generated by graphviz version 2.40.1 (20161225.0304)
 -->
<!-- Title: twoDegreesRelationshipsDiagram Pages: 1 -->
<svg width="819pt" height="639pt"
 viewBox="0.00 0.00 819.00 639.20" xmlns="http://www.w3.org/2000/svg" xmlns:xlink="http://www.w3.org/1999/xlink">
<g id="graph0" class="graph" transform="scale(1 1) rotate(0) translate(4 635.2)">
<title>twoDegreesRelationshipsDiagram</title>
<polygon fill="#ffffff" stroke="transparent" points="-4,4 -4,-635.2 815,-635.2 815,4 -4,4"/>
<text text-anchor="middle" x="72.4936" y="-7.3" font-family="Helvetica,sans-Serif" font-size="11.00" fill="#000000">Generated by SchemaSpy</text>
<!-- challenges -->
<g id="node1" class="node">
<title>challenges</title>
<g id="a_node1"><a xlink:href="../../tables/challenges.html" xlink:title="challenges" target="_top">
<polygon fill="#ffffff" stroke="transparent" points="403,-523.2 403,-584.2 498,-584.2 498,-523.2 403,-523.2"/>
<polygon fill="#f5f5f5" stroke="transparent" points="403.5,-560.7 403.5,-583.7 498.5,-583.7 498.5,-560.7 403.5,-560.7"/>
<polygon fill="none" stroke="#000000" points="403.5,-560.7 403.5,-583.7 498.5,-583.7 498.5,-560.7 403.5,-560.7"/>
<text text-anchor="start" x="408.2144" y="-569.8" font-family="Helvetica,sans-Serif" font-weight="bold" font-size="11.00" fill="#000000">challenges</text>
<text text-anchor="start" x="464.0219" y="-568.8" font-family="Helvetica,sans-Serif" font-size="11.00" fill="#000000">[table]</text>
<polygon fill="none" stroke="#000000" points="403.5,-541.7 403.5,-560.7 498.5,-560.7 498.5,-541.7 403.5,-541.7"/>
<text text-anchor="start" x="406.5" y="-547.8" font-family="Helvetica,sans-Serif" font-size="11.00" fill="#000000">...</text>
<polygon fill="#ffffff" stroke="transparent" points="403.5,-522.7 403.5,-541.7 431.5,-541.7 431.5,-522.7 403.5,-522.7"/>
<polygon fill="none" stroke="#000000" points="403.5,-522.7 403.5,-541.7 431.5,-541.7 431.5,-522.7 403.5,-522.7"/>
<text text-anchor="start" x="406.5" y="-528.8" font-family="Helvetica,sans-Serif" font-size="11.00" fill="#000000">&lt; 2</text>
<polygon fill="#ffffff" stroke="transparent" points="431.5,-522.7 431.5,-541.7 473.5,-541.7 473.5,-522.7 431.5,-522.7"/>
<polygon fill="none" stroke="#000000" points="431.5,-522.7 431.5,-541.7 473.5,-541.7 473.5,-522.7 431.5,-522.7"/>
<text text-anchor="start" x="438.1105" y="-528.8" font-family="Helvetica,sans-Serif" font-size="11.00" fill="#000000">0 rows</text>
<polygon fill="#ffffff" stroke="transparent" points="473.5,-522.7 473.5,-541.7 498.5,-541.7 498.5,-522.7 473.5,-522.7"/>
<polygon fill="none" stroke="#000000" points="473.5,-522.7 473.5,-541.7 498.5,-541.7 498.5,-522.7 473.5,-522.7"/>
<text text-anchor="start" x="479.9053" y="-528.8" font-family="Helvetica,sans-Serif" font-size="11.00" fill="#000000">1 &gt;</text>
</a>
</g>
</g>
<!-- classes -->
<g id="node2" class="node">
<title>classes</title>
<g id="a_node2"><a xlink:href="../../tables/classes.html" xlink:title="classes" target="_top">
<polygon fill="#ffffff" stroke="transparent" points="151,-468.2 151,-529.2 231,-529.2 231,-468.2 151,-468.2"/>
<polygon fill="#f5f5f5" stroke="transparent" points="151,-505.7 151,-528.7 231,-528.7 231,-505.7 151,-505.7"/>
<polygon fill="none" stroke="#000000" points="151,-505.7 151,-528.7 231,-528.7 231,-505.7 151,-505.7"/>
<text text-anchor="start" x="156" y="-514.8" font-family="Helvetica,sans-Serif" font-weight="bold" font-size="11.00" fill="#000000">classes</text>
<text text-anchor="start" x="196.5219" y="-513.8" font-family="Helvetica,sans-Serif" font-size="11.00" fill="#000000">[table]</text>
<polygon fill="none" stroke="#000000" points="151,-486.7 151,-505.7 231,-505.7 231,-486.7 151,-486.7"/>
<text text-anchor="start" x="154" y="-492.8" font-family="Helvetica,sans-Serif" font-size="11.00" fill="#000000">...</text>
<polygon fill="#ffffff" stroke="transparent" points="151,-467.7 151,-486.7 172,-486.7 172,-467.7 151,-467.7"/>
<polygon fill="none" stroke="#000000" points="151,-467.7 151,-486.7 172,-486.7 172,-467.7 151,-467.7"/>
<text text-anchor="start" x="153.7027" y="-473.8" font-family="Helvetica,sans-Serif" font-size="11.00" fill="#000000">&lt; 1</text>
<polygon fill="#ffffff" stroke="transparent" points="172,-467.7 172,-486.7 210,-486.7 210,-467.7 172,-467.7"/>
<polygon fill="none" stroke="#000000" points="172,-467.7 172,-486.7 210,-486.7 210,-467.7 172,-467.7"/>
<text text-anchor="start" x="174.8053" y="-473.8" font-family="Helvetica,sans-Serif" font-size="11.00" fill="#000000">0 rows</text>
<polygon fill="#ffffff" stroke="transparent" points="210,-467.7 210,-486.7 231,-486.7 231,-467.7 210,-467.7"/>
<polygon fill="none" stroke="#000000" points="210,-467.7 210,-486.7 231,-486.7 231,-467.7 210,-467.7"/>
<text text-anchor="start" x="212.7027" y="-473.8" font-family="Helvetica,sans-Serif" font-size="11.00" fill="#000000">2 &gt;</text>
</a>
</g>
</g>
<!-- challenges&#45;&gt;classes -->
<g id="edge1" class="edge">
<title>challenges:w&#45;&gt;classes:e</title>
<path fill="none" stroke="#000000" d="M388.7624,-550.044C321.2541,-543.8386 306.2828,-495.7 231,-495.7"/>
<polygon fill="#000000" stroke="#000000" points="395.5079,-550.3442 403.3399,-554.2964 399.504,-550.5221 403.5,-550.7 403.5,-550.7 403.5,-550.7 399.504,-550.5221 403.6601,-547.1036 395.5079,-550.3442 395.5079,-550.3442"/>
<ellipse fill="none" stroke="#000000" cx="392.3111" cy="-550.2019" rx="3.2" ry="3.2"/>
</g>
<!-- gyms -->
<g id="node3" class="node">
<title>gyms</title>
<g id="a_node3"><a xlink:href="../../tables/gyms.html" xlink:title="gyms" target="_top">
<polygon fill="#ffffff" stroke="transparent" points="8,-376.2 8,-437.2 79,-437.2 79,-376.2 8,-376.2"/>
<polygon fill="#f5f5f5" stroke="transparent" points="8.5,-413.7 8.5,-436.7 79.5,-436.7 79.5,-413.7 8.5,-413.7"/>
<polygon fill="none" stroke="#000000" points="8.5,-413.7 8.5,-436.7 79.5,-436.7 79.5,-413.7 8.5,-413.7"/>
<text text-anchor="start" x="13.5" y="-422.8" font-family="Helvetica,sans-Serif" font-weight="bold" font-size="11.00" fill="#000000">gyms</text>
<text text-anchor="start" x="44.5437" y="-421.8" font-family="Helvetica,sans-Serif" font-size="11.00" fill="#000000">[table]</text>
<polygon fill="none" stroke="#000000" points="8.5,-394.7 8.5,-413.7 79.5,-413.7 79.5,-394.7 8.5,-394.7"/>
<text text-anchor="start" x="11.5" y="-400.8" font-family="Helvetica,sans-Serif" font-size="11.00" fill="#000000">...</text>
<polygon fill="#ffffff" stroke="transparent" points="8.5,-375.7 8.5,-394.7 20.5,-394.7 20.5,-375.7 8.5,-375.7"/>
<polygon fill="none" stroke="#000000" points="8.5,-375.7 8.5,-394.7 20.5,-394.7 20.5,-375.7 8.5,-375.7"/>
<text text-anchor="start" x="11.4431" y="-381.8" font-family="Helvetica,sans-Serif" font-size="11.00" fill="#000000"> &#160;</text>
<polygon fill="#ffffff" stroke="transparent" points="20.5,-375.7 20.5,-394.7 58.5,-394.7 58.5,-375.7 20.5,-375.7"/>
<polygon fill="none" stroke="#000000" points="20.5,-375.7 20.5,-394.7 58.5,-394.7 58.5,-375.7 20.5,-375.7"/>
<text text-anchor="start" x="23.3053" y="-381.8" font-family="Helvetica,sans-Serif" font-size="11.00" fill="#000000">0 rows</text>
<polygon fill="#ffffff" stroke="transparent" points="58.5,-375.7 58.5,-394.7 79.5,-394.7 79.5,-375.7 58.5,-375.7"/>
<polygon fill="none" stroke="#000000" points="58.5,-375.7 58.5,-394.7 79.5,-394.7 79.5,-375.7 58.5,-375.7"/>
<text text-anchor="start" x="61.2027" y="-381.8" font-family="Helvetica,sans-Serif" font-size="11.00" fill="#000000">4 &gt;</text>
</a>
</g>
</g>
<!-- challenges&#45;&gt;gyms -->
<g id="edge2" class="edge">
<title>challenges:w&#45;&gt;gyms:e</title>
<path fill="none" stroke="#000000" d="M389.0293,-550.9911C272.826,-555.6619 215.7173,-613.9979 120,-539.7 70.1798,-501.0285 142.5677,-403.7 79.5,-403.7"/>
<polygon fill="#000000" stroke="#000000" points="395.5016,-550.8609 403.5724,-554.2993 399.5008,-550.7805 403.5,-550.7 403.5,-550.7 403.5,-550.7 399.5008,-550.7805 403.4276,-547.1007 395.5016,-550.8609 395.5016,-550.8609"/>
<ellipse fill="none" stroke="#000000" cx="392.3023" cy="-550.9253" rx="3.2" ry="3.2"/>
</g>
<!-- completed_challenges -->
<g id="node4" class="node">
<title>completed_challenges</title>
<g id="a_node4"><a xlink:href="../../tables/completed_challenges.html" xlink:title="completed_challenges" target="_top">
<polygon fill="#ffffff" stroke="transparent" points="649,-500.2 649,-627.2 801,-627.2 801,-500.2 649,-500.2"/>
<polygon fill="#f5f5f5" stroke="transparent" points="649,-603.7 649,-626.7 801,-626.7 801,-603.7 649,-603.7"/>
<polygon fill="none" stroke="#000000" points="649,-603.7 649,-626.7 801,-626.7 801,-603.7 649,-603.7"/>
<text text-anchor="start" x="653.7899" y="-612.8" font-family="Helvetica,sans-Serif" font-weight="bold" font-size="11.00" fill="#000000">completed_challenges</text>
<text text-anchor="start" x="766.5219" y="-611.8" font-family="Helvetica,sans-Serif" font-size="11.00" fill="#000000">[table]</text>
<polygon fill="none" stroke="#000000" points="649,-581.7 649,-603.7 801,-603.7 801,-581.7 649,-581.7"/>
<image xlink:href="../../images/primaryKeys.png" width="11px" height="12px" preserveAspectRatio="xMinYMin meet" x="654" y="-598.7"/>
<text text-anchor="start" x="671" y="-588.8" font-family="Helvetica,sans-Serif" font-size="11.00" fill="#000000">id</text>
<polygon fill="#ffffff" stroke="transparent" points="649,-559.7 649,-581.7 801,-581.7 801,-559.7 649,-559.7"/>
<polygon fill="none" stroke="#000000" points="649,-559.7 649,-581.7 801,-581.7 801,-559.7 649,-559.7"/>
<image xlink:href="../../images/foreignKeys.png" width="11px" height="12px" preserveAspectRatio="xMinYMin meet" x="654" y="-576.7"/>
<text text-anchor="start" x="671" y="-566.8" font-family="Helvetica,sans-Serif" font-size="11.00" fill="#000000">gymnast_id</text>
<polygon fill="#ffffff" stroke="transparent" points="649,-537.7 649,-559.7 801,-559.7 801,-537.7 649,-537.7"/>
<polygon fill="none" stroke="#000000" points="649,-537.7 649,-559.7 801,-559.7 801,-537.7 649,-537.7"/>
<image xlink:href="../../images/foreignKeys.png" width="11px" height="12px" preserveAspectRatio="xMinYMin meet" x="654" y="-554.7"/>
<text text-anchor="start" x="671" y="-544.8" font-family="Helvetica,sans-Serif" font-size="11.00" fill="#000000">challenge_id</text>
<polygon fill="none" stroke="#000000" points="649,-518.7 649,-537.7 801,-537.7 801,-518.7 649,-518.7"/>
<text text-anchor="start" x="652" y="-524.8" font-family="Helvetica,sans-Serif" font-size="11.00" fill="#000000">...</text>
<polygon fill="#ffffff" stroke="transparent" points="649,-499.7 649,-518.7 710,-518.7 710,-499.7 649,-499.7"/>
<polygon fill="none" stroke="#000000" points="649,-499.7 649,-518.7 710,-518.7 710,-499.7 649,-499.7"/>
<text text-anchor="start" x="652" y="-505.8" font-family="Helvetica,sans-Serif" font-size="11.00" fill="#000000">&lt; 2</text>
<polygon fill="#ffffff" stroke="transparent" points="710,-499.7 710,-518.7 768,-518.7 768,-499.7 710,-499.7"/>
<polygon fill="none" stroke="#000000" points="710,-499.7 710,-518.7 768,-518.7 768,-499.7 710,-499.7"/>
<text text-anchor="start" x="732.6105" y="-505.8" font-family="Helvetica,sans-Serif" font-size="11.00" fill="#000000">0 rows</text>
<polygon fill="#ffffff" stroke="transparent" points="768,-499.7 768,-518.7 801,-518.7 801,-499.7 768,-499.7"/>
<polygon fill="none" stroke="#000000" points="768,-499.7 768,-518.7 801,-518.7 801,-499.7 768,-499.7"/>
<text text-anchor="start" x="791.8862" y="-505.8" font-family="Helvetica,sans-Serif" font-size="11.00" fill="#000000"> &#160;</text>
</a>
</g>
</g>
<!-- completed_challenges&#45;&gt;challenges -->
<g id="edge3" class="edge">
<title>completed_challenges:w&#45;&gt;challenges:e</title>
<path fill="none" stroke="#000000" d="M634.5427,-548.733C579.2683,-548.9931 560.2993,-550.7 498.5,-550.7"/>
<polygon fill="#000000" stroke="#000000" points="641,-548.7183 649.0083,-552.3 645,-548.7092 649,-548.7 649,-548.7 649,-548.7 645,-548.7092 648.9917,-545.1 641,-548.7183 641,-548.7183"/>
<ellipse fill="none" stroke="#000000" cx="637.8" cy="-548.7257" rx="3.2" ry="3.2"/>
</g>
<!-- gymnasts -->
<g id="node5" class="node">
<title>gymnasts</title>
<g id="a_node5"><a xlink:href="../../tables/gymnasts.html" xlink:title="gymnasts" target="_top">
<polygon fill="#ffffff" stroke="transparent" points="303,-120.7 303,-474.7 598,-474.7 598,-120.7 303,-120.7"/>
<polygon fill="#f5f5f5" stroke="transparent" points="305.5,-449.7 305.5,-472.7 596.5,-472.7 596.5,-449.7 305.5,-449.7"/>
<polygon fill="none" stroke="#000000" points="305.5,-449.7 305.5,-472.7 596.5,-472.7 596.5,-449.7 305.5,-449.7"/>
<text text-anchor="start" x="310.5" y="-458.8" font-family="Helvetica,sans-Serif" font-weight="bold" font-size="11.00" fill="#000000">gymnasts</text>
<text text-anchor="start" x="561.5437" y="-457.8" font-family="Helvetica,sans-Serif" font-size="11.00" fill="#000000">[table]</text>
<polygon fill="none" stroke="#000000" points="305.5,-427.7 305.5,-449.7 479.5,-449.7 479.5,-427.7 305.5,-427.7"/>
<image xlink:href="../../images/primaryKeys.png" width="11px" height="12px" preserveAspectRatio="xMinYMin meet" x="310.5" y="-444.7"/>
<text text-anchor="start" x="325.5" y="-434.8" font-family="Helvetica,sans-Serif" font-size="11.00" fill="#000000">id</text>
<polygon fill="none" stroke="#000000" points="479.5,-427.7 479.5,-449.7 596.5,-449.7 596.5,-427.7 479.5,-427.7"/>
<text text-anchor="start" x="482.5" y="-435.4" font-family="Helvetica,sans-Serif" font-size="11.00" fill="#000000">bigint[19]</text>
<polygon fill="none" stroke="#000000" points="305.5,-405.7 305.5,-427.7 479.5,-427.7 479.5,-405.7 305.5,-405.7"/>
<text text-anchor="start" x="325.5" y="-412.8" font-family="Helvetica,sans-Serif" font-size="11.00" fill="#000000">first_name</text>
<polygon fill="none" stroke="#000000" points="479.5,-405.7 479.5,-427.7 596.5,-427.7 596.5,-405.7 479.5,-405.7"/>
<text text-anchor="start" x="482.5" y="-413.4" font-family="Helvetica,sans-Serif" font-size="11.00" fill="#000000">varchar[45]</text>
<polygon fill="none" stroke="#000000" points="305.5,-383.7 305.5,-405.7 479.5,-405.7 479.5,-383.7 305.5,-383.7"/>
<text text-anchor="start" x="325.5" y="-390.8" font-family="Helvetica,sans-Serif" font-size="11.00" fill="#000000">last_name</text>
<polygon fill="none" stroke="#000000" points="479.5,-383.7 479.5,-405.7 596.5,-405.7 596.5,-383.7 479.5,-383.7"/>
<text text-anchor="start" x="482.5" y="-391.4" font-family="Helvetica,sans-Serif" font-size="11.00" fill="#000000">varchar[45]</text>
<polygon fill="none" stroke="#000000" points="305.5,-361.7 305.5,-383.7 479.5,-383.7 479.5,-361.7 305.5,-361.7"/>
<text text-anchor="start" x="325.5" y="-368.8" font-family="Helvetica,sans-Serif" font-size="11.00" fill="#000000">birth_date</text>
<polygon fill="none" stroke="#000000" points="479.5,-361.7 479.5,-383.7 596.5,-383.7 596.5,-361.7 479.5,-361.7"/>
<text text-anchor="start" x="482.5" y="-369.4" font-family="Helvetica,sans-Serif" font-size="11.00" fill="#000000">date[10]</text>
<polygon fill="none" stroke="#000000" points="305.5,-339.7 305.5,-361.7 479.5,-361.7 479.5,-339.7 305.5,-339.7"/>
<text text-anchor="start" x="325.5" y="-346.8" font-family="Helvetica,sans-Serif" font-size="11.00" fill="#000000">life_time_score</text>
<polygon fill="none" stroke="#000000" points="479.5,-339.7 479.5,-361.7 596.5,-361.7 596.5,-339.7 479.5,-339.7"/>
<text text-anchor="start" x="482.5" y="-347.4" font-family="Helvetica,sans-Serif" font-size="11.00" fill="#000000">int[10]</text>
<polygon fill="none" stroke="#000000" points="305.5,-317.7 305.5,-339.7 479.5,-339.7 479.5,-317.7 305.5,-317.7"/>
<text text-anchor="start" x="325.5" y="-324.8" font-family="Helvetica,sans-Serif" font-size="11.00" fill="#000000">current_streak_points</text>
<polygon fill="none" stroke="#000000" points="479.5,-317.7 479.5,-339.7 596.5,-339.7 596.5,-317.7 479.5,-317.7"/>
<text text-anchor="start" x="482.5" y="-325.4" font-family="Helvetica,sans-Serif" font-size="11.00" fill="#000000">int[10]</text>
<polygon fill="none" stroke="#000000" points="305.5,-295.7 305.5,-317.7 479.5,-317.7 479.5,-295.7 305.5,-295.7"/>
<text text-anchor="start" x="325.5" y="-302.8" font-family="Helvetica,sans-Serif" font-size="11.00" fill="#000000">last_streak</text>
<polygon fill="none" stroke="#000000" points="479.5,-295.7 479.5,-317.7 596.5,-317.7 596.5,-295.7 479.5,-295.7"/>
<text text-anchor="start" x="482.5" y="-303.4" font-family="Helvetica,sans-Serif" font-size="11.00" fill="#000000">date[10]</text>
<polygon fill="none" stroke="#000000" points="305.5,-273.7 305.5,-295.7 479.5,-295.7 479.5,-273.7 305.5,-273.7"/>
<text text-anchor="start" x="325.5" y="-280.8" font-family="Helvetica,sans-Serif" font-size="11.00" fill="#000000">about</text>
<polygon fill="none" stroke="#000000" points="479.5,-273.7 479.5,-295.7 596.5,-295.7 596.5,-273.7 479.5,-273.7"/>
<text text-anchor="start" x="482.0645" y="-281.4" font-family="Helvetica,sans-Serif" font-size="11.00" fill="#000000">mediumtext[16777215]</text>
<polygon fill="none" stroke="#000000" points="305.5,-251.7 305.5,-273.7 479.5,-273.7 479.5,-251.7 305.5,-251.7"/>
<text text-anchor="start" x="325.5" y="-258.8" font-family="Helvetica,sans-Serif" font-size="11.00" fill="#000000">created</text>
<polygon fill="none" stroke="#000000" points="479.5,-251.7 479.5,-273.7 596.5,-273.7 596.5,-251.7 479.5,-251.7"/>
<text text-anchor="start" x="482.5" y="-259.4" font-family="Helvetica,sans-Serif" font-size="11.00" fill="#000000">date[10]</text>
<polygon fill="none" stroke="#000000" points="305.5,-229.7 305.5,-251.7 479.5,-251.7 479.5,-229.7 305.5,-229.7"/>
<text text-anchor="start" x="325.5" y="-236.8" font-family="Helvetica,sans-Serif" font-size="11.00" fill="#000000">updated</text>
<polygon fill="none" stroke="#000000" points="479.5,-229.7 479.5,-251.7 596.5,-251.7 596.5,-229.7 479.5,-229.7"/>
<text text-anchor="start" x="482.5" y="-237.4" font-family="Helvetica,sans-Serif" font-size="11.00" fill="#000000">date[10]</text>
<polygon fill="none" stroke="#000000" points="305.5,-207.7 305.5,-229.7 479.5,-229.7 479.5,-207.7 305.5,-207.7"/>
<text text-anchor="start" x="325.5" y="-214.8" font-family="Helvetica,sans-Serif" font-size="11.00" fill="#000000">deleted_at</text>
<polygon fill="none" stroke="#000000" points="479.5,-207.7 479.5,-229.7 596.5,-229.7 596.5,-207.7 479.5,-207.7"/>
<text text-anchor="start" x="482.5" y="-215.4" font-family="Helvetica,sans-Serif" font-size="11.00" fill="#000000">timestamp[19]</text>
<polygon fill="#ffffff" stroke="transparent" points="305.5,-185.7 305.5,-207.7 479.5,-207.7 479.5,-185.7 305.5,-185.7"/>
<polygon fill="none" stroke="#000000" points="305.5,-185.7 305.5,-207.7 479.5,-207.7 479.5,-185.7 305.5,-185.7"/>
<image xlink:href="../../images/foreignKeys.png" width="11px" height="12px" preserveAspectRatio="xMinYMin meet" x="310.5" y="-202.7"/>
<text text-anchor="start" x="325.5" y="-192.8" font-family="Helvetica,sans-Serif" font-size="11.00" fill="#000000">gyms_has_users_gyms_id</text>
<polygon fill="none" stroke="#000000" points="479.5,-185.7 479.5,-207.7 596.5,-207.7 596.5,-185.7 479.5,-185.7"/>
<text text-anchor="start" x="482.5" y="-193.4" font-family="Helvetica,sans-Serif" font-size="11.00" fill="#000000">bigint[19]</text>
<polygon fill="#ffffff" stroke="transparent" points="305.5,-163.7 305.5,-185.7 479.5,-185.7 479.5,-163.7 305.5,-163.7"/>
<polygon fill="none" stroke="#000000" points="305.5,-163.7 305.5,-185.7 479.5,-185.7 479.5,-163.7 305.5,-163.7"/>
<image xlink:href="../../images/foreignKeys.png" width="11px" height="12px" preserveAspectRatio="xMinYMin meet" x="310.5" y="-180.7"/>
<text text-anchor="start" x="325.5" y="-170.8" font-family="Helvetica,sans-Serif" font-size="11.00" fill="#000000">gyms_has_users_users_id</text>
<polygon fill="none" stroke="#000000" points="479.5,-163.7 479.5,-185.7 596.5,-185.7 596.5,-163.7 479.5,-163.7"/>
<text text-anchor="start" x="482.5" y="-171.4" font-family="Helvetica,sans-Serif" font-size="11.00" fill="#000000">int[10]</text>
<polygon fill="none" stroke="#000000" points="305.5,-141.7 305.5,-163.7 479.5,-163.7 479.5,-141.7 305.5,-141.7"/>
<text text-anchor="start" x="325.5" y="-148.8" font-family="Helvetica,sans-Serif" font-size="11.00" fill="#000000">image_profile</text>
<polygon fill="none" stroke="#000000" points="479.5,-141.7 479.5,-163.7 596.5,-163.7 596.5,-141.7 479.5,-141.7"/>
<text text-anchor="start" x="482.5" y="-149.4" font-family="Helvetica,sans-Serif" font-size="11.00" fill="#000000">varchar[100]</text>
<polygon fill="#ffffff" stroke="transparent" points="305.5,-122.7 305.5,-141.7 383.5,-141.7 383.5,-122.7 305.5,-122.7"/>
<polygon fill="none" stroke="#000000" points="305.5,-122.7 305.5,-141.7 383.5,-141.7 383.5,-122.7 305.5,-122.7"/>
<text text-anchor="start" x="308.5" y="-128.8" font-family="Helvetica,sans-Serif" font-size="11.00" fill="#000000">&lt; 2</text>
<polygon fill="#ffffff" stroke="transparent" points="383.5,-122.7 383.5,-141.7 479.5,-141.7 479.5,-122.7 383.5,-122.7"/>
<polygon fill="none" stroke="#000000" points="383.5,-122.7 383.5,-141.7 479.5,-141.7 479.5,-122.7 383.5,-122.7"/>
<text text-anchor="start" x="444.1105" y="-128.8" font-family="Helvetica,sans-Serif" font-size="11.00" fill="#000000">0 rows</text>
<polygon fill="#ffffff" stroke="transparent" points="479.5,-122.7 479.5,-141.7 596.5,-141.7 596.5,-122.7 479.5,-122.7"/>
<polygon fill="none" stroke="#000000" points="479.5,-122.7 479.5,-141.7 596.5,-141.7 596.5,-122.7 479.5,-122.7"/>
<text text-anchor="start" x="577.9053" y="-128.8" font-family="Helvetica,sans-Serif" font-size="11.00" fill="#000000">3 &gt;</text>
<polygon fill="none" stroke="#000000" stroke-width="2" points="304,-121.7 304,-473.7 597,-473.7 597,-121.7 304,-121.7"/>
</a>
</g>
</g>
<!-- completed_challenges&#45;&gt;gymnasts -->
<g id="edge4" class="edge">
<title>completed_challenges:w&#45;&gt;gymnasts:e</title>
<path fill="none" stroke="#000000" d="M634.6272,-567.4371C598.4926,-547.1102 653.7175,-438.7 596.5,-438.7"/>
<polygon fill="#000000" stroke="#000000" points="641.1985,-568.9289 648.203,-574.2107 645.0993,-569.8144 649,-570.7 649,-570.7 649,-570.7 645.0993,-569.8144 649.797,-567.1893 641.1985,-568.9289 641.1985,-568.9289"/>
<ellipse fill="none" stroke="#000000" cx="638.0779" cy="-568.2204" rx="3.2" ry="3.2"/>
</g>
<!-- gyms_has_users -->
<g id="node8" class="node">
<title>gyms_has_users</title>
<g id="a_node8"><a xlink:href="../../tables/gyms_has_users.html" xlink:title="gyms_has_users" target="_top">
<polygon fill="#ffffff" stroke="transparent" points="128,-144.7 128,-230.7 254,-230.7 254,-144.7 128,-144.7"/>
<polygon fill="#f5f5f5" stroke="transparent" points="128,-207.7 128,-230.7 254,-230.7 254,-207.7 128,-207.7"/>
<polygon fill="none" stroke="#000000" points="128,-207.7 128,-230.7 254,-230.7 254,-207.7 128,-207.7"/>
<text text-anchor="start" x="132.936" y="-216.8" font-family="Helvetica,sans-Serif" font-weight="bold" font-size="11.00" fill="#000000">gyms_has_users</text>
<text text-anchor="start" x="219.5219" y="-215.8" font-family="Helvetica,sans-Serif" font-size="11.00" fill="#000000">[table]</text>
<polygon fill="none" stroke="#000000" points="128,-185.7 128,-207.7 254,-207.7 254,-185.7 128,-185.7"/>
<image xlink:href="../../images/primaryKeys.png" width="11px" height="12px" preserveAspectRatio="xMinYMin meet" x="133" y="-202.7"/>
<text text-anchor="start" x="152" y="-192.8" font-family="Helvetica,sans-Serif" font-size="11.00" fill="#000000">gym_id</text>
<polygon fill="none" stroke="#000000" points="128,-163.7 128,-185.7 254,-185.7 254,-163.7 128,-163.7"/>
<image xlink:href="../../images/primaryKeys.png" width="11px" height="12px" preserveAspectRatio="xMinYMin meet" x="133" y="-180.7"/>
<text text-anchor="start" x="152" y="-170.8" font-family="Helvetica,sans-Serif" font-size="11.00" fill="#000000">user_id</text>
<polygon fill="#ffffff" stroke="transparent" points="128,-144.7 128,-163.7 172,-163.7 172,-144.7 128,-144.7"/>
<polygon fill="none" stroke="#000000" points="128,-144.7 128,-163.7 172,-163.7 172,-144.7 128,-144.7"/>
<text text-anchor="start" x="131" y="-150.8" font-family="Helvetica,sans-Serif" font-size="11.00" fill="#000000">&lt; 2</text>
<polygon fill="#ffffff" stroke="transparent" points="172,-144.7 172,-163.7 221,-163.7 221,-144.7 172,-144.7"/>
<polygon fill="none" stroke="#000000" points="172,-144.7 172,-163.7 221,-163.7 221,-144.7 172,-144.7"/>
<text text-anchor="start" x="185.6105" y="-150.8" font-family="Helvetica,sans-Serif" font-size="11.00" fill="#000000">0 rows</text>
<polygon fill="#ffffff" stroke="transparent" points="221,-144.7 221,-163.7 254,-163.7 254,-144.7 221,-144.7"/>
<polygon fill="none" stroke="#000000" points="221,-144.7 221,-163.7 254,-163.7 254,-144.7 221,-144.7"/>
<text text-anchor="start" x="235.4053" y="-150.8" font-family="Helvetica,sans-Serif" font-size="11.00" fill="#000000">2 &gt;</text>
</a>
</g>
</g>
<!-- gymnasts&#45;&gt;gyms_has_users -->
<g id="edge7" class="edge">
<title>gymnasts:w&#45;&gt;gyms_has_users:e</title>
<path fill="none" stroke="#000000" d="M291.0156,-196.7C278.6771,-196.7 271.1667,-196.7 254,-196.7"/>
<polygon fill="#000000" stroke="#000000" points="297.5,-196.7001 305.5,-200.3 301.5,-196.7 305.5,-196.7 305.5,-196.7 305.5,-196.7 301.5,-196.7 305.5,-193.1 297.5,-196.7001 297.5,-196.7001"/>
<ellipse fill="none" stroke="#000000" cx="294.3" cy="-196.7001" rx="3.2" ry="3.2"/>
</g>
<!-- gymnasts&#45;&gt;gyms_has_users -->
<g id="edge8" class="edge">
<title>gymnasts:w&#45;&gt;gyms_has_users:e</title>
<path fill="none" stroke="#000000" d="M291.0156,-174.7C278.6771,-174.7 271.1667,-174.7 254,-174.7"/>
<polygon fill="#000000" stroke="#000000" points="297.5,-174.7001 305.5,-178.3 301.5,-174.7 305.5,-174.7 305.5,-174.7 305.5,-174.7 301.5,-174.7 305.5,-171.1 297.5,-174.7001 297.5,-174.7001"/>
<ellipse fill="none" stroke="#000000" cx="294.3" cy="-174.7001" rx="3.2" ry="3.2"/>
</g>
<!-- gymnast_has_skills -->
<g id="node6" class="node">
<title>gymnast_has_skills</title>
<g id="a_node6"><a xlink:href="../../tables/gymnast_has_skills.html" xlink:title="gymnast_has_skills" target="_top">
<polygon fill="#ffffff" stroke="transparent" points="656,-141.2 656,-246.2 794,-246.2 794,-141.2 656,-141.2"/>
<polygon fill="#f5f5f5" stroke="transparent" points="656,-222.7 656,-245.7 794,-245.7 794,-222.7 656,-222.7"/>
<polygon fill="none" stroke="#000000" points="656,-222.7 656,-245.7 794,-245.7 794,-222.7 656,-222.7"/>
<text text-anchor="start" x="660.8271" y="-231.8" font-family="Helvetica,sans-Serif" font-weight="bold" font-size="11.00" fill="#000000">gymnast_has_skills</text>
<text text-anchor="start" x="759.5219" y="-230.8" font-family="Helvetica,sans-Serif" font-size="11.00" fill="#000000">[table]</text>
<polygon fill="none" stroke="#000000" points="656,-200.7 656,-222.7 794,-222.7 794,-200.7 656,-200.7"/>
<image xlink:href="../../images/primaryKeys.png" width="11px" height="12px" preserveAspectRatio="xMinYMin meet" x="661" y="-217.7"/>
<text text-anchor="start" x="678" y="-207.8" font-family="Helvetica,sans-Serif" font-size="11.00" fill="#000000">gymnast_id</text>
<polygon fill="none" stroke="#000000" points="656,-178.7 656,-200.7 794,-200.7 794,-178.7 656,-178.7"/>
<image xlink:href="../../images/primaryKeys.png" width="11px" height="12px" preserveAspectRatio="xMinYMin meet" x="661" y="-195.7"/>
<text text-anchor="start" x="678" y="-185.8" font-family="Helvetica,sans-Serif" font-size="11.00" fill="#000000">skills_Id</text>
<polygon fill="none" stroke="#000000" points="656,-159.7 656,-178.7 794,-178.7 794,-159.7 656,-159.7"/>
<text text-anchor="start" x="659" y="-165.8" font-family="Helvetica,sans-Serif" font-size="11.00" fill="#000000">...</text>
<polygon fill="#ffffff" stroke="transparent" points="656,-140.7 656,-159.7 710,-159.7 710,-140.7 656,-140.7"/>
<polygon fill="none" stroke="#000000" points="656,-140.7 656,-159.7 710,-159.7 710,-140.7 656,-140.7"/>
<text text-anchor="start" x="659" y="-146.8" font-family="Helvetica,sans-Serif" font-size="11.00" fill="#000000">&lt; 2</text>
<polygon fill="#ffffff" stroke="transparent" points="710,-140.7 710,-159.7 765,-159.7 765,-140.7 710,-140.7"/>
<polygon fill="none" stroke="#000000" points="710,-140.7 710,-159.7 765,-159.7 765,-140.7 710,-140.7"/>
<text text-anchor="start" x="729.6105" y="-146.8" font-family="Helvetica,sans-Serif" font-size="11.00" fill="#000000">0 rows</text>
<polygon fill="#ffffff" stroke="transparent" points="765,-140.7 765,-159.7 794,-159.7 794,-140.7 765,-140.7"/>
<polygon fill="none" stroke="#000000" points="765,-140.7 765,-159.7 794,-159.7 794,-140.7 765,-140.7"/>
<text text-anchor="start" x="784.8862" y="-146.8" font-family="Helvetica,sans-Serif" font-size="11.00" fill="#000000"> &#160;</text>
</a>
</g>
</g>
<!-- gymnast_has_skills&#45;&gt;gymnasts -->
<g id="edge5" class="edge">
<title>gymnast_has_skills:w&#45;&gt;gymnasts:e</title>
<path fill="none" stroke="#000000" d="M641.5395,-213.5272C566.7231,-235.0101 695.297,-438.7 596.5,-438.7"/>
<polygon fill="#000000" stroke="#000000" points="648.0631,-212.703 656.4513,-215.2716 652.0316,-212.2015 656,-211.7 656,-211.7 656,-211.7 652.0316,-212.2015 655.5487,-208.1284 648.0631,-212.703 648.0631,-212.703"/>
<ellipse fill="none" stroke="#000000" cx="644.8884" cy="-213.1041" rx="3.2" ry="3.2"/>
</g>
<!-- skills -->
<g id="node7" class="node">
<title>skills</title>
<g id="a_node7"><a xlink:href="../../tables/skills.html" xlink:title="skills" target="_top">
<polygon fill="#ffffff" stroke="transparent" points="410.5,-38.2 410.5,-99.2 490.5,-99.2 490.5,-38.2 410.5,-38.2"/>
<polygon fill="#f5f5f5" stroke="transparent" points="410.5,-75.7 410.5,-98.7 490.5,-98.7 490.5,-75.7 410.5,-75.7"/>
<polygon fill="none" stroke="#000000" points="410.5,-75.7 410.5,-98.7 490.5,-98.7 490.5,-75.7 410.5,-75.7"/>
<text text-anchor="start" x="415.5" y="-84.8" font-family="Helvetica,sans-Serif" font-weight="bold" font-size="11.00" fill="#000000">skills</text>
<text text-anchor="start" x="455.5437" y="-83.8" font-family="Helvetica,sans-Serif" font-size="11.00" fill="#000000">[table]</text>
<polygon fill="none" stroke="#000000" points="410.5,-56.7 410.5,-75.7 490.5,-75.7 490.5,-56.7 410.5,-56.7"/>
<text text-anchor="start" x="413.5" y="-62.8" font-family="Helvetica,sans-Serif" font-size="11.00" fill="#000000">...</text>
<polygon fill="#ffffff" stroke="transparent" points="410.5,-37.7 410.5,-56.7 431.5,-56.7 431.5,-37.7 410.5,-37.7"/>
<polygon fill="none" stroke="#000000" points="410.5,-37.7 410.5,-56.7 431.5,-56.7 431.5,-37.7 410.5,-37.7"/>
<text text-anchor="start" x="413.2027" y="-43.8" font-family="Helvetica,sans-Serif" font-size="11.00" fill="#000000">&lt; 3</text>
<polygon fill="#ffffff" stroke="transparent" points="431.5,-37.7 431.5,-56.7 469.5,-56.7 469.5,-37.7 431.5,-37.7"/>
<polygon fill="none" stroke="#000000" points="431.5,-37.7 431.5,-56.7 469.5,-56.7 469.5,-37.7 431.5,-37.7"/>
<text text-anchor="start" x="434.3053" y="-43.8" font-family="Helvetica,sans-Serif" font-size="11.00" fill="#000000">0 rows</text>
<polygon fill="#ffffff" stroke="transparent" points="469.5,-37.7 469.5,-56.7 490.5,-56.7 490.5,-37.7 469.5,-37.7"/>
<polygon fill="none" stroke="#000000" points="469.5,-37.7 469.5,-56.7 490.5,-56.7 490.5,-37.7 469.5,-37.7"/>
<text text-anchor="start" x="472.2027" y="-43.8" font-family="Helvetica,sans-Serif" font-size="11.00" fill="#000000">2 &gt;</text>
</a>
</g>
</g>
<!-- gymnast_has_skills&#45;&gt;skills -->
<g id="edge6" class="edge">
<title>gymnast_has_skills:w&#45;&gt;skills:e</title>
<path fill="none" stroke="#000000" d="M641.7027,-186.6426C620.1132,-175.0472 633.4375,-133.3002 606,-110.7 563.4764,-75.6735 545.5918,-65.7 490.5,-65.7"/>
<polygon fill="#000000" stroke="#000000" points="648.1769,-188.027 655.2472,-193.2204 652.0884,-188.8635 656,-189.7 656,-189.7 656,-189.7 652.0884,-188.8635 656.7528,-186.1796 648.1769,-188.027 648.1769,-188.027"/>
<ellipse fill="none" stroke="#000000" cx="645.0476" cy="-187.3578" rx="3.2" ry="3.2"/>
</g>
<!-- gyms_has_users&#45;&gt;gyms -->
<g id="edge11" class="edge">
<title>gyms_has_users:w&#45;&gt;gyms:e</title>
<path fill="none" stroke="#000000" d="M113.7158,-198.7488C49.1646,-220.2471 168.4549,-403.7 79.5,-403.7"/>
<polygon fill="#000000" stroke="#000000" points="120.081,-197.8358 128.5111,-200.2635 124.0405,-197.2679 128,-196.7 128,-196.7 128,-196.7 124.0405,-197.2679 127.4889,-193.1365 120.081,-197.8358 120.081,-197.8358"/>
<ellipse fill="none" stroke="#000000" cx="116.9135" cy="-198.2902" rx="3.2" ry="3.2"/>
</g>
<!-- users -->
<g id="node10" class="node">
<title>users</title>
<g id="a_node10"><a xlink:href="../../tables/users.html" xlink:title="users" target="_top">
<polygon fill="#ffffff" stroke="transparent" points="8,-147.2 8,-208.2 79,-208.2 79,-147.2 8,-147.2"/>
<polygon fill="#f5f5f5" stroke="transparent" points="8.5,-184.7 8.5,-207.7 79.5,-207.7 79.5,-184.7 8.5,-184.7"/>
<polygon fill="none" stroke="#000000" points="8.5,-184.7 8.5,-207.7 79.5,-207.7 79.5,-184.7 8.5,-184.7"/>
<text text-anchor="start" x="13.5" y="-193.8" font-family="Helvetica,sans-Serif" font-weight="bold" font-size="11.00" fill="#000000">users</text>
<text text-anchor="start" x="44.5437" y="-192.8" font-family="Helvetica,sans-Serif" font-size="11.00" fill="#000000">[table]</text>
<polygon fill="none" stroke="#000000" points="8.5,-165.7 8.5,-184.7 79.5,-184.7 79.5,-165.7 8.5,-165.7"/>
<text text-anchor="start" x="11.5" y="-171.8" font-family="Helvetica,sans-Serif" font-size="11.00" fill="#000000">...</text>
<polygon fill="#ffffff" stroke="transparent" points="8.5,-146.7 8.5,-165.7 20.5,-165.7 20.5,-146.7 8.5,-146.7"/>
<polygon fill="none" stroke="#000000" points="8.5,-146.7 8.5,-165.7 20.5,-165.7 20.5,-146.7 8.5,-146.7"/>
<text text-anchor="start" x="11.4431" y="-152.8" font-family="Helvetica,sans-Serif" font-size="11.00" fill="#000000"> &#160;</text>
<polygon fill="#ffffff" stroke="transparent" points="20.5,-146.7 20.5,-165.7 58.5,-165.7 58.5,-146.7 20.5,-146.7"/>
<polygon fill="none" stroke="#000000" points="20.5,-146.7 20.5,-165.7 58.5,-165.7 58.5,-146.7 20.5,-146.7"/>
<text text-anchor="start" x="23.3053" y="-152.8" font-family="Helvetica,sans-Serif" font-size="11.00" fill="#000000">0 rows</text>
<polygon fill="#ffffff" stroke="transparent" points="58.5,-146.7 58.5,-165.7 79.5,-165.7 79.5,-146.7 58.5,-146.7"/>
<polygon fill="none" stroke="#000000" points="58.5,-146.7 58.5,-165.7 79.5,-165.7 79.5,-146.7 58.5,-146.7"/>
<text text-anchor="start" x="61.2027" y="-152.8" font-family="Helvetica,sans-Serif" font-size="11.00" fill="#000000">2 &gt;</text>
</a>
</g>
</g>
<!-- gyms_has_users&#45;&gt;users -->
<g id="edge12" class="edge">
<title>gyms_has_users:w&#45;&gt;users:e</title>
<path fill="none" stroke="#000000" d="M113.2829,-174.7C102.2886,-174.7 95.1615,-174.7 79.5,-174.7"/>
<polygon fill="#000000" stroke="#000000" points="120,-174.7001 128,-178.3 124,-174.7 128,-174.7 128,-174.7 128,-174.7 124,-174.7 128,-171.1 120,-174.7001 120,-174.7001"/>
<ellipse fill="none" stroke="#000000" cx="116.8" cy="-174.7001" rx="3.2" ry="3.2"/>
</g>
<!-- gymnasts_has_classes -->
<g id="node9" class="node">
<title>gymnasts_has_classes</title>
<g id="a_node9"><a xlink:href="../../tables/gymnasts_has_classes.html" xlink:title="gymnasts_has_classes" target="_top">
<polygon fill="#ffffff" stroke="transparent" points="647,-388.7 647,-474.7 803,-474.7 803,-388.7 647,-388.7"/>
<polygon fill="#f5f5f5" stroke="transparent" points="647,-451.7 647,-474.7 803,-474.7 803,-451.7 647,-451.7"/>
<polygon fill="none" stroke="#000000" points="647,-451.7 647,-474.7 803,-474.7 803,-451.7 647,-451.7"/>
<text text-anchor="start" x="651.6531" y="-460.8" font-family="Helvetica,sans-Serif" font-weight="bold" font-size="11.00" fill="#000000">gymnasts_has_classes</text>
<text text-anchor="start" x="768.5219" y="-459.8" font-family="Helvetica,sans-Serif" font-size="11.00" fill="#000000">[table]</text>
<polygon fill="none" stroke="#000000" points="647,-429.7 647,-451.7 803,-451.7 803,-429.7 647,-429.7"/>
<image xlink:href="../../images/primaryKeys.png" width="11px" height="12px" preserveAspectRatio="xMinYMin meet" x="652" y="-446.7"/>
<text text-anchor="start" x="668" y="-436.8" font-family="Helvetica,sans-Serif" font-size="11.00" fill="#000000">gymnasts_id</text>
<polygon fill="none" stroke="#000000" points="647,-407.7 647,-429.7 803,-429.7 803,-407.7 647,-407.7"/>
<image xlink:href="../../images/primaryKeys.png" width="11px" height="12px" preserveAspectRatio="xMinYMin meet" x="652" y="-424.7"/>
<text text-anchor="start" x="668" y="-414.8" font-family="Helvetica,sans-Serif" font-size="11.00" fill="#000000">classes_id</text>
<polygon fill="#ffffff" stroke="transparent" points="647,-388.7 647,-407.7 710,-407.7 710,-388.7 647,-388.7"/>
<polygon fill="none" stroke="#000000" points="647,-388.7 647,-407.7 710,-407.7 710,-388.7 647,-388.7"/>
<text text-anchor="start" x="650" y="-394.8" font-family="Helvetica,sans-Serif" font-size="11.00" fill="#000000">&lt; 2</text>
<polygon fill="#ffffff" stroke="transparent" points="710,-388.7 710,-407.7 769,-407.7 769,-388.7 710,-388.7"/>
<polygon fill="none" stroke="#000000" points="710,-388.7 710,-407.7 769,-407.7 769,-388.7 710,-388.7"/>
<text text-anchor="start" x="733.6105" y="-394.8" font-family="Helvetica,sans-Serif" font-size="11.00" fill="#000000">0 rows</text>
<polygon fill="#ffffff" stroke="transparent" points="769,-388.7 769,-407.7 803,-407.7 803,-388.7 769,-388.7"/>
<polygon fill="none" stroke="#000000" points="769,-388.7 769,-407.7 803,-407.7 803,-388.7 769,-388.7"/>
<text text-anchor="start" x="793.8862" y="-394.8" font-family="Helvetica,sans-Serif" font-size="11.00" fill="#000000"> &#160;</text>
</a>
</g>
</g>
<!-- gymnasts_has_classes&#45;&gt;classes -->
<g id="edge9" class="edge">
<title>gymnasts_has_classes:w&#45;&gt;classes:e</title>
<path fill="none" stroke="#000000" d="M633.2423,-423.0241C619.0075,-435.4641 630.7931,-471.3674 606,-485.7 533.8286,-527.4214 314.363,-495.7 231,-495.7"/>
<polygon fill="#000000" stroke="#000000" points="639.3681,-421.0988 648.0794,-422.1344 643.184,-419.8994 647,-418.7 647,-418.7 647,-418.7 643.184,-419.8994 645.9206,-415.2656 639.3681,-421.0988 639.3681,-421.0988"/>
<ellipse fill="none" stroke="#000000" cx="636.3153" cy="-422.0583" rx="3.2" ry="3.2"/>
</g>
<!-- gymnasts_has_classes&#45;&gt;gymnasts -->
<g id="edge10" class="edge">
<title>gymnasts_has_classes:w&#45;&gt;gymnasts:e</title>
<path fill="none" stroke="#000000" d="M632.4154,-440.3697C620.5405,-439.8017 613.171,-438.7 596.5,-438.7"/>
<polygon fill="#000000" stroke="#000000" points="639.0021,-440.5188 646.9185,-444.2991 643.001,-440.6094 647,-440.7 647,-440.7 647,-440.7 643.001,-440.6094 647.0815,-437.1009 639.0021,-440.5188 639.0021,-440.5188"/>
<ellipse fill="none" stroke="#000000" cx="635.8029" cy="-440.4464" rx="3.2" ry="3.2"/>
</g>
</g>
</svg>
