<?xml version="1.0" encoding="UTF-8" standalone="no"?>
<!DOCTYPE svg PUBLIC "-//W3C//DTD SVG 1.1//EN"
 "http://www.w3.org/Graphics/SVG/1.1/DTD/svg11.dtd">
<!-- Generated by graphviz version 2.40.1 (20161225.0304)
 -->
<!-- Title: oneDegreeRelationshipsDiagram Pages: 1 -->
<svg width="758pt" height="581pt"
 viewBox="0.00 0.00 758.00 580.70" xmlns="http://www.w3.org/2000/svg" xmlns:xlink="http://www.w3.org/1999/xlink">
<g id="graph0" class="graph" transform="scale(1 1) rotate(0) translate(4 576.7)">
<title>oneDegreeRelationshipsDiagram</title>
<polygon fill="#ffffff" stroke="transparent" points="-4,4 -4,-576.7 754,-576.7 754,4 -4,4"/>
<text text-anchor="middle" x="72.4936" y="-7.3" font-family="Helvetica,sans-Serif" font-size="11.00" fill="#000000">Generated by SchemaSpy</text>
<!-- completed_daily_challenges -->
<g id="node1" class="node">
<title>completed_daily_challenges</title>
<g id="a_node1"><a xlink:href="../../tables/completed_daily_challenges.html" xlink:title="completed_daily_challenges" target="_top">
<polygon fill="#ffffff" stroke="transparent" points="533,-419.7 533,-568.7 736,-568.7 736,-419.7 533,-419.7"/>
<polygon fill="#f5f5f5" stroke="transparent" points="533.5,-545.2 533.5,-568.2 736.5,-568.2 736.5,-545.2 533.5,-545.2"/>
<polygon fill="none" stroke="#000000" points="533.5,-545.2 533.5,-568.2 736.5,-568.2 736.5,-545.2 533.5,-545.2"/>
<text text-anchor="start" x="538.5" y="-554.3" font-family="Helvetica,sans-Serif" font-weight="bold" font-size="11.00" fill="#000000">completed_daily_challenges</text>
<text text-anchor="start" x="701.5437" y="-553.3" font-family="Helvetica,sans-Serif" font-size="11.00" fill="#000000">[table]</text>
<polygon fill="none" stroke="#000000" points="533.5,-523.2 533.5,-545.2 736.5,-545.2 736.5,-523.2 533.5,-523.2"/>
<image xlink:href="../../images/primaryKeys.png" width="11px" height="12px" preserveAspectRatio="xMinYMin meet" x="538.5" y="-540.2"/>
<text text-anchor="start" x="553.5" y="-530.3" font-family="Helvetica,sans-Serif" font-size="11.00" fill="#000000">gymnasts_id</text>
<polygon fill="none" stroke="#000000" points="533.5,-501.2 533.5,-523.2 736.5,-523.2 736.5,-501.2 533.5,-501.2"/>
<image xlink:href="../../images/primaryKeys.png" width="11px" height="12px" preserveAspectRatio="xMinYMin meet" x="538.5" y="-518.2"/>
<text text-anchor="start" x="553.5" y="-508.3" font-family="Helvetica,sans-Serif" font-size="11.00" fill="#000000">daily_challenges_classes_id</text>
<polygon fill="none" stroke="#000000" points="533.5,-479.2 533.5,-501.2 736.5,-501.2 736.5,-479.2 533.5,-479.2"/>
<image xlink:href="../../images/primaryKeys.png" width="11px" height="12px" preserveAspectRatio="xMinYMin meet" x="538.5" y="-496.2"/>
<text text-anchor="start" x="553.5" y="-486.3" font-family="Helvetica,sans-Serif" font-size="11.00" fill="#000000">daily_challenges_challenges_id</text>
<polygon fill="none" stroke="#000000" points="533.5,-457.2 533.5,-479.2 736.5,-479.2 736.5,-457.2 533.5,-457.2"/>
<image xlink:href="../../images/primaryKeys.png" width="11px" height="12px" preserveAspectRatio="xMinYMin meet" x="538.5" y="-474.2"/>
<text text-anchor="start" x="553.5" y="-464.3" font-family="Helvetica,sans-Serif" font-size="11.00" fill="#000000">daily_challenges_date</text>
<polygon fill="none" stroke="#000000" points="533.5,-438.2 533.5,-457.2 736.5,-457.2 736.5,-438.2 533.5,-438.2"/>
<text text-anchor="start" x="536.5" y="-444.3" font-family="Helvetica,sans-Serif" font-size="11.00" fill="#000000">...</text>
<polygon fill="#ffffff" stroke="transparent" points="533.5,-419.2 533.5,-438.2 620.5,-438.2 620.5,-419.2 533.5,-419.2"/>
<polygon fill="none" stroke="#000000" points="533.5,-419.2 533.5,-438.2 620.5,-438.2 620.5,-419.2 533.5,-419.2"/>
<text text-anchor="start" x="536.5" y="-425.3" font-family="Helvetica,sans-Serif" font-size="11.00" fill="#000000">&lt; 4</text>
<polygon fill="#ffffff" stroke="transparent" points="620.5,-419.2 620.5,-438.2 691.5,-438.2 691.5,-419.2 620.5,-419.2"/>
<polygon fill="none" stroke="#000000" points="620.5,-419.2 620.5,-438.2 691.5,-438.2 691.5,-419.2 620.5,-419.2"/>
<text text-anchor="start" x="656.1105" y="-425.3" font-family="Helvetica,sans-Serif" font-size="11.00" fill="#000000">0 rows</text>
<polygon fill="#ffffff" stroke="transparent" points="691.5,-419.2 691.5,-438.2 736.5,-438.2 736.5,-419.2 691.5,-419.2"/>
<polygon fill="none" stroke="#000000" points="691.5,-419.2 691.5,-438.2 736.5,-438.2 736.5,-419.2 691.5,-419.2"/>
<text text-anchor="start" x="727.3862" y="-425.3" font-family="Helvetica,sans-Serif" font-size="11.00" fill="#000000"> &#160;</text>
</a>
</g>
</g>
<!-- gymnasts -->
<g id="node2" class="node">
<title>gymnasts</title>
<g id="a_node2"><a xlink:href="../../tables/gymnasts.html" xlink:title="gymnasts" target="_top">
<polygon fill="#ffffff" stroke="transparent" points="183,-38.2 183,-326.2 478,-326.2 478,-38.2 183,-38.2"/>
<polygon fill="#f5f5f5" stroke="transparent" points="185.5,-301.2 185.5,-324.2 476.5,-324.2 476.5,-301.2 185.5,-301.2"/>
<polygon fill="none" stroke="#000000" points="185.5,-301.2 185.5,-324.2 476.5,-324.2 476.5,-301.2 185.5,-301.2"/>
<text text-anchor="start" x="190.5" y="-310.3" font-family="Helvetica,sans-Serif" font-weight="bold" font-size="11.00" fill="#000000">gymnasts</text>
<text text-anchor="start" x="441.5437" y="-309.3" font-family="Helvetica,sans-Serif" font-size="11.00" fill="#000000">[table]</text>
<polygon fill="none" stroke="#000000" points="185.5,-279.2 185.5,-301.2 359.5,-301.2 359.5,-279.2 185.5,-279.2"/>
<image xlink:href="../../images/primaryKeys.png" width="11px" height="12px" preserveAspectRatio="xMinYMin meet" x="190.5" y="-296.2"/>
<text text-anchor="start" x="205.5" y="-286.3" font-family="Helvetica,sans-Serif" font-size="11.00" fill="#000000">id</text>
<polygon fill="none" stroke="#000000" points="359.5,-279.2 359.5,-301.2 476.5,-301.2 476.5,-279.2 359.5,-279.2"/>
<text text-anchor="start" x="362.5" y="-286.9" font-family="Helvetica,sans-Serif" font-size="11.00" fill="#000000">int[10]</text>
<polygon fill="none" stroke="#000000" points="185.5,-257.2 185.5,-279.2 359.5,-279.2 359.5,-257.2 185.5,-257.2"/>
<text text-anchor="start" x="205.5" y="-264.3" font-family="Helvetica,sans-Serif" font-size="11.00" fill="#000000">name</text>
<polygon fill="none" stroke="#000000" points="359.5,-257.2 359.5,-279.2 476.5,-279.2 476.5,-257.2 359.5,-257.2"/>
<text text-anchor="start" x="362.5" y="-264.9" font-family="Helvetica,sans-Serif" font-size="11.00" fill="#000000">varchar[45]</text>
<polygon fill="none" stroke="#000000" points="185.5,-235.2 185.5,-257.2 359.5,-257.2 359.5,-235.2 185.5,-235.2"/>
<text text-anchor="start" x="205.5" y="-242.3" font-family="Helvetica,sans-Serif" font-size="11.00" fill="#000000">birth_date</text>
<polygon fill="none" stroke="#000000" points="359.5,-235.2 359.5,-257.2 476.5,-257.2 476.5,-235.2 359.5,-235.2"/>
<text text-anchor="start" x="362.5" y="-242.9" font-family="Helvetica,sans-Serif" font-size="11.00" fill="#000000">date[10]</text>
<polygon fill="none" stroke="#000000" points="185.5,-213.2 185.5,-235.2 359.5,-235.2 359.5,-213.2 185.5,-213.2"/>
<text text-anchor="start" x="205.5" y="-220.3" font-family="Helvetica,sans-Serif" font-size="11.00" fill="#000000">life_time_score</text>
<polygon fill="none" stroke="#000000" points="359.5,-213.2 359.5,-235.2 476.5,-235.2 476.5,-213.2 359.5,-213.2"/>
<text text-anchor="start" x="362.5" y="-220.9" font-family="Helvetica,sans-Serif" font-size="11.00" fill="#000000">int[10]</text>
<polygon fill="none" stroke="#000000" points="185.5,-191.2 185.5,-213.2 359.5,-213.2 359.5,-191.2 185.5,-191.2"/>
<text text-anchor="start" x="205.5" y="-198.3" font-family="Helvetica,sans-Serif" font-size="11.00" fill="#000000">current_streak_points</text>
<polygon fill="none" stroke="#000000" points="359.5,-191.2 359.5,-213.2 476.5,-213.2 476.5,-191.2 359.5,-191.2"/>
<text text-anchor="start" x="362.5" y="-198.9" font-family="Helvetica,sans-Serif" font-size="11.00" fill="#000000">int[10]</text>
<polygon fill="none" stroke="#000000" points="185.5,-169.2 185.5,-191.2 359.5,-191.2 359.5,-169.2 185.5,-169.2"/>
<text text-anchor="start" x="205.5" y="-176.3" font-family="Helvetica,sans-Serif" font-size="11.00" fill="#000000">last_streak</text>
<polygon fill="none" stroke="#000000" points="359.5,-169.2 359.5,-191.2 476.5,-191.2 476.5,-169.2 359.5,-169.2"/>
<text text-anchor="start" x="362.5" y="-176.9" font-family="Helvetica,sans-Serif" font-size="11.00" fill="#000000">date[10]</text>
<polygon fill="none" stroke="#000000" points="185.5,-147.2 185.5,-169.2 359.5,-169.2 359.5,-147.2 185.5,-147.2"/>
<text text-anchor="start" x="205.5" y="-154.3" font-family="Helvetica,sans-Serif" font-size="11.00" fill="#000000">about</text>
<polygon fill="none" stroke="#000000" points="359.5,-147.2 359.5,-169.2 476.5,-169.2 476.5,-147.2 359.5,-147.2"/>
<text text-anchor="start" x="362.0645" y="-154.9" font-family="Helvetica,sans-Serif" font-size="11.00" fill="#000000">mediumtext[16777215]</text>
<polygon fill="none" stroke="#000000" points="185.5,-125.2 185.5,-147.2 359.5,-147.2 359.5,-125.2 185.5,-125.2"/>
<text text-anchor="start" x="205.5" y="-132.3" font-family="Helvetica,sans-Serif" font-size="11.00" fill="#000000">created</text>
<polygon fill="none" stroke="#000000" points="359.5,-125.2 359.5,-147.2 476.5,-147.2 476.5,-125.2 359.5,-125.2"/>
<text text-anchor="start" x="362.5" y="-132.9" font-family="Helvetica,sans-Serif" font-size="11.00" fill="#000000">date[10]</text>
<polygon fill="none" stroke="#000000" points="185.5,-103.2 185.5,-125.2 359.5,-125.2 359.5,-103.2 185.5,-103.2"/>
<text text-anchor="start" x="205.5" y="-110.3" font-family="Helvetica,sans-Serif" font-size="11.00" fill="#000000">updated</text>
<polygon fill="none" stroke="#000000" points="359.5,-103.2 359.5,-125.2 476.5,-125.2 476.5,-103.2 359.5,-103.2"/>
<text text-anchor="start" x="362.5" y="-110.9" font-family="Helvetica,sans-Serif" font-size="11.00" fill="#000000">date[10]</text>
<polygon fill="#ffffff" stroke="transparent" points="185.5,-81.2 185.5,-103.2 359.5,-103.2 359.5,-81.2 185.5,-81.2"/>
<polygon fill="none" stroke="#000000" points="185.5,-81.2 185.5,-103.2 359.5,-103.2 359.5,-81.2 185.5,-81.2"/>
<image xlink:href="../../images/foreignKeys.png" width="11px" height="12px" preserveAspectRatio="xMinYMin meet" x="190.5" y="-98.2"/>
<text text-anchor="start" x="205.5" y="-88.3" font-family="Helvetica,sans-Serif" font-size="11.00" fill="#000000">gyms_has_users_gyms_id</text>
<polygon fill="none" stroke="#000000" points="359.5,-81.2 359.5,-103.2 476.5,-103.2 476.5,-81.2 359.5,-81.2"/>
<text text-anchor="start" x="362.5" y="-88.9" font-family="Helvetica,sans-Serif" font-size="11.00" fill="#000000">bigint[19]</text>
<polygon fill="#ffffff" stroke="transparent" points="185.5,-59.2 185.5,-81.2 359.5,-81.2 359.5,-59.2 185.5,-59.2"/>
<polygon fill="none" stroke="#000000" points="185.5,-59.2 185.5,-81.2 359.5,-81.2 359.5,-59.2 185.5,-59.2"/>
<image xlink:href="../../images/foreignKeys.png" width="11px" height="12px" preserveAspectRatio="xMinYMin meet" x="190.5" y="-76.2"/>
<text text-anchor="start" x="205.5" y="-66.3" font-family="Helvetica,sans-Serif" font-size="11.00" fill="#000000">gyms_has_users_users_id</text>
<polygon fill="none" stroke="#000000" points="359.5,-59.2 359.5,-81.2 476.5,-81.2 476.5,-59.2 359.5,-59.2"/>
<text text-anchor="start" x="362.5" y="-66.9" font-family="Helvetica,sans-Serif" font-size="11.00" fill="#000000">int[10]</text>
<polygon fill="#ffffff" stroke="transparent" points="185.5,-40.2 185.5,-59.2 263.5,-59.2 263.5,-40.2 185.5,-40.2"/>
<polygon fill="none" stroke="#000000" points="185.5,-40.2 185.5,-59.2 263.5,-59.2 263.5,-40.2 185.5,-40.2"/>
<text text-anchor="start" x="188.5" y="-46.3" font-family="Helvetica,sans-Serif" font-size="11.00" fill="#000000">&lt; 2</text>
<polygon fill="#ffffff" stroke="transparent" points="263.5,-40.2 263.5,-59.2 359.5,-59.2 359.5,-40.2 263.5,-40.2"/>
<polygon fill="none" stroke="#000000" points="263.5,-40.2 263.5,-59.2 359.5,-59.2 359.5,-40.2 263.5,-40.2"/>
<text text-anchor="start" x="324.1105" y="-46.3" font-family="Helvetica,sans-Serif" font-size="11.00" fill="#000000">0 rows</text>
<polygon fill="#ffffff" stroke="transparent" points="359.5,-40.2 359.5,-59.2 476.5,-59.2 476.5,-40.2 359.5,-40.2"/>
<polygon fill="none" stroke="#000000" points="359.5,-40.2 359.5,-59.2 476.5,-59.2 476.5,-40.2 359.5,-40.2"/>
<text text-anchor="start" x="457.9053" y="-46.3" font-family="Helvetica,sans-Serif" font-size="11.00" fill="#000000">4 &gt;</text>
<polygon fill="none" stroke="#000000" stroke-width="2" points="184,-39.2 184,-325.2 477,-325.2 477,-39.2 184,-39.2"/>
</a>
</g>
</g>
<!-- completed_daily_challenges&#45;&gt;gymnasts -->
<g id="edge1" class="edge">
<title>completed_daily_challenges:w&#45;&gt;gymnasts:e</title>
<path fill="none" stroke="#000000" d="M519.1043,-532.5116C437.6596,-510.9536 582.4265,-290.2 476.5,-290.2"/>
<polygon fill="#000000" stroke="#000000" points="525.5545,-533.2681 533.0806,-537.7755 529.5272,-533.734 533.5,-534.2 533.5,-534.2 533.5,-534.2 529.5272,-533.734 533.9194,-530.6245 525.5545,-533.2681 525.5545,-533.2681"/>
<ellipse fill="none" stroke="#000000" cx="522.3762" cy="-532.8953" rx="3.2" ry="3.2"/>
</g>
<!-- gyms_has_users -->
<g id="node5" class="node">
<title>gyms_has_users</title>
<g id="a_node5"><a xlink:href="../../tables/gyms_has_users.html" xlink:title="gyms_has_users" target="_top">
<polygon fill="#ffffff" stroke="transparent" points="8,-40.2 8,-126.2 134,-126.2 134,-40.2 8,-40.2"/>
<polygon fill="#f5f5f5" stroke="transparent" points="8,-103.2 8,-126.2 134,-126.2 134,-103.2 8,-103.2"/>
<polygon fill="none" stroke="#000000" points="8,-103.2 8,-126.2 134,-126.2 134,-103.2 8,-103.2"/>
<text text-anchor="start" x="12.9359" y="-112.3" font-family="Helvetica,sans-Serif" font-weight="bold" font-size="11.00" fill="#000000">gyms_has_users</text>
<text text-anchor="start" x="99.5219" y="-111.3" font-family="Helvetica,sans-Serif" font-size="11.00" fill="#000000">[table]</text>
<polygon fill="none" stroke="#000000" points="8,-81.2 8,-103.2 134,-103.2 134,-81.2 8,-81.2"/>
<image xlink:href="../../images/primaryKeys.png" width="11px" height="12px" preserveAspectRatio="xMinYMin meet" x="13" y="-98.2"/>
<text text-anchor="start" x="32" y="-88.3" font-family="Helvetica,sans-Serif" font-size="11.00" fill="#000000">gym_id</text>
<polygon fill="none" stroke="#000000" points="8,-59.2 8,-81.2 134,-81.2 134,-59.2 8,-59.2"/>
<image xlink:href="../../images/primaryKeys.png" width="11px" height="12px" preserveAspectRatio="xMinYMin meet" x="13" y="-76.2"/>
<text text-anchor="start" x="32" y="-66.3" font-family="Helvetica,sans-Serif" font-size="11.00" fill="#000000">user_id</text>
<polygon fill="#ffffff" stroke="transparent" points="8,-40.2 8,-59.2 52,-59.2 52,-40.2 8,-40.2"/>
<polygon fill="none" stroke="#000000" points="8,-40.2 8,-59.2 52,-59.2 52,-40.2 8,-40.2"/>
<text text-anchor="start" x="11" y="-46.3" font-family="Helvetica,sans-Serif" font-size="11.00" fill="#000000">&lt; 2</text>
<polygon fill="#ffffff" stroke="transparent" points="52,-40.2 52,-59.2 101,-59.2 101,-40.2 52,-40.2"/>
<polygon fill="none" stroke="#000000" points="52,-40.2 52,-59.2 101,-59.2 101,-40.2 52,-40.2"/>
<text text-anchor="start" x="65.6105" y="-46.3" font-family="Helvetica,sans-Serif" font-size="11.00" fill="#000000">0 rows</text>
<polygon fill="#ffffff" stroke="transparent" points="101,-40.2 101,-59.2 134,-59.2 134,-40.2 101,-40.2"/>
<polygon fill="none" stroke="#000000" points="101,-40.2 101,-59.2 134,-59.2 134,-40.2 101,-40.2"/>
<text text-anchor="start" x="115.4053" y="-46.3" font-family="Helvetica,sans-Serif" font-size="11.00" fill="#000000">2 &gt;</text>
</a>
</g>
</g>
<!-- gymnasts&#45;&gt;gyms_has_users -->
<g id="edge4" class="edge">
<title>gymnasts:w&#45;&gt;gyms_has_users:e</title>
<path fill="none" stroke="#000000" d="M171.0156,-92.2C158.6771,-92.2 151.1667,-92.2 134,-92.2"/>
<polygon fill="#000000" stroke="#000000" points="177.5,-92.2001 185.5,-95.8 181.5,-92.2 185.5,-92.2 185.5,-92.2 185.5,-92.2 181.5,-92.2 185.5,-88.6 177.5,-92.2001 177.5,-92.2001"/>
<ellipse fill="none" stroke="#000000" cx="174.3" cy="-92.2001" rx="3.2" ry="3.2"/>
</g>
<!-- gymnasts&#45;&gt;gyms_has_users -->
<g id="edge5" class="edge">
<title>gymnasts:w&#45;&gt;gyms_has_users:e</title>
<path fill="none" stroke="#000000" d="M171.0156,-70.2C158.6771,-70.2 151.1667,-70.2 134,-70.2"/>
<polygon fill="#000000" stroke="#000000" points="177.5,-70.2001 185.5,-73.8 181.5,-70.2 185.5,-70.2 185.5,-70.2 185.5,-70.2 181.5,-70.2 185.5,-66.6 177.5,-70.2001 177.5,-70.2001"/>
<ellipse fill="none" stroke="#000000" cx="174.3" cy="-70.2001" rx="3.2" ry="3.2"/>
</g>
<!-- completed_normal_challenges -->
<g id="node3" class="node">
<title>completed_normal_challenges</title>
<g id="a_node3"><a xlink:href="../../tables/completed_normal_challenges.html" xlink:title="completed_normal_challenges" target="_top">
<polygon fill="#ffffff" stroke="transparent" points="527,-271.7 527,-398.7 742,-398.7 742,-271.7 527,-271.7"/>
<polygon fill="#f5f5f5" stroke="transparent" points="527.5,-375.2 527.5,-398.2 742.5,-398.2 742.5,-375.2 527.5,-375.2"/>
<polygon fill="none" stroke="#000000" points="527.5,-375.2 527.5,-398.2 742.5,-398.2 742.5,-375.2 527.5,-375.2"/>
<text text-anchor="start" x="532.5" y="-384.3" font-family="Helvetica,sans-Serif" font-weight="bold" font-size="11.00" fill="#000000">completed_normal_challenges</text>
<text text-anchor="start" x="707.5437" y="-383.3" font-family="Helvetica,sans-Serif" font-size="11.00" fill="#000000">[table]</text>
<polygon fill="none" stroke="#000000" points="527.5,-353.2 527.5,-375.2 742.5,-375.2 742.5,-353.2 527.5,-353.2"/>
<image xlink:href="../../images/primaryKeys.png" width="11px" height="12px" preserveAspectRatio="xMinYMin meet" x="532.5" y="-370.2"/>
<text text-anchor="start" x="547.5" y="-360.3" font-family="Helvetica,sans-Serif" font-size="11.00" fill="#000000">gymnasts_id</text>
<polygon fill="none" stroke="#000000" points="527.5,-331.2 527.5,-353.2 742.5,-353.2 742.5,-331.2 527.5,-331.2"/>
<image xlink:href="../../images/primaryKeys.png" width="11px" height="12px" preserveAspectRatio="xMinYMin meet" x="532.5" y="-348.2"/>
<text text-anchor="start" x="547.5" y="-338.3" font-family="Helvetica,sans-Serif" font-size="11.00" fill="#000000">normal_challenges_classes_id</text>
<polygon fill="none" stroke="#000000" points="527.5,-309.2 527.5,-331.2 742.5,-331.2 742.5,-309.2 527.5,-309.2"/>
<image xlink:href="../../images/primaryKeys.png" width="11px" height="12px" preserveAspectRatio="xMinYMin meet" x="532.5" y="-326.2"/>
<text text-anchor="start" x="547.5" y="-316.3" font-family="Helvetica,sans-Serif" font-size="11.00" fill="#000000">normal_challenges_challenges_id</text>
<polygon fill="none" stroke="#000000" points="527.5,-290.2 527.5,-309.2 742.5,-309.2 742.5,-290.2 527.5,-290.2"/>
<text text-anchor="start" x="530.5" y="-296.3" font-family="Helvetica,sans-Serif" font-size="11.00" fill="#000000">...</text>
<polygon fill="#ffffff" stroke="transparent" points="527.5,-271.2 527.5,-290.2 620.5,-290.2 620.5,-271.2 527.5,-271.2"/>
<polygon fill="none" stroke="#000000" points="527.5,-271.2 527.5,-290.2 620.5,-290.2 620.5,-271.2 527.5,-271.2"/>
<text text-anchor="start" x="530.5" y="-277.3" font-family="Helvetica,sans-Serif" font-size="11.00" fill="#000000">&lt; 3</text>
<polygon fill="#ffffff" stroke="transparent" points="620.5,-271.2 620.5,-290.2 694.5,-290.2 694.5,-271.2 620.5,-271.2"/>
<polygon fill="none" stroke="#000000" points="620.5,-271.2 620.5,-290.2 694.5,-290.2 694.5,-271.2 620.5,-271.2"/>
<text text-anchor="start" x="659.1105" y="-277.3" font-family="Helvetica,sans-Serif" font-size="11.00" fill="#000000">0 rows</text>
<polygon fill="#ffffff" stroke="transparent" points="694.5,-271.2 694.5,-290.2 742.5,-290.2 742.5,-271.2 694.5,-271.2"/>
<polygon fill="none" stroke="#000000" points="694.5,-271.2 694.5,-290.2 742.5,-290.2 742.5,-271.2 694.5,-271.2"/>
<text text-anchor="start" x="733.3862" y="-277.3" font-family="Helvetica,sans-Serif" font-size="11.00" fill="#000000"> &#160;</text>
</a>
</g>
</g>
<!-- completed_normal_challenges&#45;&gt;gymnasts -->
<g id="edge2" class="edge">
<title>completed_normal_challenges:w&#45;&gt;gymnasts:e</title>
<path fill="none" stroke="#000000" d="M513.5503,-359.571C494.7607,-343.3706 510.3581,-290.2 476.5,-290.2"/>
<polygon fill="#000000" stroke="#000000" points="519.9071,-361.6804 526.3662,-367.6168 523.7036,-362.9402 527.5,-364.2 527.5,-364.2 527.5,-364.2 523.7036,-362.9402 528.6338,-360.7832 519.9071,-361.6804 519.9071,-361.6804"/>
<ellipse fill="none" stroke="#000000" cx="516.87" cy="-360.6725" rx="3.2" ry="3.2"/>
</g>
<!-- gymnast_has_skills -->
<g id="node4" class="node">
<title>gymnast_has_skills</title>
<g id="a_node4"><a xlink:href="../../tables/gymnast_has_skills.html" xlink:title="gymnast_has_skills" target="_top">
<polygon fill="#ffffff" stroke="transparent" points="565.5,-145.7 565.5,-250.7 703.5,-250.7 703.5,-145.7 565.5,-145.7"/>
<polygon fill="#f5f5f5" stroke="transparent" points="565.5,-227.2 565.5,-250.2 703.5,-250.2 703.5,-227.2 565.5,-227.2"/>
<polygon fill="none" stroke="#000000" points="565.5,-227.2 565.5,-250.2 703.5,-250.2 703.5,-227.2 565.5,-227.2"/>
<text text-anchor="start" x="570.3271" y="-236.3" font-family="Helvetica,sans-Serif" font-weight="bold" font-size="11.00" fill="#000000">gymnast_has_skills</text>
<text text-anchor="start" x="669.0219" y="-235.3" font-family="Helvetica,sans-Serif" font-size="11.00" fill="#000000">[table]</text>
<polygon fill="none" stroke="#000000" points="565.5,-205.2 565.5,-227.2 703.5,-227.2 703.5,-205.2 565.5,-205.2"/>
<image xlink:href="../../images/primaryKeys.png" width="11px" height="12px" preserveAspectRatio="xMinYMin meet" x="570.5" y="-222.2"/>
<text text-anchor="start" x="587.5" y="-212.3" font-family="Helvetica,sans-Serif" font-size="11.00" fill="#000000">gymnast_id</text>
<polygon fill="none" stroke="#000000" points="565.5,-183.2 565.5,-205.2 703.5,-205.2 703.5,-183.2 565.5,-183.2"/>
<image xlink:href="../../images/primaryKeys.png" width="11px" height="12px" preserveAspectRatio="xMinYMin meet" x="570.5" y="-200.2"/>
<text text-anchor="start" x="587.5" y="-190.3" font-family="Helvetica,sans-Serif" font-size="11.00" fill="#000000">skills_Id</text>
<polygon fill="none" stroke="#000000" points="565.5,-164.2 565.5,-183.2 703.5,-183.2 703.5,-164.2 565.5,-164.2"/>
<text text-anchor="start" x="568.5" y="-170.3" font-family="Helvetica,sans-Serif" font-size="11.00" fill="#000000">...</text>
<polygon fill="#ffffff" stroke="transparent" points="565.5,-145.2 565.5,-164.2 619.5,-164.2 619.5,-145.2 565.5,-145.2"/>
<polygon fill="none" stroke="#000000" points="565.5,-145.2 565.5,-164.2 619.5,-164.2 619.5,-145.2 565.5,-145.2"/>
<text text-anchor="start" x="568.5" y="-151.3" font-family="Helvetica,sans-Serif" font-size="11.00" fill="#000000">&lt; 2</text>
<polygon fill="#ffffff" stroke="transparent" points="619.5,-145.2 619.5,-164.2 674.5,-164.2 674.5,-145.2 619.5,-145.2"/>
<polygon fill="none" stroke="#000000" points="619.5,-145.2 619.5,-164.2 674.5,-164.2 674.5,-145.2 619.5,-145.2"/>
<text text-anchor="start" x="639.1105" y="-151.3" font-family="Helvetica,sans-Serif" font-size="11.00" fill="#000000">0 rows</text>
<polygon fill="#ffffff" stroke="transparent" points="674.5,-145.2 674.5,-164.2 703.5,-164.2 703.5,-145.2 674.5,-145.2"/>
<polygon fill="none" stroke="#000000" points="674.5,-145.2 674.5,-164.2 703.5,-164.2 703.5,-145.2 674.5,-145.2"/>
<text text-anchor="start" x="694.3862" y="-151.3" font-family="Helvetica,sans-Serif" font-size="11.00" fill="#000000"> &#160;</text>
</a>
</g>
</g>
<!-- gymnast_has_skills&#45;&gt;gymnasts -->
<g id="edge3" class="edge">
<title>gymnast_has_skills:w&#45;&gt;gymnasts:e</title>
<path fill="none" stroke="#000000" d="M551.2501,-218.4958C516.2597,-230.9862 522.5168,-290.2 476.5,-290.2"/>
<polygon fill="#000000" stroke="#000000" points="557.6018,-217.4725 566.0726,-219.7542 561.5509,-216.8363 565.5,-216.2 565.5,-216.2 565.5,-216.2 561.5509,-216.8363 564.9274,-212.6458 557.6018,-217.4725 557.6018,-217.4725"/>
<ellipse fill="none" stroke="#000000" cx="554.4426" cy="-217.9815" rx="3.2" ry="3.2"/>
</g>
<!-- gymnasts_classes -->
<g id="node6" class="node">
<title>gymnasts_classes</title>
<g id="a_node6"><a xlink:href="../../tables/gymnasts_classes.html" xlink:title="gymnasts_classes" target="_top">
<polygon fill="#ffffff" stroke="transparent" points="568.5,-38.2 568.5,-124.2 700.5,-124.2 700.5,-38.2 568.5,-38.2"/>
<polygon fill="#f5f5f5" stroke="transparent" points="568.5,-101.2 568.5,-124.2 700.5,-124.2 700.5,-101.2 568.5,-101.2"/>
<polygon fill="none" stroke="#000000" points="568.5,-101.2 568.5,-124.2 700.5,-124.2 700.5,-101.2 568.5,-101.2"/>
<text text-anchor="start" x="573.0755" y="-110.3" font-family="Helvetica,sans-Serif" font-weight="bold" font-size="11.00" fill="#000000">gymnasts_classes</text>
<text text-anchor="start" x="666.0219" y="-109.3" font-family="Helvetica,sans-Serif" font-size="11.00" fill="#000000">[table]</text>
<polygon fill="none" stroke="#000000" points="568.5,-79.2 568.5,-101.2 700.5,-101.2 700.5,-79.2 568.5,-79.2"/>
<image xlink:href="../../images/primaryKeys.png" width="11px" height="12px" preserveAspectRatio="xMinYMin meet" x="573.5" y="-96.2"/>
<text text-anchor="start" x="591.5" y="-86.3" font-family="Helvetica,sans-Serif" font-size="11.00" fill="#000000">gymnasts_id</text>
<polygon fill="none" stroke="#000000" points="568.5,-57.2 568.5,-79.2 700.5,-79.2 700.5,-57.2 568.5,-57.2"/>
<image xlink:href="../../images/primaryKeys.png" width="11px" height="12px" preserveAspectRatio="xMinYMin meet" x="573.5" y="-74.2"/>
<text text-anchor="start" x="591.5" y="-64.3" font-family="Helvetica,sans-Serif" font-size="11.00" fill="#000000">classes_id</text>
<polygon fill="#ffffff" stroke="transparent" points="568.5,-38.2 568.5,-57.2 619.5,-57.2 619.5,-38.2 568.5,-38.2"/>
<polygon fill="none" stroke="#000000" points="568.5,-38.2 568.5,-57.2 619.5,-57.2 619.5,-38.2 568.5,-38.2"/>
<text text-anchor="start" x="571.5" y="-44.3" font-family="Helvetica,sans-Serif" font-size="11.00" fill="#000000">&lt; 2</text>
<polygon fill="#ffffff" stroke="transparent" points="619.5,-38.2 619.5,-57.2 672.5,-57.2 672.5,-38.2 619.5,-38.2"/>
<polygon fill="none" stroke="#000000" points="619.5,-38.2 619.5,-57.2 672.5,-57.2 672.5,-38.2 619.5,-38.2"/>
<text text-anchor="start" x="637.1105" y="-44.3" font-family="Helvetica,sans-Serif" font-size="11.00" fill="#000000">0 rows</text>
<polygon fill="#ffffff" stroke="transparent" points="672.5,-38.2 672.5,-57.2 700.5,-57.2 700.5,-38.2 672.5,-38.2"/>
<polygon fill="none" stroke="#000000" points="672.5,-38.2 672.5,-57.2 700.5,-57.2 700.5,-38.2 672.5,-38.2"/>
<text text-anchor="start" x="691.3862" y="-44.3" font-family="Helvetica,sans-Serif" font-size="11.00" fill="#000000"> &#160;</text>
</a>
</g>
</g>
<!-- gymnasts_classes&#45;&gt;gymnasts -->
<g id="edge6" class="edge">
<title>gymnasts_classes:w&#45;&gt;gymnasts:e</title>
<path fill="none" stroke="#000000" d="M554.2236,-92.1811C536.7872,-97.7714 531.6329,-114.609 519,-135.2 481.6454,-196.086 547.9316,-290.2 476.5,-290.2"/>
<polygon fill="#000000" stroke="#000000" points="560.5759,-91.2997 568.9948,-93.7658 564.538,-90.7498 568.5,-90.2 568.5,-90.2 568.5,-90.2 564.538,-90.7498 568.0052,-86.6342 560.5759,-91.2997 560.5759,-91.2997"/>
<ellipse fill="none" stroke="#000000" cx="557.4063" cy="-91.7395" rx="3.2" ry="3.2"/>
</g>
</g>
</svg>
