<?xml version="1.0" encoding="UTF-8" standalone="no"?>
<!DOCTYPE svg PUBLIC "-//W3C//DTD SVG 1.1//EN"
 "http://www.w3.org/Graphics/SVG/1.1/DTD/svg11.dtd">
<!-- Generated by graphviz version 2.40.1 (20161225.0304)
 -->
<!-- Title: twoDegreesRelationshipsDiagram Pages: 1 -->
<svg width="653pt" height="557pt"
 viewBox="0.00 0.00 653.00 557.20" xmlns="http://www.w3.org/2000/svg" xmlns:xlink="http://www.w3.org/1999/xlink">
<g id="graph0" class="graph" transform="scale(1 1) rotate(0) translate(4 553.2)">
<title>twoDegreesRelationshipsDiagram</title>
<polygon fill="#ffffff" stroke="transparent" points="-4,4 -4,-553.2 649,-553.2 649,4 -4,4"/>
<text text-anchor="middle" x="72.4936" y="-7.3" font-family="Helvetica,sans-Serif" font-size="11.00" fill="#000000">Generated by SchemaSpy</text>
<!-- completed_daily_challenges -->
<g id="node1" class="node">
<title>completed_daily_challenges</title>
<g id="a_node1"><a xlink:href="../../tables/completed_daily_challenges.html" xlink:title="completed_daily_challenges" target="_top">
<polygon fill="#ffffff" stroke="transparent" points="431,-484.2 431,-545.2 612,-545.2 612,-484.2 431,-484.2"/>
<polygon fill="#f5f5f5" stroke="transparent" points="431.5,-521.7 431.5,-544.7 612.5,-544.7 612.5,-521.7 431.5,-521.7"/>
<polygon fill="none" stroke="#000000" points="431.5,-521.7 431.5,-544.7 612.5,-544.7 612.5,-521.7 431.5,-521.7"/>
<text text-anchor="start" x="436.4266" y="-530.8" font-family="Helvetica,sans-Serif" font-weight="bold" font-size="11.00" fill="#000000">completed_daily_challenges</text>
<text text-anchor="start" x="578.0219" y="-529.8" font-family="Helvetica,sans-Serif" font-size="11.00" fill="#000000">[table]</text>
<polygon fill="none" stroke="#000000" points="431.5,-502.7 431.5,-521.7 612.5,-521.7 612.5,-502.7 431.5,-502.7"/>
<text text-anchor="start" x="434.5" y="-508.8" font-family="Helvetica,sans-Serif" font-size="11.00" fill="#000000">...</text>
<polygon fill="#ffffff" stroke="transparent" points="431.5,-483.7 431.5,-502.7 507.5,-502.7 507.5,-483.7 431.5,-483.7"/>
<polygon fill="none" stroke="#000000" points="431.5,-483.7 431.5,-502.7 507.5,-502.7 507.5,-483.7 431.5,-483.7"/>
<text text-anchor="start" x="434.5" y="-489.8" font-family="Helvetica,sans-Serif" font-size="11.00" fill="#000000">&lt; 4</text>
<polygon fill="#ffffff" stroke="transparent" points="507.5,-483.7 507.5,-502.7 572.5,-502.7 572.5,-483.7 507.5,-483.7"/>
<polygon fill="none" stroke="#000000" points="507.5,-483.7 507.5,-502.7 572.5,-502.7 572.5,-483.7 507.5,-483.7"/>
<text text-anchor="start" x="537.1105" y="-489.8" font-family="Helvetica,sans-Serif" font-size="11.00" fill="#000000">0 rows</text>
<polygon fill="#ffffff" stroke="transparent" points="572.5,-483.7 572.5,-502.7 612.5,-502.7 612.5,-483.7 572.5,-483.7"/>
<polygon fill="none" stroke="#000000" points="572.5,-483.7 572.5,-502.7 612.5,-502.7 612.5,-483.7 572.5,-483.7"/>
<text text-anchor="start" x="603.3862" y="-489.8" font-family="Helvetica,sans-Serif" font-size="11.00" fill="#000000"> &#160;</text>
</a>
</g>
</g>
<!-- gymnasts -->
<g id="node2" class="node">
<title>gymnasts</title>
<g id="a_node2"><a xlink:href="../../tables/gymnasts.html" xlink:title="gymnasts" target="_top">
<polygon fill="#ffffff" stroke="transparent" points="183,-296.2 183,-423.2 357,-423.2 357,-296.2 183,-296.2"/>
<polygon fill="#f5f5f5" stroke="transparent" points="183,-399.7 183,-422.7 357,-422.7 357,-399.7 183,-399.7"/>
<polygon fill="none" stroke="#000000" points="183,-399.7 183,-422.7 357,-422.7 357,-399.7 183,-399.7"/>
<text text-anchor="start" x="188" y="-408.8" font-family="Helvetica,sans-Serif" font-weight="bold" font-size="11.00" fill="#000000">gymnasts</text>
<text text-anchor="start" x="322.0437" y="-407.8" font-family="Helvetica,sans-Serif" font-size="11.00" fill="#000000">[table]</text>
<polygon fill="none" stroke="#000000" points="183,-377.7 183,-399.7 357,-399.7 357,-377.7 183,-377.7"/>
<image xlink:href="../../images/primaryKeys.png" width="11px" height="12px" preserveAspectRatio="xMinYMin meet" x="188" y="-394.7"/>
<text text-anchor="start" x="203" y="-384.8" font-family="Helvetica,sans-Serif" font-size="11.00" fill="#000000">id</text>
<polygon fill="#ffffff" stroke="transparent" points="183,-355.7 183,-377.7 357,-377.7 357,-355.7 183,-355.7"/>
<polygon fill="none" stroke="#000000" points="183,-355.7 183,-377.7 357,-377.7 357,-355.7 183,-355.7"/>
<image xlink:href="../../images/foreignKeys.png" width="11px" height="12px" preserveAspectRatio="xMinYMin meet" x="188" y="-372.7"/>
<text text-anchor="start" x="203" y="-362.8" font-family="Helvetica,sans-Serif" font-size="11.00" fill="#000000">gyms_has_users_gyms_id</text>
<polygon fill="#ffffff" stroke="transparent" points="183,-333.7 183,-355.7 357,-355.7 357,-333.7 183,-333.7"/>
<polygon fill="none" stroke="#000000" points="183,-333.7 183,-355.7 357,-355.7 357,-333.7 183,-333.7"/>
<image xlink:href="../../images/foreignKeys.png" width="11px" height="12px" preserveAspectRatio="xMinYMin meet" x="188" y="-350.7"/>
<text text-anchor="start" x="203" y="-340.8" font-family="Helvetica,sans-Serif" font-size="11.00" fill="#000000">gyms_has_users_users_id</text>
<polygon fill="none" stroke="#000000" points="183,-314.7 183,-333.7 357,-333.7 357,-314.7 183,-314.7"/>
<text text-anchor="start" x="186" y="-320.8" font-family="Helvetica,sans-Serif" font-size="11.00" fill="#000000">...</text>
<polygon fill="#ffffff" stroke="transparent" points="183,-295.7 183,-314.7 251,-314.7 251,-295.7 183,-295.7"/>
<polygon fill="none" stroke="#000000" points="183,-295.7 183,-314.7 251,-314.7 251,-295.7 183,-295.7"/>
<text text-anchor="start" x="186" y="-301.8" font-family="Helvetica,sans-Serif" font-size="11.00" fill="#000000">&lt; 2</text>
<polygon fill="#ffffff" stroke="transparent" points="251,-295.7 251,-314.7 312,-314.7 312,-295.7 251,-295.7"/>
<polygon fill="none" stroke="#000000" points="251,-295.7 251,-314.7 312,-314.7 312,-295.7 251,-295.7"/>
<text text-anchor="start" x="276.6105" y="-301.8" font-family="Helvetica,sans-Serif" font-size="11.00" fill="#000000">0 rows</text>
<polygon fill="#ffffff" stroke="transparent" points="312,-295.7 312,-314.7 357,-314.7 357,-295.7 312,-295.7"/>
<polygon fill="none" stroke="#000000" points="312,-295.7 312,-314.7 357,-314.7 357,-295.7 312,-295.7"/>
<text text-anchor="start" x="338.4053" y="-301.8" font-family="Helvetica,sans-Serif" font-size="11.00" fill="#000000">4 &gt;</text>
</a>
</g>
</g>
<!-- completed_daily_challenges&#45;&gt;gymnasts -->
<g id="edge1" class="edge">
<title>completed_daily_challenges:w&#45;&gt;gymnasts:e</title>
<path fill="none" stroke="#000000" d="M417.2058,-509.0166C376.0555,-491.0291 415.2951,-388.7 357,-388.7"/>
<polygon fill="#000000" stroke="#000000" points="423.6373,-510.2239 430.8358,-515.2382 427.5687,-510.962 431.5,-511.7 431.5,-511.7 431.5,-511.7 427.5687,-510.962 432.1642,-508.1618 423.6373,-510.2239 423.6373,-510.2239"/>
<ellipse fill="none" stroke="#000000" cx="420.4923" cy="-509.6335" rx="3.2" ry="3.2"/>
</g>
<!-- gyms_has_users -->
<g id="node6" class="node">
<title>gyms_has_users</title>
<g id="a_node6"><a xlink:href="../../tables/gyms_has_users.html" xlink:title="gyms_has_users" target="_top">
<polygon fill="#ffffff" stroke="transparent" points="8,-328.2 8,-389.2 134,-389.2 134,-328.2 8,-328.2"/>
<polygon fill="#f5f5f5" stroke="transparent" points="8,-365.7 8,-388.7 134,-388.7 134,-365.7 8,-365.7"/>
<polygon fill="none" stroke="#000000" points="8,-365.7 8,-388.7 134,-388.7 134,-365.7 8,-365.7"/>
<text text-anchor="start" x="12.9359" y="-374.8" font-family="Helvetica,sans-Serif" font-weight="bold" font-size="11.00" fill="#000000">gyms_has_users</text>
<text text-anchor="start" x="99.5219" y="-373.8" font-family="Helvetica,sans-Serif" font-size="11.00" fill="#000000">[table]</text>
<polygon fill="none" stroke="#000000" points="8,-346.7 8,-365.7 134,-365.7 134,-346.7 8,-346.7"/>
<text text-anchor="start" x="11" y="-352.8" font-family="Helvetica,sans-Serif" font-size="11.00" fill="#000000">...</text>
<polygon fill="#ffffff" stroke="transparent" points="8,-327.7 8,-346.7 52,-346.7 52,-327.7 8,-327.7"/>
<polygon fill="none" stroke="#000000" points="8,-327.7 8,-346.7 52,-346.7 52,-327.7 8,-327.7"/>
<text text-anchor="start" x="11" y="-333.8" font-family="Helvetica,sans-Serif" font-size="11.00" fill="#000000">&lt; 2</text>
<polygon fill="#ffffff" stroke="transparent" points="52,-327.7 52,-346.7 101,-346.7 101,-327.7 52,-327.7"/>
<polygon fill="none" stroke="#000000" points="52,-327.7 52,-346.7 101,-346.7 101,-327.7 52,-327.7"/>
<text text-anchor="start" x="65.6105" y="-333.8" font-family="Helvetica,sans-Serif" font-size="11.00" fill="#000000">0 rows</text>
<polygon fill="#ffffff" stroke="transparent" points="101,-327.7 101,-346.7 134,-346.7 134,-327.7 101,-327.7"/>
<polygon fill="none" stroke="#000000" points="101,-327.7 101,-346.7 134,-346.7 134,-327.7 101,-327.7"/>
<text text-anchor="start" x="115.4053" y="-333.8" font-family="Helvetica,sans-Serif" font-size="11.00" fill="#000000">2 &gt;</text>
</a>
</g>
</g>
<!-- gymnasts&#45;&gt;gyms_has_users -->
<g id="edge5" class="edge">
<title>gymnasts:w&#45;&gt;gyms_has_users:e</title>
<path fill="none" stroke="#000000" d="M168.7027,-364.8836C157.2382,-361.7593 150.5655,-355.7 134,-355.7"/>
<polygon fill="#000000" stroke="#000000" points="175.0638,-365.6917 182.5463,-370.2713 179.0319,-366.1958 183,-366.7 183,-366.7 183,-366.7 179.0319,-366.1958 183.4537,-363.1287 175.0638,-365.6917 175.0638,-365.6917"/>
<ellipse fill="none" stroke="#000000" cx="171.8893" cy="-365.2884" rx="3.2" ry="3.2"/>
</g>
<!-- gymnasts&#45;&gt;gyms_has_users -->
<g id="edge6" class="edge">
<title>gymnasts:w&#45;&gt;gyms_has_users:e</title>
<path fill="none" stroke="#000000" d="M168.7027,-346.5164C157.2382,-349.6407 150.5655,-355.7 134,-355.7"/>
<polygon fill="#000000" stroke="#000000" points="175.0638,-345.7083 183.4537,-348.2713 179.0319,-345.2042 183,-344.7 183,-344.7 183,-344.7 179.0319,-345.2042 182.5463,-341.1287 175.0638,-345.7083 175.0638,-345.7083"/>
<ellipse fill="none" stroke="#000000" cx="171.8893" cy="-346.1116" rx="3.2" ry="3.2"/>
</g>
<!-- completed_normal_challenges -->
<g id="node3" class="node">
<title>completed_normal_challenges</title>
<g id="a_node3"><a xlink:href="../../tables/completed_normal_challenges.html" xlink:title="completed_normal_challenges" target="_top">
<polygon fill="#ffffff" stroke="transparent" points="425.5,-402.2 425.5,-463.2 617.5,-463.2 617.5,-402.2 425.5,-402.2"/>
<polygon fill="#f5f5f5" stroke="transparent" points="425.5,-439.7 425.5,-462.7 617.5,-462.7 617.5,-439.7 425.5,-439.7"/>
<polygon fill="none" stroke="#000000" points="425.5,-439.7 425.5,-462.7 617.5,-462.7 617.5,-439.7 425.5,-439.7"/>
<text text-anchor="start" x="430.4277" y="-448.8" font-family="Helvetica,sans-Serif" font-weight="bold" font-size="11.00" fill="#000000">completed_normal_challenges</text>
<text text-anchor="start" x="583.0219" y="-447.8" font-family="Helvetica,sans-Serif" font-size="11.00" fill="#000000">[table]</text>
<polygon fill="none" stroke="#000000" points="425.5,-420.7 425.5,-439.7 617.5,-439.7 617.5,-420.7 425.5,-420.7"/>
<text text-anchor="start" x="428.5" y="-426.8" font-family="Helvetica,sans-Serif" font-size="11.00" fill="#000000">...</text>
<polygon fill="#ffffff" stroke="transparent" points="425.5,-401.7 425.5,-420.7 506.5,-420.7 506.5,-401.7 425.5,-401.7"/>
<polygon fill="none" stroke="#000000" points="425.5,-401.7 425.5,-420.7 506.5,-420.7 506.5,-401.7 425.5,-401.7"/>
<text text-anchor="start" x="428.5" y="-407.8" font-family="Helvetica,sans-Serif" font-size="11.00" fill="#000000">&lt; 3</text>
<polygon fill="#ffffff" stroke="transparent" points="506.5,-401.7 506.5,-420.7 574.5,-420.7 574.5,-401.7 506.5,-401.7"/>
<polygon fill="none" stroke="#000000" points="506.5,-401.7 506.5,-420.7 574.5,-420.7 574.5,-401.7 506.5,-401.7"/>
<text text-anchor="start" x="539.1105" y="-407.8" font-family="Helvetica,sans-Serif" font-size="11.00" fill="#000000">0 rows</text>
<polygon fill="#ffffff" stroke="transparent" points="574.5,-401.7 574.5,-420.7 617.5,-420.7 617.5,-401.7 574.5,-401.7"/>
<polygon fill="none" stroke="#000000" points="574.5,-401.7 574.5,-420.7 617.5,-420.7 617.5,-401.7 574.5,-401.7"/>
<text text-anchor="start" x="608.3862" y="-407.8" font-family="Helvetica,sans-Serif" font-size="11.00" fill="#000000"> &#160;</text>
</a>
</g>
</g>
<!-- completed_normal_challenges&#45;&gt;gymnasts -->
<g id="edge2" class="edge">
<title>completed_normal_challenges:w&#45;&gt;gymnasts:e</title>
<path fill="none" stroke="#000000" d="M411.0604,-426.8819C389.8343,-417.6188 386.7986,-388.7 357,-388.7"/>
<polygon fill="#000000" stroke="#000000" points="417.6481,-428.1676 424.8104,-433.2333 421.5741,-428.9338 425.5,-429.7 425.5,-429.7 425.5,-429.7 421.5741,-428.9338 426.1896,-426.1667 417.6481,-428.1676 417.6481,-428.1676"/>
<ellipse fill="none" stroke="#000000" cx="414.5074" cy="-427.5546" rx="3.2" ry="3.2"/>
</g>
<!-- gymnast_has_skills -->
<g id="node4" class="node">
<title>gymnast_has_skills</title>
<g id="a_node4"><a xlink:href="../../tables/gymnast_has_skills.html" xlink:title="gymnast_has_skills" target="_top">
<polygon fill="#ffffff" stroke="transparent" points="406,-120.7 406,-298.7 637,-298.7 637,-120.7 406,-120.7"/>
<polygon fill="#f5f5f5" stroke="transparent" points="408.5,-273.7 408.5,-296.7 635.5,-296.7 635.5,-273.7 408.5,-273.7"/>
<polygon fill="none" stroke="#000000" points="408.5,-273.7 408.5,-296.7 635.5,-296.7 635.5,-273.7 408.5,-273.7"/>
<text text-anchor="start" x="413.5" y="-282.8" font-family="Helvetica,sans-Serif" font-weight="bold" font-size="11.00" fill="#000000">gymnast_has_skills</text>
<text text-anchor="start" x="600.5437" y="-281.8" font-family="Helvetica,sans-Serif" font-size="11.00" fill="#000000">[table]</text>
<polygon fill="none" stroke="#000000" points="408.5,-251.7 408.5,-273.7 542.5,-273.7 542.5,-251.7 408.5,-251.7"/>
<image xlink:href="../../images/primaryKeys.png" width="11px" height="12px" preserveAspectRatio="xMinYMin meet" x="413.5" y="-268.7"/>
<text text-anchor="start" x="428.5" y="-258.8" font-family="Helvetica,sans-Serif" font-size="11.00" fill="#000000">gymnast_id</text>
<polygon fill="none" stroke="#000000" points="542.5,-251.7 542.5,-273.7 635.5,-273.7 635.5,-251.7 542.5,-251.7"/>
<text text-anchor="start" x="545.5" y="-259.4" font-family="Helvetica,sans-Serif" font-size="11.00" fill="#000000">int[10]</text>
<polygon fill="none" stroke="#000000" points="408.5,-229.7 408.5,-251.7 542.5,-251.7 542.5,-229.7 408.5,-229.7"/>
<image xlink:href="../../images/primaryKeys.png" width="11px" height="12px" preserveAspectRatio="xMinYMin meet" x="413.5" y="-246.7"/>
<text text-anchor="start" x="428.5" y="-236.8" font-family="Helvetica,sans-Serif" font-size="11.00" fill="#000000">skills_Id</text>
<polygon fill="none" stroke="#000000" points="542.5,-229.7 542.5,-251.7 635.5,-251.7 635.5,-229.7 542.5,-229.7"/>
<text text-anchor="start" x="545.5" y="-237.4" font-family="Helvetica,sans-Serif" font-size="11.00" fill="#000000">int[10]</text>
<polygon fill="none" stroke="#000000" points="408.5,-207.7 408.5,-229.7 542.5,-229.7 542.5,-207.7 408.5,-207.7"/>
<text text-anchor="start" x="428.5" y="-214.8" font-family="Helvetica,sans-Serif" font-size="11.00" fill="#000000">progress_status</text>
<polygon fill="none" stroke="#000000" points="542.5,-207.7 542.5,-229.7 635.5,-229.7 635.5,-207.7 542.5,-207.7"/>
<text text-anchor="start" x="545.5" y="-215.4" font-family="Helvetica,sans-Serif" font-size="11.00" fill="#000000">varchar[45]</text>
<polygon fill="none" stroke="#000000" points="408.5,-185.7 408.5,-207.7 542.5,-207.7 542.5,-185.7 408.5,-185.7"/>
<text text-anchor="start" x="428.5" y="-192.8" font-family="Helvetica,sans-Serif" font-size="11.00" fill="#000000">coach_verify</text>
<polygon fill="none" stroke="#000000" points="542.5,-185.7 542.5,-207.7 635.5,-207.7 635.5,-185.7 542.5,-185.7"/>
<text text-anchor="start" x="545.2832" y="-193.4" font-family="Helvetica,sans-Serif" font-size="11.00" fill="#000000">json[1073741824]</text>
<polygon fill="none" stroke="#000000" points="408.5,-163.7 408.5,-185.7 542.5,-185.7 542.5,-163.7 408.5,-163.7"/>
<text text-anchor="start" x="428.5" y="-170.8" font-family="Helvetica,sans-Serif" font-size="11.00" fill="#000000">timestamp</text>
<polygon fill="none" stroke="#000000" points="542.5,-163.7 542.5,-185.7 635.5,-185.7 635.5,-163.7 542.5,-163.7"/>
<text text-anchor="start" x="545.5" y="-171.4" font-family="Helvetica,sans-Serif" font-size="11.00" fill="#000000">date[10]</text>
<polygon fill="none" stroke="#000000" points="408.5,-141.7 408.5,-163.7 542.5,-163.7 542.5,-141.7 408.5,-141.7"/>
<text text-anchor="start" x="428.5" y="-148.8" font-family="Helvetica,sans-Serif" font-size="11.00" fill="#000000">interactions</text>
<polygon fill="none" stroke="#000000" points="542.5,-141.7 542.5,-163.7 635.5,-163.7 635.5,-141.7 542.5,-141.7"/>
<text text-anchor="start" x="545.2832" y="-149.4" font-family="Helvetica,sans-Serif" font-size="11.00" fill="#000000">json[1073741824]</text>
<polygon fill="#ffffff" stroke="transparent" points="408.5,-122.7 408.5,-141.7 466.5,-141.7 466.5,-122.7 408.5,-122.7"/>
<polygon fill="none" stroke="#000000" points="408.5,-122.7 408.5,-141.7 466.5,-141.7 466.5,-122.7 408.5,-122.7"/>
<text text-anchor="start" x="411.5" y="-128.8" font-family="Helvetica,sans-Serif" font-size="11.00" fill="#000000">&lt; 2</text>
<polygon fill="#ffffff" stroke="transparent" points="466.5,-122.7 466.5,-141.7 542.5,-141.7 542.5,-122.7 466.5,-122.7"/>
<polygon fill="none" stroke="#000000" points="466.5,-122.7 466.5,-141.7 542.5,-141.7 542.5,-122.7 466.5,-122.7"/>
<text text-anchor="start" x="507.1105" y="-128.8" font-family="Helvetica,sans-Serif" font-size="11.00" fill="#000000">0 rows</text>
<polygon fill="#ffffff" stroke="transparent" points="542.5,-122.7 542.5,-141.7 635.5,-141.7 635.5,-122.7 542.5,-122.7"/>
<polygon fill="none" stroke="#000000" points="542.5,-122.7 542.5,-141.7 635.5,-141.7 635.5,-122.7 542.5,-122.7"/>
<text text-anchor="start" x="616.9053" y="-128.8" font-family="Helvetica,sans-Serif" font-size="11.00" fill="#000000">0 &gt;</text>
<polygon fill="none" stroke="#000000" stroke-width="2" points="407,-121.7 407,-297.7 636,-297.7 636,-121.7 407,-121.7"/>
</a>
</g>
</g>
<!-- gymnast_has_skills&#45;&gt;gymnasts -->
<g id="edge3" class="edge">
<title>gymnast_has_skills:w&#45;&gt;gymnasts:e</title>
<path fill="none" stroke="#000000" d="M394.2532,-266.0702C360.3363,-286.1077 411.5892,-388.7 357,-388.7"/>
<polygon fill="#000000" stroke="#000000" points="400.7149,-264.5417 409.3288,-266.2033 404.6074,-263.6208 408.5,-262.7 408.5,-262.7 408.5,-262.7 404.6074,-263.6208 407.6712,-259.1967 400.7149,-264.5417 400.7149,-264.5417"/>
<ellipse fill="none" stroke="#000000" cx="397.6008" cy="-265.2783" rx="3.2" ry="3.2"/>
</g>
<!-- skills -->
<g id="node5" class="node">
<title>skills</title>
<g id="a_node5"><a xlink:href="../../tables/skills.html" xlink:title="skills" target="_top">
<polygon fill="#ffffff" stroke="transparent" points="227.5,-103.2 227.5,-208.2 312.5,-208.2 312.5,-103.2 227.5,-103.2"/>
<polygon fill="#f5f5f5" stroke="transparent" points="228,-184.7 228,-207.7 313,-207.7 313,-184.7 228,-184.7"/>
<polygon fill="none" stroke="#000000" points="228,-184.7 228,-207.7 313,-207.7 313,-184.7 228,-184.7"/>
<text text-anchor="start" x="233" y="-193.8" font-family="Helvetica,sans-Serif" font-weight="bold" font-size="11.00" fill="#000000">skills</text>
<text text-anchor="start" x="278.0437" y="-192.8" font-family="Helvetica,sans-Serif" font-size="11.00" fill="#000000">[table]</text>
<polygon fill="none" stroke="#000000" points="228,-162.7 228,-184.7 313,-184.7 313,-162.7 228,-162.7"/>
<image xlink:href="../../images/primaryKeys.png" width="11px" height="12px" preserveAspectRatio="xMinYMin meet" x="233" y="-179.7"/>
<text text-anchor="start" x="248" y="-169.8" font-family="Helvetica,sans-Serif" font-size="11.00" fill="#000000">id</text>
<polygon fill="#ffffff" stroke="transparent" points="228,-140.7 228,-162.7 313,-162.7 313,-140.7 228,-140.7"/>
<polygon fill="none" stroke="#000000" points="228,-140.7 228,-162.7 313,-162.7 313,-140.7 228,-140.7"/>
<image xlink:href="../../images/foreignKeys.png" width="11px" height="12px" preserveAspectRatio="xMinYMin meet" x="233" y="-157.7"/>
<text text-anchor="start" x="248" y="-147.8" font-family="Helvetica,sans-Serif" font-size="11.00" fill="#000000">events_id</text>
<polygon fill="none" stroke="#000000" points="228,-121.7 228,-140.7 313,-140.7 313,-121.7 228,-121.7"/>
<text text-anchor="start" x="231" y="-127.8" font-family="Helvetica,sans-Serif" font-size="11.00" fill="#000000">...</text>
<polygon fill="#ffffff" stroke="transparent" points="228,-102.7 228,-121.7 251,-121.7 251,-102.7 228,-102.7"/>
<polygon fill="none" stroke="#000000" points="228,-102.7 228,-121.7 251,-121.7 251,-102.7 228,-102.7"/>
<text text-anchor="start" x="231" y="-108.8" font-family="Helvetica,sans-Serif" font-size="11.00" fill="#000000">&lt; 1</text>
<polygon fill="#ffffff" stroke="transparent" points="251,-102.7 251,-121.7 290,-121.7 290,-102.7 251,-102.7"/>
<polygon fill="none" stroke="#000000" points="251,-102.7 251,-121.7 290,-121.7 290,-102.7 251,-102.7"/>
<text text-anchor="start" x="254.6105" y="-108.8" font-family="Helvetica,sans-Serif" font-size="11.00" fill="#000000">0 rows</text>
<polygon fill="#ffffff" stroke="transparent" points="290,-102.7 290,-121.7 313,-121.7 313,-102.7 290,-102.7"/>
<polygon fill="none" stroke="#000000" points="290,-102.7 290,-121.7 313,-121.7 313,-102.7 290,-102.7"/>
<text text-anchor="start" x="294.4053" y="-108.8" font-family="Helvetica,sans-Serif" font-size="11.00" fill="#000000">2 &gt;</text>
</a>
</g>
</g>
<!-- gymnast_has_skills&#45;&gt;skills -->
<g id="edge4" class="edge">
<title>gymnast_has_skills:w&#45;&gt;skills:e</title>
<path fill="none" stroke="#000000" d="M393.9577,-238.6214C357.7127,-227.3125 359.3799,-173.7 313,-173.7"/>
<polygon fill="#000000" stroke="#000000" points="400.5805,-239.568 407.9906,-244.2638 404.5402,-240.134 408.5,-240.7 408.5,-240.7 408.5,-240.7 404.5402,-240.134 409.0094,-237.1362 400.5805,-239.568 400.5805,-239.568"/>
<ellipse fill="none" stroke="#000000" cx="397.4127" cy="-239.1151" rx="3.2" ry="3.2"/>
</g>
<!-- events -->
<g id="node9" class="node">
<title>events</title>
<g id="a_node9"><a xlink:href="../../tables/events.html" xlink:title="events" target="_top">
<polygon fill="#ffffff" stroke="transparent" points="31,-124.2 31,-185.2 111,-185.2 111,-124.2 31,-124.2"/>
<polygon fill="#f5f5f5" stroke="transparent" points="31,-161.7 31,-184.7 111,-184.7 111,-161.7 31,-161.7"/>
<polygon fill="none" stroke="#000000" points="31,-161.7 31,-184.7 111,-184.7 111,-161.7 31,-161.7"/>
<text text-anchor="start" x="36" y="-170.8" font-family="Helvetica,sans-Serif" font-weight="bold" font-size="11.00" fill="#000000">events</text>
<text text-anchor="start" x="76.0437" y="-169.8" font-family="Helvetica,sans-Serif" font-size="11.00" fill="#000000">[table]</text>
<polygon fill="none" stroke="#000000" points="31,-142.7 31,-161.7 111,-161.7 111,-142.7 31,-142.7"/>
<text text-anchor="start" x="34" y="-148.8" font-family="Helvetica,sans-Serif" font-size="11.00" fill="#000000">...</text>
<polygon fill="#ffffff" stroke="transparent" points="31,-123.7 31,-142.7 52,-142.7 52,-123.7 31,-123.7"/>
<polygon fill="none" stroke="#000000" points="31,-123.7 31,-142.7 52,-142.7 52,-123.7 31,-123.7"/>
<text text-anchor="start" x="33.7027" y="-129.8" font-family="Helvetica,sans-Serif" font-size="11.00" fill="#000000">&lt; 1</text>
<polygon fill="#ffffff" stroke="transparent" points="52,-123.7 52,-142.7 90,-142.7 90,-123.7 52,-123.7"/>
<polygon fill="none" stroke="#000000" points="52,-123.7 52,-142.7 90,-142.7 90,-123.7 52,-123.7"/>
<text text-anchor="start" x="54.8053" y="-129.8" font-family="Helvetica,sans-Serif" font-size="11.00" fill="#000000">0 rows</text>
<polygon fill="#ffffff" stroke="transparent" points="90,-123.7 90,-142.7 111,-142.7 111,-123.7 90,-123.7"/>
<polygon fill="none" stroke="#000000" points="90,-123.7 90,-142.7 111,-142.7 111,-123.7 90,-123.7"/>
<text text-anchor="start" x="92.7027" y="-129.8" font-family="Helvetica,sans-Serif" font-size="11.00" fill="#000000">1 &gt;</text>
</a>
</g>
</g>
<!-- skills&#45;&gt;events -->
<g id="edge9" class="edge">
<title>skills:w&#45;&gt;events:e</title>
<path fill="none" stroke="#000000" d="M213.5447,-151.7C173.0232,-151.7 157.8203,-151.7 111,-151.7"/>
<polygon fill="#000000" stroke="#000000" points="220,-151.7001 228,-155.3 224,-151.7 228,-151.7 228,-151.7 228,-151.7 224,-151.7 228,-148.1 220,-151.7001 220,-151.7001"/>
<ellipse fill="none" stroke="#000000" cx="216.8" cy="-151.7001" rx="3.2" ry="3.2"/>
</g>
<!-- gymnasts_classes -->
<g id="node7" class="node">
<title>gymnasts_classes</title>
<g id="a_node7"><a xlink:href="../../tables/gymnasts_classes.html" xlink:title="gymnasts_classes" target="_top">
<polygon fill="#ffffff" stroke="transparent" points="455.5,-320.2 455.5,-381.2 587.5,-381.2 587.5,-320.2 455.5,-320.2"/>
<polygon fill="#f5f5f5" stroke="transparent" points="455.5,-357.7 455.5,-380.7 587.5,-380.7 587.5,-357.7 455.5,-357.7"/>
<polygon fill="none" stroke="#000000" points="455.5,-357.7 455.5,-380.7 587.5,-380.7 587.5,-357.7 455.5,-357.7"/>
<text text-anchor="start" x="460.0755" y="-366.8" font-family="Helvetica,sans-Serif" font-weight="bold" font-size="11.00" fill="#000000">gymnasts_classes</text>
<text text-anchor="start" x="553.0219" y="-365.8" font-family="Helvetica,sans-Serif" font-size="11.00" fill="#000000">[table]</text>
<polygon fill="none" stroke="#000000" points="455.5,-338.7 455.5,-357.7 587.5,-357.7 587.5,-338.7 455.5,-338.7"/>
<text text-anchor="start" x="458.5" y="-344.8" font-family="Helvetica,sans-Serif" font-size="11.00" fill="#000000">...</text>
<polygon fill="#ffffff" stroke="transparent" points="455.5,-319.7 455.5,-338.7 506.5,-338.7 506.5,-319.7 455.5,-319.7"/>
<polygon fill="none" stroke="#000000" points="455.5,-319.7 455.5,-338.7 506.5,-338.7 506.5,-319.7 455.5,-319.7"/>
<text text-anchor="start" x="458.5" y="-325.8" font-family="Helvetica,sans-Serif" font-size="11.00" fill="#000000">&lt; 2</text>
<polygon fill="#ffffff" stroke="transparent" points="506.5,-319.7 506.5,-338.7 559.5,-338.7 559.5,-319.7 506.5,-319.7"/>
<polygon fill="none" stroke="#000000" points="506.5,-319.7 506.5,-338.7 559.5,-338.7 559.5,-319.7 506.5,-319.7"/>
<text text-anchor="start" x="524.1105" y="-325.8" font-family="Helvetica,sans-Serif" font-size="11.00" fill="#000000">0 rows</text>
<polygon fill="#ffffff" stroke="transparent" points="559.5,-319.7 559.5,-338.7 587.5,-338.7 587.5,-319.7 559.5,-319.7"/>
<polygon fill="none" stroke="#000000" points="559.5,-319.7 559.5,-338.7 587.5,-338.7 587.5,-319.7 559.5,-319.7"/>
<text text-anchor="start" x="578.3862" y="-325.8" font-family="Helvetica,sans-Serif" font-size="11.00" fill="#000000"> &#160;</text>
</a>
</g>
</g>
<!-- gymnasts_classes&#45;&gt;gymnasts -->
<g id="edge7" class="edge">
<title>gymnasts_classes:w&#45;&gt;gymnasts:e</title>
<path fill="none" stroke="#000000" d="M440.9423,-349.1592C406.6899,-356.4629 399.0471,-388.7 357,-388.7"/>
<polygon fill="#000000" stroke="#000000" points="447.5399,-348.4979 455.8591,-351.282 451.5199,-348.099 455.5,-347.7 455.5,-347.7 455.5,-347.7 451.5199,-348.099 455.1409,-344.118 447.5399,-348.4979 447.5399,-348.4979"/>
<ellipse fill="none" stroke="#000000" cx="444.3558" cy="-348.8171" rx="3.2" ry="3.2"/>
</g>
<!-- skill_has_levels -->
<g id="node8" class="node">
<title>skill_has_levels</title>
<g id="a_node8"><a xlink:href="../../tables/skill_has_levels.html" xlink:title="skill_has_levels" target="_top">
<polygon fill="#ffffff" stroke="transparent" points="462,-38.2 462,-99.2 581,-99.2 581,-38.2 462,-38.2"/>
<polygon fill="#f5f5f5" stroke="transparent" points="462.5,-75.7 462.5,-98.7 581.5,-98.7 581.5,-75.7 462.5,-75.7"/>
<polygon fill="none" stroke="#000000" points="462.5,-75.7 462.5,-98.7 581.5,-98.7 581.5,-75.7 462.5,-75.7"/>
<text text-anchor="start" x="467.3031" y="-84.8" font-family="Helvetica,sans-Serif" font-weight="bold" font-size="11.00" fill="#000000">skill_has_levels</text>
<text text-anchor="start" x="547.0219" y="-83.8" font-family="Helvetica,sans-Serif" font-size="11.00" fill="#000000">[table]</text>
<polygon fill="none" stroke="#000000" points="462.5,-56.7 462.5,-75.7 581.5,-75.7 581.5,-56.7 462.5,-56.7"/>
<text text-anchor="start" x="465.5" y="-62.8" font-family="Helvetica,sans-Serif" font-size="11.00" fill="#000000">...</text>
<polygon fill="#ffffff" stroke="transparent" points="462.5,-37.7 462.5,-56.7 507.5,-56.7 507.5,-37.7 462.5,-37.7"/>
<polygon fill="none" stroke="#000000" points="462.5,-37.7 462.5,-56.7 507.5,-56.7 507.5,-37.7 462.5,-37.7"/>
<text text-anchor="start" x="465.5" y="-43.8" font-family="Helvetica,sans-Serif" font-size="11.00" fill="#000000">&lt; 2</text>
<polygon fill="#ffffff" stroke="transparent" points="507.5,-37.7 507.5,-56.7 557.5,-56.7 557.5,-37.7 507.5,-37.7"/>
<polygon fill="none" stroke="#000000" points="507.5,-37.7 507.5,-56.7 557.5,-56.7 557.5,-37.7 507.5,-37.7"/>
<text text-anchor="start" x="522.1105" y="-43.8" font-family="Helvetica,sans-Serif" font-size="11.00" fill="#000000">0 rows</text>
<polygon fill="#ffffff" stroke="transparent" points="557.5,-37.7 557.5,-56.7 581.5,-56.7 581.5,-37.7 557.5,-37.7"/>
<polygon fill="none" stroke="#000000" points="557.5,-37.7 557.5,-56.7 581.5,-56.7 581.5,-37.7 557.5,-37.7"/>
<text text-anchor="start" x="572.3862" y="-43.8" font-family="Helvetica,sans-Serif" font-size="11.00" fill="#000000"> &#160;</text>
</a>
</g>
</g>
<!-- skill_has_levels&#45;&gt;skills -->
<g id="edge8" class="edge">
<title>skill_has_levels:w&#45;&gt;skills:e</title>
<path fill="none" stroke="#000000" d="M447.8004,-66.9881C381.9919,-79.1732 389.6855,-173.7 313,-173.7"/>
<polygon fill="#000000" stroke="#000000" points="454.5305,-66.3984 462.8143,-69.2863 458.5153,-66.0492 462.5,-65.7 462.5,-65.7 462.5,-65.7 458.5153,-66.0492 462.1857,-62.1137 454.5305,-66.3984 454.5305,-66.3984"/>
<ellipse fill="none" stroke="#000000" cx="451.3428" cy="-66.6778" rx="3.2" ry="3.2"/>
</g>
</g>
</svg>
