<?xml version="1.0" encoding="UTF-8" standalone="no"?>
<!DOCTYPE svg PUBLIC "-//W3C//DTD SVG 1.1//EN"
 "http://www.w3.org/Graphics/SVG/1.1/DTD/svg11.dtd">
<!-- Generated by graphviz version 2.40.1 (20161225.0304)
 -->
<!-- Title: twoDegreesRelationshipsDiagram Pages: 1 -->
<svg width="614pt" height="387pt"
 viewBox="0.00 0.00 614.00 387.20" xmlns="http://www.w3.org/2000/svg" xmlns:xlink="http://www.w3.org/1999/xlink">
<g id="graph0" class="graph" transform="scale(1 1) rotate(0) translate(4 383.2)">
<title>twoDegreesRelationshipsDiagram</title>
<polygon fill="#ffffff" stroke="transparent" points="-4,4 -4,-383.2 610,-383.2 610,4 -4,4"/>
<text text-anchor="middle" x="72.4936" y="-7.3" font-family="Helvetica,sans-Serif" font-size="11.00" fill="#000000">Generated by SchemaSpy</text>
<!-- completed_daily_challenges -->
<g id="node1" class="node">
<title>completed_daily_challenges</title>
<g id="a_node1"><a xlink:href="../../tables/completed_daily_challenges.html" xlink:title="completed_daily_challenges" target="_top">
<polygon fill="#ffffff" stroke="transparent" points="411.5,-314.2 411.5,-375.2 592.5,-375.2 592.5,-314.2 411.5,-314.2"/>
<polygon fill="#f5f5f5" stroke="transparent" points="412,-351.7 412,-374.7 593,-374.7 593,-351.7 412,-351.7"/>
<polygon fill="none" stroke="#000000" points="412,-351.7 412,-374.7 593,-374.7 593,-351.7 412,-351.7"/>
<text text-anchor="start" x="416.9266" y="-360.8" font-family="Helvetica,sans-Serif" font-weight="bold" font-size="11.00" fill="#000000">completed_daily_challenges</text>
<text text-anchor="start" x="558.5219" y="-359.8" font-family="Helvetica,sans-Serif" font-size="11.00" fill="#000000">[table]</text>
<polygon fill="none" stroke="#000000" points="412,-332.7 412,-351.7 593,-351.7 593,-332.7 412,-332.7"/>
<text text-anchor="start" x="415" y="-338.8" font-family="Helvetica,sans-Serif" font-size="11.00" fill="#000000">...</text>
<polygon fill="#ffffff" stroke="transparent" points="412,-313.7 412,-332.7 488,-332.7 488,-313.7 412,-313.7"/>
<polygon fill="none" stroke="#000000" points="412,-313.7 412,-332.7 488,-332.7 488,-313.7 412,-313.7"/>
<text text-anchor="start" x="415" y="-319.8" font-family="Helvetica,sans-Serif" font-size="11.00" fill="#000000">&lt; 4</text>
<polygon fill="#ffffff" stroke="transparent" points="488,-313.7 488,-332.7 553,-332.7 553,-313.7 488,-313.7"/>
<polygon fill="none" stroke="#000000" points="488,-313.7 488,-332.7 553,-332.7 553,-313.7 488,-313.7"/>
<text text-anchor="start" x="517.6105" y="-319.8" font-family="Helvetica,sans-Serif" font-size="11.00" fill="#000000">0 rows</text>
<polygon fill="#ffffff" stroke="transparent" points="553,-313.7 553,-332.7 593,-332.7 593,-313.7 553,-313.7"/>
<polygon fill="none" stroke="#000000" points="553,-313.7 553,-332.7 593,-332.7 593,-313.7 553,-313.7"/>
<text text-anchor="start" x="583.8862" y="-319.8" font-family="Helvetica,sans-Serif" font-size="11.00" fill="#000000"> &#160;</text>
</a>
</g>
</g>
<!-- daily_challenges -->
<g id="node2" class="node">
<title>daily_challenges</title>
<g id="a_node2"><a xlink:href="../../tables/daily_challenges.html" xlink:title="daily_challenges" target="_top">
<polygon fill="#ffffff" stroke="transparent" points="208,-314.2 208,-375.2 332,-375.2 332,-314.2 208,-314.2"/>
<polygon fill="#f5f5f5" stroke="transparent" points="208,-351.7 208,-374.7 332,-374.7 332,-351.7 208,-351.7"/>
<polygon fill="none" stroke="#000000" points="208,-351.7 208,-374.7 332,-374.7 332,-351.7 208,-351.7"/>
<text text-anchor="start" x="212.8512" y="-360.8" font-family="Helvetica,sans-Serif" font-weight="bold" font-size="11.00" fill="#000000">daily_challenges</text>
<text text-anchor="start" x="297.5219" y="-359.8" font-family="Helvetica,sans-Serif" font-size="11.00" fill="#000000">[table]</text>
<polygon fill="none" stroke="#000000" points="208,-332.7 208,-351.7 332,-351.7 332,-332.7 208,-332.7"/>
<text text-anchor="start" x="211" y="-338.8" font-family="Helvetica,sans-Serif" font-size="11.00" fill="#000000">...</text>
<polygon fill="#ffffff" stroke="transparent" points="208,-313.7 208,-332.7 251,-332.7 251,-313.7 208,-313.7"/>
<polygon fill="none" stroke="#000000" points="208,-313.7 208,-332.7 251,-332.7 251,-313.7 208,-313.7"/>
<text text-anchor="start" x="211" y="-319.8" font-family="Helvetica,sans-Serif" font-size="11.00" fill="#000000">&lt; 2</text>
<polygon fill="#ffffff" stroke="transparent" points="251,-313.7 251,-332.7 300,-332.7 300,-313.7 251,-313.7"/>
<polygon fill="none" stroke="#000000" points="251,-313.7 251,-332.7 300,-332.7 300,-313.7 251,-313.7"/>
<text text-anchor="start" x="264.6105" y="-319.8" font-family="Helvetica,sans-Serif" font-size="11.00" fill="#000000">0 rows</text>
<polygon fill="#ffffff" stroke="transparent" points="300,-313.7 300,-332.7 332,-332.7 332,-313.7 300,-313.7"/>
<polygon fill="none" stroke="#000000" points="300,-313.7 300,-332.7 332,-332.7 332,-313.7 300,-313.7"/>
<text text-anchor="start" x="313.4053" y="-319.8" font-family="Helvetica,sans-Serif" font-size="11.00" fill="#000000">3 &gt;</text>
</a>
</g>
</g>
<!-- completed_daily_challenges&#45;&gt;daily_challenges -->
<g id="edge1" class="edge">
<title>completed_daily_challenges:w&#45;&gt;daily_challenges:e</title>
<path fill="none" stroke="#000000" d="M398.0935,-336.878C373.318,-328.9716 362.4167,-330.5789 332,-341.7"/>
<polygon fill="#000000" stroke="#000000" points="404.4415,-339.0791 410.8206,-345.1013 408.2207,-340.3895 412,-341.7 412,-341.7 412,-341.7 408.2207,-340.3895 413.1794,-338.2987 404.4415,-339.0791 404.4415,-339.0791"/>
<ellipse fill="none" stroke="#000000" cx="401.4181" cy="-338.0307" rx="3.2" ry="3.2"/>
</g>
<!-- completed_daily_challenges&#45;&gt;daily_challenges -->
<g id="edge2" class="edge">
<title>completed_daily_challenges:w&#45;&gt;daily_challenges:e</title>
<path fill="none" stroke="#000000" d="M397.4181,-341.7C373.1172,-341.7 362.1389,-341.7 332,-341.7"/>
<polygon fill="#000000" stroke="#000000" points="404,-341.7001 412,-345.3 408,-341.7 412,-341.7 412,-341.7 412,-341.7 408,-341.7 412,-338.1 404,-341.7001 404,-341.7001"/>
<ellipse fill="none" stroke="#000000" cx="400.8" cy="-341.7001" rx="3.2" ry="3.2"/>
</g>
<!-- completed_daily_challenges&#45;&gt;daily_challenges -->
<g id="edge3" class="edge">
<title>completed_daily_challenges:w&#45;&gt;daily_challenges:e</title>
<path fill="none" stroke="#000000" d="M398.0935,-346.522C373.318,-354.4284 362.4167,-352.8211 332,-341.7"/>
<polygon fill="#000000" stroke="#000000" points="404.4415,-344.3209 413.1794,-345.1013 408.2207,-343.0105 412,-341.7 412,-341.7 412,-341.7 408.2207,-343.0105 410.8206,-338.2987 404.4415,-344.3209 404.4415,-344.3209"/>
<ellipse fill="none" stroke="#000000" cx="401.4181" cy="-345.3693" rx="3.2" ry="3.2"/>
</g>
<!-- gymnasts -->
<g id="node3" class="node">
<title>gymnasts</title>
<g id="a_node3"><a xlink:href="../../tables/gymnasts.html" xlink:title="gymnasts" target="_top">
<polygon fill="#ffffff" stroke="transparent" points="183,-166.2 183,-293.2 357,-293.2 357,-166.2 183,-166.2"/>
<polygon fill="#f5f5f5" stroke="transparent" points="183,-269.7 183,-292.7 357,-292.7 357,-269.7 183,-269.7"/>
<polygon fill="none" stroke="#000000" points="183,-269.7 183,-292.7 357,-292.7 357,-269.7 183,-269.7"/>
<text text-anchor="start" x="188" y="-278.8" font-family="Helvetica,sans-Serif" font-weight="bold" font-size="11.00" fill="#000000">gymnasts</text>
<text text-anchor="start" x="322.0437" y="-277.8" font-family="Helvetica,sans-Serif" font-size="11.00" fill="#000000">[table]</text>
<polygon fill="none" stroke="#000000" points="183,-247.7 183,-269.7 357,-269.7 357,-247.7 183,-247.7"/>
<image xlink:href="../../images/primaryKeys.png" width="11px" height="12px" preserveAspectRatio="xMinYMin meet" x="188" y="-264.7"/>
<text text-anchor="start" x="203" y="-254.8" font-family="Helvetica,sans-Serif" font-size="11.00" fill="#000000">id</text>
<polygon fill="#ffffff" stroke="transparent" points="183,-225.7 183,-247.7 357,-247.7 357,-225.7 183,-225.7"/>
<polygon fill="none" stroke="#000000" points="183,-225.7 183,-247.7 357,-247.7 357,-225.7 183,-225.7"/>
<image xlink:href="../../images/foreignKeys.png" width="11px" height="12px" preserveAspectRatio="xMinYMin meet" x="188" y="-242.7"/>
<text text-anchor="start" x="203" y="-232.8" font-family="Helvetica,sans-Serif" font-size="11.00" fill="#000000">gyms_has_users_gyms_id</text>
<polygon fill="#ffffff" stroke="transparent" points="183,-203.7 183,-225.7 357,-225.7 357,-203.7 183,-203.7"/>
<polygon fill="none" stroke="#000000" points="183,-203.7 183,-225.7 357,-225.7 357,-203.7 183,-203.7"/>
<image xlink:href="../../images/foreignKeys.png" width="11px" height="12px" preserveAspectRatio="xMinYMin meet" x="188" y="-220.7"/>
<text text-anchor="start" x="203" y="-210.8" font-family="Helvetica,sans-Serif" font-size="11.00" fill="#000000">gyms_has_users_users_id</text>
<polygon fill="none" stroke="#000000" points="183,-184.7 183,-203.7 357,-203.7 357,-184.7 183,-184.7"/>
<text text-anchor="start" x="186" y="-190.8" font-family="Helvetica,sans-Serif" font-size="11.00" fill="#000000">...</text>
<polygon fill="#ffffff" stroke="transparent" points="183,-165.7 183,-184.7 251,-184.7 251,-165.7 183,-165.7"/>
<polygon fill="none" stroke="#000000" points="183,-165.7 183,-184.7 251,-184.7 251,-165.7 183,-165.7"/>
<text text-anchor="start" x="186" y="-171.8" font-family="Helvetica,sans-Serif" font-size="11.00" fill="#000000">&lt; 2</text>
<polygon fill="#ffffff" stroke="transparent" points="251,-165.7 251,-184.7 312,-184.7 312,-165.7 251,-165.7"/>
<polygon fill="none" stroke="#000000" points="251,-165.7 251,-184.7 312,-184.7 312,-165.7 251,-165.7"/>
<text text-anchor="start" x="276.6105" y="-171.8" font-family="Helvetica,sans-Serif" font-size="11.00" fill="#000000">0 rows</text>
<polygon fill="#ffffff" stroke="transparent" points="312,-165.7 312,-184.7 357,-184.7 357,-165.7 312,-165.7"/>
<polygon fill="none" stroke="#000000" points="312,-165.7 312,-184.7 357,-184.7 357,-165.7 312,-165.7"/>
<text text-anchor="start" x="338.4053" y="-171.8" font-family="Helvetica,sans-Serif" font-size="11.00" fill="#000000">4 &gt;</text>
</a>
</g>
</g>
<!-- completed_daily_challenges&#45;&gt;gymnasts -->
<g id="edge4" class="edge">
<title>completed_daily_challenges:w&#45;&gt;gymnasts:e</title>
<path fill="none" stroke="#000000" d="M398.1184,-337.6967C375.2755,-321.1172 395.3756,-258.7 357,-258.7"/>
<polygon fill="#000000" stroke="#000000" points="404.3133,-339.4832 411.0024,-345.159 408.1566,-340.5916 412,-341.7 412,-341.7 412,-341.7 408.1566,-340.5916 412.9976,-338.241 404.3133,-339.4832 404.3133,-339.4832"/>
<ellipse fill="none" stroke="#000000" cx="401.2386" cy="-338.5965" rx="3.2" ry="3.2"/>
</g>
<!-- classes -->
<g id="node6" class="node">
<title>classes</title>
<g id="a_node6"><a xlink:href="../../tables/classes.html" xlink:title="classes" target="_top">
<polygon fill="#ffffff" stroke="transparent" points="28.5,-93.2 28.5,-176.2 113.5,-176.2 113.5,-93.2 28.5,-93.2"/>
<polygon fill="#f5f5f5" stroke="transparent" points="29,-152.7 29,-175.7 114,-175.7 114,-152.7 29,-152.7"/>
<polygon fill="none" stroke="#000000" points="29,-152.7 29,-175.7 114,-175.7 114,-152.7 29,-152.7"/>
<text text-anchor="start" x="34" y="-161.8" font-family="Helvetica,sans-Serif" font-weight="bold" font-size="11.00" fill="#000000">classes</text>
<text text-anchor="start" x="79.0437" y="-160.8" font-family="Helvetica,sans-Serif" font-size="11.00" fill="#000000">[table]</text>
<polygon fill="none" stroke="#000000" points="29,-130.7 29,-152.7 114,-152.7 114,-130.7 29,-130.7"/>
<image xlink:href="../../images/primaryKeys.png" width="11px" height="12px" preserveAspectRatio="xMinYMin meet" x="34" y="-147.7"/>
<text text-anchor="start" x="49" y="-137.8" font-family="Helvetica,sans-Serif" font-size="11.00" fill="#000000">id</text>
<polygon fill="none" stroke="#000000" points="29,-111.7 29,-130.7 114,-130.7 114,-111.7 29,-111.7"/>
<text text-anchor="start" x="32" y="-117.8" font-family="Helvetica,sans-Serif" font-size="11.00" fill="#000000">...</text>
<polygon fill="#ffffff" stroke="transparent" points="29,-92.7 29,-111.7 48,-111.7 48,-92.7 29,-92.7"/>
<polygon fill="none" stroke="#000000" points="29,-92.7 29,-111.7 48,-111.7 48,-92.7 29,-92.7"/>
<text text-anchor="start" x="32" y="-98.8" font-family="Helvetica,sans-Serif" font-size="11.00" fill="#000000"> &#160;</text>
<polygon fill="#ffffff" stroke="transparent" points="48,-92.7 48,-111.7 89,-111.7 89,-92.7 48,-92.7"/>
<polygon fill="none" stroke="#000000" points="48,-92.7 48,-111.7 89,-111.7 89,-92.7 48,-92.7"/>
<text text-anchor="start" x="53.6105" y="-98.8" font-family="Helvetica,sans-Serif" font-size="11.00" fill="#000000">0 rows</text>
<polygon fill="#ffffff" stroke="transparent" points="89,-92.7 89,-111.7 114,-111.7 114,-92.7 89,-92.7"/>
<polygon fill="none" stroke="#000000" points="89,-92.7 89,-111.7 114,-111.7 114,-92.7 89,-92.7"/>
<text text-anchor="start" x="95.4053" y="-98.8" font-family="Helvetica,sans-Serif" font-size="11.00" fill="#000000">3 &gt;</text>
</a>
</g>
</g>
<!-- daily_challenges&#45;&gt;classes -->
<g id="edge8" class="edge">
<title>daily_challenges:w&#45;&gt;classes:e</title>
<path fill="none" stroke="#000000" d="M193.6209,-339.971C120.3865,-320.4231 206.8459,-141.7 114,-141.7"/>
<polygon fill="#000000" stroke="#000000" points="200.0572,-340.7449 207.5702,-345.2743 204.0286,-341.2224 208,-341.7 208,-341.7 208,-341.7 204.0286,-341.2224 208.4298,-338.1257 200.0572,-340.7449 200.0572,-340.7449"/>
<ellipse fill="none" stroke="#000000" cx="196.8801" cy="-340.3628" rx="3.2" ry="3.2"/>
</g>
<!-- gyms_has_users -->
<g id="node8" class="node">
<title>gyms_has_users</title>
<g id="a_node8"><a xlink:href="../../tables/gyms_has_users.html" xlink:title="gyms_has_users" target="_top">
<polygon fill="#ffffff" stroke="transparent" points="8,-203.2 8,-264.2 134,-264.2 134,-203.2 8,-203.2"/>
<polygon fill="#f5f5f5" stroke="transparent" points="8,-240.7 8,-263.7 134,-263.7 134,-240.7 8,-240.7"/>
<polygon fill="none" stroke="#000000" points="8,-240.7 8,-263.7 134,-263.7 134,-240.7 8,-240.7"/>
<text text-anchor="start" x="12.9359" y="-249.8" font-family="Helvetica,sans-Serif" font-weight="bold" font-size="11.00" fill="#000000">gyms_has_users</text>
<text text-anchor="start" x="99.5219" y="-248.8" font-family="Helvetica,sans-Serif" font-size="11.00" fill="#000000">[table]</text>
<polygon fill="none" stroke="#000000" points="8,-221.7 8,-240.7 134,-240.7 134,-221.7 8,-221.7"/>
<text text-anchor="start" x="11" y="-227.8" font-family="Helvetica,sans-Serif" font-size="11.00" fill="#000000">...</text>
<polygon fill="#ffffff" stroke="transparent" points="8,-202.7 8,-221.7 52,-221.7 52,-202.7 8,-202.7"/>
<polygon fill="none" stroke="#000000" points="8,-202.7 8,-221.7 52,-221.7 52,-202.7 8,-202.7"/>
<text text-anchor="start" x="11" y="-208.8" font-family="Helvetica,sans-Serif" font-size="11.00" fill="#000000">&lt; 2</text>
<polygon fill="#ffffff" stroke="transparent" points="52,-202.7 52,-221.7 101,-221.7 101,-202.7 52,-202.7"/>
<polygon fill="none" stroke="#000000" points="52,-202.7 52,-221.7 101,-221.7 101,-202.7 52,-202.7"/>
<text text-anchor="start" x="65.6105" y="-208.8" font-family="Helvetica,sans-Serif" font-size="11.00" fill="#000000">0 rows</text>
<polygon fill="#ffffff" stroke="transparent" points="101,-202.7 101,-221.7 134,-221.7 134,-202.7 101,-202.7"/>
<polygon fill="none" stroke="#000000" points="101,-202.7 101,-221.7 134,-221.7 134,-202.7 101,-202.7"/>
<text text-anchor="start" x="115.4053" y="-208.8" font-family="Helvetica,sans-Serif" font-size="11.00" fill="#000000">2 &gt;</text>
</a>
</g>
</g>
<!-- gymnasts&#45;&gt;gyms_has_users -->
<g id="edge10" class="edge">
<title>gymnasts:w&#45;&gt;gyms_has_users:e</title>
<path fill="none" stroke="#000000" d="M168.4463,-235.6549C157.1532,-233.9358 150.1125,-230.7 134,-230.7"/>
<polygon fill="#000000" stroke="#000000" points="175.0205,-236.1269 182.7421,-240.2908 179.0103,-236.4135 183,-236.7 183,-236.7 183,-236.7 179.0103,-236.4135 183.2579,-233.1092 175.0205,-236.1269 175.0205,-236.1269"/>
<ellipse fill="none" stroke="#000000" cx="171.8288" cy="-235.8977" rx="3.2" ry="3.2"/>
</g>
<!-- gymnasts&#45;&gt;gyms_has_users -->
<g id="edge11" class="edge">
<title>gymnasts:w&#45;&gt;gyms_has_users:e</title>
<path fill="none" stroke="#000000" d="M168.5387,-217.3421C157.139,-221.8865 151.0031,-230.7 134,-230.7"/>
<polygon fill="#000000" stroke="#000000" points="175.1303,-216.1378 183.647,-218.2414 179.0651,-215.4189 183,-214.7 183,-214.7 183,-214.7 179.0651,-215.4189 182.353,-211.1586 175.1303,-216.1378 175.1303,-216.1378"/>
<ellipse fill="none" stroke="#000000" cx="171.9824" cy="-216.713" rx="3.2" ry="3.2"/>
</g>
<!-- completed_normal_challenges -->
<g id="node4" class="node">
<title>completed_normal_challenges</title>
<g id="a_node4"><a xlink:href="../../tables/completed_normal_challenges.html" xlink:title="completed_normal_challenges" target="_top">
<polygon fill="#ffffff" stroke="transparent" points="406,-38.2 406,-99.2 598,-99.2 598,-38.2 406,-38.2"/>
<polygon fill="#f5f5f5" stroke="transparent" points="406,-75.7 406,-98.7 598,-98.7 598,-75.7 406,-75.7"/>
<polygon fill="none" stroke="#000000" points="406,-75.7 406,-98.7 598,-98.7 598,-75.7 406,-75.7"/>
<text text-anchor="start" x="410.9277" y="-84.8" font-family="Helvetica,sans-Serif" font-weight="bold" font-size="11.00" fill="#000000">completed_normal_challenges</text>
<text text-anchor="start" x="563.5219" y="-83.8" font-family="Helvetica,sans-Serif" font-size="11.00" fill="#000000">[table]</text>
<polygon fill="none" stroke="#000000" points="406,-56.7 406,-75.7 598,-75.7 598,-56.7 406,-56.7"/>
<text text-anchor="start" x="409" y="-62.8" font-family="Helvetica,sans-Serif" font-size="11.00" fill="#000000">...</text>
<polygon fill="#ffffff" stroke="transparent" points="406,-37.7 406,-56.7 487,-56.7 487,-37.7 406,-37.7"/>
<polygon fill="none" stroke="#000000" points="406,-37.7 406,-56.7 487,-56.7 487,-37.7 406,-37.7"/>
<text text-anchor="start" x="409" y="-43.8" font-family="Helvetica,sans-Serif" font-size="11.00" fill="#000000">&lt; 3</text>
<polygon fill="#ffffff" stroke="transparent" points="487,-37.7 487,-56.7 555,-56.7 555,-37.7 487,-37.7"/>
<polygon fill="none" stroke="#000000" points="487,-37.7 487,-56.7 555,-56.7 555,-37.7 487,-37.7"/>
<text text-anchor="start" x="519.6105" y="-43.8" font-family="Helvetica,sans-Serif" font-size="11.00" fill="#000000">0 rows</text>
<polygon fill="#ffffff" stroke="transparent" points="555,-37.7 555,-56.7 598,-56.7 598,-37.7 555,-37.7"/>
<polygon fill="none" stroke="#000000" points="555,-37.7 555,-56.7 598,-56.7 598,-37.7 555,-37.7"/>
<text text-anchor="start" x="588.8862" y="-43.8" font-family="Helvetica,sans-Serif" font-size="11.00" fill="#000000"> &#160;</text>
</a>
</g>
</g>
<!-- completed_normal_challenges&#45;&gt;gymnasts -->
<g id="edge5" class="edge">
<title>completed_normal_challenges:w&#45;&gt;gymnasts:e</title>
<path fill="none" stroke="#000000" d="M391.47,-68.0019C333.1013,-89.7771 439.7951,-258.7 357,-258.7"/>
<polygon fill="#000000" stroke="#000000" points="398.0985,-66.9518 406.5633,-69.2557 402.0493,-66.3259 406,-65.7 406,-65.7 406,-65.7 402.0493,-66.3259 405.4367,-62.1443 398.0985,-66.9518 398.0985,-66.9518"/>
<ellipse fill="none" stroke="#000000" cx="394.938" cy="-67.4526" rx="3.2" ry="3.2"/>
</g>
<!-- normal_challenges -->
<g id="node5" class="node">
<title>normal_challenges</title>
<g id="a_node5"><a xlink:href="../../tables/normal_challenges.html" xlink:title="normal_challenges" target="_top">
<polygon fill="#ffffff" stroke="transparent" points="202.5,-38.2 202.5,-99.2 337.5,-99.2 337.5,-38.2 202.5,-38.2"/>
<polygon fill="#f5f5f5" stroke="transparent" points="203,-75.7 203,-98.7 338,-98.7 338,-75.7 203,-75.7"/>
<polygon fill="none" stroke="#000000" points="203,-75.7 203,-98.7 338,-98.7 338,-75.7 203,-75.7"/>
<text text-anchor="start" x="207.8523" y="-84.8" font-family="Helvetica,sans-Serif" font-weight="bold" font-size="11.00" fill="#000000">normal_challenges</text>
<text text-anchor="start" x="303.5219" y="-83.8" font-family="Helvetica,sans-Serif" font-size="11.00" fill="#000000">[table]</text>
<polygon fill="none" stroke="#000000" points="203,-56.7 203,-75.7 338,-75.7 338,-56.7 203,-56.7"/>
<text text-anchor="start" x="206" y="-62.8" font-family="Helvetica,sans-Serif" font-size="11.00" fill="#000000">...</text>
<polygon fill="#ffffff" stroke="transparent" points="203,-37.7 203,-56.7 251,-56.7 251,-37.7 203,-37.7"/>
<polygon fill="none" stroke="#000000" points="203,-37.7 203,-56.7 251,-56.7 251,-37.7 203,-37.7"/>
<text text-anchor="start" x="206" y="-43.8" font-family="Helvetica,sans-Serif" font-size="11.00" fill="#000000">&lt; 2</text>
<polygon fill="#ffffff" stroke="transparent" points="251,-37.7 251,-56.7 303,-56.7 303,-37.7 251,-37.7"/>
<polygon fill="none" stroke="#000000" points="251,-37.7 251,-56.7 303,-56.7 303,-37.7 251,-37.7"/>
<text text-anchor="start" x="267.6105" y="-43.8" font-family="Helvetica,sans-Serif" font-size="11.00" fill="#000000">0 rows</text>
<polygon fill="#ffffff" stroke="transparent" points="303,-37.7 303,-56.7 338,-56.7 338,-37.7 303,-37.7"/>
<polygon fill="none" stroke="#000000" points="303,-37.7 303,-56.7 338,-56.7 338,-37.7 303,-37.7"/>
<text text-anchor="start" x="319.4053" y="-43.8" font-family="Helvetica,sans-Serif" font-size="11.00" fill="#000000">2 &gt;</text>
</a>
</g>
</g>
<!-- completed_normal_challenges&#45;&gt;normal_challenges -->
<g id="edge6" class="edge">
<title>completed_normal_challenges:w&#45;&gt;normal_challenges:e</title>
<path fill="none" stroke="#000000" d="M391.6409,-63.0468C372.3306,-59.8937 362.7917,-60.7781 338,-65.7"/>
<polygon fill="#000000" stroke="#000000" points="398.1332,-64.2464 405.3459,-69.2401 402.0666,-64.9732 406,-65.7 406,-65.7 406,-65.7 402.0666,-64.9732 406.6541,-62.1599 398.1332,-64.2464 398.1332,-64.2464"/>
<ellipse fill="none" stroke="#000000" cx="394.9864" cy="-63.6649" rx="3.2" ry="3.2"/>
</g>
<!-- completed_normal_challenges&#45;&gt;normal_challenges -->
<g id="edge7" class="edge">
<title>completed_normal_challenges:w&#45;&gt;normal_challenges:e</title>
<path fill="none" stroke="#000000" d="M391.9174,-68.7425C372.4211,-72.4837 362.9097,-71.4695 338,-65.7"/>
<polygon fill="#000000" stroke="#000000" points="398.1804,-67.3895 406.7603,-69.2188 402.0902,-66.5447 406,-65.7 406,-65.7 406,-65.7 402.0902,-66.5447 405.2397,-62.1812 398.1804,-67.3895 398.1804,-67.3895"/>
<ellipse fill="none" stroke="#000000" cx="395.0526" cy="-68.0652" rx="3.2" ry="3.2"/>
</g>
<!-- normal_challenges&#45;&gt;classes -->
<g id="edge14" class="edge">
<title>normal_challenges:w&#45;&gt;classes:e</title>
<path fill="none" stroke="#000000" d="M188.6221,-68.0579C153.4095,-80.8859 160.5292,-141.7 114,-141.7"/>
<polygon fill="#000000" stroke="#000000" points="195.1055,-66.9947 203.5826,-69.2525 199.0527,-66.3473 203,-65.7 203,-65.7 203,-65.7 199.0527,-66.3473 202.4174,-62.1475 195.1055,-66.9947 195.1055,-66.9947"/>
<ellipse fill="none" stroke="#000000" cx="191.9476" cy="-67.5126" rx="3.2" ry="3.2"/>
</g>
<!-- gymnast_has_skills -->
<g id="node7" class="node">
<title>gymnast_has_skills</title>
<g id="a_node7"><a xlink:href="../../tables/gymnast_has_skills.html" xlink:title="gymnast_has_skills" target="_top">
<polygon fill="#ffffff" stroke="transparent" points="433,-232.2 433,-293.2 571,-293.2 571,-232.2 433,-232.2"/>
<polygon fill="#f5f5f5" stroke="transparent" points="433,-269.7 433,-292.7 571,-292.7 571,-269.7 433,-269.7"/>
<polygon fill="none" stroke="#000000" points="433,-269.7 433,-292.7 571,-292.7 571,-269.7 433,-269.7"/>
<text text-anchor="start" x="437.8271" y="-278.8" font-family="Helvetica,sans-Serif" font-weight="bold" font-size="11.00" fill="#000000">gymnast_has_skills</text>
<text text-anchor="start" x="536.5219" y="-277.8" font-family="Helvetica,sans-Serif" font-size="11.00" fill="#000000">[table]</text>
<polygon fill="none" stroke="#000000" points="433,-250.7 433,-269.7 571,-269.7 571,-250.7 433,-250.7"/>
<text text-anchor="start" x="436" y="-256.8" font-family="Helvetica,sans-Serif" font-size="11.00" fill="#000000">...</text>
<polygon fill="#ffffff" stroke="transparent" points="433,-231.7 433,-250.7 487,-250.7 487,-231.7 433,-231.7"/>
<polygon fill="none" stroke="#000000" points="433,-231.7 433,-250.7 487,-250.7 487,-231.7 433,-231.7"/>
<text text-anchor="start" x="436" y="-237.8" font-family="Helvetica,sans-Serif" font-size="11.00" fill="#000000">&lt; 2</text>
<polygon fill="#ffffff" stroke="transparent" points="487,-231.7 487,-250.7 542,-250.7 542,-231.7 487,-231.7"/>
<polygon fill="none" stroke="#000000" points="487,-231.7 487,-250.7 542,-250.7 542,-231.7 487,-231.7"/>
<text text-anchor="start" x="506.6105" y="-237.8" font-family="Helvetica,sans-Serif" font-size="11.00" fill="#000000">0 rows</text>
<polygon fill="#ffffff" stroke="transparent" points="542,-231.7 542,-250.7 571,-250.7 571,-231.7 542,-231.7"/>
<polygon fill="none" stroke="#000000" points="542,-231.7 542,-250.7 571,-250.7 571,-231.7 542,-231.7"/>
<text text-anchor="start" x="561.8862" y="-237.8" font-family="Helvetica,sans-Serif" font-size="11.00" fill="#000000"> &#160;</text>
</a>
</g>
</g>
<!-- gymnast_has_skills&#45;&gt;gymnasts -->
<g id="edge9" class="edge">
<title>gymnast_has_skills:w&#45;&gt;gymnasts:e</title>
<path fill="none" stroke="#000000" d="M418.5113,-259.6313C395.8663,-259.4053 385.3705,-258.7 357,-258.7"/>
<polygon fill="#000000" stroke="#000000" points="425.0001,-259.662 432.9829,-263.3 429,-259.681 433,-259.7 433,-259.7 433,-259.7 429,-259.681 433.0171,-256.1 425.0001,-259.662 425.0001,-259.662"/>
<ellipse fill="none" stroke="#000000" cx="421.8001" cy="-259.6468" rx="3.2" ry="3.2"/>
</g>
<!-- gymnasts_classes -->
<g id="node9" class="node">
<title>gymnasts_classes</title>
<g id="a_node9"><a xlink:href="../../tables/gymnasts_classes.html" xlink:title="gymnasts_classes" target="_top">
<polygon fill="#ffffff" stroke="transparent" points="419,-120.7 419,-210.7 585,-210.7 585,-120.7 419,-120.7"/>
<polygon fill="#f5f5f5" stroke="transparent" points="421,-185.7 421,-208.7 583,-208.7 583,-185.7 421,-185.7"/>
<polygon fill="none" stroke="#000000" points="421,-185.7 421,-208.7 583,-208.7 583,-185.7 421,-185.7"/>
<text text-anchor="start" x="426" y="-194.8" font-family="Helvetica,sans-Serif" font-weight="bold" font-size="11.00" fill="#000000">gymnasts_classes</text>
<text text-anchor="start" x="548.0437" y="-193.8" font-family="Helvetica,sans-Serif" font-size="11.00" fill="#000000">[table]</text>
<polygon fill="none" stroke="#000000" points="421,-163.7 421,-185.7 548,-185.7 548,-163.7 421,-163.7"/>
<image xlink:href="../../images/primaryKeys.png" width="11px" height="12px" preserveAspectRatio="xMinYMin meet" x="426" y="-180.7"/>
<text text-anchor="start" x="441" y="-170.8" font-family="Helvetica,sans-Serif" font-size="11.00" fill="#000000">gymnasts_id</text>
<polygon fill="none" stroke="#000000" points="548,-163.7 548,-185.7 583,-185.7 583,-163.7 548,-163.7"/>
<text text-anchor="start" x="550.5219" y="-171.4" font-family="Helvetica,sans-Serif" font-size="11.00" fill="#000000">int[10]</text>
<polygon fill="none" stroke="#000000" points="421,-141.7 421,-163.7 548,-163.7 548,-141.7 421,-141.7"/>
<image xlink:href="../../images/primaryKeys.png" width="11px" height="12px" preserveAspectRatio="xMinYMin meet" x="426" y="-158.7"/>
<text text-anchor="start" x="441" y="-148.8" font-family="Helvetica,sans-Serif" font-size="11.00" fill="#000000">classes_id</text>
<polygon fill="none" stroke="#000000" points="548,-141.7 548,-163.7 583,-163.7 583,-141.7 548,-141.7"/>
<text text-anchor="start" x="550.5219" y="-149.4" font-family="Helvetica,sans-Serif" font-size="11.00" fill="#000000">int[10]</text>
<polygon fill="#ffffff" stroke="transparent" points="421,-122.7 421,-141.7 476,-141.7 476,-122.7 421,-122.7"/>
<polygon fill="none" stroke="#000000" points="421,-122.7 421,-141.7 476,-141.7 476,-122.7 421,-122.7"/>
<text text-anchor="start" x="424" y="-128.8" font-family="Helvetica,sans-Serif" font-size="11.00" fill="#000000">&lt; 2</text>
<polygon fill="#ffffff" stroke="transparent" points="476,-122.7 476,-141.7 548,-141.7 548,-122.7 476,-122.7"/>
<polygon fill="none" stroke="#000000" points="476,-122.7 476,-141.7 548,-141.7 548,-122.7 476,-122.7"/>
<text text-anchor="start" x="512.6105" y="-128.8" font-family="Helvetica,sans-Serif" font-size="11.00" fill="#000000">0 rows</text>
<polygon fill="#ffffff" stroke="transparent" points="548,-122.7 548,-141.7 583,-141.7 583,-122.7 548,-122.7"/>
<polygon fill="none" stroke="#000000" points="548,-122.7 548,-141.7 583,-141.7 583,-122.7 548,-122.7"/>
<text text-anchor="start" x="564.4053" y="-128.8" font-family="Helvetica,sans-Serif" font-size="11.00" fill="#000000">0 &gt;</text>
<polygon fill="none" stroke="#000000" stroke-width="2" points="420,-121.7 420,-209.7 584,-209.7 584,-121.7 420,-121.7"/>
</a>
</g>
</g>
<!-- gymnasts_classes&#45;&gt;gymnasts -->
<g id="edge13" class="edge">
<title>gymnasts_classes:w&#45;&gt;gymnasts:e</title>
<path fill="none" stroke="#000000" d="M406.6997,-178.3094C380.3326,-194.3875 398.0678,-258.7 357,-258.7"/>
<polygon fill="#000000" stroke="#000000" points="413.2433,-176.6578 421.881,-178.1905 417.1216,-175.6789 421,-174.7 421,-174.7 421,-174.7 417.1216,-175.6789 420.119,-171.2095 413.2433,-176.6578 413.2433,-176.6578"/>
<ellipse fill="none" stroke="#000000" cx="410.1406" cy="-177.441" rx="3.2" ry="3.2"/>
</g>
<!-- gymnasts_classes&#45;&gt;classes -->
<g id="edge12" class="edge">
<title>gymnasts_classes:w&#45;&gt;classes:e</title>
<path fill="none" stroke="#000000" d="M406.5923,-152.658C281.8816,-151.9194 245.5987,-141.7 114,-141.7"/>
<polygon fill="#000000" stroke="#000000" points="413,-152.6766 420.9895,-156.3 417,-152.6883 421,-152.7 421,-152.7 421,-152.7 417,-152.6883 421.0105,-149.1 413,-152.6766 413,-152.6766"/>
<ellipse fill="none" stroke="#000000" cx="409.8" cy="-152.6672" rx="3.2" ry="3.2"/>
</g>
</g>
</svg>
