<?xml version="1.0" encoding="UTF-8" standalone="no"?>
<!DOCTYPE svg PUBLIC "-//W3C//DTD SVG 1.1//EN"
 "http://www.w3.org/Graphics/SVG/1.1/DTD/svg11.dtd">
<!-- Generated by graphviz version 2.40.1 (20161225.0304)
 -->
<!-- Title: oneDegreeRelationshipsDiagram Pages: 1 -->
<svg width="455pt" height="303pt"
 viewBox="0.00 0.00 455.00 303.20" xmlns="http://www.w3.org/2000/svg" xmlns:xlink="http://www.w3.org/1999/xlink">
<g id="graph0" class="graph" transform="scale(1 1) rotate(0) translate(4 299.2)">
<title>oneDegreeRelationshipsDiagram</title>
<polygon fill="#ffffff" stroke="transparent" points="-4,4 -4,-299.2 451,-299.2 451,4 -4,4"/>
<text text-anchor="middle" x="72.4936" y="-7.3" font-family="Helvetica,sans-Serif" font-size="11.00" fill="#000000">Generated by SchemaSpy</text>
<!-- gymnasts_has_classes -->
<g id="node1" class="node">
<title>gymnasts_has_classes</title>
<g id="a_node1"><a xlink:href="../../tables/gymnasts_has_classes.html" xlink:title="gymnasts_has_classes" target="_top">
<polygon fill="#ffffff" stroke="transparent" points="231,-139.7 231,-229.7 439,-229.7 439,-139.7 231,-139.7"/>
<polygon fill="#f5f5f5" stroke="transparent" points="233,-204.7 233,-227.7 437,-227.7 437,-204.7 233,-204.7"/>
<polygon fill="none" stroke="#000000" points="233,-204.7 233,-227.7 437,-227.7 437,-204.7 233,-204.7"/>
<text text-anchor="start" x="238" y="-213.8" font-family="Helvetica,sans-Serif" font-weight="bold" font-size="11.00" fill="#000000">gymnasts_has_classes</text>
<text text-anchor="start" x="402.0437" y="-212.8" font-family="Helvetica,sans-Serif" font-size="11.00" fill="#000000">[table]</text>
<polygon fill="none" stroke="#000000" points="233,-182.7 233,-204.7 387,-204.7 387,-182.7 233,-182.7"/>
<image xlink:href="../../images/primaryKeys.png" width="11px" height="12px" preserveAspectRatio="xMinYMin meet" x="238" y="-199.7"/>
<text text-anchor="start" x="253" y="-189.8" font-family="Helvetica,sans-Serif" font-size="11.00" fill="#000000">gymnasts_id</text>
<polygon fill="none" stroke="#000000" points="387,-182.7 387,-204.7 437,-204.7 437,-182.7 387,-182.7"/>
<text text-anchor="start" x="390" y="-190.4" font-family="Helvetica,sans-Serif" font-size="11.00" fill="#000000">int[10]</text>
<polygon fill="none" stroke="#000000" points="233,-160.7 233,-182.7 387,-182.7 387,-160.7 233,-160.7"/>
<image xlink:href="../../images/primaryKeys.png" width="11px" height="12px" preserveAspectRatio="xMinYMin meet" x="238" y="-177.7"/>
<text text-anchor="start" x="253" y="-167.8" font-family="Helvetica,sans-Serif" font-size="11.00" fill="#000000">classes_id</text>
<polygon fill="none" stroke="#000000" points="387,-160.7 387,-182.7 437,-182.7 437,-160.7 387,-160.7"/>
<text text-anchor="start" x="389.6865" y="-168.4" font-family="Helvetica,sans-Serif" font-size="11.00" fill="#000000">bigint[19]</text>
<polygon fill="#ffffff" stroke="transparent" points="233,-141.7 233,-160.7 301,-160.7 301,-141.7 233,-141.7"/>
<polygon fill="none" stroke="#000000" points="233,-141.7 233,-160.7 301,-160.7 301,-141.7 233,-141.7"/>
<text text-anchor="start" x="236" y="-147.8" font-family="Helvetica,sans-Serif" font-size="11.00" fill="#000000">&lt; 2</text>
<polygon fill="#ffffff" stroke="transparent" points="301,-141.7 301,-160.7 387,-160.7 387,-141.7 301,-141.7"/>
<polygon fill="none" stroke="#000000" points="301,-141.7 301,-160.7 387,-160.7 387,-141.7 301,-141.7"/>
<text text-anchor="start" x="351.6105" y="-147.8" font-family="Helvetica,sans-Serif" font-size="11.00" fill="#000000">0 rows</text>
<polygon fill="#ffffff" stroke="transparent" points="387,-141.7 387,-160.7 437,-160.7 437,-141.7 387,-141.7"/>
<polygon fill="none" stroke="#000000" points="387,-141.7 387,-160.7 437,-160.7 437,-141.7 387,-141.7"/>
<text text-anchor="start" x="418.4053" y="-147.8" font-family="Helvetica,sans-Serif" font-size="11.00" fill="#000000">0 &gt;</text>
<polygon fill="none" stroke="#000000" stroke-width="2" points="232,-140.7 232,-228.7 438,-228.7 438,-140.7 232,-140.7"/>
</a>
</g>
</g>
<!-- classes -->
<g id="node2" class="node">
<title>classes</title>
<g id="a_node2"><a xlink:href="../../tables/classes.html" xlink:title="classes" target="_top">
<polygon fill="#ffffff" stroke="transparent" points="52.5,-38.2 52.5,-143.2 137.5,-143.2 137.5,-38.2 52.5,-38.2"/>
<polygon fill="#f5f5f5" stroke="transparent" points="53,-119.7 53,-142.7 138,-142.7 138,-119.7 53,-119.7"/>
<polygon fill="none" stroke="#000000" points="53,-119.7 53,-142.7 138,-142.7 138,-119.7 53,-119.7"/>
<text text-anchor="start" x="58" y="-128.8" font-family="Helvetica,sans-Serif" font-weight="bold" font-size="11.00" fill="#000000">classes</text>
<text text-anchor="start" x="103.0437" y="-127.8" font-family="Helvetica,sans-Serif" font-size="11.00" fill="#000000">[table]</text>
<polygon fill="none" stroke="#000000" points="53,-97.7 53,-119.7 138,-119.7 138,-97.7 53,-97.7"/>
<image xlink:href="../../images/primaryKeys.png" width="11px" height="12px" preserveAspectRatio="xMinYMin meet" x="58" y="-114.7"/>
<text text-anchor="start" x="73" y="-104.8" font-family="Helvetica,sans-Serif" font-size="11.00" fill="#000000">id</text>
<polygon fill="#ffffff" stroke="transparent" points="53,-75.7 53,-97.7 138,-97.7 138,-75.7 53,-75.7"/>
<polygon fill="none" stroke="#000000" points="53,-75.7 53,-97.7 138,-97.7 138,-75.7 53,-75.7"/>
<image xlink:href="../../images/foreignKeys.png" width="11px" height="12px" preserveAspectRatio="xMinYMin meet" x="58" y="-92.7"/>
<text text-anchor="start" x="73" y="-82.8" font-family="Helvetica,sans-Serif" font-size="11.00" fill="#000000">skill_list_id</text>
<polygon fill="none" stroke="#000000" points="53,-56.7 53,-75.7 138,-75.7 138,-56.7 53,-56.7"/>
<text text-anchor="start" x="56" y="-62.8" font-family="Helvetica,sans-Serif" font-size="11.00" fill="#000000">...</text>
<polygon fill="#ffffff" stroke="transparent" points="53,-37.7 53,-56.7 76,-56.7 76,-37.7 53,-37.7"/>
<polygon fill="none" stroke="#000000" points="53,-37.7 53,-56.7 76,-56.7 76,-37.7 53,-37.7"/>
<text text-anchor="start" x="56" y="-43.8" font-family="Helvetica,sans-Serif" font-size="11.00" fill="#000000">&lt; 1</text>
<polygon fill="#ffffff" stroke="transparent" points="76,-37.7 76,-56.7 115,-56.7 115,-37.7 76,-37.7"/>
<polygon fill="none" stroke="#000000" points="76,-37.7 76,-56.7 115,-56.7 115,-37.7 76,-37.7"/>
<text text-anchor="start" x="79.6105" y="-43.8" font-family="Helvetica,sans-Serif" font-size="11.00" fill="#000000">0 rows</text>
<polygon fill="#ffffff" stroke="transparent" points="115,-37.7 115,-56.7 138,-56.7 138,-37.7 115,-37.7"/>
<polygon fill="none" stroke="#000000" points="115,-37.7 115,-56.7 138,-56.7 138,-37.7 115,-37.7"/>
<text text-anchor="start" x="119.4053" y="-43.8" font-family="Helvetica,sans-Serif" font-size="11.00" fill="#000000">4 &gt;</text>
</a>
</g>
</g>
<!-- gymnasts_has_classes&#45;&gt;classes -->
<g id="edge1" class="edge">
<title>gymnasts_has_classes:w&#45;&gt;classes:e</title>
<path fill="none" stroke="#000000" d="M218.2724,-169.6039C183.0392,-158.6724 183.1215,-108.7 138,-108.7"/>
<polygon fill="#000000" stroke="#000000" points="225.0798,-170.5727 232.4927,-175.2641 229.0399,-171.1364 233,-171.7 233,-171.7 233,-171.7 229.0399,-171.1364 233.5073,-168.1359 225.0798,-170.5727 225.0798,-170.5727"/>
<ellipse fill="none" stroke="#000000" cx="221.9117" cy="-170.1218" rx="3.2" ry="3.2"/>
</g>
<!-- gymnasts -->
<g id="node3" class="node">
<title>gymnasts</title>
<g id="a_node3"><a xlink:href="../../tables/gymnasts.html" xlink:title="gymnasts" target="_top">
<polygon fill="#ffffff" stroke="transparent" points="8,-164.2 8,-291.2 182,-291.2 182,-164.2 8,-164.2"/>
<polygon fill="#f5f5f5" stroke="transparent" points="8,-267.7 8,-290.7 182,-290.7 182,-267.7 8,-267.7"/>
<polygon fill="none" stroke="#000000" points="8,-267.7 8,-290.7 182,-290.7 182,-267.7 8,-267.7"/>
<text text-anchor="start" x="13" y="-276.8" font-family="Helvetica,sans-Serif" font-weight="bold" font-size="11.00" fill="#000000">gymnasts</text>
<text text-anchor="start" x="147.0437" y="-275.8" font-family="Helvetica,sans-Serif" font-size="11.00" fill="#000000">[table]</text>
<polygon fill="none" stroke="#000000" points="8,-245.7 8,-267.7 182,-267.7 182,-245.7 8,-245.7"/>
<image xlink:href="../../images/primaryKeys.png" width="11px" height="12px" preserveAspectRatio="xMinYMin meet" x="13" y="-262.7"/>
<text text-anchor="start" x="28" y="-252.8" font-family="Helvetica,sans-Serif" font-size="11.00" fill="#000000">id</text>
<polygon fill="#ffffff" stroke="transparent" points="8,-223.7 8,-245.7 182,-245.7 182,-223.7 8,-223.7"/>
<polygon fill="none" stroke="#000000" points="8,-223.7 8,-245.7 182,-245.7 182,-223.7 8,-223.7"/>
<image xlink:href="../../images/foreignKeys.png" width="11px" height="12px" preserveAspectRatio="xMinYMin meet" x="13" y="-240.7"/>
<text text-anchor="start" x="28" y="-230.8" font-family="Helvetica,sans-Serif" font-size="11.00" fill="#000000">gyms_has_users_gyms_id</text>
<polygon fill="#ffffff" stroke="transparent" points="8,-201.7 8,-223.7 182,-223.7 182,-201.7 8,-201.7"/>
<polygon fill="none" stroke="#000000" points="8,-201.7 8,-223.7 182,-223.7 182,-201.7 8,-201.7"/>
<image xlink:href="../../images/foreignKeys.png" width="11px" height="12px" preserveAspectRatio="xMinYMin meet" x="13" y="-218.7"/>
<text text-anchor="start" x="28" y="-208.8" font-family="Helvetica,sans-Serif" font-size="11.00" fill="#000000">gyms_has_users_users_id</text>
<polygon fill="none" stroke="#000000" points="8,-182.7 8,-201.7 182,-201.7 182,-182.7 8,-182.7"/>
<text text-anchor="start" x="11" y="-188.8" font-family="Helvetica,sans-Serif" font-size="11.00" fill="#000000">...</text>
<polygon fill="#ffffff" stroke="transparent" points="8,-163.7 8,-182.7 76,-182.7 76,-163.7 8,-163.7"/>
<polygon fill="none" stroke="#000000" points="8,-163.7 8,-182.7 76,-182.7 76,-163.7 8,-163.7"/>
<text text-anchor="start" x="11" y="-169.8" font-family="Helvetica,sans-Serif" font-size="11.00" fill="#000000">&lt; 2</text>
<polygon fill="#ffffff" stroke="transparent" points="76,-163.7 76,-182.7 137,-182.7 137,-163.7 76,-163.7"/>
<polygon fill="none" stroke="#000000" points="76,-163.7 76,-182.7 137,-182.7 137,-163.7 76,-163.7"/>
<text text-anchor="start" x="101.6105" y="-169.8" font-family="Helvetica,sans-Serif" font-size="11.00" fill="#000000">0 rows</text>
<polygon fill="#ffffff" stroke="transparent" points="137,-163.7 137,-182.7 182,-182.7 182,-163.7 137,-163.7"/>
<polygon fill="none" stroke="#000000" points="137,-163.7 137,-182.7 182,-182.7 182,-163.7 137,-163.7"/>
<text text-anchor="start" x="163.4053" y="-169.8" font-family="Helvetica,sans-Serif" font-size="11.00" fill="#000000">4 &gt;</text>
</a>
</g>
</g>
<!-- gymnasts_has_classes&#45;&gt;gymnasts -->
<g id="edge2" class="edge">
<title>gymnasts_has_classes:w&#45;&gt;gymnasts:e</title>
<path fill="none" stroke="#000000" d="M218.9033,-198.6435C202.525,-213.4952 211.8329,-256.7 182,-256.7"/>
<polygon fill="#000000" stroke="#000000" points="225.4507,-196.3474 234.1913,-197.0972 229.2254,-195.0237 233,-193.7 233,-193.7 233,-193.7 229.2254,-195.0237 231.8087,-190.3028 225.4507,-196.3474 225.4507,-196.3474"/>
<ellipse fill="none" stroke="#000000" cx="222.431" cy="-197.4064" rx="3.2" ry="3.2"/>
</g>
</g>
</svg>
