<?xml version="1.0" encoding="UTF-8" standalone="no"?>
<!DOCTYPE svg PUBLIC "-//W3C//DTD SVG 1.1//EN"
 "http://www.w3.org/Graphics/SVG/1.1/DTD/svg11.dtd">
<!-- Generated by graphviz version 2.40.1 (20161225.0304)
 -->
<!-- Title: twoDegreesRelationshipsDiagram Pages: 1 -->
<svg width="765pt" height="328pt"
 viewBox="0.00 0.00 765.00 328.20" xmlns="http://www.w3.org/2000/svg" xmlns:xlink="http://www.w3.org/1999/xlink">
<g id="graph0" class="graph" transform="scale(1 1) rotate(0) translate(4 324.2)">
<title>twoDegreesRelationshipsDiagram</title>
<polygon fill="#ffffff" stroke="transparent" points="-4,4 -4,-324.2 761,-324.2 761,4 -4,4"/>
<text text-anchor="middle" x="72.4936" y="-7.3" font-family="Helvetica,sans-Serif" font-size="11.00" fill="#000000">Generated by SchemaSpy</text>
<!-- challenges -->
<g id="node1" class="node">
<title>challenges</title>
<g id="a_node1"><a xlink:href="../../tables/challenges.html" xlink:title="challenges" target="_top">
<polygon fill="#ffffff" stroke="transparent" points="357.5,-107.2 357.5,-168.2 452.5,-168.2 452.5,-107.2 357.5,-107.2"/>
<polygon fill="#f5f5f5" stroke="transparent" points="358,-144.7 358,-167.7 453,-167.7 453,-144.7 358,-144.7"/>
<polygon fill="none" stroke="#000000" points="358,-144.7 358,-167.7 453,-167.7 453,-144.7 358,-144.7"/>
<text text-anchor="start" x="362.7144" y="-153.8" font-family="Helvetica,sans-Serif" font-weight="bold" font-size="11.00" fill="#000000">challenges</text>
<text text-anchor="start" x="418.5219" y="-152.8" font-family="Helvetica,sans-Serif" font-size="11.00" fill="#000000">[table]</text>
<polygon fill="none" stroke="#000000" points="358,-125.7 358,-144.7 453,-144.7 453,-125.7 358,-125.7"/>
<text text-anchor="start" x="361" y="-131.8" font-family="Helvetica,sans-Serif" font-size="11.00" fill="#000000">...</text>
<polygon fill="#ffffff" stroke="transparent" points="358,-106.7 358,-125.7 386,-125.7 386,-106.7 358,-106.7"/>
<polygon fill="none" stroke="#000000" points="358,-106.7 358,-125.7 386,-125.7 386,-106.7 358,-106.7"/>
<text text-anchor="start" x="361" y="-112.8" font-family="Helvetica,sans-Serif" font-size="11.00" fill="#000000">&lt; 2</text>
<polygon fill="#ffffff" stroke="transparent" points="386,-106.7 386,-125.7 428,-125.7 428,-106.7 386,-106.7"/>
<polygon fill="none" stroke="#000000" points="386,-106.7 386,-125.7 428,-125.7 428,-106.7 386,-106.7"/>
<text text-anchor="start" x="392.6105" y="-112.8" font-family="Helvetica,sans-Serif" font-size="11.00" fill="#000000">0 rows</text>
<polygon fill="#ffffff" stroke="transparent" points="428,-106.7 428,-125.7 453,-125.7 453,-106.7 428,-106.7"/>
<polygon fill="none" stroke="#000000" points="428,-106.7 428,-125.7 453,-125.7 453,-106.7 428,-106.7"/>
<text text-anchor="start" x="434.4053" y="-112.8" font-family="Helvetica,sans-Serif" font-size="11.00" fill="#000000">1 &gt;</text>
</a>
</g>
</g>
<!-- classes -->
<g id="node2" class="node">
<title>classes</title>
<g id="a_node2"><a xlink:href="../../tables/classes.html" xlink:title="classes" target="_top">
<polygon fill="#ffffff" stroke="transparent" points="163.5,-38.2 163.5,-143.2 248.5,-143.2 248.5,-38.2 163.5,-38.2"/>
<polygon fill="#f5f5f5" stroke="transparent" points="164,-119.7 164,-142.7 249,-142.7 249,-119.7 164,-119.7"/>
<polygon fill="none" stroke="#000000" points="164,-119.7 164,-142.7 249,-142.7 249,-119.7 164,-119.7"/>
<text text-anchor="start" x="169" y="-128.8" font-family="Helvetica,sans-Serif" font-weight="bold" font-size="11.00" fill="#000000">classes</text>
<text text-anchor="start" x="214.0437" y="-127.8" font-family="Helvetica,sans-Serif" font-size="11.00" fill="#000000">[table]</text>
<polygon fill="none" stroke="#000000" points="164,-97.7 164,-119.7 249,-119.7 249,-97.7 164,-97.7"/>
<image xlink:href="../../images/primaryKeys.png" width="11px" height="12px" preserveAspectRatio="xMinYMin meet" x="169" y="-114.7"/>
<text text-anchor="start" x="184" y="-104.8" font-family="Helvetica,sans-Serif" font-size="11.00" fill="#000000">id</text>
<polygon fill="#ffffff" stroke="transparent" points="164,-75.7 164,-97.7 249,-97.7 249,-75.7 164,-75.7"/>
<polygon fill="none" stroke="#000000" points="164,-75.7 164,-97.7 249,-97.7 249,-75.7 164,-75.7"/>
<image xlink:href="../../images/foreignKeys.png" width="11px" height="12px" preserveAspectRatio="xMinYMin meet" x="169" y="-92.7"/>
<text text-anchor="start" x="184" y="-82.8" font-family="Helvetica,sans-Serif" font-size="11.00" fill="#000000">skill_list_id</text>
<polygon fill="none" stroke="#000000" points="164,-56.7 164,-75.7 249,-75.7 249,-56.7 164,-56.7"/>
<text text-anchor="start" x="167" y="-62.8" font-family="Helvetica,sans-Serif" font-size="11.00" fill="#000000">...</text>
<polygon fill="#ffffff" stroke="transparent" points="164,-37.7 164,-56.7 187,-56.7 187,-37.7 164,-37.7"/>
<polygon fill="none" stroke="#000000" points="164,-37.7 164,-56.7 187,-56.7 187,-37.7 164,-37.7"/>
<text text-anchor="start" x="167" y="-43.8" font-family="Helvetica,sans-Serif" font-size="11.00" fill="#000000">&lt; 1</text>
<polygon fill="#ffffff" stroke="transparent" points="187,-37.7 187,-56.7 226,-56.7 226,-37.7 187,-37.7"/>
<polygon fill="none" stroke="#000000" points="187,-37.7 187,-56.7 226,-56.7 226,-37.7 187,-37.7"/>
<text text-anchor="start" x="190.6105" y="-43.8" font-family="Helvetica,sans-Serif" font-size="11.00" fill="#000000">0 rows</text>
<polygon fill="#ffffff" stroke="transparent" points="226,-37.7 226,-56.7 249,-56.7 249,-37.7 226,-37.7"/>
<polygon fill="none" stroke="#000000" points="226,-37.7 226,-56.7 249,-56.7 249,-37.7 226,-37.7"/>
<text text-anchor="start" x="230.4053" y="-43.8" font-family="Helvetica,sans-Serif" font-size="11.00" fill="#000000">2 &gt;</text>
</a>
</g>
</g>
<!-- challenges&#45;&gt;classes -->
<g id="edge1" class="edge">
<title>challenges:w&#45;&gt;classes:e</title>
<path fill="none" stroke="#000000" d="M343.4956,-133.8934C305.7656,-129.5048 293.5508,-108.7 249,-108.7"/>
<polygon fill="#000000" stroke="#000000" points="350.0123,-134.2557 357.8001,-138.2944 354.0062,-134.4779 358,-134.7 358,-134.7 358,-134.7 354.0062,-134.4779 358.1999,-131.1056 350.0123,-134.2557 350.0123,-134.2557"/>
<ellipse fill="none" stroke="#000000" cx="346.8173" cy="-134.078" rx="3.2" ry="3.2"/>
</g>
<!-- skill_lists -->
<g id="node3" class="node">
<title>skill_lists</title>
<g id="a_node3"><a xlink:href="../../tables/skill_lists.html" xlink:title="skill_lists" target="_top">
<polygon fill="#ffffff" stroke="transparent" points="8,-59.2 8,-120.2 94,-120.2 94,-59.2 8,-59.2"/>
<polygon fill="#f5f5f5" stroke="transparent" points="8,-96.7 8,-119.7 94,-119.7 94,-96.7 8,-96.7"/>
<polygon fill="none" stroke="#000000" points="8,-96.7 8,-119.7 94,-119.7 94,-96.7 8,-96.7"/>
<text text-anchor="start" x="12.8119" y="-105.8" font-family="Helvetica,sans-Serif" font-weight="bold" font-size="11.00" fill="#000000">skill_lists</text>
<text text-anchor="start" x="59.5219" y="-104.8" font-family="Helvetica,sans-Serif" font-size="11.00" fill="#000000">[table]</text>
<polygon fill="none" stroke="#000000" points="8,-77.7 8,-96.7 94,-96.7 94,-77.7 8,-77.7"/>
<text text-anchor="start" x="11" y="-83.8" font-family="Helvetica,sans-Serif" font-size="11.00" fill="#000000">...</text>
<polygon fill="#ffffff" stroke="transparent" points="8,-58.7 8,-77.7 32,-77.7 32,-58.7 8,-58.7"/>
<polygon fill="none" stroke="#000000" points="8,-58.7 8,-77.7 32,-77.7 32,-58.7 8,-58.7"/>
<text text-anchor="start" x="11" y="-64.8" font-family="Helvetica,sans-Serif" font-size="11.00" fill="#000000">&lt; 1</text>
<polygon fill="#ffffff" stroke="transparent" points="32,-58.7 32,-77.7 71,-77.7 71,-58.7 32,-58.7"/>
<polygon fill="none" stroke="#000000" points="32,-58.7 32,-77.7 71,-77.7 71,-58.7 32,-58.7"/>
<text text-anchor="start" x="35.6105" y="-64.8" font-family="Helvetica,sans-Serif" font-size="11.00" fill="#000000">0 rows</text>
<polygon fill="#ffffff" stroke="transparent" points="71,-58.7 71,-77.7 94,-77.7 94,-58.7 71,-58.7"/>
<polygon fill="none" stroke="#000000" points="71,-58.7 71,-77.7 94,-77.7 94,-58.7 71,-58.7"/>
<text text-anchor="start" x="75.4053" y="-64.8" font-family="Helvetica,sans-Serif" font-size="11.00" fill="#000000">2 &gt;</text>
</a>
</g>
</g>
<!-- classes&#45;&gt;skill_lists -->
<g id="edge2" class="edge">
<title>classes:w&#45;&gt;skill_lists:e</title>
<path fill="none" stroke="#000000" d="M149.5032,-86.7C129.4335,-86.7 119.6424,-86.7 94,-86.7"/>
<polygon fill="#000000" stroke="#000000" points="156,-86.7001 164,-90.3 160,-86.7 164,-86.7 164,-86.7 164,-86.7 160,-86.7 164,-83.1 156,-86.7001 156,-86.7001"/>
<ellipse fill="none" stroke="#000000" cx="152.8" cy="-86.7001" rx="3.2" ry="3.2"/>
</g>
<!-- completed_challenges -->
<g id="node4" class="node">
<title>completed_challenges</title>
<g id="a_node4"><a xlink:href="../../tables/completed_challenges.html" xlink:title="completed_challenges" target="_top">
<polygon fill="#ffffff" stroke="transparent" points="569,-170.2 569,-231.2 721,-231.2 721,-170.2 569,-170.2"/>
<polygon fill="#f5f5f5" stroke="transparent" points="569,-207.7 569,-230.7 721,-230.7 721,-207.7 569,-207.7"/>
<polygon fill="none" stroke="#000000" points="569,-207.7 569,-230.7 721,-230.7 721,-207.7 569,-207.7"/>
<text text-anchor="start" x="573.7899" y="-216.8" font-family="Helvetica,sans-Serif" font-weight="bold" font-size="11.00" fill="#000000">completed_challenges</text>
<text text-anchor="start" x="686.5219" y="-215.8" font-family="Helvetica,sans-Serif" font-size="11.00" fill="#000000">[table]</text>
<polygon fill="none" stroke="#000000" points="569,-188.7 569,-207.7 721,-207.7 721,-188.7 569,-188.7"/>
<text text-anchor="start" x="572" y="-194.8" font-family="Helvetica,sans-Serif" font-size="11.00" fill="#000000">...</text>
<polygon fill="#ffffff" stroke="transparent" points="569,-169.7 569,-188.7 630,-188.7 630,-169.7 569,-169.7"/>
<polygon fill="none" stroke="#000000" points="569,-169.7 569,-188.7 630,-188.7 630,-169.7 569,-169.7"/>
<text text-anchor="start" x="572" y="-175.8" font-family="Helvetica,sans-Serif" font-size="11.00" fill="#000000">&lt; 2</text>
<polygon fill="#ffffff" stroke="transparent" points="630,-169.7 630,-188.7 688,-188.7 688,-169.7 630,-169.7"/>
<polygon fill="none" stroke="#000000" points="630,-169.7 630,-188.7 688,-188.7 688,-169.7 630,-169.7"/>
<text text-anchor="start" x="652.6105" y="-175.8" font-family="Helvetica,sans-Serif" font-size="11.00" fill="#000000">0 rows</text>
<polygon fill="#ffffff" stroke="transparent" points="688,-169.7 688,-188.7 721,-188.7 721,-169.7 688,-169.7"/>
<polygon fill="none" stroke="#000000" points="688,-169.7 688,-188.7 721,-188.7 721,-169.7 688,-169.7"/>
<text text-anchor="start" x="711.8862" y="-175.8" font-family="Helvetica,sans-Serif" font-size="11.00" fill="#000000"> &#160;</text>
</a>
</g>
</g>
<!-- completed_challenges&#45;&gt;challenges -->
<g id="edge3" class="edge">
<title>completed_challenges:w&#45;&gt;challenges:e</title>
<path fill="none" stroke="#000000" d="M554.5531,-196.2658C510.0875,-186.8882 506.3974,-134.7 453,-134.7"/>
<polygon fill="#000000" stroke="#000000" points="561.0391,-196.9096 568.6443,-201.2824 565.0196,-197.3048 569,-197.7 569,-197.7 569,-197.7 565.0196,-197.3048 569.3557,-194.1176 561.0391,-196.9096 561.0391,-196.9096"/>
<ellipse fill="none" stroke="#000000" cx="557.8548" cy="-196.5935" rx="3.2" ry="3.2"/>
</g>
<!-- gymnasts -->
<g id="node5" class="node">
<title>gymnasts</title>
<g id="a_node5"><a xlink:href="../../tables/gymnasts.html" xlink:title="gymnasts" target="_top">
<polygon fill="#ffffff" stroke="transparent" points="318,-189.2 318,-316.2 492,-316.2 492,-189.2 318,-189.2"/>
<polygon fill="#f5f5f5" stroke="transparent" points="318,-292.7 318,-315.7 492,-315.7 492,-292.7 318,-292.7"/>
<polygon fill="none" stroke="#000000" points="318,-292.7 318,-315.7 492,-315.7 492,-292.7 318,-292.7"/>
<text text-anchor="start" x="323" y="-301.8" font-family="Helvetica,sans-Serif" font-weight="bold" font-size="11.00" fill="#000000">gymnasts</text>
<text text-anchor="start" x="457.0437" y="-300.8" font-family="Helvetica,sans-Serif" font-size="11.00" fill="#000000">[table]</text>
<polygon fill="none" stroke="#000000" points="318,-270.7 318,-292.7 492,-292.7 492,-270.7 318,-270.7"/>
<image xlink:href="../../images/primaryKeys.png" width="11px" height="12px" preserveAspectRatio="xMinYMin meet" x="323" y="-287.7"/>
<text text-anchor="start" x="338" y="-277.8" font-family="Helvetica,sans-Serif" font-size="11.00" fill="#000000">id</text>
<polygon fill="#ffffff" stroke="transparent" points="318,-248.7 318,-270.7 492,-270.7 492,-248.7 318,-248.7"/>
<polygon fill="none" stroke="#000000" points="318,-248.7 318,-270.7 492,-270.7 492,-248.7 318,-248.7"/>
<image xlink:href="../../images/foreignKeys.png" width="11px" height="12px" preserveAspectRatio="xMinYMin meet" x="323" y="-265.7"/>
<text text-anchor="start" x="338" y="-255.8" font-family="Helvetica,sans-Serif" font-size="11.00" fill="#000000">gyms_has_users_gyms_id</text>
<polygon fill="#ffffff" stroke="transparent" points="318,-226.7 318,-248.7 492,-248.7 492,-226.7 318,-226.7"/>
<polygon fill="none" stroke="#000000" points="318,-226.7 318,-248.7 492,-248.7 492,-226.7 318,-226.7"/>
<image xlink:href="../../images/foreignKeys.png" width="11px" height="12px" preserveAspectRatio="xMinYMin meet" x="323" y="-243.7"/>
<text text-anchor="start" x="338" y="-233.8" font-family="Helvetica,sans-Serif" font-size="11.00" fill="#000000">gyms_has_users_users_id</text>
<polygon fill="none" stroke="#000000" points="318,-207.7 318,-226.7 492,-226.7 492,-207.7 318,-207.7"/>
<text text-anchor="start" x="321" y="-213.8" font-family="Helvetica,sans-Serif" font-size="11.00" fill="#000000">...</text>
<polygon fill="#ffffff" stroke="transparent" points="318,-188.7 318,-207.7 386,-207.7 386,-188.7 318,-188.7"/>
<polygon fill="none" stroke="#000000" points="318,-188.7 318,-207.7 386,-207.7 386,-188.7 318,-188.7"/>
<text text-anchor="start" x="321" y="-194.8" font-family="Helvetica,sans-Serif" font-size="11.00" fill="#000000">&lt; 2</text>
<polygon fill="#ffffff" stroke="transparent" points="386,-188.7 386,-207.7 447,-207.7 447,-188.7 386,-188.7"/>
<polygon fill="none" stroke="#000000" points="386,-188.7 386,-207.7 447,-207.7 447,-188.7 386,-188.7"/>
<text text-anchor="start" x="411.6105" y="-194.8" font-family="Helvetica,sans-Serif" font-size="11.00" fill="#000000">0 rows</text>
<polygon fill="#ffffff" stroke="transparent" points="447,-188.7 447,-207.7 492,-207.7 492,-188.7 447,-188.7"/>
<polygon fill="none" stroke="#000000" points="447,-188.7 447,-207.7 492,-207.7 492,-188.7 447,-188.7"/>
<text text-anchor="start" x="473.4053" y="-194.8" font-family="Helvetica,sans-Serif" font-size="11.00" fill="#000000">3 &gt;</text>
</a>
</g>
</g>
<!-- completed_challenges&#45;&gt;gymnasts -->
<g id="edge4" class="edge">
<title>completed_challenges:w&#45;&gt;gymnasts:e</title>
<path fill="none" stroke="#000000" d="M554.4555,-200.6896C522.8965,-215.6533 536.9081,-281.7 492,-281.7"/>
<polygon fill="#000000" stroke="#000000" points="561.1638,-199.3108 569.7248,-201.2263 565.0819,-198.5054 569,-197.7 569,-197.7 569,-197.7 565.0819,-198.5054 568.2752,-194.1737 561.1638,-199.3108 561.1638,-199.3108"/>
<ellipse fill="none" stroke="#000000" cx="558.0294" cy="-199.9551" rx="3.2" ry="3.2"/>
</g>
<!-- gyms_has_users -->
<g id="node7" class="node">
<title>gyms_has_users</title>
<g id="a_node7"><a xlink:href="../../tables/gyms_has_users.html" xlink:title="gyms_has_users" target="_top">
<polygon fill="#ffffff" stroke="transparent" points="143,-221.2 143,-282.2 269,-282.2 269,-221.2 143,-221.2"/>
<polygon fill="#f5f5f5" stroke="transparent" points="143,-258.7 143,-281.7 269,-281.7 269,-258.7 143,-258.7"/>
<polygon fill="none" stroke="#000000" points="143,-258.7 143,-281.7 269,-281.7 269,-258.7 143,-258.7"/>
<text text-anchor="start" x="147.936" y="-267.8" font-family="Helvetica,sans-Serif" font-weight="bold" font-size="11.00" fill="#000000">gyms_has_users</text>
<text text-anchor="start" x="234.5219" y="-266.8" font-family="Helvetica,sans-Serif" font-size="11.00" fill="#000000">[table]</text>
<polygon fill="none" stroke="#000000" points="143,-239.7 143,-258.7 269,-258.7 269,-239.7 143,-239.7"/>
<text text-anchor="start" x="146" y="-245.8" font-family="Helvetica,sans-Serif" font-size="11.00" fill="#000000">...</text>
<polygon fill="#ffffff" stroke="transparent" points="143,-220.7 143,-239.7 187,-239.7 187,-220.7 143,-220.7"/>
<polygon fill="none" stroke="#000000" points="143,-220.7 143,-239.7 187,-239.7 187,-220.7 143,-220.7"/>
<text text-anchor="start" x="146" y="-226.8" font-family="Helvetica,sans-Serif" font-size="11.00" fill="#000000">&lt; 2</text>
<polygon fill="#ffffff" stroke="transparent" points="187,-220.7 187,-239.7 236,-239.7 236,-220.7 187,-220.7"/>
<polygon fill="none" stroke="#000000" points="187,-220.7 187,-239.7 236,-239.7 236,-220.7 187,-220.7"/>
<text text-anchor="start" x="200.6105" y="-226.8" font-family="Helvetica,sans-Serif" font-size="11.00" fill="#000000">0 rows</text>
<polygon fill="#ffffff" stroke="transparent" points="236,-220.7 236,-239.7 269,-239.7 269,-220.7 236,-220.7"/>
<polygon fill="none" stroke="#000000" points="236,-220.7 236,-239.7 269,-239.7 269,-220.7 236,-220.7"/>
<text text-anchor="start" x="250.4053" y="-226.8" font-family="Helvetica,sans-Serif" font-size="11.00" fill="#000000">2 &gt;</text>
</a>
</g>
</g>
<!-- gymnasts&#45;&gt;gyms_has_users -->
<g id="edge6" class="edge">
<title>gymnasts:w&#45;&gt;gyms_has_users:e</title>
<path fill="none" stroke="#000000" d="M303.7027,-257.8836C292.2382,-254.7593 285.5655,-248.7 269,-248.7"/>
<polygon fill="#000000" stroke="#000000" points="310.0638,-258.6917 317.5463,-263.2713 314.0319,-259.1958 318,-259.7 318,-259.7 318,-259.7 314.0319,-259.1958 318.4537,-256.1287 310.0638,-258.6917 310.0638,-258.6917"/>
<ellipse fill="none" stroke="#000000" cx="306.8893" cy="-258.2884" rx="3.2" ry="3.2"/>
</g>
<!-- gymnasts&#45;&gt;gyms_has_users -->
<g id="edge7" class="edge">
<title>gymnasts:w&#45;&gt;gyms_has_users:e</title>
<path fill="none" stroke="#000000" d="M303.7027,-239.5164C292.2382,-242.6407 285.5655,-248.7 269,-248.7"/>
<polygon fill="#000000" stroke="#000000" points="310.0638,-238.7083 318.4537,-241.2713 314.0319,-238.2042 318,-237.7 318,-237.7 318,-237.7 314.0319,-238.2042 317.5463,-234.1287 310.0638,-238.7083 310.0638,-238.7083"/>
<ellipse fill="none" stroke="#000000" cx="306.8893" cy="-239.1116" rx="3.2" ry="3.2"/>
</g>
<!-- gymnast_has_skills -->
<g id="node6" class="node">
<title>gymnast_has_skills</title>
<g id="a_node6"><a xlink:href="../../tables/gymnast_has_skills.html" xlink:title="gymnast_has_skills" target="_top">
<polygon fill="#ffffff" stroke="transparent" points="576,-254.2 576,-315.2 714,-315.2 714,-254.2 576,-254.2"/>
<polygon fill="#f5f5f5" stroke="transparent" points="576,-291.7 576,-314.7 714,-314.7 714,-291.7 576,-291.7"/>
<polygon fill="none" stroke="#000000" points="576,-291.7 576,-314.7 714,-314.7 714,-291.7 576,-291.7"/>
<text text-anchor="start" x="580.8271" y="-300.8" font-family="Helvetica,sans-Serif" font-weight="bold" font-size="11.00" fill="#000000">gymnast_has_skills</text>
<text text-anchor="start" x="679.5219" y="-299.8" font-family="Helvetica,sans-Serif" font-size="11.00" fill="#000000">[table]</text>
<polygon fill="none" stroke="#000000" points="576,-272.7 576,-291.7 714,-291.7 714,-272.7 576,-272.7"/>
<text text-anchor="start" x="579" y="-278.8" font-family="Helvetica,sans-Serif" font-size="11.00" fill="#000000">...</text>
<polygon fill="#ffffff" stroke="transparent" points="576,-253.7 576,-272.7 630,-272.7 630,-253.7 576,-253.7"/>
<polygon fill="none" stroke="#000000" points="576,-253.7 576,-272.7 630,-272.7 630,-253.7 576,-253.7"/>
<text text-anchor="start" x="579" y="-259.8" font-family="Helvetica,sans-Serif" font-size="11.00" fill="#000000">&lt; 2</text>
<polygon fill="#ffffff" stroke="transparent" points="630,-253.7 630,-272.7 685,-272.7 685,-253.7 630,-253.7"/>
<polygon fill="none" stroke="#000000" points="630,-253.7 630,-272.7 685,-272.7 685,-253.7 630,-253.7"/>
<text text-anchor="start" x="649.6105" y="-259.8" font-family="Helvetica,sans-Serif" font-size="11.00" fill="#000000">0 rows</text>
<polygon fill="#ffffff" stroke="transparent" points="685,-253.7 685,-272.7 714,-272.7 714,-253.7 685,-253.7"/>
<polygon fill="none" stroke="#000000" points="685,-253.7 685,-272.7 714,-272.7 714,-253.7 685,-253.7"/>
<text text-anchor="start" x="704.8862" y="-259.8" font-family="Helvetica,sans-Serif" font-size="11.00" fill="#000000"> &#160;</text>
</a>
</g>
</g>
<!-- gymnast_has_skills&#45;&gt;gymnasts -->
<g id="edge5" class="edge">
<title>gymnast_has_skills:w&#45;&gt;gymnasts:e</title>
<path fill="none" stroke="#000000" d="M561.3981,-281.7C535.3839,-281.7 523.9375,-281.7 492,-281.7"/>
<polygon fill="#000000" stroke="#000000" points="568,-281.7001 576,-285.3 572,-281.7 576,-281.7 576,-281.7 576,-281.7 572,-281.7 576,-278.1 568,-281.7001 568,-281.7001"/>
<ellipse fill="none" stroke="#000000" cx="564.8" cy="-281.7001" rx="3.2" ry="3.2"/>
</g>
<!-- gymnasts_has_classes -->
<g id="node8" class="node">
<title>gymnasts_has_classes</title>
<g id="a_node8"><a xlink:href="../../tables/gymnasts_has_classes.html" xlink:title="gymnasts_has_classes" target="_top">
<polygon fill="#ffffff" stroke="transparent" points="541,-53.7 541,-143.7 749,-143.7 749,-53.7 541,-53.7"/>
<polygon fill="#f5f5f5" stroke="transparent" points="543,-118.7 543,-141.7 747,-141.7 747,-118.7 543,-118.7"/>
<polygon fill="none" stroke="#000000" points="543,-118.7 543,-141.7 747,-141.7 747,-118.7 543,-118.7"/>
<text text-anchor="start" x="548" y="-127.8" font-family="Helvetica,sans-Serif" font-weight="bold" font-size="11.00" fill="#000000">gymnasts_has_classes</text>
<text text-anchor="start" x="712.0437" y="-126.8" font-family="Helvetica,sans-Serif" font-size="11.00" fill="#000000">[table]</text>
<polygon fill="none" stroke="#000000" points="543,-96.7 543,-118.7 697,-118.7 697,-96.7 543,-96.7"/>
<image xlink:href="../../images/primaryKeys.png" width="11px" height="12px" preserveAspectRatio="xMinYMin meet" x="548" y="-113.7"/>
<text text-anchor="start" x="563" y="-103.8" font-family="Helvetica,sans-Serif" font-size="11.00" fill="#000000">gymnasts_id</text>
<polygon fill="none" stroke="#000000" points="697,-96.7 697,-118.7 747,-118.7 747,-96.7 697,-96.7"/>
<text text-anchor="start" x="699.6865" y="-104.4" font-family="Helvetica,sans-Serif" font-size="11.00" fill="#000000">bigint[19]</text>
<polygon fill="none" stroke="#000000" points="543,-74.7 543,-96.7 697,-96.7 697,-74.7 543,-74.7"/>
<image xlink:href="../../images/primaryKeys.png" width="11px" height="12px" preserveAspectRatio="xMinYMin meet" x="548" y="-91.7"/>
<text text-anchor="start" x="563" y="-81.8" font-family="Helvetica,sans-Serif" font-size="11.00" fill="#000000">classes_id</text>
<polygon fill="none" stroke="#000000" points="697,-74.7 697,-96.7 747,-96.7 747,-74.7 697,-74.7"/>
<text text-anchor="start" x="699.6865" y="-82.4" font-family="Helvetica,sans-Serif" font-size="11.00" fill="#000000">bigint[19]</text>
<polygon fill="#ffffff" stroke="transparent" points="543,-55.7 543,-74.7 611,-74.7 611,-55.7 543,-55.7"/>
<polygon fill="none" stroke="#000000" points="543,-55.7 543,-74.7 611,-74.7 611,-55.7 543,-55.7"/>
<text text-anchor="start" x="546" y="-61.8" font-family="Helvetica,sans-Serif" font-size="11.00" fill="#000000">&lt; 2</text>
<polygon fill="#ffffff" stroke="transparent" points="611,-55.7 611,-74.7 697,-74.7 697,-55.7 611,-55.7"/>
<polygon fill="none" stroke="#000000" points="611,-55.7 611,-74.7 697,-74.7 697,-55.7 611,-55.7"/>
<text text-anchor="start" x="661.6105" y="-61.8" font-family="Helvetica,sans-Serif" font-size="11.00" fill="#000000">0 rows</text>
<polygon fill="#ffffff" stroke="transparent" points="697,-55.7 697,-74.7 747,-74.7 747,-55.7 697,-55.7"/>
<polygon fill="none" stroke="#000000" points="697,-55.7 697,-74.7 747,-74.7 747,-55.7 697,-55.7"/>
<text text-anchor="start" x="728.4053" y="-61.8" font-family="Helvetica,sans-Serif" font-size="11.00" fill="#000000">0 &gt;</text>
<polygon fill="none" stroke="#000000" stroke-width="2" points="542,-54.7 542,-142.7 748,-142.7 748,-54.7 542,-54.7"/>
</a>
</g>
</g>
<!-- gymnasts_has_classes&#45;&gt;classes -->
<g id="edge8" class="edge">
<title>gymnasts_has_classes:w&#45;&gt;classes:e</title>
<path fill="none" stroke="#000000" d="M528.3485,-85.6912C436.5674,-85.5884 407.8913,-84.826 310,-96.7 282.5703,-100.0272 276.6307,-108.7 249,-108.7"/>
<polygon fill="#000000" stroke="#000000" points="535,-85.6951 542.9978,-89.3 539,-85.6976 543,-85.7 543,-85.7 543,-85.7 539,-85.6976 543.0022,-82.1 535,-85.6951 535,-85.6951"/>
<ellipse fill="none" stroke="#000000" cx="531.8" cy="-85.6932" rx="3.2" ry="3.2"/>
</g>
<!-- gymnasts_has_classes&#45;&gt;gymnasts -->
<g id="edge9" class="edge">
<title>gymnasts_has_classes:w&#45;&gt;gymnasts:e</title>
<path fill="none" stroke="#000000" d="M528.6979,-110.1597C476.9633,-131.3085 566.9205,-281.7 492,-281.7"/>
<polygon fill="#000000" stroke="#000000" points="535.1158,-109.056 543.6102,-111.2479 539.0579,-108.378 543,-107.7 543,-107.7 543,-107.7 539.0579,-108.378 542.3898,-104.1521 535.1158,-109.056 535.1158,-109.056"/>
<ellipse fill="none" stroke="#000000" cx="531.9621" cy="-109.5984" rx="3.2" ry="3.2"/>
</g>
</g>
</svg>
