<?xml version="1.0" encoding="UTF-8" standalone="no"?>
<!DOCTYPE svg PUBLIC "-//W3C//DTD SVG 1.1//EN"
 "http://www.w3.org/Graphics/SVG/1.1/DTD/svg11.dtd">
<!-- Generated by graphviz version 2.40.1 (20161225.0304)
 -->
<!-- Title: oneDegreeRelationshipsDiagram Pages: 1 -->
<svg width="553pt" height="259pt"
 viewBox="0.00 0.00 553.00 259.20" xmlns="http://www.w3.org/2000/svg" xmlns:xlink="http://www.w3.org/1999/xlink">
<g id="graph0" class="graph" transform="scale(1 1) rotate(0) translate(4 255.2)">
<title>oneDegreeRelationshipsDiagram</title>
<polygon fill="#ffffff" stroke="transparent" points="-4,4 -4,-255.2 549,-255.2 549,4 -4,4"/>
<text text-anchor="middle" x="72.4936" y="-7.3" font-family="Helvetica,sans-Serif" font-size="11.00" fill="#000000">Generated by SchemaSpy</text>
<!-- gymnasts -->
<g id="node1" class="node">
<title>gymnasts</title>
<g id="a_node1"><a xlink:href="../../tables/gymnasts.html" xlink:title="gymnasts" target="_top">
<polygon fill="#ffffff" stroke="transparent" points="363,-101.2 363,-228.2 537,-228.2 537,-101.2 363,-101.2"/>
<polygon fill="#f5f5f5" stroke="transparent" points="363,-204.7 363,-227.7 537,-227.7 537,-204.7 363,-204.7"/>
<polygon fill="none" stroke="#000000" points="363,-204.7 363,-227.7 537,-227.7 537,-204.7 363,-204.7"/>
<text text-anchor="start" x="368" y="-213.8" font-family="Helvetica,sans-Serif" font-weight="bold" font-size="11.00" fill="#000000">gymnasts</text>
<text text-anchor="start" x="502.0437" y="-212.8" font-family="Helvetica,sans-Serif" font-size="11.00" fill="#000000">[table]</text>
<polygon fill="none" stroke="#000000" points="363,-182.7 363,-204.7 537,-204.7 537,-182.7 363,-182.7"/>
<image xlink:href="../../images/primaryKeys.png" width="11px" height="12px" preserveAspectRatio="xMinYMin meet" x="368" y="-199.7"/>
<text text-anchor="start" x="383" y="-189.8" font-family="Helvetica,sans-Serif" font-size="11.00" fill="#000000">id</text>
<polygon fill="#ffffff" stroke="transparent" points="363,-160.7 363,-182.7 537,-182.7 537,-160.7 363,-160.7"/>
<polygon fill="none" stroke="#000000" points="363,-160.7 363,-182.7 537,-182.7 537,-160.7 363,-160.7"/>
<image xlink:href="../../images/foreignKeys.png" width="11px" height="12px" preserveAspectRatio="xMinYMin meet" x="368" y="-177.7"/>
<text text-anchor="start" x="383" y="-167.8" font-family="Helvetica,sans-Serif" font-size="11.00" fill="#000000">gyms_has_users_gyms_id</text>
<polygon fill="#ffffff" stroke="transparent" points="363,-138.7 363,-160.7 537,-160.7 537,-138.7 363,-138.7"/>
<polygon fill="none" stroke="#000000" points="363,-138.7 363,-160.7 537,-160.7 537,-138.7 363,-138.7"/>
<image xlink:href="../../images/foreignKeys.png" width="11px" height="12px" preserveAspectRatio="xMinYMin meet" x="368" y="-155.7"/>
<text text-anchor="start" x="383" y="-145.8" font-family="Helvetica,sans-Serif" font-size="11.00" fill="#000000">gyms_has_users_users_id</text>
<polygon fill="none" stroke="#000000" points="363,-119.7 363,-138.7 537,-138.7 537,-119.7 363,-119.7"/>
<text text-anchor="start" x="366" y="-125.8" font-family="Helvetica,sans-Serif" font-size="11.00" fill="#000000">...</text>
<polygon fill="#ffffff" stroke="transparent" points="363,-100.7 363,-119.7 431,-119.7 431,-100.7 363,-100.7"/>
<polygon fill="none" stroke="#000000" points="363,-100.7 363,-119.7 431,-119.7 431,-100.7 363,-100.7"/>
<text text-anchor="start" x="366" y="-106.8" font-family="Helvetica,sans-Serif" font-size="11.00" fill="#000000">&lt; 2</text>
<polygon fill="#ffffff" stroke="transparent" points="431,-100.7 431,-119.7 492,-119.7 492,-100.7 431,-100.7"/>
<polygon fill="none" stroke="#000000" points="431,-100.7 431,-119.7 492,-119.7 492,-100.7 431,-100.7"/>
<text text-anchor="start" x="456.6105" y="-106.8" font-family="Helvetica,sans-Serif" font-size="11.00" fill="#000000">0 rows</text>
<polygon fill="#ffffff" stroke="transparent" points="492,-100.7 492,-119.7 537,-119.7 537,-100.7 492,-100.7"/>
<polygon fill="none" stroke="#000000" points="492,-100.7 492,-119.7 537,-119.7 537,-100.7 492,-100.7"/>
<text text-anchor="start" x="518.4053" y="-106.8" font-family="Helvetica,sans-Serif" font-size="11.00" fill="#000000">4 &gt;</text>
</a>
</g>
</g>
<!-- gyms_has_users -->
<g id="node2" class="node">
<title>gyms_has_users</title>
<g id="a_node2"><a xlink:href="../../tables/gyms_has_users.html" xlink:title="gyms_has_users" target="_top">
<polygon fill="#ffffff" stroke="transparent" points="142,-117.7 142,-207.7 314,-207.7 314,-117.7 142,-117.7"/>
<polygon fill="#f5f5f5" stroke="transparent" points="144,-182.7 144,-205.7 312,-205.7 312,-182.7 144,-182.7"/>
<polygon fill="none" stroke="#000000" points="144,-182.7 144,-205.7 312,-205.7 312,-182.7 144,-182.7"/>
<text text-anchor="start" x="149" y="-191.8" font-family="Helvetica,sans-Serif" font-weight="bold" font-size="11.00" fill="#000000">gyms_has_users</text>
<text text-anchor="start" x="277.0437" y="-190.8" font-family="Helvetica,sans-Serif" font-size="11.00" fill="#000000">[table]</text>
<polygon fill="none" stroke="#000000" points="144,-160.7 144,-182.7 262,-182.7 262,-160.7 144,-160.7"/>
<image xlink:href="../../images/primaryKeys.png" width="11px" height="12px" preserveAspectRatio="xMinYMin meet" x="149" y="-177.7"/>
<text text-anchor="start" x="164" y="-167.8" font-family="Helvetica,sans-Serif" font-size="11.00" fill="#000000">gym_id</text>
<polygon fill="none" stroke="#000000" points="262,-160.7 262,-182.7 312,-182.7 312,-160.7 262,-160.7"/>
<text text-anchor="start" x="264.6865" y="-168.4" font-family="Helvetica,sans-Serif" font-size="11.00" fill="#000000">bigint[19]</text>
<polygon fill="none" stroke="#000000" points="144,-138.7 144,-160.7 262,-160.7 262,-138.7 144,-138.7"/>
<image xlink:href="../../images/primaryKeys.png" width="11px" height="12px" preserveAspectRatio="xMinYMin meet" x="149" y="-155.7"/>
<text text-anchor="start" x="164" y="-145.8" font-family="Helvetica,sans-Serif" font-size="11.00" fill="#000000">user_id</text>
<polygon fill="none" stroke="#000000" points="262,-138.7 262,-160.7 312,-160.7 312,-138.7 262,-138.7"/>
<text text-anchor="start" x="265" y="-146.4" font-family="Helvetica,sans-Serif" font-size="11.00" fill="#000000">int[10]</text>
<polygon fill="#ffffff" stroke="transparent" points="144,-119.7 144,-138.7 194,-138.7 194,-119.7 144,-119.7"/>
<polygon fill="none" stroke="#000000" points="144,-119.7 144,-138.7 194,-138.7 194,-119.7 144,-119.7"/>
<text text-anchor="start" x="147" y="-125.8" font-family="Helvetica,sans-Serif" font-size="11.00" fill="#000000">&lt; 2</text>
<polygon fill="#ffffff" stroke="transparent" points="194,-119.7 194,-138.7 262,-138.7 262,-119.7 194,-119.7"/>
<polygon fill="none" stroke="#000000" points="194,-119.7 194,-138.7 262,-138.7 262,-119.7 194,-119.7"/>
<text text-anchor="start" x="226.6105" y="-125.8" font-family="Helvetica,sans-Serif" font-size="11.00" fill="#000000">0 rows</text>
<polygon fill="#ffffff" stroke="transparent" points="262,-119.7 262,-138.7 312,-138.7 312,-119.7 262,-119.7"/>
<polygon fill="none" stroke="#000000" points="262,-119.7 262,-138.7 312,-138.7 312,-119.7 262,-119.7"/>
<text text-anchor="start" x="293.4053" y="-125.8" font-family="Helvetica,sans-Serif" font-size="11.00" fill="#000000">2 &gt;</text>
<polygon fill="none" stroke="#000000" stroke-width="2" points="143,-118.7 143,-206.7 313,-206.7 313,-118.7 143,-118.7"/>
</a>
</g>
</g>
<!-- gymnasts&#45;&gt;gyms_has_users -->
<g id="edge1" class="edge">
<title>gymnasts:w&#45;&gt;gyms_has_users:e</title>
<path fill="none" stroke="#000000" d="M348.276,-171.7C336.2815,-171.7 328.8229,-171.7 312,-171.7"/>
<polygon fill="#000000" stroke="#000000" points="355,-171.7001 363,-175.3 359,-171.7 363,-171.7 363,-171.7 363,-171.7 359,-171.7 363,-168.1 355,-171.7001 355,-171.7001"/>
<ellipse fill="none" stroke="#000000" cx="351.8" cy="-171.7001" rx="3.2" ry="3.2"/>
</g>
<!-- gymnasts&#45;&gt;gyms_has_users -->
<g id="edge2" class="edge">
<title>gymnasts:w&#45;&gt;gyms_has_users:e</title>
<path fill="none" stroke="#000000" d="M348.276,-149.7C336.2815,-149.7 328.8229,-149.7 312,-149.7"/>
<polygon fill="#000000" stroke="#000000" points="355,-149.7001 363,-153.3 359,-149.7 363,-149.7 363,-149.7 363,-149.7 359,-149.7 363,-146.1 355,-149.7001 355,-149.7001"/>
<ellipse fill="none" stroke="#000000" cx="351.8" cy="-149.7001" rx="3.2" ry="3.2"/>
</g>
<!-- gyms -->
<g id="node3" class="node">
<title>gyms</title>
<g id="a_node3"><a xlink:href="../../tables/gyms.html" xlink:title="gyms" target="_top">
<polygon fill="#ffffff" stroke="transparent" points="8,-164.2 8,-247.2 93,-247.2 93,-164.2 8,-164.2"/>
<polygon fill="#f5f5f5" stroke="transparent" points="8.5,-223.7 8.5,-246.7 93.5,-246.7 93.5,-223.7 8.5,-223.7"/>
<polygon fill="none" stroke="#000000" points="8.5,-223.7 8.5,-246.7 93.5,-246.7 93.5,-223.7 8.5,-223.7"/>
<text text-anchor="start" x="13.5" y="-232.8" font-family="Helvetica,sans-Serif" font-weight="bold" font-size="11.00" fill="#000000">gyms</text>
<text text-anchor="start" x="58.5437" y="-231.8" font-family="Helvetica,sans-Serif" font-size="11.00" fill="#000000">[table]</text>
<polygon fill="none" stroke="#000000" points="8.5,-201.7 8.5,-223.7 93.5,-223.7 93.5,-201.7 8.5,-201.7"/>
<image xlink:href="../../images/primaryKeys.png" width="11px" height="12px" preserveAspectRatio="xMinYMin meet" x="13.5" y="-218.7"/>
<text text-anchor="start" x="28.5" y="-208.8" font-family="Helvetica,sans-Serif" font-size="11.00" fill="#000000">id</text>
<polygon fill="none" stroke="#000000" points="8.5,-182.7 8.5,-201.7 93.5,-201.7 93.5,-182.7 8.5,-182.7"/>
<text text-anchor="start" x="11.5" y="-188.8" font-family="Helvetica,sans-Serif" font-size="11.00" fill="#000000">...</text>
<polygon fill="#ffffff" stroke="transparent" points="8.5,-163.7 8.5,-182.7 27.5,-182.7 27.5,-163.7 8.5,-163.7"/>
<polygon fill="none" stroke="#000000" points="8.5,-163.7 8.5,-182.7 27.5,-182.7 27.5,-163.7 8.5,-163.7"/>
<text text-anchor="start" x="11.5" y="-169.8" font-family="Helvetica,sans-Serif" font-size="11.00" fill="#000000"> &#160;</text>
<polygon fill="#ffffff" stroke="transparent" points="27.5,-163.7 27.5,-182.7 68.5,-182.7 68.5,-163.7 27.5,-163.7"/>
<polygon fill="none" stroke="#000000" points="27.5,-163.7 27.5,-182.7 68.5,-182.7 68.5,-163.7 27.5,-163.7"/>
<text text-anchor="start" x="33.1105" y="-169.8" font-family="Helvetica,sans-Serif" font-size="11.00" fill="#000000">0 rows</text>
<polygon fill="#ffffff" stroke="transparent" points="68.5,-163.7 68.5,-182.7 93.5,-182.7 93.5,-163.7 68.5,-163.7"/>
<polygon fill="none" stroke="#000000" points="68.5,-163.7 68.5,-182.7 93.5,-182.7 93.5,-163.7 68.5,-163.7"/>
<text text-anchor="start" x="74.9053" y="-169.8" font-family="Helvetica,sans-Serif" font-size="11.00" fill="#000000">2 &gt;</text>
</a>
</g>
</g>
<!-- gyms_has_users&#45;&gt;gyms -->
<g id="edge3" class="edge">
<title>gyms_has_users:w&#45;&gt;gyms:e</title>
<path fill="none" stroke="#000000" d="M130.2601,-176.0877C116.5688,-186.6646 116.5379,-212.7 93.5,-212.7"/>
<polygon fill="#000000" stroke="#000000" points="136.3792,-174.1337 145.0952,-175.1294 140.1896,-172.9168 144,-171.7 144,-171.7 144,-171.7 140.1896,-172.9168 142.9048,-168.2706 136.3792,-174.1337 136.3792,-174.1337"/>
<ellipse fill="none" stroke="#000000" cx="133.3308" cy="-175.1072" rx="3.2" ry="3.2"/>
</g>
<!-- users -->
<g id="node4" class="node">
<title>users</title>
<g id="a_node4"><a xlink:href="../../tables/users.html" xlink:title="users" target="_top">
<polygon fill="#ffffff" stroke="transparent" points="8,-38.2 8,-143.2 93,-143.2 93,-38.2 8,-38.2"/>
<polygon fill="#f5f5f5" stroke="transparent" points="8.5,-119.7 8.5,-142.7 93.5,-142.7 93.5,-119.7 8.5,-119.7"/>
<polygon fill="none" stroke="#000000" points="8.5,-119.7 8.5,-142.7 93.5,-142.7 93.5,-119.7 8.5,-119.7"/>
<text text-anchor="start" x="13.5" y="-128.8" font-family="Helvetica,sans-Serif" font-weight="bold" font-size="11.00" fill="#000000">users</text>
<text text-anchor="start" x="58.5437" y="-127.8" font-family="Helvetica,sans-Serif" font-size="11.00" fill="#000000">[table]</text>
<polygon fill="none" stroke="#000000" points="8.5,-97.7 8.5,-119.7 93.5,-119.7 93.5,-97.7 8.5,-97.7"/>
<image xlink:href="../../images/primaryKeys.png" width="11px" height="12px" preserveAspectRatio="xMinYMin meet" x="13.5" y="-114.7"/>
<text text-anchor="start" x="28.5" y="-104.8" font-family="Helvetica,sans-Serif" font-size="11.00" fill="#000000">id</text>
<polygon fill="#ffffff" stroke="transparent" points="8.5,-75.7 8.5,-97.7 93.5,-97.7 93.5,-75.7 8.5,-75.7"/>
<polygon fill="none" stroke="#000000" points="8.5,-75.7 8.5,-97.7 93.5,-97.7 93.5,-75.7 8.5,-75.7"/>
<text text-anchor="start" x="28.5" y="-82.8" font-family="Helvetica,sans-Serif" font-size="11.00" fill="#000000">email</text>
<polygon fill="none" stroke="#000000" points="8.5,-56.7 8.5,-75.7 93.5,-75.7 93.5,-56.7 8.5,-56.7"/>
<text text-anchor="start" x="11.5" y="-62.8" font-family="Helvetica,sans-Serif" font-size="11.00" fill="#000000">...</text>
<polygon fill="#ffffff" stroke="transparent" points="8.5,-37.7 8.5,-56.7 27.5,-56.7 27.5,-37.7 8.5,-37.7"/>
<polygon fill="none" stroke="#000000" points="8.5,-37.7 8.5,-56.7 27.5,-56.7 27.5,-37.7 8.5,-37.7"/>
<text text-anchor="start" x="11.5" y="-43.8" font-family="Helvetica,sans-Serif" font-size="11.00" fill="#000000"> &#160;</text>
<polygon fill="#ffffff" stroke="transparent" points="27.5,-37.7 27.5,-56.7 68.5,-56.7 68.5,-37.7 27.5,-37.7"/>
<polygon fill="none" stroke="#000000" points="27.5,-37.7 27.5,-56.7 68.5,-56.7 68.5,-37.7 27.5,-37.7"/>
<text text-anchor="start" x="33.1105" y="-43.8" font-family="Helvetica,sans-Serif" font-size="11.00" fill="#000000">0 rows</text>
<polygon fill="#ffffff" stroke="transparent" points="68.5,-37.7 68.5,-56.7 93.5,-56.7 93.5,-37.7 68.5,-37.7"/>
<polygon fill="none" stroke="#000000" points="68.5,-37.7 68.5,-56.7 93.5,-56.7 93.5,-37.7 68.5,-37.7"/>
<text text-anchor="start" x="74.9053" y="-43.8" font-family="Helvetica,sans-Serif" font-size="11.00" fill="#000000">2 &gt;</text>
</a>
</g>
</g>
<!-- gyms_has_users&#45;&gt;users -->
<g id="edge4" class="edge">
<title>gyms_has_users:w&#45;&gt;users:e</title>
<path fill="none" stroke="#000000" d="M130.2601,-145.3123C116.5688,-134.7354 116.5379,-108.7 93.5,-108.7"/>
<polygon fill="#000000" stroke="#000000" points="136.3792,-147.2663 142.9048,-153.1294 140.1896,-148.4832 144,-149.7 144,-149.7 144,-149.7 140.1896,-148.4832 145.0952,-146.2706 136.3792,-147.2663 136.3792,-147.2663"/>
<ellipse fill="none" stroke="#000000" cx="133.3308" cy="-146.2928" rx="3.2" ry="3.2"/>
</g>
</g>
</svg>
