<?xml version="1.0" encoding="UTF-8" standalone="no"?>
<!DOCTYPE svg PUBLIC "-//W3C//DTD SVG 1.1//EN"
 "http://www.w3.org/Graphics/SVG/1.1/DTD/svg11.dtd">
<!-- Generated by graphviz version 2.40.1 (20161225.0304)
 -->
<!-- Title: oneDegreeRelationshipsDiagram Pages: 1 -->
<svg width="381pt" height="537pt"
 viewBox="0.00 0.00 381.00 537.20" xmlns="http://www.w3.org/2000/svg" xmlns:xlink="http://www.w3.org/1999/xlink">
<g id="graph0" class="graph" transform="scale(1 1) rotate(0) translate(4 533.2)">
<title>oneDegreeRelationshipsDiagram</title>
<polygon fill="#ffffff" stroke="transparent" points="-4,4 -4,-533.2 377,-533.2 377,4 -4,4"/>
<text text-anchor="middle" x="72.4936" y="-7.3" font-family="Helvetica,sans-Serif" font-size="11.00" fill="#000000">Generated by SchemaSpy</text>
<!-- challenges -->
<g id="node1" class="node">
<title>challenges</title>
<g id="a_node1"><a xlink:href="../../tables/challenges.html" xlink:title="challenges" target="_top">
<polygon fill="#ffffff" stroke="transparent" points="252.5,-398.2 252.5,-525.2 351.5,-525.2 351.5,-398.2 252.5,-398.2"/>
<polygon fill="#f5f5f5" stroke="transparent" points="253,-501.7 253,-524.7 352,-524.7 352,-501.7 253,-501.7"/>
<polygon fill="none" stroke="#000000" points="253,-501.7 253,-524.7 352,-524.7 352,-501.7 253,-501.7"/>
<text text-anchor="start" x="258" y="-510.8" font-family="Helvetica,sans-Serif" font-weight="bold" font-size="11.00" fill="#000000">challenges</text>
<text text-anchor="start" x="317.0437" y="-509.8" font-family="Helvetica,sans-Serif" font-size="11.00" fill="#000000">[table]</text>
<polygon fill="none" stroke="#000000" points="253,-479.7 253,-501.7 352,-501.7 352,-479.7 253,-479.7"/>
<image xlink:href="../../images/primaryKeys.png" width="11px" height="12px" preserveAspectRatio="xMinYMin meet" x="258" y="-496.7"/>
<text text-anchor="start" x="273" y="-486.8" font-family="Helvetica,sans-Serif" font-size="11.00" fill="#000000">id</text>
<polygon fill="#ffffff" stroke="transparent" points="253,-457.7 253,-479.7 352,-479.7 352,-457.7 253,-457.7"/>
<polygon fill="none" stroke="#000000" points="253,-457.7 253,-479.7 352,-479.7 352,-457.7 253,-457.7"/>
<image xlink:href="../../images/foreignKeys.png" width="11px" height="12px" preserveAspectRatio="xMinYMin meet" x="258" y="-474.7"/>
<text text-anchor="start" x="273" y="-464.8" font-family="Helvetica,sans-Serif" font-size="11.00" fill="#000000">gym_id</text>
<polygon fill="#ffffff" stroke="transparent" points="253,-435.7 253,-457.7 352,-457.7 352,-435.7 253,-435.7"/>
<polygon fill="none" stroke="#000000" points="253,-435.7 253,-457.7 352,-457.7 352,-435.7 253,-435.7"/>
<image xlink:href="../../images/foreignKeys.png" width="11px" height="12px" preserveAspectRatio="xMinYMin meet" x="258" y="-452.7"/>
<text text-anchor="start" x="273" y="-442.8" font-family="Helvetica,sans-Serif" font-size="11.00" fill="#000000">class_id</text>
<polygon fill="none" stroke="#000000" points="253,-416.7 253,-435.7 352,-435.7 352,-416.7 253,-416.7"/>
<text text-anchor="start" x="256" y="-422.8" font-family="Helvetica,sans-Serif" font-size="11.00" fill="#000000">...</text>
<polygon fill="#ffffff" stroke="transparent" points="253,-397.7 253,-416.7 283,-416.7 283,-397.7 253,-397.7"/>
<polygon fill="none" stroke="#000000" points="253,-397.7 253,-416.7 283,-416.7 283,-397.7 253,-397.7"/>
<text text-anchor="start" x="256" y="-403.8" font-family="Helvetica,sans-Serif" font-size="11.00" fill="#000000">&lt; 2</text>
<polygon fill="#ffffff" stroke="transparent" points="283,-397.7 283,-416.7 326,-416.7 326,-397.7 283,-397.7"/>
<polygon fill="none" stroke="#000000" points="283,-397.7 283,-416.7 326,-416.7 326,-397.7 283,-397.7"/>
<text text-anchor="start" x="290.6105" y="-403.8" font-family="Helvetica,sans-Serif" font-size="11.00" fill="#000000">0 rows</text>
<polygon fill="#ffffff" stroke="transparent" points="326,-397.7 326,-416.7 352,-416.7 352,-397.7 326,-397.7"/>
<polygon fill="none" stroke="#000000" points="326,-397.7 326,-416.7 352,-416.7 352,-397.7 326,-397.7"/>
<text text-anchor="start" x="333.4053" y="-403.8" font-family="Helvetica,sans-Serif" font-size="11.00" fill="#000000">2 &gt;</text>
</a>
</g>
</g>
<!-- gyms -->
<g id="node2" class="node">
<title>gyms</title>
<g id="a_node2"><a xlink:href="../../tables/gyms.html" xlink:title="gyms" target="_top">
<polygon fill="#ffffff" stroke="transparent" points="8,-104.7 8,-304.7 190,-304.7 190,-104.7 8,-104.7"/>
<polygon fill="#f5f5f5" stroke="transparent" points="10,-279.7 10,-302.7 188,-302.7 188,-279.7 10,-279.7"/>
<polygon fill="none" stroke="#000000" points="10,-279.7 10,-302.7 188,-302.7 188,-279.7 10,-279.7"/>
<text text-anchor="start" x="15" y="-288.8" font-family="Helvetica,sans-Serif" font-weight="bold" font-size="11.00" fill="#000000">gyms</text>
<text text-anchor="start" x="153.0437" y="-287.8" font-family="Helvetica,sans-Serif" font-size="11.00" fill="#000000">[table]</text>
<polygon fill="none" stroke="#000000" points="10,-257.7 10,-279.7 95,-279.7 95,-257.7 10,-257.7"/>
<image xlink:href="../../images/primaryKeys.png" width="11px" height="12px" preserveAspectRatio="xMinYMin meet" x="15" y="-274.7"/>
<text text-anchor="start" x="30" y="-264.8" font-family="Helvetica,sans-Serif" font-size="11.00" fill="#000000">id</text>
<polygon fill="none" stroke="#000000" points="95,-257.7 95,-279.7 188,-279.7 188,-257.7 95,-257.7"/>
<text text-anchor="start" x="98" y="-265.4" font-family="Helvetica,sans-Serif" font-size="11.00" fill="#000000">bigint[19]</text>
<polygon fill="none" stroke="#000000" points="10,-235.7 10,-257.7 95,-257.7 95,-235.7 10,-235.7"/>
<text text-anchor="start" x="30" y="-242.8" font-family="Helvetica,sans-Serif" font-size="11.00" fill="#000000">name</text>
<polygon fill="none" stroke="#000000" points="95,-235.7 95,-257.7 188,-257.7 188,-235.7 95,-235.7"/>
<text text-anchor="start" x="98" y="-243.4" font-family="Helvetica,sans-Serif" font-size="11.00" fill="#000000">varchar[45]</text>
<polygon fill="none" stroke="#000000" points="10,-213.7 10,-235.7 95,-235.7 95,-213.7 10,-213.7"/>
<text text-anchor="start" x="30" y="-220.8" font-family="Helvetica,sans-Serif" font-size="11.00" fill="#000000">description</text>
<polygon fill="none" stroke="#000000" points="95,-213.7 95,-235.7 188,-235.7 188,-213.7 95,-213.7"/>
<text text-anchor="start" x="98" y="-221.4" font-family="Helvetica,sans-Serif" font-size="11.00" fill="#000000">varchar[45]</text>
<polygon fill="none" stroke="#000000" points="10,-191.7 10,-213.7 95,-213.7 95,-191.7 10,-191.7"/>
<text text-anchor="start" x="30" y="-198.8" font-family="Helvetica,sans-Serif" font-size="11.00" fill="#000000">settings</text>
<polygon fill="none" stroke="#000000" points="95,-191.7 95,-213.7 188,-213.7 188,-191.7 95,-191.7"/>
<text text-anchor="start" x="97.7833" y="-199.4" font-family="Helvetica,sans-Serif" font-size="11.00" fill="#000000">json[1073741824]</text>
<polygon fill="none" stroke="#000000" points="10,-169.7 10,-191.7 95,-191.7 95,-169.7 10,-169.7"/>
<text text-anchor="start" x="30" y="-176.8" font-family="Helvetica,sans-Serif" font-size="11.00" fill="#000000">created_at</text>
<polygon fill="none" stroke="#000000" points="95,-169.7 95,-191.7 188,-191.7 188,-169.7 95,-169.7"/>
<text text-anchor="start" x="98" y="-177.4" font-family="Helvetica,sans-Serif" font-size="11.00" fill="#000000">timestamp[19]</text>
<polygon fill="none" stroke="#000000" points="10,-147.7 10,-169.7 95,-169.7 95,-147.7 10,-147.7"/>
<text text-anchor="start" x="30" y="-154.8" font-family="Helvetica,sans-Serif" font-size="11.00" fill="#000000">updated_at</text>
<polygon fill="none" stroke="#000000" points="95,-147.7 95,-169.7 188,-169.7 188,-147.7 95,-147.7"/>
<text text-anchor="start" x="98" y="-155.4" font-family="Helvetica,sans-Serif" font-size="11.00" fill="#000000">timestamp[19]</text>
<polygon fill="none" stroke="#000000" points="10,-125.7 10,-147.7 95,-147.7 95,-125.7 10,-125.7"/>
<text text-anchor="start" x="30" y="-132.8" font-family="Helvetica,sans-Serif" font-size="11.00" fill="#000000">deleted_at</text>
<polygon fill="none" stroke="#000000" points="95,-125.7 95,-147.7 188,-147.7 188,-125.7 95,-125.7"/>
<text text-anchor="start" x="98" y="-133.4" font-family="Helvetica,sans-Serif" font-size="11.00" fill="#000000">timestamp[19]</text>
<polygon fill="#ffffff" stroke="transparent" points="10,-106.7 10,-125.7 44,-125.7 44,-106.7 10,-106.7"/>
<polygon fill="none" stroke="#000000" points="10,-106.7 10,-125.7 44,-125.7 44,-106.7 10,-106.7"/>
<text text-anchor="start" x="13" y="-112.8" font-family="Helvetica,sans-Serif" font-size="11.00" fill="#000000">&lt; 0</text>
<polygon fill="#ffffff" stroke="transparent" points="44,-106.7 44,-125.7 95,-125.7 95,-106.7 44,-106.7"/>
<polygon fill="none" stroke="#000000" points="44,-106.7 44,-125.7 95,-125.7 95,-106.7 44,-106.7"/>
<text text-anchor="start" x="59.6105" y="-112.8" font-family="Helvetica,sans-Serif" font-size="11.00" fill="#000000">0 rows</text>
<polygon fill="#ffffff" stroke="transparent" points="95,-106.7 95,-125.7 188,-125.7 188,-106.7 95,-106.7"/>
<polygon fill="none" stroke="#000000" points="95,-106.7 95,-125.7 188,-125.7 188,-106.7 95,-106.7"/>
<text text-anchor="start" x="169.4053" y="-112.8" font-family="Helvetica,sans-Serif" font-size="11.00" fill="#000000">4 &gt;</text>
<polygon fill="none" stroke="#000000" stroke-width="2" points="9,-105.7 9,-303.7 189,-303.7 189,-105.7 9,-105.7"/>
</a>
</g>
</g>
<!-- challenges&#45;&gt;gyms -->
<g id="edge1" class="edge">
<title>challenges:w&#45;&gt;gyms:e</title>
<path fill="none" stroke="#000000" d="M238.7024,-466.7205C173.0838,-445.9491 275.989,-268.7 188,-268.7"/>
<polygon fill="#000000" stroke="#000000" points="245.0756,-467.6028 252.5063,-472.266 249.0378,-468.1514 253,-468.7 253,-468.7 253,-468.7 249.0378,-468.1514 253.4937,-465.134 245.0756,-467.6028 245.0756,-467.6028"/>
<ellipse fill="none" stroke="#000000" cx="241.9058" cy="-467.164" rx="3.2" ry="3.2"/>
</g>
<!-- events -->
<g id="node3" class="node">
<title>events</title>
<g id="a_node3"><a xlink:href="../../tables/events.html" xlink:title="events" target="_top">
<polygon fill="#ffffff" stroke="transparent" points="259.5,-272.2 259.5,-377.2 344.5,-377.2 344.5,-272.2 259.5,-272.2"/>
<polygon fill="#f5f5f5" stroke="transparent" points="260,-353.7 260,-376.7 345,-376.7 345,-353.7 260,-353.7"/>
<polygon fill="none" stroke="#000000" points="260,-353.7 260,-376.7 345,-376.7 345,-353.7 260,-353.7"/>
<text text-anchor="start" x="265" y="-362.8" font-family="Helvetica,sans-Serif" font-weight="bold" font-size="11.00" fill="#000000">events</text>
<text text-anchor="start" x="310.0437" y="-361.8" font-family="Helvetica,sans-Serif" font-size="11.00" fill="#000000">[table]</text>
<polygon fill="none" stroke="#000000" points="260,-331.7 260,-353.7 345,-353.7 345,-331.7 260,-331.7"/>
<image xlink:href="../../images/primaryKeys.png" width="11px" height="12px" preserveAspectRatio="xMinYMin meet" x="265" y="-348.7"/>
<text text-anchor="start" x="280" y="-338.8" font-family="Helvetica,sans-Serif" font-size="11.00" fill="#000000">id</text>
<polygon fill="#ffffff" stroke="transparent" points="260,-309.7 260,-331.7 345,-331.7 345,-309.7 260,-309.7"/>
<polygon fill="none" stroke="#000000" points="260,-309.7 260,-331.7 345,-331.7 345,-309.7 260,-309.7"/>
<image xlink:href="../../images/foreignKeys.png" width="11px" height="12px" preserveAspectRatio="xMinYMin meet" x="265" y="-326.7"/>
<text text-anchor="start" x="280" y="-316.8" font-family="Helvetica,sans-Serif" font-size="11.00" fill="#000000">gym_id</text>
<polygon fill="none" stroke="#000000" points="260,-290.7 260,-309.7 345,-309.7 345,-290.7 260,-290.7"/>
<text text-anchor="start" x="263" y="-296.8" font-family="Helvetica,sans-Serif" font-size="11.00" fill="#000000">...</text>
<polygon fill="#ffffff" stroke="transparent" points="260,-271.7 260,-290.7 283,-290.7 283,-271.7 260,-271.7"/>
<polygon fill="none" stroke="#000000" points="260,-271.7 260,-290.7 283,-290.7 283,-271.7 260,-271.7"/>
<text text-anchor="start" x="263" y="-277.8" font-family="Helvetica,sans-Serif" font-size="11.00" fill="#000000">&lt; 1</text>
<polygon fill="#ffffff" stroke="transparent" points="283,-271.7 283,-290.7 322,-290.7 322,-271.7 283,-271.7"/>
<polygon fill="none" stroke="#000000" points="283,-271.7 283,-290.7 322,-290.7 322,-271.7 283,-271.7"/>
<text text-anchor="start" x="286.6105" y="-277.8" font-family="Helvetica,sans-Serif" font-size="11.00" fill="#000000">0 rows</text>
<polygon fill="#ffffff" stroke="transparent" points="322,-271.7 322,-290.7 345,-290.7 345,-271.7 322,-271.7"/>
<polygon fill="none" stroke="#000000" points="322,-271.7 322,-290.7 345,-290.7 345,-271.7 322,-271.7"/>
<text text-anchor="start" x="326.4053" y="-277.8" font-family="Helvetica,sans-Serif" font-size="11.00" fill="#000000">1 &gt;</text>
</a>
</g>
</g>
<!-- events&#45;&gt;gyms -->
<g id="edge2" class="edge">
<title>events:w&#45;&gt;gyms:e</title>
<path fill="none" stroke="#000000" d="M245.843,-317.9043C221.5626,-307.1033 221.9222,-268.7 188,-268.7"/>
<polygon fill="#000000" stroke="#000000" points="252.1516,-319.15 259.3025,-324.2318 256.0758,-319.925 260,-320.7 260,-320.7 260,-320.7 256.0758,-319.925 260.6975,-317.1682 252.1516,-319.15 252.1516,-319.15"/>
<ellipse fill="none" stroke="#000000" cx="249.0122" cy="-318.5301" rx="3.2" ry="3.2"/>
</g>
<!-- gyms_has_users -->
<g id="node4" class="node">
<title>gyms_has_users</title>
<g id="a_node4"><a xlink:href="../../tables/gyms_has_users.html" xlink:title="gyms_has_users" target="_top">
<polygon fill="#ffffff" stroke="transparent" points="239,-164.7 239,-250.7 365,-250.7 365,-164.7 239,-164.7"/>
<polygon fill="#f5f5f5" stroke="transparent" points="239,-227.7 239,-250.7 365,-250.7 365,-227.7 239,-227.7"/>
<polygon fill="none" stroke="#000000" points="239,-227.7 239,-250.7 365,-250.7 365,-227.7 239,-227.7"/>
<text text-anchor="start" x="243.936" y="-236.8" font-family="Helvetica,sans-Serif" font-weight="bold" font-size="11.00" fill="#000000">gyms_has_users</text>
<text text-anchor="start" x="330.5219" y="-235.8" font-family="Helvetica,sans-Serif" font-size="11.00" fill="#000000">[table]</text>
<polygon fill="none" stroke="#000000" points="239,-205.7 239,-227.7 365,-227.7 365,-205.7 239,-205.7"/>
<image xlink:href="../../images/primaryKeys.png" width="11px" height="12px" preserveAspectRatio="xMinYMin meet" x="244" y="-222.7"/>
<text text-anchor="start" x="263" y="-212.8" font-family="Helvetica,sans-Serif" font-size="11.00" fill="#000000">gym_id</text>
<polygon fill="none" stroke="#000000" points="239,-183.7 239,-205.7 365,-205.7 365,-183.7 239,-183.7"/>
<image xlink:href="../../images/primaryKeys.png" width="11px" height="12px" preserveAspectRatio="xMinYMin meet" x="244" y="-200.7"/>
<text text-anchor="start" x="263" y="-190.8" font-family="Helvetica,sans-Serif" font-size="11.00" fill="#000000">user_id</text>
<polygon fill="#ffffff" stroke="transparent" points="239,-164.7 239,-183.7 283,-183.7 283,-164.7 239,-164.7"/>
<polygon fill="none" stroke="#000000" points="239,-164.7 239,-183.7 283,-183.7 283,-164.7 239,-164.7"/>
<text text-anchor="start" x="242" y="-170.8" font-family="Helvetica,sans-Serif" font-size="11.00" fill="#000000">&lt; 2</text>
<polygon fill="#ffffff" stroke="transparent" points="283,-164.7 283,-183.7 332,-183.7 332,-164.7 283,-164.7"/>
<polygon fill="none" stroke="#000000" points="283,-164.7 283,-183.7 332,-183.7 332,-164.7 283,-164.7"/>
<text text-anchor="start" x="296.6105" y="-170.8" font-family="Helvetica,sans-Serif" font-size="11.00" fill="#000000">0 rows</text>
<polygon fill="#ffffff" stroke="transparent" points="332,-164.7 332,-183.7 365,-183.7 365,-164.7 332,-164.7"/>
<polygon fill="none" stroke="#000000" points="332,-164.7 332,-183.7 365,-183.7 365,-164.7 332,-164.7"/>
<text text-anchor="start" x="346.4053" y="-170.8" font-family="Helvetica,sans-Serif" font-size="11.00" fill="#000000">2 &gt;</text>
</a>
</g>
</g>
<!-- gyms_has_users&#45;&gt;gyms -->
<g id="edge3" class="edge">
<title>gyms_has_users:w&#45;&gt;gyms:e</title>
<path fill="none" stroke="#000000" d="M225.0468,-221.4988C210.161,-234.3719 214.3017,-268.7 188,-268.7"/>
<polygon fill="#000000" stroke="#000000" points="231.4349,-219.3018 240.1708,-220.1043 235.2175,-218.0009 239,-216.7 239,-216.7 239,-216.7 235.2175,-218.0009 237.8292,-213.2957 231.4349,-219.3018 231.4349,-219.3018"/>
<ellipse fill="none" stroke="#000000" cx="228.4089" cy="-220.3426" rx="3.2" ry="3.2"/>
</g>
<!-- skill_lists -->
<g id="node5" class="node">
<title>skill_lists</title>
<g id="a_node5"><a xlink:href="../../tables/skill_lists.html" xlink:title="skill_lists" target="_top">
<polygon fill="#ffffff" stroke="transparent" points="259,-38.2 259,-143.2 345,-143.2 345,-38.2 259,-38.2"/>
<polygon fill="#f5f5f5" stroke="transparent" points="259,-119.7 259,-142.7 345,-142.7 345,-119.7 259,-119.7"/>
<polygon fill="none" stroke="#000000" points="259,-119.7 259,-142.7 345,-142.7 345,-119.7 259,-119.7"/>
<text text-anchor="start" x="263.8119" y="-128.8" font-family="Helvetica,sans-Serif" font-weight="bold" font-size="11.00" fill="#000000">skill_lists</text>
<text text-anchor="start" x="310.5219" y="-127.8" font-family="Helvetica,sans-Serif" font-size="11.00" fill="#000000">[table]</text>
<polygon fill="none" stroke="#000000" points="259,-97.7 259,-119.7 345,-119.7 345,-97.7 259,-97.7"/>
<image xlink:href="../../images/primaryKeys.png" width="11px" height="12px" preserveAspectRatio="xMinYMin meet" x="264" y="-114.7"/>
<text text-anchor="start" x="280" y="-104.8" font-family="Helvetica,sans-Serif" font-size="11.00" fill="#000000">id</text>
<polygon fill="#ffffff" stroke="transparent" points="259,-75.7 259,-97.7 345,-97.7 345,-75.7 259,-75.7"/>
<polygon fill="none" stroke="#000000" points="259,-75.7 259,-97.7 345,-97.7 345,-75.7 259,-75.7"/>
<image xlink:href="../../images/foreignKeys.png" width="11px" height="12px" preserveAspectRatio="xMinYMin meet" x="264" y="-92.7"/>
<text text-anchor="start" x="280" y="-82.8" font-family="Helvetica,sans-Serif" font-size="11.00" fill="#000000">gym_id</text>
<polygon fill="none" stroke="#000000" points="259,-56.7 259,-75.7 345,-75.7 345,-56.7 259,-56.7"/>
<text text-anchor="start" x="262" y="-62.8" font-family="Helvetica,sans-Serif" font-size="11.00" fill="#000000">...</text>
<polygon fill="#ffffff" stroke="transparent" points="259,-37.7 259,-56.7 283,-56.7 283,-37.7 259,-37.7"/>
<polygon fill="none" stroke="#000000" points="259,-37.7 259,-56.7 283,-56.7 283,-37.7 259,-37.7"/>
<text text-anchor="start" x="262" y="-43.8" font-family="Helvetica,sans-Serif" font-size="11.00" fill="#000000">&lt; 1</text>
<polygon fill="#ffffff" stroke="transparent" points="283,-37.7 283,-56.7 322,-56.7 322,-37.7 283,-37.7"/>
<polygon fill="none" stroke="#000000" points="283,-37.7 283,-56.7 322,-56.7 322,-37.7 283,-37.7"/>
<text text-anchor="start" x="286.6105" y="-43.8" font-family="Helvetica,sans-Serif" font-size="11.00" fill="#000000">0 rows</text>
<polygon fill="#ffffff" stroke="transparent" points="322,-37.7 322,-56.7 345,-56.7 345,-37.7 322,-37.7"/>
<polygon fill="none" stroke="#000000" points="322,-37.7 322,-56.7 345,-56.7 345,-37.7 322,-37.7"/>
<text text-anchor="start" x="326.4053" y="-43.8" font-family="Helvetica,sans-Serif" font-size="11.00" fill="#000000">2 &gt;</text>
</a>
</g>
</g>
<!-- skill_lists&#45;&gt;gyms -->
<g id="edge4" class="edge">
<title>skill_lists:w&#45;&gt;gyms:e</title>
<path fill="none" stroke="#000000" d="M244.4713,-88.8707C184.6193,-109.4049 269.2299,-268.7 188,-268.7"/>
<polygon fill="#000000" stroke="#000000" points="251.0878,-87.8822 259.532,-90.2605 255.0439,-87.2911 259,-86.7 259,-86.7 259,-86.7 255.0439,-87.2911 258.468,-83.1395 251.0878,-87.8822 251.0878,-87.8822"/>
<ellipse fill="none" stroke="#000000" cx="247.923" cy="-88.3551" rx="3.2" ry="3.2"/>
</g>
</g>
</svg>
