<?xml version="1.0" encoding="UTF-8" standalone="no"?>
<!DOCTYPE svg PUBLIC "-//W3C//DTD SVG 1.1//EN"
 "http://www.w3.org/Graphics/SVG/1.1/DTD/svg11.dtd">
<!-- Generated by graphviz version 2.40.1 (20161225.0304)
 -->
<!-- Title: twoDegreesRelationshipsDiagram Pages: 1 -->
<svg width="520pt" height="333pt"
 viewBox="0.00 0.00 520.00 332.70" xmlns="http://www.w3.org/2000/svg" xmlns:xlink="http://www.w3.org/1999/xlink">
<g id="graph0" class="graph" transform="scale(1 1) rotate(0) translate(4 328.7)">
<title>twoDegreesRelationshipsDiagram</title>
<polygon fill="#ffffff" stroke="transparent" points="-4,4 -4,-328.7 516,-328.7 516,4 -4,4"/>
<text text-anchor="middle" x="72.4936" y="-7.3" font-family="Helvetica,sans-Serif" font-size="11.00" fill="#000000">Generated by SchemaSpy</text>
<!-- gymnasts -->
<g id="node1" class="node">
<title>gymnasts</title>
<g id="a_node1"><a xlink:href="../../tables/gymnasts.html" xlink:title="gymnasts" target="_top">
<polygon fill="#ffffff" stroke="transparent" points="414,-147.2 414,-208.2 504,-208.2 504,-147.2 414,-147.2"/>
<polygon fill="#f5f5f5" stroke="transparent" points="414,-184.7 414,-207.7 504,-207.7 504,-184.7 414,-184.7"/>
<polygon fill="none" stroke="#000000" points="414,-184.7 414,-207.7 504,-207.7 504,-184.7 414,-184.7"/>
<text text-anchor="start" x="418.9683" y="-193.8" font-family="Helvetica,sans-Serif" font-weight="bold" font-size="11.00" fill="#000000">gymnasts</text>
<text text-anchor="start" x="469.5219" y="-192.8" font-family="Helvetica,sans-Serif" font-size="11.00" fill="#000000">[table]</text>
<polygon fill="none" stroke="#000000" points="414,-165.7 414,-184.7 504,-184.7 504,-165.7 414,-165.7"/>
<text text-anchor="start" x="417" y="-171.8" font-family="Helvetica,sans-Serif" font-size="11.00" fill="#000000">...</text>
<polygon fill="#ffffff" stroke="transparent" points="414,-146.7 414,-165.7 440,-165.7 440,-146.7 414,-146.7"/>
<polygon fill="none" stroke="#000000" points="414,-146.7 414,-165.7 440,-165.7 440,-146.7 414,-146.7"/>
<text text-anchor="start" x="417" y="-152.8" font-family="Helvetica,sans-Serif" font-size="11.00" fill="#000000">&lt; 2</text>
<polygon fill="#ffffff" stroke="transparent" points="440,-146.7 440,-165.7 480,-165.7 480,-146.7 440,-146.7"/>
<polygon fill="none" stroke="#000000" points="440,-146.7 440,-165.7 480,-165.7 480,-146.7 440,-146.7"/>
<text text-anchor="start" x="444.6105" y="-152.8" font-family="Helvetica,sans-Serif" font-size="11.00" fill="#000000">0 rows</text>
<polygon fill="#ffffff" stroke="transparent" points="480,-146.7 480,-165.7 504,-165.7 504,-146.7 480,-146.7"/>
<polygon fill="none" stroke="#000000" points="480,-146.7 480,-165.7 504,-165.7 504,-146.7 480,-146.7"/>
<text text-anchor="start" x="485.4053" y="-152.8" font-family="Helvetica,sans-Serif" font-size="11.00" fill="#000000">4 &gt;</text>
</a>
</g>
</g>
<!-- gyms_has_users -->
<g id="node2" class="node">
<title>gyms_has_users</title>
<g id="a_node2"><a xlink:href="../../tables/gyms_has_users.html" xlink:title="gyms_has_users" target="_top">
<polygon fill="#ffffff" stroke="transparent" points="239,-133.7 239,-219.7 365,-219.7 365,-133.7 239,-133.7"/>
<polygon fill="#f5f5f5" stroke="transparent" points="239,-196.7 239,-219.7 365,-219.7 365,-196.7 239,-196.7"/>
<polygon fill="none" stroke="#000000" points="239,-196.7 239,-219.7 365,-219.7 365,-196.7 239,-196.7"/>
<text text-anchor="start" x="243.936" y="-205.8" font-family="Helvetica,sans-Serif" font-weight="bold" font-size="11.00" fill="#000000">gyms_has_users</text>
<text text-anchor="start" x="330.5219" y="-204.8" font-family="Helvetica,sans-Serif" font-size="11.00" fill="#000000">[table]</text>
<polygon fill="none" stroke="#000000" points="239,-174.7 239,-196.7 365,-196.7 365,-174.7 239,-174.7"/>
<image xlink:href="../../images/primaryKeys.png" width="11px" height="12px" preserveAspectRatio="xMinYMin meet" x="244" y="-191.7"/>
<text text-anchor="start" x="263" y="-181.8" font-family="Helvetica,sans-Serif" font-size="11.00" fill="#000000">gyms_id</text>
<polygon fill="none" stroke="#000000" points="239,-152.7 239,-174.7 365,-174.7 365,-152.7 239,-152.7"/>
<image xlink:href="../../images/primaryKeys.png" width="11px" height="12px" preserveAspectRatio="xMinYMin meet" x="244" y="-169.7"/>
<text text-anchor="start" x="263" y="-159.8" font-family="Helvetica,sans-Serif" font-size="11.00" fill="#000000">users_id</text>
<polygon fill="#ffffff" stroke="transparent" points="239,-133.7 239,-152.7 283,-152.7 283,-133.7 239,-133.7"/>
<polygon fill="none" stroke="#000000" points="239,-133.7 239,-152.7 283,-152.7 283,-133.7 239,-133.7"/>
<text text-anchor="start" x="242" y="-139.8" font-family="Helvetica,sans-Serif" font-size="11.00" fill="#000000">&lt; 2</text>
<polygon fill="#ffffff" stroke="transparent" points="283,-133.7 283,-152.7 332,-152.7 332,-133.7 283,-133.7"/>
<polygon fill="none" stroke="#000000" points="283,-133.7 283,-152.7 332,-152.7 332,-133.7 283,-133.7"/>
<text text-anchor="start" x="296.6105" y="-139.8" font-family="Helvetica,sans-Serif" font-size="11.00" fill="#000000">0 rows</text>
<polygon fill="#ffffff" stroke="transparent" points="332,-133.7 332,-152.7 365,-152.7 365,-133.7 332,-133.7"/>
<polygon fill="none" stroke="#000000" points="332,-133.7 332,-152.7 365,-152.7 365,-133.7 332,-133.7"/>
<text text-anchor="start" x="346.4053" y="-139.8" font-family="Helvetica,sans-Serif" font-size="11.00" fill="#000000">2 &gt;</text>
</a>
</g>
</g>
<!-- gymnasts&#45;&gt;gyms_has_users -->
<g id="edge1" class="edge">
<title>gymnasts:w&#45;&gt;gyms_has_users:e</title>
<path fill="none" stroke="#000000" d="M399.7027,-176.5164C388.2382,-179.6407 381.5655,-185.7 365,-185.7"/>
<polygon fill="#000000" stroke="#000000" points="406.0638,-175.7083 414.4537,-178.2713 410.0319,-175.2042 414,-174.7 414,-174.7 414,-174.7 410.0319,-175.2042 413.5463,-171.1287 406.0638,-175.7083 406.0638,-175.7083"/>
<ellipse fill="none" stroke="#000000" cx="402.8893" cy="-176.1116" rx="3.2" ry="3.2"/>
</g>
<!-- gymnasts&#45;&gt;gyms_has_users -->
<g id="edge2" class="edge">
<title>gymnasts:w&#45;&gt;gyms_has_users:e</title>
<path fill="none" stroke="#000000" d="M399.7027,-172.8836C388.2382,-169.7593 381.5655,-163.7 365,-163.7"/>
<polygon fill="#000000" stroke="#000000" points="406.0638,-173.6917 413.5463,-178.2713 410.0319,-174.1958 414,-174.7 414,-174.7 414,-174.7 410.0319,-174.1958 414.4537,-171.1287 406.0638,-173.6917 406.0638,-173.6917"/>
<ellipse fill="none" stroke="#000000" cx="402.8893" cy="-173.2884" rx="3.2" ry="3.2"/>
</g>
<!-- gyms -->
<g id="node3" class="node">
<title>gyms</title>
<g id="a_node3"><a xlink:href="../../tables/gyms.html" xlink:title="gyms" target="_top">
<polygon fill="#ffffff" stroke="transparent" points="8,-120.7 8,-320.7 190,-320.7 190,-120.7 8,-120.7"/>
<polygon fill="#f5f5f5" stroke="transparent" points="10,-295.7 10,-318.7 188,-318.7 188,-295.7 10,-295.7"/>
<polygon fill="none" stroke="#000000" points="10,-295.7 10,-318.7 188,-318.7 188,-295.7 10,-295.7"/>
<text text-anchor="start" x="15" y="-304.8" font-family="Helvetica,sans-Serif" font-weight="bold" font-size="11.00" fill="#000000">gyms</text>
<text text-anchor="start" x="153.0437" y="-303.8" font-family="Helvetica,sans-Serif" font-size="11.00" fill="#000000">[table]</text>
<polygon fill="none" stroke="#000000" points="10,-273.7 10,-295.7 95,-295.7 95,-273.7 10,-273.7"/>
<image xlink:href="../../images/primaryKeys.png" width="11px" height="12px" preserveAspectRatio="xMinYMin meet" x="15" y="-290.7"/>
<text text-anchor="start" x="30" y="-280.8" font-family="Helvetica,sans-Serif" font-size="11.00" fill="#000000">id</text>
<polygon fill="none" stroke="#000000" points="95,-273.7 95,-295.7 188,-295.7 188,-273.7 95,-273.7"/>
<text text-anchor="start" x="98" y="-281.4" font-family="Helvetica,sans-Serif" font-size="11.00" fill="#000000">int[10]</text>
<polygon fill="none" stroke="#000000" points="10,-251.7 10,-273.7 95,-273.7 95,-251.7 10,-251.7"/>
<text text-anchor="start" x="30" y="-258.8" font-family="Helvetica,sans-Serif" font-size="11.00" fill="#000000">name</text>
<polygon fill="none" stroke="#000000" points="95,-251.7 95,-273.7 188,-273.7 188,-251.7 95,-251.7"/>
<text text-anchor="start" x="98" y="-259.4" font-family="Helvetica,sans-Serif" font-size="11.00" fill="#000000">varchar[45]</text>
<polygon fill="none" stroke="#000000" points="10,-229.7 10,-251.7 95,-251.7 95,-229.7 10,-229.7"/>
<text text-anchor="start" x="30" y="-236.8" font-family="Helvetica,sans-Serif" font-size="11.00" fill="#000000">description</text>
<polygon fill="none" stroke="#000000" points="95,-229.7 95,-251.7 188,-251.7 188,-229.7 95,-229.7"/>
<text text-anchor="start" x="98" y="-237.4" font-family="Helvetica,sans-Serif" font-size="11.00" fill="#000000">varchar[45]</text>
<polygon fill="none" stroke="#000000" points="10,-207.7 10,-229.7 95,-229.7 95,-207.7 10,-207.7"/>
<text text-anchor="start" x="30" y="-214.8" font-family="Helvetica,sans-Serif" font-size="11.00" fill="#000000">phone</text>
<polygon fill="none" stroke="#000000" points="95,-207.7 95,-229.7 188,-229.7 188,-207.7 95,-207.7"/>
<text text-anchor="start" x="98" y="-215.4" font-family="Helvetica,sans-Serif" font-size="11.00" fill="#000000">varchar[45]</text>
<polygon fill="none" stroke="#000000" points="10,-185.7 10,-207.7 95,-207.7 95,-185.7 10,-185.7"/>
<text text-anchor="start" x="30" y="-192.8" font-family="Helvetica,sans-Serif" font-size="11.00" fill="#000000">web</text>
<polygon fill="none" stroke="#000000" points="95,-185.7 95,-207.7 188,-207.7 188,-185.7 95,-185.7"/>
<text text-anchor="start" x="98" y="-193.4" font-family="Helvetica,sans-Serif" font-size="11.00" fill="#000000">varchar[45]</text>
<polygon fill="none" stroke="#000000" points="10,-163.7 10,-185.7 95,-185.7 95,-163.7 10,-163.7"/>
<text text-anchor="start" x="30" y="-170.8" font-family="Helvetica,sans-Serif" font-size="11.00" fill="#000000">address</text>
<polygon fill="none" stroke="#000000" points="95,-163.7 95,-185.7 188,-185.7 188,-163.7 95,-163.7"/>
<text text-anchor="start" x="97.7833" y="-171.4" font-family="Helvetica,sans-Serif" font-size="11.00" fill="#000000">json[1073741824]</text>
<polygon fill="none" stroke="#000000" points="10,-141.7 10,-163.7 95,-163.7 95,-141.7 10,-141.7"/>
<text text-anchor="start" x="30" y="-148.8" font-family="Helvetica,sans-Serif" font-size="11.00" fill="#000000">timeline</text>
<polygon fill="none" stroke="#000000" points="95,-141.7 95,-163.7 188,-163.7 188,-141.7 95,-141.7"/>
<text text-anchor="start" x="97.7833" y="-149.4" font-family="Helvetica,sans-Serif" font-size="11.00" fill="#000000">json[1073741824]</text>
<polygon fill="#ffffff" stroke="transparent" points="10,-122.7 10,-141.7 44,-141.7 44,-122.7 10,-122.7"/>
<polygon fill="none" stroke="#000000" points="10,-122.7 10,-141.7 44,-141.7 44,-122.7 10,-122.7"/>
<text text-anchor="start" x="13" y="-128.8" font-family="Helvetica,sans-Serif" font-size="11.00" fill="#000000">&lt; 0</text>
<polygon fill="#ffffff" stroke="transparent" points="44,-122.7 44,-141.7 95,-141.7 95,-122.7 44,-122.7"/>
<polygon fill="none" stroke="#000000" points="44,-122.7 44,-141.7 95,-141.7 95,-122.7 44,-122.7"/>
<text text-anchor="start" x="59.6105" y="-128.8" font-family="Helvetica,sans-Serif" font-size="11.00" fill="#000000">0 rows</text>
<polygon fill="#ffffff" stroke="transparent" points="95,-122.7 95,-141.7 188,-141.7 188,-122.7 95,-122.7"/>
<polygon fill="none" stroke="#000000" points="95,-122.7 95,-141.7 188,-141.7 188,-122.7 95,-122.7"/>
<text text-anchor="start" x="169.4053" y="-128.8" font-family="Helvetica,sans-Serif" font-size="11.00" fill="#000000">1 &gt;</text>
<polygon fill="none" stroke="#000000" stroke-width="2" points="9,-121.7 9,-319.7 189,-319.7 189,-121.7 9,-121.7"/>
</a>
</g>
</g>
<!-- gyms_has_users&#45;&gt;gyms -->
<g id="edge3" class="edge">
<title>gyms_has_users:w&#45;&gt;gyms:e</title>
<path fill="none" stroke="#000000" d="M224.9616,-189.7035C199.698,-208.2249 231.5017,-284.7 188,-284.7"/>
<polygon fill="#000000" stroke="#000000" points="231.3067,-187.894 239.9873,-189.162 235.1534,-186.797 239,-185.7 239,-185.7 239,-185.7 235.1534,-186.797 238.0127,-182.238 231.3067,-187.894 231.3067,-187.894"/>
<ellipse fill="none" stroke="#000000" cx="228.2294" cy="-188.7717" rx="3.2" ry="3.2"/>
</g>
<!-- users -->
<g id="node4" class="node">
<title>users</title>
<g id="a_node4"><a xlink:href="../../tables/users.html" xlink:title="users" target="_top">
<polygon fill="#ffffff" stroke="transparent" points="63.5,-38.2 63.5,-99.2 134.5,-99.2 134.5,-38.2 63.5,-38.2"/>
<polygon fill="#f5f5f5" stroke="transparent" points="64,-75.7 64,-98.7 135,-98.7 135,-75.7 64,-75.7"/>
<polygon fill="none" stroke="#000000" points="64,-75.7 64,-98.7 135,-98.7 135,-75.7 64,-75.7"/>
<text text-anchor="start" x="69" y="-84.8" font-family="Helvetica,sans-Serif" font-weight="bold" font-size="11.00" fill="#000000">users</text>
<text text-anchor="start" x="100.0437" y="-83.8" font-family="Helvetica,sans-Serif" font-size="11.00" fill="#000000">[table]</text>
<polygon fill="none" stroke="#000000" points="64,-56.7 64,-75.7 135,-75.7 135,-56.7 64,-56.7"/>
<text text-anchor="start" x="67" y="-62.8" font-family="Helvetica,sans-Serif" font-size="11.00" fill="#000000">...</text>
<polygon fill="#ffffff" stroke="transparent" points="64,-37.7 64,-56.7 76,-56.7 76,-37.7 64,-37.7"/>
<polygon fill="none" stroke="#000000" points="64,-37.7 64,-56.7 76,-56.7 76,-37.7 64,-37.7"/>
<text text-anchor="start" x="66.9431" y="-43.8" font-family="Helvetica,sans-Serif" font-size="11.00" fill="#000000"> &#160;</text>
<polygon fill="#ffffff" stroke="transparent" points="76,-37.7 76,-56.7 114,-56.7 114,-37.7 76,-37.7"/>
<polygon fill="none" stroke="#000000" points="76,-37.7 76,-56.7 114,-56.7 114,-37.7 76,-37.7"/>
<text text-anchor="start" x="78.8053" y="-43.8" font-family="Helvetica,sans-Serif" font-size="11.00" fill="#000000">0 rows</text>
<polygon fill="#ffffff" stroke="transparent" points="114,-37.7 114,-56.7 135,-56.7 135,-37.7 114,-37.7"/>
<polygon fill="none" stroke="#000000" points="114,-37.7 114,-56.7 135,-56.7 135,-37.7 114,-37.7"/>
<text text-anchor="start" x="116.7027" y="-43.8" font-family="Helvetica,sans-Serif" font-size="11.00" fill="#000000">2 &gt;</text>
</a>
</g>
</g>
<!-- gyms_has_users&#45;&gt;users -->
<g id="edge4" class="edge">
<title>gyms_has_users:w&#45;&gt;users:e</title>
<path fill="none" stroke="#000000" d="M224.8229,-159.7955C212.1277,-150.5738 214.9305,-126.9962 198,-110.7 173.209,-86.8378 169.4093,-65.7 135,-65.7"/>
<polygon fill="#000000" stroke="#000000" points="231.2872,-161.5758 238.0441,-167.1708 235.1436,-162.6379 239,-163.7 239,-163.7 239,-163.7 235.1436,-162.6379 239.9559,-160.2292 231.2872,-161.5758 231.2872,-161.5758"/>
<ellipse fill="none" stroke="#000000" cx="228.202" cy="-160.7261" rx="3.2" ry="3.2"/>
</g>
</g>
</svg>
