<?xml version="1.0" encoding="UTF-8" standalone="no"?>
<!DOCTYPE svg PUBLIC "-//W3C//DTD SVG 1.1//EN"
 "http://www.w3.org/Graphics/SVG/1.1/DTD/svg11.dtd">
<!-- Generated by graphviz version 2.40.1 (20161225.0304)
 -->
<!-- Title: twoDegreesRelationshipsDiagram Pages: 1 -->
<svg width="906pt" height="429pt"
 viewBox="0.00 0.00 906.00 428.70" xmlns="http://www.w3.org/2000/svg" xmlns:xlink="http://www.w3.org/1999/xlink">
<g id="graph0" class="graph" transform="scale(1 1) rotate(0) translate(4 424.7)">
<title>twoDegreesRelationshipsDiagram</title>
<polygon fill="#ffffff" stroke="transparent" points="-4,4 -4,-424.7 902,-424.7 902,4 -4,4"/>
<text text-anchor="middle" x="72.4936" y="-7.3" font-family="Helvetica,sans-Serif" font-size="11.00" fill="#000000">Generated by SchemaSpy</text>
<!-- challenges -->
<g id="node1" class="node">
<title>challenges</title>
<g id="a_node1"><a xlink:href="../../tables/challenges.html" xlink:title="challenges" target="_top">
<polygon fill="#ffffff" stroke="transparent" points="569.5,-196.2 569.5,-323.2 668.5,-323.2 668.5,-196.2 569.5,-196.2"/>
<polygon fill="#f5f5f5" stroke="transparent" points="570,-299.7 570,-322.7 669,-322.7 669,-299.7 570,-299.7"/>
<polygon fill="none" stroke="#000000" points="570,-299.7 570,-322.7 669,-322.7 669,-299.7 570,-299.7"/>
<text text-anchor="start" x="575" y="-308.8" font-family="Helvetica,sans-Serif" font-weight="bold" font-size="11.00" fill="#000000">challenges</text>
<text text-anchor="start" x="634.0437" y="-307.8" font-family="Helvetica,sans-Serif" font-size="11.00" fill="#000000">[table]</text>
<polygon fill="none" stroke="#000000" points="570,-277.7 570,-299.7 669,-299.7 669,-277.7 570,-277.7"/>
<image xlink:href="../../images/primaryKeys.png" width="11px" height="12px" preserveAspectRatio="xMinYMin meet" x="575" y="-294.7"/>
<text text-anchor="start" x="590" y="-284.8" font-family="Helvetica,sans-Serif" font-size="11.00" fill="#000000">id</text>
<polygon fill="#ffffff" stroke="transparent" points="570,-255.7 570,-277.7 669,-277.7 669,-255.7 570,-255.7"/>
<polygon fill="none" stroke="#000000" points="570,-255.7 570,-277.7 669,-277.7 669,-255.7 570,-255.7"/>
<image xlink:href="../../images/foreignKeys.png" width="11px" height="12px" preserveAspectRatio="xMinYMin meet" x="575" y="-272.7"/>
<text text-anchor="start" x="590" y="-262.8" font-family="Helvetica,sans-Serif" font-size="11.00" fill="#000000">gym_id</text>
<polygon fill="#ffffff" stroke="transparent" points="570,-233.7 570,-255.7 669,-255.7 669,-233.7 570,-233.7"/>
<polygon fill="none" stroke="#000000" points="570,-233.7 570,-255.7 669,-255.7 669,-233.7 570,-233.7"/>
<image xlink:href="../../images/foreignKeys.png" width="11px" height="12px" preserveAspectRatio="xMinYMin meet" x="575" y="-250.7"/>
<text text-anchor="start" x="590" y="-240.8" font-family="Helvetica,sans-Serif" font-size="11.00" fill="#000000">class_id</text>
<polygon fill="none" stroke="#000000" points="570,-214.7 570,-233.7 669,-233.7 669,-214.7 570,-214.7"/>
<text text-anchor="start" x="573" y="-220.8" font-family="Helvetica,sans-Serif" font-size="11.00" fill="#000000">...</text>
<polygon fill="#ffffff" stroke="transparent" points="570,-195.7 570,-214.7 600,-214.7 600,-195.7 570,-195.7"/>
<polygon fill="none" stroke="#000000" points="570,-195.7 570,-214.7 600,-214.7 600,-195.7 570,-195.7"/>
<text text-anchor="start" x="573" y="-201.8" font-family="Helvetica,sans-Serif" font-size="11.00" fill="#000000">&lt; 2</text>
<polygon fill="#ffffff" stroke="transparent" points="600,-195.7 600,-214.7 643,-214.7 643,-195.7 600,-195.7"/>
<polygon fill="none" stroke="#000000" points="600,-195.7 600,-214.7 643,-214.7 643,-195.7 600,-195.7"/>
<text text-anchor="start" x="607.6105" y="-201.8" font-family="Helvetica,sans-Serif" font-size="11.00" fill="#000000">0 rows</text>
<polygon fill="#ffffff" stroke="transparent" points="643,-195.7 643,-214.7 669,-214.7 669,-195.7 643,-195.7"/>
<polygon fill="none" stroke="#000000" points="643,-195.7 643,-214.7 669,-214.7 669,-195.7 643,-195.7"/>
<text text-anchor="start" x="650.4053" y="-201.8" font-family="Helvetica,sans-Serif" font-size="11.00" fill="#000000">1 &gt;</text>
</a>
</g>
</g>
<!-- classes -->
<g id="node2" class="node">
<title>classes</title>
<g id="a_node2"><a xlink:href="../../tables/classes.html" xlink:title="classes" target="_top">
<polygon fill="#ffffff" stroke="transparent" points="397,-207.2 397,-268.2 477,-268.2 477,-207.2 397,-207.2"/>
<polygon fill="#f5f5f5" stroke="transparent" points="397,-244.7 397,-267.7 477,-267.7 477,-244.7 397,-244.7"/>
<polygon fill="none" stroke="#000000" points="397,-244.7 397,-267.7 477,-267.7 477,-244.7 397,-244.7"/>
<text text-anchor="start" x="402" y="-253.8" font-family="Helvetica,sans-Serif" font-weight="bold" font-size="11.00" fill="#000000">classes</text>
<text text-anchor="start" x="442.5219" y="-252.8" font-family="Helvetica,sans-Serif" font-size="11.00" fill="#000000">[table]</text>
<polygon fill="none" stroke="#000000" points="397,-225.7 397,-244.7 477,-244.7 477,-225.7 397,-225.7"/>
<text text-anchor="start" x="400" y="-231.8" font-family="Helvetica,sans-Serif" font-size="11.00" fill="#000000">...</text>
<polygon fill="#ffffff" stroke="transparent" points="397,-206.7 397,-225.7 418,-225.7 418,-206.7 397,-206.7"/>
<polygon fill="none" stroke="#000000" points="397,-206.7 397,-225.7 418,-225.7 418,-206.7 397,-206.7"/>
<text text-anchor="start" x="399.7027" y="-212.8" font-family="Helvetica,sans-Serif" font-size="11.00" fill="#000000">&lt; 1</text>
<polygon fill="#ffffff" stroke="transparent" points="418,-206.7 418,-225.7 456,-225.7 456,-206.7 418,-206.7"/>
<polygon fill="none" stroke="#000000" points="418,-206.7 418,-225.7 456,-225.7 456,-206.7 418,-206.7"/>
<text text-anchor="start" x="420.8053" y="-212.8" font-family="Helvetica,sans-Serif" font-size="11.00" fill="#000000">0 rows</text>
<polygon fill="#ffffff" stroke="transparent" points="456,-206.7 456,-225.7 477,-225.7 477,-206.7 456,-206.7"/>
<polygon fill="none" stroke="#000000" points="456,-206.7 456,-225.7 477,-225.7 477,-206.7 456,-206.7"/>
<text text-anchor="start" x="458.7027" y="-212.8" font-family="Helvetica,sans-Serif" font-size="11.00" fill="#000000">2 &gt;</text>
</a>
</g>
</g>
<!-- challenges&#45;&gt;classes -->
<g id="edge1" class="edge">
<title>challenges:w&#45;&gt;classes:e</title>
<path fill="none" stroke="#000000" d="M555.3686,-244.2443C525.3602,-242.288 513.2128,-234.7 477,-234.7"/>
<polygon fill="#000000" stroke="#000000" points="562.0039,-244.4509 569.8879,-248.2983 566.0019,-244.5755 570,-244.7 570,-244.7 570,-244.7 566.0019,-244.5755 570.1121,-241.1017 562.0039,-244.4509 562.0039,-244.4509"/>
<ellipse fill="none" stroke="#000000" cx="558.8054" cy="-244.3513" rx="3.2" ry="3.2"/>
</g>
<!-- gyms -->
<g id="node3" class="node">
<title>gyms</title>
<g id="a_node3"><a xlink:href="../../tables/gyms.html" xlink:title="gyms" target="_top">
<polygon fill="#ffffff" stroke="transparent" points="8,-88.7 8,-288.7 190,-288.7 190,-88.7 8,-88.7"/>
<polygon fill="#f5f5f5" stroke="transparent" points="10,-263.7 10,-286.7 188,-286.7 188,-263.7 10,-263.7"/>
<polygon fill="none" stroke="#000000" points="10,-263.7 10,-286.7 188,-286.7 188,-263.7 10,-263.7"/>
<text text-anchor="start" x="15" y="-272.8" font-family="Helvetica,sans-Serif" font-weight="bold" font-size="11.00" fill="#000000">gyms</text>
<text text-anchor="start" x="153.0437" y="-271.8" font-family="Helvetica,sans-Serif" font-size="11.00" fill="#000000">[table]</text>
<polygon fill="none" stroke="#000000" points="10,-241.7 10,-263.7 95,-263.7 95,-241.7 10,-241.7"/>
<image xlink:href="../../images/primaryKeys.png" width="11px" height="12px" preserveAspectRatio="xMinYMin meet" x="15" y="-258.7"/>
<text text-anchor="start" x="30" y="-248.8" font-family="Helvetica,sans-Serif" font-size="11.00" fill="#000000">id</text>
<polygon fill="none" stroke="#000000" points="95,-241.7 95,-263.7 188,-263.7 188,-241.7 95,-241.7"/>
<text text-anchor="start" x="98" y="-249.4" font-family="Helvetica,sans-Serif" font-size="11.00" fill="#000000">bigint[19]</text>
<polygon fill="none" stroke="#000000" points="10,-219.7 10,-241.7 95,-241.7 95,-219.7 10,-219.7"/>
<text text-anchor="start" x="30" y="-226.8" font-family="Helvetica,sans-Serif" font-size="11.00" fill="#000000">name</text>
<polygon fill="none" stroke="#000000" points="95,-219.7 95,-241.7 188,-241.7 188,-219.7 95,-219.7"/>
<text text-anchor="start" x="98" y="-227.4" font-family="Helvetica,sans-Serif" font-size="11.00" fill="#000000">varchar[45]</text>
<polygon fill="none" stroke="#000000" points="10,-197.7 10,-219.7 95,-219.7 95,-197.7 10,-197.7"/>
<text text-anchor="start" x="30" y="-204.8" font-family="Helvetica,sans-Serif" font-size="11.00" fill="#000000">description</text>
<polygon fill="none" stroke="#000000" points="95,-197.7 95,-219.7 188,-219.7 188,-197.7 95,-197.7"/>
<text text-anchor="start" x="98" y="-205.4" font-family="Helvetica,sans-Serif" font-size="11.00" fill="#000000">varchar[45]</text>
<polygon fill="none" stroke="#000000" points="10,-175.7 10,-197.7 95,-197.7 95,-175.7 10,-175.7"/>
<text text-anchor="start" x="30" y="-182.8" font-family="Helvetica,sans-Serif" font-size="11.00" fill="#000000">settings</text>
<polygon fill="none" stroke="#000000" points="95,-175.7 95,-197.7 188,-197.7 188,-175.7 95,-175.7"/>
<text text-anchor="start" x="97.7833" y="-183.4" font-family="Helvetica,sans-Serif" font-size="11.00" fill="#000000">json[1073741824]</text>
<polygon fill="none" stroke="#000000" points="10,-153.7 10,-175.7 95,-175.7 95,-153.7 10,-153.7"/>
<text text-anchor="start" x="30" y="-160.8" font-family="Helvetica,sans-Serif" font-size="11.00" fill="#000000">created_at</text>
<polygon fill="none" stroke="#000000" points="95,-153.7 95,-175.7 188,-175.7 188,-153.7 95,-153.7"/>
<text text-anchor="start" x="98" y="-161.4" font-family="Helvetica,sans-Serif" font-size="11.00" fill="#000000">timestamp[19]</text>
<polygon fill="none" stroke="#000000" points="10,-131.7 10,-153.7 95,-153.7 95,-131.7 10,-131.7"/>
<text text-anchor="start" x="30" y="-138.8" font-family="Helvetica,sans-Serif" font-size="11.00" fill="#000000">updated_at</text>
<polygon fill="none" stroke="#000000" points="95,-131.7 95,-153.7 188,-153.7 188,-131.7 95,-131.7"/>
<text text-anchor="start" x="98" y="-139.4" font-family="Helvetica,sans-Serif" font-size="11.00" fill="#000000">timestamp[19]</text>
<polygon fill="none" stroke="#000000" points="10,-109.7 10,-131.7 95,-131.7 95,-109.7 10,-109.7"/>
<text text-anchor="start" x="30" y="-116.8" font-family="Helvetica,sans-Serif" font-size="11.00" fill="#000000">deleted_at</text>
<polygon fill="none" stroke="#000000" points="95,-109.7 95,-131.7 188,-131.7 188,-109.7 95,-109.7"/>
<text text-anchor="start" x="98" y="-117.4" font-family="Helvetica,sans-Serif" font-size="11.00" fill="#000000">timestamp[19]</text>
<polygon fill="#ffffff" stroke="transparent" points="10,-90.7 10,-109.7 44,-109.7 44,-90.7 10,-90.7"/>
<polygon fill="none" stroke="#000000" points="10,-90.7 10,-109.7 44,-109.7 44,-90.7 10,-90.7"/>
<text text-anchor="start" x="13" y="-96.8" font-family="Helvetica,sans-Serif" font-size="11.00" fill="#000000">&lt; 0</text>
<polygon fill="#ffffff" stroke="transparent" points="44,-90.7 44,-109.7 95,-109.7 95,-90.7 44,-90.7"/>
<polygon fill="none" stroke="#000000" points="44,-90.7 44,-109.7 95,-109.7 95,-90.7 44,-90.7"/>
<text text-anchor="start" x="59.6105" y="-96.8" font-family="Helvetica,sans-Serif" font-size="11.00" fill="#000000">0 rows</text>
<polygon fill="#ffffff" stroke="transparent" points="95,-90.7 95,-109.7 188,-109.7 188,-90.7 95,-90.7"/>
<polygon fill="none" stroke="#000000" points="95,-90.7 95,-109.7 188,-109.7 188,-90.7 95,-90.7"/>
<text text-anchor="start" x="169.4053" y="-96.8" font-family="Helvetica,sans-Serif" font-size="11.00" fill="#000000">4 &gt;</text>
<polygon fill="none" stroke="#000000" stroke-width="2" points="9,-89.7 9,-287.7 189,-287.7 189,-89.7 9,-89.7"/>
</a>
</g>
</g>
<!-- challenges&#45;&gt;gyms -->
<g id="edge2" class="edge">
<title>challenges:w&#45;&gt;gyms:e</title>
<path fill="none" stroke="#000000" d="M555.2592,-267.7121C538.59,-270.1868 530.2575,-276.5017 508,-278.7 385.4842,-290.8007 349.3057,-313.7633 231,-279.7 209.3147,-273.4562 210.5662,-252.7 188,-252.7"/>
<polygon fill="#000000" stroke="#000000" points="562.0188,-267.248 570.2466,-270.2915 566.0094,-266.974 570,-266.7 570,-266.7 570,-266.7 566.0094,-266.974 569.7534,-263.1085 562.0188,-267.248 562.0188,-267.248"/>
<ellipse fill="none" stroke="#000000" cx="558.8263" cy="-267.4673" rx="3.2" ry="3.2"/>
</g>
<!-- skill_lists -->
<g id="node4" class="node">
<title>skill_lists</title>
<g id="a_node4"><a xlink:href="../../tables/skill_lists.html" xlink:title="skill_lists" target="_top">
<polygon fill="#ffffff" stroke="transparent" points="239,-164.2 239,-269.2 325,-269.2 325,-164.2 239,-164.2"/>
<polygon fill="#f5f5f5" stroke="transparent" points="239,-245.7 239,-268.7 325,-268.7 325,-245.7 239,-245.7"/>
<polygon fill="none" stroke="#000000" points="239,-245.7 239,-268.7 325,-268.7 325,-245.7 239,-245.7"/>
<text text-anchor="start" x="243.8119" y="-254.8" font-family="Helvetica,sans-Serif" font-weight="bold" font-size="11.00" fill="#000000">skill_lists</text>
<text text-anchor="start" x="290.5219" y="-253.8" font-family="Helvetica,sans-Serif" font-size="11.00" fill="#000000">[table]</text>
<polygon fill="none" stroke="#000000" points="239,-223.7 239,-245.7 325,-245.7 325,-223.7 239,-223.7"/>
<image xlink:href="../../images/primaryKeys.png" width="11px" height="12px" preserveAspectRatio="xMinYMin meet" x="244" y="-240.7"/>
<text text-anchor="start" x="260" y="-230.8" font-family="Helvetica,sans-Serif" font-size="11.00" fill="#000000">id</text>
<polygon fill="#ffffff" stroke="transparent" points="239,-201.7 239,-223.7 325,-223.7 325,-201.7 239,-201.7"/>
<polygon fill="none" stroke="#000000" points="239,-201.7 239,-223.7 325,-223.7 325,-201.7 239,-201.7"/>
<image xlink:href="../../images/foreignKeys.png" width="11px" height="12px" preserveAspectRatio="xMinYMin meet" x="244" y="-218.7"/>
<text text-anchor="start" x="260" y="-208.8" font-family="Helvetica,sans-Serif" font-size="11.00" fill="#000000">gym_id</text>
<polygon fill="none" stroke="#000000" points="239,-182.7 239,-201.7 325,-201.7 325,-182.7 239,-182.7"/>
<text text-anchor="start" x="242" y="-188.8" font-family="Helvetica,sans-Serif" font-size="11.00" fill="#000000">...</text>
<polygon fill="#ffffff" stroke="transparent" points="239,-163.7 239,-182.7 263,-182.7 263,-163.7 239,-163.7"/>
<polygon fill="none" stroke="#000000" points="239,-163.7 239,-182.7 263,-182.7 263,-163.7 239,-163.7"/>
<text text-anchor="start" x="242" y="-169.8" font-family="Helvetica,sans-Serif" font-size="11.00" fill="#000000">&lt; 1</text>
<polygon fill="#ffffff" stroke="transparent" points="263,-163.7 263,-182.7 302,-182.7 302,-163.7 263,-163.7"/>
<polygon fill="none" stroke="#000000" points="263,-163.7 263,-182.7 302,-182.7 302,-163.7 263,-163.7"/>
<text text-anchor="start" x="266.6105" y="-169.8" font-family="Helvetica,sans-Serif" font-size="11.00" fill="#000000">0 rows</text>
<polygon fill="#ffffff" stroke="transparent" points="302,-163.7 302,-182.7 325,-182.7 325,-163.7 302,-163.7"/>
<polygon fill="none" stroke="#000000" points="302,-163.7 302,-182.7 325,-182.7 325,-163.7 302,-163.7"/>
<text text-anchor="start" x="306.4053" y="-169.8" font-family="Helvetica,sans-Serif" font-size="11.00" fill="#000000">2 &gt;</text>
</a>
</g>
</g>
<!-- classes&#45;&gt;skill_lists -->
<g id="edge3" class="edge">
<title>classes:w&#45;&gt;skill_lists:e</title>
<path fill="none" stroke="#000000" d="M382.3832,-234.7C361.541,-234.7 351.5,-234.7 325,-234.7"/>
<polygon fill="#000000" stroke="#000000" points="389,-234.7001 397,-238.3 393,-234.7 397,-234.7 397,-234.7 397,-234.7 393,-234.7 397,-231.1 389,-234.7001 389,-234.7001"/>
<ellipse fill="none" stroke="#000000" cx="385.8" cy="-234.7001" rx="3.2" ry="3.2"/>
</g>
<!-- skill_lists&#45;&gt;gyms -->
<g id="edge11" class="edge">
<title>skill_lists:w&#45;&gt;gyms:e</title>
<path fill="none" stroke="#000000" d="M225.2365,-216.9807C211.4186,-227.2996 210.9554,-252.7 188,-252.7"/>
<polygon fill="#000000" stroke="#000000" points="231.3609,-215.0759 240.0692,-216.1376 235.1805,-213.888 239,-212.7 239,-212.7 239,-212.7 235.1805,-213.888 237.9308,-209.2624 231.3609,-215.0759 231.3609,-215.0759"/>
<ellipse fill="none" stroke="#000000" cx="228.3053" cy="-216.0263" rx="3.2" ry="3.2"/>
</g>
<!-- completed_challenges -->
<g id="node5" class="node">
<title>completed_challenges</title>
<g id="a_node5"><a xlink:href="../../tables/completed_challenges.html" xlink:title="completed_challenges" target="_top">
<polygon fill="#ffffff" stroke="transparent" points="738,-302.2 738,-363.2 890,-363.2 890,-302.2 738,-302.2"/>
<polygon fill="#f5f5f5" stroke="transparent" points="738,-339.7 738,-362.7 890,-362.7 890,-339.7 738,-339.7"/>
<polygon fill="none" stroke="#000000" points="738,-339.7 738,-362.7 890,-362.7 890,-339.7 738,-339.7"/>
<text text-anchor="start" x="742.7899" y="-348.8" font-family="Helvetica,sans-Serif" font-weight="bold" font-size="11.00" fill="#000000">completed_challenges</text>
<text text-anchor="start" x="855.5219" y="-347.8" font-family="Helvetica,sans-Serif" font-size="11.00" fill="#000000">[table]</text>
<polygon fill="none" stroke="#000000" points="738,-320.7 738,-339.7 890,-339.7 890,-320.7 738,-320.7"/>
<text text-anchor="start" x="741" y="-326.8" font-family="Helvetica,sans-Serif" font-size="11.00" fill="#000000">...</text>
<polygon fill="#ffffff" stroke="transparent" points="738,-301.7 738,-320.7 799,-320.7 799,-301.7 738,-301.7"/>
<polygon fill="none" stroke="#000000" points="738,-301.7 738,-320.7 799,-320.7 799,-301.7 738,-301.7"/>
<text text-anchor="start" x="741" y="-307.8" font-family="Helvetica,sans-Serif" font-size="11.00" fill="#000000">&lt; 2</text>
<polygon fill="#ffffff" stroke="transparent" points="799,-301.7 799,-320.7 857,-320.7 857,-301.7 799,-301.7"/>
<polygon fill="none" stroke="#000000" points="799,-301.7 799,-320.7 857,-320.7 857,-301.7 799,-301.7"/>
<text text-anchor="start" x="821.6105" y="-307.8" font-family="Helvetica,sans-Serif" font-size="11.00" fill="#000000">0 rows</text>
<polygon fill="#ffffff" stroke="transparent" points="857,-301.7 857,-320.7 890,-320.7 890,-301.7 857,-301.7"/>
<polygon fill="none" stroke="#000000" points="857,-301.7 857,-320.7 890,-320.7 890,-301.7 857,-301.7"/>
<text text-anchor="start" x="880.8862" y="-307.8" font-family="Helvetica,sans-Serif" font-size="11.00" fill="#000000"> &#160;</text>
</a>
</g>
</g>
<!-- completed_challenges&#45;&gt;challenges -->
<g id="edge4" class="edge">
<title>completed_challenges:w&#45;&gt;challenges:e</title>
<path fill="none" stroke="#000000" d="M723.7731,-327.0099C702.1324,-317.8885 699.0983,-288.7 669,-288.7"/>
<polygon fill="#000000" stroke="#000000" points="730.1393,-328.2136 737.3311,-333.2373 734.0696,-328.9568 738,-329.7 738,-329.7 738,-329.7 734.0696,-328.9568 738.6689,-326.1627 730.1393,-328.2136 730.1393,-328.2136"/>
<ellipse fill="none" stroke="#000000" cx="726.995" cy="-327.619" rx="3.2" ry="3.2"/>
</g>
<!-- gymnasts -->
<g id="node6" class="node">
<title>gymnasts</title>
<g id="a_node6"><a xlink:href="../../tables/gymnasts.html" xlink:title="gymnasts" target="_top">
<polygon fill="#ffffff" stroke="transparent" points="574,-344.2 574,-405.2 664,-405.2 664,-344.2 574,-344.2"/>
<polygon fill="#f5f5f5" stroke="transparent" points="574,-381.7 574,-404.7 664,-404.7 664,-381.7 574,-381.7"/>
<polygon fill="none" stroke="#000000" points="574,-381.7 574,-404.7 664,-404.7 664,-381.7 574,-381.7"/>
<text text-anchor="start" x="578.9683" y="-390.8" font-family="Helvetica,sans-Serif" font-weight="bold" font-size="11.00" fill="#000000">gymnasts</text>
<text text-anchor="start" x="629.5219" y="-389.8" font-family="Helvetica,sans-Serif" font-size="11.00" fill="#000000">[table]</text>
<polygon fill="none" stroke="#000000" points="574,-362.7 574,-381.7 664,-381.7 664,-362.7 574,-362.7"/>
<text text-anchor="start" x="577" y="-368.8" font-family="Helvetica,sans-Serif" font-size="11.00" fill="#000000">...</text>
<polygon fill="#ffffff" stroke="transparent" points="574,-343.7 574,-362.7 600,-362.7 600,-343.7 574,-343.7"/>
<polygon fill="none" stroke="#000000" points="574,-343.7 574,-362.7 600,-362.7 600,-343.7 574,-343.7"/>
<text text-anchor="start" x="577" y="-349.8" font-family="Helvetica,sans-Serif" font-size="11.00" fill="#000000">&lt; 2</text>
<polygon fill="#ffffff" stroke="transparent" points="600,-343.7 600,-362.7 640,-362.7 640,-343.7 600,-343.7"/>
<polygon fill="none" stroke="#000000" points="600,-343.7 600,-362.7 640,-362.7 640,-343.7 600,-343.7"/>
<text text-anchor="start" x="604.6105" y="-349.8" font-family="Helvetica,sans-Serif" font-size="11.00" fill="#000000">0 rows</text>
<polygon fill="#ffffff" stroke="transparent" points="640,-343.7 640,-362.7 664,-362.7 664,-343.7 640,-343.7"/>
<polygon fill="none" stroke="#000000" points="640,-343.7 640,-362.7 664,-362.7 664,-343.7 640,-343.7"/>
<text text-anchor="start" x="645.4053" y="-349.8" font-family="Helvetica,sans-Serif" font-size="11.00" fill="#000000">3 &gt;</text>
</a>
</g>
</g>
<!-- completed_challenges&#45;&gt;gymnasts -->
<g id="edge5" class="edge">
<title>completed_challenges:w&#45;&gt;gymnasts:e</title>
<path fill="none" stroke="#000000" d="M723.5093,-332.2015C699.7989,-341.2433 696.2035,-371.7 664,-371.7"/>
<polygon fill="#000000" stroke="#000000" points="730.1166,-331.0609 738.6124,-333.2475 734.0583,-330.3805 738,-329.7 738,-329.7 738,-329.7 734.0583,-330.3805 737.3876,-326.1525 730.1166,-331.0609 730.1166,-331.0609"/>
<ellipse fill="none" stroke="#000000" cx="726.9632" cy="-331.6053" rx="3.2" ry="3.2"/>
</g>
<!-- gyms_has_users -->
<g id="node8" class="node">
<title>gyms_has_users</title>
<g id="a_node8"><a xlink:href="../../tables/gyms_has_users.html" xlink:title="gyms_has_users" target="_top">
<polygon fill="#ffffff" stroke="transparent" points="374,-330.7 374,-416.7 500,-416.7 500,-330.7 374,-330.7"/>
<polygon fill="#f5f5f5" stroke="transparent" points="374,-393.7 374,-416.7 500,-416.7 500,-393.7 374,-393.7"/>
<polygon fill="none" stroke="#000000" points="374,-393.7 374,-416.7 500,-416.7 500,-393.7 374,-393.7"/>
<text text-anchor="start" x="378.936" y="-402.8" font-family="Helvetica,sans-Serif" font-weight="bold" font-size="11.00" fill="#000000">gyms_has_users</text>
<text text-anchor="start" x="465.5219" y="-401.8" font-family="Helvetica,sans-Serif" font-size="11.00" fill="#000000">[table]</text>
<polygon fill="none" stroke="#000000" points="374,-371.7 374,-393.7 500,-393.7 500,-371.7 374,-371.7"/>
<image xlink:href="../../images/primaryKeys.png" width="11px" height="12px" preserveAspectRatio="xMinYMin meet" x="379" y="-388.7"/>
<text text-anchor="start" x="398" y="-378.8" font-family="Helvetica,sans-Serif" font-size="11.00" fill="#000000">gym_id</text>
<polygon fill="none" stroke="#000000" points="374,-349.7 374,-371.7 500,-371.7 500,-349.7 374,-349.7"/>
<image xlink:href="../../images/primaryKeys.png" width="11px" height="12px" preserveAspectRatio="xMinYMin meet" x="379" y="-366.7"/>
<text text-anchor="start" x="398" y="-356.8" font-family="Helvetica,sans-Serif" font-size="11.00" fill="#000000">user_id</text>
<polygon fill="#ffffff" stroke="transparent" points="374,-330.7 374,-349.7 418,-349.7 418,-330.7 374,-330.7"/>
<polygon fill="none" stroke="#000000" points="374,-330.7 374,-349.7 418,-349.7 418,-330.7 374,-330.7"/>
<text text-anchor="start" x="377" y="-336.8" font-family="Helvetica,sans-Serif" font-size="11.00" fill="#000000">&lt; 2</text>
<polygon fill="#ffffff" stroke="transparent" points="418,-330.7 418,-349.7 467,-349.7 467,-330.7 418,-330.7"/>
<polygon fill="none" stroke="#000000" points="418,-330.7 418,-349.7 467,-349.7 467,-330.7 418,-330.7"/>
<text text-anchor="start" x="431.6105" y="-336.8" font-family="Helvetica,sans-Serif" font-size="11.00" fill="#000000">0 rows</text>
<polygon fill="#ffffff" stroke="transparent" points="467,-330.7 467,-349.7 500,-349.7 500,-330.7 467,-330.7"/>
<polygon fill="none" stroke="#000000" points="467,-330.7 467,-349.7 500,-349.7 500,-330.7 467,-330.7"/>
<text text-anchor="start" x="481.4053" y="-336.8" font-family="Helvetica,sans-Serif" font-size="11.00" fill="#000000">2 &gt;</text>
</a>
</g>
</g>
<!-- gymnasts&#45;&gt;gyms_has_users -->
<g id="edge7" class="edge">
<title>gymnasts:w&#45;&gt;gyms_has_users:e</title>
<path fill="none" stroke="#000000" d="M559.4866,-372.4911C537.5958,-375.0133 527.7951,-382.7 500,-382.7"/>
<polygon fill="#000000" stroke="#000000" points="566.0119,-372.1355 574.196,-375.2947 570.0059,-371.9177 574,-371.7 574,-371.7 574,-371.7 570.0059,-371.9177 573.804,-368.1053 566.0119,-372.1355 566.0119,-372.1355"/>
<ellipse fill="none" stroke="#000000" cx="562.8166" cy="-372.3097" rx="3.2" ry="3.2"/>
</g>
<!-- gymnasts&#45;&gt;gyms_has_users -->
<g id="edge8" class="edge">
<title>gymnasts:w&#45;&gt;gyms_has_users:e</title>
<path fill="none" stroke="#000000" d="M559.4866,-370.9089C537.5958,-368.3867 527.7951,-360.7 500,-360.7"/>
<polygon fill="#000000" stroke="#000000" points="566.0119,-371.2645 573.804,-375.2947 570.0059,-371.4823 574,-371.7 574,-371.7 574,-371.7 570.0059,-371.4823 574.196,-368.1053 566.0119,-371.2645 566.0119,-371.2645"/>
<ellipse fill="none" stroke="#000000" cx="562.8166" cy="-371.0903" rx="3.2" ry="3.2"/>
</g>
<!-- events -->
<g id="node7" class="node">
<title>events</title>
<g id="a_node7"><a xlink:href="../../tables/events.html" xlink:title="events" target="_top">
<polygon fill="#ffffff" stroke="transparent" points="239.5,-38.2 239.5,-143.2 324.5,-143.2 324.5,-38.2 239.5,-38.2"/>
<polygon fill="#f5f5f5" stroke="transparent" points="240,-119.7 240,-142.7 325,-142.7 325,-119.7 240,-119.7"/>
<polygon fill="none" stroke="#000000" points="240,-119.7 240,-142.7 325,-142.7 325,-119.7 240,-119.7"/>
<text text-anchor="start" x="245" y="-128.8" font-family="Helvetica,sans-Serif" font-weight="bold" font-size="11.00" fill="#000000">events</text>
<text text-anchor="start" x="290.0437" y="-127.8" font-family="Helvetica,sans-Serif" font-size="11.00" fill="#000000">[table]</text>
<polygon fill="none" stroke="#000000" points="240,-97.7 240,-119.7 325,-119.7 325,-97.7 240,-97.7"/>
<image xlink:href="../../images/primaryKeys.png" width="11px" height="12px" preserveAspectRatio="xMinYMin meet" x="245" y="-114.7"/>
<text text-anchor="start" x="260" y="-104.8" font-family="Helvetica,sans-Serif" font-size="11.00" fill="#000000">id</text>
<polygon fill="#ffffff" stroke="transparent" points="240,-75.7 240,-97.7 325,-97.7 325,-75.7 240,-75.7"/>
<polygon fill="none" stroke="#000000" points="240,-75.7 240,-97.7 325,-97.7 325,-75.7 240,-75.7"/>
<image xlink:href="../../images/foreignKeys.png" width="11px" height="12px" preserveAspectRatio="xMinYMin meet" x="245" y="-92.7"/>
<text text-anchor="start" x="260" y="-82.8" font-family="Helvetica,sans-Serif" font-size="11.00" fill="#000000">gym_id</text>
<polygon fill="none" stroke="#000000" points="240,-56.7 240,-75.7 325,-75.7 325,-56.7 240,-56.7"/>
<text text-anchor="start" x="243" y="-62.8" font-family="Helvetica,sans-Serif" font-size="11.00" fill="#000000">...</text>
<polygon fill="#ffffff" stroke="transparent" points="240,-37.7 240,-56.7 263,-56.7 263,-37.7 240,-37.7"/>
<polygon fill="none" stroke="#000000" points="240,-37.7 240,-56.7 263,-56.7 263,-37.7 240,-37.7"/>
<text text-anchor="start" x="243" y="-43.8" font-family="Helvetica,sans-Serif" font-size="11.00" fill="#000000">&lt; 1</text>
<polygon fill="#ffffff" stroke="transparent" points="263,-37.7 263,-56.7 302,-56.7 302,-37.7 263,-37.7"/>
<polygon fill="none" stroke="#000000" points="263,-37.7 263,-56.7 302,-56.7 302,-37.7 263,-37.7"/>
<text text-anchor="start" x="266.6105" y="-43.8" font-family="Helvetica,sans-Serif" font-size="11.00" fill="#000000">0 rows</text>
<polygon fill="#ffffff" stroke="transparent" points="302,-37.7 302,-56.7 325,-56.7 325,-37.7 302,-37.7"/>
<polygon fill="none" stroke="#000000" points="302,-37.7 302,-56.7 325,-56.7 325,-37.7 302,-37.7"/>
<text text-anchor="start" x="306.4053" y="-43.8" font-family="Helvetica,sans-Serif" font-size="11.00" fill="#000000">1 &gt;</text>
</a>
</g>
</g>
<!-- events&#45;&gt;gyms -->
<g id="edge6" class="edge">
<title>events:w&#45;&gt;gyms:e</title>
<path fill="none" stroke="#000000" d="M225.6122,-89.3075C176.9294,-110.4262 259.5748,-252.7 188,-252.7"/>
<polygon fill="#000000" stroke="#000000" points="232.1282,-88.1266 240.642,-90.2423 236.0641,-87.4133 240,-86.7 240,-86.7 240,-86.7 236.0641,-87.4133 239.358,-83.1577 232.1282,-88.1266 232.1282,-88.1266"/>
<ellipse fill="none" stroke="#000000" cx="228.9795" cy="-88.6973" rx="3.2" ry="3.2"/>
</g>
<!-- gyms_has_users&#45;&gt;gyms -->
<g id="edge9" class="edge">
<title>gyms_has_users:w&#45;&gt;gyms:e</title>
<path fill="none" stroke="#000000" d="M359.4369,-384.1276C351.2849,-385.8518 345.3758,-388.6511 333,-389.7 287.8286,-393.5284 267.5414,-416.5298 231,-389.7 179.5592,-351.9305 251.8176,-252.7 188,-252.7"/>
<polygon fill="#000000" stroke="#000000" points="366.0382,-383.4805 374.3512,-386.2828 370.0191,-383.0903 374,-382.7 374,-382.7 374,-382.7 370.0191,-383.0903 373.6488,-379.1172 366.0382,-383.4805 366.0382,-383.4805"/>
<ellipse fill="none" stroke="#000000" cx="362.8534" cy="-383.7928" rx="3.2" ry="3.2"/>
</g>
<!-- users -->
<g id="node9" class="node">
<title>users</title>
<g id="a_node9"><a xlink:href="../../tables/users.html" xlink:title="users" target="_top">
<polygon fill="#ffffff" stroke="transparent" points="246.5,-318.2 246.5,-379.2 317.5,-379.2 317.5,-318.2 246.5,-318.2"/>
<polygon fill="#f5f5f5" stroke="transparent" points="247,-355.7 247,-378.7 318,-378.7 318,-355.7 247,-355.7"/>
<polygon fill="none" stroke="#000000" points="247,-355.7 247,-378.7 318,-378.7 318,-355.7 247,-355.7"/>
<text text-anchor="start" x="252" y="-364.8" font-family="Helvetica,sans-Serif" font-weight="bold" font-size="11.00" fill="#000000">users</text>
<text text-anchor="start" x="283.0437" y="-363.8" font-family="Helvetica,sans-Serif" font-size="11.00" fill="#000000">[table]</text>
<polygon fill="none" stroke="#000000" points="247,-336.7 247,-355.7 318,-355.7 318,-336.7 247,-336.7"/>
<text text-anchor="start" x="250" y="-342.8" font-family="Helvetica,sans-Serif" font-size="11.00" fill="#000000">...</text>
<polygon fill="#ffffff" stroke="transparent" points="247,-317.7 247,-336.7 259,-336.7 259,-317.7 247,-317.7"/>
<polygon fill="none" stroke="#000000" points="247,-317.7 247,-336.7 259,-336.7 259,-317.7 247,-317.7"/>
<text text-anchor="start" x="249.9431" y="-323.8" font-family="Helvetica,sans-Serif" font-size="11.00" fill="#000000"> &#160;</text>
<polygon fill="#ffffff" stroke="transparent" points="259,-317.7 259,-336.7 297,-336.7 297,-317.7 259,-317.7"/>
<polygon fill="none" stroke="#000000" points="259,-317.7 259,-336.7 297,-336.7 297,-317.7 259,-317.7"/>
<text text-anchor="start" x="261.8053" y="-323.8" font-family="Helvetica,sans-Serif" font-size="11.00" fill="#000000">0 rows</text>
<polygon fill="#ffffff" stroke="transparent" points="297,-317.7 297,-336.7 318,-336.7 318,-317.7 297,-317.7"/>
<polygon fill="none" stroke="#000000" points="297,-317.7 297,-336.7 318,-336.7 318,-317.7 297,-317.7"/>
<text text-anchor="start" x="299.7027" y="-323.8" font-family="Helvetica,sans-Serif" font-size="11.00" fill="#000000">2 &gt;</text>
</a>
</g>
</g>
<!-- gyms_has_users&#45;&gt;users -->
<g id="edge10" class="edge">
<title>gyms_has_users:w&#45;&gt;users:e</title>
<path fill="none" stroke="#000000" d="M359.7025,-358.8607C345.26,-354.8553 338.1299,-345.7 318,-345.7"/>
<polygon fill="#000000" stroke="#000000" points="366.0654,-359.6792 373.5406,-364.2706 370.0327,-360.1896 374,-360.7 374,-360.7 374,-360.7 370.0327,-360.1896 374.4594,-357.1294 366.0654,-359.6792 366.0654,-359.6792"/>
<ellipse fill="none" stroke="#000000" cx="362.8915" cy="-359.2709" rx="3.2" ry="3.2"/>
</g>
<!-- skill_lists_has_skills -->
<g id="node10" class="node">
<title>skill_lists_has_skills</title>
<g id="a_node10"><a xlink:href="../../tables/skill_lists_has_skills.html" xlink:title="skill_lists_has_skills" target="_top">
<polygon fill="#ffffff" stroke="transparent" points="549,-101.2 549,-162.2 689,-162.2 689,-101.2 549,-101.2"/>
<polygon fill="#f5f5f5" stroke="transparent" points="549,-138.7 549,-161.7 689,-161.7 689,-138.7 549,-138.7"/>
<polygon fill="none" stroke="#000000" points="549,-138.7 549,-161.7 689,-161.7 689,-138.7 549,-138.7"/>
<text text-anchor="start" x="553.9207" y="-147.8" font-family="Helvetica,sans-Serif" font-weight="bold" font-size="11.00" fill="#000000">skill_lists_has_skills</text>
<text text-anchor="start" x="654.5219" y="-146.8" font-family="Helvetica,sans-Serif" font-size="11.00" fill="#000000">[table]</text>
<polygon fill="none" stroke="#000000" points="549,-119.7 549,-138.7 689,-138.7 689,-119.7 549,-119.7"/>
<text text-anchor="start" x="552" y="-125.8" font-family="Helvetica,sans-Serif" font-size="11.00" fill="#000000">...</text>
<polygon fill="#ffffff" stroke="transparent" points="549,-100.7 549,-119.7 604,-119.7 604,-100.7 549,-100.7"/>
<polygon fill="none" stroke="#000000" points="549,-100.7 549,-119.7 604,-119.7 604,-100.7 549,-100.7"/>
<text text-anchor="start" x="552" y="-106.8" font-family="Helvetica,sans-Serif" font-size="11.00" fill="#000000">&lt; 2</text>
<polygon fill="#ffffff" stroke="transparent" points="604,-100.7 604,-119.7 659,-119.7 659,-100.7 604,-100.7"/>
<polygon fill="none" stroke="#000000" points="604,-100.7 604,-119.7 659,-119.7 659,-100.7 604,-100.7"/>
<text text-anchor="start" x="623.6105" y="-106.8" font-family="Helvetica,sans-Serif" font-size="11.00" fill="#000000">0 rows</text>
<polygon fill="#ffffff" stroke="transparent" points="659,-100.7 659,-119.7 689,-119.7 689,-100.7 659,-100.7"/>
<polygon fill="none" stroke="#000000" points="659,-100.7 659,-119.7 689,-119.7 689,-100.7 659,-100.7"/>
<text text-anchor="start" x="679.8862" y="-106.8" font-family="Helvetica,sans-Serif" font-size="11.00" fill="#000000"> &#160;</text>
</a>
</g>
</g>
<!-- skill_lists_has_skills&#45;&gt;skill_lists -->
<g id="edge13" class="edge">
<title>skill_lists_has_skills:w&#45;&gt;skill_lists:e</title>
<path fill="none" stroke="#000000" d="M535.1511,-132.6933C525.7439,-139.4749 523.2445,-153.2322 508,-160.7 449.5309,-189.3422 423.2039,-165.6077 366,-196.7 344.1709,-208.5649 349.8452,-234.7 325,-234.7"/>
<polygon fill="#000000" stroke="#000000" points="541.3132,-130.9165 549.9974,-132.1591 545.1566,-129.8082 549,-128.7 549,-128.7 549,-128.7 545.1566,-129.8082 548.0026,-125.2409 541.3132,-130.9165 541.3132,-130.9165"/>
<ellipse fill="none" stroke="#000000" cx="538.2384" cy="-131.8031" rx="3.2" ry="3.2"/>
</g>
<!-- skills -->
<g id="node11" class="node">
<title>skills</title>
<g id="a_node11"><a xlink:href="../../tables/skills.html" xlink:title="skills" target="_top">
<polygon fill="#ffffff" stroke="transparent" points="397,-89.2 397,-150.2 477,-150.2 477,-89.2 397,-89.2"/>
<polygon fill="#f5f5f5" stroke="transparent" points="397,-126.7 397,-149.7 477,-149.7 477,-126.7 397,-126.7"/>
<polygon fill="none" stroke="#000000" points="397,-126.7 397,-149.7 477,-149.7 477,-126.7 397,-126.7"/>
<text text-anchor="start" x="402" y="-135.8" font-family="Helvetica,sans-Serif" font-weight="bold" font-size="11.00" fill="#000000">skills</text>
<text text-anchor="start" x="442.0437" y="-134.8" font-family="Helvetica,sans-Serif" font-size="11.00" fill="#000000">[table]</text>
<polygon fill="none" stroke="#000000" points="397,-107.7 397,-126.7 477,-126.7 477,-107.7 397,-107.7"/>
<text text-anchor="start" x="400" y="-113.8" font-family="Helvetica,sans-Serif" font-size="11.00" fill="#000000">...</text>
<polygon fill="#ffffff" stroke="transparent" points="397,-88.7 397,-107.7 418,-107.7 418,-88.7 397,-88.7"/>
<polygon fill="none" stroke="#000000" points="397,-88.7 397,-107.7 418,-107.7 418,-88.7 397,-88.7"/>
<text text-anchor="start" x="399.7027" y="-94.8" font-family="Helvetica,sans-Serif" font-size="11.00" fill="#000000">&lt; 3</text>
<polygon fill="#ffffff" stroke="transparent" points="418,-88.7 418,-107.7 456,-107.7 456,-88.7 418,-88.7"/>
<polygon fill="none" stroke="#000000" points="418,-88.7 418,-107.7 456,-107.7 456,-88.7 418,-88.7"/>
<text text-anchor="start" x="420.8053" y="-94.8" font-family="Helvetica,sans-Serif" font-size="11.00" fill="#000000">0 rows</text>
<polygon fill="#ffffff" stroke="transparent" points="456,-88.7 456,-107.7 477,-107.7 477,-88.7 456,-88.7"/>
<polygon fill="none" stroke="#000000" points="456,-88.7 456,-107.7 477,-107.7 477,-88.7 456,-88.7"/>
<text text-anchor="start" x="458.7027" y="-94.8" font-family="Helvetica,sans-Serif" font-size="11.00" fill="#000000">2 &gt;</text>
</a>
</g>
</g>
<!-- skill_lists_has_skills&#45;&gt;skills -->
<g id="edge12" class="edge">
<title>skill_lists_has_skills:w&#45;&gt;skills:e</title>
<path fill="none" stroke="#000000" d="M534.556,-127.798C513.4532,-125.0073 503.9923,-116.7 477,-116.7"/>
<polygon fill="#000000" stroke="#000000" points="541.0156,-128.2014 548.7756,-132.293 545.0078,-128.4507 549,-128.7 549,-128.7 549,-128.7 545.0078,-128.4507 549.2244,-125.107 541.0156,-128.2014 541.0156,-128.2014"/>
<ellipse fill="none" stroke="#000000" cx="537.8218" cy="-128.0019" rx="3.2" ry="3.2"/>
</g>
<!-- skills&#45;&gt;events -->
<g id="edge14" class="edge">
<title>skills:w&#45;&gt;events:e</title>
<path fill="none" stroke="#000000" d="M382.3281,-116.0723C361.462,-114.1863 351.6631,-108.7 325,-108.7"/>
<polygon fill="#000000" stroke="#000000" points="389.0073,-116.358 396.8461,-120.2967 393.0037,-116.529 397,-116.7 397,-116.7 397,-116.7 393.0037,-116.529 397.1539,-113.1033 389.0073,-116.358 389.0073,-116.358"/>
<ellipse fill="none" stroke="#000000" cx="385.8102" cy="-116.2212" rx="3.2" ry="3.2"/>
</g>
</g>
</svg>
