<?xml version="1.0" encoding="UTF-8" standalone="no"?>
<!DOCTYPE svg PUBLIC "-//W3C//DTD SVG 1.1//EN"
 "http://www.w3.org/Graphics/SVG/1.1/DTD/svg11.dtd">
<!-- Generated by graphviz version 2.40.1 (20161225.0304)
 -->
<!-- Title: twoDegreesRelationshipsDiagram Pages: 1 -->
<svg width="758pt" height="415pt"
 viewBox="0.00 0.00 758.00 415.20" xmlns="http://www.w3.org/2000/svg" xmlns:xlink="http://www.w3.org/1999/xlink">
<g id="graph0" class="graph" transform="scale(1 1) rotate(0) translate(4 411.2)">
<title>twoDegreesRelationshipsDiagram</title>
<polygon fill="#ffffff" stroke="transparent" points="-4,4 -4,-411.2 754,-411.2 754,4 -4,4"/>
<text text-anchor="middle" x="72.4936" y="-7.3" font-family="Helvetica,sans-Serif" font-size="11.00" fill="#000000">Generated by SchemaSpy</text>
<!-- challenges -->
<g id="node1" class="node">
<title>challenges</title>
<g id="a_node1"><a xlink:href="../../tables/challenges.html" xlink:title="challenges" target="_top">
<polygon fill="#ffffff" stroke="transparent" points="402.5,-280.2 402.5,-341.2 497.5,-341.2 497.5,-280.2 402.5,-280.2"/>
<polygon fill="#f5f5f5" stroke="transparent" points="403,-317.7 403,-340.7 498,-340.7 498,-317.7 403,-317.7"/>
<polygon fill="none" stroke="#000000" points="403,-317.7 403,-340.7 498,-340.7 498,-317.7 403,-317.7"/>
<text text-anchor="start" x="407.7144" y="-326.8" font-family="Helvetica,sans-Serif" font-weight="bold" font-size="11.00" fill="#000000">challenges</text>
<text text-anchor="start" x="463.5219" y="-325.8" font-family="Helvetica,sans-Serif" font-size="11.00" fill="#000000">[table]</text>
<polygon fill="none" stroke="#000000" points="403,-298.7 403,-317.7 498,-317.7 498,-298.7 403,-298.7"/>
<text text-anchor="start" x="406" y="-304.8" font-family="Helvetica,sans-Serif" font-size="11.00" fill="#000000">...</text>
<polygon fill="#ffffff" stroke="transparent" points="403,-279.7 403,-298.7 431,-298.7 431,-279.7 403,-279.7"/>
<polygon fill="none" stroke="#000000" points="403,-279.7 403,-298.7 431,-298.7 431,-279.7 403,-279.7"/>
<text text-anchor="start" x="406" y="-285.8" font-family="Helvetica,sans-Serif" font-size="11.00" fill="#000000">&lt; 2</text>
<polygon fill="#ffffff" stroke="transparent" points="431,-279.7 431,-298.7 473,-298.7 473,-279.7 431,-279.7"/>
<polygon fill="none" stroke="#000000" points="431,-279.7 431,-298.7 473,-298.7 473,-279.7 431,-279.7"/>
<text text-anchor="start" x="437.6105" y="-285.8" font-family="Helvetica,sans-Serif" font-size="11.00" fill="#000000">0 rows</text>
<polygon fill="#ffffff" stroke="transparent" points="473,-279.7 473,-298.7 498,-298.7 498,-279.7 473,-279.7"/>
<polygon fill="none" stroke="#000000" points="473,-279.7 473,-298.7 498,-298.7 498,-279.7 473,-279.7"/>
<text text-anchor="start" x="479.4053" y="-285.8" font-family="Helvetica,sans-Serif" font-size="11.00" fill="#000000">1 &gt;</text>
</a>
</g>
</g>
<!-- gyms -->
<g id="node2" class="node">
<title>gyms</title>
<g id="a_node2"><a xlink:href="../../tables/gyms.html" xlink:title="gyms" target="_top">
<polygon fill="#ffffff" stroke="transparent" points="8,-240.2 8,-323.2 93,-323.2 93,-240.2 8,-240.2"/>
<polygon fill="#f5f5f5" stroke="transparent" points="8.5,-299.7 8.5,-322.7 93.5,-322.7 93.5,-299.7 8.5,-299.7"/>
<polygon fill="none" stroke="#000000" points="8.5,-299.7 8.5,-322.7 93.5,-322.7 93.5,-299.7 8.5,-299.7"/>
<text text-anchor="start" x="13.5" y="-308.8" font-family="Helvetica,sans-Serif" font-weight="bold" font-size="11.00" fill="#000000">gyms</text>
<text text-anchor="start" x="58.5437" y="-307.8" font-family="Helvetica,sans-Serif" font-size="11.00" fill="#000000">[table]</text>
<polygon fill="none" stroke="#000000" points="8.5,-277.7 8.5,-299.7 93.5,-299.7 93.5,-277.7 8.5,-277.7"/>
<image xlink:href="../../images/primaryKeys.png" width="11px" height="12px" preserveAspectRatio="xMinYMin meet" x="13.5" y="-294.7"/>
<text text-anchor="start" x="28.5" y="-284.8" font-family="Helvetica,sans-Serif" font-size="11.00" fill="#000000">id</text>
<polygon fill="none" stroke="#000000" points="8.5,-258.7 8.5,-277.7 93.5,-277.7 93.5,-258.7 8.5,-258.7"/>
<text text-anchor="start" x="11.5" y="-264.8" font-family="Helvetica,sans-Serif" font-size="11.00" fill="#000000">...</text>
<polygon fill="#ffffff" stroke="transparent" points="8.5,-239.7 8.5,-258.7 27.5,-258.7 27.5,-239.7 8.5,-239.7"/>
<polygon fill="none" stroke="#000000" points="8.5,-239.7 8.5,-258.7 27.5,-258.7 27.5,-239.7 8.5,-239.7"/>
<text text-anchor="start" x="11.5" y="-245.8" font-family="Helvetica,sans-Serif" font-size="11.00" fill="#000000"> &#160;</text>
<polygon fill="#ffffff" stroke="transparent" points="27.5,-239.7 27.5,-258.7 68.5,-258.7 68.5,-239.7 27.5,-239.7"/>
<polygon fill="none" stroke="#000000" points="27.5,-239.7 27.5,-258.7 68.5,-258.7 68.5,-239.7 27.5,-239.7"/>
<text text-anchor="start" x="33.1105" y="-245.8" font-family="Helvetica,sans-Serif" font-size="11.00" fill="#000000">0 rows</text>
<polygon fill="#ffffff" stroke="transparent" points="68.5,-239.7 68.5,-258.7 93.5,-258.7 93.5,-239.7 68.5,-239.7"/>
<polygon fill="none" stroke="#000000" points="68.5,-239.7 68.5,-258.7 93.5,-258.7 93.5,-239.7 68.5,-239.7"/>
<text text-anchor="start" x="74.9053" y="-245.8" font-family="Helvetica,sans-Serif" font-size="11.00" fill="#000000">4 &gt;</text>
</a>
</g>
</g>
<!-- challenges&#45;&gt;gyms -->
<g id="edge1" class="edge">
<title>challenges:w&#45;&gt;gyms:e</title>
<path fill="none" stroke="#000000" d="M388.3881,-307.7908C280.6013,-309.1387 246.5977,-324.7467 134,-303.7 115.1319,-300.1732 112.6949,-288.7 93.5,-288.7"/>
<polygon fill="#000000" stroke="#000000" points="395.0002,-307.7497 403.0224,-311.2999 399.0001,-307.7249 403,-307.7 403,-307.7 403,-307.7 399.0001,-307.7249 402.9776,-304.1001 395.0002,-307.7497 395.0002,-307.7497"/>
<ellipse fill="none" stroke="#000000" cx="391.8002" cy="-307.7696" rx="3.2" ry="3.2"/>
</g>
<!-- completed_challenges -->
<g id="node3" class="node">
<title>completed_challenges</title>
<g id="a_node3"><a xlink:href="../../tables/completed_challenges.html" xlink:title="completed_challenges" target="_top">
<polygon fill="#ffffff" stroke="transparent" points="588,-275.2 588,-336.2 740,-336.2 740,-275.2 588,-275.2"/>
<polygon fill="#f5f5f5" stroke="transparent" points="588,-312.7 588,-335.7 740,-335.7 740,-312.7 588,-312.7"/>
<polygon fill="none" stroke="#000000" points="588,-312.7 588,-335.7 740,-335.7 740,-312.7 588,-312.7"/>
<text text-anchor="start" x="592.7899" y="-321.8" font-family="Helvetica,sans-Serif" font-weight="bold" font-size="11.00" fill="#000000">completed_challenges</text>
<text text-anchor="start" x="705.5219" y="-320.8" font-family="Helvetica,sans-Serif" font-size="11.00" fill="#000000">[table]</text>
<polygon fill="none" stroke="#000000" points="588,-293.7 588,-312.7 740,-312.7 740,-293.7 588,-293.7"/>
<text text-anchor="start" x="591" y="-299.8" font-family="Helvetica,sans-Serif" font-size="11.00" fill="#000000">...</text>
<polygon fill="#ffffff" stroke="transparent" points="588,-274.7 588,-293.7 649,-293.7 649,-274.7 588,-274.7"/>
<polygon fill="none" stroke="#000000" points="588,-274.7 588,-293.7 649,-293.7 649,-274.7 588,-274.7"/>
<text text-anchor="start" x="591" y="-280.8" font-family="Helvetica,sans-Serif" font-size="11.00" fill="#000000">&lt; 2</text>
<polygon fill="#ffffff" stroke="transparent" points="649,-274.7 649,-293.7 707,-293.7 707,-274.7 649,-274.7"/>
<polygon fill="none" stroke="#000000" points="649,-274.7 649,-293.7 707,-293.7 707,-274.7 649,-274.7"/>
<text text-anchor="start" x="671.6105" y="-280.8" font-family="Helvetica,sans-Serif" font-size="11.00" fill="#000000">0 rows</text>
<polygon fill="#ffffff" stroke="transparent" points="707,-274.7 707,-293.7 740,-293.7 740,-274.7 707,-274.7"/>
<polygon fill="none" stroke="#000000" points="707,-274.7 707,-293.7 740,-293.7 740,-274.7 707,-274.7"/>
<text text-anchor="start" x="730.8862" y="-280.8" font-family="Helvetica,sans-Serif" font-size="11.00" fill="#000000"> &#160;</text>
</a>
</g>
</g>
<!-- completed_challenges&#45;&gt;challenges -->
<g id="edge2" class="edge">
<title>completed_challenges:w&#45;&gt;challenges:e</title>
<path fill="none" stroke="#000000" d="M573.4938,-302.9412C544.7824,-303.9399 532.741,-307.7 498,-307.7"/>
<polygon fill="#000000" stroke="#000000" points="580.0011,-302.833 588.0599,-306.2995 584.0006,-302.7665 588,-302.7 588,-302.7 588,-302.7 584.0006,-302.7665 587.9401,-299.1005 580.0011,-302.833 580.0011,-302.833"/>
<ellipse fill="none" stroke="#000000" cx="576.8015" cy="-302.8862" rx="3.2" ry="3.2"/>
</g>
<!-- gymnasts -->
<g id="node4" class="node">
<title>gymnasts</title>
<g id="a_node4"><a xlink:href="../../tables/gymnasts.html" xlink:title="gymnasts" target="_top">
<polygon fill="#ffffff" stroke="transparent" points="363,-104.2 363,-231.2 537,-231.2 537,-104.2 363,-104.2"/>
<polygon fill="#f5f5f5" stroke="transparent" points="363,-207.7 363,-230.7 537,-230.7 537,-207.7 363,-207.7"/>
<polygon fill="none" stroke="#000000" points="363,-207.7 363,-230.7 537,-230.7 537,-207.7 363,-207.7"/>
<text text-anchor="start" x="368" y="-216.8" font-family="Helvetica,sans-Serif" font-weight="bold" font-size="11.00" fill="#000000">gymnasts</text>
<text text-anchor="start" x="502.0437" y="-215.8" font-family="Helvetica,sans-Serif" font-size="11.00" fill="#000000">[table]</text>
<polygon fill="none" stroke="#000000" points="363,-185.7 363,-207.7 537,-207.7 537,-185.7 363,-185.7"/>
<image xlink:href="../../images/primaryKeys.png" width="11px" height="12px" preserveAspectRatio="xMinYMin meet" x="368" y="-202.7"/>
<text text-anchor="start" x="383" y="-192.8" font-family="Helvetica,sans-Serif" font-size="11.00" fill="#000000">id</text>
<polygon fill="#ffffff" stroke="transparent" points="363,-163.7 363,-185.7 537,-185.7 537,-163.7 363,-163.7"/>
<polygon fill="none" stroke="#000000" points="363,-163.7 363,-185.7 537,-185.7 537,-163.7 363,-163.7"/>
<image xlink:href="../../images/foreignKeys.png" width="11px" height="12px" preserveAspectRatio="xMinYMin meet" x="368" y="-180.7"/>
<text text-anchor="start" x="383" y="-170.8" font-family="Helvetica,sans-Serif" font-size="11.00" fill="#000000">gyms_has_users_gyms_id</text>
<polygon fill="#ffffff" stroke="transparent" points="363,-141.7 363,-163.7 537,-163.7 537,-141.7 363,-141.7"/>
<polygon fill="none" stroke="#000000" points="363,-141.7 363,-163.7 537,-163.7 537,-141.7 363,-141.7"/>
<image xlink:href="../../images/foreignKeys.png" width="11px" height="12px" preserveAspectRatio="xMinYMin meet" x="368" y="-158.7"/>
<text text-anchor="start" x="383" y="-148.8" font-family="Helvetica,sans-Serif" font-size="11.00" fill="#000000">gyms_has_users_users_id</text>
<polygon fill="none" stroke="#000000" points="363,-122.7 363,-141.7 537,-141.7 537,-122.7 363,-122.7"/>
<text text-anchor="start" x="366" y="-128.8" font-family="Helvetica,sans-Serif" font-size="11.00" fill="#000000">...</text>
<polygon fill="#ffffff" stroke="transparent" points="363,-103.7 363,-122.7 431,-122.7 431,-103.7 363,-103.7"/>
<polygon fill="none" stroke="#000000" points="363,-103.7 363,-122.7 431,-122.7 431,-103.7 363,-103.7"/>
<text text-anchor="start" x="366" y="-109.8" font-family="Helvetica,sans-Serif" font-size="11.00" fill="#000000">&lt; 2</text>
<polygon fill="#ffffff" stroke="transparent" points="431,-103.7 431,-122.7 492,-122.7 492,-103.7 431,-103.7"/>
<polygon fill="none" stroke="#000000" points="431,-103.7 431,-122.7 492,-122.7 492,-103.7 431,-103.7"/>
<text text-anchor="start" x="456.6105" y="-109.8" font-family="Helvetica,sans-Serif" font-size="11.00" fill="#000000">0 rows</text>
<polygon fill="#ffffff" stroke="transparent" points="492,-103.7 492,-122.7 537,-122.7 537,-103.7 492,-103.7"/>
<polygon fill="none" stroke="#000000" points="492,-103.7 492,-122.7 537,-122.7 537,-103.7 492,-103.7"/>
<text text-anchor="start" x="518.4053" y="-109.8" font-family="Helvetica,sans-Serif" font-size="11.00" fill="#000000">3 &gt;</text>
</a>
</g>
</g>
<!-- completed_challenges&#45;&gt;gymnasts -->
<g id="edge3" class="edge">
<title>completed_challenges:w&#45;&gt;gymnasts:e</title>
<path fill="none" stroke="#000000" d="M573.9998,-298.9274C546.4963,-280.0446 583.358,-196.7 537,-196.7"/>
<polygon fill="#000000" stroke="#000000" points="580.2755,-300.6185 587.0633,-306.176 584.1378,-301.6592 588,-302.7 588,-302.7 588,-302.7 584.1378,-301.6592 588.9367,-299.224 580.2755,-300.6185 580.2755,-300.6185"/>
<ellipse fill="none" stroke="#000000" cx="577.1857" cy="-299.7859" rx="3.2" ry="3.2"/>
</g>
<!-- gyms_has_users -->
<g id="node7" class="node">
<title>gyms_has_users</title>
<g id="a_node7"><a xlink:href="../../tables/gyms_has_users.html" xlink:title="gyms_has_users" target="_top">
<polygon fill="#ffffff" stroke="transparent" points="142,-120.7 142,-210.7 314,-210.7 314,-120.7 142,-120.7"/>
<polygon fill="#f5f5f5" stroke="transparent" points="144,-185.7 144,-208.7 312,-208.7 312,-185.7 144,-185.7"/>
<polygon fill="none" stroke="#000000" points="144,-185.7 144,-208.7 312,-208.7 312,-185.7 144,-185.7"/>
<text text-anchor="start" x="149" y="-194.8" font-family="Helvetica,sans-Serif" font-weight="bold" font-size="11.00" fill="#000000">gyms_has_users</text>
<text text-anchor="start" x="277.0437" y="-193.8" font-family="Helvetica,sans-Serif" font-size="11.00" fill="#000000">[table]</text>
<polygon fill="none" stroke="#000000" points="144,-163.7 144,-185.7 262,-185.7 262,-163.7 144,-163.7"/>
<image xlink:href="../../images/primaryKeys.png" width="11px" height="12px" preserveAspectRatio="xMinYMin meet" x="149" y="-180.7"/>
<text text-anchor="start" x="164" y="-170.8" font-family="Helvetica,sans-Serif" font-size="11.00" fill="#000000">gym_id</text>
<polygon fill="none" stroke="#000000" points="262,-163.7 262,-185.7 312,-185.7 312,-163.7 262,-163.7"/>
<text text-anchor="start" x="264.6865" y="-171.4" font-family="Helvetica,sans-Serif" font-size="11.00" fill="#000000">bigint[19]</text>
<polygon fill="none" stroke="#000000" points="144,-141.7 144,-163.7 262,-163.7 262,-141.7 144,-141.7"/>
<image xlink:href="../../images/primaryKeys.png" width="11px" height="12px" preserveAspectRatio="xMinYMin meet" x="149" y="-158.7"/>
<text text-anchor="start" x="164" y="-148.8" font-family="Helvetica,sans-Serif" font-size="11.00" fill="#000000">user_id</text>
<polygon fill="none" stroke="#000000" points="262,-141.7 262,-163.7 312,-163.7 312,-141.7 262,-141.7"/>
<text text-anchor="start" x="265" y="-149.4" font-family="Helvetica,sans-Serif" font-size="11.00" fill="#000000">int[10]</text>
<polygon fill="#ffffff" stroke="transparent" points="144,-122.7 144,-141.7 194,-141.7 194,-122.7 144,-122.7"/>
<polygon fill="none" stroke="#000000" points="144,-122.7 144,-141.7 194,-141.7 194,-122.7 144,-122.7"/>
<text text-anchor="start" x="147" y="-128.8" font-family="Helvetica,sans-Serif" font-size="11.00" fill="#000000">&lt; 2</text>
<polygon fill="#ffffff" stroke="transparent" points="194,-122.7 194,-141.7 262,-141.7 262,-122.7 194,-122.7"/>
<polygon fill="none" stroke="#000000" points="194,-122.7 194,-141.7 262,-141.7 262,-122.7 194,-122.7"/>
<text text-anchor="start" x="226.6105" y="-128.8" font-family="Helvetica,sans-Serif" font-size="11.00" fill="#000000">0 rows</text>
<polygon fill="#ffffff" stroke="transparent" points="262,-122.7 262,-141.7 312,-141.7 312,-122.7 262,-122.7"/>
<polygon fill="none" stroke="#000000" points="262,-122.7 262,-141.7 312,-141.7 312,-122.7 262,-122.7"/>
<text text-anchor="start" x="293.4053" y="-128.8" font-family="Helvetica,sans-Serif" font-size="11.00" fill="#000000">2 &gt;</text>
<polygon fill="none" stroke="#000000" stroke-width="2" points="143,-121.7 143,-209.7 313,-209.7 313,-121.7 143,-121.7"/>
</a>
</g>
</g>
<!-- gymnasts&#45;&gt;gyms_has_users -->
<g id="edge6" class="edge">
<title>gymnasts:w&#45;&gt;gyms_has_users:e</title>
<path fill="none" stroke="#000000" d="M348.276,-174.7C336.2815,-174.7 328.8229,-174.7 312,-174.7"/>
<polygon fill="#000000" stroke="#000000" points="355,-174.7001 363,-178.3 359,-174.7 363,-174.7 363,-174.7 363,-174.7 359,-174.7 363,-171.1 355,-174.7001 355,-174.7001"/>
<ellipse fill="none" stroke="#000000" cx="351.8" cy="-174.7001" rx="3.2" ry="3.2"/>
</g>
<!-- gymnasts&#45;&gt;gyms_has_users -->
<g id="edge7" class="edge">
<title>gymnasts:w&#45;&gt;gyms_has_users:e</title>
<path fill="none" stroke="#000000" d="M348.276,-152.7C336.2815,-152.7 328.8229,-152.7 312,-152.7"/>
<polygon fill="#000000" stroke="#000000" points="355,-152.7001 363,-156.3 359,-152.7 363,-152.7 363,-152.7 363,-152.7 359,-152.7 363,-149.1 355,-152.7001 355,-152.7001"/>
<ellipse fill="none" stroke="#000000" cx="351.8" cy="-152.7001" rx="3.2" ry="3.2"/>
</g>
<!-- events -->
<g id="node5" class="node">
<title>events</title>
<g id="a_node5"><a xlink:href="../../tables/events.html" xlink:title="events" target="_top">
<polygon fill="#ffffff" stroke="transparent" points="188,-342.2 188,-403.2 268,-403.2 268,-342.2 188,-342.2"/>
<polygon fill="#f5f5f5" stroke="transparent" points="188,-379.7 188,-402.7 268,-402.7 268,-379.7 188,-379.7"/>
<polygon fill="none" stroke="#000000" points="188,-379.7 188,-402.7 268,-402.7 268,-379.7 188,-379.7"/>
<text text-anchor="start" x="193" y="-388.8" font-family="Helvetica,sans-Serif" font-weight="bold" font-size="11.00" fill="#000000">events</text>
<text text-anchor="start" x="233.0437" y="-387.8" font-family="Helvetica,sans-Serif" font-size="11.00" fill="#000000">[table]</text>
<polygon fill="none" stroke="#000000" points="188,-360.7 188,-379.7 268,-379.7 268,-360.7 188,-360.7"/>
<text text-anchor="start" x="191" y="-366.8" font-family="Helvetica,sans-Serif" font-size="11.00" fill="#000000">...</text>
<polygon fill="#ffffff" stroke="transparent" points="188,-341.7 188,-360.7 209,-360.7 209,-341.7 188,-341.7"/>
<polygon fill="none" stroke="#000000" points="188,-341.7 188,-360.7 209,-360.7 209,-341.7 188,-341.7"/>
<text text-anchor="start" x="190.7027" y="-347.8" font-family="Helvetica,sans-Serif" font-size="11.00" fill="#000000">&lt; 1</text>
<polygon fill="#ffffff" stroke="transparent" points="209,-341.7 209,-360.7 247,-360.7 247,-341.7 209,-341.7"/>
<polygon fill="none" stroke="#000000" points="209,-341.7 209,-360.7 247,-360.7 247,-341.7 209,-341.7"/>
<text text-anchor="start" x="211.8053" y="-347.8" font-family="Helvetica,sans-Serif" font-size="11.00" fill="#000000">0 rows</text>
<polygon fill="#ffffff" stroke="transparent" points="247,-341.7 247,-360.7 268,-360.7 268,-341.7 247,-341.7"/>
<polygon fill="none" stroke="#000000" points="247,-341.7 247,-360.7 268,-360.7 268,-341.7 247,-341.7"/>
<text text-anchor="start" x="249.7027" y="-347.8" font-family="Helvetica,sans-Serif" font-size="11.00" fill="#000000">1 &gt;</text>
</a>
</g>
</g>
<!-- events&#45;&gt;gyms -->
<g id="edge4" class="edge">
<title>events:w&#45;&gt;gyms:e</title>
<path fill="none" stroke="#000000" d="M173.6956,-367.5298C156.5791,-361.4917 152.6733,-343.8736 134,-327.7 115.1112,-311.3397 118.4889,-288.7 93.5,-288.7"/>
<polygon fill="#000000" stroke="#000000" points="180.0905,-368.5 187.46,-373.2593 184.0453,-369.1 188,-369.7 188,-369.7 188,-369.7 184.0453,-369.1 188.54,-366.1407 180.0905,-368.5 180.0905,-368.5"/>
<ellipse fill="none" stroke="#000000" cx="176.9267" cy="-368.02" rx="3.2" ry="3.2"/>
</g>
<!-- gymnast_has_skills -->
<g id="node6" class="node">
<title>gymnast_has_skills</title>
<g id="a_node6"><a xlink:href="../../tables/gymnast_has_skills.html" xlink:title="gymnast_has_skills" target="_top">
<polygon fill="#ffffff" stroke="transparent" points="595,-174.2 595,-235.2 733,-235.2 733,-174.2 595,-174.2"/>
<polygon fill="#f5f5f5" stroke="transparent" points="595,-211.7 595,-234.7 733,-234.7 733,-211.7 595,-211.7"/>
<polygon fill="none" stroke="#000000" points="595,-211.7 595,-234.7 733,-234.7 733,-211.7 595,-211.7"/>
<text text-anchor="start" x="599.8271" y="-220.8" font-family="Helvetica,sans-Serif" font-weight="bold" font-size="11.00" fill="#000000">gymnast_has_skills</text>
<text text-anchor="start" x="698.5219" y="-219.8" font-family="Helvetica,sans-Serif" font-size="11.00" fill="#000000">[table]</text>
<polygon fill="none" stroke="#000000" points="595,-192.7 595,-211.7 733,-211.7 733,-192.7 595,-192.7"/>
<text text-anchor="start" x="598" y="-198.8" font-family="Helvetica,sans-Serif" font-size="11.00" fill="#000000">...</text>
<polygon fill="#ffffff" stroke="transparent" points="595,-173.7 595,-192.7 649,-192.7 649,-173.7 595,-173.7"/>
<polygon fill="none" stroke="#000000" points="595,-173.7 595,-192.7 649,-192.7 649,-173.7 595,-173.7"/>
<text text-anchor="start" x="598" y="-179.8" font-family="Helvetica,sans-Serif" font-size="11.00" fill="#000000">&lt; 2</text>
<polygon fill="#ffffff" stroke="transparent" points="649,-173.7 649,-192.7 704,-192.7 704,-173.7 649,-173.7"/>
<polygon fill="none" stroke="#000000" points="649,-173.7 649,-192.7 704,-192.7 704,-173.7 649,-173.7"/>
<text text-anchor="start" x="668.6105" y="-179.8" font-family="Helvetica,sans-Serif" font-size="11.00" fill="#000000">0 rows</text>
<polygon fill="#ffffff" stroke="transparent" points="704,-173.7 704,-192.7 733,-192.7 733,-173.7 704,-173.7"/>
<polygon fill="none" stroke="#000000" points="704,-173.7 704,-192.7 733,-192.7 733,-173.7 704,-173.7"/>
<text text-anchor="start" x="723.8862" y="-179.8" font-family="Helvetica,sans-Serif" font-size="11.00" fill="#000000"> &#160;</text>
</a>
</g>
</g>
<!-- gymnast_has_skills&#45;&gt;gymnasts -->
<g id="edge5" class="edge">
<title>gymnast_has_skills:w&#45;&gt;gymnasts:e</title>
<path fill="none" stroke="#000000" d="M580.4264,-201.0869C565.452,-199.7518 557.2136,-196.7 537,-196.7"/>
<polygon fill="#000000" stroke="#000000" points="587.0071,-201.3637 594.8487,-205.2968 591.0035,-201.5318 595,-201.7 595,-201.7 595,-201.7 591.0035,-201.5318 595.1513,-198.1032 587.0071,-201.3637 587.0071,-201.3637"/>
<ellipse fill="none" stroke="#000000" cx="583.8099" cy="-201.2292" rx="3.2" ry="3.2"/>
</g>
<!-- gyms_has_users&#45;&gt;gyms -->
<g id="edge9" class="edge">
<title>gyms_has_users:w&#45;&gt;gyms:e</title>
<path fill="none" stroke="#000000" d="M129.6679,-178.493C100.3973,-198.2737 142.8543,-288.7 93.5,-288.7"/>
<polygon fill="#000000" stroke="#000000" points="136.2662,-176.7468 144.921,-178.1802 140.1331,-175.7234 144,-174.7 144,-174.7 144,-174.7 140.1331,-175.7234 143.079,-171.2198 136.2662,-176.7468 136.2662,-176.7468"/>
<ellipse fill="none" stroke="#000000" cx="133.1727" cy="-177.5655" rx="3.2" ry="3.2"/>
</g>
<!-- users -->
<g id="node9" class="node">
<title>users</title>
<g id="a_node9"><a xlink:href="../../tables/users.html" xlink:title="users" target="_top">
<polygon fill="#ffffff" stroke="transparent" points="8,-39.2 8,-144.2 93,-144.2 93,-39.2 8,-39.2"/>
<polygon fill="#f5f5f5" stroke="transparent" points="8.5,-120.7 8.5,-143.7 93.5,-143.7 93.5,-120.7 8.5,-120.7"/>
<polygon fill="none" stroke="#000000" points="8.5,-120.7 8.5,-143.7 93.5,-143.7 93.5,-120.7 8.5,-120.7"/>
<text text-anchor="start" x="13.5" y="-129.8" font-family="Helvetica,sans-Serif" font-weight="bold" font-size="11.00" fill="#000000">users</text>
<text text-anchor="start" x="58.5437" y="-128.8" font-family="Helvetica,sans-Serif" font-size="11.00" fill="#000000">[table]</text>
<polygon fill="none" stroke="#000000" points="8.5,-98.7 8.5,-120.7 93.5,-120.7 93.5,-98.7 8.5,-98.7"/>
<image xlink:href="../../images/primaryKeys.png" width="11px" height="12px" preserveAspectRatio="xMinYMin meet" x="13.5" y="-115.7"/>
<text text-anchor="start" x="28.5" y="-105.8" font-family="Helvetica,sans-Serif" font-size="11.00" fill="#000000">id</text>
<polygon fill="#ffffff" stroke="transparent" points="8.5,-76.7 8.5,-98.7 93.5,-98.7 93.5,-76.7 8.5,-76.7"/>
<polygon fill="none" stroke="#000000" points="8.5,-76.7 8.5,-98.7 93.5,-98.7 93.5,-76.7 8.5,-76.7"/>
<text text-anchor="start" x="28.5" y="-83.8" font-family="Helvetica,sans-Serif" font-size="11.00" fill="#000000">email</text>
<polygon fill="none" stroke="#000000" points="8.5,-57.7 8.5,-76.7 93.5,-76.7 93.5,-57.7 8.5,-57.7"/>
<text text-anchor="start" x="11.5" y="-63.8" font-family="Helvetica,sans-Serif" font-size="11.00" fill="#000000">...</text>
<polygon fill="#ffffff" stroke="transparent" points="8.5,-38.7 8.5,-57.7 27.5,-57.7 27.5,-38.7 8.5,-38.7"/>
<polygon fill="none" stroke="#000000" points="8.5,-38.7 8.5,-57.7 27.5,-57.7 27.5,-38.7 8.5,-38.7"/>
<text text-anchor="start" x="11.5" y="-44.8" font-family="Helvetica,sans-Serif" font-size="11.00" fill="#000000"> &#160;</text>
<polygon fill="#ffffff" stroke="transparent" points="27.5,-38.7 27.5,-57.7 68.5,-57.7 68.5,-38.7 27.5,-38.7"/>
<polygon fill="none" stroke="#000000" points="27.5,-38.7 27.5,-57.7 68.5,-57.7 68.5,-38.7 27.5,-38.7"/>
<text text-anchor="start" x="33.1105" y="-44.8" font-family="Helvetica,sans-Serif" font-size="11.00" fill="#000000">0 rows</text>
<polygon fill="#ffffff" stroke="transparent" points="68.5,-38.7 68.5,-57.7 93.5,-57.7 93.5,-38.7 68.5,-38.7"/>
<polygon fill="none" stroke="#000000" points="68.5,-38.7 68.5,-57.7 93.5,-57.7 93.5,-38.7 68.5,-38.7"/>
<text text-anchor="start" x="74.9053" y="-44.8" font-family="Helvetica,sans-Serif" font-size="11.00" fill="#000000">2 &gt;</text>
</a>
</g>
</g>
<!-- gyms_has_users&#45;&gt;users -->
<g id="edge10" class="edge">
<title>gyms_has_users:w&#45;&gt;users:e</title>
<path fill="none" stroke="#000000" d="M130.0963,-148.0982C116.3919,-137.0054 116.9908,-109.7 93.5,-109.7"/>
<polygon fill="#000000" stroke="#000000" points="136.4052,-150.1863 142.8688,-156.1177 140.2026,-151.4431 144,-152.7 144,-152.7 144,-152.7 140.2026,-151.4431 145.1312,-149.2823 136.4052,-150.1863 136.4052,-150.1863"/>
<ellipse fill="none" stroke="#000000" cx="133.3672" cy="-149.1808" rx="3.2" ry="3.2"/>
</g>
<!-- gymnasts_has_classes -->
<g id="node8" class="node">
<title>gymnasts_has_classes</title>
<g id="a_node8"><a xlink:href="../../tables/gymnasts_has_classes.html" xlink:title="gymnasts_has_classes" target="_top">
<polygon fill="#ffffff" stroke="transparent" points="586,-92.2 586,-153.2 742,-153.2 742,-92.2 586,-92.2"/>
<polygon fill="#f5f5f5" stroke="transparent" points="586,-129.7 586,-152.7 742,-152.7 742,-129.7 586,-129.7"/>
<polygon fill="none" stroke="#000000" points="586,-129.7 586,-152.7 742,-152.7 742,-129.7 586,-129.7"/>
<text text-anchor="start" x="590.6531" y="-138.8" font-family="Helvetica,sans-Serif" font-weight="bold" font-size="11.00" fill="#000000">gymnasts_has_classes</text>
<text text-anchor="start" x="707.5219" y="-137.8" font-family="Helvetica,sans-Serif" font-size="11.00" fill="#000000">[table]</text>
<polygon fill="none" stroke="#000000" points="586,-110.7 586,-129.7 742,-129.7 742,-110.7 586,-110.7"/>
<text text-anchor="start" x="589" y="-116.8" font-family="Helvetica,sans-Serif" font-size="11.00" fill="#000000">...</text>
<polygon fill="#ffffff" stroke="transparent" points="586,-91.7 586,-110.7 649,-110.7 649,-91.7 586,-91.7"/>
<polygon fill="none" stroke="#000000" points="586,-91.7 586,-110.7 649,-110.7 649,-91.7 586,-91.7"/>
<text text-anchor="start" x="589" y="-97.8" font-family="Helvetica,sans-Serif" font-size="11.00" fill="#000000">&lt; 2</text>
<polygon fill="#ffffff" stroke="transparent" points="649,-91.7 649,-110.7 708,-110.7 708,-91.7 649,-91.7"/>
<polygon fill="none" stroke="#000000" points="649,-91.7 649,-110.7 708,-110.7 708,-91.7 649,-91.7"/>
<text text-anchor="start" x="672.6105" y="-97.8" font-family="Helvetica,sans-Serif" font-size="11.00" fill="#000000">0 rows</text>
<polygon fill="#ffffff" stroke="transparent" points="708,-91.7 708,-110.7 742,-110.7 742,-91.7 708,-91.7"/>
<polygon fill="none" stroke="#000000" points="708,-91.7 708,-110.7 742,-110.7 742,-91.7 708,-91.7"/>
<text text-anchor="start" x="732.8862" y="-97.8" font-family="Helvetica,sans-Serif" font-size="11.00" fill="#000000"> &#160;</text>
</a>
</g>
</g>
<!-- gymnasts_has_classes&#45;&gt;gymnasts -->
<g id="edge8" class="edge">
<title>gymnasts_has_classes:w&#45;&gt;gymnasts:e</title>
<path fill="none" stroke="#000000" d="M572.2659,-124.2861C553.3724,-140.8628 571.5427,-196.7 537,-196.7"/>
<polygon fill="#000000" stroke="#000000" points="578.4119,-122.2339 587.1402,-123.1147 582.2059,-120.9669 586,-119.7 586,-119.7 586,-119.7 582.2059,-120.9669 584.8598,-116.2853 578.4119,-122.2339 578.4119,-122.2339"/>
<ellipse fill="none" stroke="#000000" cx="575.3766" cy="-123.2474" rx="3.2" ry="3.2"/>
</g>
<!-- skill_lists -->
<g id="node10" class="node">
<title>skill_lists</title>
<g id="a_node10"><a xlink:href="../../tables/skill_lists.html" xlink:title="skill_lists" target="_top">
<polygon fill="#ffffff" stroke="transparent" points="185,-232.2 185,-293.2 271,-293.2 271,-232.2 185,-232.2"/>
<polygon fill="#f5f5f5" stroke="transparent" points="185,-269.7 185,-292.7 271,-292.7 271,-269.7 185,-269.7"/>
<polygon fill="none" stroke="#000000" points="185,-269.7 185,-292.7 271,-292.7 271,-269.7 185,-269.7"/>
<text text-anchor="start" x="189.8119" y="-278.8" font-family="Helvetica,sans-Serif" font-weight="bold" font-size="11.00" fill="#000000">skill_lists</text>
<text text-anchor="start" x="236.5219" y="-277.8" font-family="Helvetica,sans-Serif" font-size="11.00" fill="#000000">[table]</text>
<polygon fill="none" stroke="#000000" points="185,-250.7 185,-269.7 271,-269.7 271,-250.7 185,-250.7"/>
<text text-anchor="start" x="188" y="-256.8" font-family="Helvetica,sans-Serif" font-size="11.00" fill="#000000">...</text>
<polygon fill="#ffffff" stroke="transparent" points="185,-231.7 185,-250.7 209,-250.7 209,-231.7 185,-231.7"/>
<polygon fill="none" stroke="#000000" points="185,-231.7 185,-250.7 209,-250.7 209,-231.7 185,-231.7"/>
<text text-anchor="start" x="188" y="-237.8" font-family="Helvetica,sans-Serif" font-size="11.00" fill="#000000">&lt; 1</text>
<polygon fill="#ffffff" stroke="transparent" points="209,-231.7 209,-250.7 248,-250.7 248,-231.7 209,-231.7"/>
<polygon fill="none" stroke="#000000" points="209,-231.7 209,-250.7 248,-250.7 248,-231.7 209,-231.7"/>
<text text-anchor="start" x="212.6105" y="-237.8" font-family="Helvetica,sans-Serif" font-size="11.00" fill="#000000">0 rows</text>
<polygon fill="#ffffff" stroke="transparent" points="248,-231.7 248,-250.7 271,-250.7 271,-231.7 248,-231.7"/>
<polygon fill="none" stroke="#000000" points="248,-231.7 248,-250.7 271,-250.7 271,-231.7 248,-231.7"/>
<text text-anchor="start" x="252.4053" y="-237.8" font-family="Helvetica,sans-Serif" font-size="11.00" fill="#000000">2 &gt;</text>
</a>
</g>
</g>
<!-- skill_lists&#45;&gt;gyms -->
<g id="edge11" class="edge">
<title>skill_lists:w&#45;&gt;gyms:e</title>
<path fill="none" stroke="#000000" d="M170.5699,-260.9461C140.2248,-266.4969 130.8278,-288.7 93.5,-288.7"/>
<polygon fill="#000000" stroke="#000000" points="177.0297,-260.3883 185.3097,-263.2867 181.0148,-260.0442 185,-259.7 185,-259.7 185,-259.7 181.0148,-260.0442 184.6903,-256.1133 177.0297,-260.3883 177.0297,-260.3883"/>
<ellipse fill="none" stroke="#000000" cx="173.8415" cy="-260.6636" rx="3.2" ry="3.2"/>
</g>
<!-- subscriptions -->
<g id="node11" class="node">
<title>subscriptions</title>
<g id="a_node11"><a xlink:href="../../tables/subscriptions.html" xlink:title="subscriptions" target="_top">
<polygon fill="#ffffff" stroke="transparent" points="174.5,-38.2 174.5,-99.2 281.5,-99.2 281.5,-38.2 174.5,-38.2"/>
<polygon fill="#f5f5f5" stroke="transparent" points="175,-75.7 175,-98.7 282,-98.7 282,-75.7 175,-75.7"/>
<polygon fill="none" stroke="#000000" points="175,-75.7 175,-98.7 282,-98.7 282,-75.7 175,-75.7"/>
<text text-anchor="start" x="179.9125" y="-84.8" font-family="Helvetica,sans-Serif" font-weight="bold" font-size="11.00" fill="#000000">subscriptions</text>
<text text-anchor="start" x="247.5219" y="-83.8" font-family="Helvetica,sans-Serif" font-size="11.00" fill="#000000">[table]</text>
<polygon fill="none" stroke="#000000" points="175,-56.7 175,-75.7 282,-75.7 282,-56.7 175,-56.7"/>
<text text-anchor="start" x="178" y="-62.8" font-family="Helvetica,sans-Serif" font-size="11.00" fill="#000000">...</text>
<polygon fill="#ffffff" stroke="transparent" points="175,-37.7 175,-56.7 209,-56.7 209,-37.7 175,-37.7"/>
<polygon fill="none" stroke="#000000" points="175,-37.7 175,-56.7 209,-56.7 209,-37.7 175,-37.7"/>
<text text-anchor="start" x="178" y="-43.8" font-family="Helvetica,sans-Serif" font-size="11.00" fill="#000000">&lt; 3</text>
<polygon fill="#ffffff" stroke="transparent" points="209,-37.7 209,-56.7 254,-56.7 254,-37.7 209,-37.7"/>
<polygon fill="none" stroke="#000000" points="209,-37.7 209,-56.7 254,-56.7 254,-37.7 209,-37.7"/>
<text text-anchor="start" x="218.6105" y="-43.8" font-family="Helvetica,sans-Serif" font-size="11.00" fill="#000000">0 rows</text>
<polygon fill="#ffffff" stroke="transparent" points="254,-37.7 254,-56.7 282,-56.7 282,-37.7 254,-37.7"/>
<polygon fill="none" stroke="#000000" points="254,-37.7 254,-56.7 282,-56.7 282,-37.7 254,-37.7"/>
<text text-anchor="start" x="263.4053" y="-43.8" font-family="Helvetica,sans-Serif" font-size="11.00" fill="#000000">2 &gt;</text>
</a>
</g>
</g>
<!-- subscriptions&#45;&gt;users -->
<g id="edge12" class="edge">
<title>subscriptions:w&#45;&gt;users:e</title>
<path fill="none" stroke="#000000" d="M160.6241,-67.8222C133.3153,-76.6114 129.1968,-109.7 93.5,-109.7"/>
<polygon fill="#000000" stroke="#000000" points="167.0858,-66.8684 175.5258,-69.2614 171.0429,-66.2842 175,-65.7 175,-65.7 175,-65.7 171.0429,-66.2842 174.4742,-62.1386 167.0858,-66.8684 167.0858,-66.8684"/>
<ellipse fill="none" stroke="#000000" cx="163.9201" cy="-67.3357" rx="3.2" ry="3.2"/>
</g>
</g>
</svg>
