<?xml version="1.0" encoding="UTF-8" standalone="no"?>
<!DOCTYPE svg PUBLIC "-//W3C//DTD SVG 1.1//EN"
 "http://www.w3.org/Graphics/SVG/1.1/DTD/svg11.dtd">
<!-- Generated by graphviz version 2.40.1 (20161225.0304)
 -->
<!-- Title: oneDegreeRelationshipsDiagram Pages: 1 -->
<svg width="381pt" height="389pt"
 viewBox="0.00 0.00 381.00 389.20" xmlns="http://www.w3.org/2000/svg" xmlns:xlink="http://www.w3.org/1999/xlink">
<g id="graph0" class="graph" transform="scale(1 1) rotate(0) translate(4 385.2)">
<title>oneDegreeRelationshipsDiagram</title>
<polygon fill="#ffffff" stroke="transparent" points="-4,4 -4,-385.2 377,-385.2 377,4 -4,4"/>
<text text-anchor="middle" x="72.4936" y="-7.3" font-family="Helvetica,sans-Serif" font-size="11.00" fill="#000000">Generated by SchemaSpy</text>
<!-- events -->
<g id="node1" class="node">
<title>events</title>
<g id="a_node1"><a xlink:href="../../tables/events.html" xlink:title="events" target="_top">
<polygon fill="#ffffff" stroke="transparent" points="259.5,-272.2 259.5,-377.2 344.5,-377.2 344.5,-272.2 259.5,-272.2"/>
<polygon fill="#f5f5f5" stroke="transparent" points="260,-353.7 260,-376.7 345,-376.7 345,-353.7 260,-353.7"/>
<polygon fill="none" stroke="#000000" points="260,-353.7 260,-376.7 345,-376.7 345,-353.7 260,-353.7"/>
<text text-anchor="start" x="265" y="-362.8" font-family="Helvetica,sans-Serif" font-weight="bold" font-size="11.00" fill="#000000">events</text>
<text text-anchor="start" x="310.0437" y="-361.8" font-family="Helvetica,sans-Serif" font-size="11.00" fill="#000000">[table]</text>
<polygon fill="none" stroke="#000000" points="260,-331.7 260,-353.7 345,-353.7 345,-331.7 260,-331.7"/>
<image xlink:href="../../images/primaryKeys.png" width="11px" height="12px" preserveAspectRatio="xMinYMin meet" x="265" y="-348.7"/>
<text text-anchor="start" x="280" y="-338.8" font-family="Helvetica,sans-Serif" font-size="11.00" fill="#000000">id</text>
<polygon fill="#ffffff" stroke="transparent" points="260,-309.7 260,-331.7 345,-331.7 345,-309.7 260,-309.7"/>
<polygon fill="none" stroke="#000000" points="260,-309.7 260,-331.7 345,-331.7 345,-309.7 260,-309.7"/>
<image xlink:href="../../images/foreignKeys.png" width="11px" height="12px" preserveAspectRatio="xMinYMin meet" x="265" y="-326.7"/>
<text text-anchor="start" x="280" y="-316.8" font-family="Helvetica,sans-Serif" font-size="11.00" fill="#000000">gym_id</text>
<polygon fill="none" stroke="#000000" points="260,-290.7 260,-309.7 345,-309.7 345,-290.7 260,-290.7"/>
<text text-anchor="start" x="263" y="-296.8" font-family="Helvetica,sans-Serif" font-size="11.00" fill="#000000">...</text>
<polygon fill="#ffffff" stroke="transparent" points="260,-271.7 260,-290.7 283,-290.7 283,-271.7 260,-271.7"/>
<polygon fill="none" stroke="#000000" points="260,-271.7 260,-290.7 283,-290.7 283,-271.7 260,-271.7"/>
<text text-anchor="start" x="263" y="-277.8" font-family="Helvetica,sans-Serif" font-size="11.00" fill="#000000">&lt; 1</text>
<polygon fill="#ffffff" stroke="transparent" points="283,-271.7 283,-290.7 322,-290.7 322,-271.7 283,-271.7"/>
<polygon fill="none" stroke="#000000" points="283,-271.7 283,-290.7 322,-290.7 322,-271.7 283,-271.7"/>
<text text-anchor="start" x="286.6105" y="-277.8" font-family="Helvetica,sans-Serif" font-size="11.00" fill="#000000">0 rows</text>
<polygon fill="#ffffff" stroke="transparent" points="322,-271.7 322,-290.7 345,-290.7 345,-271.7 322,-271.7"/>
<polygon fill="none" stroke="#000000" points="322,-271.7 322,-290.7 345,-290.7 345,-271.7 322,-271.7"/>
<text text-anchor="start" x="326.4053" y="-277.8" font-family="Helvetica,sans-Serif" font-size="11.00" fill="#000000">1 &gt;</text>
</a>
</g>
</g>
<!-- gyms -->
<g id="node2" class="node">
<title>gyms</title>
<g id="a_node2"><a xlink:href="../../tables/gyms.html" xlink:title="gyms" target="_top">
<polygon fill="#ffffff" stroke="transparent" points="8,-52.7 8,-252.7 190,-252.7 190,-52.7 8,-52.7"/>
<polygon fill="#f5f5f5" stroke="transparent" points="10,-227.7 10,-250.7 188,-250.7 188,-227.7 10,-227.7"/>
<polygon fill="none" stroke="#000000" points="10,-227.7 10,-250.7 188,-250.7 188,-227.7 10,-227.7"/>
<text text-anchor="start" x="15" y="-236.8" font-family="Helvetica,sans-Serif" font-weight="bold" font-size="11.00" fill="#000000">gyms</text>
<text text-anchor="start" x="153.0437" y="-235.8" font-family="Helvetica,sans-Serif" font-size="11.00" fill="#000000">[table]</text>
<polygon fill="none" stroke="#000000" points="10,-205.7 10,-227.7 95,-227.7 95,-205.7 10,-205.7"/>
<image xlink:href="../../images/primaryKeys.png" width="11px" height="12px" preserveAspectRatio="xMinYMin meet" x="15" y="-222.7"/>
<text text-anchor="start" x="30" y="-212.8" font-family="Helvetica,sans-Serif" font-size="11.00" fill="#000000">id</text>
<polygon fill="none" stroke="#000000" points="95,-205.7 95,-227.7 188,-227.7 188,-205.7 95,-205.7"/>
<text text-anchor="start" x="98" y="-213.4" font-family="Helvetica,sans-Serif" font-size="11.00" fill="#000000">bigint[19]</text>
<polygon fill="none" stroke="#000000" points="10,-183.7 10,-205.7 95,-205.7 95,-183.7 10,-183.7"/>
<text text-anchor="start" x="30" y="-190.8" font-family="Helvetica,sans-Serif" font-size="11.00" fill="#000000">name</text>
<polygon fill="none" stroke="#000000" points="95,-183.7 95,-205.7 188,-205.7 188,-183.7 95,-183.7"/>
<text text-anchor="start" x="98" y="-191.4" font-family="Helvetica,sans-Serif" font-size="11.00" fill="#000000">varchar[45]</text>
<polygon fill="none" stroke="#000000" points="10,-161.7 10,-183.7 95,-183.7 95,-161.7 10,-161.7"/>
<text text-anchor="start" x="30" y="-168.8" font-family="Helvetica,sans-Serif" font-size="11.00" fill="#000000">description</text>
<polygon fill="none" stroke="#000000" points="95,-161.7 95,-183.7 188,-183.7 188,-161.7 95,-161.7"/>
<text text-anchor="start" x="98" y="-169.4" font-family="Helvetica,sans-Serif" font-size="11.00" fill="#000000">varchar[45]</text>
<polygon fill="none" stroke="#000000" points="10,-139.7 10,-161.7 95,-161.7 95,-139.7 10,-139.7"/>
<text text-anchor="start" x="30" y="-146.8" font-family="Helvetica,sans-Serif" font-size="11.00" fill="#000000">settings</text>
<polygon fill="none" stroke="#000000" points="95,-139.7 95,-161.7 188,-161.7 188,-139.7 95,-139.7"/>
<text text-anchor="start" x="97.7833" y="-147.4" font-family="Helvetica,sans-Serif" font-size="11.00" fill="#000000">json[1073741824]</text>
<polygon fill="none" stroke="#000000" points="10,-117.7 10,-139.7 95,-139.7 95,-117.7 10,-117.7"/>
<text text-anchor="start" x="30" y="-124.8" font-family="Helvetica,sans-Serif" font-size="11.00" fill="#000000">created_at</text>
<polygon fill="none" stroke="#000000" points="95,-117.7 95,-139.7 188,-139.7 188,-117.7 95,-117.7"/>
<text text-anchor="start" x="98" y="-125.4" font-family="Helvetica,sans-Serif" font-size="11.00" fill="#000000">timestamp[19]</text>
<polygon fill="none" stroke="#000000" points="10,-95.7 10,-117.7 95,-117.7 95,-95.7 10,-95.7"/>
<text text-anchor="start" x="30" y="-102.8" font-family="Helvetica,sans-Serif" font-size="11.00" fill="#000000">updated_at</text>
<polygon fill="none" stroke="#000000" points="95,-95.7 95,-117.7 188,-117.7 188,-95.7 95,-95.7"/>
<text text-anchor="start" x="98" y="-103.4" font-family="Helvetica,sans-Serif" font-size="11.00" fill="#000000">timestamp[19]</text>
<polygon fill="none" stroke="#000000" points="10,-73.7 10,-95.7 95,-95.7 95,-73.7 10,-73.7"/>
<text text-anchor="start" x="30" y="-80.8" font-family="Helvetica,sans-Serif" font-size="11.00" fill="#000000">deleted_at</text>
<polygon fill="none" stroke="#000000" points="95,-73.7 95,-95.7 188,-95.7 188,-73.7 95,-73.7"/>
<text text-anchor="start" x="98" y="-81.4" font-family="Helvetica,sans-Serif" font-size="11.00" fill="#000000">timestamp[19]</text>
<polygon fill="#ffffff" stroke="transparent" points="10,-54.7 10,-73.7 44,-73.7 44,-54.7 10,-54.7"/>
<polygon fill="none" stroke="#000000" points="10,-54.7 10,-73.7 44,-73.7 44,-54.7 10,-54.7"/>
<text text-anchor="start" x="13" y="-60.8" font-family="Helvetica,sans-Serif" font-size="11.00" fill="#000000">&lt; 0</text>
<polygon fill="#ffffff" stroke="transparent" points="44,-54.7 44,-73.7 95,-73.7 95,-54.7 44,-54.7"/>
<polygon fill="none" stroke="#000000" points="44,-54.7 44,-73.7 95,-73.7 95,-54.7 44,-54.7"/>
<text text-anchor="start" x="59.6105" y="-60.8" font-family="Helvetica,sans-Serif" font-size="11.00" fill="#000000">0 rows</text>
<polygon fill="#ffffff" stroke="transparent" points="95,-54.7 95,-73.7 188,-73.7 188,-54.7 95,-54.7"/>
<polygon fill="none" stroke="#000000" points="95,-54.7 95,-73.7 188,-73.7 188,-54.7 95,-54.7"/>
<text text-anchor="start" x="169.4053" y="-60.8" font-family="Helvetica,sans-Serif" font-size="11.00" fill="#000000">3 &gt;</text>
<polygon fill="none" stroke="#000000" stroke-width="2" points="9,-53.7 9,-251.7 189,-251.7 189,-53.7 9,-53.7"/>
</a>
</g>
</g>
<!-- events&#45;&gt;gyms -->
<g id="edge1" class="edge">
<title>events:w&#45;&gt;gyms:e</title>
<path fill="none" stroke="#000000" d="M245.6594,-317.6996C210.9984,-300.6478 238.5086,-216.7 188,-216.7"/>
<polygon fill="#000000" stroke="#000000" points="252.1695,-319.0617 259.2627,-324.2237 256.0848,-319.8808 260,-320.7 260,-320.7 260,-320.7 256.0848,-319.8808 260.7373,-317.1763 252.1695,-319.0617 252.1695,-319.0617"/>
<ellipse fill="none" stroke="#000000" cx="249.0374" cy="-318.4063" rx="3.2" ry="3.2"/>
</g>
<!-- gyms_has_users -->
<g id="node3" class="node">
<title>gyms_has_users</title>
<g id="a_node3"><a xlink:href="../../tables/gyms_has_users.html" xlink:title="gyms_has_users" target="_top">
<polygon fill="#ffffff" stroke="transparent" points="239,-164.7 239,-250.7 365,-250.7 365,-164.7 239,-164.7"/>
<polygon fill="#f5f5f5" stroke="transparent" points="239,-227.7 239,-250.7 365,-250.7 365,-227.7 239,-227.7"/>
<polygon fill="none" stroke="#000000" points="239,-227.7 239,-250.7 365,-250.7 365,-227.7 239,-227.7"/>
<text text-anchor="start" x="243.936" y="-236.8" font-family="Helvetica,sans-Serif" font-weight="bold" font-size="11.00" fill="#000000">gyms_has_users</text>
<text text-anchor="start" x="330.5219" y="-235.8" font-family="Helvetica,sans-Serif" font-size="11.00" fill="#000000">[table]</text>
<polygon fill="none" stroke="#000000" points="239,-205.7 239,-227.7 365,-227.7 365,-205.7 239,-205.7"/>
<image xlink:href="../../images/primaryKeys.png" width="11px" height="12px" preserveAspectRatio="xMinYMin meet" x="244" y="-222.7"/>
<text text-anchor="start" x="263" y="-212.8" font-family="Helvetica,sans-Serif" font-size="11.00" fill="#000000">gym_id</text>
<polygon fill="none" stroke="#000000" points="239,-183.7 239,-205.7 365,-205.7 365,-183.7 239,-183.7"/>
<image xlink:href="../../images/primaryKeys.png" width="11px" height="12px" preserveAspectRatio="xMinYMin meet" x="244" y="-200.7"/>
<text text-anchor="start" x="263" y="-190.8" font-family="Helvetica,sans-Serif" font-size="11.00" fill="#000000">user_id</text>
<polygon fill="#ffffff" stroke="transparent" points="239,-164.7 239,-183.7 283,-183.7 283,-164.7 239,-164.7"/>
<polygon fill="none" stroke="#000000" points="239,-164.7 239,-183.7 283,-183.7 283,-164.7 239,-164.7"/>
<text text-anchor="start" x="242" y="-170.8" font-family="Helvetica,sans-Serif" font-size="11.00" fill="#000000">&lt; 2</text>
<polygon fill="#ffffff" stroke="transparent" points="283,-164.7 283,-183.7 332,-183.7 332,-164.7 283,-164.7"/>
<polygon fill="none" stroke="#000000" points="283,-164.7 283,-183.7 332,-183.7 332,-164.7 283,-164.7"/>
<text text-anchor="start" x="296.6105" y="-170.8" font-family="Helvetica,sans-Serif" font-size="11.00" fill="#000000">0 rows</text>
<polygon fill="#ffffff" stroke="transparent" points="332,-164.7 332,-183.7 365,-183.7 365,-164.7 332,-164.7"/>
<polygon fill="none" stroke="#000000" points="332,-164.7 332,-183.7 365,-183.7 365,-164.7 332,-164.7"/>
<text text-anchor="start" x="346.4053" y="-170.8" font-family="Helvetica,sans-Serif" font-size="11.00" fill="#000000">2 &gt;</text>
</a>
</g>
</g>
<!-- gyms_has_users&#45;&gt;gyms -->
<g id="edge2" class="edge">
<title>gyms_has_users:w&#45;&gt;gyms:e</title>
<path fill="none" stroke="#000000" d="M224.276,-216.7C212.2815,-216.7 204.8229,-216.7 188,-216.7"/>
<polygon fill="#000000" stroke="#000000" points="231,-216.7001 239,-220.3 235,-216.7 239,-216.7 239,-216.7 239,-216.7 235,-216.7 239,-213.1 231,-216.7001 231,-216.7001"/>
<ellipse fill="none" stroke="#000000" cx="227.8" cy="-216.7001" rx="3.2" ry="3.2"/>
</g>
<!-- skill_lists -->
<g id="node4" class="node">
<title>skill_lists</title>
<g id="a_node4"><a xlink:href="../../tables/skill_lists.html" xlink:title="skill_lists" target="_top">
<polygon fill="#ffffff" stroke="transparent" points="259,-38.2 259,-143.2 345,-143.2 345,-38.2 259,-38.2"/>
<polygon fill="#f5f5f5" stroke="transparent" points="259,-119.7 259,-142.7 345,-142.7 345,-119.7 259,-119.7"/>
<polygon fill="none" stroke="#000000" points="259,-119.7 259,-142.7 345,-142.7 345,-119.7 259,-119.7"/>
<text text-anchor="start" x="263.8119" y="-128.8" font-family="Helvetica,sans-Serif" font-weight="bold" font-size="11.00" fill="#000000">skill_lists</text>
<text text-anchor="start" x="310.5219" y="-127.8" font-family="Helvetica,sans-Serif" font-size="11.00" fill="#000000">[table]</text>
<polygon fill="none" stroke="#000000" points="259,-97.7 259,-119.7 345,-119.7 345,-97.7 259,-97.7"/>
<image xlink:href="../../images/primaryKeys.png" width="11px" height="12px" preserveAspectRatio="xMinYMin meet" x="264" y="-114.7"/>
<text text-anchor="start" x="280" y="-104.8" font-family="Helvetica,sans-Serif" font-size="11.00" fill="#000000">id</text>
<polygon fill="#ffffff" stroke="transparent" points="259,-75.7 259,-97.7 345,-97.7 345,-75.7 259,-75.7"/>
<polygon fill="none" stroke="#000000" points="259,-75.7 259,-97.7 345,-97.7 345,-75.7 259,-75.7"/>
<image xlink:href="../../images/foreignKeys.png" width="11px" height="12px" preserveAspectRatio="xMinYMin meet" x="264" y="-92.7"/>
<text text-anchor="start" x="280" y="-82.8" font-family="Helvetica,sans-Serif" font-size="11.00" fill="#000000">gym_id</text>
<polygon fill="none" stroke="#000000" points="259,-56.7 259,-75.7 345,-75.7 345,-56.7 259,-56.7"/>
<text text-anchor="start" x="262" y="-62.8" font-family="Helvetica,sans-Serif" font-size="11.00" fill="#000000">...</text>
<polygon fill="#ffffff" stroke="transparent" points="259,-37.7 259,-56.7 283,-56.7 283,-37.7 259,-37.7"/>
<polygon fill="none" stroke="#000000" points="259,-37.7 259,-56.7 283,-56.7 283,-37.7 259,-37.7"/>
<text text-anchor="start" x="262" y="-43.8" font-family="Helvetica,sans-Serif" font-size="11.00" fill="#000000">&lt; 1</text>
<polygon fill="#ffffff" stroke="transparent" points="283,-37.7 283,-56.7 322,-56.7 322,-37.7 283,-37.7"/>
<polygon fill="none" stroke="#000000" points="283,-37.7 283,-56.7 322,-56.7 322,-37.7 283,-37.7"/>
<text text-anchor="start" x="286.6105" y="-43.8" font-family="Helvetica,sans-Serif" font-size="11.00" fill="#000000">0 rows</text>
<polygon fill="#ffffff" stroke="transparent" points="322,-37.7 322,-56.7 345,-56.7 345,-37.7 322,-37.7"/>
<polygon fill="none" stroke="#000000" points="322,-37.7 322,-56.7 345,-56.7 345,-37.7 322,-37.7"/>
<text text-anchor="start" x="326.4053" y="-43.8" font-family="Helvetica,sans-Serif" font-size="11.00" fill="#000000">2 &gt;</text>
</a>
</g>
</g>
<!-- skill_lists&#45;&gt;gyms -->
<g id="edge3" class="edge">
<title>skill_lists:w&#45;&gt;gyms:e</title>
<path fill="none" stroke="#000000" d="M244.6695,-89.4152C202.6595,-108.0837 248.1758,-216.7 188,-216.7"/>
<polygon fill="#000000" stroke="#000000" points="251.1398,-88.1893 259.6702,-90.2371 255.0699,-87.4447 259,-86.7 259,-86.7 259,-86.7 255.0699,-87.4447 258.3298,-83.1629 251.1398,-88.1893 251.1398,-88.1893"/>
<ellipse fill="none" stroke="#000000" cx="247.9958" cy="-88.7851" rx="3.2" ry="3.2"/>
</g>
</g>
</svg>
