<?xml version="1.0" encoding="UTF-8" standalone="no"?>
<!DOCTYPE svg PUBLIC "-//W3C//DTD SVG 1.1//EN"
 "http://www.w3.org/Graphics/SVG/1.1/DTD/svg11.dtd">
<!-- Generated by graphviz version 2.40.1 (20161225.0304)
 -->
<!-- Title: twoDegreesRelationshipsDiagram Pages: 1 -->
<svg width="893pt" height="492pt"
 viewBox="0.00 0.00 893.00 491.70" xmlns="http://www.w3.org/2000/svg" xmlns:xlink="http://www.w3.org/1999/xlink">
<g id="graph0" class="graph" transform="scale(1 1) rotate(0) translate(4 487.7)">
<title>twoDegreesRelationshipsDiagram</title>
<polygon fill="#ffffff" stroke="transparent" points="-4,4 -4,-487.7 889,-487.7 889,4 -4,4"/>
<text text-anchor="middle" x="72.4936" y="-7.3" font-family="Helvetica,sans-Serif" font-size="11.00" fill="#000000">Generated by SchemaSpy</text>
<!-- challenges -->
<g id="node1" class="node">
<title>challenges</title>
<g id="a_node1"><a xlink:href="../../tables/challenges.html" xlink:title="challenges" target="_top">
<polygon fill="#ffffff" stroke="transparent" points="573.5,-324.7 573.5,-451.7 672.5,-451.7 672.5,-324.7 573.5,-324.7"/>
<polygon fill="#f5f5f5" stroke="transparent" points="574,-428.2 574,-451.2 673,-451.2 673,-428.2 574,-428.2"/>
<polygon fill="none" stroke="#000000" points="574,-428.2 574,-451.2 673,-451.2 673,-428.2 574,-428.2"/>
<text text-anchor="start" x="579" y="-437.3" font-family="Helvetica,sans-Serif" font-weight="bold" font-size="11.00" fill="#000000">challenges</text>
<text text-anchor="start" x="638.0437" y="-436.3" font-family="Helvetica,sans-Serif" font-size="11.00" fill="#000000">[table]</text>
<polygon fill="none" stroke="#000000" points="574,-406.2 574,-428.2 673,-428.2 673,-406.2 574,-406.2"/>
<image xlink:href="../../images/primaryKeys.png" width="11px" height="12px" preserveAspectRatio="xMinYMin meet" x="579" y="-423.2"/>
<text text-anchor="start" x="594" y="-413.3" font-family="Helvetica,sans-Serif" font-size="11.00" fill="#000000">id</text>
<polygon fill="#ffffff" stroke="transparent" points="574,-384.2 574,-406.2 673,-406.2 673,-384.2 574,-384.2"/>
<polygon fill="none" stroke="#000000" points="574,-384.2 574,-406.2 673,-406.2 673,-384.2 574,-384.2"/>
<image xlink:href="../../images/foreignKeys.png" width="11px" height="12px" preserveAspectRatio="xMinYMin meet" x="579" y="-401.2"/>
<text text-anchor="start" x="594" y="-391.3" font-family="Helvetica,sans-Serif" font-size="11.00" fill="#000000">gym_id</text>
<polygon fill="#ffffff" stroke="transparent" points="574,-362.2 574,-384.2 673,-384.2 673,-362.2 574,-362.2"/>
<polygon fill="none" stroke="#000000" points="574,-362.2 574,-384.2 673,-384.2 673,-362.2 574,-362.2"/>
<image xlink:href="../../images/foreignKeys.png" width="11px" height="12px" preserveAspectRatio="xMinYMin meet" x="579" y="-379.2"/>
<text text-anchor="start" x="594" y="-369.3" font-family="Helvetica,sans-Serif" font-size="11.00" fill="#000000">class_id</text>
<polygon fill="none" stroke="#000000" points="574,-343.2 574,-362.2 673,-362.2 673,-343.2 574,-343.2"/>
<text text-anchor="start" x="577" y="-349.3" font-family="Helvetica,sans-Serif" font-size="11.00" fill="#000000">...</text>
<polygon fill="#ffffff" stroke="transparent" points="574,-324.2 574,-343.2 604,-343.2 604,-324.2 574,-324.2"/>
<polygon fill="none" stroke="#000000" points="574,-324.2 574,-343.2 604,-343.2 604,-324.2 574,-324.2"/>
<text text-anchor="start" x="577" y="-330.3" font-family="Helvetica,sans-Serif" font-size="11.00" fill="#000000">&lt; 2</text>
<polygon fill="#ffffff" stroke="transparent" points="604,-324.2 604,-343.2 647,-343.2 647,-324.2 604,-324.2"/>
<polygon fill="none" stroke="#000000" points="604,-324.2 604,-343.2 647,-343.2 647,-324.2 604,-324.2"/>
<text text-anchor="start" x="611.6105" y="-330.3" font-family="Helvetica,sans-Serif" font-size="11.00" fill="#000000">0 rows</text>
<polygon fill="#ffffff" stroke="transparent" points="647,-324.2 647,-343.2 673,-343.2 673,-324.2 647,-324.2"/>
<polygon fill="none" stroke="#000000" points="647,-324.2 647,-343.2 673,-343.2 673,-324.2 647,-324.2"/>
<text text-anchor="start" x="654.4053" y="-330.3" font-family="Helvetica,sans-Serif" font-size="11.00" fill="#000000">2 &gt;</text>
</a>
</g>
</g>
<!-- classes -->
<g id="node2" class="node">
<title>classes</title>
<g id="a_node2"><a xlink:href="../../tables/classes.html" xlink:title="classes" target="_top">
<polygon fill="#ffffff" stroke="transparent" points="419,-315.7 419,-376.7 499,-376.7 499,-315.7 419,-315.7"/>
<polygon fill="#f5f5f5" stroke="transparent" points="419,-353.2 419,-376.2 499,-376.2 499,-353.2 419,-353.2"/>
<polygon fill="none" stroke="#000000" points="419,-353.2 419,-376.2 499,-376.2 499,-353.2 419,-353.2"/>
<text text-anchor="start" x="424" y="-362.3" font-family="Helvetica,sans-Serif" font-weight="bold" font-size="11.00" fill="#000000">classes</text>
<text text-anchor="start" x="464.5219" y="-361.3" font-family="Helvetica,sans-Serif" font-size="11.00" fill="#000000">[table]</text>
<polygon fill="none" stroke="#000000" points="419,-334.2 419,-353.2 499,-353.2 499,-334.2 419,-334.2"/>
<text text-anchor="start" x="422" y="-340.3" font-family="Helvetica,sans-Serif" font-size="11.00" fill="#000000">...</text>
<polygon fill="#ffffff" stroke="transparent" points="419,-315.2 419,-334.2 440,-334.2 440,-315.2 419,-315.2"/>
<polygon fill="none" stroke="#000000" points="419,-315.2 419,-334.2 440,-334.2 440,-315.2 419,-315.2"/>
<text text-anchor="start" x="421.7027" y="-321.3" font-family="Helvetica,sans-Serif" font-size="11.00" fill="#000000">&lt; 1</text>
<polygon fill="#ffffff" stroke="transparent" points="440,-315.2 440,-334.2 478,-334.2 478,-315.2 440,-315.2"/>
<polygon fill="none" stroke="#000000" points="440,-315.2 440,-334.2 478,-334.2 478,-315.2 440,-315.2"/>
<text text-anchor="start" x="442.8053" y="-321.3" font-family="Helvetica,sans-Serif" font-size="11.00" fill="#000000">0 rows</text>
<polygon fill="#ffffff" stroke="transparent" points="478,-315.2 478,-334.2 499,-334.2 499,-315.2 478,-315.2"/>
<polygon fill="none" stroke="#000000" points="478,-315.2 478,-334.2 499,-334.2 499,-315.2 478,-315.2"/>
<text text-anchor="start" x="480.7027" y="-321.3" font-family="Helvetica,sans-Serif" font-size="11.00" fill="#000000">4 &gt;</text>
</a>
</g>
</g>
<!-- challenges&#45;&gt;classes -->
<g id="edge1" class="edge">
<title>challenges:w&#45;&gt;classes:e</title>
<path fill="none" stroke="#000000" d="M559.6378,-371.3234C536.3656,-364.7556 529.4318,-343.2 499,-343.2"/>
<polygon fill="#000000" stroke="#000000" points="566.0674,-372.1634 573.5335,-376.7697 570.0337,-372.6817 574,-373.2 574,-373.2 574,-373.2 570.0337,-372.6817 574.4665,-369.6303 566.0674,-372.1634 566.0674,-372.1634"/>
<ellipse fill="none" stroke="#000000" cx="562.8944" cy="-371.7488" rx="3.2" ry="3.2"/>
</g>
<!-- gyms -->
<g id="node3" class="node">
<title>gyms</title>
<g id="a_node3"><a xlink:href="../../tables/gyms.html" xlink:title="gyms" target="_top">
<polygon fill="#ffffff" stroke="transparent" points="8,-139.2 8,-339.2 190,-339.2 190,-139.2 8,-139.2"/>
<polygon fill="#f5f5f5" stroke="transparent" points="10,-314.2 10,-337.2 188,-337.2 188,-314.2 10,-314.2"/>
<polygon fill="none" stroke="#000000" points="10,-314.2 10,-337.2 188,-337.2 188,-314.2 10,-314.2"/>
<text text-anchor="start" x="15" y="-323.3" font-family="Helvetica,sans-Serif" font-weight="bold" font-size="11.00" fill="#000000">gyms</text>
<text text-anchor="start" x="153.0437" y="-322.3" font-family="Helvetica,sans-Serif" font-size="11.00" fill="#000000">[table]</text>
<polygon fill="none" stroke="#000000" points="10,-292.2 10,-314.2 95,-314.2 95,-292.2 10,-292.2"/>
<image xlink:href="../../images/primaryKeys.png" width="11px" height="12px" preserveAspectRatio="xMinYMin meet" x="15" y="-309.2"/>
<text text-anchor="start" x="30" y="-299.3" font-family="Helvetica,sans-Serif" font-size="11.00" fill="#000000">id</text>
<polygon fill="none" stroke="#000000" points="95,-292.2 95,-314.2 188,-314.2 188,-292.2 95,-292.2"/>
<text text-anchor="start" x="98" y="-299.9" font-family="Helvetica,sans-Serif" font-size="11.00" fill="#000000">bigint[19]</text>
<polygon fill="none" stroke="#000000" points="10,-270.2 10,-292.2 95,-292.2 95,-270.2 10,-270.2"/>
<text text-anchor="start" x="30" y="-277.3" font-family="Helvetica,sans-Serif" font-size="11.00" fill="#000000">name</text>
<polygon fill="none" stroke="#000000" points="95,-270.2 95,-292.2 188,-292.2 188,-270.2 95,-270.2"/>
<text text-anchor="start" x="98" y="-277.9" font-family="Helvetica,sans-Serif" font-size="11.00" fill="#000000">varchar[45]</text>
<polygon fill="none" stroke="#000000" points="10,-248.2 10,-270.2 95,-270.2 95,-248.2 10,-248.2"/>
<text text-anchor="start" x="30" y="-255.3" font-family="Helvetica,sans-Serif" font-size="11.00" fill="#000000">description</text>
<polygon fill="none" stroke="#000000" points="95,-248.2 95,-270.2 188,-270.2 188,-248.2 95,-248.2"/>
<text text-anchor="start" x="98" y="-255.9" font-family="Helvetica,sans-Serif" font-size="11.00" fill="#000000">varchar[45]</text>
<polygon fill="none" stroke="#000000" points="10,-226.2 10,-248.2 95,-248.2 95,-226.2 10,-226.2"/>
<text text-anchor="start" x="30" y="-233.3" font-family="Helvetica,sans-Serif" font-size="11.00" fill="#000000">settings</text>
<polygon fill="none" stroke="#000000" points="95,-226.2 95,-248.2 188,-248.2 188,-226.2 95,-226.2"/>
<text text-anchor="start" x="97.7833" y="-233.9" font-family="Helvetica,sans-Serif" font-size="11.00" fill="#000000">json[1073741824]</text>
<polygon fill="none" stroke="#000000" points="10,-204.2 10,-226.2 95,-226.2 95,-204.2 10,-204.2"/>
<text text-anchor="start" x="30" y="-211.3" font-family="Helvetica,sans-Serif" font-size="11.00" fill="#000000">created_at</text>
<polygon fill="none" stroke="#000000" points="95,-204.2 95,-226.2 188,-226.2 188,-204.2 95,-204.2"/>
<text text-anchor="start" x="98" y="-211.9" font-family="Helvetica,sans-Serif" font-size="11.00" fill="#000000">timestamp[19]</text>
<polygon fill="none" stroke="#000000" points="10,-182.2 10,-204.2 95,-204.2 95,-182.2 10,-182.2"/>
<text text-anchor="start" x="30" y="-189.3" font-family="Helvetica,sans-Serif" font-size="11.00" fill="#000000">updated_at</text>
<polygon fill="none" stroke="#000000" points="95,-182.2 95,-204.2 188,-204.2 188,-182.2 95,-182.2"/>
<text text-anchor="start" x="98" y="-189.9" font-family="Helvetica,sans-Serif" font-size="11.00" fill="#000000">timestamp[19]</text>
<polygon fill="none" stroke="#000000" points="10,-160.2 10,-182.2 95,-182.2 95,-160.2 10,-160.2"/>
<text text-anchor="start" x="30" y="-167.3" font-family="Helvetica,sans-Serif" font-size="11.00" fill="#000000">deleted_at</text>
<polygon fill="none" stroke="#000000" points="95,-160.2 95,-182.2 188,-182.2 188,-160.2 95,-160.2"/>
<text text-anchor="start" x="98" y="-167.9" font-family="Helvetica,sans-Serif" font-size="11.00" fill="#000000">timestamp[19]</text>
<polygon fill="#ffffff" stroke="transparent" points="10,-141.2 10,-160.2 44,-160.2 44,-141.2 10,-141.2"/>
<polygon fill="none" stroke="#000000" points="10,-141.2 10,-160.2 44,-160.2 44,-141.2 10,-141.2"/>
<text text-anchor="start" x="13" y="-147.3" font-family="Helvetica,sans-Serif" font-size="11.00" fill="#000000">&lt; 0</text>
<polygon fill="#ffffff" stroke="transparent" points="44,-141.2 44,-160.2 95,-160.2 95,-141.2 44,-141.2"/>
<polygon fill="none" stroke="#000000" points="44,-141.2 44,-160.2 95,-160.2 95,-141.2 44,-141.2"/>
<text text-anchor="start" x="59.6105" y="-147.3" font-family="Helvetica,sans-Serif" font-size="11.00" fill="#000000">0 rows</text>
<polygon fill="#ffffff" stroke="transparent" points="95,-141.2 95,-160.2 188,-160.2 188,-141.2 95,-141.2"/>
<polygon fill="none" stroke="#000000" points="95,-141.2 95,-160.2 188,-160.2 188,-141.2 95,-141.2"/>
<text text-anchor="start" x="169.4053" y="-147.3" font-family="Helvetica,sans-Serif" font-size="11.00" fill="#000000">4 &gt;</text>
<polygon fill="none" stroke="#000000" stroke-width="2" points="9,-140.2 9,-338.2 189,-338.2 189,-140.2 9,-140.2"/>
</a>
</g>
</g>
<!-- challenges&#45;&gt;gyms -->
<g id="edge2" class="edge">
<title>challenges:w&#45;&gt;gyms:e</title>
<path fill="none" stroke="#000000" d="M559.5363,-395.42C417.4889,-399.749 355.9922,-465.65 231,-387.2 195.4767,-364.9042 229.9406,-303.2 188,-303.2"/>
<polygon fill="#000000" stroke="#000000" points="566.0009,-395.3217 574.0548,-398.7996 570.0005,-395.2609 574,-395.2 574,-395.2 574,-395.2 570.0005,-395.2609 573.9452,-391.6004 566.0009,-395.3217 566.0009,-395.3217"/>
<ellipse fill="none" stroke="#000000" cx="562.8013" cy="-395.3704" rx="3.2" ry="3.2"/>
</g>
<!-- skill_lists -->
<g id="node4" class="node">
<title>skill_lists</title>
<g id="a_node4"><a xlink:href="../../tables/skill_lists.html" xlink:title="skill_lists" target="_top">
<polygon fill="#ffffff" stroke="transparent" points="259,-271.7 259,-376.7 345,-376.7 345,-271.7 259,-271.7"/>
<polygon fill="#f5f5f5" stroke="transparent" points="259,-353.2 259,-376.2 345,-376.2 345,-353.2 259,-353.2"/>
<polygon fill="none" stroke="#000000" points="259,-353.2 259,-376.2 345,-376.2 345,-353.2 259,-353.2"/>
<text text-anchor="start" x="263.8119" y="-362.3" font-family="Helvetica,sans-Serif" font-weight="bold" font-size="11.00" fill="#000000">skill_lists</text>
<text text-anchor="start" x="310.5219" y="-361.3" font-family="Helvetica,sans-Serif" font-size="11.00" fill="#000000">[table]</text>
<polygon fill="none" stroke="#000000" points="259,-331.2 259,-353.2 345,-353.2 345,-331.2 259,-331.2"/>
<image xlink:href="../../images/primaryKeys.png" width="11px" height="12px" preserveAspectRatio="xMinYMin meet" x="264" y="-348.2"/>
<text text-anchor="start" x="280" y="-338.3" font-family="Helvetica,sans-Serif" font-size="11.00" fill="#000000">id</text>
<polygon fill="#ffffff" stroke="transparent" points="259,-309.2 259,-331.2 345,-331.2 345,-309.2 259,-309.2"/>
<polygon fill="none" stroke="#000000" points="259,-309.2 259,-331.2 345,-331.2 345,-309.2 259,-309.2"/>
<image xlink:href="../../images/foreignKeys.png" width="11px" height="12px" preserveAspectRatio="xMinYMin meet" x="264" y="-326.2"/>
<text text-anchor="start" x="280" y="-316.3" font-family="Helvetica,sans-Serif" font-size="11.00" fill="#000000">gym_id</text>
<polygon fill="none" stroke="#000000" points="259,-290.2 259,-309.2 345,-309.2 345,-290.2 259,-290.2"/>
<text text-anchor="start" x="262" y="-296.3" font-family="Helvetica,sans-Serif" font-size="11.00" fill="#000000">...</text>
<polygon fill="#ffffff" stroke="transparent" points="259,-271.2 259,-290.2 283,-290.2 283,-271.2 259,-271.2"/>
<polygon fill="none" stroke="#000000" points="259,-271.2 259,-290.2 283,-290.2 283,-271.2 259,-271.2"/>
<text text-anchor="start" x="262" y="-277.3" font-family="Helvetica,sans-Serif" font-size="11.00" fill="#000000">&lt; 1</text>
<polygon fill="#ffffff" stroke="transparent" points="283,-271.2 283,-290.2 322,-290.2 322,-271.2 283,-271.2"/>
<polygon fill="none" stroke="#000000" points="283,-271.2 283,-290.2 322,-290.2 322,-271.2 283,-271.2"/>
<text text-anchor="start" x="286.6105" y="-277.3" font-family="Helvetica,sans-Serif" font-size="11.00" fill="#000000">0 rows</text>
<polygon fill="#ffffff" stroke="transparent" points="322,-271.2 322,-290.2 345,-290.2 345,-271.2 322,-271.2"/>
<polygon fill="none" stroke="#000000" points="322,-271.2 322,-290.2 345,-290.2 345,-271.2 322,-271.2"/>
<text text-anchor="start" x="326.4053" y="-277.3" font-family="Helvetica,sans-Serif" font-size="11.00" fill="#000000">2 &gt;</text>
</a>
</g>
</g>
<!-- classes&#45;&gt;skill_lists -->
<g id="edge3" class="edge">
<title>classes:w&#45;&gt;skill_lists:e</title>
<path fill="none" stroke="#000000" d="M404.5856,-343.1281C382.748,-342.8988 372.4956,-342.2 345,-342.2"/>
<polygon fill="#000000" stroke="#000000" points="411.0001,-343.16 418.982,-346.8 415,-343.18 419,-343.2 419,-343.2 419,-343.2 415,-343.18 419.018,-339.6 411.0001,-343.16 411.0001,-343.16"/>
<ellipse fill="none" stroke="#000000" cx="407.8001" cy="-343.144" rx="3.2" ry="3.2"/>
</g>
<!-- skill_lists&#45;&gt;gyms -->
<g id="edge13" class="edge">
<title>skill_lists:w&#45;&gt;gyms:e</title>
<path fill="none" stroke="#000000" d="M244.6295,-318.9222C223.7584,-314.9687 214.9973,-303.2 188,-303.2"/>
<polygon fill="#000000" stroke="#000000" points="251.0314,-319.4914 258.6811,-323.7859 255.0157,-319.8457 259,-320.2 259,-320.2 259,-320.2 255.0157,-319.8457 259.3189,-316.6141 251.0314,-319.4914 251.0314,-319.4914"/>
<ellipse fill="none" stroke="#000000" cx="247.844" cy="-319.208" rx="3.2" ry="3.2"/>
</g>
<!-- daily_challenges -->
<g id="node5" class="node">
<title>daily_challenges</title>
<g id="a_node5"><a xlink:href="../../tables/daily_challenges.html" xlink:title="daily_challenges" target="_top">
<polygon fill="#ffffff" stroke="transparent" points="747.5,-418.7 747.5,-479.7 871.5,-479.7 871.5,-418.7 747.5,-418.7"/>
<polygon fill="#f5f5f5" stroke="transparent" points="747.5,-456.2 747.5,-479.2 871.5,-479.2 871.5,-456.2 747.5,-456.2"/>
<polygon fill="none" stroke="#000000" points="747.5,-456.2 747.5,-479.2 871.5,-479.2 871.5,-456.2 747.5,-456.2"/>
<text text-anchor="start" x="752.3512" y="-465.3" font-family="Helvetica,sans-Serif" font-weight="bold" font-size="11.00" fill="#000000">daily_challenges</text>
<text text-anchor="start" x="837.0219" y="-464.3" font-family="Helvetica,sans-Serif" font-size="11.00" fill="#000000">[table]</text>
<polygon fill="none" stroke="#000000" points="747.5,-437.2 747.5,-456.2 871.5,-456.2 871.5,-437.2 747.5,-437.2"/>
<text text-anchor="start" x="750.5" y="-443.3" font-family="Helvetica,sans-Serif" font-size="11.00" fill="#000000">...</text>
<polygon fill="#ffffff" stroke="transparent" points="747.5,-418.2 747.5,-437.2 790.5,-437.2 790.5,-418.2 747.5,-418.2"/>
<polygon fill="none" stroke="#000000" points="747.5,-418.2 747.5,-437.2 790.5,-437.2 790.5,-418.2 747.5,-418.2"/>
<text text-anchor="start" x="750.5" y="-424.3" font-family="Helvetica,sans-Serif" font-size="11.00" fill="#000000">&lt; 2</text>
<polygon fill="#ffffff" stroke="transparent" points="790.5,-418.2 790.5,-437.2 839.5,-437.2 839.5,-418.2 790.5,-418.2"/>
<polygon fill="none" stroke="#000000" points="790.5,-418.2 790.5,-437.2 839.5,-437.2 839.5,-418.2 790.5,-418.2"/>
<text text-anchor="start" x="804.1105" y="-424.3" font-family="Helvetica,sans-Serif" font-size="11.00" fill="#000000">0 rows</text>
<polygon fill="#ffffff" stroke="transparent" points="839.5,-418.2 839.5,-437.2 871.5,-437.2 871.5,-418.2 839.5,-418.2"/>
<polygon fill="none" stroke="#000000" points="839.5,-418.2 839.5,-437.2 871.5,-437.2 871.5,-418.2 839.5,-418.2"/>
<text text-anchor="start" x="852.9053" y="-424.3" font-family="Helvetica,sans-Serif" font-size="11.00" fill="#000000">3 &gt;</text>
</a>
</g>
</g>
<!-- daily_challenges&#45;&gt;challenges -->
<g id="edge4" class="edge">
<title>daily_challenges:w&#45;&gt;challenges:e</title>
<path fill="none" stroke="#000000" d="M732.9505,-444.2972C710.111,-437.8455 702.9795,-417.2 673,-417.2"/>
<polygon fill="#000000" stroke="#000000" points="739.5675,-445.1626 747.0331,-449.7696 743.5338,-445.6813 747.5,-446.2 747.5,-446.2 747.5,-446.2 743.5338,-445.6813 747.9669,-442.6304 739.5675,-445.1626 739.5675,-445.1626"/>
<ellipse fill="none" stroke="#000000" cx="736.3946" cy="-444.7476" rx="3.2" ry="3.2"/>
</g>
<!-- daily_challenges&#45;&gt;classes -->
<g id="edge5" class="edge">
<title>daily_challenges:w&#45;&gt;classes:e</title>
<path fill="none" stroke="#000000" d="M733.0199,-448.5471C722.5747,-452.3213 716.6622,-459.5808 701,-462.2 632.6163,-473.6359 602.1854,-501.4039 545,-462.2 498.2321,-430.1379 555.7028,-343.2 499,-343.2"/>
<polygon fill="#000000" stroke="#000000" points="739.6031,-447.4801 748.076,-449.7536 743.5515,-446.84 747.5,-446.2 747.5,-446.2 747.5,-446.2 743.5515,-446.84 746.924,-442.6464 739.6031,-447.4801 739.6031,-447.4801"/>
<ellipse fill="none" stroke="#000000" cx="736.4443" cy="-447.9921" rx="3.2" ry="3.2"/>
</g>
<!-- events -->
<g id="node6" class="node">
<title>events</title>
<g id="a_node6"><a xlink:href="../../tables/events.html" xlink:title="events" target="_top">
<polygon fill="#ffffff" stroke="transparent" points="259.5,-145.7 259.5,-250.7 344.5,-250.7 344.5,-145.7 259.5,-145.7"/>
<polygon fill="#f5f5f5" stroke="transparent" points="260,-227.2 260,-250.2 345,-250.2 345,-227.2 260,-227.2"/>
<polygon fill="none" stroke="#000000" points="260,-227.2 260,-250.2 345,-250.2 345,-227.2 260,-227.2"/>
<text text-anchor="start" x="265" y="-236.3" font-family="Helvetica,sans-Serif" font-weight="bold" font-size="11.00" fill="#000000">events</text>
<text text-anchor="start" x="310.0437" y="-235.3" font-family="Helvetica,sans-Serif" font-size="11.00" fill="#000000">[table]</text>
<polygon fill="none" stroke="#000000" points="260,-205.2 260,-227.2 345,-227.2 345,-205.2 260,-205.2"/>
<image xlink:href="../../images/primaryKeys.png" width="11px" height="12px" preserveAspectRatio="xMinYMin meet" x="265" y="-222.2"/>
<text text-anchor="start" x="280" y="-212.3" font-family="Helvetica,sans-Serif" font-size="11.00" fill="#000000">id</text>
<polygon fill="#ffffff" stroke="transparent" points="260,-183.2 260,-205.2 345,-205.2 345,-183.2 260,-183.2"/>
<polygon fill="none" stroke="#000000" points="260,-183.2 260,-205.2 345,-205.2 345,-183.2 260,-183.2"/>
<image xlink:href="../../images/foreignKeys.png" width="11px" height="12px" preserveAspectRatio="xMinYMin meet" x="265" y="-200.2"/>
<text text-anchor="start" x="280" y="-190.3" font-family="Helvetica,sans-Serif" font-size="11.00" fill="#000000">gym_id</text>
<polygon fill="none" stroke="#000000" points="260,-164.2 260,-183.2 345,-183.2 345,-164.2 260,-164.2"/>
<text text-anchor="start" x="263" y="-170.3" font-family="Helvetica,sans-Serif" font-size="11.00" fill="#000000">...</text>
<polygon fill="#ffffff" stroke="transparent" points="260,-145.2 260,-164.2 283,-164.2 283,-145.2 260,-145.2"/>
<polygon fill="none" stroke="#000000" points="260,-145.2 260,-164.2 283,-164.2 283,-145.2 260,-145.2"/>
<text text-anchor="start" x="263" y="-151.3" font-family="Helvetica,sans-Serif" font-size="11.00" fill="#000000">&lt; 1</text>
<polygon fill="#ffffff" stroke="transparent" points="283,-145.2 283,-164.2 322,-164.2 322,-145.2 283,-145.2"/>
<polygon fill="none" stroke="#000000" points="283,-145.2 283,-164.2 322,-164.2 322,-145.2 283,-145.2"/>
<text text-anchor="start" x="286.6105" y="-151.3" font-family="Helvetica,sans-Serif" font-size="11.00" fill="#000000">0 rows</text>
<polygon fill="#ffffff" stroke="transparent" points="322,-145.2 322,-164.2 345,-164.2 345,-145.2 322,-145.2"/>
<polygon fill="none" stroke="#000000" points="322,-145.2 322,-164.2 345,-164.2 345,-145.2 322,-145.2"/>
<text text-anchor="start" x="326.4053" y="-151.3" font-family="Helvetica,sans-Serif" font-size="11.00" fill="#000000">1 &gt;</text>
</a>
</g>
</g>
<!-- events&#45;&gt;gyms -->
<g id="edge6" class="edge">
<title>events:w&#45;&gt;gyms:e</title>
<path fill="none" stroke="#000000" d="M245.7235,-197.1155C209.5833,-214.4496 240.3893,-303.2 188,-303.2"/>
<polygon fill="#000000" stroke="#000000" points="252.1618,-195.8007 260.7203,-197.7272 256.0809,-195.0004 260,-194.2 260,-194.2 260,-194.2 256.0809,-195.0004 259.2797,-190.6728 252.1618,-195.8007 252.1618,-195.8007"/>
<ellipse fill="none" stroke="#000000" cx="249.0265" cy="-196.441" rx="3.2" ry="3.2"/>
</g>
<!-- gymnasts -->
<g id="node7" class="node">
<title>gymnasts</title>
<g id="a_node7"><a xlink:href="../../tables/gymnasts.html" xlink:title="gymnasts" target="_top">
<polygon fill="#ffffff" stroke="transparent" points="414,-51.7 414,-112.7 504,-112.7 504,-51.7 414,-51.7"/>
<polygon fill="#f5f5f5" stroke="transparent" points="414,-89.2 414,-112.2 504,-112.2 504,-89.2 414,-89.2"/>
<polygon fill="none" stroke="#000000" points="414,-89.2 414,-112.2 504,-112.2 504,-89.2 414,-89.2"/>
<text text-anchor="start" x="418.9683" y="-98.3" font-family="Helvetica,sans-Serif" font-weight="bold" font-size="11.00" fill="#000000">gymnasts</text>
<text text-anchor="start" x="469.5219" y="-97.3" font-family="Helvetica,sans-Serif" font-size="11.00" fill="#000000">[table]</text>
<polygon fill="none" stroke="#000000" points="414,-70.2 414,-89.2 504,-89.2 504,-70.2 414,-70.2"/>
<text text-anchor="start" x="417" y="-76.3" font-family="Helvetica,sans-Serif" font-size="11.00" fill="#000000">...</text>
<polygon fill="#ffffff" stroke="transparent" points="414,-51.2 414,-70.2 440,-70.2 440,-51.2 414,-51.2"/>
<polygon fill="none" stroke="#000000" points="414,-51.2 414,-70.2 440,-70.2 440,-51.2 414,-51.2"/>
<text text-anchor="start" x="417" y="-57.3" font-family="Helvetica,sans-Serif" font-size="11.00" fill="#000000">&lt; 2</text>
<polygon fill="#ffffff" stroke="transparent" points="440,-51.2 440,-70.2 480,-70.2 480,-51.2 440,-51.2"/>
<polygon fill="none" stroke="#000000" points="440,-51.2 440,-70.2 480,-70.2 480,-51.2 440,-51.2"/>
<text text-anchor="start" x="444.6105" y="-57.3" font-family="Helvetica,sans-Serif" font-size="11.00" fill="#000000">0 rows</text>
<polygon fill="#ffffff" stroke="transparent" points="480,-51.2 480,-70.2 504,-70.2 504,-51.2 480,-51.2"/>
<polygon fill="none" stroke="#000000" points="480,-51.2 480,-70.2 504,-70.2 504,-51.2 480,-51.2"/>
<text text-anchor="start" x="485.4053" y="-57.3" font-family="Helvetica,sans-Serif" font-size="11.00" fill="#000000">4 &gt;</text>
</a>
</g>
</g>
<!-- gyms_has_users -->
<g id="node8" class="node">
<title>gyms_has_users</title>
<g id="a_node8"><a xlink:href="../../tables/gyms_has_users.html" xlink:title="gyms_has_users" target="_top">
<polygon fill="#ffffff" stroke="transparent" points="239,-38.2 239,-124.2 365,-124.2 365,-38.2 239,-38.2"/>
<polygon fill="#f5f5f5" stroke="transparent" points="239,-101.2 239,-124.2 365,-124.2 365,-101.2 239,-101.2"/>
<polygon fill="none" stroke="#000000" points="239,-101.2 239,-124.2 365,-124.2 365,-101.2 239,-101.2"/>
<text text-anchor="start" x="243.936" y="-110.3" font-family="Helvetica,sans-Serif" font-weight="bold" font-size="11.00" fill="#000000">gyms_has_users</text>
<text text-anchor="start" x="330.5219" y="-109.3" font-family="Helvetica,sans-Serif" font-size="11.00" fill="#000000">[table]</text>
<polygon fill="none" stroke="#000000" points="239,-79.2 239,-101.2 365,-101.2 365,-79.2 239,-79.2"/>
<image xlink:href="../../images/primaryKeys.png" width="11px" height="12px" preserveAspectRatio="xMinYMin meet" x="244" y="-96.2"/>
<text text-anchor="start" x="263" y="-86.3" font-family="Helvetica,sans-Serif" font-size="11.00" fill="#000000">gym_id</text>
<polygon fill="none" stroke="#000000" points="239,-57.2 239,-79.2 365,-79.2 365,-57.2 239,-57.2"/>
<image xlink:href="../../images/primaryKeys.png" width="11px" height="12px" preserveAspectRatio="xMinYMin meet" x="244" y="-74.2"/>
<text text-anchor="start" x="263" y="-64.3" font-family="Helvetica,sans-Serif" font-size="11.00" fill="#000000">user_id</text>
<polygon fill="#ffffff" stroke="transparent" points="239,-38.2 239,-57.2 283,-57.2 283,-38.2 239,-38.2"/>
<polygon fill="none" stroke="#000000" points="239,-38.2 239,-57.2 283,-57.2 283,-38.2 239,-38.2"/>
<text text-anchor="start" x="242" y="-44.3" font-family="Helvetica,sans-Serif" font-size="11.00" fill="#000000">&lt; 2</text>
<polygon fill="#ffffff" stroke="transparent" points="283,-38.2 283,-57.2 332,-57.2 332,-38.2 283,-38.2"/>
<polygon fill="none" stroke="#000000" points="283,-38.2 283,-57.2 332,-57.2 332,-38.2 283,-38.2"/>
<text text-anchor="start" x="296.6105" y="-44.3" font-family="Helvetica,sans-Serif" font-size="11.00" fill="#000000">0 rows</text>
<polygon fill="#ffffff" stroke="transparent" points="332,-38.2 332,-57.2 365,-57.2 365,-38.2 332,-38.2"/>
<polygon fill="none" stroke="#000000" points="332,-38.2 332,-57.2 365,-57.2 365,-38.2 332,-38.2"/>
<text text-anchor="start" x="346.4053" y="-44.3" font-family="Helvetica,sans-Serif" font-size="11.00" fill="#000000">2 &gt;</text>
</a>
</g>
</g>
<!-- gymnasts&#45;&gt;gyms_has_users -->
<g id="edge7" class="edge">
<title>gymnasts:w&#45;&gt;gyms_has_users:e</title>
<path fill="none" stroke="#000000" d="M399.7027,-81.0164C388.2382,-84.1407 381.5655,-90.2 365,-90.2"/>
<polygon fill="#000000" stroke="#000000" points="406.0638,-80.2083 414.4537,-82.7713 410.0319,-79.7042 414,-79.2 414,-79.2 414,-79.2 410.0319,-79.7042 413.5463,-75.6287 406.0638,-80.2083 406.0638,-80.2083"/>
<ellipse fill="none" stroke="#000000" cx="402.8893" cy="-80.6116" rx="3.2" ry="3.2"/>
</g>
<!-- gymnasts&#45;&gt;gyms_has_users -->
<g id="edge8" class="edge">
<title>gymnasts:w&#45;&gt;gyms_has_users:e</title>
<path fill="none" stroke="#000000" d="M399.7027,-77.3836C388.2382,-74.2593 381.5655,-68.2 365,-68.2"/>
<polygon fill="#000000" stroke="#000000" points="406.0638,-78.1917 413.5463,-82.7713 410.0319,-78.6958 414,-79.2 414,-79.2 414,-79.2 410.0319,-78.6958 414.4537,-75.6287 406.0638,-78.1917 406.0638,-78.1917"/>
<ellipse fill="none" stroke="#000000" cx="402.8893" cy="-77.7884" rx="3.2" ry="3.2"/>
</g>
<!-- gyms_has_users&#45;&gt;gyms -->
<g id="edge9" class="edge">
<title>gyms_has_users:w&#45;&gt;gyms:e</title>
<path fill="none" stroke="#000000" d="M224.6916,-92.1726C157.1611,-113.6456 279.8289,-303.2 188,-303.2"/>
<polygon fill="#000000" stroke="#000000" points="231.075,-91.2926 239.4917,-93.7663 235.0375,-90.7463 239,-90.2 239,-90.2 239,-90.2 235.0375,-90.7463 238.5083,-86.6337 231.075,-91.2926 231.075,-91.2926"/>
<ellipse fill="none" stroke="#000000" cx="227.9049" cy="-91.7297" rx="3.2" ry="3.2"/>
</g>
<!-- users -->
<g id="node9" class="node">
<title>users</title>
<g id="a_node9"><a xlink:href="../../tables/users.html" xlink:title="users" target="_top">
<polygon fill="#ffffff" stroke="transparent" points="63.5,-40.7 63.5,-101.7 134.5,-101.7 134.5,-40.7 63.5,-40.7"/>
<polygon fill="#f5f5f5" stroke="transparent" points="64,-78.2 64,-101.2 135,-101.2 135,-78.2 64,-78.2"/>
<polygon fill="none" stroke="#000000" points="64,-78.2 64,-101.2 135,-101.2 135,-78.2 64,-78.2"/>
<text text-anchor="start" x="69" y="-87.3" font-family="Helvetica,sans-Serif" font-weight="bold" font-size="11.00" fill="#000000">users</text>
<text text-anchor="start" x="100.0437" y="-86.3" font-family="Helvetica,sans-Serif" font-size="11.00" fill="#000000">[table]</text>
<polygon fill="none" stroke="#000000" points="64,-59.2 64,-78.2 135,-78.2 135,-59.2 64,-59.2"/>
<text text-anchor="start" x="67" y="-65.3" font-family="Helvetica,sans-Serif" font-size="11.00" fill="#000000">...</text>
<polygon fill="#ffffff" stroke="transparent" points="64,-40.2 64,-59.2 76,-59.2 76,-40.2 64,-40.2"/>
<polygon fill="none" stroke="#000000" points="64,-40.2 64,-59.2 76,-59.2 76,-40.2 64,-40.2"/>
<text text-anchor="start" x="66.9431" y="-46.3" font-family="Helvetica,sans-Serif" font-size="11.00" fill="#000000"> &#160;</text>
<polygon fill="#ffffff" stroke="transparent" points="76,-40.2 76,-59.2 114,-59.2 114,-40.2 76,-40.2"/>
<polygon fill="none" stroke="#000000" points="76,-40.2 76,-59.2 114,-59.2 114,-40.2 76,-40.2"/>
<text text-anchor="start" x="78.8053" y="-46.3" font-family="Helvetica,sans-Serif" font-size="11.00" fill="#000000">0 rows</text>
<polygon fill="#ffffff" stroke="transparent" points="114,-40.2 114,-59.2 135,-59.2 135,-40.2 114,-40.2"/>
<polygon fill="none" stroke="#000000" points="114,-40.2 114,-59.2 135,-59.2 135,-40.2 114,-40.2"/>
<text text-anchor="start" x="116.7027" y="-46.3" font-family="Helvetica,sans-Serif" font-size="11.00" fill="#000000">2 &gt;</text>
</a>
</g>
</g>
<!-- gyms_has_users&#45;&gt;users -->
<g id="edge10" class="edge">
<title>gyms_has_users:w&#45;&gt;users:e</title>
<path fill="none" stroke="#000000" d="M224.5255,-68.2C189.7149,-68.2 175.9861,-68.2 135,-68.2"/>
<polygon fill="#000000" stroke="#000000" points="231,-68.2001 239,-71.8 235,-68.2 239,-68.2 239,-68.2 239,-68.2 235,-68.2 239,-64.6 231,-68.2001 231,-68.2001"/>
<ellipse fill="none" stroke="#000000" cx="227.8" cy="-68.2001" rx="3.2" ry="3.2"/>
</g>
<!-- normal_challenges -->
<g id="node10" class="node">
<title>normal_challenges</title>
<g id="a_node10"><a xlink:href="../../tables/normal_challenges.html" xlink:title="normal_challenges" target="_top">
<polygon fill="#ffffff" stroke="transparent" points="742,-289.7 742,-350.7 877,-350.7 877,-289.7 742,-289.7"/>
<polygon fill="#f5f5f5" stroke="transparent" points="742.5,-327.2 742.5,-350.2 877.5,-350.2 877.5,-327.2 742.5,-327.2"/>
<polygon fill="none" stroke="#000000" points="742.5,-327.2 742.5,-350.2 877.5,-350.2 877.5,-327.2 742.5,-327.2"/>
<text text-anchor="start" x="747.3523" y="-336.3" font-family="Helvetica,sans-Serif" font-weight="bold" font-size="11.00" fill="#000000">normal_challenges</text>
<text text-anchor="start" x="843.0219" y="-335.3" font-family="Helvetica,sans-Serif" font-size="11.00" fill="#000000">[table]</text>
<polygon fill="none" stroke="#000000" points="742.5,-308.2 742.5,-327.2 877.5,-327.2 877.5,-308.2 742.5,-308.2"/>
<text text-anchor="start" x="745.5" y="-314.3" font-family="Helvetica,sans-Serif" font-size="11.00" fill="#000000">...</text>
<polygon fill="#ffffff" stroke="transparent" points="742.5,-289.2 742.5,-308.2 790.5,-308.2 790.5,-289.2 742.5,-289.2"/>
<polygon fill="none" stroke="#000000" points="742.5,-289.2 742.5,-308.2 790.5,-308.2 790.5,-289.2 742.5,-289.2"/>
<text text-anchor="start" x="745.5" y="-295.3" font-family="Helvetica,sans-Serif" font-size="11.00" fill="#000000">&lt; 2</text>
<polygon fill="#ffffff" stroke="transparent" points="790.5,-289.2 790.5,-308.2 842.5,-308.2 842.5,-289.2 790.5,-289.2"/>
<polygon fill="none" stroke="#000000" points="790.5,-289.2 790.5,-308.2 842.5,-308.2 842.5,-289.2 790.5,-289.2"/>
<text text-anchor="start" x="807.1105" y="-295.3" font-family="Helvetica,sans-Serif" font-size="11.00" fill="#000000">0 rows</text>
<polygon fill="#ffffff" stroke="transparent" points="842.5,-289.2 842.5,-308.2 877.5,-308.2 877.5,-289.2 842.5,-289.2"/>
<polygon fill="none" stroke="#000000" points="842.5,-289.2 842.5,-308.2 877.5,-308.2 877.5,-289.2 842.5,-289.2"/>
<text text-anchor="start" x="858.9053" y="-295.3" font-family="Helvetica,sans-Serif" font-size="11.00" fill="#000000">2 &gt;</text>
</a>
</g>
</g>
<!-- normal_challenges&#45;&gt;challenges -->
<g id="edge11" class="edge">
<title>normal_challenges:w&#45;&gt;challenges:e</title>
<path fill="none" stroke="#000000" d="M728.2561,-320.3025C695.5162,-337.1814 721.4158,-417.2 673,-417.2"/>
<polygon fill="#000000" stroke="#000000" points="734.6833,-318.9026 743.2662,-320.7175 738.5916,-318.0513 742.5,-317.2 742.5,-317.2 742.5,-317.2 738.5916,-318.0513 741.7338,-313.6825 734.6833,-318.9026 734.6833,-318.9026"/>
<ellipse fill="none" stroke="#000000" cx="731.5566" cy="-319.5836" rx="3.2" ry="3.2"/>
</g>
<!-- normal_challenges&#45;&gt;classes -->
<g id="edge12" class="edge">
<title>normal_challenges:w&#45;&gt;classes:e</title>
<path fill="none" stroke="#000000" d="M728.1109,-316.6133C719.6757,-315.8764 713.561,-314.6534 701,-314.2 631.7118,-311.6989 611.6092,-294.9561 545,-314.2 521.7814,-320.908 523.1681,-343.2 499,-343.2"/>
<polygon fill="#000000" stroke="#000000" points="734.5066,-316.8741 742.3533,-320.797 738.5033,-317.037 742.5,-317.2 742.5,-317.2 742.5,-317.2 738.5033,-317.037 742.6467,-313.603 734.5066,-316.8741 734.5066,-316.8741"/>
<ellipse fill="none" stroke="#000000" cx="731.3093" cy="-316.7437" rx="3.2" ry="3.2"/>
</g>
<!-- skill_lists_has_skills -->
<g id="node11" class="node">
<title>skill_lists_has_skills</title>
<g id="a_node11"><a xlink:href="../../tables/skill_lists_has_skills.html" xlink:title="skill_lists_has_skills" target="_top">
<polygon fill="#ffffff" stroke="transparent" points="553,-198.7 553,-259.7 693,-259.7 693,-198.7 553,-198.7"/>
<polygon fill="#f5f5f5" stroke="transparent" points="553,-236.2 553,-259.2 693,-259.2 693,-236.2 553,-236.2"/>
<polygon fill="none" stroke="#000000" points="553,-236.2 553,-259.2 693,-259.2 693,-236.2 553,-236.2"/>
<text text-anchor="start" x="557.9207" y="-245.3" font-family="Helvetica,sans-Serif" font-weight="bold" font-size="11.00" fill="#000000">skill_lists_has_skills</text>
<text text-anchor="start" x="658.5219" y="-244.3" font-family="Helvetica,sans-Serif" font-size="11.00" fill="#000000">[table]</text>
<polygon fill="none" stroke="#000000" points="553,-217.2 553,-236.2 693,-236.2 693,-217.2 553,-217.2"/>
<text text-anchor="start" x="556" y="-223.3" font-family="Helvetica,sans-Serif" font-size="11.00" fill="#000000">...</text>
<polygon fill="#ffffff" stroke="transparent" points="553,-198.2 553,-217.2 608,-217.2 608,-198.2 553,-198.2"/>
<polygon fill="none" stroke="#000000" points="553,-198.2 553,-217.2 608,-217.2 608,-198.2 553,-198.2"/>
<text text-anchor="start" x="556" y="-204.3" font-family="Helvetica,sans-Serif" font-size="11.00" fill="#000000">&lt; 2</text>
<polygon fill="#ffffff" stroke="transparent" points="608,-198.2 608,-217.2 663,-217.2 663,-198.2 608,-198.2"/>
<polygon fill="none" stroke="#000000" points="608,-198.2 608,-217.2 663,-217.2 663,-198.2 608,-198.2"/>
<text text-anchor="start" x="627.6105" y="-204.3" font-family="Helvetica,sans-Serif" font-size="11.00" fill="#000000">0 rows</text>
<polygon fill="#ffffff" stroke="transparent" points="663,-198.2 663,-217.2 693,-217.2 693,-198.2 663,-198.2"/>
<polygon fill="none" stroke="#000000" points="663,-198.2 663,-217.2 693,-217.2 693,-198.2 663,-198.2"/>
<text text-anchor="start" x="683.8862" y="-204.3" font-family="Helvetica,sans-Serif" font-size="11.00" fill="#000000"> &#160;</text>
</a>
</g>
</g>
<!-- skill_lists_has_skills&#45;&gt;skill_lists -->
<g id="edge15" class="edge">
<title>skill_lists_has_skills:w&#45;&gt;skill_lists:e</title>
<path fill="none" stroke="#000000" d="M539.0756,-230.2868C528.9895,-237.8897 527.8049,-254.3295 512,-264.2 469.1563,-290.9568 451.3256,-282.9043 406,-305.2 377.5474,-319.1959 376.7085,-342.2 345,-342.2"/>
<polygon fill="#000000" stroke="#000000" points="545.3238,-228.453 554.0138,-229.6543 549.1619,-227.3265 553,-226.2 553,-226.2 553,-226.2 549.1619,-227.3265 551.9862,-222.7457 545.3238,-228.453 545.3238,-228.453"/>
<ellipse fill="none" stroke="#000000" cx="542.2533" cy="-229.3542" rx="3.2" ry="3.2"/>
</g>
<!-- skills -->
<g id="node12" class="node">
<title>skills</title>
<g id="a_node12"><a xlink:href="../../tables/skills.html" xlink:title="skills" target="_top">
<polygon fill="#ffffff" stroke="transparent" points="419,-192.7 419,-253.7 499,-253.7 499,-192.7 419,-192.7"/>
<polygon fill="#f5f5f5" stroke="transparent" points="419,-230.2 419,-253.2 499,-253.2 499,-230.2 419,-230.2"/>
<polygon fill="none" stroke="#000000" points="419,-230.2 419,-253.2 499,-253.2 499,-230.2 419,-230.2"/>
<text text-anchor="start" x="424" y="-239.3" font-family="Helvetica,sans-Serif" font-weight="bold" font-size="11.00" fill="#000000">skills</text>
<text text-anchor="start" x="464.0437" y="-238.3" font-family="Helvetica,sans-Serif" font-size="11.00" fill="#000000">[table]</text>
<polygon fill="none" stroke="#000000" points="419,-211.2 419,-230.2 499,-230.2 499,-211.2 419,-211.2"/>
<text text-anchor="start" x="422" y="-217.3" font-family="Helvetica,sans-Serif" font-size="11.00" fill="#000000">...</text>
<polygon fill="#ffffff" stroke="transparent" points="419,-192.2 419,-211.2 440,-211.2 440,-192.2 419,-192.2"/>
<polygon fill="none" stroke="#000000" points="419,-192.2 419,-211.2 440,-211.2 440,-192.2 419,-192.2"/>
<text text-anchor="start" x="421.7027" y="-198.3" font-family="Helvetica,sans-Serif" font-size="11.00" fill="#000000">&lt; 3</text>
<polygon fill="#ffffff" stroke="transparent" points="440,-192.2 440,-211.2 478,-211.2 478,-192.2 440,-192.2"/>
<polygon fill="none" stroke="#000000" points="440,-192.2 440,-211.2 478,-211.2 478,-192.2 440,-192.2"/>
<text text-anchor="start" x="442.8053" y="-198.3" font-family="Helvetica,sans-Serif" font-size="11.00" fill="#000000">0 rows</text>
<polygon fill="#ffffff" stroke="transparent" points="478,-192.2 478,-211.2 499,-211.2 499,-192.2 478,-192.2"/>
<polygon fill="none" stroke="#000000" points="478,-192.2 478,-211.2 499,-211.2 499,-192.2 478,-192.2"/>
<text text-anchor="start" x="480.7027" y="-198.3" font-family="Helvetica,sans-Serif" font-size="11.00" fill="#000000">2 &gt;</text>
</a>
</g>
</g>
<!-- skill_lists_has_skills&#45;&gt;skills -->
<g id="edge14" class="edge">
<title>skill_lists_has_skills:w&#45;&gt;skills:e</title>
<path fill="none" stroke="#000000" d="M538.5856,-225.3657C525.1652,-223.7171 517.4881,-220.2 499,-220.2"/>
<polygon fill="#000000" stroke="#000000" points="545.0134,-225.7377 552.792,-229.794 549.0067,-225.9688 553,-226.2 553,-226.2 553,-226.2 549.0067,-225.9688 553.208,-222.606 545.0134,-225.7377 545.0134,-225.7377"/>
<ellipse fill="none" stroke="#000000" cx="541.8187" cy="-225.5528" rx="3.2" ry="3.2"/>
</g>
<!-- skills&#45;&gt;events -->
<g id="edge16" class="edge">
<title>skills:w&#45;&gt;events:e</title>
<path fill="none" stroke="#000000" d="M404.5732,-219.9123C382.7289,-218.9952 372.5332,-216.2 345,-216.2"/>
<polygon fill="#000000" stroke="#000000" points="411.0016,-220.0405 418.9282,-223.7993 415.0008,-220.1202 419,-220.2 419,-220.2 419,-220.2 415.0008,-220.1202 419.0718,-216.6007 411.0016,-220.0405 411.0016,-220.0405"/>
<ellipse fill="none" stroke="#000000" cx="407.8022" cy="-219.9766" rx="3.2" ry="3.2"/>
</g>
</g>
</svg>
