<?xml version="1.0" encoding="UTF-8" standalone="no"?>
<!DOCTYPE svg PUBLIC "-//W3C//DTD SVG 1.1//EN"
 "http://www.w3.org/Graphics/SVG/1.1/DTD/svg11.dtd">
<!-- Generated by graphviz version 2.40.1 (20161225.0304)
 -->
<!-- Title: twoDegreesRelationshipsDiagram Pages: 1 -->
<svg width="709pt" height="415pt"
 viewBox="0.00 0.00 709.00 415.20" xmlns="http://www.w3.org/2000/svg" xmlns:xlink="http://www.w3.org/1999/xlink">
<g id="graph0" class="graph" transform="scale(1 1) rotate(0) translate(4 411.2)">
<title>twoDegreesRelationshipsDiagram</title>
<polygon fill="#ffffff" stroke="transparent" points="-4,4 -4,-411.2 705,-411.2 705,4 -4,4"/>
<text text-anchor="middle" x="72.4936" y="-7.3" font-family="Helvetica,sans-Serif" font-size="11.00" fill="#000000">Generated by SchemaSpy</text>
<!-- classes -->
<g id="node1" class="node">
<title>classes</title>
<g id="a_node1"><a xlink:href="../../tables/classes.html" xlink:title="classes" target="_top">
<polygon fill="#ffffff" stroke="transparent" points="583,-341.2 583,-402.2 663,-402.2 663,-341.2 583,-341.2"/>
<polygon fill="#f5f5f5" stroke="transparent" points="583,-378.7 583,-401.7 663,-401.7 663,-378.7 583,-378.7"/>
<polygon fill="none" stroke="#000000" points="583,-378.7 583,-401.7 663,-401.7 663,-378.7 583,-378.7"/>
<text text-anchor="start" x="588" y="-387.8" font-family="Helvetica,sans-Serif" font-weight="bold" font-size="11.00" fill="#000000">classes</text>
<text text-anchor="start" x="628.5219" y="-386.8" font-family="Helvetica,sans-Serif" font-size="11.00" fill="#000000">[table]</text>
<polygon fill="none" stroke="#000000" points="583,-359.7 583,-378.7 663,-378.7 663,-359.7 583,-359.7"/>
<text text-anchor="start" x="586" y="-365.8" font-family="Helvetica,sans-Serif" font-size="11.00" fill="#000000">...</text>
<polygon fill="#ffffff" stroke="transparent" points="583,-340.7 583,-359.7 604,-359.7 604,-340.7 583,-340.7"/>
<polygon fill="none" stroke="#000000" points="583,-340.7 583,-359.7 604,-359.7 604,-340.7 583,-340.7"/>
<text text-anchor="start" x="585.7026" y="-346.8" font-family="Helvetica,sans-Serif" font-size="11.00" fill="#000000">&lt; 1</text>
<polygon fill="#ffffff" stroke="transparent" points="604,-340.7 604,-359.7 642,-359.7 642,-340.7 604,-340.7"/>
<polygon fill="none" stroke="#000000" points="604,-340.7 604,-359.7 642,-359.7 642,-340.7 604,-340.7"/>
<text text-anchor="start" x="606.8053" y="-346.8" font-family="Helvetica,sans-Serif" font-size="11.00" fill="#000000">0 rows</text>
<polygon fill="#ffffff" stroke="transparent" points="642,-340.7 642,-359.7 663,-359.7 663,-340.7 642,-340.7"/>
<polygon fill="none" stroke="#000000" points="642,-340.7 642,-359.7 663,-359.7 663,-340.7 642,-340.7"/>
<text text-anchor="start" x="644.7026" y="-346.8" font-family="Helvetica,sans-Serif" font-size="11.00" fill="#000000">3 &gt;</text>
</a>
</g>
</g>
<!-- skill_lists -->
<g id="node2" class="node">
<title>skill_lists</title>
<g id="a_node2"><a xlink:href="../../tables/skill_lists.html" xlink:title="skill_lists" target="_top">
<polygon fill="#ffffff" stroke="transparent" points="416,-298.2 416,-403.2 502,-403.2 502,-298.2 416,-298.2"/>
<polygon fill="#f5f5f5" stroke="transparent" points="416,-379.7 416,-402.7 502,-402.7 502,-379.7 416,-379.7"/>
<polygon fill="none" stroke="#000000" points="416,-379.7 416,-402.7 502,-402.7 502,-379.7 416,-379.7"/>
<text text-anchor="start" x="420.8119" y="-388.8" font-family="Helvetica,sans-Serif" font-weight="bold" font-size="11.00" fill="#000000">skill_lists</text>
<text text-anchor="start" x="467.5219" y="-387.8" font-family="Helvetica,sans-Serif" font-size="11.00" fill="#000000">[table]</text>
<polygon fill="none" stroke="#000000" points="416,-357.7 416,-379.7 502,-379.7 502,-357.7 416,-357.7"/>
<image xlink:href="../../images/primaryKeys.png" width="11px" height="12px" preserveAspectRatio="xMinYMin meet" x="421" y="-374.7"/>
<text text-anchor="start" x="437" y="-364.8" font-family="Helvetica,sans-Serif" font-size="11.00" fill="#000000">id</text>
<polygon fill="#ffffff" stroke="transparent" points="416,-335.7 416,-357.7 502,-357.7 502,-335.7 416,-335.7"/>
<polygon fill="none" stroke="#000000" points="416,-335.7 416,-357.7 502,-357.7 502,-335.7 416,-335.7"/>
<image xlink:href="../../images/foreignKeys.png" width="11px" height="12px" preserveAspectRatio="xMinYMin meet" x="421" y="-352.7"/>
<text text-anchor="start" x="437" y="-342.8" font-family="Helvetica,sans-Serif" font-size="11.00" fill="#000000">gym_id</text>
<polygon fill="none" stroke="#000000" points="416,-316.7 416,-335.7 502,-335.7 502,-316.7 416,-316.7"/>
<text text-anchor="start" x="419" y="-322.8" font-family="Helvetica,sans-Serif" font-size="11.00" fill="#000000">...</text>
<polygon fill="#ffffff" stroke="transparent" points="416,-297.7 416,-316.7 440,-316.7 440,-297.7 416,-297.7"/>
<polygon fill="none" stroke="#000000" points="416,-297.7 416,-316.7 440,-316.7 440,-297.7 416,-297.7"/>
<text text-anchor="start" x="419" y="-303.8" font-family="Helvetica,sans-Serif" font-size="11.00" fill="#000000">&lt; 1</text>
<polygon fill="#ffffff" stroke="transparent" points="440,-297.7 440,-316.7 479,-316.7 479,-297.7 440,-297.7"/>
<polygon fill="none" stroke="#000000" points="440,-297.7 440,-316.7 479,-316.7 479,-297.7 440,-297.7"/>
<text text-anchor="start" x="443.6105" y="-303.8" font-family="Helvetica,sans-Serif" font-size="11.00" fill="#000000">0 rows</text>
<polygon fill="#ffffff" stroke="transparent" points="479,-297.7 479,-316.7 502,-316.7 502,-297.7 479,-297.7"/>
<polygon fill="none" stroke="#000000" points="479,-297.7 479,-316.7 502,-316.7 502,-297.7 479,-297.7"/>
<text text-anchor="start" x="483.4053" y="-303.8" font-family="Helvetica,sans-Serif" font-size="11.00" fill="#000000">2 &gt;</text>
</a>
</g>
</g>
<!-- classes&#45;&gt;skill_lists -->
<g id="edge1" class="edge">
<title>classes:w&#45;&gt;skill_lists:e</title>
<path fill="none" stroke="#000000" d="M568.5769,-368.7C543.7332,-368.7 532.6563,-368.7 502,-368.7"/>
<polygon fill="#000000" stroke="#000000" points="575,-368.7001 583,-372.3 579,-368.7 583,-368.7 583,-368.7 583,-368.7 579,-368.7 583,-365.1 575,-368.7001 575,-368.7001"/>
<ellipse fill="none" stroke="#000000" cx="571.8" cy="-368.7001" rx="3.2" ry="3.2"/>
</g>
<!-- gyms -->
<g id="node4" class="node">
<title>gyms</title>
<g id="a_node4"><a xlink:href="../../tables/gyms.html" xlink:title="gyms" target="_top">
<polygon fill="#ffffff" stroke="transparent" points="8,-120.7 8,-320.7 190,-320.7 190,-120.7 8,-120.7"/>
<polygon fill="#f5f5f5" stroke="transparent" points="10,-295.7 10,-318.7 188,-318.7 188,-295.7 10,-295.7"/>
<polygon fill="none" stroke="#000000" points="10,-295.7 10,-318.7 188,-318.7 188,-295.7 10,-295.7"/>
<text text-anchor="start" x="15" y="-304.8" font-family="Helvetica,sans-Serif" font-weight="bold" font-size="11.00" fill="#000000">gyms</text>
<text text-anchor="start" x="153.0437" y="-303.8" font-family="Helvetica,sans-Serif" font-size="11.00" fill="#000000">[table]</text>
<polygon fill="none" stroke="#000000" points="10,-273.7 10,-295.7 95,-295.7 95,-273.7 10,-273.7"/>
<image xlink:href="../../images/primaryKeys.png" width="11px" height="12px" preserveAspectRatio="xMinYMin meet" x="15" y="-290.7"/>
<text text-anchor="start" x="30" y="-280.8" font-family="Helvetica,sans-Serif" font-size="11.00" fill="#000000">id</text>
<polygon fill="none" stroke="#000000" points="95,-273.7 95,-295.7 188,-295.7 188,-273.7 95,-273.7"/>
<text text-anchor="start" x="98" y="-281.4" font-family="Helvetica,sans-Serif" font-size="11.00" fill="#000000">bigint[19]</text>
<polygon fill="none" stroke="#000000" points="10,-251.7 10,-273.7 95,-273.7 95,-251.7 10,-251.7"/>
<text text-anchor="start" x="30" y="-258.8" font-family="Helvetica,sans-Serif" font-size="11.00" fill="#000000">name</text>
<polygon fill="none" stroke="#000000" points="95,-251.7 95,-273.7 188,-273.7 188,-251.7 95,-251.7"/>
<text text-anchor="start" x="98" y="-259.4" font-family="Helvetica,sans-Serif" font-size="11.00" fill="#000000">varchar[45]</text>
<polygon fill="none" stroke="#000000" points="10,-229.7 10,-251.7 95,-251.7 95,-229.7 10,-229.7"/>
<text text-anchor="start" x="30" y="-236.8" font-family="Helvetica,sans-Serif" font-size="11.00" fill="#000000">description</text>
<polygon fill="none" stroke="#000000" points="95,-229.7 95,-251.7 188,-251.7 188,-229.7 95,-229.7"/>
<text text-anchor="start" x="98" y="-237.4" font-family="Helvetica,sans-Serif" font-size="11.00" fill="#000000">varchar[45]</text>
<polygon fill="none" stroke="#000000" points="10,-207.7 10,-229.7 95,-229.7 95,-207.7 10,-207.7"/>
<text text-anchor="start" x="30" y="-214.8" font-family="Helvetica,sans-Serif" font-size="11.00" fill="#000000">settings</text>
<polygon fill="none" stroke="#000000" points="95,-207.7 95,-229.7 188,-229.7 188,-207.7 95,-207.7"/>
<text text-anchor="start" x="97.7833" y="-215.4" font-family="Helvetica,sans-Serif" font-size="11.00" fill="#000000">json[1073741824]</text>
<polygon fill="none" stroke="#000000" points="10,-185.7 10,-207.7 95,-207.7 95,-185.7 10,-185.7"/>
<text text-anchor="start" x="30" y="-192.8" font-family="Helvetica,sans-Serif" font-size="11.00" fill="#000000">created_at</text>
<polygon fill="none" stroke="#000000" points="95,-185.7 95,-207.7 188,-207.7 188,-185.7 95,-185.7"/>
<text text-anchor="start" x="98" y="-193.4" font-family="Helvetica,sans-Serif" font-size="11.00" fill="#000000">timestamp[19]</text>
<polygon fill="none" stroke="#000000" points="10,-163.7 10,-185.7 95,-185.7 95,-163.7 10,-163.7"/>
<text text-anchor="start" x="30" y="-170.8" font-family="Helvetica,sans-Serif" font-size="11.00" fill="#000000">updated_at</text>
<polygon fill="none" stroke="#000000" points="95,-163.7 95,-185.7 188,-185.7 188,-163.7 95,-163.7"/>
<text text-anchor="start" x="98" y="-171.4" font-family="Helvetica,sans-Serif" font-size="11.00" fill="#000000">timestamp[19]</text>
<polygon fill="none" stroke="#000000" points="10,-141.7 10,-163.7 95,-163.7 95,-141.7 10,-141.7"/>
<text text-anchor="start" x="30" y="-148.8" font-family="Helvetica,sans-Serif" font-size="11.00" fill="#000000">deleted_at</text>
<polygon fill="none" stroke="#000000" points="95,-141.7 95,-163.7 188,-163.7 188,-141.7 95,-141.7"/>
<text text-anchor="start" x="98" y="-149.4" font-family="Helvetica,sans-Serif" font-size="11.00" fill="#000000">timestamp[19]</text>
<polygon fill="#ffffff" stroke="transparent" points="10,-122.7 10,-141.7 44,-141.7 44,-122.7 10,-122.7"/>
<polygon fill="none" stroke="#000000" points="10,-122.7 10,-141.7 44,-141.7 44,-122.7 10,-122.7"/>
<text text-anchor="start" x="13" y="-128.8" font-family="Helvetica,sans-Serif" font-size="11.00" fill="#000000">&lt; 0</text>
<polygon fill="#ffffff" stroke="transparent" points="44,-122.7 44,-141.7 95,-141.7 95,-122.7 44,-122.7"/>
<polygon fill="none" stroke="#000000" points="44,-122.7 44,-141.7 95,-141.7 95,-122.7 44,-122.7"/>
<text text-anchor="start" x="59.6105" y="-128.8" font-family="Helvetica,sans-Serif" font-size="11.00" fill="#000000">0 rows</text>
<polygon fill="#ffffff" stroke="transparent" points="95,-122.7 95,-141.7 188,-141.7 188,-122.7 95,-122.7"/>
<polygon fill="none" stroke="#000000" points="95,-122.7 95,-141.7 188,-141.7 188,-122.7 95,-122.7"/>
<text text-anchor="start" x="169.4053" y="-128.8" font-family="Helvetica,sans-Serif" font-size="11.00" fill="#000000">3 &gt;</text>
<polygon fill="none" stroke="#000000" stroke-width="2" points="9,-121.7 9,-319.7 189,-319.7 189,-121.7 9,-121.7"/>
</a>
</g>
</g>
<!-- skill_lists&#45;&gt;gyms -->
<g id="edge7" class="edge">
<title>skill_lists:w&#45;&gt;gyms:e</title>
<path fill="none" stroke="#000000" d="M401.4156,-346.6163C329.1924,-345.7335 304.668,-337.5982 231,-309.7 210.3264,-301.8709 210.1064,-284.7 188,-284.7"/>
<polygon fill="#000000" stroke="#000000" points="408.0001,-346.654 415.9793,-350.2999 412.0001,-346.677 416,-346.7 416,-346.7 416,-346.7 412.0001,-346.677 416.0207,-343.1001 408.0001,-346.654 408.0001,-346.654"/>
<ellipse fill="none" stroke="#000000" cx="404.8002" cy="-346.6357" rx="3.2" ry="3.2"/>
</g>
<!-- events -->
<g id="node3" class="node">
<title>events</title>
<g id="a_node3"><a xlink:href="../../tables/events.html" xlink:title="events" target="_top">
<polygon fill="#ffffff" stroke="transparent" points="259.5,-194.2 259.5,-299.2 344.5,-299.2 344.5,-194.2 259.5,-194.2"/>
<polygon fill="#f5f5f5" stroke="transparent" points="260,-275.7 260,-298.7 345,-298.7 345,-275.7 260,-275.7"/>
<polygon fill="none" stroke="#000000" points="260,-275.7 260,-298.7 345,-298.7 345,-275.7 260,-275.7"/>
<text text-anchor="start" x="265" y="-284.8" font-family="Helvetica,sans-Serif" font-weight="bold" font-size="11.00" fill="#000000">events</text>
<text text-anchor="start" x="310.0437" y="-283.8" font-family="Helvetica,sans-Serif" font-size="11.00" fill="#000000">[table]</text>
<polygon fill="none" stroke="#000000" points="260,-253.7 260,-275.7 345,-275.7 345,-253.7 260,-253.7"/>
<image xlink:href="../../images/primaryKeys.png" width="11px" height="12px" preserveAspectRatio="xMinYMin meet" x="265" y="-270.7"/>
<text text-anchor="start" x="280" y="-260.8" font-family="Helvetica,sans-Serif" font-size="11.00" fill="#000000">id</text>
<polygon fill="#ffffff" stroke="transparent" points="260,-231.7 260,-253.7 345,-253.7 345,-231.7 260,-231.7"/>
<polygon fill="none" stroke="#000000" points="260,-231.7 260,-253.7 345,-253.7 345,-231.7 260,-231.7"/>
<image xlink:href="../../images/foreignKeys.png" width="11px" height="12px" preserveAspectRatio="xMinYMin meet" x="265" y="-248.7"/>
<text text-anchor="start" x="280" y="-238.8" font-family="Helvetica,sans-Serif" font-size="11.00" fill="#000000">gym_id</text>
<polygon fill="none" stroke="#000000" points="260,-212.7 260,-231.7 345,-231.7 345,-212.7 260,-212.7"/>
<text text-anchor="start" x="263" y="-218.8" font-family="Helvetica,sans-Serif" font-size="11.00" fill="#000000">...</text>
<polygon fill="#ffffff" stroke="transparent" points="260,-193.7 260,-212.7 283,-212.7 283,-193.7 260,-193.7"/>
<polygon fill="none" stroke="#000000" points="260,-193.7 260,-212.7 283,-212.7 283,-193.7 260,-193.7"/>
<text text-anchor="start" x="263" y="-199.8" font-family="Helvetica,sans-Serif" font-size="11.00" fill="#000000">&lt; 1</text>
<polygon fill="#ffffff" stroke="transparent" points="283,-193.7 283,-212.7 322,-212.7 322,-193.7 283,-193.7"/>
<polygon fill="none" stroke="#000000" points="283,-193.7 283,-212.7 322,-212.7 322,-193.7 283,-193.7"/>
<text text-anchor="start" x="286.6105" y="-199.8" font-family="Helvetica,sans-Serif" font-size="11.00" fill="#000000">0 rows</text>
<polygon fill="#ffffff" stroke="transparent" points="322,-193.7 322,-212.7 345,-212.7 345,-193.7 322,-193.7"/>
<polygon fill="none" stroke="#000000" points="322,-193.7 322,-212.7 345,-212.7 345,-193.7 322,-193.7"/>
<text text-anchor="start" x="326.4053" y="-199.8" font-family="Helvetica,sans-Serif" font-size="11.00" fill="#000000">1 &gt;</text>
</a>
</g>
</g>
<!-- events&#45;&gt;gyms -->
<g id="edge2" class="edge">
<title>events:w&#45;&gt;gyms:e</title>
<path fill="none" stroke="#000000" d="M245.5169,-245.3273C222.6828,-254.5221 219.4027,-284.7 188,-284.7"/>
<polygon fill="#000000" stroke="#000000" points="252.1285,-244.128 260.6426,-246.2422 256.0642,-243.414 260,-242.7 260,-242.7 260,-242.7 256.0642,-243.414 259.3574,-239.1578 252.1285,-244.128 252.1285,-244.128"/>
<ellipse fill="none" stroke="#000000" cx="248.9799" cy="-244.6992" rx="3.2" ry="3.2"/>
</g>
<!-- gymnasts -->
<g id="node5" class="node">
<title>gymnasts</title>
<g id="a_node5"><a xlink:href="../../tables/gymnasts.html" xlink:title="gymnasts" target="_top">
<polygon fill="#ffffff" stroke="transparent" points="414,-94.2 414,-155.2 504,-155.2 504,-94.2 414,-94.2"/>
<polygon fill="#f5f5f5" stroke="transparent" points="414,-131.7 414,-154.7 504,-154.7 504,-131.7 414,-131.7"/>
<polygon fill="none" stroke="#000000" points="414,-131.7 414,-154.7 504,-154.7 504,-131.7 414,-131.7"/>
<text text-anchor="start" x="418.9683" y="-140.8" font-family="Helvetica,sans-Serif" font-weight="bold" font-size="11.00" fill="#000000">gymnasts</text>
<text text-anchor="start" x="469.5219" y="-139.8" font-family="Helvetica,sans-Serif" font-size="11.00" fill="#000000">[table]</text>
<polygon fill="none" stroke="#000000" points="414,-112.7 414,-131.7 504,-131.7 504,-112.7 414,-112.7"/>
<text text-anchor="start" x="417" y="-118.8" font-family="Helvetica,sans-Serif" font-size="11.00" fill="#000000">...</text>
<polygon fill="#ffffff" stroke="transparent" points="414,-93.7 414,-112.7 440,-112.7 440,-93.7 414,-93.7"/>
<polygon fill="none" stroke="#000000" points="414,-93.7 414,-112.7 440,-112.7 440,-93.7 414,-93.7"/>
<text text-anchor="start" x="417" y="-99.8" font-family="Helvetica,sans-Serif" font-size="11.00" fill="#000000">&lt; 2</text>
<polygon fill="#ffffff" stroke="transparent" points="440,-93.7 440,-112.7 480,-112.7 480,-93.7 440,-93.7"/>
<polygon fill="none" stroke="#000000" points="440,-93.7 440,-112.7 480,-112.7 480,-93.7 440,-93.7"/>
<text text-anchor="start" x="444.6105" y="-99.8" font-family="Helvetica,sans-Serif" font-size="11.00" fill="#000000">0 rows</text>
<polygon fill="#ffffff" stroke="transparent" points="480,-93.7 480,-112.7 504,-112.7 504,-93.7 480,-93.7"/>
<polygon fill="none" stroke="#000000" points="480,-93.7 480,-112.7 504,-112.7 504,-93.7 480,-93.7"/>
<text text-anchor="start" x="485.4053" y="-99.8" font-family="Helvetica,sans-Serif" font-size="11.00" fill="#000000">4 &gt;</text>
</a>
</g>
</g>
<!-- gyms_has_users -->
<g id="node6" class="node">
<title>gyms_has_users</title>
<g id="a_node6"><a xlink:href="../../tables/gyms_has_users.html" xlink:title="gyms_has_users" target="_top">
<polygon fill="#ffffff" stroke="transparent" points="239,-80.7 239,-166.7 365,-166.7 365,-80.7 239,-80.7"/>
<polygon fill="#f5f5f5" stroke="transparent" points="239,-143.7 239,-166.7 365,-166.7 365,-143.7 239,-143.7"/>
<polygon fill="none" stroke="#000000" points="239,-143.7 239,-166.7 365,-166.7 365,-143.7 239,-143.7"/>
<text text-anchor="start" x="243.936" y="-152.8" font-family="Helvetica,sans-Serif" font-weight="bold" font-size="11.00" fill="#000000">gyms_has_users</text>
<text text-anchor="start" x="330.5219" y="-151.8" font-family="Helvetica,sans-Serif" font-size="11.00" fill="#000000">[table]</text>
<polygon fill="none" stroke="#000000" points="239,-121.7 239,-143.7 365,-143.7 365,-121.7 239,-121.7"/>
<image xlink:href="../../images/primaryKeys.png" width="11px" height="12px" preserveAspectRatio="xMinYMin meet" x="244" y="-138.7"/>
<text text-anchor="start" x="263" y="-128.8" font-family="Helvetica,sans-Serif" font-size="11.00" fill="#000000">gym_id</text>
<polygon fill="none" stroke="#000000" points="239,-99.7 239,-121.7 365,-121.7 365,-99.7 239,-99.7"/>
<image xlink:href="../../images/primaryKeys.png" width="11px" height="12px" preserveAspectRatio="xMinYMin meet" x="244" y="-116.7"/>
<text text-anchor="start" x="263" y="-106.8" font-family="Helvetica,sans-Serif" font-size="11.00" fill="#000000">user_id</text>
<polygon fill="#ffffff" stroke="transparent" points="239,-80.7 239,-99.7 283,-99.7 283,-80.7 239,-80.7"/>
<polygon fill="none" stroke="#000000" points="239,-80.7 239,-99.7 283,-99.7 283,-80.7 239,-80.7"/>
<text text-anchor="start" x="242" y="-86.8" font-family="Helvetica,sans-Serif" font-size="11.00" fill="#000000">&lt; 2</text>
<polygon fill="#ffffff" stroke="transparent" points="283,-80.7 283,-99.7 332,-99.7 332,-80.7 283,-80.7"/>
<polygon fill="none" stroke="#000000" points="283,-80.7 283,-99.7 332,-99.7 332,-80.7 283,-80.7"/>
<text text-anchor="start" x="296.6105" y="-86.8" font-family="Helvetica,sans-Serif" font-size="11.00" fill="#000000">0 rows</text>
<polygon fill="#ffffff" stroke="transparent" points="332,-80.7 332,-99.7 365,-99.7 365,-80.7 332,-80.7"/>
<polygon fill="none" stroke="#000000" points="332,-80.7 332,-99.7 365,-99.7 365,-80.7 332,-80.7"/>
<text text-anchor="start" x="346.4053" y="-86.8" font-family="Helvetica,sans-Serif" font-size="11.00" fill="#000000">2 &gt;</text>
</a>
</g>
</g>
<!-- gymnasts&#45;&gt;gyms_has_users -->
<g id="edge3" class="edge">
<title>gymnasts:w&#45;&gt;gyms_has_users:e</title>
<path fill="none" stroke="#000000" d="M399.7027,-123.5164C388.2382,-126.6407 381.5655,-132.7 365,-132.7"/>
<polygon fill="#000000" stroke="#000000" points="406.0638,-122.7083 414.4537,-125.2713 410.0319,-122.2042 414,-121.7 414,-121.7 414,-121.7 410.0319,-122.2042 413.5463,-118.1287 406.0638,-122.7083 406.0638,-122.7083"/>
<ellipse fill="none" stroke="#000000" cx="402.8893" cy="-123.1116" rx="3.2" ry="3.2"/>
</g>
<!-- gymnasts&#45;&gt;gyms_has_users -->
<g id="edge4" class="edge">
<title>gymnasts:w&#45;&gt;gyms_has_users:e</title>
<path fill="none" stroke="#000000" d="M399.7027,-119.8836C388.2382,-116.7593 381.5655,-110.7 365,-110.7"/>
<polygon fill="#000000" stroke="#000000" points="406.0638,-120.6917 413.5463,-125.2713 410.0319,-121.1958 414,-121.7 414,-121.7 414,-121.7 410.0319,-121.1958 414.4537,-118.1287 406.0638,-120.6917 406.0638,-120.6917"/>
<ellipse fill="none" stroke="#000000" cx="402.8893" cy="-120.2884" rx="3.2" ry="3.2"/>
</g>
<!-- gyms_has_users&#45;&gt;gyms -->
<g id="edge5" class="edge">
<title>gyms_has_users:w&#45;&gt;gyms:e</title>
<path fill="none" stroke="#000000" d="M224.8458,-135.468C181.3559,-156.069 253.5507,-284.7 188,-284.7"/>
<polygon fill="#000000" stroke="#000000" points="231.1487,-134.2354 239.6909,-136.2331 235.0744,-133.4677 239,-132.7 239,-132.7 239,-132.7 235.0744,-133.4677 238.3091,-129.1669 231.1487,-134.2354 231.1487,-134.2354"/>
<ellipse fill="none" stroke="#000000" cx="228.0082" cy="-134.8496" rx="3.2" ry="3.2"/>
</g>
<!-- users -->
<g id="node7" class="node">
<title>users</title>
<g id="a_node7"><a xlink:href="../../tables/users.html" xlink:title="users" target="_top">
<polygon fill="#ffffff" stroke="transparent" points="63.5,-38.2 63.5,-99.2 134.5,-99.2 134.5,-38.2 63.5,-38.2"/>
<polygon fill="#f5f5f5" stroke="transparent" points="64,-75.7 64,-98.7 135,-98.7 135,-75.7 64,-75.7"/>
<polygon fill="none" stroke="#000000" points="64,-75.7 64,-98.7 135,-98.7 135,-75.7 64,-75.7"/>
<text text-anchor="start" x="69" y="-84.8" font-family="Helvetica,sans-Serif" font-weight="bold" font-size="11.00" fill="#000000">users</text>
<text text-anchor="start" x="100.0437" y="-83.8" font-family="Helvetica,sans-Serif" font-size="11.00" fill="#000000">[table]</text>
<polygon fill="none" stroke="#000000" points="64,-56.7 64,-75.7 135,-75.7 135,-56.7 64,-56.7"/>
<text text-anchor="start" x="67" y="-62.8" font-family="Helvetica,sans-Serif" font-size="11.00" fill="#000000">...</text>
<polygon fill="#ffffff" stroke="transparent" points="64,-37.7 64,-56.7 76,-56.7 76,-37.7 64,-37.7"/>
<polygon fill="none" stroke="#000000" points="64,-37.7 64,-56.7 76,-56.7 76,-37.7 64,-37.7"/>
<text text-anchor="start" x="66.9431" y="-43.8" font-family="Helvetica,sans-Serif" font-size="11.00" fill="#000000"> &#160;</text>
<polygon fill="#ffffff" stroke="transparent" points="76,-37.7 76,-56.7 114,-56.7 114,-37.7 76,-37.7"/>
<polygon fill="none" stroke="#000000" points="76,-37.7 76,-56.7 114,-56.7 114,-37.7 76,-37.7"/>
<text text-anchor="start" x="78.8053" y="-43.8" font-family="Helvetica,sans-Serif" font-size="11.00" fill="#000000">0 rows</text>
<polygon fill="#ffffff" stroke="transparent" points="114,-37.7 114,-56.7 135,-56.7 135,-37.7 114,-37.7"/>
<polygon fill="none" stroke="#000000" points="114,-37.7 114,-56.7 135,-56.7 135,-37.7 114,-37.7"/>
<text text-anchor="start" x="116.7027" y="-43.8" font-family="Helvetica,sans-Serif" font-size="11.00" fill="#000000">2 &gt;</text>
</a>
</g>
</g>
<!-- gyms_has_users&#45;&gt;users -->
<g id="edge6" class="edge">
<title>gyms_has_users:w&#45;&gt;users:e</title>
<path fill="none" stroke="#000000" d="M224.5256,-109.3039C187.4222,-101.7084 180.0518,-65.7 135,-65.7"/>
<polygon fill="#000000" stroke="#000000" points="231.037,-109.9319 238.6543,-114.2834 235.0185,-110.3159 239,-110.7 239,-110.7 239,-110.7 235.0185,-110.3159 239.3457,-107.1166 231.037,-109.9319 231.037,-109.9319"/>
<ellipse fill="none" stroke="#000000" cx="227.8517" cy="-109.6246" rx="3.2" ry="3.2"/>
</g>
<!-- skill_lists_has_skills -->
<g id="node8" class="node">
<title>skill_lists_has_skills</title>
<g id="a_node8"><a xlink:href="../../tables/skill_lists_has_skills.html" xlink:title="skill_lists_has_skills" target="_top">
<polygon fill="#ffffff" stroke="transparent" points="553,-237.2 553,-298.2 693,-298.2 693,-237.2 553,-237.2"/>
<polygon fill="#f5f5f5" stroke="transparent" points="553,-274.7 553,-297.7 693,-297.7 693,-274.7 553,-274.7"/>
<polygon fill="none" stroke="#000000" points="553,-274.7 553,-297.7 693,-297.7 693,-274.7 553,-274.7"/>
<text text-anchor="start" x="557.9207" y="-283.8" font-family="Helvetica,sans-Serif" font-weight="bold" font-size="11.00" fill="#000000">skill_lists_has_skills</text>
<text text-anchor="start" x="658.5219" y="-282.8" font-family="Helvetica,sans-Serif" font-size="11.00" fill="#000000">[table]</text>
<polygon fill="none" stroke="#000000" points="553,-255.7 553,-274.7 693,-274.7 693,-255.7 553,-255.7"/>
<text text-anchor="start" x="556" y="-261.8" font-family="Helvetica,sans-Serif" font-size="11.00" fill="#000000">...</text>
<polygon fill="#ffffff" stroke="transparent" points="553,-236.7 553,-255.7 608,-255.7 608,-236.7 553,-236.7"/>
<polygon fill="none" stroke="#000000" points="553,-236.7 553,-255.7 608,-255.7 608,-236.7 553,-236.7"/>
<text text-anchor="start" x="556" y="-242.8" font-family="Helvetica,sans-Serif" font-size="11.00" fill="#000000">&lt; 2</text>
<polygon fill="#ffffff" stroke="transparent" points="608,-236.7 608,-255.7 663,-255.7 663,-236.7 608,-236.7"/>
<polygon fill="none" stroke="#000000" points="608,-236.7 608,-255.7 663,-255.7 663,-236.7 608,-236.7"/>
<text text-anchor="start" x="627.6105" y="-242.8" font-family="Helvetica,sans-Serif" font-size="11.00" fill="#000000">0 rows</text>
<polygon fill="#ffffff" stroke="transparent" points="663,-236.7 663,-255.7 693,-255.7 693,-236.7 663,-236.7"/>
<polygon fill="none" stroke="#000000" points="663,-236.7 663,-255.7 693,-255.7 693,-236.7 663,-236.7"/>
<text text-anchor="start" x="683.8862" y="-242.8" font-family="Helvetica,sans-Serif" font-size="11.00" fill="#000000"> &#160;</text>
</a>
</g>
</g>
<!-- skill_lists_has_skills&#45;&gt;skill_lists -->
<g id="edge9" class="edge">
<title>skill_lists_has_skills:w&#45;&gt;skill_lists:e</title>
<path fill="none" stroke="#000000" d="M538.83,-268.6499C512.2771,-287.6468 547.4479,-368.7 502,-368.7"/>
<polygon fill="#000000" stroke="#000000" points="545.2938,-266.8482 553.9667,-268.1678 549.1469,-265.7741 553,-264.7 553,-264.7 553,-264.7 549.1469,-265.7741 552.0333,-261.2322 545.2938,-266.8482 545.2938,-266.8482"/>
<ellipse fill="none" stroke="#000000" cx="542.2113" cy="-267.7074" rx="3.2" ry="3.2"/>
</g>
<!-- skills -->
<g id="node9" class="node">
<title>skills</title>
<g id="a_node9"><a xlink:href="../../tables/skills.html" xlink:title="skills" target="_top">
<polygon fill="#ffffff" stroke="transparent" points="419,-216.2 419,-277.2 499,-277.2 499,-216.2 419,-216.2"/>
<polygon fill="#f5f5f5" stroke="transparent" points="419,-253.7 419,-276.7 499,-276.7 499,-253.7 419,-253.7"/>
<polygon fill="none" stroke="#000000" points="419,-253.7 419,-276.7 499,-276.7 499,-253.7 419,-253.7"/>
<text text-anchor="start" x="424" y="-262.8" font-family="Helvetica,sans-Serif" font-weight="bold" font-size="11.00" fill="#000000">skills</text>
<text text-anchor="start" x="464.0437" y="-261.8" font-family="Helvetica,sans-Serif" font-size="11.00" fill="#000000">[table]</text>
<polygon fill="none" stroke="#000000" points="419,-234.7 419,-253.7 499,-253.7 499,-234.7 419,-234.7"/>
<text text-anchor="start" x="422" y="-240.8" font-family="Helvetica,sans-Serif" font-size="11.00" fill="#000000">...</text>
<polygon fill="#ffffff" stroke="transparent" points="419,-215.7 419,-234.7 440,-234.7 440,-215.7 419,-215.7"/>
<polygon fill="none" stroke="#000000" points="419,-215.7 419,-234.7 440,-234.7 440,-215.7 419,-215.7"/>
<text text-anchor="start" x="421.7027" y="-221.8" font-family="Helvetica,sans-Serif" font-size="11.00" fill="#000000">&lt; 3</text>
<polygon fill="#ffffff" stroke="transparent" points="440,-215.7 440,-234.7 478,-234.7 478,-215.7 440,-215.7"/>
<polygon fill="none" stroke="#000000" points="440,-215.7 440,-234.7 478,-234.7 478,-215.7 440,-215.7"/>
<text text-anchor="start" x="442.8053" y="-221.8" font-family="Helvetica,sans-Serif" font-size="11.00" fill="#000000">0 rows</text>
<polygon fill="#ffffff" stroke="transparent" points="478,-215.7 478,-234.7 499,-234.7 499,-215.7 478,-215.7"/>
<polygon fill="none" stroke="#000000" points="478,-215.7 478,-234.7 499,-234.7 499,-215.7 478,-215.7"/>
<text text-anchor="start" x="480.7027" y="-221.8" font-family="Helvetica,sans-Serif" font-size="11.00" fill="#000000">2 &gt;</text>
</a>
</g>
</g>
<!-- skill_lists_has_skills&#45;&gt;skills -->
<g id="edge8" class="edge">
<title>skill_lists_has_skills:w&#45;&gt;skills:e</title>
<path fill="none" stroke="#000000" d="M538.5373,-261.9546C524.9235,-256.2623 518.9167,-243.7 499,-243.7"/>
<polygon fill="#000000" stroke="#000000" points="545.1404,-263.208 552.3286,-268.2368 549.0702,-263.954 553,-264.7 553,-264.7 553,-264.7 549.0702,-263.954 553.6714,-261.1632 545.1404,-263.208 545.1404,-263.208"/>
<ellipse fill="none" stroke="#000000" cx="541.9965" cy="-262.6112" rx="3.2" ry="3.2"/>
</g>
<!-- skills&#45;&gt;events -->
<g id="edge10" class="edge">
<title>skills:w&#45;&gt;events:e</title>
<path fill="none" stroke="#000000" d="M404.5372,-245.1434C382.2781,-249.8879 373.7122,-264.7 345,-264.7"/>
<polygon fill="#000000" stroke="#000000" points="411.0395,-244.4945 419.3575,-247.2822 415.0198,-244.0973 419,-243.7 419,-243.7 419,-243.7 415.0198,-244.0973 418.6425,-240.1178 411.0395,-244.4945 411.0395,-244.4945"/>
<ellipse fill="none" stroke="#000000" cx="407.8554" cy="-244.8123" rx="3.2" ry="3.2"/>
</g>
</g>
</svg>
