<?xml version="1.0" encoding="UTF-8" standalone="no"?>
<!DOCTYPE svg PUBLIC "-//W3C//DTD SVG 1.1//EN"
 "http://www.w3.org/Graphics/SVG/1.1/DTD/svg11.dtd">
<!-- Generated by graphviz version 2.40.1 (20161225.0304)
 -->
<!-- Title: twoDegreesRelationshipsDiagram Pages: 1 -->
<svg width="794pt" height="387pt"
 viewBox="0.00 0.00 794.00 387.20" xmlns="http://www.w3.org/2000/svg" xmlns:xlink="http://www.w3.org/1999/xlink">
<g id="graph0" class="graph" transform="scale(1 1) rotate(0) translate(4 383.2)">
<title>twoDegreesRelationshipsDiagram</title>
<polygon fill="#ffffff" stroke="transparent" points="-4,4 -4,-383.2 790,-383.2 790,4 -4,4"/>
<text text-anchor="middle" x="72.4936" y="-7.3" font-family="Helvetica,sans-Serif" font-size="11.00" fill="#000000">Generated by SchemaSpy</text>
<!-- completed_daily_challenges -->
<g id="node1" class="node">
<title>completed_daily_challenges</title>
<g id="a_node1"><a xlink:href="../../tables/completed_daily_challenges.html" xlink:title="completed_daily_challenges" target="_top">
<polygon fill="#ffffff" stroke="transparent" points="591.5,-292.2 591.5,-353.2 772.5,-353.2 772.5,-292.2 591.5,-292.2"/>
<polygon fill="#f5f5f5" stroke="transparent" points="592,-329.7 592,-352.7 773,-352.7 773,-329.7 592,-329.7"/>
<polygon fill="none" stroke="#000000" points="592,-329.7 592,-352.7 773,-352.7 773,-329.7 592,-329.7"/>
<text text-anchor="start" x="596.9266" y="-338.8" font-family="Helvetica,sans-Serif" font-weight="bold" font-size="11.00" fill="#000000">completed_daily_challenges</text>
<text text-anchor="start" x="738.5219" y="-337.8" font-family="Helvetica,sans-Serif" font-size="11.00" fill="#000000">[table]</text>
<polygon fill="none" stroke="#000000" points="592,-310.7 592,-329.7 773,-329.7 773,-310.7 592,-310.7"/>
<text text-anchor="start" x="595" y="-316.8" font-family="Helvetica,sans-Serif" font-size="11.00" fill="#000000">...</text>
<polygon fill="#ffffff" stroke="transparent" points="592,-291.7 592,-310.7 668,-310.7 668,-291.7 592,-291.7"/>
<polygon fill="none" stroke="#000000" points="592,-291.7 592,-310.7 668,-310.7 668,-291.7 592,-291.7"/>
<text text-anchor="start" x="595" y="-297.8" font-family="Helvetica,sans-Serif" font-size="11.00" fill="#000000">&lt; 4</text>
<polygon fill="#ffffff" stroke="transparent" points="668,-291.7 668,-310.7 733,-310.7 733,-291.7 668,-291.7"/>
<polygon fill="none" stroke="#000000" points="668,-291.7 668,-310.7 733,-310.7 733,-291.7 668,-291.7"/>
<text text-anchor="start" x="697.6105" y="-297.8" font-family="Helvetica,sans-Serif" font-size="11.00" fill="#000000">0 rows</text>
<polygon fill="#ffffff" stroke="transparent" points="733,-291.7 733,-310.7 773,-310.7 773,-291.7 733,-291.7"/>
<polygon fill="none" stroke="#000000" points="733,-291.7 733,-310.7 773,-310.7 773,-291.7 733,-291.7"/>
<text text-anchor="start" x="763.8862" y="-297.8" font-family="Helvetica,sans-Serif" font-size="11.00" fill="#000000"> &#160;</text>
</a>
</g>
</g>
<!-- gymnasts -->
<g id="node2" class="node">
<title>gymnasts</title>
<g id="a_node2"><a xlink:href="../../tables/gymnasts.html" xlink:title="gymnasts" target="_top">
<polygon fill="#ffffff" stroke="transparent" points="363,-104.2 363,-231.2 537,-231.2 537,-104.2 363,-104.2"/>
<polygon fill="#f5f5f5" stroke="transparent" points="363,-207.7 363,-230.7 537,-230.7 537,-207.7 363,-207.7"/>
<polygon fill="none" stroke="#000000" points="363,-207.7 363,-230.7 537,-230.7 537,-207.7 363,-207.7"/>
<text text-anchor="start" x="368" y="-216.8" font-family="Helvetica,sans-Serif" font-weight="bold" font-size="11.00" fill="#000000">gymnasts</text>
<text text-anchor="start" x="502.0437" y="-215.8" font-family="Helvetica,sans-Serif" font-size="11.00" fill="#000000">[table]</text>
<polygon fill="none" stroke="#000000" points="363,-185.7 363,-207.7 537,-207.7 537,-185.7 363,-185.7"/>
<image xlink:href="../../images/primaryKeys.png" width="11px" height="12px" preserveAspectRatio="xMinYMin meet" x="368" y="-202.7"/>
<text text-anchor="start" x="383" y="-192.8" font-family="Helvetica,sans-Serif" font-size="11.00" fill="#000000">id</text>
<polygon fill="#ffffff" stroke="transparent" points="363,-163.7 363,-185.7 537,-185.7 537,-163.7 363,-163.7"/>
<polygon fill="none" stroke="#000000" points="363,-163.7 363,-185.7 537,-185.7 537,-163.7 363,-163.7"/>
<image xlink:href="../../images/foreignKeys.png" width="11px" height="12px" preserveAspectRatio="xMinYMin meet" x="368" y="-180.7"/>
<text text-anchor="start" x="383" y="-170.8" font-family="Helvetica,sans-Serif" font-size="11.00" fill="#000000">gyms_has_users_gyms_id</text>
<polygon fill="#ffffff" stroke="transparent" points="363,-141.7 363,-163.7 537,-163.7 537,-141.7 363,-141.7"/>
<polygon fill="none" stroke="#000000" points="363,-141.7 363,-163.7 537,-163.7 537,-141.7 363,-141.7"/>
<image xlink:href="../../images/foreignKeys.png" width="11px" height="12px" preserveAspectRatio="xMinYMin meet" x="368" y="-158.7"/>
<text text-anchor="start" x="383" y="-148.8" font-family="Helvetica,sans-Serif" font-size="11.00" fill="#000000">gyms_has_users_users_id</text>
<polygon fill="none" stroke="#000000" points="363,-122.7 363,-141.7 537,-141.7 537,-122.7 363,-122.7"/>
<text text-anchor="start" x="366" y="-128.8" font-family="Helvetica,sans-Serif" font-size="11.00" fill="#000000">...</text>
<polygon fill="#ffffff" stroke="transparent" points="363,-103.7 363,-122.7 431,-122.7 431,-103.7 363,-103.7"/>
<polygon fill="none" stroke="#000000" points="363,-103.7 363,-122.7 431,-122.7 431,-103.7 363,-103.7"/>
<text text-anchor="start" x="366" y="-109.8" font-family="Helvetica,sans-Serif" font-size="11.00" fill="#000000">&lt; 2</text>
<polygon fill="#ffffff" stroke="transparent" points="431,-103.7 431,-122.7 492,-122.7 492,-103.7 431,-103.7"/>
<polygon fill="none" stroke="#000000" points="431,-103.7 431,-122.7 492,-122.7 492,-103.7 431,-103.7"/>
<text text-anchor="start" x="456.6105" y="-109.8" font-family="Helvetica,sans-Serif" font-size="11.00" fill="#000000">0 rows</text>
<polygon fill="#ffffff" stroke="transparent" points="492,-103.7 492,-122.7 537,-122.7 537,-103.7 492,-103.7"/>
<polygon fill="none" stroke="#000000" points="492,-103.7 492,-122.7 537,-122.7 537,-103.7 492,-103.7"/>
<text text-anchor="start" x="518.4053" y="-109.8" font-family="Helvetica,sans-Serif" font-size="11.00" fill="#000000">4 &gt;</text>
</a>
</g>
</g>
<!-- completed_daily_challenges&#45;&gt;gymnasts -->
<g id="edge1" class="edge">
<title>completed_daily_challenges:w&#45;&gt;gymnasts:e</title>
<path fill="none" stroke="#000000" d="M577.7902,-316.41C543.5779,-296.8496 591.0351,-196.7 537,-196.7"/>
<polygon fill="#000000" stroke="#000000" points="584.2062,-317.8955 591.188,-323.2072 588.1031,-318.7977 592,-319.7 592,-319.7 592,-319.7 588.1031,-318.7977 592.812,-316.1928 584.2062,-317.8955 584.2062,-317.8955"/>
<ellipse fill="none" stroke="#000000" cx="581.0886" cy="-317.1737" rx="3.2" ry="3.2"/>
</g>
<!-- gyms_has_users -->
<g id="node7" class="node">
<title>gyms_has_users</title>
<g id="a_node7"><a xlink:href="../../tables/gyms_has_users.html" xlink:title="gyms_has_users" target="_top">
<polygon fill="#ffffff" stroke="transparent" points="142,-120.7 142,-210.7 314,-210.7 314,-120.7 142,-120.7"/>
<polygon fill="#f5f5f5" stroke="transparent" points="144,-185.7 144,-208.7 312,-208.7 312,-185.7 144,-185.7"/>
<polygon fill="none" stroke="#000000" points="144,-185.7 144,-208.7 312,-208.7 312,-185.7 144,-185.7"/>
<text text-anchor="start" x="149" y="-194.8" font-family="Helvetica,sans-Serif" font-weight="bold" font-size="11.00" fill="#000000">gyms_has_users</text>
<text text-anchor="start" x="277.0437" y="-193.8" font-family="Helvetica,sans-Serif" font-size="11.00" fill="#000000">[table]</text>
<polygon fill="none" stroke="#000000" points="144,-163.7 144,-185.7 262,-185.7 262,-163.7 144,-163.7"/>
<image xlink:href="../../images/primaryKeys.png" width="11px" height="12px" preserveAspectRatio="xMinYMin meet" x="149" y="-180.7"/>
<text text-anchor="start" x="164" y="-170.8" font-family="Helvetica,sans-Serif" font-size="11.00" fill="#000000">gym_id</text>
<polygon fill="none" stroke="#000000" points="262,-163.7 262,-185.7 312,-185.7 312,-163.7 262,-163.7"/>
<text text-anchor="start" x="264.6865" y="-171.4" font-family="Helvetica,sans-Serif" font-size="11.00" fill="#000000">bigint[19]</text>
<polygon fill="none" stroke="#000000" points="144,-141.7 144,-163.7 262,-163.7 262,-141.7 144,-141.7"/>
<image xlink:href="../../images/primaryKeys.png" width="11px" height="12px" preserveAspectRatio="xMinYMin meet" x="149" y="-158.7"/>
<text text-anchor="start" x="164" y="-148.8" font-family="Helvetica,sans-Serif" font-size="11.00" fill="#000000">user_id</text>
<polygon fill="none" stroke="#000000" points="262,-141.7 262,-163.7 312,-163.7 312,-141.7 262,-141.7"/>
<text text-anchor="start" x="265" y="-149.4" font-family="Helvetica,sans-Serif" font-size="11.00" fill="#000000">int[10]</text>
<polygon fill="#ffffff" stroke="transparent" points="144,-122.7 144,-141.7 194,-141.7 194,-122.7 144,-122.7"/>
<polygon fill="none" stroke="#000000" points="144,-122.7 144,-141.7 194,-141.7 194,-122.7 144,-122.7"/>
<text text-anchor="start" x="147" y="-128.8" font-family="Helvetica,sans-Serif" font-size="11.00" fill="#000000">&lt; 2</text>
<polygon fill="#ffffff" stroke="transparent" points="194,-122.7 194,-141.7 262,-141.7 262,-122.7 194,-122.7"/>
<polygon fill="none" stroke="#000000" points="194,-122.7 194,-141.7 262,-141.7 262,-122.7 194,-122.7"/>
<text text-anchor="start" x="226.6105" y="-128.8" font-family="Helvetica,sans-Serif" font-size="11.00" fill="#000000">0 rows</text>
<polygon fill="#ffffff" stroke="transparent" points="262,-122.7 262,-141.7 312,-141.7 312,-122.7 262,-122.7"/>
<polygon fill="none" stroke="#000000" points="262,-122.7 262,-141.7 312,-141.7 312,-122.7 262,-122.7"/>
<text text-anchor="start" x="293.4053" y="-128.8" font-family="Helvetica,sans-Serif" font-size="11.00" fill="#000000">2 &gt;</text>
<polygon fill="none" stroke="#000000" stroke-width="2" points="143,-121.7 143,-209.7 313,-209.7 313,-121.7 143,-121.7"/>
</a>
</g>
</g>
<!-- gymnasts&#45;&gt;gyms_has_users -->
<g id="edge5" class="edge">
<title>gymnasts:w&#45;&gt;gyms_has_users:e</title>
<path fill="none" stroke="#000000" d="M348.276,-174.7C336.2815,-174.7 328.8229,-174.7 312,-174.7"/>
<polygon fill="#000000" stroke="#000000" points="355,-174.7001 363,-178.3 359,-174.7 363,-174.7 363,-174.7 363,-174.7 359,-174.7 363,-171.1 355,-174.7001 355,-174.7001"/>
<ellipse fill="none" stroke="#000000" cx="351.8" cy="-174.7001" rx="3.2" ry="3.2"/>
</g>
<!-- gymnasts&#45;&gt;gyms_has_users -->
<g id="edge6" class="edge">
<title>gymnasts:w&#45;&gt;gyms_has_users:e</title>
<path fill="none" stroke="#000000" d="M348.276,-152.7C336.2815,-152.7 328.8229,-152.7 312,-152.7"/>
<polygon fill="#000000" stroke="#000000" points="355,-152.7001 363,-156.3 359,-152.7 363,-152.7 363,-152.7 363,-152.7 359,-152.7 363,-149.1 355,-152.7001 355,-152.7001"/>
<ellipse fill="none" stroke="#000000" cx="351.8" cy="-152.7001" rx="3.2" ry="3.2"/>
</g>
<!-- completed_normal_challenges -->
<g id="node3" class="node">
<title>completed_normal_challenges</title>
<g id="a_node3"><a xlink:href="../../tables/completed_normal_challenges.html" xlink:title="completed_normal_challenges" target="_top">
<polygon fill="#ffffff" stroke="transparent" points="586,-210.2 586,-271.2 778,-271.2 778,-210.2 586,-210.2"/>
<polygon fill="#f5f5f5" stroke="transparent" points="586,-247.7 586,-270.7 778,-270.7 778,-247.7 586,-247.7"/>
<polygon fill="none" stroke="#000000" points="586,-247.7 586,-270.7 778,-270.7 778,-247.7 586,-247.7"/>
<text text-anchor="start" x="590.9277" y="-256.8" font-family="Helvetica,sans-Serif" font-weight="bold" font-size="11.00" fill="#000000">completed_normal_challenges</text>
<text text-anchor="start" x="743.5219" y="-255.8" font-family="Helvetica,sans-Serif" font-size="11.00" fill="#000000">[table]</text>
<polygon fill="none" stroke="#000000" points="586,-228.7 586,-247.7 778,-247.7 778,-228.7 586,-228.7"/>
<text text-anchor="start" x="589" y="-234.8" font-family="Helvetica,sans-Serif" font-size="11.00" fill="#000000">...</text>
<polygon fill="#ffffff" stroke="transparent" points="586,-209.7 586,-228.7 667,-228.7 667,-209.7 586,-209.7"/>
<polygon fill="none" stroke="#000000" points="586,-209.7 586,-228.7 667,-228.7 667,-209.7 586,-209.7"/>
<text text-anchor="start" x="589" y="-215.8" font-family="Helvetica,sans-Serif" font-size="11.00" fill="#000000">&lt; 3</text>
<polygon fill="#ffffff" stroke="transparent" points="667,-209.7 667,-228.7 735,-228.7 735,-209.7 667,-209.7"/>
<polygon fill="none" stroke="#000000" points="667,-209.7 667,-228.7 735,-228.7 735,-209.7 667,-209.7"/>
<text text-anchor="start" x="699.6105" y="-215.8" font-family="Helvetica,sans-Serif" font-size="11.00" fill="#000000">0 rows</text>
<polygon fill="#ffffff" stroke="transparent" points="735,-209.7 735,-228.7 778,-228.7 778,-209.7 735,-209.7"/>
<polygon fill="none" stroke="#000000" points="735,-209.7 735,-228.7 778,-228.7 778,-209.7 735,-209.7"/>
<text text-anchor="start" x="768.8862" y="-215.8" font-family="Helvetica,sans-Serif" font-size="11.00" fill="#000000"> &#160;</text>
</a>
</g>
</g>
<!-- completed_normal_challenges&#45;&gt;gymnasts -->
<g id="edge2" class="edge">
<title>completed_normal_challenges:w&#45;&gt;gymnasts:e</title>
<path fill="none" stroke="#000000" d="M572.1819,-232.9968C559.2811,-222.2274 559.4061,-196.7 537,-196.7"/>
<polygon fill="#000000" stroke="#000000" points="578.4267,-235.1222 584.84,-241.108 582.2133,-236.4111 586,-237.7 586,-237.7 586,-237.7 582.2133,-236.4111 587.16,-234.292 578.4267,-235.1222 578.4267,-235.1222"/>
<ellipse fill="none" stroke="#000000" cx="575.3973" cy="-234.0911" rx="3.2" ry="3.2"/>
</g>
<!-- events -->
<g id="node4" class="node">
<title>events</title>
<g id="a_node4"><a xlink:href="../../tables/events.html" xlink:title="events" target="_top">
<polygon fill="#ffffff" stroke="transparent" points="188,-314.2 188,-375.2 268,-375.2 268,-314.2 188,-314.2"/>
<polygon fill="#f5f5f5" stroke="transparent" points="188,-351.7 188,-374.7 268,-374.7 268,-351.7 188,-351.7"/>
<polygon fill="none" stroke="#000000" points="188,-351.7 188,-374.7 268,-374.7 268,-351.7 188,-351.7"/>
<text text-anchor="start" x="193" y="-360.8" font-family="Helvetica,sans-Serif" font-weight="bold" font-size="11.00" fill="#000000">events</text>
<text text-anchor="start" x="233.0437" y="-359.8" font-family="Helvetica,sans-Serif" font-size="11.00" fill="#000000">[table]</text>
<polygon fill="none" stroke="#000000" points="188,-332.7 188,-351.7 268,-351.7 268,-332.7 188,-332.7"/>
<text text-anchor="start" x="191" y="-338.8" font-family="Helvetica,sans-Serif" font-size="11.00" fill="#000000">...</text>
<polygon fill="#ffffff" stroke="transparent" points="188,-313.7 188,-332.7 209,-332.7 209,-313.7 188,-313.7"/>
<polygon fill="none" stroke="#000000" points="188,-313.7 188,-332.7 209,-332.7 209,-313.7 188,-313.7"/>
<text text-anchor="start" x="190.7027" y="-319.8" font-family="Helvetica,sans-Serif" font-size="11.00" fill="#000000">&lt; 1</text>
<polygon fill="#ffffff" stroke="transparent" points="209,-313.7 209,-332.7 247,-332.7 247,-313.7 209,-313.7"/>
<polygon fill="none" stroke="#000000" points="209,-313.7 209,-332.7 247,-332.7 247,-313.7 209,-313.7"/>
<text text-anchor="start" x="211.8053" y="-319.8" font-family="Helvetica,sans-Serif" font-size="11.00" fill="#000000">0 rows</text>
<polygon fill="#ffffff" stroke="transparent" points="247,-313.7 247,-332.7 268,-332.7 268,-313.7 247,-313.7"/>
<polygon fill="none" stroke="#000000" points="247,-313.7 247,-332.7 268,-332.7 268,-313.7 247,-313.7"/>
<text text-anchor="start" x="249.7027" y="-319.8" font-family="Helvetica,sans-Serif" font-size="11.00" fill="#000000">1 &gt;</text>
</a>
</g>
</g>
<!-- gyms -->
<g id="node5" class="node">
<title>gyms</title>
<g id="a_node5"><a xlink:href="../../tables/gyms.html" xlink:title="gyms" target="_top">
<polygon fill="#ffffff" stroke="transparent" points="8,-211.2 8,-294.2 93,-294.2 93,-211.2 8,-211.2"/>
<polygon fill="#f5f5f5" stroke="transparent" points="8.5,-270.7 8.5,-293.7 93.5,-293.7 93.5,-270.7 8.5,-270.7"/>
<polygon fill="none" stroke="#000000" points="8.5,-270.7 8.5,-293.7 93.5,-293.7 93.5,-270.7 8.5,-270.7"/>
<text text-anchor="start" x="13.5" y="-279.8" font-family="Helvetica,sans-Serif" font-weight="bold" font-size="11.00" fill="#000000">gyms</text>
<text text-anchor="start" x="58.5437" y="-278.8" font-family="Helvetica,sans-Serif" font-size="11.00" fill="#000000">[table]</text>
<polygon fill="none" stroke="#000000" points="8.5,-248.7 8.5,-270.7 93.5,-270.7 93.5,-248.7 8.5,-248.7"/>
<image xlink:href="../../images/primaryKeys.png" width="11px" height="12px" preserveAspectRatio="xMinYMin meet" x="13.5" y="-265.7"/>
<text text-anchor="start" x="28.5" y="-255.8" font-family="Helvetica,sans-Serif" font-size="11.00" fill="#000000">id</text>
<polygon fill="none" stroke="#000000" points="8.5,-229.7 8.5,-248.7 93.5,-248.7 93.5,-229.7 8.5,-229.7"/>
<text text-anchor="start" x="11.5" y="-235.8" font-family="Helvetica,sans-Serif" font-size="11.00" fill="#000000">...</text>
<polygon fill="#ffffff" stroke="transparent" points="8.5,-210.7 8.5,-229.7 27.5,-229.7 27.5,-210.7 8.5,-210.7"/>
<polygon fill="none" stroke="#000000" points="8.5,-210.7 8.5,-229.7 27.5,-229.7 27.5,-210.7 8.5,-210.7"/>
<text text-anchor="start" x="11.5" y="-216.8" font-family="Helvetica,sans-Serif" font-size="11.00" fill="#000000"> &#160;</text>
<polygon fill="#ffffff" stroke="transparent" points="27.5,-210.7 27.5,-229.7 68.5,-229.7 68.5,-210.7 27.5,-210.7"/>
<polygon fill="none" stroke="#000000" points="27.5,-210.7 27.5,-229.7 68.5,-229.7 68.5,-210.7 27.5,-210.7"/>
<text text-anchor="start" x="33.1105" y="-216.8" font-family="Helvetica,sans-Serif" font-size="11.00" fill="#000000">0 rows</text>
<polygon fill="#ffffff" stroke="transparent" points="68.5,-210.7 68.5,-229.7 93.5,-229.7 93.5,-210.7 68.5,-210.7"/>
<polygon fill="none" stroke="#000000" points="68.5,-210.7 68.5,-229.7 93.5,-229.7 93.5,-210.7 68.5,-210.7"/>
<text text-anchor="start" x="74.9053" y="-216.8" font-family="Helvetica,sans-Serif" font-size="11.00" fill="#000000">3 &gt;</text>
</a>
</g>
</g>
<!-- events&#45;&gt;gyms -->
<g id="edge3" class="edge">
<title>events:w&#45;&gt;gyms:e</title>
<path fill="none" stroke="#000000" d="M173.5222,-339.6995C156.8986,-334.3884 151.7539,-319.2714 134,-303.7 114.0181,-286.1745 120.0786,-259.7 93.5,-259.7"/>
<polygon fill="#000000" stroke="#000000" points="180.0753,-340.6049 187.5072,-345.2661 184.0376,-341.1525 188,-341.7 188,-341.7 188,-341.7 184.0376,-341.1525 188.4928,-338.1339 180.0753,-340.6049 180.0753,-340.6049"/>
<ellipse fill="none" stroke="#000000" cx="176.9054" cy="-340.1669" rx="3.2" ry="3.2"/>
</g>
<!-- gymnast_has_skills -->
<g id="node6" class="node">
<title>gymnast_has_skills</title>
<g id="a_node6"><a xlink:href="../../tables/gymnast_has_skills.html" xlink:title="gymnast_has_skills" target="_top">
<polygon fill="#ffffff" stroke="transparent" points="613,-128.2 613,-189.2 751,-189.2 751,-128.2 613,-128.2"/>
<polygon fill="#f5f5f5" stroke="transparent" points="613,-165.7 613,-188.7 751,-188.7 751,-165.7 613,-165.7"/>
<polygon fill="none" stroke="#000000" points="613,-165.7 613,-188.7 751,-188.7 751,-165.7 613,-165.7"/>
<text text-anchor="start" x="617.8271" y="-174.8" font-family="Helvetica,sans-Serif" font-weight="bold" font-size="11.00" fill="#000000">gymnast_has_skills</text>
<text text-anchor="start" x="716.5219" y="-173.8" font-family="Helvetica,sans-Serif" font-size="11.00" fill="#000000">[table]</text>
<polygon fill="none" stroke="#000000" points="613,-146.7 613,-165.7 751,-165.7 751,-146.7 613,-146.7"/>
<text text-anchor="start" x="616" y="-152.8" font-family="Helvetica,sans-Serif" font-size="11.00" fill="#000000">...</text>
<polygon fill="#ffffff" stroke="transparent" points="613,-127.7 613,-146.7 667,-146.7 667,-127.7 613,-127.7"/>
<polygon fill="none" stroke="#000000" points="613,-127.7 613,-146.7 667,-146.7 667,-127.7 613,-127.7"/>
<text text-anchor="start" x="616" y="-133.8" font-family="Helvetica,sans-Serif" font-size="11.00" fill="#000000">&lt; 2</text>
<polygon fill="#ffffff" stroke="transparent" points="667,-127.7 667,-146.7 722,-146.7 722,-127.7 667,-127.7"/>
<polygon fill="none" stroke="#000000" points="667,-127.7 667,-146.7 722,-146.7 722,-127.7 667,-127.7"/>
<text text-anchor="start" x="686.6105" y="-133.8" font-family="Helvetica,sans-Serif" font-size="11.00" fill="#000000">0 rows</text>
<polygon fill="#ffffff" stroke="transparent" points="722,-127.7 722,-146.7 751,-146.7 751,-127.7 722,-127.7"/>
<polygon fill="none" stroke="#000000" points="722,-127.7 722,-146.7 751,-146.7 751,-127.7 722,-127.7"/>
<text text-anchor="start" x="741.8862" y="-133.8" font-family="Helvetica,sans-Serif" font-size="11.00" fill="#000000"> &#160;</text>
</a>
</g>
</g>
<!-- gymnast_has_skills&#45;&gt;gymnasts -->
<g id="edge4" class="edge">
<title>gymnast_has_skills:w&#45;&gt;gymnasts:e</title>
<path fill="none" stroke="#000000" d="M598.5753,-158.0218C574.0223,-166.6951 569.8325,-196.7 537,-196.7"/>
<polygon fill="#000000" stroke="#000000" points="605.1017,-156.9714 613.5721,-159.2543 609.0508,-156.3357 613,-155.7 613,-155.7 613,-155.7 609.0508,-156.3357 612.4279,-152.1457 605.1017,-156.9714 605.1017,-156.9714"/>
<ellipse fill="none" stroke="#000000" cx="601.9423" cy="-157.4799" rx="3.2" ry="3.2"/>
</g>
<!-- gyms_has_users&#45;&gt;gyms -->
<g id="edge8" class="edge">
<title>gyms_has_users:w&#45;&gt;gyms:e</title>
<path fill="none" stroke="#000000" d="M130.1216,-179.032C108.76,-196.3534 131.4344,-259.7 93.5,-259.7"/>
<polygon fill="#000000" stroke="#000000" points="136.3634,-177.0837 145.0727,-178.1365 140.1817,-175.8919 144,-174.7 144,-174.7 144,-174.7 140.1817,-175.8919 142.9273,-171.2635 136.3634,-177.0837 136.3634,-177.0837"/>
<ellipse fill="none" stroke="#000000" cx="133.3087" cy="-178.0372" rx="3.2" ry="3.2"/>
</g>
<!-- users -->
<g id="node9" class="node">
<title>users</title>
<g id="a_node9"><a xlink:href="../../tables/users.html" xlink:title="users" target="_top">
<polygon fill="#ffffff" stroke="transparent" points="8,-39.2 8,-144.2 93,-144.2 93,-39.2 8,-39.2"/>
<polygon fill="#f5f5f5" stroke="transparent" points="8.5,-120.7 8.5,-143.7 93.5,-143.7 93.5,-120.7 8.5,-120.7"/>
<polygon fill="none" stroke="#000000" points="8.5,-120.7 8.5,-143.7 93.5,-143.7 93.5,-120.7 8.5,-120.7"/>
<text text-anchor="start" x="13.5" y="-129.8" font-family="Helvetica,sans-Serif" font-weight="bold" font-size="11.00" fill="#000000">users</text>
<text text-anchor="start" x="58.5437" y="-128.8" font-family="Helvetica,sans-Serif" font-size="11.00" fill="#000000">[table]</text>
<polygon fill="none" stroke="#000000" points="8.5,-98.7 8.5,-120.7 93.5,-120.7 93.5,-98.7 8.5,-98.7"/>
<image xlink:href="../../images/primaryKeys.png" width="11px" height="12px" preserveAspectRatio="xMinYMin meet" x="13.5" y="-115.7"/>
<text text-anchor="start" x="28.5" y="-105.8" font-family="Helvetica,sans-Serif" font-size="11.00" fill="#000000">id</text>
<polygon fill="#ffffff" stroke="transparent" points="8.5,-76.7 8.5,-98.7 93.5,-98.7 93.5,-76.7 8.5,-76.7"/>
<polygon fill="none" stroke="#000000" points="8.5,-76.7 8.5,-98.7 93.5,-98.7 93.5,-76.7 8.5,-76.7"/>
<text text-anchor="start" x="28.5" y="-83.8" font-family="Helvetica,sans-Serif" font-size="11.00" fill="#000000">email</text>
<polygon fill="none" stroke="#000000" points="8.5,-57.7 8.5,-76.7 93.5,-76.7 93.5,-57.7 8.5,-57.7"/>
<text text-anchor="start" x="11.5" y="-63.8" font-family="Helvetica,sans-Serif" font-size="11.00" fill="#000000">...</text>
<polygon fill="#ffffff" stroke="transparent" points="8.5,-38.7 8.5,-57.7 27.5,-57.7 27.5,-38.7 8.5,-38.7"/>
<polygon fill="none" stroke="#000000" points="8.5,-38.7 8.5,-57.7 27.5,-57.7 27.5,-38.7 8.5,-38.7"/>
<text text-anchor="start" x="11.5" y="-44.8" font-family="Helvetica,sans-Serif" font-size="11.00" fill="#000000"> &#160;</text>
<polygon fill="#ffffff" stroke="transparent" points="27.5,-38.7 27.5,-57.7 68.5,-57.7 68.5,-38.7 27.5,-38.7"/>
<polygon fill="none" stroke="#000000" points="27.5,-38.7 27.5,-57.7 68.5,-57.7 68.5,-38.7 27.5,-38.7"/>
<text text-anchor="start" x="33.1105" y="-44.8" font-family="Helvetica,sans-Serif" font-size="11.00" fill="#000000">0 rows</text>
<polygon fill="#ffffff" stroke="transparent" points="68.5,-38.7 68.5,-57.7 93.5,-57.7 93.5,-38.7 68.5,-38.7"/>
<polygon fill="none" stroke="#000000" points="68.5,-38.7 68.5,-57.7 93.5,-57.7 93.5,-38.7 68.5,-38.7"/>
<text text-anchor="start" x="74.9053" y="-44.8" font-family="Helvetica,sans-Serif" font-size="11.00" fill="#000000">2 &gt;</text>
</a>
</g>
</g>
<!-- gyms_has_users&#45;&gt;users -->
<g id="edge9" class="edge">
<title>gyms_has_users:w&#45;&gt;users:e</title>
<path fill="none" stroke="#000000" d="M130.0963,-148.0982C116.3919,-137.0054 116.9908,-109.7 93.5,-109.7"/>
<polygon fill="#000000" stroke="#000000" points="136.4052,-150.1863 142.8688,-156.1177 140.2026,-151.4431 144,-152.7 144,-152.7 144,-152.7 140.2026,-151.4431 145.1312,-149.2823 136.4052,-150.1863 136.4052,-150.1863"/>
<ellipse fill="none" stroke="#000000" cx="133.3672" cy="-149.1808" rx="3.2" ry="3.2"/>
</g>
<!-- gymnasts_classes -->
<g id="node8" class="node">
<title>gymnasts_classes</title>
<g id="a_node8"><a xlink:href="../../tables/gymnasts_classes.html" xlink:title="gymnasts_classes" target="_top">
<polygon fill="#ffffff" stroke="transparent" points="616,-46.2 616,-107.2 748,-107.2 748,-46.2 616,-46.2"/>
<polygon fill="#f5f5f5" stroke="transparent" points="616,-83.7 616,-106.7 748,-106.7 748,-83.7 616,-83.7"/>
<polygon fill="none" stroke="#000000" points="616,-83.7 616,-106.7 748,-106.7 748,-83.7 616,-83.7"/>
<text text-anchor="start" x="620.5755" y="-92.8" font-family="Helvetica,sans-Serif" font-weight="bold" font-size="11.00" fill="#000000">gymnasts_classes</text>
<text text-anchor="start" x="713.5219" y="-91.8" font-family="Helvetica,sans-Serif" font-size="11.00" fill="#000000">[table]</text>
<polygon fill="none" stroke="#000000" points="616,-64.7 616,-83.7 748,-83.7 748,-64.7 616,-64.7"/>
<text text-anchor="start" x="619" y="-70.8" font-family="Helvetica,sans-Serif" font-size="11.00" fill="#000000">...</text>
<polygon fill="#ffffff" stroke="transparent" points="616,-45.7 616,-64.7 667,-64.7 667,-45.7 616,-45.7"/>
<polygon fill="none" stroke="#000000" points="616,-45.7 616,-64.7 667,-64.7 667,-45.7 616,-45.7"/>
<text text-anchor="start" x="619" y="-51.8" font-family="Helvetica,sans-Serif" font-size="11.00" fill="#000000">&lt; 2</text>
<polygon fill="#ffffff" stroke="transparent" points="667,-45.7 667,-64.7 720,-64.7 720,-45.7 667,-45.7"/>
<polygon fill="none" stroke="#000000" points="667,-45.7 667,-64.7 720,-64.7 720,-45.7 667,-45.7"/>
<text text-anchor="start" x="684.6105" y="-51.8" font-family="Helvetica,sans-Serif" font-size="11.00" fill="#000000">0 rows</text>
<polygon fill="#ffffff" stroke="transparent" points="720,-45.7 720,-64.7 748,-64.7 748,-45.7 720,-45.7"/>
<polygon fill="none" stroke="#000000" points="720,-45.7 720,-64.7 748,-64.7 748,-45.7 720,-45.7"/>
<text text-anchor="start" x="738.8862" y="-51.8" font-family="Helvetica,sans-Serif" font-size="11.00" fill="#000000"> &#160;</text>
</a>
</g>
</g>
<!-- gymnasts_classes&#45;&gt;gymnasts -->
<g id="edge7" class="edge">
<title>gymnasts_classes:w&#45;&gt;gymnasts:e</title>
<path fill="none" stroke="#000000" d="M601.8953,-77.1191C590.3304,-84.2312 589.0974,-101.3227 578,-117.7 555.8097,-150.448 576.5581,-196.7 537,-196.7"/>
<polygon fill="#000000" stroke="#000000" points="608.2252,-75.5847 616.8481,-77.1987 612.1126,-74.6424 616,-73.7 616,-73.7 616,-73.7 612.1126,-74.6424 615.1519,-70.2013 608.2252,-75.5847 608.2252,-75.5847"/>
<ellipse fill="none" stroke="#000000" cx="605.1152" cy="-76.3386" rx="3.2" ry="3.2"/>
</g>
<!-- skill_lists -->
<g id="node10" class="node">
<title>skill_lists</title>
<g id="a_node10"><a xlink:href="../../tables/skill_lists.html" xlink:title="skill_lists" target="_top">
<polygon fill="#ffffff" stroke="transparent" points="185,-232.2 185,-293.2 271,-293.2 271,-232.2 185,-232.2"/>
<polygon fill="#f5f5f5" stroke="transparent" points="185,-269.7 185,-292.7 271,-292.7 271,-269.7 185,-269.7"/>
<polygon fill="none" stroke="#000000" points="185,-269.7 185,-292.7 271,-292.7 271,-269.7 185,-269.7"/>
<text text-anchor="start" x="189.8119" y="-278.8" font-family="Helvetica,sans-Serif" font-weight="bold" font-size="11.00" fill="#000000">skill_lists</text>
<text text-anchor="start" x="236.5219" y="-277.8" font-family="Helvetica,sans-Serif" font-size="11.00" fill="#000000">[table]</text>
<polygon fill="none" stroke="#000000" points="185,-250.7 185,-269.7 271,-269.7 271,-250.7 185,-250.7"/>
<text text-anchor="start" x="188" y="-256.8" font-family="Helvetica,sans-Serif" font-size="11.00" fill="#000000">...</text>
<polygon fill="#ffffff" stroke="transparent" points="185,-231.7 185,-250.7 209,-250.7 209,-231.7 185,-231.7"/>
<polygon fill="none" stroke="#000000" points="185,-231.7 185,-250.7 209,-250.7 209,-231.7 185,-231.7"/>
<text text-anchor="start" x="188" y="-237.8" font-family="Helvetica,sans-Serif" font-size="11.00" fill="#000000">&lt; 1</text>
<polygon fill="#ffffff" stroke="transparent" points="209,-231.7 209,-250.7 248,-250.7 248,-231.7 209,-231.7"/>
<polygon fill="none" stroke="#000000" points="209,-231.7 209,-250.7 248,-250.7 248,-231.7 209,-231.7"/>
<text text-anchor="start" x="212.6105" y="-237.8" font-family="Helvetica,sans-Serif" font-size="11.00" fill="#000000">0 rows</text>
<polygon fill="#ffffff" stroke="transparent" points="248,-231.7 248,-250.7 271,-250.7 271,-231.7 248,-231.7"/>
<polygon fill="none" stroke="#000000" points="248,-231.7 248,-250.7 271,-250.7 271,-231.7 248,-231.7"/>
<text text-anchor="start" x="252.4053" y="-237.8" font-family="Helvetica,sans-Serif" font-size="11.00" fill="#000000">2 &gt;</text>
</a>
</g>
</g>
<!-- skill_lists&#45;&gt;gyms -->
<g id="edge10" class="edge">
<title>skill_lists:w&#45;&gt;gyms:e</title>
<path fill="none" stroke="#000000" d="M170.268,-259.7C141.0948,-259.7 128.7656,-259.7 93.5,-259.7"/>
<polygon fill="#000000" stroke="#000000" points="177,-259.7001 185,-263.3 181,-259.7 185,-259.7 185,-259.7 185,-259.7 181,-259.7 185,-256.1 177,-259.7001 177,-259.7001"/>
<ellipse fill="none" stroke="#000000" cx="173.8" cy="-259.7001" rx="3.2" ry="3.2"/>
</g>
<!-- subscriptions -->
<g id="node11" class="node">
<title>subscriptions</title>
<g id="a_node11"><a xlink:href="../../tables/subscriptions.html" xlink:title="subscriptions" target="_top">
<polygon fill="#ffffff" stroke="transparent" points="174.5,-38.2 174.5,-99.2 281.5,-99.2 281.5,-38.2 174.5,-38.2"/>
<polygon fill="#f5f5f5" stroke="transparent" points="175,-75.7 175,-98.7 282,-98.7 282,-75.7 175,-75.7"/>
<polygon fill="none" stroke="#000000" points="175,-75.7 175,-98.7 282,-98.7 282,-75.7 175,-75.7"/>
<text text-anchor="start" x="179.9125" y="-84.8" font-family="Helvetica,sans-Serif" font-weight="bold" font-size="11.00" fill="#000000">subscriptions</text>
<text text-anchor="start" x="247.5219" y="-83.8" font-family="Helvetica,sans-Serif" font-size="11.00" fill="#000000">[table]</text>
<polygon fill="none" stroke="#000000" points="175,-56.7 175,-75.7 282,-75.7 282,-56.7 175,-56.7"/>
<text text-anchor="start" x="178" y="-62.8" font-family="Helvetica,sans-Serif" font-size="11.00" fill="#000000">...</text>
<polygon fill="#ffffff" stroke="transparent" points="175,-37.7 175,-56.7 209,-56.7 209,-37.7 175,-37.7"/>
<polygon fill="none" stroke="#000000" points="175,-37.7 175,-56.7 209,-56.7 209,-37.7 175,-37.7"/>
<text text-anchor="start" x="178" y="-43.8" font-family="Helvetica,sans-Serif" font-size="11.00" fill="#000000">&lt; 3</text>
<polygon fill="#ffffff" stroke="transparent" points="209,-37.7 209,-56.7 254,-56.7 254,-37.7 209,-37.7"/>
<polygon fill="none" stroke="#000000" points="209,-37.7 209,-56.7 254,-56.7 254,-37.7 209,-37.7"/>
<text text-anchor="start" x="218.6105" y="-43.8" font-family="Helvetica,sans-Serif" font-size="11.00" fill="#000000">0 rows</text>
<polygon fill="#ffffff" stroke="transparent" points="254,-37.7 254,-56.7 282,-56.7 282,-37.7 254,-37.7"/>
<polygon fill="none" stroke="#000000" points="254,-37.7 254,-56.7 282,-56.7 282,-37.7 254,-37.7"/>
<text text-anchor="start" x="263.4053" y="-43.8" font-family="Helvetica,sans-Serif" font-size="11.00" fill="#000000">2 &gt;</text>
</a>
</g>
</g>
<!-- subscriptions&#45;&gt;users -->
<g id="edge11" class="edge">
<title>subscriptions:w&#45;&gt;users:e</title>
<path fill="none" stroke="#000000" d="M160.6241,-67.8222C133.3153,-76.6114 129.1968,-109.7 93.5,-109.7"/>
<polygon fill="#000000" stroke="#000000" points="167.0858,-66.8684 175.5258,-69.2614 171.0429,-66.2842 175,-65.7 175,-65.7 175,-65.7 171.0429,-66.2842 174.4742,-62.1386 167.0858,-66.8684 167.0858,-66.8684"/>
<ellipse fill="none" stroke="#000000" cx="163.9201" cy="-67.3357" rx="3.2" ry="3.2"/>
</g>
</g>
</svg>
