<?xml version="1.0" encoding="UTF-8" standalone="no"?>
<!DOCTYPE svg PUBLIC "-//W3C//DTD SVG 1.1//EN"
 "http://www.w3.org/Graphics/SVG/1.1/DTD/svg11.dtd">
<!-- Generated by graphviz version 2.40.1 (20161225.0304)
 -->
<!-- Title: twoDegreesRelationshipsDiagram Pages: 1 -->
<svg width="520pt" height="353pt"
 viewBox="0.00 0.00 520.00 353.20" xmlns="http://www.w3.org/2000/svg" xmlns:xlink="http://www.w3.org/1999/xlink">
<g id="graph0" class="graph" transform="scale(1 1) rotate(0) translate(4 349.2)">
<title>twoDegreesRelationshipsDiagram</title>
<polygon fill="#ffffff" stroke="transparent" points="-4,4 -4,-349.2 516,-349.2 516,4 -4,4"/>
<text text-anchor="middle" x="72.4936" y="-7.3" font-family="Helvetica,sans-Serif" font-size="11.00" fill="#000000">Generated by SchemaSpy</text>
<!-- events -->
<g id="node1" class="node">
<title>events</title>
<g id="a_node1"><a xlink:href="../../tables/events.html" xlink:title="events" target="_top">
<polygon fill="#ffffff" stroke="transparent" points="259.5,-236.2 259.5,-341.2 344.5,-341.2 344.5,-236.2 259.5,-236.2"/>
<polygon fill="#f5f5f5" stroke="transparent" points="260,-317.7 260,-340.7 345,-340.7 345,-317.7 260,-317.7"/>
<polygon fill="none" stroke="#000000" points="260,-317.7 260,-340.7 345,-340.7 345,-317.7 260,-317.7"/>
<text text-anchor="start" x="265" y="-326.8" font-family="Helvetica,sans-Serif" font-weight="bold" font-size="11.00" fill="#000000">events</text>
<text text-anchor="start" x="310.0437" y="-325.8" font-family="Helvetica,sans-Serif" font-size="11.00" fill="#000000">[table]</text>
<polygon fill="none" stroke="#000000" points="260,-295.7 260,-317.7 345,-317.7 345,-295.7 260,-295.7"/>
<image xlink:href="../../images/primaryKeys.png" width="11px" height="12px" preserveAspectRatio="xMinYMin meet" x="265" y="-312.7"/>
<text text-anchor="start" x="280" y="-302.8" font-family="Helvetica,sans-Serif" font-size="11.00" fill="#000000">id</text>
<polygon fill="#ffffff" stroke="transparent" points="260,-273.7 260,-295.7 345,-295.7 345,-273.7 260,-273.7"/>
<polygon fill="none" stroke="#000000" points="260,-273.7 260,-295.7 345,-295.7 345,-273.7 260,-273.7"/>
<image xlink:href="../../images/foreignKeys.png" width="11px" height="12px" preserveAspectRatio="xMinYMin meet" x="265" y="-290.7"/>
<text text-anchor="start" x="280" y="-280.8" font-family="Helvetica,sans-Serif" font-size="11.00" fill="#000000">gym_id</text>
<polygon fill="none" stroke="#000000" points="260,-254.7 260,-273.7 345,-273.7 345,-254.7 260,-254.7"/>
<text text-anchor="start" x="263" y="-260.8" font-family="Helvetica,sans-Serif" font-size="11.00" fill="#000000">...</text>
<polygon fill="#ffffff" stroke="transparent" points="260,-235.7 260,-254.7 283,-254.7 283,-235.7 260,-235.7"/>
<polygon fill="none" stroke="#000000" points="260,-235.7 260,-254.7 283,-254.7 283,-235.7 260,-235.7"/>
<text text-anchor="start" x="263" y="-241.8" font-family="Helvetica,sans-Serif" font-size="11.00" fill="#000000">&lt; 1</text>
<polygon fill="#ffffff" stroke="transparent" points="283,-235.7 283,-254.7 322,-254.7 322,-235.7 283,-235.7"/>
<polygon fill="none" stroke="#000000" points="283,-235.7 283,-254.7 322,-254.7 322,-235.7 283,-235.7"/>
<text text-anchor="start" x="286.6105" y="-241.8" font-family="Helvetica,sans-Serif" font-size="11.00" fill="#000000">0 rows</text>
<polygon fill="#ffffff" stroke="transparent" points="322,-235.7 322,-254.7 345,-254.7 345,-235.7 322,-235.7"/>
<polygon fill="none" stroke="#000000" points="322,-235.7 322,-254.7 345,-254.7 345,-235.7 322,-235.7"/>
<text text-anchor="start" x="326.4053" y="-241.8" font-family="Helvetica,sans-Serif" font-size="11.00" fill="#000000">1 &gt;</text>
</a>
</g>
</g>
<!-- gyms -->
<g id="node2" class="node">
<title>gyms</title>
<g id="a_node2"><a xlink:href="../../tables/gyms.html" xlink:title="gyms" target="_top">
<polygon fill="#ffffff" stroke="transparent" points="8,-120.7 8,-320.7 190,-320.7 190,-120.7 8,-120.7"/>
<polygon fill="#f5f5f5" stroke="transparent" points="10,-295.7 10,-318.7 188,-318.7 188,-295.7 10,-295.7"/>
<polygon fill="none" stroke="#000000" points="10,-295.7 10,-318.7 188,-318.7 188,-295.7 10,-295.7"/>
<text text-anchor="start" x="15" y="-304.8" font-family="Helvetica,sans-Serif" font-weight="bold" font-size="11.00" fill="#000000">gyms</text>
<text text-anchor="start" x="153.0437" y="-303.8" font-family="Helvetica,sans-Serif" font-size="11.00" fill="#000000">[table]</text>
<polygon fill="none" stroke="#000000" points="10,-273.7 10,-295.7 95,-295.7 95,-273.7 10,-273.7"/>
<image xlink:href="../../images/primaryKeys.png" width="11px" height="12px" preserveAspectRatio="xMinYMin meet" x="15" y="-290.7"/>
<text text-anchor="start" x="30" y="-280.8" font-family="Helvetica,sans-Serif" font-size="11.00" fill="#000000">id</text>
<polygon fill="none" stroke="#000000" points="95,-273.7 95,-295.7 188,-295.7 188,-273.7 95,-273.7"/>
<text text-anchor="start" x="98" y="-281.4" font-family="Helvetica,sans-Serif" font-size="11.00" fill="#000000">bigint[19]</text>
<polygon fill="none" stroke="#000000" points="10,-251.7 10,-273.7 95,-273.7 95,-251.7 10,-251.7"/>
<text text-anchor="start" x="30" y="-258.8" font-family="Helvetica,sans-Serif" font-size="11.00" fill="#000000">name</text>
<polygon fill="none" stroke="#000000" points="95,-251.7 95,-273.7 188,-273.7 188,-251.7 95,-251.7"/>
<text text-anchor="start" x="98" y="-259.4" font-family="Helvetica,sans-Serif" font-size="11.00" fill="#000000">varchar[45]</text>
<polygon fill="none" stroke="#000000" points="10,-229.7 10,-251.7 95,-251.7 95,-229.7 10,-229.7"/>
<text text-anchor="start" x="30" y="-236.8" font-family="Helvetica,sans-Serif" font-size="11.00" fill="#000000">description</text>
<polygon fill="none" stroke="#000000" points="95,-229.7 95,-251.7 188,-251.7 188,-229.7 95,-229.7"/>
<text text-anchor="start" x="98" y="-237.4" font-family="Helvetica,sans-Serif" font-size="11.00" fill="#000000">varchar[45]</text>
<polygon fill="none" stroke="#000000" points="10,-207.7 10,-229.7 95,-229.7 95,-207.7 10,-207.7"/>
<text text-anchor="start" x="30" y="-214.8" font-family="Helvetica,sans-Serif" font-size="11.00" fill="#000000">settings</text>
<polygon fill="none" stroke="#000000" points="95,-207.7 95,-229.7 188,-229.7 188,-207.7 95,-207.7"/>
<text text-anchor="start" x="97.7833" y="-215.4" font-family="Helvetica,sans-Serif" font-size="11.00" fill="#000000">json[1073741824]</text>
<polygon fill="none" stroke="#000000" points="10,-185.7 10,-207.7 95,-207.7 95,-185.7 10,-185.7"/>
<text text-anchor="start" x="30" y="-192.8" font-family="Helvetica,sans-Serif" font-size="11.00" fill="#000000">created_at</text>
<polygon fill="none" stroke="#000000" points="95,-185.7 95,-207.7 188,-207.7 188,-185.7 95,-185.7"/>
<text text-anchor="start" x="98" y="-193.4" font-family="Helvetica,sans-Serif" font-size="11.00" fill="#000000">timestamp[19]</text>
<polygon fill="none" stroke="#000000" points="10,-163.7 10,-185.7 95,-185.7 95,-163.7 10,-163.7"/>
<text text-anchor="start" x="30" y="-170.8" font-family="Helvetica,sans-Serif" font-size="11.00" fill="#000000">updated_at</text>
<polygon fill="none" stroke="#000000" points="95,-163.7 95,-185.7 188,-185.7 188,-163.7 95,-163.7"/>
<text text-anchor="start" x="98" y="-171.4" font-family="Helvetica,sans-Serif" font-size="11.00" fill="#000000">timestamp[19]</text>
<polygon fill="none" stroke="#000000" points="10,-141.7 10,-163.7 95,-163.7 95,-141.7 10,-141.7"/>
<text text-anchor="start" x="30" y="-148.8" font-family="Helvetica,sans-Serif" font-size="11.00" fill="#000000">deleted_at</text>
<polygon fill="none" stroke="#000000" points="95,-141.7 95,-163.7 188,-163.7 188,-141.7 95,-141.7"/>
<text text-anchor="start" x="98" y="-149.4" font-family="Helvetica,sans-Serif" font-size="11.00" fill="#000000">timestamp[19]</text>
<polygon fill="#ffffff" stroke="transparent" points="10,-122.7 10,-141.7 44,-141.7 44,-122.7 10,-122.7"/>
<polygon fill="none" stroke="#000000" points="10,-122.7 10,-141.7 44,-141.7 44,-122.7 10,-122.7"/>
<text text-anchor="start" x="13" y="-128.8" font-family="Helvetica,sans-Serif" font-size="11.00" fill="#000000">&lt; 0</text>
<polygon fill="#ffffff" stroke="transparent" points="44,-122.7 44,-141.7 95,-141.7 95,-122.7 44,-122.7"/>
<polygon fill="none" stroke="#000000" points="44,-122.7 44,-141.7 95,-141.7 95,-122.7 44,-122.7"/>
<text text-anchor="start" x="59.6105" y="-128.8" font-family="Helvetica,sans-Serif" font-size="11.00" fill="#000000">0 rows</text>
<polygon fill="#ffffff" stroke="transparent" points="95,-122.7 95,-141.7 188,-141.7 188,-122.7 95,-122.7"/>
<polygon fill="none" stroke="#000000" points="95,-122.7 95,-141.7 188,-141.7 188,-122.7 95,-122.7"/>
<text text-anchor="start" x="169.4053" y="-128.8" font-family="Helvetica,sans-Serif" font-size="11.00" fill="#000000">2 &gt;</text>
<polygon fill="none" stroke="#000000" stroke-width="2" points="9,-121.7 9,-319.7 189,-319.7 189,-121.7 9,-121.7"/>
</a>
</g>
</g>
<!-- events&#45;&gt;gyms -->
<g id="edge1" class="edge">
<title>events:w&#45;&gt;gyms:e</title>
<path fill="none" stroke="#000000" d="M245.3832,-284.7C224.541,-284.7 214.5,-284.7 188,-284.7"/>
<polygon fill="#000000" stroke="#000000" points="252,-284.7001 260,-288.3 256,-284.7 260,-284.7 260,-284.7 260,-284.7 256,-284.7 260,-281.1 252,-284.7001 252,-284.7001"/>
<ellipse fill="none" stroke="#000000" cx="248.8" cy="-284.7001" rx="3.2" ry="3.2"/>
</g>
<!-- gymnasts -->
<g id="node3" class="node">
<title>gymnasts</title>
<g id="a_node3"><a xlink:href="../../tables/gymnasts.html" xlink:title="gymnasts" target="_top">
<polygon fill="#ffffff" stroke="transparent" points="414,-95.2 414,-156.2 504,-156.2 504,-95.2 414,-95.2"/>
<polygon fill="#f5f5f5" stroke="transparent" points="414,-132.7 414,-155.7 504,-155.7 504,-132.7 414,-132.7"/>
<polygon fill="none" stroke="#000000" points="414,-132.7 414,-155.7 504,-155.7 504,-132.7 414,-132.7"/>
<text text-anchor="start" x="418.9683" y="-141.8" font-family="Helvetica,sans-Serif" font-weight="bold" font-size="11.00" fill="#000000">gymnasts</text>
<text text-anchor="start" x="469.5219" y="-140.8" font-family="Helvetica,sans-Serif" font-size="11.00" fill="#000000">[table]</text>
<polygon fill="none" stroke="#000000" points="414,-113.7 414,-132.7 504,-132.7 504,-113.7 414,-113.7"/>
<text text-anchor="start" x="417" y="-119.8" font-family="Helvetica,sans-Serif" font-size="11.00" fill="#000000">...</text>
<polygon fill="#ffffff" stroke="transparent" points="414,-94.7 414,-113.7 440,-113.7 440,-94.7 414,-94.7"/>
<polygon fill="none" stroke="#000000" points="414,-94.7 414,-113.7 440,-113.7 440,-94.7 414,-94.7"/>
<text text-anchor="start" x="417" y="-100.8" font-family="Helvetica,sans-Serif" font-size="11.00" fill="#000000">&lt; 2</text>
<polygon fill="#ffffff" stroke="transparent" points="440,-94.7 440,-113.7 480,-113.7 480,-94.7 440,-94.7"/>
<polygon fill="none" stroke="#000000" points="440,-94.7 440,-113.7 480,-113.7 480,-94.7 440,-94.7"/>
<text text-anchor="start" x="444.6105" y="-100.8" font-family="Helvetica,sans-Serif" font-size="11.00" fill="#000000">0 rows</text>
<polygon fill="#ffffff" stroke="transparent" points="480,-94.7 480,-113.7 504,-113.7 504,-94.7 480,-94.7"/>
<polygon fill="none" stroke="#000000" points="480,-94.7 480,-113.7 504,-113.7 504,-94.7 480,-94.7"/>
<text text-anchor="start" x="485.4053" y="-100.8" font-family="Helvetica,sans-Serif" font-size="11.00" fill="#000000">4 &gt;</text>
</a>
</g>
</g>
<!-- gyms_has_users -->
<g id="node4" class="node">
<title>gyms_has_users</title>
<g id="a_node4"><a xlink:href="../../tables/gyms_has_users.html" xlink:title="gyms_has_users" target="_top">
<polygon fill="#ffffff" stroke="transparent" points="239,-81.7 239,-167.7 365,-167.7 365,-81.7 239,-81.7"/>
<polygon fill="#f5f5f5" stroke="transparent" points="239,-144.7 239,-167.7 365,-167.7 365,-144.7 239,-144.7"/>
<polygon fill="none" stroke="#000000" points="239,-144.7 239,-167.7 365,-167.7 365,-144.7 239,-144.7"/>
<text text-anchor="start" x="243.936" y="-153.8" font-family="Helvetica,sans-Serif" font-weight="bold" font-size="11.00" fill="#000000">gyms_has_users</text>
<text text-anchor="start" x="330.5219" y="-152.8" font-family="Helvetica,sans-Serif" font-size="11.00" fill="#000000">[table]</text>
<polygon fill="none" stroke="#000000" points="239,-122.7 239,-144.7 365,-144.7 365,-122.7 239,-122.7"/>
<image xlink:href="../../images/primaryKeys.png" width="11px" height="12px" preserveAspectRatio="xMinYMin meet" x="244" y="-139.7"/>
<text text-anchor="start" x="263" y="-129.8" font-family="Helvetica,sans-Serif" font-size="11.00" fill="#000000">gym_id</text>
<polygon fill="none" stroke="#000000" points="239,-100.7 239,-122.7 365,-122.7 365,-100.7 239,-100.7"/>
<image xlink:href="../../images/primaryKeys.png" width="11px" height="12px" preserveAspectRatio="xMinYMin meet" x="244" y="-117.7"/>
<text text-anchor="start" x="263" y="-107.8" font-family="Helvetica,sans-Serif" font-size="11.00" fill="#000000">user_id</text>
<polygon fill="#ffffff" stroke="transparent" points="239,-81.7 239,-100.7 283,-100.7 283,-81.7 239,-81.7"/>
<polygon fill="none" stroke="#000000" points="239,-81.7 239,-100.7 283,-100.7 283,-81.7 239,-81.7"/>
<text text-anchor="start" x="242" y="-87.8" font-family="Helvetica,sans-Serif" font-size="11.00" fill="#000000">&lt; 2</text>
<polygon fill="#ffffff" stroke="transparent" points="283,-81.7 283,-100.7 332,-100.7 332,-81.7 283,-81.7"/>
<polygon fill="none" stroke="#000000" points="283,-81.7 283,-100.7 332,-100.7 332,-81.7 283,-81.7"/>
<text text-anchor="start" x="296.6105" y="-87.8" font-family="Helvetica,sans-Serif" font-size="11.00" fill="#000000">0 rows</text>
<polygon fill="#ffffff" stroke="transparent" points="332,-81.7 332,-100.7 365,-100.7 365,-81.7 332,-81.7"/>
<polygon fill="none" stroke="#000000" points="332,-81.7 332,-100.7 365,-100.7 365,-81.7 332,-81.7"/>
<text text-anchor="start" x="346.4053" y="-87.8" font-family="Helvetica,sans-Serif" font-size="11.00" fill="#000000">2 &gt;</text>
</a>
</g>
</g>
<!-- gymnasts&#45;&gt;gyms_has_users -->
<g id="edge2" class="edge">
<title>gymnasts:w&#45;&gt;gyms_has_users:e</title>
<path fill="none" stroke="#000000" d="M399.7027,-124.5164C388.2382,-127.6407 381.5655,-133.7 365,-133.7"/>
<polygon fill="#000000" stroke="#000000" points="406.0638,-123.7083 414.4537,-126.2713 410.0319,-123.2042 414,-122.7 414,-122.7 414,-122.7 410.0319,-123.2042 413.5463,-119.1287 406.0638,-123.7083 406.0638,-123.7083"/>
<ellipse fill="none" stroke="#000000" cx="402.8893" cy="-124.1116" rx="3.2" ry="3.2"/>
</g>
<!-- gymnasts&#45;&gt;gyms_has_users -->
<g id="edge3" class="edge">
<title>gymnasts:w&#45;&gt;gyms_has_users:e</title>
<path fill="none" stroke="#000000" d="M399.7027,-120.8836C388.2382,-117.7593 381.5655,-111.7 365,-111.7"/>
<polygon fill="#000000" stroke="#000000" points="406.0638,-121.6917 413.5463,-126.2713 410.0319,-122.1958 414,-122.7 414,-122.7 414,-122.7 410.0319,-122.1958 414.4537,-119.1287 406.0638,-121.6917 406.0638,-121.6917"/>
<ellipse fill="none" stroke="#000000" cx="402.8893" cy="-121.2884" rx="3.2" ry="3.2"/>
</g>
<!-- gyms_has_users&#45;&gt;gyms -->
<g id="edge4" class="edge">
<title>gyms_has_users:w&#45;&gt;gyms:e</title>
<path fill="none" stroke="#000000" d="M224.6499,-136.5816C181.9534,-157.4573 253.0248,-284.7 188,-284.7"/>
<polygon fill="#000000" stroke="#000000" points="231.1566,-135.2751 239.7088,-137.2295 235.0783,-134.4875 239,-133.7 239,-133.7 239,-133.7 235.0783,-134.4875 238.2912,-130.1705 231.1566,-135.2751 231.1566,-135.2751"/>
<ellipse fill="none" stroke="#000000" cx="228.0192" cy="-135.9051" rx="3.2" ry="3.2"/>
</g>
<!-- users -->
<g id="node5" class="node">
<title>users</title>
<g id="a_node5"><a xlink:href="../../tables/users.html" xlink:title="users" target="_top">
<polygon fill="#ffffff" stroke="transparent" points="63.5,-38.2 63.5,-99.2 134.5,-99.2 134.5,-38.2 63.5,-38.2"/>
<polygon fill="#f5f5f5" stroke="transparent" points="64,-75.7 64,-98.7 135,-98.7 135,-75.7 64,-75.7"/>
<polygon fill="none" stroke="#000000" points="64,-75.7 64,-98.7 135,-98.7 135,-75.7 64,-75.7"/>
<text text-anchor="start" x="69" y="-84.8" font-family="Helvetica,sans-Serif" font-weight="bold" font-size="11.00" fill="#000000">users</text>
<text text-anchor="start" x="100.0437" y="-83.8" font-family="Helvetica,sans-Serif" font-size="11.00" fill="#000000">[table]</text>
<polygon fill="none" stroke="#000000" points="64,-56.7 64,-75.7 135,-75.7 135,-56.7 64,-56.7"/>
<text text-anchor="start" x="67" y="-62.8" font-family="Helvetica,sans-Serif" font-size="11.00" fill="#000000">...</text>
<polygon fill="#ffffff" stroke="transparent" points="64,-37.7 64,-56.7 76,-56.7 76,-37.7 64,-37.7"/>
<polygon fill="none" stroke="#000000" points="64,-37.7 64,-56.7 76,-56.7 76,-37.7 64,-37.7"/>
<text text-anchor="start" x="66.9431" y="-43.8" font-family="Helvetica,sans-Serif" font-size="11.00" fill="#000000"> &#160;</text>
<polygon fill="#ffffff" stroke="transparent" points="76,-37.7 76,-56.7 114,-56.7 114,-37.7 76,-37.7"/>
<polygon fill="none" stroke="#000000" points="76,-37.7 76,-56.7 114,-56.7 114,-37.7 76,-37.7"/>
<text text-anchor="start" x="78.8053" y="-43.8" font-family="Helvetica,sans-Serif" font-size="11.00" fill="#000000">0 rows</text>
<polygon fill="#ffffff" stroke="transparent" points="114,-37.7 114,-56.7 135,-56.7 135,-37.7 114,-37.7"/>
<polygon fill="none" stroke="#000000" points="114,-37.7 114,-56.7 135,-56.7 135,-37.7 114,-37.7"/>
<text text-anchor="start" x="116.7027" y="-43.8" font-family="Helvetica,sans-Serif" font-size="11.00" fill="#000000">2 &gt;</text>
</a>
</g>
</g>
<!-- gyms_has_users&#45;&gt;users -->
<g id="edge5" class="edge">
<title>gyms_has_users:w&#45;&gt;users:e</title>
<path fill="none" stroke="#000000" d="M224.4858,-110.2729C187.3133,-102.5086 180.2112,-65.7 135,-65.7"/>
<polygon fill="#000000" stroke="#000000" points="231.0384,-110.9171 238.6477,-115.2827 235.0192,-111.3086 239,-111.7 239,-111.7 239,-111.7 235.0192,-111.3086 239.3523,-108.1173 231.0384,-110.9171 231.0384,-110.9171"/>
<ellipse fill="none" stroke="#000000" cx="227.8538" cy="-110.604" rx="3.2" ry="3.2"/>
</g>
<!-- skills -->
<g id="node6" class="node">
<title>skills</title>
<g id="a_node6"><a xlink:href="../../tables/skills.html" xlink:title="skills" target="_top">
<polygon fill="#ffffff" stroke="transparent" points="419,-279.2 419,-340.2 499,-340.2 499,-279.2 419,-279.2"/>
<polygon fill="#f5f5f5" stroke="transparent" points="419,-316.7 419,-339.7 499,-339.7 499,-316.7 419,-316.7"/>
<polygon fill="none" stroke="#000000" points="419,-316.7 419,-339.7 499,-339.7 499,-316.7 419,-316.7"/>
<text text-anchor="start" x="424" y="-325.8" font-family="Helvetica,sans-Serif" font-weight="bold" font-size="11.00" fill="#000000">skills</text>
<text text-anchor="start" x="464.0437" y="-324.8" font-family="Helvetica,sans-Serif" font-size="11.00" fill="#000000">[table]</text>
<polygon fill="none" stroke="#000000" points="419,-297.7 419,-316.7 499,-316.7 499,-297.7 419,-297.7"/>
<text text-anchor="start" x="422" y="-303.8" font-family="Helvetica,sans-Serif" font-size="11.00" fill="#000000">...</text>
<polygon fill="#ffffff" stroke="transparent" points="419,-278.7 419,-297.7 440,-297.7 440,-278.7 419,-278.7"/>
<polygon fill="none" stroke="#000000" points="419,-278.7 419,-297.7 440,-297.7 440,-278.7 419,-278.7"/>
<text text-anchor="start" x="421.7027" y="-284.8" font-family="Helvetica,sans-Serif" font-size="11.00" fill="#000000">&lt; 3</text>
<polygon fill="#ffffff" stroke="transparent" points="440,-278.7 440,-297.7 478,-297.7 478,-278.7 440,-278.7"/>
<polygon fill="none" stroke="#000000" points="440,-278.7 440,-297.7 478,-297.7 478,-278.7 440,-278.7"/>
<text text-anchor="start" x="442.8053" y="-284.8" font-family="Helvetica,sans-Serif" font-size="11.00" fill="#000000">0 rows</text>
<polygon fill="#ffffff" stroke="transparent" points="478,-278.7 478,-297.7 499,-297.7 499,-278.7 478,-278.7"/>
<polygon fill="none" stroke="#000000" points="478,-278.7 478,-297.7 499,-297.7 499,-278.7 478,-278.7"/>
<text text-anchor="start" x="480.7027" y="-284.8" font-family="Helvetica,sans-Serif" font-size="11.00" fill="#000000">2 &gt;</text>
</a>
</g>
</g>
<!-- skills&#45;&gt;events -->
<g id="edge6" class="edge">
<title>skills:w&#45;&gt;events:e</title>
<path fill="none" stroke="#000000" d="M404.5865,-306.7C382.7493,-306.7 372.4931,-306.7 345,-306.7"/>
<polygon fill="#000000" stroke="#000000" points="411,-306.7001 419,-310.3 415,-306.7 419,-306.7 419,-306.7 419,-306.7 415,-306.7 419,-303.1 411,-306.7001 411,-306.7001"/>
<ellipse fill="none" stroke="#000000" cx="407.8" cy="-306.7001" rx="3.2" ry="3.2"/>
</g>
</g>
</svg>
