<?xml version="1.0" encoding="UTF-8" standalone="no"?>
<!DOCTYPE svg PUBLIC "-//W3C//DTD SVG 1.1//EN"
 "http://www.w3.org/Graphics/SVG/1.1/DTD/svg11.dtd">
<!-- Generated by graphviz version 2.40.1 (20161225.0304)
 -->
<!-- Title: oneDegreeRelationshipsDiagram Pages: 1 -->
<svg width="398pt" height="537pt"
 viewBox="0.00 0.00 398.00 537.20" xmlns="http://www.w3.org/2000/svg" xmlns:xlink="http://www.w3.org/1999/xlink">
<g id="graph0" class="graph" transform="scale(1 1) rotate(0) translate(4 533.2)">
<title>oneDegreeRelationshipsDiagram</title>
<polygon fill="#ffffff" stroke="transparent" points="-4,4 -4,-533.2 394,-533.2 394,4 -4,4"/>
<text text-anchor="middle" x="72.4936" y="-7.3" font-family="Helvetica,sans-Serif" font-size="11.00" fill="#000000">Generated by SchemaSpy</text>
<!-- challenges -->
<g id="node1" class="node">
<title>challenges</title>
<g id="a_node1"><a xlink:href="../../tables/challenges.html" xlink:title="challenges" target="_top">
<polygon fill="#ffffff" stroke="transparent" points="239,-398.2 239,-525.2 382,-525.2 382,-398.2 239,-398.2"/>
<polygon fill="#f5f5f5" stroke="transparent" points="239.5,-501.7 239.5,-524.7 382.5,-524.7 382.5,-501.7 239.5,-501.7"/>
<polygon fill="none" stroke="#000000" points="239.5,-501.7 239.5,-524.7 382.5,-524.7 382.5,-501.7 239.5,-501.7"/>
<text text-anchor="start" x="244.5" y="-510.8" font-family="Helvetica,sans-Serif" font-weight="bold" font-size="11.00" fill="#000000">challenges</text>
<text text-anchor="start" x="347.5437" y="-509.8" font-family="Helvetica,sans-Serif" font-size="11.00" fill="#000000">[table]</text>
<polygon fill="none" stroke="#000000" points="239.5,-479.7 239.5,-501.7 382.5,-501.7 382.5,-479.7 239.5,-479.7"/>
<image xlink:href="../../images/primaryKeys.png" width="11px" height="12px" preserveAspectRatio="xMinYMin meet" x="244.5" y="-496.7"/>
<text text-anchor="start" x="259.5" y="-486.8" font-family="Helvetica,sans-Serif" font-size="11.00" fill="#000000">id</text>
<polygon fill="#ffffff" stroke="transparent" points="239.5,-457.7 239.5,-479.7 382.5,-479.7 382.5,-457.7 239.5,-457.7"/>
<polygon fill="none" stroke="#000000" points="239.5,-457.7 239.5,-479.7 382.5,-479.7 382.5,-457.7 239.5,-457.7"/>
<image xlink:href="../../images/foreignKeys.png" width="11px" height="12px" preserveAspectRatio="xMinYMin meet" x="244.5" y="-474.7"/>
<text text-anchor="start" x="259.5" y="-464.8" font-family="Helvetica,sans-Serif" font-size="11.00" fill="#000000">gym_id</text>
<polygon fill="#ffffff" stroke="transparent" points="239.5,-435.7 239.5,-457.7 382.5,-457.7 382.5,-435.7 239.5,-435.7"/>
<polygon fill="none" stroke="#000000" points="239.5,-435.7 239.5,-457.7 382.5,-457.7 382.5,-435.7 239.5,-435.7"/>
<image xlink:href="../../images/foreignKeys.png" width="11px" height="12px" preserveAspectRatio="xMinYMin meet" x="244.5" y="-452.7"/>
<text text-anchor="start" x="259.5" y="-442.8" font-family="Helvetica,sans-Serif" font-size="11.00" fill="#000000">class_id</text>
<polygon fill="none" stroke="#000000" points="239.5,-416.7 239.5,-435.7 382.5,-435.7 382.5,-416.7 239.5,-416.7"/>
<text text-anchor="start" x="242.5" y="-422.8" font-family="Helvetica,sans-Serif" font-size="11.00" fill="#000000">...</text>
<polygon fill="#ffffff" stroke="transparent" points="239.5,-397.7 239.5,-416.7 291.5,-416.7 291.5,-397.7 239.5,-397.7"/>
<polygon fill="none" stroke="#000000" points="239.5,-397.7 239.5,-416.7 291.5,-416.7 291.5,-397.7 239.5,-397.7"/>
<text text-anchor="start" x="242.5" y="-403.8" font-family="Helvetica,sans-Serif" font-size="11.00" fill="#000000">&lt; 2</text>
<polygon fill="#ffffff" stroke="transparent" points="291.5,-397.7 291.5,-416.7 345.5,-416.7 345.5,-397.7 291.5,-397.7"/>
<polygon fill="none" stroke="#000000" points="291.5,-397.7 291.5,-416.7 345.5,-416.7 345.5,-397.7 291.5,-397.7"/>
<text text-anchor="start" x="310.1105" y="-403.8" font-family="Helvetica,sans-Serif" font-size="11.00" fill="#000000">0 rows</text>
<polygon fill="#ffffff" stroke="transparent" points="345.5,-397.7 345.5,-416.7 382.5,-416.7 382.5,-397.7 345.5,-397.7"/>
<polygon fill="none" stroke="#000000" points="345.5,-397.7 345.5,-416.7 382.5,-416.7 382.5,-397.7 345.5,-397.7"/>
<text text-anchor="start" x="363.9053" y="-403.8" font-family="Helvetica,sans-Serif" font-size="11.00" fill="#000000">2 &gt;</text>
</a>
</g>
</g>
<!-- gyms -->
<g id="node2" class="node">
<title>gyms</title>
<g id="a_node2"><a xlink:href="../../tables/gyms.html" xlink:title="gyms" target="_top">
<polygon fill="#ffffff" stroke="transparent" points="8,-104.7 8,-304.7 190,-304.7 190,-104.7 8,-104.7"/>
<polygon fill="#f5f5f5" stroke="transparent" points="10,-279.7 10,-302.7 188,-302.7 188,-279.7 10,-279.7"/>
<polygon fill="none" stroke="#000000" points="10,-279.7 10,-302.7 188,-302.7 188,-279.7 10,-279.7"/>
<text text-anchor="start" x="15" y="-288.8" font-family="Helvetica,sans-Serif" font-weight="bold" font-size="11.00" fill="#000000">gyms</text>
<text text-anchor="start" x="153.0437" y="-287.8" font-family="Helvetica,sans-Serif" font-size="11.00" fill="#000000">[table]</text>
<polygon fill="none" stroke="#000000" points="10,-257.7 10,-279.7 95,-279.7 95,-257.7 10,-257.7"/>
<image xlink:href="../../images/primaryKeys.png" width="11px" height="12px" preserveAspectRatio="xMinYMin meet" x="15" y="-274.7"/>
<text text-anchor="start" x="30" y="-264.8" font-family="Helvetica,sans-Serif" font-size="11.00" fill="#000000">id</text>
<polygon fill="none" stroke="#000000" points="95,-257.7 95,-279.7 188,-279.7 188,-257.7 95,-257.7"/>
<text text-anchor="start" x="98" y="-265.4" font-family="Helvetica,sans-Serif" font-size="11.00" fill="#000000">bigint[19]</text>
<polygon fill="none" stroke="#000000" points="10,-235.7 10,-257.7 95,-257.7 95,-235.7 10,-235.7"/>
<text text-anchor="start" x="30" y="-242.8" font-family="Helvetica,sans-Serif" font-size="11.00" fill="#000000">name</text>
<polygon fill="none" stroke="#000000" points="95,-235.7 95,-257.7 188,-257.7 188,-235.7 95,-235.7"/>
<text text-anchor="start" x="98" y="-243.4" font-family="Helvetica,sans-Serif" font-size="11.00" fill="#000000">varchar[45]</text>
<polygon fill="none" stroke="#000000" points="10,-213.7 10,-235.7 95,-235.7 95,-213.7 10,-213.7"/>
<text text-anchor="start" x="30" y="-220.8" font-family="Helvetica,sans-Serif" font-size="11.00" fill="#000000">description</text>
<polygon fill="none" stroke="#000000" points="95,-213.7 95,-235.7 188,-235.7 188,-213.7 95,-213.7"/>
<text text-anchor="start" x="98" y="-221.4" font-family="Helvetica,sans-Serif" font-size="11.00" fill="#000000">varchar[45]</text>
<polygon fill="none" stroke="#000000" points="10,-191.7 10,-213.7 95,-213.7 95,-191.7 10,-191.7"/>
<text text-anchor="start" x="30" y="-198.8" font-family="Helvetica,sans-Serif" font-size="11.00" fill="#000000">settings</text>
<polygon fill="none" stroke="#000000" points="95,-191.7 95,-213.7 188,-213.7 188,-191.7 95,-191.7"/>
<text text-anchor="start" x="97.7833" y="-199.4" font-family="Helvetica,sans-Serif" font-size="11.00" fill="#000000">json[1073741824]</text>
<polygon fill="none" stroke="#000000" points="10,-169.7 10,-191.7 95,-191.7 95,-169.7 10,-169.7"/>
<text text-anchor="start" x="30" y="-176.8" font-family="Helvetica,sans-Serif" font-size="11.00" fill="#000000">created_at</text>
<polygon fill="none" stroke="#000000" points="95,-169.7 95,-191.7 188,-191.7 188,-169.7 95,-169.7"/>
<text text-anchor="start" x="98" y="-177.4" font-family="Helvetica,sans-Serif" font-size="11.00" fill="#000000">timestamp[19]</text>
<polygon fill="none" stroke="#000000" points="10,-147.7 10,-169.7 95,-169.7 95,-147.7 10,-147.7"/>
<text text-anchor="start" x="30" y="-154.8" font-family="Helvetica,sans-Serif" font-size="11.00" fill="#000000">updated_at</text>
<polygon fill="none" stroke="#000000" points="95,-147.7 95,-169.7 188,-169.7 188,-147.7 95,-147.7"/>
<text text-anchor="start" x="98" y="-155.4" font-family="Helvetica,sans-Serif" font-size="11.00" fill="#000000">timestamp[19]</text>
<polygon fill="none" stroke="#000000" points="10,-125.7 10,-147.7 95,-147.7 95,-125.7 10,-125.7"/>
<text text-anchor="start" x="30" y="-132.8" font-family="Helvetica,sans-Serif" font-size="11.00" fill="#000000">deleted_at</text>
<polygon fill="none" stroke="#000000" points="95,-125.7 95,-147.7 188,-147.7 188,-125.7 95,-125.7"/>
<text text-anchor="start" x="98" y="-133.4" font-family="Helvetica,sans-Serif" font-size="11.00" fill="#000000">timestamp[19]</text>
<polygon fill="#ffffff" stroke="transparent" points="10,-106.7 10,-125.7 44,-125.7 44,-106.7 10,-106.7"/>
<polygon fill="none" stroke="#000000" points="10,-106.7 10,-125.7 44,-125.7 44,-106.7 10,-106.7"/>
<text text-anchor="start" x="13" y="-112.8" font-family="Helvetica,sans-Serif" font-size="11.00" fill="#000000">&lt; 0</text>
<polygon fill="#ffffff" stroke="transparent" points="44,-106.7 44,-125.7 95,-125.7 95,-106.7 44,-106.7"/>
<polygon fill="none" stroke="#000000" points="44,-106.7 44,-125.7 95,-125.7 95,-106.7 44,-106.7"/>
<text text-anchor="start" x="59.6105" y="-112.8" font-family="Helvetica,sans-Serif" font-size="11.00" fill="#000000">0 rows</text>
<polygon fill="#ffffff" stroke="transparent" points="95,-106.7 95,-125.7 188,-125.7 188,-106.7 95,-106.7"/>
<polygon fill="none" stroke="#000000" points="95,-106.7 95,-125.7 188,-125.7 188,-106.7 95,-106.7"/>
<text text-anchor="start" x="169.4053" y="-112.8" font-family="Helvetica,sans-Serif" font-size="11.00" fill="#000000">4 &gt;</text>
<polygon fill="none" stroke="#000000" stroke-width="2" points="9,-105.7 9,-303.7 189,-303.7 189,-105.7 9,-105.7"/>
</a>
</g>
</g>
<!-- challenges&#45;&gt;gyms -->
<g id="edge1" class="edge">
<title>challenges:w&#45;&gt;gyms:e</title>
<path fill="none" stroke="#000000" d="M225.1901,-466.5892C162.8845,-445.2144 274.231,-268.7 188,-268.7"/>
<polygon fill="#000000" stroke="#000000" points="231.5856,-467.5325 238.9746,-472.2615 235.5428,-468.1163 239.5,-468.7 239.5,-468.7 239.5,-468.7 235.5428,-468.1163 240.0254,-465.1385 231.5856,-467.5325 231.5856,-467.5325"/>
<ellipse fill="none" stroke="#000000" cx="228.4199" cy="-467.0656" rx="3.2" ry="3.2"/>
</g>
<!-- events -->
<g id="node3" class="node">
<title>events</title>
<g id="a_node3"><a xlink:href="../../tables/events.html" xlink:title="events" target="_top">
<polygon fill="#ffffff" stroke="transparent" points="268,-272.2 268,-377.2 353,-377.2 353,-272.2 268,-272.2"/>
<polygon fill="#f5f5f5" stroke="transparent" points="268.5,-353.7 268.5,-376.7 353.5,-376.7 353.5,-353.7 268.5,-353.7"/>
<polygon fill="none" stroke="#000000" points="268.5,-353.7 268.5,-376.7 353.5,-376.7 353.5,-353.7 268.5,-353.7"/>
<text text-anchor="start" x="273.5" y="-362.8" font-family="Helvetica,sans-Serif" font-weight="bold" font-size="11.00" fill="#000000">events</text>
<text text-anchor="start" x="318.5437" y="-361.8" font-family="Helvetica,sans-Serif" font-size="11.00" fill="#000000">[table]</text>
<polygon fill="none" stroke="#000000" points="268.5,-331.7 268.5,-353.7 353.5,-353.7 353.5,-331.7 268.5,-331.7"/>
<image xlink:href="../../images/primaryKeys.png" width="11px" height="12px" preserveAspectRatio="xMinYMin meet" x="273.5" y="-348.7"/>
<text text-anchor="start" x="288.5" y="-338.8" font-family="Helvetica,sans-Serif" font-size="11.00" fill="#000000">id</text>
<polygon fill="#ffffff" stroke="transparent" points="268.5,-309.7 268.5,-331.7 353.5,-331.7 353.5,-309.7 268.5,-309.7"/>
<polygon fill="none" stroke="#000000" points="268.5,-309.7 268.5,-331.7 353.5,-331.7 353.5,-309.7 268.5,-309.7"/>
<image xlink:href="../../images/foreignKeys.png" width="11px" height="12px" preserveAspectRatio="xMinYMin meet" x="273.5" y="-326.7"/>
<text text-anchor="start" x="288.5" y="-316.8" font-family="Helvetica,sans-Serif" font-size="11.00" fill="#000000">gym_id</text>
<polygon fill="none" stroke="#000000" points="268.5,-290.7 268.5,-309.7 353.5,-309.7 353.5,-290.7 268.5,-290.7"/>
<text text-anchor="start" x="271.5" y="-296.8" font-family="Helvetica,sans-Serif" font-size="11.00" fill="#000000">...</text>
<polygon fill="#ffffff" stroke="transparent" points="268.5,-271.7 268.5,-290.7 291.5,-290.7 291.5,-271.7 268.5,-271.7"/>
<polygon fill="none" stroke="#000000" points="268.5,-271.7 268.5,-290.7 291.5,-290.7 291.5,-271.7 268.5,-271.7"/>
<text text-anchor="start" x="271.5" y="-277.8" font-family="Helvetica,sans-Serif" font-size="11.00" fill="#000000">&lt; 1</text>
<polygon fill="#ffffff" stroke="transparent" points="291.5,-271.7 291.5,-290.7 330.5,-290.7 330.5,-271.7 291.5,-271.7"/>
<polygon fill="none" stroke="#000000" points="291.5,-271.7 291.5,-290.7 330.5,-290.7 330.5,-271.7 291.5,-271.7"/>
<text text-anchor="start" x="295.1105" y="-277.8" font-family="Helvetica,sans-Serif" font-size="11.00" fill="#000000">0 rows</text>
<polygon fill="#ffffff" stroke="transparent" points="330.5,-271.7 330.5,-290.7 353.5,-290.7 353.5,-271.7 330.5,-271.7"/>
<polygon fill="none" stroke="#000000" points="330.5,-271.7 330.5,-290.7 353.5,-290.7 353.5,-271.7 330.5,-271.7"/>
<text text-anchor="start" x="334.9053" y="-277.8" font-family="Helvetica,sans-Serif" font-size="11.00" fill="#000000">1 &gt;</text>
</a>
</g>
</g>
<!-- events&#45;&gt;gyms -->
<g id="edge2" class="edge">
<title>events:w&#45;&gt;gyms:e</title>
<path fill="none" stroke="#000000" d="M254.1828,-318.3305C226.3294,-308.1578 225.1026,-268.7 188,-268.7"/>
<polygon fill="#000000" stroke="#000000" points="260.6074,-319.3937 267.9122,-324.2517 264.5537,-320.0469 268.5,-320.7 268.5,-320.7 268.5,-320.7 264.5537,-320.0469 269.0878,-317.1483 260.6074,-319.3937 260.6074,-319.3937"/>
<ellipse fill="none" stroke="#000000" cx="257.4503" cy="-318.8712" rx="3.2" ry="3.2"/>
</g>
<!-- gyms_has_users -->
<g id="node4" class="node">
<title>gyms_has_users</title>
<g id="a_node4"><a xlink:href="../../tables/gyms_has_users.html" xlink:title="gyms_has_users" target="_top">
<polygon fill="#ffffff" stroke="transparent" points="247.5,-164.7 247.5,-250.7 373.5,-250.7 373.5,-164.7 247.5,-164.7"/>
<polygon fill="#f5f5f5" stroke="transparent" points="247.5,-227.7 247.5,-250.7 373.5,-250.7 373.5,-227.7 247.5,-227.7"/>
<polygon fill="none" stroke="#000000" points="247.5,-227.7 247.5,-250.7 373.5,-250.7 373.5,-227.7 247.5,-227.7"/>
<text text-anchor="start" x="252.436" y="-236.8" font-family="Helvetica,sans-Serif" font-weight="bold" font-size="11.00" fill="#000000">gyms_has_users</text>
<text text-anchor="start" x="339.0219" y="-235.8" font-family="Helvetica,sans-Serif" font-size="11.00" fill="#000000">[table]</text>
<polygon fill="none" stroke="#000000" points="247.5,-205.7 247.5,-227.7 373.5,-227.7 373.5,-205.7 247.5,-205.7"/>
<image xlink:href="../../images/primaryKeys.png" width="11px" height="12px" preserveAspectRatio="xMinYMin meet" x="252.5" y="-222.7"/>
<text text-anchor="start" x="271.5" y="-212.8" font-family="Helvetica,sans-Serif" font-size="11.00" fill="#000000">gym_id</text>
<polygon fill="none" stroke="#000000" points="247.5,-183.7 247.5,-205.7 373.5,-205.7 373.5,-183.7 247.5,-183.7"/>
<image xlink:href="../../images/primaryKeys.png" width="11px" height="12px" preserveAspectRatio="xMinYMin meet" x="252.5" y="-200.7"/>
<text text-anchor="start" x="271.5" y="-190.8" font-family="Helvetica,sans-Serif" font-size="11.00" fill="#000000">user_id</text>
<polygon fill="#ffffff" stroke="transparent" points="247.5,-164.7 247.5,-183.7 291.5,-183.7 291.5,-164.7 247.5,-164.7"/>
<polygon fill="none" stroke="#000000" points="247.5,-164.7 247.5,-183.7 291.5,-183.7 291.5,-164.7 247.5,-164.7"/>
<text text-anchor="start" x="250.5" y="-170.8" font-family="Helvetica,sans-Serif" font-size="11.00" fill="#000000">&lt; 2</text>
<polygon fill="#ffffff" stroke="transparent" points="291.5,-164.7 291.5,-183.7 340.5,-183.7 340.5,-164.7 291.5,-164.7"/>
<polygon fill="none" stroke="#000000" points="291.5,-164.7 291.5,-183.7 340.5,-183.7 340.5,-164.7 291.5,-164.7"/>
<text text-anchor="start" x="305.1105" y="-170.8" font-family="Helvetica,sans-Serif" font-size="11.00" fill="#000000">0 rows</text>
<polygon fill="#ffffff" stroke="transparent" points="340.5,-164.7 340.5,-183.7 373.5,-183.7 373.5,-164.7 340.5,-164.7"/>
<polygon fill="none" stroke="#000000" points="340.5,-164.7 340.5,-183.7 373.5,-183.7 373.5,-164.7 340.5,-164.7"/>
<text text-anchor="start" x="354.9053" y="-170.8" font-family="Helvetica,sans-Serif" font-size="11.00" fill="#000000">2 &gt;</text>
</a>
</g>
</g>
<!-- gyms_has_users&#45;&gt;gyms -->
<g id="edge3" class="edge">
<title>gyms_has_users:w&#45;&gt;gyms:e</title>
<path fill="none" stroke="#000000" d="M233.5124,-220.4397C214.6696,-232.3628 217.3583,-268.7 188,-268.7"/>
<polygon fill="#000000" stroke="#000000" points="239.7715,-218.7663 248.4299,-220.1778 243.6357,-217.7332 247.5,-216.7 247.5,-216.7 247.5,-216.7 243.6357,-217.7332 246.5701,-213.2222 239.7715,-218.7663 239.7715,-218.7663"/>
<ellipse fill="none" stroke="#000000" cx="236.68" cy="-219.5929" rx="3.2" ry="3.2"/>
</g>
<!-- skill_lists -->
<g id="node5" class="node">
<title>skill_lists</title>
<g id="a_node5"><a xlink:href="../../tables/skill_lists.html" xlink:title="skill_lists" target="_top">
<polygon fill="#ffffff" stroke="transparent" points="267.5,-38.2 267.5,-143.2 353.5,-143.2 353.5,-38.2 267.5,-38.2"/>
<polygon fill="#f5f5f5" stroke="transparent" points="267.5,-119.7 267.5,-142.7 353.5,-142.7 353.5,-119.7 267.5,-119.7"/>
<polygon fill="none" stroke="#000000" points="267.5,-119.7 267.5,-142.7 353.5,-142.7 353.5,-119.7 267.5,-119.7"/>
<text text-anchor="start" x="272.3119" y="-128.8" font-family="Helvetica,sans-Serif" font-weight="bold" font-size="11.00" fill="#000000">skill_lists</text>
<text text-anchor="start" x="319.0219" y="-127.8" font-family="Helvetica,sans-Serif" font-size="11.00" fill="#000000">[table]</text>
<polygon fill="none" stroke="#000000" points="267.5,-97.7 267.5,-119.7 353.5,-119.7 353.5,-97.7 267.5,-97.7"/>
<image xlink:href="../../images/primaryKeys.png" width="11px" height="12px" preserveAspectRatio="xMinYMin meet" x="272.5" y="-114.7"/>
<text text-anchor="start" x="288.5" y="-104.8" font-family="Helvetica,sans-Serif" font-size="11.00" fill="#000000">id</text>
<polygon fill="#ffffff" stroke="transparent" points="267.5,-75.7 267.5,-97.7 353.5,-97.7 353.5,-75.7 267.5,-75.7"/>
<polygon fill="none" stroke="#000000" points="267.5,-75.7 267.5,-97.7 353.5,-97.7 353.5,-75.7 267.5,-75.7"/>
<image xlink:href="../../images/foreignKeys.png" width="11px" height="12px" preserveAspectRatio="xMinYMin meet" x="272.5" y="-92.7"/>
<text text-anchor="start" x="288.5" y="-82.8" font-family="Helvetica,sans-Serif" font-size="11.00" fill="#000000">gym_id</text>
<polygon fill="none" stroke="#000000" points="267.5,-56.7 267.5,-75.7 353.5,-75.7 353.5,-56.7 267.5,-56.7"/>
<text text-anchor="start" x="270.5" y="-62.8" font-family="Helvetica,sans-Serif" font-size="11.00" fill="#000000">...</text>
<polygon fill="#ffffff" stroke="transparent" points="267.5,-37.7 267.5,-56.7 291.5,-56.7 291.5,-37.7 267.5,-37.7"/>
<polygon fill="none" stroke="#000000" points="267.5,-37.7 267.5,-56.7 291.5,-56.7 291.5,-37.7 267.5,-37.7"/>
<text text-anchor="start" x="270.5" y="-43.8" font-family="Helvetica,sans-Serif" font-size="11.00" fill="#000000">&lt; 1</text>
<polygon fill="#ffffff" stroke="transparent" points="291.5,-37.7 291.5,-56.7 330.5,-56.7 330.5,-37.7 291.5,-37.7"/>
<polygon fill="none" stroke="#000000" points="291.5,-37.7 291.5,-56.7 330.5,-56.7 330.5,-37.7 291.5,-37.7"/>
<text text-anchor="start" x="295.1105" y="-43.8" font-family="Helvetica,sans-Serif" font-size="11.00" fill="#000000">0 rows</text>
<polygon fill="#ffffff" stroke="transparent" points="330.5,-37.7 330.5,-56.7 353.5,-56.7 353.5,-37.7 330.5,-37.7"/>
<polygon fill="none" stroke="#000000" points="330.5,-37.7 330.5,-56.7 353.5,-56.7 353.5,-37.7 330.5,-37.7"/>
<text text-anchor="start" x="334.9053" y="-43.8" font-family="Helvetica,sans-Serif" font-size="11.00" fill="#000000">2 &gt;</text>
</a>
</g>
</g>
<!-- skill_lists&#45;&gt;gyms -->
<g id="edge4" class="edge">
<title>skill_lists:w&#45;&gt;gyms:e</title>
<path fill="none" stroke="#000000" d="M253.0306,-88.7439C190.6367,-108.7391 270.7524,-268.7 188,-268.7"/>
<polygon fill="#000000" stroke="#000000" points="259.5786,-87.819 268.0036,-90.2646 263.5393,-87.2595 267.5,-86.7 267.5,-86.7 267.5,-86.7 263.5393,-87.2595 266.9964,-83.1354 259.5786,-87.819 259.5786,-87.819"/>
<ellipse fill="none" stroke="#000000" cx="256.4101" cy="-88.2666" rx="3.2" ry="3.2"/>
</g>
</g>
</svg>
