<?xml version="1.0" encoding="UTF-8" standalone="no"?>
<!DOCTYPE svg PUBLIC "-//W3C//DTD SVG 1.1//EN"
 "http://www.w3.org/Graphics/SVG/1.1/DTD/svg11.dtd">
<!-- Generated by graphviz version 2.40.1 (20161225.0304)
 -->
<!-- Title: oneDegreeRelationshipsDiagram Pages: 1 -->
<svg width="538pt" height="259pt"
 viewBox="0.00 0.00 538.00 259.20" xmlns="http://www.w3.org/2000/svg" xmlns:xlink="http://www.w3.org/1999/xlink">
<g id="graph0" class="graph" transform="scale(1 1) rotate(0) translate(4 255.2)">
<title>oneDegreeRelationshipsDiagram</title>
<polygon fill="#ffffff" stroke="transparent" points="-4,4 -4,-255.2 534,-255.2 534,4 -4,4"/>
<text text-anchor="middle" x="72.4936" y="-7.3" font-family="Helvetica,sans-Serif" font-size="11.00" fill="#000000">Generated by SchemaSpy</text>
<!-- gymnasts -->
<g id="node1" class="node">
<title>gymnasts</title>
<g id="a_node1"><a xlink:href="../../tables/gymnasts.html" xlink:title="gymnasts" target="_top">
<polygon fill="#ffffff" stroke="transparent" points="348,-101.2 348,-228.2 522,-228.2 522,-101.2 348,-101.2"/>
<polygon fill="#f5f5f5" stroke="transparent" points="348,-204.7 348,-227.7 522,-227.7 522,-204.7 348,-204.7"/>
<polygon fill="none" stroke="#000000" points="348,-204.7 348,-227.7 522,-227.7 522,-204.7 348,-204.7"/>
<text text-anchor="start" x="353" y="-213.8" font-family="Helvetica,sans-Serif" font-weight="bold" font-size="11.00" fill="#000000">gymnasts</text>
<text text-anchor="start" x="487.0437" y="-212.8" font-family="Helvetica,sans-Serif" font-size="11.00" fill="#000000">[table]</text>
<polygon fill="none" stroke="#000000" points="348,-182.7 348,-204.7 522,-204.7 522,-182.7 348,-182.7"/>
<image xlink:href="../../images/primaryKeys.png" width="11px" height="12px" preserveAspectRatio="xMinYMin meet" x="353" y="-199.7"/>
<text text-anchor="start" x="368" y="-189.8" font-family="Helvetica,sans-Serif" font-size="11.00" fill="#000000">id</text>
<polygon fill="#ffffff" stroke="transparent" points="348,-160.7 348,-182.7 522,-182.7 522,-160.7 348,-160.7"/>
<polygon fill="none" stroke="#000000" points="348,-160.7 348,-182.7 522,-182.7 522,-160.7 348,-160.7"/>
<image xlink:href="../../images/foreignKeys.png" width="11px" height="12px" preserveAspectRatio="xMinYMin meet" x="353" y="-177.7"/>
<text text-anchor="start" x="368" y="-167.8" font-family="Helvetica,sans-Serif" font-size="11.00" fill="#000000">gyms_has_users_gyms_id</text>
<polygon fill="#ffffff" stroke="transparent" points="348,-138.7 348,-160.7 522,-160.7 522,-138.7 348,-138.7"/>
<polygon fill="none" stroke="#000000" points="348,-138.7 348,-160.7 522,-160.7 522,-138.7 348,-138.7"/>
<image xlink:href="../../images/foreignKeys.png" width="11px" height="12px" preserveAspectRatio="xMinYMin meet" x="353" y="-155.7"/>
<text text-anchor="start" x="368" y="-145.8" font-family="Helvetica,sans-Serif" font-size="11.00" fill="#000000">gyms_has_users_users_id</text>
<polygon fill="none" stroke="#000000" points="348,-119.7 348,-138.7 522,-138.7 522,-119.7 348,-119.7"/>
<text text-anchor="start" x="351" y="-125.8" font-family="Helvetica,sans-Serif" font-size="11.00" fill="#000000">...</text>
<polygon fill="#ffffff" stroke="transparent" points="348,-100.7 348,-119.7 416,-119.7 416,-100.7 348,-100.7"/>
<polygon fill="none" stroke="#000000" points="348,-100.7 348,-119.7 416,-119.7 416,-100.7 348,-100.7"/>
<text text-anchor="start" x="351" y="-106.8" font-family="Helvetica,sans-Serif" font-size="11.00" fill="#000000">&lt; 2</text>
<polygon fill="#ffffff" stroke="transparent" points="416,-100.7 416,-119.7 477,-119.7 477,-100.7 416,-100.7"/>
<polygon fill="none" stroke="#000000" points="416,-100.7 416,-119.7 477,-119.7 477,-100.7 416,-100.7"/>
<text text-anchor="start" x="441.6105" y="-106.8" font-family="Helvetica,sans-Serif" font-size="11.00" fill="#000000">0 rows</text>
<polygon fill="#ffffff" stroke="transparent" points="477,-100.7 477,-119.7 522,-119.7 522,-100.7 477,-100.7"/>
<polygon fill="none" stroke="#000000" points="477,-100.7 477,-119.7 522,-119.7 522,-100.7 477,-100.7"/>
<text text-anchor="start" x="503.4053" y="-106.8" font-family="Helvetica,sans-Serif" font-size="11.00" fill="#000000">4 &gt;</text>
</a>
</g>
</g>
<!-- gyms_has_users -->
<g id="node2" class="node">
<title>gyms_has_users</title>
<g id="a_node2"><a xlink:href="../../tables/gyms_has_users.html" xlink:title="gyms_has_users" target="_top">
<polygon fill="#ffffff" stroke="transparent" points="142,-117.7 142,-207.7 299,-207.7 299,-117.7 142,-117.7"/>
<polygon fill="#f5f5f5" stroke="transparent" points="144.5,-182.7 144.5,-205.7 297.5,-205.7 297.5,-182.7 144.5,-182.7"/>
<polygon fill="none" stroke="#000000" points="144.5,-182.7 144.5,-205.7 297.5,-205.7 297.5,-182.7 144.5,-182.7"/>
<text text-anchor="start" x="149.5" y="-191.8" font-family="Helvetica,sans-Serif" font-weight="bold" font-size="11.00" fill="#000000">gyms_has_users</text>
<text text-anchor="start" x="262.5437" y="-190.8" font-family="Helvetica,sans-Serif" font-size="11.00" fill="#000000">[table]</text>
<polygon fill="none" stroke="#000000" points="144.5,-160.7 144.5,-182.7 262.5,-182.7 262.5,-160.7 144.5,-160.7"/>
<image xlink:href="../../images/primaryKeys.png" width="11px" height="12px" preserveAspectRatio="xMinYMin meet" x="149.5" y="-177.7"/>
<text text-anchor="start" x="164.5" y="-167.8" font-family="Helvetica,sans-Serif" font-size="11.00" fill="#000000">gyms_id</text>
<polygon fill="none" stroke="#000000" points="262.5,-160.7 262.5,-182.7 297.5,-182.7 297.5,-160.7 262.5,-160.7"/>
<text text-anchor="start" x="265.0219" y="-168.4" font-family="Helvetica,sans-Serif" font-size="11.00" fill="#000000">int[10]</text>
<polygon fill="none" stroke="#000000" points="144.5,-138.7 144.5,-160.7 262.5,-160.7 262.5,-138.7 144.5,-138.7"/>
<image xlink:href="../../images/primaryKeys.png" width="11px" height="12px" preserveAspectRatio="xMinYMin meet" x="149.5" y="-155.7"/>
<text text-anchor="start" x="164.5" y="-145.8" font-family="Helvetica,sans-Serif" font-size="11.00" fill="#000000">users_id</text>
<polygon fill="none" stroke="#000000" points="262.5,-138.7 262.5,-160.7 297.5,-160.7 297.5,-138.7 262.5,-138.7"/>
<text text-anchor="start" x="265.0219" y="-146.4" font-family="Helvetica,sans-Serif" font-size="11.00" fill="#000000">int[10]</text>
<polygon fill="#ffffff" stroke="transparent" points="144.5,-119.7 144.5,-138.7 194.5,-138.7 194.5,-119.7 144.5,-119.7"/>
<polygon fill="none" stroke="#000000" points="144.5,-119.7 144.5,-138.7 194.5,-138.7 194.5,-119.7 144.5,-119.7"/>
<text text-anchor="start" x="147.5" y="-125.8" font-family="Helvetica,sans-Serif" font-size="11.00" fill="#000000">&lt; 2</text>
<polygon fill="#ffffff" stroke="transparent" points="194.5,-119.7 194.5,-138.7 262.5,-138.7 262.5,-119.7 194.5,-119.7"/>
<polygon fill="none" stroke="#000000" points="194.5,-119.7 194.5,-138.7 262.5,-138.7 262.5,-119.7 194.5,-119.7"/>
<text text-anchor="start" x="227.1105" y="-125.8" font-family="Helvetica,sans-Serif" font-size="11.00" fill="#000000">0 rows</text>
<polygon fill="#ffffff" stroke="transparent" points="262.5,-119.7 262.5,-138.7 297.5,-138.7 297.5,-119.7 262.5,-119.7"/>
<polygon fill="none" stroke="#000000" points="262.5,-119.7 262.5,-138.7 297.5,-138.7 297.5,-119.7 262.5,-119.7"/>
<text text-anchor="start" x="278.9053" y="-125.8" font-family="Helvetica,sans-Serif" font-size="11.00" fill="#000000">2 &gt;</text>
<polygon fill="none" stroke="#000000" stroke-width="2" points="143,-118.7 143,-206.7 298,-206.7 298,-118.7 143,-118.7"/>
</a>
</g>
</g>
<!-- gymnasts&#45;&gt;gyms_has_users -->
<g id="edge1" class="edge">
<title>gymnasts:w&#45;&gt;gyms_has_users:e</title>
<path fill="none" stroke="#000000" d="M333.4203,-171.7C321.5435,-171.7 314.158,-171.7 297.5,-171.7"/>
<polygon fill="#000000" stroke="#000000" points="340,-171.7001 348,-175.3 344,-171.7 348,-171.7 348,-171.7 348,-171.7 344,-171.7 348,-168.1 340,-171.7001 340,-171.7001"/>
<ellipse fill="none" stroke="#000000" cx="336.8" cy="-171.7001" rx="3.2" ry="3.2"/>
</g>
<!-- gymnasts&#45;&gt;gyms_has_users -->
<g id="edge2" class="edge">
<title>gymnasts:w&#45;&gt;gyms_has_users:e</title>
<path fill="none" stroke="#000000" d="M333.4203,-149.7C321.5435,-149.7 314.158,-149.7 297.5,-149.7"/>
<polygon fill="#000000" stroke="#000000" points="340,-149.7001 348,-153.3 344,-149.7 348,-149.7 348,-149.7 348,-149.7 344,-149.7 348,-146.1 340,-149.7001 340,-149.7001"/>
<ellipse fill="none" stroke="#000000" cx="336.8" cy="-149.7001" rx="3.2" ry="3.2"/>
</g>
<!-- gyms -->
<g id="node3" class="node">
<title>gyms</title>
<g id="a_node3"><a xlink:href="../../tables/gyms.html" xlink:title="gyms" target="_top">
<polygon fill="#ffffff" stroke="transparent" points="8,-164.2 8,-247.2 93,-247.2 93,-164.2 8,-164.2"/>
<polygon fill="#f5f5f5" stroke="transparent" points="8.5,-223.7 8.5,-246.7 93.5,-246.7 93.5,-223.7 8.5,-223.7"/>
<polygon fill="none" stroke="#000000" points="8.5,-223.7 8.5,-246.7 93.5,-246.7 93.5,-223.7 8.5,-223.7"/>
<text text-anchor="start" x="13.5" y="-232.8" font-family="Helvetica,sans-Serif" font-weight="bold" font-size="11.00" fill="#000000">gyms</text>
<text text-anchor="start" x="58.5437" y="-231.8" font-family="Helvetica,sans-Serif" font-size="11.00" fill="#000000">[table]</text>
<polygon fill="none" stroke="#000000" points="8.5,-201.7 8.5,-223.7 93.5,-223.7 93.5,-201.7 8.5,-201.7"/>
<image xlink:href="../../images/primaryKeys.png" width="11px" height="12px" preserveAspectRatio="xMinYMin meet" x="13.5" y="-218.7"/>
<text text-anchor="start" x="28.5" y="-208.8" font-family="Helvetica,sans-Serif" font-size="11.00" fill="#000000">id</text>
<polygon fill="none" stroke="#000000" points="8.5,-182.7 8.5,-201.7 93.5,-201.7 93.5,-182.7 8.5,-182.7"/>
<text text-anchor="start" x="11.5" y="-188.8" font-family="Helvetica,sans-Serif" font-size="11.00" fill="#000000">...</text>
<polygon fill="#ffffff" stroke="transparent" points="8.5,-163.7 8.5,-182.7 27.5,-182.7 27.5,-163.7 8.5,-163.7"/>
<polygon fill="none" stroke="#000000" points="8.5,-163.7 8.5,-182.7 27.5,-182.7 27.5,-163.7 8.5,-163.7"/>
<text text-anchor="start" x="11.5" y="-169.8" font-family="Helvetica,sans-Serif" font-size="11.00" fill="#000000"> &#160;</text>
<polygon fill="#ffffff" stroke="transparent" points="27.5,-163.7 27.5,-182.7 68.5,-182.7 68.5,-163.7 27.5,-163.7"/>
<polygon fill="none" stroke="#000000" points="27.5,-163.7 27.5,-182.7 68.5,-182.7 68.5,-163.7 27.5,-163.7"/>
<text text-anchor="start" x="33.1105" y="-169.8" font-family="Helvetica,sans-Serif" font-size="11.00" fill="#000000">0 rows</text>
<polygon fill="#ffffff" stroke="transparent" points="68.5,-163.7 68.5,-182.7 93.5,-182.7 93.5,-163.7 68.5,-163.7"/>
<polygon fill="none" stroke="#000000" points="68.5,-163.7 68.5,-182.7 93.5,-182.7 93.5,-163.7 68.5,-163.7"/>
<text text-anchor="start" x="74.9053" y="-169.8" font-family="Helvetica,sans-Serif" font-size="11.00" fill="#000000">1 &gt;</text>
</a>
</g>
</g>
<!-- gyms_has_users&#45;&gt;gyms -->
<g id="edge3" class="edge">
<title>gyms_has_users:w&#45;&gt;gyms:e</title>
<path fill="none" stroke="#000000" d="M130.6568,-176.0877C116.8325,-186.6646 116.6756,-212.7 93.5,-212.7"/>
<polygon fill="#000000" stroke="#000000" points="136.8739,-174.1172 145.5877,-175.1317 140.6869,-172.9086 144.5,-171.7 144.5,-171.7 144.5,-171.7 140.6869,-172.9086 143.4123,-168.2683 136.8739,-174.1172 136.8739,-174.1172"/>
<ellipse fill="none" stroke="#000000" cx="133.8235" cy="-175.0841" rx="3.2" ry="3.2"/>
</g>
<!-- users -->
<g id="node4" class="node">
<title>users</title>
<g id="a_node4"><a xlink:href="../../tables/users.html" xlink:title="users" target="_top">
<polygon fill="#ffffff" stroke="transparent" points="8,-38.2 8,-143.2 93,-143.2 93,-38.2 8,-38.2"/>
<polygon fill="#f5f5f5" stroke="transparent" points="8.5,-119.7 8.5,-142.7 93.5,-142.7 93.5,-119.7 8.5,-119.7"/>
<polygon fill="none" stroke="#000000" points="8.5,-119.7 8.5,-142.7 93.5,-142.7 93.5,-119.7 8.5,-119.7"/>
<text text-anchor="start" x="13.5" y="-128.8" font-family="Helvetica,sans-Serif" font-weight="bold" font-size="11.00" fill="#000000">users</text>
<text text-anchor="start" x="58.5437" y="-127.8" font-family="Helvetica,sans-Serif" font-size="11.00" fill="#000000">[table]</text>
<polygon fill="none" stroke="#000000" points="8.5,-97.7 8.5,-119.7 93.5,-119.7 93.5,-97.7 8.5,-97.7"/>
<image xlink:href="../../images/primaryKeys.png" width="11px" height="12px" preserveAspectRatio="xMinYMin meet" x="13.5" y="-114.7"/>
<text text-anchor="start" x="28.5" y="-104.8" font-family="Helvetica,sans-Serif" font-size="11.00" fill="#000000">id</text>
<polygon fill="#ffffff" stroke="transparent" points="8.5,-75.7 8.5,-97.7 93.5,-97.7 93.5,-75.7 8.5,-75.7"/>
<polygon fill="none" stroke="#000000" points="8.5,-75.7 8.5,-97.7 93.5,-97.7 93.5,-75.7 8.5,-75.7"/>
<text text-anchor="start" x="28.5" y="-82.8" font-family="Helvetica,sans-Serif" font-size="11.00" fill="#000000">email</text>
<polygon fill="none" stroke="#000000" points="8.5,-56.7 8.5,-75.7 93.5,-75.7 93.5,-56.7 8.5,-56.7"/>
<text text-anchor="start" x="11.5" y="-62.8" font-family="Helvetica,sans-Serif" font-size="11.00" fill="#000000">...</text>
<polygon fill="#ffffff" stroke="transparent" points="8.5,-37.7 8.5,-56.7 27.5,-56.7 27.5,-37.7 8.5,-37.7"/>
<polygon fill="none" stroke="#000000" points="8.5,-37.7 8.5,-56.7 27.5,-56.7 27.5,-37.7 8.5,-37.7"/>
<text text-anchor="start" x="11.5" y="-43.8" font-family="Helvetica,sans-Serif" font-size="11.00" fill="#000000"> &#160;</text>
<polygon fill="#ffffff" stroke="transparent" points="27.5,-37.7 27.5,-56.7 68.5,-56.7 68.5,-37.7 27.5,-37.7"/>
<polygon fill="none" stroke="#000000" points="27.5,-37.7 27.5,-56.7 68.5,-56.7 68.5,-37.7 27.5,-37.7"/>
<text text-anchor="start" x="33.1105" y="-43.8" font-family="Helvetica,sans-Serif" font-size="11.00" fill="#000000">0 rows</text>
<polygon fill="#ffffff" stroke="transparent" points="68.5,-37.7 68.5,-56.7 93.5,-56.7 93.5,-37.7 68.5,-37.7"/>
<polygon fill="none" stroke="#000000" points="68.5,-37.7 68.5,-56.7 93.5,-56.7 93.5,-37.7 68.5,-37.7"/>
<text text-anchor="start" x="74.9053" y="-43.8" font-family="Helvetica,sans-Serif" font-size="11.00" fill="#000000">2 &gt;</text>
</a>
</g>
</g>
<!-- gyms_has_users&#45;&gt;users -->
<g id="edge4" class="edge">
<title>gyms_has_users:w&#45;&gt;users:e</title>
<path fill="none" stroke="#000000" d="M130.6568,-145.3123C116.8325,-134.7354 116.6756,-108.7 93.5,-108.7"/>
<polygon fill="#000000" stroke="#000000" points="136.8739,-147.2828 143.4123,-153.1317 140.6869,-148.4914 144.5,-149.7 144.5,-149.7 144.5,-149.7 140.6869,-148.4914 145.5877,-146.2683 136.8739,-147.2828 136.8739,-147.2828"/>
<ellipse fill="none" stroke="#000000" cx="133.8235" cy="-146.3159" rx="3.2" ry="3.2"/>
</g>
</g>
</svg>
