<?xml version="1.0" encoding="UTF-8" standalone="no"?>
<!DOCTYPE svg PUBLIC "-//W3C//DTD SVG 1.1//EN"
 "http://www.w3.org/Graphics/SVG/1.1/DTD/svg11.dtd">
<!-- Generated by graphviz version 2.40.1 (20161225.0304)
 -->
<!-- Title: twoDegreesRelationshipsDiagram Pages: 1 -->
<svg width="709pt" height="455pt"
 viewBox="0.00 0.00 709.00 455.20" xmlns="http://www.w3.org/2000/svg" xmlns:xlink="http://www.w3.org/1999/xlink">
<g id="graph0" class="graph" transform="scale(1 1) rotate(0) translate(4 451.2)">
<title>twoDegreesRelationshipsDiagram</title>
<polygon fill="#ffffff" stroke="transparent" points="-4,4 -4,-451.2 705,-451.2 705,4 -4,4"/>
<text text-anchor="middle" x="72.4936" y="-7.3" font-family="Helvetica,sans-Serif" font-size="11.00" fill="#000000">Generated by SchemaSpy</text>
<!-- events -->
<g id="node1" class="node">
<title>events</title>
<g id="a_node1"><a xlink:href="../../tables/events.html" xlink:title="events" target="_top">
<polygon fill="#ffffff" stroke="transparent" points="259.5,-338.2 259.5,-443.2 344.5,-443.2 344.5,-338.2 259.5,-338.2"/>
<polygon fill="#f5f5f5" stroke="transparent" points="260,-419.7 260,-442.7 345,-442.7 345,-419.7 260,-419.7"/>
<polygon fill="none" stroke="#000000" points="260,-419.7 260,-442.7 345,-442.7 345,-419.7 260,-419.7"/>
<text text-anchor="start" x="265" y="-428.8" font-family="Helvetica,sans-Serif" font-weight="bold" font-size="11.00" fill="#000000">events</text>
<text text-anchor="start" x="310.0437" y="-427.8" font-family="Helvetica,sans-Serif" font-size="11.00" fill="#000000">[table]</text>
<polygon fill="none" stroke="#000000" points="260,-397.7 260,-419.7 345,-419.7 345,-397.7 260,-397.7"/>
<image xlink:href="../../images/primaryKeys.png" width="11px" height="12px" preserveAspectRatio="xMinYMin meet" x="265" y="-414.7"/>
<text text-anchor="start" x="280" y="-404.8" font-family="Helvetica,sans-Serif" font-size="11.00" fill="#000000">id</text>
<polygon fill="#ffffff" stroke="transparent" points="260,-375.7 260,-397.7 345,-397.7 345,-375.7 260,-375.7"/>
<polygon fill="none" stroke="#000000" points="260,-375.7 260,-397.7 345,-397.7 345,-375.7 260,-375.7"/>
<image xlink:href="../../images/foreignKeys.png" width="11px" height="12px" preserveAspectRatio="xMinYMin meet" x="265" y="-392.7"/>
<text text-anchor="start" x="280" y="-382.8" font-family="Helvetica,sans-Serif" font-size="11.00" fill="#000000">gym_id</text>
<polygon fill="none" stroke="#000000" points="260,-356.7 260,-375.7 345,-375.7 345,-356.7 260,-356.7"/>
<text text-anchor="start" x="263" y="-362.8" font-family="Helvetica,sans-Serif" font-size="11.00" fill="#000000">...</text>
<polygon fill="#ffffff" stroke="transparent" points="260,-337.7 260,-356.7 283,-356.7 283,-337.7 260,-337.7"/>
<polygon fill="none" stroke="#000000" points="260,-337.7 260,-356.7 283,-356.7 283,-337.7 260,-337.7"/>
<text text-anchor="start" x="263" y="-343.8" font-family="Helvetica,sans-Serif" font-size="11.00" fill="#000000">&lt; 1</text>
<polygon fill="#ffffff" stroke="transparent" points="283,-337.7 283,-356.7 322,-356.7 322,-337.7 283,-337.7"/>
<polygon fill="none" stroke="#000000" points="283,-337.7 283,-356.7 322,-356.7 322,-337.7 283,-337.7"/>
<text text-anchor="start" x="286.6105" y="-343.8" font-family="Helvetica,sans-Serif" font-size="11.00" fill="#000000">0 rows</text>
<polygon fill="#ffffff" stroke="transparent" points="322,-337.7 322,-356.7 345,-356.7 345,-337.7 322,-337.7"/>
<polygon fill="none" stroke="#000000" points="322,-337.7 322,-356.7 345,-356.7 345,-337.7 322,-337.7"/>
<text text-anchor="start" x="326.4053" y="-343.8" font-family="Helvetica,sans-Serif" font-size="11.00" fill="#000000">1 &gt;</text>
</a>
</g>
</g>
<!-- gyms -->
<g id="node2" class="node">
<title>gyms</title>
<g id="a_node2"><a xlink:href="../../tables/gyms.html" xlink:title="gyms" target="_top">
<polygon fill="#ffffff" stroke="transparent" points="8,-120.7 8,-320.7 190,-320.7 190,-120.7 8,-120.7"/>
<polygon fill="#f5f5f5" stroke="transparent" points="10,-295.7 10,-318.7 188,-318.7 188,-295.7 10,-295.7"/>
<polygon fill="none" stroke="#000000" points="10,-295.7 10,-318.7 188,-318.7 188,-295.7 10,-295.7"/>
<text text-anchor="start" x="15" y="-304.8" font-family="Helvetica,sans-Serif" font-weight="bold" font-size="11.00" fill="#000000">gyms</text>
<text text-anchor="start" x="153.0437" y="-303.8" font-family="Helvetica,sans-Serif" font-size="11.00" fill="#000000">[table]</text>
<polygon fill="none" stroke="#000000" points="10,-273.7 10,-295.7 95,-295.7 95,-273.7 10,-273.7"/>
<image xlink:href="../../images/primaryKeys.png" width="11px" height="12px" preserveAspectRatio="xMinYMin meet" x="15" y="-290.7"/>
<text text-anchor="start" x="30" y="-280.8" font-family="Helvetica,sans-Serif" font-size="11.00" fill="#000000">id</text>
<polygon fill="none" stroke="#000000" points="95,-273.7 95,-295.7 188,-295.7 188,-273.7 95,-273.7"/>
<text text-anchor="start" x="98" y="-281.4" font-family="Helvetica,sans-Serif" font-size="11.00" fill="#000000">bigint[19]</text>
<polygon fill="none" stroke="#000000" points="10,-251.7 10,-273.7 95,-273.7 95,-251.7 10,-251.7"/>
<text text-anchor="start" x="30" y="-258.8" font-family="Helvetica,sans-Serif" font-size="11.00" fill="#000000">name</text>
<polygon fill="none" stroke="#000000" points="95,-251.7 95,-273.7 188,-273.7 188,-251.7 95,-251.7"/>
<text text-anchor="start" x="98" y="-259.4" font-family="Helvetica,sans-Serif" font-size="11.00" fill="#000000">varchar[45]</text>
<polygon fill="none" stroke="#000000" points="10,-229.7 10,-251.7 95,-251.7 95,-229.7 10,-229.7"/>
<text text-anchor="start" x="30" y="-236.8" font-family="Helvetica,sans-Serif" font-size="11.00" fill="#000000">description</text>
<polygon fill="none" stroke="#000000" points="95,-229.7 95,-251.7 188,-251.7 188,-229.7 95,-229.7"/>
<text text-anchor="start" x="98" y="-237.4" font-family="Helvetica,sans-Serif" font-size="11.00" fill="#000000">varchar[45]</text>
<polygon fill="none" stroke="#000000" points="10,-207.7 10,-229.7 95,-229.7 95,-207.7 10,-207.7"/>
<text text-anchor="start" x="30" y="-214.8" font-family="Helvetica,sans-Serif" font-size="11.00" fill="#000000">settings</text>
<polygon fill="none" stroke="#000000" points="95,-207.7 95,-229.7 188,-229.7 188,-207.7 95,-207.7"/>
<text text-anchor="start" x="97.7833" y="-215.4" font-family="Helvetica,sans-Serif" font-size="11.00" fill="#000000">json[1073741824]</text>
<polygon fill="none" stroke="#000000" points="10,-185.7 10,-207.7 95,-207.7 95,-185.7 10,-185.7"/>
<text text-anchor="start" x="30" y="-192.8" font-family="Helvetica,sans-Serif" font-size="11.00" fill="#000000">created_at</text>
<polygon fill="none" stroke="#000000" points="95,-185.7 95,-207.7 188,-207.7 188,-185.7 95,-185.7"/>
<text text-anchor="start" x="98" y="-193.4" font-family="Helvetica,sans-Serif" font-size="11.00" fill="#000000">timestamp[19]</text>
<polygon fill="none" stroke="#000000" points="10,-163.7 10,-185.7 95,-185.7 95,-163.7 10,-163.7"/>
<text text-anchor="start" x="30" y="-170.8" font-family="Helvetica,sans-Serif" font-size="11.00" fill="#000000">updated_at</text>
<polygon fill="none" stroke="#000000" points="95,-163.7 95,-185.7 188,-185.7 188,-163.7 95,-163.7"/>
<text text-anchor="start" x="98" y="-171.4" font-family="Helvetica,sans-Serif" font-size="11.00" fill="#000000">timestamp[19]</text>
<polygon fill="none" stroke="#000000" points="10,-141.7 10,-163.7 95,-163.7 95,-141.7 10,-141.7"/>
<text text-anchor="start" x="30" y="-148.8" font-family="Helvetica,sans-Serif" font-size="11.00" fill="#000000">deleted_at</text>
<polygon fill="none" stroke="#000000" points="95,-141.7 95,-163.7 188,-163.7 188,-141.7 95,-141.7"/>
<text text-anchor="start" x="98" y="-149.4" font-family="Helvetica,sans-Serif" font-size="11.00" fill="#000000">timestamp[19]</text>
<polygon fill="#ffffff" stroke="transparent" points="10,-122.7 10,-141.7 44,-141.7 44,-122.7 10,-122.7"/>
<polygon fill="none" stroke="#000000" points="10,-122.7 10,-141.7 44,-141.7 44,-122.7 10,-122.7"/>
<text text-anchor="start" x="13" y="-128.8" font-family="Helvetica,sans-Serif" font-size="11.00" fill="#000000">&lt; 0</text>
<polygon fill="#ffffff" stroke="transparent" points="44,-122.7 44,-141.7 95,-141.7 95,-122.7 44,-122.7"/>
<polygon fill="none" stroke="#000000" points="44,-122.7 44,-141.7 95,-141.7 95,-122.7 44,-122.7"/>
<text text-anchor="start" x="59.6105" y="-128.8" font-family="Helvetica,sans-Serif" font-size="11.00" fill="#000000">0 rows</text>
<polygon fill="#ffffff" stroke="transparent" points="95,-122.7 95,-141.7 188,-141.7 188,-122.7 95,-122.7"/>
<polygon fill="none" stroke="#000000" points="95,-122.7 95,-141.7 188,-141.7 188,-122.7 95,-122.7"/>
<text text-anchor="start" x="169.4053" y="-128.8" font-family="Helvetica,sans-Serif" font-size="11.00" fill="#000000">3 &gt;</text>
<polygon fill="none" stroke="#000000" stroke-width="2" points="9,-121.7 9,-319.7 189,-319.7 189,-121.7 9,-121.7"/>
</a>
</g>
</g>
<!-- events&#45;&gt;gyms -->
<g id="edge1" class="edge">
<title>events:w&#45;&gt;gyms:e</title>
<path fill="none" stroke="#000000" d="M245.8184,-383.7573C211.4535,-367.0334 237.8541,-284.7 188,-284.7"/>
<polygon fill="#000000" stroke="#000000" points="252.1669,-385.0746 259.2686,-390.2249 256.0834,-385.8873 260,-386.7 260,-386.7 260,-386.7 256.0834,-385.8873 260.7314,-383.1751 252.1669,-385.0746 252.1669,-385.0746"/>
<ellipse fill="none" stroke="#000000" cx="249.0336" cy="-384.4244" rx="3.2" ry="3.2"/>
</g>
<!-- gymnasts -->
<g id="node3" class="node">
<title>gymnasts</title>
<g id="a_node3"><a xlink:href="../../tables/gymnasts.html" xlink:title="gymnasts" target="_top">
<polygon fill="#ffffff" stroke="transparent" points="414,-72.2 414,-133.2 504,-133.2 504,-72.2 414,-72.2"/>
<polygon fill="#f5f5f5" stroke="transparent" points="414,-109.7 414,-132.7 504,-132.7 504,-109.7 414,-109.7"/>
<polygon fill="none" stroke="#000000" points="414,-109.7 414,-132.7 504,-132.7 504,-109.7 414,-109.7"/>
<text text-anchor="start" x="418.9683" y="-118.8" font-family="Helvetica,sans-Serif" font-weight="bold" font-size="11.00" fill="#000000">gymnasts</text>
<text text-anchor="start" x="469.5219" y="-117.8" font-family="Helvetica,sans-Serif" font-size="11.00" fill="#000000">[table]</text>
<polygon fill="none" stroke="#000000" points="414,-90.7 414,-109.7 504,-109.7 504,-90.7 414,-90.7"/>
<text text-anchor="start" x="417" y="-96.8" font-family="Helvetica,sans-Serif" font-size="11.00" fill="#000000">...</text>
<polygon fill="#ffffff" stroke="transparent" points="414,-71.7 414,-90.7 440,-90.7 440,-71.7 414,-71.7"/>
<polygon fill="none" stroke="#000000" points="414,-71.7 414,-90.7 440,-90.7 440,-71.7 414,-71.7"/>
<text text-anchor="start" x="417" y="-77.8" font-family="Helvetica,sans-Serif" font-size="11.00" fill="#000000">&lt; 2</text>
<polygon fill="#ffffff" stroke="transparent" points="440,-71.7 440,-90.7 480,-90.7 480,-71.7 440,-71.7"/>
<polygon fill="none" stroke="#000000" points="440,-71.7 440,-90.7 480,-90.7 480,-71.7 440,-71.7"/>
<text text-anchor="start" x="444.6105" y="-77.8" font-family="Helvetica,sans-Serif" font-size="11.00" fill="#000000">0 rows</text>
<polygon fill="#ffffff" stroke="transparent" points="480,-71.7 480,-90.7 504,-90.7 504,-71.7 480,-71.7"/>
<polygon fill="none" stroke="#000000" points="480,-71.7 480,-90.7 504,-90.7 504,-71.7 480,-71.7"/>
<text text-anchor="start" x="485.4053" y="-77.8" font-family="Helvetica,sans-Serif" font-size="11.00" fill="#000000">4 &gt;</text>
</a>
</g>
</g>
<!-- gyms_has_users -->
<g id="node4" class="node">
<title>gyms_has_users</title>
<g id="a_node4"><a xlink:href="../../tables/gyms_has_users.html" xlink:title="gyms_has_users" target="_top">
<polygon fill="#ffffff" stroke="transparent" points="239,-58.7 239,-144.7 365,-144.7 365,-58.7 239,-58.7"/>
<polygon fill="#f5f5f5" stroke="transparent" points="239,-121.7 239,-144.7 365,-144.7 365,-121.7 239,-121.7"/>
<polygon fill="none" stroke="#000000" points="239,-121.7 239,-144.7 365,-144.7 365,-121.7 239,-121.7"/>
<text text-anchor="start" x="243.936" y="-130.8" font-family="Helvetica,sans-Serif" font-weight="bold" font-size="11.00" fill="#000000">gyms_has_users</text>
<text text-anchor="start" x="330.5219" y="-129.8" font-family="Helvetica,sans-Serif" font-size="11.00" fill="#000000">[table]</text>
<polygon fill="none" stroke="#000000" points="239,-99.7 239,-121.7 365,-121.7 365,-99.7 239,-99.7"/>
<image xlink:href="../../images/primaryKeys.png" width="11px" height="12px" preserveAspectRatio="xMinYMin meet" x="244" y="-116.7"/>
<text text-anchor="start" x="263" y="-106.8" font-family="Helvetica,sans-Serif" font-size="11.00" fill="#000000">gym_id</text>
<polygon fill="none" stroke="#000000" points="239,-77.7 239,-99.7 365,-99.7 365,-77.7 239,-77.7"/>
<image xlink:href="../../images/primaryKeys.png" width="11px" height="12px" preserveAspectRatio="xMinYMin meet" x="244" y="-94.7"/>
<text text-anchor="start" x="263" y="-84.8" font-family="Helvetica,sans-Serif" font-size="11.00" fill="#000000">user_id</text>
<polygon fill="#ffffff" stroke="transparent" points="239,-58.7 239,-77.7 283,-77.7 283,-58.7 239,-58.7"/>
<polygon fill="none" stroke="#000000" points="239,-58.7 239,-77.7 283,-77.7 283,-58.7 239,-58.7"/>
<text text-anchor="start" x="242" y="-64.8" font-family="Helvetica,sans-Serif" font-size="11.00" fill="#000000">&lt; 2</text>
<polygon fill="#ffffff" stroke="transparent" points="283,-58.7 283,-77.7 332,-77.7 332,-58.7 283,-58.7"/>
<polygon fill="none" stroke="#000000" points="283,-58.7 283,-77.7 332,-77.7 332,-58.7 283,-58.7"/>
<text text-anchor="start" x="296.6105" y="-64.8" font-family="Helvetica,sans-Serif" font-size="11.00" fill="#000000">0 rows</text>
<polygon fill="#ffffff" stroke="transparent" points="332,-58.7 332,-77.7 365,-77.7 365,-58.7 332,-58.7"/>
<polygon fill="none" stroke="#000000" points="332,-58.7 332,-77.7 365,-77.7 365,-58.7 332,-58.7"/>
<text text-anchor="start" x="346.4053" y="-64.8" font-family="Helvetica,sans-Serif" font-size="11.00" fill="#000000">2 &gt;</text>
</a>
</g>
</g>
<!-- gymnasts&#45;&gt;gyms_has_users -->
<g id="edge2" class="edge">
<title>gymnasts:w&#45;&gt;gyms_has_users:e</title>
<path fill="none" stroke="#000000" d="M399.7027,-101.5164C388.2382,-104.6407 381.5655,-110.7 365,-110.7"/>
<polygon fill="#000000" stroke="#000000" points="406.0638,-100.7083 414.4537,-103.2713 410.0319,-100.2042 414,-99.7 414,-99.7 414,-99.7 410.0319,-100.2042 413.5463,-96.1287 406.0638,-100.7083 406.0638,-100.7083"/>
<ellipse fill="none" stroke="#000000" cx="402.8893" cy="-101.1116" rx="3.2" ry="3.2"/>
</g>
<!-- gymnasts&#45;&gt;gyms_has_users -->
<g id="edge3" class="edge">
<title>gymnasts:w&#45;&gt;gyms_has_users:e</title>
<path fill="none" stroke="#000000" d="M399.7027,-97.8836C388.2382,-94.7593 381.5655,-88.7 365,-88.7"/>
<polygon fill="#000000" stroke="#000000" points="406.0638,-98.6917 413.5463,-103.2713 410.0319,-99.1958 414,-99.7 414,-99.7 414,-99.7 410.0319,-99.1958 414.4537,-96.1287 406.0638,-98.6917 406.0638,-98.6917"/>
<ellipse fill="none" stroke="#000000" cx="402.8893" cy="-98.2884" rx="3.2" ry="3.2"/>
</g>
<!-- gyms_has_users&#45;&gt;gyms -->
<g id="edge4" class="edge">
<title>gyms_has_users:w&#45;&gt;gyms:e</title>
<path fill="none" stroke="#000000" d="M224.6979,-113.1597C172.9633,-134.3085 262.9205,-284.7 188,-284.7"/>
<polygon fill="#000000" stroke="#000000" points="231.1158,-112.056 239.6102,-114.2479 235.0579,-111.378 239,-110.7 239,-110.7 239,-110.7 235.0579,-111.378 238.3898,-107.1521 231.1158,-112.056 231.1158,-112.056"/>
<ellipse fill="none" stroke="#000000" cx="227.9621" cy="-112.5984" rx="3.2" ry="3.2"/>
</g>
<!-- users -->
<g id="node5" class="node">
<title>users</title>
<g id="a_node5"><a xlink:href="../../tables/users.html" xlink:title="users" target="_top">
<polygon fill="#ffffff" stroke="transparent" points="63.5,-38.2 63.5,-99.2 134.5,-99.2 134.5,-38.2 63.5,-38.2"/>
<polygon fill="#f5f5f5" stroke="transparent" points="64,-75.7 64,-98.7 135,-98.7 135,-75.7 64,-75.7"/>
<polygon fill="none" stroke="#000000" points="64,-75.7 64,-98.7 135,-98.7 135,-75.7 64,-75.7"/>
<text text-anchor="start" x="69" y="-84.8" font-family="Helvetica,sans-Serif" font-weight="bold" font-size="11.00" fill="#000000">users</text>
<text text-anchor="start" x="100.0437" y="-83.8" font-family="Helvetica,sans-Serif" font-size="11.00" fill="#000000">[table]</text>
<polygon fill="none" stroke="#000000" points="64,-56.7 64,-75.7 135,-75.7 135,-56.7 64,-56.7"/>
<text text-anchor="start" x="67" y="-62.8" font-family="Helvetica,sans-Serif" font-size="11.00" fill="#000000">...</text>
<polygon fill="#ffffff" stroke="transparent" points="64,-37.7 64,-56.7 76,-56.7 76,-37.7 64,-37.7"/>
<polygon fill="none" stroke="#000000" points="64,-37.7 64,-56.7 76,-56.7 76,-37.7 64,-37.7"/>
<text text-anchor="start" x="66.9431" y="-43.8" font-family="Helvetica,sans-Serif" font-size="11.00" fill="#000000"> &#160;</text>
<polygon fill="#ffffff" stroke="transparent" points="76,-37.7 76,-56.7 114,-56.7 114,-37.7 76,-37.7"/>
<polygon fill="none" stroke="#000000" points="76,-37.7 76,-56.7 114,-56.7 114,-37.7 76,-37.7"/>
<text text-anchor="start" x="78.8053" y="-43.8" font-family="Helvetica,sans-Serif" font-size="11.00" fill="#000000">0 rows</text>
<polygon fill="#ffffff" stroke="transparent" points="114,-37.7 114,-56.7 135,-56.7 135,-37.7 114,-37.7"/>
<polygon fill="none" stroke="#000000" points="114,-37.7 114,-56.7 135,-56.7 135,-37.7 114,-37.7"/>
<text text-anchor="start" x="116.7027" y="-43.8" font-family="Helvetica,sans-Serif" font-size="11.00" fill="#000000">2 &gt;</text>
</a>
</g>
</g>
<!-- gyms_has_users&#45;&gt;users -->
<g id="edge5" class="edge">
<title>gyms_has_users:w&#45;&gt;users:e</title>
<path fill="none" stroke="#000000" d="M224.2652,-87.8814C189.0611,-83.7842 176.9764,-65.7 135,-65.7"/>
<polygon fill="#000000" stroke="#000000" points="231.0123,-88.2562 238.8003,-92.2945 235.0062,-88.4781 239,-88.7 239,-88.7 239,-88.7 235.0062,-88.4781 239.1997,-85.1055 231.0123,-88.2562 231.0123,-88.2562"/>
<ellipse fill="none" stroke="#000000" cx="227.8172" cy="-88.0787" rx="3.2" ry="3.2"/>
</g>
<!-- skill_lists -->
<g id="node6" class="node">
<title>skill_lists</title>
<g id="a_node6"><a xlink:href="../../tables/skill_lists.html" xlink:title="skill_lists" target="_top">
<polygon fill="#ffffff" stroke="transparent" points="259,-212.2 259,-317.2 345,-317.2 345,-212.2 259,-212.2"/>
<polygon fill="#f5f5f5" stroke="transparent" points="259,-293.7 259,-316.7 345,-316.7 345,-293.7 259,-293.7"/>
<polygon fill="none" stroke="#000000" points="259,-293.7 259,-316.7 345,-316.7 345,-293.7 259,-293.7"/>
<text text-anchor="start" x="263.8119" y="-302.8" font-family="Helvetica,sans-Serif" font-weight="bold" font-size="11.00" fill="#000000">skill_lists</text>
<text text-anchor="start" x="310.5219" y="-301.8" font-family="Helvetica,sans-Serif" font-size="11.00" fill="#000000">[table]</text>
<polygon fill="none" stroke="#000000" points="259,-271.7 259,-293.7 345,-293.7 345,-271.7 259,-271.7"/>
<image xlink:href="../../images/primaryKeys.png" width="11px" height="12px" preserveAspectRatio="xMinYMin meet" x="264" y="-288.7"/>
<text text-anchor="start" x="280" y="-278.8" font-family="Helvetica,sans-Serif" font-size="11.00" fill="#000000">id</text>
<polygon fill="#ffffff" stroke="transparent" points="259,-249.7 259,-271.7 345,-271.7 345,-249.7 259,-249.7"/>
<polygon fill="none" stroke="#000000" points="259,-249.7 259,-271.7 345,-271.7 345,-249.7 259,-249.7"/>
<image xlink:href="../../images/foreignKeys.png" width="11px" height="12px" preserveAspectRatio="xMinYMin meet" x="264" y="-266.7"/>
<text text-anchor="start" x="280" y="-256.8" font-family="Helvetica,sans-Serif" font-size="11.00" fill="#000000">gym_id</text>
<polygon fill="none" stroke="#000000" points="259,-230.7 259,-249.7 345,-249.7 345,-230.7 259,-230.7"/>
<text text-anchor="start" x="262" y="-236.8" font-family="Helvetica,sans-Serif" font-size="11.00" fill="#000000">...</text>
<polygon fill="#ffffff" stroke="transparent" points="259,-211.7 259,-230.7 283,-230.7 283,-211.7 259,-211.7"/>
<polygon fill="none" stroke="#000000" points="259,-211.7 259,-230.7 283,-230.7 283,-211.7 259,-211.7"/>
<text text-anchor="start" x="262" y="-217.8" font-family="Helvetica,sans-Serif" font-size="11.00" fill="#000000">&lt; 1</text>
<polygon fill="#ffffff" stroke="transparent" points="283,-211.7 283,-230.7 322,-230.7 322,-211.7 283,-211.7"/>
<polygon fill="none" stroke="#000000" points="283,-211.7 283,-230.7 322,-230.7 322,-211.7 283,-211.7"/>
<text text-anchor="start" x="286.6105" y="-217.8" font-family="Helvetica,sans-Serif" font-size="11.00" fill="#000000">0 rows</text>
<polygon fill="#ffffff" stroke="transparent" points="322,-211.7 322,-230.7 345,-230.7 345,-211.7 322,-211.7"/>
<polygon fill="none" stroke="#000000" points="322,-211.7 322,-230.7 345,-230.7 345,-211.7 322,-211.7"/>
<text text-anchor="start" x="326.4053" y="-217.8" font-family="Helvetica,sans-Serif" font-size="11.00" fill="#000000">1 &gt;</text>
</a>
</g>
</g>
<!-- skill_lists&#45;&gt;gyms -->
<g id="edge6" class="edge">
<title>skill_lists:w&#45;&gt;gyms:e</title>
<path fill="none" stroke="#000000" d="M244.6859,-262.426C223.4743,-267.929 215.8448,-284.7 188,-284.7"/>
<polygon fill="#000000" stroke="#000000" points="251.0575,-261.6578 259.431,-264.2741 255.0288,-261.1789 259,-260.7 259,-260.7 259,-260.7 255.0288,-261.1789 258.569,-257.1259 251.0575,-261.6578 251.0575,-261.6578"/>
<ellipse fill="none" stroke="#000000" cx="247.8805" cy="-262.0409" rx="3.2" ry="3.2"/>
</g>
<!-- skill_lists_has_skills -->
<g id="node7" class="node">
<title>skill_lists_has_skills</title>
<g id="a_node7"><a xlink:href="../../tables/skill_lists_has_skills.html" xlink:title="skill_lists_has_skills" target="_top">
<polygon fill="#ffffff" stroke="transparent" points="553,-299.2 553,-360.2 693,-360.2 693,-299.2 553,-299.2"/>
<polygon fill="#f5f5f5" stroke="transparent" points="553,-336.7 553,-359.7 693,-359.7 693,-336.7 553,-336.7"/>
<polygon fill="none" stroke="#000000" points="553,-336.7 553,-359.7 693,-359.7 693,-336.7 553,-336.7"/>
<text text-anchor="start" x="557.9207" y="-345.8" font-family="Helvetica,sans-Serif" font-weight="bold" font-size="11.00" fill="#000000">skill_lists_has_skills</text>
<text text-anchor="start" x="658.5219" y="-344.8" font-family="Helvetica,sans-Serif" font-size="11.00" fill="#000000">[table]</text>
<polygon fill="none" stroke="#000000" points="553,-317.7 553,-336.7 693,-336.7 693,-317.7 553,-317.7"/>
<text text-anchor="start" x="556" y="-323.8" font-family="Helvetica,sans-Serif" font-size="11.00" fill="#000000">...</text>
<polygon fill="#ffffff" stroke="transparent" points="553,-298.7 553,-317.7 608,-317.7 608,-298.7 553,-298.7"/>
<polygon fill="none" stroke="#000000" points="553,-298.7 553,-317.7 608,-317.7 608,-298.7 553,-298.7"/>
<text text-anchor="start" x="556" y="-304.8" font-family="Helvetica,sans-Serif" font-size="11.00" fill="#000000">&lt; 2</text>
<polygon fill="#ffffff" stroke="transparent" points="608,-298.7 608,-317.7 663,-317.7 663,-298.7 608,-298.7"/>
<polygon fill="none" stroke="#000000" points="608,-298.7 608,-317.7 663,-317.7 663,-298.7 608,-298.7"/>
<text text-anchor="start" x="627.6105" y="-304.8" font-family="Helvetica,sans-Serif" font-size="11.00" fill="#000000">0 rows</text>
<polygon fill="#ffffff" stroke="transparent" points="663,-298.7 663,-317.7 693,-317.7 693,-298.7 663,-298.7"/>
<polygon fill="none" stroke="#000000" points="663,-298.7 663,-317.7 693,-317.7 693,-298.7 663,-298.7"/>
<text text-anchor="start" x="683.8862" y="-304.8" font-family="Helvetica,sans-Serif" font-size="11.00" fill="#000000"> &#160;</text>
</a>
</g>
</g>
<!-- skill_lists_has_skills&#45;&gt;skill_lists -->
<g id="edge8" class="edge">
<title>skill_lists_has_skills:w&#45;&gt;skill_lists:e</title>
<path fill="none" stroke="#000000" d="M538.4043,-326.3328C456.249,-322.1004 434.415,-282.7 345,-282.7"/>
<polygon fill="#000000" stroke="#000000" points="545.0025,-326.4988 552.9094,-330.2989 549.0013,-326.5994 553,-326.7 553,-326.7 553,-326.7 549.0013,-326.5994 553.0906,-323.1011 545.0025,-326.4988 545.0025,-326.4988"/>
<ellipse fill="none" stroke="#000000" cx="541.8035" cy="-326.4183" rx="3.2" ry="3.2"/>
</g>
<!-- skills -->
<g id="node8" class="node">
<title>skills</title>
<g id="a_node8"><a xlink:href="../../tables/skills.html" xlink:title="skills" target="_top">
<polygon fill="#ffffff" stroke="transparent" points="419,-362.2 419,-423.2 499,-423.2 499,-362.2 419,-362.2"/>
<polygon fill="#f5f5f5" stroke="transparent" points="419,-399.7 419,-422.7 499,-422.7 499,-399.7 419,-399.7"/>
<polygon fill="none" stroke="#000000" points="419,-399.7 419,-422.7 499,-422.7 499,-399.7 419,-399.7"/>
<text text-anchor="start" x="424" y="-408.8" font-family="Helvetica,sans-Serif" font-weight="bold" font-size="11.00" fill="#000000">skills</text>
<text text-anchor="start" x="464.0437" y="-407.8" font-family="Helvetica,sans-Serif" font-size="11.00" fill="#000000">[table]</text>
<polygon fill="none" stroke="#000000" points="419,-380.7 419,-399.7 499,-399.7 499,-380.7 419,-380.7"/>
<text text-anchor="start" x="422" y="-386.8" font-family="Helvetica,sans-Serif" font-size="11.00" fill="#000000">...</text>
<polygon fill="#ffffff" stroke="transparent" points="419,-361.7 419,-380.7 440,-380.7 440,-361.7 419,-361.7"/>
<polygon fill="none" stroke="#000000" points="419,-361.7 419,-380.7 440,-380.7 440,-361.7 419,-361.7"/>
<text text-anchor="start" x="421.7027" y="-367.8" font-family="Helvetica,sans-Serif" font-size="11.00" fill="#000000">&lt; 3</text>
<polygon fill="#ffffff" stroke="transparent" points="440,-361.7 440,-380.7 478,-380.7 478,-361.7 440,-361.7"/>
<polygon fill="none" stroke="#000000" points="440,-361.7 440,-380.7 478,-380.7 478,-361.7 440,-361.7"/>
<text text-anchor="start" x="442.8053" y="-367.8" font-family="Helvetica,sans-Serif" font-size="11.00" fill="#000000">0 rows</text>
<polygon fill="#ffffff" stroke="transparent" points="478,-361.7 478,-380.7 499,-380.7 499,-361.7 478,-361.7"/>
<polygon fill="none" stroke="#000000" points="478,-361.7 478,-380.7 499,-380.7 499,-361.7 478,-361.7"/>
<text text-anchor="start" x="480.7027" y="-367.8" font-family="Helvetica,sans-Serif" font-size="11.00" fill="#000000">2 &gt;</text>
</a>
</g>
</g>
<!-- skill_lists_has_skills&#45;&gt;skills -->
<g id="edge7" class="edge">
<title>skill_lists_has_skills:w&#45;&gt;skills:e</title>
<path fill="none" stroke="#000000" d="M538.922,-331.2308C521.08,-345.6761 529.8279,-389.7 499,-389.7"/>
<polygon fill="#000000" stroke="#000000" points="545.3847,-329.1509 554.1029,-330.1269 549.1923,-327.9255 553,-326.7 553,-326.7 553,-326.7 549.1923,-327.9255 551.8971,-323.2731 545.3847,-329.1509 545.3847,-329.1509"/>
<ellipse fill="none" stroke="#000000" cx="542.3385" cy="-330.1313" rx="3.2" ry="3.2"/>
</g>
<!-- skills&#45;&gt;events -->
<g id="edge9" class="edge">
<title>skills:w&#45;&gt;events:e</title>
<path fill="none" stroke="#000000" d="M404.6008,-391.0059C382.3793,-395.2986 373.5175,-408.7 345,-408.7"/>
<polygon fill="#000000" stroke="#000000" points="411.0327,-390.4226 419.3252,-393.2853 415.0164,-390.0613 419,-389.7 419,-389.7 419,-389.7 415.0164,-390.0613 418.6748,-386.1147 411.0327,-390.4226 411.0327,-390.4226"/>
<ellipse fill="none" stroke="#000000" cx="407.8458" cy="-390.7117" rx="3.2" ry="3.2"/>
</g>
</g>
</svg>
