<?xml version="1.0" encoding="UTF-8" standalone="no"?>
<!DOCTYPE svg PUBLIC "-//W3C//DTD SVG 1.1//EN"
 "http://www.w3.org/Graphics/SVG/1.1/DTD/svg11.dtd">
<!-- Generated by graphviz version 2.40.1 (20161225.0304)
 -->
<!-- Title: twoDegreesRelationshipsDiagram Pages: 1 -->
<svg width="779pt" height="405pt"
 viewBox="0.00 0.00 779.00 405.20" xmlns="http://www.w3.org/2000/svg" xmlns:xlink="http://www.w3.org/1999/xlink">
<g id="graph0" class="graph" transform="scale(1 1) rotate(0) translate(4 401.2)">
<title>twoDegreesRelationshipsDiagram</title>
<polygon fill="#ffffff" stroke="transparent" points="-4,4 -4,-401.2 775,-401.2 775,4 -4,4"/>
<text text-anchor="middle" x="72.4936" y="-7.3" font-family="Helvetica,sans-Serif" font-size="11.00" fill="#000000">Generated by SchemaSpy</text>
<!-- completed_daily_challenges -->
<g id="node1" class="node">
<title>completed_daily_challenges</title>
<g id="a_node1"><a xlink:href="../../tables/completed_daily_challenges.html" xlink:title="completed_daily_challenges" target="_top">
<polygon fill="#ffffff" stroke="transparent" points="576.5,-332.2 576.5,-393.2 757.5,-393.2 757.5,-332.2 576.5,-332.2"/>
<polygon fill="#f5f5f5" stroke="transparent" points="577,-369.7 577,-392.7 758,-392.7 758,-369.7 577,-369.7"/>
<polygon fill="none" stroke="#000000" points="577,-369.7 577,-392.7 758,-392.7 758,-369.7 577,-369.7"/>
<text text-anchor="start" x="581.9266" y="-378.8" font-family="Helvetica,sans-Serif" font-weight="bold" font-size="11.00" fill="#000000">completed_daily_challenges</text>
<text text-anchor="start" x="723.5219" y="-377.8" font-family="Helvetica,sans-Serif" font-size="11.00" fill="#000000">[table]</text>
<polygon fill="none" stroke="#000000" points="577,-350.7 577,-369.7 758,-369.7 758,-350.7 577,-350.7"/>
<text text-anchor="start" x="580" y="-356.8" font-family="Helvetica,sans-Serif" font-size="11.00" fill="#000000">...</text>
<polygon fill="#ffffff" stroke="transparent" points="577,-331.7 577,-350.7 653,-350.7 653,-331.7 577,-331.7"/>
<polygon fill="none" stroke="#000000" points="577,-331.7 577,-350.7 653,-350.7 653,-331.7 577,-331.7"/>
<text text-anchor="start" x="580" y="-337.8" font-family="Helvetica,sans-Serif" font-size="11.00" fill="#000000">&lt; 4</text>
<polygon fill="#ffffff" stroke="transparent" points="653,-331.7 653,-350.7 718,-350.7 718,-331.7 653,-331.7"/>
<polygon fill="none" stroke="#000000" points="653,-331.7 653,-350.7 718,-350.7 718,-331.7 653,-331.7"/>
<text text-anchor="start" x="682.6105" y="-337.8" font-family="Helvetica,sans-Serif" font-size="11.00" fill="#000000">0 rows</text>
<polygon fill="#ffffff" stroke="transparent" points="718,-331.7 718,-350.7 758,-350.7 758,-331.7 718,-331.7"/>
<polygon fill="none" stroke="#000000" points="718,-331.7 718,-350.7 758,-350.7 758,-331.7 718,-331.7"/>
<text text-anchor="start" x="748.8862" y="-337.8" font-family="Helvetica,sans-Serif" font-size="11.00" fill="#000000"> &#160;</text>
</a>
</g>
</g>
<!-- gymnasts -->
<g id="node2" class="node">
<title>gymnasts</title>
<g id="a_node2"><a xlink:href="../../tables/gymnasts.html" xlink:title="gymnasts" target="_top">
<polygon fill="#ffffff" stroke="transparent" points="348,-144.2 348,-271.2 522,-271.2 522,-144.2 348,-144.2"/>
<polygon fill="#f5f5f5" stroke="transparent" points="348,-247.7 348,-270.7 522,-270.7 522,-247.7 348,-247.7"/>
<polygon fill="none" stroke="#000000" points="348,-247.7 348,-270.7 522,-270.7 522,-247.7 348,-247.7"/>
<text text-anchor="start" x="353" y="-256.8" font-family="Helvetica,sans-Serif" font-weight="bold" font-size="11.00" fill="#000000">gymnasts</text>
<text text-anchor="start" x="487.0437" y="-255.8" font-family="Helvetica,sans-Serif" font-size="11.00" fill="#000000">[table]</text>
<polygon fill="none" stroke="#000000" points="348,-225.7 348,-247.7 522,-247.7 522,-225.7 348,-225.7"/>
<image xlink:href="../../images/primaryKeys.png" width="11px" height="12px" preserveAspectRatio="xMinYMin meet" x="353" y="-242.7"/>
<text text-anchor="start" x="368" y="-232.8" font-family="Helvetica,sans-Serif" font-size="11.00" fill="#000000">id</text>
<polygon fill="#ffffff" stroke="transparent" points="348,-203.7 348,-225.7 522,-225.7 522,-203.7 348,-203.7"/>
<polygon fill="none" stroke="#000000" points="348,-203.7 348,-225.7 522,-225.7 522,-203.7 348,-203.7"/>
<image xlink:href="../../images/foreignKeys.png" width="11px" height="12px" preserveAspectRatio="xMinYMin meet" x="353" y="-220.7"/>
<text text-anchor="start" x="368" y="-210.8" font-family="Helvetica,sans-Serif" font-size="11.00" fill="#000000">gyms_has_users_gyms_id</text>
<polygon fill="#ffffff" stroke="transparent" points="348,-181.7 348,-203.7 522,-203.7 522,-181.7 348,-181.7"/>
<polygon fill="none" stroke="#000000" points="348,-181.7 348,-203.7 522,-203.7 522,-181.7 348,-181.7"/>
<image xlink:href="../../images/foreignKeys.png" width="11px" height="12px" preserveAspectRatio="xMinYMin meet" x="353" y="-198.7"/>
<text text-anchor="start" x="368" y="-188.8" font-family="Helvetica,sans-Serif" font-size="11.00" fill="#000000">gyms_has_users_users_id</text>
<polygon fill="none" stroke="#000000" points="348,-162.7 348,-181.7 522,-181.7 522,-162.7 348,-162.7"/>
<text text-anchor="start" x="351" y="-168.8" font-family="Helvetica,sans-Serif" font-size="11.00" fill="#000000">...</text>
<polygon fill="#ffffff" stroke="transparent" points="348,-143.7 348,-162.7 416,-162.7 416,-143.7 348,-143.7"/>
<polygon fill="none" stroke="#000000" points="348,-143.7 348,-162.7 416,-162.7 416,-143.7 348,-143.7"/>
<text text-anchor="start" x="351" y="-149.8" font-family="Helvetica,sans-Serif" font-size="11.00" fill="#000000">&lt; 2</text>
<polygon fill="#ffffff" stroke="transparent" points="416,-143.7 416,-162.7 477,-162.7 477,-143.7 416,-143.7"/>
<polygon fill="none" stroke="#000000" points="416,-143.7 416,-162.7 477,-162.7 477,-143.7 416,-143.7"/>
<text text-anchor="start" x="441.6105" y="-149.8" font-family="Helvetica,sans-Serif" font-size="11.00" fill="#000000">0 rows</text>
<polygon fill="#ffffff" stroke="transparent" points="477,-143.7 477,-162.7 522,-162.7 522,-143.7 477,-143.7"/>
<polygon fill="none" stroke="#000000" points="477,-143.7 477,-162.7 522,-162.7 522,-143.7 477,-143.7"/>
<text text-anchor="start" x="503.4053" y="-149.8" font-family="Helvetica,sans-Serif" font-size="11.00" fill="#000000">4 &gt;</text>
</a>
</g>
</g>
<!-- completed_daily_challenges&#45;&gt;gymnasts -->
<g id="edge1" class="edge">
<title>completed_daily_challenges:w&#45;&gt;gymnasts:e</title>
<path fill="none" stroke="#000000" d="M562.7902,-356.41C528.5779,-336.8496 576.0351,-236.7 522,-236.7"/>
<polygon fill="#000000" stroke="#000000" points="569.2062,-357.8955 576.188,-363.2072 573.1031,-358.7977 577,-359.7 577,-359.7 577,-359.7 573.1031,-358.7977 577.812,-356.1928 569.2062,-357.8955 569.2062,-357.8955"/>
<ellipse fill="none" stroke="#000000" cx="566.0886" cy="-357.1737" rx="3.2" ry="3.2"/>
</g>
<!-- gyms_has_users -->
<g id="node5" class="node">
<title>gyms_has_users</title>
<g id="a_node5"><a xlink:href="../../tables/gyms_has_users.html" xlink:title="gyms_has_users" target="_top">
<polygon fill="#ffffff" stroke="transparent" points="142,-160.7 142,-250.7 299,-250.7 299,-160.7 142,-160.7"/>
<polygon fill="#f5f5f5" stroke="transparent" points="144.5,-225.7 144.5,-248.7 297.5,-248.7 297.5,-225.7 144.5,-225.7"/>
<polygon fill="none" stroke="#000000" points="144.5,-225.7 144.5,-248.7 297.5,-248.7 297.5,-225.7 144.5,-225.7"/>
<text text-anchor="start" x="149.5" y="-234.8" font-family="Helvetica,sans-Serif" font-weight="bold" font-size="11.00" fill="#000000">gyms_has_users</text>
<text text-anchor="start" x="262.5437" y="-233.8" font-family="Helvetica,sans-Serif" font-size="11.00" fill="#000000">[table]</text>
<polygon fill="none" stroke="#000000" points="144.5,-203.7 144.5,-225.7 262.5,-225.7 262.5,-203.7 144.5,-203.7"/>
<image xlink:href="../../images/primaryKeys.png" width="11px" height="12px" preserveAspectRatio="xMinYMin meet" x="149.5" y="-220.7"/>
<text text-anchor="start" x="164.5" y="-210.8" font-family="Helvetica,sans-Serif" font-size="11.00" fill="#000000">gyms_id</text>
<polygon fill="none" stroke="#000000" points="262.5,-203.7 262.5,-225.7 297.5,-225.7 297.5,-203.7 262.5,-203.7"/>
<text text-anchor="start" x="265.0219" y="-211.4" font-family="Helvetica,sans-Serif" font-size="11.00" fill="#000000">int[10]</text>
<polygon fill="none" stroke="#000000" points="144.5,-181.7 144.5,-203.7 262.5,-203.7 262.5,-181.7 144.5,-181.7"/>
<image xlink:href="../../images/primaryKeys.png" width="11px" height="12px" preserveAspectRatio="xMinYMin meet" x="149.5" y="-198.7"/>
<text text-anchor="start" x="164.5" y="-188.8" font-family="Helvetica,sans-Serif" font-size="11.00" fill="#000000">users_id</text>
<polygon fill="none" stroke="#000000" points="262.5,-181.7 262.5,-203.7 297.5,-203.7 297.5,-181.7 262.5,-181.7"/>
<text text-anchor="start" x="265.0219" y="-189.4" font-family="Helvetica,sans-Serif" font-size="11.00" fill="#000000">int[10]</text>
<polygon fill="#ffffff" stroke="transparent" points="144.5,-162.7 144.5,-181.7 194.5,-181.7 194.5,-162.7 144.5,-162.7"/>
<polygon fill="none" stroke="#000000" points="144.5,-162.7 144.5,-181.7 194.5,-181.7 194.5,-162.7 144.5,-162.7"/>
<text text-anchor="start" x="147.5" y="-168.8" font-family="Helvetica,sans-Serif" font-size="11.00" fill="#000000">&lt; 2</text>
<polygon fill="#ffffff" stroke="transparent" points="194.5,-162.7 194.5,-181.7 262.5,-181.7 262.5,-162.7 194.5,-162.7"/>
<polygon fill="none" stroke="#000000" points="194.5,-162.7 194.5,-181.7 262.5,-181.7 262.5,-162.7 194.5,-162.7"/>
<text text-anchor="start" x="227.1105" y="-168.8" font-family="Helvetica,sans-Serif" font-size="11.00" fill="#000000">0 rows</text>
<polygon fill="#ffffff" stroke="transparent" points="262.5,-162.7 262.5,-181.7 297.5,-181.7 297.5,-162.7 262.5,-162.7"/>
<polygon fill="none" stroke="#000000" points="262.5,-162.7 262.5,-181.7 297.5,-181.7 297.5,-162.7 262.5,-162.7"/>
<text text-anchor="start" x="278.9053" y="-168.8" font-family="Helvetica,sans-Serif" font-size="11.00" fill="#000000">2 &gt;</text>
<polygon fill="none" stroke="#000000" stroke-width="2" points="143,-161.7 143,-249.7 298,-249.7 298,-161.7 143,-161.7"/>
</a>
</g>
</g>
<!-- gymnasts&#45;&gt;gyms_has_users -->
<g id="edge4" class="edge">
<title>gymnasts:w&#45;&gt;gyms_has_users:e</title>
<path fill="none" stroke="#000000" d="M333.4203,-214.7C321.5435,-214.7 314.158,-214.7 297.5,-214.7"/>
<polygon fill="#000000" stroke="#000000" points="340,-214.7001 348,-218.3 344,-214.7 348,-214.7 348,-214.7 348,-214.7 344,-214.7 348,-211.1 340,-214.7001 340,-214.7001"/>
<ellipse fill="none" stroke="#000000" cx="336.8" cy="-214.7001" rx="3.2" ry="3.2"/>
</g>
<!-- gymnasts&#45;&gt;gyms_has_users -->
<g id="edge5" class="edge">
<title>gymnasts:w&#45;&gt;gyms_has_users:e</title>
<path fill="none" stroke="#000000" d="M333.4203,-192.7C321.5435,-192.7 314.158,-192.7 297.5,-192.7"/>
<polygon fill="#000000" stroke="#000000" points="340,-192.7001 348,-196.3 344,-192.7 348,-192.7 348,-192.7 348,-192.7 344,-192.7 348,-189.1 340,-192.7001 340,-192.7001"/>
<ellipse fill="none" stroke="#000000" cx="336.8" cy="-192.7001" rx="3.2" ry="3.2"/>
</g>
<!-- completed_normal_challenges -->
<g id="node3" class="node">
<title>completed_normal_challenges</title>
<g id="a_node3"><a xlink:href="../../tables/completed_normal_challenges.html" xlink:title="completed_normal_challenges" target="_top">
<polygon fill="#ffffff" stroke="transparent" points="571,-250.2 571,-311.2 763,-311.2 763,-250.2 571,-250.2"/>
<polygon fill="#f5f5f5" stroke="transparent" points="571,-287.7 571,-310.7 763,-310.7 763,-287.7 571,-287.7"/>
<polygon fill="none" stroke="#000000" points="571,-287.7 571,-310.7 763,-310.7 763,-287.7 571,-287.7"/>
<text text-anchor="start" x="575.9277" y="-296.8" font-family="Helvetica,sans-Serif" font-weight="bold" font-size="11.00" fill="#000000">completed_normal_challenges</text>
<text text-anchor="start" x="728.5219" y="-295.8" font-family="Helvetica,sans-Serif" font-size="11.00" fill="#000000">[table]</text>
<polygon fill="none" stroke="#000000" points="571,-268.7 571,-287.7 763,-287.7 763,-268.7 571,-268.7"/>
<text text-anchor="start" x="574" y="-274.8" font-family="Helvetica,sans-Serif" font-size="11.00" fill="#000000">...</text>
<polygon fill="#ffffff" stroke="transparent" points="571,-249.7 571,-268.7 652,-268.7 652,-249.7 571,-249.7"/>
<polygon fill="none" stroke="#000000" points="571,-249.7 571,-268.7 652,-268.7 652,-249.7 571,-249.7"/>
<text text-anchor="start" x="574" y="-255.8" font-family="Helvetica,sans-Serif" font-size="11.00" fill="#000000">&lt; 3</text>
<polygon fill="#ffffff" stroke="transparent" points="652,-249.7 652,-268.7 720,-268.7 720,-249.7 652,-249.7"/>
<polygon fill="none" stroke="#000000" points="652,-249.7 652,-268.7 720,-268.7 720,-249.7 652,-249.7"/>
<text text-anchor="start" x="684.6105" y="-255.8" font-family="Helvetica,sans-Serif" font-size="11.00" fill="#000000">0 rows</text>
<polygon fill="#ffffff" stroke="transparent" points="720,-249.7 720,-268.7 763,-268.7 763,-249.7 720,-249.7"/>
<polygon fill="none" stroke="#000000" points="720,-249.7 720,-268.7 763,-268.7 763,-249.7 720,-249.7"/>
<text text-anchor="start" x="753.8862" y="-255.8" font-family="Helvetica,sans-Serif" font-size="11.00" fill="#000000"> &#160;</text>
</a>
</g>
</g>
<!-- completed_normal_challenges&#45;&gt;gymnasts -->
<g id="edge2" class="edge">
<title>completed_normal_challenges:w&#45;&gt;gymnasts:e</title>
<path fill="none" stroke="#000000" d="M557.1819,-272.9968C544.2811,-262.2274 544.4061,-236.7 522,-236.7"/>
<polygon fill="#000000" stroke="#000000" points="563.4267,-275.1222 569.84,-281.108 567.2133,-276.4111 571,-277.7 571,-277.7 571,-277.7 567.2133,-276.4111 572.16,-274.292 563.4267,-275.1222 563.4267,-275.1222"/>
<ellipse fill="none" stroke="#000000" cx="560.3973" cy="-274.0911" rx="3.2" ry="3.2"/>
</g>
<!-- gymnast_has_skills -->
<g id="node4" class="node">
<title>gymnast_has_skills</title>
<g id="a_node4"><a xlink:href="../../tables/gymnast_has_skills.html" xlink:title="gymnast_has_skills" target="_top">
<polygon fill="#ffffff" stroke="transparent" points="598,-168.2 598,-229.2 736,-229.2 736,-168.2 598,-168.2"/>
<polygon fill="#f5f5f5" stroke="transparent" points="598,-205.7 598,-228.7 736,-228.7 736,-205.7 598,-205.7"/>
<polygon fill="none" stroke="#000000" points="598,-205.7 598,-228.7 736,-228.7 736,-205.7 598,-205.7"/>
<text text-anchor="start" x="602.8271" y="-214.8" font-family="Helvetica,sans-Serif" font-weight="bold" font-size="11.00" fill="#000000">gymnast_has_skills</text>
<text text-anchor="start" x="701.5219" y="-213.8" font-family="Helvetica,sans-Serif" font-size="11.00" fill="#000000">[table]</text>
<polygon fill="none" stroke="#000000" points="598,-186.7 598,-205.7 736,-205.7 736,-186.7 598,-186.7"/>
<text text-anchor="start" x="601" y="-192.8" font-family="Helvetica,sans-Serif" font-size="11.00" fill="#000000">...</text>
<polygon fill="#ffffff" stroke="transparent" points="598,-167.7 598,-186.7 652,-186.7 652,-167.7 598,-167.7"/>
<polygon fill="none" stroke="#000000" points="598,-167.7 598,-186.7 652,-186.7 652,-167.7 598,-167.7"/>
<text text-anchor="start" x="601" y="-173.8" font-family="Helvetica,sans-Serif" font-size="11.00" fill="#000000">&lt; 2</text>
<polygon fill="#ffffff" stroke="transparent" points="652,-167.7 652,-186.7 707,-186.7 707,-167.7 652,-167.7"/>
<polygon fill="none" stroke="#000000" points="652,-167.7 652,-186.7 707,-186.7 707,-167.7 652,-167.7"/>
<text text-anchor="start" x="671.6105" y="-173.8" font-family="Helvetica,sans-Serif" font-size="11.00" fill="#000000">0 rows</text>
<polygon fill="#ffffff" stroke="transparent" points="707,-167.7 707,-186.7 736,-186.7 736,-167.7 707,-167.7"/>
<polygon fill="none" stroke="#000000" points="707,-167.7 707,-186.7 736,-186.7 736,-167.7 707,-167.7"/>
<text text-anchor="start" x="726.8862" y="-173.8" font-family="Helvetica,sans-Serif" font-size="11.00" fill="#000000"> &#160;</text>
</a>
</g>
</g>
<!-- gymnast_has_skills&#45;&gt;gymnasts -->
<g id="edge3" class="edge">
<title>gymnast_has_skills:w&#45;&gt;gymnasts:e</title>
<path fill="none" stroke="#000000" d="M583.5753,-198.0218C559.0223,-206.6951 554.8325,-236.7 522,-236.7"/>
<polygon fill="#000000" stroke="#000000" points="590.1017,-196.9714 598.5721,-199.2543 594.0508,-196.3357 598,-195.7 598,-195.7 598,-195.7 594.0508,-196.3357 597.4279,-192.1457 590.1017,-196.9714 590.1017,-196.9714"/>
<ellipse fill="none" stroke="#000000" cx="586.9423" cy="-197.4799" rx="3.2" ry="3.2"/>
</g>
<!-- gyms -->
<g id="node7" class="node">
<title>gyms</title>
<g id="a_node7"><a xlink:href="../../tables/gyms.html" xlink:title="gyms" target="_top">
<polygon fill="#ffffff" stroke="transparent" points="8,-166.2 8,-249.2 93,-249.2 93,-166.2 8,-166.2"/>
<polygon fill="#f5f5f5" stroke="transparent" points="8.5,-225.7 8.5,-248.7 93.5,-248.7 93.5,-225.7 8.5,-225.7"/>
<polygon fill="none" stroke="#000000" points="8.5,-225.7 8.5,-248.7 93.5,-248.7 93.5,-225.7 8.5,-225.7"/>
<text text-anchor="start" x="13.5" y="-234.8" font-family="Helvetica,sans-Serif" font-weight="bold" font-size="11.00" fill="#000000">gyms</text>
<text text-anchor="start" x="58.5437" y="-233.8" font-family="Helvetica,sans-Serif" font-size="11.00" fill="#000000">[table]</text>
<polygon fill="none" stroke="#000000" points="8.5,-203.7 8.5,-225.7 93.5,-225.7 93.5,-203.7 8.5,-203.7"/>
<image xlink:href="../../images/primaryKeys.png" width="11px" height="12px" preserveAspectRatio="xMinYMin meet" x="13.5" y="-220.7"/>
<text text-anchor="start" x="28.5" y="-210.8" font-family="Helvetica,sans-Serif" font-size="11.00" fill="#000000">id</text>
<polygon fill="none" stroke="#000000" points="8.5,-184.7 8.5,-203.7 93.5,-203.7 93.5,-184.7 8.5,-184.7"/>
<text text-anchor="start" x="11.5" y="-190.8" font-family="Helvetica,sans-Serif" font-size="11.00" fill="#000000">...</text>
<polygon fill="#ffffff" stroke="transparent" points="8.5,-165.7 8.5,-184.7 27.5,-184.7 27.5,-165.7 8.5,-165.7"/>
<polygon fill="none" stroke="#000000" points="8.5,-165.7 8.5,-184.7 27.5,-184.7 27.5,-165.7 8.5,-165.7"/>
<text text-anchor="start" x="11.5" y="-171.8" font-family="Helvetica,sans-Serif" font-size="11.00" fill="#000000"> &#160;</text>
<polygon fill="#ffffff" stroke="transparent" points="27.5,-165.7 27.5,-184.7 68.5,-184.7 68.5,-165.7 27.5,-165.7"/>
<polygon fill="none" stroke="#000000" points="27.5,-165.7 27.5,-184.7 68.5,-184.7 68.5,-165.7 27.5,-165.7"/>
<text text-anchor="start" x="33.1105" y="-171.8" font-family="Helvetica,sans-Serif" font-size="11.00" fill="#000000">0 rows</text>
<polygon fill="#ffffff" stroke="transparent" points="68.5,-165.7 68.5,-184.7 93.5,-184.7 93.5,-165.7 68.5,-165.7"/>
<polygon fill="none" stroke="#000000" points="68.5,-165.7 68.5,-184.7 93.5,-184.7 93.5,-165.7 68.5,-165.7"/>
<text text-anchor="start" x="74.9053" y="-171.8" font-family="Helvetica,sans-Serif" font-size="11.00" fill="#000000">1 &gt;</text>
</a>
</g>
</g>
<!-- gyms_has_users&#45;&gt;gyms -->
<g id="edge7" class="edge">
<title>gyms_has_users:w&#45;&gt;gyms:e</title>
<path fill="none" stroke="#000000" d="M129.776,-214.7C117.7815,-214.7 110.3229,-214.7 93.5,-214.7"/>
<polygon fill="#000000" stroke="#000000" points="136.5,-214.7001 144.5,-218.3 140.5,-214.7 144.5,-214.7 144.5,-214.7 144.5,-214.7 140.5,-214.7 144.5,-211.1 136.5,-214.7001 136.5,-214.7001"/>
<ellipse fill="none" stroke="#000000" cx="133.3" cy="-214.7001" rx="3.2" ry="3.2"/>
</g>
<!-- users -->
<g id="node8" class="node">
<title>users</title>
<g id="a_node8"><a xlink:href="../../tables/users.html" xlink:title="users" target="_top">
<polygon fill="#ffffff" stroke="transparent" points="12,-38.2 12,-143.2 89,-143.2 89,-38.2 12,-38.2"/>
<polygon fill="#f5f5f5" stroke="transparent" points="12.5,-119.7 12.5,-142.7 89.5,-142.7 89.5,-119.7 12.5,-119.7"/>
<polygon fill="none" stroke="#000000" points="12.5,-119.7 12.5,-142.7 89.5,-142.7 89.5,-119.7 12.5,-119.7"/>
<text text-anchor="start" x="17.5" y="-128.8" font-family="Helvetica,sans-Serif" font-weight="bold" font-size="11.00" fill="#000000">users</text>
<text text-anchor="start" x="54.5437" y="-127.8" font-family="Helvetica,sans-Serif" font-size="11.00" fill="#000000">[table]</text>
<polygon fill="none" stroke="#000000" points="12.5,-97.7 12.5,-119.7 89.5,-119.7 89.5,-97.7 12.5,-97.7"/>
<image xlink:href="../../images/primaryKeys.png" width="11px" height="12px" preserveAspectRatio="xMinYMin meet" x="17.5" y="-114.7"/>
<text text-anchor="start" x="32.5" y="-104.8" font-family="Helvetica,sans-Serif" font-size="11.00" fill="#000000">id</text>
<polygon fill="#ffffff" stroke="transparent" points="12.5,-75.7 12.5,-97.7 89.5,-97.7 89.5,-75.7 12.5,-75.7"/>
<polygon fill="none" stroke="#000000" points="12.5,-75.7 12.5,-97.7 89.5,-97.7 89.5,-75.7 12.5,-75.7"/>
<text text-anchor="start" x="32.5" y="-82.8" font-family="Helvetica,sans-Serif" font-size="11.00" fill="#000000">email</text>
<polygon fill="none" stroke="#000000" points="12.5,-56.7 12.5,-75.7 89.5,-75.7 89.5,-56.7 12.5,-56.7"/>
<text text-anchor="start" x="15.5" y="-62.8" font-family="Helvetica,sans-Serif" font-size="11.00" fill="#000000">...</text>
<polygon fill="#ffffff" stroke="transparent" points="12.5,-37.7 12.5,-56.7 27.5,-56.7 27.5,-37.7 12.5,-37.7"/>
<polygon fill="none" stroke="#000000" points="12.5,-37.7 12.5,-56.7 27.5,-56.7 27.5,-37.7 12.5,-37.7"/>
<text text-anchor="start" x="15.5" y="-43.8" font-family="Helvetica,sans-Serif" font-size="11.00" fill="#000000"> &#160;</text>
<polygon fill="#ffffff" stroke="transparent" points="27.5,-37.7 27.5,-56.7 66.5,-56.7 66.5,-37.7 27.5,-37.7"/>
<polygon fill="none" stroke="#000000" points="27.5,-37.7 27.5,-56.7 66.5,-56.7 66.5,-37.7 27.5,-37.7"/>
<text text-anchor="start" x="31.1105" y="-43.8" font-family="Helvetica,sans-Serif" font-size="11.00" fill="#000000">0 rows</text>
<polygon fill="#ffffff" stroke="transparent" points="66.5,-37.7 66.5,-56.7 89.5,-56.7 89.5,-37.7 66.5,-37.7"/>
<polygon fill="none" stroke="#000000" points="66.5,-37.7 66.5,-56.7 89.5,-56.7 89.5,-37.7 66.5,-37.7"/>
<text text-anchor="start" x="70.9053" y="-43.8" font-family="Helvetica,sans-Serif" font-size="11.00" fill="#000000">2 &gt;</text>
</a>
</g>
</g>
<!-- gyms_has_users&#45;&gt;users -->
<g id="edge8" class="edge">
<title>gyms_has_users:w&#45;&gt;users:e</title>
<path fill="none" stroke="#000000" d="M130.5243,-188.6485C107.5818,-171.8692 128.1974,-108.7 89.5,-108.7"/>
<polygon fill="#000000" stroke="#000000" points="136.8163,-190.4725 143.4976,-196.1576 140.6582,-191.5863 144.5,-192.7 144.5,-192.7 144.5,-192.7 140.6582,-191.5863 145.5024,-189.2424 136.8163,-190.4725 136.8163,-190.4725"/>
<ellipse fill="none" stroke="#000000" cx="133.7429" cy="-189.5815" rx="3.2" ry="3.2"/>
</g>
<!-- gymnasts_classes -->
<g id="node6" class="node">
<title>gymnasts_classes</title>
<g id="a_node6"><a xlink:href="../../tables/gymnasts_classes.html" xlink:title="gymnasts_classes" target="_top">
<polygon fill="#ffffff" stroke="transparent" points="601,-86.2 601,-147.2 733,-147.2 733,-86.2 601,-86.2"/>
<polygon fill="#f5f5f5" stroke="transparent" points="601,-123.7 601,-146.7 733,-146.7 733,-123.7 601,-123.7"/>
<polygon fill="none" stroke="#000000" points="601,-123.7 601,-146.7 733,-146.7 733,-123.7 601,-123.7"/>
<text text-anchor="start" x="605.5755" y="-132.8" font-family="Helvetica,sans-Serif" font-weight="bold" font-size="11.00" fill="#000000">gymnasts_classes</text>
<text text-anchor="start" x="698.5219" y="-131.8" font-family="Helvetica,sans-Serif" font-size="11.00" fill="#000000">[table]</text>
<polygon fill="none" stroke="#000000" points="601,-104.7 601,-123.7 733,-123.7 733,-104.7 601,-104.7"/>
<text text-anchor="start" x="604" y="-110.8" font-family="Helvetica,sans-Serif" font-size="11.00" fill="#000000">...</text>
<polygon fill="#ffffff" stroke="transparent" points="601,-85.7 601,-104.7 652,-104.7 652,-85.7 601,-85.7"/>
<polygon fill="none" stroke="#000000" points="601,-85.7 601,-104.7 652,-104.7 652,-85.7 601,-85.7"/>
<text text-anchor="start" x="604" y="-91.8" font-family="Helvetica,sans-Serif" font-size="11.00" fill="#000000">&lt; 2</text>
<polygon fill="#ffffff" stroke="transparent" points="652,-85.7 652,-104.7 705,-104.7 705,-85.7 652,-85.7"/>
<polygon fill="none" stroke="#000000" points="652,-85.7 652,-104.7 705,-104.7 705,-85.7 652,-85.7"/>
<text text-anchor="start" x="669.6105" y="-91.8" font-family="Helvetica,sans-Serif" font-size="11.00" fill="#000000">0 rows</text>
<polygon fill="#ffffff" stroke="transparent" points="705,-85.7 705,-104.7 733,-104.7 733,-85.7 705,-85.7"/>
<polygon fill="none" stroke="#000000" points="705,-85.7 705,-104.7 733,-104.7 733,-85.7 705,-85.7"/>
<text text-anchor="start" x="723.8862" y="-91.8" font-family="Helvetica,sans-Serif" font-size="11.00" fill="#000000"> &#160;</text>
</a>
</g>
</g>
<!-- gymnasts_classes&#45;&gt;gymnasts -->
<g id="edge6" class="edge">
<title>gymnasts_classes:w&#45;&gt;gymnasts:e</title>
<path fill="none" stroke="#000000" d="M586.8953,-117.1191C575.3304,-124.2312 574.0974,-141.3227 563,-157.7 540.8097,-190.448 561.5581,-236.7 522,-236.7"/>
<polygon fill="#000000" stroke="#000000" points="593.2252,-115.5847 601.8481,-117.1987 597.1126,-114.6424 601,-113.7 601,-113.7 601,-113.7 597.1126,-114.6424 600.1519,-110.2013 593.2252,-115.5847 593.2252,-115.5847"/>
<ellipse fill="none" stroke="#000000" cx="590.1152" cy="-116.3386" rx="3.2" ry="3.2"/>
</g>
<!-- subscriptions -->
<g id="node9" class="node">
<title>subscriptions</title>
<g id="a_node9"><a xlink:href="../../tables/subscriptions.html" xlink:title="subscriptions" target="_top">
<polygon fill="#ffffff" stroke="transparent" points="167,-78.2 167,-139.2 274,-139.2 274,-78.2 167,-78.2"/>
<polygon fill="#f5f5f5" stroke="transparent" points="167.5,-115.7 167.5,-138.7 274.5,-138.7 274.5,-115.7 167.5,-115.7"/>
<polygon fill="none" stroke="#000000" points="167.5,-115.7 167.5,-138.7 274.5,-138.7 274.5,-115.7 167.5,-115.7"/>
<text text-anchor="start" x="172.4125" y="-124.8" font-family="Helvetica,sans-Serif" font-weight="bold" font-size="11.00" fill="#000000">subscriptions</text>
<text text-anchor="start" x="240.0219" y="-123.8" font-family="Helvetica,sans-Serif" font-size="11.00" fill="#000000">[table]</text>
<polygon fill="none" stroke="#000000" points="167.5,-96.7 167.5,-115.7 274.5,-115.7 274.5,-96.7 167.5,-96.7"/>
<text text-anchor="start" x="170.5" y="-102.8" font-family="Helvetica,sans-Serif" font-size="11.00" fill="#000000">...</text>
<polygon fill="#ffffff" stroke="transparent" points="167.5,-77.7 167.5,-96.7 201.5,-96.7 201.5,-77.7 167.5,-77.7"/>
<polygon fill="none" stroke="#000000" points="167.5,-77.7 167.5,-96.7 201.5,-96.7 201.5,-77.7 167.5,-77.7"/>
<text text-anchor="start" x="170.5" y="-83.8" font-family="Helvetica,sans-Serif" font-size="11.00" fill="#000000">&lt; 3</text>
<polygon fill="#ffffff" stroke="transparent" points="201.5,-77.7 201.5,-96.7 246.5,-96.7 246.5,-77.7 201.5,-77.7"/>
<polygon fill="none" stroke="#000000" points="201.5,-77.7 201.5,-96.7 246.5,-96.7 246.5,-77.7 201.5,-77.7"/>
<text text-anchor="start" x="211.1105" y="-83.8" font-family="Helvetica,sans-Serif" font-size="11.00" fill="#000000">0 rows</text>
<polygon fill="#ffffff" stroke="transparent" points="246.5,-77.7 246.5,-96.7 274.5,-96.7 274.5,-77.7 246.5,-77.7"/>
<polygon fill="none" stroke="#000000" points="246.5,-77.7 246.5,-96.7 274.5,-96.7 274.5,-77.7 246.5,-77.7"/>
<text text-anchor="start" x="255.9053" y="-83.8" font-family="Helvetica,sans-Serif" font-size="11.00" fill="#000000">2 &gt;</text>
</a>
</g>
</g>
<!-- subscriptions&#45;&gt;users -->
<g id="edge9" class="edge">
<title>subscriptions:w&#45;&gt;users:e</title>
<path fill="none" stroke="#000000" d="M152.949,-105.8968C129.4787,-106.5643 118.7716,-108.7 89.5,-108.7"/>
<polygon fill="#000000" stroke="#000000" points="159.5007,-105.8083 167.5487,-109.2997 163.5004,-105.7541 167.5,-105.7 167.5,-105.7 167.5,-105.7 163.5004,-105.7541 167.4513,-102.1003 159.5007,-105.8083 159.5007,-105.8083"/>
<ellipse fill="none" stroke="#000000" cx="156.301" cy="-105.8516" rx="3.2" ry="3.2"/>
</g>
</g>
</svg>
