<?xml version="1.0" encoding="UTF-8" standalone="no"?>
<!DOCTYPE svg PUBLIC "-//W3C//DTD SVG 1.1//EN"
 "http://www.w3.org/Graphics/SVG/1.1/DTD/svg11.dtd">
<!-- Generated by graphviz version 2.40.1 (20161225.0304)
 -->
<!-- Title: oneDegreeRelationshipsDiagram Pages: 1 -->
<svg width="381pt" height="323pt"
 viewBox="0.00 0.00 381.00 322.70" xmlns="http://www.w3.org/2000/svg" xmlns:xlink="http://www.w3.org/1999/xlink">
<g id="graph0" class="graph" transform="scale(1 1) rotate(0) translate(4 318.7)">
<title>oneDegreeRelationshipsDiagram</title>
<polygon fill="#ffffff" stroke="transparent" points="-4,4 -4,-318.7 377,-318.7 377,4 -4,4"/>
<text text-anchor="middle" x="72.4936" y="-7.3" font-family="Helvetica,sans-Serif" font-size="11.00" fill="#000000">Generated by SchemaSpy</text>
<!-- events -->
<g id="node1" class="node">
<title>events</title>
<g id="a_node1"><a xlink:href="../../tables/events.html" xlink:title="events" target="_top">
<polygon fill="#ffffff" stroke="transparent" points="259.5,-205.7 259.5,-310.7 344.5,-310.7 344.5,-205.7 259.5,-205.7"/>
<polygon fill="#f5f5f5" stroke="transparent" points="260,-287.2 260,-310.2 345,-310.2 345,-287.2 260,-287.2"/>
<polygon fill="none" stroke="#000000" points="260,-287.2 260,-310.2 345,-310.2 345,-287.2 260,-287.2"/>
<text text-anchor="start" x="265" y="-296.3" font-family="Helvetica,sans-Serif" font-weight="bold" font-size="11.00" fill="#000000">events</text>
<text text-anchor="start" x="310.0437" y="-295.3" font-family="Helvetica,sans-Serif" font-size="11.00" fill="#000000">[table]</text>
<polygon fill="none" stroke="#000000" points="260,-265.2 260,-287.2 345,-287.2 345,-265.2 260,-265.2"/>
<image xlink:href="../../images/primaryKeys.png" width="11px" height="12px" preserveAspectRatio="xMinYMin meet" x="265" y="-282.2"/>
<text text-anchor="start" x="280" y="-272.3" font-family="Helvetica,sans-Serif" font-size="11.00" fill="#000000">id</text>
<polygon fill="#ffffff" stroke="transparent" points="260,-243.2 260,-265.2 345,-265.2 345,-243.2 260,-243.2"/>
<polygon fill="none" stroke="#000000" points="260,-243.2 260,-265.2 345,-265.2 345,-243.2 260,-243.2"/>
<image xlink:href="../../images/foreignKeys.png" width="11px" height="12px" preserveAspectRatio="xMinYMin meet" x="265" y="-260.2"/>
<text text-anchor="start" x="280" y="-250.3" font-family="Helvetica,sans-Serif" font-size="11.00" fill="#000000">gym_id</text>
<polygon fill="none" stroke="#000000" points="260,-224.2 260,-243.2 345,-243.2 345,-224.2 260,-224.2"/>
<text text-anchor="start" x="263" y="-230.3" font-family="Helvetica,sans-Serif" font-size="11.00" fill="#000000">...</text>
<polygon fill="#ffffff" stroke="transparent" points="260,-205.2 260,-224.2 283,-224.2 283,-205.2 260,-205.2"/>
<polygon fill="none" stroke="#000000" points="260,-205.2 260,-224.2 283,-224.2 283,-205.2 260,-205.2"/>
<text text-anchor="start" x="263" y="-211.3" font-family="Helvetica,sans-Serif" font-size="11.00" fill="#000000">&lt; 1</text>
<polygon fill="#ffffff" stroke="transparent" points="283,-205.2 283,-224.2 322,-224.2 322,-205.2 283,-205.2"/>
<polygon fill="none" stroke="#000000" points="283,-205.2 283,-224.2 322,-224.2 322,-205.2 283,-205.2"/>
<text text-anchor="start" x="286.6105" y="-211.3" font-family="Helvetica,sans-Serif" font-size="11.00" fill="#000000">0 rows</text>
<polygon fill="#ffffff" stroke="transparent" points="322,-205.2 322,-224.2 345,-224.2 345,-205.2 322,-205.2"/>
<polygon fill="none" stroke="#000000" points="322,-205.2 322,-224.2 345,-224.2 345,-205.2 322,-205.2"/>
<text text-anchor="start" x="326.4053" y="-211.3" font-family="Helvetica,sans-Serif" font-size="11.00" fill="#000000">1 &gt;</text>
</a>
</g>
</g>
<!-- gyms -->
<g id="node2" class="node">
<title>gyms</title>
<g id="a_node2"><a xlink:href="../../tables/gyms.html" xlink:title="gyms" target="_top">
<polygon fill="#ffffff" stroke="transparent" points="8,-38.2 8,-238.2 190,-238.2 190,-38.2 8,-38.2"/>
<polygon fill="#f5f5f5" stroke="transparent" points="10,-213.2 10,-236.2 188,-236.2 188,-213.2 10,-213.2"/>
<polygon fill="none" stroke="#000000" points="10,-213.2 10,-236.2 188,-236.2 188,-213.2 10,-213.2"/>
<text text-anchor="start" x="15" y="-222.3" font-family="Helvetica,sans-Serif" font-weight="bold" font-size="11.00" fill="#000000">gyms</text>
<text text-anchor="start" x="153.0437" y="-221.3" font-family="Helvetica,sans-Serif" font-size="11.00" fill="#000000">[table]</text>
<polygon fill="none" stroke="#000000" points="10,-191.2 10,-213.2 95,-213.2 95,-191.2 10,-191.2"/>
<image xlink:href="../../images/primaryKeys.png" width="11px" height="12px" preserveAspectRatio="xMinYMin meet" x="15" y="-208.2"/>
<text text-anchor="start" x="30" y="-198.3" font-family="Helvetica,sans-Serif" font-size="11.00" fill="#000000">id</text>
<polygon fill="none" stroke="#000000" points="95,-191.2 95,-213.2 188,-213.2 188,-191.2 95,-191.2"/>
<text text-anchor="start" x="98" y="-198.9" font-family="Helvetica,sans-Serif" font-size="11.00" fill="#000000">bigint[19]</text>
<polygon fill="none" stroke="#000000" points="10,-169.2 10,-191.2 95,-191.2 95,-169.2 10,-169.2"/>
<text text-anchor="start" x="30" y="-176.3" font-family="Helvetica,sans-Serif" font-size="11.00" fill="#000000">name</text>
<polygon fill="none" stroke="#000000" points="95,-169.2 95,-191.2 188,-191.2 188,-169.2 95,-169.2"/>
<text text-anchor="start" x="98" y="-176.9" font-family="Helvetica,sans-Serif" font-size="11.00" fill="#000000">varchar[45]</text>
<polygon fill="none" stroke="#000000" points="10,-147.2 10,-169.2 95,-169.2 95,-147.2 10,-147.2"/>
<text text-anchor="start" x="30" y="-154.3" font-family="Helvetica,sans-Serif" font-size="11.00" fill="#000000">description</text>
<polygon fill="none" stroke="#000000" points="95,-147.2 95,-169.2 188,-169.2 188,-147.2 95,-147.2"/>
<text text-anchor="start" x="98" y="-154.9" font-family="Helvetica,sans-Serif" font-size="11.00" fill="#000000">varchar[45]</text>
<polygon fill="none" stroke="#000000" points="10,-125.2 10,-147.2 95,-147.2 95,-125.2 10,-125.2"/>
<text text-anchor="start" x="30" y="-132.3" font-family="Helvetica,sans-Serif" font-size="11.00" fill="#000000">settings</text>
<polygon fill="none" stroke="#000000" points="95,-125.2 95,-147.2 188,-147.2 188,-125.2 95,-125.2"/>
<text text-anchor="start" x="97.7833" y="-132.9" font-family="Helvetica,sans-Serif" font-size="11.00" fill="#000000">json[1073741824]</text>
<polygon fill="none" stroke="#000000" points="10,-103.2 10,-125.2 95,-125.2 95,-103.2 10,-103.2"/>
<text text-anchor="start" x="30" y="-110.3" font-family="Helvetica,sans-Serif" font-size="11.00" fill="#000000">created_at</text>
<polygon fill="none" stroke="#000000" points="95,-103.2 95,-125.2 188,-125.2 188,-103.2 95,-103.2"/>
<text text-anchor="start" x="98" y="-110.9" font-family="Helvetica,sans-Serif" font-size="11.00" fill="#000000">timestamp[19]</text>
<polygon fill="none" stroke="#000000" points="10,-81.2 10,-103.2 95,-103.2 95,-81.2 10,-81.2"/>
<text text-anchor="start" x="30" y="-88.3" font-family="Helvetica,sans-Serif" font-size="11.00" fill="#000000">updated_at</text>
<polygon fill="none" stroke="#000000" points="95,-81.2 95,-103.2 188,-103.2 188,-81.2 95,-81.2"/>
<text text-anchor="start" x="98" y="-88.9" font-family="Helvetica,sans-Serif" font-size="11.00" fill="#000000">timestamp[19]</text>
<polygon fill="none" stroke="#000000" points="10,-59.2 10,-81.2 95,-81.2 95,-59.2 10,-59.2"/>
<text text-anchor="start" x="30" y="-66.3" font-family="Helvetica,sans-Serif" font-size="11.00" fill="#000000">deleted_at</text>
<polygon fill="none" stroke="#000000" points="95,-59.2 95,-81.2 188,-81.2 188,-59.2 95,-59.2"/>
<text text-anchor="start" x="98" y="-66.9" font-family="Helvetica,sans-Serif" font-size="11.00" fill="#000000">timestamp[19]</text>
<polygon fill="#ffffff" stroke="transparent" points="10,-40.2 10,-59.2 44,-59.2 44,-40.2 10,-40.2"/>
<polygon fill="none" stroke="#000000" points="10,-40.2 10,-59.2 44,-59.2 44,-40.2 10,-40.2"/>
<text text-anchor="start" x="13" y="-46.3" font-family="Helvetica,sans-Serif" font-size="11.00" fill="#000000">&lt; 0</text>
<polygon fill="#ffffff" stroke="transparent" points="44,-40.2 44,-59.2 95,-59.2 95,-40.2 44,-40.2"/>
<polygon fill="none" stroke="#000000" points="44,-40.2 44,-59.2 95,-59.2 95,-40.2 44,-40.2"/>
<text text-anchor="start" x="59.6105" y="-46.3" font-family="Helvetica,sans-Serif" font-size="11.00" fill="#000000">0 rows</text>
<polygon fill="#ffffff" stroke="transparent" points="95,-40.2 95,-59.2 188,-59.2 188,-40.2 95,-40.2"/>
<polygon fill="none" stroke="#000000" points="95,-40.2 95,-59.2 188,-59.2 188,-40.2 95,-40.2"/>
<text text-anchor="start" x="169.4053" y="-46.3" font-family="Helvetica,sans-Serif" font-size="11.00" fill="#000000">2 &gt;</text>
<polygon fill="none" stroke="#000000" stroke-width="2" points="9,-39.2 9,-237.2 189,-237.2 189,-39.2 9,-39.2"/>
</a>
</g>
</g>
<!-- events&#45;&gt;gyms -->
<g id="edge1" class="edge">
<title>events:w&#45;&gt;gyms:e</title>
<path fill="none" stroke="#000000" d="M245.843,-251.4043C221.5626,-240.6033 221.9222,-202.2 188,-202.2"/>
<polygon fill="#000000" stroke="#000000" points="252.1516,-252.65 259.3025,-257.7318 256.0758,-253.425 260,-254.2 260,-254.2 260,-254.2 256.0758,-253.425 260.6975,-250.6682 252.1516,-252.65 252.1516,-252.65"/>
<ellipse fill="none" stroke="#000000" cx="249.0122" cy="-252.0301" rx="3.2" ry="3.2"/>
</g>
<!-- gyms_has_users -->
<g id="node3" class="node">
<title>gyms_has_users</title>
<g id="a_node3"><a xlink:href="../../tables/gyms_has_users.html" xlink:title="gyms_has_users" target="_top">
<polygon fill="#ffffff" stroke="transparent" points="239,-98.2 239,-184.2 365,-184.2 365,-98.2 239,-98.2"/>
<polygon fill="#f5f5f5" stroke="transparent" points="239,-161.2 239,-184.2 365,-184.2 365,-161.2 239,-161.2"/>
<polygon fill="none" stroke="#000000" points="239,-161.2 239,-184.2 365,-184.2 365,-161.2 239,-161.2"/>
<text text-anchor="start" x="243.936" y="-170.3" font-family="Helvetica,sans-Serif" font-weight="bold" font-size="11.00" fill="#000000">gyms_has_users</text>
<text text-anchor="start" x="330.5219" y="-169.3" font-family="Helvetica,sans-Serif" font-size="11.00" fill="#000000">[table]</text>
<polygon fill="none" stroke="#000000" points="239,-139.2 239,-161.2 365,-161.2 365,-139.2 239,-139.2"/>
<image xlink:href="../../images/primaryKeys.png" width="11px" height="12px" preserveAspectRatio="xMinYMin meet" x="244" y="-156.2"/>
<text text-anchor="start" x="263" y="-146.3" font-family="Helvetica,sans-Serif" font-size="11.00" fill="#000000">gym_id</text>
<polygon fill="none" stroke="#000000" points="239,-117.2 239,-139.2 365,-139.2 365,-117.2 239,-117.2"/>
<image xlink:href="../../images/primaryKeys.png" width="11px" height="12px" preserveAspectRatio="xMinYMin meet" x="244" y="-134.2"/>
<text text-anchor="start" x="263" y="-124.3" font-family="Helvetica,sans-Serif" font-size="11.00" fill="#000000">user_id</text>
<polygon fill="#ffffff" stroke="transparent" points="239,-98.2 239,-117.2 283,-117.2 283,-98.2 239,-98.2"/>
<polygon fill="none" stroke="#000000" points="239,-98.2 239,-117.2 283,-117.2 283,-98.2 239,-98.2"/>
<text text-anchor="start" x="242" y="-104.3" font-family="Helvetica,sans-Serif" font-size="11.00" fill="#000000">&lt; 2</text>
<polygon fill="#ffffff" stroke="transparent" points="283,-98.2 283,-117.2 332,-117.2 332,-98.2 283,-98.2"/>
<polygon fill="none" stroke="#000000" points="283,-98.2 283,-117.2 332,-117.2 332,-98.2 283,-98.2"/>
<text text-anchor="start" x="296.6105" y="-104.3" font-family="Helvetica,sans-Serif" font-size="11.00" fill="#000000">0 rows</text>
<polygon fill="#ffffff" stroke="transparent" points="332,-98.2 332,-117.2 365,-117.2 365,-98.2 332,-98.2"/>
<polygon fill="none" stroke="#000000" points="332,-98.2 332,-117.2 365,-117.2 365,-98.2 332,-98.2"/>
<text text-anchor="start" x="346.4053" y="-104.3" font-family="Helvetica,sans-Serif" font-size="11.00" fill="#000000">2 &gt;</text>
</a>
</g>
</g>
<!-- gyms_has_users&#45;&gt;gyms -->
<g id="edge2" class="edge">
<title>gyms_has_users:w&#45;&gt;gyms:e</title>
<path fill="none" stroke="#000000" d="M225.0468,-154.9988C210.161,-167.8719 214.3017,-202.2 188,-202.2"/>
<polygon fill="#000000" stroke="#000000" points="231.4349,-152.8018 240.1708,-153.6043 235.2175,-151.5009 239,-150.2 239,-150.2 239,-150.2 235.2175,-151.5009 237.8292,-146.7957 231.4349,-152.8018 231.4349,-152.8018"/>
<ellipse fill="none" stroke="#000000" cx="228.4089" cy="-153.8426" rx="3.2" ry="3.2"/>
</g>
</g>
</svg>
