<?xml version="1.0" encoding="UTF-8" standalone="no"?>
<!DOCTYPE svg PUBLIC "-//W3C//DTD SVG 1.1//EN"
 "http://www.w3.org/Graphics/SVG/1.1/DTD/svg11.dtd">
<!-- Generated by graphviz version 2.40.1 (20161225.0304)
 -->
<!-- Title: twoDegreesRelationshipsDiagram Pages: 1 -->
<svg width="554pt" height="393pt"
 viewBox="0.00 0.00 554.00 392.70" xmlns="http://www.w3.org/2000/svg" xmlns:xlink="http://www.w3.org/1999/xlink">
<g id="graph0" class="graph" transform="scale(1 1) rotate(0) translate(4 388.7)">
<title>twoDegreesRelationshipsDiagram</title>
<polygon fill="#ffffff" stroke="transparent" points="-4,4 -4,-388.7 550,-388.7 550,4 -4,4"/>
<text text-anchor="middle" x="72.4936" y="-7.3" font-family="Helvetica,sans-Serif" font-size="11.00" fill="#000000">Generated by SchemaSpy</text>
<!-- gymnast_has_skills -->
<g id="node1" class="node">
<title>gymnast_has_skills</title>
<g id="a_node1"><a xlink:href="../../tables/gymnast_has_skills.html" xlink:title="gymnast_has_skills" target="_top">
<polygon fill="#ffffff" stroke="transparent" points="400,-183.7 400,-244.7 538,-244.7 538,-183.7 400,-183.7"/>
<polygon fill="#f5f5f5" stroke="transparent" points="400,-221.2 400,-244.2 538,-244.2 538,-221.2 400,-221.2"/>
<polygon fill="none" stroke="#000000" points="400,-221.2 400,-244.2 538,-244.2 538,-221.2 400,-221.2"/>
<text text-anchor="start" x="404.8271" y="-230.3" font-family="Helvetica,sans-Serif" font-weight="bold" font-size="11.00" fill="#000000">gymnast_has_skills</text>
<text text-anchor="start" x="503.5219" y="-229.3" font-family="Helvetica,sans-Serif" font-size="11.00" fill="#000000">[table]</text>
<polygon fill="none" stroke="#000000" points="400,-202.2 400,-221.2 538,-221.2 538,-202.2 400,-202.2"/>
<text text-anchor="start" x="403" y="-208.3" font-family="Helvetica,sans-Serif" font-size="11.00" fill="#000000">...</text>
<polygon fill="#ffffff" stroke="transparent" points="400,-183.2 400,-202.2 454,-202.2 454,-183.2 400,-183.2"/>
<polygon fill="none" stroke="#000000" points="400,-183.2 400,-202.2 454,-202.2 454,-183.2 400,-183.2"/>
<text text-anchor="start" x="403" y="-189.3" font-family="Helvetica,sans-Serif" font-size="11.00" fill="#000000">&lt; 2</text>
<polygon fill="#ffffff" stroke="transparent" points="454,-183.2 454,-202.2 509,-202.2 509,-183.2 454,-183.2"/>
<polygon fill="none" stroke="#000000" points="454,-183.2 454,-202.2 509,-202.2 509,-183.2 454,-183.2"/>
<text text-anchor="start" x="473.6105" y="-189.3" font-family="Helvetica,sans-Serif" font-size="11.00" fill="#000000">0 rows</text>
<polygon fill="#ffffff" stroke="transparent" points="509,-183.2 509,-202.2 538,-202.2 538,-183.2 509,-183.2"/>
<polygon fill="none" stroke="#000000" points="509,-183.2 509,-202.2 538,-202.2 538,-183.2 509,-183.2"/>
<text text-anchor="start" x="528.8862" y="-189.3" font-family="Helvetica,sans-Serif" font-size="11.00" fill="#000000"> &#160;</text>
</a>
</g>
</g>
<!-- skills -->
<g id="node2" class="node">
<title>skills</title>
<g id="a_node2"><a xlink:href="../../tables/skills.html" xlink:title="skills" target="_top">
<polygon fill="#ffffff" stroke="transparent" points="263,-162.7 263,-311.7 351,-311.7 351,-162.7 263,-162.7"/>
<polygon fill="#f5f5f5" stroke="transparent" points="263,-288.2 263,-311.2 351,-311.2 351,-288.2 263,-288.2"/>
<polygon fill="none" stroke="#000000" points="263,-288.2 263,-311.2 351,-311.2 351,-288.2 263,-288.2"/>
<text text-anchor="start" x="268" y="-297.3" font-family="Helvetica,sans-Serif" font-weight="bold" font-size="11.00" fill="#000000">skills</text>
<text text-anchor="start" x="316.0437" y="-296.3" font-family="Helvetica,sans-Serif" font-size="11.00" fill="#000000">[table]</text>
<polygon fill="none" stroke="#000000" points="263,-266.2 263,-288.2 351,-288.2 351,-266.2 263,-266.2"/>
<image xlink:href="../../images/primaryKeys.png" width="11px" height="12px" preserveAspectRatio="xMinYMin meet" x="268" y="-283.2"/>
<text text-anchor="start" x="283" y="-273.3" font-family="Helvetica,sans-Serif" font-size="11.00" fill="#000000">id</text>
<polygon fill="#ffffff" stroke="transparent" points="263,-244.2 263,-266.2 351,-266.2 351,-244.2 263,-244.2"/>
<polygon fill="none" stroke="#000000" points="263,-244.2 263,-266.2 351,-266.2 351,-244.2 263,-244.2"/>
<image xlink:href="../../images/foreignKeys.png" width="11px" height="12px" preserveAspectRatio="xMinYMin meet" x="268" y="-261.2"/>
<text text-anchor="start" x="283" y="-251.3" font-family="Helvetica,sans-Serif" font-size="11.00" fill="#000000">event_id</text>
<polygon fill="#ffffff" stroke="transparent" points="263,-222.2 263,-244.2 351,-244.2 351,-222.2 263,-222.2"/>
<polygon fill="none" stroke="#000000" points="263,-222.2 263,-244.2 351,-244.2 351,-222.2 263,-222.2"/>
<image xlink:href="../../images/foreignKeys.png" width="11px" height="12px" preserveAspectRatio="xMinYMin meet" x="268" y="-239.2"/>
<text text-anchor="start" x="283" y="-229.3" font-family="Helvetica,sans-Serif" font-size="11.00" fill="#000000">category_id</text>
<polygon fill="#ffffff" stroke="transparent" points="263,-200.2 263,-222.2 351,-222.2 351,-200.2 263,-200.2"/>
<polygon fill="none" stroke="#000000" points="263,-200.2 263,-222.2 351,-222.2 351,-200.2 263,-200.2"/>
<image xlink:href="../../images/foreignKeys.png" width="11px" height="12px" preserveAspectRatio="xMinYMin meet" x="268" y="-217.2"/>
<text text-anchor="start" x="283" y="-207.3" font-family="Helvetica,sans-Serif" font-size="11.00" fill="#000000">level_id</text>
<polygon fill="none" stroke="#000000" points="263,-181.2 263,-200.2 351,-200.2 351,-181.2 263,-181.2"/>
<text text-anchor="start" x="266" y="-187.3" font-family="Helvetica,sans-Serif" font-size="11.00" fill="#000000">...</text>
<polygon fill="#ffffff" stroke="transparent" points="263,-162.2 263,-181.2 288,-181.2 288,-162.2 263,-162.2"/>
<polygon fill="none" stroke="#000000" points="263,-162.2 263,-181.2 288,-181.2 288,-162.2 263,-162.2"/>
<text text-anchor="start" x="266" y="-168.3" font-family="Helvetica,sans-Serif" font-size="11.00" fill="#000000">&lt; 3</text>
<polygon fill="#ffffff" stroke="transparent" points="288,-162.2 288,-181.2 328,-181.2 328,-162.2 288,-162.2"/>
<polygon fill="none" stroke="#000000" points="288,-162.2 288,-181.2 328,-181.2 328,-162.2 288,-162.2"/>
<text text-anchor="start" x="292.6105" y="-168.3" font-family="Helvetica,sans-Serif" font-size="11.00" fill="#000000">0 rows</text>
<polygon fill="#ffffff" stroke="transparent" points="328,-162.2 328,-181.2 351,-181.2 351,-162.2 328,-162.2"/>
<polygon fill="none" stroke="#000000" points="328,-162.2 328,-181.2 351,-181.2 351,-162.2 328,-162.2"/>
<text text-anchor="start" x="332.4053" y="-168.3" font-family="Helvetica,sans-Serif" font-size="11.00" fill="#000000">2 &gt;</text>
</a>
</g>
</g>
<!-- gymnast_has_skills&#45;&gt;skills -->
<g id="edge1" class="edge">
<title>gymnast_has_skills:w&#45;&gt;skills:e</title>
<path fill="none" stroke="#000000" d="M386.3768,-215.9466C369.7322,-231.0798 381.5399,-277.2 351,-277.2"/>
<polygon fill="#000000" stroke="#000000" points="392.4454,-213.8322 401.1845,-214.5996 396.2227,-212.5161 400,-211.2 400,-211.2 400,-211.2 396.2227,-212.5161 398.8155,-207.8004 392.4454,-213.8322 392.4454,-213.8322"/>
<ellipse fill="none" stroke="#000000" cx="389.4236" cy="-214.8851" rx="3.2" ry="3.2"/>
</g>
<!-- levels -->
<g id="node4" class="node">
<title>levels</title>
<g id="a_node4"><a xlink:href="../../tables/levels.html" xlink:title="levels" target="_top">
<polygon fill="#ffffff" stroke="transparent" points="8,-38.2 8,-216.2 214,-216.2 214,-38.2 8,-38.2"/>
<polygon fill="#f5f5f5" stroke="transparent" points="10,-191.2 10,-214.2 212,-214.2 212,-191.2 10,-191.2"/>
<polygon fill="none" stroke="#000000" points="10,-191.2 10,-214.2 212,-214.2 212,-191.2 10,-191.2"/>
<text text-anchor="start" x="15" y="-200.3" font-family="Helvetica,sans-Serif" font-weight="bold" font-size="11.00" fill="#000000">levels</text>
<text text-anchor="start" x="177.0437" y="-199.3" font-family="Helvetica,sans-Serif" font-size="11.00" fill="#000000">[table]</text>
<polygon fill="none" stroke="#000000" points="10,-169.2 10,-191.2 95,-191.2 95,-169.2 10,-169.2"/>
<image xlink:href="../../images/primaryKeys.png" width="11px" height="12px" preserveAspectRatio="xMinYMin meet" x="15" y="-186.2"/>
<text text-anchor="start" x="30" y="-176.3" font-family="Helvetica,sans-Serif" font-size="11.00" fill="#000000">id</text>
<polygon fill="none" stroke="#000000" points="95,-169.2 95,-191.2 212,-191.2 212,-169.2 95,-169.2"/>
<text text-anchor="start" x="98" y="-176.9" font-family="Helvetica,sans-Serif" font-size="11.00" fill="#000000">bigint[19]</text>
<polygon fill="none" stroke="#000000" points="10,-147.2 10,-169.2 95,-169.2 95,-147.2 10,-147.2"/>
<text text-anchor="start" x="30" y="-154.3" font-family="Helvetica,sans-Serif" font-size="11.00" fill="#000000">level</text>
<polygon fill="none" stroke="#000000" points="95,-147.2 95,-169.2 212,-169.2 212,-147.2 95,-147.2"/>
<text text-anchor="start" x="98" y="-154.9" font-family="Helvetica,sans-Serif" font-size="11.00" fill="#000000">varchar[45]</text>
<polygon fill="none" stroke="#000000" points="10,-125.2 10,-147.2 95,-147.2 95,-125.2 10,-125.2"/>
<text text-anchor="start" x="30" y="-132.3" font-family="Helvetica,sans-Serif" font-size="11.00" fill="#000000">description</text>
<polygon fill="none" stroke="#000000" points="95,-125.2 95,-147.2 212,-147.2 212,-125.2 95,-125.2"/>
<text text-anchor="start" x="97.5644" y="-132.9" font-family="Helvetica,sans-Serif" font-size="11.00" fill="#000000">mediumtext[16777215]</text>
<polygon fill="none" stroke="#000000" points="10,-103.2 10,-125.2 95,-125.2 95,-103.2 10,-103.2"/>
<text text-anchor="start" x="30" y="-110.3" font-family="Helvetica,sans-Serif" font-size="11.00" fill="#000000">created_at</text>
<polygon fill="none" stroke="#000000" points="95,-103.2 95,-125.2 212,-125.2 212,-103.2 95,-103.2"/>
<text text-anchor="start" x="98" y="-110.9" font-family="Helvetica,sans-Serif" font-size="11.00" fill="#000000">timestamp[19]</text>
<polygon fill="none" stroke="#000000" points="10,-81.2 10,-103.2 95,-103.2 95,-81.2 10,-81.2"/>
<text text-anchor="start" x="30" y="-88.3" font-family="Helvetica,sans-Serif" font-size="11.00" fill="#000000">updated_at</text>
<polygon fill="none" stroke="#000000" points="95,-81.2 95,-103.2 212,-103.2 212,-81.2 95,-81.2"/>
<text text-anchor="start" x="98" y="-88.9" font-family="Helvetica,sans-Serif" font-size="11.00" fill="#000000">timestamp[19]</text>
<polygon fill="none" stroke="#000000" points="10,-59.2 10,-81.2 95,-81.2 95,-59.2 10,-59.2"/>
<text text-anchor="start" x="30" y="-66.3" font-family="Helvetica,sans-Serif" font-size="11.00" fill="#000000">deleted_at</text>
<polygon fill="none" stroke="#000000" points="95,-59.2 95,-81.2 212,-81.2 212,-59.2 95,-59.2"/>
<text text-anchor="start" x="98" y="-66.9" font-family="Helvetica,sans-Serif" font-size="11.00" fill="#000000">timestamp[19]</text>
<polygon fill="#ffffff" stroke="transparent" points="10,-40.2 10,-59.2 44,-59.2 44,-40.2 10,-40.2"/>
<polygon fill="none" stroke="#000000" points="10,-40.2 10,-59.2 44,-59.2 44,-40.2 10,-40.2"/>
<text text-anchor="start" x="13" y="-46.3" font-family="Helvetica,sans-Serif" font-size="11.00" fill="#000000">&lt; 0</text>
<polygon fill="#ffffff" stroke="transparent" points="44,-40.2 44,-59.2 95,-59.2 95,-40.2 44,-40.2"/>
<polygon fill="none" stroke="#000000" points="44,-40.2 44,-59.2 95,-59.2 95,-40.2 44,-40.2"/>
<text text-anchor="start" x="59.6105" y="-46.3" font-family="Helvetica,sans-Serif" font-size="11.00" fill="#000000">0 rows</text>
<polygon fill="#ffffff" stroke="transparent" points="95,-40.2 95,-59.2 212,-59.2 212,-40.2 95,-40.2"/>
<polygon fill="none" stroke="#000000" points="95,-40.2 95,-59.2 212,-59.2 212,-40.2 95,-40.2"/>
<text text-anchor="start" x="193.4053" y="-46.3" font-family="Helvetica,sans-Serif" font-size="11.00" fill="#000000">2 &gt;</text>
<polygon fill="none" stroke="#000000" stroke-width="2" points="9,-39.2 9,-215.2 213,-215.2 213,-39.2 9,-39.2"/>
</a>
</g>
</g>
<!-- skills&#45;&gt;levels -->
<g id="edge6" class="edge">
<title>skills:w&#45;&gt;levels:e</title>
<path fill="none" stroke="#000000" d="M249.0967,-207.3988C236.0044,-199.1209 232.7231,-180.2 212,-180.2"/>
<polygon fill="#000000" stroke="#000000" points="255.2832,-209.0902 262.0506,-214.6726 259.1416,-210.1451 263,-211.2 263,-211.2 263,-211.2 259.1416,-210.1451 263.9494,-207.7274 255.2832,-209.0902 255.2832,-209.0902"/>
<ellipse fill="none" stroke="#000000" cx="252.1965" cy="-208.2462" rx="3.2" ry="3.2"/>
</g>
<!-- categories -->
<g id="node5" class="node">
<title>categories</title>
<g id="a_node5"><a xlink:href="../../tables/categories.html" xlink:title="categories" target="_top">
<polygon fill="#ffffff" stroke="transparent" points="64.5,-237.7 64.5,-298.7 157.5,-298.7 157.5,-237.7 64.5,-237.7"/>
<polygon fill="#f5f5f5" stroke="transparent" points="65,-275.2 65,-298.2 158,-298.2 158,-275.2 65,-275.2"/>
<polygon fill="none" stroke="#000000" points="65,-275.2 65,-298.2 158,-298.2 158,-275.2 65,-275.2"/>
<text text-anchor="start" x="69.6329" y="-284.3" font-family="Helvetica,sans-Serif" font-weight="bold" font-size="11.00" fill="#000000">categories</text>
<text text-anchor="start" x="123.5219" y="-283.3" font-family="Helvetica,sans-Serif" font-size="11.00" fill="#000000">[table]</text>
<polygon fill="none" stroke="#000000" points="65,-256.2 65,-275.2 158,-275.2 158,-256.2 65,-256.2"/>
<text text-anchor="start" x="68" y="-262.3" font-family="Helvetica,sans-Serif" font-size="11.00" fill="#000000">...</text>
<polygon fill="#ffffff" stroke="transparent" points="65,-237.2 65,-256.2 88,-256.2 88,-237.2 65,-237.2"/>
<polygon fill="none" stroke="#000000" points="65,-237.2 65,-256.2 88,-256.2 88,-237.2 65,-237.2"/>
<text text-anchor="start" x="68" y="-243.3" font-family="Helvetica,sans-Serif" font-size="11.00" fill="#000000"> &#160;</text>
<polygon fill="#ffffff" stroke="transparent" points="88,-237.2 88,-256.2 131,-256.2 131,-237.2 88,-237.2"/>
<polygon fill="none" stroke="#000000" points="88,-237.2 88,-256.2 131,-256.2 131,-237.2 88,-237.2"/>
<text text-anchor="start" x="95.6105" y="-243.3" font-family="Helvetica,sans-Serif" font-size="11.00" fill="#000000">0 rows</text>
<polygon fill="#ffffff" stroke="transparent" points="131,-237.2 131,-256.2 158,-256.2 158,-237.2 131,-237.2"/>
<polygon fill="none" stroke="#000000" points="131,-237.2 131,-256.2 158,-256.2 158,-237.2 131,-237.2"/>
<text text-anchor="start" x="139.4053" y="-243.3" font-family="Helvetica,sans-Serif" font-size="11.00" fill="#000000">1 &gt;</text>
</a>
</g>
</g>
<!-- skills&#45;&gt;categories -->
<g id="edge4" class="edge">
<title>skills:w&#45;&gt;categories:e</title>
<path fill="none" stroke="#000000" d="M248.3682,-234.2647C212.0945,-239.8172 201.4498,-265.2 158,-265.2"/>
<polygon fill="#000000" stroke="#000000" points="255.0211,-233.7806 263.2613,-236.7905 259.0105,-233.4903 263,-233.2 263,-233.2 263,-233.2 259.0105,-233.4903 262.7387,-229.6095 255.0211,-233.7806 255.0211,-233.7806"/>
<ellipse fill="none" stroke="#000000" cx="251.8295" cy="-234.0129" rx="3.2" ry="3.2"/>
</g>
<!-- events -->
<g id="node6" class="node">
<title>events</title>
<g id="a_node6"><a xlink:href="../../tables/events.html" xlink:title="events" target="_top">
<polygon fill="#ffffff" stroke="transparent" points="71,-319.7 71,-380.7 151,-380.7 151,-319.7 71,-319.7"/>
<polygon fill="#f5f5f5" stroke="transparent" points="71,-357.2 71,-380.2 151,-380.2 151,-357.2 71,-357.2"/>
<polygon fill="none" stroke="#000000" points="71,-357.2 71,-380.2 151,-380.2 151,-357.2 71,-357.2"/>
<text text-anchor="start" x="76" y="-366.3" font-family="Helvetica,sans-Serif" font-weight="bold" font-size="11.00" fill="#000000">events</text>
<text text-anchor="start" x="116.0437" y="-365.3" font-family="Helvetica,sans-Serif" font-size="11.00" fill="#000000">[table]</text>
<polygon fill="none" stroke="#000000" points="71,-338.2 71,-357.2 151,-357.2 151,-338.2 71,-338.2"/>
<text text-anchor="start" x="74" y="-344.3" font-family="Helvetica,sans-Serif" font-size="11.00" fill="#000000">...</text>
<polygon fill="#ffffff" stroke="transparent" points="71,-319.2 71,-338.2 92,-338.2 92,-319.2 71,-319.2"/>
<polygon fill="none" stroke="#000000" points="71,-319.2 71,-338.2 92,-338.2 92,-319.2 71,-319.2"/>
<text text-anchor="start" x="73.7027" y="-325.3" font-family="Helvetica,sans-Serif" font-size="11.00" fill="#000000">&lt; 1</text>
<polygon fill="#ffffff" stroke="transparent" points="92,-319.2 92,-338.2 130,-338.2 130,-319.2 92,-319.2"/>
<polygon fill="none" stroke="#000000" points="92,-319.2 92,-338.2 130,-338.2 130,-319.2 92,-319.2"/>
<text text-anchor="start" x="94.8053" y="-325.3" font-family="Helvetica,sans-Serif" font-size="11.00" fill="#000000">0 rows</text>
<polygon fill="#ffffff" stroke="transparent" points="130,-319.2 130,-338.2 151,-338.2 151,-319.2 130,-319.2"/>
<polygon fill="none" stroke="#000000" points="130,-319.2 130,-338.2 151,-338.2 151,-319.2 130,-319.2"/>
<text text-anchor="start" x="132.7027" y="-325.3" font-family="Helvetica,sans-Serif" font-size="11.00" fill="#000000">1 &gt;</text>
</a>
</g>
</g>
<!-- skills&#45;&gt;events -->
<g id="edge5" class="edge">
<title>skills:w&#45;&gt;events:e</title>
<path fill="none" stroke="#000000" d="M248.8384,-259.3343C236.3961,-269.0673 240.0875,-293.7659 222,-309.2 194.7739,-332.432 186.7909,-347.2 151,-347.2"/>
<polygon fill="#000000" stroke="#000000" points="255.3206,-257.4419 264.0089,-258.6558 259.1603,-256.321 263,-255.2 263,-255.2 263,-255.2 259.1603,-256.321 261.9911,-251.7442 255.3206,-257.4419 255.3206,-257.4419"/>
<ellipse fill="none" stroke="#000000" cx="252.2488" cy="-258.3387" rx="3.2" ry="3.2"/>
</g>
<!-- skill_has_levels -->
<g id="node3" class="node">
<title>skill_has_levels</title>
<g id="a_node3"><a xlink:href="../../tables/skill_has_levels.html" xlink:title="skill_has_levels" target="_top">
<polygon fill="#ffffff" stroke="transparent" points="409.5,-265.7 409.5,-370.7 528.5,-370.7 528.5,-265.7 409.5,-265.7"/>
<polygon fill="#f5f5f5" stroke="transparent" points="410,-347.2 410,-370.2 529,-370.2 529,-347.2 410,-347.2"/>
<polygon fill="none" stroke="#000000" points="410,-347.2 410,-370.2 529,-370.2 529,-347.2 410,-347.2"/>
<text text-anchor="start" x="414.8031" y="-356.3" font-family="Helvetica,sans-Serif" font-weight="bold" font-size="11.00" fill="#000000">skill_has_levels</text>
<text text-anchor="start" x="494.5219" y="-355.3" font-family="Helvetica,sans-Serif" font-size="11.00" fill="#000000">[table]</text>
<polygon fill="none" stroke="#000000" points="410,-325.2 410,-347.2 529,-347.2 529,-325.2 410,-325.2"/>
<image xlink:href="../../images/primaryKeys.png" width="11px" height="12px" preserveAspectRatio="xMinYMin meet" x="415" y="-342.2"/>
<text text-anchor="start" x="434" y="-332.3" font-family="Helvetica,sans-Serif" font-size="11.00" fill="#000000">levels_id</text>
<polygon fill="none" stroke="#000000" points="410,-303.2 410,-325.2 529,-325.2 529,-303.2 410,-303.2"/>
<image xlink:href="../../images/primaryKeys.png" width="11px" height="12px" preserveAspectRatio="xMinYMin meet" x="415" y="-320.2"/>
<text text-anchor="start" x="434" y="-310.3" font-family="Helvetica,sans-Serif" font-size="11.00" fill="#000000">skills_id</text>
<polygon fill="none" stroke="#000000" points="410,-284.2 410,-303.2 529,-303.2 529,-284.2 410,-284.2"/>
<text text-anchor="start" x="413" y="-290.3" font-family="Helvetica,sans-Serif" font-size="11.00" fill="#000000">...</text>
<polygon fill="#ffffff" stroke="transparent" points="410,-265.2 410,-284.2 455,-284.2 455,-265.2 410,-265.2"/>
<polygon fill="none" stroke="#000000" points="410,-265.2 410,-284.2 455,-284.2 455,-265.2 410,-265.2"/>
<text text-anchor="start" x="413" y="-271.3" font-family="Helvetica,sans-Serif" font-size="11.00" fill="#000000">&lt; 2</text>
<polygon fill="#ffffff" stroke="transparent" points="455,-265.2 455,-284.2 505,-284.2 505,-265.2 455,-265.2"/>
<polygon fill="none" stroke="#000000" points="455,-265.2 455,-284.2 505,-284.2 505,-265.2 455,-265.2"/>
<text text-anchor="start" x="469.6105" y="-271.3" font-family="Helvetica,sans-Serif" font-size="11.00" fill="#000000">0 rows</text>
<polygon fill="#ffffff" stroke="transparent" points="505,-265.2 505,-284.2 529,-284.2 529,-265.2 505,-265.2"/>
<polygon fill="none" stroke="#000000" points="505,-265.2 505,-284.2 529,-284.2 529,-265.2 505,-265.2"/>
<text text-anchor="start" x="519.8862" y="-271.3" font-family="Helvetica,sans-Serif" font-size="11.00" fill="#000000"> &#160;</text>
</a>
</g>
</g>
<!-- skill_has_levels&#45;&gt;skills -->
<g id="edge3" class="edge">
<title>skill_has_levels:w&#45;&gt;skills:e</title>
<path fill="none" stroke="#000000" d="M395.7139,-310.7854C378.9468,-301.6258 376.1485,-277.2 351,-277.2"/>
<polygon fill="#000000" stroke="#000000" points="402.2192,-312.3402 409.1631,-317.7014 406.1096,-313.2701 410,-314.2 410,-314.2 410,-314.2 406.1096,-313.2701 410.8369,-310.6986 402.2192,-312.3402 402.2192,-312.3402"/>
<ellipse fill="none" stroke="#000000" cx="399.1068" cy="-311.5963" rx="3.2" ry="3.2"/>
</g>
<!-- skill_has_levels&#45;&gt;levels -->
<g id="edge2" class="edge">
<title>skill_has_levels:w&#45;&gt;levels:e</title>
<path fill="none" stroke="#000000" d="M395.5615,-336.6261C336.0655,-340.1061 304.7592,-362.7204 255,-322.2 203.8679,-280.5616 277.9412,-180.2 212,-180.2"/>
<polygon fill="#000000" stroke="#000000" points="402.0035,-336.436 410.1062,-339.7984 406.0017,-336.318 410,-336.2 410,-336.2 410,-336.2 406.0017,-336.318 409.8938,-332.6016 402.0035,-336.436 402.0035,-336.436"/>
<ellipse fill="none" stroke="#000000" cx="398.8049" cy="-336.5304" rx="3.2" ry="3.2"/>
</g>
</g>
</svg>
