<?xml version="1.0" encoding="UTF-8" standalone="no"?>
<!DOCTYPE svg PUBLIC "-//W3C//DTD SVG 1.1//EN"
 "http://www.w3.org/Graphics/SVG/1.1/DTD/svg11.dtd">
<!-- Generated by graphviz version 2.40.1 (20161225.0304)
 -->
<!-- Title: oneDegreeRelationshipsDiagram Pages: 1 -->
<svg width="398pt" height="162pt"
 viewBox="0.00 0.00 398.00 162.20" xmlns="http://www.w3.org/2000/svg" xmlns:xlink="http://www.w3.org/1999/xlink">
<g id="graph0" class="graph" transform="scale(1 1) rotate(0) translate(4 158.2)">
<title>oneDegreeRelationshipsDiagram</title>
<polygon fill="#ffffff" stroke="transparent" points="-4,4 -4,-158.2 394,-158.2 394,4 -4,4"/>
<text text-anchor="middle" x="72.4936" y="-7.3" font-family="Helvetica,sans-Serif" font-size="11.00" fill="#000000">Generated by SchemaSpy</text>
<!-- skill_has_levels -->
<g id="node1" class="node">
<title>skill_has_levels</title>
<g id="a_node1"><a xlink:href="../../tables/skill_has_levels.html" xlink:title="skill_has_levels" target="_top">
<polygon fill="#ffffff" stroke="transparent" points="263,-43.7 263,-148.7 382,-148.7 382,-43.7 263,-43.7"/>
<polygon fill="#f5f5f5" stroke="transparent" points="263.5,-125.2 263.5,-148.2 382.5,-148.2 382.5,-125.2 263.5,-125.2"/>
<polygon fill="none" stroke="#000000" points="263.5,-125.2 263.5,-148.2 382.5,-148.2 382.5,-125.2 263.5,-125.2"/>
<text text-anchor="start" x="268.3031" y="-134.3" font-family="Helvetica,sans-Serif" font-weight="bold" font-size="11.00" fill="#000000">skill_has_levels</text>
<text text-anchor="start" x="348.0219" y="-133.3" font-family="Helvetica,sans-Serif" font-size="11.00" fill="#000000">[table]</text>
<polygon fill="none" stroke="#000000" points="263.5,-103.2 263.5,-125.2 382.5,-125.2 382.5,-103.2 263.5,-103.2"/>
<image xlink:href="../../images/primaryKeys.png" width="11px" height="12px" preserveAspectRatio="xMinYMin meet" x="268.5" y="-120.2"/>
<text text-anchor="start" x="287.5" y="-110.3" font-family="Helvetica,sans-Serif" font-size="11.00" fill="#000000">levels_id</text>
<polygon fill="none" stroke="#000000" points="263.5,-81.2 263.5,-103.2 382.5,-103.2 382.5,-81.2 263.5,-81.2"/>
<image xlink:href="../../images/primaryKeys.png" width="11px" height="12px" preserveAspectRatio="xMinYMin meet" x="268.5" y="-98.2"/>
<text text-anchor="start" x="287.5" y="-88.3" font-family="Helvetica,sans-Serif" font-size="11.00" fill="#000000">skills_id</text>
<polygon fill="none" stroke="#000000" points="263.5,-62.2 263.5,-81.2 382.5,-81.2 382.5,-62.2 263.5,-62.2"/>
<text text-anchor="start" x="266.5" y="-68.3" font-family="Helvetica,sans-Serif" font-size="11.00" fill="#000000">...</text>
<polygon fill="#ffffff" stroke="transparent" points="263.5,-43.2 263.5,-62.2 308.5,-62.2 308.5,-43.2 263.5,-43.2"/>
<polygon fill="none" stroke="#000000" points="263.5,-43.2 263.5,-62.2 308.5,-62.2 308.5,-43.2 263.5,-43.2"/>
<text text-anchor="start" x="266.5" y="-49.3" font-family="Helvetica,sans-Serif" font-size="11.00" fill="#000000">&lt; 2</text>
<polygon fill="#ffffff" stroke="transparent" points="308.5,-43.2 308.5,-62.2 358.5,-62.2 358.5,-43.2 308.5,-43.2"/>
<polygon fill="none" stroke="#000000" points="308.5,-43.2 308.5,-62.2 358.5,-62.2 358.5,-43.2 308.5,-43.2"/>
<text text-anchor="start" x="323.1105" y="-49.3" font-family="Helvetica,sans-Serif" font-size="11.00" fill="#000000">0 rows</text>
<polygon fill="#ffffff" stroke="transparent" points="358.5,-43.2 358.5,-62.2 382.5,-62.2 382.5,-43.2 358.5,-43.2"/>
<polygon fill="none" stroke="#000000" points="358.5,-43.2 358.5,-62.2 382.5,-62.2 382.5,-43.2 358.5,-43.2"/>
<text text-anchor="start" x="373.3862" y="-49.3" font-family="Helvetica,sans-Serif" font-size="11.00" fill="#000000"> &#160;</text>
</a>
</g>
</g>
<!-- levels -->
<g id="node2" class="node">
<title>levels</title>
<g id="a_node2"><a xlink:href="../../tables/levels.html" xlink:title="levels" target="_top">
<polygon fill="#ffffff" stroke="transparent" points="8,-38.2 8,-150.2 214,-150.2 214,-38.2 8,-38.2"/>
<polygon fill="#f5f5f5" stroke="transparent" points="10,-125.2 10,-148.2 212,-148.2 212,-125.2 10,-125.2"/>
<polygon fill="none" stroke="#000000" points="10,-125.2 10,-148.2 212,-148.2 212,-125.2 10,-125.2"/>
<text text-anchor="start" x="15" y="-134.3" font-family="Helvetica,sans-Serif" font-weight="bold" font-size="11.00" fill="#000000">levels</text>
<text text-anchor="start" x="177.0437" y="-133.3" font-family="Helvetica,sans-Serif" font-size="11.00" fill="#000000">[table]</text>
<polygon fill="none" stroke="#000000" points="10,-103.2 10,-125.2 95,-125.2 95,-103.2 10,-103.2"/>
<image xlink:href="../../images/primaryKeys.png" width="11px" height="12px" preserveAspectRatio="xMinYMin meet" x="15" y="-120.2"/>
<text text-anchor="start" x="30" y="-110.3" font-family="Helvetica,sans-Serif" font-size="11.00" fill="#000000">id</text>
<polygon fill="none" stroke="#000000" points="95,-103.2 95,-125.2 212,-125.2 212,-103.2 95,-103.2"/>
<text text-anchor="start" x="98" y="-110.9" font-family="Helvetica,sans-Serif" font-size="11.00" fill="#000000">int[10]</text>
<polygon fill="none" stroke="#000000" points="10,-81.2 10,-103.2 95,-103.2 95,-81.2 10,-81.2"/>
<text text-anchor="start" x="30" y="-88.3" font-family="Helvetica,sans-Serif" font-size="11.00" fill="#000000">level</text>
<polygon fill="none" stroke="#000000" points="95,-81.2 95,-103.2 212,-103.2 212,-81.2 95,-81.2"/>
<text text-anchor="start" x="98" y="-88.9" font-family="Helvetica,sans-Serif" font-size="11.00" fill="#000000">varchar[45]</text>
<polygon fill="none" stroke="#000000" points="10,-59.2 10,-81.2 95,-81.2 95,-59.2 10,-59.2"/>
<text text-anchor="start" x="30" y="-66.3" font-family="Helvetica,sans-Serif" font-size="11.00" fill="#000000">description</text>
<polygon fill="none" stroke="#000000" points="95,-59.2 95,-81.2 212,-81.2 212,-59.2 95,-59.2"/>
<text text-anchor="start" x="97.5644" y="-66.9" font-family="Helvetica,sans-Serif" font-size="11.00" fill="#000000">mediumtext[16777215]</text>
<polygon fill="#ffffff" stroke="transparent" points="10,-40.2 10,-59.2 44,-59.2 44,-40.2 10,-40.2"/>
<polygon fill="none" stroke="#000000" points="10,-40.2 10,-59.2 44,-59.2 44,-40.2 10,-40.2"/>
<text text-anchor="start" x="13" y="-46.3" font-family="Helvetica,sans-Serif" font-size="11.00" fill="#000000">&lt; 0</text>
<polygon fill="#ffffff" stroke="transparent" points="44,-40.2 44,-59.2 95,-59.2 95,-40.2 44,-40.2"/>
<polygon fill="none" stroke="#000000" points="44,-40.2 44,-59.2 95,-59.2 95,-40.2 44,-40.2"/>
<text text-anchor="start" x="59.6105" y="-46.3" font-family="Helvetica,sans-Serif" font-size="11.00" fill="#000000">0 rows</text>
<polygon fill="#ffffff" stroke="transparent" points="95,-40.2 95,-59.2 212,-59.2 212,-40.2 95,-40.2"/>
<polygon fill="none" stroke="#000000" points="95,-40.2 95,-59.2 212,-59.2 212,-40.2 95,-40.2"/>
<text text-anchor="start" x="193.4053" y="-46.3" font-family="Helvetica,sans-Serif" font-size="11.00" fill="#000000">1 &gt;</text>
<polygon fill="none" stroke="#000000" stroke-width="2" points="9,-39.2 9,-149.2 213,-149.2 213,-39.2 9,-39.2"/>
</a>
</g>
</g>
<!-- skill_has_levels&#45;&gt;levels -->
<g id="edge1" class="edge">
<title>skill_has_levels:w&#45;&gt;levels:e</title>
<path fill="none" stroke="#000000" d="M249.0156,-114.2C236.6771,-114.2 229.1667,-114.2 212,-114.2"/>
<polygon fill="#000000" stroke="#000000" points="255.5,-114.2001 263.5,-117.8 259.5,-114.2 263.5,-114.2 263.5,-114.2 263.5,-114.2 259.5,-114.2 263.5,-110.6 255.5,-114.2001 255.5,-114.2001"/>
<ellipse fill="none" stroke="#000000" cx="252.3" cy="-114.2001" rx="3.2" ry="3.2"/>
</g>
</g>
</svg>
