<?xml version="1.0" encoding="UTF-8" standalone="no"?>
<!DOCTYPE svg PUBLIC "-//W3C//DTD SVG 1.1//EN"
 "http://www.w3.org/Graphics/SVG/1.1/DTD/svg11.dtd">
<!-- Generated by graphviz version 2.40.1 (20161225.0304)
 -->
<!-- Title: twoDegreesRelationshipsDiagram Pages: 1 -->
<svg width="554pt" height="393pt"
 viewBox="0.00 0.00 554.00 392.70" xmlns="http://www.w3.org/2000/svg" xmlns:xlink="http://www.w3.org/1999/xlink">
<g id="graph0" class="graph" transform="scale(1 1) rotate(0) translate(4 388.7)">
<title>twoDegreesRelationshipsDiagram</title>
<polygon fill="#ffffff" stroke="transparent" points="-4,4 -4,-388.7 550,-388.7 550,4 -4,4"/>
<text text-anchor="middle" x="72.4936" y="-7.3" font-family="Helvetica,sans-Serif" font-size="11.00" fill="#000000">Generated by SchemaSpy</text>
<!-- gymnast_has_skills -->
<g id="node1" class="node">
<title>gymnast_has_skills</title>
<g id="a_node1"><a xlink:href="../../tables/gymnast_has_skills.html" xlink:title="gymnast_has_skills" target="_top">
<polygon fill="#ffffff" stroke="transparent" points="400,-281.7 400,-342.7 538,-342.7 538,-281.7 400,-281.7"/>
<polygon fill="#f5f5f5" stroke="transparent" points="400,-319.2 400,-342.2 538,-342.2 538,-319.2 400,-319.2"/>
<polygon fill="none" stroke="#000000" points="400,-319.2 400,-342.2 538,-342.2 538,-319.2 400,-319.2"/>
<text text-anchor="start" x="404.8271" y="-328.3" font-family="Helvetica,sans-Serif" font-weight="bold" font-size="11.00" fill="#000000">gymnast_has_skills</text>
<text text-anchor="start" x="503.5219" y="-327.3" font-family="Helvetica,sans-Serif" font-size="11.00" fill="#000000">[table]</text>
<polygon fill="none" stroke="#000000" points="400,-300.2 400,-319.2 538,-319.2 538,-300.2 400,-300.2"/>
<text text-anchor="start" x="403" y="-306.3" font-family="Helvetica,sans-Serif" font-size="11.00" fill="#000000">...</text>
<polygon fill="#ffffff" stroke="transparent" points="400,-281.2 400,-300.2 454,-300.2 454,-281.2 400,-281.2"/>
<polygon fill="none" stroke="#000000" points="400,-281.2 400,-300.2 454,-300.2 454,-281.2 400,-281.2"/>
<text text-anchor="start" x="403" y="-287.3" font-family="Helvetica,sans-Serif" font-size="11.00" fill="#000000">&lt; 2</text>
<polygon fill="#ffffff" stroke="transparent" points="454,-281.2 454,-300.2 509,-300.2 509,-281.2 454,-281.2"/>
<polygon fill="none" stroke="#000000" points="454,-281.2 454,-300.2 509,-300.2 509,-281.2 454,-281.2"/>
<text text-anchor="start" x="473.6105" y="-287.3" font-family="Helvetica,sans-Serif" font-size="11.00" fill="#000000">0 rows</text>
<polygon fill="#ffffff" stroke="transparent" points="509,-281.2 509,-300.2 538,-300.2 538,-281.2 509,-281.2"/>
<polygon fill="none" stroke="#000000" points="509,-281.2 509,-300.2 538,-300.2 538,-281.2 509,-281.2"/>
<text text-anchor="start" x="528.8862" y="-287.3" font-family="Helvetica,sans-Serif" font-size="11.00" fill="#000000"> &#160;</text>
</a>
</g>
</g>
<!-- skills -->
<g id="node2" class="node">
<title>skills</title>
<g id="a_node2"><a xlink:href="../../tables/skills.html" xlink:title="skills" target="_top">
<polygon fill="#ffffff" stroke="transparent" points="263,-194.7 263,-343.7 351,-343.7 351,-194.7 263,-194.7"/>
<polygon fill="#f5f5f5" stroke="transparent" points="263,-320.2 263,-343.2 351,-343.2 351,-320.2 263,-320.2"/>
<polygon fill="none" stroke="#000000" points="263,-320.2 263,-343.2 351,-343.2 351,-320.2 263,-320.2"/>
<text text-anchor="start" x="268" y="-329.3" font-family="Helvetica,sans-Serif" font-weight="bold" font-size="11.00" fill="#000000">skills</text>
<text text-anchor="start" x="316.0437" y="-328.3" font-family="Helvetica,sans-Serif" font-size="11.00" fill="#000000">[table]</text>
<polygon fill="none" stroke="#000000" points="263,-298.2 263,-320.2 351,-320.2 351,-298.2 263,-298.2"/>
<image xlink:href="../../images/primaryKeys.png" width="11px" height="12px" preserveAspectRatio="xMinYMin meet" x="268" y="-315.2"/>
<text text-anchor="start" x="283" y="-305.3" font-family="Helvetica,sans-Serif" font-size="11.00" fill="#000000">id</text>
<polygon fill="#ffffff" stroke="transparent" points="263,-276.2 263,-298.2 351,-298.2 351,-276.2 263,-276.2"/>
<polygon fill="none" stroke="#000000" points="263,-276.2 263,-298.2 351,-298.2 351,-276.2 263,-276.2"/>
<image xlink:href="../../images/foreignKeys.png" width="11px" height="12px" preserveAspectRatio="xMinYMin meet" x="268" y="-293.2"/>
<text text-anchor="start" x="283" y="-283.3" font-family="Helvetica,sans-Serif" font-size="11.00" fill="#000000">event_id</text>
<polygon fill="#ffffff" stroke="transparent" points="263,-254.2 263,-276.2 351,-276.2 351,-254.2 263,-254.2"/>
<polygon fill="none" stroke="#000000" points="263,-254.2 263,-276.2 351,-276.2 351,-254.2 263,-254.2"/>
<image xlink:href="../../images/foreignKeys.png" width="11px" height="12px" preserveAspectRatio="xMinYMin meet" x="268" y="-271.2"/>
<text text-anchor="start" x="283" y="-261.3" font-family="Helvetica,sans-Serif" font-size="11.00" fill="#000000">category_id</text>
<polygon fill="#ffffff" stroke="transparent" points="263,-232.2 263,-254.2 351,-254.2 351,-232.2 263,-232.2"/>
<polygon fill="none" stroke="#000000" points="263,-232.2 263,-254.2 351,-254.2 351,-232.2 263,-232.2"/>
<image xlink:href="../../images/foreignKeys.png" width="11px" height="12px" preserveAspectRatio="xMinYMin meet" x="268" y="-249.2"/>
<text text-anchor="start" x="283" y="-239.3" font-family="Helvetica,sans-Serif" font-size="11.00" fill="#000000">level_id</text>
<polygon fill="none" stroke="#000000" points="263,-213.2 263,-232.2 351,-232.2 351,-213.2 263,-213.2"/>
<text text-anchor="start" x="266" y="-219.3" font-family="Helvetica,sans-Serif" font-size="11.00" fill="#000000">...</text>
<polygon fill="#ffffff" stroke="transparent" points="263,-194.2 263,-213.2 288,-213.2 288,-194.2 263,-194.2"/>
<polygon fill="none" stroke="#000000" points="263,-194.2 263,-213.2 288,-213.2 288,-194.2 263,-194.2"/>
<text text-anchor="start" x="266" y="-200.3" font-family="Helvetica,sans-Serif" font-size="11.00" fill="#000000">&lt; 3</text>
<polygon fill="#ffffff" stroke="transparent" points="288,-194.2 288,-213.2 328,-213.2 328,-194.2 288,-194.2"/>
<polygon fill="none" stroke="#000000" points="288,-194.2 288,-213.2 328,-213.2 328,-194.2 288,-194.2"/>
<text text-anchor="start" x="292.6105" y="-200.3" font-family="Helvetica,sans-Serif" font-size="11.00" fill="#000000">0 rows</text>
<polygon fill="#ffffff" stroke="transparent" points="328,-194.2 328,-213.2 351,-213.2 351,-194.2 328,-194.2"/>
<polygon fill="none" stroke="#000000" points="328,-194.2 328,-213.2 351,-213.2 351,-194.2 328,-194.2"/>
<text text-anchor="start" x="332.4053" y="-200.3" font-family="Helvetica,sans-Serif" font-size="11.00" fill="#000000">1 &gt;</text>
</a>
</g>
</g>
<!-- gymnast_has_skills&#45;&gt;skills -->
<g id="edge1" class="edge">
<title>gymnast_has_skills:w&#45;&gt;skills:e</title>
<path fill="none" stroke="#000000" d="M385.4909,-309.2C374.1774,-309.2 366.9931,-309.2 351,-309.2"/>
<polygon fill="#000000" stroke="#000000" points="392,-309.2001 400,-312.8 396,-309.2 400,-309.2 400,-309.2 400,-309.2 396,-309.2 400,-305.6 392,-309.2001 392,-309.2001"/>
<ellipse fill="none" stroke="#000000" cx="388.8" cy="-309.2001" rx="3.2" ry="3.2"/>
</g>
<!-- categories -->
<g id="node3" class="node">
<title>categories</title>
<g id="a_node3"><a xlink:href="../../tables/categories.html" xlink:title="categories" target="_top">
<polygon fill="#ffffff" stroke="transparent" points="64.5,-237.7 64.5,-298.7 157.5,-298.7 157.5,-237.7 64.5,-237.7"/>
<polygon fill="#f5f5f5" stroke="transparent" points="65,-275.2 65,-298.2 158,-298.2 158,-275.2 65,-275.2"/>
<polygon fill="none" stroke="#000000" points="65,-275.2 65,-298.2 158,-298.2 158,-275.2 65,-275.2"/>
<text text-anchor="start" x="69.6329" y="-284.3" font-family="Helvetica,sans-Serif" font-weight="bold" font-size="11.00" fill="#000000">categories</text>
<text text-anchor="start" x="123.5219" y="-283.3" font-family="Helvetica,sans-Serif" font-size="11.00" fill="#000000">[table]</text>
<polygon fill="none" stroke="#000000" points="65,-256.2 65,-275.2 158,-275.2 158,-256.2 65,-256.2"/>
<text text-anchor="start" x="68" y="-262.3" font-family="Helvetica,sans-Serif" font-size="11.00" fill="#000000">...</text>
<polygon fill="#ffffff" stroke="transparent" points="65,-237.2 65,-256.2 88,-256.2 88,-237.2 65,-237.2"/>
<polygon fill="none" stroke="#000000" points="65,-237.2 65,-256.2 88,-256.2 88,-237.2 65,-237.2"/>
<text text-anchor="start" x="68" y="-243.3" font-family="Helvetica,sans-Serif" font-size="11.00" fill="#000000"> &#160;</text>
<polygon fill="#ffffff" stroke="transparent" points="88,-237.2 88,-256.2 131,-256.2 131,-237.2 88,-237.2"/>
<polygon fill="none" stroke="#000000" points="88,-237.2 88,-256.2 131,-256.2 131,-237.2 88,-237.2"/>
<text text-anchor="start" x="95.6105" y="-243.3" font-family="Helvetica,sans-Serif" font-size="11.00" fill="#000000">0 rows</text>
<polygon fill="#ffffff" stroke="transparent" points="131,-237.2 131,-256.2 158,-256.2 158,-237.2 131,-237.2"/>
<polygon fill="none" stroke="#000000" points="131,-237.2 131,-256.2 158,-256.2 158,-237.2 131,-237.2"/>
<text text-anchor="start" x="139.4053" y="-243.3" font-family="Helvetica,sans-Serif" font-size="11.00" fill="#000000">1 &gt;</text>
</a>
</g>
</g>
<!-- skills&#45;&gt;categories -->
<g id="edge2" class="edge">
<title>skills:w&#45;&gt;categories:e</title>
<path fill="none" stroke="#000000" d="M248.3863,-265.2C213.241,-265.2 199.3802,-265.2 158,-265.2"/>
<polygon fill="#000000" stroke="#000000" points="255,-265.2001 263,-268.8 259,-265.2 263,-265.2 263,-265.2 263,-265.2 259,-265.2 263,-261.6 255,-265.2001 255,-265.2001"/>
<ellipse fill="none" stroke="#000000" cx="251.8" cy="-265.2001" rx="3.2" ry="3.2"/>
</g>
<!-- events -->
<g id="node4" class="node">
<title>events</title>
<g id="a_node4"><a xlink:href="../../tables/events.html" xlink:title="events" target="_top">
<polygon fill="#ffffff" stroke="transparent" points="71,-319.7 71,-380.7 151,-380.7 151,-319.7 71,-319.7"/>
<polygon fill="#f5f5f5" stroke="transparent" points="71,-357.2 71,-380.2 151,-380.2 151,-357.2 71,-357.2"/>
<polygon fill="none" stroke="#000000" points="71,-357.2 71,-380.2 151,-380.2 151,-357.2 71,-357.2"/>
<text text-anchor="start" x="76" y="-366.3" font-family="Helvetica,sans-Serif" font-weight="bold" font-size="11.00" fill="#000000">events</text>
<text text-anchor="start" x="116.0437" y="-365.3" font-family="Helvetica,sans-Serif" font-size="11.00" fill="#000000">[table]</text>
<polygon fill="none" stroke="#000000" points="71,-338.2 71,-357.2 151,-357.2 151,-338.2 71,-338.2"/>
<text text-anchor="start" x="74" y="-344.3" font-family="Helvetica,sans-Serif" font-size="11.00" fill="#000000">...</text>
<polygon fill="#ffffff" stroke="transparent" points="71,-319.2 71,-338.2 92,-338.2 92,-319.2 71,-319.2"/>
<polygon fill="none" stroke="#000000" points="71,-319.2 71,-338.2 92,-338.2 92,-319.2 71,-319.2"/>
<text text-anchor="start" x="73.7027" y="-325.3" font-family="Helvetica,sans-Serif" font-size="11.00" fill="#000000">&lt; 1</text>
<polygon fill="#ffffff" stroke="transparent" points="92,-319.2 92,-338.2 130,-338.2 130,-319.2 92,-319.2"/>
<polygon fill="none" stroke="#000000" points="92,-319.2 92,-338.2 130,-338.2 130,-319.2 92,-319.2"/>
<text text-anchor="start" x="94.8053" y="-325.3" font-family="Helvetica,sans-Serif" font-size="11.00" fill="#000000">0 rows</text>
<polygon fill="#ffffff" stroke="transparent" points="130,-319.2 130,-338.2 151,-338.2 151,-319.2 130,-319.2"/>
<polygon fill="none" stroke="#000000" points="130,-319.2 130,-338.2 151,-338.2 151,-319.2 130,-319.2"/>
<text text-anchor="start" x="132.7027" y="-325.3" font-family="Helvetica,sans-Serif" font-size="11.00" fill="#000000">1 &gt;</text>
</a>
</g>
</g>
<!-- skills&#45;&gt;events -->
<g id="edge3" class="edge">
<title>skills:w&#45;&gt;events:e</title>
<path fill="none" stroke="#000000" d="M248.588,-290.0497C239.6556,-294.2456 234.8162,-302.3318 222,-309.2 190.4535,-326.1057 186.7909,-347.2 151,-347.2"/>
<polygon fill="#000000" stroke="#000000" points="255.1519,-288.7518 263.6983,-290.7316 259.076,-287.9759 263,-287.2 263,-287.2 263,-287.2 259.076,-287.9759 262.3017,-283.6684 255.1519,-288.7518 255.1519,-288.7518"/>
<ellipse fill="none" stroke="#000000" cx="252.0127" cy="-289.3726" rx="3.2" ry="3.2"/>
</g>
<!-- levels -->
<g id="node5" class="node">
<title>levels</title>
<g id="a_node5"><a xlink:href="../../tables/levels.html" xlink:title="levels" target="_top">
<polygon fill="#ffffff" stroke="transparent" points="8,-38.2 8,-216.2 214,-216.2 214,-38.2 8,-38.2"/>
<polygon fill="#f5f5f5" stroke="transparent" points="10,-191.2 10,-214.2 212,-214.2 212,-191.2 10,-191.2"/>
<polygon fill="none" stroke="#000000" points="10,-191.2 10,-214.2 212,-214.2 212,-191.2 10,-191.2"/>
<text text-anchor="start" x="15" y="-200.3" font-family="Helvetica,sans-Serif" font-weight="bold" font-size="11.00" fill="#000000">levels</text>
<text text-anchor="start" x="177.0437" y="-199.3" font-family="Helvetica,sans-Serif" font-size="11.00" fill="#000000">[table]</text>
<polygon fill="none" stroke="#000000" points="10,-169.2 10,-191.2 95,-191.2 95,-169.2 10,-169.2"/>
<image xlink:href="../../images/primaryKeys.png" width="11px" height="12px" preserveAspectRatio="xMinYMin meet" x="15" y="-186.2"/>
<text text-anchor="start" x="30" y="-176.3" font-family="Helvetica,sans-Serif" font-size="11.00" fill="#000000">id</text>
<polygon fill="none" stroke="#000000" points="95,-169.2 95,-191.2 212,-191.2 212,-169.2 95,-169.2"/>
<text text-anchor="start" x="98" y="-176.9" font-family="Helvetica,sans-Serif" font-size="11.00" fill="#000000">bigint[19]</text>
<polygon fill="none" stroke="#000000" points="10,-147.2 10,-169.2 95,-169.2 95,-147.2 10,-147.2"/>
<text text-anchor="start" x="30" y="-154.3" font-family="Helvetica,sans-Serif" font-size="11.00" fill="#000000">level</text>
<polygon fill="none" stroke="#000000" points="95,-147.2 95,-169.2 212,-169.2 212,-147.2 95,-147.2"/>
<text text-anchor="start" x="98" y="-154.9" font-family="Helvetica,sans-Serif" font-size="11.00" fill="#000000">varchar[45]</text>
<polygon fill="none" stroke="#000000" points="10,-125.2 10,-147.2 95,-147.2 95,-125.2 10,-125.2"/>
<text text-anchor="start" x="30" y="-132.3" font-family="Helvetica,sans-Serif" font-size="11.00" fill="#000000">description</text>
<polygon fill="none" stroke="#000000" points="95,-125.2 95,-147.2 212,-147.2 212,-125.2 95,-125.2"/>
<text text-anchor="start" x="97.5644" y="-132.9" font-family="Helvetica,sans-Serif" font-size="11.00" fill="#000000">mediumtext[16777215]</text>
<polygon fill="none" stroke="#000000" points="10,-103.2 10,-125.2 95,-125.2 95,-103.2 10,-103.2"/>
<text text-anchor="start" x="30" y="-110.3" font-family="Helvetica,sans-Serif" font-size="11.00" fill="#000000">created_at</text>
<polygon fill="none" stroke="#000000" points="95,-103.2 95,-125.2 212,-125.2 212,-103.2 95,-103.2"/>
<text text-anchor="start" x="98" y="-110.9" font-family="Helvetica,sans-Serif" font-size="11.00" fill="#000000">timestamp[19]</text>
<polygon fill="none" stroke="#000000" points="10,-81.2 10,-103.2 95,-103.2 95,-81.2 10,-81.2"/>
<text text-anchor="start" x="30" y="-88.3" font-family="Helvetica,sans-Serif" font-size="11.00" fill="#000000">updated_at</text>
<polygon fill="none" stroke="#000000" points="95,-81.2 95,-103.2 212,-103.2 212,-81.2 95,-81.2"/>
<text text-anchor="start" x="98" y="-88.9" font-family="Helvetica,sans-Serif" font-size="11.00" fill="#000000">timestamp[19]</text>
<polygon fill="none" stroke="#000000" points="10,-59.2 10,-81.2 95,-81.2 95,-59.2 10,-59.2"/>
<text text-anchor="start" x="30" y="-66.3" font-family="Helvetica,sans-Serif" font-size="11.00" fill="#000000">deleted_at</text>
<polygon fill="none" stroke="#000000" points="95,-59.2 95,-81.2 212,-81.2 212,-59.2 95,-59.2"/>
<text text-anchor="start" x="98" y="-66.9" font-family="Helvetica,sans-Serif" font-size="11.00" fill="#000000">timestamp[19]</text>
<polygon fill="#ffffff" stroke="transparent" points="10,-40.2 10,-59.2 44,-59.2 44,-40.2 10,-40.2"/>
<polygon fill="none" stroke="#000000" points="10,-40.2 10,-59.2 44,-59.2 44,-40.2 10,-40.2"/>
<text text-anchor="start" x="13" y="-46.3" font-family="Helvetica,sans-Serif" font-size="11.00" fill="#000000">&lt; 0</text>
<polygon fill="#ffffff" stroke="transparent" points="44,-40.2 44,-59.2 95,-59.2 95,-40.2 44,-40.2"/>
<polygon fill="none" stroke="#000000" points="44,-40.2 44,-59.2 95,-59.2 95,-40.2 44,-40.2"/>
<text text-anchor="start" x="59.6105" y="-46.3" font-family="Helvetica,sans-Serif" font-size="11.00" fill="#000000">0 rows</text>
<polygon fill="#ffffff" stroke="transparent" points="95,-40.2 95,-59.2 212,-59.2 212,-40.2 95,-40.2"/>
<polygon fill="none" stroke="#000000" points="95,-40.2 95,-59.2 212,-59.2 212,-40.2 95,-40.2"/>
<text text-anchor="start" x="193.4053" y="-46.3" font-family="Helvetica,sans-Serif" font-size="11.00" fill="#000000">1 &gt;</text>
<polygon fill="none" stroke="#000000" stroke-width="2" points="9,-39.2 9,-215.2 213,-215.2 213,-39.2 9,-39.2"/>
</a>
</g>
</g>
<!-- skills&#45;&gt;levels -->
<g id="edge4" class="edge">
<title>skills:w&#45;&gt;levels:e</title>
<path fill="none" stroke="#000000" d="M248.9033,-238.2565C232.525,-223.4048 241.8329,-180.2 212,-180.2"/>
<polygon fill="#000000" stroke="#000000" points="255.4507,-240.5526 261.8087,-246.5972 259.2254,-241.8763 263,-243.2 263,-243.2 263,-243.2 259.2254,-241.8763 264.1913,-239.8028 255.4507,-240.5526 255.4507,-240.5526"/>
<ellipse fill="none" stroke="#000000" cx="252.431" cy="-239.4936" rx="3.2" ry="3.2"/>
</g>
</g>
</svg>
