<?xml version="1.0" encoding="UTF-8" standalone="no"?>
<!DOCTYPE svg PUBLIC "-//W3C//DTD SVG 1.1//EN"
 "http://www.w3.org/Graphics/SVG/1.1/DTD/svg11.dtd">
<!-- Generated by graphviz version 2.40.1 (20161225.0304)
 -->
<!-- Title: twoDegreesRelationshipsDiagram Pages: 1 -->
<svg width="398pt" height="245pt"
 viewBox="0.00 0.00 398.00 244.70" xmlns="http://www.w3.org/2000/svg" xmlns:xlink="http://www.w3.org/1999/xlink">
<g id="graph0" class="graph" transform="scale(1 1) rotate(0) translate(4 240.7)">
<title>twoDegreesRelationshipsDiagram</title>
<polygon fill="#ffffff" stroke="transparent" points="-4,4 -4,-240.7 394,-240.7 394,4 -4,4"/>
<text text-anchor="middle" x="72.4936" y="-7.3" font-family="Helvetica,sans-Serif" font-size="11.00" fill="#000000">Generated by SchemaSpy</text>
<!-- skill_has_levels -->
<g id="node1" class="node">
<title>skill_has_levels</title>
<g id="a_node1"><a xlink:href="../../tables/skill_has_levels.html" xlink:title="skill_has_levels" target="_top">
<polygon fill="#ffffff" stroke="transparent" points="263,-71.2 263,-176.2 382,-176.2 382,-71.2 263,-71.2"/>
<polygon fill="#f5f5f5" stroke="transparent" points="263.5,-152.7 263.5,-175.7 382.5,-175.7 382.5,-152.7 263.5,-152.7"/>
<polygon fill="none" stroke="#000000" points="263.5,-152.7 263.5,-175.7 382.5,-175.7 382.5,-152.7 263.5,-152.7"/>
<text text-anchor="start" x="268.3031" y="-161.8" font-family="Helvetica,sans-Serif" font-weight="bold" font-size="11.00" fill="#000000">skill_has_levels</text>
<text text-anchor="start" x="348.0219" y="-160.8" font-family="Helvetica,sans-Serif" font-size="11.00" fill="#000000">[table]</text>
<polygon fill="none" stroke="#000000" points="263.5,-130.7 263.5,-152.7 382.5,-152.7 382.5,-130.7 263.5,-130.7"/>
<image xlink:href="../../images/primaryKeys.png" width="11px" height="12px" preserveAspectRatio="xMinYMin meet" x="268.5" y="-147.7"/>
<text text-anchor="start" x="287.5" y="-137.8" font-family="Helvetica,sans-Serif" font-size="11.00" fill="#000000">levels_id</text>
<polygon fill="none" stroke="#000000" points="263.5,-108.7 263.5,-130.7 382.5,-130.7 382.5,-108.7 263.5,-108.7"/>
<image xlink:href="../../images/primaryKeys.png" width="11px" height="12px" preserveAspectRatio="xMinYMin meet" x="268.5" y="-125.7"/>
<text text-anchor="start" x="287.5" y="-115.8" font-family="Helvetica,sans-Serif" font-size="11.00" fill="#000000">skills_id</text>
<polygon fill="none" stroke="#000000" points="263.5,-89.7 263.5,-108.7 382.5,-108.7 382.5,-89.7 263.5,-89.7"/>
<text text-anchor="start" x="266.5" y="-95.8" font-family="Helvetica,sans-Serif" font-size="11.00" fill="#000000">...</text>
<polygon fill="#ffffff" stroke="transparent" points="263.5,-70.7 263.5,-89.7 308.5,-89.7 308.5,-70.7 263.5,-70.7"/>
<polygon fill="none" stroke="#000000" points="263.5,-70.7 263.5,-89.7 308.5,-89.7 308.5,-70.7 263.5,-70.7"/>
<text text-anchor="start" x="266.5" y="-76.8" font-family="Helvetica,sans-Serif" font-size="11.00" fill="#000000">&lt; 2</text>
<polygon fill="#ffffff" stroke="transparent" points="308.5,-70.7 308.5,-89.7 358.5,-89.7 358.5,-70.7 308.5,-70.7"/>
<polygon fill="none" stroke="#000000" points="308.5,-70.7 308.5,-89.7 358.5,-89.7 358.5,-70.7 308.5,-70.7"/>
<text text-anchor="start" x="323.1105" y="-76.8" font-family="Helvetica,sans-Serif" font-size="11.00" fill="#000000">0 rows</text>
<polygon fill="#ffffff" stroke="transparent" points="358.5,-70.7 358.5,-89.7 382.5,-89.7 382.5,-70.7 358.5,-70.7"/>
<polygon fill="none" stroke="#000000" points="358.5,-70.7 358.5,-89.7 382.5,-89.7 382.5,-70.7 358.5,-70.7"/>
<text text-anchor="start" x="373.3862" y="-76.8" font-family="Helvetica,sans-Serif" font-size="11.00" fill="#000000"> &#160;</text>
</a>
</g>
</g>
<!-- levels -->
<g id="node2" class="node">
<title>levels</title>
<g id="a_node2"><a xlink:href="../../tables/levels.html" xlink:title="levels" target="_top">
<polygon fill="#ffffff" stroke="transparent" points="8,-120.7 8,-232.7 214,-232.7 214,-120.7 8,-120.7"/>
<polygon fill="#f5f5f5" stroke="transparent" points="10,-207.7 10,-230.7 212,-230.7 212,-207.7 10,-207.7"/>
<polygon fill="none" stroke="#000000" points="10,-207.7 10,-230.7 212,-230.7 212,-207.7 10,-207.7"/>
<text text-anchor="start" x="15" y="-216.8" font-family="Helvetica,sans-Serif" font-weight="bold" font-size="11.00" fill="#000000">levels</text>
<text text-anchor="start" x="177.0437" y="-215.8" font-family="Helvetica,sans-Serif" font-size="11.00" fill="#000000">[table]</text>
<polygon fill="none" stroke="#000000" points="10,-185.7 10,-207.7 95,-207.7 95,-185.7 10,-185.7"/>
<image xlink:href="../../images/primaryKeys.png" width="11px" height="12px" preserveAspectRatio="xMinYMin meet" x="15" y="-202.7"/>
<text text-anchor="start" x="30" y="-192.8" font-family="Helvetica,sans-Serif" font-size="11.00" fill="#000000">id</text>
<polygon fill="none" stroke="#000000" points="95,-185.7 95,-207.7 212,-207.7 212,-185.7 95,-185.7"/>
<text text-anchor="start" x="98" y="-193.4" font-family="Helvetica,sans-Serif" font-size="11.00" fill="#000000">int[10]</text>
<polygon fill="none" stroke="#000000" points="10,-163.7 10,-185.7 95,-185.7 95,-163.7 10,-163.7"/>
<text text-anchor="start" x="30" y="-170.8" font-family="Helvetica,sans-Serif" font-size="11.00" fill="#000000">level</text>
<polygon fill="none" stroke="#000000" points="95,-163.7 95,-185.7 212,-185.7 212,-163.7 95,-163.7"/>
<text text-anchor="start" x="98" y="-171.4" font-family="Helvetica,sans-Serif" font-size="11.00" fill="#000000">varchar[45]</text>
<polygon fill="none" stroke="#000000" points="10,-141.7 10,-163.7 95,-163.7 95,-141.7 10,-141.7"/>
<text text-anchor="start" x="30" y="-148.8" font-family="Helvetica,sans-Serif" font-size="11.00" fill="#000000">description</text>
<polygon fill="none" stroke="#000000" points="95,-141.7 95,-163.7 212,-163.7 212,-141.7 95,-141.7"/>
<text text-anchor="start" x="97.5644" y="-149.4" font-family="Helvetica,sans-Serif" font-size="11.00" fill="#000000">mediumtext[16777215]</text>
<polygon fill="#ffffff" stroke="transparent" points="10,-122.7 10,-141.7 44,-141.7 44,-122.7 10,-122.7"/>
<polygon fill="none" stroke="#000000" points="10,-122.7 10,-141.7 44,-141.7 44,-122.7 10,-122.7"/>
<text text-anchor="start" x="13" y="-128.8" font-family="Helvetica,sans-Serif" font-size="11.00" fill="#000000">&lt; 0</text>
<polygon fill="#ffffff" stroke="transparent" points="44,-122.7 44,-141.7 95,-141.7 95,-122.7 44,-122.7"/>
<polygon fill="none" stroke="#000000" points="44,-122.7 44,-141.7 95,-141.7 95,-122.7 44,-122.7"/>
<text text-anchor="start" x="59.6105" y="-128.8" font-family="Helvetica,sans-Serif" font-size="11.00" fill="#000000">0 rows</text>
<polygon fill="#ffffff" stroke="transparent" points="95,-122.7 95,-141.7 212,-141.7 212,-122.7 95,-122.7"/>
<polygon fill="none" stroke="#000000" points="95,-122.7 95,-141.7 212,-141.7 212,-122.7 95,-122.7"/>
<text text-anchor="start" x="193.4053" y="-128.8" font-family="Helvetica,sans-Serif" font-size="11.00" fill="#000000">1 &gt;</text>
<polygon fill="none" stroke="#000000" stroke-width="2" points="9,-121.7 9,-231.7 213,-231.7 213,-121.7 9,-121.7"/>
</a>
</g>
</g>
<!-- skill_has_levels&#45;&gt;levels -->
<g id="edge1" class="edge">
<title>skill_has_levels:w&#45;&gt;levels:e</title>
<path fill="none" stroke="#000000" d="M249.6226,-146.3893C233.9928,-159.6898 239.4705,-196.7 212,-196.7"/>
<polygon fill="#000000" stroke="#000000" points="255.921,-144.261 264.6525,-145.1106 259.7105,-142.9805 263.5,-141.7 263.5,-141.7 263.5,-141.7 259.7105,-142.9805 262.3475,-138.2894 255.921,-144.261 255.921,-144.261"/>
<ellipse fill="none" stroke="#000000" cx="252.8894" cy="-145.2854" rx="3.2" ry="3.2"/>
</g>
<!-- skills -->
<g id="node3" class="node">
<title>skills</title>
<g id="a_node3"><a xlink:href="../../tables/skills.html" xlink:title="skills" target="_top">
<polygon fill="#ffffff" stroke="transparent" points="71,-38.2 71,-99.2 151,-99.2 151,-38.2 71,-38.2"/>
<polygon fill="#f5f5f5" stroke="transparent" points="71,-75.7 71,-98.7 151,-98.7 151,-75.7 71,-75.7"/>
<polygon fill="none" stroke="#000000" points="71,-75.7 71,-98.7 151,-98.7 151,-75.7 71,-75.7"/>
<text text-anchor="start" x="76" y="-84.8" font-family="Helvetica,sans-Serif" font-weight="bold" font-size="11.00" fill="#000000">skills</text>
<text text-anchor="start" x="116.0437" y="-83.8" font-family="Helvetica,sans-Serif" font-size="11.00" fill="#000000">[table]</text>
<polygon fill="none" stroke="#000000" points="71,-56.7 71,-75.7 151,-75.7 151,-56.7 71,-56.7"/>
<text text-anchor="start" x="74" y="-62.8" font-family="Helvetica,sans-Serif" font-size="11.00" fill="#000000">...</text>
<polygon fill="#ffffff" stroke="transparent" points="71,-37.7 71,-56.7 92,-56.7 92,-37.7 71,-37.7"/>
<polygon fill="none" stroke="#000000" points="71,-37.7 71,-56.7 92,-56.7 92,-37.7 71,-37.7"/>
<text text-anchor="start" x="73.7027" y="-43.8" font-family="Helvetica,sans-Serif" font-size="11.00" fill="#000000">&lt; 1</text>
<polygon fill="#ffffff" stroke="transparent" points="92,-37.7 92,-56.7 130,-56.7 130,-37.7 92,-37.7"/>
<polygon fill="none" stroke="#000000" points="92,-37.7 92,-56.7 130,-56.7 130,-37.7 92,-37.7"/>
<text text-anchor="start" x="94.8053" y="-43.8" font-family="Helvetica,sans-Serif" font-size="11.00" fill="#000000">0 rows</text>
<polygon fill="#ffffff" stroke="transparent" points="130,-37.7 130,-56.7 151,-56.7 151,-37.7 130,-37.7"/>
<polygon fill="none" stroke="#000000" points="130,-37.7 130,-56.7 151,-56.7 151,-37.7 130,-37.7"/>
<text text-anchor="start" x="132.7027" y="-43.8" font-family="Helvetica,sans-Serif" font-size="11.00" fill="#000000">2 &gt;</text>
</a>
</g>
</g>
<!-- skill_has_levels&#45;&gt;skills -->
<g id="edge2" class="edge">
<title>skill_has_levels:w&#45;&gt;skills:e</title>
<path fill="none" stroke="#000000" d="M248.9626,-118.3109C207.243,-109.8587 201.1538,-65.7 151,-65.7"/>
<polygon fill="#000000" stroke="#000000" points="255.5363,-118.939 263.1575,-123.2837 259.5181,-119.3195 263.5,-119.7 263.5,-119.7 263.5,-119.7 259.5181,-119.3195 263.8425,-116.1163 255.5363,-118.939 255.5363,-118.939"/>
<ellipse fill="none" stroke="#000000" cx="252.3508" cy="-118.6346" rx="3.2" ry="3.2"/>
</g>
</g>
</svg>
