<?xml version="1.0" encoding="UTF-8" standalone="no"?>
<!DOCTYPE svg PUBLIC "-//W3C//DTD SVG 1.1//EN"
 "http://www.w3.org/Graphics/SVG/1.1/DTD/svg11.dtd">
<!-- Generated by graphviz version 2.40.1 (20161225.0304)
 -->
<!-- Title: oneDegreeRelationshipsDiagram Pages: 1 -->
<svg width="535pt" height="271pt"
 viewBox="0.00 0.00 535.00 270.70" xmlns="http://www.w3.org/2000/svg" xmlns:xlink="http://www.w3.org/1999/xlink">
<g id="graph0" class="graph" transform="scale(1 1) rotate(0) translate(4 266.7)">
<title>oneDegreeRelationshipsDiagram</title>
<polygon fill="#ffffff" stroke="transparent" points="-4,4 -4,-266.7 531,-266.7 531,4 -4,4"/>
<text text-anchor="middle" x="72.4936" y="-7.3" font-family="Helvetica,sans-Serif" font-size="11.00" fill="#000000">Generated by SchemaSpy</text>
<!-- skill_has_levels -->
<g id="node1" class="node">
<title>skill_has_levels</title>
<g id="a_node1"><a xlink:href="../../tables/skill_has_levels.html" xlink:title="skill_has_levels" target="_top">
<polygon fill="#ffffff" stroke="transparent" points="400,-153.7 400,-258.7 519,-258.7 519,-153.7 400,-153.7"/>
<polygon fill="#f5f5f5" stroke="transparent" points="400.5,-235.2 400.5,-258.2 519.5,-258.2 519.5,-235.2 400.5,-235.2"/>
<polygon fill="none" stroke="#000000" points="400.5,-235.2 400.5,-258.2 519.5,-258.2 519.5,-235.2 400.5,-235.2"/>
<text text-anchor="start" x="405.3031" y="-244.3" font-family="Helvetica,sans-Serif" font-weight="bold" font-size="11.00" fill="#000000">skill_has_levels</text>
<text text-anchor="start" x="485.0219" y="-243.3" font-family="Helvetica,sans-Serif" font-size="11.00" fill="#000000">[table]</text>
<polygon fill="none" stroke="#000000" points="400.5,-213.2 400.5,-235.2 519.5,-235.2 519.5,-213.2 400.5,-213.2"/>
<image xlink:href="../../images/primaryKeys.png" width="11px" height="12px" preserveAspectRatio="xMinYMin meet" x="405.5" y="-230.2"/>
<text text-anchor="start" x="424.5" y="-220.3" font-family="Helvetica,sans-Serif" font-size="11.00" fill="#000000">levels_id</text>
<polygon fill="none" stroke="#000000" points="400.5,-191.2 400.5,-213.2 519.5,-213.2 519.5,-191.2 400.5,-191.2"/>
<image xlink:href="../../images/primaryKeys.png" width="11px" height="12px" preserveAspectRatio="xMinYMin meet" x="405.5" y="-208.2"/>
<text text-anchor="start" x="424.5" y="-198.3" font-family="Helvetica,sans-Serif" font-size="11.00" fill="#000000">skills_id</text>
<polygon fill="none" stroke="#000000" points="400.5,-172.2 400.5,-191.2 519.5,-191.2 519.5,-172.2 400.5,-172.2"/>
<text text-anchor="start" x="403.5" y="-178.3" font-family="Helvetica,sans-Serif" font-size="11.00" fill="#000000">...</text>
<polygon fill="#ffffff" stroke="transparent" points="400.5,-153.2 400.5,-172.2 445.5,-172.2 445.5,-153.2 400.5,-153.2"/>
<polygon fill="none" stroke="#000000" points="400.5,-153.2 400.5,-172.2 445.5,-172.2 445.5,-153.2 400.5,-153.2"/>
<text text-anchor="start" x="403.5" y="-159.3" font-family="Helvetica,sans-Serif" font-size="11.00" fill="#000000">&lt; 2</text>
<polygon fill="#ffffff" stroke="transparent" points="445.5,-153.2 445.5,-172.2 495.5,-172.2 495.5,-153.2 445.5,-153.2"/>
<polygon fill="none" stroke="#000000" points="445.5,-153.2 445.5,-172.2 495.5,-172.2 495.5,-153.2 445.5,-153.2"/>
<text text-anchor="start" x="460.1105" y="-159.3" font-family="Helvetica,sans-Serif" font-size="11.00" fill="#000000">0 rows</text>
<polygon fill="#ffffff" stroke="transparent" points="495.5,-153.2 495.5,-172.2 519.5,-172.2 519.5,-153.2 495.5,-153.2"/>
<polygon fill="none" stroke="#000000" points="495.5,-153.2 495.5,-172.2 519.5,-172.2 519.5,-153.2 495.5,-153.2"/>
<text text-anchor="start" x="510.3862" y="-159.3" font-family="Helvetica,sans-Serif" font-size="11.00" fill="#000000"> &#160;</text>
</a>
</g>
</g>
<!-- levels -->
<g id="node2" class="node">
<title>levels</title>
<g id="a_node2"><a xlink:href="../../tables/levels.html" xlink:title="levels" target="_top">
<polygon fill="#ffffff" stroke="transparent" points="8,-38.2 8,-216.2 214,-216.2 214,-38.2 8,-38.2"/>
<polygon fill="#f5f5f5" stroke="transparent" points="10,-191.2 10,-214.2 212,-214.2 212,-191.2 10,-191.2"/>
<polygon fill="none" stroke="#000000" points="10,-191.2 10,-214.2 212,-214.2 212,-191.2 10,-191.2"/>
<text text-anchor="start" x="15" y="-200.3" font-family="Helvetica,sans-Serif" font-weight="bold" font-size="11.00" fill="#000000">levels</text>
<text text-anchor="start" x="177.0437" y="-199.3" font-family="Helvetica,sans-Serif" font-size="11.00" fill="#000000">[table]</text>
<polygon fill="none" stroke="#000000" points="10,-169.2 10,-191.2 95,-191.2 95,-169.2 10,-169.2"/>
<image xlink:href="../../images/primaryKeys.png" width="11px" height="12px" preserveAspectRatio="xMinYMin meet" x="15" y="-186.2"/>
<text text-anchor="start" x="30" y="-176.3" font-family="Helvetica,sans-Serif" font-size="11.00" fill="#000000">id</text>
<polygon fill="none" stroke="#000000" points="95,-169.2 95,-191.2 212,-191.2 212,-169.2 95,-169.2"/>
<text text-anchor="start" x="98" y="-176.9" font-family="Helvetica,sans-Serif" font-size="11.00" fill="#000000">bigint[19]</text>
<polygon fill="none" stroke="#000000" points="10,-147.2 10,-169.2 95,-169.2 95,-147.2 10,-147.2"/>
<text text-anchor="start" x="30" y="-154.3" font-family="Helvetica,sans-Serif" font-size="11.00" fill="#000000">level</text>
<polygon fill="none" stroke="#000000" points="95,-147.2 95,-169.2 212,-169.2 212,-147.2 95,-147.2"/>
<text text-anchor="start" x="98" y="-154.9" font-family="Helvetica,sans-Serif" font-size="11.00" fill="#000000">varchar[45]</text>
<polygon fill="none" stroke="#000000" points="10,-125.2 10,-147.2 95,-147.2 95,-125.2 10,-125.2"/>
<text text-anchor="start" x="30" y="-132.3" font-family="Helvetica,sans-Serif" font-size="11.00" fill="#000000">description</text>
<polygon fill="none" stroke="#000000" points="95,-125.2 95,-147.2 212,-147.2 212,-125.2 95,-125.2"/>
<text text-anchor="start" x="97.5644" y="-132.9" font-family="Helvetica,sans-Serif" font-size="11.00" fill="#000000">mediumtext[16777215]</text>
<polygon fill="none" stroke="#000000" points="10,-103.2 10,-125.2 95,-125.2 95,-103.2 10,-103.2"/>
<text text-anchor="start" x="30" y="-110.3" font-family="Helvetica,sans-Serif" font-size="11.00" fill="#000000">created_at</text>
<polygon fill="none" stroke="#000000" points="95,-103.2 95,-125.2 212,-125.2 212,-103.2 95,-103.2"/>
<text text-anchor="start" x="98" y="-110.9" font-family="Helvetica,sans-Serif" font-size="11.00" fill="#000000">timestamp[19]</text>
<polygon fill="none" stroke="#000000" points="10,-81.2 10,-103.2 95,-103.2 95,-81.2 10,-81.2"/>
<text text-anchor="start" x="30" y="-88.3" font-family="Helvetica,sans-Serif" font-size="11.00" fill="#000000">updated_at</text>
<polygon fill="none" stroke="#000000" points="95,-81.2 95,-103.2 212,-103.2 212,-81.2 95,-81.2"/>
<text text-anchor="start" x="98" y="-88.9" font-family="Helvetica,sans-Serif" font-size="11.00" fill="#000000">timestamp[19]</text>
<polygon fill="none" stroke="#000000" points="10,-59.2 10,-81.2 95,-81.2 95,-59.2 10,-59.2"/>
<text text-anchor="start" x="30" y="-66.3" font-family="Helvetica,sans-Serif" font-size="11.00" fill="#000000">deleted_at</text>
<polygon fill="none" stroke="#000000" points="95,-59.2 95,-81.2 212,-81.2 212,-59.2 95,-59.2"/>
<text text-anchor="start" x="98" y="-66.9" font-family="Helvetica,sans-Serif" font-size="11.00" fill="#000000">timestamp[19]</text>
<polygon fill="#ffffff" stroke="transparent" points="10,-40.2 10,-59.2 44,-59.2 44,-40.2 10,-40.2"/>
<polygon fill="none" stroke="#000000" points="10,-40.2 10,-59.2 44,-59.2 44,-40.2 10,-40.2"/>
<text text-anchor="start" x="13" y="-46.3" font-family="Helvetica,sans-Serif" font-size="11.00" fill="#000000">&lt; 0</text>
<polygon fill="#ffffff" stroke="transparent" points="44,-40.2 44,-59.2 95,-59.2 95,-40.2 44,-40.2"/>
<polygon fill="none" stroke="#000000" points="44,-40.2 44,-59.2 95,-59.2 95,-40.2 44,-40.2"/>
<text text-anchor="start" x="59.6105" y="-46.3" font-family="Helvetica,sans-Serif" font-size="11.00" fill="#000000">0 rows</text>
<polygon fill="#ffffff" stroke="transparent" points="95,-40.2 95,-59.2 212,-59.2 212,-40.2 95,-40.2"/>
<polygon fill="none" stroke="#000000" points="95,-40.2 95,-59.2 212,-59.2 212,-40.2 95,-40.2"/>
<text text-anchor="start" x="193.4053" y="-46.3" font-family="Helvetica,sans-Serif" font-size="11.00" fill="#000000">2 &gt;</text>
<polygon fill="none" stroke="#000000" stroke-width="2" points="9,-39.2 9,-215.2 213,-215.2 213,-39.2 9,-39.2"/>
</a>
</g>
</g>
<!-- skill_has_levels&#45;&gt;levels -->
<g id="edge1" class="edge">
<title>skill_has_levels:w&#45;&gt;levels:e</title>
<path fill="none" stroke="#000000" d="M386.0864,-225.1775C377.6642,-226.4054 371.6044,-228.4434 359,-229.2 312.8608,-231.9695 297.1052,-248.2694 255,-229.2 228.6065,-217.2464 240.9742,-180.2 212,-180.2"/>
<polygon fill="#000000" stroke="#000000" points="392.5183,-224.7413 400.7436,-227.7917 396.5092,-224.4707 400.5,-224.2 400.5,-224.2 400.5,-224.2 396.5092,-224.4707 400.2564,-220.6083 392.5183,-224.7413 392.5183,-224.7413"/>
<ellipse fill="none" stroke="#000000" cx="389.3257" cy="-224.9579" rx="3.2" ry="3.2"/>
</g>
<!-- skills -->
<g id="node3" class="node">
<title>skills</title>
<g id="a_node3"><a xlink:href="../../tables/skills.html" xlink:title="skills" target="_top">
<polygon fill="#ffffff" stroke="transparent" points="263,-69.7 263,-218.7 351,-218.7 351,-69.7 263,-69.7"/>
<polygon fill="#f5f5f5" stroke="transparent" points="263,-195.2 263,-218.2 351,-218.2 351,-195.2 263,-195.2"/>
<polygon fill="none" stroke="#000000" points="263,-195.2 263,-218.2 351,-218.2 351,-195.2 263,-195.2"/>
<text text-anchor="start" x="268" y="-204.3" font-family="Helvetica,sans-Serif" font-weight="bold" font-size="11.00" fill="#000000">skills</text>
<text text-anchor="start" x="316.0437" y="-203.3" font-family="Helvetica,sans-Serif" font-size="11.00" fill="#000000">[table]</text>
<polygon fill="none" stroke="#000000" points="263,-173.2 263,-195.2 351,-195.2 351,-173.2 263,-173.2"/>
<image xlink:href="../../images/primaryKeys.png" width="11px" height="12px" preserveAspectRatio="xMinYMin meet" x="268" y="-190.2"/>
<text text-anchor="start" x="283" y="-180.3" font-family="Helvetica,sans-Serif" font-size="11.00" fill="#000000">id</text>
<polygon fill="#ffffff" stroke="transparent" points="263,-151.2 263,-173.2 351,-173.2 351,-151.2 263,-151.2"/>
<polygon fill="none" stroke="#000000" points="263,-151.2 263,-173.2 351,-173.2 351,-151.2 263,-151.2"/>
<image xlink:href="../../images/foreignKeys.png" width="11px" height="12px" preserveAspectRatio="xMinYMin meet" x="268" y="-168.2"/>
<text text-anchor="start" x="283" y="-158.3" font-family="Helvetica,sans-Serif" font-size="11.00" fill="#000000">event_id</text>
<polygon fill="#ffffff" stroke="transparent" points="263,-129.2 263,-151.2 351,-151.2 351,-129.2 263,-129.2"/>
<polygon fill="none" stroke="#000000" points="263,-129.2 263,-151.2 351,-151.2 351,-129.2 263,-129.2"/>
<image xlink:href="../../images/foreignKeys.png" width="11px" height="12px" preserveAspectRatio="xMinYMin meet" x="268" y="-146.2"/>
<text text-anchor="start" x="283" y="-136.3" font-family="Helvetica,sans-Serif" font-size="11.00" fill="#000000">category_id</text>
<polygon fill="#ffffff" stroke="transparent" points="263,-107.2 263,-129.2 351,-129.2 351,-107.2 263,-107.2"/>
<polygon fill="none" stroke="#000000" points="263,-107.2 263,-129.2 351,-129.2 351,-107.2 263,-107.2"/>
<image xlink:href="../../images/foreignKeys.png" width="11px" height="12px" preserveAspectRatio="xMinYMin meet" x="268" y="-124.2"/>
<text text-anchor="start" x="283" y="-114.3" font-family="Helvetica,sans-Serif" font-size="11.00" fill="#000000">level_id</text>
<polygon fill="none" stroke="#000000" points="263,-88.2 263,-107.2 351,-107.2 351,-88.2 263,-88.2"/>
<text text-anchor="start" x="266" y="-94.3" font-family="Helvetica,sans-Serif" font-size="11.00" fill="#000000">...</text>
<polygon fill="#ffffff" stroke="transparent" points="263,-69.2 263,-88.2 288,-88.2 288,-69.2 263,-69.2"/>
<polygon fill="none" stroke="#000000" points="263,-69.2 263,-88.2 288,-88.2 288,-69.2 263,-69.2"/>
<text text-anchor="start" x="266" y="-75.3" font-family="Helvetica,sans-Serif" font-size="11.00" fill="#000000">&lt; 3</text>
<polygon fill="#ffffff" stroke="transparent" points="288,-69.2 288,-88.2 328,-88.2 328,-69.2 288,-69.2"/>
<polygon fill="none" stroke="#000000" points="288,-69.2 288,-88.2 328,-88.2 328,-69.2 288,-69.2"/>
<text text-anchor="start" x="292.6105" y="-75.3" font-family="Helvetica,sans-Serif" font-size="11.00" fill="#000000">0 rows</text>
<polygon fill="#ffffff" stroke="transparent" points="328,-69.2 328,-88.2 351,-88.2 351,-69.2 328,-69.2"/>
<polygon fill="none" stroke="#000000" points="328,-69.2 328,-88.2 351,-88.2 351,-69.2 328,-69.2"/>
<text text-anchor="start" x="332.4053" y="-75.3" font-family="Helvetica,sans-Serif" font-size="11.00" fill="#000000">2 &gt;</text>
</a>
</g>
</g>
<!-- skill_has_levels&#45;&gt;skills -->
<g id="edge2" class="edge">
<title>skill_has_levels:w&#45;&gt;skills:e</title>
<path fill="none" stroke="#000000" d="M386.1817,-199.3875C374.4545,-194.325 368.557,-184.2 351,-184.2"/>
<polygon fill="#000000" stroke="#000000" points="392.65,-200.658 399.8061,-205.7325 396.575,-201.429 400.5,-202.2 400.5,-202.2 400.5,-202.2 396.575,-201.429 401.1939,-198.6675 392.65,-200.658 392.65,-200.658"/>
<ellipse fill="none" stroke="#000000" cx="389.51" cy="-200.0412" rx="3.2" ry="3.2"/>
</g>
<!-- skills&#45;&gt;levels -->
<g id="edge3" class="edge">
<title>skills:w&#45;&gt;levels:e</title>
<path fill="none" stroke="#000000" d="M248.9998,-123.065C232.6631,-137.681 241.5478,-180.2 212,-180.2"/>
<polygon fill="#000000" stroke="#000000" points="255.4433,-120.826 264.1817,-121.6005 259.2216,-119.513 263,-118.2 263,-118.2 263,-118.2 259.2216,-119.513 261.8183,-114.7995 255.4433,-120.826 255.4433,-120.826"/>
<ellipse fill="none" stroke="#000000" cx="252.4206" cy="-121.8764" rx="3.2" ry="3.2"/>
</g>
</g>
</svg>
