<?xml version="1.0" encoding="UTF-8" standalone="no"?>
<!DOCTYPE svg PUBLIC "-//W3C//DTD SVG 1.1//EN"
 "http://www.w3.org/Graphics/SVG/1.1/DTD/svg11.dtd">
<!-- Generated by graphviz version 2.40.1 (20161225.0304)
 -->
<!-- Title: oneDegreeRelationshipsDiagram Pages: 1 -->
<svg width="437pt" height="162pt"
 viewBox="0.00 0.00 437.00 162.20" xmlns="http://www.w3.org/2000/svg" xmlns:xlink="http://www.w3.org/1999/xlink">
<g id="graph0" class="graph" transform="scale(1 1) rotate(0) translate(4 158.2)">
<title>oneDegreeRelationshipsDiagram</title>
<polygon fill="#ffffff" stroke="transparent" points="-4,4 -4,-158.2 433,-158.2 433,4 -4,4"/>
<text text-anchor="middle" x="72.4936" y="-7.3" font-family="Helvetica,sans-Serif" font-size="11.00" fill="#000000">Generated by SchemaSpy</text>
<!-- model_has_permissions -->
<g id="node1" class="node">
<title>model_has_permissions</title>
<g id="a_node1"><a xlink:href="../../tables/model_has_permissions.html" xlink:title="model_has_permissions" target="_top">
<polygon fill="#ffffff" stroke="transparent" points="158,-38.2 158,-150.2 421,-150.2 421,-38.2 158,-38.2"/>
<polygon fill="#f5f5f5" stroke="transparent" points="160.5,-125.2 160.5,-148.2 419.5,-148.2 419.5,-125.2 160.5,-125.2"/>
<polygon fill="none" stroke="#000000" points="160.5,-125.2 160.5,-148.2 419.5,-148.2 419.5,-125.2 160.5,-125.2"/>
<text text-anchor="start" x="165.5" y="-134.3" font-family="Helvetica,sans-Serif" font-weight="bold" font-size="11.00" fill="#000000">model_has_permissions</text>
<text text-anchor="start" x="384.5437" y="-133.3" font-family="Helvetica,sans-Serif" font-size="11.00" fill="#000000">[table]</text>
<polygon fill="none" stroke="#000000" points="160.5,-103.2 160.5,-125.2 321.5,-125.2 321.5,-103.2 160.5,-103.2"/>
<image xlink:href="../../images/primaryKeys.png" width="11px" height="12px" preserveAspectRatio="xMinYMin meet" x="165.5" y="-120.2"/>
<text text-anchor="start" x="180.5" y="-110.3" font-family="Helvetica,sans-Serif" font-size="11.00" fill="#000000">permission_id</text>
<polygon fill="none" stroke="#000000" points="321.5,-103.2 321.5,-125.2 419.5,-125.2 419.5,-103.2 321.5,-103.2"/>
<text text-anchor="start" x="324.3429" y="-110.9" font-family="Helvetica,sans-Serif" font-size="11.00" fill="#000000">bigint unsigned[20]</text>
<polygon fill="none" stroke="#000000" points="160.5,-81.2 160.5,-103.2 321.5,-103.2 321.5,-81.2 160.5,-81.2"/>
<image xlink:href="../../images/primaryKeys.png" width="11px" height="12px" preserveAspectRatio="xMinYMin meet" x="165.5" y="-98.2"/>
<text text-anchor="start" x="180.5" y="-88.3" font-family="Helvetica,sans-Serif" font-size="11.00" fill="#000000">model_type</text>
<polygon fill="none" stroke="#000000" points="321.5,-81.2 321.5,-103.2 419.5,-103.2 419.5,-81.2 321.5,-81.2"/>
<text text-anchor="start" x="324.5" y="-88.9" font-family="Helvetica,sans-Serif" font-size="11.00" fill="#000000">varchar[255]</text>
<polygon fill="none" stroke="#000000" points="160.5,-59.2 160.5,-81.2 321.5,-81.2 321.5,-59.2 160.5,-59.2"/>
<image xlink:href="../../images/primaryKeys.png" width="11px" height="12px" preserveAspectRatio="xMinYMin meet" x="165.5" y="-76.2"/>
<text text-anchor="start" x="180.5" y="-66.3" font-family="Helvetica,sans-Serif" font-size="11.00" fill="#000000">model_id</text>
<polygon fill="none" stroke="#000000" points="321.5,-59.2 321.5,-81.2 419.5,-81.2 419.5,-59.2 321.5,-59.2"/>
<text text-anchor="start" x="324.3429" y="-66.9" font-family="Helvetica,sans-Serif" font-size="11.00" fill="#000000">bigint unsigned[20]</text>
<polygon fill="#ffffff" stroke="transparent" points="160.5,-40.2 160.5,-59.2 232.5,-59.2 232.5,-40.2 160.5,-40.2"/>
<polygon fill="none" stroke="#000000" points="160.5,-40.2 160.5,-59.2 232.5,-59.2 232.5,-40.2 160.5,-40.2"/>
<text text-anchor="start" x="163.5" y="-46.3" font-family="Helvetica,sans-Serif" font-size="11.00" fill="#000000">&lt; 1</text>
<polygon fill="#ffffff" stroke="transparent" points="232.5,-40.2 232.5,-59.2 321.5,-59.2 321.5,-40.2 232.5,-40.2"/>
<polygon fill="none" stroke="#000000" points="232.5,-40.2 232.5,-59.2 321.5,-59.2 321.5,-40.2 232.5,-40.2"/>
<text text-anchor="start" x="286.1105" y="-46.3" font-family="Helvetica,sans-Serif" font-size="11.00" fill="#000000">0 rows</text>
<polygon fill="#ffffff" stroke="transparent" points="321.5,-40.2 321.5,-59.2 419.5,-59.2 419.5,-40.2 321.5,-40.2"/>
<polygon fill="none" stroke="#000000" points="321.5,-40.2 321.5,-59.2 419.5,-59.2 419.5,-40.2 321.5,-40.2"/>
<text text-anchor="start" x="400.9053" y="-46.3" font-family="Helvetica,sans-Serif" font-size="11.00" fill="#000000">0 &gt;</text>
<polygon fill="none" stroke="#000000" stroke-width="2" points="159,-39.2 159,-149.2 420,-149.2 420,-39.2 159,-39.2"/>
</a>
</g>
</g>
<!-- permissions -->
<g id="node2" class="node">
<title>permissions</title>
<g id="a_node2"><a xlink:href="../../tables/permissions.html" xlink:title="permissions" target="_top">
<polygon fill="#ffffff" stroke="transparent" points="8,-65.7 8,-148.7 109,-148.7 109,-65.7 8,-65.7"/>
<polygon fill="#f5f5f5" stroke="transparent" points="8.5,-125.2 8.5,-148.2 109.5,-148.2 109.5,-125.2 8.5,-125.2"/>
<polygon fill="none" stroke="#000000" points="8.5,-125.2 8.5,-148.2 109.5,-148.2 109.5,-125.2 8.5,-125.2"/>
<text text-anchor="start" x="13.1674" y="-134.3" font-family="Helvetica,sans-Serif" font-weight="bold" font-size="11.00" fill="#000000">permissions</text>
<text text-anchor="start" x="75.0219" y="-133.3" font-family="Helvetica,sans-Serif" font-size="11.00" fill="#000000">[table]</text>
<polygon fill="none" stroke="#000000" points="8.5,-103.2 8.5,-125.2 109.5,-125.2 109.5,-103.2 8.5,-103.2"/>
<image xlink:href="../../images/primaryKeys.png" width="11px" height="12px" preserveAspectRatio="xMinYMin meet" x="13.5" y="-120.2"/>
<text text-anchor="start" x="33.5" y="-110.3" font-family="Helvetica,sans-Serif" font-size="11.00" fill="#000000">id</text>
<polygon fill="none" stroke="#000000" points="8.5,-84.2 8.5,-103.2 109.5,-103.2 109.5,-84.2 8.5,-84.2"/>
<text text-anchor="start" x="11.5" y="-90.3" font-family="Helvetica,sans-Serif" font-size="11.00" fill="#000000">...</text>
<polygon fill="#ffffff" stroke="transparent" points="8.5,-65.2 8.5,-84.2 35.5,-84.2 35.5,-65.2 8.5,-65.2"/>
<polygon fill="none" stroke="#000000" points="8.5,-65.2 8.5,-84.2 35.5,-84.2 35.5,-65.2 8.5,-65.2"/>
<text text-anchor="start" x="11.5" y="-71.3" font-family="Helvetica,sans-Serif" font-size="11.00" fill="#000000"> &#160;</text>
<polygon fill="#ffffff" stroke="transparent" points="35.5,-65.2 35.5,-84.2 80.5,-84.2 80.5,-65.2 35.5,-65.2"/>
<polygon fill="none" stroke="#000000" points="35.5,-65.2 35.5,-84.2 80.5,-84.2 80.5,-65.2 35.5,-65.2"/>
<text text-anchor="start" x="45.1105" y="-71.3" font-family="Helvetica,sans-Serif" font-size="11.00" fill="#000000">0 rows</text>
<polygon fill="#ffffff" stroke="transparent" points="80.5,-65.2 80.5,-84.2 109.5,-84.2 109.5,-65.2 80.5,-65.2"/>
<polygon fill="none" stroke="#000000" points="80.5,-65.2 80.5,-84.2 109.5,-84.2 109.5,-65.2 80.5,-65.2"/>
<text text-anchor="start" x="90.9053" y="-71.3" font-family="Helvetica,sans-Serif" font-size="11.00" fill="#000000">1 &gt;</text>
</a>
</g>
</g>
<!-- model_has_permissions&#45;&gt;permissions -->
<g id="edge1" class="edge">
<title>model_has_permissions:w&#45;&gt;permissions:e</title>
<path fill="none" stroke="#000000" d="M145.776,-114.2C133.7815,-114.2 126.3229,-114.2 109.5,-114.2"/>
<polygon fill="#000000" stroke="#000000" points="152.5,-114.2001 160.5,-117.8 156.5,-114.2 160.5,-114.2 160.5,-114.2 160.5,-114.2 156.5,-114.2 160.5,-110.6 152.5,-114.2001 152.5,-114.2001"/>
<ellipse fill="none" stroke="#000000" cx="149.3" cy="-114.2001" rx="3.2" ry="3.2"/>
</g>
</g>
</svg>
