<?xml version="1.0" encoding="UTF-8" standalone="no"?>
<!DOCTYPE svg PUBLIC "-//W3C//DTD SVG 1.1//EN"
 "http://www.w3.org/Graphics/SVG/1.1/DTD/svg11.dtd">
<!-- Generated by graphviz version 2.40.1 (20161225.0304)
 -->
<!-- Title: oneDegreeRelationshipsDiagram Pages: 1 -->
<svg width="388pt" height="162pt"
 viewBox="0.00 0.00 388.00 162.20" xmlns="http://www.w3.org/2000/svg" xmlns:xlink="http://www.w3.org/1999/xlink">
<g id="graph0" class="graph" transform="scale(1 1) rotate(0) translate(4 158.2)">
<title>oneDegreeRelationshipsDiagram</title>
<polygon fill="#ffffff" stroke="transparent" points="-4,4 -4,-158.2 384,-158.2 384,4 -4,4"/>
<text text-anchor="middle" x="72.4936" y="-7.3" font-family="Helvetica,sans-Serif" font-size="11.00" fill="#000000">Generated by SchemaSpy</text>
<!-- model_has_roles -->
<g id="node1" class="node">
<title>model_has_roles</title>
<g id="a_node1"><a xlink:href="../../tables/model_has_roles.html" xlink:title="model_has_roles" target="_top">
<polygon fill="#ffffff" stroke="transparent" points="151,-38.2 151,-150.2 372,-150.2 372,-38.2 151,-38.2"/>
<polygon fill="#f5f5f5" stroke="transparent" points="153.5,-125.2 153.5,-148.2 370.5,-148.2 370.5,-125.2 153.5,-125.2"/>
<polygon fill="none" stroke="#000000" points="153.5,-125.2 153.5,-148.2 370.5,-148.2 370.5,-125.2 153.5,-125.2"/>
<text text-anchor="start" x="158.5" y="-134.3" font-family="Helvetica,sans-Serif" font-weight="bold" font-size="11.00" fill="#000000">model_has_roles</text>
<text text-anchor="start" x="335.5437" y="-133.3" font-family="Helvetica,sans-Serif" font-size="11.00" fill="#000000">[table]</text>
<polygon fill="none" stroke="#000000" points="153.5,-103.2 153.5,-125.2 272.5,-125.2 272.5,-103.2 153.5,-103.2"/>
<image xlink:href="../../images/primaryKeys.png" width="11px" height="12px" preserveAspectRatio="xMinYMin meet" x="158.5" y="-120.2"/>
<text text-anchor="start" x="173.5" y="-110.3" font-family="Helvetica,sans-Serif" font-size="11.00" fill="#000000">role_id</text>
<polygon fill="none" stroke="#000000" points="272.5,-103.2 272.5,-125.2 370.5,-125.2 370.5,-103.2 272.5,-103.2"/>
<text text-anchor="start" x="275.3429" y="-110.9" font-family="Helvetica,sans-Serif" font-size="11.00" fill="#000000">bigint unsigned[20]</text>
<polygon fill="none" stroke="#000000" points="153.5,-81.2 153.5,-103.2 272.5,-103.2 272.5,-81.2 153.5,-81.2"/>
<image xlink:href="../../images/primaryKeys.png" width="11px" height="12px" preserveAspectRatio="xMinYMin meet" x="158.5" y="-98.2"/>
<text text-anchor="start" x="173.5" y="-88.3" font-family="Helvetica,sans-Serif" font-size="11.00" fill="#000000">model_type</text>
<polygon fill="none" stroke="#000000" points="272.5,-81.2 272.5,-103.2 370.5,-103.2 370.5,-81.2 272.5,-81.2"/>
<text text-anchor="start" x="275.5" y="-88.9" font-family="Helvetica,sans-Serif" font-size="11.00" fill="#000000">varchar[255]</text>
<polygon fill="none" stroke="#000000" points="153.5,-59.2 153.5,-81.2 272.5,-81.2 272.5,-59.2 153.5,-59.2"/>
<image xlink:href="../../images/primaryKeys.png" width="11px" height="12px" preserveAspectRatio="xMinYMin meet" x="158.5" y="-76.2"/>
<text text-anchor="start" x="173.5" y="-66.3" font-family="Helvetica,sans-Serif" font-size="11.00" fill="#000000">model_id</text>
<polygon fill="none" stroke="#000000" points="272.5,-59.2 272.5,-81.2 370.5,-81.2 370.5,-59.2 272.5,-59.2"/>
<text text-anchor="start" x="275.3429" y="-66.9" font-family="Helvetica,sans-Serif" font-size="11.00" fill="#000000">bigint unsigned[20]</text>
<polygon fill="#ffffff" stroke="transparent" points="153.5,-40.2 153.5,-59.2 204.5,-59.2 204.5,-40.2 153.5,-40.2"/>
<polygon fill="none" stroke="#000000" points="153.5,-40.2 153.5,-59.2 204.5,-59.2 204.5,-40.2 153.5,-40.2"/>
<text text-anchor="start" x="156.5" y="-46.3" font-family="Helvetica,sans-Serif" font-size="11.00" fill="#000000">&lt; 1</text>
<polygon fill="#ffffff" stroke="transparent" points="204.5,-40.2 204.5,-59.2 272.5,-59.2 272.5,-40.2 204.5,-40.2"/>
<polygon fill="none" stroke="#000000" points="204.5,-40.2 204.5,-59.2 272.5,-59.2 272.5,-40.2 204.5,-40.2"/>
<text text-anchor="start" x="237.1105" y="-46.3" font-family="Helvetica,sans-Serif" font-size="11.00" fill="#000000">0 rows</text>
<polygon fill="#ffffff" stroke="transparent" points="272.5,-40.2 272.5,-59.2 370.5,-59.2 370.5,-40.2 272.5,-40.2"/>
<polygon fill="none" stroke="#000000" points="272.5,-40.2 272.5,-59.2 370.5,-59.2 370.5,-40.2 272.5,-40.2"/>
<text text-anchor="start" x="351.9053" y="-46.3" font-family="Helvetica,sans-Serif" font-size="11.00" fill="#000000">0 &gt;</text>
<polygon fill="none" stroke="#000000" stroke-width="2" points="152,-39.2 152,-149.2 371,-149.2 371,-39.2 152,-39.2"/>
</a>
</g>
</g>
<!-- roles -->
<g id="node2" class="node">
<title>roles</title>
<g id="a_node2"><a xlink:href="../../tables/roles.html" xlink:title="roles" target="_top">
<polygon fill="#ffffff" stroke="transparent" points="8,-65.7 8,-148.7 102,-148.7 102,-65.7 8,-65.7"/>
<polygon fill="#f5f5f5" stroke="transparent" points="8,-125.2 8,-148.2 102,-148.2 102,-125.2 8,-125.2"/>
<polygon fill="none" stroke="#000000" points="8,-125.2 8,-148.2 102,-148.2 102,-125.2 8,-125.2"/>
<text text-anchor="start" x="13" y="-134.3" font-family="Helvetica,sans-Serif" font-weight="bold" font-size="11.00" fill="#000000">roles</text>
<text text-anchor="start" x="67.0437" y="-133.3" font-family="Helvetica,sans-Serif" font-size="11.00" fill="#000000">[table]</text>
<polygon fill="none" stroke="#000000" points="8,-103.2 8,-125.2 102,-125.2 102,-103.2 8,-103.2"/>
<image xlink:href="../../images/primaryKeys.png" width="11px" height="12px" preserveAspectRatio="xMinYMin meet" x="13" y="-120.2"/>
<text text-anchor="start" x="28" y="-110.3" font-family="Helvetica,sans-Serif" font-size="11.00" fill="#000000">id</text>
<polygon fill="none" stroke="#000000" points="8,-84.2 8,-103.2 102,-103.2 102,-84.2 8,-84.2"/>
<text text-anchor="start" x="11" y="-90.3" font-family="Helvetica,sans-Serif" font-size="11.00" fill="#000000">...</text>
<polygon fill="#ffffff" stroke="transparent" points="8,-65.2 8,-84.2 31,-84.2 31,-65.2 8,-65.2"/>
<polygon fill="none" stroke="#000000" points="8,-65.2 8,-84.2 31,-84.2 31,-65.2 8,-65.2"/>
<text text-anchor="start" x="11" y="-71.3" font-family="Helvetica,sans-Serif" font-size="11.00" fill="#000000"> &#160;</text>
<polygon fill="#ffffff" stroke="transparent" points="31,-65.2 31,-84.2 75,-84.2 75,-65.2 31,-65.2"/>
<polygon fill="none" stroke="#000000" points="31,-65.2 31,-84.2 75,-84.2 75,-65.2 31,-65.2"/>
<text text-anchor="start" x="39.6105" y="-71.3" font-family="Helvetica,sans-Serif" font-size="11.00" fill="#000000">0 rows</text>
<polygon fill="#ffffff" stroke="transparent" points="75,-65.2 75,-84.2 102,-84.2 102,-65.2 75,-65.2"/>
<polygon fill="none" stroke="#000000" points="75,-65.2 75,-84.2 102,-84.2 102,-65.2 75,-65.2"/>
<text text-anchor="start" x="83.4053" y="-71.3" font-family="Helvetica,sans-Serif" font-size="11.00" fill="#000000">1 &gt;</text>
</a>
</g>
</g>
<!-- model_has_roles&#45;&gt;roles -->
<g id="edge1" class="edge">
<title>model_has_roles:w&#45;&gt;roles:e</title>
<path fill="none" stroke="#000000" d="M139.0156,-114.2C126.6771,-114.2 119.1667,-114.2 102,-114.2"/>
<polygon fill="#000000" stroke="#000000" points="145.5,-114.2001 153.5,-117.8 149.5,-114.2 153.5,-114.2 153.5,-114.2 153.5,-114.2 149.5,-114.2 153.5,-110.6 145.5,-114.2001 145.5,-114.2001"/>
<ellipse fill="none" stroke="#000000" cx="142.3" cy="-114.2001" rx="3.2" ry="3.2"/>
</g>
</g>
</svg>
