<?xml version="1.0" encoding="UTF-8" standalone="no"?>
<!DOCTYPE svg PUBLIC "-//W3C//DTD SVG 1.1//EN"
 "http://www.w3.org/Graphics/SVG/1.1/DTD/svg11.dtd">
<!-- Generated by graphviz version 2.40.1 (20161225.0304)
 -->
<!-- Title: twoDegreesRelationshipsDiagram Pages: 1 -->
<svg width="735pt" height="378pt"
 viewBox="0.00 0.00 735.00 378.20" xmlns="http://www.w3.org/2000/svg" xmlns:xlink="http://www.w3.org/1999/xlink">
<g id="graph0" class="graph" transform="scale(1 1) rotate(0) translate(4 374.2)">
<title>twoDegreesRelationshipsDiagram</title>
<polygon fill="#ffffff" stroke="transparent" points="-4,4 -4,-374.2 731,-374.2 731,4 -4,4"/>
<text text-anchor="middle" x="72.4936" y="-7.3" font-family="Helvetica,sans-Serif" font-size="11.00" fill="#000000">Generated by SchemaSpy</text>
<!-- classes -->
<g id="node1" class="node">
<title>classes</title>
<g id="a_node1"><a xlink:href="../../tables/classes.html" xlink:title="classes" target="_top">
<polygon fill="#ffffff" stroke="transparent" points="148,-95.2 148,-200.2 233,-200.2 233,-95.2 148,-95.2"/>
<polygon fill="#f5f5f5" stroke="transparent" points="148.5,-176.7 148.5,-199.7 233.5,-199.7 233.5,-176.7 148.5,-176.7"/>
<polygon fill="none" stroke="#000000" points="148.5,-176.7 148.5,-199.7 233.5,-199.7 233.5,-176.7 148.5,-176.7"/>
<text text-anchor="start" x="153.5" y="-185.8" font-family="Helvetica,sans-Serif" font-weight="bold" font-size="11.00" fill="#000000">classes</text>
<text text-anchor="start" x="198.5437" y="-184.8" font-family="Helvetica,sans-Serif" font-size="11.00" fill="#000000">[table]</text>
<polygon fill="none" stroke="#000000" points="148.5,-154.7 148.5,-176.7 233.5,-176.7 233.5,-154.7 148.5,-154.7"/>
<image xlink:href="../../images/primaryKeys.png" width="11px" height="12px" preserveAspectRatio="xMinYMin meet" x="153.5" y="-171.7"/>
<text text-anchor="start" x="168.5" y="-161.8" font-family="Helvetica,sans-Serif" font-size="11.00" fill="#000000">id</text>
<polygon fill="#ffffff" stroke="transparent" points="148.5,-132.7 148.5,-154.7 233.5,-154.7 233.5,-132.7 148.5,-132.7"/>
<polygon fill="none" stroke="#000000" points="148.5,-132.7 148.5,-154.7 233.5,-154.7 233.5,-132.7 148.5,-132.7"/>
<image xlink:href="../../images/foreignKeys.png" width="11px" height="12px" preserveAspectRatio="xMinYMin meet" x="153.5" y="-149.7"/>
<text text-anchor="start" x="168.5" y="-139.8" font-family="Helvetica,sans-Serif" font-size="11.00" fill="#000000">skill_list_id</text>
<polygon fill="none" stroke="#000000" points="148.5,-113.7 148.5,-132.7 233.5,-132.7 233.5,-113.7 148.5,-113.7"/>
<text text-anchor="start" x="151.5" y="-119.8" font-family="Helvetica,sans-Serif" font-size="11.00" fill="#000000">...</text>
<polygon fill="#ffffff" stroke="transparent" points="148.5,-94.7 148.5,-113.7 171.5,-113.7 171.5,-94.7 148.5,-94.7"/>
<polygon fill="none" stroke="#000000" points="148.5,-94.7 148.5,-113.7 171.5,-113.7 171.5,-94.7 148.5,-94.7"/>
<text text-anchor="start" x="151.5" y="-100.8" font-family="Helvetica,sans-Serif" font-size="11.00" fill="#000000">&lt; 1</text>
<polygon fill="#ffffff" stroke="transparent" points="171.5,-94.7 171.5,-113.7 210.5,-113.7 210.5,-94.7 171.5,-94.7"/>
<polygon fill="none" stroke="#000000" points="171.5,-94.7 171.5,-113.7 210.5,-113.7 210.5,-94.7 171.5,-94.7"/>
<text text-anchor="start" x="175.1105" y="-100.8" font-family="Helvetica,sans-Serif" font-size="11.00" fill="#000000">0 rows</text>
<polygon fill="#ffffff" stroke="transparent" points="210.5,-94.7 210.5,-113.7 233.5,-113.7 233.5,-94.7 210.5,-94.7"/>
<polygon fill="none" stroke="#000000" points="210.5,-94.7 210.5,-113.7 233.5,-113.7 233.5,-94.7 210.5,-94.7"/>
<text text-anchor="start" x="214.9053" y="-100.8" font-family="Helvetica,sans-Serif" font-size="11.00" fill="#000000">3 &gt;</text>
</a>
</g>
</g>
<!-- skill_lists -->
<g id="node2" class="node">
<title>skill_lists</title>
<g id="a_node2"><a xlink:href="../../tables/skill_lists.html" xlink:title="skill_lists" target="_top">
<polygon fill="#ffffff" stroke="transparent" points="8,-116.2 8,-177.2 94,-177.2 94,-116.2 8,-116.2"/>
<polygon fill="#f5f5f5" stroke="transparent" points="8,-153.7 8,-176.7 94,-176.7 94,-153.7 8,-153.7"/>
<polygon fill="none" stroke="#000000" points="8,-153.7 8,-176.7 94,-176.7 94,-153.7 8,-153.7"/>
<text text-anchor="start" x="12.8119" y="-162.8" font-family="Helvetica,sans-Serif" font-weight="bold" font-size="11.00" fill="#000000">skill_lists</text>
<text text-anchor="start" x="59.5219" y="-161.8" font-family="Helvetica,sans-Serif" font-size="11.00" fill="#000000">[table]</text>
<polygon fill="none" stroke="#000000" points="8,-134.7 8,-153.7 94,-153.7 94,-134.7 8,-134.7"/>
<text text-anchor="start" x="11" y="-140.8" font-family="Helvetica,sans-Serif" font-size="11.00" fill="#000000">...</text>
<polygon fill="#ffffff" stroke="transparent" points="8,-115.7 8,-134.7 32,-134.7 32,-115.7 8,-115.7"/>
<polygon fill="none" stroke="#000000" points="8,-115.7 8,-134.7 32,-134.7 32,-115.7 8,-115.7"/>
<text text-anchor="start" x="11" y="-121.8" font-family="Helvetica,sans-Serif" font-size="11.00" fill="#000000">&lt; 1</text>
<polygon fill="#ffffff" stroke="transparent" points="32,-115.7 32,-134.7 71,-134.7 71,-115.7 32,-115.7"/>
<polygon fill="none" stroke="#000000" points="32,-115.7 32,-134.7 71,-134.7 71,-115.7 32,-115.7"/>
<text text-anchor="start" x="35.6105" y="-121.8" font-family="Helvetica,sans-Serif" font-size="11.00" fill="#000000">0 rows</text>
<polygon fill="#ffffff" stroke="transparent" points="71,-115.7 71,-134.7 94,-134.7 94,-115.7 71,-115.7"/>
<polygon fill="none" stroke="#000000" points="71,-115.7 71,-134.7 94,-134.7 94,-115.7 71,-115.7"/>
<text text-anchor="start" x="75.4053" y="-121.8" font-family="Helvetica,sans-Serif" font-size="11.00" fill="#000000">2 &gt;</text>
</a>
</g>
</g>
<!-- classes&#45;&gt;skill_lists -->
<g id="edge1" class="edge">
<title>classes:w&#45;&gt;skill_lists:e</title>
<path fill="none" stroke="#000000" d="M133.9947,-143.7C120.4413,-143.7 112.5451,-143.7 94,-143.7"/>
<polygon fill="#000000" stroke="#000000" points="140.5,-143.7001 148.5,-147.3 144.5,-143.7 148.5,-143.7 148.5,-143.7 148.5,-143.7 144.5,-143.7 148.5,-140.1 140.5,-143.7001 140.5,-143.7001"/>
<ellipse fill="none" stroke="#000000" cx="137.3" cy="-143.7001" rx="3.2" ry="3.2"/>
</g>
<!-- completed_normal_challenges -->
<g id="node3" class="node">
<title>completed_normal_challenges</title>
<g id="a_node3"><a xlink:href="../../tables/completed_normal_challenges.html" xlink:title="completed_normal_challenges" target="_top">
<polygon fill="#ffffff" stroke="transparent" points="504,-120.2 504,-247.2 719,-247.2 719,-120.2 504,-120.2"/>
<polygon fill="#f5f5f5" stroke="transparent" points="504.5,-223.7 504.5,-246.7 719.5,-246.7 719.5,-223.7 504.5,-223.7"/>
<polygon fill="none" stroke="#000000" points="504.5,-223.7 504.5,-246.7 719.5,-246.7 719.5,-223.7 504.5,-223.7"/>
<text text-anchor="start" x="509.5" y="-232.8" font-family="Helvetica,sans-Serif" font-weight="bold" font-size="11.00" fill="#000000">completed_normal_challenges</text>
<text text-anchor="start" x="684.5437" y="-231.8" font-family="Helvetica,sans-Serif" font-size="11.00" fill="#000000">[table]</text>
<polygon fill="none" stroke="#000000" points="504.5,-201.7 504.5,-223.7 719.5,-223.7 719.5,-201.7 504.5,-201.7"/>
<image xlink:href="../../images/primaryKeys.png" width="11px" height="12px" preserveAspectRatio="xMinYMin meet" x="509.5" y="-218.7"/>
<text text-anchor="start" x="524.5" y="-208.8" font-family="Helvetica,sans-Serif" font-size="11.00" fill="#000000">gymnasts_id</text>
<polygon fill="none" stroke="#000000" points="504.5,-179.7 504.5,-201.7 719.5,-201.7 719.5,-179.7 504.5,-179.7"/>
<image xlink:href="../../images/primaryKeys.png" width="11px" height="12px" preserveAspectRatio="xMinYMin meet" x="509.5" y="-196.7"/>
<text text-anchor="start" x="524.5" y="-186.8" font-family="Helvetica,sans-Serif" font-size="11.00" fill="#000000">normal_challenges_classes_id</text>
<polygon fill="none" stroke="#000000" points="504.5,-157.7 504.5,-179.7 719.5,-179.7 719.5,-157.7 504.5,-157.7"/>
<image xlink:href="../../images/primaryKeys.png" width="11px" height="12px" preserveAspectRatio="xMinYMin meet" x="509.5" y="-174.7"/>
<text text-anchor="start" x="524.5" y="-164.8" font-family="Helvetica,sans-Serif" font-size="11.00" fill="#000000">normal_challenges_challenges_id</text>
<polygon fill="none" stroke="#000000" points="504.5,-138.7 504.5,-157.7 719.5,-157.7 719.5,-138.7 504.5,-138.7"/>
<text text-anchor="start" x="507.5" y="-144.8" font-family="Helvetica,sans-Serif" font-size="11.00" fill="#000000">...</text>
<polygon fill="#ffffff" stroke="transparent" points="504.5,-119.7 504.5,-138.7 597.5,-138.7 597.5,-119.7 504.5,-119.7"/>
<polygon fill="none" stroke="#000000" points="504.5,-119.7 504.5,-138.7 597.5,-138.7 597.5,-119.7 504.5,-119.7"/>
<text text-anchor="start" x="507.5" y="-125.8" font-family="Helvetica,sans-Serif" font-size="11.00" fill="#000000">&lt; 3</text>
<polygon fill="#ffffff" stroke="transparent" points="597.5,-119.7 597.5,-138.7 671.5,-138.7 671.5,-119.7 597.5,-119.7"/>
<polygon fill="none" stroke="#000000" points="597.5,-119.7 597.5,-138.7 671.5,-138.7 671.5,-119.7 597.5,-119.7"/>
<text text-anchor="start" x="636.1105" y="-125.8" font-family="Helvetica,sans-Serif" font-size="11.00" fill="#000000">0 rows</text>
<polygon fill="#ffffff" stroke="transparent" points="671.5,-119.7 671.5,-138.7 719.5,-138.7 719.5,-119.7 671.5,-119.7"/>
<polygon fill="none" stroke="#000000" points="671.5,-119.7 671.5,-138.7 719.5,-138.7 719.5,-119.7 671.5,-119.7"/>
<text text-anchor="start" x="710.3862" y="-125.8" font-family="Helvetica,sans-Serif" font-size="11.00" fill="#000000"> &#160;</text>
</a>
</g>
</g>
<!-- gymnasts -->
<g id="node4" class="node">
<title>gymnasts</title>
<g id="a_node4"><a xlink:href="../../tables/gymnasts.html" xlink:title="gymnasts" target="_top">
<polygon fill="#ffffff" stroke="transparent" points="326,-223.2 326,-284.2 416,-284.2 416,-223.2 326,-223.2"/>
<polygon fill="#f5f5f5" stroke="transparent" points="326,-260.7 326,-283.7 416,-283.7 416,-260.7 326,-260.7"/>
<polygon fill="none" stroke="#000000" points="326,-260.7 326,-283.7 416,-283.7 416,-260.7 326,-260.7"/>
<text text-anchor="start" x="330.9683" y="-269.8" font-family="Helvetica,sans-Serif" font-weight="bold" font-size="11.00" fill="#000000">gymnasts</text>
<text text-anchor="start" x="381.5219" y="-268.8" font-family="Helvetica,sans-Serif" font-size="11.00" fill="#000000">[table]</text>
<polygon fill="none" stroke="#000000" points="326,-241.7 326,-260.7 416,-260.7 416,-241.7 326,-241.7"/>
<text text-anchor="start" x="329" y="-247.8" font-family="Helvetica,sans-Serif" font-size="11.00" fill="#000000">...</text>
<polygon fill="#ffffff" stroke="transparent" points="326,-222.7 326,-241.7 352,-241.7 352,-222.7 326,-222.7"/>
<polygon fill="none" stroke="#000000" points="326,-222.7 326,-241.7 352,-241.7 352,-222.7 326,-222.7"/>
<text text-anchor="start" x="329" y="-228.8" font-family="Helvetica,sans-Serif" font-size="11.00" fill="#000000">&lt; 2</text>
<polygon fill="#ffffff" stroke="transparent" points="352,-222.7 352,-241.7 392,-241.7 392,-222.7 352,-222.7"/>
<polygon fill="none" stroke="#000000" points="352,-222.7 352,-241.7 392,-241.7 392,-222.7 352,-222.7"/>
<text text-anchor="start" x="356.6105" y="-228.8" font-family="Helvetica,sans-Serif" font-size="11.00" fill="#000000">0 rows</text>
<polygon fill="#ffffff" stroke="transparent" points="392,-222.7 392,-241.7 416,-241.7 416,-222.7 392,-222.7"/>
<polygon fill="none" stroke="#000000" points="392,-222.7 392,-241.7 416,-241.7 416,-222.7 392,-222.7"/>
<text text-anchor="start" x="397.4053" y="-228.8" font-family="Helvetica,sans-Serif" font-size="11.00" fill="#000000">4 &gt;</text>
</a>
</g>
</g>
<!-- completed_normal_challenges&#45;&gt;gymnasts -->
<g id="edge2" class="edge">
<title>completed_normal_challenges:w&#45;&gt;gymnasts:e</title>
<path fill="none" stroke="#000000" d="M490.163,-214.3328C460.3483,-221.6063 453.4552,-250.7 416,-250.7"/>
<polygon fill="#000000" stroke="#000000" points="496.5514,-213.6053 504.9074,-216.2769 500.5257,-213.1527 504.5,-212.7 504.5,-212.7 504.5,-212.7 500.5257,-213.1527 504.0926,-209.1231 496.5514,-213.6053 496.5514,-213.6053"/>
<ellipse fill="none" stroke="#000000" cx="493.3719" cy="-213.9674" rx="3.2" ry="3.2"/>
</g>
<!-- normal_challenges -->
<g id="node5" class="node">
<title>normal_challenges</title>
<g id="a_node5"><a xlink:href="../../tables/normal_challenges.html" xlink:title="normal_challenges" target="_top">
<polygon fill="#ffffff" stroke="transparent" points="287,-89.7 287,-201.7 455,-201.7 455,-89.7 287,-89.7"/>
<polygon fill="#f5f5f5" stroke="transparent" points="289,-176.7 289,-199.7 453,-199.7 453,-176.7 289,-176.7"/>
<polygon fill="none" stroke="#000000" points="289,-176.7 289,-199.7 453,-199.7 453,-176.7 289,-176.7"/>
<text text-anchor="start" x="294" y="-185.8" font-family="Helvetica,sans-Serif" font-weight="bold" font-size="11.00" fill="#000000">normal_challenges</text>
<text text-anchor="start" x="418.0437" y="-184.8" font-family="Helvetica,sans-Serif" font-size="11.00" fill="#000000">[table]</text>
<polygon fill="none" stroke="#000000" points="289,-154.7 289,-176.7 418,-176.7 418,-154.7 289,-154.7"/>
<image xlink:href="../../images/primaryKeys.png" width="11px" height="12px" preserveAspectRatio="xMinYMin meet" x="294" y="-171.7"/>
<text text-anchor="start" x="309" y="-161.8" font-family="Helvetica,sans-Serif" font-size="11.00" fill="#000000">classes_id</text>
<polygon fill="none" stroke="#000000" points="418,-154.7 418,-176.7 453,-176.7 453,-154.7 418,-154.7"/>
<text text-anchor="start" x="420.5219" y="-162.4" font-family="Helvetica,sans-Serif" font-size="11.00" fill="#000000">int[10]</text>
<polygon fill="none" stroke="#000000" points="289,-132.7 289,-154.7 418,-154.7 418,-132.7 289,-132.7"/>
<image xlink:href="../../images/primaryKeys.png" width="11px" height="12px" preserveAspectRatio="xMinYMin meet" x="294" y="-149.7"/>
<text text-anchor="start" x="309" y="-139.8" font-family="Helvetica,sans-Serif" font-size="11.00" fill="#000000">challenges_id</text>
<polygon fill="none" stroke="#000000" points="418,-132.7 418,-154.7 453,-154.7 453,-132.7 418,-132.7"/>
<text text-anchor="start" x="420.5219" y="-140.4" font-family="Helvetica,sans-Serif" font-size="11.00" fill="#000000">int[10]</text>
<polygon fill="none" stroke="#000000" points="289,-110.7 289,-132.7 418,-132.7 418,-110.7 289,-110.7"/>
<text text-anchor="start" x="309" y="-117.8" font-family="Helvetica,sans-Serif" font-size="11.00" fill="#000000">is_active</text>
<polygon fill="none" stroke="#000000" points="418,-110.7 418,-132.7 453,-132.7 453,-110.7 418,-110.7"/>
<text text-anchor="start" x="421" y="-118.4" font-family="Helvetica,sans-Serif" font-size="11.00" fill="#000000">bit[1]</text>
<polygon fill="#ffffff" stroke="transparent" points="289,-91.7 289,-110.7 345,-110.7 345,-91.7 289,-91.7"/>
<polygon fill="none" stroke="#000000" points="289,-91.7 289,-110.7 345,-110.7 345,-91.7 289,-91.7"/>
<text text-anchor="start" x="292" y="-97.8" font-family="Helvetica,sans-Serif" font-size="11.00" fill="#000000">&lt; 2</text>
<polygon fill="#ffffff" stroke="transparent" points="345,-91.7 345,-110.7 418,-110.7 418,-91.7 345,-91.7"/>
<polygon fill="none" stroke="#000000" points="345,-91.7 345,-110.7 418,-110.7 418,-91.7 345,-91.7"/>
<text text-anchor="start" x="382.6105" y="-97.8" font-family="Helvetica,sans-Serif" font-size="11.00" fill="#000000">0 rows</text>
<polygon fill="#ffffff" stroke="transparent" points="418,-91.7 418,-110.7 453,-110.7 453,-91.7 418,-91.7"/>
<polygon fill="none" stroke="#000000" points="418,-91.7 418,-110.7 453,-110.7 453,-91.7 418,-91.7"/>
<text text-anchor="start" x="434.4053" y="-97.8" font-family="Helvetica,sans-Serif" font-size="11.00" fill="#000000">2 &gt;</text>
<polygon fill="none" stroke="#000000" stroke-width="2" points="288,-90.7 288,-200.7 454,-200.7 454,-90.7 288,-90.7"/>
</a>
</g>
</g>
<!-- completed_normal_challenges&#45;&gt;normal_challenges -->
<g id="edge3" class="edge">
<title>completed_normal_challenges:w&#45;&gt;normal_challenges:e</title>
<path fill="none" stroke="#000000" d="M490.4526,-165.4317C477.5042,-158.6551 472.6787,-143.7 453,-143.7"/>
<polygon fill="#000000" stroke="#000000" points="496.7081,-166.8871 503.6842,-172.2063 500.6041,-167.7935 504.5,-168.7 504.5,-168.7 504.5,-168.7 500.6041,-167.7935 505.3158,-165.1937 496.7081,-166.8871 496.7081,-166.8871"/>
<ellipse fill="none" stroke="#000000" cx="493.5914" cy="-166.1619" rx="3.2" ry="3.2"/>
</g>
<!-- completed_normal_challenges&#45;&gt;normal_challenges -->
<g id="edge4" class="edge">
<title>completed_normal_challenges:w&#45;&gt;normal_challenges:e</title>
<path fill="none" stroke="#000000" d="M490.4526,-187.4317C477.5042,-180.6551 472.6787,-165.7 453,-165.7"/>
<polygon fill="#000000" stroke="#000000" points="496.7081,-188.8871 503.6842,-194.2063 500.6041,-189.7935 504.5,-190.7 504.5,-190.7 504.5,-190.7 500.6041,-189.7935 505.3158,-187.1937 496.7081,-188.8871 496.7081,-188.8871"/>
<ellipse fill="none" stroke="#000000" cx="493.5914" cy="-188.1619" rx="3.2" ry="3.2"/>
</g>
<!-- normal_challenges&#45;&gt;classes -->
<g id="edge10" class="edge">
<title>normal_challenges:w&#45;&gt;classes:e</title>
<path fill="none" stroke="#000000" d="M274.2286,-165.7C260.4265,-165.7 252.3854,-165.7 233.5,-165.7"/>
<polygon fill="#000000" stroke="#000000" points="281,-165.7001 289,-169.3 285,-165.7 289,-165.7 289,-165.7 289,-165.7 285,-165.7 289,-162.1 281,-165.7001 281,-165.7001"/>
<ellipse fill="none" stroke="#000000" cx="277.8" cy="-165.7001" rx="3.2" ry="3.2"/>
</g>
<!-- challenges -->
<g id="node7" class="node">
<title>challenges</title>
<g id="a_node7"><a xlink:href="../../tables/challenges.html" xlink:title="challenges" target="_top">
<polygon fill="#ffffff" stroke="transparent" points="143,-252.2 143,-335.2 238,-335.2 238,-252.2 143,-252.2"/>
<polygon fill="#f5f5f5" stroke="transparent" points="143.5,-311.7 143.5,-334.7 238.5,-334.7 238.5,-311.7 143.5,-311.7"/>
<polygon fill="none" stroke="#000000" points="143.5,-311.7 143.5,-334.7 238.5,-334.7 238.5,-311.7 143.5,-311.7"/>
<text text-anchor="start" x="148.2144" y="-320.8" font-family="Helvetica,sans-Serif" font-weight="bold" font-size="11.00" fill="#000000">challenges</text>
<text text-anchor="start" x="204.0219" y="-319.8" font-family="Helvetica,sans-Serif" font-size="11.00" fill="#000000">[table]</text>
<polygon fill="none" stroke="#000000" points="143.5,-289.7 143.5,-311.7 238.5,-311.7 238.5,-289.7 143.5,-289.7"/>
<image xlink:href="../../images/primaryKeys.png" width="11px" height="12px" preserveAspectRatio="xMinYMin meet" x="148.5" y="-306.7"/>
<text text-anchor="start" x="168.5" y="-296.8" font-family="Helvetica,sans-Serif" font-size="11.00" fill="#000000">id</text>
<polygon fill="none" stroke="#000000" points="143.5,-270.7 143.5,-289.7 238.5,-289.7 238.5,-270.7 143.5,-270.7"/>
<text text-anchor="start" x="146.5" y="-276.8" font-family="Helvetica,sans-Serif" font-size="11.00" fill="#000000">...</text>
<polygon fill="#ffffff" stroke="transparent" points="143.5,-251.7 143.5,-270.7 167.5,-270.7 167.5,-251.7 143.5,-251.7"/>
<polygon fill="none" stroke="#000000" points="143.5,-251.7 143.5,-270.7 167.5,-270.7 167.5,-251.7 143.5,-251.7"/>
<text text-anchor="start" x="146.5" y="-257.8" font-family="Helvetica,sans-Serif" font-size="11.00" fill="#000000"> &#160;</text>
<polygon fill="#ffffff" stroke="transparent" points="167.5,-251.7 167.5,-270.7 211.5,-270.7 211.5,-251.7 167.5,-251.7"/>
<polygon fill="none" stroke="#000000" points="167.5,-251.7 167.5,-270.7 211.5,-270.7 211.5,-251.7 167.5,-251.7"/>
<text text-anchor="start" x="176.1105" y="-257.8" font-family="Helvetica,sans-Serif" font-size="11.00" fill="#000000">0 rows</text>
<polygon fill="#ffffff" stroke="transparent" points="211.5,-251.7 211.5,-270.7 238.5,-270.7 238.5,-251.7 211.5,-251.7"/>
<polygon fill="none" stroke="#000000" points="211.5,-251.7 211.5,-270.7 238.5,-270.7 238.5,-251.7 211.5,-251.7"/>
<text text-anchor="start" x="219.9053" y="-257.8" font-family="Helvetica,sans-Serif" font-size="11.00" fill="#000000">2 &gt;</text>
</a>
</g>
</g>
<!-- normal_challenges&#45;&gt;challenges -->
<g id="edge9" class="edge">
<title>normal_challenges:w&#45;&gt;challenges:e</title>
<path fill="none" stroke="#000000" d="M274.7608,-146.425C229.6826,-167.273 306.0722,-300.7 238.5,-300.7"/>
<polygon fill="#000000" stroke="#000000" points="281.1426,-145.2038 289.6767,-147.2358 285.0713,-144.4519 289,-143.7 289,-143.7 289,-143.7 285.0713,-144.4519 288.3233,-140.1642 281.1426,-145.2038 281.1426,-145.2038"/>
<ellipse fill="none" stroke="#000000" cx="277.9996" cy="-145.8053" rx="3.2" ry="3.2"/>
</g>
<!-- daily_challenges -->
<g id="node6" class="node">
<title>daily_challenges</title>
<g id="a_node6"><a xlink:href="../../tables/daily_challenges.html" xlink:title="daily_challenges" target="_top">
<polygon fill="#ffffff" stroke="transparent" points="309,-305.2 309,-366.2 433,-366.2 433,-305.2 309,-305.2"/>
<polygon fill="#f5f5f5" stroke="transparent" points="309,-342.7 309,-365.7 433,-365.7 433,-342.7 309,-342.7"/>
<polygon fill="none" stroke="#000000" points="309,-342.7 309,-365.7 433,-365.7 433,-342.7 309,-342.7"/>
<text text-anchor="start" x="313.8512" y="-351.8" font-family="Helvetica,sans-Serif" font-weight="bold" font-size="11.00" fill="#000000">daily_challenges</text>
<text text-anchor="start" x="398.5219" y="-350.8" font-family="Helvetica,sans-Serif" font-size="11.00" fill="#000000">[table]</text>
<polygon fill="none" stroke="#000000" points="309,-323.7 309,-342.7 433,-342.7 433,-323.7 309,-323.7"/>
<text text-anchor="start" x="312" y="-329.8" font-family="Helvetica,sans-Serif" font-size="11.00" fill="#000000">...</text>
<polygon fill="#ffffff" stroke="transparent" points="309,-304.7 309,-323.7 352,-323.7 352,-304.7 309,-304.7"/>
<polygon fill="none" stroke="#000000" points="309,-304.7 309,-323.7 352,-323.7 352,-304.7 309,-304.7"/>
<text text-anchor="start" x="312" y="-310.8" font-family="Helvetica,sans-Serif" font-size="11.00" fill="#000000">&lt; 2</text>
<polygon fill="#ffffff" stroke="transparent" points="352,-304.7 352,-323.7 401,-323.7 401,-304.7 352,-304.7"/>
<polygon fill="none" stroke="#000000" points="352,-304.7 352,-323.7 401,-323.7 401,-304.7 352,-304.7"/>
<text text-anchor="start" x="365.6105" y="-310.8" font-family="Helvetica,sans-Serif" font-size="11.00" fill="#000000">0 rows</text>
<polygon fill="#ffffff" stroke="transparent" points="401,-304.7 401,-323.7 433,-323.7 433,-304.7 401,-304.7"/>
<polygon fill="none" stroke="#000000" points="401,-304.7 401,-323.7 433,-323.7 433,-304.7 401,-304.7"/>
<text text-anchor="start" x="414.4053" y="-310.8" font-family="Helvetica,sans-Serif" font-size="11.00" fill="#000000">3 &gt;</text>
</a>
</g>
</g>
<!-- daily_challenges&#45;&gt;classes -->
<g id="edge6" class="edge">
<title>daily_challenges:w&#45;&gt;classes:e</title>
<path fill="none" stroke="#000000" d="M294.5548,-330.4655C238.7065,-310.6484 309.3868,-165.7 233.5,-165.7"/>
<polygon fill="#000000" stroke="#000000" points="301.094,-331.477 308.4497,-336.2577 305.047,-332.0885 309,-332.7 309,-332.7 309,-332.7 305.047,-332.0885 309.5503,-329.1423 301.094,-331.477 301.094,-331.477"/>
<ellipse fill="none" stroke="#000000" cx="297.9316" cy="-330.9878" rx="3.2" ry="3.2"/>
</g>
<!-- daily_challenges&#45;&gt;challenges -->
<g id="edge5" class="edge">
<title>daily_challenges:w&#45;&gt;challenges:e</title>
<path fill="none" stroke="#000000" d="M294.7167,-330.5005C273.2123,-323.2708 267.399,-300.7 238.5,-300.7"/>
<polygon fill="#000000" stroke="#000000" points="301.0932,-331.4824 308.4521,-336.2581 305.0466,-332.0912 309,-332.7 309,-332.7 309,-332.7 305.0466,-332.0912 309.5479,-329.1419 301.0932,-331.4824 301.0932,-331.4824"/>
<ellipse fill="none" stroke="#000000" cx="297.9305" cy="-330.9953" rx="3.2" ry="3.2"/>
</g>
<!-- gymnasts_classes -->
<g id="node8" class="node">
<title>gymnasts_classes</title>
<g id="a_node8"><a xlink:href="../../tables/gymnasts_classes.html" xlink:title="gymnasts_classes" target="_top">
<polygon fill="#ffffff" stroke="transparent" points="545.5,-38.2 545.5,-99.2 677.5,-99.2 677.5,-38.2 545.5,-38.2"/>
<polygon fill="#f5f5f5" stroke="transparent" points="545.5,-75.7 545.5,-98.7 677.5,-98.7 677.5,-75.7 545.5,-75.7"/>
<polygon fill="none" stroke="#000000" points="545.5,-75.7 545.5,-98.7 677.5,-98.7 677.5,-75.7 545.5,-75.7"/>
<text text-anchor="start" x="550.0755" y="-84.8" font-family="Helvetica,sans-Serif" font-weight="bold" font-size="11.00" fill="#000000">gymnasts_classes</text>
<text text-anchor="start" x="643.0219" y="-83.8" font-family="Helvetica,sans-Serif" font-size="11.00" fill="#000000">[table]</text>
<polygon fill="none" stroke="#000000" points="545.5,-56.7 545.5,-75.7 677.5,-75.7 677.5,-56.7 545.5,-56.7"/>
<text text-anchor="start" x="548.5" y="-62.8" font-family="Helvetica,sans-Serif" font-size="11.00" fill="#000000">...</text>
<polygon fill="#ffffff" stroke="transparent" points="545.5,-37.7 545.5,-56.7 596.5,-56.7 596.5,-37.7 545.5,-37.7"/>
<polygon fill="none" stroke="#000000" points="545.5,-37.7 545.5,-56.7 596.5,-56.7 596.5,-37.7 545.5,-37.7"/>
<text text-anchor="start" x="548.5" y="-43.8" font-family="Helvetica,sans-Serif" font-size="11.00" fill="#000000">&lt; 2</text>
<polygon fill="#ffffff" stroke="transparent" points="596.5,-37.7 596.5,-56.7 649.5,-56.7 649.5,-37.7 596.5,-37.7"/>
<polygon fill="none" stroke="#000000" points="596.5,-37.7 596.5,-56.7 649.5,-56.7 649.5,-37.7 596.5,-37.7"/>
<text text-anchor="start" x="614.1105" y="-43.8" font-family="Helvetica,sans-Serif" font-size="11.00" fill="#000000">0 rows</text>
<polygon fill="#ffffff" stroke="transparent" points="649.5,-37.7 649.5,-56.7 677.5,-56.7 677.5,-37.7 649.5,-37.7"/>
<polygon fill="none" stroke="#000000" points="649.5,-37.7 649.5,-56.7 677.5,-56.7 677.5,-37.7 649.5,-37.7"/>
<text text-anchor="start" x="668.3862" y="-43.8" font-family="Helvetica,sans-Serif" font-size="11.00" fill="#000000"> &#160;</text>
</a>
</g>
</g>
<!-- gymnasts_classes&#45;&gt;classes -->
<g id="edge7" class="edge">
<title>gymnasts_classes:w&#45;&gt;classes:e</title>
<path fill="none" stroke="#000000" d="M530.923,-65.4485C422.7752,-61.7149 374.7654,-18.5435 279,-79.7 242.5554,-102.9738 276.7421,-165.7 233.5,-165.7"/>
<polygon fill="#000000" stroke="#000000" points="537.5012,-65.5619 545.4379,-69.2995 541.5006,-65.631 545.5,-65.7 545.5,-65.7 545.5,-65.7 541.5006,-65.631 545.5621,-62.1005 537.5012,-65.5619 537.5012,-65.5619"/>
<ellipse fill="none" stroke="#000000" cx="534.3017" cy="-65.5067" rx="3.2" ry="3.2"/>
</g>
<!-- gymnasts_classes&#45;&gt;gymnasts -->
<g id="edge8" class="edge">
<title>gymnasts_classes:w&#45;&gt;gymnasts:e</title>
<path fill="none" stroke="#000000" d="M531.0032,-67.1891C452.1703,-84.6972 511.0723,-250.7 416,-250.7"/>
<polygon fill="#000000" stroke="#000000" points="537.5419,-66.5175 545.8679,-69.2812 541.5209,-66.1088 545.5,-65.7 545.5,-65.7 545.5,-65.7 541.5209,-66.1088 545.1321,-62.1188 537.5419,-66.5175 537.5419,-66.5175"/>
<ellipse fill="none" stroke="#000000" cx="534.3586" cy="-66.8445" rx="3.2" ry="3.2"/>
</g>
</g>
</svg>
