<?xml version="1.0" encoding="UTF-8" standalone="no"?>
<!DOCTYPE svg PUBLIC "-//W3C//DTD SVG 1.1//EN"
 "http://www.w3.org/Graphics/SVG/1.1/DTD/svg11.dtd">
<!-- Generated by graphviz version 2.40.1 (20161225.0304)
 -->
<!-- Title: twoDegreesRelationshipsDiagram Pages: 1 -->
<svg width="1052pt" height="373pt"
 viewBox="0.00 0.00 1052.00 373.20" xmlns="http://www.w3.org/2000/svg" xmlns:xlink="http://www.w3.org/1999/xlink">
<g id="graph0" class="graph" transform="scale(1 1) rotate(0) translate(4 369.2)">
<title>twoDegreesRelationshipsDiagram</title>
<polygon fill="#ffffff" stroke="transparent" points="-4,4 -4,-369.2 1048,-369.2 1048,4 -4,4"/>
<text text-anchor="middle" x="72.4936" y="-7.3" font-family="Helvetica,sans-Serif" font-size="11.00" fill="#000000">Generated by SchemaSpy</text>
<!-- challenges -->
<g id="node1" class="node">
<title>challenges</title>
<g id="a_node1"><a xlink:href="../../tables/challenges.html" xlink:title="challenges" target="_top">
<polygon fill="#ffffff" stroke="transparent" points="397,-153.2 397,-280.2 540,-280.2 540,-153.2 397,-153.2"/>
<polygon fill="#f5f5f5" stroke="transparent" points="397.5,-256.7 397.5,-279.7 540.5,-279.7 540.5,-256.7 397.5,-256.7"/>
<polygon fill="none" stroke="#000000" points="397.5,-256.7 397.5,-279.7 540.5,-279.7 540.5,-256.7 397.5,-256.7"/>
<text text-anchor="start" x="402.5" y="-265.8" font-family="Helvetica,sans-Serif" font-weight="bold" font-size="11.00" fill="#000000">challenges</text>
<text text-anchor="start" x="505.5437" y="-264.8" font-family="Helvetica,sans-Serif" font-size="11.00" fill="#000000">[table]</text>
<polygon fill="none" stroke="#000000" points="397.5,-234.7 397.5,-256.7 540.5,-256.7 540.5,-234.7 397.5,-234.7"/>
<image xlink:href="../../images/primaryKeys.png" width="11px" height="12px" preserveAspectRatio="xMinYMin meet" x="402.5" y="-251.7"/>
<text text-anchor="start" x="417.5" y="-241.8" font-family="Helvetica,sans-Serif" font-size="11.00" fill="#000000">id</text>
<polygon fill="#ffffff" stroke="transparent" points="397.5,-212.7 397.5,-234.7 540.5,-234.7 540.5,-212.7 397.5,-212.7"/>
<polygon fill="none" stroke="#000000" points="397.5,-212.7 397.5,-234.7 540.5,-234.7 540.5,-212.7 397.5,-212.7"/>
<image xlink:href="../../images/foreignKeys.png" width="11px" height="12px" preserveAspectRatio="xMinYMin meet" x="402.5" y="-229.7"/>
<text text-anchor="start" x="417.5" y="-219.8" font-family="Helvetica,sans-Serif" font-size="11.00" fill="#000000">gym_id</text>
<polygon fill="#ffffff" stroke="transparent" points="397.5,-190.7 397.5,-212.7 540.5,-212.7 540.5,-190.7 397.5,-190.7"/>
<polygon fill="none" stroke="#000000" points="397.5,-190.7 397.5,-212.7 540.5,-212.7 540.5,-190.7 397.5,-190.7"/>
<image xlink:href="../../images/foreignKeys.png" width="11px" height="12px" preserveAspectRatio="xMinYMin meet" x="402.5" y="-207.7"/>
<text text-anchor="start" x="417.5" y="-197.8" font-family="Helvetica,sans-Serif" font-size="11.00" fill="#000000">class_id</text>
<polygon fill="none" stroke="#000000" points="397.5,-171.7 397.5,-190.7 540.5,-190.7 540.5,-171.7 397.5,-171.7"/>
<text text-anchor="start" x="400.5" y="-177.8" font-family="Helvetica,sans-Serif" font-size="11.00" fill="#000000">...</text>
<polygon fill="#ffffff" stroke="transparent" points="397.5,-152.7 397.5,-171.7 449.5,-171.7 449.5,-152.7 397.5,-152.7"/>
<polygon fill="none" stroke="#000000" points="397.5,-152.7 397.5,-171.7 449.5,-171.7 449.5,-152.7 397.5,-152.7"/>
<text text-anchor="start" x="400.5" y="-158.8" font-family="Helvetica,sans-Serif" font-size="11.00" fill="#000000">&lt; 2</text>
<polygon fill="#ffffff" stroke="transparent" points="449.5,-152.7 449.5,-171.7 503.5,-171.7 503.5,-152.7 449.5,-152.7"/>
<polygon fill="none" stroke="#000000" points="449.5,-152.7 449.5,-171.7 503.5,-171.7 503.5,-152.7 449.5,-152.7"/>
<text text-anchor="start" x="468.1105" y="-158.8" font-family="Helvetica,sans-Serif" font-size="11.00" fill="#000000">0 rows</text>
<polygon fill="#ffffff" stroke="transparent" points="503.5,-152.7 503.5,-171.7 540.5,-171.7 540.5,-152.7 503.5,-152.7"/>
<polygon fill="none" stroke="#000000" points="503.5,-152.7 503.5,-171.7 540.5,-171.7 540.5,-152.7 503.5,-152.7"/>
<text text-anchor="start" x="521.9053" y="-158.8" font-family="Helvetica,sans-Serif" font-size="11.00" fill="#000000">2 &gt;</text>
</a>
</g>
</g>
<!-- classes -->
<g id="node2" class="node">
<title>classes</title>
<g id="a_node2"><a xlink:href="../../tables/classes.html" xlink:title="classes" target="_top">
<polygon fill="#ffffff" stroke="transparent" points="263,-94.2 263,-199.2 348,-199.2 348,-94.2 263,-94.2"/>
<polygon fill="#f5f5f5" stroke="transparent" points="263.5,-175.7 263.5,-198.7 348.5,-198.7 348.5,-175.7 263.5,-175.7"/>
<polygon fill="none" stroke="#000000" points="263.5,-175.7 263.5,-198.7 348.5,-198.7 348.5,-175.7 263.5,-175.7"/>
<text text-anchor="start" x="268.5" y="-184.8" font-family="Helvetica,sans-Serif" font-weight="bold" font-size="11.00" fill="#000000">classes</text>
<text text-anchor="start" x="313.5437" y="-183.8" font-family="Helvetica,sans-Serif" font-size="11.00" fill="#000000">[table]</text>
<polygon fill="none" stroke="#000000" points="263.5,-153.7 263.5,-175.7 348.5,-175.7 348.5,-153.7 263.5,-153.7"/>
<image xlink:href="../../images/primaryKeys.png" width="11px" height="12px" preserveAspectRatio="xMinYMin meet" x="268.5" y="-170.7"/>
<text text-anchor="start" x="283.5" y="-160.8" font-family="Helvetica,sans-Serif" font-size="11.00" fill="#000000">id</text>
<polygon fill="#ffffff" stroke="transparent" points="263.5,-131.7 263.5,-153.7 348.5,-153.7 348.5,-131.7 263.5,-131.7"/>
<polygon fill="none" stroke="#000000" points="263.5,-131.7 263.5,-153.7 348.5,-153.7 348.5,-131.7 263.5,-131.7"/>
<image xlink:href="../../images/foreignKeys.png" width="11px" height="12px" preserveAspectRatio="xMinYMin meet" x="268.5" y="-148.7"/>
<text text-anchor="start" x="283.5" y="-138.8" font-family="Helvetica,sans-Serif" font-size="11.00" fill="#000000">skill_list_id</text>
<polygon fill="none" stroke="#000000" points="263.5,-112.7 263.5,-131.7 348.5,-131.7 348.5,-112.7 263.5,-112.7"/>
<text text-anchor="start" x="266.5" y="-118.8" font-family="Helvetica,sans-Serif" font-size="11.00" fill="#000000">...</text>
<polygon fill="#ffffff" stroke="transparent" points="263.5,-93.7 263.5,-112.7 286.5,-112.7 286.5,-93.7 263.5,-93.7"/>
<polygon fill="none" stroke="#000000" points="263.5,-93.7 263.5,-112.7 286.5,-112.7 286.5,-93.7 263.5,-93.7"/>
<text text-anchor="start" x="266.5" y="-99.8" font-family="Helvetica,sans-Serif" font-size="11.00" fill="#000000">&lt; 1</text>
<polygon fill="#ffffff" stroke="transparent" points="286.5,-93.7 286.5,-112.7 325.5,-112.7 325.5,-93.7 286.5,-93.7"/>
<polygon fill="none" stroke="#000000" points="286.5,-93.7 286.5,-112.7 325.5,-112.7 325.5,-93.7 286.5,-93.7"/>
<text text-anchor="start" x="290.1105" y="-99.8" font-family="Helvetica,sans-Serif" font-size="11.00" fill="#000000">0 rows</text>
<polygon fill="#ffffff" stroke="transparent" points="325.5,-93.7 325.5,-112.7 348.5,-112.7 348.5,-93.7 325.5,-93.7"/>
<polygon fill="none" stroke="#000000" points="325.5,-93.7 325.5,-112.7 348.5,-112.7 348.5,-93.7 325.5,-93.7"/>
<text text-anchor="start" x="329.9053" y="-99.8" font-family="Helvetica,sans-Serif" font-size="11.00" fill="#000000">4 &gt;</text>
</a>
</g>
</g>
<!-- challenges&#45;&gt;classes -->
<g id="edge1" class="edge">
<title>challenges:w&#45;&gt;classes:e</title>
<path fill="none" stroke="#000000" d="M383.6217,-197.1631C371.0786,-187.283 369.8196,-164.7 348.5,-164.7"/>
<polygon fill="#000000" stroke="#000000" points="389.896,-199.2142 396.3814,-205.1218 393.698,-200.4571 397.5,-201.7 397.5,-201.7 397.5,-201.7 393.698,-200.4571 398.6186,-198.2782 389.896,-199.2142 389.896,-199.2142"/>
<ellipse fill="none" stroke="#000000" cx="386.8544" cy="-198.2198" rx="3.2" ry="3.2"/>
</g>
<!-- gyms -->
<g id="node3" class="node">
<title>gyms</title>
<g id="a_node3"><a xlink:href="../../tables/gyms.html" xlink:title="gyms" target="_top">
<polygon fill="#ffffff" stroke="transparent" points="8,-161.2 8,-222.2 79,-222.2 79,-161.2 8,-161.2"/>
<polygon fill="#f5f5f5" stroke="transparent" points="8.5,-198.7 8.5,-221.7 79.5,-221.7 79.5,-198.7 8.5,-198.7"/>
<polygon fill="none" stroke="#000000" points="8.5,-198.7 8.5,-221.7 79.5,-221.7 79.5,-198.7 8.5,-198.7"/>
<text text-anchor="start" x="13.5" y="-207.8" font-family="Helvetica,sans-Serif" font-weight="bold" font-size="11.00" fill="#000000">gyms</text>
<text text-anchor="start" x="44.5437" y="-206.8" font-family="Helvetica,sans-Serif" font-size="11.00" fill="#000000">[table]</text>
<polygon fill="none" stroke="#000000" points="8.5,-179.7 8.5,-198.7 79.5,-198.7 79.5,-179.7 8.5,-179.7"/>
<text text-anchor="start" x="11.5" y="-185.8" font-family="Helvetica,sans-Serif" font-size="11.00" fill="#000000">...</text>
<polygon fill="#ffffff" stroke="transparent" points="8.5,-160.7 8.5,-179.7 20.5,-179.7 20.5,-160.7 8.5,-160.7"/>
<polygon fill="none" stroke="#000000" points="8.5,-160.7 8.5,-179.7 20.5,-179.7 20.5,-160.7 8.5,-160.7"/>
<text text-anchor="start" x="11.4431" y="-166.8" font-family="Helvetica,sans-Serif" font-size="11.00" fill="#000000"> &#160;</text>
<polygon fill="#ffffff" stroke="transparent" points="20.5,-160.7 20.5,-179.7 58.5,-179.7 58.5,-160.7 20.5,-160.7"/>
<polygon fill="none" stroke="#000000" points="20.5,-160.7 20.5,-179.7 58.5,-179.7 58.5,-160.7 20.5,-160.7"/>
<text text-anchor="start" x="23.3053" y="-166.8" font-family="Helvetica,sans-Serif" font-size="11.00" fill="#000000">0 rows</text>
<polygon fill="#ffffff" stroke="transparent" points="58.5,-160.7 58.5,-179.7 79.5,-179.7 79.5,-160.7 58.5,-160.7"/>
<polygon fill="none" stroke="#000000" points="58.5,-160.7 58.5,-179.7 79.5,-179.7 79.5,-160.7 58.5,-160.7"/>
<text text-anchor="start" x="61.2027" y="-166.8" font-family="Helvetica,sans-Serif" font-size="11.00" fill="#000000">4 &gt;</text>
</a>
</g>
</g>
<!-- challenges&#45;&gt;gyms -->
<g id="edge2" class="edge">
<title>challenges:w&#45;&gt;gyms:e</title>
<path fill="none" stroke="#000000" d="M383.0577,-223.6774C270.9966,-223.3107 237.2414,-218.338 120,-198.7 101.7142,-195.6371 98.0406,-188.7 79.5,-188.7"/>
<polygon fill="#000000" stroke="#000000" points="389.5,-223.6874 397.4943,-227.3 393.5,-223.6937 397.5,-223.7 397.5,-223.7 397.5,-223.7 393.5,-223.6937 397.5057,-220.1 389.5,-223.6874 389.5,-223.6874"/>
<ellipse fill="none" stroke="#000000" cx="386.3" cy="-223.6824" rx="3.2" ry="3.2"/>
</g>
<!-- skill_lists -->
<g id="node4" class="node">
<title>skill_lists</title>
<g id="a_node4"><a xlink:href="../../tables/skill_lists.html" xlink:title="skill_lists" target="_top">
<polygon fill="#ffffff" stroke="transparent" points="128,-127.2 128,-188.2 214,-188.2 214,-127.2 128,-127.2"/>
<polygon fill="#f5f5f5" stroke="transparent" points="128,-164.7 128,-187.7 214,-187.7 214,-164.7 128,-164.7"/>
<polygon fill="none" stroke="#000000" points="128,-164.7 128,-187.7 214,-187.7 214,-164.7 128,-164.7"/>
<text text-anchor="start" x="132.8119" y="-173.8" font-family="Helvetica,sans-Serif" font-weight="bold" font-size="11.00" fill="#000000">skill_lists</text>
<text text-anchor="start" x="179.5219" y="-172.8" font-family="Helvetica,sans-Serif" font-size="11.00" fill="#000000">[table]</text>
<polygon fill="none" stroke="#000000" points="128,-145.7 128,-164.7 214,-164.7 214,-145.7 128,-145.7"/>
<text text-anchor="start" x="131" y="-151.8" font-family="Helvetica,sans-Serif" font-size="11.00" fill="#000000">...</text>
<polygon fill="#ffffff" stroke="transparent" points="128,-126.7 128,-145.7 152,-145.7 152,-126.7 128,-126.7"/>
<polygon fill="none" stroke="#000000" points="128,-126.7 128,-145.7 152,-145.7 152,-126.7 128,-126.7"/>
<text text-anchor="start" x="131" y="-132.8" font-family="Helvetica,sans-Serif" font-size="11.00" fill="#000000">&lt; 1</text>
<polygon fill="#ffffff" stroke="transparent" points="152,-126.7 152,-145.7 191,-145.7 191,-126.7 152,-126.7"/>
<polygon fill="none" stroke="#000000" points="152,-126.7 152,-145.7 191,-145.7 191,-126.7 152,-126.7"/>
<text text-anchor="start" x="155.6105" y="-132.8" font-family="Helvetica,sans-Serif" font-size="11.00" fill="#000000">0 rows</text>
<polygon fill="#ffffff" stroke="transparent" points="191,-126.7 191,-145.7 214,-145.7 214,-126.7 191,-126.7"/>
<polygon fill="none" stroke="#000000" points="191,-126.7 191,-145.7 214,-145.7 214,-126.7 191,-126.7"/>
<text text-anchor="start" x="195.4053" y="-132.8" font-family="Helvetica,sans-Serif" font-size="11.00" fill="#000000">2 &gt;</text>
</a>
</g>
</g>
<!-- classes&#45;&gt;skill_lists -->
<g id="edge3" class="edge">
<title>classes:w&#45;&gt;skill_lists:e</title>
<path fill="none" stroke="#000000" d="M249.0318,-144.6816C237.4602,-148.0899 230.8011,-154.7 214,-154.7"/>
<polygon fill="#000000" stroke="#000000" points="255.574,-143.7856 263.9885,-146.2667 259.537,-143.2428 263.5,-142.7 263.5,-142.7 263.5,-142.7 259.537,-143.2428 263.0115,-139.1333 255.574,-143.7856 255.574,-143.7856"/>
<ellipse fill="none" stroke="#000000" cx="252.4036" cy="-144.2198" rx="3.2" ry="3.2"/>
</g>
<!-- skill_lists&#45;&gt;gyms -->
<g id="edge13" class="edge">
<title>skill_lists:w&#45;&gt;gyms:e</title>
<path fill="none" stroke="#000000" d="M114.0914,-159.1449C101.9913,-168.361 99.8605,-188.7 79.5,-188.7"/>
<polygon fill="#000000" stroke="#000000" points="120.3797,-157.1353 129.0959,-158.1291 124.1898,-155.9177 128,-154.7 128,-154.7 128,-154.7 124.1898,-155.9177 126.9041,-151.2709 120.3797,-157.1353 120.3797,-157.1353"/>
<ellipse fill="none" stroke="#000000" cx="117.3315" cy="-158.1095" rx="3.2" ry="3.2"/>
</g>
<!-- completed_normal_challenges -->
<g id="node5" class="node">
<title>completed_normal_challenges</title>
<g id="a_node5"><a xlink:href="../../tables/completed_normal_challenges.html" xlink:title="completed_normal_challenges" target="_top">
<polygon fill="#ffffff" stroke="transparent" points="821,-234.2 821,-361.2 1036,-361.2 1036,-234.2 821,-234.2"/>
<polygon fill="#f5f5f5" stroke="transparent" points="821.5,-337.7 821.5,-360.7 1036.5,-360.7 1036.5,-337.7 821.5,-337.7"/>
<polygon fill="none" stroke="#000000" points="821.5,-337.7 821.5,-360.7 1036.5,-360.7 1036.5,-337.7 821.5,-337.7"/>
<text text-anchor="start" x="826.5" y="-346.8" font-family="Helvetica,sans-Serif" font-weight="bold" font-size="11.00" fill="#000000">completed_normal_challenges</text>
<text text-anchor="start" x="1001.5437" y="-345.8" font-family="Helvetica,sans-Serif" font-size="11.00" fill="#000000">[table]</text>
<polygon fill="none" stroke="#000000" points="821.5,-315.7 821.5,-337.7 1036.5,-337.7 1036.5,-315.7 821.5,-315.7"/>
<image xlink:href="../../images/primaryKeys.png" width="11px" height="12px" preserveAspectRatio="xMinYMin meet" x="826.5" y="-332.7"/>
<text text-anchor="start" x="841.5" y="-322.8" font-family="Helvetica,sans-Serif" font-size="11.00" fill="#000000">gymnasts_id</text>
<polygon fill="none" stroke="#000000" points="821.5,-293.7 821.5,-315.7 1036.5,-315.7 1036.5,-293.7 821.5,-293.7"/>
<image xlink:href="../../images/primaryKeys.png" width="11px" height="12px" preserveAspectRatio="xMinYMin meet" x="826.5" y="-310.7"/>
<text text-anchor="start" x="841.5" y="-300.8" font-family="Helvetica,sans-Serif" font-size="11.00" fill="#000000">normal_challenges_classes_id</text>
<polygon fill="none" stroke="#000000" points="821.5,-271.7 821.5,-293.7 1036.5,-293.7 1036.5,-271.7 821.5,-271.7"/>
<image xlink:href="../../images/primaryKeys.png" width="11px" height="12px" preserveAspectRatio="xMinYMin meet" x="826.5" y="-288.7"/>
<text text-anchor="start" x="841.5" y="-278.8" font-family="Helvetica,sans-Serif" font-size="11.00" fill="#000000">normal_challenges_challenges_id</text>
<polygon fill="none" stroke="#000000" points="821.5,-252.7 821.5,-271.7 1036.5,-271.7 1036.5,-252.7 821.5,-252.7"/>
<text text-anchor="start" x="824.5" y="-258.8" font-family="Helvetica,sans-Serif" font-size="11.00" fill="#000000">...</text>
<polygon fill="#ffffff" stroke="transparent" points="821.5,-233.7 821.5,-252.7 914.5,-252.7 914.5,-233.7 821.5,-233.7"/>
<polygon fill="none" stroke="#000000" points="821.5,-233.7 821.5,-252.7 914.5,-252.7 914.5,-233.7 821.5,-233.7"/>
<text text-anchor="start" x="824.5" y="-239.8" font-family="Helvetica,sans-Serif" font-size="11.00" fill="#000000">&lt; 3</text>
<polygon fill="#ffffff" stroke="transparent" points="914.5,-233.7 914.5,-252.7 988.5,-252.7 988.5,-233.7 914.5,-233.7"/>
<polygon fill="none" stroke="#000000" points="914.5,-233.7 914.5,-252.7 988.5,-252.7 988.5,-233.7 914.5,-233.7"/>
<text text-anchor="start" x="953.1105" y="-239.8" font-family="Helvetica,sans-Serif" font-size="11.00" fill="#000000">0 rows</text>
<polygon fill="#ffffff" stroke="transparent" points="988.5,-233.7 988.5,-252.7 1036.5,-252.7 1036.5,-233.7 988.5,-233.7"/>
<polygon fill="none" stroke="#000000" points="988.5,-233.7 988.5,-252.7 1036.5,-252.7 1036.5,-233.7 988.5,-233.7"/>
<text text-anchor="start" x="1027.3862" y="-239.8" font-family="Helvetica,sans-Serif" font-size="11.00" fill="#000000"> &#160;</text>
</a>
</g>
</g>
<!-- gymnasts -->
<g id="node6" class="node">
<title>gymnasts</title>
<g id="a_node6"><a xlink:href="../../tables/gymnasts.html" xlink:title="gymnasts" target="_top">
<polygon fill="#ffffff" stroke="transparent" points="635.5,-64.2 635.5,-125.2 725.5,-125.2 725.5,-64.2 635.5,-64.2"/>
<polygon fill="#f5f5f5" stroke="transparent" points="635.5,-101.7 635.5,-124.7 725.5,-124.7 725.5,-101.7 635.5,-101.7"/>
<polygon fill="none" stroke="#000000" points="635.5,-101.7 635.5,-124.7 725.5,-124.7 725.5,-101.7 635.5,-101.7"/>
<text text-anchor="start" x="640.4683" y="-110.8" font-family="Helvetica,sans-Serif" font-weight="bold" font-size="11.00" fill="#000000">gymnasts</text>
<text text-anchor="start" x="691.0219" y="-109.8" font-family="Helvetica,sans-Serif" font-size="11.00" fill="#000000">[table]</text>
<polygon fill="none" stroke="#000000" points="635.5,-82.7 635.5,-101.7 725.5,-101.7 725.5,-82.7 635.5,-82.7"/>
<text text-anchor="start" x="638.5" y="-88.8" font-family="Helvetica,sans-Serif" font-size="11.00" fill="#000000">...</text>
<polygon fill="#ffffff" stroke="transparent" points="635.5,-63.7 635.5,-82.7 661.5,-82.7 661.5,-63.7 635.5,-63.7"/>
<polygon fill="none" stroke="#000000" points="635.5,-63.7 635.5,-82.7 661.5,-82.7 661.5,-63.7 635.5,-63.7"/>
<text text-anchor="start" x="638.5" y="-69.8" font-family="Helvetica,sans-Serif" font-size="11.00" fill="#000000">&lt; 2</text>
<polygon fill="#ffffff" stroke="transparent" points="661.5,-63.7 661.5,-82.7 701.5,-82.7 701.5,-63.7 661.5,-63.7"/>
<polygon fill="none" stroke="#000000" points="661.5,-63.7 661.5,-82.7 701.5,-82.7 701.5,-63.7 661.5,-63.7"/>
<text text-anchor="start" x="666.1105" y="-69.8" font-family="Helvetica,sans-Serif" font-size="11.00" fill="#000000">0 rows</text>
<polygon fill="#ffffff" stroke="transparent" points="701.5,-63.7 701.5,-82.7 725.5,-82.7 725.5,-63.7 701.5,-63.7"/>
<polygon fill="none" stroke="#000000" points="701.5,-63.7 701.5,-82.7 725.5,-82.7 725.5,-63.7 701.5,-63.7"/>
<text text-anchor="start" x="706.9053" y="-69.8" font-family="Helvetica,sans-Serif" font-size="11.00" fill="#000000">4 &gt;</text>
</a>
</g>
</g>
<!-- completed_normal_challenges&#45;&gt;gymnasts -->
<g id="edge4" class="edge">
<title>completed_normal_challenges:w&#45;&gt;gymnasts:e</title>
<path fill="none" stroke="#000000" d="M806.8352,-325.2839C745.791,-311.7884 822.6711,-204.867 780,-135.7 763.6547,-109.2053 756.6309,-91.7 725.5,-91.7"/>
<polygon fill="#000000" stroke="#000000" points="813.537,-325.931 821.154,-330.2833 817.5185,-326.3155 821.5,-326.7 821.5,-326.7 821.5,-326.7 817.5185,-326.3155 821.846,-323.1167 813.537,-325.931 813.537,-325.931"/>
<ellipse fill="none" stroke="#000000" cx="810.3519" cy="-325.6234" rx="3.2" ry="3.2"/>
</g>
<!-- normal_challenges -->
<g id="node7" class="node">
<title>normal_challenges</title>
<g id="a_node7"><a xlink:href="../../tables/normal_challenges.html" xlink:title="normal_challenges" target="_top">
<polygon fill="#ffffff" stroke="transparent" points="589,-228.7 589,-340.7 772,-340.7 772,-228.7 589,-228.7"/>
<polygon fill="#f5f5f5" stroke="transparent" points="591.5,-315.7 591.5,-338.7 770.5,-338.7 770.5,-315.7 591.5,-315.7"/>
<polygon fill="none" stroke="#000000" points="591.5,-315.7 591.5,-338.7 770.5,-338.7 770.5,-315.7 591.5,-315.7"/>
<text text-anchor="start" x="596.5" y="-324.8" font-family="Helvetica,sans-Serif" font-weight="bold" font-size="11.00" fill="#000000">normal_challenges</text>
<text text-anchor="start" x="735.5437" y="-323.8" font-family="Helvetica,sans-Serif" font-size="11.00" fill="#000000">[table]</text>
<polygon fill="none" stroke="#000000" points="591.5,-293.7 591.5,-315.7 720.5,-315.7 720.5,-293.7 591.5,-293.7"/>
<image xlink:href="../../images/primaryKeys.png" width="11px" height="12px" preserveAspectRatio="xMinYMin meet" x="596.5" y="-310.7"/>
<text text-anchor="start" x="611.5" y="-300.8" font-family="Helvetica,sans-Serif" font-size="11.00" fill="#000000">classes_id</text>
<polygon fill="none" stroke="#000000" points="720.5,-293.7 720.5,-315.7 770.5,-315.7 770.5,-293.7 720.5,-293.7"/>
<text text-anchor="start" x="723.1865" y="-301.4" font-family="Helvetica,sans-Serif" font-size="11.00" fill="#000000">bigint[19]</text>
<polygon fill="none" stroke="#000000" points="591.5,-271.7 591.5,-293.7 720.5,-293.7 720.5,-271.7 591.5,-271.7"/>
<image xlink:href="../../images/primaryKeys.png" width="11px" height="12px" preserveAspectRatio="xMinYMin meet" x="596.5" y="-288.7"/>
<text text-anchor="start" x="611.5" y="-278.8" font-family="Helvetica,sans-Serif" font-size="11.00" fill="#000000">challenges_id</text>
<polygon fill="none" stroke="#000000" points="720.5,-271.7 720.5,-293.7 770.5,-293.7 770.5,-271.7 720.5,-271.7"/>
<text text-anchor="start" x="723.1865" y="-279.4" font-family="Helvetica,sans-Serif" font-size="11.00" fill="#000000">bigint[19]</text>
<polygon fill="none" stroke="#000000" points="591.5,-249.7 591.5,-271.7 720.5,-271.7 720.5,-249.7 591.5,-249.7"/>
<text text-anchor="start" x="611.5" y="-256.8" font-family="Helvetica,sans-Serif" font-size="11.00" fill="#000000">is_active</text>
<polygon fill="none" stroke="#000000" points="720.5,-249.7 720.5,-271.7 770.5,-271.7 770.5,-249.7 720.5,-249.7"/>
<text text-anchor="start" x="723.5" y="-257.4" font-family="Helvetica,sans-Serif" font-size="11.00" fill="#000000">bit[1]</text>
<polygon fill="#ffffff" stroke="transparent" points="591.5,-230.7 591.5,-249.7 647.5,-249.7 647.5,-230.7 591.5,-230.7"/>
<polygon fill="none" stroke="#000000" points="591.5,-230.7 591.5,-249.7 647.5,-249.7 647.5,-230.7 591.5,-230.7"/>
<text text-anchor="start" x="594.5" y="-236.8" font-family="Helvetica,sans-Serif" font-size="11.00" fill="#000000">&lt; 2</text>
<polygon fill="#ffffff" stroke="transparent" points="647.5,-230.7 647.5,-249.7 720.5,-249.7 720.5,-230.7 647.5,-230.7"/>
<polygon fill="none" stroke="#000000" points="647.5,-230.7 647.5,-249.7 720.5,-249.7 720.5,-230.7 647.5,-230.7"/>
<text text-anchor="start" x="685.1105" y="-236.8" font-family="Helvetica,sans-Serif" font-size="11.00" fill="#000000">0 rows</text>
<polygon fill="#ffffff" stroke="transparent" points="720.5,-230.7 720.5,-249.7 770.5,-249.7 770.5,-230.7 720.5,-230.7"/>
<polygon fill="none" stroke="#000000" points="720.5,-230.7 720.5,-249.7 770.5,-249.7 770.5,-230.7 720.5,-230.7"/>
<text text-anchor="start" x="751.9053" y="-236.8" font-family="Helvetica,sans-Serif" font-size="11.00" fill="#000000">2 &gt;</text>
<polygon fill="none" stroke="#000000" stroke-width="2" points="590,-229.7 590,-339.7 771,-339.7 771,-229.7 590,-229.7"/>
</a>
</g>
</g>
<!-- completed_normal_challenges&#45;&gt;normal_challenges -->
<g id="edge5" class="edge">
<title>completed_normal_challenges:w&#45;&gt;normal_challenges:e</title>
<path fill="none" stroke="#000000" d="M806.776,-282.7C794.7815,-282.7 787.3229,-282.7 770.5,-282.7"/>
<polygon fill="#000000" stroke="#000000" points="813.5,-282.7001 821.5,-286.3 817.5,-282.7 821.5,-282.7 821.5,-282.7 821.5,-282.7 817.5,-282.7 821.5,-279.1 813.5,-282.7001 813.5,-282.7001"/>
<ellipse fill="none" stroke="#000000" cx="810.3" cy="-282.7001" rx="3.2" ry="3.2"/>
</g>
<!-- completed_normal_challenges&#45;&gt;normal_challenges -->
<g id="edge6" class="edge">
<title>completed_normal_challenges:w&#45;&gt;normal_challenges:e</title>
<path fill="none" stroke="#000000" d="M806.776,-304.7C794.7815,-304.7 787.3229,-304.7 770.5,-304.7"/>
<polygon fill="#000000" stroke="#000000" points="813.5,-304.7001 821.5,-308.3 817.5,-304.7 821.5,-304.7 821.5,-304.7 821.5,-304.7 817.5,-304.7 821.5,-301.1 813.5,-304.7001 813.5,-304.7001"/>
<ellipse fill="none" stroke="#000000" cx="810.3" cy="-304.7001" rx="3.2" ry="3.2"/>
</g>
<!-- normal_challenges&#45;&gt;challenges -->
<g id="edge11" class="edge">
<title>normal_challenges:w&#45;&gt;challenges:e</title>
<path fill="none" stroke="#000000" d="M577.5658,-278.4556C564.14,-268.7369 562.5965,-245.7 540.5,-245.7"/>
<polygon fill="#000000" stroke="#000000" points="583.8471,-280.3689 590.451,-286.1438 587.6736,-281.5345 591.5,-282.7 591.5,-282.7 591.5,-282.7 587.6736,-281.5345 592.549,-279.2562 583.8471,-280.3689 583.8471,-280.3689"/>
<ellipse fill="none" stroke="#000000" cx="580.786" cy="-279.4365" rx="3.2" ry="3.2"/>
</g>
<!-- normal_challenges&#45;&gt;classes -->
<g id="edge12" class="edge">
<title>normal_challenges:w&#45;&gt;classes:e</title>
<path fill="none" stroke="#000000" d="M576.6274,-305.0754C496.5156,-309.1035 456.0014,-343.1754 389,-290.7 342.6908,-254.4307 407.3218,-164.7 348.5,-164.7"/>
<polygon fill="#000000" stroke="#000000" points="583.5025,-304.9019 591.5909,-308.2989 587.5013,-304.801 591.5,-304.7 591.5,-304.7 591.5,-304.7 587.5013,-304.801 591.4091,-301.1011 583.5025,-304.9019 583.5025,-304.9019"/>
<ellipse fill="none" stroke="#000000" cx="580.3036" cy="-304.9827" rx="3.2" ry="3.2"/>
</g>
<!-- daily_challenges -->
<g id="node8" class="node">
<title>daily_challenges</title>
<g id="a_node8"><a xlink:href="../../tables/daily_challenges.html" xlink:title="daily_challenges" target="_top">
<polygon fill="#ffffff" stroke="transparent" points="618.5,-146.2 618.5,-207.2 742.5,-207.2 742.5,-146.2 618.5,-146.2"/>
<polygon fill="#f5f5f5" stroke="transparent" points="618.5,-183.7 618.5,-206.7 742.5,-206.7 742.5,-183.7 618.5,-183.7"/>
<polygon fill="none" stroke="#000000" points="618.5,-183.7 618.5,-206.7 742.5,-206.7 742.5,-183.7 618.5,-183.7"/>
<text text-anchor="start" x="623.3512" y="-192.8" font-family="Helvetica,sans-Serif" font-weight="bold" font-size="11.00" fill="#000000">daily_challenges</text>
<text text-anchor="start" x="708.0219" y="-191.8" font-family="Helvetica,sans-Serif" font-size="11.00" fill="#000000">[table]</text>
<polygon fill="none" stroke="#000000" points="618.5,-164.7 618.5,-183.7 742.5,-183.7 742.5,-164.7 618.5,-164.7"/>
<text text-anchor="start" x="621.5" y="-170.8" font-family="Helvetica,sans-Serif" font-size="11.00" fill="#000000">...</text>
<polygon fill="#ffffff" stroke="transparent" points="618.5,-145.7 618.5,-164.7 661.5,-164.7 661.5,-145.7 618.5,-145.7"/>
<polygon fill="none" stroke="#000000" points="618.5,-145.7 618.5,-164.7 661.5,-164.7 661.5,-145.7 618.5,-145.7"/>
<text text-anchor="start" x="621.5" y="-151.8" font-family="Helvetica,sans-Serif" font-size="11.00" fill="#000000">&lt; 2</text>
<polygon fill="#ffffff" stroke="transparent" points="661.5,-145.7 661.5,-164.7 710.5,-164.7 710.5,-145.7 661.5,-145.7"/>
<polygon fill="none" stroke="#000000" points="661.5,-145.7 661.5,-164.7 710.5,-164.7 710.5,-145.7 661.5,-145.7"/>
<text text-anchor="start" x="675.1105" y="-151.8" font-family="Helvetica,sans-Serif" font-size="11.00" fill="#000000">0 rows</text>
<polygon fill="#ffffff" stroke="transparent" points="710.5,-145.7 710.5,-164.7 742.5,-164.7 742.5,-145.7 710.5,-145.7"/>
<polygon fill="none" stroke="#000000" points="710.5,-145.7 710.5,-164.7 742.5,-164.7 742.5,-145.7 710.5,-145.7"/>
<text text-anchor="start" x="723.9053" y="-151.8" font-family="Helvetica,sans-Serif" font-size="11.00" fill="#000000">3 &gt;</text>
</a>
</g>
</g>
<!-- daily_challenges&#45;&gt;challenges -->
<g id="edge7" class="edge">
<title>daily_challenges:w&#45;&gt;challenges:e</title>
<path fill="none" stroke="#000000" d="M604.327,-176.4346C574.2828,-189.5862 582.1495,-245.7 540.5,-245.7"/>
<polygon fill="#000000" stroke="#000000" points="610.6449,-175.2156 619.182,-177.2348 614.5724,-174.4578 618.5,-173.7 618.5,-173.7 618.5,-173.7 614.5724,-174.4578 617.818,-170.1652 610.6449,-175.2156 610.6449,-175.2156"/>
<ellipse fill="none" stroke="#000000" cx="607.5028" cy="-175.8219" rx="3.2" ry="3.2"/>
</g>
<!-- daily_challenges&#45;&gt;classes -->
<g id="edge8" class="edge">
<title>daily_challenges:w&#45;&gt;classes:e</title>
<path fill="none" stroke="#000000" d="M603.9184,-171.9457C582.534,-166.2934 576.0014,-148.5845 548,-142.7 478.8439,-128.1669 457.4906,-125.2984 389,-142.7 369.1465,-147.7442 368.9843,-164.7 348.5,-164.7"/>
<polygon fill="#000000" stroke="#000000" points="610.5573,-172.7444 618.07,-177.2742 614.5286,-173.2222 618.5,-173.7 618.5,-173.7 618.5,-173.7 614.5286,-173.2222 618.93,-170.1258 610.5573,-172.7444 610.5573,-172.7444"/>
<ellipse fill="none" stroke="#000000" cx="607.3802" cy="-172.3621" rx="3.2" ry="3.2"/>
</g>
<!-- gymnasts_classes -->
<g id="node9" class="node">
<title>gymnasts_classes</title>
<g id="a_node9"><a xlink:href="../../tables/gymnasts_classes.html" xlink:title="gymnasts_classes" target="_top">
<polygon fill="#ffffff" stroke="transparent" points="862.5,-38.2 862.5,-99.2 994.5,-99.2 994.5,-38.2 862.5,-38.2"/>
<polygon fill="#f5f5f5" stroke="transparent" points="862.5,-75.7 862.5,-98.7 994.5,-98.7 994.5,-75.7 862.5,-75.7"/>
<polygon fill="none" stroke="#000000" points="862.5,-75.7 862.5,-98.7 994.5,-98.7 994.5,-75.7 862.5,-75.7"/>
<text text-anchor="start" x="867.0755" y="-84.8" font-family="Helvetica,sans-Serif" font-weight="bold" font-size="11.00" fill="#000000">gymnasts_classes</text>
<text text-anchor="start" x="960.0219" y="-83.8" font-family="Helvetica,sans-Serif" font-size="11.00" fill="#000000">[table]</text>
<polygon fill="none" stroke="#000000" points="862.5,-56.7 862.5,-75.7 994.5,-75.7 994.5,-56.7 862.5,-56.7"/>
<text text-anchor="start" x="865.5" y="-62.8" font-family="Helvetica,sans-Serif" font-size="11.00" fill="#000000">...</text>
<polygon fill="#ffffff" stroke="transparent" points="862.5,-37.7 862.5,-56.7 913.5,-56.7 913.5,-37.7 862.5,-37.7"/>
<polygon fill="none" stroke="#000000" points="862.5,-37.7 862.5,-56.7 913.5,-56.7 913.5,-37.7 862.5,-37.7"/>
<text text-anchor="start" x="865.5" y="-43.8" font-family="Helvetica,sans-Serif" font-size="11.00" fill="#000000">&lt; 2</text>
<polygon fill="#ffffff" stroke="transparent" points="913.5,-37.7 913.5,-56.7 966.5,-56.7 966.5,-37.7 913.5,-37.7"/>
<polygon fill="none" stroke="#000000" points="913.5,-37.7 913.5,-56.7 966.5,-56.7 966.5,-37.7 913.5,-37.7"/>
<text text-anchor="start" x="931.1105" y="-43.8" font-family="Helvetica,sans-Serif" font-size="11.00" fill="#000000">0 rows</text>
<polygon fill="#ffffff" stroke="transparent" points="966.5,-37.7 966.5,-56.7 994.5,-56.7 994.5,-37.7 966.5,-37.7"/>
<polygon fill="none" stroke="#000000" points="966.5,-37.7 966.5,-56.7 994.5,-56.7 994.5,-37.7 966.5,-37.7"/>
<text text-anchor="start" x="985.3862" y="-43.8" font-family="Helvetica,sans-Serif" font-size="11.00" fill="#000000"> &#160;</text>
</a>
</g>
</g>
<!-- gymnasts_classes&#45;&gt;classes -->
<g id="edge9" class="edge">
<title>gymnasts_classes:w&#45;&gt;classes:e</title>
<path fill="none" stroke="#000000" d="M848.0519,-65.1638C822.3983,-63.1431 811.6146,-55.9872 780,-53.7 691.7861,-47.318 667.9157,-37.3267 581,-53.7 490.9708,-70.6598 467.125,-80.8527 389,-128.7 368.4625,-141.2781 372.5832,-164.7 348.5,-164.7"/>
<polygon fill="#000000" stroke="#000000" points="854.5055,-65.4032 862.3665,-69.2975 858.5028,-65.5516 862.5,-65.7 862.5,-65.7 862.5,-65.7 858.5028,-65.5516 862.6335,-62.1025 854.5055,-65.4032 854.5055,-65.4032"/>
<ellipse fill="none" stroke="#000000" cx="851.3077" cy="-65.2845" rx="3.2" ry="3.2"/>
</g>
<!-- gymnasts_classes&#45;&gt;gymnasts -->
<g id="edge10" class="edge">
<title>gymnasts_classes:w&#45;&gt;gymnasts:e</title>
<path fill="none" stroke="#000000" d="M847.8624,-66.2194C797.9874,-69.8838 782.2707,-91.7 725.5,-91.7"/>
<polygon fill="#000000" stroke="#000000" points="854.505,-65.9837 862.6277,-69.2977 858.5025,-65.8419 862.5,-65.7 862.5,-65.7 862.5,-65.7 858.5025,-65.8419 862.3723,-62.1023 854.505,-65.9837 854.505,-65.9837"/>
<ellipse fill="none" stroke="#000000" cx="851.307" cy="-66.0972" rx="3.2" ry="3.2"/>
</g>
</g>
</svg>
