<?xml version="1.0" encoding="UTF-8" standalone="no"?>
<!DOCTYPE svg PUBLIC "-//W3C//DTD SVG 1.1//EN"
 "http://www.w3.org/Graphics/SVG/1.1/DTD/svg11.dtd">
<!-- Generated by graphviz version 2.40.1 (20161225.0304)
 -->
<!-- Title: twoDegreesRelationshipsDiagram Pages: 1 -->
<svg width="600pt" height="381pt"
 viewBox="0.00 0.00 600.00 381.16" xmlns="http://www.w3.org/2000/svg" xmlns:xlink="http://www.w3.org/1999/xlink">
<g id="graph0" class="graph" transform="scale(1 1) rotate(0) translate(4 377.1579)">
<title>twoDegreesRelationshipsDiagram</title>
<polygon fill="#ffffff" stroke="transparent" points="-4,4 -4,-377.1579 596,-377.1579 596,4 -4,4"/>
<text text-anchor="middle" x="72.4936" y="-7.3" font-family="Helvetica,sans-Serif" font-size="11.00" fill="#000000">Generated by SchemaSpy</text>
<!-- completed_normal_challenges -->
<g id="node1" class="node">
<title>completed_normal_challenges</title>
<g id="a_node1"><a xlink:href="../../tables/completed_normal_challenges.html" xlink:title="completed_normal_challenges" target="_top">
<polygon fill="#ffffff" stroke="transparent" points="369,-242.1579 369,-369.1579 584,-369.1579 584,-242.1579 369,-242.1579"/>
<polygon fill="#f5f5f5" stroke="transparent" points="369.5,-345.6579 369.5,-368.6579 584.5,-368.6579 584.5,-345.6579 369.5,-345.6579"/>
<polygon fill="none" stroke="#000000" points="369.5,-345.6579 369.5,-368.6579 584.5,-368.6579 584.5,-345.6579 369.5,-345.6579"/>
<text text-anchor="start" x="374.5" y="-354.7579" font-family="Helvetica,sans-Serif" font-weight="bold" font-size="11.00" fill="#000000">completed_normal_challenges</text>
<text text-anchor="start" x="549.5437" y="-353.7579" font-family="Helvetica,sans-Serif" font-size="11.00" fill="#000000">[table]</text>
<polygon fill="none" stroke="#000000" points="369.5,-323.6579 369.5,-345.6579 584.5,-345.6579 584.5,-323.6579 369.5,-323.6579"/>
<image xlink:href="../../images/primaryKeys.png" width="11px" height="12px" preserveAspectRatio="xMinYMin meet" x="374.5" y="-340.658"/>
<text text-anchor="start" x="389.5" y="-330.7579" font-family="Helvetica,sans-Serif" font-size="11.00" fill="#000000">gymnasts_id</text>
<polygon fill="none" stroke="#000000" points="369.5,-301.6579 369.5,-323.6579 584.5,-323.6579 584.5,-301.6579 369.5,-301.6579"/>
<image xlink:href="../../images/primaryKeys.png" width="11px" height="12px" preserveAspectRatio="xMinYMin meet" x="374.5" y="-318.658"/>
<text text-anchor="start" x="389.5" y="-308.7579" font-family="Helvetica,sans-Serif" font-size="11.00" fill="#000000">normal_challenges_classes_id</text>
<polygon fill="none" stroke="#000000" points="369.5,-279.6579 369.5,-301.6579 584.5,-301.6579 584.5,-279.6579 369.5,-279.6579"/>
<image xlink:href="../../images/primaryKeys.png" width="11px" height="12px" preserveAspectRatio="xMinYMin meet" x="374.5" y="-296.658"/>
<text text-anchor="start" x="389.5" y="-286.7579" font-family="Helvetica,sans-Serif" font-size="11.00" fill="#000000">normal_challenges_challenges_id</text>
<polygon fill="none" stroke="#000000" points="369.5,-260.6579 369.5,-279.6579 584.5,-279.6579 584.5,-260.6579 369.5,-260.6579"/>
<text text-anchor="start" x="372.5" y="-266.7579" font-family="Helvetica,sans-Serif" font-size="11.00" fill="#000000">...</text>
<polygon fill="#ffffff" stroke="transparent" points="369.5,-241.6579 369.5,-260.6579 462.5,-260.6579 462.5,-241.6579 369.5,-241.6579"/>
<polygon fill="none" stroke="#000000" points="369.5,-241.6579 369.5,-260.6579 462.5,-260.6579 462.5,-241.6579 369.5,-241.6579"/>
<text text-anchor="start" x="372.5" y="-247.7579" font-family="Helvetica,sans-Serif" font-size="11.00" fill="#000000">&lt; 3</text>
<polygon fill="#ffffff" stroke="transparent" points="462.5,-241.6579 462.5,-260.6579 536.5,-260.6579 536.5,-241.6579 462.5,-241.6579"/>
<polygon fill="none" stroke="#000000" points="462.5,-241.6579 462.5,-260.6579 536.5,-260.6579 536.5,-241.6579 462.5,-241.6579"/>
<text text-anchor="start" x="501.1105" y="-247.7579" font-family="Helvetica,sans-Serif" font-size="11.00" fill="#000000">0 rows</text>
<polygon fill="#ffffff" stroke="transparent" points="536.5,-241.6579 536.5,-260.6579 584.5,-260.6579 584.5,-241.6579 536.5,-241.6579"/>
<polygon fill="none" stroke="#000000" points="536.5,-241.6579 536.5,-260.6579 584.5,-260.6579 584.5,-241.6579 536.5,-241.6579"/>
<text text-anchor="start" x="575.3862" y="-247.7579" font-family="Helvetica,sans-Serif" font-size="11.00" fill="#000000"> &#160;</text>
</a>
</g>
</g>
<!-- gymnasts -->
<g id="node2" class="node">
<title>gymnasts</title>
<g id="a_node2"><a xlink:href="../../tables/gymnasts.html" xlink:title="gymnasts" target="_top">
<polygon fill="#ffffff" stroke="transparent" points="191,-72.1579 191,-133.1579 281,-133.1579 281,-72.1579 191,-72.1579"/>
<polygon fill="#f5f5f5" stroke="transparent" points="191,-109.6579 191,-132.6579 281,-132.6579 281,-109.6579 191,-109.6579"/>
<polygon fill="none" stroke="#000000" points="191,-109.6579 191,-132.6579 281,-132.6579 281,-109.6579 191,-109.6579"/>
<text text-anchor="start" x="195.9683" y="-118.7579" font-family="Helvetica,sans-Serif" font-weight="bold" font-size="11.00" fill="#000000">gymnasts</text>
<text text-anchor="start" x="246.5219" y="-117.7579" font-family="Helvetica,sans-Serif" font-size="11.00" fill="#000000">[table]</text>
<polygon fill="none" stroke="#000000" points="191,-90.6579 191,-109.6579 281,-109.6579 281,-90.6579 191,-90.6579"/>
<text text-anchor="start" x="194" y="-96.7579" font-family="Helvetica,sans-Serif" font-size="11.00" fill="#000000">...</text>
<polygon fill="#ffffff" stroke="transparent" points="191,-71.6579 191,-90.6579 217,-90.6579 217,-71.6579 191,-71.6579"/>
<polygon fill="none" stroke="#000000" points="191,-71.6579 191,-90.6579 217,-90.6579 217,-71.6579 191,-71.6579"/>
<text text-anchor="start" x="194" y="-77.7579" font-family="Helvetica,sans-Serif" font-size="11.00" fill="#000000">&lt; 2</text>
<polygon fill="#ffffff" stroke="transparent" points="217,-71.6579 217,-90.6579 257,-90.6579 257,-71.6579 217,-71.6579"/>
<polygon fill="none" stroke="#000000" points="217,-71.6579 217,-90.6579 257,-90.6579 257,-71.6579 217,-71.6579"/>
<text text-anchor="start" x="221.6105" y="-77.7579" font-family="Helvetica,sans-Serif" font-size="11.00" fill="#000000">0 rows</text>
<polygon fill="#ffffff" stroke="transparent" points="257,-71.6579 257,-90.6579 281,-90.6579 281,-71.6579 257,-71.6579"/>
<polygon fill="none" stroke="#000000" points="257,-71.6579 257,-90.6579 281,-90.6579 281,-71.6579 257,-71.6579"/>
<text text-anchor="start" x="262.4053" y="-77.7579" font-family="Helvetica,sans-Serif" font-size="11.00" fill="#000000">4 &gt;</text>
</a>
</g>
</g>
<!-- completed_normal_challenges&#45;&gt;gymnasts -->
<g id="edge1" class="edge">
<title>completed_normal_challenges:w&#45;&gt;gymnasts:e</title>
<path fill="none" stroke="#000000" d="M354.8033,-333.2607C293.4608,-319.9417 368.1101,-214.3409 328,-143.6579 313.8779,-118.7715 309.6141,-99.6579 281,-99.6579"/>
<polygon fill="#000000" stroke="#000000" points="361.5359,-333.9007 369.1593,-338.2417 365.518,-334.2793 369.5,-334.6579 369.5,-334.6579 369.5,-334.6579 365.518,-334.2793 369.8407,-331.074 361.5359,-333.9007 361.5359,-333.9007"/>
<ellipse fill="none" stroke="#000000" cx="358.3503" cy="-333.5978" rx="3.2" ry="3.2"/>
</g>
<!-- normal_challenges -->
<g id="node3" class="node">
<title>normal_challenges</title>
<g id="a_node3"><a xlink:href="../../tables/normal_challenges.html" xlink:title="normal_challenges" target="_top">
<polygon fill="#ffffff" stroke="transparent" points="152,-236.6579 152,-348.6579 320,-348.6579 320,-236.6579 152,-236.6579"/>
<polygon fill="#f5f5f5" stroke="transparent" points="154,-323.6579 154,-346.6579 318,-346.6579 318,-323.6579 154,-323.6579"/>
<polygon fill="none" stroke="#000000" points="154,-323.6579 154,-346.6579 318,-346.6579 318,-323.6579 154,-323.6579"/>
<text text-anchor="start" x="159" y="-332.7579" font-family="Helvetica,sans-Serif" font-weight="bold" font-size="11.00" fill="#000000">normal_challenges</text>
<text text-anchor="start" x="283.0437" y="-331.7579" font-family="Helvetica,sans-Serif" font-size="11.00" fill="#000000">[table]</text>
<polygon fill="none" stroke="#000000" points="154,-301.6579 154,-323.6579 283,-323.6579 283,-301.6579 154,-301.6579"/>
<image xlink:href="../../images/primaryKeys.png" width="11px" height="12px" preserveAspectRatio="xMinYMin meet" x="159" y="-318.658"/>
<text text-anchor="start" x="174" y="-308.7579" font-family="Helvetica,sans-Serif" font-size="11.00" fill="#000000">classes_id</text>
<polygon fill="none" stroke="#000000" points="283,-301.6579 283,-323.6579 318,-323.6579 318,-301.6579 283,-301.6579"/>
<text text-anchor="start" x="285.5219" y="-309.3579" font-family="Helvetica,sans-Serif" font-size="11.00" fill="#000000">int[10]</text>
<polygon fill="none" stroke="#000000" points="154,-279.6579 154,-301.6579 283,-301.6579 283,-279.6579 154,-279.6579"/>
<image xlink:href="../../images/primaryKeys.png" width="11px" height="12px" preserveAspectRatio="xMinYMin meet" x="159" y="-296.658"/>
<text text-anchor="start" x="174" y="-286.7579" font-family="Helvetica,sans-Serif" font-size="11.00" fill="#000000">challenges_id</text>
<polygon fill="none" stroke="#000000" points="283,-279.6579 283,-301.6579 318,-301.6579 318,-279.6579 283,-279.6579"/>
<text text-anchor="start" x="285.5219" y="-287.3579" font-family="Helvetica,sans-Serif" font-size="11.00" fill="#000000">int[10]</text>
<polygon fill="none" stroke="#000000" points="154,-257.6579 154,-279.6579 283,-279.6579 283,-257.6579 154,-257.6579"/>
<text text-anchor="start" x="174" y="-264.7579" font-family="Helvetica,sans-Serif" font-size="11.00" fill="#000000">is_active</text>
<polygon fill="none" stroke="#000000" points="283,-257.6579 283,-279.6579 318,-279.6579 318,-257.6579 283,-257.6579"/>
<text text-anchor="start" x="286" y="-265.3579" font-family="Helvetica,sans-Serif" font-size="11.00" fill="#000000">bit[1]</text>
<polygon fill="#ffffff" stroke="transparent" points="154,-238.6579 154,-257.6579 210,-257.6579 210,-238.6579 154,-238.6579"/>
<polygon fill="none" stroke="#000000" points="154,-238.6579 154,-257.6579 210,-257.6579 210,-238.6579 154,-238.6579"/>
<text text-anchor="start" x="157" y="-244.7579" font-family="Helvetica,sans-Serif" font-size="11.00" fill="#000000">&lt; 2</text>
<polygon fill="#ffffff" stroke="transparent" points="210,-238.6579 210,-257.6579 283,-257.6579 283,-238.6579 210,-238.6579"/>
<polygon fill="none" stroke="#000000" points="210,-238.6579 210,-257.6579 283,-257.6579 283,-238.6579 210,-238.6579"/>
<text text-anchor="start" x="247.6105" y="-244.7579" font-family="Helvetica,sans-Serif" font-size="11.00" fill="#000000">0 rows</text>
<polygon fill="#ffffff" stroke="transparent" points="283,-238.6579 283,-257.6579 318,-257.6579 318,-238.6579 283,-238.6579"/>
<polygon fill="none" stroke="#000000" points="283,-238.6579 283,-257.6579 318,-257.6579 318,-238.6579 283,-238.6579"/>
<text text-anchor="start" x="299.4053" y="-244.7579" font-family="Helvetica,sans-Serif" font-size="11.00" fill="#000000">2 &gt;</text>
<polygon fill="none" stroke="#000000" stroke-width="2" points="153,-237.6579 153,-347.6579 319,-347.6579 319,-237.6579 153,-237.6579"/>
</a>
</g>
</g>
<!-- completed_normal_challenges&#45;&gt;normal_challenges -->
<g id="edge2" class="edge">
<title>completed_normal_challenges:w&#45;&gt;normal_challenges:e</title>
<path fill="none" stroke="#000000" d="M355.0156,-290.6579C342.6771,-290.6579 335.1667,-290.6579 318,-290.6579"/>
<polygon fill="#000000" stroke="#000000" points="361.5,-290.6579 369.5,-294.2579 365.5,-290.6579 369.5,-290.6579 369.5,-290.6579 369.5,-290.6579 365.5,-290.6579 369.5,-287.0579 361.5,-290.6579 361.5,-290.6579"/>
<ellipse fill="none" stroke="#000000" cx="358.3" cy="-290.658" rx="3.2" ry="3.2"/>
</g>
<!-- completed_normal_challenges&#45;&gt;normal_challenges -->
<g id="edge3" class="edge">
<title>completed_normal_challenges:w&#45;&gt;normal_challenges:e</title>
<path fill="none" stroke="#000000" d="M355.0156,-312.6579C342.6771,-312.6579 335.1667,-312.6579 318,-312.6579"/>
<polygon fill="#000000" stroke="#000000" points="361.5,-312.6579 369.5,-316.2579 365.5,-312.6579 369.5,-312.6579 369.5,-312.6579 369.5,-312.6579 365.5,-312.6579 369.5,-309.0579 361.5,-312.6579 361.5,-312.6579"/>
<ellipse fill="none" stroke="#000000" cx="358.3" cy="-312.658" rx="3.2" ry="3.2"/>
</g>
<!-- challenges -->
<g id="node5" class="node">
<title>challenges</title>
<g id="a_node5"><a xlink:href="../../tables/challenges.html" xlink:title="challenges" target="_top">
<polygon fill="#ffffff" stroke="transparent" points="8,-239.1579 8,-322.1579 103,-322.1579 103,-239.1579 8,-239.1579"/>
<polygon fill="#f5f5f5" stroke="transparent" points="8.5,-298.6579 8.5,-321.6579 103.5,-321.6579 103.5,-298.6579 8.5,-298.6579"/>
<polygon fill="none" stroke="#000000" points="8.5,-298.6579 8.5,-321.6579 103.5,-321.6579 103.5,-298.6579 8.5,-298.6579"/>
<text text-anchor="start" x="13.2144" y="-307.7579" font-family="Helvetica,sans-Serif" font-weight="bold" font-size="11.00" fill="#000000">challenges</text>
<text text-anchor="start" x="69.0219" y="-306.7579" font-family="Helvetica,sans-Serif" font-size="11.00" fill="#000000">[table]</text>
<polygon fill="none" stroke="#000000" points="8.5,-276.6579 8.5,-298.6579 103.5,-298.6579 103.5,-276.6579 8.5,-276.6579"/>
<image xlink:href="../../images/primaryKeys.png" width="11px" height="12px" preserveAspectRatio="xMinYMin meet" x="13.5" y="-293.658"/>
<text text-anchor="start" x="33.5" y="-283.7579" font-family="Helvetica,sans-Serif" font-size="11.00" fill="#000000">id</text>
<polygon fill="none" stroke="#000000" points="8.5,-257.6579 8.5,-276.6579 103.5,-276.6579 103.5,-257.6579 8.5,-257.6579"/>
<text text-anchor="start" x="11.5" y="-263.7579" font-family="Helvetica,sans-Serif" font-size="11.00" fill="#000000">...</text>
<polygon fill="#ffffff" stroke="transparent" points="8.5,-238.6579 8.5,-257.6579 32.5,-257.6579 32.5,-238.6579 8.5,-238.6579"/>
<polygon fill="none" stroke="#000000" points="8.5,-238.6579 8.5,-257.6579 32.5,-257.6579 32.5,-238.6579 8.5,-238.6579"/>
<text text-anchor="start" x="11.5" y="-244.7579" font-family="Helvetica,sans-Serif" font-size="11.00" fill="#000000"> &#160;</text>
<polygon fill="#ffffff" stroke="transparent" points="32.5,-238.6579 32.5,-257.6579 76.5,-257.6579 76.5,-238.6579 32.5,-238.6579"/>
<polygon fill="none" stroke="#000000" points="32.5,-238.6579 32.5,-257.6579 76.5,-257.6579 76.5,-238.6579 32.5,-238.6579"/>
<text text-anchor="start" x="41.1105" y="-244.7579" font-family="Helvetica,sans-Serif" font-size="11.00" fill="#000000">0 rows</text>
<polygon fill="#ffffff" stroke="transparent" points="76.5,-238.6579 76.5,-257.6579 103.5,-257.6579 103.5,-238.6579 76.5,-238.6579"/>
<polygon fill="none" stroke="#000000" points="76.5,-238.6579 76.5,-257.6579 103.5,-257.6579 103.5,-238.6579 76.5,-238.6579"/>
<text text-anchor="start" x="84.9053" y="-244.7579" font-family="Helvetica,sans-Serif" font-size="11.00" fill="#000000">2 &gt;</text>
</a>
</g>
</g>
<!-- normal_challenges&#45;&gt;challenges -->
<g id="edge8" class="edge">
<title>normal_challenges:w&#45;&gt;challenges:e</title>
<path fill="none" stroke="#000000" d="M139.4093,-290.1625C127.5368,-289.3104 120.1874,-287.6579 103.5,-287.6579"/>
<polygon fill="#000000" stroke="#000000" points="146.0046,-290.3864 153.8778,-294.2558 150.0023,-290.5221 154,-290.6579 154,-290.6579 154,-290.6579 150.0023,-290.5221 154.1222,-287.06 146.0046,-290.3864 146.0046,-290.3864"/>
<ellipse fill="none" stroke="#000000" cx="142.8064" cy="-290.2778" rx="3.2" ry="3.2"/>
</g>
<!-- classes -->
<g id="node6" class="node">
<title>classes</title>
<g id="a_node6"><a xlink:href="../../tables/classes.html" xlink:title="classes" target="_top">
<polygon fill="#ffffff" stroke="transparent" points="13,-133.1579 13,-216.1579 98,-216.1579 98,-133.1579 13,-133.1579"/>
<polygon fill="#f5f5f5" stroke="transparent" points="13.5,-192.6579 13.5,-215.6579 98.5,-215.6579 98.5,-192.6579 13.5,-192.6579"/>
<polygon fill="none" stroke="#000000" points="13.5,-192.6579 13.5,-215.6579 98.5,-215.6579 98.5,-192.6579 13.5,-192.6579"/>
<text text-anchor="start" x="18.5" y="-201.7579" font-family="Helvetica,sans-Serif" font-weight="bold" font-size="11.00" fill="#000000">classes</text>
<text text-anchor="start" x="63.5437" y="-200.7579" font-family="Helvetica,sans-Serif" font-size="11.00" fill="#000000">[table]</text>
<polygon fill="none" stroke="#000000" points="13.5,-170.6579 13.5,-192.6579 98.5,-192.6579 98.5,-170.6579 13.5,-170.6579"/>
<image xlink:href="../../images/primaryKeys.png" width="11px" height="12px" preserveAspectRatio="xMinYMin meet" x="18.5" y="-187.658"/>
<text text-anchor="start" x="33.5" y="-177.7579" font-family="Helvetica,sans-Serif" font-size="11.00" fill="#000000">id</text>
<polygon fill="none" stroke="#000000" points="13.5,-151.6579 13.5,-170.6579 98.5,-170.6579 98.5,-151.6579 13.5,-151.6579"/>
<text text-anchor="start" x="16.5" y="-157.7579" font-family="Helvetica,sans-Serif" font-size="11.00" fill="#000000">...</text>
<polygon fill="#ffffff" stroke="transparent" points="13.5,-132.6579 13.5,-151.6579 32.5,-151.6579 32.5,-132.6579 13.5,-132.6579"/>
<polygon fill="none" stroke="#000000" points="13.5,-132.6579 13.5,-151.6579 32.5,-151.6579 32.5,-132.6579 13.5,-132.6579"/>
<text text-anchor="start" x="16.5" y="-138.7579" font-family="Helvetica,sans-Serif" font-size="11.00" fill="#000000"> &#160;</text>
<polygon fill="#ffffff" stroke="transparent" points="32.5,-132.6579 32.5,-151.6579 73.5,-151.6579 73.5,-132.6579 32.5,-132.6579"/>
<polygon fill="none" stroke="#000000" points="32.5,-132.6579 32.5,-151.6579 73.5,-151.6579 73.5,-132.6579 32.5,-132.6579"/>
<text text-anchor="start" x="38.1105" y="-138.7579" font-family="Helvetica,sans-Serif" font-size="11.00" fill="#000000">0 rows</text>
<polygon fill="#ffffff" stroke="transparent" points="73.5,-132.6579 73.5,-151.6579 98.5,-151.6579 98.5,-132.6579 73.5,-132.6579"/>
<polygon fill="none" stroke="#000000" points="73.5,-132.6579 73.5,-151.6579 98.5,-151.6579 98.5,-132.6579 73.5,-132.6579"/>
<text text-anchor="start" x="79.9053" y="-138.7579" font-family="Helvetica,sans-Serif" font-size="11.00" fill="#000000">3 &gt;</text>
</a>
</g>
</g>
<!-- normal_challenges&#45;&gt;classes -->
<g id="edge9" class="edge">
<title>normal_challenges:w&#45;&gt;classes:e</title>
<path fill="none" stroke="#000000" d="M139.5332,-309.4197C102.8944,-289.2468 155.8039,-181.6579 98.5,-181.6579"/>
<polygon fill="#000000" stroke="#000000" points="146.1932,-310.9104 153.2136,-316.171 150.0966,-311.7841 154,-312.6579 154,-312.6579 154,-312.6579 150.0966,-311.7841 154.7864,-309.1448 146.1932,-310.9104 146.1932,-310.9104"/>
<ellipse fill="none" stroke="#000000" cx="143.0705" cy="-310.2114" rx="3.2" ry="3.2"/>
</g>
<!-- daily_challenges -->
<g id="node4" class="node">
<title>daily_challenges</title>
<g id="a_node4"><a xlink:href="../../tables/daily_challenges.html" xlink:title="daily_challenges" target="_top">
<polygon fill="#ffffff" stroke="transparent" points="174,-154.1579 174,-215.1579 298,-215.1579 298,-154.1579 174,-154.1579"/>
<polygon fill="#f5f5f5" stroke="transparent" points="174,-191.6579 174,-214.6579 298,-214.6579 298,-191.6579 174,-191.6579"/>
<polygon fill="none" stroke="#000000" points="174,-191.6579 174,-214.6579 298,-214.6579 298,-191.6579 174,-191.6579"/>
<text text-anchor="start" x="178.8512" y="-200.7579" font-family="Helvetica,sans-Serif" font-weight="bold" font-size="11.00" fill="#000000">daily_challenges</text>
<text text-anchor="start" x="263.5219" y="-199.7579" font-family="Helvetica,sans-Serif" font-size="11.00" fill="#000000">[table]</text>
<polygon fill="none" stroke="#000000" points="174,-172.6579 174,-191.6579 298,-191.6579 298,-172.6579 174,-172.6579"/>
<text text-anchor="start" x="177" y="-178.7579" font-family="Helvetica,sans-Serif" font-size="11.00" fill="#000000">...</text>
<polygon fill="#ffffff" stroke="transparent" points="174,-153.6579 174,-172.6579 217,-172.6579 217,-153.6579 174,-153.6579"/>
<polygon fill="none" stroke="#000000" points="174,-153.6579 174,-172.6579 217,-172.6579 217,-153.6579 174,-153.6579"/>
<text text-anchor="start" x="177" y="-159.7579" font-family="Helvetica,sans-Serif" font-size="11.00" fill="#000000">&lt; 2</text>
<polygon fill="#ffffff" stroke="transparent" points="217,-153.6579 217,-172.6579 266,-172.6579 266,-153.6579 217,-153.6579"/>
<polygon fill="none" stroke="#000000" points="217,-153.6579 217,-172.6579 266,-172.6579 266,-153.6579 217,-153.6579"/>
<text text-anchor="start" x="230.6105" y="-159.7579" font-family="Helvetica,sans-Serif" font-size="11.00" fill="#000000">0 rows</text>
<polygon fill="#ffffff" stroke="transparent" points="266,-153.6579 266,-172.6579 298,-172.6579 298,-153.6579 266,-153.6579"/>
<polygon fill="none" stroke="#000000" points="266,-153.6579 266,-172.6579 298,-172.6579 298,-153.6579 266,-153.6579"/>
<text text-anchor="start" x="279.4053" y="-159.7579" font-family="Helvetica,sans-Serif" font-size="11.00" fill="#000000">3 &gt;</text>
</a>
</g>
</g>
<!-- daily_challenges&#45;&gt;challenges -->
<g id="edge4" class="edge">
<title>daily_challenges:w&#45;&gt;challenges:e</title>
<path fill="none" stroke="#000000" d="M159.6239,-184.7159C125.062,-202.0957 154.3331,-287.6579 103.5,-287.6579"/>
<polygon fill="#000000" stroke="#000000" points="166.1751,-183.3224 174.749,-185.1791 170.0875,-182.4902 174,-181.6579 174,-181.6579 174,-181.6579 170.0875,-182.4902 173.251,-178.1367 166.1751,-183.3224 166.1751,-183.3224"/>
<ellipse fill="none" stroke="#000000" cx="163.0451" cy="-183.9883" rx="3.2" ry="3.2"/>
</g>
<!-- daily_challenges&#45;&gt;classes -->
<g id="edge5" class="edge">
<title>daily_challenges:w&#45;&gt;classes:e</title>
<path fill="none" stroke="#000000" d="M159.2943,-181.6579C137.0144,-181.6579 126.5503,-181.6579 98.5,-181.6579"/>
<polygon fill="#000000" stroke="#000000" points="166,-181.6579 174,-185.2579 170,-181.6579 174,-181.6579 174,-181.6579 174,-181.6579 170,-181.6579 174,-178.0579 166,-181.6579 166,-181.6579"/>
<ellipse fill="none" stroke="#000000" cx="162.8" cy="-181.658" rx="3.2" ry="3.2"/>
</g>
<!-- gymnasts_classes -->
<g id="node7" class="node">
<title>gymnasts_classes</title>
<g id="a_node7"><a xlink:href="../../tables/gymnasts_classes.html" xlink:title="gymnasts_classes" target="_top">
<polygon fill="#ffffff" stroke="transparent" points="410.5,-46.1579 410.5,-107.1579 542.5,-107.1579 542.5,-46.1579 410.5,-46.1579"/>
<polygon fill="#f5f5f5" stroke="transparent" points="410.5,-83.6579 410.5,-106.6579 542.5,-106.6579 542.5,-83.6579 410.5,-83.6579"/>
<polygon fill="none" stroke="#000000" points="410.5,-83.6579 410.5,-106.6579 542.5,-106.6579 542.5,-83.6579 410.5,-83.6579"/>
<text text-anchor="start" x="415.0755" y="-92.7579" font-family="Helvetica,sans-Serif" font-weight="bold" font-size="11.00" fill="#000000">gymnasts_classes</text>
<text text-anchor="start" x="508.0219" y="-91.7579" font-family="Helvetica,sans-Serif" font-size="11.00" fill="#000000">[table]</text>
<polygon fill="none" stroke="#000000" points="410.5,-64.6579 410.5,-83.6579 542.5,-83.6579 542.5,-64.6579 410.5,-64.6579"/>
<text text-anchor="start" x="413.5" y="-70.7579" font-family="Helvetica,sans-Serif" font-size="11.00" fill="#000000">...</text>
<polygon fill="#ffffff" stroke="transparent" points="410.5,-45.6579 410.5,-64.6579 461.5,-64.6579 461.5,-45.6579 410.5,-45.6579"/>
<polygon fill="none" stroke="#000000" points="410.5,-45.6579 410.5,-64.6579 461.5,-64.6579 461.5,-45.6579 410.5,-45.6579"/>
<text text-anchor="start" x="413.5" y="-51.7579" font-family="Helvetica,sans-Serif" font-size="11.00" fill="#000000">&lt; 2</text>
<polygon fill="#ffffff" stroke="transparent" points="461.5,-45.6579 461.5,-64.6579 514.5,-64.6579 514.5,-45.6579 461.5,-45.6579"/>
<polygon fill="none" stroke="#000000" points="461.5,-45.6579 461.5,-64.6579 514.5,-64.6579 514.5,-45.6579 461.5,-45.6579"/>
<text text-anchor="start" x="479.1105" y="-51.7579" font-family="Helvetica,sans-Serif" font-size="11.00" fill="#000000">0 rows</text>
<polygon fill="#ffffff" stroke="transparent" points="514.5,-45.6579 514.5,-64.6579 542.5,-64.6579 542.5,-45.6579 514.5,-45.6579"/>
<polygon fill="none" stroke="#000000" points="514.5,-45.6579 514.5,-64.6579 542.5,-64.6579 542.5,-45.6579 514.5,-45.6579"/>
<text text-anchor="start" x="533.3862" y="-51.7579" font-family="Helvetica,sans-Serif" font-size="11.00" fill="#000000"> &#160;</text>
</a>
</g>
</g>
<!-- gymnasts_classes&#45;&gt;gymnasts -->
<g id="edge7" class="edge">
<title>gymnasts_classes:w&#45;&gt;gymnasts:e</title>
<path fill="none" stroke="#000000" d="M396.0383,-74.2251C349.3103,-78.0274 334.5446,-99.6579 281,-99.6579"/>
<polygon fill="#000000" stroke="#000000" points="402.5061,-73.9715 410.6411,-77.2551 406.5031,-73.8147 410.5,-73.6579 410.5,-73.6579 410.5,-73.6579 406.5031,-73.8147 410.3589,-70.0606 402.5061,-73.9715 402.5061,-73.9715"/>
<ellipse fill="none" stroke="#000000" cx="399.3086" cy="-74.0969" rx="3.2" ry="3.2"/>
</g>
<!-- gymnasts_classes&#45;&gt;classes -->
<g id="edge6" class="edge">
<title>gymnasts_classes:w&#45;&gt;classes:e</title>
<path fill="none" stroke="#000000" d="M395.9159,-73.2548C287.6227,-67.2519 237.4768,2.8695 144,-61.6579 97.0595,-94.0611 155.5384,-181.6579 98.5,-181.6579"/>
<polygon fill="#000000" stroke="#000000" points="402.5031,-73.4368 410.4005,-77.2565 406.5015,-73.5474 410.5,-73.6579 410.5,-73.6579 410.5,-73.6579 406.5015,-73.5474 410.5995,-70.0593 402.5031,-73.4368 402.5031,-73.4368"/>
<ellipse fill="none" stroke="#000000" cx="399.3043" cy="-73.3484" rx="3.2" ry="3.2"/>
</g>
</g>
</svg>
