<?xml version="1.0" encoding="UTF-8" standalone="no"?>
<!DOCTYPE svg PUBLIC "-//W3C//DTD SVG 1.1//EN"
 "http://www.w3.org/Graphics/SVG/1.1/DTD/svg11.dtd">
<!-- Generated by graphviz version 2.40.1 (20161225.0304)
 -->
<!-- Title: oneDegreeRelationshipsDiagram Pages: 1 -->
<svg width="600pt" height="259pt"
 viewBox="0.00 0.00 600.00 259.20" xmlns="http://www.w3.org/2000/svg" xmlns:xlink="http://www.w3.org/1999/xlink">
<g id="graph0" class="graph" transform="scale(1 1) rotate(0) translate(4 255.2)">
<title>oneDegreeRelationshipsDiagram</title>
<polygon fill="#ffffff" stroke="transparent" points="-4,4 -4,-255.2 596,-255.2 596,4 -4,4"/>
<text text-anchor="middle" x="72.4936" y="-7.3" font-family="Helvetica,sans-Serif" font-size="11.00" fill="#000000">Generated by SchemaSpy</text>
<!-- completed_normal_challenges -->
<g id="node1" class="node">
<title>completed_normal_challenges</title>
<g id="a_node1"><a xlink:href="../../tables/completed_normal_challenges.html" xlink:title="completed_normal_challenges" target="_top">
<polygon fill="#ffffff" stroke="transparent" points="369,-90.2 369,-217.2 584,-217.2 584,-90.2 369,-90.2"/>
<polygon fill="#f5f5f5" stroke="transparent" points="369.5,-193.7 369.5,-216.7 584.5,-216.7 584.5,-193.7 369.5,-193.7"/>
<polygon fill="none" stroke="#000000" points="369.5,-193.7 369.5,-216.7 584.5,-216.7 584.5,-193.7 369.5,-193.7"/>
<text text-anchor="start" x="374.5" y="-202.8" font-family="Helvetica,sans-Serif" font-weight="bold" font-size="11.00" fill="#000000">completed_normal_challenges</text>
<text text-anchor="start" x="549.5437" y="-201.8" font-family="Helvetica,sans-Serif" font-size="11.00" fill="#000000">[table]</text>
<polygon fill="none" stroke="#000000" points="369.5,-171.7 369.5,-193.7 584.5,-193.7 584.5,-171.7 369.5,-171.7"/>
<image xlink:href="../../images/primaryKeys.png" width="11px" height="12px" preserveAspectRatio="xMinYMin meet" x="374.5" y="-188.7"/>
<text text-anchor="start" x="389.5" y="-178.8" font-family="Helvetica,sans-Serif" font-size="11.00" fill="#000000">gymnasts_id</text>
<polygon fill="none" stroke="#000000" points="369.5,-149.7 369.5,-171.7 584.5,-171.7 584.5,-149.7 369.5,-149.7"/>
<image xlink:href="../../images/primaryKeys.png" width="11px" height="12px" preserveAspectRatio="xMinYMin meet" x="374.5" y="-166.7"/>
<text text-anchor="start" x="389.5" y="-156.8" font-family="Helvetica,sans-Serif" font-size="11.00" fill="#000000">normal_challenges_classes_id</text>
<polygon fill="none" stroke="#000000" points="369.5,-127.7 369.5,-149.7 584.5,-149.7 584.5,-127.7 369.5,-127.7"/>
<image xlink:href="../../images/primaryKeys.png" width="11px" height="12px" preserveAspectRatio="xMinYMin meet" x="374.5" y="-144.7"/>
<text text-anchor="start" x="389.5" y="-134.8" font-family="Helvetica,sans-Serif" font-size="11.00" fill="#000000">normal_challenges_challenges_id</text>
<polygon fill="none" stroke="#000000" points="369.5,-108.7 369.5,-127.7 584.5,-127.7 584.5,-108.7 369.5,-108.7"/>
<text text-anchor="start" x="372.5" y="-114.8" font-family="Helvetica,sans-Serif" font-size="11.00" fill="#000000">...</text>
<polygon fill="#ffffff" stroke="transparent" points="369.5,-89.7 369.5,-108.7 462.5,-108.7 462.5,-89.7 369.5,-89.7"/>
<polygon fill="none" stroke="#000000" points="369.5,-89.7 369.5,-108.7 462.5,-108.7 462.5,-89.7 369.5,-89.7"/>
<text text-anchor="start" x="372.5" y="-95.8" font-family="Helvetica,sans-Serif" font-size="11.00" fill="#000000">&lt; 3</text>
<polygon fill="#ffffff" stroke="transparent" points="462.5,-89.7 462.5,-108.7 536.5,-108.7 536.5,-89.7 462.5,-89.7"/>
<polygon fill="none" stroke="#000000" points="462.5,-89.7 462.5,-108.7 536.5,-108.7 536.5,-89.7 462.5,-89.7"/>
<text text-anchor="start" x="501.1105" y="-95.8" font-family="Helvetica,sans-Serif" font-size="11.00" fill="#000000">0 rows</text>
<polygon fill="#ffffff" stroke="transparent" points="536.5,-89.7 536.5,-108.7 584.5,-108.7 584.5,-89.7 536.5,-89.7"/>
<polygon fill="none" stroke="#000000" points="536.5,-89.7 536.5,-108.7 584.5,-108.7 584.5,-89.7 536.5,-89.7"/>
<text text-anchor="start" x="575.3862" y="-95.8" font-family="Helvetica,sans-Serif" font-size="11.00" fill="#000000"> &#160;</text>
</a>
</g>
</g>
<!-- normal_challenges -->
<g id="node2" class="node">
<title>normal_challenges</title>
<g id="a_node2"><a xlink:href="../../tables/normal_challenges.html" xlink:title="normal_challenges" target="_top">
<polygon fill="#ffffff" stroke="transparent" points="152,-84.7 152,-196.7 320,-196.7 320,-84.7 152,-84.7"/>
<polygon fill="#f5f5f5" stroke="transparent" points="154,-171.7 154,-194.7 318,-194.7 318,-171.7 154,-171.7"/>
<polygon fill="none" stroke="#000000" points="154,-171.7 154,-194.7 318,-194.7 318,-171.7 154,-171.7"/>
<text text-anchor="start" x="159" y="-180.8" font-family="Helvetica,sans-Serif" font-weight="bold" font-size="11.00" fill="#000000">normal_challenges</text>
<text text-anchor="start" x="283.0437" y="-179.8" font-family="Helvetica,sans-Serif" font-size="11.00" fill="#000000">[table]</text>
<polygon fill="none" stroke="#000000" points="154,-149.7 154,-171.7 283,-171.7 283,-149.7 154,-149.7"/>
<image xlink:href="../../images/primaryKeys.png" width="11px" height="12px" preserveAspectRatio="xMinYMin meet" x="159" y="-166.7"/>
<text text-anchor="start" x="174" y="-156.8" font-family="Helvetica,sans-Serif" font-size="11.00" fill="#000000">classes_id</text>
<polygon fill="none" stroke="#000000" points="283,-149.7 283,-171.7 318,-171.7 318,-149.7 283,-149.7"/>
<text text-anchor="start" x="285.5219" y="-157.4" font-family="Helvetica,sans-Serif" font-size="11.00" fill="#000000">int[10]</text>
<polygon fill="none" stroke="#000000" points="154,-127.7 154,-149.7 283,-149.7 283,-127.7 154,-127.7"/>
<image xlink:href="../../images/primaryKeys.png" width="11px" height="12px" preserveAspectRatio="xMinYMin meet" x="159" y="-144.7"/>
<text text-anchor="start" x="174" y="-134.8" font-family="Helvetica,sans-Serif" font-size="11.00" fill="#000000">challenges_id</text>
<polygon fill="none" stroke="#000000" points="283,-127.7 283,-149.7 318,-149.7 318,-127.7 283,-127.7"/>
<text text-anchor="start" x="285.5219" y="-135.4" font-family="Helvetica,sans-Serif" font-size="11.00" fill="#000000">int[10]</text>
<polygon fill="none" stroke="#000000" points="154,-105.7 154,-127.7 283,-127.7 283,-105.7 154,-105.7"/>
<text text-anchor="start" x="174" y="-112.8" font-family="Helvetica,sans-Serif" font-size="11.00" fill="#000000">is_active</text>
<polygon fill="none" stroke="#000000" points="283,-105.7 283,-127.7 318,-127.7 318,-105.7 283,-105.7"/>
<text text-anchor="start" x="286" y="-113.4" font-family="Helvetica,sans-Serif" font-size="11.00" fill="#000000">bit[1]</text>
<polygon fill="#ffffff" stroke="transparent" points="154,-86.7 154,-105.7 210,-105.7 210,-86.7 154,-86.7"/>
<polygon fill="none" stroke="#000000" points="154,-86.7 154,-105.7 210,-105.7 210,-86.7 154,-86.7"/>
<text text-anchor="start" x="157" y="-92.8" font-family="Helvetica,sans-Serif" font-size="11.00" fill="#000000">&lt; 2</text>
<polygon fill="#ffffff" stroke="transparent" points="210,-86.7 210,-105.7 283,-105.7 283,-86.7 210,-86.7"/>
<polygon fill="none" stroke="#000000" points="210,-86.7 210,-105.7 283,-105.7 283,-86.7 210,-86.7"/>
<text text-anchor="start" x="247.6105" y="-92.8" font-family="Helvetica,sans-Serif" font-size="11.00" fill="#000000">0 rows</text>
<polygon fill="#ffffff" stroke="transparent" points="283,-86.7 283,-105.7 318,-105.7 318,-86.7 283,-86.7"/>
<polygon fill="none" stroke="#000000" points="283,-86.7 283,-105.7 318,-105.7 318,-86.7 283,-86.7"/>
<text text-anchor="start" x="299.4053" y="-92.8" font-family="Helvetica,sans-Serif" font-size="11.00" fill="#000000">2 &gt;</text>
<polygon fill="none" stroke="#000000" stroke-width="2" points="153,-85.7 153,-195.7 319,-195.7 319,-85.7 153,-85.7"/>
</a>
</g>
</g>
<!-- completed_normal_challenges&#45;&gt;normal_challenges -->
<g id="edge1" class="edge">
<title>completed_normal_challenges:w&#45;&gt;normal_challenges:e</title>
<path fill="none" stroke="#000000" d="M355.0156,-138.7C342.6771,-138.7 335.1667,-138.7 318,-138.7"/>
<polygon fill="#000000" stroke="#000000" points="361.5,-138.7001 369.5,-142.3 365.5,-138.7 369.5,-138.7 369.5,-138.7 369.5,-138.7 365.5,-138.7 369.5,-135.1 361.5,-138.7001 361.5,-138.7001"/>
<ellipse fill="none" stroke="#000000" cx="358.3" cy="-138.7001" rx="3.2" ry="3.2"/>
</g>
<!-- completed_normal_challenges&#45;&gt;normal_challenges -->
<g id="edge2" class="edge">
<title>completed_normal_challenges:w&#45;&gt;normal_challenges:e</title>
<path fill="none" stroke="#000000" d="M355.0156,-160.7C342.6771,-160.7 335.1667,-160.7 318,-160.7"/>
<polygon fill="#000000" stroke="#000000" points="361.5,-160.7001 369.5,-164.3 365.5,-160.7 369.5,-160.7 369.5,-160.7 369.5,-160.7 365.5,-160.7 369.5,-157.1 361.5,-160.7001 361.5,-160.7001"/>
<ellipse fill="none" stroke="#000000" cx="358.3" cy="-160.7001" rx="3.2" ry="3.2"/>
</g>
<!-- challenges -->
<g id="node3" class="node">
<title>challenges</title>
<g id="a_node3"><a xlink:href="../../tables/challenges.html" xlink:title="challenges" target="_top">
<polygon fill="#ffffff" stroke="transparent" points="8,-38.2 8,-121.2 103,-121.2 103,-38.2 8,-38.2"/>
<polygon fill="#f5f5f5" stroke="transparent" points="8.5,-97.7 8.5,-120.7 103.5,-120.7 103.5,-97.7 8.5,-97.7"/>
<polygon fill="none" stroke="#000000" points="8.5,-97.7 8.5,-120.7 103.5,-120.7 103.5,-97.7 8.5,-97.7"/>
<text text-anchor="start" x="13.2144" y="-106.8" font-family="Helvetica,sans-Serif" font-weight="bold" font-size="11.00" fill="#000000">challenges</text>
<text text-anchor="start" x="69.0219" y="-105.8" font-family="Helvetica,sans-Serif" font-size="11.00" fill="#000000">[table]</text>
<polygon fill="none" stroke="#000000" points="8.5,-75.7 8.5,-97.7 103.5,-97.7 103.5,-75.7 8.5,-75.7"/>
<image xlink:href="../../images/primaryKeys.png" width="11px" height="12px" preserveAspectRatio="xMinYMin meet" x="13.5" y="-92.7"/>
<text text-anchor="start" x="33.5" y="-82.8" font-family="Helvetica,sans-Serif" font-size="11.00" fill="#000000">id</text>
<polygon fill="none" stroke="#000000" points="8.5,-56.7 8.5,-75.7 103.5,-75.7 103.5,-56.7 8.5,-56.7"/>
<text text-anchor="start" x="11.5" y="-62.8" font-family="Helvetica,sans-Serif" font-size="11.00" fill="#000000">...</text>
<polygon fill="#ffffff" stroke="transparent" points="8.5,-37.7 8.5,-56.7 32.5,-56.7 32.5,-37.7 8.5,-37.7"/>
<polygon fill="none" stroke="#000000" points="8.5,-37.7 8.5,-56.7 32.5,-56.7 32.5,-37.7 8.5,-37.7"/>
<text text-anchor="start" x="11.5" y="-43.8" font-family="Helvetica,sans-Serif" font-size="11.00" fill="#000000"> &#160;</text>
<polygon fill="#ffffff" stroke="transparent" points="32.5,-37.7 32.5,-56.7 76.5,-56.7 76.5,-37.7 32.5,-37.7"/>
<polygon fill="none" stroke="#000000" points="32.5,-37.7 32.5,-56.7 76.5,-56.7 76.5,-37.7 32.5,-37.7"/>
<text text-anchor="start" x="41.1105" y="-43.8" font-family="Helvetica,sans-Serif" font-size="11.00" fill="#000000">0 rows</text>
<polygon fill="#ffffff" stroke="transparent" points="76.5,-37.7 76.5,-56.7 103.5,-56.7 103.5,-37.7 76.5,-37.7"/>
<polygon fill="none" stroke="#000000" points="76.5,-37.7 76.5,-56.7 103.5,-56.7 103.5,-37.7 76.5,-37.7"/>
<text text-anchor="start" x="84.9053" y="-43.8" font-family="Helvetica,sans-Serif" font-size="11.00" fill="#000000">2 &gt;</text>
</a>
</g>
</g>
<!-- normal_challenges&#45;&gt;challenges -->
<g id="edge3" class="edge">
<title>normal_challenges:w&#45;&gt;challenges:e</title>
<path fill="none" stroke="#000000" d="M140.1372,-133.9012C125.3861,-121.0281 129.6756,-86.7 103.5,-86.7"/>
<polygon fill="#000000" stroke="#000000" points="146.4401,-136.083 152.8223,-142.1019 150.2201,-137.3915 154,-138.7 154,-138.7 154,-138.7 150.2201,-137.3915 155.1777,-135.2981 146.4401,-136.083 146.4401,-136.083"/>
<ellipse fill="none" stroke="#000000" cx="143.4162" cy="-135.0362" rx="3.2" ry="3.2"/>
</g>
<!-- classes -->
<g id="node4" class="node">
<title>classes</title>
<g id="a_node4"><a xlink:href="../../tables/classes.html" xlink:title="classes" target="_top">
<polygon fill="#ffffff" stroke="transparent" points="13,-142.2 13,-247.2 98,-247.2 98,-142.2 13,-142.2"/>
<polygon fill="#f5f5f5" stroke="transparent" points="13.5,-223.7 13.5,-246.7 98.5,-246.7 98.5,-223.7 13.5,-223.7"/>
<polygon fill="none" stroke="#000000" points="13.5,-223.7 13.5,-246.7 98.5,-246.7 98.5,-223.7 13.5,-223.7"/>
<text text-anchor="start" x="18.5" y="-232.8" font-family="Helvetica,sans-Serif" font-weight="bold" font-size="11.00" fill="#000000">classes</text>
<text text-anchor="start" x="63.5437" y="-231.8" font-family="Helvetica,sans-Serif" font-size="11.00" fill="#000000">[table]</text>
<polygon fill="none" stroke="#000000" points="13.5,-201.7 13.5,-223.7 98.5,-223.7 98.5,-201.7 13.5,-201.7"/>
<image xlink:href="../../images/primaryKeys.png" width="11px" height="12px" preserveAspectRatio="xMinYMin meet" x="18.5" y="-218.7"/>
<text text-anchor="start" x="33.5" y="-208.8" font-family="Helvetica,sans-Serif" font-size="11.00" fill="#000000">id</text>
<polygon fill="#ffffff" stroke="transparent" points="13.5,-179.7 13.5,-201.7 98.5,-201.7 98.5,-179.7 13.5,-179.7"/>
<polygon fill="none" stroke="#000000" points="13.5,-179.7 13.5,-201.7 98.5,-201.7 98.5,-179.7 13.5,-179.7"/>
<image xlink:href="../../images/foreignKeys.png" width="11px" height="12px" preserveAspectRatio="xMinYMin meet" x="18.5" y="-196.7"/>
<text text-anchor="start" x="33.5" y="-186.8" font-family="Helvetica,sans-Serif" font-size="11.00" fill="#000000">skill_list_id</text>
<polygon fill="none" stroke="#000000" points="13.5,-160.7 13.5,-179.7 98.5,-179.7 98.5,-160.7 13.5,-160.7"/>
<text text-anchor="start" x="16.5" y="-166.8" font-family="Helvetica,sans-Serif" font-size="11.00" fill="#000000">...</text>
<polygon fill="#ffffff" stroke="transparent" points="13.5,-141.7 13.5,-160.7 36.5,-160.7 36.5,-141.7 13.5,-141.7"/>
<polygon fill="none" stroke="#000000" points="13.5,-141.7 13.5,-160.7 36.5,-160.7 36.5,-141.7 13.5,-141.7"/>
<text text-anchor="start" x="16.5" y="-147.8" font-family="Helvetica,sans-Serif" font-size="11.00" fill="#000000">&lt; 1</text>
<polygon fill="#ffffff" stroke="transparent" points="36.5,-141.7 36.5,-160.7 75.5,-160.7 75.5,-141.7 36.5,-141.7"/>
<polygon fill="none" stroke="#000000" points="36.5,-141.7 36.5,-160.7 75.5,-160.7 75.5,-141.7 36.5,-141.7"/>
<text text-anchor="start" x="40.1105" y="-147.8" font-family="Helvetica,sans-Serif" font-size="11.00" fill="#000000">0 rows</text>
<polygon fill="#ffffff" stroke="transparent" points="75.5,-141.7 75.5,-160.7 98.5,-160.7 98.5,-141.7 75.5,-141.7"/>
<polygon fill="none" stroke="#000000" points="75.5,-141.7 75.5,-160.7 98.5,-160.7 98.5,-141.7 75.5,-141.7"/>
<text text-anchor="start" x="79.9053" y="-147.8" font-family="Helvetica,sans-Serif" font-size="11.00" fill="#000000">3 &gt;</text>
</a>
</g>
</g>
<!-- normal_challenges&#45;&gt;classes -->
<g id="edge4" class="edge">
<title>normal_challenges:w&#45;&gt;classes:e</title>
<path fill="none" stroke="#000000" d="M140.173,-164.7804C123.0027,-177.0389 126.4922,-212.7 98.5,-212.7"/>
<polygon fill="#000000" stroke="#000000" points="146.3271,-162.9643 155.0189,-164.1528 150.1636,-161.8322 154,-160.7 154,-160.7 154,-160.7 150.1636,-161.8322 152.9811,-157.2472 146.3271,-162.9643 146.3271,-162.9643"/>
<ellipse fill="none" stroke="#000000" cx="143.258" cy="-163.87" rx="3.2" ry="3.2"/>
</g>
</g>
</svg>
