<?xml version="1.0" encoding="UTF-8" standalone="no"?>
<!DOCTYPE svg PUBLIC "-//W3C//DTD SVG 1.1//EN"
 "http://www.w3.org/Graphics/SVG/1.1/DTD/svg11.dtd">
<!-- Generated by graphviz version 2.40.1 (20161225.0304)
 -->
<!-- Title: twoDegreesRelationshipsDiagram Pages: 1 -->
<svg width="1008pt" height="373pt"
 viewBox="0.00 0.00 1008.00 373.20" xmlns="http://www.w3.org/2000/svg" xmlns:xlink="http://www.w3.org/1999/xlink">
<g id="graph0" class="graph" transform="scale(1 1) rotate(0) translate(4 369.2)">
<title>twoDegreesRelationshipsDiagram</title>
<polygon fill="#ffffff" stroke="transparent" points="-4,4 -4,-369.2 1004,-369.2 1004,4 -4,4"/>
<text text-anchor="middle" x="72.4936" y="-7.3" font-family="Helvetica,sans-Serif" font-size="11.00" fill="#000000">Generated by SchemaSpy</text>
<!-- challenges -->
<g id="node1" class="node">
<title>challenges</title>
<g id="a_node1"><a xlink:href="../../tables/challenges.html" xlink:title="challenges" target="_top">
<polygon fill="#ffffff" stroke="transparent" points="397,-153.2 397,-280.2 496,-280.2 496,-153.2 397,-153.2"/>
<polygon fill="#f5f5f5" stroke="transparent" points="397.5,-256.7 397.5,-279.7 496.5,-279.7 496.5,-256.7 397.5,-256.7"/>
<polygon fill="none" stroke="#000000" points="397.5,-256.7 397.5,-279.7 496.5,-279.7 496.5,-256.7 397.5,-256.7"/>
<text text-anchor="start" x="402.5" y="-265.8" font-family="Helvetica,sans-Serif" font-weight="bold" font-size="11.00" fill="#000000">challenges</text>
<text text-anchor="start" x="461.5437" y="-264.8" font-family="Helvetica,sans-Serif" font-size="11.00" fill="#000000">[table]</text>
<polygon fill="none" stroke="#000000" points="397.5,-234.7 397.5,-256.7 496.5,-256.7 496.5,-234.7 397.5,-234.7"/>
<image xlink:href="../../images/primaryKeys.png" width="11px" height="12px" preserveAspectRatio="xMinYMin meet" x="402.5" y="-251.7"/>
<text text-anchor="start" x="417.5" y="-241.8" font-family="Helvetica,sans-Serif" font-size="11.00" fill="#000000">id</text>
<polygon fill="#ffffff" stroke="transparent" points="397.5,-212.7 397.5,-234.7 496.5,-234.7 496.5,-212.7 397.5,-212.7"/>
<polygon fill="none" stroke="#000000" points="397.5,-212.7 397.5,-234.7 496.5,-234.7 496.5,-212.7 397.5,-212.7"/>
<image xlink:href="../../images/foreignKeys.png" width="11px" height="12px" preserveAspectRatio="xMinYMin meet" x="402.5" y="-229.7"/>
<text text-anchor="start" x="417.5" y="-219.8" font-family="Helvetica,sans-Serif" font-size="11.00" fill="#000000">gym_id</text>
<polygon fill="#ffffff" stroke="transparent" points="397.5,-190.7 397.5,-212.7 496.5,-212.7 496.5,-190.7 397.5,-190.7"/>
<polygon fill="none" stroke="#000000" points="397.5,-190.7 397.5,-212.7 496.5,-212.7 496.5,-190.7 397.5,-190.7"/>
<image xlink:href="../../images/foreignKeys.png" width="11px" height="12px" preserveAspectRatio="xMinYMin meet" x="402.5" y="-207.7"/>
<text text-anchor="start" x="417.5" y="-197.8" font-family="Helvetica,sans-Serif" font-size="11.00" fill="#000000">class_id</text>
<polygon fill="none" stroke="#000000" points="397.5,-171.7 397.5,-190.7 496.5,-190.7 496.5,-171.7 397.5,-171.7"/>
<text text-anchor="start" x="400.5" y="-177.8" font-family="Helvetica,sans-Serif" font-size="11.00" fill="#000000">...</text>
<polygon fill="#ffffff" stroke="transparent" points="397.5,-152.7 397.5,-171.7 427.5,-171.7 427.5,-152.7 397.5,-152.7"/>
<polygon fill="none" stroke="#000000" points="397.5,-152.7 397.5,-171.7 427.5,-171.7 427.5,-152.7 397.5,-152.7"/>
<text text-anchor="start" x="400.5" y="-158.8" font-family="Helvetica,sans-Serif" font-size="11.00" fill="#000000">&lt; 2</text>
<polygon fill="#ffffff" stroke="transparent" points="427.5,-152.7 427.5,-171.7 470.5,-171.7 470.5,-152.7 427.5,-152.7"/>
<polygon fill="none" stroke="#000000" points="427.5,-152.7 427.5,-171.7 470.5,-171.7 470.5,-152.7 427.5,-152.7"/>
<text text-anchor="start" x="435.1105" y="-158.8" font-family="Helvetica,sans-Serif" font-size="11.00" fill="#000000">0 rows</text>
<polygon fill="#ffffff" stroke="transparent" points="470.5,-152.7 470.5,-171.7 496.5,-171.7 496.5,-152.7 470.5,-152.7"/>
<polygon fill="none" stroke="#000000" points="470.5,-152.7 470.5,-171.7 496.5,-171.7 496.5,-152.7 470.5,-152.7"/>
<text text-anchor="start" x="477.9053" y="-158.8" font-family="Helvetica,sans-Serif" font-size="11.00" fill="#000000">2 &gt;</text>
</a>
</g>
</g>
<!-- classes -->
<g id="node2" class="node">
<title>classes</title>
<g id="a_node2"><a xlink:href="../../tables/classes.html" xlink:title="classes" target="_top">
<polygon fill="#ffffff" stroke="transparent" points="263,-94.2 263,-199.2 348,-199.2 348,-94.2 263,-94.2"/>
<polygon fill="#f5f5f5" stroke="transparent" points="263.5,-175.7 263.5,-198.7 348.5,-198.7 348.5,-175.7 263.5,-175.7"/>
<polygon fill="none" stroke="#000000" points="263.5,-175.7 263.5,-198.7 348.5,-198.7 348.5,-175.7 263.5,-175.7"/>
<text text-anchor="start" x="268.5" y="-184.8" font-family="Helvetica,sans-Serif" font-weight="bold" font-size="11.00" fill="#000000">classes</text>
<text text-anchor="start" x="313.5437" y="-183.8" font-family="Helvetica,sans-Serif" font-size="11.00" fill="#000000">[table]</text>
<polygon fill="none" stroke="#000000" points="263.5,-153.7 263.5,-175.7 348.5,-175.7 348.5,-153.7 263.5,-153.7"/>
<image xlink:href="../../images/primaryKeys.png" width="11px" height="12px" preserveAspectRatio="xMinYMin meet" x="268.5" y="-170.7"/>
<text text-anchor="start" x="283.5" y="-160.8" font-family="Helvetica,sans-Serif" font-size="11.00" fill="#000000">id</text>
<polygon fill="#ffffff" stroke="transparent" points="263.5,-131.7 263.5,-153.7 348.5,-153.7 348.5,-131.7 263.5,-131.7"/>
<polygon fill="none" stroke="#000000" points="263.5,-131.7 263.5,-153.7 348.5,-153.7 348.5,-131.7 263.5,-131.7"/>
<image xlink:href="../../images/foreignKeys.png" width="11px" height="12px" preserveAspectRatio="xMinYMin meet" x="268.5" y="-148.7"/>
<text text-anchor="start" x="283.5" y="-138.8" font-family="Helvetica,sans-Serif" font-size="11.00" fill="#000000">skill_list_id</text>
<polygon fill="none" stroke="#000000" points="263.5,-112.7 263.5,-131.7 348.5,-131.7 348.5,-112.7 263.5,-112.7"/>
<text text-anchor="start" x="266.5" y="-118.8" font-family="Helvetica,sans-Serif" font-size="11.00" fill="#000000">...</text>
<polygon fill="#ffffff" stroke="transparent" points="263.5,-93.7 263.5,-112.7 286.5,-112.7 286.5,-93.7 263.5,-93.7"/>
<polygon fill="none" stroke="#000000" points="263.5,-93.7 263.5,-112.7 286.5,-112.7 286.5,-93.7 263.5,-93.7"/>
<text text-anchor="start" x="266.5" y="-99.8" font-family="Helvetica,sans-Serif" font-size="11.00" fill="#000000">&lt; 1</text>
<polygon fill="#ffffff" stroke="transparent" points="286.5,-93.7 286.5,-112.7 325.5,-112.7 325.5,-93.7 286.5,-93.7"/>
<polygon fill="none" stroke="#000000" points="286.5,-93.7 286.5,-112.7 325.5,-112.7 325.5,-93.7 286.5,-93.7"/>
<text text-anchor="start" x="290.1105" y="-99.8" font-family="Helvetica,sans-Serif" font-size="11.00" fill="#000000">0 rows</text>
<polygon fill="#ffffff" stroke="transparent" points="325.5,-93.7 325.5,-112.7 348.5,-112.7 348.5,-93.7 325.5,-93.7"/>
<polygon fill="none" stroke="#000000" points="325.5,-93.7 325.5,-112.7 348.5,-112.7 348.5,-93.7 325.5,-93.7"/>
<text text-anchor="start" x="329.9053" y="-99.8" font-family="Helvetica,sans-Serif" font-size="11.00" fill="#000000">4 &gt;</text>
</a>
</g>
</g>
<!-- challenges&#45;&gt;classes -->
<g id="edge1" class="edge">
<title>challenges:w&#45;&gt;classes:e</title>
<path fill="none" stroke="#000000" d="M383.6217,-197.1631C371.0786,-187.283 369.8196,-164.7 348.5,-164.7"/>
<polygon fill="#000000" stroke="#000000" points="389.896,-199.2142 396.3814,-205.1218 393.698,-200.4571 397.5,-201.7 397.5,-201.7 397.5,-201.7 393.698,-200.4571 398.6186,-198.2782 389.896,-199.2142 389.896,-199.2142"/>
<ellipse fill="none" stroke="#000000" cx="386.8544" cy="-198.2198" rx="3.2" ry="3.2"/>
</g>
<!-- gyms -->
<g id="node3" class="node">
<title>gyms</title>
<g id="a_node3"><a xlink:href="../../tables/gyms.html" xlink:title="gyms" target="_top">
<polygon fill="#ffffff" stroke="transparent" points="8,-161.2 8,-222.2 79,-222.2 79,-161.2 8,-161.2"/>
<polygon fill="#f5f5f5" stroke="transparent" points="8.5,-198.7 8.5,-221.7 79.5,-221.7 79.5,-198.7 8.5,-198.7"/>
<polygon fill="none" stroke="#000000" points="8.5,-198.7 8.5,-221.7 79.5,-221.7 79.5,-198.7 8.5,-198.7"/>
<text text-anchor="start" x="13.5" y="-207.8" font-family="Helvetica,sans-Serif" font-weight="bold" font-size="11.00" fill="#000000">gyms</text>
<text text-anchor="start" x="44.5437" y="-206.8" font-family="Helvetica,sans-Serif" font-size="11.00" fill="#000000">[table]</text>
<polygon fill="none" stroke="#000000" points="8.5,-179.7 8.5,-198.7 79.5,-198.7 79.5,-179.7 8.5,-179.7"/>
<text text-anchor="start" x="11.5" y="-185.8" font-family="Helvetica,sans-Serif" font-size="11.00" fill="#000000">...</text>
<polygon fill="#ffffff" stroke="transparent" points="8.5,-160.7 8.5,-179.7 20.5,-179.7 20.5,-160.7 8.5,-160.7"/>
<polygon fill="none" stroke="#000000" points="8.5,-160.7 8.5,-179.7 20.5,-179.7 20.5,-160.7 8.5,-160.7"/>
<text text-anchor="start" x="11.4431" y="-166.8" font-family="Helvetica,sans-Serif" font-size="11.00" fill="#000000"> &#160;</text>
<polygon fill="#ffffff" stroke="transparent" points="20.5,-160.7 20.5,-179.7 58.5,-179.7 58.5,-160.7 20.5,-160.7"/>
<polygon fill="none" stroke="#000000" points="20.5,-160.7 20.5,-179.7 58.5,-179.7 58.5,-160.7 20.5,-160.7"/>
<text text-anchor="start" x="23.3053" y="-166.8" font-family="Helvetica,sans-Serif" font-size="11.00" fill="#000000">0 rows</text>
<polygon fill="#ffffff" stroke="transparent" points="58.5,-160.7 58.5,-179.7 79.5,-179.7 79.5,-160.7 58.5,-160.7"/>
<polygon fill="none" stroke="#000000" points="58.5,-160.7 58.5,-179.7 79.5,-179.7 79.5,-160.7 58.5,-160.7"/>
<text text-anchor="start" x="61.2027" y="-166.8" font-family="Helvetica,sans-Serif" font-size="11.00" fill="#000000">4 &gt;</text>
</a>
</g>
</g>
<!-- challenges&#45;&gt;gyms -->
<g id="edge2" class="edge">
<title>challenges:w&#45;&gt;gyms:e</title>
<path fill="none" stroke="#000000" d="M383.0577,-223.6774C270.9966,-223.3107 237.2414,-218.338 120,-198.7 101.7142,-195.6371 98.0406,-188.7 79.5,-188.7"/>
<polygon fill="#000000" stroke="#000000" points="389.5,-223.6874 397.4943,-227.3 393.5,-223.6937 397.5,-223.7 397.5,-223.7 397.5,-223.7 393.5,-223.6937 397.5057,-220.1 389.5,-223.6874 389.5,-223.6874"/>
<ellipse fill="none" stroke="#000000" cx="386.3" cy="-223.6824" rx="3.2" ry="3.2"/>
</g>
<!-- skill_lists -->
<g id="node4" class="node">
<title>skill_lists</title>
<g id="a_node4"><a xlink:href="../../tables/skill_lists.html" xlink:title="skill_lists" target="_top">
<polygon fill="#ffffff" stroke="transparent" points="128,-127.2 128,-188.2 214,-188.2 214,-127.2 128,-127.2"/>
<polygon fill="#f5f5f5" stroke="transparent" points="128,-164.7 128,-187.7 214,-187.7 214,-164.7 128,-164.7"/>
<polygon fill="none" stroke="#000000" points="128,-164.7 128,-187.7 214,-187.7 214,-164.7 128,-164.7"/>
<text text-anchor="start" x="132.8119" y="-173.8" font-family="Helvetica,sans-Serif" font-weight="bold" font-size="11.00" fill="#000000">skill_lists</text>
<text text-anchor="start" x="179.5219" y="-172.8" font-family="Helvetica,sans-Serif" font-size="11.00" fill="#000000">[table]</text>
<polygon fill="none" stroke="#000000" points="128,-145.7 128,-164.7 214,-164.7 214,-145.7 128,-145.7"/>
<text text-anchor="start" x="131" y="-151.8" font-family="Helvetica,sans-Serif" font-size="11.00" fill="#000000">...</text>
<polygon fill="#ffffff" stroke="transparent" points="128,-126.7 128,-145.7 152,-145.7 152,-126.7 128,-126.7"/>
<polygon fill="none" stroke="#000000" points="128,-126.7 128,-145.7 152,-145.7 152,-126.7 128,-126.7"/>
<text text-anchor="start" x="131" y="-132.8" font-family="Helvetica,sans-Serif" font-size="11.00" fill="#000000">&lt; 1</text>
<polygon fill="#ffffff" stroke="transparent" points="152,-126.7 152,-145.7 191,-145.7 191,-126.7 152,-126.7"/>
<polygon fill="none" stroke="#000000" points="152,-126.7 152,-145.7 191,-145.7 191,-126.7 152,-126.7"/>
<text text-anchor="start" x="155.6105" y="-132.8" font-family="Helvetica,sans-Serif" font-size="11.00" fill="#000000">0 rows</text>
<polygon fill="#ffffff" stroke="transparent" points="191,-126.7 191,-145.7 214,-145.7 214,-126.7 191,-126.7"/>
<polygon fill="none" stroke="#000000" points="191,-126.7 191,-145.7 214,-145.7 214,-126.7 191,-126.7"/>
<text text-anchor="start" x="195.4053" y="-132.8" font-family="Helvetica,sans-Serif" font-size="11.00" fill="#000000">2 &gt;</text>
</a>
</g>
</g>
<!-- classes&#45;&gt;skill_lists -->
<g id="edge3" class="edge">
<title>classes:w&#45;&gt;skill_lists:e</title>
<path fill="none" stroke="#000000" d="M249.0318,-144.6816C237.4602,-148.0899 230.8011,-154.7 214,-154.7"/>
<polygon fill="#000000" stroke="#000000" points="255.574,-143.7856 263.9885,-146.2667 259.537,-143.2428 263.5,-142.7 263.5,-142.7 263.5,-142.7 259.537,-143.2428 263.0115,-139.1333 255.574,-143.7856 255.574,-143.7856"/>
<ellipse fill="none" stroke="#000000" cx="252.4036" cy="-144.2198" rx="3.2" ry="3.2"/>
</g>
<!-- skill_lists&#45;&gt;gyms -->
<g id="edge13" class="edge">
<title>skill_lists:w&#45;&gt;gyms:e</title>
<path fill="none" stroke="#000000" d="M114.0914,-159.1449C101.9913,-168.361 99.8605,-188.7 79.5,-188.7"/>
<polygon fill="#000000" stroke="#000000" points="120.3797,-157.1353 129.0959,-158.1291 124.1898,-155.9177 128,-154.7 128,-154.7 128,-154.7 124.1898,-155.9177 126.9041,-151.2709 120.3797,-157.1353 120.3797,-157.1353"/>
<ellipse fill="none" stroke="#000000" cx="117.3315" cy="-158.1095" rx="3.2" ry="3.2"/>
</g>
<!-- completed_normal_challenges -->
<g id="node5" class="node">
<title>completed_normal_challenges</title>
<g id="a_node5"><a xlink:href="../../tables/completed_normal_challenges.html" xlink:title="completed_normal_challenges" target="_top">
<polygon fill="#ffffff" stroke="transparent" points="777,-234.2 777,-361.2 992,-361.2 992,-234.2 777,-234.2"/>
<polygon fill="#f5f5f5" stroke="transparent" points="777.5,-337.7 777.5,-360.7 992.5,-360.7 992.5,-337.7 777.5,-337.7"/>
<polygon fill="none" stroke="#000000" points="777.5,-337.7 777.5,-360.7 992.5,-360.7 992.5,-337.7 777.5,-337.7"/>
<text text-anchor="start" x="782.5" y="-346.8" font-family="Helvetica,sans-Serif" font-weight="bold" font-size="11.00" fill="#000000">completed_normal_challenges</text>
<text text-anchor="start" x="957.5437" y="-345.8" font-family="Helvetica,sans-Serif" font-size="11.00" fill="#000000">[table]</text>
<polygon fill="none" stroke="#000000" points="777.5,-315.7 777.5,-337.7 992.5,-337.7 992.5,-315.7 777.5,-315.7"/>
<image xlink:href="../../images/primaryKeys.png" width="11px" height="12px" preserveAspectRatio="xMinYMin meet" x="782.5" y="-332.7"/>
<text text-anchor="start" x="797.5" y="-322.8" font-family="Helvetica,sans-Serif" font-size="11.00" fill="#000000">gymnasts_id</text>
<polygon fill="none" stroke="#000000" points="777.5,-293.7 777.5,-315.7 992.5,-315.7 992.5,-293.7 777.5,-293.7"/>
<image xlink:href="../../images/primaryKeys.png" width="11px" height="12px" preserveAspectRatio="xMinYMin meet" x="782.5" y="-310.7"/>
<text text-anchor="start" x="797.5" y="-300.8" font-family="Helvetica,sans-Serif" font-size="11.00" fill="#000000">normal_challenges_classes_id</text>
<polygon fill="none" stroke="#000000" points="777.5,-271.7 777.5,-293.7 992.5,-293.7 992.5,-271.7 777.5,-271.7"/>
<image xlink:href="../../images/primaryKeys.png" width="11px" height="12px" preserveAspectRatio="xMinYMin meet" x="782.5" y="-288.7"/>
<text text-anchor="start" x="797.5" y="-278.8" font-family="Helvetica,sans-Serif" font-size="11.00" fill="#000000">normal_challenges_challenges_id</text>
<polygon fill="none" stroke="#000000" points="777.5,-252.7 777.5,-271.7 992.5,-271.7 992.5,-252.7 777.5,-252.7"/>
<text text-anchor="start" x="780.5" y="-258.8" font-family="Helvetica,sans-Serif" font-size="11.00" fill="#000000">...</text>
<polygon fill="#ffffff" stroke="transparent" points="777.5,-233.7 777.5,-252.7 870.5,-252.7 870.5,-233.7 777.5,-233.7"/>
<polygon fill="none" stroke="#000000" points="777.5,-233.7 777.5,-252.7 870.5,-252.7 870.5,-233.7 777.5,-233.7"/>
<text text-anchor="start" x="780.5" y="-239.8" font-family="Helvetica,sans-Serif" font-size="11.00" fill="#000000">&lt; 3</text>
<polygon fill="#ffffff" stroke="transparent" points="870.5,-233.7 870.5,-252.7 944.5,-252.7 944.5,-233.7 870.5,-233.7"/>
<polygon fill="none" stroke="#000000" points="870.5,-233.7 870.5,-252.7 944.5,-252.7 944.5,-233.7 870.5,-233.7"/>
<text text-anchor="start" x="909.1105" y="-239.8" font-family="Helvetica,sans-Serif" font-size="11.00" fill="#000000">0 rows</text>
<polygon fill="#ffffff" stroke="transparent" points="944.5,-233.7 944.5,-252.7 992.5,-252.7 992.5,-233.7 944.5,-233.7"/>
<polygon fill="none" stroke="#000000" points="944.5,-233.7 944.5,-252.7 992.5,-252.7 992.5,-233.7 944.5,-233.7"/>
<text text-anchor="start" x="983.3862" y="-239.8" font-family="Helvetica,sans-Serif" font-size="11.00" fill="#000000"> &#160;</text>
</a>
</g>
</g>
<!-- gymnasts -->
<g id="node6" class="node">
<title>gymnasts</title>
<g id="a_node6"><a xlink:href="../../tables/gymnasts.html" xlink:title="gymnasts" target="_top">
<polygon fill="#ffffff" stroke="transparent" points="591.5,-64.2 591.5,-125.2 681.5,-125.2 681.5,-64.2 591.5,-64.2"/>
<polygon fill="#f5f5f5" stroke="transparent" points="591.5,-101.7 591.5,-124.7 681.5,-124.7 681.5,-101.7 591.5,-101.7"/>
<polygon fill="none" stroke="#000000" points="591.5,-101.7 591.5,-124.7 681.5,-124.7 681.5,-101.7 591.5,-101.7"/>
<text text-anchor="start" x="596.4683" y="-110.8" font-family="Helvetica,sans-Serif" font-weight="bold" font-size="11.00" fill="#000000">gymnasts</text>
<text text-anchor="start" x="647.0219" y="-109.8" font-family="Helvetica,sans-Serif" font-size="11.00" fill="#000000">[table]</text>
<polygon fill="none" stroke="#000000" points="591.5,-82.7 591.5,-101.7 681.5,-101.7 681.5,-82.7 591.5,-82.7"/>
<text text-anchor="start" x="594.5" y="-88.8" font-family="Helvetica,sans-Serif" font-size="11.00" fill="#000000">...</text>
<polygon fill="#ffffff" stroke="transparent" points="591.5,-63.7 591.5,-82.7 617.5,-82.7 617.5,-63.7 591.5,-63.7"/>
<polygon fill="none" stroke="#000000" points="591.5,-63.7 591.5,-82.7 617.5,-82.7 617.5,-63.7 591.5,-63.7"/>
<text text-anchor="start" x="594.5" y="-69.8" font-family="Helvetica,sans-Serif" font-size="11.00" fill="#000000">&lt; 2</text>
<polygon fill="#ffffff" stroke="transparent" points="617.5,-63.7 617.5,-82.7 657.5,-82.7 657.5,-63.7 617.5,-63.7"/>
<polygon fill="none" stroke="#000000" points="617.5,-63.7 617.5,-82.7 657.5,-82.7 657.5,-63.7 617.5,-63.7"/>
<text text-anchor="start" x="622.1105" y="-69.8" font-family="Helvetica,sans-Serif" font-size="11.00" fill="#000000">0 rows</text>
<polygon fill="#ffffff" stroke="transparent" points="657.5,-63.7 657.5,-82.7 681.5,-82.7 681.5,-63.7 657.5,-63.7"/>
<polygon fill="none" stroke="#000000" points="657.5,-63.7 657.5,-82.7 681.5,-82.7 681.5,-63.7 657.5,-63.7"/>
<text text-anchor="start" x="662.9053" y="-69.8" font-family="Helvetica,sans-Serif" font-size="11.00" fill="#000000">4 &gt;</text>
</a>
</g>
</g>
<!-- completed_normal_challenges&#45;&gt;gymnasts -->
<g id="edge4" class="edge">
<title>completed_normal_challenges:w&#45;&gt;gymnasts:e</title>
<path fill="none" stroke="#000000" d="M762.8352,-325.2839C701.791,-311.7884 778.6711,-204.867 736,-135.7 719.6547,-109.2053 712.6309,-91.7 681.5,-91.7"/>
<polygon fill="#000000" stroke="#000000" points="769.537,-325.931 777.154,-330.2833 773.5185,-326.3155 777.5,-326.7 777.5,-326.7 777.5,-326.7 773.5185,-326.3155 777.846,-323.1167 769.537,-325.931 769.537,-325.931"/>
<ellipse fill="none" stroke="#000000" cx="766.3519" cy="-325.6234" rx="3.2" ry="3.2"/>
</g>
<!-- normal_challenges -->
<g id="node7" class="node">
<title>normal_challenges</title>
<g id="a_node7"><a xlink:href="../../tables/normal_challenges.html" xlink:title="normal_challenges" target="_top">
<polygon fill="#ffffff" stroke="transparent" points="545,-228.7 545,-340.7 728,-340.7 728,-228.7 545,-228.7"/>
<polygon fill="#f5f5f5" stroke="transparent" points="547.5,-315.7 547.5,-338.7 726.5,-338.7 726.5,-315.7 547.5,-315.7"/>
<polygon fill="none" stroke="#000000" points="547.5,-315.7 547.5,-338.7 726.5,-338.7 726.5,-315.7 547.5,-315.7"/>
<text text-anchor="start" x="552.5" y="-324.8" font-family="Helvetica,sans-Serif" font-weight="bold" font-size="11.00" fill="#000000">normal_challenges</text>
<text text-anchor="start" x="691.5437" y="-323.8" font-family="Helvetica,sans-Serif" font-size="11.00" fill="#000000">[table]</text>
<polygon fill="none" stroke="#000000" points="547.5,-293.7 547.5,-315.7 676.5,-315.7 676.5,-293.7 547.5,-293.7"/>
<image xlink:href="../../images/primaryKeys.png" width="11px" height="12px" preserveAspectRatio="xMinYMin meet" x="552.5" y="-310.7"/>
<text text-anchor="start" x="567.5" y="-300.8" font-family="Helvetica,sans-Serif" font-size="11.00" fill="#000000">classes_id</text>
<polygon fill="none" stroke="#000000" points="676.5,-293.7 676.5,-315.7 726.5,-315.7 726.5,-293.7 676.5,-293.7"/>
<text text-anchor="start" x="679.1865" y="-301.4" font-family="Helvetica,sans-Serif" font-size="11.00" fill="#000000">bigint[19]</text>
<polygon fill="none" stroke="#000000" points="547.5,-271.7 547.5,-293.7 676.5,-293.7 676.5,-271.7 547.5,-271.7"/>
<image xlink:href="../../images/primaryKeys.png" width="11px" height="12px" preserveAspectRatio="xMinYMin meet" x="552.5" y="-288.7"/>
<text text-anchor="start" x="567.5" y="-278.8" font-family="Helvetica,sans-Serif" font-size="11.00" fill="#000000">challenges_id</text>
<polygon fill="none" stroke="#000000" points="676.5,-271.7 676.5,-293.7 726.5,-293.7 726.5,-271.7 676.5,-271.7"/>
<text text-anchor="start" x="679.1865" y="-279.4" font-family="Helvetica,sans-Serif" font-size="11.00" fill="#000000">bigint[19]</text>
<polygon fill="none" stroke="#000000" points="547.5,-249.7 547.5,-271.7 676.5,-271.7 676.5,-249.7 547.5,-249.7"/>
<text text-anchor="start" x="567.5" y="-256.8" font-family="Helvetica,sans-Serif" font-size="11.00" fill="#000000">is_active</text>
<polygon fill="none" stroke="#000000" points="676.5,-249.7 676.5,-271.7 726.5,-271.7 726.5,-249.7 676.5,-249.7"/>
<text text-anchor="start" x="679.5" y="-257.4" font-family="Helvetica,sans-Serif" font-size="11.00" fill="#000000">bit[1]</text>
<polygon fill="#ffffff" stroke="transparent" points="547.5,-230.7 547.5,-249.7 603.5,-249.7 603.5,-230.7 547.5,-230.7"/>
<polygon fill="none" stroke="#000000" points="547.5,-230.7 547.5,-249.7 603.5,-249.7 603.5,-230.7 547.5,-230.7"/>
<text text-anchor="start" x="550.5" y="-236.8" font-family="Helvetica,sans-Serif" font-size="11.00" fill="#000000">&lt; 2</text>
<polygon fill="#ffffff" stroke="transparent" points="603.5,-230.7 603.5,-249.7 676.5,-249.7 676.5,-230.7 603.5,-230.7"/>
<polygon fill="none" stroke="#000000" points="603.5,-230.7 603.5,-249.7 676.5,-249.7 676.5,-230.7 603.5,-230.7"/>
<text text-anchor="start" x="641.1105" y="-236.8" font-family="Helvetica,sans-Serif" font-size="11.00" fill="#000000">0 rows</text>
<polygon fill="#ffffff" stroke="transparent" points="676.5,-230.7 676.5,-249.7 726.5,-249.7 726.5,-230.7 676.5,-230.7"/>
<polygon fill="none" stroke="#000000" points="676.5,-230.7 676.5,-249.7 726.5,-249.7 726.5,-230.7 676.5,-230.7"/>
<text text-anchor="start" x="707.9053" y="-236.8" font-family="Helvetica,sans-Serif" font-size="11.00" fill="#000000">2 &gt;</text>
<polygon fill="none" stroke="#000000" stroke-width="2" points="546,-229.7 546,-339.7 727,-339.7 727,-229.7 546,-229.7"/>
</a>
</g>
</g>
<!-- completed_normal_challenges&#45;&gt;normal_challenges -->
<g id="edge5" class="edge">
<title>completed_normal_challenges:w&#45;&gt;normal_challenges:e</title>
<path fill="none" stroke="#000000" d="M762.776,-282.7C750.7815,-282.7 743.3229,-282.7 726.5,-282.7"/>
<polygon fill="#000000" stroke="#000000" points="769.5,-282.7001 777.5,-286.3 773.5,-282.7 777.5,-282.7 777.5,-282.7 777.5,-282.7 773.5,-282.7 777.5,-279.1 769.5,-282.7001 769.5,-282.7001"/>
<ellipse fill="none" stroke="#000000" cx="766.3" cy="-282.7001" rx="3.2" ry="3.2"/>
</g>
<!-- completed_normal_challenges&#45;&gt;normal_challenges -->
<g id="edge6" class="edge">
<title>completed_normal_challenges:w&#45;&gt;normal_challenges:e</title>
<path fill="none" stroke="#000000" d="M762.776,-304.7C750.7815,-304.7 743.3229,-304.7 726.5,-304.7"/>
<polygon fill="#000000" stroke="#000000" points="769.5,-304.7001 777.5,-308.3 773.5,-304.7 777.5,-304.7 777.5,-304.7 777.5,-304.7 773.5,-304.7 777.5,-301.1 769.5,-304.7001 769.5,-304.7001"/>
<ellipse fill="none" stroke="#000000" cx="766.3" cy="-304.7001" rx="3.2" ry="3.2"/>
</g>
<!-- normal_challenges&#45;&gt;challenges -->
<g id="edge11" class="edge">
<title>normal_challenges:w&#45;&gt;challenges:e</title>
<path fill="none" stroke="#000000" d="M533.5658,-278.4556C520.14,-268.7369 518.5965,-245.7 496.5,-245.7"/>
<polygon fill="#000000" stroke="#000000" points="539.8471,-280.3689 546.451,-286.1438 543.6736,-281.5345 547.5,-282.7 547.5,-282.7 547.5,-282.7 543.6736,-281.5345 548.549,-279.2562 539.8471,-280.3689 539.8471,-280.3689"/>
<ellipse fill="none" stroke="#000000" cx="536.786" cy="-279.4365" rx="3.2" ry="3.2"/>
</g>
<!-- normal_challenges&#45;&gt;classes -->
<g id="edge12" class="edge">
<title>normal_challenges:w&#45;&gt;classes:e</title>
<path fill="none" stroke="#000000" d="M532.7438,-305.1327C471.9618,-308.6674 440.2638,-331.6445 389,-290.7 343.0388,-253.9907 407.3218,-164.7 348.5,-164.7"/>
<polygon fill="#000000" stroke="#000000" points="539.5034,-304.9345 547.6055,-308.2985 543.5017,-304.8173 547.5,-304.7 547.5,-304.7 547.5,-304.7 543.5017,-304.8173 547.3945,-301.1015 539.5034,-304.9345 539.5034,-304.9345"/>
<ellipse fill="none" stroke="#000000" cx="536.3048" cy="-305.0284" rx="3.2" ry="3.2"/>
</g>
<!-- daily_challenges -->
<g id="node8" class="node">
<title>daily_challenges</title>
<g id="a_node8"><a xlink:href="../../tables/daily_challenges.html" xlink:title="daily_challenges" target="_top">
<polygon fill="#ffffff" stroke="transparent" points="574.5,-146.2 574.5,-207.2 698.5,-207.2 698.5,-146.2 574.5,-146.2"/>
<polygon fill="#f5f5f5" stroke="transparent" points="574.5,-183.7 574.5,-206.7 698.5,-206.7 698.5,-183.7 574.5,-183.7"/>
<polygon fill="none" stroke="#000000" points="574.5,-183.7 574.5,-206.7 698.5,-206.7 698.5,-183.7 574.5,-183.7"/>
<text text-anchor="start" x="579.3512" y="-192.8" font-family="Helvetica,sans-Serif" font-weight="bold" font-size="11.00" fill="#000000">daily_challenges</text>
<text text-anchor="start" x="664.0219" y="-191.8" font-family="Helvetica,sans-Serif" font-size="11.00" fill="#000000">[table]</text>
<polygon fill="none" stroke="#000000" points="574.5,-164.7 574.5,-183.7 698.5,-183.7 698.5,-164.7 574.5,-164.7"/>
<text text-anchor="start" x="577.5" y="-170.8" font-family="Helvetica,sans-Serif" font-size="11.00" fill="#000000">...</text>
<polygon fill="#ffffff" stroke="transparent" points="574.5,-145.7 574.5,-164.7 617.5,-164.7 617.5,-145.7 574.5,-145.7"/>
<polygon fill="none" stroke="#000000" points="574.5,-145.7 574.5,-164.7 617.5,-164.7 617.5,-145.7 574.5,-145.7"/>
<text text-anchor="start" x="577.5" y="-151.8" font-family="Helvetica,sans-Serif" font-size="11.00" fill="#000000">&lt; 2</text>
<polygon fill="#ffffff" stroke="transparent" points="617.5,-145.7 617.5,-164.7 666.5,-164.7 666.5,-145.7 617.5,-145.7"/>
<polygon fill="none" stroke="#000000" points="617.5,-145.7 617.5,-164.7 666.5,-164.7 666.5,-145.7 617.5,-145.7"/>
<text text-anchor="start" x="631.1105" y="-151.8" font-family="Helvetica,sans-Serif" font-size="11.00" fill="#000000">0 rows</text>
<polygon fill="#ffffff" stroke="transparent" points="666.5,-145.7 666.5,-164.7 698.5,-164.7 698.5,-145.7 666.5,-145.7"/>
<polygon fill="none" stroke="#000000" points="666.5,-145.7 666.5,-164.7 698.5,-164.7 698.5,-145.7 666.5,-145.7"/>
<text text-anchor="start" x="679.9053" y="-151.8" font-family="Helvetica,sans-Serif" font-size="11.00" fill="#000000">3 &gt;</text>
</a>
</g>
</g>
<!-- daily_challenges&#45;&gt;challenges -->
<g id="edge7" class="edge">
<title>daily_challenges:w&#45;&gt;challenges:e</title>
<path fill="none" stroke="#000000" d="M560.327,-176.4346C530.2828,-189.5862 538.1495,-245.7 496.5,-245.7"/>
<polygon fill="#000000" stroke="#000000" points="566.6449,-175.2156 575.182,-177.2348 570.5724,-174.4578 574.5,-173.7 574.5,-173.7 574.5,-173.7 570.5724,-174.4578 573.818,-170.1652 566.6449,-175.2156 566.6449,-175.2156"/>
<ellipse fill="none" stroke="#000000" cx="563.5028" cy="-175.8219" rx="3.2" ry="3.2"/>
</g>
<!-- daily_challenges&#45;&gt;classes -->
<g id="edge8" class="edge">
<title>daily_challenges:w&#45;&gt;classes:e</title>
<path fill="none" stroke="#000000" d="M559.9184,-171.9457C538.534,-166.2934 532.0014,-148.5845 504,-142.7 453.9814,-132.1887 438.5372,-130.114 389,-142.7 369.1465,-147.7442 368.9843,-164.7 348.5,-164.7"/>
<polygon fill="#000000" stroke="#000000" points="566.5573,-172.7444 574.07,-177.2742 570.5286,-173.2222 574.5,-173.7 574.5,-173.7 574.5,-173.7 570.5286,-173.2222 574.93,-170.1258 566.5573,-172.7444 566.5573,-172.7444"/>
<ellipse fill="none" stroke="#000000" cx="563.3802" cy="-172.3621" rx="3.2" ry="3.2"/>
</g>
<!-- gymnasts_has_classes -->
<g id="node9" class="node">
<title>gymnasts_has_classes</title>
<g id="a_node9"><a xlink:href="../../tables/gymnasts_has_classes.html" xlink:title="gymnasts_has_classes" target="_top">
<polygon fill="#ffffff" stroke="transparent" points="806.5,-38.2 806.5,-99.2 962.5,-99.2 962.5,-38.2 806.5,-38.2"/>
<polygon fill="#f5f5f5" stroke="transparent" points="806.5,-75.7 806.5,-98.7 962.5,-98.7 962.5,-75.7 806.5,-75.7"/>
<polygon fill="none" stroke="#000000" points="806.5,-75.7 806.5,-98.7 962.5,-98.7 962.5,-75.7 806.5,-75.7"/>
<text text-anchor="start" x="811.1531" y="-84.8" font-family="Helvetica,sans-Serif" font-weight="bold" font-size="11.00" fill="#000000">gymnasts_has_classes</text>
<text text-anchor="start" x="928.0219" y="-83.8" font-family="Helvetica,sans-Serif" font-size="11.00" fill="#000000">[table]</text>
<polygon fill="none" stroke="#000000" points="806.5,-56.7 806.5,-75.7 962.5,-75.7 962.5,-56.7 806.5,-56.7"/>
<text text-anchor="start" x="809.5" y="-62.8" font-family="Helvetica,sans-Serif" font-size="11.00" fill="#000000">...</text>
<polygon fill="#ffffff" stroke="transparent" points="806.5,-37.7 806.5,-56.7 869.5,-56.7 869.5,-37.7 806.5,-37.7"/>
<polygon fill="none" stroke="#000000" points="806.5,-37.7 806.5,-56.7 869.5,-56.7 869.5,-37.7 806.5,-37.7"/>
<text text-anchor="start" x="809.5" y="-43.8" font-family="Helvetica,sans-Serif" font-size="11.00" fill="#000000">&lt; 2</text>
<polygon fill="#ffffff" stroke="transparent" points="869.5,-37.7 869.5,-56.7 928.5,-56.7 928.5,-37.7 869.5,-37.7"/>
<polygon fill="none" stroke="#000000" points="869.5,-37.7 869.5,-56.7 928.5,-56.7 928.5,-37.7 869.5,-37.7"/>
<text text-anchor="start" x="893.1105" y="-43.8" font-family="Helvetica,sans-Serif" font-size="11.00" fill="#000000">0 rows</text>
<polygon fill="#ffffff" stroke="transparent" points="928.5,-37.7 928.5,-56.7 962.5,-56.7 962.5,-37.7 928.5,-37.7"/>
<polygon fill="none" stroke="#000000" points="928.5,-37.7 928.5,-56.7 962.5,-56.7 962.5,-37.7 928.5,-37.7"/>
<text text-anchor="start" x="953.3862" y="-43.8" font-family="Helvetica,sans-Serif" font-size="11.00" fill="#000000"> &#160;</text>
</a>
</g>
</g>
<!-- gymnasts_has_classes&#45;&gt;classes -->
<g id="edge9" class="edge">
<title>gymnasts_has_classes:w&#45;&gt;classes:e</title>
<path fill="none" stroke="#000000" d="M792.0532,-64.9548C771.5668,-62.6913 762.2277,-55.9162 736,-53.7 647.8696,-46.2531 622.8563,-32.4603 537,-53.7 464.822,-71.5559 451.0155,-90.6808 389,-131.7 369.6342,-144.5092 371.7188,-164.7 348.5,-164.7"/>
<polygon fill="#000000" stroke="#000000" points="798.5106,-65.2878 806.3145,-69.2952 802.5053,-65.4939 806.5,-65.7 806.5,-65.7 806.5,-65.7 802.5053,-65.4939 806.6855,-62.1048 798.5106,-65.2878 798.5106,-65.2878"/>
<ellipse fill="none" stroke="#000000" cx="795.3149" cy="-65.123" rx="3.2" ry="3.2"/>
</g>
<!-- gymnasts_has_classes&#45;&gt;gymnasts -->
<g id="edge10" class="edge">
<title>gymnasts_has_classes:w&#45;&gt;gymnasts:e</title>
<path fill="none" stroke="#000000" d="M791.9466,-66.3171C747.2609,-70.2543 733.0356,-91.7 681.5,-91.7"/>
<polygon fill="#000000" stroke="#000000" points="798.5072,-66.0389 806.6525,-69.2968 802.5036,-65.8695 806.5,-65.7 806.5,-65.7 806.5,-65.7 802.5036,-65.8695 806.3475,-62.1032 798.5072,-66.0389 798.5072,-66.0389"/>
<ellipse fill="none" stroke="#000000" cx="795.3101" cy="-66.1745" rx="3.2" ry="3.2"/>
</g>
</g>
</svg>
