<?xml version="1.0" encoding="UTF-8" standalone="no"?>
<!DOCTYPE svg PUBLIC "-//W3C//DTD SVG 1.1//EN"
 "http://www.w3.org/Graphics/SVG/1.1/DTD/svg11.dtd">
<!-- Generated by graphviz version 2.40.1 (20161225.0304)
 -->
<!-- Title: oneDegreeRelationshipsDiagram Pages: 1 -->
<svg width="425pt" height="177pt"
 viewBox="0.00 0.00 425.00 177.20" xmlns="http://www.w3.org/2000/svg" xmlns:xlink="http://www.w3.org/1999/xlink">
<g id="graph0" class="graph" transform="scale(1 1) rotate(0) translate(4 173.2)">
<title>oneDegreeRelationshipsDiagram</title>
<polygon fill="#ffffff" stroke="transparent" points="-4,4 -4,-173.2 421,-173.2 421,4 -4,4"/>
<text text-anchor="middle" x="72.4936" y="-7.3" font-family="Helvetica,sans-Serif" font-size="11.00" fill="#000000">Generated by SchemaSpy</text>
<!-- subscriptions -->
<g id="node1" class="node">
<title>subscriptions</title>
<g id="a_node1"><a xlink:href="../../tables/subscriptions.html" xlink:title="subscriptions" target="_top">
<polygon fill="#ffffff" stroke="transparent" points="257,-38.2 257,-165.2 409,-165.2 409,-38.2 257,-38.2"/>
<polygon fill="#f5f5f5" stroke="transparent" points="257,-141.7 257,-164.7 409,-164.7 409,-141.7 257,-141.7"/>
<polygon fill="none" stroke="#000000" points="257,-141.7 257,-164.7 409,-164.7 409,-141.7 257,-141.7"/>
<text text-anchor="start" x="262" y="-150.8" font-family="Helvetica,sans-Serif" font-weight="bold" font-size="11.00" fill="#000000">subscriptions</text>
<text text-anchor="start" x="374.0437" y="-149.8" font-family="Helvetica,sans-Serif" font-size="11.00" fill="#000000">[table]</text>
<polygon fill="none" stroke="#000000" points="257,-119.7 257,-141.7 409,-141.7 409,-119.7 257,-119.7"/>
<image xlink:href="../../images/primaryKeys.png" width="11px" height="12px" preserveAspectRatio="xMinYMin meet" x="262" y="-136.7"/>
<text text-anchor="start" x="277" y="-126.8" font-family="Helvetica,sans-Serif" font-size="11.00" fill="#000000">users_id</text>
<polygon fill="#ffffff" stroke="transparent" points="257,-97.7 257,-119.7 409,-119.7 409,-97.7 257,-97.7"/>
<polygon fill="none" stroke="#000000" points="257,-97.7 257,-119.7 409,-119.7 409,-97.7 257,-97.7"/>
<image xlink:href="../../images/foreignKeys.png" width="11px" height="12px" preserveAspectRatio="xMinYMin meet" x="262" y="-114.7"/>
<text text-anchor="start" x="277" y="-104.8" font-family="Helvetica,sans-Serif" font-size="11.00" fill="#000000">payment_procesors_id</text>
<polygon fill="none" stroke="#000000" points="257,-75.7 257,-97.7 409,-97.7 409,-75.7 257,-75.7"/>
<image xlink:href="../../images/primaryKeys.png" width="11px" height="12px" preserveAspectRatio="xMinYMin meet" x="262" y="-92.7"/>
<text text-anchor="start" x="277" y="-82.8" font-family="Helvetica,sans-Serif" font-size="11.00" fill="#000000">plans_id</text>
<polygon fill="none" stroke="#000000" points="257,-56.7 257,-75.7 409,-75.7 409,-56.7 257,-56.7"/>
<text text-anchor="start" x="260" y="-62.8" font-family="Helvetica,sans-Serif" font-size="11.00" fill="#000000">...</text>
<polygon fill="#ffffff" stroke="transparent" points="257,-37.7 257,-56.7 314,-56.7 314,-37.7 257,-37.7"/>
<polygon fill="none" stroke="#000000" points="257,-37.7 257,-56.7 314,-56.7 314,-37.7 257,-37.7"/>
<text text-anchor="start" x="260" y="-43.8" font-family="Helvetica,sans-Serif" font-size="11.00" fill="#000000">&lt; 3</text>
<polygon fill="#ffffff" stroke="transparent" points="314,-37.7 314,-56.7 370,-56.7 370,-37.7 314,-37.7"/>
<polygon fill="none" stroke="#000000" points="314,-37.7 314,-56.7 370,-56.7 370,-37.7 314,-37.7"/>
<text text-anchor="start" x="334.6105" y="-43.8" font-family="Helvetica,sans-Serif" font-size="11.00" fill="#000000">0 rows</text>
<polygon fill="#ffffff" stroke="transparent" points="370,-37.7 370,-56.7 409,-56.7 409,-37.7 370,-37.7"/>
<polygon fill="none" stroke="#000000" points="370,-37.7 370,-56.7 409,-56.7 409,-37.7 370,-37.7"/>
<text text-anchor="start" x="390.4053" y="-43.8" font-family="Helvetica,sans-Serif" font-size="11.00" fill="#000000">2 &gt;</text>
</a>
</g>
</g>
<!-- payment_procesors -->
<g id="node2" class="node">
<title>payment_procesors</title>
<g id="a_node2"><a xlink:href="../../tables/payment_procesors.html" xlink:title="payment_procesors" target="_top">
<polygon fill="#ffffff" stroke="transparent" points="8,-54.7 8,-144.7 208,-144.7 208,-54.7 8,-54.7"/>
<polygon fill="#f5f5f5" stroke="transparent" points="10,-119.7 10,-142.7 206,-142.7 206,-119.7 10,-119.7"/>
<polygon fill="none" stroke="#000000" points="10,-119.7 10,-142.7 206,-142.7 206,-119.7 10,-119.7"/>
<text text-anchor="start" x="15" y="-128.8" font-family="Helvetica,sans-Serif" font-weight="bold" font-size="11.00" fill="#000000">payment_procesors</text>
<text text-anchor="start" x="171.0437" y="-127.8" font-family="Helvetica,sans-Serif" font-size="11.00" fill="#000000">[table]</text>
<polygon fill="none" stroke="#000000" points="10,-97.7 10,-119.7 145,-119.7 145,-97.7 10,-97.7"/>
<image xlink:href="../../images/primaryKeys.png" width="11px" height="12px" preserveAspectRatio="xMinYMin meet" x="15" y="-114.7"/>
<text text-anchor="start" x="30" y="-104.8" font-family="Helvetica,sans-Serif" font-size="11.00" fill="#000000">id</text>
<polygon fill="none" stroke="#000000" points="145,-97.7 145,-119.7 206,-119.7 206,-97.7 145,-97.7"/>
<text text-anchor="start" x="148" y="-105.4" font-family="Helvetica,sans-Serif" font-size="11.00" fill="#000000">int[10]</text>
<polygon fill="none" stroke="#000000" points="10,-75.7 10,-97.7 145,-97.7 145,-75.7 10,-75.7"/>
<text text-anchor="start" x="30" y="-82.8" font-family="Helvetica,sans-Serif" font-size="11.00" fill="#000000">slug</text>
<polygon fill="none" stroke="#000000" points="145,-75.7 145,-97.7 206,-97.7 206,-75.7 145,-75.7"/>
<text text-anchor="start" x="147.994" y="-83.4" font-family="Helvetica,sans-Serif" font-size="11.00" fill="#000000">varchar[45]</text>
<polygon fill="#ffffff" stroke="transparent" points="10,-56.7 10,-75.7 69,-75.7 69,-56.7 10,-56.7"/>
<polygon fill="none" stroke="#000000" points="10,-56.7 10,-75.7 69,-75.7 69,-56.7 10,-56.7"/>
<text text-anchor="start" x="13" y="-62.8" font-family="Helvetica,sans-Serif" font-size="11.00" fill="#000000">&lt; 0</text>
<polygon fill="#ffffff" stroke="transparent" points="69,-56.7 69,-75.7 145,-75.7 145,-56.7 69,-56.7"/>
<polygon fill="none" stroke="#000000" points="69,-56.7 69,-75.7 145,-75.7 145,-56.7 69,-56.7"/>
<text text-anchor="start" x="109.6105" y="-62.8" font-family="Helvetica,sans-Serif" font-size="11.00" fill="#000000">0 rows</text>
<polygon fill="#ffffff" stroke="transparent" points="145,-56.7 145,-75.7 206,-75.7 206,-56.7 145,-56.7"/>
<polygon fill="none" stroke="#000000" points="145,-56.7 145,-75.7 206,-75.7 206,-56.7 145,-56.7"/>
<text text-anchor="start" x="187.4053" y="-62.8" font-family="Helvetica,sans-Serif" font-size="11.00" fill="#000000">1 &gt;</text>
<polygon fill="none" stroke="#000000" stroke-width="2" points="9,-55.7 9,-143.7 207,-143.7 207,-55.7 9,-55.7"/>
</a>
</g>
</g>
<!-- subscriptions&#45;&gt;payment_procesors -->
<g id="edge1" class="edge">
<title>subscriptions:w&#45;&gt;payment_procesors:e</title>
<path fill="none" stroke="#000000" d="M242.276,-108.7C230.2815,-108.7 222.8229,-108.7 206,-108.7"/>
<polygon fill="#000000" stroke="#000000" points="249,-108.7001 257,-112.3 253,-108.7 257,-108.7 257,-108.7 257,-108.7 253,-108.7 257,-105.1 249,-108.7001 249,-108.7001"/>
<ellipse fill="none" stroke="#000000" cx="245.8" cy="-108.7001" rx="3.2" ry="3.2"/>
</g>
</g>
</svg>
