<?xml version="1.0" encoding="UTF-8" standalone="no"?>
<!DOCTYPE svg PUBLIC "-//W3C//DTD SVG 1.1//EN"
 "http://www.w3.org/Graphics/SVG/1.1/DTD/svg11.dtd">
<!-- Generated by graphviz version 2.40.1 (20161225.0304)
 -->
<!-- Title: twoDegreesRelationshipsDiagram Pages: 1 -->
<svg width="638pt" height="341pt"
 viewBox="0.00 0.00 638.00 340.70" xmlns="http://www.w3.org/2000/svg" xmlns:xlink="http://www.w3.org/1999/xlink">
<g id="graph0" class="graph" transform="scale(1 1) rotate(0) translate(4 336.7)">
<title>twoDegreesRelationshipsDiagram</title>
<polygon fill="#ffffff" stroke="transparent" points="-4,4 -4,-336.7 634,-336.7 634,4 -4,4"/>
<text text-anchor="middle" x="72.4936" y="-7.3" font-family="Helvetica,sans-Serif" font-size="11.00" fill="#000000">Generated by SchemaSpy</text>
<!-- payments -->
<g id="node1" class="node">
<title>payments</title>
<g id="a_node1"><a xlink:href="../../tables/payments.html" xlink:title="payments" target="_top">
<polygon fill="#ffffff" stroke="transparent" points="397,-38.2 397,-282.2 622,-282.2 622,-38.2 397,-38.2"/>
<polygon fill="#f5f5f5" stroke="transparent" points="399.5,-257.2 399.5,-280.2 620.5,-280.2 620.5,-257.2 399.5,-257.2"/>
<polygon fill="none" stroke="#000000" points="399.5,-257.2 399.5,-280.2 620.5,-280.2 620.5,-257.2 399.5,-257.2"/>
<text text-anchor="start" x="404.5" y="-266.3" font-family="Helvetica,sans-Serif" font-weight="bold" font-size="11.00" fill="#000000">payments</text>
<text text-anchor="start" x="585.5437" y="-265.3" font-family="Helvetica,sans-Serif" font-size="11.00" fill="#000000">[table]</text>
<polygon fill="none" stroke="#000000" points="399.5,-235.2 399.5,-257.2 554.5,-257.2 554.5,-235.2 399.5,-235.2"/>
<image xlink:href="../../images/primaryKeys.png" width="11px" height="12px" preserveAspectRatio="xMinYMin meet" x="404.5" y="-252.2"/>
<text text-anchor="start" x="419.5" y="-242.3" font-family="Helvetica,sans-Serif" font-size="11.00" fill="#000000">id</text>
<polygon fill="none" stroke="#000000" points="554.5,-235.2 554.5,-257.2 620.5,-257.2 620.5,-235.2 554.5,-235.2"/>
<text text-anchor="start" x="557.5" y="-242.9" font-family="Helvetica,sans-Serif" font-size="11.00" fill="#000000">int[10]</text>
<polygon fill="#ffffff" stroke="transparent" points="399.5,-213.2 399.5,-235.2 554.5,-235.2 554.5,-213.2 399.5,-213.2"/>
<polygon fill="none" stroke="#000000" points="399.5,-213.2 399.5,-235.2 554.5,-235.2 554.5,-213.2 399.5,-213.2"/>
<image xlink:href="../../images/foreignKeys.png" width="11px" height="12px" preserveAspectRatio="xMinYMin meet" x="404.5" y="-230.2"/>
<text text-anchor="start" x="419.5" y="-220.3" font-family="Helvetica,sans-Serif" font-size="11.00" fill="#000000">subscriptions_users_id</text>
<polygon fill="none" stroke="#000000" points="554.5,-213.2 554.5,-235.2 620.5,-235.2 620.5,-213.2 554.5,-213.2"/>
<text text-anchor="start" x="557.5" y="-220.9" font-family="Helvetica,sans-Serif" font-size="11.00" fill="#000000">int[10]</text>
<polygon fill="#ffffff" stroke="transparent" points="399.5,-191.2 399.5,-213.2 554.5,-213.2 554.5,-191.2 399.5,-191.2"/>
<polygon fill="none" stroke="#000000" points="399.5,-191.2 399.5,-213.2 554.5,-213.2 554.5,-191.2 399.5,-191.2"/>
<image xlink:href="../../images/foreignKeys.png" width="11px" height="12px" preserveAspectRatio="xMinYMin meet" x="404.5" y="-208.2"/>
<text text-anchor="start" x="419.5" y="-198.3" font-family="Helvetica,sans-Serif" font-size="11.00" fill="#000000">subscriptions_plans_id</text>
<polygon fill="none" stroke="#000000" points="554.5,-191.2 554.5,-213.2 620.5,-213.2 620.5,-191.2 554.5,-191.2"/>
<text text-anchor="start" x="557.5" y="-198.9" font-family="Helvetica,sans-Serif" font-size="11.00" fill="#000000">int[10]</text>
<polygon fill="none" stroke="#000000" points="399.5,-169.2 399.5,-191.2 554.5,-191.2 554.5,-169.2 399.5,-169.2"/>
<text text-anchor="start" x="419.5" y="-176.3" font-family="Helvetica,sans-Serif" font-size="11.00" fill="#000000">attemted_at</text>
<polygon fill="none" stroke="#000000" points="554.5,-169.2 554.5,-191.2 620.5,-191.2 620.5,-169.2 554.5,-169.2"/>
<text text-anchor="start" x="557.5" y="-176.9" font-family="Helvetica,sans-Serif" font-size="11.00" fill="#000000">date[10]</text>
<polygon fill="none" stroke="#000000" points="399.5,-147.2 399.5,-169.2 554.5,-169.2 554.5,-147.2 399.5,-147.2"/>
<text text-anchor="start" x="419.5" y="-154.3" font-family="Helvetica,sans-Serif" font-size="11.00" fill="#000000">amount</text>
<polygon fill="none" stroke="#000000" points="554.5,-147.2 554.5,-169.2 620.5,-169.2 620.5,-147.2 554.5,-147.2"/>
<text text-anchor="start" x="557.5" y="-154.9" font-family="Helvetica,sans-Serif" font-size="11.00" fill="#000000">float[12]</text>
<polygon fill="none" stroke="#000000" points="399.5,-125.2 399.5,-147.2 554.5,-147.2 554.5,-125.2 399.5,-125.2"/>
<text text-anchor="start" x="419.5" y="-132.3" font-family="Helvetica,sans-Serif" font-size="11.00" fill="#000000">fee</text>
<polygon fill="none" stroke="#000000" points="554.5,-125.2 554.5,-147.2 620.5,-147.2 620.5,-125.2 554.5,-125.2"/>
<text text-anchor="start" x="557.5" y="-132.9" font-family="Helvetica,sans-Serif" font-size="11.00" fill="#000000">float[12]</text>
<polygon fill="none" stroke="#000000" points="399.5,-103.2 399.5,-125.2 554.5,-125.2 554.5,-103.2 399.5,-103.2"/>
<text text-anchor="start" x="419.5" y="-110.3" font-family="Helvetica,sans-Serif" font-size="11.00" fill="#000000">created_at</text>
<polygon fill="none" stroke="#000000" points="554.5,-103.2 554.5,-125.2 620.5,-125.2 620.5,-103.2 554.5,-103.2"/>
<text text-anchor="start" x="557.2401" y="-110.9" font-family="Helvetica,sans-Serif" font-size="11.00" fill="#000000">datetime[19]</text>
<polygon fill="none" stroke="#000000" points="399.5,-81.2 399.5,-103.2 554.5,-103.2 554.5,-81.2 399.5,-81.2"/>
<text text-anchor="start" x="419.5" y="-88.3" font-family="Helvetica,sans-Serif" font-size="11.00" fill="#000000">period_start</text>
<polygon fill="none" stroke="#000000" points="554.5,-81.2 554.5,-103.2 620.5,-103.2 620.5,-81.2 554.5,-81.2"/>
<text text-anchor="start" x="557.2401" y="-88.9" font-family="Helvetica,sans-Serif" font-size="11.00" fill="#000000">datetime[19]</text>
<polygon fill="none" stroke="#000000" points="399.5,-59.2 399.5,-81.2 554.5,-81.2 554.5,-59.2 399.5,-59.2"/>
<text text-anchor="start" x="419.5" y="-66.3" font-family="Helvetica,sans-Serif" font-size="11.00" fill="#000000">period_end</text>
<polygon fill="none" stroke="#000000" points="554.5,-59.2 554.5,-81.2 620.5,-81.2 620.5,-59.2 554.5,-59.2"/>
<text text-anchor="start" x="557.2401" y="-66.9" font-family="Helvetica,sans-Serif" font-size="11.00" fill="#000000">datetime[19]</text>
<polygon fill="#ffffff" stroke="transparent" points="399.5,-40.2 399.5,-59.2 468.5,-59.2 468.5,-40.2 399.5,-40.2"/>
<polygon fill="none" stroke="#000000" points="399.5,-40.2 399.5,-59.2 468.5,-59.2 468.5,-40.2 399.5,-40.2"/>
<text text-anchor="start" x="402.5" y="-46.3" font-family="Helvetica,sans-Serif" font-size="11.00" fill="#000000">&lt; 2</text>
<polygon fill="#ffffff" stroke="transparent" points="468.5,-40.2 468.5,-59.2 554.5,-59.2 554.5,-40.2 468.5,-40.2"/>
<polygon fill="none" stroke="#000000" points="468.5,-40.2 468.5,-59.2 554.5,-59.2 554.5,-40.2 468.5,-40.2"/>
<text text-anchor="start" x="519.1105" y="-46.3" font-family="Helvetica,sans-Serif" font-size="11.00" fill="#000000">0 rows</text>
<polygon fill="#ffffff" stroke="transparent" points="554.5,-40.2 554.5,-59.2 620.5,-59.2 620.5,-40.2 554.5,-40.2"/>
<polygon fill="none" stroke="#000000" points="554.5,-40.2 554.5,-59.2 620.5,-59.2 620.5,-40.2 554.5,-40.2"/>
<text text-anchor="start" x="601.9053" y="-46.3" font-family="Helvetica,sans-Serif" font-size="11.00" fill="#000000">0 &gt;</text>
<polygon fill="none" stroke="#000000" stroke-width="2" points="398,-39.2 398,-281.2 621,-281.2 621,-39.2 398,-39.2"/>
</a>
</g>
</g>
<!-- subscriptions -->
<g id="node2" class="node">
<title>subscriptions</title>
<g id="a_node2"><a xlink:href="../../tables/subscriptions.html" xlink:title="subscriptions" target="_top">
<polygon fill="#ffffff" stroke="transparent" points="196,-142.7 196,-269.7 348,-269.7 348,-142.7 196,-142.7"/>
<polygon fill="#f5f5f5" stroke="transparent" points="196,-246.2 196,-269.2 348,-269.2 348,-246.2 196,-246.2"/>
<polygon fill="none" stroke="#000000" points="196,-246.2 196,-269.2 348,-269.2 348,-246.2 196,-246.2"/>
<text text-anchor="start" x="201" y="-255.3" font-family="Helvetica,sans-Serif" font-weight="bold" font-size="11.00" fill="#000000">subscriptions</text>
<text text-anchor="start" x="313.0437" y="-254.3" font-family="Helvetica,sans-Serif" font-size="11.00" fill="#000000">[table]</text>
<polygon fill="none" stroke="#000000" points="196,-224.2 196,-246.2 348,-246.2 348,-224.2 196,-224.2"/>
<image xlink:href="../../images/primaryKeys.png" width="11px" height="12px" preserveAspectRatio="xMinYMin meet" x="201" y="-241.2"/>
<text text-anchor="start" x="216" y="-231.3" font-family="Helvetica,sans-Serif" font-size="11.00" fill="#000000">users_id</text>
<polygon fill="#ffffff" stroke="transparent" points="196,-202.2 196,-224.2 348,-224.2 348,-202.2 196,-202.2"/>
<polygon fill="none" stroke="#000000" points="196,-202.2 196,-224.2 348,-224.2 348,-202.2 196,-202.2"/>
<image xlink:href="../../images/foreignKeys.png" width="11px" height="12px" preserveAspectRatio="xMinYMin meet" x="201" y="-219.2"/>
<text text-anchor="start" x="216" y="-209.3" font-family="Helvetica,sans-Serif" font-size="11.00" fill="#000000">payment_procesors_id</text>
<polygon fill="none" stroke="#000000" points="196,-180.2 196,-202.2 348,-202.2 348,-180.2 196,-180.2"/>
<image xlink:href="../../images/primaryKeys.png" width="11px" height="12px" preserveAspectRatio="xMinYMin meet" x="201" y="-197.2"/>
<text text-anchor="start" x="216" y="-187.3" font-family="Helvetica,sans-Serif" font-size="11.00" fill="#000000">plans_id</text>
<polygon fill="none" stroke="#000000" points="196,-161.2 196,-180.2 348,-180.2 348,-161.2 196,-161.2"/>
<text text-anchor="start" x="199" y="-167.3" font-family="Helvetica,sans-Serif" font-size="11.00" fill="#000000">...</text>
<polygon fill="#ffffff" stroke="transparent" points="196,-142.2 196,-161.2 253,-161.2 253,-142.2 196,-142.2"/>
<polygon fill="none" stroke="#000000" points="196,-142.2 196,-161.2 253,-161.2 253,-142.2 196,-142.2"/>
<text text-anchor="start" x="199" y="-148.3" font-family="Helvetica,sans-Serif" font-size="11.00" fill="#000000">&lt; 3</text>
<polygon fill="#ffffff" stroke="transparent" points="253,-142.2 253,-161.2 309,-161.2 309,-142.2 253,-142.2"/>
<polygon fill="none" stroke="#000000" points="253,-142.2 253,-161.2 309,-161.2 309,-142.2 253,-142.2"/>
<text text-anchor="start" x="273.6105" y="-148.3" font-family="Helvetica,sans-Serif" font-size="11.00" fill="#000000">0 rows</text>
<polygon fill="#ffffff" stroke="transparent" points="309,-142.2 309,-161.2 348,-161.2 348,-142.2 309,-142.2"/>
<polygon fill="none" stroke="#000000" points="309,-142.2 309,-161.2 348,-161.2 348,-142.2 309,-142.2"/>
<text text-anchor="start" x="329.4053" y="-148.3" font-family="Helvetica,sans-Serif" font-size="11.00" fill="#000000">2 &gt;</text>
</a>
</g>
</g>
<!-- payments&#45;&gt;subscriptions -->
<g id="edge1" class="edge">
<title>payments:w&#45;&gt;subscriptions:e</title>
<path fill="none" stroke="#000000" d="M384.8704,-200.4813C372.5803,-197.3875 365.5539,-191.2 348,-191.2"/>
<polygon fill="#000000" stroke="#000000" points="391.5546,-201.2665 399.0799,-205.7754 395.5273,-201.7332 399.5,-202.2 399.5,-202.2 399.5,-202.2 395.5273,-201.7332 399.9201,-198.6246 391.5546,-201.2665 391.5546,-201.2665"/>
<ellipse fill="none" stroke="#000000" cx="388.3765" cy="-200.8931" rx="3.2" ry="3.2"/>
</g>
<!-- payments&#45;&gt;subscriptions -->
<g id="edge2" class="edge">
<title>payments:w&#45;&gt;subscriptions:e</title>
<path fill="none" stroke="#000000" d="M384.8704,-225.9188C372.5803,-229.0125 365.5539,-235.2 348,-235.2"/>
<polygon fill="#000000" stroke="#000000" points="391.5546,-225.1335 399.9201,-227.7754 395.5273,-224.6668 399.5,-224.2 399.5,-224.2 399.5,-224.2 395.5273,-224.6668 399.0799,-220.6246 391.5546,-225.1335 391.5546,-225.1335"/>
<ellipse fill="none" stroke="#000000" cx="388.3765" cy="-225.5069" rx="3.2" ry="3.2"/>
</g>
<!-- payment_procesors -->
<g id="node3" class="node">
<title>payment_procesors</title>
<g id="a_node3"><a xlink:href="../../tables/payment_procesors.html" xlink:title="payment_procesors" target="_top">
<polygon fill="#ffffff" stroke="transparent" points="8,-185.7 8,-246.7 147,-246.7 147,-185.7 8,-185.7"/>
<polygon fill="#f5f5f5" stroke="transparent" points="8.5,-223.2 8.5,-246.2 147.5,-246.2 147.5,-223.2 8.5,-223.2"/>
<polygon fill="none" stroke="#000000" points="8.5,-223.2 8.5,-246.2 147.5,-246.2 147.5,-223.2 8.5,-223.2"/>
<text text-anchor="start" x="13.2117" y="-232.3" font-family="Helvetica,sans-Serif" font-weight="bold" font-size="11.00" fill="#000000">payment_procesors</text>
<text text-anchor="start" x="113.0219" y="-231.3" font-family="Helvetica,sans-Serif" font-size="11.00" fill="#000000">[table]</text>
<polygon fill="none" stroke="#000000" points="8.5,-204.2 8.5,-223.2 147.5,-223.2 147.5,-204.2 8.5,-204.2"/>
<text text-anchor="start" x="11.5" y="-210.3" font-family="Helvetica,sans-Serif" font-size="11.00" fill="#000000">...</text>
<polygon fill="#ffffff" stroke="transparent" points="8.5,-185.2 8.5,-204.2 54.5,-204.2 54.5,-185.2 8.5,-185.2"/>
<polygon fill="none" stroke="#000000" points="8.5,-185.2 8.5,-204.2 54.5,-204.2 54.5,-185.2 8.5,-185.2"/>
<text text-anchor="start" x="11.5" y="-191.3" font-family="Helvetica,sans-Serif" font-size="11.00" fill="#000000"> &#160;</text>
<polygon fill="#ffffff" stroke="transparent" points="54.5,-185.2 54.5,-204.2 109.5,-204.2 109.5,-185.2 54.5,-185.2"/>
<polygon fill="none" stroke="#000000" points="54.5,-185.2 54.5,-204.2 109.5,-204.2 109.5,-185.2 54.5,-185.2"/>
<text text-anchor="start" x="74.1105" y="-191.3" font-family="Helvetica,sans-Serif" font-size="11.00" fill="#000000">0 rows</text>
<polygon fill="#ffffff" stroke="transparent" points="109.5,-185.2 109.5,-204.2 147.5,-204.2 147.5,-185.2 109.5,-185.2"/>
<polygon fill="none" stroke="#000000" points="109.5,-185.2 109.5,-204.2 147.5,-204.2 147.5,-185.2 109.5,-185.2"/>
<text text-anchor="start" x="128.9053" y="-191.3" font-family="Helvetica,sans-Serif" font-size="11.00" fill="#000000">1 &gt;</text>
</a>
</g>
</g>
<!-- subscriptions&#45;&gt;payment_procesors -->
<g id="edge3" class="edge">
<title>subscriptions:w&#45;&gt;payment_procesors:e</title>
<path fill="none" stroke="#000000" d="M181.2829,-213.2C170.2886,-213.2 163.1615,-213.2 147.5,-213.2"/>
<polygon fill="#000000" stroke="#000000" points="188,-213.2001 196,-216.8 192,-213.2 196,-213.2 196,-213.2 196,-213.2 192,-213.2 196,-209.6 188,-213.2001 188,-213.2001"/>
<ellipse fill="none" stroke="#000000" cx="184.8" cy="-213.2001" rx="3.2" ry="3.2"/>
</g>
<!-- plans -->
<g id="node4" class="node">
<title>plans</title>
<g id="a_node4"><a xlink:href="../../tables/plans.html" xlink:title="plans" target="_top">
<polygon fill="#ffffff" stroke="transparent" points="42,-103.7 42,-164.7 113,-164.7 113,-103.7 42,-103.7"/>
<polygon fill="#f5f5f5" stroke="transparent" points="42.5,-141.2 42.5,-164.2 113.5,-164.2 113.5,-141.2 42.5,-141.2"/>
<polygon fill="none" stroke="#000000" points="42.5,-141.2 42.5,-164.2 113.5,-164.2 113.5,-141.2 42.5,-141.2"/>
<text text-anchor="start" x="47.5" y="-150.3" font-family="Helvetica,sans-Serif" font-weight="bold" font-size="11.00" fill="#000000">plans</text>
<text text-anchor="start" x="78.5437" y="-149.3" font-family="Helvetica,sans-Serif" font-size="11.00" fill="#000000">[table]</text>
<polygon fill="none" stroke="#000000" points="42.5,-122.2 42.5,-141.2 113.5,-141.2 113.5,-122.2 42.5,-122.2"/>
<text text-anchor="start" x="45.5" y="-128.3" font-family="Helvetica,sans-Serif" font-size="11.00" fill="#000000">...</text>
<polygon fill="#ffffff" stroke="transparent" points="42.5,-103.2 42.5,-122.2 54.5,-122.2 54.5,-103.2 42.5,-103.2"/>
<polygon fill="none" stroke="#000000" points="42.5,-103.2 42.5,-122.2 54.5,-122.2 54.5,-103.2 42.5,-103.2"/>
<text text-anchor="start" x="45.4431" y="-109.3" font-family="Helvetica,sans-Serif" font-size="11.00" fill="#000000"> &#160;</text>
<polygon fill="#ffffff" stroke="transparent" points="54.5,-103.2 54.5,-122.2 92.5,-122.2 92.5,-103.2 54.5,-103.2"/>
<polygon fill="none" stroke="#000000" points="54.5,-103.2 54.5,-122.2 92.5,-122.2 92.5,-103.2 54.5,-103.2"/>
<text text-anchor="start" x="57.3053" y="-109.3" font-family="Helvetica,sans-Serif" font-size="11.00" fill="#000000">0 rows</text>
<polygon fill="#ffffff" stroke="transparent" points="92.5,-103.2 92.5,-122.2 113.5,-122.2 113.5,-103.2 92.5,-103.2"/>
<polygon fill="none" stroke="#000000" points="92.5,-103.2 92.5,-122.2 113.5,-122.2 113.5,-103.2 92.5,-103.2"/>
<text text-anchor="start" x="95.2027" y="-109.3" font-family="Helvetica,sans-Serif" font-size="11.00" fill="#000000">1 &gt;</text>
</a>
</g>
</g>
<!-- subscriptions&#45;&gt;plans -->
<g id="edge4" class="edge">
<title>subscriptions:w&#45;&gt;plans:e</title>
<path fill="none" stroke="#000000" d="M181.6936,-188.7736C151.8573,-177.5486 153.3481,-131.2 113.5,-131.2"/>
<polygon fill="#000000" stroke="#000000" points="188.1126,-189.8622 195.398,-194.7493 192.0563,-190.5311 196,-191.2 196,-191.2 196,-191.2 192.0563,-190.5311 196.602,-187.6507 188.1126,-189.8622 188.1126,-189.8622"/>
<ellipse fill="none" stroke="#000000" cx="184.9577" cy="-189.3271" rx="3.2" ry="3.2"/>
</g>
<!-- users -->
<g id="node5" class="node">
<title>users</title>
<g id="a_node5"><a xlink:href="../../tables/users.html" xlink:title="users" target="_top">
<polygon fill="#ffffff" stroke="transparent" points="42,-267.7 42,-328.7 113,-328.7 113,-267.7 42,-267.7"/>
<polygon fill="#f5f5f5" stroke="transparent" points="42.5,-305.2 42.5,-328.2 113.5,-328.2 113.5,-305.2 42.5,-305.2"/>
<polygon fill="none" stroke="#000000" points="42.5,-305.2 42.5,-328.2 113.5,-328.2 113.5,-305.2 42.5,-305.2"/>
<text text-anchor="start" x="47.5" y="-314.3" font-family="Helvetica,sans-Serif" font-weight="bold" font-size="11.00" fill="#000000">users</text>
<text text-anchor="start" x="78.5437" y="-313.3" font-family="Helvetica,sans-Serif" font-size="11.00" fill="#000000">[table]</text>
<polygon fill="none" stroke="#000000" points="42.5,-286.2 42.5,-305.2 113.5,-305.2 113.5,-286.2 42.5,-286.2"/>
<text text-anchor="start" x="45.5" y="-292.3" font-family="Helvetica,sans-Serif" font-size="11.00" fill="#000000">...</text>
<polygon fill="#ffffff" stroke="transparent" points="42.5,-267.2 42.5,-286.2 54.5,-286.2 54.5,-267.2 42.5,-267.2"/>
<polygon fill="none" stroke="#000000" points="42.5,-267.2 42.5,-286.2 54.5,-286.2 54.5,-267.2 42.5,-267.2"/>
<text text-anchor="start" x="45.4431" y="-273.3" font-family="Helvetica,sans-Serif" font-size="11.00" fill="#000000"> &#160;</text>
<polygon fill="#ffffff" stroke="transparent" points="54.5,-267.2 54.5,-286.2 92.5,-286.2 92.5,-267.2 54.5,-267.2"/>
<polygon fill="none" stroke="#000000" points="54.5,-267.2 54.5,-286.2 92.5,-286.2 92.5,-267.2 54.5,-267.2"/>
<text text-anchor="start" x="57.3053" y="-273.3" font-family="Helvetica,sans-Serif" font-size="11.00" fill="#000000">0 rows</text>
<polygon fill="#ffffff" stroke="transparent" points="92.5,-267.2 92.5,-286.2 113.5,-286.2 113.5,-267.2 92.5,-267.2"/>
<polygon fill="none" stroke="#000000" points="92.5,-267.2 92.5,-286.2 113.5,-286.2 113.5,-267.2 92.5,-267.2"/>
<text text-anchor="start" x="95.2027" y="-273.3" font-family="Helvetica,sans-Serif" font-size="11.00" fill="#000000">2 &gt;</text>
</a>
</g>
</g>
<!-- subscriptions&#45;&gt;users -->
<g id="edge5" class="edge">
<title>subscriptions:w&#45;&gt;users:e</title>
<path fill="none" stroke="#000000" d="M181.6936,-237.6264C151.8573,-248.8514 153.3481,-295.2 113.5,-295.2"/>
<polygon fill="#000000" stroke="#000000" points="188.1126,-236.5378 196.602,-238.7493 192.0563,-235.8689 196,-235.2 196,-235.2 196,-235.2 192.0563,-235.8689 195.398,-231.6507 188.1126,-236.5378 188.1126,-236.5378"/>
<ellipse fill="none" stroke="#000000" cx="184.9577" cy="-237.0729" rx="3.2" ry="3.2"/>
</g>
</g>
</svg>
