<?xml version="1.0" encoding="UTF-8" standalone="no"?>
<!DOCTYPE svg PUBLIC "-//W3C//DTD SVG 1.1//EN"
 "http://www.w3.org/Graphics/SVG/1.1/DTD/svg11.dtd">
<!-- Generated by graphviz version 2.40.1 (20161225.0304)
 -->
<!-- Title: twoDegreesRelationshipsDiagram Pages: 1 -->
<svg width="564pt" height="305pt"
 viewBox="0.00 0.00 564.00 305.20" xmlns="http://www.w3.org/2000/svg" xmlns:xlink="http://www.w3.org/1999/xlink">
<g id="graph0" class="graph" transform="scale(1 1) rotate(0) translate(4 301.2)">
<title>twoDegreesRelationshipsDiagram</title>
<polygon fill="#ffffff" stroke="transparent" points="-4,4 -4,-301.2 560,-301.2 560,4 -4,4"/>
<text text-anchor="middle" x="72.4936" y="-7.3" font-family="Helvetica,sans-Serif" font-size="11.00" fill="#000000">Generated by SchemaSpy</text>
<!-- payments -->
<g id="node1" class="node">
<title>payments</title>
<g id="a_node1"><a xlink:href="../../tables/payments.html" xlink:title="payments" target="_top">
<polygon fill="#ffffff" stroke="transparent" points="458,-147.2 458,-208.2 548,-208.2 548,-147.2 458,-147.2"/>
<polygon fill="#f5f5f5" stroke="transparent" points="458,-184.7 458,-207.7 548,-207.7 548,-184.7 458,-184.7"/>
<polygon fill="none" stroke="#000000" points="458,-184.7 458,-207.7 548,-207.7 548,-184.7 458,-184.7"/>
<text text-anchor="start" x="462.6608" y="-193.8" font-family="Helvetica,sans-Serif" font-weight="bold" font-size="11.00" fill="#000000">payments</text>
<text text-anchor="start" x="513.5219" y="-192.8" font-family="Helvetica,sans-Serif" font-size="11.00" fill="#000000">[table]</text>
<polygon fill="none" stroke="#000000" points="458,-165.7 458,-184.7 548,-184.7 548,-165.7 458,-165.7"/>
<text text-anchor="start" x="461" y="-171.8" font-family="Helvetica,sans-Serif" font-size="11.00" fill="#000000">...</text>
<polygon fill="#ffffff" stroke="transparent" points="458,-146.7 458,-165.7 488,-165.7 488,-146.7 458,-146.7"/>
<polygon fill="none" stroke="#000000" points="458,-146.7 458,-165.7 488,-165.7 488,-146.7 458,-146.7"/>
<text text-anchor="start" x="461" y="-152.8" font-family="Helvetica,sans-Serif" font-size="11.00" fill="#000000">&lt; 2</text>
<polygon fill="#ffffff" stroke="transparent" points="488,-146.7 488,-165.7 531,-165.7 531,-146.7 488,-146.7"/>
<polygon fill="none" stroke="#000000" points="488,-146.7 488,-165.7 531,-165.7 531,-146.7 488,-146.7"/>
<text text-anchor="start" x="495.6105" y="-152.8" font-family="Helvetica,sans-Serif" font-size="11.00" fill="#000000">0 rows</text>
<polygon fill="#ffffff" stroke="transparent" points="531,-146.7 531,-165.7 548,-165.7 548,-146.7 531,-146.7"/>
<polygon fill="none" stroke="#000000" points="531,-146.7 531,-165.7 548,-165.7 548,-146.7 531,-146.7"/>
<text text-anchor="start" x="538.8862" y="-152.8" font-family="Helvetica,sans-Serif" font-size="11.00" fill="#000000"> &#160;</text>
</a>
</g>
</g>
<!-- subscriptions -->
<g id="node2" class="node">
<title>subscriptions</title>
<g id="a_node2"><a xlink:href="../../tables/subscriptions.html" xlink:title="subscriptions" target="_top">
<polygon fill="#ffffff" stroke="transparent" points="257,-104.2 257,-231.2 409,-231.2 409,-104.2 257,-104.2"/>
<polygon fill="#f5f5f5" stroke="transparent" points="257,-207.7 257,-230.7 409,-230.7 409,-207.7 257,-207.7"/>
<polygon fill="none" stroke="#000000" points="257,-207.7 257,-230.7 409,-230.7 409,-207.7 257,-207.7"/>
<text text-anchor="start" x="262" y="-216.8" font-family="Helvetica,sans-Serif" font-weight="bold" font-size="11.00" fill="#000000">subscriptions</text>
<text text-anchor="start" x="374.0437" y="-215.8" font-family="Helvetica,sans-Serif" font-size="11.00" fill="#000000">[table]</text>
<polygon fill="none" stroke="#000000" points="257,-185.7 257,-207.7 409,-207.7 409,-185.7 257,-185.7"/>
<image xlink:href="../../images/primaryKeys.png" width="11px" height="12px" preserveAspectRatio="xMinYMin meet" x="262" y="-202.7"/>
<text text-anchor="start" x="277" y="-192.8" font-family="Helvetica,sans-Serif" font-size="11.00" fill="#000000">users_id</text>
<polygon fill="#ffffff" stroke="transparent" points="257,-163.7 257,-185.7 409,-185.7 409,-163.7 257,-163.7"/>
<polygon fill="none" stroke="#000000" points="257,-163.7 257,-185.7 409,-185.7 409,-163.7 257,-163.7"/>
<image xlink:href="../../images/foreignKeys.png" width="11px" height="12px" preserveAspectRatio="xMinYMin meet" x="262" y="-180.7"/>
<text text-anchor="start" x="277" y="-170.8" font-family="Helvetica,sans-Serif" font-size="11.00" fill="#000000">payment_procesors_id</text>
<polygon fill="none" stroke="#000000" points="257,-141.7 257,-163.7 409,-163.7 409,-141.7 257,-141.7"/>
<image xlink:href="../../images/primaryKeys.png" width="11px" height="12px" preserveAspectRatio="xMinYMin meet" x="262" y="-158.7"/>
<text text-anchor="start" x="277" y="-148.8" font-family="Helvetica,sans-Serif" font-size="11.00" fill="#000000">plans_id</text>
<polygon fill="none" stroke="#000000" points="257,-122.7 257,-141.7 409,-141.7 409,-122.7 257,-122.7"/>
<text text-anchor="start" x="260" y="-128.8" font-family="Helvetica,sans-Serif" font-size="11.00" fill="#000000">...</text>
<polygon fill="#ffffff" stroke="transparent" points="257,-103.7 257,-122.7 314,-122.7 314,-103.7 257,-103.7"/>
<polygon fill="none" stroke="#000000" points="257,-103.7 257,-122.7 314,-122.7 314,-103.7 257,-103.7"/>
<text text-anchor="start" x="260" y="-109.8" font-family="Helvetica,sans-Serif" font-size="11.00" fill="#000000">&lt; 3</text>
<polygon fill="#ffffff" stroke="transparent" points="314,-103.7 314,-122.7 370,-122.7 370,-103.7 314,-103.7"/>
<polygon fill="none" stroke="#000000" points="314,-103.7 314,-122.7 370,-122.7 370,-103.7 314,-103.7"/>
<text text-anchor="start" x="334.6105" y="-109.8" font-family="Helvetica,sans-Serif" font-size="11.00" fill="#000000">0 rows</text>
<polygon fill="#ffffff" stroke="transparent" points="370,-103.7 370,-122.7 409,-122.7 409,-103.7 370,-103.7"/>
<polygon fill="none" stroke="#000000" points="370,-103.7 370,-122.7 409,-122.7 409,-103.7 370,-103.7"/>
<text text-anchor="start" x="390.4053" y="-109.8" font-family="Helvetica,sans-Serif" font-size="11.00" fill="#000000">2 &gt;</text>
</a>
</g>
</g>
<!-- payments&#45;&gt;subscriptions -->
<g id="edge1" class="edge">
<title>payments:w&#45;&gt;subscriptions:e</title>
<path fill="none" stroke="#000000" d="M443.6297,-171.2625C432.0865,-165.075 426.9041,-152.7 409,-152.7"/>
<polygon fill="#000000" stroke="#000000" points="450.2195,-172.8388 457.1625,-178.2012 454.1098,-173.7694 458,-174.7 458,-174.7 458,-174.7 454.1098,-173.7694 458.8375,-171.1988 450.2195,-172.8388 450.2195,-172.8388"/>
<ellipse fill="none" stroke="#000000" cx="447.1073" cy="-172.0943" rx="3.2" ry="3.2"/>
</g>
<!-- payments&#45;&gt;subscriptions -->
<g id="edge2" class="edge">
<title>payments:w&#45;&gt;subscriptions:e</title>
<path fill="none" stroke="#000000" d="M443.6297,-178.1375C432.0865,-184.325 426.9041,-196.7 409,-196.7"/>
<polygon fill="#000000" stroke="#000000" points="450.2195,-176.5612 458.8375,-178.2012 454.1098,-175.6306 458,-174.7 458,-174.7 458,-174.7 454.1098,-175.6306 457.1625,-171.1988 450.2195,-176.5612 450.2195,-176.5612"/>
<ellipse fill="none" stroke="#000000" cx="447.1073" cy="-177.3057" rx="3.2" ry="3.2"/>
</g>
<!-- payment_procesors -->
<g id="node3" class="node">
<title>payment_procesors</title>
<g id="a_node3"><a xlink:href="../../tables/payment_procesors.html" xlink:title="payment_procesors" target="_top">
<polygon fill="#ffffff" stroke="transparent" points="8,-120.7 8,-210.7 208,-210.7 208,-120.7 8,-120.7"/>
<polygon fill="#f5f5f5" stroke="transparent" points="10,-185.7 10,-208.7 206,-208.7 206,-185.7 10,-185.7"/>
<polygon fill="none" stroke="#000000" points="10,-185.7 10,-208.7 206,-208.7 206,-185.7 10,-185.7"/>
<text text-anchor="start" x="15" y="-194.8" font-family="Helvetica,sans-Serif" font-weight="bold" font-size="11.00" fill="#000000">payment_procesors</text>
<text text-anchor="start" x="171.0437" y="-193.8" font-family="Helvetica,sans-Serif" font-size="11.00" fill="#000000">[table]</text>
<polygon fill="none" stroke="#000000" points="10,-163.7 10,-185.7 145,-185.7 145,-163.7 10,-163.7"/>
<image xlink:href="../../images/primaryKeys.png" width="11px" height="12px" preserveAspectRatio="xMinYMin meet" x="15" y="-180.7"/>
<text text-anchor="start" x="30" y="-170.8" font-family="Helvetica,sans-Serif" font-size="11.00" fill="#000000">id</text>
<polygon fill="none" stroke="#000000" points="145,-163.7 145,-185.7 206,-185.7 206,-163.7 145,-163.7"/>
<text text-anchor="start" x="148" y="-171.4" font-family="Helvetica,sans-Serif" font-size="11.00" fill="#000000">int[10]</text>
<polygon fill="none" stroke="#000000" points="10,-141.7 10,-163.7 145,-163.7 145,-141.7 10,-141.7"/>
<text text-anchor="start" x="30" y="-148.8" font-family="Helvetica,sans-Serif" font-size="11.00" fill="#000000">slug</text>
<polygon fill="none" stroke="#000000" points="145,-141.7 145,-163.7 206,-163.7 206,-141.7 145,-141.7"/>
<text text-anchor="start" x="147.994" y="-149.4" font-family="Helvetica,sans-Serif" font-size="11.00" fill="#000000">varchar[45]</text>
<polygon fill="#ffffff" stroke="transparent" points="10,-122.7 10,-141.7 69,-141.7 69,-122.7 10,-122.7"/>
<polygon fill="none" stroke="#000000" points="10,-122.7 10,-141.7 69,-141.7 69,-122.7 10,-122.7"/>
<text text-anchor="start" x="13" y="-128.8" font-family="Helvetica,sans-Serif" font-size="11.00" fill="#000000">&lt; 0</text>
<polygon fill="#ffffff" stroke="transparent" points="69,-122.7 69,-141.7 145,-141.7 145,-122.7 69,-122.7"/>
<polygon fill="none" stroke="#000000" points="69,-122.7 69,-141.7 145,-141.7 145,-122.7 69,-122.7"/>
<text text-anchor="start" x="109.6105" y="-128.8" font-family="Helvetica,sans-Serif" font-size="11.00" fill="#000000">0 rows</text>
<polygon fill="#ffffff" stroke="transparent" points="145,-122.7 145,-141.7 206,-141.7 206,-122.7 145,-122.7"/>
<polygon fill="none" stroke="#000000" points="145,-122.7 145,-141.7 206,-141.7 206,-122.7 145,-122.7"/>
<text text-anchor="start" x="187.4053" y="-128.8" font-family="Helvetica,sans-Serif" font-size="11.00" fill="#000000">1 &gt;</text>
<polygon fill="none" stroke="#000000" stroke-width="2" points="9,-121.7 9,-209.7 207,-209.7 207,-121.7 9,-121.7"/>
</a>
</g>
</g>
<!-- subscriptions&#45;&gt;payment_procesors -->
<g id="edge3" class="edge">
<title>subscriptions:w&#45;&gt;payment_procesors:e</title>
<path fill="none" stroke="#000000" d="M242.276,-174.7C230.2815,-174.7 222.8229,-174.7 206,-174.7"/>
<polygon fill="#000000" stroke="#000000" points="249,-174.7001 257,-178.3 253,-174.7 257,-174.7 257,-174.7 257,-174.7 253,-174.7 257,-171.1 249,-174.7001 249,-174.7001"/>
<ellipse fill="none" stroke="#000000" cx="245.8" cy="-174.7001" rx="3.2" ry="3.2"/>
</g>
<!-- plans -->
<g id="node4" class="node">
<title>plans</title>
<g id="a_node4"><a xlink:href="../../tables/plans.html" xlink:title="plans" target="_top">
<polygon fill="#ffffff" stroke="transparent" points="72.5,-38.2 72.5,-99.2 143.5,-99.2 143.5,-38.2 72.5,-38.2"/>
<polygon fill="#f5f5f5" stroke="transparent" points="73,-75.7 73,-98.7 144,-98.7 144,-75.7 73,-75.7"/>
<polygon fill="none" stroke="#000000" points="73,-75.7 73,-98.7 144,-98.7 144,-75.7 73,-75.7"/>
<text text-anchor="start" x="78" y="-84.8" font-family="Helvetica,sans-Serif" font-weight="bold" font-size="11.00" fill="#000000">plans</text>
<text text-anchor="start" x="109.0437" y="-83.8" font-family="Helvetica,sans-Serif" font-size="11.00" fill="#000000">[table]</text>
<polygon fill="none" stroke="#000000" points="73,-56.7 73,-75.7 144,-75.7 144,-56.7 73,-56.7"/>
<text text-anchor="start" x="76" y="-62.8" font-family="Helvetica,sans-Serif" font-size="11.00" fill="#000000">...</text>
<polygon fill="#ffffff" stroke="transparent" points="73,-37.7 73,-56.7 85,-56.7 85,-37.7 73,-37.7"/>
<polygon fill="none" stroke="#000000" points="73,-37.7 73,-56.7 85,-56.7 85,-37.7 73,-37.7"/>
<text text-anchor="start" x="75.9431" y="-43.8" font-family="Helvetica,sans-Serif" font-size="11.00" fill="#000000"> &#160;</text>
<polygon fill="#ffffff" stroke="transparent" points="85,-37.7 85,-56.7 123,-56.7 123,-37.7 85,-37.7"/>
<polygon fill="none" stroke="#000000" points="85,-37.7 85,-56.7 123,-56.7 123,-37.7 85,-37.7"/>
<text text-anchor="start" x="87.8053" y="-43.8" font-family="Helvetica,sans-Serif" font-size="11.00" fill="#000000">0 rows</text>
<polygon fill="#ffffff" stroke="transparent" points="123,-37.7 123,-56.7 144,-56.7 144,-37.7 123,-37.7"/>
<polygon fill="none" stroke="#000000" points="123,-37.7 123,-56.7 144,-56.7 144,-37.7 123,-37.7"/>
<text text-anchor="start" x="125.7027" y="-43.8" font-family="Helvetica,sans-Serif" font-size="11.00" fill="#000000">1 &gt;</text>
</a>
</g>
</g>
<!-- subscriptions&#45;&gt;plans -->
<g id="edge4" class="edge">
<title>subscriptions:w&#45;&gt;plans:e</title>
<path fill="none" stroke="#000000" d="M243.0086,-148.8131C231.9303,-140.8565 231.7346,-122.3948 216,-109.7 186.8128,-86.1516 181.5023,-65.7 144,-65.7"/>
<polygon fill="#000000" stroke="#000000" points="249.2919,-150.5586 256.0364,-156.1686 253.146,-151.6293 257,-152.7 257,-152.7 257,-152.7 253.146,-151.6293 257.9636,-149.2314 249.2919,-150.5586 249.2919,-150.5586"/>
<ellipse fill="none" stroke="#000000" cx="246.2087" cy="-149.702" rx="3.2" ry="3.2"/>
</g>
<!-- users -->
<g id="node5" class="node">
<title>users</title>
<g id="a_node5"><a xlink:href="../../tables/users.html" xlink:title="users" target="_top">
<polygon fill="#ffffff" stroke="transparent" points="72.5,-232.2 72.5,-293.2 143.5,-293.2 143.5,-232.2 72.5,-232.2"/>
<polygon fill="#f5f5f5" stroke="transparent" points="73,-269.7 73,-292.7 144,-292.7 144,-269.7 73,-269.7"/>
<polygon fill="none" stroke="#000000" points="73,-269.7 73,-292.7 144,-292.7 144,-269.7 73,-269.7"/>
<text text-anchor="start" x="78" y="-278.8" font-family="Helvetica,sans-Serif" font-weight="bold" font-size="11.00" fill="#000000">users</text>
<text text-anchor="start" x="109.0437" y="-277.8" font-family="Helvetica,sans-Serif" font-size="11.00" fill="#000000">[table]</text>
<polygon fill="none" stroke="#000000" points="73,-250.7 73,-269.7 144,-269.7 144,-250.7 73,-250.7"/>
<text text-anchor="start" x="76" y="-256.8" font-family="Helvetica,sans-Serif" font-size="11.00" fill="#000000">...</text>
<polygon fill="#ffffff" stroke="transparent" points="73,-231.7 73,-250.7 85,-250.7 85,-231.7 73,-231.7"/>
<polygon fill="none" stroke="#000000" points="73,-231.7 73,-250.7 85,-250.7 85,-231.7 73,-231.7"/>
<text text-anchor="start" x="75.9431" y="-237.8" font-family="Helvetica,sans-Serif" font-size="11.00" fill="#000000"> &#160;</text>
<polygon fill="#ffffff" stroke="transparent" points="85,-231.7 85,-250.7 123,-250.7 123,-231.7 85,-231.7"/>
<polygon fill="none" stroke="#000000" points="85,-231.7 85,-250.7 123,-250.7 123,-231.7 85,-231.7"/>
<text text-anchor="start" x="87.8053" y="-237.8" font-family="Helvetica,sans-Serif" font-size="11.00" fill="#000000">0 rows</text>
<polygon fill="#ffffff" stroke="transparent" points="123,-231.7 123,-250.7 144,-250.7 144,-231.7 123,-231.7"/>
<polygon fill="none" stroke="#000000" points="123,-231.7 123,-250.7 144,-250.7 144,-231.7 123,-231.7"/>
<text text-anchor="start" x="125.7027" y="-237.8" font-family="Helvetica,sans-Serif" font-size="11.00" fill="#000000">2 &gt;</text>
</a>
</g>
</g>
<!-- subscriptions&#45;&gt;users -->
<g id="edge5" class="edge">
<title>subscriptions:w&#45;&gt;users:e</title>
<path fill="none" stroke="#000000" d="M242.6557,-199.8805C233.5628,-204.7315 229.1933,-214.2056 216,-221.7 184.5383,-239.5717 180.1833,-259.7 144,-259.7"/>
<polygon fill="#000000" stroke="#000000" points="249.1897,-198.4318 257.7793,-200.2146 253.0948,-197.5659 257,-196.7 257,-196.7 257,-196.7 253.0948,-197.5659 256.2207,-193.1854 249.1897,-198.4318 249.1897,-198.4318"/>
<ellipse fill="none" stroke="#000000" cx="246.0656" cy="-199.1245" rx="3.2" ry="3.2"/>
</g>
</g>
</svg>
