<?xml version="1.0" encoding="UTF-8" standalone="no"?>
<!DOCTYPE svg PUBLIC "-//W3C//DTD SVG 1.1//EN"
 "http://www.w3.org/Graphics/SVG/1.1/DTD/svg11.dtd">
<!-- Generated by graphviz version 2.40.1 (20161225.0304)
 -->
<!-- Title: oneDegreeRelationshipsDiagram Pages: 1 -->
<svg width="450pt" height="294pt"
 viewBox="0.00 0.00 450.00 294.20" xmlns="http://www.w3.org/2000/svg" xmlns:xlink="http://www.w3.org/1999/xlink">
<g id="graph0" class="graph" transform="scale(1 1) rotate(0) translate(4 290.2)">
<title>oneDegreeRelationshipsDiagram</title>
<polygon fill="#ffffff" stroke="transparent" points="-4,4 -4,-290.2 446,-290.2 446,4 -4,4"/>
<text text-anchor="middle" x="72.4936" y="-7.3" font-family="Helvetica,sans-Serif" font-size="11.00" fill="#000000">Generated by SchemaSpy</text>
<!-- payments -->
<g id="node1" class="node">
<title>payments</title>
<g id="a_node1"><a xlink:href="../../tables/payments.html" xlink:title="payments" target="_top">
<polygon fill="#ffffff" stroke="transparent" points="209,-38.2 209,-282.2 434,-282.2 434,-38.2 209,-38.2"/>
<polygon fill="#f5f5f5" stroke="transparent" points="211.5,-257.2 211.5,-280.2 432.5,-280.2 432.5,-257.2 211.5,-257.2"/>
<polygon fill="none" stroke="#000000" points="211.5,-257.2 211.5,-280.2 432.5,-280.2 432.5,-257.2 211.5,-257.2"/>
<text text-anchor="start" x="216.5" y="-266.3" font-family="Helvetica,sans-Serif" font-weight="bold" font-size="11.00" fill="#000000">payments</text>
<text text-anchor="start" x="397.5437" y="-265.3" font-family="Helvetica,sans-Serif" font-size="11.00" fill="#000000">[table]</text>
<polygon fill="none" stroke="#000000" points="211.5,-235.2 211.5,-257.2 366.5,-257.2 366.5,-235.2 211.5,-235.2"/>
<image xlink:href="../../images/primaryKeys.png" width="11px" height="12px" preserveAspectRatio="xMinYMin meet" x="216.5" y="-252.2"/>
<text text-anchor="start" x="231.5" y="-242.3" font-family="Helvetica,sans-Serif" font-size="11.00" fill="#000000">id</text>
<polygon fill="none" stroke="#000000" points="366.5,-235.2 366.5,-257.2 432.5,-257.2 432.5,-235.2 366.5,-235.2"/>
<text text-anchor="start" x="369.5" y="-242.9" font-family="Helvetica,sans-Serif" font-size="11.00" fill="#000000">int[10]</text>
<polygon fill="#ffffff" stroke="transparent" points="211.5,-213.2 211.5,-235.2 366.5,-235.2 366.5,-213.2 211.5,-213.2"/>
<polygon fill="none" stroke="#000000" points="211.5,-213.2 211.5,-235.2 366.5,-235.2 366.5,-213.2 211.5,-213.2"/>
<image xlink:href="../../images/foreignKeys.png" width="11px" height="12px" preserveAspectRatio="xMinYMin meet" x="216.5" y="-230.2"/>
<text text-anchor="start" x="231.5" y="-220.3" font-family="Helvetica,sans-Serif" font-size="11.00" fill="#000000">subscriptions_users_id</text>
<polygon fill="none" stroke="#000000" points="366.5,-213.2 366.5,-235.2 432.5,-235.2 432.5,-213.2 366.5,-213.2"/>
<text text-anchor="start" x="369.5" y="-220.9" font-family="Helvetica,sans-Serif" font-size="11.00" fill="#000000">int[10]</text>
<polygon fill="#ffffff" stroke="transparent" points="211.5,-191.2 211.5,-213.2 366.5,-213.2 366.5,-191.2 211.5,-191.2"/>
<polygon fill="none" stroke="#000000" points="211.5,-191.2 211.5,-213.2 366.5,-213.2 366.5,-191.2 211.5,-191.2"/>
<image xlink:href="../../images/foreignKeys.png" width="11px" height="12px" preserveAspectRatio="xMinYMin meet" x="216.5" y="-208.2"/>
<text text-anchor="start" x="231.5" y="-198.3" font-family="Helvetica,sans-Serif" font-size="11.00" fill="#000000">subscriptions_plans_id</text>
<polygon fill="none" stroke="#000000" points="366.5,-191.2 366.5,-213.2 432.5,-213.2 432.5,-191.2 366.5,-191.2"/>
<text text-anchor="start" x="369.5" y="-198.9" font-family="Helvetica,sans-Serif" font-size="11.00" fill="#000000">int[10]</text>
<polygon fill="none" stroke="#000000" points="211.5,-169.2 211.5,-191.2 366.5,-191.2 366.5,-169.2 211.5,-169.2"/>
<text text-anchor="start" x="231.5" y="-176.3" font-family="Helvetica,sans-Serif" font-size="11.00" fill="#000000">attemted_at</text>
<polygon fill="none" stroke="#000000" points="366.5,-169.2 366.5,-191.2 432.5,-191.2 432.5,-169.2 366.5,-169.2"/>
<text text-anchor="start" x="369.5" y="-176.9" font-family="Helvetica,sans-Serif" font-size="11.00" fill="#000000">date[10]</text>
<polygon fill="none" stroke="#000000" points="211.5,-147.2 211.5,-169.2 366.5,-169.2 366.5,-147.2 211.5,-147.2"/>
<text text-anchor="start" x="231.5" y="-154.3" font-family="Helvetica,sans-Serif" font-size="11.00" fill="#000000">amount</text>
<polygon fill="none" stroke="#000000" points="366.5,-147.2 366.5,-169.2 432.5,-169.2 432.5,-147.2 366.5,-147.2"/>
<text text-anchor="start" x="369.5" y="-154.9" font-family="Helvetica,sans-Serif" font-size="11.00" fill="#000000">float[12]</text>
<polygon fill="none" stroke="#000000" points="211.5,-125.2 211.5,-147.2 366.5,-147.2 366.5,-125.2 211.5,-125.2"/>
<text text-anchor="start" x="231.5" y="-132.3" font-family="Helvetica,sans-Serif" font-size="11.00" fill="#000000">fee</text>
<polygon fill="none" stroke="#000000" points="366.5,-125.2 366.5,-147.2 432.5,-147.2 432.5,-125.2 366.5,-125.2"/>
<text text-anchor="start" x="369.5" y="-132.9" font-family="Helvetica,sans-Serif" font-size="11.00" fill="#000000">float[12]</text>
<polygon fill="none" stroke="#000000" points="211.5,-103.2 211.5,-125.2 366.5,-125.2 366.5,-103.2 211.5,-103.2"/>
<text text-anchor="start" x="231.5" y="-110.3" font-family="Helvetica,sans-Serif" font-size="11.00" fill="#000000">created_at</text>
<polygon fill="none" stroke="#000000" points="366.5,-103.2 366.5,-125.2 432.5,-125.2 432.5,-103.2 366.5,-103.2"/>
<text text-anchor="start" x="369.2401" y="-110.9" font-family="Helvetica,sans-Serif" font-size="11.00" fill="#000000">datetime[19]</text>
<polygon fill="none" stroke="#000000" points="211.5,-81.2 211.5,-103.2 366.5,-103.2 366.5,-81.2 211.5,-81.2"/>
<text text-anchor="start" x="231.5" y="-88.3" font-family="Helvetica,sans-Serif" font-size="11.00" fill="#000000">period_start</text>
<polygon fill="none" stroke="#000000" points="366.5,-81.2 366.5,-103.2 432.5,-103.2 432.5,-81.2 366.5,-81.2"/>
<text text-anchor="start" x="369.2401" y="-88.9" font-family="Helvetica,sans-Serif" font-size="11.00" fill="#000000">datetime[19]</text>
<polygon fill="none" stroke="#000000" points="211.5,-59.2 211.5,-81.2 366.5,-81.2 366.5,-59.2 211.5,-59.2"/>
<text text-anchor="start" x="231.5" y="-66.3" font-family="Helvetica,sans-Serif" font-size="11.00" fill="#000000">period_end</text>
<polygon fill="none" stroke="#000000" points="366.5,-59.2 366.5,-81.2 432.5,-81.2 432.5,-59.2 366.5,-59.2"/>
<text text-anchor="start" x="369.2401" y="-66.9" font-family="Helvetica,sans-Serif" font-size="11.00" fill="#000000">datetime[19]</text>
<polygon fill="#ffffff" stroke="transparent" points="211.5,-40.2 211.5,-59.2 280.5,-59.2 280.5,-40.2 211.5,-40.2"/>
<polygon fill="none" stroke="#000000" points="211.5,-40.2 211.5,-59.2 280.5,-59.2 280.5,-40.2 211.5,-40.2"/>
<text text-anchor="start" x="214.5" y="-46.3" font-family="Helvetica,sans-Serif" font-size="11.00" fill="#000000">&lt; 2</text>
<polygon fill="#ffffff" stroke="transparent" points="280.5,-40.2 280.5,-59.2 366.5,-59.2 366.5,-40.2 280.5,-40.2"/>
<polygon fill="none" stroke="#000000" points="280.5,-40.2 280.5,-59.2 366.5,-59.2 366.5,-40.2 280.5,-40.2"/>
<text text-anchor="start" x="331.1105" y="-46.3" font-family="Helvetica,sans-Serif" font-size="11.00" fill="#000000">0 rows</text>
<polygon fill="#ffffff" stroke="transparent" points="366.5,-40.2 366.5,-59.2 432.5,-59.2 432.5,-40.2 366.5,-40.2"/>
<polygon fill="none" stroke="#000000" points="366.5,-40.2 366.5,-59.2 432.5,-59.2 432.5,-40.2 366.5,-40.2"/>
<text text-anchor="start" x="413.9053" y="-46.3" font-family="Helvetica,sans-Serif" font-size="11.00" fill="#000000">0 &gt;</text>
<polygon fill="none" stroke="#000000" stroke-width="2" points="210,-39.2 210,-281.2 433,-281.2 433,-39.2 210,-39.2"/>
</a>
</g>
</g>
<!-- subscriptions -->
<g id="node2" class="node">
<title>subscriptions</title>
<g id="a_node2"><a xlink:href="../../tables/subscriptions.html" xlink:title="subscriptions" target="_top">
<polygon fill="#ffffff" stroke="transparent" points="8,-142.7 8,-269.7 160,-269.7 160,-142.7 8,-142.7"/>
<polygon fill="#f5f5f5" stroke="transparent" points="8,-246.2 8,-269.2 160,-269.2 160,-246.2 8,-246.2"/>
<polygon fill="none" stroke="#000000" points="8,-246.2 8,-269.2 160,-269.2 160,-246.2 8,-246.2"/>
<text text-anchor="start" x="13" y="-255.3" font-family="Helvetica,sans-Serif" font-weight="bold" font-size="11.00" fill="#000000">subscriptions</text>
<text text-anchor="start" x="125.0437" y="-254.3" font-family="Helvetica,sans-Serif" font-size="11.00" fill="#000000">[table]</text>
<polygon fill="none" stroke="#000000" points="8,-224.2 8,-246.2 160,-246.2 160,-224.2 8,-224.2"/>
<image xlink:href="../../images/primaryKeys.png" width="11px" height="12px" preserveAspectRatio="xMinYMin meet" x="13" y="-241.2"/>
<text text-anchor="start" x="28" y="-231.3" font-family="Helvetica,sans-Serif" font-size="11.00" fill="#000000">users_id</text>
<polygon fill="#ffffff" stroke="transparent" points="8,-202.2 8,-224.2 160,-224.2 160,-202.2 8,-202.2"/>
<polygon fill="none" stroke="#000000" points="8,-202.2 8,-224.2 160,-224.2 160,-202.2 8,-202.2"/>
<image xlink:href="../../images/foreignKeys.png" width="11px" height="12px" preserveAspectRatio="xMinYMin meet" x="13" y="-219.2"/>
<text text-anchor="start" x="28" y="-209.3" font-family="Helvetica,sans-Serif" font-size="11.00" fill="#000000">payment_procesors_id</text>
<polygon fill="none" stroke="#000000" points="8,-180.2 8,-202.2 160,-202.2 160,-180.2 8,-180.2"/>
<image xlink:href="../../images/primaryKeys.png" width="11px" height="12px" preserveAspectRatio="xMinYMin meet" x="13" y="-197.2"/>
<text text-anchor="start" x="28" y="-187.3" font-family="Helvetica,sans-Serif" font-size="11.00" fill="#000000">plans_id</text>
<polygon fill="none" stroke="#000000" points="8,-161.2 8,-180.2 160,-180.2 160,-161.2 8,-161.2"/>
<text text-anchor="start" x="11" y="-167.3" font-family="Helvetica,sans-Serif" font-size="11.00" fill="#000000">...</text>
<polygon fill="#ffffff" stroke="transparent" points="8,-142.2 8,-161.2 65,-161.2 65,-142.2 8,-142.2"/>
<polygon fill="none" stroke="#000000" points="8,-142.2 8,-161.2 65,-161.2 65,-142.2 8,-142.2"/>
<text text-anchor="start" x="11" y="-148.3" font-family="Helvetica,sans-Serif" font-size="11.00" fill="#000000">&lt; 3</text>
<polygon fill="#ffffff" stroke="transparent" points="65,-142.2 65,-161.2 121,-161.2 121,-142.2 65,-142.2"/>
<polygon fill="none" stroke="#000000" points="65,-142.2 65,-161.2 121,-161.2 121,-142.2 65,-142.2"/>
<text text-anchor="start" x="85.6105" y="-148.3" font-family="Helvetica,sans-Serif" font-size="11.00" fill="#000000">0 rows</text>
<polygon fill="#ffffff" stroke="transparent" points="121,-142.2 121,-161.2 160,-161.2 160,-142.2 121,-142.2"/>
<polygon fill="none" stroke="#000000" points="121,-142.2 121,-161.2 160,-161.2 160,-142.2 121,-142.2"/>
<text text-anchor="start" x="141.4053" y="-148.3" font-family="Helvetica,sans-Serif" font-size="11.00" fill="#000000">2 &gt;</text>
</a>
</g>
</g>
<!-- payments&#45;&gt;subscriptions -->
<g id="edge1" class="edge">
<title>payments:w&#45;&gt;subscriptions:e</title>
<path fill="none" stroke="#000000" d="M196.8704,-200.4813C184.5803,-197.3875 177.5539,-191.2 160,-191.2"/>
<polygon fill="#000000" stroke="#000000" points="203.5546,-201.2665 211.0799,-205.7754 207.5273,-201.7332 211.5,-202.2 211.5,-202.2 211.5,-202.2 207.5273,-201.7332 211.9201,-198.6246 203.5546,-201.2665 203.5546,-201.2665"/>
<ellipse fill="none" stroke="#000000" cx="200.3765" cy="-200.8931" rx="3.2" ry="3.2"/>
</g>
<!-- payments&#45;&gt;subscriptions -->
<g id="edge2" class="edge">
<title>payments:w&#45;&gt;subscriptions:e</title>
<path fill="none" stroke="#000000" d="M196.8704,-225.9188C184.5803,-229.0125 177.5539,-235.2 160,-235.2"/>
<polygon fill="#000000" stroke="#000000" points="203.5546,-225.1335 211.9201,-227.7754 207.5273,-224.6668 211.5,-224.2 211.5,-224.2 211.5,-224.2 207.5273,-224.6668 211.0799,-220.6246 203.5546,-225.1335 203.5546,-225.1335"/>
<ellipse fill="none" stroke="#000000" cx="200.3765" cy="-225.5069" rx="3.2" ry="3.2"/>
</g>
</g>
</svg>
