<?xml version="1.0" encoding="UTF-8" standalone="no"?>
<!DOCTYPE svg PUBLIC "-//W3C//DTD SVG 1.1//EN"
 "http://www.w3.org/Graphics/SVG/1.1/DTD/svg11.dtd">
<!-- Generated by graphviz version 2.40.1 (20161225.0304)
 -->
<!-- Title: oneDegreeRelationshipsDiagram Pages: 1 -->
<svg width="428pt" height="206pt"
 viewBox="0.00 0.00 428.00 206.20" xmlns="http://www.w3.org/2000/svg" xmlns:xlink="http://www.w3.org/1999/xlink">
<g id="graph0" class="graph" transform="scale(1 1) rotate(0) translate(4 202.2)">
<title>oneDegreeRelationshipsDiagram</title>
<polygon fill="#ffffff" stroke="transparent" points="-4,4 -4,-202.2 424,-202.2 424,4 -4,4"/>
<text text-anchor="middle" x="72.4936" y="-7.3" font-family="Helvetica,sans-Serif" font-size="11.00" fill="#000000">Generated by SchemaSpy</text>
<!-- model_has_permissions -->
<g id="node1" class="node">
<title>model_has_permissions</title>
<g id="a_node1"><a xlink:href="../../tables/model_has_permissions.html" xlink:title="model_has_permissions" target="_top">
<polygon fill="#ffffff" stroke="transparent" points="251,-84.2 251,-192.2 412,-192.2 412,-84.2 251,-84.2"/>
<polygon fill="#f5f5f5" stroke="transparent" points="251.5,-169.2 251.5,-192.2 412.5,-192.2 412.5,-169.2 251.5,-169.2"/>
<polygon fill="none" stroke="#000000" points="251.5,-169.2 251.5,-192.2 412.5,-192.2 412.5,-169.2 251.5,-169.2"/>
<text text-anchor="start" x="256.2139" y="-178.3" font-family="Helvetica,sans-Serif" font-weight="bold" font-size="11.00" fill="#000000">model_has_permissions</text>
<text text-anchor="start" x="378.0219" y="-177.3" font-family="Helvetica,sans-Serif" font-size="11.00" fill="#000000">[table]</text>
<polygon fill="none" stroke="#000000" points="251.5,-147.2 251.5,-169.2 412.5,-169.2 412.5,-147.2 251.5,-147.2"/>
<image xlink:href="../../images/primaryKeys.png" width="11px" height="12px" preserveAspectRatio="xMinYMin meet" x="256.5" y="-164.2"/>
<text text-anchor="start" x="271.5" y="-154.3" font-family="Helvetica,sans-Serif" font-size="11.00" fill="#000000">permission_id</text>
<polygon fill="none" stroke="#000000" points="251.5,-125.2 251.5,-147.2 412.5,-147.2 412.5,-125.2 251.5,-125.2"/>
<image xlink:href="../../images/primaryKeys.png" width="11px" height="12px" preserveAspectRatio="xMinYMin meet" x="256.5" y="-142.2"/>
<text text-anchor="start" x="271.5" y="-132.3" font-family="Helvetica,sans-Serif" font-size="11.00" fill="#000000">model_type</text>
<polygon fill="none" stroke="#000000" points="251.5,-103.2 251.5,-125.2 412.5,-125.2 412.5,-103.2 251.5,-103.2"/>
<image xlink:href="../../images/primaryKeys.png" width="11px" height="12px" preserveAspectRatio="xMinYMin meet" x="256.5" y="-120.2"/>
<text text-anchor="start" x="271.5" y="-110.3" font-family="Helvetica,sans-Serif" font-size="11.00" fill="#000000">model_id</text>
<polygon fill="#ffffff" stroke="transparent" points="251.5,-84.2 251.5,-103.2 317.5,-103.2 317.5,-84.2 251.5,-84.2"/>
<polygon fill="none" stroke="#000000" points="251.5,-84.2 251.5,-103.2 317.5,-103.2 317.5,-84.2 251.5,-84.2"/>
<text text-anchor="start" x="254.5" y="-90.3" font-family="Helvetica,sans-Serif" font-size="11.00" fill="#000000">&lt; 1</text>
<polygon fill="#ffffff" stroke="transparent" points="317.5,-84.2 317.5,-103.2 377.5,-103.2 377.5,-84.2 317.5,-84.2"/>
<polygon fill="none" stroke="#000000" points="317.5,-84.2 317.5,-103.2 377.5,-103.2 377.5,-84.2 317.5,-84.2"/>
<text text-anchor="start" x="342.1105" y="-90.3" font-family="Helvetica,sans-Serif" font-size="11.00" fill="#000000">0 rows</text>
<polygon fill="#ffffff" stroke="transparent" points="377.5,-84.2 377.5,-103.2 412.5,-103.2 412.5,-84.2 377.5,-84.2"/>
<polygon fill="none" stroke="#000000" points="377.5,-84.2 377.5,-103.2 412.5,-103.2 412.5,-84.2 377.5,-84.2"/>
<text text-anchor="start" x="403.3862" y="-90.3" font-family="Helvetica,sans-Serif" font-size="11.00" fill="#000000"> &#160;</text>
</a>
</g>
</g>
<!-- permissions -->
<g id="node2" class="node">
<title>permissions</title>
<g id="a_node2"><a xlink:href="../../tables/permissions.html" xlink:title="permissions" target="_top">
<polygon fill="#ffffff" stroke="transparent" points="8,-38.2 8,-194.2 202,-194.2 202,-38.2 8,-38.2"/>
<polygon fill="#f5f5f5" stroke="transparent" points="10,-169.2 10,-192.2 200,-192.2 200,-169.2 10,-169.2"/>
<polygon fill="none" stroke="#000000" points="10,-169.2 10,-192.2 200,-192.2 200,-169.2 10,-169.2"/>
<text text-anchor="start" x="15" y="-178.3" font-family="Helvetica,sans-Serif" font-weight="bold" font-size="11.00" fill="#000000">permissions</text>
<text text-anchor="start" x="165.0437" y="-177.3" font-family="Helvetica,sans-Serif" font-size="11.00" fill="#000000">[table]</text>
<polygon fill="none" stroke="#000000" points="10,-147.2 10,-169.2 102,-169.2 102,-147.2 10,-147.2"/>
<image xlink:href="../../images/primaryKeys.png" width="11px" height="12px" preserveAspectRatio="xMinYMin meet" x="15" y="-164.2"/>
<text text-anchor="start" x="30" y="-154.3" font-family="Helvetica,sans-Serif" font-size="11.00" fill="#000000">id</text>
<polygon fill="none" stroke="#000000" points="102,-147.2 102,-169.2 200,-169.2 200,-147.2 102,-147.2"/>
<text text-anchor="start" x="104.8429" y="-154.9" font-family="Helvetica,sans-Serif" font-size="11.00" fill="#000000">bigint unsigned[20]</text>
<polygon fill="none" stroke="#000000" points="10,-125.2 10,-147.2 102,-147.2 102,-125.2 10,-125.2"/>
<text text-anchor="start" x="30" y="-132.3" font-family="Helvetica,sans-Serif" font-size="11.00" fill="#000000">name</text>
<polygon fill="none" stroke="#000000" points="102,-125.2 102,-147.2 200,-147.2 200,-125.2 102,-125.2"/>
<text text-anchor="start" x="105" y="-132.9" font-family="Helvetica,sans-Serif" font-size="11.00" fill="#000000">varchar[255]</text>
<polygon fill="none" stroke="#000000" points="10,-103.2 10,-125.2 102,-125.2 102,-103.2 10,-103.2"/>
<text text-anchor="start" x="30" y="-110.3" font-family="Helvetica,sans-Serif" font-size="11.00" fill="#000000">guard_name</text>
<polygon fill="none" stroke="#000000" points="102,-103.2 102,-125.2 200,-125.2 200,-103.2 102,-103.2"/>
<text text-anchor="start" x="105" y="-110.9" font-family="Helvetica,sans-Serif" font-size="11.00" fill="#000000">varchar[255]</text>
<polygon fill="none" stroke="#000000" points="10,-81.2 10,-103.2 102,-103.2 102,-81.2 10,-81.2"/>
<text text-anchor="start" x="30" y="-88.3" font-family="Helvetica,sans-Serif" font-size="11.00" fill="#000000">created_at</text>
<polygon fill="none" stroke="#000000" points="102,-81.2 102,-103.2 200,-103.2 200,-81.2 102,-81.2"/>
<text text-anchor="start" x="105" y="-88.9" font-family="Helvetica,sans-Serif" font-size="11.00" fill="#000000">timestamp[19]</text>
<polygon fill="none" stroke="#000000" points="10,-59.2 10,-81.2 102,-81.2 102,-59.2 10,-59.2"/>
<text text-anchor="start" x="30" y="-66.3" font-family="Helvetica,sans-Serif" font-size="11.00" fill="#000000">updated_at</text>
<polygon fill="none" stroke="#000000" points="102,-59.2 102,-81.2 200,-81.2 200,-59.2 102,-59.2"/>
<text text-anchor="start" x="105" y="-66.9" font-family="Helvetica,sans-Serif" font-size="11.00" fill="#000000">timestamp[19]</text>
<polygon fill="#ffffff" stroke="transparent" points="10,-40.2 10,-59.2 47,-59.2 47,-40.2 10,-40.2"/>
<polygon fill="none" stroke="#000000" points="10,-40.2 10,-59.2 47,-59.2 47,-40.2 10,-40.2"/>
<text text-anchor="start" x="13" y="-46.3" font-family="Helvetica,sans-Serif" font-size="11.00" fill="#000000">&lt; 0</text>
<polygon fill="#ffffff" stroke="transparent" points="47,-40.2 47,-59.2 102,-59.2 102,-40.2 47,-40.2"/>
<polygon fill="none" stroke="#000000" points="47,-40.2 47,-59.2 102,-59.2 102,-40.2 47,-40.2"/>
<text text-anchor="start" x="66.6105" y="-46.3" font-family="Helvetica,sans-Serif" font-size="11.00" fill="#000000">0 rows</text>
<polygon fill="#ffffff" stroke="transparent" points="102,-40.2 102,-59.2 200,-59.2 200,-40.2 102,-40.2"/>
<polygon fill="none" stroke="#000000" points="102,-40.2 102,-59.2 200,-59.2 200,-40.2 102,-40.2"/>
<text text-anchor="start" x="181.4053" y="-46.3" font-family="Helvetica,sans-Serif" font-size="11.00" fill="#000000">1 &gt;</text>
<polygon fill="none" stroke="#000000" stroke-width="2" points="9,-39.2 9,-193.2 201,-193.2 201,-39.2 9,-39.2"/>
</a>
</g>
</g>
<!-- model_has_permissions&#45;&gt;permissions -->
<g id="edge1" class="edge">
<title>model_has_permissions:w&#45;&gt;permissions:e</title>
<path fill="none" stroke="#000000" d="M237.0156,-158.2C224.6771,-158.2 217.1667,-158.2 200,-158.2"/>
<polygon fill="#000000" stroke="#000000" points="243.5,-158.2001 251.5,-161.8 247.5,-158.2 251.5,-158.2 251.5,-158.2 251.5,-158.2 247.5,-158.2 251.5,-154.6 243.5,-158.2001 243.5,-158.2001"/>
<ellipse fill="none" stroke="#000000" cx="240.3" cy="-158.2001" rx="3.2" ry="3.2"/>
</g>
</g>
</svg>
