<?xml version="1.0" encoding="UTF-8" standalone="no"?>
<!DOCTYPE svg PUBLIC "-//W3C//DTD SVG 1.1//EN"
 "http://www.w3.org/Graphics/SVG/1.1/DTD/svg11.dtd">
<!-- Generated by graphviz version 2.40.1 (20161225.0304)
 -->
<!-- Title: oneDegreeRelationshipsDiagram Pages: 1 -->
<svg width="349pt" height="227pt"
 viewBox="0.00 0.00 349.00 226.70" xmlns="http://www.w3.org/2000/svg" xmlns:xlink="http://www.w3.org/1999/xlink">
<g id="graph0" class="graph" transform="scale(1 1) rotate(0) translate(4 222.7)">
<title>oneDegreeRelationshipsDiagram</title>
<polygon fill="#ffffff" stroke="transparent" points="-4,4 -4,-222.7 345,-222.7 345,4 -4,4"/>
<text text-anchor="middle" x="72.4936" y="-7.3" font-family="Helvetica,sans-Serif" font-size="11.00" fill="#000000">Generated by SchemaSpy</text>
<!-- subscriptions -->
<g id="node1" class="node">
<title>subscriptions</title>
<g id="a_node1"><a xlink:href="../../tables/subscriptions.html" xlink:title="subscriptions" target="_top">
<polygon fill="#ffffff" stroke="transparent" points="181,-87.7 181,-214.7 333,-214.7 333,-87.7 181,-87.7"/>
<polygon fill="#f5f5f5" stroke="transparent" points="181,-191.2 181,-214.2 333,-214.2 333,-191.2 181,-191.2"/>
<polygon fill="none" stroke="#000000" points="181,-191.2 181,-214.2 333,-214.2 333,-191.2 181,-191.2"/>
<text text-anchor="start" x="186" y="-200.3" font-family="Helvetica,sans-Serif" font-weight="bold" font-size="11.00" fill="#000000">subscriptions</text>
<text text-anchor="start" x="298.0437" y="-199.3" font-family="Helvetica,sans-Serif" font-size="11.00" fill="#000000">[table]</text>
<polygon fill="none" stroke="#000000" points="181,-169.2 181,-191.2 333,-191.2 333,-169.2 181,-169.2"/>
<image xlink:href="../../images/primaryKeys.png" width="11px" height="12px" preserveAspectRatio="xMinYMin meet" x="186" y="-186.2"/>
<text text-anchor="start" x="201" y="-176.3" font-family="Helvetica,sans-Serif" font-size="11.00" fill="#000000">users_id</text>
<polygon fill="#ffffff" stroke="transparent" points="181,-147.2 181,-169.2 333,-169.2 333,-147.2 181,-147.2"/>
<polygon fill="none" stroke="#000000" points="181,-147.2 181,-169.2 333,-169.2 333,-147.2 181,-147.2"/>
<image xlink:href="../../images/foreignKeys.png" width="11px" height="12px" preserveAspectRatio="xMinYMin meet" x="186" y="-164.2"/>
<text text-anchor="start" x="201" y="-154.3" font-family="Helvetica,sans-Serif" font-size="11.00" fill="#000000">payment_procesors_id</text>
<polygon fill="none" stroke="#000000" points="181,-125.2 181,-147.2 333,-147.2 333,-125.2 181,-125.2"/>
<image xlink:href="../../images/primaryKeys.png" width="11px" height="12px" preserveAspectRatio="xMinYMin meet" x="186" y="-142.2"/>
<text text-anchor="start" x="201" y="-132.3" font-family="Helvetica,sans-Serif" font-size="11.00" fill="#000000">plans_id</text>
<polygon fill="none" stroke="#000000" points="181,-106.2 181,-125.2 333,-125.2 333,-106.2 181,-106.2"/>
<text text-anchor="start" x="184" y="-112.3" font-family="Helvetica,sans-Serif" font-size="11.00" fill="#000000">...</text>
<polygon fill="#ffffff" stroke="transparent" points="181,-87.2 181,-106.2 238,-106.2 238,-87.2 181,-87.2"/>
<polygon fill="none" stroke="#000000" points="181,-87.2 181,-106.2 238,-106.2 238,-87.2 181,-87.2"/>
<text text-anchor="start" x="184" y="-93.3" font-family="Helvetica,sans-Serif" font-size="11.00" fill="#000000">&lt; 3</text>
<polygon fill="#ffffff" stroke="transparent" points="238,-87.2 238,-106.2 294,-106.2 294,-87.2 238,-87.2"/>
<polygon fill="none" stroke="#000000" points="238,-87.2 238,-106.2 294,-106.2 294,-87.2 238,-87.2"/>
<text text-anchor="start" x="258.6105" y="-93.3" font-family="Helvetica,sans-Serif" font-size="11.00" fill="#000000">0 rows</text>
<polygon fill="#ffffff" stroke="transparent" points="294,-87.2 294,-106.2 333,-106.2 333,-87.2 294,-87.2"/>
<polygon fill="none" stroke="#000000" points="294,-87.2 294,-106.2 333,-106.2 333,-87.2 294,-87.2"/>
<text text-anchor="start" x="314.4053" y="-93.3" font-family="Helvetica,sans-Serif" font-size="11.00" fill="#000000">2 &gt;</text>
</a>
</g>
</g>
<!-- plans -->
<g id="node2" class="node">
<title>plans</title>
<g id="a_node2"><a xlink:href="../../tables/plans.html" xlink:title="plans" target="_top">
<polygon fill="#ffffff" stroke="transparent" points="8,-38.2 8,-172.2 132,-172.2 132,-38.2 8,-38.2"/>
<polygon fill="#f5f5f5" stroke="transparent" points="10,-147.2 10,-170.2 130,-170.2 130,-147.2 10,-147.2"/>
<polygon fill="none" stroke="#000000" points="10,-147.2 10,-170.2 130,-170.2 130,-147.2 10,-147.2"/>
<text text-anchor="start" x="15" y="-156.3" font-family="Helvetica,sans-Serif" font-weight="bold" font-size="11.00" fill="#000000">plans</text>
<text text-anchor="start" x="95.0437" y="-155.3" font-family="Helvetica,sans-Serif" font-size="11.00" fill="#000000">[table]</text>
<polygon fill="none" stroke="#000000" points="10,-125.2 10,-147.2 69,-147.2 69,-125.2 10,-125.2"/>
<image xlink:href="../../images/primaryKeys.png" width="11px" height="12px" preserveAspectRatio="xMinYMin meet" x="15" y="-142.2"/>
<text text-anchor="start" x="34" y="-132.3" font-family="Helvetica,sans-Serif" font-size="11.00" fill="#000000">id</text>
<polygon fill="none" stroke="#000000" points="69,-125.2 69,-147.2 130,-147.2 130,-125.2 69,-125.2"/>
<text text-anchor="start" x="72" y="-132.9" font-family="Helvetica,sans-Serif" font-size="11.00" fill="#000000">int[10]</text>
<polygon fill="none" stroke="#000000" points="10,-103.2 10,-125.2 69,-125.2 69,-103.2 10,-103.2"/>
<text text-anchor="start" x="33.7467" y="-110.3" font-family="Helvetica,sans-Serif" font-size="11.00" fill="#000000">name</text>
<polygon fill="none" stroke="#000000" points="69,-103.2 69,-125.2 130,-125.2 130,-103.2 69,-103.2"/>
<text text-anchor="start" x="71.994" y="-110.9" font-family="Helvetica,sans-Serif" font-size="11.00" fill="#000000">varchar[45]</text>
<polygon fill="none" stroke="#000000" points="10,-81.2 10,-103.2 69,-103.2 69,-81.2 10,-81.2"/>
<text text-anchor="start" x="34" y="-88.3" font-family="Helvetica,sans-Serif" font-size="11.00" fill="#000000">price</text>
<polygon fill="none" stroke="#000000" points="69,-81.2 69,-103.2 130,-103.2 130,-81.2 69,-81.2"/>
<text text-anchor="start" x="72" y="-88.9" font-family="Helvetica,sans-Serif" font-size="11.00" fill="#000000">float[12]</text>
<polygon fill="none" stroke="#000000" points="10,-59.2 10,-81.2 69,-81.2 69,-59.2 10,-59.2"/>
<text text-anchor="start" x="34" y="-66.3" font-family="Helvetica,sans-Serif" font-size="11.00" fill="#000000">cycle</text>
<polygon fill="none" stroke="#000000" points="69,-59.2 69,-81.2 130,-81.2 130,-59.2 69,-59.2"/>
<text text-anchor="start" x="71.994" y="-66.9" font-family="Helvetica,sans-Serif" font-size="11.00" fill="#000000">varchar[45]</text>
<polygon fill="#ffffff" stroke="transparent" points="10,-40.2 10,-59.2 31,-59.2 31,-40.2 10,-40.2"/>
<polygon fill="none" stroke="#000000" points="10,-40.2 10,-59.2 31,-59.2 31,-40.2 10,-40.2"/>
<text text-anchor="start" x="12.7027" y="-46.3" font-family="Helvetica,sans-Serif" font-size="11.00" fill="#000000">&lt; 0</text>
<polygon fill="#ffffff" stroke="transparent" points="31,-40.2 31,-59.2 69,-59.2 69,-40.2 31,-40.2"/>
<polygon fill="none" stroke="#000000" points="31,-40.2 31,-59.2 69,-59.2 69,-40.2 31,-40.2"/>
<text text-anchor="start" x="33.8053" y="-46.3" font-family="Helvetica,sans-Serif" font-size="11.00" fill="#000000">0 rows</text>
<polygon fill="#ffffff" stroke="transparent" points="69,-40.2 69,-59.2 130,-59.2 130,-40.2 69,-40.2"/>
<polygon fill="none" stroke="#000000" points="69,-40.2 69,-59.2 130,-59.2 130,-40.2 69,-40.2"/>
<text text-anchor="start" x="111.4053" y="-46.3" font-family="Helvetica,sans-Serif" font-size="11.00" fill="#000000">1 &gt;</text>
<polygon fill="none" stroke="#000000" stroke-width="2" points="9,-39.2 9,-171.2 131,-171.2 131,-39.2 9,-39.2"/>
</a>
</g>
</g>
<!-- subscriptions&#45;&gt;plans -->
<g id="edge1" class="edge">
<title>subscriptions:w&#45;&gt;plans:e</title>
<path fill="none" stroke="#000000" d="M166.276,-136.2C154.2815,-136.2 146.8229,-136.2 130,-136.2"/>
<polygon fill="#000000" stroke="#000000" points="173,-136.2001 181,-139.8 177,-136.2 181,-136.2 181,-136.2 181,-136.2 177,-136.2 181,-132.6 173,-136.2001 173,-136.2001"/>
<ellipse fill="none" stroke="#000000" cx="169.8" cy="-136.2001" rx="3.2" ry="3.2"/>
</g>
</g>
</svg>
