<?xml version="1.0" encoding="UTF-8" standalone="no"?>
<!DOCTYPE svg PUBLIC "-//W3C//DTD SVG 1.1//EN"
 "http://www.w3.org/Graphics/SVG/1.1/DTD/svg11.dtd">
<!-- Generated by graphviz version 2.40.1 (20161225.0304)
 -->
<!-- Title: twoDegreesRelationshipsDiagram Pages: 1 -->
<svg width="503pt" height="349pt"
 viewBox="0.00 0.00 503.00 348.70" xmlns="http://www.w3.org/2000/svg" xmlns:xlink="http://www.w3.org/1999/xlink">
<g id="graph0" class="graph" transform="scale(1 1) rotate(0) translate(4 344.7)">
<title>twoDegreesRelationshipsDiagram</title>
<polygon fill="#ffffff" stroke="transparent" points="-4,4 -4,-344.7 499,-344.7 499,4 -4,4"/>
<text text-anchor="middle" x="72.4936" y="-7.3" font-family="Helvetica,sans-Serif" font-size="11.00" fill="#000000">Generated by SchemaSpy</text>
<!-- payments -->
<g id="node1" class="node">
<title>payments</title>
<g id="a_node1"><a xlink:href="../../tables/payments.html" xlink:title="payments" target="_top">
<polygon fill="#ffffff" stroke="transparent" points="397,-193.7 397,-254.7 487,-254.7 487,-193.7 397,-193.7"/>
<polygon fill="#f5f5f5" stroke="transparent" points="397,-231.2 397,-254.2 487,-254.2 487,-231.2 397,-231.2"/>
<polygon fill="none" stroke="#000000" points="397,-231.2 397,-254.2 487,-254.2 487,-231.2 397,-231.2"/>
<text text-anchor="start" x="401.6608" y="-240.3" font-family="Helvetica,sans-Serif" font-weight="bold" font-size="11.00" fill="#000000">payments</text>
<text text-anchor="start" x="452.5219" y="-239.3" font-family="Helvetica,sans-Serif" font-size="11.00" fill="#000000">[table]</text>
<polygon fill="none" stroke="#000000" points="397,-212.2 397,-231.2 487,-231.2 487,-212.2 397,-212.2"/>
<text text-anchor="start" x="400" y="-218.3" font-family="Helvetica,sans-Serif" font-size="11.00" fill="#000000">...</text>
<polygon fill="#ffffff" stroke="transparent" points="397,-193.2 397,-212.2 427,-212.2 427,-193.2 397,-193.2"/>
<polygon fill="none" stroke="#000000" points="397,-193.2 397,-212.2 427,-212.2 427,-193.2 397,-193.2"/>
<text text-anchor="start" x="400" y="-199.3" font-family="Helvetica,sans-Serif" font-size="11.00" fill="#000000">&lt; 2</text>
<polygon fill="#ffffff" stroke="transparent" points="427,-193.2 427,-212.2 470,-212.2 470,-193.2 427,-193.2"/>
<polygon fill="none" stroke="#000000" points="427,-193.2 427,-212.2 470,-212.2 470,-193.2 427,-193.2"/>
<text text-anchor="start" x="434.6105" y="-199.3" font-family="Helvetica,sans-Serif" font-size="11.00" fill="#000000">0 rows</text>
<polygon fill="#ffffff" stroke="transparent" points="470,-193.2 470,-212.2 487,-212.2 487,-193.2 470,-193.2"/>
<polygon fill="none" stroke="#000000" points="470,-193.2 470,-212.2 487,-212.2 487,-193.2 470,-193.2"/>
<text text-anchor="start" x="477.8862" y="-199.3" font-family="Helvetica,sans-Serif" font-size="11.00" fill="#000000"> &#160;</text>
</a>
</g>
</g>
<!-- subscriptions -->
<g id="node2" class="node">
<title>subscriptions</title>
<g id="a_node2"><a xlink:href="../../tables/subscriptions.html" xlink:title="subscriptions" target="_top">
<polygon fill="#ffffff" stroke="transparent" points="196,-150.7 196,-277.7 348,-277.7 348,-150.7 196,-150.7"/>
<polygon fill="#f5f5f5" stroke="transparent" points="196,-254.2 196,-277.2 348,-277.2 348,-254.2 196,-254.2"/>
<polygon fill="none" stroke="#000000" points="196,-254.2 196,-277.2 348,-277.2 348,-254.2 196,-254.2"/>
<text text-anchor="start" x="201" y="-263.3" font-family="Helvetica,sans-Serif" font-weight="bold" font-size="11.00" fill="#000000">subscriptions</text>
<text text-anchor="start" x="313.0437" y="-262.3" font-family="Helvetica,sans-Serif" font-size="11.00" fill="#000000">[table]</text>
<polygon fill="none" stroke="#000000" points="196,-232.2 196,-254.2 348,-254.2 348,-232.2 196,-232.2"/>
<image xlink:href="../../images/primaryKeys.png" width="11px" height="12px" preserveAspectRatio="xMinYMin meet" x="201" y="-249.2"/>
<text text-anchor="start" x="216" y="-239.3" font-family="Helvetica,sans-Serif" font-size="11.00" fill="#000000">users_id</text>
<polygon fill="#ffffff" stroke="transparent" points="196,-210.2 196,-232.2 348,-232.2 348,-210.2 196,-210.2"/>
<polygon fill="none" stroke="#000000" points="196,-210.2 196,-232.2 348,-232.2 348,-210.2 196,-210.2"/>
<image xlink:href="../../images/foreignKeys.png" width="11px" height="12px" preserveAspectRatio="xMinYMin meet" x="201" y="-227.2"/>
<text text-anchor="start" x="216" y="-217.3" font-family="Helvetica,sans-Serif" font-size="11.00" fill="#000000">payment_procesors_id</text>
<polygon fill="none" stroke="#000000" points="196,-188.2 196,-210.2 348,-210.2 348,-188.2 196,-188.2"/>
<image xlink:href="../../images/primaryKeys.png" width="11px" height="12px" preserveAspectRatio="xMinYMin meet" x="201" y="-205.2"/>
<text text-anchor="start" x="216" y="-195.3" font-family="Helvetica,sans-Serif" font-size="11.00" fill="#000000">plans_id</text>
<polygon fill="none" stroke="#000000" points="196,-169.2 196,-188.2 348,-188.2 348,-169.2 196,-169.2"/>
<text text-anchor="start" x="199" y="-175.3" font-family="Helvetica,sans-Serif" font-size="11.00" fill="#000000">...</text>
<polygon fill="#ffffff" stroke="transparent" points="196,-150.2 196,-169.2 253,-169.2 253,-150.2 196,-150.2"/>
<polygon fill="none" stroke="#000000" points="196,-150.2 196,-169.2 253,-169.2 253,-150.2 196,-150.2"/>
<text text-anchor="start" x="199" y="-156.3" font-family="Helvetica,sans-Serif" font-size="11.00" fill="#000000">&lt; 3</text>
<polygon fill="#ffffff" stroke="transparent" points="253,-150.2 253,-169.2 309,-169.2 309,-150.2 253,-150.2"/>
<polygon fill="none" stroke="#000000" points="253,-150.2 253,-169.2 309,-169.2 309,-150.2 253,-150.2"/>
<text text-anchor="start" x="273.6105" y="-156.3" font-family="Helvetica,sans-Serif" font-size="11.00" fill="#000000">0 rows</text>
<polygon fill="#ffffff" stroke="transparent" points="309,-150.2 309,-169.2 348,-169.2 348,-150.2 309,-150.2"/>
<polygon fill="none" stroke="#000000" points="309,-150.2 309,-169.2 348,-169.2 348,-150.2 309,-150.2"/>
<text text-anchor="start" x="329.4053" y="-156.3" font-family="Helvetica,sans-Serif" font-size="11.00" fill="#000000">2 &gt;</text>
</a>
</g>
</g>
<!-- payments&#45;&gt;subscriptions -->
<g id="edge1" class="edge">
<title>payments:w&#45;&gt;subscriptions:e</title>
<path fill="none" stroke="#000000" d="M382.6297,-217.7625C371.0865,-211.575 365.9041,-199.2 348,-199.2"/>
<polygon fill="#000000" stroke="#000000" points="389.2195,-219.3388 396.1625,-224.7012 393.1098,-220.2694 397,-221.2 397,-221.2 397,-221.2 393.1098,-220.2694 397.8375,-217.6988 389.2195,-219.3388 389.2195,-219.3388"/>
<ellipse fill="none" stroke="#000000" cx="386.1073" cy="-218.5943" rx="3.2" ry="3.2"/>
</g>
<!-- payments&#45;&gt;subscriptions -->
<g id="edge2" class="edge">
<title>payments:w&#45;&gt;subscriptions:e</title>
<path fill="none" stroke="#000000" d="M382.6297,-224.6375C371.0865,-230.825 365.9041,-243.2 348,-243.2"/>
<polygon fill="#000000" stroke="#000000" points="389.2195,-223.0612 397.8375,-224.7012 393.1098,-222.1306 397,-221.2 397,-221.2 397,-221.2 393.1098,-222.1306 396.1625,-217.6988 389.2195,-223.0612 389.2195,-223.0612"/>
<ellipse fill="none" stroke="#000000" cx="386.1073" cy="-223.8057" rx="3.2" ry="3.2"/>
</g>
<!-- payment_procesors -->
<g id="node3" class="node">
<title>payment_procesors</title>
<g id="a_node3"><a xlink:href="../../tables/payment_procesors.html" xlink:title="payment_procesors" target="_top">
<polygon fill="#ffffff" stroke="transparent" points="8,-193.7 8,-254.7 147,-254.7 147,-193.7 8,-193.7"/>
<polygon fill="#f5f5f5" stroke="transparent" points="8.5,-231.2 8.5,-254.2 147.5,-254.2 147.5,-231.2 8.5,-231.2"/>
<polygon fill="none" stroke="#000000" points="8.5,-231.2 8.5,-254.2 147.5,-254.2 147.5,-231.2 8.5,-231.2"/>
<text text-anchor="start" x="13.2117" y="-240.3" font-family="Helvetica,sans-Serif" font-weight="bold" font-size="11.00" fill="#000000">payment_procesors</text>
<text text-anchor="start" x="113.0219" y="-239.3" font-family="Helvetica,sans-Serif" font-size="11.00" fill="#000000">[table]</text>
<polygon fill="none" stroke="#000000" points="8.5,-212.2 8.5,-231.2 147.5,-231.2 147.5,-212.2 8.5,-212.2"/>
<text text-anchor="start" x="11.5" y="-218.3" font-family="Helvetica,sans-Serif" font-size="11.00" fill="#000000">...</text>
<polygon fill="#ffffff" stroke="transparent" points="8.5,-193.2 8.5,-212.2 54.5,-212.2 54.5,-193.2 8.5,-193.2"/>
<polygon fill="none" stroke="#000000" points="8.5,-193.2 8.5,-212.2 54.5,-212.2 54.5,-193.2 8.5,-193.2"/>
<text text-anchor="start" x="11.5" y="-199.3" font-family="Helvetica,sans-Serif" font-size="11.00" fill="#000000"> &#160;</text>
<polygon fill="#ffffff" stroke="transparent" points="54.5,-193.2 54.5,-212.2 109.5,-212.2 109.5,-193.2 54.5,-193.2"/>
<polygon fill="none" stroke="#000000" points="54.5,-193.2 54.5,-212.2 109.5,-212.2 109.5,-193.2 54.5,-193.2"/>
<text text-anchor="start" x="74.1105" y="-199.3" font-family="Helvetica,sans-Serif" font-size="11.00" fill="#000000">0 rows</text>
<polygon fill="#ffffff" stroke="transparent" points="109.5,-193.2 109.5,-212.2 147.5,-212.2 147.5,-193.2 109.5,-193.2"/>
<polygon fill="none" stroke="#000000" points="109.5,-193.2 109.5,-212.2 147.5,-212.2 147.5,-193.2 109.5,-193.2"/>
<text text-anchor="start" x="128.9053" y="-199.3" font-family="Helvetica,sans-Serif" font-size="11.00" fill="#000000">1 &gt;</text>
</a>
</g>
</g>
<!-- subscriptions&#45;&gt;payment_procesors -->
<g id="edge3" class="edge">
<title>subscriptions:w&#45;&gt;payment_procesors:e</title>
<path fill="none" stroke="#000000" d="M181.2829,-221.2C170.2886,-221.2 163.1615,-221.2 147.5,-221.2"/>
<polygon fill="#000000" stroke="#000000" points="188,-221.2001 196,-224.8 192,-221.2 196,-221.2 196,-221.2 196,-221.2 192,-221.2 196,-217.6 188,-221.2001 188,-221.2001"/>
<ellipse fill="none" stroke="#000000" cx="184.8" cy="-221.2001" rx="3.2" ry="3.2"/>
</g>
<!-- plans -->
<g id="node4" class="node">
<title>plans</title>
<g id="a_node4"><a xlink:href="../../tables/plans.html" xlink:title="plans" target="_top">
<polygon fill="#ffffff" stroke="transparent" points="15.5,-38.2 15.5,-172.2 139.5,-172.2 139.5,-38.2 15.5,-38.2"/>
<polygon fill="#f5f5f5" stroke="transparent" points="17.5,-147.2 17.5,-170.2 137.5,-170.2 137.5,-147.2 17.5,-147.2"/>
<polygon fill="none" stroke="#000000" points="17.5,-147.2 17.5,-170.2 137.5,-170.2 137.5,-147.2 17.5,-147.2"/>
<text text-anchor="start" x="22.5" y="-156.3" font-family="Helvetica,sans-Serif" font-weight="bold" font-size="11.00" fill="#000000">plans</text>
<text text-anchor="start" x="102.5437" y="-155.3" font-family="Helvetica,sans-Serif" font-size="11.00" fill="#000000">[table]</text>
<polygon fill="none" stroke="#000000" points="17.5,-125.2 17.5,-147.2 76.5,-147.2 76.5,-125.2 17.5,-125.2"/>
<image xlink:href="../../images/primaryKeys.png" width="11px" height="12px" preserveAspectRatio="xMinYMin meet" x="22.5" y="-142.2"/>
<text text-anchor="start" x="41.5" y="-132.3" font-family="Helvetica,sans-Serif" font-size="11.00" fill="#000000">id</text>
<polygon fill="none" stroke="#000000" points="76.5,-125.2 76.5,-147.2 137.5,-147.2 137.5,-125.2 76.5,-125.2"/>
<text text-anchor="start" x="79.5" y="-132.9" font-family="Helvetica,sans-Serif" font-size="11.00" fill="#000000">int[10]</text>
<polygon fill="none" stroke="#000000" points="17.5,-103.2 17.5,-125.2 76.5,-125.2 76.5,-103.2 17.5,-103.2"/>
<text text-anchor="start" x="41.2467" y="-110.3" font-family="Helvetica,sans-Serif" font-size="11.00" fill="#000000">name</text>
<polygon fill="none" stroke="#000000" points="76.5,-103.2 76.5,-125.2 137.5,-125.2 137.5,-103.2 76.5,-103.2"/>
<text text-anchor="start" x="79.494" y="-110.9" font-family="Helvetica,sans-Serif" font-size="11.00" fill="#000000">varchar[45]</text>
<polygon fill="none" stroke="#000000" points="17.5,-81.2 17.5,-103.2 76.5,-103.2 76.5,-81.2 17.5,-81.2"/>
<text text-anchor="start" x="41.5" y="-88.3" font-family="Helvetica,sans-Serif" font-size="11.00" fill="#000000">price</text>
<polygon fill="none" stroke="#000000" points="76.5,-81.2 76.5,-103.2 137.5,-103.2 137.5,-81.2 76.5,-81.2"/>
<text text-anchor="start" x="79.5" y="-88.9" font-family="Helvetica,sans-Serif" font-size="11.00" fill="#000000">float[12]</text>
<polygon fill="none" stroke="#000000" points="17.5,-59.2 17.5,-81.2 76.5,-81.2 76.5,-59.2 17.5,-59.2"/>
<text text-anchor="start" x="41.5" y="-66.3" font-family="Helvetica,sans-Serif" font-size="11.00" fill="#000000">cycle</text>
<polygon fill="none" stroke="#000000" points="76.5,-59.2 76.5,-81.2 137.5,-81.2 137.5,-59.2 76.5,-59.2"/>
<text text-anchor="start" x="79.494" y="-66.9" font-family="Helvetica,sans-Serif" font-size="11.00" fill="#000000">varchar[45]</text>
<polygon fill="#ffffff" stroke="transparent" points="17.5,-40.2 17.5,-59.2 38.5,-59.2 38.5,-40.2 17.5,-40.2"/>
<polygon fill="none" stroke="#000000" points="17.5,-40.2 17.5,-59.2 38.5,-59.2 38.5,-40.2 17.5,-40.2"/>
<text text-anchor="start" x="20.2026" y="-46.3" font-family="Helvetica,sans-Serif" font-size="11.00" fill="#000000">&lt; 0</text>
<polygon fill="#ffffff" stroke="transparent" points="38.5,-40.2 38.5,-59.2 76.5,-59.2 76.5,-40.2 38.5,-40.2"/>
<polygon fill="none" stroke="#000000" points="38.5,-40.2 38.5,-59.2 76.5,-59.2 76.5,-40.2 38.5,-40.2"/>
<text text-anchor="start" x="41.3053" y="-46.3" font-family="Helvetica,sans-Serif" font-size="11.00" fill="#000000">0 rows</text>
<polygon fill="#ffffff" stroke="transparent" points="76.5,-40.2 76.5,-59.2 137.5,-59.2 137.5,-40.2 76.5,-40.2"/>
<polygon fill="none" stroke="#000000" points="76.5,-40.2 76.5,-59.2 137.5,-59.2 137.5,-40.2 76.5,-40.2"/>
<text text-anchor="start" x="118.9053" y="-46.3" font-family="Helvetica,sans-Serif" font-size="11.00" fill="#000000">1 &gt;</text>
<polygon fill="none" stroke="#000000" stroke-width="2" points="16.5,-39.2 16.5,-171.2 138.5,-171.2 138.5,-39.2 16.5,-39.2"/>
</a>
</g>
</g>
<!-- subscriptions&#45;&gt;plans -->
<g id="edge4" class="edge">
<title>subscriptions:w&#45;&gt;plans:e</title>
<path fill="none" stroke="#000000" d="M182.048,-195.2591C161.9473,-181.4668 169.8889,-136.2 137.5,-136.2"/>
<polygon fill="#000000" stroke="#000000" points="188.3012,-197.0253 195.0214,-202.6644 192.1506,-198.1127 196,-199.2 196,-199.2 196,-199.2 192.1506,-198.1127 196.9786,-195.7356 188.3012,-197.0253 188.3012,-197.0253"/>
<ellipse fill="none" stroke="#000000" cx="185.2217" cy="-196.1555" rx="3.2" ry="3.2"/>
</g>
<!-- users -->
<g id="node5" class="node">
<title>users</title>
<g id="a_node5"><a xlink:href="../../tables/users.html" xlink:title="users" target="_top">
<polygon fill="#ffffff" stroke="transparent" points="42,-275.7 42,-336.7 113,-336.7 113,-275.7 42,-275.7"/>
<polygon fill="#f5f5f5" stroke="transparent" points="42.5,-313.2 42.5,-336.2 113.5,-336.2 113.5,-313.2 42.5,-313.2"/>
<polygon fill="none" stroke="#000000" points="42.5,-313.2 42.5,-336.2 113.5,-336.2 113.5,-313.2 42.5,-313.2"/>
<text text-anchor="start" x="47.5" y="-322.3" font-family="Helvetica,sans-Serif" font-weight="bold" font-size="11.00" fill="#000000">users</text>
<text text-anchor="start" x="78.5437" y="-321.3" font-family="Helvetica,sans-Serif" font-size="11.00" fill="#000000">[table]</text>
<polygon fill="none" stroke="#000000" points="42.5,-294.2 42.5,-313.2 113.5,-313.2 113.5,-294.2 42.5,-294.2"/>
<text text-anchor="start" x="45.5" y="-300.3" font-family="Helvetica,sans-Serif" font-size="11.00" fill="#000000">...</text>
<polygon fill="#ffffff" stroke="transparent" points="42.5,-275.2 42.5,-294.2 54.5,-294.2 54.5,-275.2 42.5,-275.2"/>
<polygon fill="none" stroke="#000000" points="42.5,-275.2 42.5,-294.2 54.5,-294.2 54.5,-275.2 42.5,-275.2"/>
<text text-anchor="start" x="45.4431" y="-281.3" font-family="Helvetica,sans-Serif" font-size="11.00" fill="#000000"> &#160;</text>
<polygon fill="#ffffff" stroke="transparent" points="54.5,-275.2 54.5,-294.2 92.5,-294.2 92.5,-275.2 54.5,-275.2"/>
<polygon fill="none" stroke="#000000" points="54.5,-275.2 54.5,-294.2 92.5,-294.2 92.5,-275.2 54.5,-275.2"/>
<text text-anchor="start" x="57.3053" y="-281.3" font-family="Helvetica,sans-Serif" font-size="11.00" fill="#000000">0 rows</text>
<polygon fill="#ffffff" stroke="transparent" points="92.5,-275.2 92.5,-294.2 113.5,-294.2 113.5,-275.2 92.5,-275.2"/>
<polygon fill="none" stroke="#000000" points="92.5,-275.2 92.5,-294.2 113.5,-294.2 113.5,-275.2 92.5,-275.2"/>
<text text-anchor="start" x="95.2027" y="-281.3" font-family="Helvetica,sans-Serif" font-size="11.00" fill="#000000">2 &gt;</text>
</a>
</g>
</g>
<!-- subscriptions&#45;&gt;users -->
<g id="edge5" class="edge">
<title>subscriptions:w&#45;&gt;users:e</title>
<path fill="none" stroke="#000000" d="M181.6936,-245.6264C151.8573,-256.8514 153.3481,-303.2 113.5,-303.2"/>
<polygon fill="#000000" stroke="#000000" points="188.1126,-244.5378 196.602,-246.7493 192.0563,-243.8689 196,-243.2 196,-243.2 196,-243.2 192.0563,-243.8689 195.398,-239.6507 188.1126,-244.5378 188.1126,-244.5378"/>
<ellipse fill="none" stroke="#000000" cx="184.9577" cy="-245.0729" rx="3.2" ry="3.2"/>
</g>
</g>
</svg>
