<?xml version="1.0" encoding="UTF-8" standalone="no"?>
<!DOCTYPE svg PUBLIC "-//W3C//DTD SVG 1.1//EN"
 "http://www.w3.org/Graphics/SVG/1.1/DTD/svg11.dtd">
<!-- Generated by graphviz version 2.40.1 (20161225.0304)
 -->
<!-- Title: oneDegreeRelationshipsDiagram Pages: 1 -->
<svg width="395pt" height="206pt"
 viewBox="0.00 0.00 395.00 206.20" xmlns="http://www.w3.org/2000/svg" xmlns:xlink="http://www.w3.org/1999/xlink">
<g id="graph0" class="graph" transform="scale(1 1) rotate(0) translate(4 202.2)">
<title>oneDegreeRelationshipsDiagram</title>
<polygon fill="#ffffff" stroke="transparent" points="-4,4 -4,-202.2 391,-202.2 391,4 -4,4"/>
<text text-anchor="middle" x="72.4936" y="-7.3" font-family="Helvetica,sans-Serif" font-size="11.00" fill="#000000">Generated by SchemaSpy</text>
<!-- model_has_roles -->
<g id="node1" class="node">
<title>model_has_roles</title>
<g id="a_node1"><a xlink:href="../../tables/model_has_roles.html" xlink:title="model_has_roles" target="_top">
<polygon fill="#ffffff" stroke="transparent" points="253,-84.2 253,-192.2 379,-192.2 379,-84.2 253,-84.2"/>
<polygon fill="#f5f5f5" stroke="transparent" points="253,-169.2 253,-192.2 379,-192.2 379,-169.2 253,-169.2"/>
<polygon fill="none" stroke="#000000" points="253,-169.2 253,-192.2 379,-192.2 379,-169.2 253,-169.2"/>
<text text-anchor="start" x="257.6302" y="-178.3" font-family="Helvetica,sans-Serif" font-weight="bold" font-size="11.00" fill="#000000">model_has_roles</text>
<text text-anchor="start" x="344.5219" y="-177.3" font-family="Helvetica,sans-Serif" font-size="11.00" fill="#000000">[table]</text>
<polygon fill="none" stroke="#000000" points="253,-147.2 253,-169.2 379,-169.2 379,-147.2 253,-147.2"/>
<image xlink:href="../../images/primaryKeys.png" width="11px" height="12px" preserveAspectRatio="xMinYMin meet" x="258" y="-164.2"/>
<text text-anchor="start" x="277" y="-154.3" font-family="Helvetica,sans-Serif" font-size="11.00" fill="#000000">role_id</text>
<polygon fill="none" stroke="#000000" points="253,-125.2 253,-147.2 379,-147.2 379,-125.2 253,-125.2"/>
<image xlink:href="../../images/primaryKeys.png" width="11px" height="12px" preserveAspectRatio="xMinYMin meet" x="258" y="-142.2"/>
<text text-anchor="start" x="277" y="-132.3" font-family="Helvetica,sans-Serif" font-size="11.00" fill="#000000">model_type</text>
<polygon fill="none" stroke="#000000" points="253,-103.2 253,-125.2 379,-125.2 379,-103.2 253,-103.2"/>
<image xlink:href="../../images/primaryKeys.png" width="11px" height="12px" preserveAspectRatio="xMinYMin meet" x="258" y="-120.2"/>
<text text-anchor="start" x="277" y="-110.3" font-family="Helvetica,sans-Serif" font-size="11.00" fill="#000000">model_id</text>
<polygon fill="#ffffff" stroke="transparent" points="253,-84.2 253,-103.2 301,-103.2 301,-84.2 253,-84.2"/>
<polygon fill="none" stroke="#000000" points="253,-84.2 253,-103.2 301,-103.2 301,-84.2 253,-84.2"/>
<text text-anchor="start" x="256" y="-90.3" font-family="Helvetica,sans-Serif" font-size="11.00" fill="#000000">&lt; 1</text>
<polygon fill="#ffffff" stroke="transparent" points="301,-84.2 301,-103.2 353,-103.2 353,-84.2 301,-84.2"/>
<polygon fill="none" stroke="#000000" points="301,-84.2 301,-103.2 353,-103.2 353,-84.2 301,-84.2"/>
<text text-anchor="start" x="317.6105" y="-90.3" font-family="Helvetica,sans-Serif" font-size="11.00" fill="#000000">0 rows</text>
<polygon fill="#ffffff" stroke="transparent" points="353,-84.2 353,-103.2 379,-103.2 379,-84.2 353,-84.2"/>
<polygon fill="none" stroke="#000000" points="353,-84.2 353,-103.2 379,-103.2 379,-84.2 353,-84.2"/>
<text text-anchor="start" x="369.8862" y="-90.3" font-family="Helvetica,sans-Serif" font-size="11.00" fill="#000000"> &#160;</text>
</a>
</g>
</g>
<!-- roles -->
<g id="node2" class="node">
<title>roles</title>
<g id="a_node2"><a xlink:href="../../tables/roles.html" xlink:title="roles" target="_top">
<polygon fill="#ffffff" stroke="transparent" points="8,-38.2 8,-194.2 204,-194.2 204,-38.2 8,-38.2"/>
<polygon fill="#f5f5f5" stroke="transparent" points="10,-169.2 10,-192.2 202,-192.2 202,-169.2 10,-169.2"/>
<polygon fill="none" stroke="#000000" points="10,-169.2 10,-192.2 202,-192.2 202,-169.2 10,-169.2"/>
<text text-anchor="start" x="15" y="-178.3" font-family="Helvetica,sans-Serif" font-weight="bold" font-size="11.00" fill="#000000">roles</text>
<text text-anchor="start" x="167.0437" y="-177.3" font-family="Helvetica,sans-Serif" font-size="11.00" fill="#000000">[table]</text>
<polygon fill="none" stroke="#000000" points="10,-147.2 10,-169.2 104,-169.2 104,-147.2 10,-147.2"/>
<image xlink:href="../../images/primaryKeys.png" width="11px" height="12px" preserveAspectRatio="xMinYMin meet" x="15" y="-164.2"/>
<text text-anchor="start" x="30" y="-154.3" font-family="Helvetica,sans-Serif" font-size="11.00" fill="#000000">id</text>
<polygon fill="none" stroke="#000000" points="104,-147.2 104,-169.2 202,-169.2 202,-147.2 104,-147.2"/>
<text text-anchor="start" x="106.8429" y="-154.9" font-family="Helvetica,sans-Serif" font-size="11.00" fill="#000000">bigint unsigned[20]</text>
<polygon fill="none" stroke="#000000" points="10,-125.2 10,-147.2 104,-147.2 104,-125.2 10,-125.2"/>
<text text-anchor="start" x="30" y="-132.3" font-family="Helvetica,sans-Serif" font-size="11.00" fill="#000000">name</text>
<polygon fill="none" stroke="#000000" points="104,-125.2 104,-147.2 202,-147.2 202,-125.2 104,-125.2"/>
<text text-anchor="start" x="107" y="-132.9" font-family="Helvetica,sans-Serif" font-size="11.00" fill="#000000">varchar[45]</text>
<polygon fill="none" stroke="#000000" points="10,-103.2 10,-125.2 104,-125.2 104,-103.2 10,-103.2"/>
<text text-anchor="start" x="30" y="-110.3" font-family="Helvetica,sans-Serif" font-size="11.00" fill="#000000">access_level</text>
<polygon fill="none" stroke="#000000" points="104,-103.2 104,-125.2 202,-125.2 202,-103.2 104,-103.2"/>
<text text-anchor="start" x="107" y="-110.9" font-family="Helvetica,sans-Serif" font-size="11.00" fill="#000000">int[10]</text>
<polygon fill="none" stroke="#000000" points="10,-81.2 10,-103.2 104,-103.2 104,-81.2 10,-81.2"/>
<text text-anchor="start" x="30" y="-88.3" font-family="Helvetica,sans-Serif" font-size="11.00" fill="#000000">created_at</text>
<polygon fill="none" stroke="#000000" points="104,-81.2 104,-103.2 202,-103.2 202,-81.2 104,-81.2"/>
<text text-anchor="start" x="107" y="-88.9" font-family="Helvetica,sans-Serif" font-size="11.00" fill="#000000">timestamp[19]</text>
<polygon fill="none" stroke="#000000" points="10,-59.2 10,-81.2 104,-81.2 104,-59.2 10,-59.2"/>
<text text-anchor="start" x="30" y="-66.3" font-family="Helvetica,sans-Serif" font-size="11.00" fill="#000000">updated_at</text>
<polygon fill="none" stroke="#000000" points="104,-59.2 104,-81.2 202,-81.2 202,-59.2 104,-59.2"/>
<text text-anchor="start" x="107" y="-66.9" font-family="Helvetica,sans-Serif" font-size="11.00" fill="#000000">timestamp[19]</text>
<polygon fill="#ffffff" stroke="transparent" points="10,-40.2 10,-59.2 48,-59.2 48,-40.2 10,-40.2"/>
<polygon fill="none" stroke="#000000" points="10,-40.2 10,-59.2 48,-59.2 48,-40.2 10,-40.2"/>
<text text-anchor="start" x="13" y="-46.3" font-family="Helvetica,sans-Serif" font-size="11.00" fill="#000000">&lt; 0</text>
<polygon fill="#ffffff" stroke="transparent" points="48,-40.2 48,-59.2 104,-59.2 104,-40.2 48,-40.2"/>
<polygon fill="none" stroke="#000000" points="48,-40.2 48,-59.2 104,-59.2 104,-40.2 48,-40.2"/>
<text text-anchor="start" x="68.6105" y="-46.3" font-family="Helvetica,sans-Serif" font-size="11.00" fill="#000000">0 rows</text>
<polygon fill="#ffffff" stroke="transparent" points="104,-40.2 104,-59.2 202,-59.2 202,-40.2 104,-40.2"/>
<polygon fill="none" stroke="#000000" points="104,-40.2 104,-59.2 202,-59.2 202,-40.2 104,-40.2"/>
<text text-anchor="start" x="183.4053" y="-46.3" font-family="Helvetica,sans-Serif" font-size="11.00" fill="#000000">1 &gt;</text>
<polygon fill="none" stroke="#000000" stroke-width="2" points="9,-39.2 9,-193.2 203,-193.2 203,-39.2 9,-39.2"/>
</a>
</g>
</g>
<!-- model_has_roles&#45;&gt;roles -->
<g id="edge1" class="edge">
<title>model_has_roles:w&#45;&gt;roles:e</title>
<path fill="none" stroke="#000000" d="M238.276,-158.2C226.2815,-158.2 218.8229,-158.2 202,-158.2"/>
<polygon fill="#000000" stroke="#000000" points="245,-158.2001 253,-161.8 249,-158.2 253,-158.2 253,-158.2 253,-158.2 249,-158.2 253,-154.6 245,-158.2001 245,-158.2001"/>
<ellipse fill="none" stroke="#000000" cx="241.8" cy="-158.2001" rx="3.2" ry="3.2"/>
</g>
</g>
</svg>
