<?xml version="1.0" encoding="UTF-8" standalone="no"?>
<!DOCTYPE svg PUBLIC "-//W3C//DTD SVG 1.1//EN"
 "http://www.w3.org/Graphics/SVG/1.1/DTD/svg11.dtd">
<!-- Generated by graphviz version 2.40.1 (20161225.0304)
 -->
<!-- Title: oneDegreeRelationshipsDiagram Pages: 1 -->
<svg width="562pt" height="391pt"
 viewBox="0.00 0.00 562.00 391.20" xmlns="http://www.w3.org/2000/svg" xmlns:xlink="http://www.w3.org/1999/xlink">
<g id="graph0" class="graph" transform="scale(1 1) rotate(0) translate(4 387.2)">
<title>oneDegreeRelationshipsDiagram</title>
<polygon fill="#ffffff" stroke="transparent" points="-4,4 -4,-387.2 558,-387.2 558,4 -4,4"/>
<text text-anchor="middle" x="72.4936" y="-7.3" font-family="Helvetica,sans-Serif" font-size="11.00" fill="#000000">Generated by SchemaSpy</text>
<!-- gymnast_has_skills -->
<g id="node1" class="node">
<title>gymnast_has_skills</title>
<g id="a_node1"><a xlink:href="../../tables/gymnast_has_skills.html" xlink:title="gymnast_has_skills" target="_top">
<polygon fill="#ffffff" stroke="transparent" points="408,-274.2 408,-379.2 546,-379.2 546,-274.2 408,-274.2"/>
<polygon fill="#f5f5f5" stroke="transparent" points="408,-355.7 408,-378.7 546,-378.7 546,-355.7 408,-355.7"/>
<polygon fill="none" stroke="#000000" points="408,-355.7 408,-378.7 546,-378.7 546,-355.7 408,-355.7"/>
<text text-anchor="start" x="412.8271" y="-364.8" font-family="Helvetica,sans-Serif" font-weight="bold" font-size="11.00" fill="#000000">gymnast_has_skills</text>
<text text-anchor="start" x="511.5219" y="-363.8" font-family="Helvetica,sans-Serif" font-size="11.00" fill="#000000">[table]</text>
<polygon fill="none" stroke="#000000" points="408,-333.7 408,-355.7 546,-355.7 546,-333.7 408,-333.7"/>
<image xlink:href="../../images/primaryKeys.png" width="11px" height="12px" preserveAspectRatio="xMinYMin meet" x="413" y="-350.7"/>
<text text-anchor="start" x="430" y="-340.8" font-family="Helvetica,sans-Serif" font-size="11.00" fill="#000000">gymnast_id</text>
<polygon fill="none" stroke="#000000" points="408,-311.7 408,-333.7 546,-333.7 546,-311.7 408,-311.7"/>
<image xlink:href="../../images/primaryKeys.png" width="11px" height="12px" preserveAspectRatio="xMinYMin meet" x="413" y="-328.7"/>
<text text-anchor="start" x="430" y="-318.8" font-family="Helvetica,sans-Serif" font-size="11.00" fill="#000000">skills_Id</text>
<polygon fill="none" stroke="#000000" points="408,-292.7 408,-311.7 546,-311.7 546,-292.7 408,-292.7"/>
<text text-anchor="start" x="411" y="-298.8" font-family="Helvetica,sans-Serif" font-size="11.00" fill="#000000">...</text>
<polygon fill="#ffffff" stroke="transparent" points="408,-273.7 408,-292.7 462,-292.7 462,-273.7 408,-273.7"/>
<polygon fill="none" stroke="#000000" points="408,-273.7 408,-292.7 462,-292.7 462,-273.7 408,-273.7"/>
<text text-anchor="start" x="411" y="-279.8" font-family="Helvetica,sans-Serif" font-size="11.00" fill="#000000">&lt; 2</text>
<polygon fill="#ffffff" stroke="transparent" points="462,-273.7 462,-292.7 517,-292.7 517,-273.7 462,-273.7"/>
<polygon fill="none" stroke="#000000" points="462,-273.7 462,-292.7 517,-292.7 517,-273.7 462,-273.7"/>
<text text-anchor="start" x="481.6105" y="-279.8" font-family="Helvetica,sans-Serif" font-size="11.00" fill="#000000">0 rows</text>
<polygon fill="#ffffff" stroke="transparent" points="517,-273.7 517,-292.7 546,-292.7 546,-273.7 517,-273.7"/>
<polygon fill="none" stroke="#000000" points="517,-273.7 517,-292.7 546,-292.7 546,-273.7 517,-273.7"/>
<text text-anchor="start" x="536.8862" y="-279.8" font-family="Helvetica,sans-Serif" font-size="11.00" fill="#000000"> &#160;</text>
</a>
</g>
</g>
<!-- skills -->
<g id="node2" class="node">
<title>skills</title>
<g id="a_node2"><a xlink:href="../../tables/skills.html" xlink:title="skills" target="_top">
<polygon fill="#ffffff" stroke="transparent" points="150,-136.7 150,-358.7 359,-358.7 359,-136.7 150,-136.7"/>
<polygon fill="#f5f5f5" stroke="transparent" points="152.5,-333.7 152.5,-356.7 357.5,-356.7 357.5,-333.7 152.5,-333.7"/>
<polygon fill="none" stroke="#000000" points="152.5,-333.7 152.5,-356.7 357.5,-356.7 357.5,-333.7 152.5,-333.7"/>
<text text-anchor="start" x="157.5" y="-342.8" font-family="Helvetica,sans-Serif" font-weight="bold" font-size="11.00" fill="#000000">skills</text>
<text text-anchor="start" x="322.5437" y="-341.8" font-family="Helvetica,sans-Serif" font-size="11.00" fill="#000000">[table]</text>
<polygon fill="none" stroke="#000000" points="152.5,-311.7 152.5,-333.7 240.5,-333.7 240.5,-311.7 152.5,-311.7"/>
<image xlink:href="../../images/primaryKeys.png" width="11px" height="12px" preserveAspectRatio="xMinYMin meet" x="157.5" y="-328.7"/>
<text text-anchor="start" x="172.5" y="-318.8" font-family="Helvetica,sans-Serif" font-size="11.00" fill="#000000">id</text>
<polygon fill="none" stroke="#000000" points="240.5,-311.7 240.5,-333.7 357.5,-333.7 357.5,-311.7 240.5,-311.7"/>
<text text-anchor="start" x="243.5" y="-319.4" font-family="Helvetica,sans-Serif" font-size="11.00" fill="#000000">bigint unsigned[20]</text>
<polygon fill="none" stroke="#000000" points="152.5,-289.7 152.5,-311.7 240.5,-311.7 240.5,-289.7 152.5,-289.7"/>
<text text-anchor="start" x="172.5" y="-296.8" font-family="Helvetica,sans-Serif" font-size="11.00" fill="#000000">name</text>
<polygon fill="none" stroke="#000000" points="240.5,-289.7 240.5,-311.7 357.5,-311.7 357.5,-289.7 240.5,-289.7"/>
<text text-anchor="start" x="243.5" y="-297.4" font-family="Helvetica,sans-Serif" font-size="11.00" fill="#000000">varchar[45]</text>
<polygon fill="none" stroke="#000000" points="152.5,-267.7 152.5,-289.7 240.5,-289.7 240.5,-267.7 152.5,-267.7"/>
<text text-anchor="start" x="172.5" y="-274.8" font-family="Helvetica,sans-Serif" font-size="11.00" fill="#000000">description</text>
<polygon fill="none" stroke="#000000" points="240.5,-267.7 240.5,-289.7 357.5,-289.7 357.5,-267.7 240.5,-267.7"/>
<text text-anchor="start" x="243.0645" y="-275.4" font-family="Helvetica,sans-Serif" font-size="11.00" fill="#000000">mediumtext[16777215]</text>
<polygon fill="none" stroke="#000000" points="152.5,-245.7 152.5,-267.7 240.5,-267.7 240.5,-245.7 152.5,-245.7"/>
<text text-anchor="start" x="172.5" y="-252.8" font-family="Helvetica,sans-Serif" font-size="11.00" fill="#000000">category</text>
<polygon fill="none" stroke="#000000" points="240.5,-245.7 240.5,-267.7 357.5,-267.7 357.5,-245.7 240.5,-245.7"/>
<text text-anchor="start" x="243.5" y="-253.4" font-family="Helvetica,sans-Serif" font-size="11.00" fill="#000000">varchar[45]</text>
<polygon fill="none" stroke="#000000" points="152.5,-223.7 152.5,-245.7 240.5,-245.7 240.5,-223.7 152.5,-223.7"/>
<text text-anchor="start" x="172.5" y="-230.8" font-family="Helvetica,sans-Serif" font-size="11.00" fill="#000000">certificate</text>
<polygon fill="none" stroke="#000000" points="240.5,-223.7 240.5,-245.7 357.5,-245.7 357.5,-223.7 240.5,-223.7"/>
<text text-anchor="start" x="243.5" y="-231.4" font-family="Helvetica,sans-Serif" font-size="11.00" fill="#000000">bit[1]</text>
<polygon fill="#ffffff" stroke="transparent" points="152.5,-201.7 152.5,-223.7 240.5,-223.7 240.5,-201.7 152.5,-201.7"/>
<polygon fill="none" stroke="#000000" points="152.5,-201.7 152.5,-223.7 240.5,-223.7 240.5,-201.7 152.5,-201.7"/>
<image xlink:href="../../images/foreignKeys.png" width="11px" height="12px" preserveAspectRatio="xMinYMin meet" x="157.5" y="-218.7"/>
<text text-anchor="start" x="172.5" y="-208.8" font-family="Helvetica,sans-Serif" font-size="11.00" fill="#000000">event_id</text>
<polygon fill="none" stroke="#000000" points="240.5,-201.7 240.5,-223.7 357.5,-223.7 357.5,-201.7 240.5,-201.7"/>
<text text-anchor="start" x="243.5" y="-209.4" font-family="Helvetica,sans-Serif" font-size="11.00" fill="#000000">bigint[19]</text>
<polygon fill="#ffffff" stroke="transparent" points="152.5,-179.7 152.5,-201.7 240.5,-201.7 240.5,-179.7 152.5,-179.7"/>
<polygon fill="none" stroke="#000000" points="152.5,-179.7 152.5,-201.7 240.5,-201.7 240.5,-179.7 152.5,-179.7"/>
<image xlink:href="../../images/foreignKeys.png" width="11px" height="12px" preserveAspectRatio="xMinYMin meet" x="157.5" y="-196.7"/>
<text text-anchor="start" x="172.5" y="-186.8" font-family="Helvetica,sans-Serif" font-size="11.00" fill="#000000">category_id</text>
<polygon fill="none" stroke="#000000" points="240.5,-179.7 240.5,-201.7 357.5,-201.7 357.5,-179.7 240.5,-179.7"/>
<text text-anchor="start" x="243.5" y="-187.4" font-family="Helvetica,sans-Serif" font-size="11.00" fill="#000000">bigint[19]</text>
<polygon fill="#ffffff" stroke="transparent" points="152.5,-157.7 152.5,-179.7 240.5,-179.7 240.5,-157.7 152.5,-157.7"/>
<polygon fill="none" stroke="#000000" points="152.5,-157.7 152.5,-179.7 240.5,-179.7 240.5,-157.7 152.5,-157.7"/>
<image xlink:href="../../images/foreignKeys.png" width="11px" height="12px" preserveAspectRatio="xMinYMin meet" x="157.5" y="-174.7"/>
<text text-anchor="start" x="172.5" y="-164.8" font-family="Helvetica,sans-Serif" font-size="11.00" fill="#000000">level_id</text>
<polygon fill="none" stroke="#000000" points="240.5,-157.7 240.5,-179.7 357.5,-179.7 357.5,-157.7 240.5,-157.7"/>
<text text-anchor="start" x="243.5" y="-165.4" font-family="Helvetica,sans-Serif" font-size="11.00" fill="#000000">bigint[19]</text>
<polygon fill="#ffffff" stroke="transparent" points="152.5,-138.7 152.5,-157.7 187.5,-157.7 187.5,-138.7 152.5,-138.7"/>
<polygon fill="none" stroke="#000000" points="152.5,-138.7 152.5,-157.7 187.5,-157.7 187.5,-138.7 152.5,-138.7"/>
<text text-anchor="start" x="155.5" y="-144.8" font-family="Helvetica,sans-Serif" font-size="11.00" fill="#000000">&lt; 3</text>
<polygon fill="#ffffff" stroke="transparent" points="187.5,-138.7 187.5,-157.7 240.5,-157.7 240.5,-138.7 187.5,-138.7"/>
<polygon fill="none" stroke="#000000" points="187.5,-138.7 187.5,-157.7 240.5,-157.7 240.5,-138.7 187.5,-138.7"/>
<text text-anchor="start" x="205.1105" y="-144.8" font-family="Helvetica,sans-Serif" font-size="11.00" fill="#000000">0 rows</text>
<polygon fill="#ffffff" stroke="transparent" points="240.5,-138.7 240.5,-157.7 357.5,-157.7 357.5,-138.7 240.5,-138.7"/>
<polygon fill="none" stroke="#000000" points="240.5,-138.7 240.5,-157.7 357.5,-157.7 357.5,-138.7 240.5,-138.7"/>
<text text-anchor="start" x="338.9053" y="-144.8" font-family="Helvetica,sans-Serif" font-size="11.00" fill="#000000">1 &gt;</text>
<polygon fill="none" stroke="#000000" stroke-width="2" points="151,-137.7 151,-357.7 358,-357.7 358,-137.7 151,-137.7"/>
</a>
</g>
</g>
<!-- gymnast_has_skills&#45;&gt;skills -->
<g id="edge1" class="edge">
<title>gymnast_has_skills:w&#45;&gt;skills:e</title>
<path fill="none" stroke="#000000" d="M393.4203,-322.7C381.5435,-322.7 374.158,-322.7 357.5,-322.7"/>
<polygon fill="#000000" stroke="#000000" points="400,-322.7001 408,-326.3 404,-322.7 408,-322.7 408,-322.7 408,-322.7 404,-322.7 408,-319.1 400,-322.7001 400,-322.7001"/>
<ellipse fill="none" stroke="#000000" cx="396.8" cy="-322.7001" rx="3.2" ry="3.2"/>
</g>
<!-- categories -->
<g id="node3" class="node">
<title>categories</title>
<g id="a_node3"><a xlink:href="../../tables/categories.html" xlink:title="categories" target="_top">
<polygon fill="#ffffff" stroke="transparent" points="8,-142.2 8,-225.2 101,-225.2 101,-142.2 8,-142.2"/>
<polygon fill="#f5f5f5" stroke="transparent" points="8.5,-201.7 8.5,-224.7 101.5,-224.7 101.5,-201.7 8.5,-201.7"/>
<polygon fill="none" stroke="#000000" points="8.5,-201.7 8.5,-224.7 101.5,-224.7 101.5,-201.7 8.5,-201.7"/>
<text text-anchor="start" x="13.1329" y="-210.8" font-family="Helvetica,sans-Serif" font-weight="bold" font-size="11.00" fill="#000000">categories</text>
<text text-anchor="start" x="67.0219" y="-209.8" font-family="Helvetica,sans-Serif" font-size="11.00" fill="#000000">[table]</text>
<polygon fill="none" stroke="#000000" points="8.5,-179.7 8.5,-201.7 101.5,-201.7 101.5,-179.7 8.5,-179.7"/>
<image xlink:href="../../images/primaryKeys.png" width="11px" height="12px" preserveAspectRatio="xMinYMin meet" x="13.5" y="-196.7"/>
<text text-anchor="start" x="32.5" y="-186.8" font-family="Helvetica,sans-Serif" font-size="11.00" fill="#000000">id</text>
<polygon fill="none" stroke="#000000" points="8.5,-160.7 8.5,-179.7 101.5,-179.7 101.5,-160.7 8.5,-160.7"/>
<text text-anchor="start" x="11.5" y="-166.8" font-family="Helvetica,sans-Serif" font-size="11.00" fill="#000000">...</text>
<polygon fill="#ffffff" stroke="transparent" points="8.5,-141.7 8.5,-160.7 31.5,-160.7 31.5,-141.7 8.5,-141.7"/>
<polygon fill="none" stroke="#000000" points="8.5,-141.7 8.5,-160.7 31.5,-160.7 31.5,-141.7 8.5,-141.7"/>
<text text-anchor="start" x="11.5" y="-147.8" font-family="Helvetica,sans-Serif" font-size="11.00" fill="#000000"> &#160;</text>
<polygon fill="#ffffff" stroke="transparent" points="31.5,-141.7 31.5,-160.7 74.5,-160.7 74.5,-141.7 31.5,-141.7"/>
<polygon fill="none" stroke="#000000" points="31.5,-141.7 31.5,-160.7 74.5,-160.7 74.5,-141.7 31.5,-141.7"/>
<text text-anchor="start" x="39.1105" y="-147.8" font-family="Helvetica,sans-Serif" font-size="11.00" fill="#000000">0 rows</text>
<polygon fill="#ffffff" stroke="transparent" points="74.5,-141.7 74.5,-160.7 101.5,-160.7 101.5,-141.7 74.5,-141.7"/>
<polygon fill="none" stroke="#000000" points="74.5,-141.7 74.5,-160.7 101.5,-160.7 101.5,-141.7 74.5,-141.7"/>
<text text-anchor="start" x="82.9053" y="-147.8" font-family="Helvetica,sans-Serif" font-size="11.00" fill="#000000">1 &gt;</text>
</a>
</g>
</g>
<!-- skills&#45;&gt;categories -->
<g id="edge2" class="edge">
<title>skills:w&#45;&gt;categories:e</title>
<path fill="none" stroke="#000000" d="M137.776,-190.7C125.7815,-190.7 118.3229,-190.7 101.5,-190.7"/>
<polygon fill="#000000" stroke="#000000" points="144.5,-190.7001 152.5,-194.3 148.5,-190.7 152.5,-190.7 152.5,-190.7 152.5,-190.7 148.5,-190.7 152.5,-187.1 144.5,-190.7001 144.5,-190.7001"/>
<ellipse fill="none" stroke="#000000" cx="141.3" cy="-190.7001" rx="3.2" ry="3.2"/>
</g>
<!-- events -->
<g id="node4" class="node">
<title>events</title>
<g id="a_node4"><a xlink:href="../../tables/events.html" xlink:title="events" target="_top">
<polygon fill="#ffffff" stroke="transparent" points="12,-246.2 12,-351.2 97,-351.2 97,-246.2 12,-246.2"/>
<polygon fill="#f5f5f5" stroke="transparent" points="12.5,-327.7 12.5,-350.7 97.5,-350.7 97.5,-327.7 12.5,-327.7"/>
<polygon fill="none" stroke="#000000" points="12.5,-327.7 12.5,-350.7 97.5,-350.7 97.5,-327.7 12.5,-327.7"/>
<text text-anchor="start" x="17.5" y="-336.8" font-family="Helvetica,sans-Serif" font-weight="bold" font-size="11.00" fill="#000000">events</text>
<text text-anchor="start" x="62.5437" y="-335.8" font-family="Helvetica,sans-Serif" font-size="11.00" fill="#000000">[table]</text>
<polygon fill="none" stroke="#000000" points="12.5,-305.7 12.5,-327.7 97.5,-327.7 97.5,-305.7 12.5,-305.7"/>
<image xlink:href="../../images/primaryKeys.png" width="11px" height="12px" preserveAspectRatio="xMinYMin meet" x="17.5" y="-322.7"/>
<text text-anchor="start" x="32.5" y="-312.8" font-family="Helvetica,sans-Serif" font-size="11.00" fill="#000000">id</text>
<polygon fill="#ffffff" stroke="transparent" points="12.5,-283.7 12.5,-305.7 97.5,-305.7 97.5,-283.7 12.5,-283.7"/>
<polygon fill="none" stroke="#000000" points="12.5,-283.7 12.5,-305.7 97.5,-305.7 97.5,-283.7 12.5,-283.7"/>
<image xlink:href="../../images/foreignKeys.png" width="11px" height="12px" preserveAspectRatio="xMinYMin meet" x="17.5" y="-300.7"/>
<text text-anchor="start" x="32.5" y="-290.8" font-family="Helvetica,sans-Serif" font-size="11.00" fill="#000000">gym_id</text>
<polygon fill="none" stroke="#000000" points="12.5,-264.7 12.5,-283.7 97.5,-283.7 97.5,-264.7 12.5,-264.7"/>
<text text-anchor="start" x="15.5" y="-270.8" font-family="Helvetica,sans-Serif" font-size="11.00" fill="#000000">...</text>
<polygon fill="#ffffff" stroke="transparent" points="12.5,-245.7 12.5,-264.7 35.5,-264.7 35.5,-245.7 12.5,-245.7"/>
<polygon fill="none" stroke="#000000" points="12.5,-245.7 12.5,-264.7 35.5,-264.7 35.5,-245.7 12.5,-245.7"/>
<text text-anchor="start" x="15.5" y="-251.8" font-family="Helvetica,sans-Serif" font-size="11.00" fill="#000000">&lt; 1</text>
<polygon fill="#ffffff" stroke="transparent" points="35.5,-245.7 35.5,-264.7 74.5,-264.7 74.5,-245.7 35.5,-245.7"/>
<polygon fill="none" stroke="#000000" points="35.5,-245.7 35.5,-264.7 74.5,-264.7 74.5,-245.7 35.5,-245.7"/>
<text text-anchor="start" x="39.1105" y="-251.8" font-family="Helvetica,sans-Serif" font-size="11.00" fill="#000000">0 rows</text>
<polygon fill="#ffffff" stroke="transparent" points="74.5,-245.7 74.5,-264.7 97.5,-264.7 97.5,-245.7 74.5,-245.7"/>
<polygon fill="none" stroke="#000000" points="74.5,-245.7 74.5,-264.7 97.5,-264.7 97.5,-245.7 74.5,-245.7"/>
<text text-anchor="start" x="78.9053" y="-251.8" font-family="Helvetica,sans-Serif" font-size="11.00" fill="#000000">1 &gt;</text>
</a>
</g>
</g>
<!-- skills&#45;&gt;events -->
<g id="edge3" class="edge">
<title>skills:w&#45;&gt;events:e</title>
<path fill="none" stroke="#000000" d="M138.3557,-216.4014C110.1369,-234.9279 143.8647,-316.7 97.5,-316.7"/>
<polygon fill="#000000" stroke="#000000" points="144.7606,-214.7254 153.4114,-216.1827 148.6303,-213.7127 152.5,-212.7 152.5,-212.7 152.5,-212.7 148.6303,-213.7127 151.5886,-209.2173 144.7606,-214.7254 144.7606,-214.7254"/>
<ellipse fill="none" stroke="#000000" cx="141.6649" cy="-215.5355" rx="3.2" ry="3.2"/>
</g>
<!-- levels -->
<g id="node5" class="node">
<title>levels</title>
<g id="a_node5"><a xlink:href="../../tables/levels.html" xlink:title="levels" target="_top">
<polygon fill="#ffffff" stroke="transparent" points="12,-38.2 12,-121.2 97,-121.2 97,-38.2 12,-38.2"/>
<polygon fill="#f5f5f5" stroke="transparent" points="12.5,-97.7 12.5,-120.7 97.5,-120.7 97.5,-97.7 12.5,-97.7"/>
<polygon fill="none" stroke="#000000" points="12.5,-97.7 12.5,-120.7 97.5,-120.7 97.5,-97.7 12.5,-97.7"/>
<text text-anchor="start" x="17.5" y="-106.8" font-family="Helvetica,sans-Serif" font-weight="bold" font-size="11.00" fill="#000000">levels</text>
<text text-anchor="start" x="62.5437" y="-105.8" font-family="Helvetica,sans-Serif" font-size="11.00" fill="#000000">[table]</text>
<polygon fill="none" stroke="#000000" points="12.5,-75.7 12.5,-97.7 97.5,-97.7 97.5,-75.7 12.5,-75.7"/>
<image xlink:href="../../images/primaryKeys.png" width="11px" height="12px" preserveAspectRatio="xMinYMin meet" x="17.5" y="-92.7"/>
<text text-anchor="start" x="32.5" y="-82.8" font-family="Helvetica,sans-Serif" font-size="11.00" fill="#000000">id</text>
<polygon fill="none" stroke="#000000" points="12.5,-56.7 12.5,-75.7 97.5,-75.7 97.5,-56.7 12.5,-56.7"/>
<text text-anchor="start" x="15.5" y="-62.8" font-family="Helvetica,sans-Serif" font-size="11.00" fill="#000000">...</text>
<polygon fill="#ffffff" stroke="transparent" points="12.5,-37.7 12.5,-56.7 31.5,-56.7 31.5,-37.7 12.5,-37.7"/>
<polygon fill="none" stroke="#000000" points="12.5,-37.7 12.5,-56.7 31.5,-56.7 31.5,-37.7 12.5,-37.7"/>
<text text-anchor="start" x="15.5" y="-43.8" font-family="Helvetica,sans-Serif" font-size="11.00" fill="#000000"> &#160;</text>
<polygon fill="#ffffff" stroke="transparent" points="31.5,-37.7 31.5,-56.7 72.5,-56.7 72.5,-37.7 31.5,-37.7"/>
<polygon fill="none" stroke="#000000" points="31.5,-37.7 31.5,-56.7 72.5,-56.7 72.5,-37.7 31.5,-37.7"/>
<text text-anchor="start" x="37.1105" y="-43.8" font-family="Helvetica,sans-Serif" font-size="11.00" fill="#000000">0 rows</text>
<polygon fill="#ffffff" stroke="transparent" points="72.5,-37.7 72.5,-56.7 97.5,-56.7 97.5,-37.7 72.5,-37.7"/>
<polygon fill="none" stroke="#000000" points="72.5,-37.7 72.5,-56.7 97.5,-56.7 97.5,-37.7 72.5,-37.7"/>
<text text-anchor="start" x="78.9053" y="-43.8" font-family="Helvetica,sans-Serif" font-size="11.00" fill="#000000">1 &gt;</text>
</a>
</g>
</g>
<!-- skills&#45;&gt;levels -->
<g id="edge4" class="edge">
<title>skills:w&#45;&gt;levels:e</title>
<path fill="none" stroke="#000000" d="M138.4075,-164.5209C116.1437,-147.8109 135.3835,-86.7 97.5,-86.7"/>
<polygon fill="#000000" stroke="#000000" points="144.8301,-166.4255 151.4765,-172.1514 148.6651,-167.5627 152.5,-168.7 152.5,-168.7 152.5,-168.7 148.6651,-167.5627 153.5235,-165.2486 144.8301,-166.4255 144.8301,-166.4255"/>
<ellipse fill="none" stroke="#000000" cx="141.7622" cy="-165.5157" rx="3.2" ry="3.2"/>
</g>
</g>
</svg>
