<?xml version="1.0" encoding="UTF-8" standalone="no"?>
<!DOCTYPE svg PUBLIC "-//W3C//DTD SVG 1.1//EN"
 "http://www.w3.org/Graphics/SVG/1.1/DTD/svg11.dtd">
<!-- Generated by graphviz version 2.40.1 (20161225.0304)
 -->
<!-- Title: twoDegreesRelationshipsDiagram Pages: 1 -->
<svg width="671pt" height="393pt"
 viewBox="0.00 0.00 671.00 393.20" xmlns="http://www.w3.org/2000/svg" xmlns:xlink="http://www.w3.org/1999/xlink">
<g id="graph0" class="graph" transform="scale(1 1) rotate(0) translate(4 389.2)">
<title>twoDegreesRelationshipsDiagram</title>
<polygon fill="#ffffff" stroke="transparent" points="-4,4 -4,-389.2 667,-389.2 667,4 -4,4"/>
<text text-anchor="middle" x="72.4936" y="-7.3" font-family="Helvetica,sans-Serif" font-size="11.00" fill="#000000">Generated by SchemaSpy</text>
<!-- events -->
<g id="node1" class="node">
<title>events</title>
<g id="a_node1"><a xlink:href="../../tables/events.html" xlink:title="events" target="_top">
<polygon fill="#ffffff" stroke="transparent" points="128,-82.2 128,-187.2 213,-187.2 213,-82.2 128,-82.2"/>
<polygon fill="#f5f5f5" stroke="transparent" points="128.5,-163.7 128.5,-186.7 213.5,-186.7 213.5,-163.7 128.5,-163.7"/>
<polygon fill="none" stroke="#000000" points="128.5,-163.7 128.5,-186.7 213.5,-186.7 213.5,-163.7 128.5,-163.7"/>
<text text-anchor="start" x="133.5" y="-172.8" font-family="Helvetica,sans-Serif" font-weight="bold" font-size="11.00" fill="#000000">events</text>
<text text-anchor="start" x="178.5437" y="-171.8" font-family="Helvetica,sans-Serif" font-size="11.00" fill="#000000">[table]</text>
<polygon fill="none" stroke="#000000" points="128.5,-141.7 128.5,-163.7 213.5,-163.7 213.5,-141.7 128.5,-141.7"/>
<image xlink:href="../../images/primaryKeys.png" width="11px" height="12px" preserveAspectRatio="xMinYMin meet" x="133.5" y="-158.7"/>
<text text-anchor="start" x="148.5" y="-148.8" font-family="Helvetica,sans-Serif" font-size="11.00" fill="#000000">id</text>
<polygon fill="#ffffff" stroke="transparent" points="128.5,-119.7 128.5,-141.7 213.5,-141.7 213.5,-119.7 128.5,-119.7"/>
<polygon fill="none" stroke="#000000" points="128.5,-119.7 128.5,-141.7 213.5,-141.7 213.5,-119.7 128.5,-119.7"/>
<image xlink:href="../../images/foreignKeys.png" width="11px" height="12px" preserveAspectRatio="xMinYMin meet" x="133.5" y="-136.7"/>
<text text-anchor="start" x="148.5" y="-126.8" font-family="Helvetica,sans-Serif" font-size="11.00" fill="#000000">gym_id</text>
<polygon fill="none" stroke="#000000" points="128.5,-100.7 128.5,-119.7 213.5,-119.7 213.5,-100.7 128.5,-100.7"/>
<text text-anchor="start" x="131.5" y="-106.8" font-family="Helvetica,sans-Serif" font-size="11.00" fill="#000000">...</text>
<polygon fill="#ffffff" stroke="transparent" points="128.5,-81.7 128.5,-100.7 151.5,-100.7 151.5,-81.7 128.5,-81.7"/>
<polygon fill="none" stroke="#000000" points="128.5,-81.7 128.5,-100.7 151.5,-100.7 151.5,-81.7 128.5,-81.7"/>
<text text-anchor="start" x="131.5" y="-87.8" font-family="Helvetica,sans-Serif" font-size="11.00" fill="#000000">&lt; 1</text>
<polygon fill="#ffffff" stroke="transparent" points="151.5,-81.7 151.5,-100.7 190.5,-100.7 190.5,-81.7 151.5,-81.7"/>
<polygon fill="none" stroke="#000000" points="151.5,-81.7 151.5,-100.7 190.5,-100.7 190.5,-81.7 151.5,-81.7"/>
<text text-anchor="start" x="155.1105" y="-87.8" font-family="Helvetica,sans-Serif" font-size="11.00" fill="#000000">0 rows</text>
<polygon fill="#ffffff" stroke="transparent" points="190.5,-81.7 190.5,-100.7 213.5,-100.7 213.5,-81.7 190.5,-81.7"/>
<polygon fill="none" stroke="#000000" points="190.5,-81.7 190.5,-100.7 213.5,-100.7 213.5,-81.7 190.5,-81.7"/>
<text text-anchor="start" x="194.9053" y="-87.8" font-family="Helvetica,sans-Serif" font-size="11.00" fill="#000000">1 &gt;</text>
</a>
</g>
</g>
<!-- gyms -->
<g id="node2" class="node">
<title>gyms</title>
<g id="a_node2"><a xlink:href="../../tables/gyms.html" xlink:title="gyms" target="_top">
<polygon fill="#ffffff" stroke="transparent" points="8,-103.2 8,-164.2 79,-164.2 79,-103.2 8,-103.2"/>
<polygon fill="#f5f5f5" stroke="transparent" points="8.5,-140.7 8.5,-163.7 79.5,-163.7 79.5,-140.7 8.5,-140.7"/>
<polygon fill="none" stroke="#000000" points="8.5,-140.7 8.5,-163.7 79.5,-163.7 79.5,-140.7 8.5,-140.7"/>
<text text-anchor="start" x="13.5" y="-149.8" font-family="Helvetica,sans-Serif" font-weight="bold" font-size="11.00" fill="#000000">gyms</text>
<text text-anchor="start" x="44.5437" y="-148.8" font-family="Helvetica,sans-Serif" font-size="11.00" fill="#000000">[table]</text>
<polygon fill="none" stroke="#000000" points="8.5,-121.7 8.5,-140.7 79.5,-140.7 79.5,-121.7 8.5,-121.7"/>
<text text-anchor="start" x="11.5" y="-127.8" font-family="Helvetica,sans-Serif" font-size="11.00" fill="#000000">...</text>
<polygon fill="#ffffff" stroke="transparent" points="8.5,-102.7 8.5,-121.7 20.5,-121.7 20.5,-102.7 8.5,-102.7"/>
<polygon fill="none" stroke="#000000" points="8.5,-102.7 8.5,-121.7 20.5,-121.7 20.5,-102.7 8.5,-102.7"/>
<text text-anchor="start" x="11.4431" y="-108.8" font-family="Helvetica,sans-Serif" font-size="11.00" fill="#000000"> &#160;</text>
<polygon fill="#ffffff" stroke="transparent" points="20.5,-102.7 20.5,-121.7 58.5,-121.7 58.5,-102.7 20.5,-102.7"/>
<polygon fill="none" stroke="#000000" points="20.5,-102.7 20.5,-121.7 58.5,-121.7 58.5,-102.7 20.5,-102.7"/>
<text text-anchor="start" x="23.3053" y="-108.8" font-family="Helvetica,sans-Serif" font-size="11.00" fill="#000000">0 rows</text>
<polygon fill="#ffffff" stroke="transparent" points="58.5,-102.7 58.5,-121.7 79.5,-121.7 79.5,-102.7 58.5,-102.7"/>
<polygon fill="none" stroke="#000000" points="58.5,-102.7 58.5,-121.7 79.5,-121.7 79.5,-102.7 58.5,-102.7"/>
<text text-anchor="start" x="61.2027" y="-108.8" font-family="Helvetica,sans-Serif" font-size="11.00" fill="#000000">2 &gt;</text>
</a>
</g>
</g>
<!-- events&#45;&gt;gyms -->
<g id="edge1" class="edge">
<title>events:w&#45;&gt;gyms:e</title>
<path fill="none" stroke="#000000" d="M113.9909,-130.7C102.6774,-130.7 95.4931,-130.7 79.5,-130.7"/>
<polygon fill="#000000" stroke="#000000" points="120.5,-130.7001 128.5,-134.3 124.5,-130.7 128.5,-130.7 128.5,-130.7 128.5,-130.7 124.5,-130.7 128.5,-127.1 120.5,-130.7001 120.5,-130.7001"/>
<ellipse fill="none" stroke="#000000" cx="117.3" cy="-130.7001" rx="3.2" ry="3.2"/>
</g>
<!-- gymnast_has_skills -->
<g id="node3" class="node">
<title>gymnast_has_skills</title>
<g id="a_node3"><a xlink:href="../../tables/gymnast_has_skills.html" xlink:title="gymnast_has_skills" target="_top">
<polygon fill="#ffffff" stroke="transparent" points="517,-245.2 517,-350.2 655,-350.2 655,-245.2 517,-245.2"/>
<polygon fill="#f5f5f5" stroke="transparent" points="517,-326.7 517,-349.7 655,-349.7 655,-326.7 517,-326.7"/>
<polygon fill="none" stroke="#000000" points="517,-326.7 517,-349.7 655,-349.7 655,-326.7 517,-326.7"/>
<text text-anchor="start" x="521.8271" y="-335.8" font-family="Helvetica,sans-Serif" font-weight="bold" font-size="11.00" fill="#000000">gymnast_has_skills</text>
<text text-anchor="start" x="620.5219" y="-334.8" font-family="Helvetica,sans-Serif" font-size="11.00" fill="#000000">[table]</text>
<polygon fill="none" stroke="#000000" points="517,-304.7 517,-326.7 655,-326.7 655,-304.7 517,-304.7"/>
<image xlink:href="../../images/primaryKeys.png" width="11px" height="12px" preserveAspectRatio="xMinYMin meet" x="522" y="-321.7"/>
<text text-anchor="start" x="539" y="-311.8" font-family="Helvetica,sans-Serif" font-size="11.00" fill="#000000">gymnast_id</text>
<polygon fill="none" stroke="#000000" points="517,-282.7 517,-304.7 655,-304.7 655,-282.7 517,-282.7"/>
<image xlink:href="../../images/primaryKeys.png" width="11px" height="12px" preserveAspectRatio="xMinYMin meet" x="522" y="-299.7"/>
<text text-anchor="start" x="539" y="-289.8" font-family="Helvetica,sans-Serif" font-size="11.00" fill="#000000">skills_Id</text>
<polygon fill="none" stroke="#000000" points="517,-263.7 517,-282.7 655,-282.7 655,-263.7 517,-263.7"/>
<text text-anchor="start" x="520" y="-269.8" font-family="Helvetica,sans-Serif" font-size="11.00" fill="#000000">...</text>
<polygon fill="#ffffff" stroke="transparent" points="517,-244.7 517,-263.7 571,-263.7 571,-244.7 517,-244.7"/>
<polygon fill="none" stroke="#000000" points="517,-244.7 517,-263.7 571,-263.7 571,-244.7 517,-244.7"/>
<text text-anchor="start" x="520" y="-250.8" font-family="Helvetica,sans-Serif" font-size="11.00" fill="#000000">&lt; 2</text>
<polygon fill="#ffffff" stroke="transparent" points="571,-244.7 571,-263.7 626,-263.7 626,-244.7 571,-244.7"/>
<polygon fill="none" stroke="#000000" points="571,-244.7 571,-263.7 626,-263.7 626,-244.7 571,-244.7"/>
<text text-anchor="start" x="590.6105" y="-250.8" font-family="Helvetica,sans-Serif" font-size="11.00" fill="#000000">0 rows</text>
<polygon fill="#ffffff" stroke="transparent" points="626,-244.7 626,-263.7 655,-263.7 655,-244.7 626,-244.7"/>
<polygon fill="none" stroke="#000000" points="626,-244.7 626,-263.7 655,-263.7 655,-244.7 626,-244.7"/>
<text text-anchor="start" x="645.8862" y="-250.8" font-family="Helvetica,sans-Serif" font-size="11.00" fill="#000000"> &#160;</text>
</a>
</g>
</g>
<!-- gymnasts -->
<g id="node4" class="node">
<title>gymnasts</title>
<g id="a_node4"><a xlink:href="../../tables/gymnasts.html" xlink:title="gymnasts" target="_top">
<polygon fill="#ffffff" stroke="transparent" points="320,-320.2 320,-381.2 410,-381.2 410,-320.2 320,-320.2"/>
<polygon fill="#f5f5f5" stroke="transparent" points="320,-357.7 320,-380.7 410,-380.7 410,-357.7 320,-357.7"/>
<polygon fill="none" stroke="#000000" points="320,-357.7 320,-380.7 410,-380.7 410,-357.7 320,-357.7"/>
<text text-anchor="start" x="324.9683" y="-366.8" font-family="Helvetica,sans-Serif" font-weight="bold" font-size="11.00" fill="#000000">gymnasts</text>
<text text-anchor="start" x="375.5219" y="-365.8" font-family="Helvetica,sans-Serif" font-size="11.00" fill="#000000">[table]</text>
<polygon fill="none" stroke="#000000" points="320,-338.7 320,-357.7 410,-357.7 410,-338.7 320,-338.7"/>
<text text-anchor="start" x="323" y="-344.8" font-family="Helvetica,sans-Serif" font-size="11.00" fill="#000000">...</text>
<polygon fill="#ffffff" stroke="transparent" points="320,-319.7 320,-338.7 346,-338.7 346,-319.7 320,-319.7"/>
<polygon fill="none" stroke="#000000" points="320,-319.7 320,-338.7 346,-338.7 346,-319.7 320,-319.7"/>
<text text-anchor="start" x="323" y="-325.8" font-family="Helvetica,sans-Serif" font-size="11.00" fill="#000000">&lt; 2</text>
<polygon fill="#ffffff" stroke="transparent" points="346,-319.7 346,-338.7 386,-338.7 386,-319.7 346,-319.7"/>
<polygon fill="none" stroke="#000000" points="346,-319.7 346,-338.7 386,-338.7 386,-319.7 346,-319.7"/>
<text text-anchor="start" x="350.6105" y="-325.8" font-family="Helvetica,sans-Serif" font-size="11.00" fill="#000000">0 rows</text>
<polygon fill="#ffffff" stroke="transparent" points="386,-319.7 386,-338.7 410,-338.7 410,-319.7 386,-319.7"/>
<polygon fill="none" stroke="#000000" points="386,-319.7 386,-338.7 410,-338.7 410,-319.7 386,-319.7"/>
<text text-anchor="start" x="391.4053" y="-325.8" font-family="Helvetica,sans-Serif" font-size="11.00" fill="#000000">4 &gt;</text>
</a>
</g>
</g>
<!-- gymnast_has_skills&#45;&gt;gymnasts -->
<g id="edge2" class="edge">
<title>gymnast_has_skills:w&#45;&gt;gymnasts:e</title>
<path fill="none" stroke="#000000" d="M502.5949,-316.6928C465.2673,-322.094 454.4016,-347.7 410,-347.7"/>
<polygon fill="#000000" stroke="#000000" points="509.0189,-316.2501 517.2475,-319.2915 513.0095,-315.975 517,-315.7 517,-315.7 517,-315.7 513.0095,-315.975 516.7525,-312.1085 509.0189,-316.2501 509.0189,-316.2501"/>
<ellipse fill="none" stroke="#000000" cx="505.8265" cy="-316.4701" rx="3.2" ry="3.2"/>
</g>
<!-- skills -->
<g id="node5" class="node">
<title>skills</title>
<g id="a_node5"><a xlink:href="../../tables/skills.html" xlink:title="skills" target="_top">
<polygon fill="#ffffff" stroke="transparent" points="262,-120.7 262,-298.7 468,-298.7 468,-120.7 262,-120.7"/>
<polygon fill="#f5f5f5" stroke="transparent" points="264,-273.7 264,-296.7 466,-296.7 466,-273.7 264,-273.7"/>
<polygon fill="none" stroke="#000000" points="264,-273.7 264,-296.7 466,-296.7 466,-273.7 264,-273.7"/>
<text text-anchor="start" x="269" y="-282.8" font-family="Helvetica,sans-Serif" font-weight="bold" font-size="11.00" fill="#000000">skills</text>
<text text-anchor="start" x="431.0437" y="-281.8" font-family="Helvetica,sans-Serif" font-size="11.00" fill="#000000">[table]</text>
<polygon fill="none" stroke="#000000" points="264,-251.7 264,-273.7 349,-273.7 349,-251.7 264,-251.7"/>
<image xlink:href="../../images/primaryKeys.png" width="11px" height="12px" preserveAspectRatio="xMinYMin meet" x="269" y="-268.7"/>
<text text-anchor="start" x="284" y="-258.8" font-family="Helvetica,sans-Serif" font-size="11.00" fill="#000000">id</text>
<polygon fill="none" stroke="#000000" points="349,-251.7 349,-273.7 466,-273.7 466,-251.7 349,-251.7"/>
<text text-anchor="start" x="352" y="-259.4" font-family="Helvetica,sans-Serif" font-size="11.00" fill="#000000">int[10]</text>
<polygon fill="none" stroke="#000000" points="264,-229.7 264,-251.7 349,-251.7 349,-229.7 264,-229.7"/>
<text text-anchor="start" x="284" y="-236.8" font-family="Helvetica,sans-Serif" font-size="11.00" fill="#000000">name</text>
<polygon fill="none" stroke="#000000" points="349,-229.7 349,-251.7 466,-251.7 466,-229.7 349,-229.7"/>
<text text-anchor="start" x="352" y="-237.4" font-family="Helvetica,sans-Serif" font-size="11.00" fill="#000000">varchar[45]</text>
<polygon fill="none" stroke="#000000" points="264,-207.7 264,-229.7 349,-229.7 349,-207.7 264,-207.7"/>
<text text-anchor="start" x="284" y="-214.8" font-family="Helvetica,sans-Serif" font-size="11.00" fill="#000000">description</text>
<polygon fill="none" stroke="#000000" points="349,-207.7 349,-229.7 466,-229.7 466,-207.7 349,-207.7"/>
<text text-anchor="start" x="351.5645" y="-215.4" font-family="Helvetica,sans-Serif" font-size="11.00" fill="#000000">mediumtext[16777215]</text>
<polygon fill="none" stroke="#000000" points="264,-185.7 264,-207.7 349,-207.7 349,-185.7 264,-185.7"/>
<text text-anchor="start" x="284" y="-192.8" font-family="Helvetica,sans-Serif" font-size="11.00" fill="#000000">category</text>
<polygon fill="none" stroke="#000000" points="349,-185.7 349,-207.7 466,-207.7 466,-185.7 349,-185.7"/>
<text text-anchor="start" x="352" y="-193.4" font-family="Helvetica,sans-Serif" font-size="11.00" fill="#000000">varchar[45]</text>
<polygon fill="none" stroke="#000000" points="264,-163.7 264,-185.7 349,-185.7 349,-163.7 264,-163.7"/>
<text text-anchor="start" x="284" y="-170.8" font-family="Helvetica,sans-Serif" font-size="11.00" fill="#000000">certificate</text>
<polygon fill="none" stroke="#000000" points="349,-163.7 349,-185.7 466,-185.7 466,-163.7 349,-163.7"/>
<text text-anchor="start" x="352" y="-171.4" font-family="Helvetica,sans-Serif" font-size="11.00" fill="#000000">bit[1]</text>
<polygon fill="#ffffff" stroke="transparent" points="264,-141.7 264,-163.7 349,-163.7 349,-141.7 264,-141.7"/>
<polygon fill="none" stroke="#000000" points="264,-141.7 264,-163.7 349,-163.7 349,-141.7 264,-141.7"/>
<image xlink:href="../../images/foreignKeys.png" width="11px" height="12px" preserveAspectRatio="xMinYMin meet" x="269" y="-158.7"/>
<text text-anchor="start" x="284" y="-148.8" font-family="Helvetica,sans-Serif" font-size="11.00" fill="#000000">events_id</text>
<polygon fill="none" stroke="#000000" points="349,-141.7 349,-163.7 466,-163.7 466,-141.7 349,-141.7"/>
<text text-anchor="start" x="352" y="-149.4" font-family="Helvetica,sans-Serif" font-size="11.00" fill="#000000">int[10]</text>
<polygon fill="#ffffff" stroke="transparent" points="264,-122.7 264,-141.7 298,-141.7 298,-122.7 264,-122.7"/>
<polygon fill="none" stroke="#000000" points="264,-122.7 264,-141.7 298,-141.7 298,-122.7 264,-122.7"/>
<text text-anchor="start" x="267" y="-128.8" font-family="Helvetica,sans-Serif" font-size="11.00" fill="#000000">&lt; 1</text>
<polygon fill="#ffffff" stroke="transparent" points="298,-122.7 298,-141.7 349,-141.7 349,-122.7 298,-122.7"/>
<polygon fill="none" stroke="#000000" points="298,-122.7 298,-141.7 349,-141.7 349,-122.7 298,-122.7"/>
<text text-anchor="start" x="313.6105" y="-128.8" font-family="Helvetica,sans-Serif" font-size="11.00" fill="#000000">0 rows</text>
<polygon fill="#ffffff" stroke="transparent" points="349,-122.7 349,-141.7 466,-141.7 466,-122.7 349,-122.7"/>
<polygon fill="none" stroke="#000000" points="349,-122.7 349,-141.7 466,-141.7 466,-122.7 349,-122.7"/>
<text text-anchor="start" x="447.4053" y="-128.8" font-family="Helvetica,sans-Serif" font-size="11.00" fill="#000000">2 &gt;</text>
<polygon fill="none" stroke="#000000" stroke-width="2" points="263,-121.7 263,-297.7 467,-297.7 467,-121.7 263,-121.7"/>
</a>
</g>
</g>
<!-- gymnast_has_skills&#45;&gt;skills -->
<g id="edge3" class="edge">
<title>gymnast_has_skills:w&#45;&gt;skills:e</title>
<path fill="none" stroke="#000000" d="M503.0967,-289.8988C490.0044,-281.6209 486.7231,-262.7 466,-262.7"/>
<polygon fill="#000000" stroke="#000000" points="509.2832,-291.5902 516.0506,-297.1726 513.1416,-292.6451 517,-293.7 517,-293.7 517,-293.7 513.1416,-292.6451 517.9494,-290.2274 509.2832,-291.5902 509.2832,-291.5902"/>
<ellipse fill="none" stroke="#000000" cx="506.1965" cy="-290.7462" rx="3.2" ry="3.2"/>
</g>
<!-- skills&#45;&gt;events -->
<g id="edge6" class="edge">
<title>skills:w&#45;&gt;events:e</title>
<path fill="none" stroke="#000000" d="M249.4203,-152.7C237.5435,-152.7 230.158,-152.7 213.5,-152.7"/>
<polygon fill="#000000" stroke="#000000" points="256,-152.7001 264,-156.3 260,-152.7 264,-152.7 264,-152.7 264,-152.7 260,-152.7 264,-149.1 256,-152.7001 256,-152.7001"/>
<ellipse fill="none" stroke="#000000" cx="252.8" cy="-152.7001" rx="3.2" ry="3.2"/>
</g>
<!-- skill_has_levels -->
<g id="node6" class="node">
<title>skill_has_levels</title>
<g id="a_node6"><a xlink:href="../../tables/skill_has_levels.html" xlink:title="skill_has_levels" target="_top">
<polygon fill="#ffffff" stroke="transparent" points="526.5,-73.2 526.5,-178.2 645.5,-178.2 645.5,-73.2 526.5,-73.2"/>
<polygon fill="#f5f5f5" stroke="transparent" points="527,-154.7 527,-177.7 646,-177.7 646,-154.7 527,-154.7"/>
<polygon fill="none" stroke="#000000" points="527,-154.7 527,-177.7 646,-177.7 646,-154.7 527,-154.7"/>
<text text-anchor="start" x="531.8031" y="-163.8" font-family="Helvetica,sans-Serif" font-weight="bold" font-size="11.00" fill="#000000">skill_has_levels</text>
<text text-anchor="start" x="611.5219" y="-162.8" font-family="Helvetica,sans-Serif" font-size="11.00" fill="#000000">[table]</text>
<polygon fill="none" stroke="#000000" points="527,-132.7 527,-154.7 646,-154.7 646,-132.7 527,-132.7"/>
<image xlink:href="../../images/primaryKeys.png" width="11px" height="12px" preserveAspectRatio="xMinYMin meet" x="532" y="-149.7"/>
<text text-anchor="start" x="551" y="-139.8" font-family="Helvetica,sans-Serif" font-size="11.00" fill="#000000">levels_id</text>
<polygon fill="none" stroke="#000000" points="527,-110.7 527,-132.7 646,-132.7 646,-110.7 527,-110.7"/>
<image xlink:href="../../images/primaryKeys.png" width="11px" height="12px" preserveAspectRatio="xMinYMin meet" x="532" y="-127.7"/>
<text text-anchor="start" x="551" y="-117.8" font-family="Helvetica,sans-Serif" font-size="11.00" fill="#000000">skills_id</text>
<polygon fill="none" stroke="#000000" points="527,-91.7 527,-110.7 646,-110.7 646,-91.7 527,-91.7"/>
<text text-anchor="start" x="530" y="-97.8" font-family="Helvetica,sans-Serif" font-size="11.00" fill="#000000">...</text>
<polygon fill="#ffffff" stroke="transparent" points="527,-72.7 527,-91.7 572,-91.7 572,-72.7 527,-72.7"/>
<polygon fill="none" stroke="#000000" points="527,-72.7 527,-91.7 572,-91.7 572,-72.7 527,-72.7"/>
<text text-anchor="start" x="530" y="-78.8" font-family="Helvetica,sans-Serif" font-size="11.00" fill="#000000">&lt; 2</text>
<polygon fill="#ffffff" stroke="transparent" points="572,-72.7 572,-91.7 622,-91.7 622,-72.7 572,-72.7"/>
<polygon fill="none" stroke="#000000" points="572,-72.7 572,-91.7 622,-91.7 622,-72.7 572,-72.7"/>
<text text-anchor="start" x="586.6105" y="-78.8" font-family="Helvetica,sans-Serif" font-size="11.00" fill="#000000">0 rows</text>
<polygon fill="#ffffff" stroke="transparent" points="622,-72.7 622,-91.7 646,-91.7 646,-72.7 622,-72.7"/>
<polygon fill="none" stroke="#000000" points="622,-72.7 622,-91.7 646,-91.7 646,-72.7 622,-72.7"/>
<text text-anchor="start" x="636.8862" y="-78.8" font-family="Helvetica,sans-Serif" font-size="11.00" fill="#000000"> &#160;</text>
</a>
</g>
</g>
<!-- skill_has_levels&#45;&gt;skills -->
<g id="edge5" class="edge">
<title>skill_has_levels:w&#45;&gt;skills:e</title>
<path fill="none" stroke="#000000" d="M512.6699,-124.5165C470.3973,-144.3891 528.5453,-262.7 466,-262.7"/>
<polygon fill="#000000" stroke="#000000" points="519.1502,-123.2429 527.6943,-125.2324 523.0751,-122.4715 527,-121.7 527,-121.7 527,-121.7 523.0751,-122.4715 526.3057,-118.1676 519.1502,-123.2429 519.1502,-123.2429"/>
<ellipse fill="none" stroke="#000000" cx="516.0103" cy="-123.8601" rx="3.2" ry="3.2"/>
</g>
<!-- levels -->
<g id="node7" class="node">
<title>levels</title>
<g id="a_node7"><a xlink:href="../../tables/levels.html" xlink:title="levels" target="_top">
<polygon fill="#ffffff" stroke="transparent" points="329.5,-38.2 329.5,-99.2 400.5,-99.2 400.5,-38.2 329.5,-38.2"/>
<polygon fill="#f5f5f5" stroke="transparent" points="330,-75.7 330,-98.7 401,-98.7 401,-75.7 330,-75.7"/>
<polygon fill="none" stroke="#000000" points="330,-75.7 330,-98.7 401,-98.7 401,-75.7 330,-75.7"/>
<text text-anchor="start" x="334.9442" y="-84.8" font-family="Helvetica,sans-Serif" font-weight="bold" font-size="11.00" fill="#000000">levels</text>
<text text-anchor="start" x="366.5219" y="-83.8" font-family="Helvetica,sans-Serif" font-size="11.00" fill="#000000">[table]</text>
<polygon fill="none" stroke="#000000" points="330,-56.7 330,-75.7 401,-75.7 401,-56.7 330,-56.7"/>
<text text-anchor="start" x="333" y="-62.8" font-family="Helvetica,sans-Serif" font-size="11.00" fill="#000000">...</text>
<polygon fill="#ffffff" stroke="transparent" points="330,-37.7 330,-56.7 342,-56.7 342,-37.7 330,-37.7"/>
<polygon fill="none" stroke="#000000" points="330,-37.7 330,-56.7 342,-56.7 342,-37.7 330,-37.7"/>
<text text-anchor="start" x="332.9431" y="-43.8" font-family="Helvetica,sans-Serif" font-size="11.00" fill="#000000"> &#160;</text>
<polygon fill="#ffffff" stroke="transparent" points="342,-37.7 342,-56.7 380,-56.7 380,-37.7 342,-37.7"/>
<polygon fill="none" stroke="#000000" points="342,-37.7 342,-56.7 380,-56.7 380,-37.7 342,-37.7"/>
<text text-anchor="start" x="344.8053" y="-43.8" font-family="Helvetica,sans-Serif" font-size="11.00" fill="#000000">0 rows</text>
<polygon fill="#ffffff" stroke="transparent" points="380,-37.7 380,-56.7 401,-56.7 401,-37.7 380,-37.7"/>
<polygon fill="none" stroke="#000000" points="380,-37.7 380,-56.7 401,-56.7 401,-37.7 380,-37.7"/>
<text text-anchor="start" x="382.7027" y="-43.8" font-family="Helvetica,sans-Serif" font-size="11.00" fill="#000000">1 &gt;</text>
</a>
</g>
</g>
<!-- skill_has_levels&#45;&gt;levels -->
<g id="edge4" class="edge">
<title>skill_has_levels:w&#45;&gt;levels:e</title>
<path fill="none" stroke="#000000" d="M512.5022,-141.2551C498.4809,-135.7226 493.8999,-121.8567 476,-110.7 443.0103,-90.1381 439.873,-65.7 401,-65.7"/>
<polygon fill="#000000" stroke="#000000" points="519.1114,-142.3697 526.4013,-147.2499 523.0557,-143.0348 527,-143.7 527,-143.7 527,-143.7 523.0557,-143.0348 527.5987,-140.1501 519.1114,-142.3697 519.1114,-142.3697"/>
<ellipse fill="none" stroke="#000000" cx="515.9559" cy="-141.8375" rx="3.2" ry="3.2"/>
</g>
</g>
</svg>
