<?xml version="1.0" encoding="UTF-8" standalone="no"?>
<!DOCTYPE svg PUBLIC "-//W3C//DTD SVG 1.1//EN"
 "http://www.w3.org/Graphics/SVG/1.1/DTD/svg11.dtd">
<!-- Generated by graphviz version 2.40.1 (20161225.0304)
 -->
<!-- Title: oneDegreeRelationshipsDiagram Pages: 1 -->
<svg width="402pt" height="325pt"
 viewBox="0.00 0.00 402.00 325.20" xmlns="http://www.w3.org/2000/svg" xmlns:xlink="http://www.w3.org/1999/xlink">
<g id="graph0" class="graph" transform="scale(1 1) rotate(0) translate(4 321.2)">
<title>oneDegreeRelationshipsDiagram</title>
<polygon fill="#ffffff" stroke="transparent" points="-4,4 -4,-321.2 398,-321.2 398,4 -4,4"/>
<text text-anchor="middle" x="72.4936" y="-7.3" font-family="Helvetica,sans-Serif" font-size="11.00" fill="#000000">Generated by SchemaSpy</text>
<!-- skill_lists_has_skills -->
<g id="node1" class="node">
<title>skill_lists_has_skills</title>
<g id="a_node1"><a xlink:href="../../tables/skill_lists_has_skills.html" xlink:title="skill_lists_has_skills" target="_top">
<polygon fill="#ffffff" stroke="transparent" points="145,-128.7 145,-262.7 386,-262.7 386,-128.7 145,-128.7"/>
<polygon fill="#f5f5f5" stroke="transparent" points="147.5,-237.7 147.5,-260.7 384.5,-260.7 384.5,-237.7 147.5,-237.7"/>
<polygon fill="none" stroke="#000000" points="147.5,-237.7 147.5,-260.7 384.5,-260.7 384.5,-237.7 147.5,-237.7"/>
<text text-anchor="start" x="152.5" y="-246.8" font-family="Helvetica,sans-Serif" font-weight="bold" font-size="11.00" fill="#000000">skill_lists_has_skills</text>
<text text-anchor="start" x="349.5437" y="-245.8" font-family="Helvetica,sans-Serif" font-size="11.00" fill="#000000">[table]</text>
<polygon fill="none" stroke="#000000" points="147.5,-215.7 147.5,-237.7 286.5,-237.7 286.5,-215.7 147.5,-215.7"/>
<image xlink:href="../../images/primaryKeys.png" width="11px" height="12px" preserveAspectRatio="xMinYMin meet" x="152.5" y="-232.7"/>
<text text-anchor="start" x="167.5" y="-222.8" font-family="Helvetica,sans-Serif" font-size="11.00" fill="#000000">skill_list_id</text>
<polygon fill="none" stroke="#000000" points="286.5,-215.7 286.5,-237.7 384.5,-237.7 384.5,-215.7 286.5,-215.7"/>
<text text-anchor="start" x="289.3429" y="-223.4" font-family="Helvetica,sans-Serif" font-size="11.00" fill="#000000">bigint unsigned[20]</text>
<polygon fill="none" stroke="#000000" points="147.5,-193.7 147.5,-215.7 286.5,-215.7 286.5,-193.7 147.5,-193.7"/>
<image xlink:href="../../images/primaryKeys.png" width="11px" height="12px" preserveAspectRatio="xMinYMin meet" x="152.5" y="-210.7"/>
<text text-anchor="start" x="167.5" y="-200.8" font-family="Helvetica,sans-Serif" font-size="11.00" fill="#000000">skill_id</text>
<polygon fill="none" stroke="#000000" points="286.5,-193.7 286.5,-215.7 384.5,-215.7 384.5,-193.7 286.5,-193.7"/>
<text text-anchor="start" x="289.3429" y="-201.4" font-family="Helvetica,sans-Serif" font-size="11.00" fill="#000000">bigint unsigned[20]</text>
<polygon fill="none" stroke="#000000" points="147.5,-171.7 147.5,-193.7 286.5,-193.7 286.5,-171.7 147.5,-171.7"/>
<text text-anchor="start" x="167.5" y="-178.8" font-family="Helvetica,sans-Serif" font-size="11.00" fill="#000000">order</text>
<polygon fill="none" stroke="#000000" points="286.5,-171.7 286.5,-193.7 384.5,-193.7 384.5,-171.7 286.5,-171.7"/>
<text text-anchor="start" x="289.5" y="-179.4" font-family="Helvetica,sans-Serif" font-size="11.00" fill="#000000">int[10]</text>
<polygon fill="none" stroke="#000000" points="147.5,-149.7 147.5,-171.7 286.5,-171.7 286.5,-149.7 147.5,-149.7"/>
<text text-anchor="start" x="167.5" y="-156.8" font-family="Helvetica,sans-Serif" font-size="11.00" fill="#000000">timestamp</text>
<polygon fill="none" stroke="#000000" points="286.5,-149.7 286.5,-171.7 384.5,-171.7 384.5,-149.7 286.5,-149.7"/>
<text text-anchor="start" x="289.5" y="-157.4" font-family="Helvetica,sans-Serif" font-size="11.00" fill="#000000">date[10]</text>
<polygon fill="#ffffff" stroke="transparent" points="147.5,-130.7 147.5,-149.7 208.5,-149.7 208.5,-130.7 147.5,-130.7"/>
<polygon fill="none" stroke="#000000" points="147.5,-130.7 147.5,-149.7 208.5,-149.7 208.5,-130.7 147.5,-130.7"/>
<text text-anchor="start" x="150.5" y="-136.8" font-family="Helvetica,sans-Serif" font-size="11.00" fill="#000000">&lt; 2</text>
<polygon fill="#ffffff" stroke="transparent" points="208.5,-130.7 208.5,-149.7 286.5,-149.7 286.5,-130.7 208.5,-130.7"/>
<polygon fill="none" stroke="#000000" points="208.5,-130.7 208.5,-149.7 286.5,-149.7 286.5,-130.7 208.5,-130.7"/>
<text text-anchor="start" x="251.1105" y="-136.8" font-family="Helvetica,sans-Serif" font-size="11.00" fill="#000000">0 rows</text>
<polygon fill="#ffffff" stroke="transparent" points="286.5,-130.7 286.5,-149.7 384.5,-149.7 384.5,-130.7 286.5,-130.7"/>
<polygon fill="none" stroke="#000000" points="286.5,-130.7 286.5,-149.7 384.5,-149.7 384.5,-130.7 286.5,-130.7"/>
<text text-anchor="start" x="365.9053" y="-136.8" font-family="Helvetica,sans-Serif" font-size="11.00" fill="#000000">0 &gt;</text>
<polygon fill="none" stroke="#000000" stroke-width="2" points="146,-129.7 146,-261.7 385,-261.7 385,-129.7 146,-129.7"/>
</a>
</g>
</g>
<!-- skills -->
<g id="node2" class="node">
<title>skills</title>
<g id="a_node2"><a xlink:href="../../tables/skills.html" xlink:title="skills" target="_top">
<polygon fill="#ffffff" stroke="transparent" points="8,-38.2 8,-187.2 96,-187.2 96,-38.2 8,-38.2"/>
<polygon fill="#f5f5f5" stroke="transparent" points="8,-163.7 8,-186.7 96,-186.7 96,-163.7 8,-163.7"/>
<polygon fill="none" stroke="#000000" points="8,-163.7 8,-186.7 96,-186.7 96,-163.7 8,-163.7"/>
<text text-anchor="start" x="13" y="-172.8" font-family="Helvetica,sans-Serif" font-weight="bold" font-size="11.00" fill="#000000">skills</text>
<text text-anchor="start" x="61.0437" y="-171.8" font-family="Helvetica,sans-Serif" font-size="11.00" fill="#000000">[table]</text>
<polygon fill="none" stroke="#000000" points="8,-141.7 8,-163.7 96,-163.7 96,-141.7 8,-141.7"/>
<image xlink:href="../../images/primaryKeys.png" width="11px" height="12px" preserveAspectRatio="xMinYMin meet" x="13" y="-158.7"/>
<text text-anchor="start" x="28" y="-148.8" font-family="Helvetica,sans-Serif" font-size="11.00" fill="#000000">id</text>
<polygon fill="#ffffff" stroke="transparent" points="8,-119.7 8,-141.7 96,-141.7 96,-119.7 8,-119.7"/>
<polygon fill="none" stroke="#000000" points="8,-119.7 8,-141.7 96,-141.7 96,-119.7 8,-119.7"/>
<image xlink:href="../../images/foreignKeys.png" width="11px" height="12px" preserveAspectRatio="xMinYMin meet" x="13" y="-136.7"/>
<text text-anchor="start" x="28" y="-126.8" font-family="Helvetica,sans-Serif" font-size="11.00" fill="#000000">event_id</text>
<polygon fill="#ffffff" stroke="transparent" points="8,-97.7 8,-119.7 96,-119.7 96,-97.7 8,-97.7"/>
<polygon fill="none" stroke="#000000" points="8,-97.7 8,-119.7 96,-119.7 96,-97.7 8,-97.7"/>
<image xlink:href="../../images/foreignKeys.png" width="11px" height="12px" preserveAspectRatio="xMinYMin meet" x="13" y="-114.7"/>
<text text-anchor="start" x="28" y="-104.8" font-family="Helvetica,sans-Serif" font-size="11.00" fill="#000000">category_id</text>
<polygon fill="#ffffff" stroke="transparent" points="8,-75.7 8,-97.7 96,-97.7 96,-75.7 8,-75.7"/>
<polygon fill="none" stroke="#000000" points="8,-75.7 8,-97.7 96,-97.7 96,-75.7 8,-75.7"/>
<image xlink:href="../../images/foreignKeys.png" width="11px" height="12px" preserveAspectRatio="xMinYMin meet" x="13" y="-92.7"/>
<text text-anchor="start" x="28" y="-82.8" font-family="Helvetica,sans-Serif" font-size="11.00" fill="#000000">level_id</text>
<polygon fill="none" stroke="#000000" points="8,-56.7 8,-75.7 96,-75.7 96,-56.7 8,-56.7"/>
<text text-anchor="start" x="11" y="-62.8" font-family="Helvetica,sans-Serif" font-size="11.00" fill="#000000">...</text>
<polygon fill="#ffffff" stroke="transparent" points="8,-37.7 8,-56.7 33,-56.7 33,-37.7 8,-37.7"/>
<polygon fill="none" stroke="#000000" points="8,-37.7 8,-56.7 33,-56.7 33,-37.7 8,-37.7"/>
<text text-anchor="start" x="11" y="-43.8" font-family="Helvetica,sans-Serif" font-size="11.00" fill="#000000">&lt; 3</text>
<polygon fill="#ffffff" stroke="transparent" points="33,-37.7 33,-56.7 73,-56.7 73,-37.7 33,-37.7"/>
<polygon fill="none" stroke="#000000" points="33,-37.7 33,-56.7 73,-56.7 73,-37.7 33,-37.7"/>
<text text-anchor="start" x="37.6105" y="-43.8" font-family="Helvetica,sans-Serif" font-size="11.00" fill="#000000">0 rows</text>
<polygon fill="#ffffff" stroke="transparent" points="73,-37.7 73,-56.7 96,-56.7 96,-37.7 73,-37.7"/>
<polygon fill="none" stroke="#000000" points="73,-37.7 73,-56.7 96,-56.7 96,-37.7 73,-37.7"/>
<text text-anchor="start" x="77.4053" y="-43.8" font-family="Helvetica,sans-Serif" font-size="11.00" fill="#000000">2 &gt;</text>
</a>
</g>
</g>
<!-- skill_lists_has_skills&#45;&gt;skills -->
<g id="edge1" class="edge">
<title>skill_lists_has_skills:w&#45;&gt;skills:e</title>
<path fill="none" stroke="#000000" d="M133.4561,-199.9012C118.4356,-187.0281 122.4284,-152.7 96,-152.7"/>
<polygon fill="#000000" stroke="#000000" points="139.9297,-202.1132 146.3359,-208.1066 143.7149,-203.4066 147.5,-204.7 147.5,-204.7 147.5,-204.7 143.7149,-203.4066 148.6641,-201.2934 139.9297,-202.1132 139.9297,-202.1132"/>
<ellipse fill="none" stroke="#000000" cx="136.9016" cy="-201.0785" rx="3.2" ry="3.2"/>
</g>
<!-- skill_lists -->
<g id="node3" class="node">
<title>skill_lists</title>
<g id="a_node3"><a xlink:href="../../tables/skill_lists.html" xlink:title="skill_lists" target="_top">
<polygon fill="#ffffff" stroke="transparent" points="9,-208.2 9,-313.2 95,-313.2 95,-208.2 9,-208.2"/>
<polygon fill="#f5f5f5" stroke="transparent" points="9,-289.7 9,-312.7 95,-312.7 95,-289.7 9,-289.7"/>
<polygon fill="none" stroke="#000000" points="9,-289.7 9,-312.7 95,-312.7 95,-289.7 9,-289.7"/>
<text text-anchor="start" x="13.8119" y="-298.8" font-family="Helvetica,sans-Serif" font-weight="bold" font-size="11.00" fill="#000000">skill_lists</text>
<text text-anchor="start" x="60.5219" y="-297.8" font-family="Helvetica,sans-Serif" font-size="11.00" fill="#000000">[table]</text>
<polygon fill="none" stroke="#000000" points="9,-267.7 9,-289.7 95,-289.7 95,-267.7 9,-267.7"/>
<image xlink:href="../../images/primaryKeys.png" width="11px" height="12px" preserveAspectRatio="xMinYMin meet" x="14" y="-284.7"/>
<text text-anchor="start" x="32" y="-274.8" font-family="Helvetica,sans-Serif" font-size="11.00" fill="#000000">id</text>
<polygon fill="#ffffff" stroke="transparent" points="9,-245.7 9,-267.7 95,-267.7 95,-245.7 9,-245.7"/>
<polygon fill="none" stroke="#000000" points="9,-245.7 9,-267.7 95,-267.7 95,-245.7 9,-245.7"/>
<image xlink:href="../../images/foreignKeys.png" width="11px" height="12px" preserveAspectRatio="xMinYMin meet" x="14" y="-262.7"/>
<text text-anchor="start" x="32" y="-252.8" font-family="Helvetica,sans-Serif" font-size="11.00" fill="#000000">gym_id</text>
<polygon fill="none" stroke="#000000" points="9,-226.7 9,-245.7 95,-245.7 95,-226.7 9,-226.7"/>
<text text-anchor="start" x="12" y="-232.8" font-family="Helvetica,sans-Serif" font-size="11.00" fill="#000000">...</text>
<polygon fill="#ffffff" stroke="transparent" points="9,-207.7 9,-226.7 33,-226.7 33,-207.7 9,-207.7"/>
<polygon fill="none" stroke="#000000" points="9,-207.7 9,-226.7 33,-226.7 33,-207.7 9,-207.7"/>
<text text-anchor="start" x="12" y="-213.8" font-family="Helvetica,sans-Serif" font-size="11.00" fill="#000000">&lt; 1</text>
<polygon fill="#ffffff" stroke="transparent" points="33,-207.7 33,-226.7 72,-226.7 72,-207.7 33,-207.7"/>
<polygon fill="none" stroke="#000000" points="33,-207.7 33,-226.7 72,-226.7 72,-207.7 33,-207.7"/>
<text text-anchor="start" x="36.6105" y="-213.8" font-family="Helvetica,sans-Serif" font-size="11.00" fill="#000000">0 rows</text>
<polygon fill="#ffffff" stroke="transparent" points="72,-207.7 72,-226.7 95,-226.7 95,-207.7 72,-207.7"/>
<polygon fill="none" stroke="#000000" points="72,-207.7 72,-226.7 95,-226.7 95,-207.7 72,-207.7"/>
<text text-anchor="start" x="76.4053" y="-213.8" font-family="Helvetica,sans-Serif" font-size="11.00" fill="#000000">1 &gt;</text>
</a>
</g>
</g>
<!-- skill_lists_has_skills&#45;&gt;skill_lists -->
<g id="edge2" class="edge">
<title>skill_lists_has_skills:w&#45;&gt;skill_lists:e</title>
<path fill="none" stroke="#000000" d="M133.7204,-231.1335C117.9101,-243.7085 121.9403,-278.7 95,-278.7"/>
<polygon fill="#000000" stroke="#000000" points="139.8845,-229.1503 148.6026,-230.127 143.6922,-227.9251 147.5,-226.7 147.5,-226.7 147.5,-226.7 143.6922,-227.9251 146.3974,-223.273 139.8845,-229.1503 139.8845,-229.1503"/>
<ellipse fill="none" stroke="#000000" cx="136.8383" cy="-230.1304" rx="3.2" ry="3.2"/>
</g>
</g>
</svg>
