<?xml version="1.0" encoding="UTF-8" standalone="no"?>
<!DOCTYPE svg PUBLIC "-//W3C//DTD SVG 1.1//EN"
 "http://www.w3.org/Graphics/SVG/1.1/DTD/svg11.dtd">
<!-- Generated by graphviz version 2.40.1 (20161225.0304)
 -->
<!-- Title: twoDegreesRelationshipsDiagram Pages: 1 -->
<svg width="516pt" height="297pt"
 viewBox="0.00 0.00 516.00 297.20" xmlns="http://www.w3.org/2000/svg" xmlns:xlink="http://www.w3.org/1999/xlink">
<g id="graph0" class="graph" transform="scale(1 1) rotate(0) translate(4 293.2)">
<title>twoDegreesRelationshipsDiagram</title>
<polygon fill="#ffffff" stroke="transparent" points="-4,4 -4,-293.2 512,-293.2 512,4 -4,4"/>
<text text-anchor="middle" x="72.4936" y="-7.3" font-family="Helvetica,sans-Serif" font-size="11.00" fill="#000000">Generated by SchemaSpy</text>
<!-- gymnast_has_skills -->
<g id="node1" class="node">
<title>gymnast_has_skills</title>
<g id="a_node1"><a xlink:href="../../tables/gymnast_has_skills.html" xlink:title="gymnast_has_skills" target="_top">
<polygon fill="#ffffff" stroke="transparent" points="324.5,-83.2 324.5,-144.2 462.5,-144.2 462.5,-83.2 324.5,-83.2"/>
<polygon fill="#f5f5f5" stroke="transparent" points="324.5,-120.7 324.5,-143.7 462.5,-143.7 462.5,-120.7 324.5,-120.7"/>
<polygon fill="none" stroke="#000000" points="324.5,-120.7 324.5,-143.7 462.5,-143.7 462.5,-120.7 324.5,-120.7"/>
<text text-anchor="start" x="329.3271" y="-129.8" font-family="Helvetica,sans-Serif" font-weight="bold" font-size="11.00" fill="#000000">gymnast_has_skills</text>
<text text-anchor="start" x="428.0219" y="-128.8" font-family="Helvetica,sans-Serif" font-size="11.00" fill="#000000">[table]</text>
<polygon fill="none" stroke="#000000" points="324.5,-101.7 324.5,-120.7 462.5,-120.7 462.5,-101.7 324.5,-101.7"/>
<text text-anchor="start" x="327.5" y="-107.8" font-family="Helvetica,sans-Serif" font-size="11.00" fill="#000000">...</text>
<polygon fill="#ffffff" stroke="transparent" points="324.5,-82.7 324.5,-101.7 378.5,-101.7 378.5,-82.7 324.5,-82.7"/>
<polygon fill="none" stroke="#000000" points="324.5,-82.7 324.5,-101.7 378.5,-101.7 378.5,-82.7 324.5,-82.7"/>
<text text-anchor="start" x="327.5" y="-88.8" font-family="Helvetica,sans-Serif" font-size="11.00" fill="#000000">&lt; 2</text>
<polygon fill="#ffffff" stroke="transparent" points="378.5,-82.7 378.5,-101.7 433.5,-101.7 433.5,-82.7 378.5,-82.7"/>
<polygon fill="none" stroke="#000000" points="378.5,-82.7 378.5,-101.7 433.5,-101.7 433.5,-82.7 378.5,-82.7"/>
<text text-anchor="start" x="398.1105" y="-88.8" font-family="Helvetica,sans-Serif" font-size="11.00" fill="#000000">0 rows</text>
<polygon fill="#ffffff" stroke="transparent" points="433.5,-82.7 433.5,-101.7 462.5,-101.7 462.5,-82.7 433.5,-82.7"/>
<polygon fill="none" stroke="#000000" points="433.5,-82.7 433.5,-101.7 462.5,-101.7 462.5,-82.7 433.5,-82.7"/>
<text text-anchor="start" x="453.3862" y="-88.8" font-family="Helvetica,sans-Serif" font-size="11.00" fill="#000000"> &#160;</text>
</a>
</g>
</g>
<!-- skills -->
<g id="node2" class="node">
<title>skills</title>
<g id="a_node2"><a xlink:href="../../tables/skills.html" xlink:title="skills" target="_top">
<polygon fill="#ffffff" stroke="transparent" points="150,-68.2 150,-217.2 238,-217.2 238,-68.2 150,-68.2"/>
<polygon fill="#f5f5f5" stroke="transparent" points="150,-193.7 150,-216.7 238,-216.7 238,-193.7 150,-193.7"/>
<polygon fill="none" stroke="#000000" points="150,-193.7 150,-216.7 238,-216.7 238,-193.7 150,-193.7"/>
<text text-anchor="start" x="155" y="-202.8" font-family="Helvetica,sans-Serif" font-weight="bold" font-size="11.00" fill="#000000">skills</text>
<text text-anchor="start" x="203.0437" y="-201.8" font-family="Helvetica,sans-Serif" font-size="11.00" fill="#000000">[table]</text>
<polygon fill="none" stroke="#000000" points="150,-171.7 150,-193.7 238,-193.7 238,-171.7 150,-171.7"/>
<image xlink:href="../../images/primaryKeys.png" width="11px" height="12px" preserveAspectRatio="xMinYMin meet" x="155" y="-188.7"/>
<text text-anchor="start" x="170" y="-178.8" font-family="Helvetica,sans-Serif" font-size="11.00" fill="#000000">id</text>
<polygon fill="#ffffff" stroke="transparent" points="150,-149.7 150,-171.7 238,-171.7 238,-149.7 150,-149.7"/>
<polygon fill="none" stroke="#000000" points="150,-149.7 150,-171.7 238,-171.7 238,-149.7 150,-149.7"/>
<image xlink:href="../../images/foreignKeys.png" width="11px" height="12px" preserveAspectRatio="xMinYMin meet" x="155" y="-166.7"/>
<text text-anchor="start" x="170" y="-156.8" font-family="Helvetica,sans-Serif" font-size="11.00" fill="#000000">event_id</text>
<polygon fill="#ffffff" stroke="transparent" points="150,-127.7 150,-149.7 238,-149.7 238,-127.7 150,-127.7"/>
<polygon fill="none" stroke="#000000" points="150,-127.7 150,-149.7 238,-149.7 238,-127.7 150,-127.7"/>
<image xlink:href="../../images/foreignKeys.png" width="11px" height="12px" preserveAspectRatio="xMinYMin meet" x="155" y="-144.7"/>
<text text-anchor="start" x="170" y="-134.8" font-family="Helvetica,sans-Serif" font-size="11.00" fill="#000000">category_id</text>
<polygon fill="#ffffff" stroke="transparent" points="150,-105.7 150,-127.7 238,-127.7 238,-105.7 150,-105.7"/>
<polygon fill="none" stroke="#000000" points="150,-105.7 150,-127.7 238,-127.7 238,-105.7 150,-105.7"/>
<image xlink:href="../../images/foreignKeys.png" width="11px" height="12px" preserveAspectRatio="xMinYMin meet" x="155" y="-122.7"/>
<text text-anchor="start" x="170" y="-112.8" font-family="Helvetica,sans-Serif" font-size="11.00" fill="#000000">level_id</text>
<polygon fill="none" stroke="#000000" points="150,-86.7 150,-105.7 238,-105.7 238,-86.7 150,-86.7"/>
<text text-anchor="start" x="153" y="-92.8" font-family="Helvetica,sans-Serif" font-size="11.00" fill="#000000">...</text>
<polygon fill="#ffffff" stroke="transparent" points="150,-67.7 150,-86.7 175,-86.7 175,-67.7 150,-67.7"/>
<polygon fill="none" stroke="#000000" points="150,-67.7 150,-86.7 175,-86.7 175,-67.7 150,-67.7"/>
<text text-anchor="start" x="153" y="-73.8" font-family="Helvetica,sans-Serif" font-size="11.00" fill="#000000">&lt; 3</text>
<polygon fill="#ffffff" stroke="transparent" points="175,-67.7 175,-86.7 215,-86.7 215,-67.7 175,-67.7"/>
<polygon fill="none" stroke="#000000" points="175,-67.7 175,-86.7 215,-86.7 215,-67.7 175,-67.7"/>
<text text-anchor="start" x="179.6105" y="-73.8" font-family="Helvetica,sans-Serif" font-size="11.00" fill="#000000">0 rows</text>
<polygon fill="#ffffff" stroke="transparent" points="215,-67.7 215,-86.7 238,-86.7 238,-67.7 215,-67.7"/>
<polygon fill="none" stroke="#000000" points="215,-67.7 215,-86.7 238,-86.7 238,-67.7 215,-67.7"/>
<text text-anchor="start" x="219.4053" y="-73.8" font-family="Helvetica,sans-Serif" font-size="11.00" fill="#000000">2 &gt;</text>
</a>
</g>
</g>
<!-- gymnast_has_skills&#45;&gt;skills -->
<g id="edge1" class="edge">
<title>gymnast_has_skills:w&#45;&gt;skills:e</title>
<path fill="none" stroke="#000000" d="M310.202,-113.0956C276.6817,-125.5887 282.5488,-182.7 238,-182.7"/>
<polygon fill="#000000" stroke="#000000" points="316.61,-112.022 325.0949,-114.2505 320.555,-111.361 324.5,-110.7 324.5,-110.7 324.5,-110.7 320.555,-111.361 323.9051,-107.1495 316.61,-112.022 316.61,-112.022"/>
<ellipse fill="none" stroke="#000000" cx="313.454" cy="-112.5508" rx="3.2" ry="3.2"/>
</g>
<!-- levels -->
<g id="node4" class="node">
<title>levels</title>
<g id="a_node4"><a xlink:href="../../tables/levels.html" xlink:title="levels" target="_top">
<polygon fill="#ffffff" stroke="transparent" points="12,-38.2 12,-121.2 97,-121.2 97,-38.2 12,-38.2"/>
<polygon fill="#f5f5f5" stroke="transparent" points="12.5,-97.7 12.5,-120.7 97.5,-120.7 97.5,-97.7 12.5,-97.7"/>
<polygon fill="none" stroke="#000000" points="12.5,-97.7 12.5,-120.7 97.5,-120.7 97.5,-97.7 12.5,-97.7"/>
<text text-anchor="start" x="17.5" y="-106.8" font-family="Helvetica,sans-Serif" font-weight="bold" font-size="11.00" fill="#000000">levels</text>
<text text-anchor="start" x="62.5437" y="-105.8" font-family="Helvetica,sans-Serif" font-size="11.00" fill="#000000">[table]</text>
<polygon fill="none" stroke="#000000" points="12.5,-75.7 12.5,-97.7 97.5,-97.7 97.5,-75.7 12.5,-75.7"/>
<image xlink:href="../../images/primaryKeys.png" width="11px" height="12px" preserveAspectRatio="xMinYMin meet" x="17.5" y="-92.7"/>
<text text-anchor="start" x="32.5" y="-82.8" font-family="Helvetica,sans-Serif" font-size="11.00" fill="#000000">id</text>
<polygon fill="none" stroke="#000000" points="12.5,-56.7 12.5,-75.7 97.5,-75.7 97.5,-56.7 12.5,-56.7"/>
<text text-anchor="start" x="15.5" y="-62.8" font-family="Helvetica,sans-Serif" font-size="11.00" fill="#000000">...</text>
<polygon fill="#ffffff" stroke="transparent" points="12.5,-37.7 12.5,-56.7 31.5,-56.7 31.5,-37.7 12.5,-37.7"/>
<polygon fill="none" stroke="#000000" points="12.5,-37.7 12.5,-56.7 31.5,-56.7 31.5,-37.7 12.5,-37.7"/>
<text text-anchor="start" x="15.5" y="-43.8" font-family="Helvetica,sans-Serif" font-size="11.00" fill="#000000"> &#160;</text>
<polygon fill="#ffffff" stroke="transparent" points="31.5,-37.7 31.5,-56.7 72.5,-56.7 72.5,-37.7 31.5,-37.7"/>
<polygon fill="none" stroke="#000000" points="31.5,-37.7 31.5,-56.7 72.5,-56.7 72.5,-37.7 31.5,-37.7"/>
<text text-anchor="start" x="37.1105" y="-43.8" font-family="Helvetica,sans-Serif" font-size="11.00" fill="#000000">0 rows</text>
<polygon fill="#ffffff" stroke="transparent" points="72.5,-37.7 72.5,-56.7 97.5,-56.7 97.5,-37.7 72.5,-37.7"/>
<polygon fill="none" stroke="#000000" points="72.5,-37.7 72.5,-56.7 97.5,-56.7 97.5,-37.7 72.5,-37.7"/>
<text text-anchor="start" x="78.9053" y="-43.8" font-family="Helvetica,sans-Serif" font-size="11.00" fill="#000000">2 &gt;</text>
</a>
</g>
</g>
<!-- skills&#45;&gt;levels -->
<g id="edge6" class="edge">
<title>skills:w&#45;&gt;levels:e</title>
<path fill="none" stroke="#000000" d="M135.8122,-113.0214C122.3263,-105.0105 118.4955,-86.7 97.5,-86.7"/>
<polygon fill="#000000" stroke="#000000" points="142.2561,-114.6921 149.0965,-120.1848 146.128,-115.6961 150,-116.7 150,-116.7 150,-116.7 146.128,-115.6961 150.9035,-113.2152 142.2561,-114.6921 142.2561,-114.6921"/>
<ellipse fill="none" stroke="#000000" cx="139.1585" cy="-113.889" rx="3.2" ry="3.2"/>
</g>
<!-- categories -->
<g id="node5" class="node">
<title>categories</title>
<g id="a_node5"><a xlink:href="../../tables/categories.html" xlink:title="categories" target="_top">
<polygon fill="#ffffff" stroke="transparent" points="8,-142.2 8,-203.2 101,-203.2 101,-142.2 8,-142.2"/>
<polygon fill="#f5f5f5" stroke="transparent" points="8.5,-179.7 8.5,-202.7 101.5,-202.7 101.5,-179.7 8.5,-179.7"/>
<polygon fill="none" stroke="#000000" points="8.5,-179.7 8.5,-202.7 101.5,-202.7 101.5,-179.7 8.5,-179.7"/>
<text text-anchor="start" x="13.1329" y="-188.8" font-family="Helvetica,sans-Serif" font-weight="bold" font-size="11.00" fill="#000000">categories</text>
<text text-anchor="start" x="67.0219" y="-187.8" font-family="Helvetica,sans-Serif" font-size="11.00" fill="#000000">[table]</text>
<polygon fill="none" stroke="#000000" points="8.5,-160.7 8.5,-179.7 101.5,-179.7 101.5,-160.7 8.5,-160.7"/>
<text text-anchor="start" x="11.5" y="-166.8" font-family="Helvetica,sans-Serif" font-size="11.00" fill="#000000">...</text>
<polygon fill="#ffffff" stroke="transparent" points="8.5,-141.7 8.5,-160.7 31.5,-160.7 31.5,-141.7 8.5,-141.7"/>
<polygon fill="none" stroke="#000000" points="8.5,-141.7 8.5,-160.7 31.5,-160.7 31.5,-141.7 8.5,-141.7"/>
<text text-anchor="start" x="11.5" y="-147.8" font-family="Helvetica,sans-Serif" font-size="11.00" fill="#000000"> &#160;</text>
<polygon fill="#ffffff" stroke="transparent" points="31.5,-141.7 31.5,-160.7 74.5,-160.7 74.5,-141.7 31.5,-141.7"/>
<polygon fill="none" stroke="#000000" points="31.5,-141.7 31.5,-160.7 74.5,-160.7 74.5,-141.7 31.5,-141.7"/>
<text text-anchor="start" x="39.1105" y="-147.8" font-family="Helvetica,sans-Serif" font-size="11.00" fill="#000000">0 rows</text>
<polygon fill="#ffffff" stroke="transparent" points="74.5,-141.7 74.5,-160.7 101.5,-160.7 101.5,-141.7 74.5,-141.7"/>
<polygon fill="none" stroke="#000000" points="74.5,-141.7 74.5,-160.7 101.5,-160.7 101.5,-141.7 74.5,-141.7"/>
<text text-anchor="start" x="82.9053" y="-147.8" font-family="Helvetica,sans-Serif" font-size="11.00" fill="#000000">1 &gt;</text>
</a>
</g>
</g>
<!-- skills&#45;&gt;categories -->
<g id="edge4" class="edge">
<title>skills:w&#45;&gt;categories:e</title>
<path fill="none" stroke="#000000" d="M135.94,-143.0104C124.115,-151.5284 121.0867,-169.7 101.5,-169.7"/>
<polygon fill="#000000" stroke="#000000" points="142.3514,-141.0449 151.0552,-142.1419 146.1757,-139.8724 150,-138.7 150,-138.7 150,-138.7 146.1757,-139.8724 148.9448,-135.2581 142.3514,-141.0449 142.3514,-141.0449"/>
<ellipse fill="none" stroke="#000000" cx="139.2919" cy="-141.9829" rx="3.2" ry="3.2"/>
</g>
<!-- events -->
<g id="node6" class="node">
<title>events</title>
<g id="a_node6"><a xlink:href="../../tables/events.html" xlink:title="events" target="_top">
<polygon fill="#ffffff" stroke="transparent" points="14.5,-224.2 14.5,-285.2 94.5,-285.2 94.5,-224.2 14.5,-224.2"/>
<polygon fill="#f5f5f5" stroke="transparent" points="14.5,-261.7 14.5,-284.7 94.5,-284.7 94.5,-261.7 14.5,-261.7"/>
<polygon fill="none" stroke="#000000" points="14.5,-261.7 14.5,-284.7 94.5,-284.7 94.5,-261.7 14.5,-261.7"/>
<text text-anchor="start" x="19.5" y="-270.8" font-family="Helvetica,sans-Serif" font-weight="bold" font-size="11.00" fill="#000000">events</text>
<text text-anchor="start" x="59.5437" y="-269.8" font-family="Helvetica,sans-Serif" font-size="11.00" fill="#000000">[table]</text>
<polygon fill="none" stroke="#000000" points="14.5,-242.7 14.5,-261.7 94.5,-261.7 94.5,-242.7 14.5,-242.7"/>
<text text-anchor="start" x="17.5" y="-248.8" font-family="Helvetica,sans-Serif" font-size="11.00" fill="#000000">...</text>
<polygon fill="#ffffff" stroke="transparent" points="14.5,-223.7 14.5,-242.7 35.5,-242.7 35.5,-223.7 14.5,-223.7"/>
<polygon fill="none" stroke="#000000" points="14.5,-223.7 14.5,-242.7 35.5,-242.7 35.5,-223.7 14.5,-223.7"/>
<text text-anchor="start" x="17.2026" y="-229.8" font-family="Helvetica,sans-Serif" font-size="11.00" fill="#000000">&lt; 1</text>
<polygon fill="#ffffff" stroke="transparent" points="35.5,-223.7 35.5,-242.7 73.5,-242.7 73.5,-223.7 35.5,-223.7"/>
<polygon fill="none" stroke="#000000" points="35.5,-223.7 35.5,-242.7 73.5,-242.7 73.5,-223.7 35.5,-223.7"/>
<text text-anchor="start" x="38.3053" y="-229.8" font-family="Helvetica,sans-Serif" font-size="11.00" fill="#000000">0 rows</text>
<polygon fill="#ffffff" stroke="transparent" points="73.5,-223.7 73.5,-242.7 94.5,-242.7 94.5,-223.7 73.5,-223.7"/>
<polygon fill="none" stroke="#000000" points="73.5,-223.7 73.5,-242.7 94.5,-242.7 94.5,-223.7 73.5,-223.7"/>
<text text-anchor="start" x="76.2027" y="-229.8" font-family="Helvetica,sans-Serif" font-size="11.00" fill="#000000">1 &gt;</text>
</a>
</g>
</g>
<!-- skills&#45;&gt;events -->
<g id="edge5" class="edge">
<title>skills:w&#45;&gt;events:e</title>
<path fill="none" stroke="#000000" d="M135.957,-164.6102C111.0851,-182.0281 135.9513,-251.7 94.5,-251.7"/>
<polygon fill="#000000" stroke="#000000" points="142.2932,-162.8459 150.9657,-164.1681 146.1466,-161.773 150,-160.7 150,-160.7 150,-160.7 146.1466,-161.773 149.0343,-157.2319 142.2932,-162.8459 142.2932,-162.8459"/>
<ellipse fill="none" stroke="#000000" cx="139.2104" cy="-163.7043" rx="3.2" ry="3.2"/>
</g>
<!-- skill_has_levels -->
<g id="node3" class="node">
<title>skill_has_levels</title>
<g id="a_node3"><a xlink:href="../../tables/skill_has_levels.html" xlink:title="skill_has_levels" target="_top">
<polygon fill="#ffffff" stroke="transparent" points="287,-165.7 287,-277.7 500,-277.7 500,-165.7 287,-165.7"/>
<polygon fill="#f5f5f5" stroke="transparent" points="289.5,-252.7 289.5,-275.7 498.5,-275.7 498.5,-252.7 289.5,-252.7"/>
<polygon fill="none" stroke="#000000" points="289.5,-252.7 289.5,-275.7 498.5,-275.7 498.5,-252.7 289.5,-252.7"/>
<text text-anchor="start" x="294.5" y="-261.8" font-family="Helvetica,sans-Serif" font-weight="bold" font-size="11.00" fill="#000000">skill_has_levels</text>
<text text-anchor="start" x="463.5437" y="-260.8" font-family="Helvetica,sans-Serif" font-size="11.00" fill="#000000">[table]</text>
<polygon fill="none" stroke="#000000" points="289.5,-230.7 289.5,-252.7 400.5,-252.7 400.5,-230.7 289.5,-230.7"/>
<image xlink:href="../../images/primaryKeys.png" width="11px" height="12px" preserveAspectRatio="xMinYMin meet" x="294.5" y="-247.7"/>
<text text-anchor="start" x="309.5" y="-237.8" font-family="Helvetica,sans-Serif" font-size="11.00" fill="#000000">levels_id</text>
<polygon fill="none" stroke="#000000" points="400.5,-230.7 400.5,-252.7 498.5,-252.7 498.5,-230.7 400.5,-230.7"/>
<text text-anchor="start" x="403.5" y="-238.4" font-family="Helvetica,sans-Serif" font-size="11.00" fill="#000000">bigint[19]</text>
<polygon fill="none" stroke="#000000" points="289.5,-208.7 289.5,-230.7 400.5,-230.7 400.5,-208.7 289.5,-208.7"/>
<image xlink:href="../../images/primaryKeys.png" width="11px" height="12px" preserveAspectRatio="xMinYMin meet" x="294.5" y="-225.7"/>
<text text-anchor="start" x="309.5" y="-215.8" font-family="Helvetica,sans-Serif" font-size="11.00" fill="#000000">skills_id</text>
<polygon fill="none" stroke="#000000" points="400.5,-208.7 400.5,-230.7 498.5,-230.7 498.5,-208.7 400.5,-208.7"/>
<text text-anchor="start" x="403.3429" y="-216.4" font-family="Helvetica,sans-Serif" font-size="11.00" fill="#000000">bigint unsigned[20]</text>
<polygon fill="none" stroke="#000000" points="289.5,-186.7 289.5,-208.7 400.5,-208.7 400.5,-186.7 289.5,-186.7"/>
<text text-anchor="start" x="309.5" y="-193.8" font-family="Helvetica,sans-Serif" font-size="11.00" fill="#000000">secuence</text>
<polygon fill="none" stroke="#000000" points="400.5,-186.7 400.5,-208.7 498.5,-208.7 498.5,-186.7 400.5,-186.7"/>
<text text-anchor="start" x="403.5" y="-194.4" font-family="Helvetica,sans-Serif" font-size="11.00" fill="#000000">bit[1]</text>
<polygon fill="#ffffff" stroke="transparent" points="289.5,-167.7 289.5,-186.7 336.5,-186.7 336.5,-167.7 289.5,-167.7"/>
<polygon fill="none" stroke="#000000" points="289.5,-167.7 289.5,-186.7 336.5,-186.7 336.5,-167.7 289.5,-167.7"/>
<text text-anchor="start" x="292.5" y="-173.8" font-family="Helvetica,sans-Serif" font-size="11.00" fill="#000000">&lt; 2</text>
<polygon fill="#ffffff" stroke="transparent" points="336.5,-167.7 336.5,-186.7 400.5,-186.7 400.5,-167.7 336.5,-167.7"/>
<polygon fill="none" stroke="#000000" points="336.5,-167.7 336.5,-186.7 400.5,-186.7 400.5,-167.7 336.5,-167.7"/>
<text text-anchor="start" x="365.1105" y="-173.8" font-family="Helvetica,sans-Serif" font-size="11.00" fill="#000000">0 rows</text>
<polygon fill="#ffffff" stroke="transparent" points="400.5,-167.7 400.5,-186.7 498.5,-186.7 498.5,-167.7 400.5,-167.7"/>
<polygon fill="none" stroke="#000000" points="400.5,-167.7 400.5,-186.7 498.5,-186.7 498.5,-167.7 400.5,-167.7"/>
<text text-anchor="start" x="479.9053" y="-173.8" font-family="Helvetica,sans-Serif" font-size="11.00" fill="#000000">0 &gt;</text>
<polygon fill="none" stroke="#000000" stroke-width="2" points="288,-166.7 288,-276.7 499,-276.7 499,-166.7 288,-166.7"/>
</a>
</g>
</g>
<!-- skill_has_levels&#45;&gt;skills -->
<g id="edge3" class="edge">
<title>skill_has_levels:w&#45;&gt;skills:e</title>
<path fill="none" stroke="#000000" d="M275.4564,-215.4556C261.8991,-205.7369 260.2387,-182.7 238,-182.7"/>
<polygon fill="#000000" stroke="#000000" points="281.8421,-217.3855 288.4585,-223.1461 285.671,-218.5428 289.5,-219.7 289.5,-219.7 289.5,-219.7 285.671,-218.5428 290.5415,-216.2539 281.8421,-217.3855 281.8421,-217.3855"/>
<ellipse fill="none" stroke="#000000" cx="278.7789" cy="-216.4597" rx="3.2" ry="3.2"/>
</g>
<!-- skill_has_levels&#45;&gt;levels -->
<g id="edge2" class="edge">
<title>skill_has_levels:w&#45;&gt;levels:e</title>
<path fill="none" stroke="#000000" d="M275.0437,-242.1344C218.8919,-245.4749 189.3084,-265.9455 142,-227.7 90.8971,-186.387 163.2136,-86.7 97.5,-86.7"/>
<polygon fill="#000000" stroke="#000000" points="281.5036,-241.9403 289.6082,-245.2984 285.5018,-241.8202 289.5,-241.7 289.5,-241.7 289.5,-241.7 285.5018,-241.8202 289.3918,-238.1016 281.5036,-241.9403 281.5036,-241.9403"/>
<ellipse fill="none" stroke="#000000" cx="278.3051" cy="-242.0365" rx="3.2" ry="3.2"/>
</g>
</g>
</svg>
