<?xml version="1.0" encoding="UTF-8" standalone="no"?>
<!DOCTYPE svg PUBLIC "-//W3C//DTD SVG 1.1//EN"
 "http://www.w3.org/Graphics/SVG/1.1/DTD/svg11.dtd">
<!-- Generated by graphviz version 2.40.1 (20161225.0304)
 -->
<!-- Title: twoDegreesRelationshipsDiagram Pages: 1 -->
<svg width="664pt" height="365pt"
 viewBox="0.00 0.00 664.00 364.70" xmlns="http://www.w3.org/2000/svg" xmlns:xlink="http://www.w3.org/1999/xlink">
<g id="graph0" class="graph" transform="scale(1 1) rotate(0) translate(4 360.7)">
<title>twoDegreesRelationshipsDiagram</title>
<polygon fill="#ffffff" stroke="transparent" points="-4,4 -4,-360.7 660,-360.7 660,4 -4,4"/>
<text text-anchor="middle" x="72.4936" y="-7.3" font-family="Helvetica,sans-Serif" font-size="11.00" fill="#000000">Generated by SchemaSpy</text>
<!-- events -->
<g id="node1" class="node">
<title>events</title>
<g id="a_node1"><a xlink:href="../../tables/events.html" xlink:title="events" target="_top">
<polygon fill="#ffffff" stroke="transparent" points="134.5,-206.2 134.5,-267.2 214.5,-267.2 214.5,-206.2 134.5,-206.2"/>
<polygon fill="#f5f5f5" stroke="transparent" points="134.5,-243.7 134.5,-266.7 214.5,-266.7 214.5,-243.7 134.5,-243.7"/>
<polygon fill="none" stroke="#000000" points="134.5,-243.7 134.5,-266.7 214.5,-266.7 214.5,-243.7 134.5,-243.7"/>
<text text-anchor="start" x="139.5" y="-252.8" font-family="Helvetica,sans-Serif" font-weight="bold" font-size="11.00" fill="#000000">events</text>
<text text-anchor="start" x="179.5437" y="-251.8" font-family="Helvetica,sans-Serif" font-size="11.00" fill="#000000">[table]</text>
<polygon fill="none" stroke="#000000" points="134.5,-224.7 134.5,-243.7 214.5,-243.7 214.5,-224.7 134.5,-224.7"/>
<text text-anchor="start" x="137.5" y="-230.8" font-family="Helvetica,sans-Serif" font-size="11.00" fill="#000000">...</text>
<polygon fill="#ffffff" stroke="transparent" points="134.5,-205.7 134.5,-224.7 155.5,-224.7 155.5,-205.7 134.5,-205.7"/>
<polygon fill="none" stroke="#000000" points="134.5,-205.7 134.5,-224.7 155.5,-224.7 155.5,-205.7 134.5,-205.7"/>
<text text-anchor="start" x="137.2027" y="-211.8" font-family="Helvetica,sans-Serif" font-size="11.00" fill="#000000">&lt; 1</text>
<polygon fill="#ffffff" stroke="transparent" points="155.5,-205.7 155.5,-224.7 193.5,-224.7 193.5,-205.7 155.5,-205.7"/>
<polygon fill="none" stroke="#000000" points="155.5,-205.7 155.5,-224.7 193.5,-224.7 193.5,-205.7 155.5,-205.7"/>
<text text-anchor="start" x="158.3053" y="-211.8" font-family="Helvetica,sans-Serif" font-size="11.00" fill="#000000">0 rows</text>
<polygon fill="#ffffff" stroke="transparent" points="193.5,-205.7 193.5,-224.7 214.5,-224.7 214.5,-205.7 193.5,-205.7"/>
<polygon fill="none" stroke="#000000" points="193.5,-205.7 193.5,-224.7 214.5,-224.7 214.5,-205.7 193.5,-205.7"/>
<text text-anchor="start" x="196.2027" y="-211.8" font-family="Helvetica,sans-Serif" font-size="11.00" fill="#000000">1 &gt;</text>
</a>
</g>
</g>
<!-- gyms -->
<g id="node2" class="node">
<title>gyms</title>
<g id="a_node2"><a xlink:href="../../tables/gyms.html" xlink:title="gyms" target="_top">
<polygon fill="#ffffff" stroke="transparent" points="8,-236.2 8,-297.2 79,-297.2 79,-236.2 8,-236.2"/>
<polygon fill="#f5f5f5" stroke="transparent" points="8.5,-273.7 8.5,-296.7 79.5,-296.7 79.5,-273.7 8.5,-273.7"/>
<polygon fill="none" stroke="#000000" points="8.5,-273.7 8.5,-296.7 79.5,-296.7 79.5,-273.7 8.5,-273.7"/>
<text text-anchor="start" x="13.5" y="-282.8" font-family="Helvetica,sans-Serif" font-weight="bold" font-size="11.00" fill="#000000">gyms</text>
<text text-anchor="start" x="44.5437" y="-281.8" font-family="Helvetica,sans-Serif" font-size="11.00" fill="#000000">[table]</text>
<polygon fill="none" stroke="#000000" points="8.5,-254.7 8.5,-273.7 79.5,-273.7 79.5,-254.7 8.5,-254.7"/>
<text text-anchor="start" x="11.5" y="-260.8" font-family="Helvetica,sans-Serif" font-size="11.00" fill="#000000">...</text>
<polygon fill="#ffffff" stroke="transparent" points="8.5,-235.7 8.5,-254.7 20.5,-254.7 20.5,-235.7 8.5,-235.7"/>
<polygon fill="none" stroke="#000000" points="8.5,-235.7 8.5,-254.7 20.5,-254.7 20.5,-235.7 8.5,-235.7"/>
<text text-anchor="start" x="11.4431" y="-241.8" font-family="Helvetica,sans-Serif" font-size="11.00" fill="#000000"> &#160;</text>
<polygon fill="#ffffff" stroke="transparent" points="20.5,-235.7 20.5,-254.7 58.5,-254.7 58.5,-235.7 20.5,-235.7"/>
<polygon fill="none" stroke="#000000" points="20.5,-235.7 20.5,-254.7 58.5,-254.7 58.5,-235.7 20.5,-235.7"/>
<text text-anchor="start" x="23.3053" y="-241.8" font-family="Helvetica,sans-Serif" font-size="11.00" fill="#000000">0 rows</text>
<polygon fill="#ffffff" stroke="transparent" points="58.5,-235.7 58.5,-254.7 79.5,-254.7 79.5,-235.7 58.5,-235.7"/>
<polygon fill="none" stroke="#000000" points="58.5,-235.7 58.5,-254.7 79.5,-254.7 79.5,-235.7 58.5,-235.7"/>
<text text-anchor="start" x="61.2027" y="-241.8" font-family="Helvetica,sans-Serif" font-size="11.00" fill="#000000">3 &gt;</text>
</a>
</g>
</g>
<!-- events&#45;&gt;gyms -->
<g id="edge1" class="edge">
<title>events:w&#45;&gt;gyms:e</title>
<path fill="none" stroke="#000000" d="M120.1528,-237.1414C105.6766,-245.0214 101.4709,-263.7 79.5,-263.7"/>
<polygon fill="#000000" stroke="#000000" points="126.7207,-235.566 135.3397,-237.2007 130.6103,-234.633 134.5,-233.7 134.5,-233.7 134.5,-233.7 130.6103,-234.633 133.6603,-230.1993 126.7207,-235.566 126.7207,-235.566"/>
<ellipse fill="none" stroke="#000000" cx="123.6089" cy="-236.3124" rx="3.2" ry="3.2"/>
</g>
<!-- gymnast_has_skills -->
<g id="node3" class="node">
<title>gymnast_has_skills</title>
<g id="a_node3"><a xlink:href="../../tables/gymnast_has_skills.html" xlink:title="gymnast_has_skills" target="_top">
<polygon fill="#ffffff" stroke="transparent" points="458.5,-158.2 458.5,-219.2 596.5,-219.2 596.5,-158.2 458.5,-158.2"/>
<polygon fill="#f5f5f5" stroke="transparent" points="458.5,-195.7 458.5,-218.7 596.5,-218.7 596.5,-195.7 458.5,-195.7"/>
<polygon fill="none" stroke="#000000" points="458.5,-195.7 458.5,-218.7 596.5,-218.7 596.5,-195.7 458.5,-195.7"/>
<text text-anchor="start" x="463.3271" y="-204.8" font-family="Helvetica,sans-Serif" font-weight="bold" font-size="11.00" fill="#000000">gymnast_has_skills</text>
<text text-anchor="start" x="562.0219" y="-203.8" font-family="Helvetica,sans-Serif" font-size="11.00" fill="#000000">[table]</text>
<polygon fill="none" stroke="#000000" points="458.5,-176.7 458.5,-195.7 596.5,-195.7 596.5,-176.7 458.5,-176.7"/>
<text text-anchor="start" x="461.5" y="-182.8" font-family="Helvetica,sans-Serif" font-size="11.00" fill="#000000">...</text>
<polygon fill="#ffffff" stroke="transparent" points="458.5,-157.7 458.5,-176.7 512.5,-176.7 512.5,-157.7 458.5,-157.7"/>
<polygon fill="none" stroke="#000000" points="458.5,-157.7 458.5,-176.7 512.5,-176.7 512.5,-157.7 458.5,-157.7"/>
<text text-anchor="start" x="461.5" y="-163.8" font-family="Helvetica,sans-Serif" font-size="11.00" fill="#000000">&lt; 2</text>
<polygon fill="#ffffff" stroke="transparent" points="512.5,-157.7 512.5,-176.7 567.5,-176.7 567.5,-157.7 512.5,-157.7"/>
<polygon fill="none" stroke="#000000" points="512.5,-157.7 512.5,-176.7 567.5,-176.7 567.5,-157.7 512.5,-157.7"/>
<text text-anchor="start" x="532.1105" y="-163.8" font-family="Helvetica,sans-Serif" font-size="11.00" fill="#000000">0 rows</text>
<polygon fill="#ffffff" stroke="transparent" points="567.5,-157.7 567.5,-176.7 596.5,-176.7 596.5,-157.7 567.5,-157.7"/>
<polygon fill="none" stroke="#000000" points="567.5,-157.7 567.5,-176.7 596.5,-176.7 596.5,-157.7 567.5,-157.7"/>
<text text-anchor="start" x="587.3862" y="-163.8" font-family="Helvetica,sans-Serif" font-size="11.00" fill="#000000"> &#160;</text>
</a>
</g>
</g>
<!-- skills -->
<g id="node4" class="node">
<title>skills</title>
<g id="a_node4"><a xlink:href="../../tables/skills.html" xlink:title="skills" target="_top">
<polygon fill="#ffffff" stroke="transparent" points="270,-76.2 270,-225.2 358,-225.2 358,-76.2 270,-76.2"/>
<polygon fill="#f5f5f5" stroke="transparent" points="270,-201.7 270,-224.7 358,-224.7 358,-201.7 270,-201.7"/>
<polygon fill="none" stroke="#000000" points="270,-201.7 270,-224.7 358,-224.7 358,-201.7 270,-201.7"/>
<text text-anchor="start" x="275" y="-210.8" font-family="Helvetica,sans-Serif" font-weight="bold" font-size="11.00" fill="#000000">skills</text>
<text text-anchor="start" x="323.0437" y="-209.8" font-family="Helvetica,sans-Serif" font-size="11.00" fill="#000000">[table]</text>
<polygon fill="none" stroke="#000000" points="270,-179.7 270,-201.7 358,-201.7 358,-179.7 270,-179.7"/>
<image xlink:href="../../images/primaryKeys.png" width="11px" height="12px" preserveAspectRatio="xMinYMin meet" x="275" y="-196.7"/>
<text text-anchor="start" x="290" y="-186.8" font-family="Helvetica,sans-Serif" font-size="11.00" fill="#000000">id</text>
<polygon fill="#ffffff" stroke="transparent" points="270,-157.7 270,-179.7 358,-179.7 358,-157.7 270,-157.7"/>
<polygon fill="none" stroke="#000000" points="270,-157.7 270,-179.7 358,-179.7 358,-157.7 270,-157.7"/>
<image xlink:href="../../images/foreignKeys.png" width="11px" height="12px" preserveAspectRatio="xMinYMin meet" x="275" y="-174.7"/>
<text text-anchor="start" x="290" y="-164.8" font-family="Helvetica,sans-Serif" font-size="11.00" fill="#000000">event_id</text>
<polygon fill="#ffffff" stroke="transparent" points="270,-135.7 270,-157.7 358,-157.7 358,-135.7 270,-135.7"/>
<polygon fill="none" stroke="#000000" points="270,-135.7 270,-157.7 358,-157.7 358,-135.7 270,-135.7"/>
<image xlink:href="../../images/foreignKeys.png" width="11px" height="12px" preserveAspectRatio="xMinYMin meet" x="275" y="-152.7"/>
<text text-anchor="start" x="290" y="-142.8" font-family="Helvetica,sans-Serif" font-size="11.00" fill="#000000">category_id</text>
<polygon fill="#ffffff" stroke="transparent" points="270,-113.7 270,-135.7 358,-135.7 358,-113.7 270,-113.7"/>
<polygon fill="none" stroke="#000000" points="270,-113.7 270,-135.7 358,-135.7 358,-113.7 270,-113.7"/>
<image xlink:href="../../images/foreignKeys.png" width="11px" height="12px" preserveAspectRatio="xMinYMin meet" x="275" y="-130.7"/>
<text text-anchor="start" x="290" y="-120.8" font-family="Helvetica,sans-Serif" font-size="11.00" fill="#000000">level_id</text>
<polygon fill="none" stroke="#000000" points="270,-94.7 270,-113.7 358,-113.7 358,-94.7 270,-94.7"/>
<text text-anchor="start" x="273" y="-100.8" font-family="Helvetica,sans-Serif" font-size="11.00" fill="#000000">...</text>
<polygon fill="#ffffff" stroke="transparent" points="270,-75.7 270,-94.7 295,-94.7 295,-75.7 270,-75.7"/>
<polygon fill="none" stroke="#000000" points="270,-75.7 270,-94.7 295,-94.7 295,-75.7 270,-75.7"/>
<text text-anchor="start" x="273" y="-81.8" font-family="Helvetica,sans-Serif" font-size="11.00" fill="#000000">&lt; 3</text>
<polygon fill="#ffffff" stroke="transparent" points="295,-75.7 295,-94.7 335,-94.7 335,-75.7 295,-75.7"/>
<polygon fill="none" stroke="#000000" points="295,-75.7 295,-94.7 335,-94.7 335,-75.7 295,-75.7"/>
<text text-anchor="start" x="299.6105" y="-81.8" font-family="Helvetica,sans-Serif" font-size="11.00" fill="#000000">0 rows</text>
<polygon fill="#ffffff" stroke="transparent" points="335,-75.7 335,-94.7 358,-94.7 358,-75.7 335,-75.7"/>
<polygon fill="none" stroke="#000000" points="335,-75.7 335,-94.7 358,-94.7 358,-75.7 335,-75.7"/>
<text text-anchor="start" x="339.4053" y="-81.8" font-family="Helvetica,sans-Serif" font-size="11.00" fill="#000000">2 &gt;</text>
</a>
</g>
</g>
<!-- gymnast_has_skills&#45;&gt;skills -->
<g id="edge2" class="edge">
<title>gymnast_has_skills:w&#45;&gt;skills:e</title>
<path fill="none" stroke="#000000" d="M444.0561,-185.8899C410.7245,-186.8032 397.4811,-190.7 358,-190.7"/>
<polygon fill="#000000" stroke="#000000" points="450.5007,-185.8052 458.5474,-189.2997 454.5003,-185.7526 458.5,-185.7 458.5,-185.7 458.5,-185.7 454.5003,-185.7526 458.4526,-182.1003 450.5007,-185.8052 450.5007,-185.8052"/>
<ellipse fill="none" stroke="#000000" cx="447.301" cy="-185.8473" rx="3.2" ry="3.2"/>
</g>
<!-- skills&#45;&gt;events -->
<g id="edge7" class="edge">
<title>skills:w&#45;&gt;events:e</title>
<path fill="none" stroke="#000000" d="M256.0294,-172.9648C236.9839,-187.4256 246.5515,-233.7 214.5,-233.7"/>
<polygon fill="#000000" stroke="#000000" points="262.3486,-171.0358 271.0511,-172.1431 266.1743,-169.8679 270,-168.7 270,-168.7 270,-168.7 266.1743,-169.8679 268.9489,-165.2569 262.3486,-171.0358 262.3486,-171.0358"/>
<ellipse fill="none" stroke="#000000" cx="259.288" cy="-171.9701" rx="3.2" ry="3.2"/>
</g>
<!-- categories -->
<g id="node7" class="node">
<title>categories</title>
<g id="a_node7"><a xlink:href="../../tables/categories.html" xlink:title="categories" target="_top">
<polygon fill="#ffffff" stroke="transparent" points="128,-120.2 128,-181.2 221,-181.2 221,-120.2 128,-120.2"/>
<polygon fill="#f5f5f5" stroke="transparent" points="128.5,-157.7 128.5,-180.7 221.5,-180.7 221.5,-157.7 128.5,-157.7"/>
<polygon fill="none" stroke="#000000" points="128.5,-157.7 128.5,-180.7 221.5,-180.7 221.5,-157.7 128.5,-157.7"/>
<text text-anchor="start" x="133.1329" y="-166.8" font-family="Helvetica,sans-Serif" font-weight="bold" font-size="11.00" fill="#000000">categories</text>
<text text-anchor="start" x="187.0219" y="-165.8" font-family="Helvetica,sans-Serif" font-size="11.00" fill="#000000">[table]</text>
<polygon fill="none" stroke="#000000" points="128.5,-138.7 128.5,-157.7 221.5,-157.7 221.5,-138.7 128.5,-138.7"/>
<text text-anchor="start" x="131.5" y="-144.8" font-family="Helvetica,sans-Serif" font-size="11.00" fill="#000000">...</text>
<polygon fill="#ffffff" stroke="transparent" points="128.5,-119.7 128.5,-138.7 151.5,-138.7 151.5,-119.7 128.5,-119.7"/>
<polygon fill="none" stroke="#000000" points="128.5,-119.7 128.5,-138.7 151.5,-138.7 151.5,-119.7 128.5,-119.7"/>
<text text-anchor="start" x="131.5" y="-125.8" font-family="Helvetica,sans-Serif" font-size="11.00" fill="#000000"> &#160;</text>
<polygon fill="#ffffff" stroke="transparent" points="151.5,-119.7 151.5,-138.7 194.5,-138.7 194.5,-119.7 151.5,-119.7"/>
<polygon fill="none" stroke="#000000" points="151.5,-119.7 151.5,-138.7 194.5,-138.7 194.5,-119.7 151.5,-119.7"/>
<text text-anchor="start" x="159.1105" y="-125.8" font-family="Helvetica,sans-Serif" font-size="11.00" fill="#000000">0 rows</text>
<polygon fill="#ffffff" stroke="transparent" points="194.5,-119.7 194.5,-138.7 221.5,-138.7 221.5,-119.7 194.5,-119.7"/>
<polygon fill="none" stroke="#000000" points="194.5,-119.7 194.5,-138.7 221.5,-138.7 221.5,-119.7 194.5,-119.7"/>
<text text-anchor="start" x="202.9053" y="-125.8" font-family="Helvetica,sans-Serif" font-size="11.00" fill="#000000">1 &gt;</text>
</a>
</g>
</g>
<!-- skills&#45;&gt;categories -->
<g id="edge6" class="edge">
<title>skills:w&#45;&gt;categories:e</title>
<path fill="none" stroke="#000000" d="M255.2817,-146.8834C244.288,-147.1721 237.1648,-147.7 221.5,-147.7"/>
<polygon fill="#000000" stroke="#000000" points="262.0006,-146.7997 270.0449,-150.2997 266.0003,-146.7499 270,-146.7 270,-146.7 270,-146.7 266.0003,-146.7499 269.9551,-143.1003 262.0006,-146.7997 262.0006,-146.7997"/>
<ellipse fill="none" stroke="#000000" cx="258.8009" cy="-146.8396" rx="3.2" ry="3.2"/>
</g>
<!-- levels -->
<g id="node8" class="node">
<title>levels</title>
<g id="a_node8"><a xlink:href="../../tables/levels.html" xlink:title="levels" target="_top">
<polygon fill="#ffffff" stroke="transparent" points="139,-38.2 139,-99.2 210,-99.2 210,-38.2 139,-38.2"/>
<polygon fill="#f5f5f5" stroke="transparent" points="139.5,-75.7 139.5,-98.7 210.5,-98.7 210.5,-75.7 139.5,-75.7"/>
<polygon fill="none" stroke="#000000" points="139.5,-75.7 139.5,-98.7 210.5,-98.7 210.5,-75.7 139.5,-75.7"/>
<text text-anchor="start" x="144.4442" y="-84.8" font-family="Helvetica,sans-Serif" font-weight="bold" font-size="11.00" fill="#000000">levels</text>
<text text-anchor="start" x="176.0219" y="-83.8" font-family="Helvetica,sans-Serif" font-size="11.00" fill="#000000">[table]</text>
<polygon fill="none" stroke="#000000" points="139.5,-56.7 139.5,-75.7 210.5,-75.7 210.5,-56.7 139.5,-56.7"/>
<text text-anchor="start" x="142.5" y="-62.8" font-family="Helvetica,sans-Serif" font-size="11.00" fill="#000000">...</text>
<polygon fill="#ffffff" stroke="transparent" points="139.5,-37.7 139.5,-56.7 151.5,-56.7 151.5,-37.7 139.5,-37.7"/>
<polygon fill="none" stroke="#000000" points="139.5,-37.7 139.5,-56.7 151.5,-56.7 151.5,-37.7 139.5,-37.7"/>
<text text-anchor="start" x="142.4431" y="-43.8" font-family="Helvetica,sans-Serif" font-size="11.00" fill="#000000"> &#160;</text>
<polygon fill="#ffffff" stroke="transparent" points="151.5,-37.7 151.5,-56.7 189.5,-56.7 189.5,-37.7 151.5,-37.7"/>
<polygon fill="none" stroke="#000000" points="151.5,-37.7 151.5,-56.7 189.5,-56.7 189.5,-37.7 151.5,-37.7"/>
<text text-anchor="start" x="154.3053" y="-43.8" font-family="Helvetica,sans-Serif" font-size="11.00" fill="#000000">0 rows</text>
<polygon fill="#ffffff" stroke="transparent" points="189.5,-37.7 189.5,-56.7 210.5,-56.7 210.5,-37.7 189.5,-37.7"/>
<polygon fill="none" stroke="#000000" points="189.5,-37.7 189.5,-56.7 210.5,-56.7 210.5,-37.7 189.5,-37.7"/>
<text text-anchor="start" x="192.2027" y="-43.8" font-family="Helvetica,sans-Serif" font-size="11.00" fill="#000000">1 &gt;</text>
</a>
</g>
</g>
<!-- skills&#45;&gt;levels -->
<g id="edge8" class="edge">
<title>skills:w&#45;&gt;levels:e</title>
<path fill="none" stroke="#000000" d="M255.9697,-120.8288C236.1658,-107.7029 241.9223,-65.7 210.5,-65.7"/>
<polygon fill="#000000" stroke="#000000" points="262.2882,-122.5722 269.0425,-128.1703 266.1441,-123.6361 270,-124.7 270,-124.7 270,-124.7 266.1441,-123.6361 270.9575,-121.2297 262.2882,-122.5722 262.2882,-122.5722"/>
<ellipse fill="none" stroke="#000000" cx="259.2034" cy="-121.721" rx="3.2" ry="3.2"/>
</g>
<!-- skill_lists -->
<g id="node5" class="node">
<title>skill_lists</title>
<g id="a_node5"><a xlink:href="../../tables/skill_lists.html" xlink:title="skill_lists" target="_top">
<polygon fill="#ffffff" stroke="transparent" points="271,-246.2 271,-351.2 357,-351.2 357,-246.2 271,-246.2"/>
<polygon fill="#f5f5f5" stroke="transparent" points="271,-327.7 271,-350.7 357,-350.7 357,-327.7 271,-327.7"/>
<polygon fill="none" stroke="#000000" points="271,-327.7 271,-350.7 357,-350.7 357,-327.7 271,-327.7"/>
<text text-anchor="start" x="275.8119" y="-336.8" font-family="Helvetica,sans-Serif" font-weight="bold" font-size="11.00" fill="#000000">skill_lists</text>
<text text-anchor="start" x="322.5219" y="-335.8" font-family="Helvetica,sans-Serif" font-size="11.00" fill="#000000">[table]</text>
<polygon fill="none" stroke="#000000" points="271,-305.7 271,-327.7 357,-327.7 357,-305.7 271,-305.7"/>
<image xlink:href="../../images/primaryKeys.png" width="11px" height="12px" preserveAspectRatio="xMinYMin meet" x="276" y="-322.7"/>
<text text-anchor="start" x="292" y="-312.8" font-family="Helvetica,sans-Serif" font-size="11.00" fill="#000000">id</text>
<polygon fill="#ffffff" stroke="transparent" points="271,-283.7 271,-305.7 357,-305.7 357,-283.7 271,-283.7"/>
<polygon fill="none" stroke="#000000" points="271,-283.7 271,-305.7 357,-305.7 357,-283.7 271,-283.7"/>
<image xlink:href="../../images/foreignKeys.png" width="11px" height="12px" preserveAspectRatio="xMinYMin meet" x="276" y="-300.7"/>
<text text-anchor="start" x="292" y="-290.8" font-family="Helvetica,sans-Serif" font-size="11.00" fill="#000000">gym_id</text>
<polygon fill="none" stroke="#000000" points="271,-264.7 271,-283.7 357,-283.7 357,-264.7 271,-264.7"/>
<text text-anchor="start" x="274" y="-270.8" font-family="Helvetica,sans-Serif" font-size="11.00" fill="#000000">...</text>
<polygon fill="#ffffff" stroke="transparent" points="271,-245.7 271,-264.7 295,-264.7 295,-245.7 271,-245.7"/>
<polygon fill="none" stroke="#000000" points="271,-245.7 271,-264.7 295,-264.7 295,-245.7 271,-245.7"/>
<text text-anchor="start" x="274" y="-251.8" font-family="Helvetica,sans-Serif" font-size="11.00" fill="#000000">&lt; 1</text>
<polygon fill="#ffffff" stroke="transparent" points="295,-245.7 295,-264.7 334,-264.7 334,-245.7 295,-245.7"/>
<polygon fill="none" stroke="#000000" points="295,-245.7 295,-264.7 334,-264.7 334,-245.7 295,-245.7"/>
<text text-anchor="start" x="298.6105" y="-251.8" font-family="Helvetica,sans-Serif" font-size="11.00" fill="#000000">0 rows</text>
<polygon fill="#ffffff" stroke="transparent" points="334,-245.7 334,-264.7 357,-264.7 357,-245.7 334,-245.7"/>
<polygon fill="none" stroke="#000000" points="334,-245.7 334,-264.7 357,-264.7 357,-245.7 334,-245.7"/>
<text text-anchor="start" x="338.4053" y="-251.8" font-family="Helvetica,sans-Serif" font-size="11.00" fill="#000000">1 &gt;</text>
</a>
</g>
</g>
<!-- skill_lists&#45;&gt;gyms -->
<g id="edge3" class="edge">
<title>skill_lists:w&#45;&gt;gyms:e</title>
<path fill="none" stroke="#000000" d="M256.3931,-294.6587C200.5045,-294.3059 180.8533,-291.4656 120,-277.7 101.4242,-273.498 98.5451,-263.7 79.5,-263.7"/>
<polygon fill="#000000" stroke="#000000" points="263,-294.6773 270.9898,-298.3 267,-294.6887 271,-294.7 271,-294.7 271,-294.7 267,-294.6887 271.0102,-291.1 263,-294.6773 263,-294.6773"/>
<ellipse fill="none" stroke="#000000" cx="259.8" cy="-294.6683" rx="3.2" ry="3.2"/>
</g>
<!-- skill_lists_has_skills -->
<g id="node6" class="node">
<title>skill_lists_has_skills</title>
<g id="a_node6"><a xlink:href="../../tables/skill_lists_has_skills.html" xlink:title="skill_lists_has_skills" target="_top">
<polygon fill="#ffffff" stroke="transparent" points="407,-240.7 407,-352.7 648,-352.7 648,-240.7 407,-240.7"/>
<polygon fill="#f5f5f5" stroke="transparent" points="409.5,-327.7 409.5,-350.7 646.5,-350.7 646.5,-327.7 409.5,-327.7"/>
<polygon fill="none" stroke="#000000" points="409.5,-327.7 409.5,-350.7 646.5,-350.7 646.5,-327.7 409.5,-327.7"/>
<text text-anchor="start" x="414.5" y="-336.8" font-family="Helvetica,sans-Serif" font-weight="bold" font-size="11.00" fill="#000000">skill_lists_has_skills</text>
<text text-anchor="start" x="611.5437" y="-335.8" font-family="Helvetica,sans-Serif" font-size="11.00" fill="#000000">[table]</text>
<polygon fill="none" stroke="#000000" points="409.5,-305.7 409.5,-327.7 548.5,-327.7 548.5,-305.7 409.5,-305.7"/>
<image xlink:href="../../images/primaryKeys.png" width="11px" height="12px" preserveAspectRatio="xMinYMin meet" x="414.5" y="-322.7"/>
<text text-anchor="start" x="429.5" y="-312.8" font-family="Helvetica,sans-Serif" font-size="11.00" fill="#000000">skill_list_id</text>
<polygon fill="none" stroke="#000000" points="548.5,-305.7 548.5,-327.7 646.5,-327.7 646.5,-305.7 548.5,-305.7"/>
<text text-anchor="start" x="551.3429" y="-313.4" font-family="Helvetica,sans-Serif" font-size="11.00" fill="#000000">bigint unsigned[20]</text>
<polygon fill="none" stroke="#000000" points="409.5,-283.7 409.5,-305.7 548.5,-305.7 548.5,-283.7 409.5,-283.7"/>
<image xlink:href="../../images/primaryKeys.png" width="11px" height="12px" preserveAspectRatio="xMinYMin meet" x="414.5" y="-300.7"/>
<text text-anchor="start" x="429.5" y="-290.8" font-family="Helvetica,sans-Serif" font-size="11.00" fill="#000000">skill_id</text>
<polygon fill="none" stroke="#000000" points="548.5,-283.7 548.5,-305.7 646.5,-305.7 646.5,-283.7 548.5,-283.7"/>
<text text-anchor="start" x="551.3429" y="-291.4" font-family="Helvetica,sans-Serif" font-size="11.00" fill="#000000">bigint unsigned[20]</text>
<polygon fill="none" stroke="#000000" points="409.5,-261.7 409.5,-283.7 548.5,-283.7 548.5,-261.7 409.5,-261.7"/>
<text text-anchor="start" x="429.5" y="-268.8" font-family="Helvetica,sans-Serif" font-size="11.00" fill="#000000">order</text>
<polygon fill="none" stroke="#000000" points="548.5,-261.7 548.5,-283.7 646.5,-283.7 646.5,-261.7 548.5,-261.7"/>
<text text-anchor="start" x="551.5" y="-269.4" font-family="Helvetica,sans-Serif" font-size="11.00" fill="#000000">int[10]</text>
<polygon fill="#ffffff" stroke="transparent" points="409.5,-242.7 409.5,-261.7 470.5,-261.7 470.5,-242.7 409.5,-242.7"/>
<polygon fill="none" stroke="#000000" points="409.5,-242.7 409.5,-261.7 470.5,-261.7 470.5,-242.7 409.5,-242.7"/>
<text text-anchor="start" x="412.5" y="-248.8" font-family="Helvetica,sans-Serif" font-size="11.00" fill="#000000">&lt; 2</text>
<polygon fill="#ffffff" stroke="transparent" points="470.5,-242.7 470.5,-261.7 548.5,-261.7 548.5,-242.7 470.5,-242.7"/>
<polygon fill="none" stroke="#000000" points="470.5,-242.7 470.5,-261.7 548.5,-261.7 548.5,-242.7 470.5,-242.7"/>
<text text-anchor="start" x="513.1105" y="-248.8" font-family="Helvetica,sans-Serif" font-size="11.00" fill="#000000">0 rows</text>
<polygon fill="#ffffff" stroke="transparent" points="548.5,-242.7 548.5,-261.7 646.5,-261.7 646.5,-242.7 548.5,-242.7"/>
<polygon fill="none" stroke="#000000" points="548.5,-242.7 548.5,-261.7 646.5,-261.7 646.5,-242.7 548.5,-242.7"/>
<text text-anchor="start" x="627.9053" y="-248.8" font-family="Helvetica,sans-Serif" font-size="11.00" fill="#000000">0 &gt;</text>
<polygon fill="none" stroke="#000000" stroke-width="2" points="408,-241.7 408,-351.7 647,-351.7 647,-241.7 408,-241.7"/>
</a>
</g>
</g>
<!-- skill_lists_has_skills&#45;&gt;skills -->
<g id="edge4" class="edge">
<title>skill_lists_has_skills:w&#45;&gt;skills:e</title>
<path fill="none" stroke="#000000" d="M395.2877,-290.7501C368.6106,-271.7532 403.5346,-190.7 358,-190.7"/>
<polygon fill="#000000" stroke="#000000" points="401.7921,-292.5578 408.536,-298.1685 405.6461,-293.6289 409.5,-294.7 409.5,-294.7 409.5,-294.7 405.6461,-293.6289 410.464,-291.2315 401.7921,-292.5578 401.7921,-292.5578"/>
<ellipse fill="none" stroke="#000000" cx="398.709" cy="-291.7009" rx="3.2" ry="3.2"/>
</g>
<!-- skill_lists_has_skills&#45;&gt;skill_lists -->
<g id="edge5" class="edge">
<title>skill_lists_has_skills:w&#45;&gt;skill_lists:e</title>
<path fill="none" stroke="#000000" d="M394.7344,-316.7C382.1563,-316.7 374.5,-316.7 357,-316.7"/>
<polygon fill="#000000" stroke="#000000" points="401.5,-316.7001 409.5,-320.3 405.5,-316.7 409.5,-316.7 409.5,-316.7 409.5,-316.7 405.5,-316.7 409.5,-313.1 401.5,-316.7001 401.5,-316.7001"/>
<ellipse fill="none" stroke="#000000" cx="398.3" cy="-316.7001" rx="3.2" ry="3.2"/>
</g>
</g>
</svg>
