<?xml version="1.0" encoding="UTF-8" standalone="no"?>
<!DOCTYPE svg PUBLIC "-//W3C//DTD SVG 1.1//EN"
 "http://www.w3.org/Graphics/SVG/1.1/DTD/svg11.dtd">
<!-- Generated by graphviz version 2.40.1 (20161225.0304)
 -->
<!-- Title: twoDegreesRelationshipsDiagram Pages: 1 -->
<svg width="668pt" height="494pt"
 viewBox="0.00 0.00 668.00 494.20" xmlns="http://www.w3.org/2000/svg" xmlns:xlink="http://www.w3.org/1999/xlink">
<g id="graph0" class="graph" transform="scale(1 1) rotate(0) translate(4 490.2)">
<title>twoDegreesRelationshipsDiagram</title>
<polygon fill="#ffffff" stroke="transparent" points="-4,4 -4,-490.2 664,-490.2 664,4 -4,4"/>
<text text-anchor="middle" x="72.4936" y="-7.3" font-family="Helvetica,sans-Serif" font-size="11.00" fill="#000000">Generated by SchemaSpy</text>
<!-- classes -->
<g id="node1" class="node">
<title>classes</title>
<g id="a_node1"><a xlink:href="../../tables/classes.html" xlink:title="classes" target="_top">
<polygon fill="#ffffff" stroke="transparent" points="378,-296.2 378,-401.2 463,-401.2 463,-296.2 378,-296.2"/>
<polygon fill="#f5f5f5" stroke="transparent" points="378.5,-377.7 378.5,-400.7 463.5,-400.7 463.5,-377.7 378.5,-377.7"/>
<polygon fill="none" stroke="#000000" points="378.5,-377.7 378.5,-400.7 463.5,-400.7 463.5,-377.7 378.5,-377.7"/>
<text text-anchor="start" x="383.5" y="-386.8" font-family="Helvetica,sans-Serif" font-weight="bold" font-size="11.00" fill="#000000">classes</text>
<text text-anchor="start" x="428.5437" y="-385.8" font-family="Helvetica,sans-Serif" font-size="11.00" fill="#000000">[table]</text>
<polygon fill="none" stroke="#000000" points="378.5,-355.7 378.5,-377.7 463.5,-377.7 463.5,-355.7 378.5,-355.7"/>
<image xlink:href="../../images/primaryKeys.png" width="11px" height="12px" preserveAspectRatio="xMinYMin meet" x="383.5" y="-372.7"/>
<text text-anchor="start" x="398.5" y="-362.8" font-family="Helvetica,sans-Serif" font-size="11.00" fill="#000000">id</text>
<polygon fill="#ffffff" stroke="transparent" points="378.5,-333.7 378.5,-355.7 463.5,-355.7 463.5,-333.7 378.5,-333.7"/>
<polygon fill="none" stroke="#000000" points="378.5,-333.7 378.5,-355.7 463.5,-355.7 463.5,-333.7 378.5,-333.7"/>
<image xlink:href="../../images/foreignKeys.png" width="11px" height="12px" preserveAspectRatio="xMinYMin meet" x="383.5" y="-350.7"/>
<text text-anchor="start" x="398.5" y="-340.8" font-family="Helvetica,sans-Serif" font-size="11.00" fill="#000000">skill_list_id</text>
<polygon fill="none" stroke="#000000" points="378.5,-314.7 378.5,-333.7 463.5,-333.7 463.5,-314.7 378.5,-314.7"/>
<text text-anchor="start" x="381.5" y="-320.8" font-family="Helvetica,sans-Serif" font-size="11.00" fill="#000000">...</text>
<polygon fill="#ffffff" stroke="transparent" points="378.5,-295.7 378.5,-314.7 401.5,-314.7 401.5,-295.7 378.5,-295.7"/>
<polygon fill="none" stroke="#000000" points="378.5,-295.7 378.5,-314.7 401.5,-314.7 401.5,-295.7 378.5,-295.7"/>
<text text-anchor="start" x="381.5" y="-301.8" font-family="Helvetica,sans-Serif" font-size="11.00" fill="#000000">&lt; 1</text>
<polygon fill="#ffffff" stroke="transparent" points="401.5,-295.7 401.5,-314.7 440.5,-314.7 440.5,-295.7 401.5,-295.7"/>
<polygon fill="none" stroke="#000000" points="401.5,-295.7 401.5,-314.7 440.5,-314.7 440.5,-295.7 401.5,-295.7"/>
<text text-anchor="start" x="405.1105" y="-301.8" font-family="Helvetica,sans-Serif" font-size="11.00" fill="#000000">0 rows</text>
<polygon fill="#ffffff" stroke="transparent" points="440.5,-295.7 440.5,-314.7 463.5,-314.7 463.5,-295.7 440.5,-295.7"/>
<polygon fill="none" stroke="#000000" points="440.5,-295.7 440.5,-314.7 463.5,-314.7 463.5,-295.7 440.5,-295.7"/>
<text text-anchor="start" x="444.9053" y="-301.8" font-family="Helvetica,sans-Serif" font-size="11.00" fill="#000000">3 &gt;</text>
</a>
</g>
</g>
<!-- skill_lists -->
<g id="node2" class="node">
<title>skill_lists</title>
<g id="a_node2"><a xlink:href="../../tables/skill_lists.html" xlink:title="skill_lists" target="_top">
<polygon fill="#ffffff" stroke="transparent" points="142,-202.7 142,-380.7 329,-380.7 329,-202.7 142,-202.7"/>
<polygon fill="#f5f5f5" stroke="transparent" points="144.5,-355.7 144.5,-378.7 327.5,-378.7 327.5,-355.7 144.5,-355.7"/>
<polygon fill="none" stroke="#000000" points="144.5,-355.7 144.5,-378.7 327.5,-378.7 327.5,-355.7 144.5,-355.7"/>
<text text-anchor="start" x="149.5" y="-364.8" font-family="Helvetica,sans-Serif" font-weight="bold" font-size="11.00" fill="#000000">skill_lists</text>
<text text-anchor="start" x="292.5437" y="-363.8" font-family="Helvetica,sans-Serif" font-size="11.00" fill="#000000">[table]</text>
<polygon fill="none" stroke="#000000" points="144.5,-333.7 144.5,-355.7 229.5,-355.7 229.5,-333.7 144.5,-333.7"/>
<image xlink:href="../../images/primaryKeys.png" width="11px" height="12px" preserveAspectRatio="xMinYMin meet" x="149.5" y="-350.7"/>
<text text-anchor="start" x="164.5" y="-340.8" font-family="Helvetica,sans-Serif" font-size="11.00" fill="#000000">id</text>
<polygon fill="none" stroke="#000000" points="229.5,-333.7 229.5,-355.7 327.5,-355.7 327.5,-333.7 229.5,-333.7"/>
<text text-anchor="start" x="232.3429" y="-341.4" font-family="Helvetica,sans-Serif" font-size="11.00" fill="#000000">bigint unsigned[20]</text>
<polygon fill="#ffffff" stroke="transparent" points="144.5,-311.7 144.5,-333.7 229.5,-333.7 229.5,-311.7 144.5,-311.7"/>
<polygon fill="none" stroke="#000000" points="144.5,-311.7 144.5,-333.7 229.5,-333.7 229.5,-311.7 144.5,-311.7"/>
<image xlink:href="../../images/foreignKeys.png" width="11px" height="12px" preserveAspectRatio="xMinYMin meet" x="149.5" y="-328.7"/>
<text text-anchor="start" x="164.5" y="-318.8" font-family="Helvetica,sans-Serif" font-size="11.00" fill="#000000">gym_id</text>
<polygon fill="none" stroke="#000000" points="229.5,-311.7 229.5,-333.7 327.5,-333.7 327.5,-311.7 229.5,-311.7"/>
<text text-anchor="start" x="232.5" y="-319.4" font-family="Helvetica,sans-Serif" font-size="11.00" fill="#000000">bigint[19]</text>
<polygon fill="none" stroke="#000000" points="144.5,-289.7 144.5,-311.7 229.5,-311.7 229.5,-289.7 144.5,-289.7"/>
<text text-anchor="start" x="164.5" y="-296.8" font-family="Helvetica,sans-Serif" font-size="11.00" fill="#000000">name</text>
<polygon fill="none" stroke="#000000" points="229.5,-289.7 229.5,-311.7 327.5,-311.7 327.5,-289.7 229.5,-289.7"/>
<text text-anchor="start" x="232.5" y="-297.4" font-family="Helvetica,sans-Serif" font-size="11.00" fill="#000000">varchar[45]</text>
<polygon fill="none" stroke="#000000" points="144.5,-267.7 144.5,-289.7 229.5,-289.7 229.5,-267.7 144.5,-267.7"/>
<text text-anchor="start" x="164.5" y="-274.8" font-family="Helvetica,sans-Serif" font-size="11.00" fill="#000000">created_at</text>
<polygon fill="none" stroke="#000000" points="229.5,-267.7 229.5,-289.7 327.5,-289.7 327.5,-267.7 229.5,-267.7"/>
<text text-anchor="start" x="232.5" y="-275.4" font-family="Helvetica,sans-Serif" font-size="11.00" fill="#000000">timestamp[19]</text>
<polygon fill="none" stroke="#000000" points="144.5,-245.7 144.5,-267.7 229.5,-267.7 229.5,-245.7 144.5,-245.7"/>
<text text-anchor="start" x="164.5" y="-252.8" font-family="Helvetica,sans-Serif" font-size="11.00" fill="#000000">updated_at</text>
<polygon fill="none" stroke="#000000" points="229.5,-245.7 229.5,-267.7 327.5,-267.7 327.5,-245.7 229.5,-245.7"/>
<text text-anchor="start" x="232.5" y="-253.4" font-family="Helvetica,sans-Serif" font-size="11.00" fill="#000000">timestamp[19]</text>
<polygon fill="none" stroke="#000000" points="144.5,-223.7 144.5,-245.7 229.5,-245.7 229.5,-223.7 144.5,-223.7"/>
<text text-anchor="start" x="164.5" y="-230.8" font-family="Helvetica,sans-Serif" font-size="11.00" fill="#000000">deleted_at</text>
<polygon fill="none" stroke="#000000" points="229.5,-223.7 229.5,-245.7 327.5,-245.7 327.5,-223.7 229.5,-223.7"/>
<text text-anchor="start" x="232.5" y="-231.4" font-family="Helvetica,sans-Serif" font-size="11.00" fill="#000000">timestamp[19]</text>
<polygon fill="#ffffff" stroke="transparent" points="144.5,-204.7 144.5,-223.7 178.5,-223.7 178.5,-204.7 144.5,-204.7"/>
<polygon fill="none" stroke="#000000" points="144.5,-204.7 144.5,-223.7 178.5,-223.7 178.5,-204.7 144.5,-204.7"/>
<text text-anchor="start" x="147.5" y="-210.8" font-family="Helvetica,sans-Serif" font-size="11.00" fill="#000000">&lt; 1</text>
<polygon fill="#ffffff" stroke="transparent" points="178.5,-204.7 178.5,-223.7 229.5,-223.7 229.5,-204.7 178.5,-204.7"/>
<polygon fill="none" stroke="#000000" points="178.5,-204.7 178.5,-223.7 229.5,-223.7 229.5,-204.7 178.5,-204.7"/>
<text text-anchor="start" x="194.1105" y="-210.8" font-family="Helvetica,sans-Serif" font-size="11.00" fill="#000000">0 rows</text>
<polygon fill="#ffffff" stroke="transparent" points="229.5,-204.7 229.5,-223.7 327.5,-223.7 327.5,-204.7 229.5,-204.7"/>
<polygon fill="none" stroke="#000000" points="229.5,-204.7 229.5,-223.7 327.5,-223.7 327.5,-204.7 229.5,-204.7"/>
<text text-anchor="start" x="308.9053" y="-210.8" font-family="Helvetica,sans-Serif" font-size="11.00" fill="#000000">2 &gt;</text>
<polygon fill="none" stroke="#000000" stroke-width="2" points="143,-203.7 143,-379.7 328,-379.7 328,-203.7 143,-203.7"/>
</a>
</g>
</g>
<!-- classes&#45;&gt;skill_lists -->
<g id="edge1" class="edge">
<title>classes:w&#45;&gt;skill_lists:e</title>
<path fill="none" stroke="#000000" d="M363.776,-344.7C351.7815,-344.7 344.3229,-344.7 327.5,-344.7"/>
<polygon fill="#000000" stroke="#000000" points="370.5,-344.7001 378.5,-348.3 374.5,-344.7 378.5,-344.7 378.5,-344.7 378.5,-344.7 374.5,-344.7 378.5,-341.1 370.5,-344.7001 370.5,-344.7001"/>
<ellipse fill="none" stroke="#000000" cx="367.3" cy="-344.7001" rx="3.2" ry="3.2"/>
</g>
<!-- gyms -->
<g id="node5" class="node">
<title>gyms</title>
<g id="a_node5"><a xlink:href="../../tables/gyms.html" xlink:title="gyms" target="_top">
<polygon fill="#ffffff" stroke="transparent" points="8,-99.2 8,-182.2 93,-182.2 93,-99.2 8,-99.2"/>
<polygon fill="#f5f5f5" stroke="transparent" points="8.5,-158.7 8.5,-181.7 93.5,-181.7 93.5,-158.7 8.5,-158.7"/>
<polygon fill="none" stroke="#000000" points="8.5,-158.7 8.5,-181.7 93.5,-181.7 93.5,-158.7 8.5,-158.7"/>
<text text-anchor="start" x="13.5" y="-167.8" font-family="Helvetica,sans-Serif" font-weight="bold" font-size="11.00" fill="#000000">gyms</text>
<text text-anchor="start" x="58.5437" y="-166.8" font-family="Helvetica,sans-Serif" font-size="11.00" fill="#000000">[table]</text>
<polygon fill="none" stroke="#000000" points="8.5,-136.7 8.5,-158.7 93.5,-158.7 93.5,-136.7 8.5,-136.7"/>
<image xlink:href="../../images/primaryKeys.png" width="11px" height="12px" preserveAspectRatio="xMinYMin meet" x="13.5" y="-153.7"/>
<text text-anchor="start" x="28.5" y="-143.8" font-family="Helvetica,sans-Serif" font-size="11.00" fill="#000000">id</text>
<polygon fill="none" stroke="#000000" points="8.5,-117.7 8.5,-136.7 93.5,-136.7 93.5,-117.7 8.5,-117.7"/>
<text text-anchor="start" x="11.5" y="-123.8" font-family="Helvetica,sans-Serif" font-size="11.00" fill="#000000">...</text>
<polygon fill="#ffffff" stroke="transparent" points="8.5,-98.7 8.5,-117.7 27.5,-117.7 27.5,-98.7 8.5,-98.7"/>
<polygon fill="none" stroke="#000000" points="8.5,-98.7 8.5,-117.7 27.5,-117.7 27.5,-98.7 8.5,-98.7"/>
<text text-anchor="start" x="11.5" y="-104.8" font-family="Helvetica,sans-Serif" font-size="11.00" fill="#000000"> &#160;</text>
<polygon fill="#ffffff" stroke="transparent" points="27.5,-98.7 27.5,-117.7 68.5,-117.7 68.5,-98.7 27.5,-98.7"/>
<polygon fill="none" stroke="#000000" points="27.5,-98.7 27.5,-117.7 68.5,-117.7 68.5,-98.7 27.5,-98.7"/>
<text text-anchor="start" x="33.1105" y="-104.8" font-family="Helvetica,sans-Serif" font-size="11.00" fill="#000000">0 rows</text>
<polygon fill="#ffffff" stroke="transparent" points="68.5,-98.7 68.5,-117.7 93.5,-117.7 93.5,-98.7 68.5,-98.7"/>
<polygon fill="none" stroke="#000000" points="68.5,-98.7 68.5,-117.7 93.5,-117.7 93.5,-98.7 68.5,-98.7"/>
<text text-anchor="start" x="74.9053" y="-104.8" font-family="Helvetica,sans-Serif" font-size="11.00" fill="#000000">3 &gt;</text>
</a>
</g>
</g>
<!-- skill_lists&#45;&gt;gyms -->
<g id="edge7" class="edge">
<title>skill_lists:w&#45;&gt;gyms:e</title>
<path fill="none" stroke="#000000" d="M130.126,-320.2261C78.1504,-298.9558 168.8171,-147.7 93.5,-147.7"/>
<polygon fill="#000000" stroke="#000000" points="136.6159,-321.3431 143.8894,-326.2478 140.558,-322.0215 144.5,-322.7 144.5,-322.7 144.5,-322.7 140.558,-322.0215 145.1106,-319.1522 136.6159,-321.3431 136.6159,-321.3431"/>
<ellipse fill="none" stroke="#000000" cx="133.4623" cy="-320.8003" rx="3.2" ry="3.2"/>
</g>
<!-- daily_challenges -->
<g id="node3" class="node">
<title>daily_challenges</title>
<g id="a_node3"><a xlink:href="../../tables/daily_challenges.html" xlink:title="daily_challenges" target="_top">
<polygon fill="#ffffff" stroke="transparent" points="520,-421.2 520,-482.2 644,-482.2 644,-421.2 520,-421.2"/>
<polygon fill="#f5f5f5" stroke="transparent" points="520,-458.7 520,-481.7 644,-481.7 644,-458.7 520,-458.7"/>
<polygon fill="none" stroke="#000000" points="520,-458.7 520,-481.7 644,-481.7 644,-458.7 520,-458.7"/>
<text text-anchor="start" x="524.8512" y="-467.8" font-family="Helvetica,sans-Serif" font-weight="bold" font-size="11.00" fill="#000000">daily_challenges</text>
<text text-anchor="start" x="609.5219" y="-466.8" font-family="Helvetica,sans-Serif" font-size="11.00" fill="#000000">[table]</text>
<polygon fill="none" stroke="#000000" points="520,-439.7 520,-458.7 644,-458.7 644,-439.7 520,-439.7"/>
<text text-anchor="start" x="523" y="-445.8" font-family="Helvetica,sans-Serif" font-size="11.00" fill="#000000">...</text>
<polygon fill="#ffffff" stroke="transparent" points="520,-420.7 520,-439.7 563,-439.7 563,-420.7 520,-420.7"/>
<polygon fill="none" stroke="#000000" points="520,-420.7 520,-439.7 563,-439.7 563,-420.7 520,-420.7"/>
<text text-anchor="start" x="523" y="-426.8" font-family="Helvetica,sans-Serif" font-size="11.00" fill="#000000">&lt; 2</text>
<polygon fill="#ffffff" stroke="transparent" points="563,-420.7 563,-439.7 612,-439.7 612,-420.7 563,-420.7"/>
<polygon fill="none" stroke="#000000" points="563,-420.7 563,-439.7 612,-439.7 612,-420.7 563,-420.7"/>
<text text-anchor="start" x="576.6105" y="-426.8" font-family="Helvetica,sans-Serif" font-size="11.00" fill="#000000">0 rows</text>
<polygon fill="#ffffff" stroke="transparent" points="612,-420.7 612,-439.7 644,-439.7 644,-420.7 612,-420.7"/>
<polygon fill="none" stroke="#000000" points="612,-420.7 612,-439.7 644,-439.7 644,-420.7 612,-420.7"/>
<text text-anchor="start" x="625.4053" y="-426.8" font-family="Helvetica,sans-Serif" font-size="11.00" fill="#000000">3 &gt;</text>
</a>
</g>
</g>
<!-- daily_challenges&#45;&gt;classes -->
<g id="edge2" class="edge">
<title>daily_challenges:w&#45;&gt;classes:e</title>
<path fill="none" stroke="#000000" d="M506.0448,-444.745C482.9009,-428.3652 501.8799,-366.7 463.5,-366.7"/>
<polygon fill="#000000" stroke="#000000" points="512.3031,-446.5186 519.0184,-452.1636 516.1516,-447.6093 520,-448.7 520,-448.7 520,-448.7 516.1516,-447.6093 520.9816,-445.2364 512.3031,-446.5186 512.3031,-446.5186"/>
<ellipse fill="none" stroke="#000000" cx="509.2244" cy="-445.646" rx="3.2" ry="3.2"/>
</g>
<!-- events -->
<g id="node4" class="node">
<title>events</title>
<g id="a_node4"><a xlink:href="../../tables/events.html" xlink:title="events" target="_top">
<polygon fill="#ffffff" stroke="transparent" points="195.5,-120.2 195.5,-181.2 275.5,-181.2 275.5,-120.2 195.5,-120.2"/>
<polygon fill="#f5f5f5" stroke="transparent" points="195.5,-157.7 195.5,-180.7 275.5,-180.7 275.5,-157.7 195.5,-157.7"/>
<polygon fill="none" stroke="#000000" points="195.5,-157.7 195.5,-180.7 275.5,-180.7 275.5,-157.7 195.5,-157.7"/>
<text text-anchor="start" x="200.5" y="-166.8" font-family="Helvetica,sans-Serif" font-weight="bold" font-size="11.00" fill="#000000">events</text>
<text text-anchor="start" x="240.5437" y="-165.8" font-family="Helvetica,sans-Serif" font-size="11.00" fill="#000000">[table]</text>
<polygon fill="none" stroke="#000000" points="195.5,-138.7 195.5,-157.7 275.5,-157.7 275.5,-138.7 195.5,-138.7"/>
<text text-anchor="start" x="198.5" y="-144.8" font-family="Helvetica,sans-Serif" font-size="11.00" fill="#000000">...</text>
<polygon fill="#ffffff" stroke="transparent" points="195.5,-119.7 195.5,-138.7 216.5,-138.7 216.5,-119.7 195.5,-119.7"/>
<polygon fill="none" stroke="#000000" points="195.5,-119.7 195.5,-138.7 216.5,-138.7 216.5,-119.7 195.5,-119.7"/>
<text text-anchor="start" x="198.2027" y="-125.8" font-family="Helvetica,sans-Serif" font-size="11.00" fill="#000000">&lt; 1</text>
<polygon fill="#ffffff" stroke="transparent" points="216.5,-119.7 216.5,-138.7 254.5,-138.7 254.5,-119.7 216.5,-119.7"/>
<polygon fill="none" stroke="#000000" points="216.5,-119.7 216.5,-138.7 254.5,-138.7 254.5,-119.7 216.5,-119.7"/>
<text text-anchor="start" x="219.3053" y="-125.8" font-family="Helvetica,sans-Serif" font-size="11.00" fill="#000000">0 rows</text>
<polygon fill="#ffffff" stroke="transparent" points="254.5,-119.7 254.5,-138.7 275.5,-138.7 275.5,-119.7 254.5,-119.7"/>
<polygon fill="none" stroke="#000000" points="254.5,-119.7 254.5,-138.7 275.5,-138.7 275.5,-119.7 254.5,-119.7"/>
<text text-anchor="start" x="257.2027" y="-125.8" font-family="Helvetica,sans-Serif" font-size="11.00" fill="#000000">1 &gt;</text>
</a>
</g>
</g>
<!-- events&#45;&gt;gyms -->
<g id="edge3" class="edge">
<title>events:w&#45;&gt;gyms:e</title>
<path fill="none" stroke="#000000" d="M180.8538,-147.7C147.0435,-147.7 133.5208,-147.7 93.5,-147.7"/>
<polygon fill="#000000" stroke="#000000" points="187.5,-147.7001 195.5,-151.3 191.5,-147.7 195.5,-147.7 195.5,-147.7 195.5,-147.7 191.5,-147.7 195.5,-144.1 187.5,-147.7001 187.5,-147.7001"/>
<ellipse fill="none" stroke="#000000" cx="184.3" cy="-147.7001" rx="3.2" ry="3.2"/>
</g>
<!-- gymnasts_classes -->
<g id="node6" class="node">
<title>gymnasts_classes</title>
<g id="a_node6"><a xlink:href="../../tables/gymnasts_classes.html" xlink:title="gymnasts_classes" target="_top">
<polygon fill="#ffffff" stroke="transparent" points="516,-339.2 516,-400.2 648,-400.2 648,-339.2 516,-339.2"/>
<polygon fill="#f5f5f5" stroke="transparent" points="516,-376.7 516,-399.7 648,-399.7 648,-376.7 516,-376.7"/>
<polygon fill="none" stroke="#000000" points="516,-376.7 516,-399.7 648,-399.7 648,-376.7 516,-376.7"/>
<text text-anchor="start" x="520.5755" y="-385.8" font-family="Helvetica,sans-Serif" font-weight="bold" font-size="11.00" fill="#000000">gymnasts_classes</text>
<text text-anchor="start" x="613.5219" y="-384.8" font-family="Helvetica,sans-Serif" font-size="11.00" fill="#000000">[table]</text>
<polygon fill="none" stroke="#000000" points="516,-357.7 516,-376.7 648,-376.7 648,-357.7 516,-357.7"/>
<text text-anchor="start" x="519" y="-363.8" font-family="Helvetica,sans-Serif" font-size="11.00" fill="#000000">...</text>
<polygon fill="#ffffff" stroke="transparent" points="516,-338.7 516,-357.7 567,-357.7 567,-338.7 516,-338.7"/>
<polygon fill="none" stroke="#000000" points="516,-338.7 516,-357.7 567,-357.7 567,-338.7 516,-338.7"/>
<text text-anchor="start" x="519" y="-344.8" font-family="Helvetica,sans-Serif" font-size="11.00" fill="#000000">&lt; 2</text>
<polygon fill="#ffffff" stroke="transparent" points="567,-338.7 567,-357.7 620,-357.7 620,-338.7 567,-338.7"/>
<polygon fill="none" stroke="#000000" points="567,-338.7 567,-357.7 620,-357.7 620,-338.7 567,-338.7"/>
<text text-anchor="start" x="584.6105" y="-344.8" font-family="Helvetica,sans-Serif" font-size="11.00" fill="#000000">0 rows</text>
<polygon fill="#ffffff" stroke="transparent" points="620,-338.7 620,-357.7 648,-357.7 648,-338.7 620,-338.7"/>
<polygon fill="none" stroke="#000000" points="620,-338.7 620,-357.7 648,-357.7 648,-338.7 620,-338.7"/>
<text text-anchor="start" x="638.8862" y="-344.8" font-family="Helvetica,sans-Serif" font-size="11.00" fill="#000000"> &#160;</text>
</a>
</g>
</g>
<!-- gymnasts_classes&#45;&gt;classes -->
<g id="edge4" class="edge">
<title>gymnasts_classes:w&#45;&gt;classes:e</title>
<path fill="none" stroke="#000000" d="M501.2344,-366.7C488.6563,-366.7 481,-366.7 463.5,-366.7"/>
<polygon fill="#000000" stroke="#000000" points="508,-366.7001 516,-370.3 512,-366.7 516,-366.7 516,-366.7 516,-366.7 512,-366.7 516,-363.1 508,-366.7001 508,-366.7001"/>
<ellipse fill="none" stroke="#000000" cx="504.8" cy="-366.7001" rx="3.2" ry="3.2"/>
</g>
<!-- gyms_has_users -->
<g id="node7" class="node">
<title>gyms_has_users</title>
<g id="a_node7"><a xlink:href="../../tables/gyms_has_users.html" xlink:title="gyms_has_users" target="_top">
<polygon fill="#ffffff" stroke="transparent" points="172.5,-38.2 172.5,-99.2 298.5,-99.2 298.5,-38.2 172.5,-38.2"/>
<polygon fill="#f5f5f5" stroke="transparent" points="172.5,-75.7 172.5,-98.7 298.5,-98.7 298.5,-75.7 172.5,-75.7"/>
<polygon fill="none" stroke="#000000" points="172.5,-75.7 172.5,-98.7 298.5,-98.7 298.5,-75.7 172.5,-75.7"/>
<text text-anchor="start" x="177.436" y="-84.8" font-family="Helvetica,sans-Serif" font-weight="bold" font-size="11.00" fill="#000000">gyms_has_users</text>
<text text-anchor="start" x="264.0219" y="-83.8" font-family="Helvetica,sans-Serif" font-size="11.00" fill="#000000">[table]</text>
<polygon fill="none" stroke="#000000" points="172.5,-56.7 172.5,-75.7 298.5,-75.7 298.5,-56.7 172.5,-56.7"/>
<text text-anchor="start" x="175.5" y="-62.8" font-family="Helvetica,sans-Serif" font-size="11.00" fill="#000000">...</text>
<polygon fill="#ffffff" stroke="transparent" points="172.5,-37.7 172.5,-56.7 216.5,-56.7 216.5,-37.7 172.5,-37.7"/>
<polygon fill="none" stroke="#000000" points="172.5,-37.7 172.5,-56.7 216.5,-56.7 216.5,-37.7 172.5,-37.7"/>
<text text-anchor="start" x="175.5" y="-43.8" font-family="Helvetica,sans-Serif" font-size="11.00" fill="#000000">&lt; 2</text>
<polygon fill="#ffffff" stroke="transparent" points="216.5,-37.7 216.5,-56.7 265.5,-56.7 265.5,-37.7 216.5,-37.7"/>
<polygon fill="none" stroke="#000000" points="216.5,-37.7 216.5,-56.7 265.5,-56.7 265.5,-37.7 216.5,-37.7"/>
<text text-anchor="start" x="230.1105" y="-43.8" font-family="Helvetica,sans-Serif" font-size="11.00" fill="#000000">0 rows</text>
<polygon fill="#ffffff" stroke="transparent" points="265.5,-37.7 265.5,-56.7 298.5,-56.7 298.5,-37.7 265.5,-37.7"/>
<polygon fill="none" stroke="#000000" points="265.5,-37.7 265.5,-56.7 298.5,-56.7 298.5,-37.7 265.5,-37.7"/>
<text text-anchor="start" x="279.9053" y="-43.8" font-family="Helvetica,sans-Serif" font-size="11.00" fill="#000000">2 &gt;</text>
</a>
</g>
</g>
<!-- gyms_has_users&#45;&gt;gyms -->
<g id="edge5" class="edge">
<title>gyms_has_users:w&#45;&gt;gyms:e</title>
<path fill="none" stroke="#000000" d="M158.3176,-68.4283C125.8816,-82.6565 138.5711,-147.7 93.5,-147.7"/>
<polygon fill="#000000" stroke="#000000" points="164.644,-67.2113 173.1801,-69.2352 168.572,-66.4557 172.5,-65.7 172.5,-65.7 172.5,-65.7 168.572,-66.4557 171.8199,-62.1648 164.644,-67.2113 164.644,-67.2113"/>
<ellipse fill="none" stroke="#000000" cx="161.5017" cy="-67.8158" rx="3.2" ry="3.2"/>
</g>
<!-- normal_challenges -->
<g id="node8" class="node">
<title>normal_challenges</title>
<g id="a_node8"><a xlink:href="../../tables/normal_challenges.html" xlink:title="normal_challenges" target="_top">
<polygon fill="#ffffff" stroke="transparent" points="514.5,-257.2 514.5,-318.2 649.5,-318.2 649.5,-257.2 514.5,-257.2"/>
<polygon fill="#f5f5f5" stroke="transparent" points="515,-294.7 515,-317.7 650,-317.7 650,-294.7 515,-294.7"/>
<polygon fill="none" stroke="#000000" points="515,-294.7 515,-317.7 650,-317.7 650,-294.7 515,-294.7"/>
<text text-anchor="start" x="519.8523" y="-303.8" font-family="Helvetica,sans-Serif" font-weight="bold" font-size="11.00" fill="#000000">normal_challenges</text>
<text text-anchor="start" x="615.5219" y="-302.8" font-family="Helvetica,sans-Serif" font-size="11.00" fill="#000000">[table]</text>
<polygon fill="none" stroke="#000000" points="515,-275.7 515,-294.7 650,-294.7 650,-275.7 515,-275.7"/>
<text text-anchor="start" x="518" y="-281.8" font-family="Helvetica,sans-Serif" font-size="11.00" fill="#000000">...</text>
<polygon fill="#ffffff" stroke="transparent" points="515,-256.7 515,-275.7 563,-275.7 563,-256.7 515,-256.7"/>
<polygon fill="none" stroke="#000000" points="515,-256.7 515,-275.7 563,-275.7 563,-256.7 515,-256.7"/>
<text text-anchor="start" x="518" y="-262.8" font-family="Helvetica,sans-Serif" font-size="11.00" fill="#000000">&lt; 2</text>
<polygon fill="#ffffff" stroke="transparent" points="563,-256.7 563,-275.7 615,-275.7 615,-256.7 563,-256.7"/>
<polygon fill="none" stroke="#000000" points="563,-256.7 563,-275.7 615,-275.7 615,-256.7 563,-256.7"/>
<text text-anchor="start" x="579.6105" y="-262.8" font-family="Helvetica,sans-Serif" font-size="11.00" fill="#000000">0 rows</text>
<polygon fill="#ffffff" stroke="transparent" points="615,-256.7 615,-275.7 650,-275.7 650,-256.7 615,-256.7"/>
<polygon fill="none" stroke="#000000" points="615,-256.7 615,-275.7 650,-275.7 650,-256.7 615,-256.7"/>
<text text-anchor="start" x="631.4053" y="-262.8" font-family="Helvetica,sans-Serif" font-size="11.00" fill="#000000">2 &gt;</text>
</a>
</g>
</g>
<!-- normal_challenges&#45;&gt;classes -->
<g id="edge6" class="edge">
<title>normal_challenges:w&#45;&gt;classes:e</title>
<path fill="none" stroke="#000000" d="M501.0167,-289.1087C480.1526,-306.1409 500.4841,-366.7 463.5,-366.7"/>
<polygon fill="#000000" stroke="#000000" points="507.3702,-287.1056 516.0825,-288.1334 511.1851,-285.9028 515,-284.7 515,-284.7 515,-284.7 511.1851,-285.9028 513.9175,-281.2666 507.3702,-287.1056 507.3702,-287.1056"/>
<ellipse fill="none" stroke="#000000" cx="504.3183" cy="-288.0678" rx="3.2" ry="3.2"/>
</g>
<!-- skill_lists_has_skills -->
<g id="node9" class="node">
<title>skill_lists_has_skills</title>
<g id="a_node9"><a xlink:href="../../tables/skill_lists_has_skills.html" xlink:title="skill_lists_has_skills" target="_top">
<polygon fill="#ffffff" stroke="transparent" points="512,-115.2 512,-220.2 652,-220.2 652,-115.2 512,-115.2"/>
<polygon fill="#f5f5f5" stroke="transparent" points="512,-196.7 512,-219.7 652,-219.7 652,-196.7 512,-196.7"/>
<polygon fill="none" stroke="#000000" points="512,-196.7 512,-219.7 652,-219.7 652,-196.7 512,-196.7"/>
<text text-anchor="start" x="516.9207" y="-205.8" font-family="Helvetica,sans-Serif" font-weight="bold" font-size="11.00" fill="#000000">skill_lists_has_skills</text>
<text text-anchor="start" x="617.5219" y="-204.8" font-family="Helvetica,sans-Serif" font-size="11.00" fill="#000000">[table]</text>
<polygon fill="none" stroke="#000000" points="512,-174.7 512,-196.7 652,-196.7 652,-174.7 512,-174.7"/>
<image xlink:href="../../images/primaryKeys.png" width="11px" height="12px" preserveAspectRatio="xMinYMin meet" x="517" y="-191.7"/>
<text text-anchor="start" x="533" y="-181.8" font-family="Helvetica,sans-Serif" font-size="11.00" fill="#000000">skill_list_id</text>
<polygon fill="none" stroke="#000000" points="512,-152.7 512,-174.7 652,-174.7 652,-152.7 512,-152.7"/>
<image xlink:href="../../images/primaryKeys.png" width="11px" height="12px" preserveAspectRatio="xMinYMin meet" x="517" y="-169.7"/>
<text text-anchor="start" x="533" y="-159.8" font-family="Helvetica,sans-Serif" font-size="11.00" fill="#000000">skill_id</text>
<polygon fill="none" stroke="#000000" points="512,-133.7 512,-152.7 652,-152.7 652,-133.7 512,-133.7"/>
<text text-anchor="start" x="515" y="-139.8" font-family="Helvetica,sans-Serif" font-size="11.00" fill="#000000">...</text>
<polygon fill="#ffffff" stroke="transparent" points="512,-114.7 512,-133.7 567,-133.7 567,-114.7 512,-114.7"/>
<polygon fill="none" stroke="#000000" points="512,-114.7 512,-133.7 567,-133.7 567,-114.7 512,-114.7"/>
<text text-anchor="start" x="515" y="-120.8" font-family="Helvetica,sans-Serif" font-size="11.00" fill="#000000">&lt; 2</text>
<polygon fill="#ffffff" stroke="transparent" points="567,-114.7 567,-133.7 622,-133.7 622,-114.7 567,-114.7"/>
<polygon fill="none" stroke="#000000" points="567,-114.7 567,-133.7 622,-133.7 622,-114.7 567,-114.7"/>
<text text-anchor="start" x="586.6105" y="-120.8" font-family="Helvetica,sans-Serif" font-size="11.00" fill="#000000">0 rows</text>
<polygon fill="#ffffff" stroke="transparent" points="622,-114.7 622,-133.7 652,-133.7 652,-114.7 622,-114.7"/>
<polygon fill="none" stroke="#000000" points="622,-114.7 622,-133.7 652,-133.7 652,-114.7 622,-114.7"/>
<text text-anchor="start" x="642.8862" y="-120.8" font-family="Helvetica,sans-Serif" font-size="11.00" fill="#000000"> &#160;</text>
</a>
</g>
</g>
<!-- skill_lists_has_skills&#45;&gt;skill_lists -->
<g id="edge9" class="edge">
<title>skill_lists_has_skills:w&#45;&gt;skill_lists:e</title>
<path fill="none" stroke="#000000" d="M497.5698,-188.3324C456.8161,-201.6197 394.3283,-261.6304 370,-285.7 347.0265,-308.4292 359.8171,-344.7 327.5,-344.7"/>
<polygon fill="#000000" stroke="#000000" points="504.1299,-187.1357 512.6461,-189.2416 508.0649,-186.4179 512,-185.7 512,-185.7 512,-185.7 508.0649,-186.4179 511.3539,-182.1584 504.1299,-187.1357 504.1299,-187.1357"/>
<ellipse fill="none" stroke="#000000" cx="500.9818" cy="-187.71" rx="3.2" ry="3.2"/>
</g>
<!-- skills -->
<g id="node10" class="node">
<title>skills</title>
<g id="a_node10"><a xlink:href="../../tables/skills.html" xlink:title="skills" target="_top">
<polygon fill="#ffffff" stroke="transparent" points="380.5,-128.2 380.5,-189.2 460.5,-189.2 460.5,-128.2 380.5,-128.2"/>
<polygon fill="#f5f5f5" stroke="transparent" points="380.5,-165.7 380.5,-188.7 460.5,-188.7 460.5,-165.7 380.5,-165.7"/>
<polygon fill="none" stroke="#000000" points="380.5,-165.7 380.5,-188.7 460.5,-188.7 460.5,-165.7 380.5,-165.7"/>
<text text-anchor="start" x="385.5" y="-174.8" font-family="Helvetica,sans-Serif" font-weight="bold" font-size="11.00" fill="#000000">skills</text>
<text text-anchor="start" x="425.5437" y="-173.8" font-family="Helvetica,sans-Serif" font-size="11.00" fill="#000000">[table]</text>
<polygon fill="none" stroke="#000000" points="380.5,-146.7 380.5,-165.7 460.5,-165.7 460.5,-146.7 380.5,-146.7"/>
<text text-anchor="start" x="383.5" y="-152.8" font-family="Helvetica,sans-Serif" font-size="11.00" fill="#000000">...</text>
<polygon fill="#ffffff" stroke="transparent" points="380.5,-127.7 380.5,-146.7 401.5,-146.7 401.5,-127.7 380.5,-127.7"/>
<polygon fill="none" stroke="#000000" points="380.5,-127.7 380.5,-146.7 401.5,-146.7 401.5,-127.7 380.5,-127.7"/>
<text text-anchor="start" x="383.2027" y="-133.8" font-family="Helvetica,sans-Serif" font-size="11.00" fill="#000000">&lt; 3</text>
<polygon fill="#ffffff" stroke="transparent" points="401.5,-127.7 401.5,-146.7 439.5,-146.7 439.5,-127.7 401.5,-127.7"/>
<polygon fill="none" stroke="#000000" points="401.5,-127.7 401.5,-146.7 439.5,-146.7 439.5,-127.7 401.5,-127.7"/>
<text text-anchor="start" x="404.3053" y="-133.8" font-family="Helvetica,sans-Serif" font-size="11.00" fill="#000000">0 rows</text>
<polygon fill="#ffffff" stroke="transparent" points="439.5,-127.7 439.5,-146.7 460.5,-146.7 460.5,-127.7 439.5,-127.7"/>
<polygon fill="none" stroke="#000000" points="439.5,-127.7 439.5,-146.7 460.5,-146.7 460.5,-127.7 439.5,-127.7"/>
<text text-anchor="start" x="442.2027" y="-133.8" font-family="Helvetica,sans-Serif" font-size="11.00" fill="#000000">2 &gt;</text>
</a>
</g>
</g>
<!-- skill_lists_has_skills&#45;&gt;skills -->
<g id="edge8" class="edge">
<title>skill_lists_has_skills:w&#45;&gt;skills:e</title>
<path fill="none" stroke="#000000" d="M497.4384,-162.45C485.1256,-160.2 477.8726,-155.7 460.5,-155.7"/>
<polygon fill="#000000" stroke="#000000" points="504.0293,-163.0157 511.6921,-167.2868 508.0147,-163.3579 512,-163.7 512,-163.7 512,-163.7 508.0147,-163.3579 512.3079,-160.1132 504.0293,-163.0157 504.0293,-163.0157"/>
<ellipse fill="none" stroke="#000000" cx="500.841" cy="-162.742" rx="3.2" ry="3.2"/>
</g>
<!-- skills&#45;&gt;events -->
<g id="edge10" class="edge">
<title>skills:w&#45;&gt;events:e</title>
<path fill="none" stroke="#000000" d="M365.8548,-155.4153C330.6618,-153.9902 317.0001,-147.7 275.5,-147.7"/>
<polygon fill="#000000" stroke="#000000" points="372.5015,-155.5444 380.43,-159.2993 376.5008,-155.6222 380.5,-155.7 380.5,-155.7 380.5,-155.7 376.5008,-155.6222 380.57,-152.1007 372.5015,-155.5444 372.5015,-155.5444"/>
<ellipse fill="none" stroke="#000000" cx="369.3021" cy="-155.4822" rx="3.2" ry="3.2"/>
</g>
</g>
</svg>
