<?xml version="1.0" encoding="UTF-8" standalone="no"?>
<!DOCTYPE svg PUBLIC "-//W3C//DTD SVG 1.1//EN"
 "http://www.w3.org/Graphics/SVG/1.1/DTD/svg11.dtd">
<!-- Generated by graphviz version 2.40.1 (20161225.0304)
 -->
<!-- Title: oneDegreeRelationshipsDiagram Pages: 1 -->
<svg width="564pt" height="454pt"
 viewBox="0.00 0.00 564.00 454.20" xmlns="http://www.w3.org/2000/svg" xmlns:xlink="http://www.w3.org/1999/xlink">
<g id="graph0" class="graph" transform="scale(1 1) rotate(0) translate(4 450.2)">
<title>oneDegreeRelationshipsDiagram</title>
<polygon fill="#ffffff" stroke="transparent" points="-4,4 -4,-450.2 560,-450.2 560,4 -4,4"/>
<text text-anchor="middle" x="72.4936" y="-7.3" font-family="Helvetica,sans-Serif" font-size="11.00" fill="#000000">Generated by SchemaSpy</text>
<!-- gymnast_has_skills -->
<g id="node1" class="node">
<title>gymnast_has_skills</title>
<g id="a_node1"><a xlink:href="../../tables/gymnast_has_skills.html" xlink:title="gymnast_has_skills" target="_top">
<polygon fill="#ffffff" stroke="transparent" points="409,-337.2 409,-442.2 547,-442.2 547,-337.2 409,-337.2"/>
<polygon fill="#f5f5f5" stroke="transparent" points="409,-418.7 409,-441.7 547,-441.7 547,-418.7 409,-418.7"/>
<polygon fill="none" stroke="#000000" points="409,-418.7 409,-441.7 547,-441.7 547,-418.7 409,-418.7"/>
<text text-anchor="start" x="413.8271" y="-427.8" font-family="Helvetica,sans-Serif" font-weight="bold" font-size="11.00" fill="#000000">gymnast_has_skills</text>
<text text-anchor="start" x="512.5219" y="-426.8" font-family="Helvetica,sans-Serif" font-size="11.00" fill="#000000">[table]</text>
<polygon fill="none" stroke="#000000" points="409,-396.7 409,-418.7 547,-418.7 547,-396.7 409,-396.7"/>
<image xlink:href="../../images/primaryKeys.png" width="11px" height="12px" preserveAspectRatio="xMinYMin meet" x="414" y="-413.7"/>
<text text-anchor="start" x="431" y="-403.8" font-family="Helvetica,sans-Serif" font-size="11.00" fill="#000000">gymnast_id</text>
<polygon fill="none" stroke="#000000" points="409,-374.7 409,-396.7 547,-396.7 547,-374.7 409,-374.7"/>
<image xlink:href="../../images/primaryKeys.png" width="11px" height="12px" preserveAspectRatio="xMinYMin meet" x="414" y="-391.7"/>
<text text-anchor="start" x="431" y="-381.8" font-family="Helvetica,sans-Serif" font-size="11.00" fill="#000000">skills_Id</text>
<polygon fill="none" stroke="#000000" points="409,-355.7 409,-374.7 547,-374.7 547,-355.7 409,-355.7"/>
<text text-anchor="start" x="412" y="-361.8" font-family="Helvetica,sans-Serif" font-size="11.00" fill="#000000">...</text>
<polygon fill="#ffffff" stroke="transparent" points="409,-336.7 409,-355.7 463,-355.7 463,-336.7 409,-336.7"/>
<polygon fill="none" stroke="#000000" points="409,-336.7 409,-355.7 463,-355.7 463,-336.7 409,-336.7"/>
<text text-anchor="start" x="412" y="-342.8" font-family="Helvetica,sans-Serif" font-size="11.00" fill="#000000">&lt; 2</text>
<polygon fill="#ffffff" stroke="transparent" points="463,-336.7 463,-355.7 518,-355.7 518,-336.7 463,-336.7"/>
<polygon fill="none" stroke="#000000" points="463,-336.7 463,-355.7 518,-355.7 518,-336.7 463,-336.7"/>
<text text-anchor="start" x="482.6105" y="-342.8" font-family="Helvetica,sans-Serif" font-size="11.00" fill="#000000">0 rows</text>
<polygon fill="#ffffff" stroke="transparent" points="518,-336.7 518,-355.7 547,-355.7 547,-336.7 518,-336.7"/>
<polygon fill="none" stroke="#000000" points="518,-336.7 518,-355.7 547,-355.7 547,-336.7 518,-336.7"/>
<text text-anchor="start" x="537.8862" y="-342.8" font-family="Helvetica,sans-Serif" font-size="11.00" fill="#000000"> &#160;</text>
</a>
</g>
</g>
<!-- skills -->
<g id="node2" class="node">
<title>skills</title>
<g id="a_node2"><a xlink:href="../../tables/skills.html" xlink:title="skills" target="_top">
<polygon fill="#ffffff" stroke="transparent" points="150,-70.7 150,-358.7 359,-358.7 359,-70.7 150,-70.7"/>
<polygon fill="#f5f5f5" stroke="transparent" points="152.5,-333.7 152.5,-356.7 357.5,-356.7 357.5,-333.7 152.5,-333.7"/>
<polygon fill="none" stroke="#000000" points="152.5,-333.7 152.5,-356.7 357.5,-356.7 357.5,-333.7 152.5,-333.7"/>
<text text-anchor="start" x="157.5" y="-342.8" font-family="Helvetica,sans-Serif" font-weight="bold" font-size="11.00" fill="#000000">skills</text>
<text text-anchor="start" x="322.5437" y="-341.8" font-family="Helvetica,sans-Serif" font-size="11.00" fill="#000000">[table]</text>
<polygon fill="none" stroke="#000000" points="152.5,-311.7 152.5,-333.7 240.5,-333.7 240.5,-311.7 152.5,-311.7"/>
<image xlink:href="../../images/primaryKeys.png" width="11px" height="12px" preserveAspectRatio="xMinYMin meet" x="157.5" y="-328.7"/>
<text text-anchor="start" x="172.5" y="-318.8" font-family="Helvetica,sans-Serif" font-size="11.00" fill="#000000">id</text>
<polygon fill="none" stroke="#000000" points="240.5,-311.7 240.5,-333.7 357.5,-333.7 357.5,-311.7 240.5,-311.7"/>
<text text-anchor="start" x="243.5" y="-319.4" font-family="Helvetica,sans-Serif" font-size="11.00" fill="#000000">bigint unsigned[20]</text>
<polygon fill="none" stroke="#000000" points="152.5,-289.7 152.5,-311.7 240.5,-311.7 240.5,-289.7 152.5,-289.7"/>
<text text-anchor="start" x="172.5" y="-296.8" font-family="Helvetica,sans-Serif" font-size="11.00" fill="#000000">name</text>
<polygon fill="none" stroke="#000000" points="240.5,-289.7 240.5,-311.7 357.5,-311.7 357.5,-289.7 240.5,-289.7"/>
<text text-anchor="start" x="243.5" y="-297.4" font-family="Helvetica,sans-Serif" font-size="11.00" fill="#000000">varchar[45]</text>
<polygon fill="none" stroke="#000000" points="152.5,-267.7 152.5,-289.7 240.5,-289.7 240.5,-267.7 152.5,-267.7"/>
<text text-anchor="start" x="172.5" y="-274.8" font-family="Helvetica,sans-Serif" font-size="11.00" fill="#000000">description</text>
<polygon fill="none" stroke="#000000" points="240.5,-267.7 240.5,-289.7 357.5,-289.7 357.5,-267.7 240.5,-267.7"/>
<text text-anchor="start" x="243.0645" y="-275.4" font-family="Helvetica,sans-Serif" font-size="11.00" fill="#000000">mediumtext[16777215]</text>
<polygon fill="none" stroke="#000000" points="152.5,-245.7 152.5,-267.7 240.5,-267.7 240.5,-245.7 152.5,-245.7"/>
<text text-anchor="start" x="172.5" y="-252.8" font-family="Helvetica,sans-Serif" font-size="11.00" fill="#000000">category</text>
<polygon fill="none" stroke="#000000" points="240.5,-245.7 240.5,-267.7 357.5,-267.7 357.5,-245.7 240.5,-245.7"/>
<text text-anchor="start" x="243.5" y="-253.4" font-family="Helvetica,sans-Serif" font-size="11.00" fill="#000000">varchar[45]</text>
<polygon fill="none" stroke="#000000" points="152.5,-223.7 152.5,-245.7 240.5,-245.7 240.5,-223.7 152.5,-223.7"/>
<text text-anchor="start" x="172.5" y="-230.8" font-family="Helvetica,sans-Serif" font-size="11.00" fill="#000000">certificate</text>
<polygon fill="none" stroke="#000000" points="240.5,-223.7 240.5,-245.7 357.5,-245.7 357.5,-223.7 240.5,-223.7"/>
<text text-anchor="start" x="243.5" y="-231.4" font-family="Helvetica,sans-Serif" font-size="11.00" fill="#000000">bit[1]</text>
<polygon fill="#ffffff" stroke="transparent" points="152.5,-201.7 152.5,-223.7 240.5,-223.7 240.5,-201.7 152.5,-201.7"/>
<polygon fill="none" stroke="#000000" points="152.5,-201.7 152.5,-223.7 240.5,-223.7 240.5,-201.7 152.5,-201.7"/>
<image xlink:href="../../images/foreignKeys.png" width="11px" height="12px" preserveAspectRatio="xMinYMin meet" x="157.5" y="-218.7"/>
<text text-anchor="start" x="172.5" y="-208.8" font-family="Helvetica,sans-Serif" font-size="11.00" fill="#000000">event_id</text>
<polygon fill="none" stroke="#000000" points="240.5,-201.7 240.5,-223.7 357.5,-223.7 357.5,-201.7 240.5,-201.7"/>
<text text-anchor="start" x="243.5" y="-209.4" font-family="Helvetica,sans-Serif" font-size="11.00" fill="#000000">bigint[19]</text>
<polygon fill="#ffffff" stroke="transparent" points="152.5,-179.7 152.5,-201.7 240.5,-201.7 240.5,-179.7 152.5,-179.7"/>
<polygon fill="none" stroke="#000000" points="152.5,-179.7 152.5,-201.7 240.5,-201.7 240.5,-179.7 152.5,-179.7"/>
<image xlink:href="../../images/foreignKeys.png" width="11px" height="12px" preserveAspectRatio="xMinYMin meet" x="157.5" y="-196.7"/>
<text text-anchor="start" x="172.5" y="-186.8" font-family="Helvetica,sans-Serif" font-size="11.00" fill="#000000">category_id</text>
<polygon fill="none" stroke="#000000" points="240.5,-179.7 240.5,-201.7 357.5,-201.7 357.5,-179.7 240.5,-179.7"/>
<text text-anchor="start" x="243.5" y="-187.4" font-family="Helvetica,sans-Serif" font-size="11.00" fill="#000000">bigint[19]</text>
<polygon fill="#ffffff" stroke="transparent" points="152.5,-157.7 152.5,-179.7 240.5,-179.7 240.5,-157.7 152.5,-157.7"/>
<polygon fill="none" stroke="#000000" points="152.5,-157.7 152.5,-179.7 240.5,-179.7 240.5,-157.7 152.5,-157.7"/>
<image xlink:href="../../images/foreignKeys.png" width="11px" height="12px" preserveAspectRatio="xMinYMin meet" x="157.5" y="-174.7"/>
<text text-anchor="start" x="172.5" y="-164.8" font-family="Helvetica,sans-Serif" font-size="11.00" fill="#000000">level_id</text>
<polygon fill="none" stroke="#000000" points="240.5,-157.7 240.5,-179.7 357.5,-179.7 357.5,-157.7 240.5,-157.7"/>
<text text-anchor="start" x="243.5" y="-165.4" font-family="Helvetica,sans-Serif" font-size="11.00" fill="#000000">bigint[19]</text>
<polygon fill="none" stroke="#000000" points="152.5,-135.7 152.5,-157.7 240.5,-157.7 240.5,-135.7 152.5,-135.7"/>
<text text-anchor="start" x="172.5" y="-142.8" font-family="Helvetica,sans-Serif" font-size="11.00" fill="#000000">created_at</text>
<polygon fill="none" stroke="#000000" points="240.5,-135.7 240.5,-157.7 357.5,-157.7 357.5,-135.7 240.5,-135.7"/>
<text text-anchor="start" x="243.5" y="-143.4" font-family="Helvetica,sans-Serif" font-size="11.00" fill="#000000">timestamp[19]</text>
<polygon fill="none" stroke="#000000" points="152.5,-113.7 152.5,-135.7 240.5,-135.7 240.5,-113.7 152.5,-113.7"/>
<text text-anchor="start" x="172.5" y="-120.8" font-family="Helvetica,sans-Serif" font-size="11.00" fill="#000000">updated_at</text>
<polygon fill="none" stroke="#000000" points="240.5,-113.7 240.5,-135.7 357.5,-135.7 357.5,-113.7 240.5,-113.7"/>
<text text-anchor="start" x="243.5" y="-121.4" font-family="Helvetica,sans-Serif" font-size="11.00" fill="#000000">timestamp[19]</text>
<polygon fill="none" stroke="#000000" points="152.5,-91.7 152.5,-113.7 240.5,-113.7 240.5,-91.7 152.5,-91.7"/>
<text text-anchor="start" x="172.5" y="-98.8" font-family="Helvetica,sans-Serif" font-size="11.00" fill="#000000">deleted_at</text>
<polygon fill="none" stroke="#000000" points="240.5,-91.7 240.5,-113.7 357.5,-113.7 357.5,-91.7 240.5,-91.7"/>
<text text-anchor="start" x="243.5" y="-99.4" font-family="Helvetica,sans-Serif" font-size="11.00" fill="#000000">timestamp[19]</text>
<polygon fill="#ffffff" stroke="transparent" points="152.5,-72.7 152.5,-91.7 187.5,-91.7 187.5,-72.7 152.5,-72.7"/>
<polygon fill="none" stroke="#000000" points="152.5,-72.7 152.5,-91.7 187.5,-91.7 187.5,-72.7 152.5,-72.7"/>
<text text-anchor="start" x="155.5" y="-78.8" font-family="Helvetica,sans-Serif" font-size="11.00" fill="#000000">&lt; 3</text>
<polygon fill="#ffffff" stroke="transparent" points="187.5,-72.7 187.5,-91.7 240.5,-91.7 240.5,-72.7 187.5,-72.7"/>
<polygon fill="none" stroke="#000000" points="187.5,-72.7 187.5,-91.7 240.5,-91.7 240.5,-72.7 187.5,-72.7"/>
<text text-anchor="start" x="205.1105" y="-78.8" font-family="Helvetica,sans-Serif" font-size="11.00" fill="#000000">0 rows</text>
<polygon fill="#ffffff" stroke="transparent" points="240.5,-72.7 240.5,-91.7 357.5,-91.7 357.5,-72.7 240.5,-72.7"/>
<polygon fill="none" stroke="#000000" points="240.5,-72.7 240.5,-91.7 357.5,-91.7 357.5,-72.7 240.5,-72.7"/>
<text text-anchor="start" x="338.9053" y="-78.8" font-family="Helvetica,sans-Serif" font-size="11.00" fill="#000000">2 &gt;</text>
<polygon fill="none" stroke="#000000" stroke-width="2" points="151,-71.7 151,-357.7 358,-357.7 358,-71.7 151,-71.7"/>
</a>
</g>
</g>
<!-- gymnast_has_skills&#45;&gt;skills -->
<g id="edge1" class="edge">
<title>gymnast_has_skills:w&#45;&gt;skills:e</title>
<path fill="none" stroke="#000000" d="M395.299,-381.1692C378.1358,-366.7239 387.7316,-322.7 357.5,-322.7"/>
<polygon fill="#000000" stroke="#000000" points="401.4045,-383.1882 407.8697,-389.118 405.2023,-384.4441 409,-385.7 409,-385.7 409,-385.7 405.2023,-384.4441 410.1303,-382.282 401.4045,-383.1882 401.4045,-383.1882"/>
<ellipse fill="none" stroke="#000000" cx="398.3663" cy="-382.1835" rx="3.2" ry="3.2"/>
</g>
<!-- categories -->
<g id="node4" class="node">
<title>categories</title>
<g id="a_node4"><a xlink:href="../../tables/categories.html" xlink:title="categories" target="_top">
<polygon fill="#ffffff" stroke="transparent" points="8,-142.2 8,-225.2 101,-225.2 101,-142.2 8,-142.2"/>
<polygon fill="#f5f5f5" stroke="transparent" points="8.5,-201.7 8.5,-224.7 101.5,-224.7 101.5,-201.7 8.5,-201.7"/>
<polygon fill="none" stroke="#000000" points="8.5,-201.7 8.5,-224.7 101.5,-224.7 101.5,-201.7 8.5,-201.7"/>
<text text-anchor="start" x="13.1329" y="-210.8" font-family="Helvetica,sans-Serif" font-weight="bold" font-size="11.00" fill="#000000">categories</text>
<text text-anchor="start" x="67.0219" y="-209.8" font-family="Helvetica,sans-Serif" font-size="11.00" fill="#000000">[table]</text>
<polygon fill="none" stroke="#000000" points="8.5,-179.7 8.5,-201.7 101.5,-201.7 101.5,-179.7 8.5,-179.7"/>
<image xlink:href="../../images/primaryKeys.png" width="11px" height="12px" preserveAspectRatio="xMinYMin meet" x="13.5" y="-196.7"/>
<text text-anchor="start" x="32.5" y="-186.8" font-family="Helvetica,sans-Serif" font-size="11.00" fill="#000000">id</text>
<polygon fill="none" stroke="#000000" points="8.5,-160.7 8.5,-179.7 101.5,-179.7 101.5,-160.7 8.5,-160.7"/>
<text text-anchor="start" x="11.5" y="-166.8" font-family="Helvetica,sans-Serif" font-size="11.00" fill="#000000">...</text>
<polygon fill="#ffffff" stroke="transparent" points="8.5,-141.7 8.5,-160.7 31.5,-160.7 31.5,-141.7 8.5,-141.7"/>
<polygon fill="none" stroke="#000000" points="8.5,-141.7 8.5,-160.7 31.5,-160.7 31.5,-141.7 8.5,-141.7"/>
<text text-anchor="start" x="11.5" y="-147.8" font-family="Helvetica,sans-Serif" font-size="11.00" fill="#000000"> &#160;</text>
<polygon fill="#ffffff" stroke="transparent" points="31.5,-141.7 31.5,-160.7 74.5,-160.7 74.5,-141.7 31.5,-141.7"/>
<polygon fill="none" stroke="#000000" points="31.5,-141.7 31.5,-160.7 74.5,-160.7 74.5,-141.7 31.5,-141.7"/>
<text text-anchor="start" x="39.1105" y="-147.8" font-family="Helvetica,sans-Serif" font-size="11.00" fill="#000000">0 rows</text>
<polygon fill="#ffffff" stroke="transparent" points="74.5,-141.7 74.5,-160.7 101.5,-160.7 101.5,-141.7 74.5,-141.7"/>
<polygon fill="none" stroke="#000000" points="74.5,-141.7 74.5,-160.7 101.5,-160.7 101.5,-141.7 74.5,-141.7"/>
<text text-anchor="start" x="82.9053" y="-147.8" font-family="Helvetica,sans-Serif" font-size="11.00" fill="#000000">1 &gt;</text>
</a>
</g>
</g>
<!-- skills&#45;&gt;categories -->
<g id="edge3" class="edge">
<title>skills:w&#45;&gt;categories:e</title>
<path fill="none" stroke="#000000" d="M137.776,-190.7C125.7815,-190.7 118.3229,-190.7 101.5,-190.7"/>
<polygon fill="#000000" stroke="#000000" points="144.5,-190.7001 152.5,-194.3 148.5,-190.7 152.5,-190.7 152.5,-190.7 152.5,-190.7 148.5,-190.7 152.5,-187.1 144.5,-190.7001 144.5,-190.7001"/>
<ellipse fill="none" stroke="#000000" cx="141.3" cy="-190.7001" rx="3.2" ry="3.2"/>
</g>
<!-- events -->
<g id="node5" class="node">
<title>events</title>
<g id="a_node5"><a xlink:href="../../tables/events.html" xlink:title="events" target="_top">
<polygon fill="#ffffff" stroke="transparent" points="12,-246.2 12,-351.2 97,-351.2 97,-246.2 12,-246.2"/>
<polygon fill="#f5f5f5" stroke="transparent" points="12.5,-327.7 12.5,-350.7 97.5,-350.7 97.5,-327.7 12.5,-327.7"/>
<polygon fill="none" stroke="#000000" points="12.5,-327.7 12.5,-350.7 97.5,-350.7 97.5,-327.7 12.5,-327.7"/>
<text text-anchor="start" x="17.5" y="-336.8" font-family="Helvetica,sans-Serif" font-weight="bold" font-size="11.00" fill="#000000">events</text>
<text text-anchor="start" x="62.5437" y="-335.8" font-family="Helvetica,sans-Serif" font-size="11.00" fill="#000000">[table]</text>
<polygon fill="none" stroke="#000000" points="12.5,-305.7 12.5,-327.7 97.5,-327.7 97.5,-305.7 12.5,-305.7"/>
<image xlink:href="../../images/primaryKeys.png" width="11px" height="12px" preserveAspectRatio="xMinYMin meet" x="17.5" y="-322.7"/>
<text text-anchor="start" x="32.5" y="-312.8" font-family="Helvetica,sans-Serif" font-size="11.00" fill="#000000">id</text>
<polygon fill="#ffffff" stroke="transparent" points="12.5,-283.7 12.5,-305.7 97.5,-305.7 97.5,-283.7 12.5,-283.7"/>
<polygon fill="none" stroke="#000000" points="12.5,-283.7 12.5,-305.7 97.5,-305.7 97.5,-283.7 12.5,-283.7"/>
<image xlink:href="../../images/foreignKeys.png" width="11px" height="12px" preserveAspectRatio="xMinYMin meet" x="17.5" y="-300.7"/>
<text text-anchor="start" x="32.5" y="-290.8" font-family="Helvetica,sans-Serif" font-size="11.00" fill="#000000">gym_id</text>
<polygon fill="none" stroke="#000000" points="12.5,-264.7 12.5,-283.7 97.5,-283.7 97.5,-264.7 12.5,-264.7"/>
<text text-anchor="start" x="15.5" y="-270.8" font-family="Helvetica,sans-Serif" font-size="11.00" fill="#000000">...</text>
<polygon fill="#ffffff" stroke="transparent" points="12.5,-245.7 12.5,-264.7 35.5,-264.7 35.5,-245.7 12.5,-245.7"/>
<polygon fill="none" stroke="#000000" points="12.5,-245.7 12.5,-264.7 35.5,-264.7 35.5,-245.7 12.5,-245.7"/>
<text text-anchor="start" x="15.5" y="-251.8" font-family="Helvetica,sans-Serif" font-size="11.00" fill="#000000">&lt; 1</text>
<polygon fill="#ffffff" stroke="transparent" points="35.5,-245.7 35.5,-264.7 74.5,-264.7 74.5,-245.7 35.5,-245.7"/>
<polygon fill="none" stroke="#000000" points="35.5,-245.7 35.5,-264.7 74.5,-264.7 74.5,-245.7 35.5,-245.7"/>
<text text-anchor="start" x="39.1105" y="-251.8" font-family="Helvetica,sans-Serif" font-size="11.00" fill="#000000">0 rows</text>
<polygon fill="#ffffff" stroke="transparent" points="74.5,-245.7 74.5,-264.7 97.5,-264.7 97.5,-245.7 74.5,-245.7"/>
<polygon fill="none" stroke="#000000" points="74.5,-245.7 74.5,-264.7 97.5,-264.7 97.5,-245.7 74.5,-245.7"/>
<text text-anchor="start" x="78.9053" y="-251.8" font-family="Helvetica,sans-Serif" font-size="11.00" fill="#000000">1 &gt;</text>
</a>
</g>
</g>
<!-- skills&#45;&gt;events -->
<g id="edge4" class="edge">
<title>skills:w&#45;&gt;events:e</title>
<path fill="none" stroke="#000000" d="M138.3557,-216.4014C110.1369,-234.9279 143.8647,-316.7 97.5,-316.7"/>
<polygon fill="#000000" stroke="#000000" points="144.7606,-214.7254 153.4114,-216.1827 148.6303,-213.7127 152.5,-212.7 152.5,-212.7 152.5,-212.7 148.6303,-213.7127 151.5886,-209.2173 144.7606,-214.7254 144.7606,-214.7254"/>
<ellipse fill="none" stroke="#000000" cx="141.6649" cy="-215.5355" rx="3.2" ry="3.2"/>
</g>
<!-- levels -->
<g id="node6" class="node">
<title>levels</title>
<g id="a_node6"><a xlink:href="../../tables/levels.html" xlink:title="levels" target="_top">
<polygon fill="#ffffff" stroke="transparent" points="12,-38.2 12,-121.2 97,-121.2 97,-38.2 12,-38.2"/>
<polygon fill="#f5f5f5" stroke="transparent" points="12.5,-97.7 12.5,-120.7 97.5,-120.7 97.5,-97.7 12.5,-97.7"/>
<polygon fill="none" stroke="#000000" points="12.5,-97.7 12.5,-120.7 97.5,-120.7 97.5,-97.7 12.5,-97.7"/>
<text text-anchor="start" x="17.5" y="-106.8" font-family="Helvetica,sans-Serif" font-weight="bold" font-size="11.00" fill="#000000">levels</text>
<text text-anchor="start" x="62.5437" y="-105.8" font-family="Helvetica,sans-Serif" font-size="11.00" fill="#000000">[table]</text>
<polygon fill="none" stroke="#000000" points="12.5,-75.7 12.5,-97.7 97.5,-97.7 97.5,-75.7 12.5,-75.7"/>
<image xlink:href="../../images/primaryKeys.png" width="11px" height="12px" preserveAspectRatio="xMinYMin meet" x="17.5" y="-92.7"/>
<text text-anchor="start" x="32.5" y="-82.8" font-family="Helvetica,sans-Serif" font-size="11.00" fill="#000000">id</text>
<polygon fill="none" stroke="#000000" points="12.5,-56.7 12.5,-75.7 97.5,-75.7 97.5,-56.7 12.5,-56.7"/>
<text text-anchor="start" x="15.5" y="-62.8" font-family="Helvetica,sans-Serif" font-size="11.00" fill="#000000">...</text>
<polygon fill="#ffffff" stroke="transparent" points="12.5,-37.7 12.5,-56.7 31.5,-56.7 31.5,-37.7 12.5,-37.7"/>
<polygon fill="none" stroke="#000000" points="12.5,-37.7 12.5,-56.7 31.5,-56.7 31.5,-37.7 12.5,-37.7"/>
<text text-anchor="start" x="15.5" y="-43.8" font-family="Helvetica,sans-Serif" font-size="11.00" fill="#000000"> &#160;</text>
<polygon fill="#ffffff" stroke="transparent" points="31.5,-37.7 31.5,-56.7 72.5,-56.7 72.5,-37.7 31.5,-37.7"/>
<polygon fill="none" stroke="#000000" points="31.5,-37.7 31.5,-56.7 72.5,-56.7 72.5,-37.7 31.5,-37.7"/>
<text text-anchor="start" x="37.1105" y="-43.8" font-family="Helvetica,sans-Serif" font-size="11.00" fill="#000000">0 rows</text>
<polygon fill="#ffffff" stroke="transparent" points="72.5,-37.7 72.5,-56.7 97.5,-56.7 97.5,-37.7 72.5,-37.7"/>
<polygon fill="none" stroke="#000000" points="72.5,-37.7 72.5,-56.7 97.5,-56.7 97.5,-37.7 72.5,-37.7"/>
<text text-anchor="start" x="78.9053" y="-43.8" font-family="Helvetica,sans-Serif" font-size="11.00" fill="#000000">1 &gt;</text>
</a>
</g>
</g>
<!-- skills&#45;&gt;levels -->
<g id="edge5" class="edge">
<title>skills:w&#45;&gt;levels:e</title>
<path fill="none" stroke="#000000" d="M138.4075,-164.5209C116.1437,-147.8109 135.3835,-86.7 97.5,-86.7"/>
<polygon fill="#000000" stroke="#000000" points="144.8301,-166.4255 151.4765,-172.1514 148.6651,-167.5627 152.5,-168.7 152.5,-168.7 152.5,-168.7 148.6651,-167.5627 153.5235,-165.2486 144.8301,-166.4255 144.8301,-166.4255"/>
<ellipse fill="none" stroke="#000000" cx="141.7622" cy="-165.5157" rx="3.2" ry="3.2"/>
</g>
<!-- skill_lists_has_skills -->
<g id="node3" class="node">
<title>skill_lists_has_skills</title>
<g id="a_node3"><a xlink:href="../../tables/skill_lists_has_skills.html" xlink:title="skill_lists_has_skills" target="_top">
<polygon fill="#ffffff" stroke="transparent" points="408,-211.2 408,-316.2 548,-316.2 548,-211.2 408,-211.2"/>
<polygon fill="#f5f5f5" stroke="transparent" points="408,-292.7 408,-315.7 548,-315.7 548,-292.7 408,-292.7"/>
<polygon fill="none" stroke="#000000" points="408,-292.7 408,-315.7 548,-315.7 548,-292.7 408,-292.7"/>
<text text-anchor="start" x="412.9207" y="-301.8" font-family="Helvetica,sans-Serif" font-weight="bold" font-size="11.00" fill="#000000">skill_lists_has_skills</text>
<text text-anchor="start" x="513.5219" y="-300.8" font-family="Helvetica,sans-Serif" font-size="11.00" fill="#000000">[table]</text>
<polygon fill="none" stroke="#000000" points="408,-270.7 408,-292.7 548,-292.7 548,-270.7 408,-270.7"/>
<image xlink:href="../../images/primaryKeys.png" width="11px" height="12px" preserveAspectRatio="xMinYMin meet" x="413" y="-287.7"/>
<text text-anchor="start" x="429" y="-277.8" font-family="Helvetica,sans-Serif" font-size="11.00" fill="#000000">skill_list_id</text>
<polygon fill="none" stroke="#000000" points="408,-248.7 408,-270.7 548,-270.7 548,-248.7 408,-248.7"/>
<image xlink:href="../../images/primaryKeys.png" width="11px" height="12px" preserveAspectRatio="xMinYMin meet" x="413" y="-265.7"/>
<text text-anchor="start" x="429" y="-255.8" font-family="Helvetica,sans-Serif" font-size="11.00" fill="#000000">skill_id</text>
<polygon fill="none" stroke="#000000" points="408,-229.7 408,-248.7 548,-248.7 548,-229.7 408,-229.7"/>
<text text-anchor="start" x="411" y="-235.8" font-family="Helvetica,sans-Serif" font-size="11.00" fill="#000000">...</text>
<polygon fill="#ffffff" stroke="transparent" points="408,-210.7 408,-229.7 463,-229.7 463,-210.7 408,-210.7"/>
<polygon fill="none" stroke="#000000" points="408,-210.7 408,-229.7 463,-229.7 463,-210.7 408,-210.7"/>
<text text-anchor="start" x="411" y="-216.8" font-family="Helvetica,sans-Serif" font-size="11.00" fill="#000000">&lt; 2</text>
<polygon fill="#ffffff" stroke="transparent" points="463,-210.7 463,-229.7 518,-229.7 518,-210.7 463,-210.7"/>
<polygon fill="none" stroke="#000000" points="463,-210.7 463,-229.7 518,-229.7 518,-210.7 463,-210.7"/>
<text text-anchor="start" x="482.6105" y="-216.8" font-family="Helvetica,sans-Serif" font-size="11.00" fill="#000000">0 rows</text>
<polygon fill="#ffffff" stroke="transparent" points="518,-210.7 518,-229.7 548,-229.7 548,-210.7 518,-210.7"/>
<polygon fill="none" stroke="#000000" points="518,-210.7 518,-229.7 548,-229.7 548,-210.7 518,-210.7"/>
<text text-anchor="start" x="538.8862" y="-216.8" font-family="Helvetica,sans-Serif" font-size="11.00" fill="#000000"> &#160;</text>
</a>
</g>
</g>
<!-- skill_lists_has_skills&#45;&gt;skills -->
<g id="edge2" class="edge">
<title>skill_lists_has_skills:w&#45;&gt;skills:e</title>
<path fill="none" stroke="#000000" d="M393.9816,-264.6435C377.738,-279.4952 387.2175,-322.7 357.5,-322.7"/>
<polygon fill="#000000" stroke="#000000" points="400.4554,-262.3606 409.1973,-263.0951 404.2277,-261.0303 408,-259.7 408,-259.7 408,-259.7 404.2277,-261.0303 406.8027,-256.3049 400.4554,-262.3606 400.4554,-262.3606"/>
<ellipse fill="none" stroke="#000000" cx="397.4375" cy="-263.4248" rx="3.2" ry="3.2"/>
</g>
</g>
</svg>
