<?xml version="1.0" encoding="UTF-8" standalone="no"?>
<!DOCTYPE svg PUBLIC "-//W3C//DTD SVG 1.1//EN"
 "http://www.w3.org/Graphics/SVG/1.1/DTD/svg11.dtd">
<!-- Generated by graphviz version 2.40.1 (20161225.0304)
 -->
<!-- Title: twoDegreesRelationshipsDiagram Pages: 1 -->
<svg width="432pt" height="275pt"
 viewBox="0.00 0.00 432.00 274.70" xmlns="http://www.w3.org/2000/svg" xmlns:xlink="http://www.w3.org/1999/xlink">
<g id="graph0" class="graph" transform="scale(1 1) rotate(0) translate(4 270.7)">
<title>twoDegreesRelationshipsDiagram</title>
<polygon fill="#ffffff" stroke="transparent" points="-4,4 -4,-270.7 428,-270.7 428,4 -4,4"/>
<text text-anchor="middle" x="72.4936" y="-7.3" font-family="Helvetica,sans-Serif" font-size="11.00" fill="#000000">Generated by SchemaSpy</text>
<!-- gymnast_has_skills -->
<g id="node1" class="node">
<title>gymnast_has_skills</title>
<g id="a_node1"><a xlink:href="../../tables/gymnast_has_skills.html" xlink:title="gymnast_has_skills" target="_top">
<polygon fill="#ffffff" stroke="transparent" points="272,-68.2 272,-129.2 410,-129.2 410,-68.2 272,-68.2"/>
<polygon fill="#f5f5f5" stroke="transparent" points="272,-105.7 272,-128.7 410,-128.7 410,-105.7 272,-105.7"/>
<polygon fill="none" stroke="#000000" points="272,-105.7 272,-128.7 410,-128.7 410,-105.7 272,-105.7"/>
<text text-anchor="start" x="276.8271" y="-114.8" font-family="Helvetica,sans-Serif" font-weight="bold" font-size="11.00" fill="#000000">gymnast_has_skills</text>
<text text-anchor="start" x="375.5219" y="-113.8" font-family="Helvetica,sans-Serif" font-size="11.00" fill="#000000">[table]</text>
<polygon fill="none" stroke="#000000" points="272,-86.7 272,-105.7 410,-105.7 410,-86.7 272,-86.7"/>
<text text-anchor="start" x="275" y="-92.8" font-family="Helvetica,sans-Serif" font-size="11.00" fill="#000000">...</text>
<polygon fill="#ffffff" stroke="transparent" points="272,-67.7 272,-86.7 326,-86.7 326,-67.7 272,-67.7"/>
<polygon fill="none" stroke="#000000" points="272,-67.7 272,-86.7 326,-86.7 326,-67.7 272,-67.7"/>
<text text-anchor="start" x="275" y="-73.8" font-family="Helvetica,sans-Serif" font-size="11.00" fill="#000000">&lt; 2</text>
<polygon fill="#ffffff" stroke="transparent" points="326,-67.7 326,-86.7 381,-86.7 381,-67.7 326,-67.7"/>
<polygon fill="none" stroke="#000000" points="326,-67.7 326,-86.7 381,-86.7 381,-67.7 326,-67.7"/>
<text text-anchor="start" x="345.6105" y="-73.8" font-family="Helvetica,sans-Serif" font-size="11.00" fill="#000000">0 rows</text>
<polygon fill="#ffffff" stroke="transparent" points="381,-67.7 381,-86.7 410,-86.7 410,-67.7 381,-67.7"/>
<polygon fill="none" stroke="#000000" points="381,-67.7 381,-86.7 410,-86.7 410,-67.7 381,-67.7"/>
<text text-anchor="start" x="400.8862" y="-73.8" font-family="Helvetica,sans-Serif" font-size="11.00" fill="#000000"> &#160;</text>
</a>
</g>
</g>
<!-- skills -->
<g id="node2" class="node">
<title>skills</title>
<g id="a_node2"><a xlink:href="../../tables/skills.html" xlink:title="skills" target="_top">
<polygon fill="#ffffff" stroke="transparent" points="132,-38.2 132,-143.2 217,-143.2 217,-38.2 132,-38.2"/>
<polygon fill="#f5f5f5" stroke="transparent" points="132.5,-119.7 132.5,-142.7 217.5,-142.7 217.5,-119.7 132.5,-119.7"/>
<polygon fill="none" stroke="#000000" points="132.5,-119.7 132.5,-142.7 217.5,-142.7 217.5,-119.7 132.5,-119.7"/>
<text text-anchor="start" x="137.5" y="-128.8" font-family="Helvetica,sans-Serif" font-weight="bold" font-size="11.00" fill="#000000">skills</text>
<text text-anchor="start" x="182.5437" y="-127.8" font-family="Helvetica,sans-Serif" font-size="11.00" fill="#000000">[table]</text>
<polygon fill="none" stroke="#000000" points="132.5,-97.7 132.5,-119.7 217.5,-119.7 217.5,-97.7 132.5,-97.7"/>
<image xlink:href="../../images/primaryKeys.png" width="11px" height="12px" preserveAspectRatio="xMinYMin meet" x="137.5" y="-114.7"/>
<text text-anchor="start" x="152.5" y="-104.8" font-family="Helvetica,sans-Serif" font-size="11.00" fill="#000000">id</text>
<polygon fill="#ffffff" stroke="transparent" points="132.5,-75.7 132.5,-97.7 217.5,-97.7 217.5,-75.7 132.5,-75.7"/>
<polygon fill="none" stroke="#000000" points="132.5,-75.7 132.5,-97.7 217.5,-97.7 217.5,-75.7 132.5,-75.7"/>
<image xlink:href="../../images/foreignKeys.png" width="11px" height="12px" preserveAspectRatio="xMinYMin meet" x="137.5" y="-92.7"/>
<text text-anchor="start" x="152.5" y="-82.8" font-family="Helvetica,sans-Serif" font-size="11.00" fill="#000000">events_id</text>
<polygon fill="none" stroke="#000000" points="132.5,-56.7 132.5,-75.7 217.5,-75.7 217.5,-56.7 132.5,-56.7"/>
<text text-anchor="start" x="135.5" y="-62.8" font-family="Helvetica,sans-Serif" font-size="11.00" fill="#000000">...</text>
<polygon fill="#ffffff" stroke="transparent" points="132.5,-37.7 132.5,-56.7 155.5,-56.7 155.5,-37.7 132.5,-37.7"/>
<polygon fill="none" stroke="#000000" points="132.5,-37.7 132.5,-56.7 155.5,-56.7 155.5,-37.7 132.5,-37.7"/>
<text text-anchor="start" x="135.5" y="-43.8" font-family="Helvetica,sans-Serif" font-size="11.00" fill="#000000">&lt; 1</text>
<polygon fill="#ffffff" stroke="transparent" points="155.5,-37.7 155.5,-56.7 194.5,-56.7 194.5,-37.7 155.5,-37.7"/>
<polygon fill="none" stroke="#000000" points="155.5,-37.7 155.5,-56.7 194.5,-56.7 194.5,-37.7 155.5,-37.7"/>
<text text-anchor="start" x="159.1105" y="-43.8" font-family="Helvetica,sans-Serif" font-size="11.00" fill="#000000">0 rows</text>
<polygon fill="#ffffff" stroke="transparent" points="194.5,-37.7 194.5,-56.7 217.5,-56.7 217.5,-37.7 194.5,-37.7"/>
<polygon fill="none" stroke="#000000" points="194.5,-37.7 194.5,-56.7 217.5,-56.7 217.5,-37.7 194.5,-37.7"/>
<text text-anchor="start" x="198.9053" y="-43.8" font-family="Helvetica,sans-Serif" font-size="11.00" fill="#000000">2 &gt;</text>
</a>
</g>
</g>
<!-- gymnast_has_skills&#45;&gt;skills -->
<g id="edge1" class="edge">
<title>gymnast_has_skills:w&#45;&gt;skills:e</title>
<path fill="none" stroke="#000000" d="M257.3004,-97.5076C243.7869,-101.0796 236.5654,-108.7 217.5,-108.7"/>
<polygon fill="#000000" stroke="#000000" points="264.0598,-96.6764 272.4394,-99.2731 268.0299,-96.1882 272,-95.7 272,-95.7 272,-95.7 268.0299,-96.1882 271.5606,-92.1269 264.0598,-96.6764 264.0598,-96.6764"/>
<ellipse fill="none" stroke="#000000" cx="260.8837" cy="-97.067" rx="3.2" ry="3.2"/>
</g>
<!-- events -->
<g id="node5" class="node">
<title>events</title>
<g id="a_node5"><a xlink:href="../../tables/events.html" xlink:title="events" target="_top">
<polygon fill="#ffffff" stroke="transparent" points="8,-59.2 8,-120.2 83,-120.2 83,-59.2 8,-59.2"/>
<polygon fill="#f5f5f5" stroke="transparent" points="8.5,-96.7 8.5,-119.7 83.5,-119.7 83.5,-96.7 8.5,-96.7"/>
<polygon fill="none" stroke="#000000" points="8.5,-96.7 8.5,-119.7 83.5,-119.7 83.5,-96.7 8.5,-96.7"/>
<text text-anchor="start" x="13.2992" y="-105.8" font-family="Helvetica,sans-Serif" font-weight="bold" font-size="11.00" fill="#000000">events</text>
<text text-anchor="start" x="49.0219" y="-104.8" font-family="Helvetica,sans-Serif" font-size="11.00" fill="#000000">[table]</text>
<polygon fill="none" stroke="#000000" points="8.5,-77.7 8.5,-96.7 83.5,-96.7 83.5,-77.7 8.5,-77.7"/>
<text text-anchor="start" x="11.5" y="-83.8" font-family="Helvetica,sans-Serif" font-size="11.00" fill="#000000">...</text>
<polygon fill="#ffffff" stroke="transparent" points="8.5,-58.7 8.5,-77.7 22.5,-77.7 22.5,-58.7 8.5,-58.7"/>
<polygon fill="none" stroke="#000000" points="8.5,-58.7 8.5,-77.7 22.5,-77.7 22.5,-58.7 8.5,-58.7"/>
<text text-anchor="start" x="11.5" y="-64.8" font-family="Helvetica,sans-Serif" font-size="11.00" fill="#000000"> &#160;</text>
<polygon fill="#ffffff" stroke="transparent" points="22.5,-58.7 22.5,-77.7 61.5,-77.7 61.5,-58.7 22.5,-58.7"/>
<polygon fill="none" stroke="#000000" points="22.5,-58.7 22.5,-77.7 61.5,-77.7 61.5,-58.7 22.5,-58.7"/>
<text text-anchor="start" x="26.1105" y="-64.8" font-family="Helvetica,sans-Serif" font-size="11.00" fill="#000000">0 rows</text>
<polygon fill="#ffffff" stroke="transparent" points="61.5,-58.7 61.5,-77.7 83.5,-77.7 83.5,-58.7 61.5,-58.7"/>
<polygon fill="none" stroke="#000000" points="61.5,-58.7 61.5,-77.7 83.5,-77.7 83.5,-58.7 61.5,-58.7"/>
<text text-anchor="start" x="64.9053" y="-64.8" font-family="Helvetica,sans-Serif" font-size="11.00" fill="#000000">1 &gt;</text>
</a>
</g>
</g>
<!-- skills&#45;&gt;events -->
<g id="edge4" class="edge">
<title>skills:w&#45;&gt;events:e</title>
<path fill="none" stroke="#000000" d="M117.9909,-86.7C106.6774,-86.7 99.4931,-86.7 83.5,-86.7"/>
<polygon fill="#000000" stroke="#000000" points="124.5,-86.7001 132.5,-90.3 128.5,-86.7 132.5,-86.7 132.5,-86.7 132.5,-86.7 128.5,-86.7 132.5,-83.1 124.5,-86.7001 124.5,-86.7001"/>
<ellipse fill="none" stroke="#000000" cx="121.3" cy="-86.7001" rx="3.2" ry="3.2"/>
</g>
<!-- skill_has_levels -->
<g id="node3" class="node">
<title>skill_has_levels</title>
<g id="a_node3"><a xlink:href="../../tables/skill_has_levels.html" xlink:title="skill_has_levels" target="_top">
<polygon fill="#ffffff" stroke="transparent" points="266,-150.7 266,-262.7 416,-262.7 416,-150.7 266,-150.7"/>
<polygon fill="#f5f5f5" stroke="transparent" points="268,-237.7 268,-260.7 414,-260.7 414,-237.7 268,-237.7"/>
<polygon fill="none" stroke="#000000" points="268,-237.7 268,-260.7 414,-260.7 414,-237.7 268,-237.7"/>
<text text-anchor="start" x="273" y="-246.8" font-family="Helvetica,sans-Serif" font-weight="bold" font-size="11.00" fill="#000000">skill_has_levels</text>
<text text-anchor="start" x="379.0437" y="-245.8" font-family="Helvetica,sans-Serif" font-size="11.00" fill="#000000">[table]</text>
<polygon fill="none" stroke="#000000" points="268,-215.7 268,-237.7 379,-237.7 379,-215.7 268,-215.7"/>
<image xlink:href="../../images/primaryKeys.png" width="11px" height="12px" preserveAspectRatio="xMinYMin meet" x="273" y="-232.7"/>
<text text-anchor="start" x="288" y="-222.8" font-family="Helvetica,sans-Serif" font-size="11.00" fill="#000000">levels_id</text>
<polygon fill="none" stroke="#000000" points="379,-215.7 379,-237.7 414,-237.7 414,-215.7 379,-215.7"/>
<text text-anchor="start" x="381.5219" y="-223.4" font-family="Helvetica,sans-Serif" font-size="11.00" fill="#000000">int[10]</text>
<polygon fill="none" stroke="#000000" points="268,-193.7 268,-215.7 379,-215.7 379,-193.7 268,-193.7"/>
<image xlink:href="../../images/primaryKeys.png" width="11px" height="12px" preserveAspectRatio="xMinYMin meet" x="273" y="-210.7"/>
<text text-anchor="start" x="288" y="-200.8" font-family="Helvetica,sans-Serif" font-size="11.00" fill="#000000">skills_id</text>
<polygon fill="none" stroke="#000000" points="379,-193.7 379,-215.7 414,-215.7 414,-193.7 379,-193.7"/>
<text text-anchor="start" x="381.5219" y="-201.4" font-family="Helvetica,sans-Serif" font-size="11.00" fill="#000000">int[10]</text>
<polygon fill="none" stroke="#000000" points="268,-171.7 268,-193.7 379,-193.7 379,-171.7 268,-171.7"/>
<text text-anchor="start" x="288" y="-178.8" font-family="Helvetica,sans-Serif" font-size="11.00" fill="#000000">secuence</text>
<polygon fill="none" stroke="#000000" points="379,-171.7 379,-193.7 414,-193.7 414,-171.7 379,-171.7"/>
<text text-anchor="start" x="382" y="-179.4" font-family="Helvetica,sans-Serif" font-size="11.00" fill="#000000">bit[1]</text>
<polygon fill="#ffffff" stroke="transparent" points="268,-152.7 268,-171.7 315,-171.7 315,-152.7 268,-152.7"/>
<polygon fill="none" stroke="#000000" points="268,-152.7 268,-171.7 315,-171.7 315,-152.7 268,-152.7"/>
<text text-anchor="start" x="271" y="-158.8" font-family="Helvetica,sans-Serif" font-size="11.00" fill="#000000">&lt; 2</text>
<polygon fill="#ffffff" stroke="transparent" points="315,-152.7 315,-171.7 379,-171.7 379,-152.7 315,-152.7"/>
<polygon fill="none" stroke="#000000" points="315,-152.7 315,-171.7 379,-171.7 379,-152.7 315,-152.7"/>
<text text-anchor="start" x="343.6105" y="-158.8" font-family="Helvetica,sans-Serif" font-size="11.00" fill="#000000">0 rows</text>
<polygon fill="#ffffff" stroke="transparent" points="379,-152.7 379,-171.7 414,-171.7 414,-152.7 379,-152.7"/>
<polygon fill="none" stroke="#000000" points="379,-152.7 379,-171.7 414,-171.7 414,-152.7 379,-152.7"/>
<text text-anchor="start" x="395.4053" y="-158.8" font-family="Helvetica,sans-Serif" font-size="11.00" fill="#000000">0 &gt;</text>
<polygon fill="none" stroke="#000000" stroke-width="2" points="267,-151.7 267,-261.7 415,-261.7 415,-151.7 267,-151.7"/>
</a>
</g>
</g>
<!-- skill_has_levels&#45;&gt;skills -->
<g id="edge3" class="edge">
<title>skill_has_levels:w&#45;&gt;skills:e</title>
<path fill="none" stroke="#000000" d="M253.9659,-200.575C229.7993,-182.2 259.6837,-108.7 217.5,-108.7"/>
<polygon fill="#000000" stroke="#000000" points="260.3247,-202.444 266.9848,-208.1539 264.1623,-203.572 268,-204.7 268,-204.7 268,-204.7 264.1623,-203.572 269.0152,-201.2461 260.3247,-202.444 260.3247,-202.444"/>
<ellipse fill="none" stroke="#000000" cx="257.2545" cy="-201.5416" rx="3.2" ry="3.2"/>
</g>
<!-- levels -->
<g id="node4" class="node">
<title>levels</title>
<g id="a_node4"><a xlink:href="../../tables/levels.html" xlink:title="levels" target="_top">
<polygon fill="#ffffff" stroke="transparent" points="132,-178.2 132,-261.2 217,-261.2 217,-178.2 132,-178.2"/>
<polygon fill="#f5f5f5" stroke="transparent" points="132.5,-237.7 132.5,-260.7 217.5,-260.7 217.5,-237.7 132.5,-237.7"/>
<polygon fill="none" stroke="#000000" points="132.5,-237.7 132.5,-260.7 217.5,-260.7 217.5,-237.7 132.5,-237.7"/>
<text text-anchor="start" x="137.5" y="-246.8" font-family="Helvetica,sans-Serif" font-weight="bold" font-size="11.00" fill="#000000">levels</text>
<text text-anchor="start" x="182.5437" y="-245.8" font-family="Helvetica,sans-Serif" font-size="11.00" fill="#000000">[table]</text>
<polygon fill="none" stroke="#000000" points="132.5,-215.7 132.5,-237.7 217.5,-237.7 217.5,-215.7 132.5,-215.7"/>
<image xlink:href="../../images/primaryKeys.png" width="11px" height="12px" preserveAspectRatio="xMinYMin meet" x="137.5" y="-232.7"/>
<text text-anchor="start" x="152.5" y="-222.8" font-family="Helvetica,sans-Serif" font-size="11.00" fill="#000000">id</text>
<polygon fill="none" stroke="#000000" points="132.5,-196.7 132.5,-215.7 217.5,-215.7 217.5,-196.7 132.5,-196.7"/>
<text text-anchor="start" x="135.5" y="-202.8" font-family="Helvetica,sans-Serif" font-size="11.00" fill="#000000">...</text>
<polygon fill="#ffffff" stroke="transparent" points="132.5,-177.7 132.5,-196.7 151.5,-196.7 151.5,-177.7 132.5,-177.7"/>
<polygon fill="none" stroke="#000000" points="132.5,-177.7 132.5,-196.7 151.5,-196.7 151.5,-177.7 132.5,-177.7"/>
<text text-anchor="start" x="135.5" y="-183.8" font-family="Helvetica,sans-Serif" font-size="11.00" fill="#000000"> &#160;</text>
<polygon fill="#ffffff" stroke="transparent" points="151.5,-177.7 151.5,-196.7 192.5,-196.7 192.5,-177.7 151.5,-177.7"/>
<polygon fill="none" stroke="#000000" points="151.5,-177.7 151.5,-196.7 192.5,-196.7 192.5,-177.7 151.5,-177.7"/>
<text text-anchor="start" x="157.1105" y="-183.8" font-family="Helvetica,sans-Serif" font-size="11.00" fill="#000000">0 rows</text>
<polygon fill="#ffffff" stroke="transparent" points="192.5,-177.7 192.5,-196.7 217.5,-196.7 217.5,-177.7 192.5,-177.7"/>
<polygon fill="none" stroke="#000000" points="192.5,-177.7 192.5,-196.7 217.5,-196.7 217.5,-177.7 192.5,-177.7"/>
<text text-anchor="start" x="198.9053" y="-183.8" font-family="Helvetica,sans-Serif" font-size="11.00" fill="#000000">1 &gt;</text>
</a>
</g>
</g>
<!-- skill_has_levels&#45;&gt;levels -->
<g id="edge2" class="edge">
<title>skill_has_levels:w&#45;&gt;levels:e</title>
<path fill="none" stroke="#000000" d="M253.4203,-226.7C241.5435,-226.7 234.158,-226.7 217.5,-226.7"/>
<polygon fill="#000000" stroke="#000000" points="260,-226.7001 268,-230.3 264,-226.7 268,-226.7 268,-226.7 268,-226.7 264,-226.7 268,-223.1 260,-226.7001 260,-226.7001"/>
<ellipse fill="none" stroke="#000000" cx="256.8" cy="-226.7001" rx="3.2" ry="3.2"/>
</g>
</g>
</svg>
