<?xml version="1.0" encoding="UTF-8" standalone="no"?>
<!DOCTYPE svg PUBLIC "-//W3C//DTD SVG 1.1//EN"
 "http://www.w3.org/Graphics/SVG/1.1/DTD/svg11.dtd">
<!-- Generated by graphviz version 2.40.1 (20161225.0304)
 -->
<!-- Title: oneDegreeRelationshipsDiagram Pages: 1 -->
<svg width="541pt" height="328pt"
 viewBox="0.00 0.00 541.00 328.20" xmlns="http://www.w3.org/2000/svg" xmlns:xlink="http://www.w3.org/1999/xlink">
<g id="graph0" class="graph" transform="scale(1 1) rotate(0) translate(4 324.2)">
<title>oneDegreeRelationshipsDiagram</title>
<polygon fill="#ffffff" stroke="transparent" points="-4,4 -4,-324.2 537,-324.2 537,4 -4,4"/>
<text text-anchor="middle" x="72.4936" y="-7.3" font-family="Helvetica,sans-Serif" font-size="11.00" fill="#000000">Generated by SchemaSpy</text>
<!-- gymnast_has_skills -->
<g id="node1" class="node">
<title>gymnast_has_skills</title>
<g id="a_node1"><a xlink:href="../../tables/gymnast_has_skills.html" xlink:title="gymnast_has_skills" target="_top">
<polygon fill="#ffffff" stroke="transparent" points="387,-211.2 387,-316.2 525,-316.2 525,-211.2 387,-211.2"/>
<polygon fill="#f5f5f5" stroke="transparent" points="387,-292.7 387,-315.7 525,-315.7 525,-292.7 387,-292.7"/>
<polygon fill="none" stroke="#000000" points="387,-292.7 387,-315.7 525,-315.7 525,-292.7 387,-292.7"/>
<text text-anchor="start" x="391.8271" y="-301.8" font-family="Helvetica,sans-Serif" font-weight="bold" font-size="11.00" fill="#000000">gymnast_has_skills</text>
<text text-anchor="start" x="490.5219" y="-300.8" font-family="Helvetica,sans-Serif" font-size="11.00" fill="#000000">[table]</text>
<polygon fill="none" stroke="#000000" points="387,-270.7 387,-292.7 525,-292.7 525,-270.7 387,-270.7"/>
<image xlink:href="../../images/primaryKeys.png" width="11px" height="12px" preserveAspectRatio="xMinYMin meet" x="392" y="-287.7"/>
<text text-anchor="start" x="409" y="-277.8" font-family="Helvetica,sans-Serif" font-size="11.00" fill="#000000">gymnast_id</text>
<polygon fill="none" stroke="#000000" points="387,-248.7 387,-270.7 525,-270.7 525,-248.7 387,-248.7"/>
<image xlink:href="../../images/primaryKeys.png" width="11px" height="12px" preserveAspectRatio="xMinYMin meet" x="392" y="-265.7"/>
<text text-anchor="start" x="409" y="-255.8" font-family="Helvetica,sans-Serif" font-size="11.00" fill="#000000">skills_Id</text>
<polygon fill="none" stroke="#000000" points="387,-229.7 387,-248.7 525,-248.7 525,-229.7 387,-229.7"/>
<text text-anchor="start" x="390" y="-235.8" font-family="Helvetica,sans-Serif" font-size="11.00" fill="#000000">...</text>
<polygon fill="#ffffff" stroke="transparent" points="387,-210.7 387,-229.7 441,-229.7 441,-210.7 387,-210.7"/>
<polygon fill="none" stroke="#000000" points="387,-210.7 387,-229.7 441,-229.7 441,-210.7 387,-210.7"/>
<text text-anchor="start" x="390" y="-216.8" font-family="Helvetica,sans-Serif" font-size="11.00" fill="#000000">&lt; 2</text>
<polygon fill="#ffffff" stroke="transparent" points="441,-210.7 441,-229.7 496,-229.7 496,-210.7 441,-210.7"/>
<polygon fill="none" stroke="#000000" points="441,-210.7 441,-229.7 496,-229.7 496,-210.7 441,-210.7"/>
<text text-anchor="start" x="460.6105" y="-216.8" font-family="Helvetica,sans-Serif" font-size="11.00" fill="#000000">0 rows</text>
<polygon fill="#ffffff" stroke="transparent" points="496,-210.7 496,-229.7 525,-229.7 525,-210.7 496,-210.7"/>
<polygon fill="none" stroke="#000000" points="496,-210.7 496,-229.7 525,-229.7 525,-210.7 496,-210.7"/>
<text text-anchor="start" x="515.8862" y="-216.8" font-family="Helvetica,sans-Serif" font-size="11.00" fill="#000000"> &#160;</text>
</a>
</g>
</g>
<!-- skills -->
<g id="node2" class="node">
<title>skills</title>
<g id="a_node2"><a xlink:href="../../tables/skills.html" xlink:title="skills" target="_top">
<polygon fill="#ffffff" stroke="transparent" points="132,-54.7 132,-232.7 338,-232.7 338,-54.7 132,-54.7"/>
<polygon fill="#f5f5f5" stroke="transparent" points="134,-207.7 134,-230.7 336,-230.7 336,-207.7 134,-207.7"/>
<polygon fill="none" stroke="#000000" points="134,-207.7 134,-230.7 336,-230.7 336,-207.7 134,-207.7"/>
<text text-anchor="start" x="139" y="-216.8" font-family="Helvetica,sans-Serif" font-weight="bold" font-size="11.00" fill="#000000">skills</text>
<text text-anchor="start" x="301.0437" y="-215.8" font-family="Helvetica,sans-Serif" font-size="11.00" fill="#000000">[table]</text>
<polygon fill="none" stroke="#000000" points="134,-185.7 134,-207.7 219,-207.7 219,-185.7 134,-185.7"/>
<image xlink:href="../../images/primaryKeys.png" width="11px" height="12px" preserveAspectRatio="xMinYMin meet" x="139" y="-202.7"/>
<text text-anchor="start" x="154" y="-192.8" font-family="Helvetica,sans-Serif" font-size="11.00" fill="#000000">id</text>
<polygon fill="none" stroke="#000000" points="219,-185.7 219,-207.7 336,-207.7 336,-185.7 219,-185.7"/>
<text text-anchor="start" x="222" y="-193.4" font-family="Helvetica,sans-Serif" font-size="11.00" fill="#000000">int[10]</text>
<polygon fill="none" stroke="#000000" points="134,-163.7 134,-185.7 219,-185.7 219,-163.7 134,-163.7"/>
<text text-anchor="start" x="154" y="-170.8" font-family="Helvetica,sans-Serif" font-size="11.00" fill="#000000">name</text>
<polygon fill="none" stroke="#000000" points="219,-163.7 219,-185.7 336,-185.7 336,-163.7 219,-163.7"/>
<text text-anchor="start" x="222" y="-171.4" font-family="Helvetica,sans-Serif" font-size="11.00" fill="#000000">varchar[45]</text>
<polygon fill="none" stroke="#000000" points="134,-141.7 134,-163.7 219,-163.7 219,-141.7 134,-141.7"/>
<text text-anchor="start" x="154" y="-148.8" font-family="Helvetica,sans-Serif" font-size="11.00" fill="#000000">description</text>
<polygon fill="none" stroke="#000000" points="219,-141.7 219,-163.7 336,-163.7 336,-141.7 219,-141.7"/>
<text text-anchor="start" x="221.5645" y="-149.4" font-family="Helvetica,sans-Serif" font-size="11.00" fill="#000000">mediumtext[16777215]</text>
<polygon fill="none" stroke="#000000" points="134,-119.7 134,-141.7 219,-141.7 219,-119.7 134,-119.7"/>
<text text-anchor="start" x="154" y="-126.8" font-family="Helvetica,sans-Serif" font-size="11.00" fill="#000000">category</text>
<polygon fill="none" stroke="#000000" points="219,-119.7 219,-141.7 336,-141.7 336,-119.7 219,-119.7"/>
<text text-anchor="start" x="222" y="-127.4" font-family="Helvetica,sans-Serif" font-size="11.00" fill="#000000">varchar[45]</text>
<polygon fill="none" stroke="#000000" points="134,-97.7 134,-119.7 219,-119.7 219,-97.7 134,-97.7"/>
<text text-anchor="start" x="154" y="-104.8" font-family="Helvetica,sans-Serif" font-size="11.00" fill="#000000">certificate</text>
<polygon fill="none" stroke="#000000" points="219,-97.7 219,-119.7 336,-119.7 336,-97.7 219,-97.7"/>
<text text-anchor="start" x="222" y="-105.4" font-family="Helvetica,sans-Serif" font-size="11.00" fill="#000000">bit[1]</text>
<polygon fill="#ffffff" stroke="transparent" points="134,-75.7 134,-97.7 219,-97.7 219,-75.7 134,-75.7"/>
<polygon fill="none" stroke="#000000" points="134,-75.7 134,-97.7 219,-97.7 219,-75.7 134,-75.7"/>
<image xlink:href="../../images/foreignKeys.png" width="11px" height="12px" preserveAspectRatio="xMinYMin meet" x="139" y="-92.7"/>
<text text-anchor="start" x="154" y="-82.8" font-family="Helvetica,sans-Serif" font-size="11.00" fill="#000000">events_id</text>
<polygon fill="none" stroke="#000000" points="219,-75.7 219,-97.7 336,-97.7 336,-75.7 219,-75.7"/>
<text text-anchor="start" x="222" y="-83.4" font-family="Helvetica,sans-Serif" font-size="11.00" fill="#000000">int[10]</text>
<polygon fill="#ffffff" stroke="transparent" points="134,-56.7 134,-75.7 168,-75.7 168,-56.7 134,-56.7"/>
<polygon fill="none" stroke="#000000" points="134,-56.7 134,-75.7 168,-75.7 168,-56.7 134,-56.7"/>
<text text-anchor="start" x="137" y="-62.8" font-family="Helvetica,sans-Serif" font-size="11.00" fill="#000000">&lt; 1</text>
<polygon fill="#ffffff" stroke="transparent" points="168,-56.7 168,-75.7 219,-75.7 219,-56.7 168,-56.7"/>
<polygon fill="none" stroke="#000000" points="168,-56.7 168,-75.7 219,-75.7 219,-56.7 168,-56.7"/>
<text text-anchor="start" x="183.6105" y="-62.8" font-family="Helvetica,sans-Serif" font-size="11.00" fill="#000000">0 rows</text>
<polygon fill="#ffffff" stroke="transparent" points="219,-56.7 219,-75.7 336,-75.7 336,-56.7 219,-56.7"/>
<polygon fill="none" stroke="#000000" points="219,-56.7 219,-75.7 336,-75.7 336,-56.7 219,-56.7"/>
<text text-anchor="start" x="317.4053" y="-62.8" font-family="Helvetica,sans-Serif" font-size="11.00" fill="#000000">2 &gt;</text>
<polygon fill="none" stroke="#000000" stroke-width="2" points="133,-55.7 133,-231.7 337,-231.7 337,-55.7 133,-55.7"/>
</a>
</g>
</g>
<!-- gymnast_has_skills&#45;&gt;skills -->
<g id="edge1" class="edge">
<title>gymnast_has_skills:w&#45;&gt;skills:e</title>
<path fill="none" stroke="#000000" d="M372.9033,-254.7565C356.525,-239.9048 365.8329,-196.7 336,-196.7"/>
<polygon fill="#000000" stroke="#000000" points="379.4507,-257.0526 385.8087,-263.0972 383.2254,-258.3763 387,-259.7 387,-259.7 387,-259.7 383.2254,-258.3763 388.1913,-256.3028 379.4507,-257.0526 379.4507,-257.0526"/>
<ellipse fill="none" stroke="#000000" cx="376.431" cy="-255.9936" rx="3.2" ry="3.2"/>
</g>
<!-- events -->
<g id="node4" class="node">
<title>events</title>
<g id="a_node4"><a xlink:href="../../tables/events.html" xlink:title="events" target="_top">
<polygon fill="#ffffff" stroke="transparent" points="8,-38.2 8,-121.2 83,-121.2 83,-38.2 8,-38.2"/>
<polygon fill="#f5f5f5" stroke="transparent" points="8.5,-97.7 8.5,-120.7 83.5,-120.7 83.5,-97.7 8.5,-97.7"/>
<polygon fill="none" stroke="#000000" points="8.5,-97.7 8.5,-120.7 83.5,-120.7 83.5,-97.7 8.5,-97.7"/>
<text text-anchor="start" x="13.2992" y="-106.8" font-family="Helvetica,sans-Serif" font-weight="bold" font-size="11.00" fill="#000000">events</text>
<text text-anchor="start" x="49.0219" y="-105.8" font-family="Helvetica,sans-Serif" font-size="11.00" fill="#000000">[table]</text>
<polygon fill="none" stroke="#000000" points="8.5,-75.7 8.5,-97.7 83.5,-97.7 83.5,-75.7 8.5,-75.7"/>
<image xlink:href="../../images/primaryKeys.png" width="11px" height="12px" preserveAspectRatio="xMinYMin meet" x="13.5" y="-92.7"/>
<text text-anchor="start" x="36.5" y="-82.8" font-family="Helvetica,sans-Serif" font-size="11.00" fill="#000000">id</text>
<polygon fill="none" stroke="#000000" points="8.5,-56.7 8.5,-75.7 83.5,-75.7 83.5,-56.7 8.5,-56.7"/>
<text text-anchor="start" x="11.5" y="-62.8" font-family="Helvetica,sans-Serif" font-size="11.00" fill="#000000">...</text>
<polygon fill="#ffffff" stroke="transparent" points="8.5,-37.7 8.5,-56.7 22.5,-56.7 22.5,-37.7 8.5,-37.7"/>
<polygon fill="none" stroke="#000000" points="8.5,-37.7 8.5,-56.7 22.5,-56.7 22.5,-37.7 8.5,-37.7"/>
<text text-anchor="start" x="11.5" y="-43.8" font-family="Helvetica,sans-Serif" font-size="11.00" fill="#000000"> &#160;</text>
<polygon fill="#ffffff" stroke="transparent" points="22.5,-37.7 22.5,-56.7 61.5,-56.7 61.5,-37.7 22.5,-37.7"/>
<polygon fill="none" stroke="#000000" points="22.5,-37.7 22.5,-56.7 61.5,-56.7 61.5,-37.7 22.5,-37.7"/>
<text text-anchor="start" x="26.1105" y="-43.8" font-family="Helvetica,sans-Serif" font-size="11.00" fill="#000000">0 rows</text>
<polygon fill="#ffffff" stroke="transparent" points="61.5,-37.7 61.5,-56.7 83.5,-56.7 83.5,-37.7 61.5,-37.7"/>
<polygon fill="none" stroke="#000000" points="61.5,-37.7 61.5,-56.7 83.5,-56.7 83.5,-37.7 61.5,-37.7"/>
<text text-anchor="start" x="64.9053" y="-43.8" font-family="Helvetica,sans-Serif" font-size="11.00" fill="#000000">1 &gt;</text>
</a>
</g>
</g>
<!-- skills&#45;&gt;events -->
<g id="edge3" class="edge">
<title>skills:w&#45;&gt;events:e</title>
<path fill="none" stroke="#000000" d="M119.4203,-86.7C107.5435,-86.7 100.158,-86.7 83.5,-86.7"/>
<polygon fill="#000000" stroke="#000000" points="126,-86.7001 134,-90.3 130,-86.7 134,-86.7 134,-86.7 134,-86.7 130,-86.7 134,-83.1 126,-86.7001 126,-86.7001"/>
<ellipse fill="none" stroke="#000000" cx="122.8" cy="-86.7001" rx="3.2" ry="3.2"/>
</g>
<!-- skill_has_levels -->
<g id="node3" class="node">
<title>skill_has_levels</title>
<g id="a_node3"><a xlink:href="../../tables/skill_has_levels.html" xlink:title="skill_has_levels" target="_top">
<polygon fill="#ffffff" stroke="transparent" points="396.5,-85.2 396.5,-190.2 515.5,-190.2 515.5,-85.2 396.5,-85.2"/>
<polygon fill="#f5f5f5" stroke="transparent" points="397,-166.7 397,-189.7 516,-189.7 516,-166.7 397,-166.7"/>
<polygon fill="none" stroke="#000000" points="397,-166.7 397,-189.7 516,-189.7 516,-166.7 397,-166.7"/>
<text text-anchor="start" x="401.8031" y="-175.8" font-family="Helvetica,sans-Serif" font-weight="bold" font-size="11.00" fill="#000000">skill_has_levels</text>
<text text-anchor="start" x="481.5219" y="-174.8" font-family="Helvetica,sans-Serif" font-size="11.00" fill="#000000">[table]</text>
<polygon fill="none" stroke="#000000" points="397,-144.7 397,-166.7 516,-166.7 516,-144.7 397,-144.7"/>
<image xlink:href="../../images/primaryKeys.png" width="11px" height="12px" preserveAspectRatio="xMinYMin meet" x="402" y="-161.7"/>
<text text-anchor="start" x="421" y="-151.8" font-family="Helvetica,sans-Serif" font-size="11.00" fill="#000000">levels_id</text>
<polygon fill="none" stroke="#000000" points="397,-122.7 397,-144.7 516,-144.7 516,-122.7 397,-122.7"/>
<image xlink:href="../../images/primaryKeys.png" width="11px" height="12px" preserveAspectRatio="xMinYMin meet" x="402" y="-139.7"/>
<text text-anchor="start" x="421" y="-129.8" font-family="Helvetica,sans-Serif" font-size="11.00" fill="#000000">skills_id</text>
<polygon fill="none" stroke="#000000" points="397,-103.7 397,-122.7 516,-122.7 516,-103.7 397,-103.7"/>
<text text-anchor="start" x="400" y="-109.8" font-family="Helvetica,sans-Serif" font-size="11.00" fill="#000000">...</text>
<polygon fill="#ffffff" stroke="transparent" points="397,-84.7 397,-103.7 442,-103.7 442,-84.7 397,-84.7"/>
<polygon fill="none" stroke="#000000" points="397,-84.7 397,-103.7 442,-103.7 442,-84.7 397,-84.7"/>
<text text-anchor="start" x="400" y="-90.8" font-family="Helvetica,sans-Serif" font-size="11.00" fill="#000000">&lt; 2</text>
<polygon fill="#ffffff" stroke="transparent" points="442,-84.7 442,-103.7 492,-103.7 492,-84.7 442,-84.7"/>
<polygon fill="none" stroke="#000000" points="442,-84.7 442,-103.7 492,-103.7 492,-84.7 442,-84.7"/>
<text text-anchor="start" x="456.6105" y="-90.8" font-family="Helvetica,sans-Serif" font-size="11.00" fill="#000000">0 rows</text>
<polygon fill="#ffffff" stroke="transparent" points="492,-84.7 492,-103.7 516,-103.7 516,-84.7 492,-84.7"/>
<polygon fill="none" stroke="#000000" points="492,-84.7 492,-103.7 516,-103.7 516,-84.7 492,-84.7"/>
<text text-anchor="start" x="506.8862" y="-90.8" font-family="Helvetica,sans-Serif" font-size="11.00" fill="#000000"> &#160;</text>
</a>
</g>
</g>
<!-- skill_has_levels&#45;&gt;skills -->
<g id="edge2" class="edge">
<title>skill_has_levels:w&#45;&gt;skills:e</title>
<path fill="none" stroke="#000000" d="M382.975,-137.4523C361.825,-151.015 369.1892,-196.7 336,-196.7"/>
<polygon fill="#000000" stroke="#000000" points="389.2718,-135.7676 397.9304,-137.1777 393.1359,-134.7338 397,-133.7 397,-133.7 397,-133.7 393.1359,-134.7338 396.0696,-130.2223 389.2718,-135.7676 389.2718,-135.7676"/>
<ellipse fill="none" stroke="#000000" cx="386.1805" cy="-136.5947" rx="3.2" ry="3.2"/>
</g>
</g>
</svg>
