<?xml version="1.0" encoding="UTF-8" standalone="no"?>
<!DOCTYPE svg PUBLIC "-//W3C//DTD SVG 1.1//EN"
 "http://www.w3.org/Graphics/SVG/1.1/DTD/svg11.dtd">
<!-- Generated by graphviz version 2.40.1 (20161225.0304)
 -->
<!-- Title: twoDegreesRelationshipsDiagram Pages: 1 -->
<svg width="709pt" height="311pt"
 viewBox="0.00 0.00 709.00 310.70" xmlns="http://www.w3.org/2000/svg" xmlns:xlink="http://www.w3.org/1999/xlink">
<g id="graph0" class="graph" transform="scale(1 1) rotate(0) translate(4 306.7)">
<title>twoDegreesRelationshipsDiagram</title>
<polygon fill="#ffffff" stroke="transparent" points="-4,4 -4,-306.7 705,-306.7 705,4 -4,4"/>
<text text-anchor="middle" x="72.4936" y="-7.3" font-family="Helvetica,sans-Serif" font-size="11.00" fill="#000000">Generated by SchemaSpy</text>
<!-- events -->
<g id="node1" class="node">
<title>events</title>
<g id="a_node1"><a xlink:href="../../tables/events.html" xlink:title="events" target="_top">
<polygon fill="#ffffff" stroke="transparent" points="165,-67.2 165,-128.2 245,-128.2 245,-67.2 165,-67.2"/>
<polygon fill="#f5f5f5" stroke="transparent" points="165,-104.7 165,-127.7 245,-127.7 245,-104.7 165,-104.7"/>
<polygon fill="none" stroke="#000000" points="165,-104.7 165,-127.7 245,-127.7 245,-104.7 165,-104.7"/>
<text text-anchor="start" x="170" y="-113.8" font-family="Helvetica,sans-Serif" font-weight="bold" font-size="11.00" fill="#000000">events</text>
<text text-anchor="start" x="210.0437" y="-112.8" font-family="Helvetica,sans-Serif" font-size="11.00" fill="#000000">[table]</text>
<polygon fill="none" stroke="#000000" points="165,-85.7 165,-104.7 245,-104.7 245,-85.7 165,-85.7"/>
<text text-anchor="start" x="168" y="-91.8" font-family="Helvetica,sans-Serif" font-size="11.00" fill="#000000">...</text>
<polygon fill="#ffffff" stroke="transparent" points="165,-66.7 165,-85.7 186,-85.7 186,-66.7 165,-66.7"/>
<polygon fill="none" stroke="#000000" points="165,-66.7 165,-85.7 186,-85.7 186,-66.7 165,-66.7"/>
<text text-anchor="start" x="167.7027" y="-72.8" font-family="Helvetica,sans-Serif" font-size="11.00" fill="#000000">&lt; 1</text>
<polygon fill="#ffffff" stroke="transparent" points="186,-66.7 186,-85.7 224,-85.7 224,-66.7 186,-66.7"/>
<polygon fill="none" stroke="#000000" points="186,-66.7 186,-85.7 224,-85.7 224,-66.7 186,-66.7"/>
<text text-anchor="start" x="188.8053" y="-72.8" font-family="Helvetica,sans-Serif" font-size="11.00" fill="#000000">0 rows</text>
<polygon fill="#ffffff" stroke="transparent" points="224,-66.7 224,-85.7 245,-85.7 245,-66.7 224,-66.7"/>
<polygon fill="none" stroke="#000000" points="224,-66.7 224,-85.7 245,-85.7 245,-66.7 224,-66.7"/>
<text text-anchor="start" x="226.7027" y="-72.8" font-family="Helvetica,sans-Serif" font-size="11.00" fill="#000000">1 &gt;</text>
</a>
</g>
</g>
<!-- gyms -->
<g id="node2" class="node">
<title>gyms</title>
<g id="a_node2"><a xlink:href="../../tables/gyms.html" xlink:title="gyms" target="_top">
<polygon fill="#ffffff" stroke="transparent" points="8,-162.2 8,-245.2 93,-245.2 93,-162.2 8,-162.2"/>
<polygon fill="#f5f5f5" stroke="transparent" points="8.5,-221.7 8.5,-244.7 93.5,-244.7 93.5,-221.7 8.5,-221.7"/>
<polygon fill="none" stroke="#000000" points="8.5,-221.7 8.5,-244.7 93.5,-244.7 93.5,-221.7 8.5,-221.7"/>
<text text-anchor="start" x="13.5" y="-230.8" font-family="Helvetica,sans-Serif" font-weight="bold" font-size="11.00" fill="#000000">gyms</text>
<text text-anchor="start" x="58.5437" y="-229.8" font-family="Helvetica,sans-Serif" font-size="11.00" fill="#000000">[table]</text>
<polygon fill="none" stroke="#000000" points="8.5,-199.7 8.5,-221.7 93.5,-221.7 93.5,-199.7 8.5,-199.7"/>
<image xlink:href="../../images/primaryKeys.png" width="11px" height="12px" preserveAspectRatio="xMinYMin meet" x="13.5" y="-216.7"/>
<text text-anchor="start" x="28.5" y="-206.8" font-family="Helvetica,sans-Serif" font-size="11.00" fill="#000000">id</text>
<polygon fill="none" stroke="#000000" points="8.5,-180.7 8.5,-199.7 93.5,-199.7 93.5,-180.7 8.5,-180.7"/>
<text text-anchor="start" x="11.5" y="-186.8" font-family="Helvetica,sans-Serif" font-size="11.00" fill="#000000">...</text>
<polygon fill="#ffffff" stroke="transparent" points="8.5,-161.7 8.5,-180.7 27.5,-180.7 27.5,-161.7 8.5,-161.7"/>
<polygon fill="none" stroke="#000000" points="8.5,-161.7 8.5,-180.7 27.5,-180.7 27.5,-161.7 8.5,-161.7"/>
<text text-anchor="start" x="11.5" y="-167.8" font-family="Helvetica,sans-Serif" font-size="11.00" fill="#000000"> &#160;</text>
<polygon fill="#ffffff" stroke="transparent" points="27.5,-161.7 27.5,-180.7 68.5,-180.7 68.5,-161.7 27.5,-161.7"/>
<polygon fill="none" stroke="#000000" points="27.5,-161.7 27.5,-180.7 68.5,-180.7 68.5,-161.7 27.5,-161.7"/>
<text text-anchor="start" x="33.1105" y="-167.8" font-family="Helvetica,sans-Serif" font-size="11.00" fill="#000000">0 rows</text>
<polygon fill="#ffffff" stroke="transparent" points="68.5,-161.7 68.5,-180.7 93.5,-180.7 93.5,-161.7 68.5,-161.7"/>
<polygon fill="none" stroke="#000000" points="68.5,-161.7 68.5,-180.7 93.5,-180.7 93.5,-161.7 68.5,-161.7"/>
<text text-anchor="start" x="74.9053" y="-167.8" font-family="Helvetica,sans-Serif" font-size="11.00" fill="#000000">3 &gt;</text>
</a>
</g>
</g>
<!-- events&#45;&gt;gyms -->
<g id="edge1" class="edge">
<title>events:w&#45;&gt;gyms:e</title>
<path fill="none" stroke="#000000" d="M150.6906,-97.5674C112.7738,-115.4305 148.3847,-210.7 93.5,-210.7"/>
<polygon fill="#000000" stroke="#000000" points="157.1559,-96.2719 165.7074,-98.2298 161.078,-95.4859 165,-94.7 165,-94.7 165,-94.7 161.078,-95.4859 164.2926,-91.1702 157.1559,-96.2719 157.1559,-96.2719"/>
<ellipse fill="none" stroke="#000000" cx="154.0183" cy="-96.9007" rx="3.2" ry="3.2"/>
</g>
<!-- gyms_has_users -->
<g id="node3" class="node">
<title>gyms_has_users</title>
<g id="a_node3"><a xlink:href="../../tables/gyms_has_users.html" xlink:title="gyms_has_users" target="_top">
<polygon fill="#ffffff" stroke="transparent" points="142,-235.2 142,-296.2 268,-296.2 268,-235.2 142,-235.2"/>
<polygon fill="#f5f5f5" stroke="transparent" points="142,-272.7 142,-295.7 268,-295.7 268,-272.7 142,-272.7"/>
<polygon fill="none" stroke="#000000" points="142,-272.7 142,-295.7 268,-295.7 268,-272.7 142,-272.7"/>
<text text-anchor="start" x="146.936" y="-281.8" font-family="Helvetica,sans-Serif" font-weight="bold" font-size="11.00" fill="#000000">gyms_has_users</text>
<text text-anchor="start" x="233.5219" y="-280.8" font-family="Helvetica,sans-Serif" font-size="11.00" fill="#000000">[table]</text>
<polygon fill="none" stroke="#000000" points="142,-253.7 142,-272.7 268,-272.7 268,-253.7 142,-253.7"/>
<text text-anchor="start" x="145" y="-259.8" font-family="Helvetica,sans-Serif" font-size="11.00" fill="#000000">...</text>
<polygon fill="#ffffff" stroke="transparent" points="142,-234.7 142,-253.7 186,-253.7 186,-234.7 142,-234.7"/>
<polygon fill="none" stroke="#000000" points="142,-234.7 142,-253.7 186,-253.7 186,-234.7 142,-234.7"/>
<text text-anchor="start" x="145" y="-240.8" font-family="Helvetica,sans-Serif" font-size="11.00" fill="#000000">&lt; 2</text>
<polygon fill="#ffffff" stroke="transparent" points="186,-234.7 186,-253.7 235,-253.7 235,-234.7 186,-234.7"/>
<polygon fill="none" stroke="#000000" points="186,-234.7 186,-253.7 235,-253.7 235,-234.7 186,-234.7"/>
<text text-anchor="start" x="199.6105" y="-240.8" font-family="Helvetica,sans-Serif" font-size="11.00" fill="#000000">0 rows</text>
<polygon fill="#ffffff" stroke="transparent" points="235,-234.7 235,-253.7 268,-253.7 268,-234.7 235,-234.7"/>
<polygon fill="none" stroke="#000000" points="235,-234.7 235,-253.7 268,-253.7 268,-234.7 235,-234.7"/>
<text text-anchor="start" x="249.4053" y="-240.8" font-family="Helvetica,sans-Serif" font-size="11.00" fill="#000000">2 &gt;</text>
</a>
</g>
</g>
<!-- gyms_has_users&#45;&gt;gyms -->
<g id="edge2" class="edge">
<title>gyms_has_users:w&#45;&gt;gyms:e</title>
<path fill="none" stroke="#000000" d="M128.0921,-257.5239C114.3749,-244.3711 118.9307,-210.7 93.5,-210.7"/>
<polygon fill="#000000" stroke="#000000" points="134.5024,-259.9096 140.7443,-266.0739 138.2512,-261.3048 142,-262.7 142,-262.7 142,-262.7 138.2512,-261.3048 143.2557,-259.3261 134.5024,-259.9096 134.5024,-259.9096"/>
<ellipse fill="none" stroke="#000000" cx="131.5034" cy="-258.7934" rx="3.2" ry="3.2"/>
</g>
<!-- skill_lists -->
<g id="node4" class="node">
<title>skill_lists</title>
<g id="a_node4"><a xlink:href="../../tables/skill_lists.html" xlink:title="skill_lists" target="_top">
<polygon fill="#ffffff" stroke="transparent" points="317,-120.7 317,-298.7 504,-298.7 504,-120.7 317,-120.7"/>
<polygon fill="#f5f5f5" stroke="transparent" points="319.5,-273.7 319.5,-296.7 502.5,-296.7 502.5,-273.7 319.5,-273.7"/>
<polygon fill="none" stroke="#000000" points="319.5,-273.7 319.5,-296.7 502.5,-296.7 502.5,-273.7 319.5,-273.7"/>
<text text-anchor="start" x="324.5" y="-282.8" font-family="Helvetica,sans-Serif" font-weight="bold" font-size="11.00" fill="#000000">skill_lists</text>
<text text-anchor="start" x="467.5437" y="-281.8" font-family="Helvetica,sans-Serif" font-size="11.00" fill="#000000">[table]</text>
<polygon fill="none" stroke="#000000" points="319.5,-251.7 319.5,-273.7 404.5,-273.7 404.5,-251.7 319.5,-251.7"/>
<image xlink:href="../../images/primaryKeys.png" width="11px" height="12px" preserveAspectRatio="xMinYMin meet" x="324.5" y="-268.7"/>
<text text-anchor="start" x="339.5" y="-258.8" font-family="Helvetica,sans-Serif" font-size="11.00" fill="#000000">id</text>
<polygon fill="none" stroke="#000000" points="404.5,-251.7 404.5,-273.7 502.5,-273.7 502.5,-251.7 404.5,-251.7"/>
<text text-anchor="start" x="407.3429" y="-259.4" font-family="Helvetica,sans-Serif" font-size="11.00" fill="#000000">bigint unsigned[20]</text>
<polygon fill="#ffffff" stroke="transparent" points="319.5,-229.7 319.5,-251.7 404.5,-251.7 404.5,-229.7 319.5,-229.7"/>
<polygon fill="none" stroke="#000000" points="319.5,-229.7 319.5,-251.7 404.5,-251.7 404.5,-229.7 319.5,-229.7"/>
<image xlink:href="../../images/foreignKeys.png" width="11px" height="12px" preserveAspectRatio="xMinYMin meet" x="324.5" y="-246.7"/>
<text text-anchor="start" x="339.5" y="-236.8" font-family="Helvetica,sans-Serif" font-size="11.00" fill="#000000">gym_id</text>
<polygon fill="none" stroke="#000000" points="404.5,-229.7 404.5,-251.7 502.5,-251.7 502.5,-229.7 404.5,-229.7"/>
<text text-anchor="start" x="407.5" y="-237.4" font-family="Helvetica,sans-Serif" font-size="11.00" fill="#000000">bigint[19]</text>
<polygon fill="none" stroke="#000000" points="319.5,-207.7 319.5,-229.7 404.5,-229.7 404.5,-207.7 319.5,-207.7"/>
<text text-anchor="start" x="339.5" y="-214.8" font-family="Helvetica,sans-Serif" font-size="11.00" fill="#000000">name</text>
<polygon fill="none" stroke="#000000" points="404.5,-207.7 404.5,-229.7 502.5,-229.7 502.5,-207.7 404.5,-207.7"/>
<text text-anchor="start" x="407.5" y="-215.4" font-family="Helvetica,sans-Serif" font-size="11.00" fill="#000000">varchar[45]</text>
<polygon fill="none" stroke="#000000" points="319.5,-185.7 319.5,-207.7 404.5,-207.7 404.5,-185.7 319.5,-185.7"/>
<text text-anchor="start" x="339.5" y="-192.8" font-family="Helvetica,sans-Serif" font-size="11.00" fill="#000000">created_at</text>
<polygon fill="none" stroke="#000000" points="404.5,-185.7 404.5,-207.7 502.5,-207.7 502.5,-185.7 404.5,-185.7"/>
<text text-anchor="start" x="407.5" y="-193.4" font-family="Helvetica,sans-Serif" font-size="11.00" fill="#000000">timestamp[19]</text>
<polygon fill="none" stroke="#000000" points="319.5,-163.7 319.5,-185.7 404.5,-185.7 404.5,-163.7 319.5,-163.7"/>
<text text-anchor="start" x="339.5" y="-170.8" font-family="Helvetica,sans-Serif" font-size="11.00" fill="#000000">updated_at</text>
<polygon fill="none" stroke="#000000" points="404.5,-163.7 404.5,-185.7 502.5,-185.7 502.5,-163.7 404.5,-163.7"/>
<text text-anchor="start" x="407.5" y="-171.4" font-family="Helvetica,sans-Serif" font-size="11.00" fill="#000000">timestamp[19]</text>
<polygon fill="none" stroke="#000000" points="319.5,-141.7 319.5,-163.7 404.5,-163.7 404.5,-141.7 319.5,-141.7"/>
<text text-anchor="start" x="339.5" y="-148.8" font-family="Helvetica,sans-Serif" font-size="11.00" fill="#000000">deleted_at</text>
<polygon fill="none" stroke="#000000" points="404.5,-141.7 404.5,-163.7 502.5,-163.7 502.5,-141.7 404.5,-141.7"/>
<text text-anchor="start" x="407.5" y="-149.4" font-family="Helvetica,sans-Serif" font-size="11.00" fill="#000000">timestamp[19]</text>
<polygon fill="#ffffff" stroke="transparent" points="319.5,-122.7 319.5,-141.7 353.5,-141.7 353.5,-122.7 319.5,-122.7"/>
<polygon fill="none" stroke="#000000" points="319.5,-122.7 319.5,-141.7 353.5,-141.7 353.5,-122.7 319.5,-122.7"/>
<text text-anchor="start" x="322.5" y="-128.8" font-family="Helvetica,sans-Serif" font-size="11.00" fill="#000000">&lt; 1</text>
<polygon fill="#ffffff" stroke="transparent" points="353.5,-122.7 353.5,-141.7 404.5,-141.7 404.5,-122.7 353.5,-122.7"/>
<polygon fill="none" stroke="#000000" points="353.5,-122.7 353.5,-141.7 404.5,-141.7 404.5,-122.7 353.5,-122.7"/>
<text text-anchor="start" x="369.1105" y="-128.8" font-family="Helvetica,sans-Serif" font-size="11.00" fill="#000000">0 rows</text>
<polygon fill="#ffffff" stroke="transparent" points="404.5,-122.7 404.5,-141.7 502.5,-141.7 502.5,-122.7 404.5,-122.7"/>
<polygon fill="none" stroke="#000000" points="404.5,-122.7 404.5,-141.7 502.5,-141.7 502.5,-122.7 404.5,-122.7"/>
<text text-anchor="start" x="483.9053" y="-128.8" font-family="Helvetica,sans-Serif" font-size="11.00" fill="#000000">1 &gt;</text>
<polygon fill="none" stroke="#000000" stroke-width="2" points="318,-121.7 318,-297.7 503,-297.7 503,-121.7 318,-121.7"/>
</a>
</g>
</g>
<!-- skill_lists&#45;&gt;gyms -->
<g id="edge3" class="edge">
<title>skill_lists:w&#45;&gt;gyms:e</title>
<path fill="none" stroke="#000000" d="M305.2552,-238.2436C295.8472,-234.5892 290.3094,-227.8175 276,-224.7 196.515,-207.3833 174.8494,-210.7 93.5,-210.7"/>
<polygon fill="#000000" stroke="#000000" points="311.6164,-239.3405 318.8882,-244.2476 315.5582,-240.0202 319.5,-240.7 319.5,-240.7 319.5,-240.7 315.5582,-240.0202 320.1118,-237.1524 311.6164,-239.3405 311.6164,-239.3405"/>
<ellipse fill="none" stroke="#000000" cx="308.4629" cy="-238.7967" rx="3.2" ry="3.2"/>
</g>
<!-- skill_lists_has_skills -->
<g id="node5" class="node">
<title>skill_lists_has_skills</title>
<g id="a_node5"><a xlink:href="../../tables/skill_lists_has_skills.html" xlink:title="skill_lists_has_skills" target="_top">
<polygon fill="#ffffff" stroke="transparent" points="553,-104.2 553,-209.2 693,-209.2 693,-104.2 553,-104.2"/>
<polygon fill="#f5f5f5" stroke="transparent" points="553,-185.7 553,-208.7 693,-208.7 693,-185.7 553,-185.7"/>
<polygon fill="none" stroke="#000000" points="553,-185.7 553,-208.7 693,-208.7 693,-185.7 553,-185.7"/>
<text text-anchor="start" x="557.9207" y="-194.8" font-family="Helvetica,sans-Serif" font-weight="bold" font-size="11.00" fill="#000000">skill_lists_has_skills</text>
<text text-anchor="start" x="658.5219" y="-193.8" font-family="Helvetica,sans-Serif" font-size="11.00" fill="#000000">[table]</text>
<polygon fill="none" stroke="#000000" points="553,-163.7 553,-185.7 693,-185.7 693,-163.7 553,-163.7"/>
<image xlink:href="../../images/primaryKeys.png" width="11px" height="12px" preserveAspectRatio="xMinYMin meet" x="558" y="-180.7"/>
<text text-anchor="start" x="574" y="-170.8" font-family="Helvetica,sans-Serif" font-size="11.00" fill="#000000">skill_list_id</text>
<polygon fill="none" stroke="#000000" points="553,-141.7 553,-163.7 693,-163.7 693,-141.7 553,-141.7"/>
<image xlink:href="../../images/primaryKeys.png" width="11px" height="12px" preserveAspectRatio="xMinYMin meet" x="558" y="-158.7"/>
<text text-anchor="start" x="574" y="-148.8" font-family="Helvetica,sans-Serif" font-size="11.00" fill="#000000">skill_id</text>
<polygon fill="none" stroke="#000000" points="553,-122.7 553,-141.7 693,-141.7 693,-122.7 553,-122.7"/>
<text text-anchor="start" x="556" y="-128.8" font-family="Helvetica,sans-Serif" font-size="11.00" fill="#000000">...</text>
<polygon fill="#ffffff" stroke="transparent" points="553,-103.7 553,-122.7 608,-122.7 608,-103.7 553,-103.7"/>
<polygon fill="none" stroke="#000000" points="553,-103.7 553,-122.7 608,-122.7 608,-103.7 553,-103.7"/>
<text text-anchor="start" x="556" y="-109.8" font-family="Helvetica,sans-Serif" font-size="11.00" fill="#000000">&lt; 2</text>
<polygon fill="#ffffff" stroke="transparent" points="608,-103.7 608,-122.7 663,-122.7 663,-103.7 608,-103.7"/>
<polygon fill="none" stroke="#000000" points="608,-103.7 608,-122.7 663,-122.7 663,-103.7 608,-103.7"/>
<text text-anchor="start" x="627.6105" y="-109.8" font-family="Helvetica,sans-Serif" font-size="11.00" fill="#000000">0 rows</text>
<polygon fill="#ffffff" stroke="transparent" points="663,-103.7 663,-122.7 693,-122.7 693,-103.7 663,-103.7"/>
<polygon fill="none" stroke="#000000" points="663,-103.7 663,-122.7 693,-122.7 693,-103.7 663,-103.7"/>
<text text-anchor="start" x="683.8862" y="-109.8" font-family="Helvetica,sans-Serif" font-size="11.00" fill="#000000"> &#160;</text>
</a>
</g>
</g>
<!-- skill_lists_has_skills&#45;&gt;skill_lists -->
<g id="edge5" class="edge">
<title>skill_lists_has_skills:w&#45;&gt;skill_lists:e</title>
<path fill="none" stroke="#000000" d="M539.1222,-178.9444C516.9529,-196.5228 541.6046,-262.7 502.5,-262.7"/>
<polygon fill="#000000" stroke="#000000" points="545.3498,-177.0398 554.0529,-178.1426 549.1749,-175.8699 553,-174.7 553,-174.7 553,-174.7 549.1749,-175.8699 551.9471,-171.2574 545.3498,-177.0398 545.3498,-177.0398"/>
<ellipse fill="none" stroke="#000000" cx="542.2897" cy="-177.9757" rx="3.2" ry="3.2"/>
</g>
<!-- skills -->
<g id="node6" class="node">
<title>skills</title>
<g id="a_node6"><a xlink:href="../../tables/skills.html" xlink:title="skills" target="_top">
<polygon fill="#ffffff" stroke="transparent" points="370.5,-38.2 370.5,-99.2 450.5,-99.2 450.5,-38.2 370.5,-38.2"/>
<polygon fill="#f5f5f5" stroke="transparent" points="370.5,-75.7 370.5,-98.7 450.5,-98.7 450.5,-75.7 370.5,-75.7"/>
<polygon fill="none" stroke="#000000" points="370.5,-75.7 370.5,-98.7 450.5,-98.7 450.5,-75.7 370.5,-75.7"/>
<text text-anchor="start" x="375.5" y="-84.8" font-family="Helvetica,sans-Serif" font-weight="bold" font-size="11.00" fill="#000000">skills</text>
<text text-anchor="start" x="415.5437" y="-83.8" font-family="Helvetica,sans-Serif" font-size="11.00" fill="#000000">[table]</text>
<polygon fill="none" stroke="#000000" points="370.5,-56.7 370.5,-75.7 450.5,-75.7 450.5,-56.7 370.5,-56.7"/>
<text text-anchor="start" x="373.5" y="-62.8" font-family="Helvetica,sans-Serif" font-size="11.00" fill="#000000">...</text>
<polygon fill="#ffffff" stroke="transparent" points="370.5,-37.7 370.5,-56.7 391.5,-56.7 391.5,-37.7 370.5,-37.7"/>
<polygon fill="none" stroke="#000000" points="370.5,-37.7 370.5,-56.7 391.5,-56.7 391.5,-37.7 370.5,-37.7"/>
<text text-anchor="start" x="373.2027" y="-43.8" font-family="Helvetica,sans-Serif" font-size="11.00" fill="#000000">&lt; 3</text>
<polygon fill="#ffffff" stroke="transparent" points="391.5,-37.7 391.5,-56.7 429.5,-56.7 429.5,-37.7 391.5,-37.7"/>
<polygon fill="none" stroke="#000000" points="391.5,-37.7 391.5,-56.7 429.5,-56.7 429.5,-37.7 391.5,-37.7"/>
<text text-anchor="start" x="394.3053" y="-43.8" font-family="Helvetica,sans-Serif" font-size="11.00" fill="#000000">0 rows</text>
<polygon fill="#ffffff" stroke="transparent" points="429.5,-37.7 429.5,-56.7 450.5,-56.7 450.5,-37.7 429.5,-37.7"/>
<polygon fill="none" stroke="#000000" points="429.5,-37.7 429.5,-56.7 450.5,-56.7 450.5,-37.7 429.5,-37.7"/>
<text text-anchor="start" x="432.2027" y="-43.8" font-family="Helvetica,sans-Serif" font-size="11.00" fill="#000000">2 &gt;</text>
</a>
</g>
</g>
<!-- skill_lists_has_skills&#45;&gt;skills -->
<g id="edge4" class="edge">
<title>skill_lists_has_skills:w&#45;&gt;skills:e</title>
<path fill="none" stroke="#000000" d="M539.0336,-149.0169C527.814,-141.4545 527.0866,-123.7877 512,-110.7 486.4161,-88.5059 484.369,-65.7 450.5,-65.7"/>
<polygon fill="#000000" stroke="#000000" points="545.2645,-150.66 552.082,-156.181 549.1322,-151.68 553,-152.7 553,-152.7 553,-152.7 549.1322,-151.68 553.918,-149.219 545.2645,-150.66 545.2645,-150.66"/>
<ellipse fill="none" stroke="#000000" cx="542.1702" cy="-149.844" rx="3.2" ry="3.2"/>
</g>
<!-- skills&#45;&gt;events -->
<g id="edge6" class="edge">
<title>skills:w&#45;&gt;events:e</title>
<path fill="none" stroke="#000000" d="M355.832,-66.3883C310.8423,-70.7798 296.9924,-94.7 245,-94.7"/>
<polygon fill="#000000" stroke="#000000" points="362.5088,-66.075 370.6688,-69.296 366.5044,-65.8875 370.5,-65.7 370.5,-65.7 370.5,-65.7 366.5044,-65.8875 370.3312,-62.104 362.5088,-66.075 362.5088,-66.075"/>
<ellipse fill="none" stroke="#000000" cx="359.3123" cy="-66.225" rx="3.2" ry="3.2"/>
</g>
</g>
</svg>
