<?xml version="1.0" encoding="UTF-8" standalone="no"?>
<!DOCTYPE svg PUBLIC "-//W3C//DTD SVG 1.1//EN"
 "http://www.w3.org/Graphics/SVG/1.1/DTD/svg11.dtd">
<!-- Generated by graphviz version 2.40.1 (20161225.0304)
 -->
<!-- Title: twoDegreesRelationshipsDiagram Pages: 1 -->
<svg width="868pt" height="489pt"
 viewBox="0.00 0.00 868.00 489.21" xmlns="http://www.w3.org/2000/svg" xmlns:xlink="http://www.w3.org/1999/xlink">
<g id="graph0" class="graph" transform="scale(1 1) rotate(0) translate(4 485.2138)">
<title>twoDegreesRelationshipsDiagram</title>
<polygon fill="#ffffff" stroke="transparent" points="-4,4 -4,-485.2138 864,-485.2138 864,4 -4,4"/>
<text text-anchor="middle" x="72.4936" y="-7.3" font-family="Helvetica,sans-Serif" font-size="11.00" fill="#000000">Generated by SchemaSpy</text>
<!-- challenges -->
<g id="node1" class="node">
<title>challenges</title>
<g id="a_node1"><a xlink:href="../../tables/challenges.html" xlink:title="challenges" target="_top">
<polygon fill="#ffffff" stroke="transparent" points="542.5,-387.2 542.5,-448.2 637.5,-448.2 637.5,-387.2 542.5,-387.2"/>
<polygon fill="#f5f5f5" stroke="transparent" points="543,-424.7 543,-447.7 638,-447.7 638,-424.7 543,-424.7"/>
<polygon fill="none" stroke="#000000" points="543,-424.7 543,-447.7 638,-447.7 638,-424.7 543,-424.7"/>
<text text-anchor="start" x="547.7144" y="-433.8" font-family="Helvetica,sans-Serif" font-weight="bold" font-size="11.00" fill="#000000">challenges</text>
<text text-anchor="start" x="603.5219" y="-432.8" font-family="Helvetica,sans-Serif" font-size="11.00" fill="#000000">[table]</text>
<polygon fill="none" stroke="#000000" points="543,-405.7 543,-424.7 638,-424.7 638,-405.7 543,-405.7"/>
<text text-anchor="start" x="546" y="-411.8" font-family="Helvetica,sans-Serif" font-size="11.00" fill="#000000">...</text>
<polygon fill="#ffffff" stroke="transparent" points="543,-386.7 543,-405.7 571,-405.7 571,-386.7 543,-386.7"/>
<polygon fill="none" stroke="#000000" points="543,-386.7 543,-405.7 571,-405.7 571,-386.7 543,-386.7"/>
<text text-anchor="start" x="546" y="-392.8" font-family="Helvetica,sans-Serif" font-size="11.00" fill="#000000">&lt; 2</text>
<polygon fill="#ffffff" stroke="transparent" points="571,-386.7 571,-405.7 613,-405.7 613,-386.7 571,-386.7"/>
<polygon fill="none" stroke="#000000" points="571,-386.7 571,-405.7 613,-405.7 613,-386.7 571,-386.7"/>
<text text-anchor="start" x="577.6105" y="-392.8" font-family="Helvetica,sans-Serif" font-size="11.00" fill="#000000">0 rows</text>
<polygon fill="#ffffff" stroke="transparent" points="613,-386.7 613,-405.7 638,-405.7 638,-386.7 613,-386.7"/>
<polygon fill="none" stroke="#000000" points="613,-386.7 613,-405.7 638,-405.7 638,-386.7 613,-386.7"/>
<text text-anchor="start" x="619.4053" y="-392.8" font-family="Helvetica,sans-Serif" font-size="11.00" fill="#000000">2 &gt;</text>
</a>
</g>
</g>
<!-- classes -->
<g id="node2" class="node">
<title>classes</title>
<g id="a_node2"><a xlink:href="../../tables/classes.html" xlink:title="classes" target="_top">
<polygon fill="#ffffff" stroke="transparent" points="378,-285.2 378,-390.2 463,-390.2 463,-285.2 378,-285.2"/>
<polygon fill="#f5f5f5" stroke="transparent" points="378.5,-366.7 378.5,-389.7 463.5,-389.7 463.5,-366.7 378.5,-366.7"/>
<polygon fill="none" stroke="#000000" points="378.5,-366.7 378.5,-389.7 463.5,-389.7 463.5,-366.7 378.5,-366.7"/>
<text text-anchor="start" x="383.5" y="-375.8" font-family="Helvetica,sans-Serif" font-weight="bold" font-size="11.00" fill="#000000">classes</text>
<text text-anchor="start" x="428.5437" y="-374.8" font-family="Helvetica,sans-Serif" font-size="11.00" fill="#000000">[table]</text>
<polygon fill="none" stroke="#000000" points="378.5,-344.7 378.5,-366.7 463.5,-366.7 463.5,-344.7 378.5,-344.7"/>
<image xlink:href="../../images/primaryKeys.png" width="11px" height="12px" preserveAspectRatio="xMinYMin meet" x="383.5" y="-361.7"/>
<text text-anchor="start" x="398.5" y="-351.8" font-family="Helvetica,sans-Serif" font-size="11.00" fill="#000000">id</text>
<polygon fill="#ffffff" stroke="transparent" points="378.5,-322.7 378.5,-344.7 463.5,-344.7 463.5,-322.7 378.5,-322.7"/>
<polygon fill="none" stroke="#000000" points="378.5,-322.7 378.5,-344.7 463.5,-344.7 463.5,-322.7 378.5,-322.7"/>
<image xlink:href="../../images/foreignKeys.png" width="11px" height="12px" preserveAspectRatio="xMinYMin meet" x="383.5" y="-339.7"/>
<text text-anchor="start" x="398.5" y="-329.8" font-family="Helvetica,sans-Serif" font-size="11.00" fill="#000000">skill_list_id</text>
<polygon fill="none" stroke="#000000" points="378.5,-303.7 378.5,-322.7 463.5,-322.7 463.5,-303.7 378.5,-303.7"/>
<text text-anchor="start" x="381.5" y="-309.8" font-family="Helvetica,sans-Serif" font-size="11.00" fill="#000000">...</text>
<polygon fill="#ffffff" stroke="transparent" points="378.5,-284.7 378.5,-303.7 401.5,-303.7 401.5,-284.7 378.5,-284.7"/>
<polygon fill="none" stroke="#000000" points="378.5,-284.7 378.5,-303.7 401.5,-303.7 401.5,-284.7 378.5,-284.7"/>
<text text-anchor="start" x="381.5" y="-290.8" font-family="Helvetica,sans-Serif" font-size="11.00" fill="#000000">&lt; 1</text>
<polygon fill="#ffffff" stroke="transparent" points="401.5,-284.7 401.5,-303.7 440.5,-303.7 440.5,-284.7 401.5,-284.7"/>
<polygon fill="none" stroke="#000000" points="401.5,-284.7 401.5,-303.7 440.5,-303.7 440.5,-284.7 401.5,-284.7"/>
<text text-anchor="start" x="405.1105" y="-290.8" font-family="Helvetica,sans-Serif" font-size="11.00" fill="#000000">0 rows</text>
<polygon fill="#ffffff" stroke="transparent" points="440.5,-284.7 440.5,-303.7 463.5,-303.7 463.5,-284.7 440.5,-284.7"/>
<polygon fill="none" stroke="#000000" points="440.5,-284.7 440.5,-303.7 463.5,-303.7 463.5,-284.7 440.5,-284.7"/>
<text text-anchor="start" x="444.9053" y="-290.8" font-family="Helvetica,sans-Serif" font-size="11.00" fill="#000000">4 &gt;</text>
</a>
</g>
</g>
<!-- challenges&#45;&gt;classes -->
<g id="edge1" class="edge">
<title>challenges:w&#45;&gt;classes:e</title>
<path fill="none" stroke="#000000" d="M528.7557,-412.1648C500.3044,-400.8719 502.0005,-355.7 463.5,-355.7"/>
<polygon fill="#000000" stroke="#000000" points="535.1238,-413.2982 542.3692,-418.2443 539.0619,-413.9991 543,-414.7 543,-414.7 543,-414.7 539.0619,-413.9991 543.6308,-411.1557 535.1238,-413.2982 535.1238,-413.2982"/>
<ellipse fill="none" stroke="#000000" cx="531.9733" cy="-412.7374" rx="3.2" ry="3.2"/>
</g>
<!-- gyms -->
<g id="node3" class="node">
<title>gyms</title>
<g id="a_node3"><a xlink:href="../../tables/gyms.html" xlink:title="gyms" target="_top">
<polygon fill="#ffffff" stroke="transparent" points="8,-186.2 8,-269.2 93,-269.2 93,-186.2 8,-186.2"/>
<polygon fill="#f5f5f5" stroke="transparent" points="8.5,-245.7 8.5,-268.7 93.5,-268.7 93.5,-245.7 8.5,-245.7"/>
<polygon fill="none" stroke="#000000" points="8.5,-245.7 8.5,-268.7 93.5,-268.7 93.5,-245.7 8.5,-245.7"/>
<text text-anchor="start" x="13.5" y="-254.8" font-family="Helvetica,sans-Serif" font-weight="bold" font-size="11.00" fill="#000000">gyms</text>
<text text-anchor="start" x="58.5437" y="-253.8" font-family="Helvetica,sans-Serif" font-size="11.00" fill="#000000">[table]</text>
<polygon fill="none" stroke="#000000" points="8.5,-223.7 8.5,-245.7 93.5,-245.7 93.5,-223.7 8.5,-223.7"/>
<image xlink:href="../../images/primaryKeys.png" width="11px" height="12px" preserveAspectRatio="xMinYMin meet" x="13.5" y="-240.7"/>
<text text-anchor="start" x="28.5" y="-230.8" font-family="Helvetica,sans-Serif" font-size="11.00" fill="#000000">id</text>
<polygon fill="none" stroke="#000000" points="8.5,-204.7 8.5,-223.7 93.5,-223.7 93.5,-204.7 8.5,-204.7"/>
<text text-anchor="start" x="11.5" y="-210.8" font-family="Helvetica,sans-Serif" font-size="11.00" fill="#000000">...</text>
<polygon fill="#ffffff" stroke="transparent" points="8.5,-185.7 8.5,-204.7 27.5,-204.7 27.5,-185.7 8.5,-185.7"/>
<polygon fill="none" stroke="#000000" points="8.5,-185.7 8.5,-204.7 27.5,-204.7 27.5,-185.7 8.5,-185.7"/>
<text text-anchor="start" x="11.5" y="-191.8" font-family="Helvetica,sans-Serif" font-size="11.00" fill="#000000"> &#160;</text>
<polygon fill="#ffffff" stroke="transparent" points="27.5,-185.7 27.5,-204.7 68.5,-204.7 68.5,-185.7 27.5,-185.7"/>
<polygon fill="none" stroke="#000000" points="27.5,-185.7 27.5,-204.7 68.5,-204.7 68.5,-185.7 27.5,-185.7"/>
<text text-anchor="start" x="33.1105" y="-191.8" font-family="Helvetica,sans-Serif" font-size="11.00" fill="#000000">0 rows</text>
<polygon fill="#ffffff" stroke="transparent" points="68.5,-185.7 68.5,-204.7 93.5,-204.7 93.5,-185.7 68.5,-185.7"/>
<polygon fill="none" stroke="#000000" points="68.5,-185.7 68.5,-204.7 93.5,-204.7 93.5,-185.7 68.5,-185.7"/>
<text text-anchor="start" x="74.9053" y="-191.8" font-family="Helvetica,sans-Serif" font-size="11.00" fill="#000000">4 &gt;</text>
</a>
</g>
</g>
<!-- challenges&#45;&gt;gyms -->
<g id="edge2" class="edge">
<title>challenges:w&#45;&gt;gyms:e</title>
<path fill="none" stroke="#000000" d="M528.5342,-414.8924C356.24,-419.4697 270.9241,-503.1801 134,-390.7 78.6496,-345.2309 165.1318,-234.7 93.5,-234.7"/>
<polygon fill="#000000" stroke="#000000" points="535.0007,-414.8064 543.0479,-418.2997 539.0004,-414.7532 543,-414.7 543,-414.7 543,-414.7 539.0004,-414.7532 542.9521,-411.1003 535.0007,-414.8064 535.0007,-414.8064"/>
<ellipse fill="none" stroke="#000000" cx="531.801" cy="-414.849" rx="3.2" ry="3.2"/>
</g>
<!-- skill_lists -->
<g id="node4" class="node">
<title>skill_lists</title>
<g id="a_node4"><a xlink:href="../../tables/skill_lists.html" xlink:title="skill_lists" target="_top">
<polygon fill="#ffffff" stroke="transparent" points="142,-202.7 142,-380.7 329,-380.7 329,-202.7 142,-202.7"/>
<polygon fill="#f5f5f5" stroke="transparent" points="144.5,-355.7 144.5,-378.7 327.5,-378.7 327.5,-355.7 144.5,-355.7"/>
<polygon fill="none" stroke="#000000" points="144.5,-355.7 144.5,-378.7 327.5,-378.7 327.5,-355.7 144.5,-355.7"/>
<text text-anchor="start" x="149.5" y="-364.8" font-family="Helvetica,sans-Serif" font-weight="bold" font-size="11.00" fill="#000000">skill_lists</text>
<text text-anchor="start" x="292.5437" y="-363.8" font-family="Helvetica,sans-Serif" font-size="11.00" fill="#000000">[table]</text>
<polygon fill="none" stroke="#000000" points="144.5,-333.7 144.5,-355.7 229.5,-355.7 229.5,-333.7 144.5,-333.7"/>
<image xlink:href="../../images/primaryKeys.png" width="11px" height="12px" preserveAspectRatio="xMinYMin meet" x="149.5" y="-350.7"/>
<text text-anchor="start" x="164.5" y="-340.8" font-family="Helvetica,sans-Serif" font-size="11.00" fill="#000000">id</text>
<polygon fill="none" stroke="#000000" points="229.5,-333.7 229.5,-355.7 327.5,-355.7 327.5,-333.7 229.5,-333.7"/>
<text text-anchor="start" x="232.3429" y="-341.4" font-family="Helvetica,sans-Serif" font-size="11.00" fill="#000000">bigint unsigned[20]</text>
<polygon fill="#ffffff" stroke="transparent" points="144.5,-311.7 144.5,-333.7 229.5,-333.7 229.5,-311.7 144.5,-311.7"/>
<polygon fill="none" stroke="#000000" points="144.5,-311.7 144.5,-333.7 229.5,-333.7 229.5,-311.7 144.5,-311.7"/>
<image xlink:href="../../images/foreignKeys.png" width="11px" height="12px" preserveAspectRatio="xMinYMin meet" x="149.5" y="-328.7"/>
<text text-anchor="start" x="164.5" y="-318.8" font-family="Helvetica,sans-Serif" font-size="11.00" fill="#000000">gym_id</text>
<polygon fill="none" stroke="#000000" points="229.5,-311.7 229.5,-333.7 327.5,-333.7 327.5,-311.7 229.5,-311.7"/>
<text text-anchor="start" x="232.5" y="-319.4" font-family="Helvetica,sans-Serif" font-size="11.00" fill="#000000">bigint[19]</text>
<polygon fill="none" stroke="#000000" points="144.5,-289.7 144.5,-311.7 229.5,-311.7 229.5,-289.7 144.5,-289.7"/>
<text text-anchor="start" x="164.5" y="-296.8" font-family="Helvetica,sans-Serif" font-size="11.00" fill="#000000">name</text>
<polygon fill="none" stroke="#000000" points="229.5,-289.7 229.5,-311.7 327.5,-311.7 327.5,-289.7 229.5,-289.7"/>
<text text-anchor="start" x="232.5" y="-297.4" font-family="Helvetica,sans-Serif" font-size="11.00" fill="#000000">varchar[45]</text>
<polygon fill="none" stroke="#000000" points="144.5,-267.7 144.5,-289.7 229.5,-289.7 229.5,-267.7 144.5,-267.7"/>
<text text-anchor="start" x="164.5" y="-274.8" font-family="Helvetica,sans-Serif" font-size="11.00" fill="#000000">created_at</text>
<polygon fill="none" stroke="#000000" points="229.5,-267.7 229.5,-289.7 327.5,-289.7 327.5,-267.7 229.5,-267.7"/>
<text text-anchor="start" x="232.5" y="-275.4" font-family="Helvetica,sans-Serif" font-size="11.00" fill="#000000">timestamp[19]</text>
<polygon fill="none" stroke="#000000" points="144.5,-245.7 144.5,-267.7 229.5,-267.7 229.5,-245.7 144.5,-245.7"/>
<text text-anchor="start" x="164.5" y="-252.8" font-family="Helvetica,sans-Serif" font-size="11.00" fill="#000000">updated_at</text>
<polygon fill="none" stroke="#000000" points="229.5,-245.7 229.5,-267.7 327.5,-267.7 327.5,-245.7 229.5,-245.7"/>
<text text-anchor="start" x="232.5" y="-253.4" font-family="Helvetica,sans-Serif" font-size="11.00" fill="#000000">timestamp[19]</text>
<polygon fill="none" stroke="#000000" points="144.5,-223.7 144.5,-245.7 229.5,-245.7 229.5,-223.7 144.5,-223.7"/>
<text text-anchor="start" x="164.5" y="-230.8" font-family="Helvetica,sans-Serif" font-size="11.00" fill="#000000">deleted_at</text>
<polygon fill="none" stroke="#000000" points="229.5,-223.7 229.5,-245.7 327.5,-245.7 327.5,-223.7 229.5,-223.7"/>
<text text-anchor="start" x="232.5" y="-231.4" font-family="Helvetica,sans-Serif" font-size="11.00" fill="#000000">timestamp[19]</text>
<polygon fill="#ffffff" stroke="transparent" points="144.5,-204.7 144.5,-223.7 178.5,-223.7 178.5,-204.7 144.5,-204.7"/>
<polygon fill="none" stroke="#000000" points="144.5,-204.7 144.5,-223.7 178.5,-223.7 178.5,-204.7 144.5,-204.7"/>
<text text-anchor="start" x="147.5" y="-210.8" font-family="Helvetica,sans-Serif" font-size="11.00" fill="#000000">&lt; 1</text>
<polygon fill="#ffffff" stroke="transparent" points="178.5,-204.7 178.5,-223.7 229.5,-223.7 229.5,-204.7 178.5,-204.7"/>
<polygon fill="none" stroke="#000000" points="178.5,-204.7 178.5,-223.7 229.5,-223.7 229.5,-204.7 178.5,-204.7"/>
<text text-anchor="start" x="194.1105" y="-210.8" font-family="Helvetica,sans-Serif" font-size="11.00" fill="#000000">0 rows</text>
<polygon fill="#ffffff" stroke="transparent" points="229.5,-204.7 229.5,-223.7 327.5,-223.7 327.5,-204.7 229.5,-204.7"/>
<polygon fill="none" stroke="#000000" points="229.5,-204.7 229.5,-223.7 327.5,-223.7 327.5,-204.7 229.5,-204.7"/>
<text text-anchor="start" x="308.9053" y="-210.8" font-family="Helvetica,sans-Serif" font-size="11.00" fill="#000000">2 &gt;</text>
<polygon fill="none" stroke="#000000" stroke-width="2" points="143,-203.7 143,-379.7 328,-379.7 328,-203.7 143,-203.7"/>
</a>
</g>
</g>
<!-- classes&#45;&gt;skill_lists -->
<g id="edge3" class="edge">
<title>classes:w&#45;&gt;skill_lists:e</title>
<path fill="none" stroke="#000000" d="M364.0097,-335.4188C351.8398,-338.5125 344.8909,-344.7 327.5,-344.7"/>
<polygon fill="#000000" stroke="#000000" points="370.5557,-334.6424 378.9241,-337.2749 374.5278,-334.1712 378.5,-333.7 378.5,-333.7 378.5,-333.7 374.5278,-334.1712 378.0759,-330.1251 370.5557,-334.6424 370.5557,-334.6424"/>
<ellipse fill="none" stroke="#000000" cx="367.378" cy="-335.0193" rx="3.2" ry="3.2"/>
</g>
<!-- skill_lists&#45;&gt;gyms -->
<g id="edge11" class="edge">
<title>skill_lists:w&#45;&gt;gyms:e</title>
<path fill="none" stroke="#000000" d="M130.5699,-318.4556C108.2709,-300.8772 132.7009,-234.7 93.5,-234.7"/>
<polygon fill="#000000" stroke="#000000" points="136.8473,-320.3682 143.4507,-326.1437 140.6737,-321.5341 144.5,-322.7 144.5,-322.7 144.5,-322.7 140.6737,-321.5341 145.5493,-319.2563 136.8473,-320.3682 136.8473,-320.3682"/>
<ellipse fill="none" stroke="#000000" cx="133.7863" cy="-319.4355" rx="3.2" ry="3.2"/>
</g>
<!-- daily_challenges -->
<g id="node5" class="node">
<title>daily_challenges</title>
<g id="a_node5"><a xlink:href="../../tables/daily_challenges.html" xlink:title="daily_challenges" target="_top">
<polygon fill="#ffffff" stroke="transparent" points="722.5,-308.2 722.5,-369.2 846.5,-369.2 846.5,-308.2 722.5,-308.2"/>
<polygon fill="#f5f5f5" stroke="transparent" points="722.5,-345.7 722.5,-368.7 846.5,-368.7 846.5,-345.7 722.5,-345.7"/>
<polygon fill="none" stroke="#000000" points="722.5,-345.7 722.5,-368.7 846.5,-368.7 846.5,-345.7 722.5,-345.7"/>
<text text-anchor="start" x="727.3512" y="-354.8" font-family="Helvetica,sans-Serif" font-weight="bold" font-size="11.00" fill="#000000">daily_challenges</text>
<text text-anchor="start" x="812.0219" y="-353.8" font-family="Helvetica,sans-Serif" font-size="11.00" fill="#000000">[table]</text>
<polygon fill="none" stroke="#000000" points="722.5,-326.7 722.5,-345.7 846.5,-345.7 846.5,-326.7 722.5,-326.7"/>
<text text-anchor="start" x="725.5" y="-332.8" font-family="Helvetica,sans-Serif" font-size="11.00" fill="#000000">...</text>
<polygon fill="#ffffff" stroke="transparent" points="722.5,-307.7 722.5,-326.7 765.5,-326.7 765.5,-307.7 722.5,-307.7"/>
<polygon fill="none" stroke="#000000" points="722.5,-307.7 722.5,-326.7 765.5,-326.7 765.5,-307.7 722.5,-307.7"/>
<text text-anchor="start" x="725.5" y="-313.8" font-family="Helvetica,sans-Serif" font-size="11.00" fill="#000000">&lt; 2</text>
<polygon fill="#ffffff" stroke="transparent" points="765.5,-307.7 765.5,-326.7 814.5,-326.7 814.5,-307.7 765.5,-307.7"/>
<polygon fill="none" stroke="#000000" points="765.5,-307.7 765.5,-326.7 814.5,-326.7 814.5,-307.7 765.5,-307.7"/>
<text text-anchor="start" x="779.1105" y="-313.8" font-family="Helvetica,sans-Serif" font-size="11.00" fill="#000000">0 rows</text>
<polygon fill="#ffffff" stroke="transparent" points="814.5,-307.7 814.5,-326.7 846.5,-326.7 846.5,-307.7 814.5,-307.7"/>
<polygon fill="none" stroke="#000000" points="814.5,-307.7 814.5,-326.7 846.5,-326.7 846.5,-307.7 814.5,-307.7"/>
<text text-anchor="start" x="827.9053" y="-313.8" font-family="Helvetica,sans-Serif" font-size="11.00" fill="#000000">3 &gt;</text>
</a>
</g>
</g>
<!-- daily_challenges&#45;&gt;challenges -->
<g id="edge4" class="edge">
<title>daily_challenges:w&#45;&gt;challenges:e</title>
<path fill="none" stroke="#000000" d="M707.9506,-338.3285C674.262,-352.0362 683.789,-414.7 638,-414.7"/>
<polygon fill="#000000" stroke="#000000" points="714.6274,-337.1223 723.14,-339.2427 718.5637,-336.4111 722.5,-335.7 722.5,-335.7 722.5,-335.7 718.5637,-336.4111 721.86,-332.1573 714.6274,-337.1223 714.6274,-337.1223"/>
<ellipse fill="none" stroke="#000000" cx="711.4784" cy="-337.6912" rx="3.2" ry="3.2"/>
</g>
<!-- daily_challenges&#45;&gt;classes -->
<g id="edge5" class="edge">
<title>daily_challenges:w&#45;&gt;classes:e</title>
<path fill="none" stroke="#000000" d="M708.2879,-331.5C696.3671,-322.6399 695.9345,-302.2333 676,-294.7 604.4913,-267.6768 571.3649,-258.5653 504,-294.7 475.3227,-310.0826 496.0425,-355.7 463.5,-355.7"/>
<polygon fill="#000000" stroke="#000000" points="714.828,-333.4327 721.4797,-339.1524 718.664,-334.5664 722.5,-335.7 722.5,-335.7 722.5,-335.7 718.664,-334.5664 723.5203,-332.2476 714.828,-333.4327 714.828,-333.4327"/>
<ellipse fill="none" stroke="#000000" cx="711.7592" cy="-332.5258" rx="3.2" ry="3.2"/>
</g>
<!-- events -->
<g id="node6" class="node">
<title>events</title>
<g id="a_node6"><a xlink:href="../../tables/events.html" xlink:title="events" target="_top">
<polygon fill="#ffffff" stroke="transparent" points="195.5,-120.2 195.5,-181.2 275.5,-181.2 275.5,-120.2 195.5,-120.2"/>
<polygon fill="#f5f5f5" stroke="transparent" points="195.5,-157.7 195.5,-180.7 275.5,-180.7 275.5,-157.7 195.5,-157.7"/>
<polygon fill="none" stroke="#000000" points="195.5,-157.7 195.5,-180.7 275.5,-180.7 275.5,-157.7 195.5,-157.7"/>
<text text-anchor="start" x="200.5" y="-166.8" font-family="Helvetica,sans-Serif" font-weight="bold" font-size="11.00" fill="#000000">events</text>
<text text-anchor="start" x="240.5437" y="-165.8" font-family="Helvetica,sans-Serif" font-size="11.00" fill="#000000">[table]</text>
<polygon fill="none" stroke="#000000" points="195.5,-138.7 195.5,-157.7 275.5,-157.7 275.5,-138.7 195.5,-138.7"/>
<text text-anchor="start" x="198.5" y="-144.8" font-family="Helvetica,sans-Serif" font-size="11.00" fill="#000000">...</text>
<polygon fill="#ffffff" stroke="transparent" points="195.5,-119.7 195.5,-138.7 216.5,-138.7 216.5,-119.7 195.5,-119.7"/>
<polygon fill="none" stroke="#000000" points="195.5,-119.7 195.5,-138.7 216.5,-138.7 216.5,-119.7 195.5,-119.7"/>
<text text-anchor="start" x="198.2027" y="-125.8" font-family="Helvetica,sans-Serif" font-size="11.00" fill="#000000">&lt; 1</text>
<polygon fill="#ffffff" stroke="transparent" points="216.5,-119.7 216.5,-138.7 254.5,-138.7 254.5,-119.7 216.5,-119.7"/>
<polygon fill="none" stroke="#000000" points="216.5,-119.7 216.5,-138.7 254.5,-138.7 254.5,-119.7 216.5,-119.7"/>
<text text-anchor="start" x="219.3053" y="-125.8" font-family="Helvetica,sans-Serif" font-size="11.00" fill="#000000">0 rows</text>
<polygon fill="#ffffff" stroke="transparent" points="254.5,-119.7 254.5,-138.7 275.5,-138.7 275.5,-119.7 254.5,-119.7"/>
<polygon fill="none" stroke="#000000" points="254.5,-119.7 254.5,-138.7 275.5,-138.7 275.5,-119.7 254.5,-119.7"/>
<text text-anchor="start" x="257.2027" y="-125.8" font-family="Helvetica,sans-Serif" font-size="11.00" fill="#000000">1 &gt;</text>
</a>
</g>
</g>
<!-- events&#45;&gt;gyms -->
<g id="edge6" class="edge">
<title>events:w&#45;&gt;gyms:e</title>
<path fill="none" stroke="#000000" d="M180.9357,-149.4498C160.3823,-155.0586 155.0566,-173.2998 134,-191.7 114.2311,-208.9749 119.7533,-234.7 93.5,-234.7"/>
<polygon fill="#000000" stroke="#000000" points="187.5571,-148.6543 195.9294,-151.2743 191.5286,-148.1772 195.5,-147.7 195.5,-147.7 195.5,-147.7 191.5286,-148.1772 195.0706,-144.1257 187.5571,-148.6543 187.5571,-148.6543"/>
<ellipse fill="none" stroke="#000000" cx="184.38" cy="-149.036" rx="3.2" ry="3.2"/>
</g>
<!-- gymnasts_has_classes -->
<g id="node7" class="node">
<title>gymnasts_has_classes</title>
<g id="a_node7"><a xlink:href="../../tables/gymnasts_has_classes.html" xlink:title="gymnasts_has_classes" target="_top">
<polygon fill="#ffffff" stroke="transparent" points="512,-305.2 512,-366.2 668,-366.2 668,-305.2 512,-305.2"/>
<polygon fill="#f5f5f5" stroke="transparent" points="512,-342.7 512,-365.7 668,-365.7 668,-342.7 512,-342.7"/>
<polygon fill="none" stroke="#000000" points="512,-342.7 512,-365.7 668,-365.7 668,-342.7 512,-342.7"/>
<text text-anchor="start" x="516.6531" y="-351.8" font-family="Helvetica,sans-Serif" font-weight="bold" font-size="11.00" fill="#000000">gymnasts_has_classes</text>
<text text-anchor="start" x="633.5219" y="-350.8" font-family="Helvetica,sans-Serif" font-size="11.00" fill="#000000">[table]</text>
<polygon fill="none" stroke="#000000" points="512,-323.7 512,-342.7 668,-342.7 668,-323.7 512,-323.7"/>
<text text-anchor="start" x="515" y="-329.8" font-family="Helvetica,sans-Serif" font-size="11.00" fill="#000000">...</text>
<polygon fill="#ffffff" stroke="transparent" points="512,-304.7 512,-323.7 575,-323.7 575,-304.7 512,-304.7"/>
<polygon fill="none" stroke="#000000" points="512,-304.7 512,-323.7 575,-323.7 575,-304.7 512,-304.7"/>
<text text-anchor="start" x="515" y="-310.8" font-family="Helvetica,sans-Serif" font-size="11.00" fill="#000000">&lt; 2</text>
<polygon fill="#ffffff" stroke="transparent" points="575,-304.7 575,-323.7 634,-323.7 634,-304.7 575,-304.7"/>
<polygon fill="none" stroke="#000000" points="575,-304.7 575,-323.7 634,-323.7 634,-304.7 575,-304.7"/>
<text text-anchor="start" x="598.6105" y="-310.8" font-family="Helvetica,sans-Serif" font-size="11.00" fill="#000000">0 rows</text>
<polygon fill="#ffffff" stroke="transparent" points="634,-304.7 634,-323.7 668,-323.7 668,-304.7 634,-304.7"/>
<polygon fill="none" stroke="#000000" points="634,-304.7 634,-323.7 668,-323.7 668,-304.7 634,-304.7"/>
<text text-anchor="start" x="658.8862" y="-310.8" font-family="Helvetica,sans-Serif" font-size="11.00" fill="#000000"> &#160;</text>
</a>
</g>
</g>
<!-- gymnasts_has_classes&#45;&gt;classes -->
<g id="edge7" class="edge">
<title>gymnasts_has_classes:w&#45;&gt;classes:e</title>
<path fill="none" stroke="#000000" d="M497.7122,-336.2938C486.3081,-342.7625 481.3924,-355.7 463.5,-355.7"/>
<polygon fill="#000000" stroke="#000000" points="504.2417,-334.6515 512.8782,-336.1913 508.1208,-333.6757 512,-332.7 512,-332.7 512,-332.7 508.1208,-333.6757 511.1218,-329.2087 504.2417,-334.6515 504.2417,-334.6515"/>
<ellipse fill="none" stroke="#000000" cx="501.1383" cy="-335.4321" rx="3.2" ry="3.2"/>
</g>
<!-- gyms_has_users -->
<g id="node8" class="node">
<title>gyms_has_users</title>
<g id="a_node8"><a xlink:href="../../tables/gyms_has_users.html" xlink:title="gyms_has_users" target="_top">
<polygon fill="#ffffff" stroke="transparent" points="172.5,-38.2 172.5,-99.2 298.5,-99.2 298.5,-38.2 172.5,-38.2"/>
<polygon fill="#f5f5f5" stroke="transparent" points="172.5,-75.7 172.5,-98.7 298.5,-98.7 298.5,-75.7 172.5,-75.7"/>
<polygon fill="none" stroke="#000000" points="172.5,-75.7 172.5,-98.7 298.5,-98.7 298.5,-75.7 172.5,-75.7"/>
<text text-anchor="start" x="177.436" y="-84.8" font-family="Helvetica,sans-Serif" font-weight="bold" font-size="11.00" fill="#000000">gyms_has_users</text>
<text text-anchor="start" x="264.0219" y="-83.8" font-family="Helvetica,sans-Serif" font-size="11.00" fill="#000000">[table]</text>
<polygon fill="none" stroke="#000000" points="172.5,-56.7 172.5,-75.7 298.5,-75.7 298.5,-56.7 172.5,-56.7"/>
<text text-anchor="start" x="175.5" y="-62.8" font-family="Helvetica,sans-Serif" font-size="11.00" fill="#000000">...</text>
<polygon fill="#ffffff" stroke="transparent" points="172.5,-37.7 172.5,-56.7 216.5,-56.7 216.5,-37.7 172.5,-37.7"/>
<polygon fill="none" stroke="#000000" points="172.5,-37.7 172.5,-56.7 216.5,-56.7 216.5,-37.7 172.5,-37.7"/>
<text text-anchor="start" x="175.5" y="-43.8" font-family="Helvetica,sans-Serif" font-size="11.00" fill="#000000">&lt; 2</text>
<polygon fill="#ffffff" stroke="transparent" points="216.5,-37.7 216.5,-56.7 265.5,-56.7 265.5,-37.7 216.5,-37.7"/>
<polygon fill="none" stroke="#000000" points="216.5,-37.7 216.5,-56.7 265.5,-56.7 265.5,-37.7 216.5,-37.7"/>
<text text-anchor="start" x="230.1105" y="-43.8" font-family="Helvetica,sans-Serif" font-size="11.00" fill="#000000">0 rows</text>
<polygon fill="#ffffff" stroke="transparent" points="265.5,-37.7 265.5,-56.7 298.5,-56.7 298.5,-37.7 265.5,-37.7"/>
<polygon fill="none" stroke="#000000" points="265.5,-37.7 265.5,-56.7 298.5,-56.7 298.5,-37.7 265.5,-37.7"/>
<text text-anchor="start" x="279.9053" y="-43.8" font-family="Helvetica,sans-Serif" font-size="11.00" fill="#000000">2 &gt;</text>
</a>
</g>
</g>
<!-- gyms_has_users&#45;&gt;gyms -->
<g id="edge8" class="edge">
<title>gyms_has_users:w&#45;&gt;gyms:e</title>
<path fill="none" stroke="#000000" d="M158.1284,-67.8368C100.3705,-87.4001 170.9065,-234.7 93.5,-234.7"/>
<polygon fill="#000000" stroke="#000000" points="164.587,-66.8766 173.0295,-69.2609 168.5435,-66.2883 172.5,-65.7 172.5,-65.7 172.5,-65.7 168.5435,-66.2883 171.9705,-62.1391 164.587,-66.8766 164.587,-66.8766"/>
<ellipse fill="none" stroke="#000000" cx="161.4218" cy="-67.3472" rx="3.2" ry="3.2"/>
</g>
<!-- normal_challenges -->
<g id="node9" class="node">
<title>normal_challenges</title>
<g id="a_node9"><a xlink:href="../../tables/normal_challenges.html" xlink:title="normal_challenges" target="_top">
<polygon fill="#ffffff" stroke="transparent" points="717,-416.2 717,-477.2 852,-477.2 852,-416.2 717,-416.2"/>
<polygon fill="#f5f5f5" stroke="transparent" points="717.5,-453.7 717.5,-476.7 852.5,-476.7 852.5,-453.7 717.5,-453.7"/>
<polygon fill="none" stroke="#000000" points="717.5,-453.7 717.5,-476.7 852.5,-476.7 852.5,-453.7 717.5,-453.7"/>
<text text-anchor="start" x="722.3523" y="-462.8" font-family="Helvetica,sans-Serif" font-weight="bold" font-size="11.00" fill="#000000">normal_challenges</text>
<text text-anchor="start" x="818.0219" y="-461.8" font-family="Helvetica,sans-Serif" font-size="11.00" fill="#000000">[table]</text>
<polygon fill="none" stroke="#000000" points="717.5,-434.7 717.5,-453.7 852.5,-453.7 852.5,-434.7 717.5,-434.7"/>
<text text-anchor="start" x="720.5" y="-440.8" font-family="Helvetica,sans-Serif" font-size="11.00" fill="#000000">...</text>
<polygon fill="#ffffff" stroke="transparent" points="717.5,-415.7 717.5,-434.7 765.5,-434.7 765.5,-415.7 717.5,-415.7"/>
<polygon fill="none" stroke="#000000" points="717.5,-415.7 717.5,-434.7 765.5,-434.7 765.5,-415.7 717.5,-415.7"/>
<text text-anchor="start" x="720.5" y="-421.8" font-family="Helvetica,sans-Serif" font-size="11.00" fill="#000000">&lt; 2</text>
<polygon fill="#ffffff" stroke="transparent" points="765.5,-415.7 765.5,-434.7 817.5,-434.7 817.5,-415.7 765.5,-415.7"/>
<polygon fill="none" stroke="#000000" points="765.5,-415.7 765.5,-434.7 817.5,-434.7 817.5,-415.7 765.5,-415.7"/>
<text text-anchor="start" x="782.1105" y="-421.8" font-family="Helvetica,sans-Serif" font-size="11.00" fill="#000000">0 rows</text>
<polygon fill="#ffffff" stroke="transparent" points="817.5,-415.7 817.5,-434.7 852.5,-434.7 852.5,-415.7 817.5,-415.7"/>
<polygon fill="none" stroke="#000000" points="817.5,-415.7 817.5,-434.7 852.5,-434.7 852.5,-415.7 817.5,-415.7"/>
<text text-anchor="start" x="833.9053" y="-421.8" font-family="Helvetica,sans-Serif" font-size="11.00" fill="#000000">2 &gt;</text>
</a>
</g>
</g>
<!-- normal_challenges&#45;&gt;challenges -->
<g id="edge9" class="edge">
<title>normal_challenges:w&#45;&gt;challenges:e</title>
<path fill="none" stroke="#000000" d="M703.0798,-442.0577C677.9562,-435.923 670.1748,-414.7 638,-414.7"/>
<polygon fill="#000000" stroke="#000000" points="709.5514,-442.7947 717.0926,-447.2769 713.5257,-443.2474 717.5,-443.7 717.5,-443.7 717.5,-443.7 713.5257,-443.2474 717.9074,-440.1231 709.5514,-442.7947 709.5514,-442.7947"/>
<ellipse fill="none" stroke="#000000" cx="706.3719" cy="-442.4326" rx="3.2" ry="3.2"/>
</g>
<!-- normal_challenges&#45;&gt;classes -->
<g id="edge10" class="edge">
<title>normal_challenges:w&#45;&gt;classes:e</title>
<path fill="none" stroke="#000000" d="M703.0752,-446.4974C694.6461,-450.1561 689.2812,-456.3734 676,-458.7 600.7022,-471.8905 567.175,-501.7426 504,-458.7 463.349,-431.0035 512.6895,-355.7 463.5,-355.7"/>
<polygon fill="#000000" stroke="#000000" points="709.6463,-445.2231 718.1854,-447.2342 713.5732,-444.4616 717.5,-443.7 717.5,-443.7 717.5,-443.7 713.5732,-444.4616 716.8146,-440.1658 709.6463,-445.2231 709.6463,-445.2231"/>
<ellipse fill="none" stroke="#000000" cx="706.5048" cy="-445.8323" rx="3.2" ry="3.2"/>
</g>
<!-- skill_lists_has_skills -->
<g id="node10" class="node">
<title>skill_lists_has_skills</title>
<g id="a_node10"><a xlink:href="../../tables/skill_lists_has_skills.html" xlink:title="skill_lists_has_skills" target="_top">
<polygon fill="#ffffff" stroke="transparent" points="520,-125.2 520,-230.2 660,-230.2 660,-125.2 520,-125.2"/>
<polygon fill="#f5f5f5" stroke="transparent" points="520,-206.7 520,-229.7 660,-229.7 660,-206.7 520,-206.7"/>
<polygon fill="none" stroke="#000000" points="520,-206.7 520,-229.7 660,-229.7 660,-206.7 520,-206.7"/>
<text text-anchor="start" x="524.9207" y="-215.8" font-family="Helvetica,sans-Serif" font-weight="bold" font-size="11.00" fill="#000000">skill_lists_has_skills</text>
<text text-anchor="start" x="625.5219" y="-214.8" font-family="Helvetica,sans-Serif" font-size="11.00" fill="#000000">[table]</text>
<polygon fill="none" stroke="#000000" points="520,-184.7 520,-206.7 660,-206.7 660,-184.7 520,-184.7"/>
<image xlink:href="../../images/primaryKeys.png" width="11px" height="12px" preserveAspectRatio="xMinYMin meet" x="525" y="-201.7"/>
<text text-anchor="start" x="541" y="-191.8" font-family="Helvetica,sans-Serif" font-size="11.00" fill="#000000">skill_list_id</text>
<polygon fill="none" stroke="#000000" points="520,-162.7 520,-184.7 660,-184.7 660,-162.7 520,-162.7"/>
<image xlink:href="../../images/primaryKeys.png" width="11px" height="12px" preserveAspectRatio="xMinYMin meet" x="525" y="-179.7"/>
<text text-anchor="start" x="541" y="-169.8" font-family="Helvetica,sans-Serif" font-size="11.00" fill="#000000">skill_id</text>
<polygon fill="none" stroke="#000000" points="520,-143.7 520,-162.7 660,-162.7 660,-143.7 520,-143.7"/>
<text text-anchor="start" x="523" y="-149.8" font-family="Helvetica,sans-Serif" font-size="11.00" fill="#000000">...</text>
<polygon fill="#ffffff" stroke="transparent" points="520,-124.7 520,-143.7 575,-143.7 575,-124.7 520,-124.7"/>
<polygon fill="none" stroke="#000000" points="520,-124.7 520,-143.7 575,-143.7 575,-124.7 520,-124.7"/>
<text text-anchor="start" x="523" y="-130.8" font-family="Helvetica,sans-Serif" font-size="11.00" fill="#000000">&lt; 2</text>
<polygon fill="#ffffff" stroke="transparent" points="575,-124.7 575,-143.7 630,-143.7 630,-124.7 575,-124.7"/>
<polygon fill="none" stroke="#000000" points="575,-124.7 575,-143.7 630,-143.7 630,-124.7 575,-124.7"/>
<text text-anchor="start" x="594.6105" y="-130.8" font-family="Helvetica,sans-Serif" font-size="11.00" fill="#000000">0 rows</text>
<polygon fill="#ffffff" stroke="transparent" points="630,-124.7 630,-143.7 660,-143.7 660,-124.7 630,-124.7"/>
<polygon fill="none" stroke="#000000" points="630,-124.7 630,-143.7 660,-143.7 660,-124.7 630,-124.7"/>
<text text-anchor="start" x="650.8862" y="-130.8" font-family="Helvetica,sans-Serif" font-size="11.00" fill="#000000"> &#160;</text>
</a>
</g>
</g>
<!-- skill_lists_has_skills&#45;&gt;skill_lists -->
<g id="edge13" class="edge">
<title>skill_lists_has_skills:w&#45;&gt;skill_lists:e</title>
<path fill="none" stroke="#000000" d="M505.5313,-197.6304C463.831,-207.3983 394.3298,-251.8085 370,-274.7 343.4923,-299.6406 363.8963,-344.7 327.5,-344.7"/>
<polygon fill="#000000" stroke="#000000" points="512.0703,-196.758 520.4761,-199.2684 516.0351,-196.229 520,-195.7 520,-195.7 520,-195.7 516.0351,-196.229 519.5239,-192.1316 512.0703,-196.758 512.0703,-196.758"/>
<ellipse fill="none" stroke="#000000" cx="508.8984" cy="-197.1812" rx="3.2" ry="3.2"/>
</g>
<!-- skills -->
<g id="node11" class="node">
<title>skills</title>
<g id="a_node11"><a xlink:href="../../tables/skills.html" xlink:title="skills" target="_top">
<polygon fill="#ffffff" stroke="transparent" points="380.5,-133.2 380.5,-194.2 460.5,-194.2 460.5,-133.2 380.5,-133.2"/>
<polygon fill="#f5f5f5" stroke="transparent" points="380.5,-170.7 380.5,-193.7 460.5,-193.7 460.5,-170.7 380.5,-170.7"/>
<polygon fill="none" stroke="#000000" points="380.5,-170.7 380.5,-193.7 460.5,-193.7 460.5,-170.7 380.5,-170.7"/>
<text text-anchor="start" x="385.5" y="-179.8" font-family="Helvetica,sans-Serif" font-weight="bold" font-size="11.00" fill="#000000">skills</text>
<text text-anchor="start" x="425.5437" y="-178.8" font-family="Helvetica,sans-Serif" font-size="11.00" fill="#000000">[table]</text>
<polygon fill="none" stroke="#000000" points="380.5,-151.7 380.5,-170.7 460.5,-170.7 460.5,-151.7 380.5,-151.7"/>
<text text-anchor="start" x="383.5" y="-157.8" font-family="Helvetica,sans-Serif" font-size="11.00" fill="#000000">...</text>
<polygon fill="#ffffff" stroke="transparent" points="380.5,-132.7 380.5,-151.7 401.5,-151.7 401.5,-132.7 380.5,-132.7"/>
<polygon fill="none" stroke="#000000" points="380.5,-132.7 380.5,-151.7 401.5,-151.7 401.5,-132.7 380.5,-132.7"/>
<text text-anchor="start" x="383.2027" y="-138.8" font-family="Helvetica,sans-Serif" font-size="11.00" fill="#000000">&lt; 3</text>
<polygon fill="#ffffff" stroke="transparent" points="401.5,-132.7 401.5,-151.7 439.5,-151.7 439.5,-132.7 401.5,-132.7"/>
<polygon fill="none" stroke="#000000" points="401.5,-132.7 401.5,-151.7 439.5,-151.7 439.5,-132.7 401.5,-132.7"/>
<text text-anchor="start" x="404.3053" y="-138.8" font-family="Helvetica,sans-Serif" font-size="11.00" fill="#000000">0 rows</text>
<polygon fill="#ffffff" stroke="transparent" points="439.5,-132.7 439.5,-151.7 460.5,-151.7 460.5,-132.7 439.5,-132.7"/>
<polygon fill="none" stroke="#000000" points="439.5,-132.7 439.5,-151.7 460.5,-151.7 460.5,-132.7 439.5,-132.7"/>
<text text-anchor="start" x="442.2027" y="-138.8" font-family="Helvetica,sans-Serif" font-size="11.00" fill="#000000">2 &gt;</text>
</a>
</g>
</g>
<!-- skill_lists_has_skills&#45;&gt;skills -->
<g id="edge12" class="edge">
<title>skill_lists_has_skills:w&#45;&gt;skills:e</title>
<path fill="none" stroke="#000000" d="M505.3607,-172.2087C489.7033,-168.7941 481.8586,-160.7 460.5,-160.7"/>
<polygon fill="#000000" stroke="#000000" points="512.0412,-172.8892 519.6351,-177.2815 516.0206,-173.2946 520,-173.7 520,-173.7 520,-173.7 516.0206,-173.2946 520.3649,-170.1185 512.0412,-172.8892 512.0412,-172.8892"/>
<ellipse fill="none" stroke="#000000" cx="508.8577" cy="-172.5649" rx="3.2" ry="3.2"/>
</g>
<!-- skills&#45;&gt;events -->
<g id="edge14" class="edge">
<title>skills:w&#45;&gt;events:e</title>
<path fill="none" stroke="#000000" d="M365.8032,-160.2373C330.5324,-157.9215 317.1962,-147.7 275.5,-147.7"/>
<polygon fill="#000000" stroke="#000000" points="372.504,-160.4482 380.3867,-164.2982 376.502,-160.5741 380.5,-160.7 380.5,-160.7 380.5,-160.7 376.502,-160.5741 380.6133,-157.1018 372.504,-160.4482 372.504,-160.4482"/>
<ellipse fill="none" stroke="#000000" cx="369.3055" cy="-160.3475" rx="3.2" ry="3.2"/>
</g>
</g>
</svg>
