<?xml version="1.0" encoding="UTF-8" standalone="no"?>
<!DOCTYPE svg PUBLIC "-//W3C//DTD SVG 1.1//EN"
 "http://www.w3.org/Graphics/SVG/1.1/DTD/svg11.dtd">
<!-- Generated by graphviz version 2.40.1 (20161225.0304)
 -->
<!-- Title: oneDegreeRelationshipsDiagram Pages: 1 -->
<svg width="551pt" height="350pt"
 viewBox="0.00 0.00 551.00 350.20" xmlns="http://www.w3.org/2000/svg" xmlns:xlink="http://www.w3.org/1999/xlink">
<g id="graph0" class="graph" transform="scale(1 1) rotate(0) translate(4 346.2)">
<title>oneDegreeRelationshipsDiagram</title>
<polygon fill="#ffffff" stroke="transparent" points="-4,4 -4,-346.2 547,-346.2 547,4 -4,4"/>
<text text-anchor="middle" x="72.4936" y="-7.3" font-family="Helvetica,sans-Serif" font-size="11.00" fill="#000000">Generated by SchemaSpy</text>
<!-- gymnast_has_skills -->
<g id="node1" class="node">
<title>gymnast_has_skills</title>
<g id="a_node1"><a xlink:href="../../tables/gymnast_has_skills.html" xlink:title="gymnast_has_skills" target="_top">
<polygon fill="#ffffff" stroke="transparent" points="397,-233.2 397,-338.2 535,-338.2 535,-233.2 397,-233.2"/>
<polygon fill="#f5f5f5" stroke="transparent" points="397,-314.7 397,-337.7 535,-337.7 535,-314.7 397,-314.7"/>
<polygon fill="none" stroke="#000000" points="397,-314.7 397,-337.7 535,-337.7 535,-314.7 397,-314.7"/>
<text text-anchor="start" x="401.8271" y="-323.8" font-family="Helvetica,sans-Serif" font-weight="bold" font-size="11.00" fill="#000000">gymnast_has_skills</text>
<text text-anchor="start" x="500.5219" y="-322.8" font-family="Helvetica,sans-Serif" font-size="11.00" fill="#000000">[table]</text>
<polygon fill="none" stroke="#000000" points="397,-292.7 397,-314.7 535,-314.7 535,-292.7 397,-292.7"/>
<image xlink:href="../../images/primaryKeys.png" width="11px" height="12px" preserveAspectRatio="xMinYMin meet" x="402" y="-309.7"/>
<text text-anchor="start" x="419" y="-299.8" font-family="Helvetica,sans-Serif" font-size="11.00" fill="#000000">gymnast_id</text>
<polygon fill="none" stroke="#000000" points="397,-270.7 397,-292.7 535,-292.7 535,-270.7 397,-270.7"/>
<image xlink:href="../../images/primaryKeys.png" width="11px" height="12px" preserveAspectRatio="xMinYMin meet" x="402" y="-287.7"/>
<text text-anchor="start" x="419" y="-277.8" font-family="Helvetica,sans-Serif" font-size="11.00" fill="#000000">skills_Id</text>
<polygon fill="none" stroke="#000000" points="397,-251.7 397,-270.7 535,-270.7 535,-251.7 397,-251.7"/>
<text text-anchor="start" x="400" y="-257.8" font-family="Helvetica,sans-Serif" font-size="11.00" fill="#000000">...</text>
<polygon fill="#ffffff" stroke="transparent" points="397,-232.7 397,-251.7 451,-251.7 451,-232.7 397,-232.7"/>
<polygon fill="none" stroke="#000000" points="397,-232.7 397,-251.7 451,-251.7 451,-232.7 397,-232.7"/>
<text text-anchor="start" x="400" y="-238.8" font-family="Helvetica,sans-Serif" font-size="11.00" fill="#000000">&lt; 2</text>
<polygon fill="#ffffff" stroke="transparent" points="451,-232.7 451,-251.7 506,-251.7 506,-232.7 451,-232.7"/>
<polygon fill="none" stroke="#000000" points="451,-232.7 451,-251.7 506,-251.7 506,-232.7 451,-232.7"/>
<text text-anchor="start" x="470.6105" y="-238.8" font-family="Helvetica,sans-Serif" font-size="11.00" fill="#000000">0 rows</text>
<polygon fill="#ffffff" stroke="transparent" points="506,-232.7 506,-251.7 535,-251.7 535,-232.7 506,-232.7"/>
<polygon fill="none" stroke="#000000" points="506,-232.7 506,-251.7 535,-251.7 535,-232.7 506,-232.7"/>
<text text-anchor="start" x="525.8862" y="-238.8" font-family="Helvetica,sans-Serif" font-size="11.00" fill="#000000"> &#160;</text>
</a>
</g>
</g>
<!-- skills -->
<g id="node2" class="node">
<title>skills</title>
<g id="a_node2"><a xlink:href="../../tables/skills.html" xlink:title="skills" target="_top">
<polygon fill="#ffffff" stroke="transparent" points="142,-76.7 142,-254.7 348,-254.7 348,-76.7 142,-76.7"/>
<polygon fill="#f5f5f5" stroke="transparent" points="144,-229.7 144,-252.7 346,-252.7 346,-229.7 144,-229.7"/>
<polygon fill="none" stroke="#000000" points="144,-229.7 144,-252.7 346,-252.7 346,-229.7 144,-229.7"/>
<text text-anchor="start" x="149" y="-238.8" font-family="Helvetica,sans-Serif" font-weight="bold" font-size="11.00" fill="#000000">skills</text>
<text text-anchor="start" x="311.0437" y="-237.8" font-family="Helvetica,sans-Serif" font-size="11.00" fill="#000000">[table]</text>
<polygon fill="none" stroke="#000000" points="144,-207.7 144,-229.7 229,-229.7 229,-207.7 144,-207.7"/>
<image xlink:href="../../images/primaryKeys.png" width="11px" height="12px" preserveAspectRatio="xMinYMin meet" x="149" y="-224.7"/>
<text text-anchor="start" x="164" y="-214.8" font-family="Helvetica,sans-Serif" font-size="11.00" fill="#000000">id</text>
<polygon fill="none" stroke="#000000" points="229,-207.7 229,-229.7 346,-229.7 346,-207.7 229,-207.7"/>
<text text-anchor="start" x="232" y="-215.4" font-family="Helvetica,sans-Serif" font-size="11.00" fill="#000000">int[10]</text>
<polygon fill="none" stroke="#000000" points="144,-185.7 144,-207.7 229,-207.7 229,-185.7 144,-185.7"/>
<text text-anchor="start" x="164" y="-192.8" font-family="Helvetica,sans-Serif" font-size="11.00" fill="#000000">name</text>
<polygon fill="none" stroke="#000000" points="229,-185.7 229,-207.7 346,-207.7 346,-185.7 229,-185.7"/>
<text text-anchor="start" x="232" y="-193.4" font-family="Helvetica,sans-Serif" font-size="11.00" fill="#000000">varchar[45]</text>
<polygon fill="none" stroke="#000000" points="144,-163.7 144,-185.7 229,-185.7 229,-163.7 144,-163.7"/>
<text text-anchor="start" x="164" y="-170.8" font-family="Helvetica,sans-Serif" font-size="11.00" fill="#000000">description</text>
<polygon fill="none" stroke="#000000" points="229,-163.7 229,-185.7 346,-185.7 346,-163.7 229,-163.7"/>
<text text-anchor="start" x="231.5645" y="-171.4" font-family="Helvetica,sans-Serif" font-size="11.00" fill="#000000">mediumtext[16777215]</text>
<polygon fill="none" stroke="#000000" points="144,-141.7 144,-163.7 229,-163.7 229,-141.7 144,-141.7"/>
<text text-anchor="start" x="164" y="-148.8" font-family="Helvetica,sans-Serif" font-size="11.00" fill="#000000">category</text>
<polygon fill="none" stroke="#000000" points="229,-141.7 229,-163.7 346,-163.7 346,-141.7 229,-141.7"/>
<text text-anchor="start" x="232" y="-149.4" font-family="Helvetica,sans-Serif" font-size="11.00" fill="#000000">varchar[45]</text>
<polygon fill="none" stroke="#000000" points="144,-119.7 144,-141.7 229,-141.7 229,-119.7 144,-119.7"/>
<text text-anchor="start" x="164" y="-126.8" font-family="Helvetica,sans-Serif" font-size="11.00" fill="#000000">certificate</text>
<polygon fill="none" stroke="#000000" points="229,-119.7 229,-141.7 346,-141.7 346,-119.7 229,-119.7"/>
<text text-anchor="start" x="232" y="-127.4" font-family="Helvetica,sans-Serif" font-size="11.00" fill="#000000">bit[1]</text>
<polygon fill="#ffffff" stroke="transparent" points="144,-97.7 144,-119.7 229,-119.7 229,-97.7 144,-97.7"/>
<polygon fill="none" stroke="#000000" points="144,-97.7 144,-119.7 229,-119.7 229,-97.7 144,-97.7"/>
<image xlink:href="../../images/foreignKeys.png" width="11px" height="12px" preserveAspectRatio="xMinYMin meet" x="149" y="-114.7"/>
<text text-anchor="start" x="164" y="-104.8" font-family="Helvetica,sans-Serif" font-size="11.00" fill="#000000">events_id</text>
<polygon fill="none" stroke="#000000" points="229,-97.7 229,-119.7 346,-119.7 346,-97.7 229,-97.7"/>
<text text-anchor="start" x="232" y="-105.4" font-family="Helvetica,sans-Serif" font-size="11.00" fill="#000000">int[10]</text>
<polygon fill="#ffffff" stroke="transparent" points="144,-78.7 144,-97.7 178,-97.7 178,-78.7 144,-78.7"/>
<polygon fill="none" stroke="#000000" points="144,-78.7 144,-97.7 178,-97.7 178,-78.7 144,-78.7"/>
<text text-anchor="start" x="147" y="-84.8" font-family="Helvetica,sans-Serif" font-size="11.00" fill="#000000">&lt; 1</text>
<polygon fill="#ffffff" stroke="transparent" points="178,-78.7 178,-97.7 229,-97.7 229,-78.7 178,-78.7"/>
<polygon fill="none" stroke="#000000" points="178,-78.7 178,-97.7 229,-97.7 229,-78.7 178,-78.7"/>
<text text-anchor="start" x="193.6105" y="-84.8" font-family="Helvetica,sans-Serif" font-size="11.00" fill="#000000">0 rows</text>
<polygon fill="#ffffff" stroke="transparent" points="229,-78.7 229,-97.7 346,-97.7 346,-78.7 229,-78.7"/>
<polygon fill="none" stroke="#000000" points="229,-78.7 229,-97.7 346,-97.7 346,-78.7 229,-78.7"/>
<text text-anchor="start" x="327.4053" y="-84.8" font-family="Helvetica,sans-Serif" font-size="11.00" fill="#000000">2 &gt;</text>
<polygon fill="none" stroke="#000000" stroke-width="2" points="143,-77.7 143,-253.7 347,-253.7 347,-77.7 143,-77.7"/>
</a>
</g>
</g>
<!-- gymnast_has_skills&#45;&gt;skills -->
<g id="edge1" class="edge">
<title>gymnast_has_skills:w&#45;&gt;skills:e</title>
<path fill="none" stroke="#000000" d="M382.9033,-276.7565C366.525,-261.9048 375.8329,-218.7 346,-218.7"/>
<polygon fill="#000000" stroke="#000000" points="389.4507,-279.0526 395.8087,-285.0972 393.2254,-280.3763 397,-281.7 397,-281.7 397,-281.7 393.2254,-280.3763 398.1913,-278.3028 389.4507,-279.0526 389.4507,-279.0526"/>
<ellipse fill="none" stroke="#000000" cx="386.431" cy="-277.9936" rx="3.2" ry="3.2"/>
</g>
<!-- events -->
<g id="node4" class="node">
<title>events</title>
<g id="a_node4"><a xlink:href="../../tables/events.html" xlink:title="events" target="_top">
<polygon fill="#ffffff" stroke="transparent" points="8,-38.2 8,-143.2 93,-143.2 93,-38.2 8,-38.2"/>
<polygon fill="#f5f5f5" stroke="transparent" points="8.5,-119.7 8.5,-142.7 93.5,-142.7 93.5,-119.7 8.5,-119.7"/>
<polygon fill="none" stroke="#000000" points="8.5,-119.7 8.5,-142.7 93.5,-142.7 93.5,-119.7 8.5,-119.7"/>
<text text-anchor="start" x="13.5" y="-128.8" font-family="Helvetica,sans-Serif" font-weight="bold" font-size="11.00" fill="#000000">events</text>
<text text-anchor="start" x="58.5437" y="-127.8" font-family="Helvetica,sans-Serif" font-size="11.00" fill="#000000">[table]</text>
<polygon fill="none" stroke="#000000" points="8.5,-97.7 8.5,-119.7 93.5,-119.7 93.5,-97.7 8.5,-97.7"/>
<image xlink:href="../../images/primaryKeys.png" width="11px" height="12px" preserveAspectRatio="xMinYMin meet" x="13.5" y="-114.7"/>
<text text-anchor="start" x="28.5" y="-104.8" font-family="Helvetica,sans-Serif" font-size="11.00" fill="#000000">id</text>
<polygon fill="#ffffff" stroke="transparent" points="8.5,-75.7 8.5,-97.7 93.5,-97.7 93.5,-75.7 8.5,-75.7"/>
<polygon fill="none" stroke="#000000" points="8.5,-75.7 8.5,-97.7 93.5,-97.7 93.5,-75.7 8.5,-75.7"/>
<image xlink:href="../../images/foreignKeys.png" width="11px" height="12px" preserveAspectRatio="xMinYMin meet" x="13.5" y="-92.7"/>
<text text-anchor="start" x="28.5" y="-82.8" font-family="Helvetica,sans-Serif" font-size="11.00" fill="#000000">gym_id</text>
<polygon fill="none" stroke="#000000" points="8.5,-56.7 8.5,-75.7 93.5,-75.7 93.5,-56.7 8.5,-56.7"/>
<text text-anchor="start" x="11.5" y="-62.8" font-family="Helvetica,sans-Serif" font-size="11.00" fill="#000000">...</text>
<polygon fill="#ffffff" stroke="transparent" points="8.5,-37.7 8.5,-56.7 31.5,-56.7 31.5,-37.7 8.5,-37.7"/>
<polygon fill="none" stroke="#000000" points="8.5,-37.7 8.5,-56.7 31.5,-56.7 31.5,-37.7 8.5,-37.7"/>
<text text-anchor="start" x="11.5" y="-43.8" font-family="Helvetica,sans-Serif" font-size="11.00" fill="#000000">&lt; 1</text>
<polygon fill="#ffffff" stroke="transparent" points="31.5,-37.7 31.5,-56.7 70.5,-56.7 70.5,-37.7 31.5,-37.7"/>
<polygon fill="none" stroke="#000000" points="31.5,-37.7 31.5,-56.7 70.5,-56.7 70.5,-37.7 31.5,-37.7"/>
<text text-anchor="start" x="35.1105" y="-43.8" font-family="Helvetica,sans-Serif" font-size="11.00" fill="#000000">0 rows</text>
<polygon fill="#ffffff" stroke="transparent" points="70.5,-37.7 70.5,-56.7 93.5,-56.7 93.5,-37.7 70.5,-37.7"/>
<polygon fill="none" stroke="#000000" points="70.5,-37.7 70.5,-56.7 93.5,-56.7 93.5,-37.7 70.5,-37.7"/>
<text text-anchor="start" x="74.9053" y="-43.8" font-family="Helvetica,sans-Serif" font-size="11.00" fill="#000000">1 &gt;</text>
</a>
</g>
</g>
<!-- skills&#45;&gt;events -->
<g id="edge3" class="edge">
<title>skills:w&#45;&gt;events:e</title>
<path fill="none" stroke="#000000" d="M129.4203,-108.7C117.5435,-108.7 110.158,-108.7 93.5,-108.7"/>
<polygon fill="#000000" stroke="#000000" points="136,-108.7001 144,-112.3 140,-108.7 144,-108.7 144,-108.7 144,-108.7 140,-108.7 144,-105.1 136,-108.7001 136,-108.7001"/>
<ellipse fill="none" stroke="#000000" cx="132.8" cy="-108.7001" rx="3.2" ry="3.2"/>
</g>
<!-- skill_has_levels -->
<g id="node3" class="node">
<title>skill_has_levels</title>
<g id="a_node3"><a xlink:href="../../tables/skill_has_levels.html" xlink:title="skill_has_levels" target="_top">
<polygon fill="#ffffff" stroke="transparent" points="406.5,-107.2 406.5,-212.2 525.5,-212.2 525.5,-107.2 406.5,-107.2"/>
<polygon fill="#f5f5f5" stroke="transparent" points="407,-188.7 407,-211.7 526,-211.7 526,-188.7 407,-188.7"/>
<polygon fill="none" stroke="#000000" points="407,-188.7 407,-211.7 526,-211.7 526,-188.7 407,-188.7"/>
<text text-anchor="start" x="411.8031" y="-197.8" font-family="Helvetica,sans-Serif" font-weight="bold" font-size="11.00" fill="#000000">skill_has_levels</text>
<text text-anchor="start" x="491.5219" y="-196.8" font-family="Helvetica,sans-Serif" font-size="11.00" fill="#000000">[table]</text>
<polygon fill="none" stroke="#000000" points="407,-166.7 407,-188.7 526,-188.7 526,-166.7 407,-166.7"/>
<image xlink:href="../../images/primaryKeys.png" width="11px" height="12px" preserveAspectRatio="xMinYMin meet" x="412" y="-183.7"/>
<text text-anchor="start" x="431" y="-173.8" font-family="Helvetica,sans-Serif" font-size="11.00" fill="#000000">levels_id</text>
<polygon fill="none" stroke="#000000" points="407,-144.7 407,-166.7 526,-166.7 526,-144.7 407,-144.7"/>
<image xlink:href="../../images/primaryKeys.png" width="11px" height="12px" preserveAspectRatio="xMinYMin meet" x="412" y="-161.7"/>
<text text-anchor="start" x="431" y="-151.8" font-family="Helvetica,sans-Serif" font-size="11.00" fill="#000000">skills_id</text>
<polygon fill="none" stroke="#000000" points="407,-125.7 407,-144.7 526,-144.7 526,-125.7 407,-125.7"/>
<text text-anchor="start" x="410" y="-131.8" font-family="Helvetica,sans-Serif" font-size="11.00" fill="#000000">...</text>
<polygon fill="#ffffff" stroke="transparent" points="407,-106.7 407,-125.7 452,-125.7 452,-106.7 407,-106.7"/>
<polygon fill="none" stroke="#000000" points="407,-106.7 407,-125.7 452,-125.7 452,-106.7 407,-106.7"/>
<text text-anchor="start" x="410" y="-112.8" font-family="Helvetica,sans-Serif" font-size="11.00" fill="#000000">&lt; 2</text>
<polygon fill="#ffffff" stroke="transparent" points="452,-106.7 452,-125.7 502,-125.7 502,-106.7 452,-106.7"/>
<polygon fill="none" stroke="#000000" points="452,-106.7 452,-125.7 502,-125.7 502,-106.7 452,-106.7"/>
<text text-anchor="start" x="466.6105" y="-112.8" font-family="Helvetica,sans-Serif" font-size="11.00" fill="#000000">0 rows</text>
<polygon fill="#ffffff" stroke="transparent" points="502,-106.7 502,-125.7 526,-125.7 526,-106.7 502,-106.7"/>
<polygon fill="none" stroke="#000000" points="502,-106.7 502,-125.7 526,-125.7 526,-106.7 502,-106.7"/>
<text text-anchor="start" x="516.8862" y="-112.8" font-family="Helvetica,sans-Serif" font-size="11.00" fill="#000000"> &#160;</text>
</a>
</g>
</g>
<!-- skill_has_levels&#45;&gt;skills -->
<g id="edge2" class="edge">
<title>skill_has_levels:w&#45;&gt;skills:e</title>
<path fill="none" stroke="#000000" d="M392.975,-159.4523C371.825,-173.015 379.1892,-218.7 346,-218.7"/>
<polygon fill="#000000" stroke="#000000" points="399.2718,-157.7676 407.9304,-159.1777 403.1359,-156.7338 407,-155.7 407,-155.7 407,-155.7 403.1359,-156.7338 406.0696,-152.2223 399.2718,-157.7676 399.2718,-157.7676"/>
<ellipse fill="none" stroke="#000000" cx="396.1805" cy="-158.5947" rx="3.2" ry="3.2"/>
</g>
</g>
</svg>
