<?xml version="1.0" encoding="UTF-8" standalone="no"?>
<!DOCTYPE svg PUBLIC "-//W3C//DTD SVG 1.1//EN"
 "http://www.w3.org/Graphics/SVG/1.1/DTD/svg11.dtd">
<!-- Generated by graphviz version 2.40.1 (20161225.0304)
 -->
<!-- Title: twoDegreesRelationshipsDiagram Pages: 1 -->
<svg width="684pt" height="449pt"
 viewBox="0.00 0.00 684.00 449.20" xmlns="http://www.w3.org/2000/svg" xmlns:xlink="http://www.w3.org/1999/xlink">
<g id="graph0" class="graph" transform="scale(1 1) rotate(0) translate(4 445.2)">
<title>twoDegreesRelationshipsDiagram</title>
<polygon fill="#ffffff" stroke="transparent" points="-4,4 -4,-445.2 680,-445.2 680,4 -4,4"/>
<text text-anchor="middle" x="72.4936" y="-7.3" font-family="Helvetica,sans-Serif" font-size="11.00" fill="#000000">Generated by SchemaSpy</text>
<!-- events -->
<g id="node1" class="node">
<title>events</title>
<g id="a_node1"><a xlink:href="../../tables/events.html" xlink:title="events" target="_top">
<polygon fill="#ffffff" stroke="transparent" points="132,-262.2 132,-367.2 217,-367.2 217,-262.2 132,-262.2"/>
<polygon fill="#f5f5f5" stroke="transparent" points="132.5,-343.7 132.5,-366.7 217.5,-366.7 217.5,-343.7 132.5,-343.7"/>
<polygon fill="none" stroke="#000000" points="132.5,-343.7 132.5,-366.7 217.5,-366.7 217.5,-343.7 132.5,-343.7"/>
<text text-anchor="start" x="137.5" y="-352.8" font-family="Helvetica,sans-Serif" font-weight="bold" font-size="11.00" fill="#000000">events</text>
<text text-anchor="start" x="182.5437" y="-351.8" font-family="Helvetica,sans-Serif" font-size="11.00" fill="#000000">[table]</text>
<polygon fill="none" stroke="#000000" points="132.5,-321.7 132.5,-343.7 217.5,-343.7 217.5,-321.7 132.5,-321.7"/>
<image xlink:href="../../images/primaryKeys.png" width="11px" height="12px" preserveAspectRatio="xMinYMin meet" x="137.5" y="-338.7"/>
<text text-anchor="start" x="152.5" y="-328.8" font-family="Helvetica,sans-Serif" font-size="11.00" fill="#000000">id</text>
<polygon fill="#ffffff" stroke="transparent" points="132.5,-299.7 132.5,-321.7 217.5,-321.7 217.5,-299.7 132.5,-299.7"/>
<polygon fill="none" stroke="#000000" points="132.5,-299.7 132.5,-321.7 217.5,-321.7 217.5,-299.7 132.5,-299.7"/>
<image xlink:href="../../images/foreignKeys.png" width="11px" height="12px" preserveAspectRatio="xMinYMin meet" x="137.5" y="-316.7"/>
<text text-anchor="start" x="152.5" y="-306.8" font-family="Helvetica,sans-Serif" font-size="11.00" fill="#000000">gym_id</text>
<polygon fill="none" stroke="#000000" points="132.5,-280.7 132.5,-299.7 217.5,-299.7 217.5,-280.7 132.5,-280.7"/>
<text text-anchor="start" x="135.5" y="-286.8" font-family="Helvetica,sans-Serif" font-size="11.00" fill="#000000">...</text>
<polygon fill="#ffffff" stroke="transparent" points="132.5,-261.7 132.5,-280.7 155.5,-280.7 155.5,-261.7 132.5,-261.7"/>
<polygon fill="none" stroke="#000000" points="132.5,-261.7 132.5,-280.7 155.5,-280.7 155.5,-261.7 132.5,-261.7"/>
<text text-anchor="start" x="135.5" y="-267.8" font-family="Helvetica,sans-Serif" font-size="11.00" fill="#000000">&lt; 1</text>
<polygon fill="#ffffff" stroke="transparent" points="155.5,-261.7 155.5,-280.7 194.5,-280.7 194.5,-261.7 155.5,-261.7"/>
<polygon fill="none" stroke="#000000" points="155.5,-261.7 155.5,-280.7 194.5,-280.7 194.5,-261.7 155.5,-261.7"/>
<text text-anchor="start" x="159.1105" y="-267.8" font-family="Helvetica,sans-Serif" font-size="11.00" fill="#000000">0 rows</text>
<polygon fill="#ffffff" stroke="transparent" points="194.5,-261.7 194.5,-280.7 217.5,-280.7 217.5,-261.7 194.5,-261.7"/>
<polygon fill="none" stroke="#000000" points="194.5,-261.7 194.5,-280.7 217.5,-280.7 217.5,-261.7 194.5,-261.7"/>
<text text-anchor="start" x="198.9053" y="-267.8" font-family="Helvetica,sans-Serif" font-size="11.00" fill="#000000">1 &gt;</text>
</a>
</g>
</g>
<!-- gyms -->
<g id="node2" class="node">
<title>gyms</title>
<g id="a_node2"><a xlink:href="../../tables/gyms.html" xlink:title="gyms" target="_top">
<polygon fill="#ffffff" stroke="transparent" points="8,-327.2 8,-388.2 79,-388.2 79,-327.2 8,-327.2"/>
<polygon fill="#f5f5f5" stroke="transparent" points="8.5,-364.7 8.5,-387.7 79.5,-387.7 79.5,-364.7 8.5,-364.7"/>
<polygon fill="none" stroke="#000000" points="8.5,-364.7 8.5,-387.7 79.5,-387.7 79.5,-364.7 8.5,-364.7"/>
<text text-anchor="start" x="13.5" y="-373.8" font-family="Helvetica,sans-Serif" font-weight="bold" font-size="11.00" fill="#000000">gyms</text>
<text text-anchor="start" x="44.5437" y="-372.8" font-family="Helvetica,sans-Serif" font-size="11.00" fill="#000000">[table]</text>
<polygon fill="none" stroke="#000000" points="8.5,-345.7 8.5,-364.7 79.5,-364.7 79.5,-345.7 8.5,-345.7"/>
<text text-anchor="start" x="11.5" y="-351.8" font-family="Helvetica,sans-Serif" font-size="11.00" fill="#000000">...</text>
<polygon fill="#ffffff" stroke="transparent" points="8.5,-326.7 8.5,-345.7 20.5,-345.7 20.5,-326.7 8.5,-326.7"/>
<polygon fill="none" stroke="#000000" points="8.5,-326.7 8.5,-345.7 20.5,-345.7 20.5,-326.7 8.5,-326.7"/>
<text text-anchor="start" x="11.4431" y="-332.8" font-family="Helvetica,sans-Serif" font-size="11.00" fill="#000000"> &#160;</text>
<polygon fill="#ffffff" stroke="transparent" points="20.5,-326.7 20.5,-345.7 58.5,-345.7 58.5,-326.7 20.5,-326.7"/>
<polygon fill="none" stroke="#000000" points="20.5,-326.7 20.5,-345.7 58.5,-345.7 58.5,-326.7 20.5,-326.7"/>
<text text-anchor="start" x="23.3053" y="-332.8" font-family="Helvetica,sans-Serif" font-size="11.00" fill="#000000">0 rows</text>
<polygon fill="#ffffff" stroke="transparent" points="58.5,-326.7 58.5,-345.7 79.5,-345.7 79.5,-326.7 58.5,-326.7"/>
<polygon fill="none" stroke="#000000" points="58.5,-326.7 58.5,-345.7 79.5,-345.7 79.5,-326.7 58.5,-326.7"/>
<text text-anchor="start" x="61.2027" y="-332.8" font-family="Helvetica,sans-Serif" font-size="11.00" fill="#000000">3 &gt;</text>
</a>
</g>
</g>
<!-- events&#45;&gt;gyms -->
<g id="edge1" class="edge">
<title>events:w&#45;&gt;gyms:e</title>
<path fill="none" stroke="#000000" d="M118.4281,-315.0797C103.618,-326.209 104.1356,-354.7 79.5,-354.7"/>
<polygon fill="#000000" stroke="#000000" points="124.8614,-313.0775 133.5699,-314.1374 128.6807,-311.8887 132.5,-310.7 132.5,-310.7 132.5,-310.7 128.6807,-311.8887 131.4301,-307.2626 124.8614,-313.0775 124.8614,-313.0775"/>
<ellipse fill="none" stroke="#000000" cx="121.806" cy="-314.0285" rx="3.2" ry="3.2"/>
</g>
<!-- gymnast_has_skills -->
<g id="node3" class="node">
<title>gymnast_has_skills</title>
<g id="a_node3"><a xlink:href="../../tables/gymnast_has_skills.html" xlink:title="gymnast_has_skills" target="_top">
<polygon fill="#ffffff" stroke="transparent" points="529,-75.2 529,-180.2 667,-180.2 667,-75.2 529,-75.2"/>
<polygon fill="#f5f5f5" stroke="transparent" points="529,-156.7 529,-179.7 667,-179.7 667,-156.7 529,-156.7"/>
<polygon fill="none" stroke="#000000" points="529,-156.7 529,-179.7 667,-179.7 667,-156.7 529,-156.7"/>
<text text-anchor="start" x="533.8271" y="-165.8" font-family="Helvetica,sans-Serif" font-weight="bold" font-size="11.00" fill="#000000">gymnast_has_skills</text>
<text text-anchor="start" x="632.5219" y="-164.8" font-family="Helvetica,sans-Serif" font-size="11.00" fill="#000000">[table]</text>
<polygon fill="none" stroke="#000000" points="529,-134.7 529,-156.7 667,-156.7 667,-134.7 529,-134.7"/>
<image xlink:href="../../images/primaryKeys.png" width="11px" height="12px" preserveAspectRatio="xMinYMin meet" x="534" y="-151.7"/>
<text text-anchor="start" x="551" y="-141.8" font-family="Helvetica,sans-Serif" font-size="11.00" fill="#000000">gymnast_id</text>
<polygon fill="none" stroke="#000000" points="529,-112.7 529,-134.7 667,-134.7 667,-112.7 529,-112.7"/>
<image xlink:href="../../images/primaryKeys.png" width="11px" height="12px" preserveAspectRatio="xMinYMin meet" x="534" y="-129.7"/>
<text text-anchor="start" x="551" y="-119.8" font-family="Helvetica,sans-Serif" font-size="11.00" fill="#000000">skills_Id</text>
<polygon fill="none" stroke="#000000" points="529,-93.7 529,-112.7 667,-112.7 667,-93.7 529,-93.7"/>
<text text-anchor="start" x="532" y="-99.8" font-family="Helvetica,sans-Serif" font-size="11.00" fill="#000000">...</text>
<polygon fill="#ffffff" stroke="transparent" points="529,-74.7 529,-93.7 583,-93.7 583,-74.7 529,-74.7"/>
<polygon fill="none" stroke="#000000" points="529,-74.7 529,-93.7 583,-93.7 583,-74.7 529,-74.7"/>
<text text-anchor="start" x="532" y="-80.8" font-family="Helvetica,sans-Serif" font-size="11.00" fill="#000000">&lt; 2</text>
<polygon fill="#ffffff" stroke="transparent" points="583,-74.7 583,-93.7 638,-93.7 638,-74.7 583,-74.7"/>
<polygon fill="none" stroke="#000000" points="583,-74.7 583,-93.7 638,-93.7 638,-74.7 583,-74.7"/>
<text text-anchor="start" x="602.6105" y="-80.8" font-family="Helvetica,sans-Serif" font-size="11.00" fill="#000000">0 rows</text>
<polygon fill="#ffffff" stroke="transparent" points="638,-74.7 638,-93.7 667,-93.7 667,-74.7 638,-74.7"/>
<polygon fill="none" stroke="#000000" points="638,-74.7 638,-93.7 667,-93.7 667,-74.7 638,-74.7"/>
<text text-anchor="start" x="657.8862" y="-80.8" font-family="Helvetica,sans-Serif" font-size="11.00" fill="#000000"> &#160;</text>
</a>
</g>
</g>
<!-- gymnasts -->
<g id="node4" class="node">
<title>gymnasts</title>
<g id="a_node4"><a xlink:href="../../tables/gymnasts.html" xlink:title="gymnasts" target="_top">
<polygon fill="#ffffff" stroke="transparent" points="329.5,-50.2 329.5,-111.2 419.5,-111.2 419.5,-50.2 329.5,-50.2"/>
<polygon fill="#f5f5f5" stroke="transparent" points="329.5,-87.7 329.5,-110.7 419.5,-110.7 419.5,-87.7 329.5,-87.7"/>
<polygon fill="none" stroke="#000000" points="329.5,-87.7 329.5,-110.7 419.5,-110.7 419.5,-87.7 329.5,-87.7"/>
<text text-anchor="start" x="334.4683" y="-96.8" font-family="Helvetica,sans-Serif" font-weight="bold" font-size="11.00" fill="#000000">gymnasts</text>
<text text-anchor="start" x="385.0219" y="-95.8" font-family="Helvetica,sans-Serif" font-size="11.00" fill="#000000">[table]</text>
<polygon fill="none" stroke="#000000" points="329.5,-68.7 329.5,-87.7 419.5,-87.7 419.5,-68.7 329.5,-68.7"/>
<text text-anchor="start" x="332.5" y="-74.8" font-family="Helvetica,sans-Serif" font-size="11.00" fill="#000000">...</text>
<polygon fill="#ffffff" stroke="transparent" points="329.5,-49.7 329.5,-68.7 355.5,-68.7 355.5,-49.7 329.5,-49.7"/>
<polygon fill="none" stroke="#000000" points="329.5,-49.7 329.5,-68.7 355.5,-68.7 355.5,-49.7 329.5,-49.7"/>
<text text-anchor="start" x="332.5" y="-55.8" font-family="Helvetica,sans-Serif" font-size="11.00" fill="#000000">&lt; 2</text>
<polygon fill="#ffffff" stroke="transparent" points="355.5,-49.7 355.5,-68.7 395.5,-68.7 395.5,-49.7 355.5,-49.7"/>
<polygon fill="none" stroke="#000000" points="355.5,-49.7 355.5,-68.7 395.5,-68.7 395.5,-49.7 355.5,-49.7"/>
<text text-anchor="start" x="360.1105" y="-55.8" font-family="Helvetica,sans-Serif" font-size="11.00" fill="#000000">0 rows</text>
<polygon fill="#ffffff" stroke="transparent" points="395.5,-49.7 395.5,-68.7 419.5,-68.7 419.5,-49.7 395.5,-49.7"/>
<polygon fill="none" stroke="#000000" points="395.5,-49.7 395.5,-68.7 419.5,-68.7 419.5,-49.7 395.5,-49.7"/>
<text text-anchor="start" x="400.9053" y="-55.8" font-family="Helvetica,sans-Serif" font-size="11.00" fill="#000000">4 &gt;</text>
</a>
</g>
</g>
<!-- gymnast_has_skills&#45;&gt;gymnasts -->
<g id="edge2" class="edge">
<title>gymnast_has_skills:w&#45;&gt;gymnasts:e</title>
<path fill="none" stroke="#000000" d="M515.6069,-139.9024C487.7687,-123.4581 431.2484,-77.7 419.5,-77.7"/>
<polygon fill="#000000" stroke="#000000" points="521.6583,-142.5219 527.5698,-149.0037 525.3292,-144.1109 529,-145.7 529,-145.7 529,-145.7 525.3292,-144.1109 530.4302,-142.3963 521.6583,-142.5219 521.6583,-142.5219"/>
<ellipse fill="none" stroke="#000000" cx="518.7217" cy="-141.2506" rx="3.2" ry="3.2"/>
</g>
<!-- skills -->
<g id="node5" class="node">
<title>skills</title>
<g id="a_node5"><a xlink:href="../../tables/skills.html" xlink:title="skills" target="_top">
<polygon fill="#ffffff" stroke="transparent" points="270,-132.7 270,-354.7 479,-354.7 479,-132.7 270,-132.7"/>
<polygon fill="#f5f5f5" stroke="transparent" points="272.5,-329.7 272.5,-352.7 477.5,-352.7 477.5,-329.7 272.5,-329.7"/>
<polygon fill="none" stroke="#000000" points="272.5,-329.7 272.5,-352.7 477.5,-352.7 477.5,-329.7 272.5,-329.7"/>
<text text-anchor="start" x="277.5" y="-338.8" font-family="Helvetica,sans-Serif" font-weight="bold" font-size="11.00" fill="#000000">skills</text>
<text text-anchor="start" x="442.5437" y="-337.8" font-family="Helvetica,sans-Serif" font-size="11.00" fill="#000000">[table]</text>
<polygon fill="none" stroke="#000000" points="272.5,-307.7 272.5,-329.7 360.5,-329.7 360.5,-307.7 272.5,-307.7"/>
<image xlink:href="../../images/primaryKeys.png" width="11px" height="12px" preserveAspectRatio="xMinYMin meet" x="277.5" y="-324.7"/>
<text text-anchor="start" x="292.5" y="-314.8" font-family="Helvetica,sans-Serif" font-size="11.00" fill="#000000">id</text>
<polygon fill="none" stroke="#000000" points="360.5,-307.7 360.5,-329.7 477.5,-329.7 477.5,-307.7 360.5,-307.7"/>
<text text-anchor="start" x="363.5" y="-315.4" font-family="Helvetica,sans-Serif" font-size="11.00" fill="#000000">bigint unsigned[20]</text>
<polygon fill="none" stroke="#000000" points="272.5,-285.7 272.5,-307.7 360.5,-307.7 360.5,-285.7 272.5,-285.7"/>
<text text-anchor="start" x="292.5" y="-292.8" font-family="Helvetica,sans-Serif" font-size="11.00" fill="#000000">name</text>
<polygon fill="none" stroke="#000000" points="360.5,-285.7 360.5,-307.7 477.5,-307.7 477.5,-285.7 360.5,-285.7"/>
<text text-anchor="start" x="363.5" y="-293.4" font-family="Helvetica,sans-Serif" font-size="11.00" fill="#000000">varchar[45]</text>
<polygon fill="none" stroke="#000000" points="272.5,-263.7 272.5,-285.7 360.5,-285.7 360.5,-263.7 272.5,-263.7"/>
<text text-anchor="start" x="292.5" y="-270.8" font-family="Helvetica,sans-Serif" font-size="11.00" fill="#000000">description</text>
<polygon fill="none" stroke="#000000" points="360.5,-263.7 360.5,-285.7 477.5,-285.7 477.5,-263.7 360.5,-263.7"/>
<text text-anchor="start" x="363.0645" y="-271.4" font-family="Helvetica,sans-Serif" font-size="11.00" fill="#000000">mediumtext[16777215]</text>
<polygon fill="none" stroke="#000000" points="272.5,-241.7 272.5,-263.7 360.5,-263.7 360.5,-241.7 272.5,-241.7"/>
<text text-anchor="start" x="292.5" y="-248.8" font-family="Helvetica,sans-Serif" font-size="11.00" fill="#000000">category</text>
<polygon fill="none" stroke="#000000" points="360.5,-241.7 360.5,-263.7 477.5,-263.7 477.5,-241.7 360.5,-241.7"/>
<text text-anchor="start" x="363.5" y="-249.4" font-family="Helvetica,sans-Serif" font-size="11.00" fill="#000000">varchar[45]</text>
<polygon fill="none" stroke="#000000" points="272.5,-219.7 272.5,-241.7 360.5,-241.7 360.5,-219.7 272.5,-219.7"/>
<text text-anchor="start" x="292.5" y="-226.8" font-family="Helvetica,sans-Serif" font-size="11.00" fill="#000000">certificate</text>
<polygon fill="none" stroke="#000000" points="360.5,-219.7 360.5,-241.7 477.5,-241.7 477.5,-219.7 360.5,-219.7"/>
<text text-anchor="start" x="363.5" y="-227.4" font-family="Helvetica,sans-Serif" font-size="11.00" fill="#000000">bit[1]</text>
<polygon fill="#ffffff" stroke="transparent" points="272.5,-197.7 272.5,-219.7 360.5,-219.7 360.5,-197.7 272.5,-197.7"/>
<polygon fill="none" stroke="#000000" points="272.5,-197.7 272.5,-219.7 360.5,-219.7 360.5,-197.7 272.5,-197.7"/>
<image xlink:href="../../images/foreignKeys.png" width="11px" height="12px" preserveAspectRatio="xMinYMin meet" x="277.5" y="-214.7"/>
<text text-anchor="start" x="292.5" y="-204.8" font-family="Helvetica,sans-Serif" font-size="11.00" fill="#000000">event_id</text>
<polygon fill="none" stroke="#000000" points="360.5,-197.7 360.5,-219.7 477.5,-219.7 477.5,-197.7 360.5,-197.7"/>
<text text-anchor="start" x="363.5" y="-205.4" font-family="Helvetica,sans-Serif" font-size="11.00" fill="#000000">bigint[19]</text>
<polygon fill="#ffffff" stroke="transparent" points="272.5,-175.7 272.5,-197.7 360.5,-197.7 360.5,-175.7 272.5,-175.7"/>
<polygon fill="none" stroke="#000000" points="272.5,-175.7 272.5,-197.7 360.5,-197.7 360.5,-175.7 272.5,-175.7"/>
<image xlink:href="../../images/foreignKeys.png" width="11px" height="12px" preserveAspectRatio="xMinYMin meet" x="277.5" y="-192.7"/>
<text text-anchor="start" x="292.5" y="-182.8" font-family="Helvetica,sans-Serif" font-size="11.00" fill="#000000">category_id</text>
<polygon fill="none" stroke="#000000" points="360.5,-175.7 360.5,-197.7 477.5,-197.7 477.5,-175.7 360.5,-175.7"/>
<text text-anchor="start" x="363.5" y="-183.4" font-family="Helvetica,sans-Serif" font-size="11.00" fill="#000000">bigint[19]</text>
<polygon fill="#ffffff" stroke="transparent" points="272.5,-153.7 272.5,-175.7 360.5,-175.7 360.5,-153.7 272.5,-153.7"/>
<polygon fill="none" stroke="#000000" points="272.5,-153.7 272.5,-175.7 360.5,-175.7 360.5,-153.7 272.5,-153.7"/>
<image xlink:href="../../images/foreignKeys.png" width="11px" height="12px" preserveAspectRatio="xMinYMin meet" x="277.5" y="-170.7"/>
<text text-anchor="start" x="292.5" y="-160.8" font-family="Helvetica,sans-Serif" font-size="11.00" fill="#000000">level_id</text>
<polygon fill="none" stroke="#000000" points="360.5,-153.7 360.5,-175.7 477.5,-175.7 477.5,-153.7 360.5,-153.7"/>
<text text-anchor="start" x="363.5" y="-161.4" font-family="Helvetica,sans-Serif" font-size="11.00" fill="#000000">bigint[19]</text>
<polygon fill="#ffffff" stroke="transparent" points="272.5,-134.7 272.5,-153.7 307.5,-153.7 307.5,-134.7 272.5,-134.7"/>
<polygon fill="none" stroke="#000000" points="272.5,-134.7 272.5,-153.7 307.5,-153.7 307.5,-134.7 272.5,-134.7"/>
<text text-anchor="start" x="275.5" y="-140.8" font-family="Helvetica,sans-Serif" font-size="11.00" fill="#000000">&lt; 3</text>
<polygon fill="#ffffff" stroke="transparent" points="307.5,-134.7 307.5,-153.7 360.5,-153.7 360.5,-134.7 307.5,-134.7"/>
<polygon fill="none" stroke="#000000" points="307.5,-134.7 307.5,-153.7 360.5,-153.7 360.5,-134.7 307.5,-134.7"/>
<text text-anchor="start" x="325.1105" y="-140.8" font-family="Helvetica,sans-Serif" font-size="11.00" fill="#000000">0 rows</text>
<polygon fill="#ffffff" stroke="transparent" points="360.5,-134.7 360.5,-153.7 477.5,-153.7 477.5,-134.7 360.5,-134.7"/>
<polygon fill="none" stroke="#000000" points="360.5,-134.7 360.5,-153.7 477.5,-153.7 477.5,-134.7 360.5,-134.7"/>
<text text-anchor="start" x="458.9053" y="-140.8" font-family="Helvetica,sans-Serif" font-size="11.00" fill="#000000">2 &gt;</text>
<polygon fill="none" stroke="#000000" stroke-width="2" points="271,-133.7 271,-353.7 478,-353.7 478,-133.7 271,-133.7"/>
</a>
</g>
</g>
<!-- gymnast_has_skills&#45;&gt;skills -->
<g id="edge3" class="edge">
<title>gymnast_has_skills:w&#45;&gt;skills:e</title>
<path fill="none" stroke="#000000" d="M514.6345,-125.8899C454.4846,-147.3133 561.5358,-318.7 477.5,-318.7"/>
<polygon fill="#000000" stroke="#000000" points="521.0914,-124.9057 529.5426,-127.2589 525.0457,-124.3028 529,-123.7 529,-123.7 529,-123.7 525.0457,-124.3028 528.4574,-120.1411 521.0914,-124.9057 521.0914,-124.9057"/>
<ellipse fill="none" stroke="#000000" cx="517.9279" cy="-125.3879" rx="3.2" ry="3.2"/>
</g>
<!-- skills&#45;&gt;events -->
<g id="edge8" class="edge">
<title>skills:w&#45;&gt;events:e</title>
<path fill="none" stroke="#000000" d="M258.2038,-212.0167C223.8188,-231.7362 271.9014,-332.7 217.5,-332.7"/>
<polygon fill="#000000" stroke="#000000" points="264.707,-210.508 273.3136,-212.2069 268.6035,-209.604 272.5,-208.7 272.5,-208.7 272.5,-208.7 268.6035,-209.604 271.6864,-205.1931 264.707,-210.508 264.707,-210.508"/>
<ellipse fill="none" stroke="#000000" cx="261.5898" cy="-211.2312" rx="3.2" ry="3.2"/>
</g>
<!-- categories -->
<g id="node8" class="node">
<title>categories</title>
<g id="a_node8"><a xlink:href="../../tables/categories.html" xlink:title="categories" target="_top">
<polygon fill="#ffffff" stroke="transparent" points="128,-142.2 128,-225.2 221,-225.2 221,-142.2 128,-142.2"/>
<polygon fill="#f5f5f5" stroke="transparent" points="128.5,-201.7 128.5,-224.7 221.5,-224.7 221.5,-201.7 128.5,-201.7"/>
<polygon fill="none" stroke="#000000" points="128.5,-201.7 128.5,-224.7 221.5,-224.7 221.5,-201.7 128.5,-201.7"/>
<text text-anchor="start" x="133.1329" y="-210.8" font-family="Helvetica,sans-Serif" font-weight="bold" font-size="11.00" fill="#000000">categories</text>
<text text-anchor="start" x="187.0219" y="-209.8" font-family="Helvetica,sans-Serif" font-size="11.00" fill="#000000">[table]</text>
<polygon fill="none" stroke="#000000" points="128.5,-179.7 128.5,-201.7 221.5,-201.7 221.5,-179.7 128.5,-179.7"/>
<image xlink:href="../../images/primaryKeys.png" width="11px" height="12px" preserveAspectRatio="xMinYMin meet" x="133.5" y="-196.7"/>
<text text-anchor="start" x="152.5" y="-186.8" font-family="Helvetica,sans-Serif" font-size="11.00" fill="#000000">id</text>
<polygon fill="none" stroke="#000000" points="128.5,-160.7 128.5,-179.7 221.5,-179.7 221.5,-160.7 128.5,-160.7"/>
<text text-anchor="start" x="131.5" y="-166.8" font-family="Helvetica,sans-Serif" font-size="11.00" fill="#000000">...</text>
<polygon fill="#ffffff" stroke="transparent" points="128.5,-141.7 128.5,-160.7 151.5,-160.7 151.5,-141.7 128.5,-141.7"/>
<polygon fill="none" stroke="#000000" points="128.5,-141.7 128.5,-160.7 151.5,-160.7 151.5,-141.7 128.5,-141.7"/>
<text text-anchor="start" x="131.5" y="-147.8" font-family="Helvetica,sans-Serif" font-size="11.00" fill="#000000"> &#160;</text>
<polygon fill="#ffffff" stroke="transparent" points="151.5,-141.7 151.5,-160.7 194.5,-160.7 194.5,-141.7 151.5,-141.7"/>
<polygon fill="none" stroke="#000000" points="151.5,-141.7 151.5,-160.7 194.5,-160.7 194.5,-141.7 151.5,-141.7"/>
<text text-anchor="start" x="159.1105" y="-147.8" font-family="Helvetica,sans-Serif" font-size="11.00" fill="#000000">0 rows</text>
<polygon fill="#ffffff" stroke="transparent" points="194.5,-141.7 194.5,-160.7 221.5,-160.7 221.5,-141.7 194.5,-141.7"/>
<polygon fill="none" stroke="#000000" points="194.5,-141.7 194.5,-160.7 221.5,-160.7 221.5,-141.7 194.5,-141.7"/>
<text text-anchor="start" x="202.9053" y="-147.8" font-family="Helvetica,sans-Serif" font-size="11.00" fill="#000000">1 &gt;</text>
</a>
</g>
</g>
<!-- skills&#45;&gt;categories -->
<g id="edge7" class="edge">
<title>skills:w&#45;&gt;categories:e</title>
<path fill="none" stroke="#000000" d="M257.7566,-187.3605C245.7698,-188.4966 238.3746,-190.7 221.5,-190.7"/>
<polygon fill="#000000" stroke="#000000" points="264.508,-187.0581 272.6611,-190.2964 268.504,-186.8791 272.5,-186.7 272.5,-186.7 272.5,-186.7 268.504,-186.8791 272.3389,-183.1036 264.508,-187.0581 264.508,-187.0581"/>
<ellipse fill="none" stroke="#000000" cx="261.3112" cy="-187.2013" rx="3.2" ry="3.2"/>
</g>
<!-- levels -->
<g id="node9" class="node">
<title>levels</title>
<g id="a_node9"><a xlink:href="../../tables/levels.html" xlink:title="levels" target="_top">
<polygon fill="#ffffff" stroke="transparent" points="132,-38.2 132,-121.2 217,-121.2 217,-38.2 132,-38.2"/>
<polygon fill="#f5f5f5" stroke="transparent" points="132.5,-97.7 132.5,-120.7 217.5,-120.7 217.5,-97.7 132.5,-97.7"/>
<polygon fill="none" stroke="#000000" points="132.5,-97.7 132.5,-120.7 217.5,-120.7 217.5,-97.7 132.5,-97.7"/>
<text text-anchor="start" x="137.5" y="-106.8" font-family="Helvetica,sans-Serif" font-weight="bold" font-size="11.00" fill="#000000">levels</text>
<text text-anchor="start" x="182.5437" y="-105.8" font-family="Helvetica,sans-Serif" font-size="11.00" fill="#000000">[table]</text>
<polygon fill="none" stroke="#000000" points="132.5,-75.7 132.5,-97.7 217.5,-97.7 217.5,-75.7 132.5,-75.7"/>
<image xlink:href="../../images/primaryKeys.png" width="11px" height="12px" preserveAspectRatio="xMinYMin meet" x="137.5" y="-92.7"/>
<text text-anchor="start" x="152.5" y="-82.8" font-family="Helvetica,sans-Serif" font-size="11.00" fill="#000000">id</text>
<polygon fill="none" stroke="#000000" points="132.5,-56.7 132.5,-75.7 217.5,-75.7 217.5,-56.7 132.5,-56.7"/>
<text text-anchor="start" x="135.5" y="-62.8" font-family="Helvetica,sans-Serif" font-size="11.00" fill="#000000">...</text>
<polygon fill="#ffffff" stroke="transparent" points="132.5,-37.7 132.5,-56.7 151.5,-56.7 151.5,-37.7 132.5,-37.7"/>
<polygon fill="none" stroke="#000000" points="132.5,-37.7 132.5,-56.7 151.5,-56.7 151.5,-37.7 132.5,-37.7"/>
<text text-anchor="start" x="135.5" y="-43.8" font-family="Helvetica,sans-Serif" font-size="11.00" fill="#000000"> &#160;</text>
<polygon fill="#ffffff" stroke="transparent" points="151.5,-37.7 151.5,-56.7 192.5,-56.7 192.5,-37.7 151.5,-37.7"/>
<polygon fill="none" stroke="#000000" points="151.5,-37.7 151.5,-56.7 192.5,-56.7 192.5,-37.7 151.5,-37.7"/>
<text text-anchor="start" x="157.1105" y="-43.8" font-family="Helvetica,sans-Serif" font-size="11.00" fill="#000000">0 rows</text>
<polygon fill="#ffffff" stroke="transparent" points="192.5,-37.7 192.5,-56.7 217.5,-56.7 217.5,-37.7 192.5,-37.7"/>
<polygon fill="none" stroke="#000000" points="192.5,-37.7 192.5,-56.7 217.5,-56.7 217.5,-37.7 192.5,-37.7"/>
<text text-anchor="start" x="198.9053" y="-43.8" font-family="Helvetica,sans-Serif" font-size="11.00" fill="#000000">1 &gt;</text>
</a>
</g>
</g>
<!-- skills&#45;&gt;levels -->
<g id="edge9" class="edge">
<title>skills:w&#45;&gt;levels:e</title>
<path fill="none" stroke="#000000" d="M258.4895,-160.5064C237.0444,-144.305 253.9532,-86.7 217.5,-86.7"/>
<polygon fill="#000000" stroke="#000000" points="264.836,-162.406 271.4677,-168.1488 268.668,-163.553 272.5,-164.7 272.5,-164.7 272.5,-164.7 268.668,-163.553 273.5323,-161.2512 264.836,-162.406 264.836,-162.406"/>
<ellipse fill="none" stroke="#000000" cx="261.7703" cy="-161.4883" rx="3.2" ry="3.2"/>
</g>
<!-- skill_lists -->
<g id="node6" class="node">
<title>skill_lists</title>
<g id="a_node6"><a xlink:href="../../tables/skill_lists.html" xlink:title="skill_lists" target="_top">
<polygon fill="#ffffff" stroke="transparent" points="331.5,-376.2 331.5,-437.2 417.5,-437.2 417.5,-376.2 331.5,-376.2"/>
<polygon fill="#f5f5f5" stroke="transparent" points="331.5,-413.7 331.5,-436.7 417.5,-436.7 417.5,-413.7 331.5,-413.7"/>
<polygon fill="none" stroke="#000000" points="331.5,-413.7 331.5,-436.7 417.5,-436.7 417.5,-413.7 331.5,-413.7"/>
<text text-anchor="start" x="336.3119" y="-422.8" font-family="Helvetica,sans-Serif" font-weight="bold" font-size="11.00" fill="#000000">skill_lists</text>
<text text-anchor="start" x="383.0219" y="-421.8" font-family="Helvetica,sans-Serif" font-size="11.00" fill="#000000">[table]</text>
<polygon fill="none" stroke="#000000" points="331.5,-394.7 331.5,-413.7 417.5,-413.7 417.5,-394.7 331.5,-394.7"/>
<text text-anchor="start" x="334.5" y="-400.8" font-family="Helvetica,sans-Serif" font-size="11.00" fill="#000000">...</text>
<polygon fill="#ffffff" stroke="transparent" points="331.5,-375.7 331.5,-394.7 355.5,-394.7 355.5,-375.7 331.5,-375.7"/>
<polygon fill="none" stroke="#000000" points="331.5,-375.7 331.5,-394.7 355.5,-394.7 355.5,-375.7 331.5,-375.7"/>
<text text-anchor="start" x="334.5" y="-381.8" font-family="Helvetica,sans-Serif" font-size="11.00" fill="#000000">&lt; 1</text>
<polygon fill="#ffffff" stroke="transparent" points="355.5,-375.7 355.5,-394.7 394.5,-394.7 394.5,-375.7 355.5,-375.7"/>
<polygon fill="none" stroke="#000000" points="355.5,-375.7 355.5,-394.7 394.5,-394.7 394.5,-375.7 355.5,-375.7"/>
<text text-anchor="start" x="359.1105" y="-381.8" font-family="Helvetica,sans-Serif" font-size="11.00" fill="#000000">0 rows</text>
<polygon fill="#ffffff" stroke="transparent" points="394.5,-375.7 394.5,-394.7 417.5,-394.7 417.5,-375.7 394.5,-375.7"/>
<polygon fill="none" stroke="#000000" points="394.5,-375.7 394.5,-394.7 417.5,-394.7 417.5,-375.7 394.5,-375.7"/>
<text text-anchor="start" x="398.9053" y="-381.8" font-family="Helvetica,sans-Serif" font-size="11.00" fill="#000000">1 &gt;</text>
</a>
</g>
</g>
<!-- skill_lists&#45;&gt;gyms -->
<g id="edge4" class="edge">
<title>skill_lists:w&#45;&gt;gyms:e</title>
<path fill="none" stroke="#000000" d="M317.0637,-403.7257C233.7826,-404.0011 205.1759,-405.8697 120,-377.7 100.3468,-371.2002 100.2001,-354.7 79.5,-354.7"/>
<polygon fill="#000000" stroke="#000000" points="323.5,-403.7143 331.5064,-407.3 327.5,-403.7072 331.5,-403.7 331.5,-403.7 331.5,-403.7 327.5,-403.7072 331.4936,-400.1 323.5,-403.7143 323.5,-403.7143"/>
<ellipse fill="none" stroke="#000000" cx="320.3" cy="-403.72" rx="3.2" ry="3.2"/>
</g>
<!-- skill_lists_has_skills -->
<g id="node7" class="node">
<title>skill_lists_has_skills</title>
<g id="a_node7"><a xlink:href="../../tables/skill_lists_has_skills.html" xlink:title="skill_lists_has_skills" target="_top">
<polygon fill="#ffffff" stroke="transparent" points="528,-301.2 528,-406.2 668,-406.2 668,-301.2 528,-301.2"/>
<polygon fill="#f5f5f5" stroke="transparent" points="528,-382.7 528,-405.7 668,-405.7 668,-382.7 528,-382.7"/>
<polygon fill="none" stroke="#000000" points="528,-382.7 528,-405.7 668,-405.7 668,-382.7 528,-382.7"/>
<text text-anchor="start" x="532.9207" y="-391.8" font-family="Helvetica,sans-Serif" font-weight="bold" font-size="11.00" fill="#000000">skill_lists_has_skills</text>
<text text-anchor="start" x="633.5219" y="-390.8" font-family="Helvetica,sans-Serif" font-size="11.00" fill="#000000">[table]</text>
<polygon fill="none" stroke="#000000" points="528,-360.7 528,-382.7 668,-382.7 668,-360.7 528,-360.7"/>
<image xlink:href="../../images/primaryKeys.png" width="11px" height="12px" preserveAspectRatio="xMinYMin meet" x="533" y="-377.7"/>
<text text-anchor="start" x="549" y="-367.8" font-family="Helvetica,sans-Serif" font-size="11.00" fill="#000000">skill_list_id</text>
<polygon fill="none" stroke="#000000" points="528,-338.7 528,-360.7 668,-360.7 668,-338.7 528,-338.7"/>
<image xlink:href="../../images/primaryKeys.png" width="11px" height="12px" preserveAspectRatio="xMinYMin meet" x="533" y="-355.7"/>
<text text-anchor="start" x="549" y="-345.8" font-family="Helvetica,sans-Serif" font-size="11.00" fill="#000000">skill_id</text>
<polygon fill="none" stroke="#000000" points="528,-319.7 528,-338.7 668,-338.7 668,-319.7 528,-319.7"/>
<text text-anchor="start" x="531" y="-325.8" font-family="Helvetica,sans-Serif" font-size="11.00" fill="#000000">...</text>
<polygon fill="#ffffff" stroke="transparent" points="528,-300.7 528,-319.7 583,-319.7 583,-300.7 528,-300.7"/>
<polygon fill="none" stroke="#000000" points="528,-300.7 528,-319.7 583,-319.7 583,-300.7 528,-300.7"/>
<text text-anchor="start" x="531" y="-306.8" font-family="Helvetica,sans-Serif" font-size="11.00" fill="#000000">&lt; 2</text>
<polygon fill="#ffffff" stroke="transparent" points="583,-300.7 583,-319.7 638,-319.7 638,-300.7 583,-300.7"/>
<polygon fill="none" stroke="#000000" points="583,-300.7 583,-319.7 638,-319.7 638,-300.7 583,-300.7"/>
<text text-anchor="start" x="602.6105" y="-306.8" font-family="Helvetica,sans-Serif" font-size="11.00" fill="#000000">0 rows</text>
<polygon fill="#ffffff" stroke="transparent" points="638,-300.7 638,-319.7 668,-319.7 668,-300.7 638,-300.7"/>
<polygon fill="none" stroke="#000000" points="638,-300.7 638,-319.7 668,-319.7 668,-300.7 638,-300.7"/>
<text text-anchor="start" x="658.8862" y="-306.8" font-family="Helvetica,sans-Serif" font-size="11.00" fill="#000000"> &#160;</text>
</a>
</g>
</g>
<!-- skill_lists_has_skills&#45;&gt;skills -->
<g id="edge5" class="edge">
<title>skill_lists_has_skills:w&#45;&gt;skills:e</title>
<path fill="none" stroke="#000000" d="M513.8267,-345.6473C501.1849,-337.2444 497.8692,-318.7 477.5,-318.7"/>
<polygon fill="#000000" stroke="#000000" points="520.3083,-347.5006 527.0103,-353.1613 524.1541,-348.6003 528,-349.7 528,-349.7 528,-349.7 524.1541,-348.6003 528.9897,-346.2387 520.3083,-347.5006 520.3083,-347.5006"/>
<ellipse fill="none" stroke="#000000" cx="517.2316" cy="-346.6208" rx="3.2" ry="3.2"/>
</g>
<!-- skill_lists_has_skills&#45;&gt;skill_lists -->
<g id="edge6" class="edge">
<title>skill_lists_has_skills:w&#45;&gt;skill_lists:e</title>
<path fill="none" stroke="#000000" d="M513.4056,-372.6577C474.7051,-377.9821 463.3363,-403.7 417.5,-403.7"/>
<polygon fill="#000000" stroke="#000000" points="520.0172,-372.2239 528.2358,-375.2923 524.0086,-371.9619 528,-371.7 528,-371.7 528,-371.7 524.0086,-371.9619 527.7642,-368.1077 520.0172,-372.2239 520.0172,-372.2239"/>
<ellipse fill="none" stroke="#000000" cx="516.824" cy="-372.4334" rx="3.2" ry="3.2"/>
</g>
</g>
</svg>
