<?xml version="1.0" encoding="UTF-8" standalone="no"?>
<!DOCTYPE svg PUBLIC "-//W3C//DTD SVG 1.1//EN"
 "http://www.w3.org/Graphics/SVG/1.1/DTD/svg11.dtd">
<!-- Generated by graphviz version 2.40.1 (20161225.0304)
 -->
<!-- Title: twoDegreesRelationshipsDiagram Pages: 1 -->
<svg width="852pt" height="489pt"
 viewBox="0.00 0.00 852.00 489.20" xmlns="http://www.w3.org/2000/svg" xmlns:xlink="http://www.w3.org/1999/xlink">
<g id="graph0" class="graph" transform="scale(1 1) rotate(0) translate(4 485.2)">
<title>twoDegreesRelationshipsDiagram</title>
<polygon fill="#ffffff" stroke="transparent" points="-4,4 -4,-485.2 848,-485.2 848,4 -4,4"/>
<text text-anchor="middle" x="72.4936" y="-7.3" font-family="Helvetica,sans-Serif" font-size="11.00" fill="#000000">Generated by SchemaSpy</text>
<!-- challenges -->
<g id="node1" class="node">
<title>challenges</title>
<g id="a_node1"><a xlink:href="../../tables/challenges.html" xlink:title="challenges" target="_top">
<polygon fill="#ffffff" stroke="transparent" points="534.5,-387.2 534.5,-448.2 629.5,-448.2 629.5,-387.2 534.5,-387.2"/>
<polygon fill="#f5f5f5" stroke="transparent" points="535,-424.7 535,-447.7 630,-447.7 630,-424.7 535,-424.7"/>
<polygon fill="none" stroke="#000000" points="535,-424.7 535,-447.7 630,-447.7 630,-424.7 535,-424.7"/>
<text text-anchor="start" x="539.7144" y="-433.8" font-family="Helvetica,sans-Serif" font-weight="bold" font-size="11.00" fill="#000000">challenges</text>
<text text-anchor="start" x="595.5219" y="-432.8" font-family="Helvetica,sans-Serif" font-size="11.00" fill="#000000">[table]</text>
<polygon fill="none" stroke="#000000" points="535,-405.7 535,-424.7 630,-424.7 630,-405.7 535,-405.7"/>
<text text-anchor="start" x="538" y="-411.8" font-family="Helvetica,sans-Serif" font-size="11.00" fill="#000000">...</text>
<polygon fill="#ffffff" stroke="transparent" points="535,-386.7 535,-405.7 563,-405.7 563,-386.7 535,-386.7"/>
<polygon fill="none" stroke="#000000" points="535,-386.7 535,-405.7 563,-405.7 563,-386.7 535,-386.7"/>
<text text-anchor="start" x="538" y="-392.8" font-family="Helvetica,sans-Serif" font-size="11.00" fill="#000000">&lt; 2</text>
<polygon fill="#ffffff" stroke="transparent" points="563,-386.7 563,-405.7 605,-405.7 605,-386.7 563,-386.7"/>
<polygon fill="none" stroke="#000000" points="563,-386.7 563,-405.7 605,-405.7 605,-386.7 563,-386.7"/>
<text text-anchor="start" x="569.6105" y="-392.8" font-family="Helvetica,sans-Serif" font-size="11.00" fill="#000000">0 rows</text>
<polygon fill="#ffffff" stroke="transparent" points="605,-386.7 605,-405.7 630,-405.7 630,-386.7 605,-386.7"/>
<polygon fill="none" stroke="#000000" points="605,-386.7 605,-405.7 630,-405.7 630,-386.7 605,-386.7"/>
<text text-anchor="start" x="611.4053" y="-392.8" font-family="Helvetica,sans-Serif" font-size="11.00" fill="#000000">2 &gt;</text>
</a>
</g>
</g>
<!-- classes -->
<g id="node2" class="node">
<title>classes</title>
<g id="a_node2"><a xlink:href="../../tables/classes.html" xlink:title="classes" target="_top">
<polygon fill="#ffffff" stroke="transparent" points="378,-285.2 378,-390.2 463,-390.2 463,-285.2 378,-285.2"/>
<polygon fill="#f5f5f5" stroke="transparent" points="378.5,-366.7 378.5,-389.7 463.5,-389.7 463.5,-366.7 378.5,-366.7"/>
<polygon fill="none" stroke="#000000" points="378.5,-366.7 378.5,-389.7 463.5,-389.7 463.5,-366.7 378.5,-366.7"/>
<text text-anchor="start" x="383.5" y="-375.8" font-family="Helvetica,sans-Serif" font-weight="bold" font-size="11.00" fill="#000000">classes</text>
<text text-anchor="start" x="428.5437" y="-374.8" font-family="Helvetica,sans-Serif" font-size="11.00" fill="#000000">[table]</text>
<polygon fill="none" stroke="#000000" points="378.5,-344.7 378.5,-366.7 463.5,-366.7 463.5,-344.7 378.5,-344.7"/>
<image xlink:href="../../images/primaryKeys.png" width="11px" height="12px" preserveAspectRatio="xMinYMin meet" x="383.5" y="-361.7"/>
<text text-anchor="start" x="398.5" y="-351.8" font-family="Helvetica,sans-Serif" font-size="11.00" fill="#000000">id</text>
<polygon fill="#ffffff" stroke="transparent" points="378.5,-322.7 378.5,-344.7 463.5,-344.7 463.5,-322.7 378.5,-322.7"/>
<polygon fill="none" stroke="#000000" points="378.5,-322.7 378.5,-344.7 463.5,-344.7 463.5,-322.7 378.5,-322.7"/>
<image xlink:href="../../images/foreignKeys.png" width="11px" height="12px" preserveAspectRatio="xMinYMin meet" x="383.5" y="-339.7"/>
<text text-anchor="start" x="398.5" y="-329.8" font-family="Helvetica,sans-Serif" font-size="11.00" fill="#000000">skill_list_id</text>
<polygon fill="none" stroke="#000000" points="378.5,-303.7 378.5,-322.7 463.5,-322.7 463.5,-303.7 378.5,-303.7"/>
<text text-anchor="start" x="381.5" y="-309.8" font-family="Helvetica,sans-Serif" font-size="11.00" fill="#000000">...</text>
<polygon fill="#ffffff" stroke="transparent" points="378.5,-284.7 378.5,-303.7 401.5,-303.7 401.5,-284.7 378.5,-284.7"/>
<polygon fill="none" stroke="#000000" points="378.5,-284.7 378.5,-303.7 401.5,-303.7 401.5,-284.7 378.5,-284.7"/>
<text text-anchor="start" x="381.5" y="-290.8" font-family="Helvetica,sans-Serif" font-size="11.00" fill="#000000">&lt; 1</text>
<polygon fill="#ffffff" stroke="transparent" points="401.5,-284.7 401.5,-303.7 440.5,-303.7 440.5,-284.7 401.5,-284.7"/>
<polygon fill="none" stroke="#000000" points="401.5,-284.7 401.5,-303.7 440.5,-303.7 440.5,-284.7 401.5,-284.7"/>
<text text-anchor="start" x="405.1105" y="-290.8" font-family="Helvetica,sans-Serif" font-size="11.00" fill="#000000">0 rows</text>
<polygon fill="#ffffff" stroke="transparent" points="440.5,-284.7 440.5,-303.7 463.5,-303.7 463.5,-284.7 440.5,-284.7"/>
<polygon fill="none" stroke="#000000" points="440.5,-284.7 440.5,-303.7 463.5,-303.7 463.5,-284.7 440.5,-284.7"/>
<text text-anchor="start" x="444.9053" y="-290.8" font-family="Helvetica,sans-Serif" font-size="11.00" fill="#000000">4 &gt;</text>
</a>
</g>
</g>
<!-- challenges&#45;&gt;classes -->
<g id="edge1" class="edge">
<title>challenges:w&#45;&gt;classes:e</title>
<path fill="none" stroke="#000000" d="M520.7569,-411.6931C495.8067,-399.67 499.0671,-355.7 463.5,-355.7"/>
<polygon fill="#000000" stroke="#000000" points="527.1725,-413.0475 534.2564,-418.2224 531.0863,-413.8737 535,-414.7 535,-414.7 535,-414.7 531.0863,-413.8737 535.7436,-411.1776 527.1725,-413.0475 527.1725,-413.0475"/>
<ellipse fill="none" stroke="#000000" cx="524.0415" cy="-412.3865" rx="3.2" ry="3.2"/>
</g>
<!-- gyms -->
<g id="node3" class="node">
<title>gyms</title>
<g id="a_node3"><a xlink:href="../../tables/gyms.html" xlink:title="gyms" target="_top">
<polygon fill="#ffffff" stroke="transparent" points="8,-186.2 8,-269.2 93,-269.2 93,-186.2 8,-186.2"/>
<polygon fill="#f5f5f5" stroke="transparent" points="8.5,-245.7 8.5,-268.7 93.5,-268.7 93.5,-245.7 8.5,-245.7"/>
<polygon fill="none" stroke="#000000" points="8.5,-245.7 8.5,-268.7 93.5,-268.7 93.5,-245.7 8.5,-245.7"/>
<text text-anchor="start" x="13.5" y="-254.8" font-family="Helvetica,sans-Serif" font-weight="bold" font-size="11.00" fill="#000000">gyms</text>
<text text-anchor="start" x="58.5437" y="-253.8" font-family="Helvetica,sans-Serif" font-size="11.00" fill="#000000">[table]</text>
<polygon fill="none" stroke="#000000" points="8.5,-223.7 8.5,-245.7 93.5,-245.7 93.5,-223.7 8.5,-223.7"/>
<image xlink:href="../../images/primaryKeys.png" width="11px" height="12px" preserveAspectRatio="xMinYMin meet" x="13.5" y="-240.7"/>
<text text-anchor="start" x="28.5" y="-230.8" font-family="Helvetica,sans-Serif" font-size="11.00" fill="#000000">id</text>
<polygon fill="none" stroke="#000000" points="8.5,-204.7 8.5,-223.7 93.5,-223.7 93.5,-204.7 8.5,-204.7"/>
<text text-anchor="start" x="11.5" y="-210.8" font-family="Helvetica,sans-Serif" font-size="11.00" fill="#000000">...</text>
<polygon fill="#ffffff" stroke="transparent" points="8.5,-185.7 8.5,-204.7 27.5,-204.7 27.5,-185.7 8.5,-185.7"/>
<polygon fill="none" stroke="#000000" points="8.5,-185.7 8.5,-204.7 27.5,-204.7 27.5,-185.7 8.5,-185.7"/>
<text text-anchor="start" x="11.5" y="-191.8" font-family="Helvetica,sans-Serif" font-size="11.00" fill="#000000"> &#160;</text>
<polygon fill="#ffffff" stroke="transparent" points="27.5,-185.7 27.5,-204.7 68.5,-204.7 68.5,-185.7 27.5,-185.7"/>
<polygon fill="none" stroke="#000000" points="27.5,-185.7 27.5,-204.7 68.5,-204.7 68.5,-185.7 27.5,-185.7"/>
<text text-anchor="start" x="33.1105" y="-191.8" font-family="Helvetica,sans-Serif" font-size="11.00" fill="#000000">0 rows</text>
<polygon fill="#ffffff" stroke="transparent" points="68.5,-185.7 68.5,-204.7 93.5,-204.7 93.5,-185.7 68.5,-185.7"/>
<polygon fill="none" stroke="#000000" points="68.5,-185.7 68.5,-204.7 93.5,-204.7 93.5,-185.7 68.5,-185.7"/>
<text text-anchor="start" x="74.9053" y="-191.8" font-family="Helvetica,sans-Serif" font-size="11.00" fill="#000000">4 &gt;</text>
</a>
</g>
</g>
<!-- challenges&#45;&gt;gyms -->
<g id="edge2" class="edge">
<title>challenges:w&#45;&gt;gyms:e</title>
<path fill="none" stroke="#000000" d="M520.5618,-414.8946C351.7943,-419.438 268.1234,-501.0105 134,-390.7 78.6761,-345.1986 165.1318,-234.7 93.5,-234.7"/>
<polygon fill="#000000" stroke="#000000" points="527.0007,-414.8079 535.0485,-418.2997 531.0004,-414.7539 535,-414.7 535,-414.7 535,-414.7 531.0004,-414.7539 534.9515,-411.1003 527.0007,-414.8079 527.0007,-414.8079"/>
<ellipse fill="none" stroke="#000000" cx="523.801" cy="-414.851" rx="3.2" ry="3.2"/>
</g>
<!-- skill_lists -->
<g id="node4" class="node">
<title>skill_lists</title>
<g id="a_node4"><a xlink:href="../../tables/skill_lists.html" xlink:title="skill_lists" target="_top">
<polygon fill="#ffffff" stroke="transparent" points="142,-202.7 142,-380.7 329,-380.7 329,-202.7 142,-202.7"/>
<polygon fill="#f5f5f5" stroke="transparent" points="144.5,-355.7 144.5,-378.7 327.5,-378.7 327.5,-355.7 144.5,-355.7"/>
<polygon fill="none" stroke="#000000" points="144.5,-355.7 144.5,-378.7 327.5,-378.7 327.5,-355.7 144.5,-355.7"/>
<text text-anchor="start" x="149.5" y="-364.8" font-family="Helvetica,sans-Serif" font-weight="bold" font-size="11.00" fill="#000000">skill_lists</text>
<text text-anchor="start" x="292.5437" y="-363.8" font-family="Helvetica,sans-Serif" font-size="11.00" fill="#000000">[table]</text>
<polygon fill="none" stroke="#000000" points="144.5,-333.7 144.5,-355.7 229.5,-355.7 229.5,-333.7 144.5,-333.7"/>
<image xlink:href="../../images/primaryKeys.png" width="11px" height="12px" preserveAspectRatio="xMinYMin meet" x="149.5" y="-350.7"/>
<text text-anchor="start" x="164.5" y="-340.8" font-family="Helvetica,sans-Serif" font-size="11.00" fill="#000000">id</text>
<polygon fill="none" stroke="#000000" points="229.5,-333.7 229.5,-355.7 327.5,-355.7 327.5,-333.7 229.5,-333.7"/>
<text text-anchor="start" x="232.3429" y="-341.4" font-family="Helvetica,sans-Serif" font-size="11.00" fill="#000000">bigint unsigned[20]</text>
<polygon fill="#ffffff" stroke="transparent" points="144.5,-311.7 144.5,-333.7 229.5,-333.7 229.5,-311.7 144.5,-311.7"/>
<polygon fill="none" stroke="#000000" points="144.5,-311.7 144.5,-333.7 229.5,-333.7 229.5,-311.7 144.5,-311.7"/>
<image xlink:href="../../images/foreignKeys.png" width="11px" height="12px" preserveAspectRatio="xMinYMin meet" x="149.5" y="-328.7"/>
<text text-anchor="start" x="164.5" y="-318.8" font-family="Helvetica,sans-Serif" font-size="11.00" fill="#000000">gym_id</text>
<polygon fill="none" stroke="#000000" points="229.5,-311.7 229.5,-333.7 327.5,-333.7 327.5,-311.7 229.5,-311.7"/>
<text text-anchor="start" x="232.5" y="-319.4" font-family="Helvetica,sans-Serif" font-size="11.00" fill="#000000">bigint[19]</text>
<polygon fill="none" stroke="#000000" points="144.5,-289.7 144.5,-311.7 229.5,-311.7 229.5,-289.7 144.5,-289.7"/>
<text text-anchor="start" x="164.5" y="-296.8" font-family="Helvetica,sans-Serif" font-size="11.00" fill="#000000">name</text>
<polygon fill="none" stroke="#000000" points="229.5,-289.7 229.5,-311.7 327.5,-311.7 327.5,-289.7 229.5,-289.7"/>
<text text-anchor="start" x="232.5" y="-297.4" font-family="Helvetica,sans-Serif" font-size="11.00" fill="#000000">varchar[45]</text>
<polygon fill="none" stroke="#000000" points="144.5,-267.7 144.5,-289.7 229.5,-289.7 229.5,-267.7 144.5,-267.7"/>
<text text-anchor="start" x="164.5" y="-274.8" font-family="Helvetica,sans-Serif" font-size="11.00" fill="#000000">created_at</text>
<polygon fill="none" stroke="#000000" points="229.5,-267.7 229.5,-289.7 327.5,-289.7 327.5,-267.7 229.5,-267.7"/>
<text text-anchor="start" x="232.5" y="-275.4" font-family="Helvetica,sans-Serif" font-size="11.00" fill="#000000">timestamp[19]</text>
<polygon fill="none" stroke="#000000" points="144.5,-245.7 144.5,-267.7 229.5,-267.7 229.5,-245.7 144.5,-245.7"/>
<text text-anchor="start" x="164.5" y="-252.8" font-family="Helvetica,sans-Serif" font-size="11.00" fill="#000000">updated_at</text>
<polygon fill="none" stroke="#000000" points="229.5,-245.7 229.5,-267.7 327.5,-267.7 327.5,-245.7 229.5,-245.7"/>
<text text-anchor="start" x="232.5" y="-253.4" font-family="Helvetica,sans-Serif" font-size="11.00" fill="#000000">timestamp[19]</text>
<polygon fill="none" stroke="#000000" points="144.5,-223.7 144.5,-245.7 229.5,-245.7 229.5,-223.7 144.5,-223.7"/>
<text text-anchor="start" x="164.5" y="-230.8" font-family="Helvetica,sans-Serif" font-size="11.00" fill="#000000">deleted_at</text>
<polygon fill="none" stroke="#000000" points="229.5,-223.7 229.5,-245.7 327.5,-245.7 327.5,-223.7 229.5,-223.7"/>
<text text-anchor="start" x="232.5" y="-231.4" font-family="Helvetica,sans-Serif" font-size="11.00" fill="#000000">timestamp[19]</text>
<polygon fill="#ffffff" stroke="transparent" points="144.5,-204.7 144.5,-223.7 178.5,-223.7 178.5,-204.7 144.5,-204.7"/>
<polygon fill="none" stroke="#000000" points="144.5,-204.7 144.5,-223.7 178.5,-223.7 178.5,-204.7 144.5,-204.7"/>
<text text-anchor="start" x="147.5" y="-210.8" font-family="Helvetica,sans-Serif" font-size="11.00" fill="#000000">&lt; 1</text>
<polygon fill="#ffffff" stroke="transparent" points="178.5,-204.7 178.5,-223.7 229.5,-223.7 229.5,-204.7 178.5,-204.7"/>
<polygon fill="none" stroke="#000000" points="178.5,-204.7 178.5,-223.7 229.5,-223.7 229.5,-204.7 178.5,-204.7"/>
<text text-anchor="start" x="194.1105" y="-210.8" font-family="Helvetica,sans-Serif" font-size="11.00" fill="#000000">0 rows</text>
<polygon fill="#ffffff" stroke="transparent" points="229.5,-204.7 229.5,-223.7 327.5,-223.7 327.5,-204.7 229.5,-204.7"/>
<polygon fill="none" stroke="#000000" points="229.5,-204.7 229.5,-223.7 327.5,-223.7 327.5,-204.7 229.5,-204.7"/>
<text text-anchor="start" x="308.9053" y="-210.8" font-family="Helvetica,sans-Serif" font-size="11.00" fill="#000000">2 &gt;</text>
<polygon fill="none" stroke="#000000" stroke-width="2" points="143,-203.7 143,-379.7 328,-379.7 328,-203.7 143,-203.7"/>
</a>
</g>
</g>
<!-- classes&#45;&gt;skill_lists -->
<g id="edge3" class="edge">
<title>classes:w&#45;&gt;skill_lists:e</title>
<path fill="none" stroke="#000000" d="M364.0097,-335.4188C351.8398,-338.5125 344.8909,-344.7 327.5,-344.7"/>
<polygon fill="#000000" stroke="#000000" points="370.5557,-334.6424 378.9241,-337.2749 374.5278,-334.1712 378.5,-333.7 378.5,-333.7 378.5,-333.7 374.5278,-334.1712 378.0759,-330.1251 370.5557,-334.6424 370.5557,-334.6424"/>
<ellipse fill="none" stroke="#000000" cx="367.378" cy="-335.0193" rx="3.2" ry="3.2"/>
</g>
<!-- skill_lists&#45;&gt;gyms -->
<g id="edge11" class="edge">
<title>skill_lists:w&#45;&gt;gyms:e</title>
<path fill="none" stroke="#000000" d="M130.5699,-318.4556C108.2709,-300.8772 132.7009,-234.7 93.5,-234.7"/>
<polygon fill="#000000" stroke="#000000" points="136.8473,-320.3682 143.4507,-326.1437 140.6737,-321.5341 144.5,-322.7 144.5,-322.7 144.5,-322.7 140.6737,-321.5341 145.5493,-319.2563 136.8473,-320.3682 136.8473,-320.3682"/>
<ellipse fill="none" stroke="#000000" cx="133.7863" cy="-319.4355" rx="3.2" ry="3.2"/>
</g>
<!-- daily_challenges -->
<g id="node5" class="node">
<title>daily_challenges</title>
<g id="a_node5"><a xlink:href="../../tables/daily_challenges.html" xlink:title="daily_challenges" target="_top">
<polygon fill="#ffffff" stroke="transparent" points="706.5,-308.2 706.5,-369.2 830.5,-369.2 830.5,-308.2 706.5,-308.2"/>
<polygon fill="#f5f5f5" stroke="transparent" points="706.5,-345.7 706.5,-368.7 830.5,-368.7 830.5,-345.7 706.5,-345.7"/>
<polygon fill="none" stroke="#000000" points="706.5,-345.7 706.5,-368.7 830.5,-368.7 830.5,-345.7 706.5,-345.7"/>
<text text-anchor="start" x="711.3512" y="-354.8" font-family="Helvetica,sans-Serif" font-weight="bold" font-size="11.00" fill="#000000">daily_challenges</text>
<text text-anchor="start" x="796.0219" y="-353.8" font-family="Helvetica,sans-Serif" font-size="11.00" fill="#000000">[table]</text>
<polygon fill="none" stroke="#000000" points="706.5,-326.7 706.5,-345.7 830.5,-345.7 830.5,-326.7 706.5,-326.7"/>
<text text-anchor="start" x="709.5" y="-332.8" font-family="Helvetica,sans-Serif" font-size="11.00" fill="#000000">...</text>
<polygon fill="#ffffff" stroke="transparent" points="706.5,-307.7 706.5,-326.7 749.5,-326.7 749.5,-307.7 706.5,-307.7"/>
<polygon fill="none" stroke="#000000" points="706.5,-307.7 706.5,-326.7 749.5,-326.7 749.5,-307.7 706.5,-307.7"/>
<text text-anchor="start" x="709.5" y="-313.8" font-family="Helvetica,sans-Serif" font-size="11.00" fill="#000000">&lt; 2</text>
<polygon fill="#ffffff" stroke="transparent" points="749.5,-307.7 749.5,-326.7 798.5,-326.7 798.5,-307.7 749.5,-307.7"/>
<polygon fill="none" stroke="#000000" points="749.5,-307.7 749.5,-326.7 798.5,-326.7 798.5,-307.7 749.5,-307.7"/>
<text text-anchor="start" x="763.1105" y="-313.8" font-family="Helvetica,sans-Serif" font-size="11.00" fill="#000000">0 rows</text>
<polygon fill="#ffffff" stroke="transparent" points="798.5,-307.7 798.5,-326.7 830.5,-326.7 830.5,-307.7 798.5,-307.7"/>
<polygon fill="none" stroke="#000000" points="798.5,-307.7 798.5,-326.7 830.5,-326.7 830.5,-307.7 798.5,-307.7"/>
<text text-anchor="start" x="811.9053" y="-313.8" font-family="Helvetica,sans-Serif" font-size="11.00" fill="#000000">3 &gt;</text>
</a>
</g>
</g>
<!-- daily_challenges&#45;&gt;challenges -->
<g id="edge4" class="edge">
<title>daily_challenges:w&#45;&gt;challenges:e</title>
<path fill="none" stroke="#000000" d="M691.9807,-338.7004C661.6423,-353.1307 673.1477,-414.7 630,-414.7"/>
<polygon fill="#000000" stroke="#000000" points="698.6655,-337.319 707.2286,-339.2255 702.5828,-336.5095 706.5,-335.7 706.5,-335.7 706.5,-335.7 702.5828,-336.5095 705.7714,-332.1745 698.6655,-337.319 698.6655,-337.319"/>
<ellipse fill="none" stroke="#000000" cx="695.5317" cy="-337.9667" rx="3.2" ry="3.2"/>
</g>
<!-- daily_challenges&#45;&gt;classes -->
<g id="edge5" class="edge">
<title>daily_challenges:w&#45;&gt;classes:e</title>
<path fill="none" stroke="#000000" d="M692.2879,-331.5C680.3671,-322.6399 679.9345,-302.2333 660,-294.7 595.1432,-270.1906 565.0984,-261.9266 504,-294.7 475.3227,-310.0826 496.0425,-355.7 463.5,-355.7"/>
<polygon fill="#000000" stroke="#000000" points="698.828,-333.4327 705.4797,-339.1524 702.664,-334.5664 706.5,-335.7 706.5,-335.7 706.5,-335.7 702.664,-334.5664 707.5203,-332.2476 698.828,-333.4327 698.828,-333.4327"/>
<ellipse fill="none" stroke="#000000" cx="695.7592" cy="-332.5258" rx="3.2" ry="3.2"/>
</g>
<!-- events -->
<g id="node6" class="node">
<title>events</title>
<g id="a_node6"><a xlink:href="../../tables/events.html" xlink:title="events" target="_top">
<polygon fill="#ffffff" stroke="transparent" points="195.5,-120.2 195.5,-181.2 275.5,-181.2 275.5,-120.2 195.5,-120.2"/>
<polygon fill="#f5f5f5" stroke="transparent" points="195.5,-157.7 195.5,-180.7 275.5,-180.7 275.5,-157.7 195.5,-157.7"/>
<polygon fill="none" stroke="#000000" points="195.5,-157.7 195.5,-180.7 275.5,-180.7 275.5,-157.7 195.5,-157.7"/>
<text text-anchor="start" x="200.5" y="-166.8" font-family="Helvetica,sans-Serif" font-weight="bold" font-size="11.00" fill="#000000">events</text>
<text text-anchor="start" x="240.5437" y="-165.8" font-family="Helvetica,sans-Serif" font-size="11.00" fill="#000000">[table]</text>
<polygon fill="none" stroke="#000000" points="195.5,-138.7 195.5,-157.7 275.5,-157.7 275.5,-138.7 195.5,-138.7"/>
<text text-anchor="start" x="198.5" y="-144.8" font-family="Helvetica,sans-Serif" font-size="11.00" fill="#000000">...</text>
<polygon fill="#ffffff" stroke="transparent" points="195.5,-119.7 195.5,-138.7 216.5,-138.7 216.5,-119.7 195.5,-119.7"/>
<polygon fill="none" stroke="#000000" points="195.5,-119.7 195.5,-138.7 216.5,-138.7 216.5,-119.7 195.5,-119.7"/>
<text text-anchor="start" x="198.2027" y="-125.8" font-family="Helvetica,sans-Serif" font-size="11.00" fill="#000000">&lt; 1</text>
<polygon fill="#ffffff" stroke="transparent" points="216.5,-119.7 216.5,-138.7 254.5,-138.7 254.5,-119.7 216.5,-119.7"/>
<polygon fill="none" stroke="#000000" points="216.5,-119.7 216.5,-138.7 254.5,-138.7 254.5,-119.7 216.5,-119.7"/>
<text text-anchor="start" x="219.3053" y="-125.8" font-family="Helvetica,sans-Serif" font-size="11.00" fill="#000000">0 rows</text>
<polygon fill="#ffffff" stroke="transparent" points="254.5,-119.7 254.5,-138.7 275.5,-138.7 275.5,-119.7 254.5,-119.7"/>
<polygon fill="none" stroke="#000000" points="254.5,-119.7 254.5,-138.7 275.5,-138.7 275.5,-119.7 254.5,-119.7"/>
<text text-anchor="start" x="257.2027" y="-125.8" font-family="Helvetica,sans-Serif" font-size="11.00" fill="#000000">1 &gt;</text>
</a>
</g>
</g>
<!-- events&#45;&gt;gyms -->
<g id="edge6" class="edge">
<title>events:w&#45;&gt;gyms:e</title>
<path fill="none" stroke="#000000" d="M180.9357,-149.4498C160.3823,-155.0586 155.0566,-173.2998 134,-191.7 114.2311,-208.9749 119.7533,-234.7 93.5,-234.7"/>
<polygon fill="#000000" stroke="#000000" points="187.5571,-148.6543 195.9294,-151.2743 191.5286,-148.1772 195.5,-147.7 195.5,-147.7 195.5,-147.7 191.5286,-148.1772 195.0706,-144.1257 187.5571,-148.6543 187.5571,-148.6543"/>
<ellipse fill="none" stroke="#000000" cx="184.38" cy="-149.036" rx="3.2" ry="3.2"/>
</g>
<!-- gymnasts_classes -->
<g id="node7" class="node">
<title>gymnasts_classes</title>
<g id="a_node7"><a xlink:href="../../tables/gymnasts_classes.html" xlink:title="gymnasts_classes" target="_top">
<polygon fill="#ffffff" stroke="transparent" points="516,-305.2 516,-366.2 648,-366.2 648,-305.2 516,-305.2"/>
<polygon fill="#f5f5f5" stroke="transparent" points="516,-342.7 516,-365.7 648,-365.7 648,-342.7 516,-342.7"/>
<polygon fill="none" stroke="#000000" points="516,-342.7 516,-365.7 648,-365.7 648,-342.7 516,-342.7"/>
<text text-anchor="start" x="520.5755" y="-351.8" font-family="Helvetica,sans-Serif" font-weight="bold" font-size="11.00" fill="#000000">gymnasts_classes</text>
<text text-anchor="start" x="613.5219" y="-350.8" font-family="Helvetica,sans-Serif" font-size="11.00" fill="#000000">[table]</text>
<polygon fill="none" stroke="#000000" points="516,-323.7 516,-342.7 648,-342.7 648,-323.7 516,-323.7"/>
<text text-anchor="start" x="519" y="-329.8" font-family="Helvetica,sans-Serif" font-size="11.00" fill="#000000">...</text>
<polygon fill="#ffffff" stroke="transparent" points="516,-304.7 516,-323.7 567,-323.7 567,-304.7 516,-304.7"/>
<polygon fill="none" stroke="#000000" points="516,-304.7 516,-323.7 567,-323.7 567,-304.7 516,-304.7"/>
<text text-anchor="start" x="519" y="-310.8" font-family="Helvetica,sans-Serif" font-size="11.00" fill="#000000">&lt; 2</text>
<polygon fill="#ffffff" stroke="transparent" points="567,-304.7 567,-323.7 620,-323.7 620,-304.7 567,-304.7"/>
<polygon fill="none" stroke="#000000" points="567,-304.7 567,-323.7 620,-323.7 620,-304.7 567,-304.7"/>
<text text-anchor="start" x="584.6105" y="-310.8" font-family="Helvetica,sans-Serif" font-size="11.00" fill="#000000">0 rows</text>
<polygon fill="#ffffff" stroke="transparent" points="620,-304.7 620,-323.7 648,-323.7 648,-304.7 620,-304.7"/>
<polygon fill="none" stroke="#000000" points="620,-304.7 620,-323.7 648,-323.7 648,-304.7 620,-304.7"/>
<text text-anchor="start" x="638.8862" y="-310.8" font-family="Helvetica,sans-Serif" font-size="11.00" fill="#000000"> &#160;</text>
</a>
</g>
</g>
<!-- gymnasts_classes&#45;&gt;classes -->
<g id="edge7" class="edge">
<title>gymnasts_classes:w&#45;&gt;classes:e</title>
<path fill="none" stroke="#000000" d="M501.8129,-335.7068C488.5948,-341.9413 483.2028,-355.7 463.5,-355.7"/>
<polygon fill="#000000" stroke="#000000" points="508.1738,-334.3587 516.7464,-336.2218 512.0869,-333.5294 516,-332.7 516,-332.7 516,-332.7 512.0869,-333.5294 515.2536,-329.1782 508.1738,-334.3587 508.1738,-334.3587"/>
<ellipse fill="none" stroke="#000000" cx="505.0434" cy="-335.0222" rx="3.2" ry="3.2"/>
</g>
<!-- gyms_has_users -->
<g id="node8" class="node">
<title>gyms_has_users</title>
<g id="a_node8"><a xlink:href="../../tables/gyms_has_users.html" xlink:title="gyms_has_users" target="_top">
<polygon fill="#ffffff" stroke="transparent" points="172.5,-38.2 172.5,-99.2 298.5,-99.2 298.5,-38.2 172.5,-38.2"/>
<polygon fill="#f5f5f5" stroke="transparent" points="172.5,-75.7 172.5,-98.7 298.5,-98.7 298.5,-75.7 172.5,-75.7"/>
<polygon fill="none" stroke="#000000" points="172.5,-75.7 172.5,-98.7 298.5,-98.7 298.5,-75.7 172.5,-75.7"/>
<text text-anchor="start" x="177.436" y="-84.8" font-family="Helvetica,sans-Serif" font-weight="bold" font-size="11.00" fill="#000000">gyms_has_users</text>
<text text-anchor="start" x="264.0219" y="-83.8" font-family="Helvetica,sans-Serif" font-size="11.00" fill="#000000">[table]</text>
<polygon fill="none" stroke="#000000" points="172.5,-56.7 172.5,-75.7 298.5,-75.7 298.5,-56.7 172.5,-56.7"/>
<text text-anchor="start" x="175.5" y="-62.8" font-family="Helvetica,sans-Serif" font-size="11.00" fill="#000000">...</text>
<polygon fill="#ffffff" stroke="transparent" points="172.5,-37.7 172.5,-56.7 216.5,-56.7 216.5,-37.7 172.5,-37.7"/>
<polygon fill="none" stroke="#000000" points="172.5,-37.7 172.5,-56.7 216.5,-56.7 216.5,-37.7 172.5,-37.7"/>
<text text-anchor="start" x="175.5" y="-43.8" font-family="Helvetica,sans-Serif" font-size="11.00" fill="#000000">&lt; 2</text>
<polygon fill="#ffffff" stroke="transparent" points="216.5,-37.7 216.5,-56.7 265.5,-56.7 265.5,-37.7 216.5,-37.7"/>
<polygon fill="none" stroke="#000000" points="216.5,-37.7 216.5,-56.7 265.5,-56.7 265.5,-37.7 216.5,-37.7"/>
<text text-anchor="start" x="230.1105" y="-43.8" font-family="Helvetica,sans-Serif" font-size="11.00" fill="#000000">0 rows</text>
<polygon fill="#ffffff" stroke="transparent" points="265.5,-37.7 265.5,-56.7 298.5,-56.7 298.5,-37.7 265.5,-37.7"/>
<polygon fill="none" stroke="#000000" points="265.5,-37.7 265.5,-56.7 298.5,-56.7 298.5,-37.7 265.5,-37.7"/>
<text text-anchor="start" x="279.9053" y="-43.8" font-family="Helvetica,sans-Serif" font-size="11.00" fill="#000000">2 &gt;</text>
</a>
</g>
</g>
<!-- gyms_has_users&#45;&gt;gyms -->
<g id="edge8" class="edge">
<title>gyms_has_users:w&#45;&gt;gyms:e</title>
<path fill="none" stroke="#000000" d="M158.1284,-67.8368C100.3705,-87.4001 170.9065,-234.7 93.5,-234.7"/>
<polygon fill="#000000" stroke="#000000" points="164.587,-66.8766 173.0295,-69.2609 168.5435,-66.2883 172.5,-65.7 172.5,-65.7 172.5,-65.7 168.5435,-66.2883 171.9705,-62.1391 164.587,-66.8766 164.587,-66.8766"/>
<ellipse fill="none" stroke="#000000" cx="161.4218" cy="-67.3472" rx="3.2" ry="3.2"/>
</g>
<!-- normal_challenges -->
<g id="node9" class="node">
<title>normal_challenges</title>
<g id="a_node9"><a xlink:href="../../tables/normal_challenges.html" xlink:title="normal_challenges" target="_top">
<polygon fill="#ffffff" stroke="transparent" points="701,-416.2 701,-477.2 836,-477.2 836,-416.2 701,-416.2"/>
<polygon fill="#f5f5f5" stroke="transparent" points="701.5,-453.7 701.5,-476.7 836.5,-476.7 836.5,-453.7 701.5,-453.7"/>
<polygon fill="none" stroke="#000000" points="701.5,-453.7 701.5,-476.7 836.5,-476.7 836.5,-453.7 701.5,-453.7"/>
<text text-anchor="start" x="706.3523" y="-462.8" font-family="Helvetica,sans-Serif" font-weight="bold" font-size="11.00" fill="#000000">normal_challenges</text>
<text text-anchor="start" x="802.0219" y="-461.8" font-family="Helvetica,sans-Serif" font-size="11.00" fill="#000000">[table]</text>
<polygon fill="none" stroke="#000000" points="701.5,-434.7 701.5,-453.7 836.5,-453.7 836.5,-434.7 701.5,-434.7"/>
<text text-anchor="start" x="704.5" y="-440.8" font-family="Helvetica,sans-Serif" font-size="11.00" fill="#000000">...</text>
<polygon fill="#ffffff" stroke="transparent" points="701.5,-415.7 701.5,-434.7 749.5,-434.7 749.5,-415.7 701.5,-415.7"/>
<polygon fill="none" stroke="#000000" points="701.5,-415.7 701.5,-434.7 749.5,-434.7 749.5,-415.7 701.5,-415.7"/>
<text text-anchor="start" x="704.5" y="-421.8" font-family="Helvetica,sans-Serif" font-size="11.00" fill="#000000">&lt; 2</text>
<polygon fill="#ffffff" stroke="transparent" points="749.5,-415.7 749.5,-434.7 801.5,-434.7 801.5,-415.7 749.5,-415.7"/>
<polygon fill="none" stroke="#000000" points="749.5,-415.7 749.5,-434.7 801.5,-434.7 801.5,-415.7 749.5,-415.7"/>
<text text-anchor="start" x="766.1105" y="-421.8" font-family="Helvetica,sans-Serif" font-size="11.00" fill="#000000">0 rows</text>
<polygon fill="#ffffff" stroke="transparent" points="801.5,-415.7 801.5,-434.7 836.5,-434.7 836.5,-415.7 801.5,-415.7"/>
<polygon fill="none" stroke="#000000" points="801.5,-415.7 801.5,-434.7 836.5,-434.7 836.5,-415.7 801.5,-415.7"/>
<text text-anchor="start" x="817.9053" y="-421.8" font-family="Helvetica,sans-Serif" font-size="11.00" fill="#000000">2 &gt;</text>
</a>
</g>
</g>
<!-- normal_challenges&#45;&gt;challenges -->
<g id="edge9" class="edge">
<title>normal_challenges:w&#45;&gt;challenges:e</title>
<path fill="none" stroke="#000000" d="M687.1803,-441.7067C665.4691,-435.1548 658.8,-414.7 630,-414.7"/>
<polygon fill="#000000" stroke="#000000" points="693.5764,-442.597 701.0036,-447.2656 697.5382,-443.1485 701.5,-443.7 701.5,-443.7 701.5,-443.7 697.5382,-443.1485 701.9964,-440.1344 693.5764,-442.597 693.5764,-442.597"/>
<ellipse fill="none" stroke="#000000" cx="690.407" cy="-442.1558" rx="3.2" ry="3.2"/>
</g>
<!-- normal_challenges&#45;&gt;classes -->
<g id="edge10" class="edge">
<title>normal_challenges:w&#45;&gt;classes:e</title>
<path fill="none" stroke="#000000" d="M687.0752,-446.4974C678.6461,-450.1561 673.2812,-456.3734 660,-458.7 591.7066,-470.6634 561.2983,-497.7387 504,-458.7 463.349,-431.0035 512.6895,-355.7 463.5,-355.7"/>
<polygon fill="#000000" stroke="#000000" points="693.6463,-445.2231 702.1854,-447.2342 697.5732,-444.4616 701.5,-443.7 701.5,-443.7 701.5,-443.7 697.5732,-444.4616 700.8146,-440.1658 693.6463,-445.2231 693.6463,-445.2231"/>
<ellipse fill="none" stroke="#000000" cx="690.5048" cy="-445.8323" rx="3.2" ry="3.2"/>
</g>
<!-- skill_lists_has_skills -->
<g id="node10" class="node">
<title>skill_lists_has_skills</title>
<g id="a_node10"><a xlink:href="../../tables/skill_lists_has_skills.html" xlink:title="skill_lists_has_skills" target="_top">
<polygon fill="#ffffff" stroke="transparent" points="512,-125.2 512,-230.2 652,-230.2 652,-125.2 512,-125.2"/>
<polygon fill="#f5f5f5" stroke="transparent" points="512,-206.7 512,-229.7 652,-229.7 652,-206.7 512,-206.7"/>
<polygon fill="none" stroke="#000000" points="512,-206.7 512,-229.7 652,-229.7 652,-206.7 512,-206.7"/>
<text text-anchor="start" x="516.9207" y="-215.8" font-family="Helvetica,sans-Serif" font-weight="bold" font-size="11.00" fill="#000000">skill_lists_has_skills</text>
<text text-anchor="start" x="617.5219" y="-214.8" font-family="Helvetica,sans-Serif" font-size="11.00" fill="#000000">[table]</text>
<polygon fill="none" stroke="#000000" points="512,-184.7 512,-206.7 652,-206.7 652,-184.7 512,-184.7"/>
<image xlink:href="../../images/primaryKeys.png" width="11px" height="12px" preserveAspectRatio="xMinYMin meet" x="517" y="-201.7"/>
<text text-anchor="start" x="533" y="-191.8" font-family="Helvetica,sans-Serif" font-size="11.00" fill="#000000">skill_list_id</text>
<polygon fill="none" stroke="#000000" points="512,-162.7 512,-184.7 652,-184.7 652,-162.7 512,-162.7"/>
<image xlink:href="../../images/primaryKeys.png" width="11px" height="12px" preserveAspectRatio="xMinYMin meet" x="517" y="-179.7"/>
<text text-anchor="start" x="533" y="-169.8" font-family="Helvetica,sans-Serif" font-size="11.00" fill="#000000">skill_id</text>
<polygon fill="none" stroke="#000000" points="512,-143.7 512,-162.7 652,-162.7 652,-143.7 512,-143.7"/>
<text text-anchor="start" x="515" y="-149.8" font-family="Helvetica,sans-Serif" font-size="11.00" fill="#000000">...</text>
<polygon fill="#ffffff" stroke="transparent" points="512,-124.7 512,-143.7 567,-143.7 567,-124.7 512,-124.7"/>
<polygon fill="none" stroke="#000000" points="512,-124.7 512,-143.7 567,-143.7 567,-124.7 512,-124.7"/>
<text text-anchor="start" x="515" y="-130.8" font-family="Helvetica,sans-Serif" font-size="11.00" fill="#000000">&lt; 2</text>
<polygon fill="#ffffff" stroke="transparent" points="567,-124.7 567,-143.7 622,-143.7 622,-124.7 567,-124.7"/>
<polygon fill="none" stroke="#000000" points="567,-124.7 567,-143.7 622,-143.7 622,-124.7 567,-124.7"/>
<text text-anchor="start" x="586.6105" y="-130.8" font-family="Helvetica,sans-Serif" font-size="11.00" fill="#000000">0 rows</text>
<polygon fill="#ffffff" stroke="transparent" points="622,-124.7 622,-143.7 652,-143.7 652,-124.7 622,-124.7"/>
<polygon fill="none" stroke="#000000" points="622,-124.7 622,-143.7 652,-143.7 652,-124.7 622,-124.7"/>
<text text-anchor="start" x="642.8862" y="-130.8" font-family="Helvetica,sans-Serif" font-size="11.00" fill="#000000"> &#160;</text>
</a>
</g>
</g>
<!-- skill_lists_has_skills&#45;&gt;skill_lists -->
<g id="edge13" class="edge">
<title>skill_lists_has_skills:w&#45;&gt;skill_lists:e</title>
<path fill="none" stroke="#000000" d="M497.659,-197.7895C457.9085,-207.9488 392.9653,-252.5903 370,-274.7 343.7801,-299.943 363.8963,-344.7 327.5,-344.7"/>
<polygon fill="#000000" stroke="#000000" points="504.0836,-196.8535 512.5191,-199.2624 508.0418,-196.2767 512,-195.7 512,-195.7 512,-195.7 508.0418,-196.2767 511.4809,-192.1376 504.0836,-196.8535 504.0836,-196.8535"/>
<ellipse fill="none" stroke="#000000" cx="500.917" cy="-197.3149" rx="3.2" ry="3.2"/>
</g>
<!-- skills -->
<g id="node11" class="node">
<title>skills</title>
<g id="a_node11"><a xlink:href="../../tables/skills.html" xlink:title="skills" target="_top">
<polygon fill="#ffffff" stroke="transparent" points="380.5,-133.2 380.5,-194.2 460.5,-194.2 460.5,-133.2 380.5,-133.2"/>
<polygon fill="#f5f5f5" stroke="transparent" points="380.5,-170.7 380.5,-193.7 460.5,-193.7 460.5,-170.7 380.5,-170.7"/>
<polygon fill="none" stroke="#000000" points="380.5,-170.7 380.5,-193.7 460.5,-193.7 460.5,-170.7 380.5,-170.7"/>
<text text-anchor="start" x="385.5" y="-179.8" font-family="Helvetica,sans-Serif" font-weight="bold" font-size="11.00" fill="#000000">skills</text>
<text text-anchor="start" x="425.5437" y="-178.8" font-family="Helvetica,sans-Serif" font-size="11.00" fill="#000000">[table]</text>
<polygon fill="none" stroke="#000000" points="380.5,-151.7 380.5,-170.7 460.5,-170.7 460.5,-151.7 380.5,-151.7"/>
<text text-anchor="start" x="383.5" y="-157.8" font-family="Helvetica,sans-Serif" font-size="11.00" fill="#000000">...</text>
<polygon fill="#ffffff" stroke="transparent" points="380.5,-132.7 380.5,-151.7 401.5,-151.7 401.5,-132.7 380.5,-132.7"/>
<polygon fill="none" stroke="#000000" points="380.5,-132.7 380.5,-151.7 401.5,-151.7 401.5,-132.7 380.5,-132.7"/>
<text text-anchor="start" x="383.2027" y="-138.8" font-family="Helvetica,sans-Serif" font-size="11.00" fill="#000000">&lt; 3</text>
<polygon fill="#ffffff" stroke="transparent" points="401.5,-132.7 401.5,-151.7 439.5,-151.7 439.5,-132.7 401.5,-132.7"/>
<polygon fill="none" stroke="#000000" points="401.5,-132.7 401.5,-151.7 439.5,-151.7 439.5,-132.7 401.5,-132.7"/>
<text text-anchor="start" x="404.3053" y="-138.8" font-family="Helvetica,sans-Serif" font-size="11.00" fill="#000000">0 rows</text>
<polygon fill="#ffffff" stroke="transparent" points="439.5,-132.7 439.5,-151.7 460.5,-151.7 460.5,-132.7 439.5,-132.7"/>
<polygon fill="none" stroke="#000000" points="439.5,-132.7 439.5,-151.7 460.5,-151.7 460.5,-132.7 439.5,-132.7"/>
<text text-anchor="start" x="442.2027" y="-138.8" font-family="Helvetica,sans-Serif" font-size="11.00" fill="#000000">2 &gt;</text>
</a>
</g>
</g>
<!-- skill_lists_has_skills&#45;&gt;skills -->
<g id="edge12" class="edge">
<title>skill_lists_has_skills:w&#45;&gt;skills:e</title>
<path fill="none" stroke="#000000" d="M497.699,-171.7818C485.1837,-168.1656 478.3896,-160.7 460.5,-160.7"/>
<polygon fill="#000000" stroke="#000000" points="504.071,-172.6364 511.5214,-177.268 508.0355,-173.1682 512,-173.7 512,-173.7 512,-173.7 508.0355,-173.1682 512.4786,-170.132 504.071,-172.6364 504.071,-172.6364"/>
<ellipse fill="none" stroke="#000000" cx="500.8994" cy="-172.211" rx="3.2" ry="3.2"/>
</g>
<!-- skills&#45;&gt;events -->
<g id="edge14" class="edge">
<title>skills:w&#45;&gt;events:e</title>
<path fill="none" stroke="#000000" d="M365.8032,-160.2373C330.5324,-157.9215 317.1962,-147.7 275.5,-147.7"/>
<polygon fill="#000000" stroke="#000000" points="372.504,-160.4482 380.3867,-164.2982 376.502,-160.5741 380.5,-160.7 380.5,-160.7 380.5,-160.7 376.502,-160.5741 380.6133,-157.1018 372.504,-160.4482 372.504,-160.4482"/>
<ellipse fill="none" stroke="#000000" cx="369.3055" cy="-160.3475" rx="3.2" ry="3.2"/>
</g>
</g>
</svg>
