<?xml version="1.0" encoding="UTF-8" standalone="no"?>
<!DOCTYPE svg PUBLIC "-//W3C//DTD SVG 1.1//EN"
 "http://www.w3.org/Graphics/SVG/1.1/DTD/svg11.dtd">
<!-- Generated by graphviz version 2.40.1 (20161225.0304)
 -->
<!-- Title: twoDegreesRelationshipsDiagram Pages: 1 -->
<svg width="705pt" height="275pt"
 viewBox="0.00 0.00 705.00 275.20" xmlns="http://www.w3.org/2000/svg" xmlns:xlink="http://www.w3.org/1999/xlink">
<g id="graph0" class="graph" transform="scale(1 1) rotate(0) translate(4 271.2)">
<title>twoDegreesRelationshipsDiagram</title>
<polygon fill="#ffffff" stroke="transparent" points="-4,4 -4,-271.2 701,-271.2 701,4 -4,4"/>
<text text-anchor="middle" x="72.4936" y="-7.3" font-family="Helvetica,sans-Serif" font-size="11.00" fill="#000000">Generated by SchemaSpy</text>
<!-- events -->
<g id="node1" class="node">
<title>events</title>
<g id="a_node1"><a xlink:href="../../tables/events.html" xlink:title="events" target="_top">
<polygon fill="#ffffff" stroke="transparent" points="165,-56.2 165,-117.2 245,-117.2 245,-56.2 165,-56.2"/>
<polygon fill="#f5f5f5" stroke="transparent" points="165,-93.7 165,-116.7 245,-116.7 245,-93.7 165,-93.7"/>
<polygon fill="none" stroke="#000000" points="165,-93.7 165,-116.7 245,-116.7 245,-93.7 165,-93.7"/>
<text text-anchor="start" x="170" y="-102.8" font-family="Helvetica,sans-Serif" font-weight="bold" font-size="11.00" fill="#000000">events</text>
<text text-anchor="start" x="210.0437" y="-101.8" font-family="Helvetica,sans-Serif" font-size="11.00" fill="#000000">[table]</text>
<polygon fill="none" stroke="#000000" points="165,-74.7 165,-93.7 245,-93.7 245,-74.7 165,-74.7"/>
<text text-anchor="start" x="168" y="-80.8" font-family="Helvetica,sans-Serif" font-size="11.00" fill="#000000">...</text>
<polygon fill="#ffffff" stroke="transparent" points="165,-55.7 165,-74.7 186,-74.7 186,-55.7 165,-55.7"/>
<polygon fill="none" stroke="#000000" points="165,-55.7 165,-74.7 186,-74.7 186,-55.7 165,-55.7"/>
<text text-anchor="start" x="167.7027" y="-61.8" font-family="Helvetica,sans-Serif" font-size="11.00" fill="#000000">&lt; 1</text>
<polygon fill="#ffffff" stroke="transparent" points="186,-55.7 186,-74.7 224,-74.7 224,-55.7 186,-55.7"/>
<polygon fill="none" stroke="#000000" points="186,-55.7 186,-74.7 224,-74.7 224,-55.7 186,-55.7"/>
<text text-anchor="start" x="188.8053" y="-61.8" font-family="Helvetica,sans-Serif" font-size="11.00" fill="#000000">0 rows</text>
<polygon fill="#ffffff" stroke="transparent" points="224,-55.7 224,-74.7 245,-74.7 245,-55.7 224,-55.7"/>
<polygon fill="none" stroke="#000000" points="224,-55.7 224,-74.7 245,-74.7 245,-55.7 224,-55.7"/>
<text text-anchor="start" x="226.7027" y="-61.8" font-family="Helvetica,sans-Serif" font-size="11.00" fill="#000000">1 &gt;</text>
</a>
</g>
</g>
<!-- gyms -->
<g id="node2" class="node">
<title>gyms</title>
<g id="a_node2"><a xlink:href="../../tables/gyms.html" xlink:title="gyms" target="_top">
<polygon fill="#ffffff" stroke="transparent" points="8,-129.2 8,-212.2 93,-212.2 93,-129.2 8,-129.2"/>
<polygon fill="#f5f5f5" stroke="transparent" points="8.5,-188.7 8.5,-211.7 93.5,-211.7 93.5,-188.7 8.5,-188.7"/>
<polygon fill="none" stroke="#000000" points="8.5,-188.7 8.5,-211.7 93.5,-211.7 93.5,-188.7 8.5,-188.7"/>
<text text-anchor="start" x="13.5" y="-197.8" font-family="Helvetica,sans-Serif" font-weight="bold" font-size="11.00" fill="#000000">gyms</text>
<text text-anchor="start" x="58.5437" y="-196.8" font-family="Helvetica,sans-Serif" font-size="11.00" fill="#000000">[table]</text>
<polygon fill="none" stroke="#000000" points="8.5,-166.7 8.5,-188.7 93.5,-188.7 93.5,-166.7 8.5,-166.7"/>
<image xlink:href="../../images/primaryKeys.png" width="11px" height="12px" preserveAspectRatio="xMinYMin meet" x="13.5" y="-183.7"/>
<text text-anchor="start" x="28.5" y="-173.8" font-family="Helvetica,sans-Serif" font-size="11.00" fill="#000000">id</text>
<polygon fill="none" stroke="#000000" points="8.5,-147.7 8.5,-166.7 93.5,-166.7 93.5,-147.7 8.5,-147.7"/>
<text text-anchor="start" x="11.5" y="-153.8" font-family="Helvetica,sans-Serif" font-size="11.00" fill="#000000">...</text>
<polygon fill="#ffffff" stroke="transparent" points="8.5,-128.7 8.5,-147.7 27.5,-147.7 27.5,-128.7 8.5,-128.7"/>
<polygon fill="none" stroke="#000000" points="8.5,-128.7 8.5,-147.7 27.5,-147.7 27.5,-128.7 8.5,-128.7"/>
<text text-anchor="start" x="11.5" y="-134.8" font-family="Helvetica,sans-Serif" font-size="11.00" fill="#000000"> &#160;</text>
<polygon fill="#ffffff" stroke="transparent" points="27.5,-128.7 27.5,-147.7 68.5,-147.7 68.5,-128.7 27.5,-128.7"/>
<polygon fill="none" stroke="#000000" points="27.5,-128.7 27.5,-147.7 68.5,-147.7 68.5,-128.7 27.5,-128.7"/>
<text text-anchor="start" x="33.1105" y="-134.8" font-family="Helvetica,sans-Serif" font-size="11.00" fill="#000000">0 rows</text>
<polygon fill="#ffffff" stroke="transparent" points="68.5,-128.7 68.5,-147.7 93.5,-147.7 93.5,-128.7 68.5,-128.7"/>
<polygon fill="none" stroke="#000000" points="68.5,-128.7 68.5,-147.7 93.5,-147.7 93.5,-128.7 68.5,-128.7"/>
<text text-anchor="start" x="74.9053" y="-134.8" font-family="Helvetica,sans-Serif" font-size="11.00" fill="#000000">3 &gt;</text>
</a>
</g>
</g>
<!-- events&#45;&gt;gyms -->
<g id="edge1" class="edge">
<title>events:w&#45;&gt;gyms:e</title>
<path fill="none" stroke="#000000" d="M150.6371,-86.8275C118.8052,-103.138 140.249,-177.7 93.5,-177.7"/>
<polygon fill="#000000" stroke="#000000" points="157.1832,-85.4022 165.766,-87.2176 161.0916,-84.5511 165,-83.7 165,-83.7 165,-83.7 161.0916,-84.5511 164.234,-80.1824 157.1832,-85.4022 157.1832,-85.4022"/>
<ellipse fill="none" stroke="#000000" cx="154.0564" cy="-86.083" rx="3.2" ry="3.2"/>
</g>
<!-- gyms_has_users -->
<g id="node3" class="node">
<title>gyms_has_users</title>
<g id="a_node3"><a xlink:href="../../tables/gyms_has_users.html" xlink:title="gyms_has_users" target="_top">
<polygon fill="#ffffff" stroke="transparent" points="142,-202.2 142,-263.2 268,-263.2 268,-202.2 142,-202.2"/>
<polygon fill="#f5f5f5" stroke="transparent" points="142,-239.7 142,-262.7 268,-262.7 268,-239.7 142,-239.7"/>
<polygon fill="none" stroke="#000000" points="142,-239.7 142,-262.7 268,-262.7 268,-239.7 142,-239.7"/>
<text text-anchor="start" x="146.936" y="-248.8" font-family="Helvetica,sans-Serif" font-weight="bold" font-size="11.00" fill="#000000">gyms_has_users</text>
<text text-anchor="start" x="233.5219" y="-247.8" font-family="Helvetica,sans-Serif" font-size="11.00" fill="#000000">[table]</text>
<polygon fill="none" stroke="#000000" points="142,-220.7 142,-239.7 268,-239.7 268,-220.7 142,-220.7"/>
<text text-anchor="start" x="145" y="-226.8" font-family="Helvetica,sans-Serif" font-size="11.00" fill="#000000">...</text>
<polygon fill="#ffffff" stroke="transparent" points="142,-201.7 142,-220.7 186,-220.7 186,-201.7 142,-201.7"/>
<polygon fill="none" stroke="#000000" points="142,-201.7 142,-220.7 186,-220.7 186,-201.7 142,-201.7"/>
<text text-anchor="start" x="145" y="-207.8" font-family="Helvetica,sans-Serif" font-size="11.00" fill="#000000">&lt; 2</text>
<polygon fill="#ffffff" stroke="transparent" points="186,-201.7 186,-220.7 235,-220.7 235,-201.7 186,-201.7"/>
<polygon fill="none" stroke="#000000" points="186,-201.7 186,-220.7 235,-220.7 235,-201.7 186,-201.7"/>
<text text-anchor="start" x="199.6105" y="-207.8" font-family="Helvetica,sans-Serif" font-size="11.00" fill="#000000">0 rows</text>
<polygon fill="#ffffff" stroke="transparent" points="235,-201.7 235,-220.7 268,-220.7 268,-201.7 235,-201.7"/>
<polygon fill="none" stroke="#000000" points="235,-201.7 235,-220.7 268,-220.7 268,-201.7 235,-201.7"/>
<text text-anchor="start" x="249.4053" y="-207.8" font-family="Helvetica,sans-Serif" font-size="11.00" fill="#000000">2 &gt;</text>
</a>
</g>
</g>
<!-- gyms_has_users&#45;&gt;gyms -->
<g id="edge2" class="edge">
<title>gyms_has_users:w&#45;&gt;gyms:e</title>
<path fill="none" stroke="#000000" d="M128.0921,-224.5239C114.3749,-211.3711 118.9307,-177.7 93.5,-177.7"/>
<polygon fill="#000000" stroke="#000000" points="134.5024,-226.9096 140.7443,-233.0739 138.2512,-228.3048 142,-229.7 142,-229.7 142,-229.7 138.2512,-228.3048 143.2557,-226.3261 134.5024,-226.9096 134.5024,-226.9096"/>
<ellipse fill="none" stroke="#000000" cx="131.5034" cy="-225.7934" rx="3.2" ry="3.2"/>
</g>
<!-- skill_lists -->
<g id="node4" class="node">
<title>skill_lists</title>
<g id="a_node4"><a xlink:href="../../tables/skill_lists.html" xlink:title="skill_lists" target="_top">
<polygon fill="#ffffff" stroke="transparent" points="317,-120.7 317,-254.7 500,-254.7 500,-120.7 317,-120.7"/>
<polygon fill="#f5f5f5" stroke="transparent" points="319.5,-229.7 319.5,-252.7 498.5,-252.7 498.5,-229.7 319.5,-229.7"/>
<polygon fill="none" stroke="#000000" points="319.5,-229.7 319.5,-252.7 498.5,-252.7 498.5,-229.7 319.5,-229.7"/>
<text text-anchor="start" x="324.5" y="-238.8" font-family="Helvetica,sans-Serif" font-weight="bold" font-size="11.00" fill="#000000">skill_lists</text>
<text text-anchor="start" x="463.5437" y="-237.8" font-family="Helvetica,sans-Serif" font-size="11.00" fill="#000000">[table]</text>
<polygon fill="none" stroke="#000000" points="319.5,-207.7 319.5,-229.7 400.5,-229.7 400.5,-207.7 319.5,-207.7"/>
<image xlink:href="../../images/primaryKeys.png" width="11px" height="12px" preserveAspectRatio="xMinYMin meet" x="324.5" y="-224.7"/>
<text text-anchor="start" x="339.5" y="-214.8" font-family="Helvetica,sans-Serif" font-size="11.00" fill="#000000">id</text>
<polygon fill="none" stroke="#000000" points="400.5,-207.7 400.5,-229.7 498.5,-229.7 498.5,-207.7 400.5,-207.7"/>
<text text-anchor="start" x="403.3429" y="-215.4" font-family="Helvetica,sans-Serif" font-size="11.00" fill="#000000">bigint unsigned[20]</text>
<polygon fill="#ffffff" stroke="transparent" points="319.5,-185.7 319.5,-207.7 400.5,-207.7 400.5,-185.7 319.5,-185.7"/>
<polygon fill="none" stroke="#000000" points="319.5,-185.7 319.5,-207.7 400.5,-207.7 400.5,-185.7 319.5,-185.7"/>
<image xlink:href="../../images/foreignKeys.png" width="11px" height="12px" preserveAspectRatio="xMinYMin meet" x="324.5" y="-202.7"/>
<text text-anchor="start" x="339.5" y="-192.8" font-family="Helvetica,sans-Serif" font-size="11.00" fill="#000000">gym_id</text>
<polygon fill="none" stroke="#000000" points="400.5,-185.7 400.5,-207.7 498.5,-207.7 498.5,-185.7 400.5,-185.7"/>
<text text-anchor="start" x="403.5" y="-193.4" font-family="Helvetica,sans-Serif" font-size="11.00" fill="#000000">bigint[19]</text>
<polygon fill="none" stroke="#000000" points="319.5,-163.7 319.5,-185.7 400.5,-185.7 400.5,-163.7 319.5,-163.7"/>
<text text-anchor="start" x="339.5" y="-170.8" font-family="Helvetica,sans-Serif" font-size="11.00" fill="#000000">name</text>
<polygon fill="none" stroke="#000000" points="400.5,-163.7 400.5,-185.7 498.5,-185.7 498.5,-163.7 400.5,-163.7"/>
<text text-anchor="start" x="403.5" y="-171.4" font-family="Helvetica,sans-Serif" font-size="11.00" fill="#000000">varchar[45]</text>
<polygon fill="none" stroke="#000000" points="319.5,-141.7 319.5,-163.7 400.5,-163.7 400.5,-141.7 319.5,-141.7"/>
<text text-anchor="start" x="339.5" y="-148.8" font-family="Helvetica,sans-Serif" font-size="11.00" fill="#000000">timestamp</text>
<polygon fill="none" stroke="#000000" points="400.5,-141.7 400.5,-163.7 498.5,-163.7 498.5,-141.7 400.5,-141.7"/>
<text text-anchor="start" x="403.5" y="-149.4" font-family="Helvetica,sans-Serif" font-size="11.00" fill="#000000">date[10]</text>
<polygon fill="#ffffff" stroke="transparent" points="319.5,-122.7 319.5,-141.7 351.5,-141.7 351.5,-122.7 319.5,-122.7"/>
<polygon fill="none" stroke="#000000" points="319.5,-122.7 319.5,-141.7 351.5,-141.7 351.5,-122.7 319.5,-122.7"/>
<text text-anchor="start" x="322.5" y="-128.8" font-family="Helvetica,sans-Serif" font-size="11.00" fill="#000000">&lt; 1</text>
<polygon fill="#ffffff" stroke="transparent" points="351.5,-122.7 351.5,-141.7 400.5,-141.7 400.5,-122.7 351.5,-122.7"/>
<polygon fill="none" stroke="#000000" points="351.5,-122.7 351.5,-141.7 400.5,-141.7 400.5,-122.7 351.5,-122.7"/>
<text text-anchor="start" x="365.1105" y="-128.8" font-family="Helvetica,sans-Serif" font-size="11.00" fill="#000000">0 rows</text>
<polygon fill="#ffffff" stroke="transparent" points="400.5,-122.7 400.5,-141.7 498.5,-141.7 498.5,-122.7 400.5,-122.7"/>
<polygon fill="none" stroke="#000000" points="400.5,-122.7 400.5,-141.7 498.5,-141.7 498.5,-122.7 400.5,-122.7"/>
<text text-anchor="start" x="479.9053" y="-128.8" font-family="Helvetica,sans-Serif" font-size="11.00" fill="#000000">1 &gt;</text>
<polygon fill="none" stroke="#000000" stroke-width="2" points="318,-121.7 318,-253.7 499,-253.7 499,-121.7 318,-121.7"/>
</a>
</g>
</g>
<!-- skill_lists&#45;&gt;gyms -->
<g id="edge3" class="edge">
<title>skill_lists:w&#45;&gt;gyms:e</title>
<path fill="none" stroke="#000000" d="M304.9974,-195.9497C295.8301,-194.9036 289.4696,-192.9903 276,-191.7 195.0213,-183.9428 174.8494,-177.7 93.5,-177.7"/>
<polygon fill="#000000" stroke="#000000" points="311.5107,-196.2866 319.314,-200.2952 315.5053,-196.4933 319.5,-196.7 319.5,-196.7 319.5,-196.7 315.5053,-196.4933 319.686,-193.1048 311.5107,-196.2866 311.5107,-196.2866"/>
<ellipse fill="none" stroke="#000000" cx="308.315" cy="-196.1213" rx="3.2" ry="3.2"/>
</g>
<!-- skill_lists_has_skills -->
<g id="node5" class="node">
<title>skill_lists_has_skills</title>
<g id="a_node5"><a xlink:href="../../tables/skill_lists_has_skills.html" xlink:title="skill_lists_has_skills" target="_top">
<polygon fill="#ffffff" stroke="transparent" points="549,-82.2 549,-187.2 689,-187.2 689,-82.2 549,-82.2"/>
<polygon fill="#f5f5f5" stroke="transparent" points="549,-163.7 549,-186.7 689,-186.7 689,-163.7 549,-163.7"/>
<polygon fill="none" stroke="#000000" points="549,-163.7 549,-186.7 689,-186.7 689,-163.7 549,-163.7"/>
<text text-anchor="start" x="553.9207" y="-172.8" font-family="Helvetica,sans-Serif" font-weight="bold" font-size="11.00" fill="#000000">skill_lists_has_skills</text>
<text text-anchor="start" x="654.5219" y="-171.8" font-family="Helvetica,sans-Serif" font-size="11.00" fill="#000000">[table]</text>
<polygon fill="none" stroke="#000000" points="549,-141.7 549,-163.7 689,-163.7 689,-141.7 549,-141.7"/>
<image xlink:href="../../images/primaryKeys.png" width="11px" height="12px" preserveAspectRatio="xMinYMin meet" x="554" y="-158.7"/>
<text text-anchor="start" x="570" y="-148.8" font-family="Helvetica,sans-Serif" font-size="11.00" fill="#000000">skill_list_id</text>
<polygon fill="none" stroke="#000000" points="549,-119.7 549,-141.7 689,-141.7 689,-119.7 549,-119.7"/>
<image xlink:href="../../images/primaryKeys.png" width="11px" height="12px" preserveAspectRatio="xMinYMin meet" x="554" y="-136.7"/>
<text text-anchor="start" x="570" y="-126.8" font-family="Helvetica,sans-Serif" font-size="11.00" fill="#000000">skill_id</text>
<polygon fill="none" stroke="#000000" points="549,-100.7 549,-119.7 689,-119.7 689,-100.7 549,-100.7"/>
<text text-anchor="start" x="552" y="-106.8" font-family="Helvetica,sans-Serif" font-size="11.00" fill="#000000">...</text>
<polygon fill="#ffffff" stroke="transparent" points="549,-81.7 549,-100.7 604,-100.7 604,-81.7 549,-81.7"/>
<polygon fill="none" stroke="#000000" points="549,-81.7 549,-100.7 604,-100.7 604,-81.7 549,-81.7"/>
<text text-anchor="start" x="552" y="-87.8" font-family="Helvetica,sans-Serif" font-size="11.00" fill="#000000">&lt; 2</text>
<polygon fill="#ffffff" stroke="transparent" points="604,-81.7 604,-100.7 659,-100.7 659,-81.7 604,-81.7"/>
<polygon fill="none" stroke="#000000" points="604,-81.7 604,-100.7 659,-100.7 659,-81.7 604,-81.7"/>
<text text-anchor="start" x="623.6105" y="-87.8" font-family="Helvetica,sans-Serif" font-size="11.00" fill="#000000">0 rows</text>
<polygon fill="#ffffff" stroke="transparent" points="659,-81.7 659,-100.7 689,-100.7 689,-81.7 659,-81.7"/>
<polygon fill="none" stroke="#000000" points="659,-81.7 659,-100.7 689,-100.7 689,-81.7 659,-81.7"/>
<text text-anchor="start" x="679.8862" y="-87.8" font-family="Helvetica,sans-Serif" font-size="11.00" fill="#000000"> &#160;</text>
</a>
</g>
</g>
<!-- skill_lists_has_skills&#45;&gt;skill_lists -->
<g id="edge5" class="edge">
<title>skill_lists_has_skills:w&#45;&gt;skill_lists:e</title>
<path fill="none" stroke="#000000" d="M535.158,-157.4466C518.1101,-172.5798 529.3754,-218.7 498.5,-218.7"/>
<polygon fill="#000000" stroke="#000000" points="541.4326,-155.295 550.1677,-156.1054 545.2163,-153.9975 549,-152.7 549,-152.7 549,-152.7 545.2163,-153.9975 547.8323,-149.2946 541.4326,-155.295 541.4326,-155.295"/>
<ellipse fill="none" stroke="#000000" cx="538.4056" cy="-156.333" rx="3.2" ry="3.2"/>
</g>
<!-- skills -->
<g id="node6" class="node">
<title>skills</title>
<g id="a_node6"><a xlink:href="../../tables/skills.html" xlink:title="skills" target="_top">
<polygon fill="#ffffff" stroke="transparent" points="368.5,-38.2 368.5,-99.2 448.5,-99.2 448.5,-38.2 368.5,-38.2"/>
<polygon fill="#f5f5f5" stroke="transparent" points="368.5,-75.7 368.5,-98.7 448.5,-98.7 448.5,-75.7 368.5,-75.7"/>
<polygon fill="none" stroke="#000000" points="368.5,-75.7 368.5,-98.7 448.5,-98.7 448.5,-75.7 368.5,-75.7"/>
<text text-anchor="start" x="373.5" y="-84.8" font-family="Helvetica,sans-Serif" font-weight="bold" font-size="11.00" fill="#000000">skills</text>
<text text-anchor="start" x="413.5437" y="-83.8" font-family="Helvetica,sans-Serif" font-size="11.00" fill="#000000">[table]</text>
<polygon fill="none" stroke="#000000" points="368.5,-56.7 368.5,-75.7 448.5,-75.7 448.5,-56.7 368.5,-56.7"/>
<text text-anchor="start" x="371.5" y="-62.8" font-family="Helvetica,sans-Serif" font-size="11.00" fill="#000000">...</text>
<polygon fill="#ffffff" stroke="transparent" points="368.5,-37.7 368.5,-56.7 389.5,-56.7 389.5,-37.7 368.5,-37.7"/>
<polygon fill="none" stroke="#000000" points="368.5,-37.7 368.5,-56.7 389.5,-56.7 389.5,-37.7 368.5,-37.7"/>
<text text-anchor="start" x="371.2027" y="-43.8" font-family="Helvetica,sans-Serif" font-size="11.00" fill="#000000">&lt; 3</text>
<polygon fill="#ffffff" stroke="transparent" points="389.5,-37.7 389.5,-56.7 427.5,-56.7 427.5,-37.7 389.5,-37.7"/>
<polygon fill="none" stroke="#000000" points="389.5,-37.7 389.5,-56.7 427.5,-56.7 427.5,-37.7 389.5,-37.7"/>
<text text-anchor="start" x="392.3053" y="-43.8" font-family="Helvetica,sans-Serif" font-size="11.00" fill="#000000">0 rows</text>
<polygon fill="#ffffff" stroke="transparent" points="427.5,-37.7 427.5,-56.7 448.5,-56.7 448.5,-37.7 427.5,-37.7"/>
<polygon fill="none" stroke="#000000" points="427.5,-37.7 427.5,-56.7 448.5,-56.7 448.5,-37.7 427.5,-37.7"/>
<text text-anchor="start" x="430.2027" y="-43.8" font-family="Helvetica,sans-Serif" font-size="11.00" fill="#000000">2 &gt;</text>
</a>
</g>
</g>
<!-- skill_lists_has_skills&#45;&gt;skills -->
<g id="edge4" class="edge">
<title>skill_lists_has_skills:w&#45;&gt;skills:e</title>
<path fill="none" stroke="#000000" d="M534.4968,-128.8248C496.3921,-118.1673 496.2921,-65.7 448.5,-65.7"/>
<polygon fill="#000000" stroke="#000000" points="541.066,-129.6741 548.5384,-134.2703 545.033,-130.1871 549,-130.7 549,-130.7 549,-130.7 545.033,-130.1871 549.4616,-127.1297 541.066,-129.6741 541.066,-129.6741"/>
<ellipse fill="none" stroke="#000000" cx="537.8925" cy="-129.2638" rx="3.2" ry="3.2"/>
</g>
<!-- skills&#45;&gt;events -->
<g id="edge6" class="edge">
<title>skills:w&#45;&gt;events:e</title>
<path fill="none" stroke="#000000" d="M353.96,-66.1449C310.2986,-68.9168 295.2686,-83.7 245,-83.7"/>
<polygon fill="#000000" stroke="#000000" points="360.5037,-65.9448 368.6101,-69.2983 364.5019,-65.8224 368.5,-65.7 368.5,-65.7 368.5,-65.7 364.5019,-65.8224 368.3899,-62.1017 360.5037,-65.9448 360.5037,-65.9448"/>
<ellipse fill="none" stroke="#000000" cx="357.3052" cy="-66.0427" rx="3.2" ry="3.2"/>
</g>
</g>
</svg>
