<?xml version="1.0" encoding="UTF-8" standalone="no"?>
<!DOCTYPE svg PUBLIC "-//W3C//DTD SVG 1.1//EN"
 "http://www.w3.org/Graphics/SVG/1.1/DTD/svg11.dtd">
<!-- Generated by graphviz version 2.40.1 (20161225.0304)
 -->
<!-- Title: oneDegreeRelationshipsDiagram Pages: 1 -->
<svg width="562pt" height="388pt"
 viewBox="0.00 0.00 562.00 388.20" xmlns="http://www.w3.org/2000/svg" xmlns:xlink="http://www.w3.org/1999/xlink">
<g id="graph0" class="graph" transform="scale(1 1) rotate(0) translate(4 384.2)">
<title>oneDegreeRelationshipsDiagram</title>
<polygon fill="#ffffff" stroke="transparent" points="-4,4 -4,-384.2 558,-384.2 558,4 -4,4"/>
<text text-anchor="middle" x="72.4936" y="-7.3" font-family="Helvetica,sans-Serif" font-size="11.00" fill="#000000">Generated by SchemaSpy</text>
<!-- gymnast_has_skills -->
<g id="node1" class="node">
<title>gymnast_has_skills</title>
<g id="a_node1"><a xlink:href="../../tables/gymnast_has_skills.html" xlink:title="gymnast_has_skills" target="_top">
<polygon fill="#ffffff" stroke="transparent" points="408,-145.2 408,-250.2 546,-250.2 546,-145.2 408,-145.2"/>
<polygon fill="#f5f5f5" stroke="transparent" points="408,-226.7 408,-249.7 546,-249.7 546,-226.7 408,-226.7"/>
<polygon fill="none" stroke="#000000" points="408,-226.7 408,-249.7 546,-249.7 546,-226.7 408,-226.7"/>
<text text-anchor="start" x="412.8271" y="-235.8" font-family="Helvetica,sans-Serif" font-weight="bold" font-size="11.00" fill="#000000">gymnast_has_skills</text>
<text text-anchor="start" x="511.5219" y="-234.8" font-family="Helvetica,sans-Serif" font-size="11.00" fill="#000000">[table]</text>
<polygon fill="none" stroke="#000000" points="408,-204.7 408,-226.7 546,-226.7 546,-204.7 408,-204.7"/>
<image xlink:href="../../images/primaryKeys.png" width="11px" height="12px" preserveAspectRatio="xMinYMin meet" x="413" y="-221.7"/>
<text text-anchor="start" x="430" y="-211.8" font-family="Helvetica,sans-Serif" font-size="11.00" fill="#000000">gymnast_id</text>
<polygon fill="none" stroke="#000000" points="408,-182.7 408,-204.7 546,-204.7 546,-182.7 408,-182.7"/>
<image xlink:href="../../images/primaryKeys.png" width="11px" height="12px" preserveAspectRatio="xMinYMin meet" x="413" y="-199.7"/>
<text text-anchor="start" x="430" y="-189.8" font-family="Helvetica,sans-Serif" font-size="11.00" fill="#000000">skills_Id</text>
<polygon fill="none" stroke="#000000" points="408,-163.7 408,-182.7 546,-182.7 546,-163.7 408,-163.7"/>
<text text-anchor="start" x="411" y="-169.8" font-family="Helvetica,sans-Serif" font-size="11.00" fill="#000000">...</text>
<polygon fill="#ffffff" stroke="transparent" points="408,-144.7 408,-163.7 462,-163.7 462,-144.7 408,-144.7"/>
<polygon fill="none" stroke="#000000" points="408,-144.7 408,-163.7 462,-163.7 462,-144.7 408,-144.7"/>
<text text-anchor="start" x="411" y="-150.8" font-family="Helvetica,sans-Serif" font-size="11.00" fill="#000000">&lt; 2</text>
<polygon fill="#ffffff" stroke="transparent" points="462,-144.7 462,-163.7 517,-163.7 517,-144.7 462,-144.7"/>
<polygon fill="none" stroke="#000000" points="462,-144.7 462,-163.7 517,-163.7 517,-144.7 462,-144.7"/>
<text text-anchor="start" x="481.6105" y="-150.8" font-family="Helvetica,sans-Serif" font-size="11.00" fill="#000000">0 rows</text>
<polygon fill="#ffffff" stroke="transparent" points="517,-144.7 517,-163.7 546,-163.7 546,-144.7 517,-144.7"/>
<polygon fill="none" stroke="#000000" points="517,-144.7 517,-163.7 546,-163.7 546,-144.7 517,-144.7"/>
<text text-anchor="start" x="536.8862" y="-150.8" font-family="Helvetica,sans-Serif" font-size="11.00" fill="#000000"> &#160;</text>
</a>
</g>
</g>
<!-- skills -->
<g id="node2" class="node">
<title>skills</title>
<g id="a_node2"><a xlink:href="../../tables/skills.html" xlink:title="skills" target="_top">
<polygon fill="#ffffff" stroke="transparent" points="150,-95.7 150,-317.7 359,-317.7 359,-95.7 150,-95.7"/>
<polygon fill="#f5f5f5" stroke="transparent" points="152.5,-292.7 152.5,-315.7 357.5,-315.7 357.5,-292.7 152.5,-292.7"/>
<polygon fill="none" stroke="#000000" points="152.5,-292.7 152.5,-315.7 357.5,-315.7 357.5,-292.7 152.5,-292.7"/>
<text text-anchor="start" x="157.5" y="-301.8" font-family="Helvetica,sans-Serif" font-weight="bold" font-size="11.00" fill="#000000">skills</text>
<text text-anchor="start" x="322.5437" y="-300.8" font-family="Helvetica,sans-Serif" font-size="11.00" fill="#000000">[table]</text>
<polygon fill="none" stroke="#000000" points="152.5,-270.7 152.5,-292.7 240.5,-292.7 240.5,-270.7 152.5,-270.7"/>
<image xlink:href="../../images/primaryKeys.png" width="11px" height="12px" preserveAspectRatio="xMinYMin meet" x="157.5" y="-287.7"/>
<text text-anchor="start" x="172.5" y="-277.8" font-family="Helvetica,sans-Serif" font-size="11.00" fill="#000000">id</text>
<polygon fill="none" stroke="#000000" points="240.5,-270.7 240.5,-292.7 357.5,-292.7 357.5,-270.7 240.5,-270.7"/>
<text text-anchor="start" x="243.5" y="-278.4" font-family="Helvetica,sans-Serif" font-size="11.00" fill="#000000">bigint unsigned[20]</text>
<polygon fill="none" stroke="#000000" points="152.5,-248.7 152.5,-270.7 240.5,-270.7 240.5,-248.7 152.5,-248.7"/>
<text text-anchor="start" x="172.5" y="-255.8" font-family="Helvetica,sans-Serif" font-size="11.00" fill="#000000">name</text>
<polygon fill="none" stroke="#000000" points="240.5,-248.7 240.5,-270.7 357.5,-270.7 357.5,-248.7 240.5,-248.7"/>
<text text-anchor="start" x="243.5" y="-256.4" font-family="Helvetica,sans-Serif" font-size="11.00" fill="#000000">varchar[45]</text>
<polygon fill="none" stroke="#000000" points="152.5,-226.7 152.5,-248.7 240.5,-248.7 240.5,-226.7 152.5,-226.7"/>
<text text-anchor="start" x="172.5" y="-233.8" font-family="Helvetica,sans-Serif" font-size="11.00" fill="#000000">description</text>
<polygon fill="none" stroke="#000000" points="240.5,-226.7 240.5,-248.7 357.5,-248.7 357.5,-226.7 240.5,-226.7"/>
<text text-anchor="start" x="243.0645" y="-234.4" font-family="Helvetica,sans-Serif" font-size="11.00" fill="#000000">mediumtext[16777215]</text>
<polygon fill="none" stroke="#000000" points="152.5,-204.7 152.5,-226.7 240.5,-226.7 240.5,-204.7 152.5,-204.7"/>
<text text-anchor="start" x="172.5" y="-211.8" font-family="Helvetica,sans-Serif" font-size="11.00" fill="#000000">category</text>
<polygon fill="none" stroke="#000000" points="240.5,-204.7 240.5,-226.7 357.5,-226.7 357.5,-204.7 240.5,-204.7"/>
<text text-anchor="start" x="243.5" y="-212.4" font-family="Helvetica,sans-Serif" font-size="11.00" fill="#000000">varchar[45]</text>
<polygon fill="none" stroke="#000000" points="152.5,-182.7 152.5,-204.7 240.5,-204.7 240.5,-182.7 152.5,-182.7"/>
<text text-anchor="start" x="172.5" y="-189.8" font-family="Helvetica,sans-Serif" font-size="11.00" fill="#000000">certificate</text>
<polygon fill="none" stroke="#000000" points="240.5,-182.7 240.5,-204.7 357.5,-204.7 357.5,-182.7 240.5,-182.7"/>
<text text-anchor="start" x="243.5" y="-190.4" font-family="Helvetica,sans-Serif" font-size="11.00" fill="#000000">bit[1]</text>
<polygon fill="#ffffff" stroke="transparent" points="152.5,-160.7 152.5,-182.7 240.5,-182.7 240.5,-160.7 152.5,-160.7"/>
<polygon fill="none" stroke="#000000" points="152.5,-160.7 152.5,-182.7 240.5,-182.7 240.5,-160.7 152.5,-160.7"/>
<image xlink:href="../../images/foreignKeys.png" width="11px" height="12px" preserveAspectRatio="xMinYMin meet" x="157.5" y="-177.7"/>
<text text-anchor="start" x="172.5" y="-167.8" font-family="Helvetica,sans-Serif" font-size="11.00" fill="#000000">event_id</text>
<polygon fill="none" stroke="#000000" points="240.5,-160.7 240.5,-182.7 357.5,-182.7 357.5,-160.7 240.5,-160.7"/>
<text text-anchor="start" x="243.5" y="-168.4" font-family="Helvetica,sans-Serif" font-size="11.00" fill="#000000">bigint[19]</text>
<polygon fill="#ffffff" stroke="transparent" points="152.5,-138.7 152.5,-160.7 240.5,-160.7 240.5,-138.7 152.5,-138.7"/>
<polygon fill="none" stroke="#000000" points="152.5,-138.7 152.5,-160.7 240.5,-160.7 240.5,-138.7 152.5,-138.7"/>
<image xlink:href="../../images/foreignKeys.png" width="11px" height="12px" preserveAspectRatio="xMinYMin meet" x="157.5" y="-155.7"/>
<text text-anchor="start" x="172.5" y="-145.8" font-family="Helvetica,sans-Serif" font-size="11.00" fill="#000000">category_id</text>
<polygon fill="none" stroke="#000000" points="240.5,-138.7 240.5,-160.7 357.5,-160.7 357.5,-138.7 240.5,-138.7"/>
<text text-anchor="start" x="243.5" y="-146.4" font-family="Helvetica,sans-Serif" font-size="11.00" fill="#000000">bigint[19]</text>
<polygon fill="#ffffff" stroke="transparent" points="152.5,-116.7 152.5,-138.7 240.5,-138.7 240.5,-116.7 152.5,-116.7"/>
<polygon fill="none" stroke="#000000" points="152.5,-116.7 152.5,-138.7 240.5,-138.7 240.5,-116.7 152.5,-116.7"/>
<image xlink:href="../../images/foreignKeys.png" width="11px" height="12px" preserveAspectRatio="xMinYMin meet" x="157.5" y="-133.7"/>
<text text-anchor="start" x="172.5" y="-123.8" font-family="Helvetica,sans-Serif" font-size="11.00" fill="#000000">level_id</text>
<polygon fill="none" stroke="#000000" points="240.5,-116.7 240.5,-138.7 357.5,-138.7 357.5,-116.7 240.5,-116.7"/>
<text text-anchor="start" x="243.5" y="-124.4" font-family="Helvetica,sans-Serif" font-size="11.00" fill="#000000">bigint[19]</text>
<polygon fill="#ffffff" stroke="transparent" points="152.5,-97.7 152.5,-116.7 187.5,-116.7 187.5,-97.7 152.5,-97.7"/>
<polygon fill="none" stroke="#000000" points="152.5,-97.7 152.5,-116.7 187.5,-116.7 187.5,-97.7 152.5,-97.7"/>
<text text-anchor="start" x="155.5" y="-103.8" font-family="Helvetica,sans-Serif" font-size="11.00" fill="#000000">&lt; 3</text>
<polygon fill="#ffffff" stroke="transparent" points="187.5,-97.7 187.5,-116.7 240.5,-116.7 240.5,-97.7 187.5,-97.7"/>
<polygon fill="none" stroke="#000000" points="187.5,-97.7 187.5,-116.7 240.5,-116.7 240.5,-97.7 187.5,-97.7"/>
<text text-anchor="start" x="205.1105" y="-103.8" font-family="Helvetica,sans-Serif" font-size="11.00" fill="#000000">0 rows</text>
<polygon fill="#ffffff" stroke="transparent" points="240.5,-97.7 240.5,-116.7 357.5,-116.7 357.5,-97.7 240.5,-97.7"/>
<polygon fill="none" stroke="#000000" points="240.5,-97.7 240.5,-116.7 357.5,-116.7 357.5,-97.7 240.5,-97.7"/>
<text text-anchor="start" x="338.9053" y="-103.8" font-family="Helvetica,sans-Serif" font-size="11.00" fill="#000000">2 &gt;</text>
<polygon fill="none" stroke="#000000" stroke-width="2" points="151,-96.7 151,-316.7 358,-316.7 358,-96.7 151,-96.7"/>
</a>
</g>
</g>
<!-- gymnast_has_skills&#45;&gt;skills -->
<g id="edge1" class="edge">
<title>gymnast_has_skills:w&#45;&gt;skills:e</title>
<path fill="none" stroke="#000000" d="M394.1222,-197.9444C371.9529,-215.5228 396.6046,-281.7 357.5,-281.7"/>
<polygon fill="#000000" stroke="#000000" points="400.3498,-196.0398 409.0529,-197.1426 404.1749,-194.8699 408,-193.7 408,-193.7 408,-193.7 404.1749,-194.8699 406.9471,-190.2574 400.3498,-196.0398 400.3498,-196.0398"/>
<ellipse fill="none" stroke="#000000" cx="397.2897" cy="-196.9757" rx="3.2" ry="3.2"/>
</g>
<!-- levels -->
<g id="node4" class="node">
<title>levels</title>
<g id="a_node4"><a xlink:href="../../tables/levels.html" xlink:title="levels" target="_top">
<polygon fill="#ffffff" stroke="transparent" points="12,-38.2 12,-121.2 97,-121.2 97,-38.2 12,-38.2"/>
<polygon fill="#f5f5f5" stroke="transparent" points="12.5,-97.7 12.5,-120.7 97.5,-120.7 97.5,-97.7 12.5,-97.7"/>
<polygon fill="none" stroke="#000000" points="12.5,-97.7 12.5,-120.7 97.5,-120.7 97.5,-97.7 12.5,-97.7"/>
<text text-anchor="start" x="17.5" y="-106.8" font-family="Helvetica,sans-Serif" font-weight="bold" font-size="11.00" fill="#000000">levels</text>
<text text-anchor="start" x="62.5437" y="-105.8" font-family="Helvetica,sans-Serif" font-size="11.00" fill="#000000">[table]</text>
<polygon fill="none" stroke="#000000" points="12.5,-75.7 12.5,-97.7 97.5,-97.7 97.5,-75.7 12.5,-75.7"/>
<image xlink:href="../../images/primaryKeys.png" width="11px" height="12px" preserveAspectRatio="xMinYMin meet" x="17.5" y="-92.7"/>
<text text-anchor="start" x="32.5" y="-82.8" font-family="Helvetica,sans-Serif" font-size="11.00" fill="#000000">id</text>
<polygon fill="none" stroke="#000000" points="12.5,-56.7 12.5,-75.7 97.5,-75.7 97.5,-56.7 12.5,-56.7"/>
<text text-anchor="start" x="15.5" y="-62.8" font-family="Helvetica,sans-Serif" font-size="11.00" fill="#000000">...</text>
<polygon fill="#ffffff" stroke="transparent" points="12.5,-37.7 12.5,-56.7 31.5,-56.7 31.5,-37.7 12.5,-37.7"/>
<polygon fill="none" stroke="#000000" points="12.5,-37.7 12.5,-56.7 31.5,-56.7 31.5,-37.7 12.5,-37.7"/>
<text text-anchor="start" x="15.5" y="-43.8" font-family="Helvetica,sans-Serif" font-size="11.00" fill="#000000"> &#160;</text>
<polygon fill="#ffffff" stroke="transparent" points="31.5,-37.7 31.5,-56.7 72.5,-56.7 72.5,-37.7 31.5,-37.7"/>
<polygon fill="none" stroke="#000000" points="31.5,-37.7 31.5,-56.7 72.5,-56.7 72.5,-37.7 31.5,-37.7"/>
<text text-anchor="start" x="37.1105" y="-43.8" font-family="Helvetica,sans-Serif" font-size="11.00" fill="#000000">0 rows</text>
<polygon fill="#ffffff" stroke="transparent" points="72.5,-37.7 72.5,-56.7 97.5,-56.7 97.5,-37.7 72.5,-37.7"/>
<polygon fill="none" stroke="#000000" points="72.5,-37.7 72.5,-56.7 97.5,-56.7 97.5,-37.7 72.5,-37.7"/>
<text text-anchor="start" x="78.9053" y="-43.8" font-family="Helvetica,sans-Serif" font-size="11.00" fill="#000000">2 &gt;</text>
</a>
</g>
</g>
<!-- skills&#45;&gt;levels -->
<g id="edge6" class="edge">
<title>skills:w&#45;&gt;levels:e</title>
<path fill="none" stroke="#000000" d="M138.2653,-123.6189C122.955,-113.2484 122.0341,-86.7 97.5,-86.7"/>
<polygon fill="#000000" stroke="#000000" points="144.8098,-125.4952 151.5078,-131.1606 148.6549,-126.5976 152.5,-127.7 152.5,-127.7 152.5,-127.7 148.6549,-126.5976 153.4922,-124.2394 144.8098,-125.4952 144.8098,-125.4952"/>
<ellipse fill="none" stroke="#000000" cx="141.7337" cy="-124.6132" rx="3.2" ry="3.2"/>
</g>
<!-- categories -->
<g id="node5" class="node">
<title>categories</title>
<g id="a_node5"><a xlink:href="../../tables/categories.html" xlink:title="categories" target="_top">
<polygon fill="#ffffff" stroke="transparent" points="8,-142.2 8,-225.2 101,-225.2 101,-142.2 8,-142.2"/>
<polygon fill="#f5f5f5" stroke="transparent" points="8.5,-201.7 8.5,-224.7 101.5,-224.7 101.5,-201.7 8.5,-201.7"/>
<polygon fill="none" stroke="#000000" points="8.5,-201.7 8.5,-224.7 101.5,-224.7 101.5,-201.7 8.5,-201.7"/>
<text text-anchor="start" x="13.1329" y="-210.8" font-family="Helvetica,sans-Serif" font-weight="bold" font-size="11.00" fill="#000000">categories</text>
<text text-anchor="start" x="67.0219" y="-209.8" font-family="Helvetica,sans-Serif" font-size="11.00" fill="#000000">[table]</text>
<polygon fill="none" stroke="#000000" points="8.5,-179.7 8.5,-201.7 101.5,-201.7 101.5,-179.7 8.5,-179.7"/>
<image xlink:href="../../images/primaryKeys.png" width="11px" height="12px" preserveAspectRatio="xMinYMin meet" x="13.5" y="-196.7"/>
<text text-anchor="start" x="32.5" y="-186.8" font-family="Helvetica,sans-Serif" font-size="11.00" fill="#000000">id</text>
<polygon fill="none" stroke="#000000" points="8.5,-160.7 8.5,-179.7 101.5,-179.7 101.5,-160.7 8.5,-160.7"/>
<text text-anchor="start" x="11.5" y="-166.8" font-family="Helvetica,sans-Serif" font-size="11.00" fill="#000000">...</text>
<polygon fill="#ffffff" stroke="transparent" points="8.5,-141.7 8.5,-160.7 31.5,-160.7 31.5,-141.7 8.5,-141.7"/>
<polygon fill="none" stroke="#000000" points="8.5,-141.7 8.5,-160.7 31.5,-160.7 31.5,-141.7 8.5,-141.7"/>
<text text-anchor="start" x="11.5" y="-147.8" font-family="Helvetica,sans-Serif" font-size="11.00" fill="#000000"> &#160;</text>
<polygon fill="#ffffff" stroke="transparent" points="31.5,-141.7 31.5,-160.7 74.5,-160.7 74.5,-141.7 31.5,-141.7"/>
<polygon fill="none" stroke="#000000" points="31.5,-141.7 31.5,-160.7 74.5,-160.7 74.5,-141.7 31.5,-141.7"/>
<text text-anchor="start" x="39.1105" y="-147.8" font-family="Helvetica,sans-Serif" font-size="11.00" fill="#000000">0 rows</text>
<polygon fill="#ffffff" stroke="transparent" points="74.5,-141.7 74.5,-160.7 101.5,-160.7 101.5,-141.7 74.5,-141.7"/>
<polygon fill="none" stroke="#000000" points="74.5,-141.7 74.5,-160.7 101.5,-160.7 101.5,-141.7 74.5,-141.7"/>
<text text-anchor="start" x="82.9053" y="-147.8" font-family="Helvetica,sans-Serif" font-size="11.00" fill="#000000">1 &gt;</text>
</a>
</g>
</g>
<!-- skills&#45;&gt;categories -->
<g id="edge4" class="edge">
<title>skills:w&#45;&gt;categories:e</title>
<path fill="none" stroke="#000000" d="M138.6568,-154.0877C124.8325,-164.6646 124.6756,-190.7 101.5,-190.7"/>
<polygon fill="#000000" stroke="#000000" points="144.8739,-152.1172 153.5877,-153.1317 148.6869,-150.9086 152.5,-149.7 152.5,-149.7 152.5,-149.7 148.6869,-150.9086 151.4123,-146.2683 144.8739,-152.1172 144.8739,-152.1172"/>
<ellipse fill="none" stroke="#000000" cx="141.8235" cy="-153.0841" rx="3.2" ry="3.2"/>
</g>
<!-- events -->
<g id="node6" class="node">
<title>events</title>
<g id="a_node6"><a xlink:href="../../tables/events.html" xlink:title="events" target="_top">
<polygon fill="#ffffff" stroke="transparent" points="12,-246.2 12,-351.2 97,-351.2 97,-246.2 12,-246.2"/>
<polygon fill="#f5f5f5" stroke="transparent" points="12.5,-327.7 12.5,-350.7 97.5,-350.7 97.5,-327.7 12.5,-327.7"/>
<polygon fill="none" stroke="#000000" points="12.5,-327.7 12.5,-350.7 97.5,-350.7 97.5,-327.7 12.5,-327.7"/>
<text text-anchor="start" x="17.5" y="-336.8" font-family="Helvetica,sans-Serif" font-weight="bold" font-size="11.00" fill="#000000">events</text>
<text text-anchor="start" x="62.5437" y="-335.8" font-family="Helvetica,sans-Serif" font-size="11.00" fill="#000000">[table]</text>
<polygon fill="none" stroke="#000000" points="12.5,-305.7 12.5,-327.7 97.5,-327.7 97.5,-305.7 12.5,-305.7"/>
<image xlink:href="../../images/primaryKeys.png" width="11px" height="12px" preserveAspectRatio="xMinYMin meet" x="17.5" y="-322.7"/>
<text text-anchor="start" x="32.5" y="-312.8" font-family="Helvetica,sans-Serif" font-size="11.00" fill="#000000">id</text>
<polygon fill="#ffffff" stroke="transparent" points="12.5,-283.7 12.5,-305.7 97.5,-305.7 97.5,-283.7 12.5,-283.7"/>
<polygon fill="none" stroke="#000000" points="12.5,-283.7 12.5,-305.7 97.5,-305.7 97.5,-283.7 12.5,-283.7"/>
<image xlink:href="../../images/foreignKeys.png" width="11px" height="12px" preserveAspectRatio="xMinYMin meet" x="17.5" y="-300.7"/>
<text text-anchor="start" x="32.5" y="-290.8" font-family="Helvetica,sans-Serif" font-size="11.00" fill="#000000">gym_id</text>
<polygon fill="none" stroke="#000000" points="12.5,-264.7 12.5,-283.7 97.5,-283.7 97.5,-264.7 12.5,-264.7"/>
<text text-anchor="start" x="15.5" y="-270.8" font-family="Helvetica,sans-Serif" font-size="11.00" fill="#000000">...</text>
<polygon fill="#ffffff" stroke="transparent" points="12.5,-245.7 12.5,-264.7 35.5,-264.7 35.5,-245.7 12.5,-245.7"/>
<polygon fill="none" stroke="#000000" points="12.5,-245.7 12.5,-264.7 35.5,-264.7 35.5,-245.7 12.5,-245.7"/>
<text text-anchor="start" x="15.5" y="-251.8" font-family="Helvetica,sans-Serif" font-size="11.00" fill="#000000">&lt; 1</text>
<polygon fill="#ffffff" stroke="transparent" points="35.5,-245.7 35.5,-264.7 74.5,-264.7 74.5,-245.7 35.5,-245.7"/>
<polygon fill="none" stroke="#000000" points="35.5,-245.7 35.5,-264.7 74.5,-264.7 74.5,-245.7 35.5,-245.7"/>
<text text-anchor="start" x="39.1105" y="-251.8" font-family="Helvetica,sans-Serif" font-size="11.00" fill="#000000">0 rows</text>
<polygon fill="#ffffff" stroke="transparent" points="74.5,-245.7 74.5,-264.7 97.5,-264.7 97.5,-245.7 74.5,-245.7"/>
<polygon fill="none" stroke="#000000" points="74.5,-245.7 74.5,-264.7 97.5,-264.7 97.5,-245.7 74.5,-245.7"/>
<text text-anchor="start" x="78.9053" y="-251.8" font-family="Helvetica,sans-Serif" font-size="11.00" fill="#000000">1 &gt;</text>
</a>
</g>
</g>
<!-- skills&#45;&gt;events -->
<g id="edge5" class="edge">
<title>skills:w&#45;&gt;events:e</title>
<path fill="none" stroke="#000000" d="M138.1659,-174.5964C96.4209,-195.0327 160.6361,-316.7 97.5,-316.7"/>
<polygon fill="#000000" stroke="#000000" points="144.6585,-173.2846 153.213,-175.2287 148.5792,-172.4923 152.5,-171.7 152.5,-171.7 152.5,-171.7 148.5792,-172.4923 151.787,-168.1713 144.6585,-173.2846 144.6585,-173.2846"/>
<ellipse fill="none" stroke="#000000" cx="141.5219" cy="-173.9184" rx="3.2" ry="3.2"/>
</g>
<!-- skill_has_levels -->
<g id="node3" class="node">
<title>skill_has_levels</title>
<g id="a_node3"><a xlink:href="../../tables/skill_has_levels.html" xlink:title="skill_has_levels" target="_top">
<polygon fill="#ffffff" stroke="transparent" points="417.5,-271.2 417.5,-376.2 536.5,-376.2 536.5,-271.2 417.5,-271.2"/>
<polygon fill="#f5f5f5" stroke="transparent" points="418,-352.7 418,-375.7 537,-375.7 537,-352.7 418,-352.7"/>
<polygon fill="none" stroke="#000000" points="418,-352.7 418,-375.7 537,-375.7 537,-352.7 418,-352.7"/>
<text text-anchor="start" x="422.8031" y="-361.8" font-family="Helvetica,sans-Serif" font-weight="bold" font-size="11.00" fill="#000000">skill_has_levels</text>
<text text-anchor="start" x="502.5219" y="-360.8" font-family="Helvetica,sans-Serif" font-size="11.00" fill="#000000">[table]</text>
<polygon fill="none" stroke="#000000" points="418,-330.7 418,-352.7 537,-352.7 537,-330.7 418,-330.7"/>
<image xlink:href="../../images/primaryKeys.png" width="11px" height="12px" preserveAspectRatio="xMinYMin meet" x="423" y="-347.7"/>
<text text-anchor="start" x="442" y="-337.8" font-family="Helvetica,sans-Serif" font-size="11.00" fill="#000000">levels_id</text>
<polygon fill="none" stroke="#000000" points="418,-308.7 418,-330.7 537,-330.7 537,-308.7 418,-308.7"/>
<image xlink:href="../../images/primaryKeys.png" width="11px" height="12px" preserveAspectRatio="xMinYMin meet" x="423" y="-325.7"/>
<text text-anchor="start" x="442" y="-315.8" font-family="Helvetica,sans-Serif" font-size="11.00" fill="#000000">skills_id</text>
<polygon fill="none" stroke="#000000" points="418,-289.7 418,-308.7 537,-308.7 537,-289.7 418,-289.7"/>
<text text-anchor="start" x="421" y="-295.8" font-family="Helvetica,sans-Serif" font-size="11.00" fill="#000000">...</text>
<polygon fill="#ffffff" stroke="transparent" points="418,-270.7 418,-289.7 463,-289.7 463,-270.7 418,-270.7"/>
<polygon fill="none" stroke="#000000" points="418,-270.7 418,-289.7 463,-289.7 463,-270.7 418,-270.7"/>
<text text-anchor="start" x="421" y="-276.8" font-family="Helvetica,sans-Serif" font-size="11.00" fill="#000000">&lt; 2</text>
<polygon fill="#ffffff" stroke="transparent" points="463,-270.7 463,-289.7 513,-289.7 513,-270.7 463,-270.7"/>
<polygon fill="none" stroke="#000000" points="463,-270.7 463,-289.7 513,-289.7 513,-270.7 463,-270.7"/>
<text text-anchor="start" x="477.6105" y="-276.8" font-family="Helvetica,sans-Serif" font-size="11.00" fill="#000000">0 rows</text>
<polygon fill="#ffffff" stroke="transparent" points="513,-270.7 513,-289.7 537,-289.7 537,-270.7 513,-270.7"/>
<polygon fill="none" stroke="#000000" points="513,-270.7 513,-289.7 537,-289.7 537,-270.7 513,-270.7"/>
<text text-anchor="start" x="527.8862" y="-276.8" font-family="Helvetica,sans-Serif" font-size="11.00" fill="#000000"> &#160;</text>
</a>
</g>
</g>
<!-- skill_has_levels&#45;&gt;skills -->
<g id="edge3" class="edge">
<title>skill_has_levels:w&#45;&gt;skills:e</title>
<path fill="none" stroke="#000000" d="M403.8467,-316.4601C386.205,-307.2707 383.5473,-281.7 357.5,-281.7"/>
<polygon fill="#000000" stroke="#000000" points="410.2017,-317.9148 417.1967,-323.2092 414.1009,-318.8074 418,-319.7 418,-319.7 418,-319.7 414.1009,-318.8074 418.8033,-316.1908 410.2017,-317.9148 410.2017,-317.9148"/>
<ellipse fill="none" stroke="#000000" cx="407.0824" cy="-317.2008" rx="3.2" ry="3.2"/>
</g>
<!-- skill_has_levels&#45;&gt;levels -->
<g id="edge2" class="edge">
<title>skill_has_levels:w&#45;&gt;levels:e</title>
<path fill="none" stroke="#000000" d="M403.5389,-342.0155C290.2351,-346.9465 230.1635,-406.9576 142,-328.7 60.2136,-256.1029 206.8588,-86.7 97.5,-86.7"/>
<polygon fill="#000000" stroke="#000000" points="410.0019,-341.8746 418.0786,-345.2991 414.001,-341.7873 418,-341.7 418,-341.7 418,-341.7 414.001,-341.7873 417.9214,-338.1009 410.0019,-341.8746 410.0019,-341.8746"/>
<ellipse fill="none" stroke="#000000" cx="406.8027" cy="-341.9444" rx="3.2" ry="3.2"/>
</g>
</g>
</svg>
