<?xml version="1.0" encoding="UTF-8" standalone="no"?>
<!DOCTYPE svg PUBLIC "-//W3C//DTD SVG 1.1//EN"
 "http://www.w3.org/Graphics/SVG/1.1/DTD/svg11.dtd">
<!-- Generated by graphviz version 2.40.1 (20161225.0304)
 -->
<!-- Title: twoDegreesRelationshipsDiagram Pages: 1 -->
<svg width="682pt" height="394pt"
 viewBox="0.00 0.00 682.00 394.20" xmlns="http://www.w3.org/2000/svg" xmlns:xlink="http://www.w3.org/1999/xlink">
<g id="graph0" class="graph" transform="scale(1 1) rotate(0) translate(4 390.2)">
<title>twoDegreesRelationshipsDiagram</title>
<polygon fill="#ffffff" stroke="transparent" points="-4,4 -4,-390.2 678,-390.2 678,4 -4,4"/>
<text text-anchor="middle" x="72.4936" y="-7.3" font-family="Helvetica,sans-Serif" font-size="11.00" fill="#000000">Generated by SchemaSpy</text>
<!-- events -->
<g id="node1" class="node">
<title>events</title>
<g id="a_node1"><a xlink:href="../../tables/events.html" xlink:title="events" target="_top">
<polygon fill="#ffffff" stroke="transparent" points="132,-271.2 132,-376.2 217,-376.2 217,-271.2 132,-271.2"/>
<polygon fill="#f5f5f5" stroke="transparent" points="132.5,-352.7 132.5,-375.7 217.5,-375.7 217.5,-352.7 132.5,-352.7"/>
<polygon fill="none" stroke="#000000" points="132.5,-352.7 132.5,-375.7 217.5,-375.7 217.5,-352.7 132.5,-352.7"/>
<text text-anchor="start" x="137.5" y="-361.8" font-family="Helvetica,sans-Serif" font-weight="bold" font-size="11.00" fill="#000000">events</text>
<text text-anchor="start" x="182.5437" y="-360.8" font-family="Helvetica,sans-Serif" font-size="11.00" fill="#000000">[table]</text>
<polygon fill="none" stroke="#000000" points="132.5,-330.7 132.5,-352.7 217.5,-352.7 217.5,-330.7 132.5,-330.7"/>
<image xlink:href="../../images/primaryKeys.png" width="11px" height="12px" preserveAspectRatio="xMinYMin meet" x="137.5" y="-347.7"/>
<text text-anchor="start" x="152.5" y="-337.8" font-family="Helvetica,sans-Serif" font-size="11.00" fill="#000000">id</text>
<polygon fill="#ffffff" stroke="transparent" points="132.5,-308.7 132.5,-330.7 217.5,-330.7 217.5,-308.7 132.5,-308.7"/>
<polygon fill="none" stroke="#000000" points="132.5,-308.7 132.5,-330.7 217.5,-330.7 217.5,-308.7 132.5,-308.7"/>
<image xlink:href="../../images/foreignKeys.png" width="11px" height="12px" preserveAspectRatio="xMinYMin meet" x="137.5" y="-325.7"/>
<text text-anchor="start" x="152.5" y="-315.8" font-family="Helvetica,sans-Serif" font-size="11.00" fill="#000000">gym_id</text>
<polygon fill="none" stroke="#000000" points="132.5,-289.7 132.5,-308.7 217.5,-308.7 217.5,-289.7 132.5,-289.7"/>
<text text-anchor="start" x="135.5" y="-295.8" font-family="Helvetica,sans-Serif" font-size="11.00" fill="#000000">...</text>
<polygon fill="#ffffff" stroke="transparent" points="132.5,-270.7 132.5,-289.7 155.5,-289.7 155.5,-270.7 132.5,-270.7"/>
<polygon fill="none" stroke="#000000" points="132.5,-270.7 132.5,-289.7 155.5,-289.7 155.5,-270.7 132.5,-270.7"/>
<text text-anchor="start" x="135.5" y="-276.8" font-family="Helvetica,sans-Serif" font-size="11.00" fill="#000000">&lt; 1</text>
<polygon fill="#ffffff" stroke="transparent" points="155.5,-270.7 155.5,-289.7 194.5,-289.7 194.5,-270.7 155.5,-270.7"/>
<polygon fill="none" stroke="#000000" points="155.5,-270.7 155.5,-289.7 194.5,-289.7 194.5,-270.7 155.5,-270.7"/>
<text text-anchor="start" x="159.1105" y="-276.8" font-family="Helvetica,sans-Serif" font-size="11.00" fill="#000000">0 rows</text>
<polygon fill="#ffffff" stroke="transparent" points="194.5,-270.7 194.5,-289.7 217.5,-289.7 217.5,-270.7 194.5,-270.7"/>
<polygon fill="none" stroke="#000000" points="194.5,-270.7 194.5,-289.7 217.5,-289.7 217.5,-270.7 194.5,-270.7"/>
<text text-anchor="start" x="198.9053" y="-276.8" font-family="Helvetica,sans-Serif" font-size="11.00" fill="#000000">1 &gt;</text>
</a>
</g>
</g>
<!-- gyms -->
<g id="node2" class="node">
<title>gyms</title>
<g id="a_node2"><a xlink:href="../../tables/gyms.html" xlink:title="gyms" target="_top">
<polygon fill="#ffffff" stroke="transparent" points="8,-292.2 8,-353.2 79,-353.2 79,-292.2 8,-292.2"/>
<polygon fill="#f5f5f5" stroke="transparent" points="8.5,-329.7 8.5,-352.7 79.5,-352.7 79.5,-329.7 8.5,-329.7"/>
<polygon fill="none" stroke="#000000" points="8.5,-329.7 8.5,-352.7 79.5,-352.7 79.5,-329.7 8.5,-329.7"/>
<text text-anchor="start" x="13.5" y="-338.8" font-family="Helvetica,sans-Serif" font-weight="bold" font-size="11.00" fill="#000000">gyms</text>
<text text-anchor="start" x="44.5437" y="-337.8" font-family="Helvetica,sans-Serif" font-size="11.00" fill="#000000">[table]</text>
<polygon fill="none" stroke="#000000" points="8.5,-310.7 8.5,-329.7 79.5,-329.7 79.5,-310.7 8.5,-310.7"/>
<text text-anchor="start" x="11.5" y="-316.8" font-family="Helvetica,sans-Serif" font-size="11.00" fill="#000000">...</text>
<polygon fill="#ffffff" stroke="transparent" points="8.5,-291.7 8.5,-310.7 20.5,-310.7 20.5,-291.7 8.5,-291.7"/>
<polygon fill="none" stroke="#000000" points="8.5,-291.7 8.5,-310.7 20.5,-310.7 20.5,-291.7 8.5,-291.7"/>
<text text-anchor="start" x="11.4431" y="-297.8" font-family="Helvetica,sans-Serif" font-size="11.00" fill="#000000"> &#160;</text>
<polygon fill="#ffffff" stroke="transparent" points="20.5,-291.7 20.5,-310.7 58.5,-310.7 58.5,-291.7 20.5,-291.7"/>
<polygon fill="none" stroke="#000000" points="20.5,-291.7 20.5,-310.7 58.5,-310.7 58.5,-291.7 20.5,-291.7"/>
<text text-anchor="start" x="23.3053" y="-297.8" font-family="Helvetica,sans-Serif" font-size="11.00" fill="#000000">0 rows</text>
<polygon fill="#ffffff" stroke="transparent" points="58.5,-291.7 58.5,-310.7 79.5,-310.7 79.5,-291.7 58.5,-291.7"/>
<polygon fill="none" stroke="#000000" points="58.5,-291.7 58.5,-310.7 79.5,-310.7 79.5,-291.7 58.5,-291.7"/>
<text text-anchor="start" x="61.2027" y="-297.8" font-family="Helvetica,sans-Serif" font-size="11.00" fill="#000000">2 &gt;</text>
</a>
</g>
</g>
<!-- events&#45;&gt;gyms -->
<g id="edge1" class="edge">
<title>events:w&#45;&gt;gyms:e</title>
<path fill="none" stroke="#000000" d="M117.9922,-319.7C105.0558,-319.7 97.3507,-319.7 79.5,-319.7"/>
<polygon fill="#000000" stroke="#000000" points="124.5,-319.7001 132.5,-323.3 128.5,-319.7 132.5,-319.7 132.5,-319.7 132.5,-319.7 128.5,-319.7 132.5,-316.1 124.5,-319.7001 124.5,-319.7001"/>
<ellipse fill="none" stroke="#000000" cx="121.3" cy="-319.7001" rx="3.2" ry="3.2"/>
</g>
<!-- gymnast_has_skills -->
<g id="node3" class="node">
<title>gymnast_has_skills</title>
<g id="a_node3"><a xlink:href="../../tables/gymnast_has_skills.html" xlink:title="gymnast_has_skills" target="_top">
<polygon fill="#ffffff" stroke="transparent" points="528,-63.2 528,-168.2 666,-168.2 666,-63.2 528,-63.2"/>
<polygon fill="#f5f5f5" stroke="transparent" points="528,-144.7 528,-167.7 666,-167.7 666,-144.7 528,-144.7"/>
<polygon fill="none" stroke="#000000" points="528,-144.7 528,-167.7 666,-167.7 666,-144.7 528,-144.7"/>
<text text-anchor="start" x="532.8271" y="-153.8" font-family="Helvetica,sans-Serif" font-weight="bold" font-size="11.00" fill="#000000">gymnast_has_skills</text>
<text text-anchor="start" x="631.5219" y="-152.8" font-family="Helvetica,sans-Serif" font-size="11.00" fill="#000000">[table]</text>
<polygon fill="none" stroke="#000000" points="528,-122.7 528,-144.7 666,-144.7 666,-122.7 528,-122.7"/>
<image xlink:href="../../images/primaryKeys.png" width="11px" height="12px" preserveAspectRatio="xMinYMin meet" x="533" y="-139.7"/>
<text text-anchor="start" x="550" y="-129.8" font-family="Helvetica,sans-Serif" font-size="11.00" fill="#000000">gymnast_id</text>
<polygon fill="none" stroke="#000000" points="528,-100.7 528,-122.7 666,-122.7 666,-100.7 528,-100.7"/>
<image xlink:href="../../images/primaryKeys.png" width="11px" height="12px" preserveAspectRatio="xMinYMin meet" x="533" y="-117.7"/>
<text text-anchor="start" x="550" y="-107.8" font-family="Helvetica,sans-Serif" font-size="11.00" fill="#000000">skills_Id</text>
<polygon fill="none" stroke="#000000" points="528,-81.7 528,-100.7 666,-100.7 666,-81.7 528,-81.7"/>
<text text-anchor="start" x="531" y="-87.8" font-family="Helvetica,sans-Serif" font-size="11.00" fill="#000000">...</text>
<polygon fill="#ffffff" stroke="transparent" points="528,-62.7 528,-81.7 582,-81.7 582,-62.7 528,-62.7"/>
<polygon fill="none" stroke="#000000" points="528,-62.7 528,-81.7 582,-81.7 582,-62.7 528,-62.7"/>
<text text-anchor="start" x="531" y="-68.8" font-family="Helvetica,sans-Serif" font-size="11.00" fill="#000000">&lt; 2</text>
<polygon fill="#ffffff" stroke="transparent" points="582,-62.7 582,-81.7 637,-81.7 637,-62.7 582,-62.7"/>
<polygon fill="none" stroke="#000000" points="582,-62.7 582,-81.7 637,-81.7 637,-62.7 582,-62.7"/>
<text text-anchor="start" x="601.6105" y="-68.8" font-family="Helvetica,sans-Serif" font-size="11.00" fill="#000000">0 rows</text>
<polygon fill="#ffffff" stroke="transparent" points="637,-62.7 637,-81.7 666,-81.7 666,-62.7 637,-62.7"/>
<polygon fill="none" stroke="#000000" points="637,-62.7 637,-81.7 666,-81.7 666,-62.7 637,-62.7"/>
<text text-anchor="start" x="656.8862" y="-68.8" font-family="Helvetica,sans-Serif" font-size="11.00" fill="#000000"> &#160;</text>
</a>
</g>
</g>
<!-- gymnasts -->
<g id="node4" class="node">
<title>gymnasts</title>
<g id="a_node4"><a xlink:href="../../tables/gymnasts.html" xlink:title="gymnasts" target="_top">
<polygon fill="#ffffff" stroke="transparent" points="329.5,-38.2 329.5,-99.2 419.5,-99.2 419.5,-38.2 329.5,-38.2"/>
<polygon fill="#f5f5f5" stroke="transparent" points="329.5,-75.7 329.5,-98.7 419.5,-98.7 419.5,-75.7 329.5,-75.7"/>
<polygon fill="none" stroke="#000000" points="329.5,-75.7 329.5,-98.7 419.5,-98.7 419.5,-75.7 329.5,-75.7"/>
<text text-anchor="start" x="334.4683" y="-84.8" font-family="Helvetica,sans-Serif" font-weight="bold" font-size="11.00" fill="#000000">gymnasts</text>
<text text-anchor="start" x="385.0219" y="-83.8" font-family="Helvetica,sans-Serif" font-size="11.00" fill="#000000">[table]</text>
<polygon fill="none" stroke="#000000" points="329.5,-56.7 329.5,-75.7 419.5,-75.7 419.5,-56.7 329.5,-56.7"/>
<text text-anchor="start" x="332.5" y="-62.8" font-family="Helvetica,sans-Serif" font-size="11.00" fill="#000000">...</text>
<polygon fill="#ffffff" stroke="transparent" points="329.5,-37.7 329.5,-56.7 355.5,-56.7 355.5,-37.7 329.5,-37.7"/>
<polygon fill="none" stroke="#000000" points="329.5,-37.7 329.5,-56.7 355.5,-56.7 355.5,-37.7 329.5,-37.7"/>
<text text-anchor="start" x="332.5" y="-43.8" font-family="Helvetica,sans-Serif" font-size="11.00" fill="#000000">&lt; 2</text>
<polygon fill="#ffffff" stroke="transparent" points="355.5,-37.7 355.5,-56.7 395.5,-56.7 395.5,-37.7 355.5,-37.7"/>
<polygon fill="none" stroke="#000000" points="355.5,-37.7 355.5,-56.7 395.5,-56.7 395.5,-37.7 355.5,-37.7"/>
<text text-anchor="start" x="360.1105" y="-43.8" font-family="Helvetica,sans-Serif" font-size="11.00" fill="#000000">0 rows</text>
<polygon fill="#ffffff" stroke="transparent" points="395.5,-37.7 395.5,-56.7 419.5,-56.7 419.5,-37.7 395.5,-37.7"/>
<polygon fill="none" stroke="#000000" points="395.5,-37.7 395.5,-56.7 419.5,-56.7 419.5,-37.7 395.5,-37.7"/>
<text text-anchor="start" x="400.9053" y="-43.8" font-family="Helvetica,sans-Serif" font-size="11.00" fill="#000000">4 &gt;</text>
</a>
</g>
</g>
<!-- gymnast_has_skills&#45;&gt;gymnasts -->
<g id="edge2" class="edge">
<title>gymnast_has_skills:w&#45;&gt;gymnasts:e</title>
<path fill="none" stroke="#000000" d="M514.7189,-127.9024C487.1314,-111.4581 431.171,-65.7 419.5,-65.7"/>
<polygon fill="#000000" stroke="#000000" points="520.6681,-130.4994 526.5597,-136.9993 524.3341,-132.0997 528,-133.7 528,-133.7 528,-133.7 524.3341,-132.0997 529.4403,-130.4007 520.6681,-130.4994 520.6681,-130.4994"/>
<ellipse fill="none" stroke="#000000" cx="517.7354" cy="-129.2191" rx="3.2" ry="3.2"/>
</g>
<!-- skills -->
<g id="node5" class="node">
<title>skills</title>
<g id="a_node5"><a xlink:href="../../tables/skills.html" xlink:title="skills" target="_top">
<polygon fill="#ffffff" stroke="transparent" points="270,-120.7 270,-342.7 479,-342.7 479,-120.7 270,-120.7"/>
<polygon fill="#f5f5f5" stroke="transparent" points="272.5,-317.7 272.5,-340.7 477.5,-340.7 477.5,-317.7 272.5,-317.7"/>
<polygon fill="none" stroke="#000000" points="272.5,-317.7 272.5,-340.7 477.5,-340.7 477.5,-317.7 272.5,-317.7"/>
<text text-anchor="start" x="277.5" y="-326.8" font-family="Helvetica,sans-Serif" font-weight="bold" font-size="11.00" fill="#000000">skills</text>
<text text-anchor="start" x="442.5437" y="-325.8" font-family="Helvetica,sans-Serif" font-size="11.00" fill="#000000">[table]</text>
<polygon fill="none" stroke="#000000" points="272.5,-295.7 272.5,-317.7 360.5,-317.7 360.5,-295.7 272.5,-295.7"/>
<image xlink:href="../../images/primaryKeys.png" width="11px" height="12px" preserveAspectRatio="xMinYMin meet" x="277.5" y="-312.7"/>
<text text-anchor="start" x="292.5" y="-302.8" font-family="Helvetica,sans-Serif" font-size="11.00" fill="#000000">id</text>
<polygon fill="none" stroke="#000000" points="360.5,-295.7 360.5,-317.7 477.5,-317.7 477.5,-295.7 360.5,-295.7"/>
<text text-anchor="start" x="363.5" y="-303.4" font-family="Helvetica,sans-Serif" font-size="11.00" fill="#000000">bigint unsigned[20]</text>
<polygon fill="none" stroke="#000000" points="272.5,-273.7 272.5,-295.7 360.5,-295.7 360.5,-273.7 272.5,-273.7"/>
<text text-anchor="start" x="292.5" y="-280.8" font-family="Helvetica,sans-Serif" font-size="11.00" fill="#000000">name</text>
<polygon fill="none" stroke="#000000" points="360.5,-273.7 360.5,-295.7 477.5,-295.7 477.5,-273.7 360.5,-273.7"/>
<text text-anchor="start" x="363.5" y="-281.4" font-family="Helvetica,sans-Serif" font-size="11.00" fill="#000000">varchar[45]</text>
<polygon fill="none" stroke="#000000" points="272.5,-251.7 272.5,-273.7 360.5,-273.7 360.5,-251.7 272.5,-251.7"/>
<text text-anchor="start" x="292.5" y="-258.8" font-family="Helvetica,sans-Serif" font-size="11.00" fill="#000000">description</text>
<polygon fill="none" stroke="#000000" points="360.5,-251.7 360.5,-273.7 477.5,-273.7 477.5,-251.7 360.5,-251.7"/>
<text text-anchor="start" x="363.0645" y="-259.4" font-family="Helvetica,sans-Serif" font-size="11.00" fill="#000000">mediumtext[16777215]</text>
<polygon fill="none" stroke="#000000" points="272.5,-229.7 272.5,-251.7 360.5,-251.7 360.5,-229.7 272.5,-229.7"/>
<text text-anchor="start" x="292.5" y="-236.8" font-family="Helvetica,sans-Serif" font-size="11.00" fill="#000000">category</text>
<polygon fill="none" stroke="#000000" points="360.5,-229.7 360.5,-251.7 477.5,-251.7 477.5,-229.7 360.5,-229.7"/>
<text text-anchor="start" x="363.5" y="-237.4" font-family="Helvetica,sans-Serif" font-size="11.00" fill="#000000">varchar[45]</text>
<polygon fill="none" stroke="#000000" points="272.5,-207.7 272.5,-229.7 360.5,-229.7 360.5,-207.7 272.5,-207.7"/>
<text text-anchor="start" x="292.5" y="-214.8" font-family="Helvetica,sans-Serif" font-size="11.00" fill="#000000">certificate</text>
<polygon fill="none" stroke="#000000" points="360.5,-207.7 360.5,-229.7 477.5,-229.7 477.5,-207.7 360.5,-207.7"/>
<text text-anchor="start" x="363.5" y="-215.4" font-family="Helvetica,sans-Serif" font-size="11.00" fill="#000000">bit[1]</text>
<polygon fill="#ffffff" stroke="transparent" points="272.5,-185.7 272.5,-207.7 360.5,-207.7 360.5,-185.7 272.5,-185.7"/>
<polygon fill="none" stroke="#000000" points="272.5,-185.7 272.5,-207.7 360.5,-207.7 360.5,-185.7 272.5,-185.7"/>
<image xlink:href="../../images/foreignKeys.png" width="11px" height="12px" preserveAspectRatio="xMinYMin meet" x="277.5" y="-202.7"/>
<text text-anchor="start" x="292.5" y="-192.8" font-family="Helvetica,sans-Serif" font-size="11.00" fill="#000000">event_id</text>
<polygon fill="none" stroke="#000000" points="360.5,-185.7 360.5,-207.7 477.5,-207.7 477.5,-185.7 360.5,-185.7"/>
<text text-anchor="start" x="363.5" y="-193.4" font-family="Helvetica,sans-Serif" font-size="11.00" fill="#000000">bigint[19]</text>
<polygon fill="#ffffff" stroke="transparent" points="272.5,-163.7 272.5,-185.7 360.5,-185.7 360.5,-163.7 272.5,-163.7"/>
<polygon fill="none" stroke="#000000" points="272.5,-163.7 272.5,-185.7 360.5,-185.7 360.5,-163.7 272.5,-163.7"/>
<image xlink:href="../../images/foreignKeys.png" width="11px" height="12px" preserveAspectRatio="xMinYMin meet" x="277.5" y="-180.7"/>
<text text-anchor="start" x="292.5" y="-170.8" font-family="Helvetica,sans-Serif" font-size="11.00" fill="#000000">category_id</text>
<polygon fill="none" stroke="#000000" points="360.5,-163.7 360.5,-185.7 477.5,-185.7 477.5,-163.7 360.5,-163.7"/>
<text text-anchor="start" x="363.5" y="-171.4" font-family="Helvetica,sans-Serif" font-size="11.00" fill="#000000">bigint[19]</text>
<polygon fill="#ffffff" stroke="transparent" points="272.5,-141.7 272.5,-163.7 360.5,-163.7 360.5,-141.7 272.5,-141.7"/>
<polygon fill="none" stroke="#000000" points="272.5,-141.7 272.5,-163.7 360.5,-163.7 360.5,-141.7 272.5,-141.7"/>
<image xlink:href="../../images/foreignKeys.png" width="11px" height="12px" preserveAspectRatio="xMinYMin meet" x="277.5" y="-158.7"/>
<text text-anchor="start" x="292.5" y="-148.8" font-family="Helvetica,sans-Serif" font-size="11.00" fill="#000000">level_id</text>
<polygon fill="none" stroke="#000000" points="360.5,-141.7 360.5,-163.7 477.5,-163.7 477.5,-141.7 360.5,-141.7"/>
<text text-anchor="start" x="363.5" y="-149.4" font-family="Helvetica,sans-Serif" font-size="11.00" fill="#000000">bigint[19]</text>
<polygon fill="#ffffff" stroke="transparent" points="272.5,-122.7 272.5,-141.7 307.5,-141.7 307.5,-122.7 272.5,-122.7"/>
<polygon fill="none" stroke="#000000" points="272.5,-122.7 272.5,-141.7 307.5,-141.7 307.5,-122.7 272.5,-122.7"/>
<text text-anchor="start" x="275.5" y="-128.8" font-family="Helvetica,sans-Serif" font-size="11.00" fill="#000000">&lt; 3</text>
<polygon fill="#ffffff" stroke="transparent" points="307.5,-122.7 307.5,-141.7 360.5,-141.7 360.5,-122.7 307.5,-122.7"/>
<polygon fill="none" stroke="#000000" points="307.5,-122.7 307.5,-141.7 360.5,-141.7 360.5,-122.7 307.5,-122.7"/>
<text text-anchor="start" x="325.1105" y="-128.8" font-family="Helvetica,sans-Serif" font-size="11.00" fill="#000000">0 rows</text>
<polygon fill="#ffffff" stroke="transparent" points="360.5,-122.7 360.5,-141.7 477.5,-141.7 477.5,-122.7 360.5,-122.7"/>
<polygon fill="none" stroke="#000000" points="360.5,-122.7 360.5,-141.7 477.5,-141.7 477.5,-122.7 360.5,-122.7"/>
<text text-anchor="start" x="458.9053" y="-128.8" font-family="Helvetica,sans-Serif" font-size="11.00" fill="#000000">2 &gt;</text>
<polygon fill="none" stroke="#000000" stroke-width="2" points="271,-121.7 271,-341.7 478,-341.7 478,-121.7 271,-121.7"/>
</a>
</g>
</g>
<!-- gymnast_has_skills&#45;&gt;skills -->
<g id="edge3" class="edge">
<title>gymnast_has_skills:w&#45;&gt;skills:e</title>
<path fill="none" stroke="#000000" d="M513.663,-113.8899C453.6913,-135.3133 561.4304,-306.7 477.5,-306.7"/>
<polygon fill="#000000" stroke="#000000" points="520.0917,-112.908 528.5436,-115.2587 524.0459,-112.304 528,-111.7 528,-111.7 528,-111.7 524.0459,-112.304 527.4564,-108.1413 520.0917,-112.908 520.0917,-112.908"/>
<ellipse fill="none" stroke="#000000" cx="516.9284" cy="-113.3912" rx="3.2" ry="3.2"/>
</g>
<!-- skills&#45;&gt;events -->
<g id="edge7" class="edge">
<title>skills:w&#45;&gt;events:e</title>
<path fill="none" stroke="#000000" d="M258.1659,-199.5964C216.4209,-220.0327 280.6361,-341.7 217.5,-341.7"/>
<polygon fill="#000000" stroke="#000000" points="264.6585,-198.2846 273.213,-200.2287 268.5792,-197.4923 272.5,-196.7 272.5,-196.7 272.5,-196.7 268.5792,-197.4923 271.787,-193.1713 264.6585,-198.2846 264.6585,-198.2846"/>
<ellipse fill="none" stroke="#000000" cx="261.5219" cy="-198.9184" rx="3.2" ry="3.2"/>
</g>
<!-- levels -->
<g id="node7" class="node">
<title>levels</title>
<g id="a_node7"><a xlink:href="../../tables/levels.html" xlink:title="levels" target="_top">
<polygon fill="#ffffff" stroke="transparent" points="132,-63.2 132,-146.2 217,-146.2 217,-63.2 132,-63.2"/>
<polygon fill="#f5f5f5" stroke="transparent" points="132.5,-122.7 132.5,-145.7 217.5,-145.7 217.5,-122.7 132.5,-122.7"/>
<polygon fill="none" stroke="#000000" points="132.5,-122.7 132.5,-145.7 217.5,-145.7 217.5,-122.7 132.5,-122.7"/>
<text text-anchor="start" x="137.5" y="-131.8" font-family="Helvetica,sans-Serif" font-weight="bold" font-size="11.00" fill="#000000">levels</text>
<text text-anchor="start" x="182.5437" y="-130.8" font-family="Helvetica,sans-Serif" font-size="11.00" fill="#000000">[table]</text>
<polygon fill="none" stroke="#000000" points="132.5,-100.7 132.5,-122.7 217.5,-122.7 217.5,-100.7 132.5,-100.7"/>
<image xlink:href="../../images/primaryKeys.png" width="11px" height="12px" preserveAspectRatio="xMinYMin meet" x="137.5" y="-117.7"/>
<text text-anchor="start" x="152.5" y="-107.8" font-family="Helvetica,sans-Serif" font-size="11.00" fill="#000000">id</text>
<polygon fill="none" stroke="#000000" points="132.5,-81.7 132.5,-100.7 217.5,-100.7 217.5,-81.7 132.5,-81.7"/>
<text text-anchor="start" x="135.5" y="-87.8" font-family="Helvetica,sans-Serif" font-size="11.00" fill="#000000">...</text>
<polygon fill="#ffffff" stroke="transparent" points="132.5,-62.7 132.5,-81.7 151.5,-81.7 151.5,-62.7 132.5,-62.7"/>
<polygon fill="none" stroke="#000000" points="132.5,-62.7 132.5,-81.7 151.5,-81.7 151.5,-62.7 132.5,-62.7"/>
<text text-anchor="start" x="135.5" y="-68.8" font-family="Helvetica,sans-Serif" font-size="11.00" fill="#000000"> &#160;</text>
<polygon fill="#ffffff" stroke="transparent" points="151.5,-62.7 151.5,-81.7 192.5,-81.7 192.5,-62.7 151.5,-62.7"/>
<polygon fill="none" stroke="#000000" points="151.5,-62.7 151.5,-81.7 192.5,-81.7 192.5,-62.7 151.5,-62.7"/>
<text text-anchor="start" x="157.1105" y="-68.8" font-family="Helvetica,sans-Serif" font-size="11.00" fill="#000000">0 rows</text>
<polygon fill="#ffffff" stroke="transparent" points="192.5,-62.7 192.5,-81.7 217.5,-81.7 217.5,-62.7 192.5,-62.7"/>
<polygon fill="none" stroke="#000000" points="192.5,-62.7 192.5,-81.7 217.5,-81.7 217.5,-62.7 192.5,-62.7"/>
<text text-anchor="start" x="198.9053" y="-68.8" font-family="Helvetica,sans-Serif" font-size="11.00" fill="#000000">2 &gt;</text>
</a>
</g>
</g>
<!-- skills&#45;&gt;levels -->
<g id="edge8" class="edge">
<title>skills:w&#45;&gt;levels:e</title>
<path fill="none" stroke="#000000" d="M258.2653,-148.6189C242.955,-138.2484 242.0341,-111.7 217.5,-111.7"/>
<polygon fill="#000000" stroke="#000000" points="264.8098,-150.4952 271.5078,-156.1606 268.6549,-151.5976 272.5,-152.7 272.5,-152.7 272.5,-152.7 268.6549,-151.5976 273.4922,-149.2394 264.8098,-150.4952 264.8098,-150.4952"/>
<ellipse fill="none" stroke="#000000" cx="261.7337" cy="-149.6132" rx="3.2" ry="3.2"/>
</g>
<!-- categories -->
<g id="node8" class="node">
<title>categories</title>
<g id="a_node8"><a xlink:href="../../tables/categories.html" xlink:title="categories" target="_top">
<polygon fill="#ffffff" stroke="transparent" points="128,-167.2 128,-250.2 221,-250.2 221,-167.2 128,-167.2"/>
<polygon fill="#f5f5f5" stroke="transparent" points="128.5,-226.7 128.5,-249.7 221.5,-249.7 221.5,-226.7 128.5,-226.7"/>
<polygon fill="none" stroke="#000000" points="128.5,-226.7 128.5,-249.7 221.5,-249.7 221.5,-226.7 128.5,-226.7"/>
<text text-anchor="start" x="133.1329" y="-235.8" font-family="Helvetica,sans-Serif" font-weight="bold" font-size="11.00" fill="#000000">categories</text>
<text text-anchor="start" x="187.0219" y="-234.8" font-family="Helvetica,sans-Serif" font-size="11.00" fill="#000000">[table]</text>
<polygon fill="none" stroke="#000000" points="128.5,-204.7 128.5,-226.7 221.5,-226.7 221.5,-204.7 128.5,-204.7"/>
<image xlink:href="../../images/primaryKeys.png" width="11px" height="12px" preserveAspectRatio="xMinYMin meet" x="133.5" y="-221.7"/>
<text text-anchor="start" x="152.5" y="-211.8" font-family="Helvetica,sans-Serif" font-size="11.00" fill="#000000">id</text>
<polygon fill="none" stroke="#000000" points="128.5,-185.7 128.5,-204.7 221.5,-204.7 221.5,-185.7 128.5,-185.7"/>
<text text-anchor="start" x="131.5" y="-191.8" font-family="Helvetica,sans-Serif" font-size="11.00" fill="#000000">...</text>
<polygon fill="#ffffff" stroke="transparent" points="128.5,-166.7 128.5,-185.7 151.5,-185.7 151.5,-166.7 128.5,-166.7"/>
<polygon fill="none" stroke="#000000" points="128.5,-166.7 128.5,-185.7 151.5,-185.7 151.5,-166.7 128.5,-166.7"/>
<text text-anchor="start" x="131.5" y="-172.8" font-family="Helvetica,sans-Serif" font-size="11.00" fill="#000000"> &#160;</text>
<polygon fill="#ffffff" stroke="transparent" points="151.5,-166.7 151.5,-185.7 194.5,-185.7 194.5,-166.7 151.5,-166.7"/>
<polygon fill="none" stroke="#000000" points="151.5,-166.7 151.5,-185.7 194.5,-185.7 194.5,-166.7 151.5,-166.7"/>
<text text-anchor="start" x="159.1105" y="-172.8" font-family="Helvetica,sans-Serif" font-size="11.00" fill="#000000">0 rows</text>
<polygon fill="#ffffff" stroke="transparent" points="194.5,-166.7 194.5,-185.7 221.5,-185.7 221.5,-166.7 194.5,-166.7"/>
<polygon fill="none" stroke="#000000" points="194.5,-166.7 194.5,-185.7 221.5,-185.7 221.5,-166.7 194.5,-166.7"/>
<text text-anchor="start" x="202.9053" y="-172.8" font-family="Helvetica,sans-Serif" font-size="11.00" fill="#000000">1 &gt;</text>
</a>
</g>
</g>
<!-- skills&#45;&gt;categories -->
<g id="edge6" class="edge">
<title>skills:w&#45;&gt;categories:e</title>
<path fill="none" stroke="#000000" d="M258.6568,-179.0877C244.8325,-189.6646 244.6756,-215.7 221.5,-215.7"/>
<polygon fill="#000000" stroke="#000000" points="264.8739,-177.1172 273.5877,-178.1317 268.6869,-175.9086 272.5,-174.7 272.5,-174.7 272.5,-174.7 268.6869,-175.9086 271.4123,-171.2683 264.8739,-177.1172 264.8739,-177.1172"/>
<ellipse fill="none" stroke="#000000" cx="261.8235" cy="-178.0841" rx="3.2" ry="3.2"/>
</g>
<!-- skill_has_levels -->
<g id="node6" class="node">
<title>skill_has_levels</title>
<g id="a_node6"><a xlink:href="../../tables/skill_has_levels.html" xlink:title="skill_has_levels" target="_top">
<polygon fill="#ffffff" stroke="transparent" points="537.5,-277.2 537.5,-382.2 656.5,-382.2 656.5,-277.2 537.5,-277.2"/>
<polygon fill="#f5f5f5" stroke="transparent" points="538,-358.7 538,-381.7 657,-381.7 657,-358.7 538,-358.7"/>
<polygon fill="none" stroke="#000000" points="538,-358.7 538,-381.7 657,-381.7 657,-358.7 538,-358.7"/>
<text text-anchor="start" x="542.8031" y="-367.8" font-family="Helvetica,sans-Serif" font-weight="bold" font-size="11.00" fill="#000000">skill_has_levels</text>
<text text-anchor="start" x="622.5219" y="-366.8" font-family="Helvetica,sans-Serif" font-size="11.00" fill="#000000">[table]</text>
<polygon fill="none" stroke="#000000" points="538,-336.7 538,-358.7 657,-358.7 657,-336.7 538,-336.7"/>
<image xlink:href="../../images/primaryKeys.png" width="11px" height="12px" preserveAspectRatio="xMinYMin meet" x="543" y="-353.7"/>
<text text-anchor="start" x="562" y="-343.8" font-family="Helvetica,sans-Serif" font-size="11.00" fill="#000000">levels_id</text>
<polygon fill="none" stroke="#000000" points="538,-314.7 538,-336.7 657,-336.7 657,-314.7 538,-314.7"/>
<image xlink:href="../../images/primaryKeys.png" width="11px" height="12px" preserveAspectRatio="xMinYMin meet" x="543" y="-331.7"/>
<text text-anchor="start" x="562" y="-321.8" font-family="Helvetica,sans-Serif" font-size="11.00" fill="#000000">skills_id</text>
<polygon fill="none" stroke="#000000" points="538,-295.7 538,-314.7 657,-314.7 657,-295.7 538,-295.7"/>
<text text-anchor="start" x="541" y="-301.8" font-family="Helvetica,sans-Serif" font-size="11.00" fill="#000000">...</text>
<polygon fill="#ffffff" stroke="transparent" points="538,-276.7 538,-295.7 583,-295.7 583,-276.7 538,-276.7"/>
<polygon fill="none" stroke="#000000" points="538,-276.7 538,-295.7 583,-295.7 583,-276.7 538,-276.7"/>
<text text-anchor="start" x="541" y="-282.8" font-family="Helvetica,sans-Serif" font-size="11.00" fill="#000000">&lt; 2</text>
<polygon fill="#ffffff" stroke="transparent" points="583,-276.7 583,-295.7 633,-295.7 633,-276.7 583,-276.7"/>
<polygon fill="none" stroke="#000000" points="583,-276.7 583,-295.7 633,-295.7 633,-276.7 583,-276.7"/>
<text text-anchor="start" x="597.6105" y="-282.8" font-family="Helvetica,sans-Serif" font-size="11.00" fill="#000000">0 rows</text>
<polygon fill="#ffffff" stroke="transparent" points="633,-276.7 633,-295.7 657,-295.7 657,-276.7 633,-276.7"/>
<polygon fill="none" stroke="#000000" points="633,-276.7 633,-295.7 657,-295.7 657,-276.7 633,-276.7"/>
<text text-anchor="start" x="647.8862" y="-282.8" font-family="Helvetica,sans-Serif" font-size="11.00" fill="#000000"> &#160;</text>
</a>
</g>
</g>
<!-- skill_has_levels&#45;&gt;skills -->
<g id="edge5" class="edge">
<title>skill_has_levels:w&#45;&gt;skills:e</title>
<path fill="none" stroke="#000000" d="M523.3994,-323.6667C507.1451,-318.7652 499.9589,-306.7 477.5,-306.7"/>
<polygon fill="#000000" stroke="#000000" points="530.0765,-324.5965 537.5034,-329.2656 534.0382,-325.1482 538,-325.7 538,-325.7 538,-325.7 534.0382,-325.1482 538.4966,-322.1344 530.0765,-324.5965 530.0765,-324.5965"/>
<ellipse fill="none" stroke="#000000" cx="526.9071" cy="-324.1551" rx="3.2" ry="3.2"/>
</g>
<!-- skill_has_levels&#45;&gt;levels -->
<g id="edge4" class="edge">
<title>skill_has_levels:w&#45;&gt;levels:e</title>
<path fill="none" stroke="#000000" d="M523.6068,-348.4497C511.3935,-349.8241 504.0879,-352.6983 487,-353.7 387.1714,-359.5521 338.3286,-418.3061 262,-353.7 178.5279,-283.0475 326.8588,-111.7 217.5,-111.7"/>
<polygon fill="#000000" stroke="#000000" points="530.0108,-348.1162 538.1873,-351.2951 534.0054,-347.9081 538,-347.7 538,-347.7 538,-347.7 534.0054,-347.9081 537.8127,-344.1049 530.0108,-348.1162 530.0108,-348.1162"/>
<ellipse fill="none" stroke="#000000" cx="526.8152" cy="-348.2826" rx="3.2" ry="3.2"/>
</g>
</g>
</svg>
