<?xml version="1.0" encoding="UTF-8" standalone="no"?>
<!DOCTYPE svg PUBLIC "-//W3C//DTD SVG 1.1//EN"
 "http://www.w3.org/Graphics/SVG/1.1/DTD/svg11.dtd">
<!-- Generated by graphviz version 2.40.1 (20161225.0304)
 -->
<!-- Title: oneDegreeRelationshipsDiagram Pages: 1 -->
<svg width="530pt" height="184pt"
 viewBox="0.00 0.00 530.00 184.20" xmlns="http://www.w3.org/2000/svg" xmlns:xlink="http://www.w3.org/1999/xlink">
<g id="graph0" class="graph" transform="scale(1 1) rotate(0) translate(4 180.2)">
<title>oneDegreeRelationshipsDiagram</title>
<polygon fill="#ffffff" stroke="transparent" points="-4,4 -4,-180.2 526,-180.2 526,4 -4,4"/>
<text text-anchor="middle" x="72.4936" y="-7.3" font-family="Helvetica,sans-Serif" font-size="11.00" fill="#000000">Generated by SchemaSpy</text>
<!-- skill_lists -->
<g id="node1" class="node">
<title>skill_lists</title>
<g id="a_node1"><a xlink:href="../../tables/skill_lists.html" xlink:title="skill_lists" target="_top">
<polygon fill="#ffffff" stroke="transparent" points="142,-38.2 142,-172.2 325,-172.2 325,-38.2 142,-38.2"/>
<polygon fill="#f5f5f5" stroke="transparent" points="144.5,-147.2 144.5,-170.2 323.5,-170.2 323.5,-147.2 144.5,-147.2"/>
<polygon fill="none" stroke="#000000" points="144.5,-147.2 144.5,-170.2 323.5,-170.2 323.5,-147.2 144.5,-147.2"/>
<text text-anchor="start" x="149.5" y="-156.3" font-family="Helvetica,sans-Serif" font-weight="bold" font-size="11.00" fill="#000000">skill_lists</text>
<text text-anchor="start" x="288.5437" y="-155.3" font-family="Helvetica,sans-Serif" font-size="11.00" fill="#000000">[table]</text>
<polygon fill="none" stroke="#000000" points="144.5,-125.2 144.5,-147.2 225.5,-147.2 225.5,-125.2 144.5,-125.2"/>
<image xlink:href="../../images/primaryKeys.png" width="11px" height="12px" preserveAspectRatio="xMinYMin meet" x="149.5" y="-142.2"/>
<text text-anchor="start" x="164.5" y="-132.3" font-family="Helvetica,sans-Serif" font-size="11.00" fill="#000000">id</text>
<polygon fill="none" stroke="#000000" points="225.5,-125.2 225.5,-147.2 323.5,-147.2 323.5,-125.2 225.5,-125.2"/>
<text text-anchor="start" x="228.3429" y="-132.9" font-family="Helvetica,sans-Serif" font-size="11.00" fill="#000000">bigint unsigned[20]</text>
<polygon fill="#ffffff" stroke="transparent" points="144.5,-103.2 144.5,-125.2 225.5,-125.2 225.5,-103.2 144.5,-103.2"/>
<polygon fill="none" stroke="#000000" points="144.5,-103.2 144.5,-125.2 225.5,-125.2 225.5,-103.2 144.5,-103.2"/>
<image xlink:href="../../images/foreignKeys.png" width="11px" height="12px" preserveAspectRatio="xMinYMin meet" x="149.5" y="-120.2"/>
<text text-anchor="start" x="164.5" y="-110.3" font-family="Helvetica,sans-Serif" font-size="11.00" fill="#000000">gym_id</text>
<polygon fill="none" stroke="#000000" points="225.5,-103.2 225.5,-125.2 323.5,-125.2 323.5,-103.2 225.5,-103.2"/>
<text text-anchor="start" x="228.5" y="-110.9" font-family="Helvetica,sans-Serif" font-size="11.00" fill="#000000">bigint[19]</text>
<polygon fill="none" stroke="#000000" points="144.5,-81.2 144.5,-103.2 225.5,-103.2 225.5,-81.2 144.5,-81.2"/>
<text text-anchor="start" x="164.5" y="-88.3" font-family="Helvetica,sans-Serif" font-size="11.00" fill="#000000">name</text>
<polygon fill="none" stroke="#000000" points="225.5,-81.2 225.5,-103.2 323.5,-103.2 323.5,-81.2 225.5,-81.2"/>
<text text-anchor="start" x="228.5" y="-88.9" font-family="Helvetica,sans-Serif" font-size="11.00" fill="#000000">varchar[45]</text>
<polygon fill="none" stroke="#000000" points="144.5,-59.2 144.5,-81.2 225.5,-81.2 225.5,-59.2 144.5,-59.2"/>
<text text-anchor="start" x="164.5" y="-66.3" font-family="Helvetica,sans-Serif" font-size="11.00" fill="#000000">timestamp</text>
<polygon fill="none" stroke="#000000" points="225.5,-59.2 225.5,-81.2 323.5,-81.2 323.5,-59.2 225.5,-59.2"/>
<text text-anchor="start" x="228.5" y="-66.9" font-family="Helvetica,sans-Serif" font-size="11.00" fill="#000000">date[10]</text>
<polygon fill="#ffffff" stroke="transparent" points="144.5,-40.2 144.5,-59.2 176.5,-59.2 176.5,-40.2 144.5,-40.2"/>
<polygon fill="none" stroke="#000000" points="144.5,-40.2 144.5,-59.2 176.5,-59.2 176.5,-40.2 144.5,-40.2"/>
<text text-anchor="start" x="147.5" y="-46.3" font-family="Helvetica,sans-Serif" font-size="11.00" fill="#000000">&lt; 1</text>
<polygon fill="#ffffff" stroke="transparent" points="176.5,-40.2 176.5,-59.2 225.5,-59.2 225.5,-40.2 176.5,-40.2"/>
<polygon fill="none" stroke="#000000" points="176.5,-40.2 176.5,-59.2 225.5,-59.2 225.5,-40.2 176.5,-40.2"/>
<text text-anchor="start" x="190.1105" y="-46.3" font-family="Helvetica,sans-Serif" font-size="11.00" fill="#000000">0 rows</text>
<polygon fill="#ffffff" stroke="transparent" points="225.5,-40.2 225.5,-59.2 323.5,-59.2 323.5,-40.2 225.5,-40.2"/>
<polygon fill="none" stroke="#000000" points="225.5,-40.2 225.5,-59.2 323.5,-59.2 323.5,-40.2 225.5,-40.2"/>
<text text-anchor="start" x="304.9053" y="-46.3" font-family="Helvetica,sans-Serif" font-size="11.00" fill="#000000">1 &gt;</text>
<polygon fill="none" stroke="#000000" stroke-width="2" points="143,-39.2 143,-171.2 324,-171.2 324,-39.2 143,-39.2"/>
</a>
</g>
</g>
<!-- gyms -->
<g id="node2" class="node">
<title>gyms</title>
<g id="a_node2"><a xlink:href="../../tables/gyms.html" xlink:title="gyms" target="_top">
<polygon fill="#ffffff" stroke="transparent" points="8,-65.7 8,-148.7 93,-148.7 93,-65.7 8,-65.7"/>
<polygon fill="#f5f5f5" stroke="transparent" points="8.5,-125.2 8.5,-148.2 93.5,-148.2 93.5,-125.2 8.5,-125.2"/>
<polygon fill="none" stroke="#000000" points="8.5,-125.2 8.5,-148.2 93.5,-148.2 93.5,-125.2 8.5,-125.2"/>
<text text-anchor="start" x="13.5" y="-134.3" font-family="Helvetica,sans-Serif" font-weight="bold" font-size="11.00" fill="#000000">gyms</text>
<text text-anchor="start" x="58.5437" y="-133.3" font-family="Helvetica,sans-Serif" font-size="11.00" fill="#000000">[table]</text>
<polygon fill="none" stroke="#000000" points="8.5,-103.2 8.5,-125.2 93.5,-125.2 93.5,-103.2 8.5,-103.2"/>
<image xlink:href="../../images/primaryKeys.png" width="11px" height="12px" preserveAspectRatio="xMinYMin meet" x="13.5" y="-120.2"/>
<text text-anchor="start" x="28.5" y="-110.3" font-family="Helvetica,sans-Serif" font-size="11.00" fill="#000000">id</text>
<polygon fill="none" stroke="#000000" points="8.5,-84.2 8.5,-103.2 93.5,-103.2 93.5,-84.2 8.5,-84.2"/>
<text text-anchor="start" x="11.5" y="-90.3" font-family="Helvetica,sans-Serif" font-size="11.00" fill="#000000">...</text>
<polygon fill="#ffffff" stroke="transparent" points="8.5,-65.2 8.5,-84.2 27.5,-84.2 27.5,-65.2 8.5,-65.2"/>
<polygon fill="none" stroke="#000000" points="8.5,-65.2 8.5,-84.2 27.5,-84.2 27.5,-65.2 8.5,-65.2"/>
<text text-anchor="start" x="11.5" y="-71.3" font-family="Helvetica,sans-Serif" font-size="11.00" fill="#000000"> &#160;</text>
<polygon fill="#ffffff" stroke="transparent" points="27.5,-65.2 27.5,-84.2 68.5,-84.2 68.5,-65.2 27.5,-65.2"/>
<polygon fill="none" stroke="#000000" points="27.5,-65.2 27.5,-84.2 68.5,-84.2 68.5,-65.2 27.5,-65.2"/>
<text text-anchor="start" x="33.1105" y="-71.3" font-family="Helvetica,sans-Serif" font-size="11.00" fill="#000000">0 rows</text>
<polygon fill="#ffffff" stroke="transparent" points="68.5,-65.2 68.5,-84.2 93.5,-84.2 93.5,-65.2 68.5,-65.2"/>
<polygon fill="none" stroke="#000000" points="68.5,-65.2 68.5,-84.2 93.5,-84.2 93.5,-65.2 68.5,-65.2"/>
<text text-anchor="start" x="74.9053" y="-71.3" font-family="Helvetica,sans-Serif" font-size="11.00" fill="#000000">3 &gt;</text>
</a>
</g>
</g>
<!-- skill_lists&#45;&gt;gyms -->
<g id="edge1" class="edge">
<title>skill_lists:w&#45;&gt;gyms:e</title>
<path fill="none" stroke="#000000" d="M129.776,-114.2C117.7815,-114.2 110.3229,-114.2 93.5,-114.2"/>
<polygon fill="#000000" stroke="#000000" points="136.5,-114.2001 144.5,-117.8 140.5,-114.2 144.5,-114.2 144.5,-114.2 144.5,-114.2 140.5,-114.2 144.5,-110.6 136.5,-114.2001 136.5,-114.2001"/>
<ellipse fill="none" stroke="#000000" cx="133.3" cy="-114.2001" rx="3.2" ry="3.2"/>
</g>
<!-- skill_lists_has_skills -->
<g id="node3" class="node">
<title>skill_lists_has_skills</title>
<g id="a_node3"><a xlink:href="../../tables/skill_lists_has_skills.html" xlink:title="skill_lists_has_skills" target="_top">
<polygon fill="#ffffff" stroke="transparent" points="374,-65.7 374,-170.7 514,-170.7 514,-65.7 374,-65.7"/>
<polygon fill="#f5f5f5" stroke="transparent" points="374,-147.2 374,-170.2 514,-170.2 514,-147.2 374,-147.2"/>
<polygon fill="none" stroke="#000000" points="374,-147.2 374,-170.2 514,-170.2 514,-147.2 374,-147.2"/>
<text text-anchor="start" x="378.9207" y="-156.3" font-family="Helvetica,sans-Serif" font-weight="bold" font-size="11.00" fill="#000000">skill_lists_has_skills</text>
<text text-anchor="start" x="479.5219" y="-155.3" font-family="Helvetica,sans-Serif" font-size="11.00" fill="#000000">[table]</text>
<polygon fill="none" stroke="#000000" points="374,-125.2 374,-147.2 514,-147.2 514,-125.2 374,-125.2"/>
<image xlink:href="../../images/primaryKeys.png" width="11px" height="12px" preserveAspectRatio="xMinYMin meet" x="379" y="-142.2"/>
<text text-anchor="start" x="395" y="-132.3" font-family="Helvetica,sans-Serif" font-size="11.00" fill="#000000">skill_list_id</text>
<polygon fill="none" stroke="#000000" points="374,-103.2 374,-125.2 514,-125.2 514,-103.2 374,-103.2"/>
<image xlink:href="../../images/primaryKeys.png" width="11px" height="12px" preserveAspectRatio="xMinYMin meet" x="379" y="-120.2"/>
<text text-anchor="start" x="395" y="-110.3" font-family="Helvetica,sans-Serif" font-size="11.00" fill="#000000">skill_id</text>
<polygon fill="none" stroke="#000000" points="374,-84.2 374,-103.2 514,-103.2 514,-84.2 374,-84.2"/>
<text text-anchor="start" x="377" y="-90.3" font-family="Helvetica,sans-Serif" font-size="11.00" fill="#000000">...</text>
<polygon fill="#ffffff" stroke="transparent" points="374,-65.2 374,-84.2 429,-84.2 429,-65.2 374,-65.2"/>
<polygon fill="none" stroke="#000000" points="374,-65.2 374,-84.2 429,-84.2 429,-65.2 374,-65.2"/>
<text text-anchor="start" x="377" y="-71.3" font-family="Helvetica,sans-Serif" font-size="11.00" fill="#000000">&lt; 2</text>
<polygon fill="#ffffff" stroke="transparent" points="429,-65.2 429,-84.2 484,-84.2 484,-65.2 429,-65.2"/>
<polygon fill="none" stroke="#000000" points="429,-65.2 429,-84.2 484,-84.2 484,-65.2 429,-65.2"/>
<text text-anchor="start" x="448.6105" y="-71.3" font-family="Helvetica,sans-Serif" font-size="11.00" fill="#000000">0 rows</text>
<polygon fill="#ffffff" stroke="transparent" points="484,-65.2 484,-84.2 514,-84.2 514,-65.2 484,-65.2"/>
<polygon fill="none" stroke="#000000" points="484,-65.2 484,-84.2 514,-84.2 514,-65.2 484,-65.2"/>
<text text-anchor="start" x="504.8862" y="-71.3" font-family="Helvetica,sans-Serif" font-size="11.00" fill="#000000"> &#160;</text>
</a>
</g>
</g>
<!-- skill_lists_has_skills&#45;&gt;skill_lists -->
<g id="edge2" class="edge">
<title>skill_lists_has_skills:w&#45;&gt;skill_lists:e</title>
<path fill="none" stroke="#000000" d="M359.4203,-136.2C347.5435,-136.2 340.158,-136.2 323.5,-136.2"/>
<polygon fill="#000000" stroke="#000000" points="366,-136.2001 374,-139.8 370,-136.2 374,-136.2 374,-136.2 374,-136.2 370,-136.2 374,-132.6 366,-136.2001 366,-136.2001"/>
<ellipse fill="none" stroke="#000000" cx="362.8" cy="-136.2001" rx="3.2" ry="3.2"/>
</g>
</g>
</svg>
