<?xml version="1.0" encoding="UTF-8" standalone="no"?>
<!DOCTYPE svg PUBLIC "-//W3C//DTD SVG 1.1//EN"
 "http://www.w3.org/Graphics/SVG/1.1/DTD/svg11.dtd">
<!-- Generated by graphviz version 2.40.1 (20161225.0304)
 -->
<!-- Title: oneDegreeRelationshipsDiagram Pages: 1 -->
<svg width="508pt" height="241pt"
 viewBox="0.00 0.00 508.00 240.70" xmlns="http://www.w3.org/2000/svg" xmlns:xlink="http://www.w3.org/1999/xlink">
<g id="graph0" class="graph" transform="scale(1 1) rotate(0) translate(4 236.7)">
<title>oneDegreeRelationshipsDiagram</title>
<polygon fill="#ffffff" stroke="transparent" points="-4,4 -4,-236.7 504,-236.7 504,4 -4,4"/>
<text text-anchor="middle" x="72.4936" y="-7.3" font-family="Helvetica,sans-Serif" font-size="11.00" fill="#000000">Generated by SchemaSpy</text>
<!-- skill_has_levels -->
<g id="node1" class="node">
<title>skill_has_levels</title>
<g id="a_node1"><a xlink:href="../../tables/skill_has_levels.html" xlink:title="skill_has_levels" target="_top">
<polygon fill="#ffffff" stroke="transparent" points="279,-116.7 279,-228.7 492,-228.7 492,-116.7 279,-116.7"/>
<polygon fill="#f5f5f5" stroke="transparent" points="281.5,-203.7 281.5,-226.7 490.5,-226.7 490.5,-203.7 281.5,-203.7"/>
<polygon fill="none" stroke="#000000" points="281.5,-203.7 281.5,-226.7 490.5,-226.7 490.5,-203.7 281.5,-203.7"/>
<text text-anchor="start" x="286.5" y="-212.8" font-family="Helvetica,sans-Serif" font-weight="bold" font-size="11.00" fill="#000000">skill_has_levels</text>
<text text-anchor="start" x="455.5437" y="-211.8" font-family="Helvetica,sans-Serif" font-size="11.00" fill="#000000">[table]</text>
<polygon fill="none" stroke="#000000" points="281.5,-181.7 281.5,-203.7 392.5,-203.7 392.5,-181.7 281.5,-181.7"/>
<image xlink:href="../../images/primaryKeys.png" width="11px" height="12px" preserveAspectRatio="xMinYMin meet" x="286.5" y="-198.7"/>
<text text-anchor="start" x="301.5" y="-188.8" font-family="Helvetica,sans-Serif" font-size="11.00" fill="#000000">levels_id</text>
<polygon fill="none" stroke="#000000" points="392.5,-181.7 392.5,-203.7 490.5,-203.7 490.5,-181.7 392.5,-181.7"/>
<text text-anchor="start" x="395.5" y="-189.4" font-family="Helvetica,sans-Serif" font-size="11.00" fill="#000000">bigint[19]</text>
<polygon fill="none" stroke="#000000" points="281.5,-159.7 281.5,-181.7 392.5,-181.7 392.5,-159.7 281.5,-159.7"/>
<image xlink:href="../../images/primaryKeys.png" width="11px" height="12px" preserveAspectRatio="xMinYMin meet" x="286.5" y="-176.7"/>
<text text-anchor="start" x="301.5" y="-166.8" font-family="Helvetica,sans-Serif" font-size="11.00" fill="#000000">skills_id</text>
<polygon fill="none" stroke="#000000" points="392.5,-159.7 392.5,-181.7 490.5,-181.7 490.5,-159.7 392.5,-159.7"/>
<text text-anchor="start" x="395.3429" y="-167.4" font-family="Helvetica,sans-Serif" font-size="11.00" fill="#000000">bigint unsigned[20]</text>
<polygon fill="none" stroke="#000000" points="281.5,-137.7 281.5,-159.7 392.5,-159.7 392.5,-137.7 281.5,-137.7"/>
<text text-anchor="start" x="301.5" y="-144.8" font-family="Helvetica,sans-Serif" font-size="11.00" fill="#000000">secuence</text>
<polygon fill="none" stroke="#000000" points="392.5,-137.7 392.5,-159.7 490.5,-159.7 490.5,-137.7 392.5,-137.7"/>
<text text-anchor="start" x="395.5" y="-145.4" font-family="Helvetica,sans-Serif" font-size="11.00" fill="#000000">bit[1]</text>
<polygon fill="#ffffff" stroke="transparent" points="281.5,-118.7 281.5,-137.7 328.5,-137.7 328.5,-118.7 281.5,-118.7"/>
<polygon fill="none" stroke="#000000" points="281.5,-118.7 281.5,-137.7 328.5,-137.7 328.5,-118.7 281.5,-118.7"/>
<text text-anchor="start" x="284.5" y="-124.8" font-family="Helvetica,sans-Serif" font-size="11.00" fill="#000000">&lt; 2</text>
<polygon fill="#ffffff" stroke="transparent" points="328.5,-118.7 328.5,-137.7 392.5,-137.7 392.5,-118.7 328.5,-118.7"/>
<polygon fill="none" stroke="#000000" points="328.5,-118.7 328.5,-137.7 392.5,-137.7 392.5,-118.7 328.5,-118.7"/>
<text text-anchor="start" x="357.1105" y="-124.8" font-family="Helvetica,sans-Serif" font-size="11.00" fill="#000000">0 rows</text>
<polygon fill="#ffffff" stroke="transparent" points="392.5,-118.7 392.5,-137.7 490.5,-137.7 490.5,-118.7 392.5,-118.7"/>
<polygon fill="none" stroke="#000000" points="392.5,-118.7 392.5,-137.7 490.5,-137.7 490.5,-118.7 392.5,-118.7"/>
<text text-anchor="start" x="471.9053" y="-124.8" font-family="Helvetica,sans-Serif" font-size="11.00" fill="#000000">0 &gt;</text>
<polygon fill="none" stroke="#000000" stroke-width="2" points="280,-117.7 280,-227.7 491,-227.7 491,-117.7 280,-117.7"/>
</a>
</g>
</g>
<!-- levels -->
<g id="node2" class="node">
<title>levels</title>
<g id="a_node2"><a xlink:href="../../tables/levels.html" xlink:title="levels" target="_top">
<polygon fill="#ffffff" stroke="transparent" points="8,-100.2 8,-183.2 93,-183.2 93,-100.2 8,-100.2"/>
<polygon fill="#f5f5f5" stroke="transparent" points="8.5,-159.7 8.5,-182.7 93.5,-182.7 93.5,-159.7 8.5,-159.7"/>
<polygon fill="none" stroke="#000000" points="8.5,-159.7 8.5,-182.7 93.5,-182.7 93.5,-159.7 8.5,-159.7"/>
<text text-anchor="start" x="13.5" y="-168.8" font-family="Helvetica,sans-Serif" font-weight="bold" font-size="11.00" fill="#000000">levels</text>
<text text-anchor="start" x="58.5437" y="-167.8" font-family="Helvetica,sans-Serif" font-size="11.00" fill="#000000">[table]</text>
<polygon fill="none" stroke="#000000" points="8.5,-137.7 8.5,-159.7 93.5,-159.7 93.5,-137.7 8.5,-137.7"/>
<image xlink:href="../../images/primaryKeys.png" width="11px" height="12px" preserveAspectRatio="xMinYMin meet" x="13.5" y="-154.7"/>
<text text-anchor="start" x="28.5" y="-144.8" font-family="Helvetica,sans-Serif" font-size="11.00" fill="#000000">id</text>
<polygon fill="none" stroke="#000000" points="8.5,-118.7 8.5,-137.7 93.5,-137.7 93.5,-118.7 8.5,-118.7"/>
<text text-anchor="start" x="11.5" y="-124.8" font-family="Helvetica,sans-Serif" font-size="11.00" fill="#000000">...</text>
<polygon fill="#ffffff" stroke="transparent" points="8.5,-99.7 8.5,-118.7 27.5,-118.7 27.5,-99.7 8.5,-99.7"/>
<polygon fill="none" stroke="#000000" points="8.5,-99.7 8.5,-118.7 27.5,-118.7 27.5,-99.7 8.5,-99.7"/>
<text text-anchor="start" x="11.5" y="-105.8" font-family="Helvetica,sans-Serif" font-size="11.00" fill="#000000"> &#160;</text>
<polygon fill="#ffffff" stroke="transparent" points="27.5,-99.7 27.5,-118.7 68.5,-118.7 68.5,-99.7 27.5,-99.7"/>
<polygon fill="none" stroke="#000000" points="27.5,-99.7 27.5,-118.7 68.5,-118.7 68.5,-99.7 27.5,-99.7"/>
<text text-anchor="start" x="33.1105" y="-105.8" font-family="Helvetica,sans-Serif" font-size="11.00" fill="#000000">0 rows</text>
<polygon fill="#ffffff" stroke="transparent" points="68.5,-99.7 68.5,-118.7 93.5,-118.7 93.5,-99.7 68.5,-99.7"/>
<polygon fill="none" stroke="#000000" points="68.5,-99.7 68.5,-118.7 93.5,-118.7 93.5,-99.7 68.5,-99.7"/>
<text text-anchor="start" x="74.9053" y="-105.8" font-family="Helvetica,sans-Serif" font-size="11.00" fill="#000000">2 &gt;</text>
</a>
</g>
</g>
<!-- skill_has_levels&#45;&gt;levels -->
<g id="edge1" class="edge">
<title>skill_has_levels:w&#45;&gt;levels:e</title>
<path fill="none" stroke="#000000" d="M267.0084,-193.5941C257.8542,-194.8111 251.5091,-196.9262 238,-197.7 191.8534,-200.3434 175.8188,-217.3897 134,-197.7 108.4379,-185.6645 121.7537,-148.7 93.5,-148.7"/>
<polygon fill="#000000" stroke="#000000" points="273.5152,-193.1927 281.7217,-196.2932 277.5076,-192.9464 281.5,-192.7 281.5,-192.7 281.5,-192.7 277.5076,-192.9464 281.2783,-189.1068 273.5152,-193.1927 273.5152,-193.1927"/>
<ellipse fill="none" stroke="#000000" cx="270.3213" cy="-193.3898" rx="3.2" ry="3.2"/>
</g>
<!-- skills -->
<g id="node3" class="node">
<title>skills</title>
<g id="a_node3"><a xlink:href="../../tables/skills.html" xlink:title="skills" target="_top">
<polygon fill="#ffffff" stroke="transparent" points="142,-38.2 142,-187.2 230,-187.2 230,-38.2 142,-38.2"/>
<polygon fill="#f5f5f5" stroke="transparent" points="142,-163.7 142,-186.7 230,-186.7 230,-163.7 142,-163.7"/>
<polygon fill="none" stroke="#000000" points="142,-163.7 142,-186.7 230,-186.7 230,-163.7 142,-163.7"/>
<text text-anchor="start" x="147" y="-172.8" font-family="Helvetica,sans-Serif" font-weight="bold" font-size="11.00" fill="#000000">skills</text>
<text text-anchor="start" x="195.0437" y="-171.8" font-family="Helvetica,sans-Serif" font-size="11.00" fill="#000000">[table]</text>
<polygon fill="none" stroke="#000000" points="142,-141.7 142,-163.7 230,-163.7 230,-141.7 142,-141.7"/>
<image xlink:href="../../images/primaryKeys.png" width="11px" height="12px" preserveAspectRatio="xMinYMin meet" x="147" y="-158.7"/>
<text text-anchor="start" x="162" y="-148.8" font-family="Helvetica,sans-Serif" font-size="11.00" fill="#000000">id</text>
<polygon fill="#ffffff" stroke="transparent" points="142,-119.7 142,-141.7 230,-141.7 230,-119.7 142,-119.7"/>
<polygon fill="none" stroke="#000000" points="142,-119.7 142,-141.7 230,-141.7 230,-119.7 142,-119.7"/>
<image xlink:href="../../images/foreignKeys.png" width="11px" height="12px" preserveAspectRatio="xMinYMin meet" x="147" y="-136.7"/>
<text text-anchor="start" x="162" y="-126.8" font-family="Helvetica,sans-Serif" font-size="11.00" fill="#000000">event_id</text>
<polygon fill="#ffffff" stroke="transparent" points="142,-97.7 142,-119.7 230,-119.7 230,-97.7 142,-97.7"/>
<polygon fill="none" stroke="#000000" points="142,-97.7 142,-119.7 230,-119.7 230,-97.7 142,-97.7"/>
<image xlink:href="../../images/foreignKeys.png" width="11px" height="12px" preserveAspectRatio="xMinYMin meet" x="147" y="-114.7"/>
<text text-anchor="start" x="162" y="-104.8" font-family="Helvetica,sans-Serif" font-size="11.00" fill="#000000">category_id</text>
<polygon fill="#ffffff" stroke="transparent" points="142,-75.7 142,-97.7 230,-97.7 230,-75.7 142,-75.7"/>
<polygon fill="none" stroke="#000000" points="142,-75.7 142,-97.7 230,-97.7 230,-75.7 142,-75.7"/>
<image xlink:href="../../images/foreignKeys.png" width="11px" height="12px" preserveAspectRatio="xMinYMin meet" x="147" y="-92.7"/>
<text text-anchor="start" x="162" y="-82.8" font-family="Helvetica,sans-Serif" font-size="11.00" fill="#000000">level_id</text>
<polygon fill="none" stroke="#000000" points="142,-56.7 142,-75.7 230,-75.7 230,-56.7 142,-56.7"/>
<text text-anchor="start" x="145" y="-62.8" font-family="Helvetica,sans-Serif" font-size="11.00" fill="#000000">...</text>
<polygon fill="#ffffff" stroke="transparent" points="142,-37.7 142,-56.7 167,-56.7 167,-37.7 142,-37.7"/>
<polygon fill="none" stroke="#000000" points="142,-37.7 142,-56.7 167,-56.7 167,-37.7 142,-37.7"/>
<text text-anchor="start" x="145" y="-43.8" font-family="Helvetica,sans-Serif" font-size="11.00" fill="#000000">&lt; 3</text>
<polygon fill="#ffffff" stroke="transparent" points="167,-37.7 167,-56.7 207,-56.7 207,-37.7 167,-37.7"/>
<polygon fill="none" stroke="#000000" points="167,-37.7 167,-56.7 207,-56.7 207,-37.7 167,-37.7"/>
<text text-anchor="start" x="171.6105" y="-43.8" font-family="Helvetica,sans-Serif" font-size="11.00" fill="#000000">0 rows</text>
<polygon fill="#ffffff" stroke="transparent" points="207,-37.7 207,-56.7 230,-56.7 230,-37.7 207,-37.7"/>
<polygon fill="none" stroke="#000000" points="207,-37.7 207,-56.7 230,-56.7 230,-37.7 207,-37.7"/>
<text text-anchor="start" x="211.4053" y="-43.8" font-family="Helvetica,sans-Serif" font-size="11.00" fill="#000000">2 &gt;</text>
</a>
</g>
</g>
<!-- skill_has_levels&#45;&gt;skills -->
<g id="edge2" class="edge">
<title>skill_has_levels:w&#45;&gt;skills:e</title>
<path fill="none" stroke="#000000" d="M267.0173,-168.044C254.5511,-163.037 248.3744,-152.7 230,-152.7"/>
<polygon fill="#000000" stroke="#000000" points="273.6312,-169.2569 280.8506,-174.2409 277.5656,-169.9785 281.5,-170.7 281.5,-170.7 281.5,-170.7 277.5656,-169.9785 282.1494,-167.1591 273.6312,-169.2569 273.6312,-169.2569"/>
<ellipse fill="none" stroke="#000000" cx="270.4837" cy="-168.6797" rx="3.2" ry="3.2"/>
</g>
<!-- skills&#45;&gt;levels -->
<g id="edge3" class="edge">
<title>skills:w&#45;&gt;levels:e</title>
<path fill="none" stroke="#000000" d="M128.3908,-91.565C112.7276,-106.181 122.472,-148.7 93.5,-148.7"/>
<polygon fill="#000000" stroke="#000000" points="134.4669,-89.393 143.2118,-90.0899 138.2334,-88.0465 142,-86.7 142,-86.7 142,-86.7 138.2334,-88.0465 140.7882,-83.3101 134.4669,-89.393 134.4669,-89.393"/>
<ellipse fill="none" stroke="#000000" cx="131.4536" cy="-90.4702" rx="3.2" ry="3.2"/>
</g>
</g>
</svg>
