<?xml version="1.0" encoding="UTF-8" standalone="no"?>
<!DOCTYPE svg PUBLIC "-//W3C//DTD SVG 1.1//EN"
 "http://www.w3.org/Graphics/SVG/1.1/DTD/svg11.dtd">
<!-- Generated by graphviz version 2.40.1 (20161225.0304)
 -->
<!-- Title: twoDegreesRelationshipsDiagram Pages: 1 -->
<svg width="437pt" height="275pt"
 viewBox="0.00 0.00 437.00 274.70" xmlns="http://www.w3.org/2000/svg" xmlns:xlink="http://www.w3.org/1999/xlink">
<g id="graph0" class="graph" transform="scale(1 1) rotate(0) translate(4 270.7)">
<title>twoDegreesRelationshipsDiagram</title>
<polygon fill="#ffffff" stroke="transparent" points="-4,4 -4,-270.7 433,-270.7 433,4 -4,4"/>
<text text-anchor="middle" x="72.4936" y="-7.3" font-family="Helvetica,sans-Serif" font-size="11.00" fill="#000000">Generated by SchemaSpy</text>
<!-- gymnast_has_skills -->
<g id="node1" class="node">
<title>gymnast_has_skills</title>
<g id="a_node1"><a xlink:href="../../tables/gymnast_has_skills.html" xlink:title="gymnast_has_skills" target="_top">
<polygon fill="#ffffff" stroke="transparent" points="277,-68.2 277,-129.2 415,-129.2 415,-68.2 277,-68.2"/>
<polygon fill="#f5f5f5" stroke="transparent" points="277,-105.7 277,-128.7 415,-128.7 415,-105.7 277,-105.7"/>
<polygon fill="none" stroke="#000000" points="277,-105.7 277,-128.7 415,-128.7 415,-105.7 277,-105.7"/>
<text text-anchor="start" x="281.8271" y="-114.8" font-family="Helvetica,sans-Serif" font-weight="bold" font-size="11.00" fill="#000000">gymnast_has_skills</text>
<text text-anchor="start" x="380.5219" y="-113.8" font-family="Helvetica,sans-Serif" font-size="11.00" fill="#000000">[table]</text>
<polygon fill="none" stroke="#000000" points="277,-86.7 277,-105.7 415,-105.7 415,-86.7 277,-86.7"/>
<text text-anchor="start" x="280" y="-92.8" font-family="Helvetica,sans-Serif" font-size="11.00" fill="#000000">...</text>
<polygon fill="#ffffff" stroke="transparent" points="277,-67.7 277,-86.7 331,-86.7 331,-67.7 277,-67.7"/>
<polygon fill="none" stroke="#000000" points="277,-67.7 277,-86.7 331,-86.7 331,-67.7 277,-67.7"/>
<text text-anchor="start" x="280" y="-73.8" font-family="Helvetica,sans-Serif" font-size="11.00" fill="#000000">&lt; 2</text>
<polygon fill="#ffffff" stroke="transparent" points="331,-67.7 331,-86.7 386,-86.7 386,-67.7 331,-67.7"/>
<polygon fill="none" stroke="#000000" points="331,-67.7 331,-86.7 386,-86.7 386,-67.7 331,-67.7"/>
<text text-anchor="start" x="350.6105" y="-73.8" font-family="Helvetica,sans-Serif" font-size="11.00" fill="#000000">0 rows</text>
<polygon fill="#ffffff" stroke="transparent" points="386,-67.7 386,-86.7 415,-86.7 415,-67.7 386,-67.7"/>
<polygon fill="none" stroke="#000000" points="386,-67.7 386,-86.7 415,-86.7 415,-67.7 386,-67.7"/>
<text text-anchor="start" x="405.8862" y="-73.8" font-family="Helvetica,sans-Serif" font-size="11.00" fill="#000000"> &#160;</text>
</a>
</g>
</g>
<!-- skills -->
<g id="node2" class="node">
<title>skills</title>
<g id="a_node2"><a xlink:href="../../tables/skills.html" xlink:title="skills" target="_top">
<polygon fill="#ffffff" stroke="transparent" points="137,-38.2 137,-143.2 222,-143.2 222,-38.2 137,-38.2"/>
<polygon fill="#f5f5f5" stroke="transparent" points="137.5,-119.7 137.5,-142.7 222.5,-142.7 222.5,-119.7 137.5,-119.7"/>
<polygon fill="none" stroke="#000000" points="137.5,-119.7 137.5,-142.7 222.5,-142.7 222.5,-119.7 137.5,-119.7"/>
<text text-anchor="start" x="142.5" y="-128.8" font-family="Helvetica,sans-Serif" font-weight="bold" font-size="11.00" fill="#000000">skills</text>
<text text-anchor="start" x="187.5437" y="-127.8" font-family="Helvetica,sans-Serif" font-size="11.00" fill="#000000">[table]</text>
<polygon fill="none" stroke="#000000" points="137.5,-97.7 137.5,-119.7 222.5,-119.7 222.5,-97.7 137.5,-97.7"/>
<image xlink:href="../../images/primaryKeys.png" width="11px" height="12px" preserveAspectRatio="xMinYMin meet" x="142.5" y="-114.7"/>
<text text-anchor="start" x="157.5" y="-104.8" font-family="Helvetica,sans-Serif" font-size="11.00" fill="#000000">id</text>
<polygon fill="#ffffff" stroke="transparent" points="137.5,-75.7 137.5,-97.7 222.5,-97.7 222.5,-75.7 137.5,-75.7"/>
<polygon fill="none" stroke="#000000" points="137.5,-75.7 137.5,-97.7 222.5,-97.7 222.5,-75.7 137.5,-75.7"/>
<image xlink:href="../../images/foreignKeys.png" width="11px" height="12px" preserveAspectRatio="xMinYMin meet" x="142.5" y="-92.7"/>
<text text-anchor="start" x="157.5" y="-82.8" font-family="Helvetica,sans-Serif" font-size="11.00" fill="#000000">events_id</text>
<polygon fill="none" stroke="#000000" points="137.5,-56.7 137.5,-75.7 222.5,-75.7 222.5,-56.7 137.5,-56.7"/>
<text text-anchor="start" x="140.5" y="-62.8" font-family="Helvetica,sans-Serif" font-size="11.00" fill="#000000">...</text>
<polygon fill="#ffffff" stroke="transparent" points="137.5,-37.7 137.5,-56.7 160.5,-56.7 160.5,-37.7 137.5,-37.7"/>
<polygon fill="none" stroke="#000000" points="137.5,-37.7 137.5,-56.7 160.5,-56.7 160.5,-37.7 137.5,-37.7"/>
<text text-anchor="start" x="140.5" y="-43.8" font-family="Helvetica,sans-Serif" font-size="11.00" fill="#000000">&lt; 1</text>
<polygon fill="#ffffff" stroke="transparent" points="160.5,-37.7 160.5,-56.7 199.5,-56.7 199.5,-37.7 160.5,-37.7"/>
<polygon fill="none" stroke="#000000" points="160.5,-37.7 160.5,-56.7 199.5,-56.7 199.5,-37.7 160.5,-37.7"/>
<text text-anchor="start" x="164.1105" y="-43.8" font-family="Helvetica,sans-Serif" font-size="11.00" fill="#000000">0 rows</text>
<polygon fill="#ffffff" stroke="transparent" points="199.5,-37.7 199.5,-56.7 222.5,-56.7 222.5,-37.7 199.5,-37.7"/>
<polygon fill="none" stroke="#000000" points="199.5,-37.7 199.5,-56.7 222.5,-56.7 222.5,-37.7 199.5,-37.7"/>
<text text-anchor="start" x="203.9053" y="-43.8" font-family="Helvetica,sans-Serif" font-size="11.00" fill="#000000">2 &gt;</text>
</a>
</g>
</g>
<!-- gymnast_has_skills&#45;&gt;skills -->
<g id="edge1" class="edge">
<title>gymnast_has_skills:w&#45;&gt;skills:e</title>
<path fill="none" stroke="#000000" d="M262.3004,-97.5076C248.7869,-101.0796 241.5654,-108.7 222.5,-108.7"/>
<polygon fill="#000000" stroke="#000000" points="269.0598,-96.6764 277.4394,-99.2731 273.0299,-96.1882 277,-95.7 277,-95.7 277,-95.7 273.0299,-96.1882 276.5606,-92.1269 269.0598,-96.6764 269.0598,-96.6764"/>
<ellipse fill="none" stroke="#000000" cx="265.8837" cy="-97.067" rx="3.2" ry="3.2"/>
</g>
<!-- events -->
<g id="node5" class="node">
<title>events</title>
<g id="a_node5"><a xlink:href="../../tables/events.html" xlink:title="events" target="_top">
<polygon fill="#ffffff" stroke="transparent" points="8,-59.2 8,-120.2 88,-120.2 88,-59.2 8,-59.2"/>
<polygon fill="#f5f5f5" stroke="transparent" points="8,-96.7 8,-119.7 88,-119.7 88,-96.7 8,-96.7"/>
<polygon fill="none" stroke="#000000" points="8,-96.7 8,-119.7 88,-119.7 88,-96.7 8,-96.7"/>
<text text-anchor="start" x="13" y="-105.8" font-family="Helvetica,sans-Serif" font-weight="bold" font-size="11.00" fill="#000000">events</text>
<text text-anchor="start" x="53.0437" y="-104.8" font-family="Helvetica,sans-Serif" font-size="11.00" fill="#000000">[table]</text>
<polygon fill="none" stroke="#000000" points="8,-77.7 8,-96.7 88,-96.7 88,-77.7 8,-77.7"/>
<text text-anchor="start" x="11" y="-83.8" font-family="Helvetica,sans-Serif" font-size="11.00" fill="#000000">...</text>
<polygon fill="#ffffff" stroke="transparent" points="8,-58.7 8,-77.7 29,-77.7 29,-58.7 8,-58.7"/>
<polygon fill="none" stroke="#000000" points="8,-58.7 8,-77.7 29,-77.7 29,-58.7 8,-58.7"/>
<text text-anchor="start" x="10.7027" y="-64.8" font-family="Helvetica,sans-Serif" font-size="11.00" fill="#000000">&lt; 1</text>
<polygon fill="#ffffff" stroke="transparent" points="29,-58.7 29,-77.7 67,-77.7 67,-58.7 29,-58.7"/>
<polygon fill="none" stroke="#000000" points="29,-58.7 29,-77.7 67,-77.7 67,-58.7 29,-58.7"/>
<text text-anchor="start" x="31.8053" y="-64.8" font-family="Helvetica,sans-Serif" font-size="11.00" fill="#000000">0 rows</text>
<polygon fill="#ffffff" stroke="transparent" points="67,-58.7 67,-77.7 88,-77.7 88,-58.7 67,-58.7"/>
<polygon fill="none" stroke="#000000" points="67,-58.7 67,-77.7 88,-77.7 88,-58.7 67,-58.7"/>
<text text-anchor="start" x="69.7027" y="-64.8" font-family="Helvetica,sans-Serif" font-size="11.00" fill="#000000">1 &gt;</text>
</a>
</g>
</g>
<!-- skills&#45;&gt;events -->
<g id="edge4" class="edge">
<title>skills:w&#45;&gt;events:e</title>
<path fill="none" stroke="#000000" d="M122.8428,-86.7C111.4139,-86.7 104.1563,-86.7 88,-86.7"/>
<polygon fill="#000000" stroke="#000000" points="129.5,-86.7001 137.5,-90.3 133.5,-86.7 137.5,-86.7 137.5,-86.7 137.5,-86.7 133.5,-86.7 137.5,-83.1 129.5,-86.7001 129.5,-86.7001"/>
<ellipse fill="none" stroke="#000000" cx="126.3" cy="-86.7001" rx="3.2" ry="3.2"/>
</g>
<!-- skill_has_levels -->
<g id="node3" class="node">
<title>skill_has_levels</title>
<g id="a_node3"><a xlink:href="../../tables/skill_has_levels.html" xlink:title="skill_has_levels" target="_top">
<polygon fill="#ffffff" stroke="transparent" points="271,-150.7 271,-262.7 421,-262.7 421,-150.7 271,-150.7"/>
<polygon fill="#f5f5f5" stroke="transparent" points="273,-237.7 273,-260.7 419,-260.7 419,-237.7 273,-237.7"/>
<polygon fill="none" stroke="#000000" points="273,-237.7 273,-260.7 419,-260.7 419,-237.7 273,-237.7"/>
<text text-anchor="start" x="278" y="-246.8" font-family="Helvetica,sans-Serif" font-weight="bold" font-size="11.00" fill="#000000">skill_has_levels</text>
<text text-anchor="start" x="384.0437" y="-245.8" font-family="Helvetica,sans-Serif" font-size="11.00" fill="#000000">[table]</text>
<polygon fill="none" stroke="#000000" points="273,-215.7 273,-237.7 384,-237.7 384,-215.7 273,-215.7"/>
<image xlink:href="../../images/primaryKeys.png" width="11px" height="12px" preserveAspectRatio="xMinYMin meet" x="278" y="-232.7"/>
<text text-anchor="start" x="293" y="-222.8" font-family="Helvetica,sans-Serif" font-size="11.00" fill="#000000">levels_id</text>
<polygon fill="none" stroke="#000000" points="384,-215.7 384,-237.7 419,-237.7 419,-215.7 384,-215.7"/>
<text text-anchor="start" x="386.5219" y="-223.4" font-family="Helvetica,sans-Serif" font-size="11.00" fill="#000000">int[10]</text>
<polygon fill="none" stroke="#000000" points="273,-193.7 273,-215.7 384,-215.7 384,-193.7 273,-193.7"/>
<image xlink:href="../../images/primaryKeys.png" width="11px" height="12px" preserveAspectRatio="xMinYMin meet" x="278" y="-210.7"/>
<text text-anchor="start" x="293" y="-200.8" font-family="Helvetica,sans-Serif" font-size="11.00" fill="#000000">skills_id</text>
<polygon fill="none" stroke="#000000" points="384,-193.7 384,-215.7 419,-215.7 419,-193.7 384,-193.7"/>
<text text-anchor="start" x="386.5219" y="-201.4" font-family="Helvetica,sans-Serif" font-size="11.00" fill="#000000">int[10]</text>
<polygon fill="none" stroke="#000000" points="273,-171.7 273,-193.7 384,-193.7 384,-171.7 273,-171.7"/>
<text text-anchor="start" x="293" y="-178.8" font-family="Helvetica,sans-Serif" font-size="11.00" fill="#000000">secuence</text>
<polygon fill="none" stroke="#000000" points="384,-171.7 384,-193.7 419,-193.7 419,-171.7 384,-171.7"/>
<text text-anchor="start" x="387" y="-179.4" font-family="Helvetica,sans-Serif" font-size="11.00" fill="#000000">bit[1]</text>
<polygon fill="#ffffff" stroke="transparent" points="273,-152.7 273,-171.7 320,-171.7 320,-152.7 273,-152.7"/>
<polygon fill="none" stroke="#000000" points="273,-152.7 273,-171.7 320,-171.7 320,-152.7 273,-152.7"/>
<text text-anchor="start" x="276" y="-158.8" font-family="Helvetica,sans-Serif" font-size="11.00" fill="#000000">&lt; 2</text>
<polygon fill="#ffffff" stroke="transparent" points="320,-152.7 320,-171.7 384,-171.7 384,-152.7 320,-152.7"/>
<polygon fill="none" stroke="#000000" points="320,-152.7 320,-171.7 384,-171.7 384,-152.7 320,-152.7"/>
<text text-anchor="start" x="348.6105" y="-158.8" font-family="Helvetica,sans-Serif" font-size="11.00" fill="#000000">0 rows</text>
<polygon fill="#ffffff" stroke="transparent" points="384,-152.7 384,-171.7 419,-171.7 419,-152.7 384,-152.7"/>
<polygon fill="none" stroke="#000000" points="384,-152.7 384,-171.7 419,-171.7 419,-152.7 384,-152.7"/>
<text text-anchor="start" x="400.4053" y="-158.8" font-family="Helvetica,sans-Serif" font-size="11.00" fill="#000000">0 &gt;</text>
<polygon fill="none" stroke="#000000" stroke-width="2" points="272,-151.7 272,-261.7 420,-261.7 420,-151.7 272,-151.7"/>
</a>
</g>
</g>
<!-- skill_has_levels&#45;&gt;skills -->
<g id="edge3" class="edge">
<title>skill_has_levels:w&#45;&gt;skills:e</title>
<path fill="none" stroke="#000000" d="M258.9659,-200.575C234.7993,-182.2 264.6837,-108.7 222.5,-108.7"/>
<polygon fill="#000000" stroke="#000000" points="265.3247,-202.444 271.9848,-208.1539 269.1623,-203.572 273,-204.7 273,-204.7 273,-204.7 269.1623,-203.572 274.0152,-201.2461 265.3247,-202.444 265.3247,-202.444"/>
<ellipse fill="none" stroke="#000000" cx="262.2545" cy="-201.5416" rx="3.2" ry="3.2"/>
</g>
<!-- levels -->
<g id="node4" class="node">
<title>levels</title>
<g id="a_node4"><a xlink:href="../../tables/levels.html" xlink:title="levels" target="_top">
<polygon fill="#ffffff" stroke="transparent" points="137,-178.2 137,-261.2 222,-261.2 222,-178.2 137,-178.2"/>
<polygon fill="#f5f5f5" stroke="transparent" points="137.5,-237.7 137.5,-260.7 222.5,-260.7 222.5,-237.7 137.5,-237.7"/>
<polygon fill="none" stroke="#000000" points="137.5,-237.7 137.5,-260.7 222.5,-260.7 222.5,-237.7 137.5,-237.7"/>
<text text-anchor="start" x="142.5" y="-246.8" font-family="Helvetica,sans-Serif" font-weight="bold" font-size="11.00" fill="#000000">levels</text>
<text text-anchor="start" x="187.5437" y="-245.8" font-family="Helvetica,sans-Serif" font-size="11.00" fill="#000000">[table]</text>
<polygon fill="none" stroke="#000000" points="137.5,-215.7 137.5,-237.7 222.5,-237.7 222.5,-215.7 137.5,-215.7"/>
<image xlink:href="../../images/primaryKeys.png" width="11px" height="12px" preserveAspectRatio="xMinYMin meet" x="142.5" y="-232.7"/>
<text text-anchor="start" x="157.5" y="-222.8" font-family="Helvetica,sans-Serif" font-size="11.00" fill="#000000">id</text>
<polygon fill="none" stroke="#000000" points="137.5,-196.7 137.5,-215.7 222.5,-215.7 222.5,-196.7 137.5,-196.7"/>
<text text-anchor="start" x="140.5" y="-202.8" font-family="Helvetica,sans-Serif" font-size="11.00" fill="#000000">...</text>
<polygon fill="#ffffff" stroke="transparent" points="137.5,-177.7 137.5,-196.7 156.5,-196.7 156.5,-177.7 137.5,-177.7"/>
<polygon fill="none" stroke="#000000" points="137.5,-177.7 137.5,-196.7 156.5,-196.7 156.5,-177.7 137.5,-177.7"/>
<text text-anchor="start" x="140.5" y="-183.8" font-family="Helvetica,sans-Serif" font-size="11.00" fill="#000000"> &#160;</text>
<polygon fill="#ffffff" stroke="transparent" points="156.5,-177.7 156.5,-196.7 197.5,-196.7 197.5,-177.7 156.5,-177.7"/>
<polygon fill="none" stroke="#000000" points="156.5,-177.7 156.5,-196.7 197.5,-196.7 197.5,-177.7 156.5,-177.7"/>
<text text-anchor="start" x="162.1105" y="-183.8" font-family="Helvetica,sans-Serif" font-size="11.00" fill="#000000">0 rows</text>
<polygon fill="#ffffff" stroke="transparent" points="197.5,-177.7 197.5,-196.7 222.5,-196.7 222.5,-177.7 197.5,-177.7"/>
<polygon fill="none" stroke="#000000" points="197.5,-177.7 197.5,-196.7 222.5,-196.7 222.5,-177.7 197.5,-177.7"/>
<text text-anchor="start" x="203.9053" y="-183.8" font-family="Helvetica,sans-Serif" font-size="11.00" fill="#000000">1 &gt;</text>
</a>
</g>
</g>
<!-- skill_has_levels&#45;&gt;levels -->
<g id="edge2" class="edge">
<title>skill_has_levels:w&#45;&gt;levels:e</title>
<path fill="none" stroke="#000000" d="M258.4203,-226.7C246.5435,-226.7 239.158,-226.7 222.5,-226.7"/>
<polygon fill="#000000" stroke="#000000" points="265,-226.7001 273,-230.3 269,-226.7 273,-226.7 273,-226.7 273,-226.7 269,-226.7 273,-223.1 265,-226.7001 265,-226.7001"/>
<ellipse fill="none" stroke="#000000" cx="261.8" cy="-226.7001" rx="3.2" ry="3.2"/>
</g>
</g>
</svg>
