<?xml version="1.0" encoding="UTF-8" standalone="no"?>
<!DOCTYPE svg PUBLIC "-//W3C//DTD SVG 1.1//EN"
 "http://www.w3.org/Graphics/SVG/1.1/DTD/svg11.dtd">
<!-- Generated by graphviz version 2.40.1 (20161225.0304)
 -->
<!-- Title: oneDegreeRelationshipsDiagram Pages: 1 -->
<svg width="308pt" height="259pt"
 viewBox="0.00 0.00 308.00 259.20" xmlns="http://www.w3.org/2000/svg" xmlns:xlink="http://www.w3.org/1999/xlink">
<g id="graph0" class="graph" transform="scale(1 1) rotate(0) translate(4 255.2)">
<title>oneDegreeRelationshipsDiagram</title>
<polygon fill="#ffffff" stroke="transparent" points="-4,4 -4,-255.2 304,-255.2 304,4 -4,4"/>
<text text-anchor="middle" x="72.4936" y="-7.3" font-family="Helvetica,sans-Serif" font-size="11.00" fill="#000000">Generated by SchemaSpy</text>
<!-- skill_has_levels -->
<g id="node1" class="node">
<title>skill_has_levels</title>
<g id="a_node1"><a xlink:href="../../tables/skill_has_levels.html" xlink:title="skill_has_levels" target="_top">
<polygon fill="#ffffff" stroke="transparent" points="142,-95.7 142,-207.7 292,-207.7 292,-95.7 142,-95.7"/>
<polygon fill="#f5f5f5" stroke="transparent" points="144,-182.7 144,-205.7 290,-205.7 290,-182.7 144,-182.7"/>
<polygon fill="none" stroke="#000000" points="144,-182.7 144,-205.7 290,-205.7 290,-182.7 144,-182.7"/>
<text text-anchor="start" x="149" y="-191.8" font-family="Helvetica,sans-Serif" font-weight="bold" font-size="11.00" fill="#000000">skill_has_levels</text>
<text text-anchor="start" x="255.0437" y="-190.8" font-family="Helvetica,sans-Serif" font-size="11.00" fill="#000000">[table]</text>
<polygon fill="none" stroke="#000000" points="144,-160.7 144,-182.7 255,-182.7 255,-160.7 144,-160.7"/>
<image xlink:href="../../images/primaryKeys.png" width="11px" height="12px" preserveAspectRatio="xMinYMin meet" x="149" y="-177.7"/>
<text text-anchor="start" x="164" y="-167.8" font-family="Helvetica,sans-Serif" font-size="11.00" fill="#000000">levels_id</text>
<polygon fill="none" stroke="#000000" points="255,-160.7 255,-182.7 290,-182.7 290,-160.7 255,-160.7"/>
<text text-anchor="start" x="257.5219" y="-168.4" font-family="Helvetica,sans-Serif" font-size="11.00" fill="#000000">int[10]</text>
<polygon fill="none" stroke="#000000" points="144,-138.7 144,-160.7 255,-160.7 255,-138.7 144,-138.7"/>
<image xlink:href="../../images/primaryKeys.png" width="11px" height="12px" preserveAspectRatio="xMinYMin meet" x="149" y="-155.7"/>
<text text-anchor="start" x="164" y="-145.8" font-family="Helvetica,sans-Serif" font-size="11.00" fill="#000000">skills_id</text>
<polygon fill="none" stroke="#000000" points="255,-138.7 255,-160.7 290,-160.7 290,-138.7 255,-138.7"/>
<text text-anchor="start" x="257.5219" y="-146.4" font-family="Helvetica,sans-Serif" font-size="11.00" fill="#000000">int[10]</text>
<polygon fill="none" stroke="#000000" points="144,-116.7 144,-138.7 255,-138.7 255,-116.7 144,-116.7"/>
<text text-anchor="start" x="164" y="-123.8" font-family="Helvetica,sans-Serif" font-size="11.00" fill="#000000">secuence</text>
<polygon fill="none" stroke="#000000" points="255,-116.7 255,-138.7 290,-138.7 290,-116.7 255,-116.7"/>
<text text-anchor="start" x="258" y="-124.4" font-family="Helvetica,sans-Serif" font-size="11.00" fill="#000000">bit[1]</text>
<polygon fill="#ffffff" stroke="transparent" points="144,-97.7 144,-116.7 191,-116.7 191,-97.7 144,-97.7"/>
<polygon fill="none" stroke="#000000" points="144,-97.7 144,-116.7 191,-116.7 191,-97.7 144,-97.7"/>
<text text-anchor="start" x="147" y="-103.8" font-family="Helvetica,sans-Serif" font-size="11.00" fill="#000000">&lt; 2</text>
<polygon fill="#ffffff" stroke="transparent" points="191,-97.7 191,-116.7 255,-116.7 255,-97.7 191,-97.7"/>
<polygon fill="none" stroke="#000000" points="191,-97.7 191,-116.7 255,-116.7 255,-97.7 191,-97.7"/>
<text text-anchor="start" x="219.6105" y="-103.8" font-family="Helvetica,sans-Serif" font-size="11.00" fill="#000000">0 rows</text>
<polygon fill="#ffffff" stroke="transparent" points="255,-97.7 255,-116.7 290,-116.7 290,-97.7 255,-97.7"/>
<polygon fill="none" stroke="#000000" points="255,-97.7 255,-116.7 290,-116.7 290,-97.7 255,-97.7"/>
<text text-anchor="start" x="271.4053" y="-103.8" font-family="Helvetica,sans-Serif" font-size="11.00" fill="#000000">0 &gt;</text>
<polygon fill="none" stroke="#000000" stroke-width="2" points="143,-96.7 143,-206.7 291,-206.7 291,-96.7 143,-96.7"/>
</a>
</g>
</g>
<!-- levels -->
<g id="node2" class="node">
<title>levels</title>
<g id="a_node2"><a xlink:href="../../tables/levels.html" xlink:title="levels" target="_top">
<polygon fill="#ffffff" stroke="transparent" points="8,-164.2 8,-247.2 93,-247.2 93,-164.2 8,-164.2"/>
<polygon fill="#f5f5f5" stroke="transparent" points="8.5,-223.7 8.5,-246.7 93.5,-246.7 93.5,-223.7 8.5,-223.7"/>
<polygon fill="none" stroke="#000000" points="8.5,-223.7 8.5,-246.7 93.5,-246.7 93.5,-223.7 8.5,-223.7"/>
<text text-anchor="start" x="13.5" y="-232.8" font-family="Helvetica,sans-Serif" font-weight="bold" font-size="11.00" fill="#000000">levels</text>
<text text-anchor="start" x="58.5437" y="-231.8" font-family="Helvetica,sans-Serif" font-size="11.00" fill="#000000">[table]</text>
<polygon fill="none" stroke="#000000" points="8.5,-201.7 8.5,-223.7 93.5,-223.7 93.5,-201.7 8.5,-201.7"/>
<image xlink:href="../../images/primaryKeys.png" width="11px" height="12px" preserveAspectRatio="xMinYMin meet" x="13.5" y="-218.7"/>
<text text-anchor="start" x="28.5" y="-208.8" font-family="Helvetica,sans-Serif" font-size="11.00" fill="#000000">id</text>
<polygon fill="none" stroke="#000000" points="8.5,-182.7 8.5,-201.7 93.5,-201.7 93.5,-182.7 8.5,-182.7"/>
<text text-anchor="start" x="11.5" y="-188.8" font-family="Helvetica,sans-Serif" font-size="11.00" fill="#000000">...</text>
<polygon fill="#ffffff" stroke="transparent" points="8.5,-163.7 8.5,-182.7 27.5,-182.7 27.5,-163.7 8.5,-163.7"/>
<polygon fill="none" stroke="#000000" points="8.5,-163.7 8.5,-182.7 27.5,-182.7 27.5,-163.7 8.5,-163.7"/>
<text text-anchor="start" x="11.5" y="-169.8" font-family="Helvetica,sans-Serif" font-size="11.00" fill="#000000"> &#160;</text>
<polygon fill="#ffffff" stroke="transparent" points="27.5,-163.7 27.5,-182.7 68.5,-182.7 68.5,-163.7 27.5,-163.7"/>
<polygon fill="none" stroke="#000000" points="27.5,-163.7 27.5,-182.7 68.5,-182.7 68.5,-163.7 27.5,-163.7"/>
<text text-anchor="start" x="33.1105" y="-169.8" font-family="Helvetica,sans-Serif" font-size="11.00" fill="#000000">0 rows</text>
<polygon fill="#ffffff" stroke="transparent" points="68.5,-163.7 68.5,-182.7 93.5,-182.7 93.5,-163.7 68.5,-163.7"/>
<polygon fill="none" stroke="#000000" points="68.5,-163.7 68.5,-182.7 93.5,-182.7 93.5,-163.7 68.5,-163.7"/>
<text text-anchor="start" x="74.9053" y="-169.8" font-family="Helvetica,sans-Serif" font-size="11.00" fill="#000000">1 &gt;</text>
</a>
</g>
</g>
<!-- skill_has_levels&#45;&gt;levels -->
<g id="edge1" class="edge">
<title>skill_has_levels:w&#45;&gt;levels:e</title>
<path fill="none" stroke="#000000" d="M130.2601,-176.0877C116.5688,-186.6646 116.5379,-212.7 93.5,-212.7"/>
<polygon fill="#000000" stroke="#000000" points="136.3792,-174.1337 145.0952,-175.1294 140.1896,-172.9168 144,-171.7 144,-171.7 144,-171.7 140.1896,-172.9168 142.9048,-168.2706 136.3792,-174.1337 136.3792,-174.1337"/>
<ellipse fill="none" stroke="#000000" cx="133.3308" cy="-175.1072" rx="3.2" ry="3.2"/>
</g>
<!-- skills -->
<g id="node3" class="node">
<title>skills</title>
<g id="a_node3"><a xlink:href="../../tables/skills.html" xlink:title="skills" target="_top">
<polygon fill="#ffffff" stroke="transparent" points="8,-38.2 8,-143.2 93,-143.2 93,-38.2 8,-38.2"/>
<polygon fill="#f5f5f5" stroke="transparent" points="8.5,-119.7 8.5,-142.7 93.5,-142.7 93.5,-119.7 8.5,-119.7"/>
<polygon fill="none" stroke="#000000" points="8.5,-119.7 8.5,-142.7 93.5,-142.7 93.5,-119.7 8.5,-119.7"/>
<text text-anchor="start" x="13.5" y="-128.8" font-family="Helvetica,sans-Serif" font-weight="bold" font-size="11.00" fill="#000000">skills</text>
<text text-anchor="start" x="58.5437" y="-127.8" font-family="Helvetica,sans-Serif" font-size="11.00" fill="#000000">[table]</text>
<polygon fill="none" stroke="#000000" points="8.5,-97.7 8.5,-119.7 93.5,-119.7 93.5,-97.7 8.5,-97.7"/>
<image xlink:href="../../images/primaryKeys.png" width="11px" height="12px" preserveAspectRatio="xMinYMin meet" x="13.5" y="-114.7"/>
<text text-anchor="start" x="28.5" y="-104.8" font-family="Helvetica,sans-Serif" font-size="11.00" fill="#000000">id</text>
<polygon fill="#ffffff" stroke="transparent" points="8.5,-75.7 8.5,-97.7 93.5,-97.7 93.5,-75.7 8.5,-75.7"/>
<polygon fill="none" stroke="#000000" points="8.5,-75.7 8.5,-97.7 93.5,-97.7 93.5,-75.7 8.5,-75.7"/>
<image xlink:href="../../images/foreignKeys.png" width="11px" height="12px" preserveAspectRatio="xMinYMin meet" x="13.5" y="-92.7"/>
<text text-anchor="start" x="28.5" y="-82.8" font-family="Helvetica,sans-Serif" font-size="11.00" fill="#000000">events_id</text>
<polygon fill="none" stroke="#000000" points="8.5,-56.7 8.5,-75.7 93.5,-75.7 93.5,-56.7 8.5,-56.7"/>
<text text-anchor="start" x="11.5" y="-62.8" font-family="Helvetica,sans-Serif" font-size="11.00" fill="#000000">...</text>
<polygon fill="#ffffff" stroke="transparent" points="8.5,-37.7 8.5,-56.7 31.5,-56.7 31.5,-37.7 8.5,-37.7"/>
<polygon fill="none" stroke="#000000" points="8.5,-37.7 8.5,-56.7 31.5,-56.7 31.5,-37.7 8.5,-37.7"/>
<text text-anchor="start" x="11.5" y="-43.8" font-family="Helvetica,sans-Serif" font-size="11.00" fill="#000000">&lt; 1</text>
<polygon fill="#ffffff" stroke="transparent" points="31.5,-37.7 31.5,-56.7 70.5,-56.7 70.5,-37.7 31.5,-37.7"/>
<polygon fill="none" stroke="#000000" points="31.5,-37.7 31.5,-56.7 70.5,-56.7 70.5,-37.7 31.5,-37.7"/>
<text text-anchor="start" x="35.1105" y="-43.8" font-family="Helvetica,sans-Serif" font-size="11.00" fill="#000000">0 rows</text>
<polygon fill="#ffffff" stroke="transparent" points="70.5,-37.7 70.5,-56.7 93.5,-56.7 93.5,-37.7 70.5,-37.7"/>
<polygon fill="none" stroke="#000000" points="70.5,-37.7 70.5,-56.7 93.5,-56.7 93.5,-37.7 70.5,-37.7"/>
<text text-anchor="start" x="74.9053" y="-43.8" font-family="Helvetica,sans-Serif" font-size="11.00" fill="#000000">2 &gt;</text>
</a>
</g>
</g>
<!-- skill_has_levels&#45;&gt;skills -->
<g id="edge2" class="edge">
<title>skill_has_levels:w&#45;&gt;skills:e</title>
<path fill="none" stroke="#000000" d="M130.2601,-145.3123C116.5688,-134.7354 116.5379,-108.7 93.5,-108.7"/>
<polygon fill="#000000" stroke="#000000" points="136.3792,-147.2663 142.9048,-153.1294 140.1896,-148.4832 144,-149.7 144,-149.7 144,-149.7 140.1896,-148.4832 145.0952,-146.2706 136.3792,-147.2663 136.3792,-147.2663"/>
<ellipse fill="none" stroke="#000000" cx="133.3308" cy="-146.2928" rx="3.2" ry="3.2"/>
</g>
</g>
</svg>
