<?xml version="1.0" encoding="UTF-8" standalone="no"?>
<!DOCTYPE svg PUBLIC "-//W3C//DTD SVG 1.1//EN"
 "http://www.w3.org/Graphics/SVG/1.1/DTD/svg11.dtd">
<!-- Generated by graphviz version 2.40.1 (20161225.0304)
 -->
<!-- Title: oneDegreeRelationshipsDiagram Pages: 1 -->
<svg width="534pt" height="301pt"
 viewBox="0.00 0.00 534.00 300.70" xmlns="http://www.w3.org/2000/svg" xmlns:xlink="http://www.w3.org/1999/xlink">
<g id="graph0" class="graph" transform="scale(1 1) rotate(0) translate(4 296.7)">
<title>oneDegreeRelationshipsDiagram</title>
<polygon fill="#ffffff" stroke="transparent" points="-4,4 -4,-296.7 530,-296.7 530,4 -4,4"/>
<text text-anchor="middle" x="72.4936" y="-7.3" font-family="Helvetica,sans-Serif" font-size="11.00" fill="#000000">Generated by SchemaSpy</text>
<!-- classes -->
<g id="node1" class="node">
<title>classes</title>
<g id="a_node1"><a xlink:href="../../tables/classes.html" xlink:title="classes" target="_top">
<polygon fill="#ffffff" stroke="transparent" points="405.5,-183.7 405.5,-288.7 490.5,-288.7 490.5,-183.7 405.5,-183.7"/>
<polygon fill="#f5f5f5" stroke="transparent" points="406,-265.2 406,-288.2 491,-288.2 491,-265.2 406,-265.2"/>
<polygon fill="none" stroke="#000000" points="406,-265.2 406,-288.2 491,-288.2 491,-265.2 406,-265.2"/>
<text text-anchor="start" x="411" y="-274.3" font-family="Helvetica,sans-Serif" font-weight="bold" font-size="11.00" fill="#000000">classes</text>
<text text-anchor="start" x="456.0437" y="-273.3" font-family="Helvetica,sans-Serif" font-size="11.00" fill="#000000">[table]</text>
<polygon fill="none" stroke="#000000" points="406,-243.2 406,-265.2 491,-265.2 491,-243.2 406,-243.2"/>
<image xlink:href="../../images/primaryKeys.png" width="11px" height="12px" preserveAspectRatio="xMinYMin meet" x="411" y="-260.2"/>
<text text-anchor="start" x="426" y="-250.3" font-family="Helvetica,sans-Serif" font-size="11.00" fill="#000000">id</text>
<polygon fill="#ffffff" stroke="transparent" points="406,-221.2 406,-243.2 491,-243.2 491,-221.2 406,-221.2"/>
<polygon fill="none" stroke="#000000" points="406,-221.2 406,-243.2 491,-243.2 491,-221.2 406,-221.2"/>
<image xlink:href="../../images/foreignKeys.png" width="11px" height="12px" preserveAspectRatio="xMinYMin meet" x="411" y="-238.2"/>
<text text-anchor="start" x="426" y="-228.3" font-family="Helvetica,sans-Serif" font-size="11.00" fill="#000000">skill_list_id</text>
<polygon fill="none" stroke="#000000" points="406,-202.2 406,-221.2 491,-221.2 491,-202.2 406,-202.2"/>
<text text-anchor="start" x="409" y="-208.3" font-family="Helvetica,sans-Serif" font-size="11.00" fill="#000000">...</text>
<polygon fill="#ffffff" stroke="transparent" points="406,-183.2 406,-202.2 429,-202.2 429,-183.2 406,-183.2"/>
<polygon fill="none" stroke="#000000" points="406,-183.2 406,-202.2 429,-202.2 429,-183.2 406,-183.2"/>
<text text-anchor="start" x="409" y="-189.3" font-family="Helvetica,sans-Serif" font-size="11.00" fill="#000000">&lt; 1</text>
<polygon fill="#ffffff" stroke="transparent" points="429,-183.2 429,-202.2 468,-202.2 468,-183.2 429,-183.2"/>
<polygon fill="none" stroke="#000000" points="429,-183.2 429,-202.2 468,-202.2 468,-183.2 429,-183.2"/>
<text text-anchor="start" x="432.6105" y="-189.3" font-family="Helvetica,sans-Serif" font-size="11.00" fill="#000000">0 rows</text>
<polygon fill="#ffffff" stroke="transparent" points="468,-183.2 468,-202.2 491,-202.2 491,-183.2 468,-183.2"/>
<polygon fill="none" stroke="#000000" points="468,-183.2 468,-202.2 491,-202.2 491,-183.2 468,-183.2"/>
<text text-anchor="start" x="472.4053" y="-189.3" font-family="Helvetica,sans-Serif" font-size="11.00" fill="#000000">3 &gt;</text>
</a>
</g>
</g>
<!-- skill_lists -->
<g id="node2" class="node">
<title>skill_lists</title>
<g id="a_node2"><a xlink:href="../../tables/skill_lists.html" xlink:title="skill_lists" target="_top">
<polygon fill="#ffffff" stroke="transparent" points="142,-38.2 142,-216.2 329,-216.2 329,-38.2 142,-38.2"/>
<polygon fill="#f5f5f5" stroke="transparent" points="144.5,-191.2 144.5,-214.2 327.5,-214.2 327.5,-191.2 144.5,-191.2"/>
<polygon fill="none" stroke="#000000" points="144.5,-191.2 144.5,-214.2 327.5,-214.2 327.5,-191.2 144.5,-191.2"/>
<text text-anchor="start" x="149.5" y="-200.3" font-family="Helvetica,sans-Serif" font-weight="bold" font-size="11.00" fill="#000000">skill_lists</text>
<text text-anchor="start" x="292.5437" y="-199.3" font-family="Helvetica,sans-Serif" font-size="11.00" fill="#000000">[table]</text>
<polygon fill="none" stroke="#000000" points="144.5,-169.2 144.5,-191.2 229.5,-191.2 229.5,-169.2 144.5,-169.2"/>
<image xlink:href="../../images/primaryKeys.png" width="11px" height="12px" preserveAspectRatio="xMinYMin meet" x="149.5" y="-186.2"/>
<text text-anchor="start" x="164.5" y="-176.3" font-family="Helvetica,sans-Serif" font-size="11.00" fill="#000000">id</text>
<polygon fill="none" stroke="#000000" points="229.5,-169.2 229.5,-191.2 327.5,-191.2 327.5,-169.2 229.5,-169.2"/>
<text text-anchor="start" x="232.3429" y="-176.9" font-family="Helvetica,sans-Serif" font-size="11.00" fill="#000000">bigint unsigned[20]</text>
<polygon fill="#ffffff" stroke="transparent" points="144.5,-147.2 144.5,-169.2 229.5,-169.2 229.5,-147.2 144.5,-147.2"/>
<polygon fill="none" stroke="#000000" points="144.5,-147.2 144.5,-169.2 229.5,-169.2 229.5,-147.2 144.5,-147.2"/>
<image xlink:href="../../images/foreignKeys.png" width="11px" height="12px" preserveAspectRatio="xMinYMin meet" x="149.5" y="-164.2"/>
<text text-anchor="start" x="164.5" y="-154.3" font-family="Helvetica,sans-Serif" font-size="11.00" fill="#000000">gym_id</text>
<polygon fill="none" stroke="#000000" points="229.5,-147.2 229.5,-169.2 327.5,-169.2 327.5,-147.2 229.5,-147.2"/>
<text text-anchor="start" x="232.5" y="-154.9" font-family="Helvetica,sans-Serif" font-size="11.00" fill="#000000">bigint[19]</text>
<polygon fill="none" stroke="#000000" points="144.5,-125.2 144.5,-147.2 229.5,-147.2 229.5,-125.2 144.5,-125.2"/>
<text text-anchor="start" x="164.5" y="-132.3" font-family="Helvetica,sans-Serif" font-size="11.00" fill="#000000">name</text>
<polygon fill="none" stroke="#000000" points="229.5,-125.2 229.5,-147.2 327.5,-147.2 327.5,-125.2 229.5,-125.2"/>
<text text-anchor="start" x="232.5" y="-132.9" font-family="Helvetica,sans-Serif" font-size="11.00" fill="#000000">varchar[45]</text>
<polygon fill="none" stroke="#000000" points="144.5,-103.2 144.5,-125.2 229.5,-125.2 229.5,-103.2 144.5,-103.2"/>
<text text-anchor="start" x="164.5" y="-110.3" font-family="Helvetica,sans-Serif" font-size="11.00" fill="#000000">created_at</text>
<polygon fill="none" stroke="#000000" points="229.5,-103.2 229.5,-125.2 327.5,-125.2 327.5,-103.2 229.5,-103.2"/>
<text text-anchor="start" x="232.5" y="-110.9" font-family="Helvetica,sans-Serif" font-size="11.00" fill="#000000">timestamp[19]</text>
<polygon fill="none" stroke="#000000" points="144.5,-81.2 144.5,-103.2 229.5,-103.2 229.5,-81.2 144.5,-81.2"/>
<text text-anchor="start" x="164.5" y="-88.3" font-family="Helvetica,sans-Serif" font-size="11.00" fill="#000000">updated_at</text>
<polygon fill="none" stroke="#000000" points="229.5,-81.2 229.5,-103.2 327.5,-103.2 327.5,-81.2 229.5,-81.2"/>
<text text-anchor="start" x="232.5" y="-88.9" font-family="Helvetica,sans-Serif" font-size="11.00" fill="#000000">timestamp[19]</text>
<polygon fill="none" stroke="#000000" points="144.5,-59.2 144.5,-81.2 229.5,-81.2 229.5,-59.2 144.5,-59.2"/>
<text text-anchor="start" x="164.5" y="-66.3" font-family="Helvetica,sans-Serif" font-size="11.00" fill="#000000">deleted_at</text>
<polygon fill="none" stroke="#000000" points="229.5,-59.2 229.5,-81.2 327.5,-81.2 327.5,-59.2 229.5,-59.2"/>
<text text-anchor="start" x="232.5" y="-66.9" font-family="Helvetica,sans-Serif" font-size="11.00" fill="#000000">timestamp[19]</text>
<polygon fill="#ffffff" stroke="transparent" points="144.5,-40.2 144.5,-59.2 178.5,-59.2 178.5,-40.2 144.5,-40.2"/>
<polygon fill="none" stroke="#000000" points="144.5,-40.2 144.5,-59.2 178.5,-59.2 178.5,-40.2 144.5,-40.2"/>
<text text-anchor="start" x="147.5" y="-46.3" font-family="Helvetica,sans-Serif" font-size="11.00" fill="#000000">&lt; 1</text>
<polygon fill="#ffffff" stroke="transparent" points="178.5,-40.2 178.5,-59.2 229.5,-59.2 229.5,-40.2 178.5,-40.2"/>
<polygon fill="none" stroke="#000000" points="178.5,-40.2 178.5,-59.2 229.5,-59.2 229.5,-40.2 178.5,-40.2"/>
<text text-anchor="start" x="194.1105" y="-46.3" font-family="Helvetica,sans-Serif" font-size="11.00" fill="#000000">0 rows</text>
<polygon fill="#ffffff" stroke="transparent" points="229.5,-40.2 229.5,-59.2 327.5,-59.2 327.5,-40.2 229.5,-40.2"/>
<polygon fill="none" stroke="#000000" points="229.5,-40.2 229.5,-59.2 327.5,-59.2 327.5,-40.2 229.5,-40.2"/>
<text text-anchor="start" x="308.9053" y="-46.3" font-family="Helvetica,sans-Serif" font-size="11.00" fill="#000000">2 &gt;</text>
<polygon fill="none" stroke="#000000" stroke-width="2" points="143,-39.2 143,-215.2 328,-215.2 328,-39.2 143,-39.2"/>
</a>
</g>
</g>
<!-- classes&#45;&gt;skill_lists -->
<g id="edge1" class="edge">
<title>classes:w&#45;&gt;skill_lists:e</title>
<path fill="none" stroke="#000000" d="M391.5949,-229.6919C364.7017,-219.3047 363.7911,-180.2 327.5,-180.2"/>
<polygon fill="#000000" stroke="#000000" points="398.1186,-230.8277 405.3825,-235.7466 402.0593,-231.5139 406,-232.2 406,-232.2 406,-232.2 402.0593,-231.5139 406.6175,-228.6534 398.1186,-230.8277 398.1186,-230.8277"/>
<ellipse fill="none" stroke="#000000" cx="394.966" cy="-230.2788" rx="3.2" ry="3.2"/>
</g>
<!-- gyms -->
<g id="node3" class="node">
<title>gyms</title>
<g id="a_node3"><a xlink:href="../../tables/gyms.html" xlink:title="gyms" target="_top">
<polygon fill="#ffffff" stroke="transparent" points="8,-109.7 8,-192.7 93,-192.7 93,-109.7 8,-109.7"/>
<polygon fill="#f5f5f5" stroke="transparent" points="8.5,-169.2 8.5,-192.2 93.5,-192.2 93.5,-169.2 8.5,-169.2"/>
<polygon fill="none" stroke="#000000" points="8.5,-169.2 8.5,-192.2 93.5,-192.2 93.5,-169.2 8.5,-169.2"/>
<text text-anchor="start" x="13.5" y="-178.3" font-family="Helvetica,sans-Serif" font-weight="bold" font-size="11.00" fill="#000000">gyms</text>
<text text-anchor="start" x="58.5437" y="-177.3" font-family="Helvetica,sans-Serif" font-size="11.00" fill="#000000">[table]</text>
<polygon fill="none" stroke="#000000" points="8.5,-147.2 8.5,-169.2 93.5,-169.2 93.5,-147.2 8.5,-147.2"/>
<image xlink:href="../../images/primaryKeys.png" width="11px" height="12px" preserveAspectRatio="xMinYMin meet" x="13.5" y="-164.2"/>
<text text-anchor="start" x="28.5" y="-154.3" font-family="Helvetica,sans-Serif" font-size="11.00" fill="#000000">id</text>
<polygon fill="none" stroke="#000000" points="8.5,-128.2 8.5,-147.2 93.5,-147.2 93.5,-128.2 8.5,-128.2"/>
<text text-anchor="start" x="11.5" y="-134.3" font-family="Helvetica,sans-Serif" font-size="11.00" fill="#000000">...</text>
<polygon fill="#ffffff" stroke="transparent" points="8.5,-109.2 8.5,-128.2 27.5,-128.2 27.5,-109.2 8.5,-109.2"/>
<polygon fill="none" stroke="#000000" points="8.5,-109.2 8.5,-128.2 27.5,-128.2 27.5,-109.2 8.5,-109.2"/>
<text text-anchor="start" x="11.5" y="-115.3" font-family="Helvetica,sans-Serif" font-size="11.00" fill="#000000"> &#160;</text>
<polygon fill="#ffffff" stroke="transparent" points="27.5,-109.2 27.5,-128.2 68.5,-128.2 68.5,-109.2 27.5,-109.2"/>
<polygon fill="none" stroke="#000000" points="27.5,-109.2 27.5,-128.2 68.5,-128.2 68.5,-109.2 27.5,-109.2"/>
<text text-anchor="start" x="33.1105" y="-115.3" font-family="Helvetica,sans-Serif" font-size="11.00" fill="#000000">0 rows</text>
<polygon fill="#ffffff" stroke="transparent" points="68.5,-109.2 68.5,-128.2 93.5,-128.2 93.5,-109.2 68.5,-109.2"/>
<polygon fill="none" stroke="#000000" points="68.5,-109.2 68.5,-128.2 93.5,-128.2 93.5,-109.2 68.5,-109.2"/>
<text text-anchor="start" x="74.9053" y="-115.3" font-family="Helvetica,sans-Serif" font-size="11.00" fill="#000000">3 &gt;</text>
</a>
</g>
</g>
<!-- skill_lists&#45;&gt;gyms -->
<g id="edge2" class="edge">
<title>skill_lists:w&#45;&gt;gyms:e</title>
<path fill="none" stroke="#000000" d="M129.776,-158.2C117.7815,-158.2 110.3229,-158.2 93.5,-158.2"/>
<polygon fill="#000000" stroke="#000000" points="136.5,-158.2001 144.5,-161.8 140.5,-158.2 144.5,-158.2 144.5,-158.2 144.5,-158.2 140.5,-158.2 144.5,-154.6 136.5,-158.2001 136.5,-158.2001"/>
<ellipse fill="none" stroke="#000000" cx="133.3" cy="-158.2001" rx="3.2" ry="3.2"/>
</g>
<!-- skill_lists_has_skills -->
<g id="node4" class="node">
<title>skill_lists_has_skills</title>
<g id="a_node4"><a xlink:href="../../tables/skill_lists_has_skills.html" xlink:title="skill_lists_has_skills" target="_top">
<polygon fill="#ffffff" stroke="transparent" points="378,-57.7 378,-162.7 518,-162.7 518,-57.7 378,-57.7"/>
<polygon fill="#f5f5f5" stroke="transparent" points="378,-139.2 378,-162.2 518,-162.2 518,-139.2 378,-139.2"/>
<polygon fill="none" stroke="#000000" points="378,-139.2 378,-162.2 518,-162.2 518,-139.2 378,-139.2"/>
<text text-anchor="start" x="382.9207" y="-148.3" font-family="Helvetica,sans-Serif" font-weight="bold" font-size="11.00" fill="#000000">skill_lists_has_skills</text>
<text text-anchor="start" x="483.5219" y="-147.3" font-family="Helvetica,sans-Serif" font-size="11.00" fill="#000000">[table]</text>
<polygon fill="none" stroke="#000000" points="378,-117.2 378,-139.2 518,-139.2 518,-117.2 378,-117.2"/>
<image xlink:href="../../images/primaryKeys.png" width="11px" height="12px" preserveAspectRatio="xMinYMin meet" x="383" y="-134.2"/>
<text text-anchor="start" x="399" y="-124.3" font-family="Helvetica,sans-Serif" font-size="11.00" fill="#000000">skill_list_id</text>
<polygon fill="none" stroke="#000000" points="378,-95.2 378,-117.2 518,-117.2 518,-95.2 378,-95.2"/>
<image xlink:href="../../images/primaryKeys.png" width="11px" height="12px" preserveAspectRatio="xMinYMin meet" x="383" y="-112.2"/>
<text text-anchor="start" x="399" y="-102.3" font-family="Helvetica,sans-Serif" font-size="11.00" fill="#000000">skill_id</text>
<polygon fill="none" stroke="#000000" points="378,-76.2 378,-95.2 518,-95.2 518,-76.2 378,-76.2"/>
<text text-anchor="start" x="381" y="-82.3" font-family="Helvetica,sans-Serif" font-size="11.00" fill="#000000">...</text>
<polygon fill="#ffffff" stroke="transparent" points="378,-57.2 378,-76.2 433,-76.2 433,-57.2 378,-57.2"/>
<polygon fill="none" stroke="#000000" points="378,-57.2 378,-76.2 433,-76.2 433,-57.2 378,-57.2"/>
<text text-anchor="start" x="381" y="-63.3" font-family="Helvetica,sans-Serif" font-size="11.00" fill="#000000">&lt; 2</text>
<polygon fill="#ffffff" stroke="transparent" points="433,-57.2 433,-76.2 488,-76.2 488,-57.2 433,-57.2"/>
<polygon fill="none" stroke="#000000" points="433,-57.2 433,-76.2 488,-76.2 488,-57.2 433,-57.2"/>
<text text-anchor="start" x="452.6105" y="-63.3" font-family="Helvetica,sans-Serif" font-size="11.00" fill="#000000">0 rows</text>
<polygon fill="#ffffff" stroke="transparent" points="488,-57.2 488,-76.2 518,-76.2 518,-57.2 488,-57.2"/>
<polygon fill="none" stroke="#000000" points="488,-57.2 488,-76.2 518,-76.2 518,-57.2 488,-57.2"/>
<text text-anchor="start" x="508.8862" y="-63.3" font-family="Helvetica,sans-Serif" font-size="11.00" fill="#000000"> &#160;</text>
</a>
</g>
</g>
<!-- skill_lists_has_skills&#45;&gt;skill_lists -->
<g id="edge3" class="edge">
<title>skill_lists_has_skills:w&#45;&gt;skill_lists:e</title>
<path fill="none" stroke="#000000" d="M364.1372,-132.9988C349.3861,-145.8719 353.6756,-180.2 327.5,-180.2"/>
<polygon fill="#000000" stroke="#000000" points="370.4401,-130.817 379.1777,-131.6019 374.2201,-129.5085 378,-128.2 378,-128.2 378,-128.2 374.2201,-129.5085 376.8223,-124.7981 370.4401,-130.817 370.4401,-130.817"/>
<ellipse fill="none" stroke="#000000" cx="367.4162" cy="-131.8638" rx="3.2" ry="3.2"/>
</g>
</g>
</svg>
