<?xml version="1.0" encoding="UTF-8" standalone="no"?>
<!DOCTYPE svg PUBLIC "-//W3C//DTD SVG 1.1//EN"
 "http://www.w3.org/Graphics/SVG/1.1/DTD/svg11.dtd">
<!-- Generated by graphviz version 2.40.1 (20161225.0304)
 -->
<!-- Title: twoDegreesRelationshipsDiagram Pages: 1 -->
<svg width="682pt" height="453pt"
 viewBox="0.00 0.00 682.00 453.20" xmlns="http://www.w3.org/2000/svg" xmlns:xlink="http://www.w3.org/1999/xlink">
<g id="graph0" class="graph" transform="scale(1 1) rotate(0) translate(4 449.2)">
<title>twoDegreesRelationshipsDiagram</title>
<polygon fill="#ffffff" stroke="transparent" points="-4,4 -4,-449.2 678,-449.2 678,4 -4,4"/>
<text text-anchor="middle" x="72.4936" y="-7.3" font-family="Helvetica,sans-Serif" font-size="11.00" fill="#000000">Generated by SchemaSpy</text>
<!-- events -->
<g id="node1" class="node">
<title>events</title>
<g id="a_node1"><a xlink:href="../../tables/events.html" xlink:title="events" target="_top">
<polygon fill="#ffffff" stroke="transparent" points="132,-246.2 132,-351.2 217,-351.2 217,-246.2 132,-246.2"/>
<polygon fill="#f5f5f5" stroke="transparent" points="132.5,-327.7 132.5,-350.7 217.5,-350.7 217.5,-327.7 132.5,-327.7"/>
<polygon fill="none" stroke="#000000" points="132.5,-327.7 132.5,-350.7 217.5,-350.7 217.5,-327.7 132.5,-327.7"/>
<text text-anchor="start" x="137.5" y="-336.8" font-family="Helvetica,sans-Serif" font-weight="bold" font-size="11.00" fill="#000000">events</text>
<text text-anchor="start" x="182.5437" y="-335.8" font-family="Helvetica,sans-Serif" font-size="11.00" fill="#000000">[table]</text>
<polygon fill="none" stroke="#000000" points="132.5,-305.7 132.5,-327.7 217.5,-327.7 217.5,-305.7 132.5,-305.7"/>
<image xlink:href="../../images/primaryKeys.png" width="11px" height="12px" preserveAspectRatio="xMinYMin meet" x="137.5" y="-322.7"/>
<text text-anchor="start" x="152.5" y="-312.8" font-family="Helvetica,sans-Serif" font-size="11.00" fill="#000000">id</text>
<polygon fill="#ffffff" stroke="transparent" points="132.5,-283.7 132.5,-305.7 217.5,-305.7 217.5,-283.7 132.5,-283.7"/>
<polygon fill="none" stroke="#000000" points="132.5,-283.7 132.5,-305.7 217.5,-305.7 217.5,-283.7 132.5,-283.7"/>
<image xlink:href="../../images/foreignKeys.png" width="11px" height="12px" preserveAspectRatio="xMinYMin meet" x="137.5" y="-300.7"/>
<text text-anchor="start" x="152.5" y="-290.8" font-family="Helvetica,sans-Serif" font-size="11.00" fill="#000000">gym_id</text>
<polygon fill="none" stroke="#000000" points="132.5,-264.7 132.5,-283.7 217.5,-283.7 217.5,-264.7 132.5,-264.7"/>
<text text-anchor="start" x="135.5" y="-270.8" font-family="Helvetica,sans-Serif" font-size="11.00" fill="#000000">...</text>
<polygon fill="#ffffff" stroke="transparent" points="132.5,-245.7 132.5,-264.7 155.5,-264.7 155.5,-245.7 132.5,-245.7"/>
<polygon fill="none" stroke="#000000" points="132.5,-245.7 132.5,-264.7 155.5,-264.7 155.5,-245.7 132.5,-245.7"/>
<text text-anchor="start" x="135.5" y="-251.8" font-family="Helvetica,sans-Serif" font-size="11.00" fill="#000000">&lt; 1</text>
<polygon fill="#ffffff" stroke="transparent" points="155.5,-245.7 155.5,-264.7 194.5,-264.7 194.5,-245.7 155.5,-245.7"/>
<polygon fill="none" stroke="#000000" points="155.5,-245.7 155.5,-264.7 194.5,-264.7 194.5,-245.7 155.5,-245.7"/>
<text text-anchor="start" x="159.1105" y="-251.8" font-family="Helvetica,sans-Serif" font-size="11.00" fill="#000000">0 rows</text>
<polygon fill="#ffffff" stroke="transparent" points="194.5,-245.7 194.5,-264.7 217.5,-264.7 217.5,-245.7 194.5,-245.7"/>
<polygon fill="none" stroke="#000000" points="194.5,-245.7 194.5,-264.7 217.5,-264.7 217.5,-245.7 194.5,-245.7"/>
<text text-anchor="start" x="198.9053" y="-251.8" font-family="Helvetica,sans-Serif" font-size="11.00" fill="#000000">1 &gt;</text>
</a>
</g>
</g>
<!-- gyms -->
<g id="node2" class="node">
<title>gyms</title>
<g id="a_node2"><a xlink:href="../../tables/gyms.html" xlink:title="gyms" target="_top">
<polygon fill="#ffffff" stroke="transparent" points="8,-267.2 8,-328.2 79,-328.2 79,-267.2 8,-267.2"/>
<polygon fill="#f5f5f5" stroke="transparent" points="8.5,-304.7 8.5,-327.7 79.5,-327.7 79.5,-304.7 8.5,-304.7"/>
<polygon fill="none" stroke="#000000" points="8.5,-304.7 8.5,-327.7 79.5,-327.7 79.5,-304.7 8.5,-304.7"/>
<text text-anchor="start" x="13.5" y="-313.8" font-family="Helvetica,sans-Serif" font-weight="bold" font-size="11.00" fill="#000000">gyms</text>
<text text-anchor="start" x="44.5437" y="-312.8" font-family="Helvetica,sans-Serif" font-size="11.00" fill="#000000">[table]</text>
<polygon fill="none" stroke="#000000" points="8.5,-285.7 8.5,-304.7 79.5,-304.7 79.5,-285.7 8.5,-285.7"/>
<text text-anchor="start" x="11.5" y="-291.8" font-family="Helvetica,sans-Serif" font-size="11.00" fill="#000000">...</text>
<polygon fill="#ffffff" stroke="transparent" points="8.5,-266.7 8.5,-285.7 20.5,-285.7 20.5,-266.7 8.5,-266.7"/>
<polygon fill="none" stroke="#000000" points="8.5,-266.7 8.5,-285.7 20.5,-285.7 20.5,-266.7 8.5,-266.7"/>
<text text-anchor="start" x="11.4431" y="-272.8" font-family="Helvetica,sans-Serif" font-size="11.00" fill="#000000"> &#160;</text>
<polygon fill="#ffffff" stroke="transparent" points="20.5,-266.7 20.5,-285.7 58.5,-285.7 58.5,-266.7 20.5,-266.7"/>
<polygon fill="none" stroke="#000000" points="20.5,-266.7 20.5,-285.7 58.5,-285.7 58.5,-266.7 20.5,-266.7"/>
<text text-anchor="start" x="23.3053" y="-272.8" font-family="Helvetica,sans-Serif" font-size="11.00" fill="#000000">0 rows</text>
<polygon fill="#ffffff" stroke="transparent" points="58.5,-266.7 58.5,-285.7 79.5,-285.7 79.5,-266.7 58.5,-266.7"/>
<polygon fill="none" stroke="#000000" points="58.5,-266.7 58.5,-285.7 79.5,-285.7 79.5,-266.7 58.5,-266.7"/>
<text text-anchor="start" x="61.2027" y="-272.8" font-family="Helvetica,sans-Serif" font-size="11.00" fill="#000000">2 &gt;</text>
</a>
</g>
</g>
<!-- events&#45;&gt;gyms -->
<g id="edge1" class="edge">
<title>events:w&#45;&gt;gyms:e</title>
<path fill="none" stroke="#000000" d="M117.9922,-294.7C105.0558,-294.7 97.3507,-294.7 79.5,-294.7"/>
<polygon fill="#000000" stroke="#000000" points="124.5,-294.7001 132.5,-298.3 128.5,-294.7 132.5,-294.7 132.5,-294.7 132.5,-294.7 128.5,-294.7 132.5,-291.1 124.5,-294.7001 124.5,-294.7001"/>
<ellipse fill="none" stroke="#000000" cx="121.3" cy="-294.7001" rx="3.2" ry="3.2"/>
</g>
<!-- gymnast_has_skills -->
<g id="node3" class="node">
<title>gymnast_has_skills</title>
<g id="a_node3"><a xlink:href="../../tables/gymnast_has_skills.html" xlink:title="gymnast_has_skills" target="_top">
<polygon fill="#ffffff" stroke="transparent" points="528,-305.2 528,-410.2 666,-410.2 666,-305.2 528,-305.2"/>
<polygon fill="#f5f5f5" stroke="transparent" points="528,-386.7 528,-409.7 666,-409.7 666,-386.7 528,-386.7"/>
<polygon fill="none" stroke="#000000" points="528,-386.7 528,-409.7 666,-409.7 666,-386.7 528,-386.7"/>
<text text-anchor="start" x="532.8271" y="-395.8" font-family="Helvetica,sans-Serif" font-weight="bold" font-size="11.00" fill="#000000">gymnast_has_skills</text>
<text text-anchor="start" x="631.5219" y="-394.8" font-family="Helvetica,sans-Serif" font-size="11.00" fill="#000000">[table]</text>
<polygon fill="none" stroke="#000000" points="528,-364.7 528,-386.7 666,-386.7 666,-364.7 528,-364.7"/>
<image xlink:href="../../images/primaryKeys.png" width="11px" height="12px" preserveAspectRatio="xMinYMin meet" x="533" y="-381.7"/>
<text text-anchor="start" x="550" y="-371.8" font-family="Helvetica,sans-Serif" font-size="11.00" fill="#000000">gymnast_id</text>
<polygon fill="none" stroke="#000000" points="528,-342.7 528,-364.7 666,-364.7 666,-342.7 528,-342.7"/>
<image xlink:href="../../images/primaryKeys.png" width="11px" height="12px" preserveAspectRatio="xMinYMin meet" x="533" y="-359.7"/>
<text text-anchor="start" x="550" y="-349.8" font-family="Helvetica,sans-Serif" font-size="11.00" fill="#000000">skills_Id</text>
<polygon fill="none" stroke="#000000" points="528,-323.7 528,-342.7 666,-342.7 666,-323.7 528,-323.7"/>
<text text-anchor="start" x="531" y="-329.8" font-family="Helvetica,sans-Serif" font-size="11.00" fill="#000000">...</text>
<polygon fill="#ffffff" stroke="transparent" points="528,-304.7 528,-323.7 582,-323.7 582,-304.7 528,-304.7"/>
<polygon fill="none" stroke="#000000" points="528,-304.7 528,-323.7 582,-323.7 582,-304.7 528,-304.7"/>
<text text-anchor="start" x="531" y="-310.8" font-family="Helvetica,sans-Serif" font-size="11.00" fill="#000000">&lt; 2</text>
<polygon fill="#ffffff" stroke="transparent" points="582,-304.7 582,-323.7 637,-323.7 637,-304.7 582,-304.7"/>
<polygon fill="none" stroke="#000000" points="582,-304.7 582,-323.7 637,-323.7 637,-304.7 582,-304.7"/>
<text text-anchor="start" x="601.6105" y="-310.8" font-family="Helvetica,sans-Serif" font-size="11.00" fill="#000000">0 rows</text>
<polygon fill="#ffffff" stroke="transparent" points="637,-304.7 637,-323.7 666,-323.7 666,-304.7 637,-304.7"/>
<polygon fill="none" stroke="#000000" points="637,-304.7 637,-323.7 666,-323.7 666,-304.7 637,-304.7"/>
<text text-anchor="start" x="656.8862" y="-310.8" font-family="Helvetica,sans-Serif" font-size="11.00" fill="#000000"> &#160;</text>
</a>
</g>
</g>
<!-- gymnasts -->
<g id="node4" class="node">
<title>gymnasts</title>
<g id="a_node4"><a xlink:href="../../tables/gymnasts.html" xlink:title="gymnasts" target="_top">
<polygon fill="#ffffff" stroke="transparent" points="329.5,-380.2 329.5,-441.2 419.5,-441.2 419.5,-380.2 329.5,-380.2"/>
<polygon fill="#f5f5f5" stroke="transparent" points="329.5,-417.7 329.5,-440.7 419.5,-440.7 419.5,-417.7 329.5,-417.7"/>
<polygon fill="none" stroke="#000000" points="329.5,-417.7 329.5,-440.7 419.5,-440.7 419.5,-417.7 329.5,-417.7"/>
<text text-anchor="start" x="334.4683" y="-426.8" font-family="Helvetica,sans-Serif" font-weight="bold" font-size="11.00" fill="#000000">gymnasts</text>
<text text-anchor="start" x="385.0219" y="-425.8" font-family="Helvetica,sans-Serif" font-size="11.00" fill="#000000">[table]</text>
<polygon fill="none" stroke="#000000" points="329.5,-398.7 329.5,-417.7 419.5,-417.7 419.5,-398.7 329.5,-398.7"/>
<text text-anchor="start" x="332.5" y="-404.8" font-family="Helvetica,sans-Serif" font-size="11.00" fill="#000000">...</text>
<polygon fill="#ffffff" stroke="transparent" points="329.5,-379.7 329.5,-398.7 355.5,-398.7 355.5,-379.7 329.5,-379.7"/>
<polygon fill="none" stroke="#000000" points="329.5,-379.7 329.5,-398.7 355.5,-398.7 355.5,-379.7 329.5,-379.7"/>
<text text-anchor="start" x="332.5" y="-385.8" font-family="Helvetica,sans-Serif" font-size="11.00" fill="#000000">&lt; 2</text>
<polygon fill="#ffffff" stroke="transparent" points="355.5,-379.7 355.5,-398.7 395.5,-398.7 395.5,-379.7 355.5,-379.7"/>
<polygon fill="none" stroke="#000000" points="355.5,-379.7 355.5,-398.7 395.5,-398.7 395.5,-379.7 355.5,-379.7"/>
<text text-anchor="start" x="360.1105" y="-385.8" font-family="Helvetica,sans-Serif" font-size="11.00" fill="#000000">0 rows</text>
<polygon fill="#ffffff" stroke="transparent" points="395.5,-379.7 395.5,-398.7 419.5,-398.7 419.5,-379.7 395.5,-379.7"/>
<polygon fill="none" stroke="#000000" points="395.5,-379.7 395.5,-398.7 419.5,-398.7 419.5,-379.7 395.5,-379.7"/>
<text text-anchor="start" x="400.9053" y="-385.8" font-family="Helvetica,sans-Serif" font-size="11.00" fill="#000000">4 &gt;</text>
</a>
</g>
</g>
<!-- gymnast_has_skills&#45;&gt;gymnasts -->
<g id="edge2" class="edge">
<title>gymnast_has_skills:w&#45;&gt;gymnasts:e</title>
<path fill="none" stroke="#000000" d="M513.4056,-376.6928C475.5768,-382.094 464.4733,-407.7 419.5,-407.7"/>
<polygon fill="#000000" stroke="#000000" points="520.0184,-376.243 528.2443,-379.2917 524.0092,-375.9715 528,-375.7 528,-375.7 528,-375.7 524.0092,-375.9715 527.7557,-372.1083 520.0184,-376.243 520.0184,-376.243"/>
<ellipse fill="none" stroke="#000000" cx="516.8258" cy="-376.4602" rx="3.2" ry="3.2"/>
</g>
<!-- skills -->
<g id="node5" class="node">
<title>skills</title>
<g id="a_node5"><a xlink:href="../../tables/skills.html" xlink:title="skills" target="_top">
<polygon fill="#ffffff" stroke="transparent" points="270,-136.7 270,-358.7 479,-358.7 479,-136.7 270,-136.7"/>
<polygon fill="#f5f5f5" stroke="transparent" points="272.5,-333.7 272.5,-356.7 477.5,-356.7 477.5,-333.7 272.5,-333.7"/>
<polygon fill="none" stroke="#000000" points="272.5,-333.7 272.5,-356.7 477.5,-356.7 477.5,-333.7 272.5,-333.7"/>
<text text-anchor="start" x="277.5" y="-342.8" font-family="Helvetica,sans-Serif" font-weight="bold" font-size="11.00" fill="#000000">skills</text>
<text text-anchor="start" x="442.5437" y="-341.8" font-family="Helvetica,sans-Serif" font-size="11.00" fill="#000000">[table]</text>
<polygon fill="none" stroke="#000000" points="272.5,-311.7 272.5,-333.7 360.5,-333.7 360.5,-311.7 272.5,-311.7"/>
<image xlink:href="../../images/primaryKeys.png" width="11px" height="12px" preserveAspectRatio="xMinYMin meet" x="277.5" y="-328.7"/>
<text text-anchor="start" x="292.5" y="-318.8" font-family="Helvetica,sans-Serif" font-size="11.00" fill="#000000">id</text>
<polygon fill="none" stroke="#000000" points="360.5,-311.7 360.5,-333.7 477.5,-333.7 477.5,-311.7 360.5,-311.7"/>
<text text-anchor="start" x="363.5" y="-319.4" font-family="Helvetica,sans-Serif" font-size="11.00" fill="#000000">bigint unsigned[20]</text>
<polygon fill="none" stroke="#000000" points="272.5,-289.7 272.5,-311.7 360.5,-311.7 360.5,-289.7 272.5,-289.7"/>
<text text-anchor="start" x="292.5" y="-296.8" font-family="Helvetica,sans-Serif" font-size="11.00" fill="#000000">name</text>
<polygon fill="none" stroke="#000000" points="360.5,-289.7 360.5,-311.7 477.5,-311.7 477.5,-289.7 360.5,-289.7"/>
<text text-anchor="start" x="363.5" y="-297.4" font-family="Helvetica,sans-Serif" font-size="11.00" fill="#000000">varchar[45]</text>
<polygon fill="none" stroke="#000000" points="272.5,-267.7 272.5,-289.7 360.5,-289.7 360.5,-267.7 272.5,-267.7"/>
<text text-anchor="start" x="292.5" y="-274.8" font-family="Helvetica,sans-Serif" font-size="11.00" fill="#000000">description</text>
<polygon fill="none" stroke="#000000" points="360.5,-267.7 360.5,-289.7 477.5,-289.7 477.5,-267.7 360.5,-267.7"/>
<text text-anchor="start" x="363.0645" y="-275.4" font-family="Helvetica,sans-Serif" font-size="11.00" fill="#000000">mediumtext[16777215]</text>
<polygon fill="none" stroke="#000000" points="272.5,-245.7 272.5,-267.7 360.5,-267.7 360.5,-245.7 272.5,-245.7"/>
<text text-anchor="start" x="292.5" y="-252.8" font-family="Helvetica,sans-Serif" font-size="11.00" fill="#000000">category</text>
<polygon fill="none" stroke="#000000" points="360.5,-245.7 360.5,-267.7 477.5,-267.7 477.5,-245.7 360.5,-245.7"/>
<text text-anchor="start" x="363.5" y="-253.4" font-family="Helvetica,sans-Serif" font-size="11.00" fill="#000000">varchar[45]</text>
<polygon fill="none" stroke="#000000" points="272.5,-223.7 272.5,-245.7 360.5,-245.7 360.5,-223.7 272.5,-223.7"/>
<text text-anchor="start" x="292.5" y="-230.8" font-family="Helvetica,sans-Serif" font-size="11.00" fill="#000000">certificate</text>
<polygon fill="none" stroke="#000000" points="360.5,-223.7 360.5,-245.7 477.5,-245.7 477.5,-223.7 360.5,-223.7"/>
<text text-anchor="start" x="363.5" y="-231.4" font-family="Helvetica,sans-Serif" font-size="11.00" fill="#000000">bit[1]</text>
<polygon fill="#ffffff" stroke="transparent" points="272.5,-201.7 272.5,-223.7 360.5,-223.7 360.5,-201.7 272.5,-201.7"/>
<polygon fill="none" stroke="#000000" points="272.5,-201.7 272.5,-223.7 360.5,-223.7 360.5,-201.7 272.5,-201.7"/>
<image xlink:href="../../images/foreignKeys.png" width="11px" height="12px" preserveAspectRatio="xMinYMin meet" x="277.5" y="-218.7"/>
<text text-anchor="start" x="292.5" y="-208.8" font-family="Helvetica,sans-Serif" font-size="11.00" fill="#000000">event_id</text>
<polygon fill="none" stroke="#000000" points="360.5,-201.7 360.5,-223.7 477.5,-223.7 477.5,-201.7 360.5,-201.7"/>
<text text-anchor="start" x="363.5" y="-209.4" font-family="Helvetica,sans-Serif" font-size="11.00" fill="#000000">bigint[19]</text>
<polygon fill="#ffffff" stroke="transparent" points="272.5,-179.7 272.5,-201.7 360.5,-201.7 360.5,-179.7 272.5,-179.7"/>
<polygon fill="none" stroke="#000000" points="272.5,-179.7 272.5,-201.7 360.5,-201.7 360.5,-179.7 272.5,-179.7"/>
<image xlink:href="../../images/foreignKeys.png" width="11px" height="12px" preserveAspectRatio="xMinYMin meet" x="277.5" y="-196.7"/>
<text text-anchor="start" x="292.5" y="-186.8" font-family="Helvetica,sans-Serif" font-size="11.00" fill="#000000">category_id</text>
<polygon fill="none" stroke="#000000" points="360.5,-179.7 360.5,-201.7 477.5,-201.7 477.5,-179.7 360.5,-179.7"/>
<text text-anchor="start" x="363.5" y="-187.4" font-family="Helvetica,sans-Serif" font-size="11.00" fill="#000000">bigint[19]</text>
<polygon fill="#ffffff" stroke="transparent" points="272.5,-157.7 272.5,-179.7 360.5,-179.7 360.5,-157.7 272.5,-157.7"/>
<polygon fill="none" stroke="#000000" points="272.5,-157.7 272.5,-179.7 360.5,-179.7 360.5,-157.7 272.5,-157.7"/>
<image xlink:href="../../images/foreignKeys.png" width="11px" height="12px" preserveAspectRatio="xMinYMin meet" x="277.5" y="-174.7"/>
<text text-anchor="start" x="292.5" y="-164.8" font-family="Helvetica,sans-Serif" font-size="11.00" fill="#000000">level_id</text>
<polygon fill="none" stroke="#000000" points="360.5,-157.7 360.5,-179.7 477.5,-179.7 477.5,-157.7 360.5,-157.7"/>
<text text-anchor="start" x="363.5" y="-165.4" font-family="Helvetica,sans-Serif" font-size="11.00" fill="#000000">bigint[19]</text>
<polygon fill="#ffffff" stroke="transparent" points="272.5,-138.7 272.5,-157.7 307.5,-157.7 307.5,-138.7 272.5,-138.7"/>
<polygon fill="none" stroke="#000000" points="272.5,-138.7 272.5,-157.7 307.5,-157.7 307.5,-138.7 272.5,-138.7"/>
<text text-anchor="start" x="275.5" y="-144.8" font-family="Helvetica,sans-Serif" font-size="11.00" fill="#000000">&lt; 3</text>
<polygon fill="#ffffff" stroke="transparent" points="307.5,-138.7 307.5,-157.7 360.5,-157.7 360.5,-138.7 307.5,-138.7"/>
<polygon fill="none" stroke="#000000" points="307.5,-138.7 307.5,-157.7 360.5,-157.7 360.5,-138.7 307.5,-138.7"/>
<text text-anchor="start" x="325.1105" y="-144.8" font-family="Helvetica,sans-Serif" font-size="11.00" fill="#000000">0 rows</text>
<polygon fill="#ffffff" stroke="transparent" points="360.5,-138.7 360.5,-157.7 477.5,-157.7 477.5,-138.7 360.5,-138.7"/>
<polygon fill="none" stroke="#000000" points="360.5,-138.7 360.5,-157.7 477.5,-157.7 477.5,-138.7 360.5,-138.7"/>
<text text-anchor="start" x="458.9053" y="-144.8" font-family="Helvetica,sans-Serif" font-size="11.00" fill="#000000">1 &gt;</text>
<polygon fill="none" stroke="#000000" stroke-width="2" points="271,-137.7 271,-357.7 478,-357.7 478,-137.7 271,-137.7"/>
</a>
</g>
</g>
<!-- gymnast_has_skills&#45;&gt;skills -->
<g id="edge3" class="edge">
<title>gymnast_has_skills:w&#45;&gt;skills:e</title>
<path fill="none" stroke="#000000" d="M513.8267,-349.6473C501.1849,-341.2444 497.8692,-322.7 477.5,-322.7"/>
<polygon fill="#000000" stroke="#000000" points="520.3083,-351.5006 527.0103,-357.1613 524.1541,-352.6003 528,-353.7 528,-353.7 528,-353.7 524.1541,-352.6003 528.9897,-350.2387 520.3083,-351.5006 520.3083,-351.5006"/>
<ellipse fill="none" stroke="#000000" cx="517.2316" cy="-350.6208" rx="3.2" ry="3.2"/>
</g>
<!-- skills&#45;&gt;events -->
<g id="edge5" class="edge">
<title>skills:w&#45;&gt;events:e</title>
<path fill="none" stroke="#000000" d="M258.3557,-216.4014C230.1369,-234.9279 263.8647,-316.7 217.5,-316.7"/>
<polygon fill="#000000" stroke="#000000" points="264.7606,-214.7254 273.4114,-216.1827 268.6303,-213.7127 272.5,-212.7 272.5,-212.7 272.5,-212.7 268.6303,-213.7127 271.5886,-209.2173 264.7606,-214.7254 264.7606,-214.7254"/>
<ellipse fill="none" stroke="#000000" cx="261.6649" cy="-215.5355" rx="3.2" ry="3.2"/>
</g>
<!-- categories -->
<g id="node6" class="node">
<title>categories</title>
<g id="a_node6"><a xlink:href="../../tables/categories.html" xlink:title="categories" target="_top">
<polygon fill="#ffffff" stroke="transparent" points="128,-142.2 128,-225.2 221,-225.2 221,-142.2 128,-142.2"/>
<polygon fill="#f5f5f5" stroke="transparent" points="128.5,-201.7 128.5,-224.7 221.5,-224.7 221.5,-201.7 128.5,-201.7"/>
<polygon fill="none" stroke="#000000" points="128.5,-201.7 128.5,-224.7 221.5,-224.7 221.5,-201.7 128.5,-201.7"/>
<text text-anchor="start" x="133.1329" y="-210.8" font-family="Helvetica,sans-Serif" font-weight="bold" font-size="11.00" fill="#000000">categories</text>
<text text-anchor="start" x="187.0219" y="-209.8" font-family="Helvetica,sans-Serif" font-size="11.00" fill="#000000">[table]</text>
<polygon fill="none" stroke="#000000" points="128.5,-179.7 128.5,-201.7 221.5,-201.7 221.5,-179.7 128.5,-179.7"/>
<image xlink:href="../../images/primaryKeys.png" width="11px" height="12px" preserveAspectRatio="xMinYMin meet" x="133.5" y="-196.7"/>
<text text-anchor="start" x="152.5" y="-186.8" font-family="Helvetica,sans-Serif" font-size="11.00" fill="#000000">id</text>
<polygon fill="none" stroke="#000000" points="128.5,-160.7 128.5,-179.7 221.5,-179.7 221.5,-160.7 128.5,-160.7"/>
<text text-anchor="start" x="131.5" y="-166.8" font-family="Helvetica,sans-Serif" font-size="11.00" fill="#000000">...</text>
<polygon fill="#ffffff" stroke="transparent" points="128.5,-141.7 128.5,-160.7 151.5,-160.7 151.5,-141.7 128.5,-141.7"/>
<polygon fill="none" stroke="#000000" points="128.5,-141.7 128.5,-160.7 151.5,-160.7 151.5,-141.7 128.5,-141.7"/>
<text text-anchor="start" x="131.5" y="-147.8" font-family="Helvetica,sans-Serif" font-size="11.00" fill="#000000"> &#160;</text>
<polygon fill="#ffffff" stroke="transparent" points="151.5,-141.7 151.5,-160.7 194.5,-160.7 194.5,-141.7 151.5,-141.7"/>
<polygon fill="none" stroke="#000000" points="151.5,-141.7 151.5,-160.7 194.5,-160.7 194.5,-141.7 151.5,-141.7"/>
<text text-anchor="start" x="159.1105" y="-147.8" font-family="Helvetica,sans-Serif" font-size="11.00" fill="#000000">0 rows</text>
<polygon fill="#ffffff" stroke="transparent" points="194.5,-141.7 194.5,-160.7 221.5,-160.7 221.5,-141.7 194.5,-141.7"/>
<polygon fill="none" stroke="#000000" points="194.5,-141.7 194.5,-160.7 221.5,-160.7 221.5,-141.7 194.5,-141.7"/>
<text text-anchor="start" x="202.9053" y="-147.8" font-family="Helvetica,sans-Serif" font-size="11.00" fill="#000000">1 &gt;</text>
</a>
</g>
</g>
<!-- skills&#45;&gt;categories -->
<g id="edge4" class="edge">
<title>skills:w&#45;&gt;categories:e</title>
<path fill="none" stroke="#000000" d="M257.776,-190.7C245.7815,-190.7 238.3229,-190.7 221.5,-190.7"/>
<polygon fill="#000000" stroke="#000000" points="264.5,-190.7001 272.5,-194.3 268.5,-190.7 272.5,-190.7 272.5,-190.7 272.5,-190.7 268.5,-190.7 272.5,-187.1 264.5,-190.7001 264.5,-190.7001"/>
<ellipse fill="none" stroke="#000000" cx="261.3" cy="-190.7001" rx="3.2" ry="3.2"/>
</g>
<!-- levels -->
<g id="node7" class="node">
<title>levels</title>
<g id="a_node7"><a xlink:href="../../tables/levels.html" xlink:title="levels" target="_top">
<polygon fill="#ffffff" stroke="transparent" points="132,-38.2 132,-121.2 217,-121.2 217,-38.2 132,-38.2"/>
<polygon fill="#f5f5f5" stroke="transparent" points="132.5,-97.7 132.5,-120.7 217.5,-120.7 217.5,-97.7 132.5,-97.7"/>
<polygon fill="none" stroke="#000000" points="132.5,-97.7 132.5,-120.7 217.5,-120.7 217.5,-97.7 132.5,-97.7"/>
<text text-anchor="start" x="137.5" y="-106.8" font-family="Helvetica,sans-Serif" font-weight="bold" font-size="11.00" fill="#000000">levels</text>
<text text-anchor="start" x="182.5437" y="-105.8" font-family="Helvetica,sans-Serif" font-size="11.00" fill="#000000">[table]</text>
<polygon fill="none" stroke="#000000" points="132.5,-75.7 132.5,-97.7 217.5,-97.7 217.5,-75.7 132.5,-75.7"/>
<image xlink:href="../../images/primaryKeys.png" width="11px" height="12px" preserveAspectRatio="xMinYMin meet" x="137.5" y="-92.7"/>
<text text-anchor="start" x="152.5" y="-82.8" font-family="Helvetica,sans-Serif" font-size="11.00" fill="#000000">id</text>
<polygon fill="none" stroke="#000000" points="132.5,-56.7 132.5,-75.7 217.5,-75.7 217.5,-56.7 132.5,-56.7"/>
<text text-anchor="start" x="135.5" y="-62.8" font-family="Helvetica,sans-Serif" font-size="11.00" fill="#000000">...</text>
<polygon fill="#ffffff" stroke="transparent" points="132.5,-37.7 132.5,-56.7 151.5,-56.7 151.5,-37.7 132.5,-37.7"/>
<polygon fill="none" stroke="#000000" points="132.5,-37.7 132.5,-56.7 151.5,-56.7 151.5,-37.7 132.5,-37.7"/>
<text text-anchor="start" x="135.5" y="-43.8" font-family="Helvetica,sans-Serif" font-size="11.00" fill="#000000"> &#160;</text>
<polygon fill="#ffffff" stroke="transparent" points="151.5,-37.7 151.5,-56.7 192.5,-56.7 192.5,-37.7 151.5,-37.7"/>
<polygon fill="none" stroke="#000000" points="151.5,-37.7 151.5,-56.7 192.5,-56.7 192.5,-37.7 151.5,-37.7"/>
<text text-anchor="start" x="157.1105" y="-43.8" font-family="Helvetica,sans-Serif" font-size="11.00" fill="#000000">0 rows</text>
<polygon fill="#ffffff" stroke="transparent" points="192.5,-37.7 192.5,-56.7 217.5,-56.7 217.5,-37.7 192.5,-37.7"/>
<polygon fill="none" stroke="#000000" points="192.5,-37.7 192.5,-56.7 217.5,-56.7 217.5,-37.7 192.5,-37.7"/>
<text text-anchor="start" x="198.9053" y="-43.8" font-family="Helvetica,sans-Serif" font-size="11.00" fill="#000000">1 &gt;</text>
</a>
</g>
</g>
<!-- skills&#45;&gt;levels -->
<g id="edge6" class="edge">
<title>skills:w&#45;&gt;levels:e</title>
<path fill="none" stroke="#000000" d="M258.4075,-164.5209C236.1437,-147.8109 255.3835,-86.7 217.5,-86.7"/>
<polygon fill="#000000" stroke="#000000" points="264.8301,-166.4255 271.4765,-172.1514 268.6651,-167.5627 272.5,-168.7 272.5,-168.7 272.5,-168.7 268.6651,-167.5627 273.5235,-165.2486 264.8301,-166.4255 264.8301,-166.4255"/>
<ellipse fill="none" stroke="#000000" cx="261.7622" cy="-165.5157" rx="3.2" ry="3.2"/>
</g>
</g>
</svg>
