<?xml version="1.0" encoding="UTF-8" standalone="no"?>
<!DOCTYPE svg PUBLIC "-//W3C//DTD SVG 1.1//EN"
 "http://www.w3.org/Graphics/SVG/1.1/DTD/svg11.dtd">
<!-- Generated by graphviz version 2.40.1 (20161225.0304)
 -->
<!-- Title: twoDegreesRelationshipsDiagram Pages: 1 -->
<svg width="684pt" height="503pt"
 viewBox="0.00 0.00 684.00 503.20" xmlns="http://www.w3.org/2000/svg" xmlns:xlink="http://www.w3.org/1999/xlink">
<g id="graph0" class="graph" transform="scale(1 1) rotate(0) translate(4 499.2)">
<title>twoDegreesRelationshipsDiagram</title>
<polygon fill="#ffffff" stroke="transparent" points="-4,4 -4,-499.2 680,-499.2 680,4 -4,4"/>
<text text-anchor="middle" x="72.4936" y="-7.3" font-family="Helvetica,sans-Serif" font-size="11.00" fill="#000000">Generated by SchemaSpy</text>
<!-- events -->
<g id="node1" class="node">
<title>events</title>
<g id="a_node1"><a xlink:href="../../tables/events.html" xlink:title="events" target="_top">
<polygon fill="#ffffff" stroke="transparent" points="132,-316.2 132,-421.2 217,-421.2 217,-316.2 132,-316.2"/>
<polygon fill="#f5f5f5" stroke="transparent" points="132.5,-397.7 132.5,-420.7 217.5,-420.7 217.5,-397.7 132.5,-397.7"/>
<polygon fill="none" stroke="#000000" points="132.5,-397.7 132.5,-420.7 217.5,-420.7 217.5,-397.7 132.5,-397.7"/>
<text text-anchor="start" x="137.5" y="-406.8" font-family="Helvetica,sans-Serif" font-weight="bold" font-size="11.00" fill="#000000">events</text>
<text text-anchor="start" x="182.5437" y="-405.8" font-family="Helvetica,sans-Serif" font-size="11.00" fill="#000000">[table]</text>
<polygon fill="none" stroke="#000000" points="132.5,-375.7 132.5,-397.7 217.5,-397.7 217.5,-375.7 132.5,-375.7"/>
<image xlink:href="../../images/primaryKeys.png" width="11px" height="12px" preserveAspectRatio="xMinYMin meet" x="137.5" y="-392.7"/>
<text text-anchor="start" x="152.5" y="-382.8" font-family="Helvetica,sans-Serif" font-size="11.00" fill="#000000">id</text>
<polygon fill="#ffffff" stroke="transparent" points="132.5,-353.7 132.5,-375.7 217.5,-375.7 217.5,-353.7 132.5,-353.7"/>
<polygon fill="none" stroke="#000000" points="132.5,-353.7 132.5,-375.7 217.5,-375.7 217.5,-353.7 132.5,-353.7"/>
<image xlink:href="../../images/foreignKeys.png" width="11px" height="12px" preserveAspectRatio="xMinYMin meet" x="137.5" y="-370.7"/>
<text text-anchor="start" x="152.5" y="-360.8" font-family="Helvetica,sans-Serif" font-size="11.00" fill="#000000">gym_id</text>
<polygon fill="none" stroke="#000000" points="132.5,-334.7 132.5,-353.7 217.5,-353.7 217.5,-334.7 132.5,-334.7"/>
<text text-anchor="start" x="135.5" y="-340.8" font-family="Helvetica,sans-Serif" font-size="11.00" fill="#000000">...</text>
<polygon fill="#ffffff" stroke="transparent" points="132.5,-315.7 132.5,-334.7 155.5,-334.7 155.5,-315.7 132.5,-315.7"/>
<polygon fill="none" stroke="#000000" points="132.5,-315.7 132.5,-334.7 155.5,-334.7 155.5,-315.7 132.5,-315.7"/>
<text text-anchor="start" x="135.5" y="-321.8" font-family="Helvetica,sans-Serif" font-size="11.00" fill="#000000">&lt; 1</text>
<polygon fill="#ffffff" stroke="transparent" points="155.5,-315.7 155.5,-334.7 194.5,-334.7 194.5,-315.7 155.5,-315.7"/>
<polygon fill="none" stroke="#000000" points="155.5,-315.7 155.5,-334.7 194.5,-334.7 194.5,-315.7 155.5,-315.7"/>
<text text-anchor="start" x="159.1105" y="-321.8" font-family="Helvetica,sans-Serif" font-size="11.00" fill="#000000">0 rows</text>
<polygon fill="#ffffff" stroke="transparent" points="194.5,-315.7 194.5,-334.7 217.5,-334.7 217.5,-315.7 194.5,-315.7"/>
<polygon fill="none" stroke="#000000" points="194.5,-315.7 194.5,-334.7 217.5,-334.7 217.5,-315.7 194.5,-315.7"/>
<text text-anchor="start" x="198.9053" y="-321.8" font-family="Helvetica,sans-Serif" font-size="11.00" fill="#000000">1 &gt;</text>
</a>
</g>
</g>
<!-- gyms -->
<g id="node2" class="node">
<title>gyms</title>
<g id="a_node2"><a xlink:href="../../tables/gyms.html" xlink:title="gyms" target="_top">
<polygon fill="#ffffff" stroke="transparent" points="8,-381.2 8,-442.2 79,-442.2 79,-381.2 8,-381.2"/>
<polygon fill="#f5f5f5" stroke="transparent" points="8.5,-418.7 8.5,-441.7 79.5,-441.7 79.5,-418.7 8.5,-418.7"/>
<polygon fill="none" stroke="#000000" points="8.5,-418.7 8.5,-441.7 79.5,-441.7 79.5,-418.7 8.5,-418.7"/>
<text text-anchor="start" x="13.5" y="-427.8" font-family="Helvetica,sans-Serif" font-weight="bold" font-size="11.00" fill="#000000">gyms</text>
<text text-anchor="start" x="44.5437" y="-426.8" font-family="Helvetica,sans-Serif" font-size="11.00" fill="#000000">[table]</text>
<polygon fill="none" stroke="#000000" points="8.5,-399.7 8.5,-418.7 79.5,-418.7 79.5,-399.7 8.5,-399.7"/>
<text text-anchor="start" x="11.5" y="-405.8" font-family="Helvetica,sans-Serif" font-size="11.00" fill="#000000">...</text>
<polygon fill="#ffffff" stroke="transparent" points="8.5,-380.7 8.5,-399.7 20.5,-399.7 20.5,-380.7 8.5,-380.7"/>
<polygon fill="none" stroke="#000000" points="8.5,-380.7 8.5,-399.7 20.5,-399.7 20.5,-380.7 8.5,-380.7"/>
<text text-anchor="start" x="11.4431" y="-386.8" font-family="Helvetica,sans-Serif" font-size="11.00" fill="#000000"> &#160;</text>
<polygon fill="#ffffff" stroke="transparent" points="20.5,-380.7 20.5,-399.7 58.5,-399.7 58.5,-380.7 20.5,-380.7"/>
<polygon fill="none" stroke="#000000" points="20.5,-380.7 20.5,-399.7 58.5,-399.7 58.5,-380.7 20.5,-380.7"/>
<text text-anchor="start" x="23.3053" y="-386.8" font-family="Helvetica,sans-Serif" font-size="11.00" fill="#000000">0 rows</text>
<polygon fill="#ffffff" stroke="transparent" points="58.5,-380.7 58.5,-399.7 79.5,-399.7 79.5,-380.7 58.5,-380.7"/>
<polygon fill="none" stroke="#000000" points="58.5,-380.7 58.5,-399.7 79.5,-399.7 79.5,-380.7 58.5,-380.7"/>
<text text-anchor="start" x="61.2027" y="-386.8" font-family="Helvetica,sans-Serif" font-size="11.00" fill="#000000">4 &gt;</text>
</a>
</g>
</g>
<!-- events&#45;&gt;gyms -->
<g id="edge1" class="edge">
<title>events:w&#45;&gt;gyms:e</title>
<path fill="none" stroke="#000000" d="M118.4281,-369.0797C103.618,-380.209 104.1356,-408.7 79.5,-408.7"/>
<polygon fill="#000000" stroke="#000000" points="124.8614,-367.0775 133.5699,-368.1374 128.6807,-365.8887 132.5,-364.7 132.5,-364.7 132.5,-364.7 128.6807,-365.8887 131.4301,-361.2626 124.8614,-367.0775 124.8614,-367.0775"/>
<ellipse fill="none" stroke="#000000" cx="121.806" cy="-368.0285" rx="3.2" ry="3.2"/>
</g>
<!-- gymnast_has_skills -->
<g id="node3" class="node">
<title>gymnast_has_skills</title>
<g id="a_node3"><a xlink:href="../../tables/gymnast_has_skills.html" xlink:title="gymnast_has_skills" target="_top">
<polygon fill="#ffffff" stroke="transparent" points="529,-96.2 529,-201.2 667,-201.2 667,-96.2 529,-96.2"/>
<polygon fill="#f5f5f5" stroke="transparent" points="529,-177.7 529,-200.7 667,-200.7 667,-177.7 529,-177.7"/>
<polygon fill="none" stroke="#000000" points="529,-177.7 529,-200.7 667,-200.7 667,-177.7 529,-177.7"/>
<text text-anchor="start" x="533.8271" y="-186.8" font-family="Helvetica,sans-Serif" font-weight="bold" font-size="11.00" fill="#000000">gymnast_has_skills</text>
<text text-anchor="start" x="632.5219" y="-185.8" font-family="Helvetica,sans-Serif" font-size="11.00" fill="#000000">[table]</text>
<polygon fill="none" stroke="#000000" points="529,-155.7 529,-177.7 667,-177.7 667,-155.7 529,-155.7"/>
<image xlink:href="../../images/primaryKeys.png" width="11px" height="12px" preserveAspectRatio="xMinYMin meet" x="534" y="-172.7"/>
<text text-anchor="start" x="551" y="-162.8" font-family="Helvetica,sans-Serif" font-size="11.00" fill="#000000">gymnast_id</text>
<polygon fill="none" stroke="#000000" points="529,-133.7 529,-155.7 667,-155.7 667,-133.7 529,-133.7"/>
<image xlink:href="../../images/primaryKeys.png" width="11px" height="12px" preserveAspectRatio="xMinYMin meet" x="534" y="-150.7"/>
<text text-anchor="start" x="551" y="-140.8" font-family="Helvetica,sans-Serif" font-size="11.00" fill="#000000">skills_Id</text>
<polygon fill="none" stroke="#000000" points="529,-114.7 529,-133.7 667,-133.7 667,-114.7 529,-114.7"/>
<text text-anchor="start" x="532" y="-120.8" font-family="Helvetica,sans-Serif" font-size="11.00" fill="#000000">...</text>
<polygon fill="#ffffff" stroke="transparent" points="529,-95.7 529,-114.7 583,-114.7 583,-95.7 529,-95.7"/>
<polygon fill="none" stroke="#000000" points="529,-95.7 529,-114.7 583,-114.7 583,-95.7 529,-95.7"/>
<text text-anchor="start" x="532" y="-101.8" font-family="Helvetica,sans-Serif" font-size="11.00" fill="#000000">&lt; 2</text>
<polygon fill="#ffffff" stroke="transparent" points="583,-95.7 583,-114.7 638,-114.7 638,-95.7 583,-95.7"/>
<polygon fill="none" stroke="#000000" points="583,-95.7 583,-114.7 638,-114.7 638,-95.7 583,-95.7"/>
<text text-anchor="start" x="602.6105" y="-101.8" font-family="Helvetica,sans-Serif" font-size="11.00" fill="#000000">0 rows</text>
<polygon fill="#ffffff" stroke="transparent" points="638,-95.7 638,-114.7 667,-114.7 667,-95.7 638,-95.7"/>
<polygon fill="none" stroke="#000000" points="638,-95.7 638,-114.7 667,-114.7 667,-95.7 638,-95.7"/>
<text text-anchor="start" x="657.8862" y="-101.8" font-family="Helvetica,sans-Serif" font-size="11.00" fill="#000000"> &#160;</text>
</a>
</g>
</g>
<!-- gymnasts -->
<g id="node4" class="node">
<title>gymnasts</title>
<g id="a_node4"><a xlink:href="../../tables/gymnasts.html" xlink:title="gymnasts" target="_top">
<polygon fill="#ffffff" stroke="transparent" points="329.5,-38.2 329.5,-99.2 419.5,-99.2 419.5,-38.2 329.5,-38.2"/>
<polygon fill="#f5f5f5" stroke="transparent" points="329.5,-75.7 329.5,-98.7 419.5,-98.7 419.5,-75.7 329.5,-75.7"/>
<polygon fill="none" stroke="#000000" points="329.5,-75.7 329.5,-98.7 419.5,-98.7 419.5,-75.7 329.5,-75.7"/>
<text text-anchor="start" x="334.4683" y="-84.8" font-family="Helvetica,sans-Serif" font-weight="bold" font-size="11.00" fill="#000000">gymnasts</text>
<text text-anchor="start" x="385.0219" y="-83.8" font-family="Helvetica,sans-Serif" font-size="11.00" fill="#000000">[table]</text>
<polygon fill="none" stroke="#000000" points="329.5,-56.7 329.5,-75.7 419.5,-75.7 419.5,-56.7 329.5,-56.7"/>
<text text-anchor="start" x="332.5" y="-62.8" font-family="Helvetica,sans-Serif" font-size="11.00" fill="#000000">...</text>
<polygon fill="#ffffff" stroke="transparent" points="329.5,-37.7 329.5,-56.7 355.5,-56.7 355.5,-37.7 329.5,-37.7"/>
<polygon fill="none" stroke="#000000" points="329.5,-37.7 329.5,-56.7 355.5,-56.7 355.5,-37.7 329.5,-37.7"/>
<text text-anchor="start" x="332.5" y="-43.8" font-family="Helvetica,sans-Serif" font-size="11.00" fill="#000000">&lt; 2</text>
<polygon fill="#ffffff" stroke="transparent" points="355.5,-37.7 355.5,-56.7 395.5,-56.7 395.5,-37.7 355.5,-37.7"/>
<polygon fill="none" stroke="#000000" points="355.5,-37.7 355.5,-56.7 395.5,-56.7 395.5,-37.7 355.5,-37.7"/>
<text text-anchor="start" x="360.1105" y="-43.8" font-family="Helvetica,sans-Serif" font-size="11.00" fill="#000000">0 rows</text>
<polygon fill="#ffffff" stroke="transparent" points="395.5,-37.7 395.5,-56.7 419.5,-56.7 419.5,-37.7 395.5,-37.7"/>
<polygon fill="none" stroke="#000000" points="395.5,-37.7 395.5,-56.7 419.5,-56.7 419.5,-37.7 395.5,-37.7"/>
<text text-anchor="start" x="400.9053" y="-43.8" font-family="Helvetica,sans-Serif" font-size="11.00" fill="#000000">4 &gt;</text>
</a>
</g>
</g>
<!-- gymnast_has_skills&#45;&gt;gymnasts -->
<g id="edge2" class="edge">
<title>gymnast_has_skills:w&#45;&gt;gymnasts:e</title>
<path fill="none" stroke="#000000" d="M514.9872,-163.0157C501.0117,-153.3996 505.4112,-127.0844 487,-109.7 460.9623,-85.1143 455.3109,-65.7 419.5,-65.7"/>
<polygon fill="#000000" stroke="#000000" points="521.263,-164.6657 528.0846,-170.1817 525.1315,-165.6829 529,-166.7 529,-166.7 529,-166.7 525.1315,-165.6829 529.9154,-163.2183 521.263,-164.6657 521.263,-164.6657"/>
<ellipse fill="none" stroke="#000000" cx="518.1681" cy="-163.852" rx="3.2" ry="3.2"/>
</g>
<!-- skills -->
<g id="node5" class="node">
<title>skills</title>
<g id="a_node5"><a xlink:href="../../tables/skills.html" xlink:title="skills" target="_top">
<polygon fill="#ffffff" stroke="transparent" points="270,-120.7 270,-408.7 479,-408.7 479,-120.7 270,-120.7"/>
<polygon fill="#f5f5f5" stroke="transparent" points="272.5,-383.7 272.5,-406.7 477.5,-406.7 477.5,-383.7 272.5,-383.7"/>
<polygon fill="none" stroke="#000000" points="272.5,-383.7 272.5,-406.7 477.5,-406.7 477.5,-383.7 272.5,-383.7"/>
<text text-anchor="start" x="277.5" y="-392.8" font-family="Helvetica,sans-Serif" font-weight="bold" font-size="11.00" fill="#000000">skills</text>
<text text-anchor="start" x="442.5437" y="-391.8" font-family="Helvetica,sans-Serif" font-size="11.00" fill="#000000">[table]</text>
<polygon fill="none" stroke="#000000" points="272.5,-361.7 272.5,-383.7 360.5,-383.7 360.5,-361.7 272.5,-361.7"/>
<image xlink:href="../../images/primaryKeys.png" width="11px" height="12px" preserveAspectRatio="xMinYMin meet" x="277.5" y="-378.7"/>
<text text-anchor="start" x="292.5" y="-368.8" font-family="Helvetica,sans-Serif" font-size="11.00" fill="#000000">id</text>
<polygon fill="none" stroke="#000000" points="360.5,-361.7 360.5,-383.7 477.5,-383.7 477.5,-361.7 360.5,-361.7"/>
<text text-anchor="start" x="363.5" y="-369.4" font-family="Helvetica,sans-Serif" font-size="11.00" fill="#000000">bigint unsigned[20]</text>
<polygon fill="none" stroke="#000000" points="272.5,-339.7 272.5,-361.7 360.5,-361.7 360.5,-339.7 272.5,-339.7"/>
<text text-anchor="start" x="292.5" y="-346.8" font-family="Helvetica,sans-Serif" font-size="11.00" fill="#000000">name</text>
<polygon fill="none" stroke="#000000" points="360.5,-339.7 360.5,-361.7 477.5,-361.7 477.5,-339.7 360.5,-339.7"/>
<text text-anchor="start" x="363.5" y="-347.4" font-family="Helvetica,sans-Serif" font-size="11.00" fill="#000000">varchar[45]</text>
<polygon fill="none" stroke="#000000" points="272.5,-317.7 272.5,-339.7 360.5,-339.7 360.5,-317.7 272.5,-317.7"/>
<text text-anchor="start" x="292.5" y="-324.8" font-family="Helvetica,sans-Serif" font-size="11.00" fill="#000000">description</text>
<polygon fill="none" stroke="#000000" points="360.5,-317.7 360.5,-339.7 477.5,-339.7 477.5,-317.7 360.5,-317.7"/>
<text text-anchor="start" x="363.0645" y="-325.4" font-family="Helvetica,sans-Serif" font-size="11.00" fill="#000000">mediumtext[16777215]</text>
<polygon fill="none" stroke="#000000" points="272.5,-295.7 272.5,-317.7 360.5,-317.7 360.5,-295.7 272.5,-295.7"/>
<text text-anchor="start" x="292.5" y="-302.8" font-family="Helvetica,sans-Serif" font-size="11.00" fill="#000000">category</text>
<polygon fill="none" stroke="#000000" points="360.5,-295.7 360.5,-317.7 477.5,-317.7 477.5,-295.7 360.5,-295.7"/>
<text text-anchor="start" x="363.5" y="-303.4" font-family="Helvetica,sans-Serif" font-size="11.00" fill="#000000">varchar[45]</text>
<polygon fill="none" stroke="#000000" points="272.5,-273.7 272.5,-295.7 360.5,-295.7 360.5,-273.7 272.5,-273.7"/>
<text text-anchor="start" x="292.5" y="-280.8" font-family="Helvetica,sans-Serif" font-size="11.00" fill="#000000">certificate</text>
<polygon fill="none" stroke="#000000" points="360.5,-273.7 360.5,-295.7 477.5,-295.7 477.5,-273.7 360.5,-273.7"/>
<text text-anchor="start" x="363.5" y="-281.4" font-family="Helvetica,sans-Serif" font-size="11.00" fill="#000000">bit[1]</text>
<polygon fill="#ffffff" stroke="transparent" points="272.5,-251.7 272.5,-273.7 360.5,-273.7 360.5,-251.7 272.5,-251.7"/>
<polygon fill="none" stroke="#000000" points="272.5,-251.7 272.5,-273.7 360.5,-273.7 360.5,-251.7 272.5,-251.7"/>
<image xlink:href="../../images/foreignKeys.png" width="11px" height="12px" preserveAspectRatio="xMinYMin meet" x="277.5" y="-268.7"/>
<text text-anchor="start" x="292.5" y="-258.8" font-family="Helvetica,sans-Serif" font-size="11.00" fill="#000000">event_id</text>
<polygon fill="none" stroke="#000000" points="360.5,-251.7 360.5,-273.7 477.5,-273.7 477.5,-251.7 360.5,-251.7"/>
<text text-anchor="start" x="363.5" y="-259.4" font-family="Helvetica,sans-Serif" font-size="11.00" fill="#000000">bigint[19]</text>
<polygon fill="#ffffff" stroke="transparent" points="272.5,-229.7 272.5,-251.7 360.5,-251.7 360.5,-229.7 272.5,-229.7"/>
<polygon fill="none" stroke="#000000" points="272.5,-229.7 272.5,-251.7 360.5,-251.7 360.5,-229.7 272.5,-229.7"/>
<image xlink:href="../../images/foreignKeys.png" width="11px" height="12px" preserveAspectRatio="xMinYMin meet" x="277.5" y="-246.7"/>
<text text-anchor="start" x="292.5" y="-236.8" font-family="Helvetica,sans-Serif" font-size="11.00" fill="#000000">category_id</text>
<polygon fill="none" stroke="#000000" points="360.5,-229.7 360.5,-251.7 477.5,-251.7 477.5,-229.7 360.5,-229.7"/>
<text text-anchor="start" x="363.5" y="-237.4" font-family="Helvetica,sans-Serif" font-size="11.00" fill="#000000">bigint[19]</text>
<polygon fill="#ffffff" stroke="transparent" points="272.5,-207.7 272.5,-229.7 360.5,-229.7 360.5,-207.7 272.5,-207.7"/>
<polygon fill="none" stroke="#000000" points="272.5,-207.7 272.5,-229.7 360.5,-229.7 360.5,-207.7 272.5,-207.7"/>
<image xlink:href="../../images/foreignKeys.png" width="11px" height="12px" preserveAspectRatio="xMinYMin meet" x="277.5" y="-224.7"/>
<text text-anchor="start" x="292.5" y="-214.8" font-family="Helvetica,sans-Serif" font-size="11.00" fill="#000000">level_id</text>
<polygon fill="none" stroke="#000000" points="360.5,-207.7 360.5,-229.7 477.5,-229.7 477.5,-207.7 360.5,-207.7"/>
<text text-anchor="start" x="363.5" y="-215.4" font-family="Helvetica,sans-Serif" font-size="11.00" fill="#000000">bigint[19]</text>
<polygon fill="none" stroke="#000000" points="272.5,-185.7 272.5,-207.7 360.5,-207.7 360.5,-185.7 272.5,-185.7"/>
<text text-anchor="start" x="292.5" y="-192.8" font-family="Helvetica,sans-Serif" font-size="11.00" fill="#000000">created_at</text>
<polygon fill="none" stroke="#000000" points="360.5,-185.7 360.5,-207.7 477.5,-207.7 477.5,-185.7 360.5,-185.7"/>
<text text-anchor="start" x="363.5" y="-193.4" font-family="Helvetica,sans-Serif" font-size="11.00" fill="#000000">timestamp[19]</text>
<polygon fill="none" stroke="#000000" points="272.5,-163.7 272.5,-185.7 360.5,-185.7 360.5,-163.7 272.5,-163.7"/>
<text text-anchor="start" x="292.5" y="-170.8" font-family="Helvetica,sans-Serif" font-size="11.00" fill="#000000">updated_at</text>
<polygon fill="none" stroke="#000000" points="360.5,-163.7 360.5,-185.7 477.5,-185.7 477.5,-163.7 360.5,-163.7"/>
<text text-anchor="start" x="363.5" y="-171.4" font-family="Helvetica,sans-Serif" font-size="11.00" fill="#000000">timestamp[19]</text>
<polygon fill="none" stroke="#000000" points="272.5,-141.7 272.5,-163.7 360.5,-163.7 360.5,-141.7 272.5,-141.7"/>
<text text-anchor="start" x="292.5" y="-148.8" font-family="Helvetica,sans-Serif" font-size="11.00" fill="#000000">deleted_at</text>
<polygon fill="none" stroke="#000000" points="360.5,-141.7 360.5,-163.7 477.5,-163.7 477.5,-141.7 360.5,-141.7"/>
<text text-anchor="start" x="363.5" y="-149.4" font-family="Helvetica,sans-Serif" font-size="11.00" fill="#000000">timestamp[19]</text>
<polygon fill="#ffffff" stroke="transparent" points="272.5,-122.7 272.5,-141.7 307.5,-141.7 307.5,-122.7 272.5,-122.7"/>
<polygon fill="none" stroke="#000000" points="272.5,-122.7 272.5,-141.7 307.5,-141.7 307.5,-122.7 272.5,-122.7"/>
<text text-anchor="start" x="275.5" y="-128.8" font-family="Helvetica,sans-Serif" font-size="11.00" fill="#000000">&lt; 3</text>
<polygon fill="#ffffff" stroke="transparent" points="307.5,-122.7 307.5,-141.7 360.5,-141.7 360.5,-122.7 307.5,-122.7"/>
<polygon fill="none" stroke="#000000" points="307.5,-122.7 307.5,-141.7 360.5,-141.7 360.5,-122.7 307.5,-122.7"/>
<text text-anchor="start" x="325.1105" y="-128.8" font-family="Helvetica,sans-Serif" font-size="11.00" fill="#000000">0 rows</text>
<polygon fill="#ffffff" stroke="transparent" points="360.5,-122.7 360.5,-141.7 477.5,-141.7 477.5,-122.7 360.5,-122.7"/>
<polygon fill="none" stroke="#000000" points="360.5,-122.7 360.5,-141.7 477.5,-141.7 477.5,-122.7 360.5,-122.7"/>
<text text-anchor="start" x="458.9053" y="-128.8" font-family="Helvetica,sans-Serif" font-size="11.00" fill="#000000">2 &gt;</text>
<polygon fill="none" stroke="#000000" stroke-width="2" points="271,-121.7 271,-407.7 478,-407.7 478,-121.7 271,-121.7"/>
</a>
</g>
</g>
<!-- gymnast_has_skills&#45;&gt;skills -->
<g id="edge3" class="edge">
<title>gymnast_has_skills:w&#45;&gt;skills:e</title>
<path fill="none" stroke="#000000" d="M514.659,-146.5353C440.8722,-168.1128 575.9078,-372.7 477.5,-372.7"/>
<polygon fill="#000000" stroke="#000000" points="521.0647,-145.7156 529.457,-148.2709 525.0324,-145.2078 529,-144.7 529,-144.7 529,-144.7 525.0324,-145.2078 528.543,-141.1291 521.0647,-145.7156 521.0647,-145.7156"/>
<ellipse fill="none" stroke="#000000" cx="517.8906" cy="-146.1218" rx="3.2" ry="3.2"/>
</g>
<!-- skills&#45;&gt;events -->
<g id="edge8" class="edge">
<title>skills:w&#45;&gt;events:e</title>
<path fill="none" stroke="#000000" d="M258.2038,-266.0167C223.8188,-285.7362 271.9014,-386.7 217.5,-386.7"/>
<polygon fill="#000000" stroke="#000000" points="264.707,-264.508 273.3136,-266.2069 268.6035,-263.604 272.5,-262.7 272.5,-262.7 272.5,-262.7 268.6035,-263.604 271.6864,-259.1931 264.707,-264.508 264.707,-264.508"/>
<ellipse fill="none" stroke="#000000" cx="261.5898" cy="-265.2312" rx="3.2" ry="3.2"/>
</g>
<!-- categories -->
<g id="node8" class="node">
<title>categories</title>
<g id="a_node8"><a xlink:href="../../tables/categories.html" xlink:title="categories" target="_top">
<polygon fill="#ffffff" stroke="transparent" points="128,-196.2 128,-279.2 221,-279.2 221,-196.2 128,-196.2"/>
<polygon fill="#f5f5f5" stroke="transparent" points="128.5,-255.7 128.5,-278.7 221.5,-278.7 221.5,-255.7 128.5,-255.7"/>
<polygon fill="none" stroke="#000000" points="128.5,-255.7 128.5,-278.7 221.5,-278.7 221.5,-255.7 128.5,-255.7"/>
<text text-anchor="start" x="133.1329" y="-264.8" font-family="Helvetica,sans-Serif" font-weight="bold" font-size="11.00" fill="#000000">categories</text>
<text text-anchor="start" x="187.0219" y="-263.8" font-family="Helvetica,sans-Serif" font-size="11.00" fill="#000000">[table]</text>
<polygon fill="none" stroke="#000000" points="128.5,-233.7 128.5,-255.7 221.5,-255.7 221.5,-233.7 128.5,-233.7"/>
<image xlink:href="../../images/primaryKeys.png" width="11px" height="12px" preserveAspectRatio="xMinYMin meet" x="133.5" y="-250.7"/>
<text text-anchor="start" x="152.5" y="-240.8" font-family="Helvetica,sans-Serif" font-size="11.00" fill="#000000">id</text>
<polygon fill="none" stroke="#000000" points="128.5,-214.7 128.5,-233.7 221.5,-233.7 221.5,-214.7 128.5,-214.7"/>
<text text-anchor="start" x="131.5" y="-220.8" font-family="Helvetica,sans-Serif" font-size="11.00" fill="#000000">...</text>
<polygon fill="#ffffff" stroke="transparent" points="128.5,-195.7 128.5,-214.7 151.5,-214.7 151.5,-195.7 128.5,-195.7"/>
<polygon fill="none" stroke="#000000" points="128.5,-195.7 128.5,-214.7 151.5,-214.7 151.5,-195.7 128.5,-195.7"/>
<text text-anchor="start" x="131.5" y="-201.8" font-family="Helvetica,sans-Serif" font-size="11.00" fill="#000000"> &#160;</text>
<polygon fill="#ffffff" stroke="transparent" points="151.5,-195.7 151.5,-214.7 194.5,-214.7 194.5,-195.7 151.5,-195.7"/>
<polygon fill="none" stroke="#000000" points="151.5,-195.7 151.5,-214.7 194.5,-214.7 194.5,-195.7 151.5,-195.7"/>
<text text-anchor="start" x="159.1105" y="-201.8" font-family="Helvetica,sans-Serif" font-size="11.00" fill="#000000">0 rows</text>
<polygon fill="#ffffff" stroke="transparent" points="194.5,-195.7 194.5,-214.7 221.5,-214.7 221.5,-195.7 194.5,-195.7"/>
<polygon fill="none" stroke="#000000" points="194.5,-195.7 194.5,-214.7 221.5,-214.7 221.5,-195.7 194.5,-195.7"/>
<text text-anchor="start" x="202.9053" y="-201.8" font-family="Helvetica,sans-Serif" font-size="11.00" fill="#000000">1 &gt;</text>
</a>
</g>
</g>
<!-- skills&#45;&gt;categories -->
<g id="edge7" class="edge">
<title>skills:w&#45;&gt;categories:e</title>
<path fill="none" stroke="#000000" d="M257.7566,-241.3605C245.7698,-242.4966 238.3746,-244.7 221.5,-244.7"/>
<polygon fill="#000000" stroke="#000000" points="264.508,-241.0581 272.6611,-244.2964 268.504,-240.8791 272.5,-240.7 272.5,-240.7 272.5,-240.7 268.504,-240.8791 272.3389,-237.1036 264.508,-241.0581 264.508,-241.0581"/>
<ellipse fill="none" stroke="#000000" cx="261.3112" cy="-241.2013" rx="3.2" ry="3.2"/>
</g>
<!-- levels -->
<g id="node9" class="node">
<title>levels</title>
<g id="a_node9"><a xlink:href="../../tables/levels.html" xlink:title="levels" target="_top">
<polygon fill="#ffffff" stroke="transparent" points="132,-92.2 132,-175.2 217,-175.2 217,-92.2 132,-92.2"/>
<polygon fill="#f5f5f5" stroke="transparent" points="132.5,-151.7 132.5,-174.7 217.5,-174.7 217.5,-151.7 132.5,-151.7"/>
<polygon fill="none" stroke="#000000" points="132.5,-151.7 132.5,-174.7 217.5,-174.7 217.5,-151.7 132.5,-151.7"/>
<text text-anchor="start" x="137.5" y="-160.8" font-family="Helvetica,sans-Serif" font-weight="bold" font-size="11.00" fill="#000000">levels</text>
<text text-anchor="start" x="182.5437" y="-159.8" font-family="Helvetica,sans-Serif" font-size="11.00" fill="#000000">[table]</text>
<polygon fill="none" stroke="#000000" points="132.5,-129.7 132.5,-151.7 217.5,-151.7 217.5,-129.7 132.5,-129.7"/>
<image xlink:href="../../images/primaryKeys.png" width="11px" height="12px" preserveAspectRatio="xMinYMin meet" x="137.5" y="-146.7"/>
<text text-anchor="start" x="152.5" y="-136.8" font-family="Helvetica,sans-Serif" font-size="11.00" fill="#000000">id</text>
<polygon fill="none" stroke="#000000" points="132.5,-110.7 132.5,-129.7 217.5,-129.7 217.5,-110.7 132.5,-110.7"/>
<text text-anchor="start" x="135.5" y="-116.8" font-family="Helvetica,sans-Serif" font-size="11.00" fill="#000000">...</text>
<polygon fill="#ffffff" stroke="transparent" points="132.5,-91.7 132.5,-110.7 151.5,-110.7 151.5,-91.7 132.5,-91.7"/>
<polygon fill="none" stroke="#000000" points="132.5,-91.7 132.5,-110.7 151.5,-110.7 151.5,-91.7 132.5,-91.7"/>
<text text-anchor="start" x="135.5" y="-97.8" font-family="Helvetica,sans-Serif" font-size="11.00" fill="#000000"> &#160;</text>
<polygon fill="#ffffff" stroke="transparent" points="151.5,-91.7 151.5,-110.7 192.5,-110.7 192.5,-91.7 151.5,-91.7"/>
<polygon fill="none" stroke="#000000" points="151.5,-91.7 151.5,-110.7 192.5,-110.7 192.5,-91.7 151.5,-91.7"/>
<text text-anchor="start" x="157.1105" y="-97.8" font-family="Helvetica,sans-Serif" font-size="11.00" fill="#000000">0 rows</text>
<polygon fill="#ffffff" stroke="transparent" points="192.5,-91.7 192.5,-110.7 217.5,-110.7 217.5,-91.7 192.5,-91.7"/>
<polygon fill="none" stroke="#000000" points="192.5,-91.7 192.5,-110.7 217.5,-110.7 217.5,-91.7 192.5,-91.7"/>
<text text-anchor="start" x="198.9053" y="-97.8" font-family="Helvetica,sans-Serif" font-size="11.00" fill="#000000">1 &gt;</text>
</a>
</g>
</g>
<!-- skills&#45;&gt;levels -->
<g id="edge9" class="edge">
<title>skills:w&#45;&gt;levels:e</title>
<path fill="none" stroke="#000000" d="M258.4895,-214.5064C237.0444,-198.305 253.9532,-140.7 217.5,-140.7"/>
<polygon fill="#000000" stroke="#000000" points="264.836,-216.406 271.4677,-222.1488 268.668,-217.553 272.5,-218.7 272.5,-218.7 272.5,-218.7 268.668,-217.553 273.5323,-215.2512 264.836,-216.406 264.836,-216.406"/>
<ellipse fill="none" stroke="#000000" cx="261.7703" cy="-215.4883" rx="3.2" ry="3.2"/>
</g>
<!-- skill_lists -->
<g id="node6" class="node">
<title>skill_lists</title>
<g id="a_node6"><a xlink:href="../../tables/skill_lists.html" xlink:title="skill_lists" target="_top">
<polygon fill="#ffffff" stroke="transparent" points="331.5,-430.2 331.5,-491.2 417.5,-491.2 417.5,-430.2 331.5,-430.2"/>
<polygon fill="#f5f5f5" stroke="transparent" points="331.5,-467.7 331.5,-490.7 417.5,-490.7 417.5,-467.7 331.5,-467.7"/>
<polygon fill="none" stroke="#000000" points="331.5,-467.7 331.5,-490.7 417.5,-490.7 417.5,-467.7 331.5,-467.7"/>
<text text-anchor="start" x="336.3119" y="-476.8" font-family="Helvetica,sans-Serif" font-weight="bold" font-size="11.00" fill="#000000">skill_lists</text>
<text text-anchor="start" x="383.0219" y="-475.8" font-family="Helvetica,sans-Serif" font-size="11.00" fill="#000000">[table]</text>
<polygon fill="none" stroke="#000000" points="331.5,-448.7 331.5,-467.7 417.5,-467.7 417.5,-448.7 331.5,-448.7"/>
<text text-anchor="start" x="334.5" y="-454.8" font-family="Helvetica,sans-Serif" font-size="11.00" fill="#000000">...</text>
<polygon fill="#ffffff" stroke="transparent" points="331.5,-429.7 331.5,-448.7 355.5,-448.7 355.5,-429.7 331.5,-429.7"/>
<polygon fill="none" stroke="#000000" points="331.5,-429.7 331.5,-448.7 355.5,-448.7 355.5,-429.7 331.5,-429.7"/>
<text text-anchor="start" x="334.5" y="-435.8" font-family="Helvetica,sans-Serif" font-size="11.00" fill="#000000">&lt; 1</text>
<polygon fill="#ffffff" stroke="transparent" points="355.5,-429.7 355.5,-448.7 394.5,-448.7 394.5,-429.7 355.5,-429.7"/>
<polygon fill="none" stroke="#000000" points="355.5,-429.7 355.5,-448.7 394.5,-448.7 394.5,-429.7 355.5,-429.7"/>
<text text-anchor="start" x="359.1105" y="-435.8" font-family="Helvetica,sans-Serif" font-size="11.00" fill="#000000">0 rows</text>
<polygon fill="#ffffff" stroke="transparent" points="394.5,-429.7 394.5,-448.7 417.5,-448.7 417.5,-429.7 394.5,-429.7"/>
<polygon fill="none" stroke="#000000" points="394.5,-429.7 394.5,-448.7 417.5,-448.7 417.5,-429.7 394.5,-429.7"/>
<text text-anchor="start" x="398.9053" y="-435.8" font-family="Helvetica,sans-Serif" font-size="11.00" fill="#000000">2 &gt;</text>
</a>
</g>
</g>
<!-- skill_lists&#45;&gt;gyms -->
<g id="edge4" class="edge">
<title>skill_lists:w&#45;&gt;gyms:e</title>
<path fill="none" stroke="#000000" d="M317.0637,-457.7257C233.7826,-458.0011 205.1759,-459.8697 120,-431.7 100.3468,-425.2002 100.2001,-408.7 79.5,-408.7"/>
<polygon fill="#000000" stroke="#000000" points="323.5,-457.7143 331.5064,-461.3 327.5,-457.7072 331.5,-457.7 331.5,-457.7 331.5,-457.7 327.5,-457.7072 331.4936,-454.1 323.5,-457.7143 323.5,-457.7143"/>
<ellipse fill="none" stroke="#000000" cx="320.3" cy="-457.72" rx="3.2" ry="3.2"/>
</g>
<!-- skill_lists_has_skills -->
<g id="node7" class="node">
<title>skill_lists_has_skills</title>
<g id="a_node7"><a xlink:href="../../tables/skill_lists_has_skills.html" xlink:title="skill_lists_has_skills" target="_top">
<polygon fill="#ffffff" stroke="transparent" points="528,-355.2 528,-460.2 668,-460.2 668,-355.2 528,-355.2"/>
<polygon fill="#f5f5f5" stroke="transparent" points="528,-436.7 528,-459.7 668,-459.7 668,-436.7 528,-436.7"/>
<polygon fill="none" stroke="#000000" points="528,-436.7 528,-459.7 668,-459.7 668,-436.7 528,-436.7"/>
<text text-anchor="start" x="532.9207" y="-445.8" font-family="Helvetica,sans-Serif" font-weight="bold" font-size="11.00" fill="#000000">skill_lists_has_skills</text>
<text text-anchor="start" x="633.5219" y="-444.8" font-family="Helvetica,sans-Serif" font-size="11.00" fill="#000000">[table]</text>
<polygon fill="none" stroke="#000000" points="528,-414.7 528,-436.7 668,-436.7 668,-414.7 528,-414.7"/>
<image xlink:href="../../images/primaryKeys.png" width="11px" height="12px" preserveAspectRatio="xMinYMin meet" x="533" y="-431.7"/>
<text text-anchor="start" x="549" y="-421.8" font-family="Helvetica,sans-Serif" font-size="11.00" fill="#000000">skill_list_id</text>
<polygon fill="none" stroke="#000000" points="528,-392.7 528,-414.7 668,-414.7 668,-392.7 528,-392.7"/>
<image xlink:href="../../images/primaryKeys.png" width="11px" height="12px" preserveAspectRatio="xMinYMin meet" x="533" y="-409.7"/>
<text text-anchor="start" x="549" y="-399.8" font-family="Helvetica,sans-Serif" font-size="11.00" fill="#000000">skill_id</text>
<polygon fill="none" stroke="#000000" points="528,-373.7 528,-392.7 668,-392.7 668,-373.7 528,-373.7"/>
<text text-anchor="start" x="531" y="-379.8" font-family="Helvetica,sans-Serif" font-size="11.00" fill="#000000">...</text>
<polygon fill="#ffffff" stroke="transparent" points="528,-354.7 528,-373.7 583,-373.7 583,-354.7 528,-354.7"/>
<polygon fill="none" stroke="#000000" points="528,-354.7 528,-373.7 583,-373.7 583,-354.7 528,-354.7"/>
<text text-anchor="start" x="531" y="-360.8" font-family="Helvetica,sans-Serif" font-size="11.00" fill="#000000">&lt; 2</text>
<polygon fill="#ffffff" stroke="transparent" points="583,-354.7 583,-373.7 638,-373.7 638,-354.7 583,-354.7"/>
<polygon fill="none" stroke="#000000" points="583,-354.7 583,-373.7 638,-373.7 638,-354.7 583,-354.7"/>
<text text-anchor="start" x="602.6105" y="-360.8" font-family="Helvetica,sans-Serif" font-size="11.00" fill="#000000">0 rows</text>
<polygon fill="#ffffff" stroke="transparent" points="638,-354.7 638,-373.7 668,-373.7 668,-354.7 638,-354.7"/>
<polygon fill="none" stroke="#000000" points="638,-354.7 638,-373.7 668,-373.7 668,-354.7 638,-354.7"/>
<text text-anchor="start" x="658.8862" y="-360.8" font-family="Helvetica,sans-Serif" font-size="11.00" fill="#000000"> &#160;</text>
</a>
</g>
</g>
<!-- skill_lists_has_skills&#45;&gt;skills -->
<g id="edge5" class="edge">
<title>skill_lists_has_skills:w&#45;&gt;skills:e</title>
<path fill="none" stroke="#000000" d="M513.8267,-399.6473C501.1849,-391.2444 497.8692,-372.7 477.5,-372.7"/>
<polygon fill="#000000" stroke="#000000" points="520.3083,-401.5006 527.0103,-407.1613 524.1541,-402.6003 528,-403.7 528,-403.7 528,-403.7 524.1541,-402.6003 528.9897,-400.2387 520.3083,-401.5006 520.3083,-401.5006"/>
<ellipse fill="none" stroke="#000000" cx="517.2316" cy="-400.6208" rx="3.2" ry="3.2"/>
</g>
<!-- skill_lists_has_skills&#45;&gt;skill_lists -->
<g id="edge6" class="edge">
<title>skill_lists_has_skills:w&#45;&gt;skill_lists:e</title>
<path fill="none" stroke="#000000" d="M513.4056,-426.6577C474.7051,-431.9821 463.3363,-457.7 417.5,-457.7"/>
<polygon fill="#000000" stroke="#000000" points="520.0172,-426.2239 528.2358,-429.2923 524.0086,-425.9619 528,-425.7 528,-425.7 528,-425.7 524.0086,-425.9619 527.7642,-422.1077 520.0172,-426.2239 520.0172,-426.2239"/>
<ellipse fill="none" stroke="#000000" cx="516.824" cy="-426.4334" rx="3.2" ry="3.2"/>
</g>
</g>
</svg>
