<?xml version="1.0" encoding="UTF-8" standalone="no"?>
<!DOCTYPE svg PUBLIC "-//W3C//DTD SVG 1.1//EN"
 "http://www.w3.org/Graphics/SVG/1.1/DTD/svg11.dtd">
<!-- Generated by graphviz version 2.40.1 (20161225.0304)
 -->
<!-- Title: twoDegreesRelationshipsDiagram Pages: 1 -->
<svg width="684pt" height="460pt"
 viewBox="0.00 0.00 684.00 460.20" xmlns="http://www.w3.org/2000/svg" xmlns:xlink="http://www.w3.org/1999/xlink">
<g id="graph0" class="graph" transform="scale(1 1) rotate(0) translate(4 456.2)">
<title>twoDegreesRelationshipsDiagram</title>
<polygon fill="#ffffff" stroke="transparent" points="-4,4 -4,-456.2 680,-456.2 680,4 -4,4"/>
<text text-anchor="middle" x="72.4936" y="-7.3" font-family="Helvetica,sans-Serif" font-size="11.00" fill="#000000">Generated by SchemaSpy</text>
<!-- challenges -->
<g id="node1" class="node">
<title>challenges</title>
<g id="a_node1"><a xlink:href="../../tables/challenges.html" xlink:title="challenges" target="_top">
<polygon fill="#ffffff" stroke="transparent" points="542.5,-387.2 542.5,-448.2 637.5,-448.2 637.5,-387.2 542.5,-387.2"/>
<polygon fill="#f5f5f5" stroke="transparent" points="543,-424.7 543,-447.7 638,-447.7 638,-424.7 543,-424.7"/>
<polygon fill="none" stroke="#000000" points="543,-424.7 543,-447.7 638,-447.7 638,-424.7 543,-424.7"/>
<text text-anchor="start" x="547.7144" y="-433.8" font-family="Helvetica,sans-Serif" font-weight="bold" font-size="11.00" fill="#000000">challenges</text>
<text text-anchor="start" x="603.5219" y="-432.8" font-family="Helvetica,sans-Serif" font-size="11.00" fill="#000000">[table]</text>
<polygon fill="none" stroke="#000000" points="543,-405.7 543,-424.7 638,-424.7 638,-405.7 543,-405.7"/>
<text text-anchor="start" x="546" y="-411.8" font-family="Helvetica,sans-Serif" font-size="11.00" fill="#000000">...</text>
<polygon fill="#ffffff" stroke="transparent" points="543,-386.7 543,-405.7 571,-405.7 571,-386.7 543,-386.7"/>
<polygon fill="none" stroke="#000000" points="543,-386.7 543,-405.7 571,-405.7 571,-386.7 543,-386.7"/>
<text text-anchor="start" x="546" y="-392.8" font-family="Helvetica,sans-Serif" font-size="11.00" fill="#000000">&lt; 2</text>
<polygon fill="#ffffff" stroke="transparent" points="571,-386.7 571,-405.7 613,-405.7 613,-386.7 571,-386.7"/>
<polygon fill="none" stroke="#000000" points="571,-386.7 571,-405.7 613,-405.7 613,-386.7 571,-386.7"/>
<text text-anchor="start" x="577.6105" y="-392.8" font-family="Helvetica,sans-Serif" font-size="11.00" fill="#000000">0 rows</text>
<polygon fill="#ffffff" stroke="transparent" points="613,-386.7 613,-405.7 638,-405.7 638,-386.7 613,-386.7"/>
<polygon fill="none" stroke="#000000" points="613,-386.7 613,-405.7 638,-405.7 638,-386.7 613,-386.7"/>
<text text-anchor="start" x="619.4053" y="-392.8" font-family="Helvetica,sans-Serif" font-size="11.00" fill="#000000">1 &gt;</text>
</a>
</g>
</g>
<!-- classes -->
<g id="node2" class="node">
<title>classes</title>
<g id="a_node2"><a xlink:href="../../tables/classes.html" xlink:title="classes" target="_top">
<polygon fill="#ffffff" stroke="transparent" points="378,-285.2 378,-390.2 463,-390.2 463,-285.2 378,-285.2"/>
<polygon fill="#f5f5f5" stroke="transparent" points="378.5,-366.7 378.5,-389.7 463.5,-389.7 463.5,-366.7 378.5,-366.7"/>
<polygon fill="none" stroke="#000000" points="378.5,-366.7 378.5,-389.7 463.5,-389.7 463.5,-366.7 378.5,-366.7"/>
<text text-anchor="start" x="383.5" y="-375.8" font-family="Helvetica,sans-Serif" font-weight="bold" font-size="11.00" fill="#000000">classes</text>
<text text-anchor="start" x="428.5437" y="-374.8" font-family="Helvetica,sans-Serif" font-size="11.00" fill="#000000">[table]</text>
<polygon fill="none" stroke="#000000" points="378.5,-344.7 378.5,-366.7 463.5,-366.7 463.5,-344.7 378.5,-344.7"/>
<image xlink:href="../../images/primaryKeys.png" width="11px" height="12px" preserveAspectRatio="xMinYMin meet" x="383.5" y="-361.7"/>
<text text-anchor="start" x="398.5" y="-351.8" font-family="Helvetica,sans-Serif" font-size="11.00" fill="#000000">id</text>
<polygon fill="#ffffff" stroke="transparent" points="378.5,-322.7 378.5,-344.7 463.5,-344.7 463.5,-322.7 378.5,-322.7"/>
<polygon fill="none" stroke="#000000" points="378.5,-322.7 378.5,-344.7 463.5,-344.7 463.5,-322.7 378.5,-322.7"/>
<image xlink:href="../../images/foreignKeys.png" width="11px" height="12px" preserveAspectRatio="xMinYMin meet" x="383.5" y="-339.7"/>
<text text-anchor="start" x="398.5" y="-329.8" font-family="Helvetica,sans-Serif" font-size="11.00" fill="#000000">skill_list_id</text>
<polygon fill="none" stroke="#000000" points="378.5,-303.7 378.5,-322.7 463.5,-322.7 463.5,-303.7 378.5,-303.7"/>
<text text-anchor="start" x="381.5" y="-309.8" font-family="Helvetica,sans-Serif" font-size="11.00" fill="#000000">...</text>
<polygon fill="#ffffff" stroke="transparent" points="378.5,-284.7 378.5,-303.7 401.5,-303.7 401.5,-284.7 378.5,-284.7"/>
<polygon fill="none" stroke="#000000" points="378.5,-284.7 378.5,-303.7 401.5,-303.7 401.5,-284.7 378.5,-284.7"/>
<text text-anchor="start" x="381.5" y="-290.8" font-family="Helvetica,sans-Serif" font-size="11.00" fill="#000000">&lt; 1</text>
<polygon fill="#ffffff" stroke="transparent" points="401.5,-284.7 401.5,-303.7 440.5,-303.7 440.5,-284.7 401.5,-284.7"/>
<polygon fill="none" stroke="#000000" points="401.5,-284.7 401.5,-303.7 440.5,-303.7 440.5,-284.7 401.5,-284.7"/>
<text text-anchor="start" x="405.1105" y="-290.8" font-family="Helvetica,sans-Serif" font-size="11.00" fill="#000000">0 rows</text>
<polygon fill="#ffffff" stroke="transparent" points="440.5,-284.7 440.5,-303.7 463.5,-303.7 463.5,-284.7 440.5,-284.7"/>
<polygon fill="none" stroke="#000000" points="440.5,-284.7 440.5,-303.7 463.5,-303.7 463.5,-284.7 440.5,-284.7"/>
<text text-anchor="start" x="444.9053" y="-290.8" font-family="Helvetica,sans-Serif" font-size="11.00" fill="#000000">2 &gt;</text>
</a>
</g>
</g>
<!-- challenges&#45;&gt;classes -->
<g id="edge1" class="edge">
<title>challenges:w&#45;&gt;classes:e</title>
<path fill="none" stroke="#000000" d="M528.7557,-412.1648C500.3044,-400.8719 502.0005,-355.7 463.5,-355.7"/>
<polygon fill="#000000" stroke="#000000" points="535.1238,-413.2982 542.3692,-418.2443 539.0619,-413.9991 543,-414.7 543,-414.7 543,-414.7 539.0619,-413.9991 543.6308,-411.1557 535.1238,-413.2982 535.1238,-413.2982"/>
<ellipse fill="none" stroke="#000000" cx="531.9733" cy="-412.7374" rx="3.2" ry="3.2"/>
</g>
<!-- gyms -->
<g id="node3" class="node">
<title>gyms</title>
<g id="a_node3"><a xlink:href="../../tables/gyms.html" xlink:title="gyms" target="_top">
<polygon fill="#ffffff" stroke="transparent" points="8,-186.2 8,-269.2 93,-269.2 93,-186.2 8,-186.2"/>
<polygon fill="#f5f5f5" stroke="transparent" points="8.5,-245.7 8.5,-268.7 93.5,-268.7 93.5,-245.7 8.5,-245.7"/>
<polygon fill="none" stroke="#000000" points="8.5,-245.7 8.5,-268.7 93.5,-268.7 93.5,-245.7 8.5,-245.7"/>
<text text-anchor="start" x="13.5" y="-254.8" font-family="Helvetica,sans-Serif" font-weight="bold" font-size="11.00" fill="#000000">gyms</text>
<text text-anchor="start" x="58.5437" y="-253.8" font-family="Helvetica,sans-Serif" font-size="11.00" fill="#000000">[table]</text>
<polygon fill="none" stroke="#000000" points="8.5,-223.7 8.5,-245.7 93.5,-245.7 93.5,-223.7 8.5,-223.7"/>
<image xlink:href="../../images/primaryKeys.png" width="11px" height="12px" preserveAspectRatio="xMinYMin meet" x="13.5" y="-240.7"/>
<text text-anchor="start" x="28.5" y="-230.8" font-family="Helvetica,sans-Serif" font-size="11.00" fill="#000000">id</text>
<polygon fill="none" stroke="#000000" points="8.5,-204.7 8.5,-223.7 93.5,-223.7 93.5,-204.7 8.5,-204.7"/>
<text text-anchor="start" x="11.5" y="-210.8" font-family="Helvetica,sans-Serif" font-size="11.00" fill="#000000">...</text>
<polygon fill="#ffffff" stroke="transparent" points="8.5,-185.7 8.5,-204.7 27.5,-204.7 27.5,-185.7 8.5,-185.7"/>
<polygon fill="none" stroke="#000000" points="8.5,-185.7 8.5,-204.7 27.5,-204.7 27.5,-185.7 8.5,-185.7"/>
<text text-anchor="start" x="11.5" y="-191.8" font-family="Helvetica,sans-Serif" font-size="11.00" fill="#000000"> &#160;</text>
<polygon fill="#ffffff" stroke="transparent" points="27.5,-185.7 27.5,-204.7 68.5,-204.7 68.5,-185.7 27.5,-185.7"/>
<polygon fill="none" stroke="#000000" points="27.5,-185.7 27.5,-204.7 68.5,-204.7 68.5,-185.7 27.5,-185.7"/>
<text text-anchor="start" x="33.1105" y="-191.8" font-family="Helvetica,sans-Serif" font-size="11.00" fill="#000000">0 rows</text>
<polygon fill="#ffffff" stroke="transparent" points="68.5,-185.7 68.5,-204.7 93.5,-204.7 93.5,-185.7 68.5,-185.7"/>
<polygon fill="none" stroke="#000000" points="68.5,-185.7 68.5,-204.7 93.5,-204.7 93.5,-185.7 68.5,-185.7"/>
<text text-anchor="start" x="74.9053" y="-191.8" font-family="Helvetica,sans-Serif" font-size="11.00" fill="#000000">4 &gt;</text>
</a>
</g>
</g>
<!-- challenges&#45;&gt;gyms -->
<g id="edge2" class="edge">
<title>challenges:w&#45;&gt;gyms:e</title>
<path fill="none" stroke="#000000" d="M528.5362,-414.8943C356.2658,-419.5185 270.9548,-504.1036 134,-391.7 78.2968,-345.9825 165.562,-234.7 93.5,-234.7"/>
<polygon fill="#000000" stroke="#000000" points="535.0007,-414.8075 543.0484,-418.2997 539.0004,-414.7538 543,-414.7 543,-414.7 543,-414.7 539.0004,-414.7538 542.9516,-411.1003 535.0007,-414.8075 535.0007,-414.8075"/>
<ellipse fill="none" stroke="#000000" cx="531.801" cy="-414.8505" rx="3.2" ry="3.2"/>
</g>
<!-- skill_lists -->
<g id="node4" class="node">
<title>skill_lists</title>
<g id="a_node4"><a xlink:href="../../tables/skill_lists.html" xlink:title="skill_lists" target="_top">
<polygon fill="#ffffff" stroke="transparent" points="142,-202.7 142,-380.7 329,-380.7 329,-202.7 142,-202.7"/>
<polygon fill="#f5f5f5" stroke="transparent" points="144.5,-355.7 144.5,-378.7 327.5,-378.7 327.5,-355.7 144.5,-355.7"/>
<polygon fill="none" stroke="#000000" points="144.5,-355.7 144.5,-378.7 327.5,-378.7 327.5,-355.7 144.5,-355.7"/>
<text text-anchor="start" x="149.5" y="-364.8" font-family="Helvetica,sans-Serif" font-weight="bold" font-size="11.00" fill="#000000">skill_lists</text>
<text text-anchor="start" x="292.5437" y="-363.8" font-family="Helvetica,sans-Serif" font-size="11.00" fill="#000000">[table]</text>
<polygon fill="none" stroke="#000000" points="144.5,-333.7 144.5,-355.7 229.5,-355.7 229.5,-333.7 144.5,-333.7"/>
<image xlink:href="../../images/primaryKeys.png" width="11px" height="12px" preserveAspectRatio="xMinYMin meet" x="149.5" y="-350.7"/>
<text text-anchor="start" x="164.5" y="-340.8" font-family="Helvetica,sans-Serif" font-size="11.00" fill="#000000">id</text>
<polygon fill="none" stroke="#000000" points="229.5,-333.7 229.5,-355.7 327.5,-355.7 327.5,-333.7 229.5,-333.7"/>
<text text-anchor="start" x="232.3429" y="-341.4" font-family="Helvetica,sans-Serif" font-size="11.00" fill="#000000">bigint unsigned[20]</text>
<polygon fill="#ffffff" stroke="transparent" points="144.5,-311.7 144.5,-333.7 229.5,-333.7 229.5,-311.7 144.5,-311.7"/>
<polygon fill="none" stroke="#000000" points="144.5,-311.7 144.5,-333.7 229.5,-333.7 229.5,-311.7 144.5,-311.7"/>
<image xlink:href="../../images/foreignKeys.png" width="11px" height="12px" preserveAspectRatio="xMinYMin meet" x="149.5" y="-328.7"/>
<text text-anchor="start" x="164.5" y="-318.8" font-family="Helvetica,sans-Serif" font-size="11.00" fill="#000000">gym_id</text>
<polygon fill="none" stroke="#000000" points="229.5,-311.7 229.5,-333.7 327.5,-333.7 327.5,-311.7 229.5,-311.7"/>
<text text-anchor="start" x="232.5" y="-319.4" font-family="Helvetica,sans-Serif" font-size="11.00" fill="#000000">bigint[19]</text>
<polygon fill="none" stroke="#000000" points="144.5,-289.7 144.5,-311.7 229.5,-311.7 229.5,-289.7 144.5,-289.7"/>
<text text-anchor="start" x="164.5" y="-296.8" font-family="Helvetica,sans-Serif" font-size="11.00" fill="#000000">name</text>
<polygon fill="none" stroke="#000000" points="229.5,-289.7 229.5,-311.7 327.5,-311.7 327.5,-289.7 229.5,-289.7"/>
<text text-anchor="start" x="232.5" y="-297.4" font-family="Helvetica,sans-Serif" font-size="11.00" fill="#000000">varchar[45]</text>
<polygon fill="none" stroke="#000000" points="144.5,-267.7 144.5,-289.7 229.5,-289.7 229.5,-267.7 144.5,-267.7"/>
<text text-anchor="start" x="164.5" y="-274.8" font-family="Helvetica,sans-Serif" font-size="11.00" fill="#000000">created_at</text>
<polygon fill="none" stroke="#000000" points="229.5,-267.7 229.5,-289.7 327.5,-289.7 327.5,-267.7 229.5,-267.7"/>
<text text-anchor="start" x="232.5" y="-275.4" font-family="Helvetica,sans-Serif" font-size="11.00" fill="#000000">timestamp[19]</text>
<polygon fill="none" stroke="#000000" points="144.5,-245.7 144.5,-267.7 229.5,-267.7 229.5,-245.7 144.5,-245.7"/>
<text text-anchor="start" x="164.5" y="-252.8" font-family="Helvetica,sans-Serif" font-size="11.00" fill="#000000">updated_at</text>
<polygon fill="none" stroke="#000000" points="229.5,-245.7 229.5,-267.7 327.5,-267.7 327.5,-245.7 229.5,-245.7"/>
<text text-anchor="start" x="232.5" y="-253.4" font-family="Helvetica,sans-Serif" font-size="11.00" fill="#000000">timestamp[19]</text>
<polygon fill="none" stroke="#000000" points="144.5,-223.7 144.5,-245.7 229.5,-245.7 229.5,-223.7 144.5,-223.7"/>
<text text-anchor="start" x="164.5" y="-230.8" font-family="Helvetica,sans-Serif" font-size="11.00" fill="#000000">deleted_at</text>
<polygon fill="none" stroke="#000000" points="229.5,-223.7 229.5,-245.7 327.5,-245.7 327.5,-223.7 229.5,-223.7"/>
<text text-anchor="start" x="232.5" y="-231.4" font-family="Helvetica,sans-Serif" font-size="11.00" fill="#000000">timestamp[19]</text>
<polygon fill="#ffffff" stroke="transparent" points="144.5,-204.7 144.5,-223.7 178.5,-223.7 178.5,-204.7 144.5,-204.7"/>
<polygon fill="none" stroke="#000000" points="144.5,-204.7 144.5,-223.7 178.5,-223.7 178.5,-204.7 144.5,-204.7"/>
<text text-anchor="start" x="147.5" y="-210.8" font-family="Helvetica,sans-Serif" font-size="11.00" fill="#000000">&lt; 1</text>
<polygon fill="#ffffff" stroke="transparent" points="178.5,-204.7 178.5,-223.7 229.5,-223.7 229.5,-204.7 178.5,-204.7"/>
<polygon fill="none" stroke="#000000" points="178.5,-204.7 178.5,-223.7 229.5,-223.7 229.5,-204.7 178.5,-204.7"/>
<text text-anchor="start" x="194.1105" y="-210.8" font-family="Helvetica,sans-Serif" font-size="11.00" fill="#000000">0 rows</text>
<polygon fill="#ffffff" stroke="transparent" points="229.5,-204.7 229.5,-223.7 327.5,-223.7 327.5,-204.7 229.5,-204.7"/>
<polygon fill="none" stroke="#000000" points="229.5,-204.7 229.5,-223.7 327.5,-223.7 327.5,-204.7 229.5,-204.7"/>
<text text-anchor="start" x="308.9053" y="-210.8" font-family="Helvetica,sans-Serif" font-size="11.00" fill="#000000">2 &gt;</text>
<polygon fill="none" stroke="#000000" stroke-width="2" points="143,-203.7 143,-379.7 328,-379.7 328,-203.7 143,-203.7"/>
</a>
</g>
</g>
<!-- classes&#45;&gt;skill_lists -->
<g id="edge3" class="edge">
<title>classes:w&#45;&gt;skill_lists:e</title>
<path fill="none" stroke="#000000" d="M364.0097,-335.4188C351.8398,-338.5125 344.8909,-344.7 327.5,-344.7"/>
<polygon fill="#000000" stroke="#000000" points="370.5557,-334.6424 378.9241,-337.2749 374.5278,-334.1712 378.5,-333.7 378.5,-333.7 378.5,-333.7 374.5278,-334.1712 378.0759,-330.1251 370.5557,-334.6424 370.5557,-334.6424"/>
<ellipse fill="none" stroke="#000000" cx="367.378" cy="-335.0193" rx="3.2" ry="3.2"/>
</g>
<!-- skill_lists&#45;&gt;gyms -->
<g id="edge7" class="edge">
<title>skill_lists:w&#45;&gt;gyms:e</title>
<path fill="none" stroke="#000000" d="M130.5699,-318.4556C108.2709,-300.8772 132.7009,-234.7 93.5,-234.7"/>
<polygon fill="#000000" stroke="#000000" points="136.8473,-320.3682 143.4507,-326.1437 140.6737,-321.5341 144.5,-322.7 144.5,-322.7 144.5,-322.7 140.6737,-321.5341 145.5493,-319.2563 136.8473,-320.3682 136.8473,-320.3682"/>
<ellipse fill="none" stroke="#000000" cx="133.7863" cy="-319.4355" rx="3.2" ry="3.2"/>
</g>
<!-- events -->
<g id="node5" class="node">
<title>events</title>
<g id="a_node5"><a xlink:href="../../tables/events.html" xlink:title="events" target="_top">
<polygon fill="#ffffff" stroke="transparent" points="195.5,-120.2 195.5,-181.2 275.5,-181.2 275.5,-120.2 195.5,-120.2"/>
<polygon fill="#f5f5f5" stroke="transparent" points="195.5,-157.7 195.5,-180.7 275.5,-180.7 275.5,-157.7 195.5,-157.7"/>
<polygon fill="none" stroke="#000000" points="195.5,-157.7 195.5,-180.7 275.5,-180.7 275.5,-157.7 195.5,-157.7"/>
<text text-anchor="start" x="200.5" y="-166.8" font-family="Helvetica,sans-Serif" font-weight="bold" font-size="11.00" fill="#000000">events</text>
<text text-anchor="start" x="240.5437" y="-165.8" font-family="Helvetica,sans-Serif" font-size="11.00" fill="#000000">[table]</text>
<polygon fill="none" stroke="#000000" points="195.5,-138.7 195.5,-157.7 275.5,-157.7 275.5,-138.7 195.5,-138.7"/>
<text text-anchor="start" x="198.5" y="-144.8" font-family="Helvetica,sans-Serif" font-size="11.00" fill="#000000">...</text>
<polygon fill="#ffffff" stroke="transparent" points="195.5,-119.7 195.5,-138.7 216.5,-138.7 216.5,-119.7 195.5,-119.7"/>
<polygon fill="none" stroke="#000000" points="195.5,-119.7 195.5,-138.7 216.5,-138.7 216.5,-119.7 195.5,-119.7"/>
<text text-anchor="start" x="198.2027" y="-125.8" font-family="Helvetica,sans-Serif" font-size="11.00" fill="#000000">&lt; 1</text>
<polygon fill="#ffffff" stroke="transparent" points="216.5,-119.7 216.5,-138.7 254.5,-138.7 254.5,-119.7 216.5,-119.7"/>
<polygon fill="none" stroke="#000000" points="216.5,-119.7 216.5,-138.7 254.5,-138.7 254.5,-119.7 216.5,-119.7"/>
<text text-anchor="start" x="219.3053" y="-125.8" font-family="Helvetica,sans-Serif" font-size="11.00" fill="#000000">0 rows</text>
<polygon fill="#ffffff" stroke="transparent" points="254.5,-119.7 254.5,-138.7 275.5,-138.7 275.5,-119.7 254.5,-119.7"/>
<polygon fill="none" stroke="#000000" points="254.5,-119.7 254.5,-138.7 275.5,-138.7 275.5,-119.7 254.5,-119.7"/>
<text text-anchor="start" x="257.2027" y="-125.8" font-family="Helvetica,sans-Serif" font-size="11.00" fill="#000000">1 &gt;</text>
</a>
</g>
</g>
<!-- events&#45;&gt;gyms -->
<g id="edge4" class="edge">
<title>events:w&#45;&gt;gyms:e</title>
<path fill="none" stroke="#000000" d="M180.9357,-149.4498C160.3823,-155.0586 155.0566,-173.2998 134,-191.7 114.2311,-208.9749 119.7533,-234.7 93.5,-234.7"/>
<polygon fill="#000000" stroke="#000000" points="187.5571,-148.6543 195.9294,-151.2743 191.5286,-148.1772 195.5,-147.7 195.5,-147.7 195.5,-147.7 191.5286,-148.1772 195.0706,-144.1257 187.5571,-148.6543 187.5571,-148.6543"/>
<ellipse fill="none" stroke="#000000" cx="184.38" cy="-149.036" rx="3.2" ry="3.2"/>
</g>
<!-- gymnasts_has_classes -->
<g id="node6" class="node">
<title>gymnasts_has_classes</title>
<g id="a_node6"><a xlink:href="../../tables/gymnasts_has_classes.html" xlink:title="gymnasts_has_classes" target="_top">
<polygon fill="#ffffff" stroke="transparent" points="512,-305.2 512,-366.2 668,-366.2 668,-305.2 512,-305.2"/>
<polygon fill="#f5f5f5" stroke="transparent" points="512,-342.7 512,-365.7 668,-365.7 668,-342.7 512,-342.7"/>
<polygon fill="none" stroke="#000000" points="512,-342.7 512,-365.7 668,-365.7 668,-342.7 512,-342.7"/>
<text text-anchor="start" x="516.6531" y="-351.8" font-family="Helvetica,sans-Serif" font-weight="bold" font-size="11.00" fill="#000000">gymnasts_has_classes</text>
<text text-anchor="start" x="633.5219" y="-350.8" font-family="Helvetica,sans-Serif" font-size="11.00" fill="#000000">[table]</text>
<polygon fill="none" stroke="#000000" points="512,-323.7 512,-342.7 668,-342.7 668,-323.7 512,-323.7"/>
<text text-anchor="start" x="515" y="-329.8" font-family="Helvetica,sans-Serif" font-size="11.00" fill="#000000">...</text>
<polygon fill="#ffffff" stroke="transparent" points="512,-304.7 512,-323.7 575,-323.7 575,-304.7 512,-304.7"/>
<polygon fill="none" stroke="#000000" points="512,-304.7 512,-323.7 575,-323.7 575,-304.7 512,-304.7"/>
<text text-anchor="start" x="515" y="-310.8" font-family="Helvetica,sans-Serif" font-size="11.00" fill="#000000">&lt; 2</text>
<polygon fill="#ffffff" stroke="transparent" points="575,-304.7 575,-323.7 634,-323.7 634,-304.7 575,-304.7"/>
<polygon fill="none" stroke="#000000" points="575,-304.7 575,-323.7 634,-323.7 634,-304.7 575,-304.7"/>
<text text-anchor="start" x="598.6105" y="-310.8" font-family="Helvetica,sans-Serif" font-size="11.00" fill="#000000">0 rows</text>
<polygon fill="#ffffff" stroke="transparent" points="634,-304.7 634,-323.7 668,-323.7 668,-304.7 634,-304.7"/>
<polygon fill="none" stroke="#000000" points="634,-304.7 634,-323.7 668,-323.7 668,-304.7 634,-304.7"/>
<text text-anchor="start" x="658.8862" y="-310.8" font-family="Helvetica,sans-Serif" font-size="11.00" fill="#000000"> &#160;</text>
</a>
</g>
</g>
<!-- gymnasts_has_classes&#45;&gt;classes -->
<g id="edge5" class="edge">
<title>gymnasts_has_classes:w&#45;&gt;classes:e</title>
<path fill="none" stroke="#000000" d="M497.7122,-336.2938C486.3081,-342.7625 481.3924,-355.7 463.5,-355.7"/>
<polygon fill="#000000" stroke="#000000" points="504.2417,-334.6515 512.8782,-336.1913 508.1208,-333.6757 512,-332.7 512,-332.7 512,-332.7 508.1208,-333.6757 511.1218,-329.2087 504.2417,-334.6515 504.2417,-334.6515"/>
<ellipse fill="none" stroke="#000000" cx="501.1383" cy="-335.4321" rx="3.2" ry="3.2"/>
</g>
<!-- gyms_has_users -->
<g id="node7" class="node">
<title>gyms_has_users</title>
<g id="a_node7"><a xlink:href="../../tables/gyms_has_users.html" xlink:title="gyms_has_users" target="_top">
<polygon fill="#ffffff" stroke="transparent" points="172.5,-38.2 172.5,-99.2 298.5,-99.2 298.5,-38.2 172.5,-38.2"/>
<polygon fill="#f5f5f5" stroke="transparent" points="172.5,-75.7 172.5,-98.7 298.5,-98.7 298.5,-75.7 172.5,-75.7"/>
<polygon fill="none" stroke="#000000" points="172.5,-75.7 172.5,-98.7 298.5,-98.7 298.5,-75.7 172.5,-75.7"/>
<text text-anchor="start" x="177.436" y="-84.8" font-family="Helvetica,sans-Serif" font-weight="bold" font-size="11.00" fill="#000000">gyms_has_users</text>
<text text-anchor="start" x="264.0219" y="-83.8" font-family="Helvetica,sans-Serif" font-size="11.00" fill="#000000">[table]</text>
<polygon fill="none" stroke="#000000" points="172.5,-56.7 172.5,-75.7 298.5,-75.7 298.5,-56.7 172.5,-56.7"/>
<text text-anchor="start" x="175.5" y="-62.8" font-family="Helvetica,sans-Serif" font-size="11.00" fill="#000000">...</text>
<polygon fill="#ffffff" stroke="transparent" points="172.5,-37.7 172.5,-56.7 216.5,-56.7 216.5,-37.7 172.5,-37.7"/>
<polygon fill="none" stroke="#000000" points="172.5,-37.7 172.5,-56.7 216.5,-56.7 216.5,-37.7 172.5,-37.7"/>
<text text-anchor="start" x="175.5" y="-43.8" font-family="Helvetica,sans-Serif" font-size="11.00" fill="#000000">&lt; 2</text>
<polygon fill="#ffffff" stroke="transparent" points="216.5,-37.7 216.5,-56.7 265.5,-56.7 265.5,-37.7 216.5,-37.7"/>
<polygon fill="none" stroke="#000000" points="216.5,-37.7 216.5,-56.7 265.5,-56.7 265.5,-37.7 216.5,-37.7"/>
<text text-anchor="start" x="230.1105" y="-43.8" font-family="Helvetica,sans-Serif" font-size="11.00" fill="#000000">0 rows</text>
<polygon fill="#ffffff" stroke="transparent" points="265.5,-37.7 265.5,-56.7 298.5,-56.7 298.5,-37.7 265.5,-37.7"/>
<polygon fill="none" stroke="#000000" points="265.5,-37.7 265.5,-56.7 298.5,-56.7 298.5,-37.7 265.5,-37.7"/>
<text text-anchor="start" x="279.9053" y="-43.8" font-family="Helvetica,sans-Serif" font-size="11.00" fill="#000000">2 &gt;</text>
</a>
</g>
</g>
<!-- gyms_has_users&#45;&gt;gyms -->
<g id="edge6" class="edge">
<title>gyms_has_users:w&#45;&gt;gyms:e</title>
<path fill="none" stroke="#000000" d="M158.1284,-67.8368C100.3705,-87.4001 170.9065,-234.7 93.5,-234.7"/>
<polygon fill="#000000" stroke="#000000" points="164.587,-66.8766 173.0295,-69.2609 168.5435,-66.2883 172.5,-65.7 172.5,-65.7 172.5,-65.7 168.5435,-66.2883 171.9705,-62.1391 164.587,-66.8766 164.587,-66.8766"/>
<ellipse fill="none" stroke="#000000" cx="161.4218" cy="-67.3472" rx="3.2" ry="3.2"/>
</g>
<!-- skill_lists_has_skills -->
<g id="node8" class="node">
<title>skill_lists_has_skills</title>
<g id="a_node8"><a xlink:href="../../tables/skill_lists_has_skills.html" xlink:title="skill_lists_has_skills" target="_top">
<polygon fill="#ffffff" stroke="transparent" points="520,-167.2 520,-272.2 660,-272.2 660,-167.2 520,-167.2"/>
<polygon fill="#f5f5f5" stroke="transparent" points="520,-248.7 520,-271.7 660,-271.7 660,-248.7 520,-248.7"/>
<polygon fill="none" stroke="#000000" points="520,-248.7 520,-271.7 660,-271.7 660,-248.7 520,-248.7"/>
<text text-anchor="start" x="524.9207" y="-257.8" font-family="Helvetica,sans-Serif" font-weight="bold" font-size="11.00" fill="#000000">skill_lists_has_skills</text>
<text text-anchor="start" x="625.5219" y="-256.8" font-family="Helvetica,sans-Serif" font-size="11.00" fill="#000000">[table]</text>
<polygon fill="none" stroke="#000000" points="520,-226.7 520,-248.7 660,-248.7 660,-226.7 520,-226.7"/>
<image xlink:href="../../images/primaryKeys.png" width="11px" height="12px" preserveAspectRatio="xMinYMin meet" x="525" y="-243.7"/>
<text text-anchor="start" x="541" y="-233.8" font-family="Helvetica,sans-Serif" font-size="11.00" fill="#000000">skill_list_id</text>
<polygon fill="none" stroke="#000000" points="520,-204.7 520,-226.7 660,-226.7 660,-204.7 520,-204.7"/>
<image xlink:href="../../images/primaryKeys.png" width="11px" height="12px" preserveAspectRatio="xMinYMin meet" x="525" y="-221.7"/>
<text text-anchor="start" x="541" y="-211.8" font-family="Helvetica,sans-Serif" font-size="11.00" fill="#000000">skill_id</text>
<polygon fill="none" stroke="#000000" points="520,-185.7 520,-204.7 660,-204.7 660,-185.7 520,-185.7"/>
<text text-anchor="start" x="523" y="-191.8" font-family="Helvetica,sans-Serif" font-size="11.00" fill="#000000">...</text>
<polygon fill="#ffffff" stroke="transparent" points="520,-166.7 520,-185.7 575,-185.7 575,-166.7 520,-166.7"/>
<polygon fill="none" stroke="#000000" points="520,-166.7 520,-185.7 575,-185.7 575,-166.7 520,-166.7"/>
<text text-anchor="start" x="523" y="-172.8" font-family="Helvetica,sans-Serif" font-size="11.00" fill="#000000">&lt; 2</text>
<polygon fill="#ffffff" stroke="transparent" points="575,-166.7 575,-185.7 630,-185.7 630,-166.7 575,-166.7"/>
<polygon fill="none" stroke="#000000" points="575,-166.7 575,-185.7 630,-185.7 630,-166.7 575,-166.7"/>
<text text-anchor="start" x="594.6105" y="-172.8" font-family="Helvetica,sans-Serif" font-size="11.00" fill="#000000">0 rows</text>
<polygon fill="#ffffff" stroke="transparent" points="630,-166.7 630,-185.7 660,-185.7 660,-166.7 630,-166.7"/>
<polygon fill="none" stroke="#000000" points="630,-166.7 630,-185.7 660,-185.7 660,-166.7 630,-166.7"/>
<text text-anchor="start" x="650.8862" y="-172.8" font-family="Helvetica,sans-Serif" font-size="11.00" fill="#000000"> &#160;</text>
</a>
</g>
</g>
<!-- skill_lists_has_skills&#45;&gt;skill_lists -->
<g id="edge9" class="edge">
<title>skill_lists_has_skills:w&#45;&gt;skill_lists:e</title>
<path fill="none" stroke="#000000" d="M505.387,-237.6593C447.3151,-237.4026 421.2342,-237.0698 370,-274.7 340.6658,-296.2452 363.8963,-344.7 327.5,-344.7"/>
<polygon fill="#000000" stroke="#000000" points="512,-237.6777 519.99,-241.3 516,-237.6888 520,-237.7 520,-237.7 520,-237.7 516,-237.6888 520.01,-234.1 512,-237.6777 512,-237.6777"/>
<ellipse fill="none" stroke="#000000" cx="508.8" cy="-237.6688" rx="3.2" ry="3.2"/>
</g>
<!-- skills -->
<g id="node9" class="node">
<title>skills</title>
<g id="a_node9"><a xlink:href="../../tables/skills.html" xlink:title="skills" target="_top">
<polygon fill="#ffffff" stroke="transparent" points="380.5,-137.2 380.5,-198.2 460.5,-198.2 460.5,-137.2 380.5,-137.2"/>
<polygon fill="#f5f5f5" stroke="transparent" points="380.5,-174.7 380.5,-197.7 460.5,-197.7 460.5,-174.7 380.5,-174.7"/>
<polygon fill="none" stroke="#000000" points="380.5,-174.7 380.5,-197.7 460.5,-197.7 460.5,-174.7 380.5,-174.7"/>
<text text-anchor="start" x="385.5" y="-183.8" font-family="Helvetica,sans-Serif" font-weight="bold" font-size="11.00" fill="#000000">skills</text>
<text text-anchor="start" x="425.5437" y="-182.8" font-family="Helvetica,sans-Serif" font-size="11.00" fill="#000000">[table]</text>
<polygon fill="none" stroke="#000000" points="380.5,-155.7 380.5,-174.7 460.5,-174.7 460.5,-155.7 380.5,-155.7"/>
<text text-anchor="start" x="383.5" y="-161.8" font-family="Helvetica,sans-Serif" font-size="11.00" fill="#000000">...</text>
<polygon fill="#ffffff" stroke="transparent" points="380.5,-136.7 380.5,-155.7 401.5,-155.7 401.5,-136.7 380.5,-136.7"/>
<polygon fill="none" stroke="#000000" points="380.5,-136.7 380.5,-155.7 401.5,-155.7 401.5,-136.7 380.5,-136.7"/>
<text text-anchor="start" x="383.2027" y="-142.8" font-family="Helvetica,sans-Serif" font-size="11.00" fill="#000000">&lt; 3</text>
<polygon fill="#ffffff" stroke="transparent" points="401.5,-136.7 401.5,-155.7 439.5,-155.7 439.5,-136.7 401.5,-136.7"/>
<polygon fill="none" stroke="#000000" points="401.5,-136.7 401.5,-155.7 439.5,-155.7 439.5,-136.7 401.5,-136.7"/>
<text text-anchor="start" x="404.3053" y="-142.8" font-family="Helvetica,sans-Serif" font-size="11.00" fill="#000000">0 rows</text>
<polygon fill="#ffffff" stroke="transparent" points="439.5,-136.7 439.5,-155.7 460.5,-155.7 460.5,-136.7 439.5,-136.7"/>
<polygon fill="none" stroke="#000000" points="439.5,-136.7 439.5,-155.7 460.5,-155.7 460.5,-136.7 439.5,-136.7"/>
<text text-anchor="start" x="442.2027" y="-142.8" font-family="Helvetica,sans-Serif" font-size="11.00" fill="#000000">2 &gt;</text>
</a>
</g>
</g>
<!-- skill_lists_has_skills&#45;&gt;skills -->
<g id="edge8" class="edge">
<title>skill_lists_has_skills:w&#45;&gt;skills:e</title>
<path fill="none" stroke="#000000" d="M505.8307,-211.8667C487.3141,-200.0061 489.4791,-164.7 460.5,-164.7"/>
<polygon fill="#000000" stroke="#000000" points="512.2776,-213.6108 519.0599,-219.1751 516.1388,-214.6554 520,-215.7 520,-215.7 520,-215.7 516.1388,-214.6554 520.9401,-212.2249 512.2776,-213.6108 512.2776,-213.6108"/>
<ellipse fill="none" stroke="#000000" cx="509.1886" cy="-212.7751" rx="3.2" ry="3.2"/>
</g>
<!-- skills&#45;&gt;events -->
<g id="edge10" class="edge">
<title>skills:w&#45;&gt;events:e</title>
<path fill="none" stroke="#000000" d="M365.7447,-164.095C330.3852,-161.0666 317.4191,-147.7 275.5,-147.7"/>
<polygon fill="#000000" stroke="#000000" points="372.5067,-164.3722 380.3525,-168.297 376.5034,-164.5361 380.5,-164.7 380.5,-164.7 380.5,-164.7 376.5034,-164.5361 380.6475,-161.103 372.5067,-164.3722 372.5067,-164.3722"/>
<ellipse fill="none" stroke="#000000" cx="369.3094" cy="-164.2411" rx="3.2" ry="3.2"/>
</g>
</g>
</svg>
