<?xml version="1.0" encoding="UTF-8" standalone="no"?>
<!DOCTYPE svg PUBLIC "-//W3C//DTD SVG 1.1//EN"
 "http://www.w3.org/Graphics/SVG/1.1/DTD/svg11.dtd">
<!-- Generated by graphviz version 2.40.1 (20161225.0304)
 -->
<!-- Title: twoDegreesRelationshipsDiagram Pages: 1 -->
<svg width="541pt" height="393pt"
 viewBox="0.00 0.00 541.00 393.20" xmlns="http://www.w3.org/2000/svg" xmlns:xlink="http://www.w3.org/1999/xlink">
<g id="graph0" class="graph" transform="scale(1 1) rotate(0) translate(4 389.2)">
<title>twoDegreesRelationshipsDiagram</title>
<polygon fill="#ffffff" stroke="transparent" points="-4,4 -4,-389.2 537,-389.2 537,4 -4,4"/>
<text text-anchor="middle" x="72.4936" y="-7.3" font-family="Helvetica,sans-Serif" font-size="11.00" fill="#000000">Generated by SchemaSpy</text>
<!-- gymnast_has_skills -->
<g id="node1" class="node">
<title>gymnast_has_skills</title>
<g id="a_node1"><a xlink:href="../../tables/gymnast_has_skills.html" xlink:title="gymnast_has_skills" target="_top">
<polygon fill="#ffffff" stroke="transparent" points="387,-245.2 387,-350.2 525,-350.2 525,-245.2 387,-245.2"/>
<polygon fill="#f5f5f5" stroke="transparent" points="387,-326.7 387,-349.7 525,-349.7 525,-326.7 387,-326.7"/>
<polygon fill="none" stroke="#000000" points="387,-326.7 387,-349.7 525,-349.7 525,-326.7 387,-326.7"/>
<text text-anchor="start" x="391.8271" y="-335.8" font-family="Helvetica,sans-Serif" font-weight="bold" font-size="11.00" fill="#000000">gymnast_has_skills</text>
<text text-anchor="start" x="490.5219" y="-334.8" font-family="Helvetica,sans-Serif" font-size="11.00" fill="#000000">[table]</text>
<polygon fill="none" stroke="#000000" points="387,-304.7 387,-326.7 525,-326.7 525,-304.7 387,-304.7"/>
<image xlink:href="../../images/primaryKeys.png" width="11px" height="12px" preserveAspectRatio="xMinYMin meet" x="392" y="-321.7"/>
<text text-anchor="start" x="409" y="-311.8" font-family="Helvetica,sans-Serif" font-size="11.00" fill="#000000">gymnast_id</text>
<polygon fill="none" stroke="#000000" points="387,-282.7 387,-304.7 525,-304.7 525,-282.7 387,-282.7"/>
<image xlink:href="../../images/primaryKeys.png" width="11px" height="12px" preserveAspectRatio="xMinYMin meet" x="392" y="-299.7"/>
<text text-anchor="start" x="409" y="-289.8" font-family="Helvetica,sans-Serif" font-size="11.00" fill="#000000">skills_Id</text>
<polygon fill="none" stroke="#000000" points="387,-263.7 387,-282.7 525,-282.7 525,-263.7 387,-263.7"/>
<text text-anchor="start" x="390" y="-269.8" font-family="Helvetica,sans-Serif" font-size="11.00" fill="#000000">...</text>
<polygon fill="#ffffff" stroke="transparent" points="387,-244.7 387,-263.7 441,-263.7 441,-244.7 387,-244.7"/>
<polygon fill="none" stroke="#000000" points="387,-244.7 387,-263.7 441,-263.7 441,-244.7 387,-244.7"/>
<text text-anchor="start" x="390" y="-250.8" font-family="Helvetica,sans-Serif" font-size="11.00" fill="#000000">&lt; 2</text>
<polygon fill="#ffffff" stroke="transparent" points="441,-244.7 441,-263.7 496,-263.7 496,-244.7 441,-244.7"/>
<polygon fill="none" stroke="#000000" points="441,-244.7 441,-263.7 496,-263.7 496,-244.7 441,-244.7"/>
<text text-anchor="start" x="460.6105" y="-250.8" font-family="Helvetica,sans-Serif" font-size="11.00" fill="#000000">0 rows</text>
<polygon fill="#ffffff" stroke="transparent" points="496,-244.7 496,-263.7 525,-263.7 525,-244.7 496,-244.7"/>
<polygon fill="none" stroke="#000000" points="496,-244.7 496,-263.7 525,-263.7 525,-244.7 496,-244.7"/>
<text text-anchor="start" x="515.8862" y="-250.8" font-family="Helvetica,sans-Serif" font-size="11.00" fill="#000000"> &#160;</text>
</a>
</g>
</g>
<!-- gymnasts -->
<g id="node2" class="node">
<title>gymnasts</title>
<g id="a_node2"><a xlink:href="../../tables/gymnasts.html" xlink:title="gymnasts" target="_top">
<polygon fill="#ffffff" stroke="transparent" points="190,-320.2 190,-381.2 280,-381.2 280,-320.2 190,-320.2"/>
<polygon fill="#f5f5f5" stroke="transparent" points="190,-357.7 190,-380.7 280,-380.7 280,-357.7 190,-357.7"/>
<polygon fill="none" stroke="#000000" points="190,-357.7 190,-380.7 280,-380.7 280,-357.7 190,-357.7"/>
<text text-anchor="start" x="194.9683" y="-366.8" font-family="Helvetica,sans-Serif" font-weight="bold" font-size="11.00" fill="#000000">gymnasts</text>
<text text-anchor="start" x="245.5219" y="-365.8" font-family="Helvetica,sans-Serif" font-size="11.00" fill="#000000">[table]</text>
<polygon fill="none" stroke="#000000" points="190,-338.7 190,-357.7 280,-357.7 280,-338.7 190,-338.7"/>
<text text-anchor="start" x="193" y="-344.8" font-family="Helvetica,sans-Serif" font-size="11.00" fill="#000000">...</text>
<polygon fill="#ffffff" stroke="transparent" points="190,-319.7 190,-338.7 216,-338.7 216,-319.7 190,-319.7"/>
<polygon fill="none" stroke="#000000" points="190,-319.7 190,-338.7 216,-338.7 216,-319.7 190,-319.7"/>
<text text-anchor="start" x="193" y="-325.8" font-family="Helvetica,sans-Serif" font-size="11.00" fill="#000000">&lt; 2</text>
<polygon fill="#ffffff" stroke="transparent" points="216,-319.7 216,-338.7 256,-338.7 256,-319.7 216,-319.7"/>
<polygon fill="none" stroke="#000000" points="216,-319.7 216,-338.7 256,-338.7 256,-319.7 216,-319.7"/>
<text text-anchor="start" x="220.6105" y="-325.8" font-family="Helvetica,sans-Serif" font-size="11.00" fill="#000000">0 rows</text>
<polygon fill="#ffffff" stroke="transparent" points="256,-319.7 256,-338.7 280,-338.7 280,-319.7 256,-319.7"/>
<polygon fill="none" stroke="#000000" points="256,-319.7 256,-338.7 280,-338.7 280,-319.7 256,-319.7"/>
<text text-anchor="start" x="261.4053" y="-325.8" font-family="Helvetica,sans-Serif" font-size="11.00" fill="#000000">4 &gt;</text>
</a>
</g>
</g>
<!-- gymnast_has_skills&#45;&gt;gymnasts -->
<g id="edge1" class="edge">
<title>gymnast_has_skills:w&#45;&gt;gymnasts:e</title>
<path fill="none" stroke="#000000" d="M372.5949,-316.6928C335.2673,-322.094 324.4016,-347.7 280,-347.7"/>
<polygon fill="#000000" stroke="#000000" points="379.0189,-316.2501 387.2475,-319.2915 383.0095,-315.975 387,-315.7 387,-315.7 387,-315.7 383.0095,-315.975 386.7525,-312.1085 379.0189,-316.2501 379.0189,-316.2501"/>
<ellipse fill="none" stroke="#000000" cx="375.8265" cy="-316.4701" rx="3.2" ry="3.2"/>
</g>
<!-- skills -->
<g id="node3" class="node">
<title>skills</title>
<g id="a_node3"><a xlink:href="../../tables/skills.html" xlink:title="skills" target="_top">
<polygon fill="#ffffff" stroke="transparent" points="132,-120.7 132,-298.7 338,-298.7 338,-120.7 132,-120.7"/>
<polygon fill="#f5f5f5" stroke="transparent" points="134,-273.7 134,-296.7 336,-296.7 336,-273.7 134,-273.7"/>
<polygon fill="none" stroke="#000000" points="134,-273.7 134,-296.7 336,-296.7 336,-273.7 134,-273.7"/>
<text text-anchor="start" x="139" y="-282.8" font-family="Helvetica,sans-Serif" font-weight="bold" font-size="11.00" fill="#000000">skills</text>
<text text-anchor="start" x="301.0437" y="-281.8" font-family="Helvetica,sans-Serif" font-size="11.00" fill="#000000">[table]</text>
<polygon fill="none" stroke="#000000" points="134,-251.7 134,-273.7 219,-273.7 219,-251.7 134,-251.7"/>
<image xlink:href="../../images/primaryKeys.png" width="11px" height="12px" preserveAspectRatio="xMinYMin meet" x="139" y="-268.7"/>
<text text-anchor="start" x="154" y="-258.8" font-family="Helvetica,sans-Serif" font-size="11.00" fill="#000000">id</text>
<polygon fill="none" stroke="#000000" points="219,-251.7 219,-273.7 336,-273.7 336,-251.7 219,-251.7"/>
<text text-anchor="start" x="222" y="-259.4" font-family="Helvetica,sans-Serif" font-size="11.00" fill="#000000">int[10]</text>
<polygon fill="none" stroke="#000000" points="134,-229.7 134,-251.7 219,-251.7 219,-229.7 134,-229.7"/>
<text text-anchor="start" x="154" y="-236.8" font-family="Helvetica,sans-Serif" font-size="11.00" fill="#000000">name</text>
<polygon fill="none" stroke="#000000" points="219,-229.7 219,-251.7 336,-251.7 336,-229.7 219,-229.7"/>
<text text-anchor="start" x="222" y="-237.4" font-family="Helvetica,sans-Serif" font-size="11.00" fill="#000000">varchar[45]</text>
<polygon fill="none" stroke="#000000" points="134,-207.7 134,-229.7 219,-229.7 219,-207.7 134,-207.7"/>
<text text-anchor="start" x="154" y="-214.8" font-family="Helvetica,sans-Serif" font-size="11.00" fill="#000000">description</text>
<polygon fill="none" stroke="#000000" points="219,-207.7 219,-229.7 336,-229.7 336,-207.7 219,-207.7"/>
<text text-anchor="start" x="221.5645" y="-215.4" font-family="Helvetica,sans-Serif" font-size="11.00" fill="#000000">mediumtext[16777215]</text>
<polygon fill="none" stroke="#000000" points="134,-185.7 134,-207.7 219,-207.7 219,-185.7 134,-185.7"/>
<text text-anchor="start" x="154" y="-192.8" font-family="Helvetica,sans-Serif" font-size="11.00" fill="#000000">category</text>
<polygon fill="none" stroke="#000000" points="219,-185.7 219,-207.7 336,-207.7 336,-185.7 219,-185.7"/>
<text text-anchor="start" x="222" y="-193.4" font-family="Helvetica,sans-Serif" font-size="11.00" fill="#000000">varchar[45]</text>
<polygon fill="none" stroke="#000000" points="134,-163.7 134,-185.7 219,-185.7 219,-163.7 134,-163.7"/>
<text text-anchor="start" x="154" y="-170.8" font-family="Helvetica,sans-Serif" font-size="11.00" fill="#000000">certificate</text>
<polygon fill="none" stroke="#000000" points="219,-163.7 219,-185.7 336,-185.7 336,-163.7 219,-163.7"/>
<text text-anchor="start" x="222" y="-171.4" font-family="Helvetica,sans-Serif" font-size="11.00" fill="#000000">bit[1]</text>
<polygon fill="#ffffff" stroke="transparent" points="134,-141.7 134,-163.7 219,-163.7 219,-141.7 134,-141.7"/>
<polygon fill="none" stroke="#000000" points="134,-141.7 134,-163.7 219,-163.7 219,-141.7 134,-141.7"/>
<image xlink:href="../../images/foreignKeys.png" width="11px" height="12px" preserveAspectRatio="xMinYMin meet" x="139" y="-158.7"/>
<text text-anchor="start" x="154" y="-148.8" font-family="Helvetica,sans-Serif" font-size="11.00" fill="#000000">events_id</text>
<polygon fill="none" stroke="#000000" points="219,-141.7 219,-163.7 336,-163.7 336,-141.7 219,-141.7"/>
<text text-anchor="start" x="222" y="-149.4" font-family="Helvetica,sans-Serif" font-size="11.00" fill="#000000">int[10]</text>
<polygon fill="#ffffff" stroke="transparent" points="134,-122.7 134,-141.7 168,-141.7 168,-122.7 134,-122.7"/>
<polygon fill="none" stroke="#000000" points="134,-122.7 134,-141.7 168,-141.7 168,-122.7 134,-122.7"/>
<text text-anchor="start" x="137" y="-128.8" font-family="Helvetica,sans-Serif" font-size="11.00" fill="#000000">&lt; 1</text>
<polygon fill="#ffffff" stroke="transparent" points="168,-122.7 168,-141.7 219,-141.7 219,-122.7 168,-122.7"/>
<polygon fill="none" stroke="#000000" points="168,-122.7 168,-141.7 219,-141.7 219,-122.7 168,-122.7"/>
<text text-anchor="start" x="183.6105" y="-128.8" font-family="Helvetica,sans-Serif" font-size="11.00" fill="#000000">0 rows</text>
<polygon fill="#ffffff" stroke="transparent" points="219,-122.7 219,-141.7 336,-141.7 336,-122.7 219,-122.7"/>
<polygon fill="none" stroke="#000000" points="219,-122.7 219,-141.7 336,-141.7 336,-122.7 219,-122.7"/>
<text text-anchor="start" x="317.4053" y="-128.8" font-family="Helvetica,sans-Serif" font-size="11.00" fill="#000000">2 &gt;</text>
<polygon fill="none" stroke="#000000" stroke-width="2" points="133,-121.7 133,-297.7 337,-297.7 337,-121.7 133,-121.7"/>
</a>
</g>
</g>
<!-- gymnast_has_skills&#45;&gt;skills -->
<g id="edge2" class="edge">
<title>gymnast_has_skills:w&#45;&gt;skills:e</title>
<path fill="none" stroke="#000000" d="M373.0967,-289.8988C360.0044,-281.6209 356.7231,-262.7 336,-262.7"/>
<polygon fill="#000000" stroke="#000000" points="379.2832,-291.5902 386.0506,-297.1726 383.1416,-292.6451 387,-293.7 387,-293.7 387,-293.7 383.1416,-292.6451 387.9494,-290.2274 379.2832,-291.5902 379.2832,-291.5902"/>
<ellipse fill="none" stroke="#000000" cx="376.1965" cy="-290.7462" rx="3.2" ry="3.2"/>
</g>
<!-- events -->
<g id="node6" class="node">
<title>events</title>
<g id="a_node6"><a xlink:href="../../tables/events.html" xlink:title="events" target="_top">
<polygon fill="#ffffff" stroke="transparent" points="8,-104.2 8,-187.2 83,-187.2 83,-104.2 8,-104.2"/>
<polygon fill="#f5f5f5" stroke="transparent" points="8.5,-163.7 8.5,-186.7 83.5,-186.7 83.5,-163.7 8.5,-163.7"/>
<polygon fill="none" stroke="#000000" points="8.5,-163.7 8.5,-186.7 83.5,-186.7 83.5,-163.7 8.5,-163.7"/>
<text text-anchor="start" x="13.2992" y="-172.8" font-family="Helvetica,sans-Serif" font-weight="bold" font-size="11.00" fill="#000000">events</text>
<text text-anchor="start" x="49.0219" y="-171.8" font-family="Helvetica,sans-Serif" font-size="11.00" fill="#000000">[table]</text>
<polygon fill="none" stroke="#000000" points="8.5,-141.7 8.5,-163.7 83.5,-163.7 83.5,-141.7 8.5,-141.7"/>
<image xlink:href="../../images/primaryKeys.png" width="11px" height="12px" preserveAspectRatio="xMinYMin meet" x="13.5" y="-158.7"/>
<text text-anchor="start" x="36.5" y="-148.8" font-family="Helvetica,sans-Serif" font-size="11.00" fill="#000000">id</text>
<polygon fill="none" stroke="#000000" points="8.5,-122.7 8.5,-141.7 83.5,-141.7 83.5,-122.7 8.5,-122.7"/>
<text text-anchor="start" x="11.5" y="-128.8" font-family="Helvetica,sans-Serif" font-size="11.00" fill="#000000">...</text>
<polygon fill="#ffffff" stroke="transparent" points="8.5,-103.7 8.5,-122.7 22.5,-122.7 22.5,-103.7 8.5,-103.7"/>
<polygon fill="none" stroke="#000000" points="8.5,-103.7 8.5,-122.7 22.5,-122.7 22.5,-103.7 8.5,-103.7"/>
<text text-anchor="start" x="11.5" y="-109.8" font-family="Helvetica,sans-Serif" font-size="11.00" fill="#000000"> &#160;</text>
<polygon fill="#ffffff" stroke="transparent" points="22.5,-103.7 22.5,-122.7 61.5,-122.7 61.5,-103.7 22.5,-103.7"/>
<polygon fill="none" stroke="#000000" points="22.5,-103.7 22.5,-122.7 61.5,-122.7 61.5,-103.7 22.5,-103.7"/>
<text text-anchor="start" x="26.1105" y="-109.8" font-family="Helvetica,sans-Serif" font-size="11.00" fill="#000000">0 rows</text>
<polygon fill="#ffffff" stroke="transparent" points="61.5,-103.7 61.5,-122.7 83.5,-122.7 83.5,-103.7 61.5,-103.7"/>
<polygon fill="none" stroke="#000000" points="61.5,-103.7 61.5,-122.7 83.5,-122.7 83.5,-103.7 61.5,-103.7"/>
<text text-anchor="start" x="64.9053" y="-109.8" font-family="Helvetica,sans-Serif" font-size="11.00" fill="#000000">1 &gt;</text>
</a>
</g>
</g>
<!-- skills&#45;&gt;events -->
<g id="edge5" class="edge">
<title>skills:w&#45;&gt;events:e</title>
<path fill="none" stroke="#000000" d="M119.4203,-152.7C107.5435,-152.7 100.158,-152.7 83.5,-152.7"/>
<polygon fill="#000000" stroke="#000000" points="126,-152.7001 134,-156.3 130,-152.7 134,-152.7 134,-152.7 134,-152.7 130,-152.7 134,-149.1 126,-152.7001 126,-152.7001"/>
<ellipse fill="none" stroke="#000000" cx="122.8" cy="-152.7001" rx="3.2" ry="3.2"/>
</g>
<!-- skill_has_levels -->
<g id="node4" class="node">
<title>skill_has_levels</title>
<g id="a_node4"><a xlink:href="../../tables/skill_has_levels.html" xlink:title="skill_has_levels" target="_top">
<polygon fill="#ffffff" stroke="transparent" points="396.5,-73.2 396.5,-178.2 515.5,-178.2 515.5,-73.2 396.5,-73.2"/>
<polygon fill="#f5f5f5" stroke="transparent" points="397,-154.7 397,-177.7 516,-177.7 516,-154.7 397,-154.7"/>
<polygon fill="none" stroke="#000000" points="397,-154.7 397,-177.7 516,-177.7 516,-154.7 397,-154.7"/>
<text text-anchor="start" x="401.8031" y="-163.8" font-family="Helvetica,sans-Serif" font-weight="bold" font-size="11.00" fill="#000000">skill_has_levels</text>
<text text-anchor="start" x="481.5219" y="-162.8" font-family="Helvetica,sans-Serif" font-size="11.00" fill="#000000">[table]</text>
<polygon fill="none" stroke="#000000" points="397,-132.7 397,-154.7 516,-154.7 516,-132.7 397,-132.7"/>
<image xlink:href="../../images/primaryKeys.png" width="11px" height="12px" preserveAspectRatio="xMinYMin meet" x="402" y="-149.7"/>
<text text-anchor="start" x="421" y="-139.8" font-family="Helvetica,sans-Serif" font-size="11.00" fill="#000000">levels_id</text>
<polygon fill="none" stroke="#000000" points="397,-110.7 397,-132.7 516,-132.7 516,-110.7 397,-110.7"/>
<image xlink:href="../../images/primaryKeys.png" width="11px" height="12px" preserveAspectRatio="xMinYMin meet" x="402" y="-127.7"/>
<text text-anchor="start" x="421" y="-117.8" font-family="Helvetica,sans-Serif" font-size="11.00" fill="#000000">skills_id</text>
<polygon fill="none" stroke="#000000" points="397,-91.7 397,-110.7 516,-110.7 516,-91.7 397,-91.7"/>
<text text-anchor="start" x="400" y="-97.8" font-family="Helvetica,sans-Serif" font-size="11.00" fill="#000000">...</text>
<polygon fill="#ffffff" stroke="transparent" points="397,-72.7 397,-91.7 442,-91.7 442,-72.7 397,-72.7"/>
<polygon fill="none" stroke="#000000" points="397,-72.7 397,-91.7 442,-91.7 442,-72.7 397,-72.7"/>
<text text-anchor="start" x="400" y="-78.8" font-family="Helvetica,sans-Serif" font-size="11.00" fill="#000000">&lt; 2</text>
<polygon fill="#ffffff" stroke="transparent" points="442,-72.7 442,-91.7 492,-91.7 492,-72.7 442,-72.7"/>
<polygon fill="none" stroke="#000000" points="442,-72.7 442,-91.7 492,-91.7 492,-72.7 442,-72.7"/>
<text text-anchor="start" x="456.6105" y="-78.8" font-family="Helvetica,sans-Serif" font-size="11.00" fill="#000000">0 rows</text>
<polygon fill="#ffffff" stroke="transparent" points="492,-72.7 492,-91.7 516,-91.7 516,-72.7 492,-72.7"/>
<polygon fill="none" stroke="#000000" points="492,-72.7 492,-91.7 516,-91.7 516,-72.7 492,-72.7"/>
<text text-anchor="start" x="506.8862" y="-78.8" font-family="Helvetica,sans-Serif" font-size="11.00" fill="#000000"> &#160;</text>
</a>
</g>
</g>
<!-- skill_has_levels&#45;&gt;skills -->
<g id="edge4" class="edge">
<title>skill_has_levels:w&#45;&gt;skills:e</title>
<path fill="none" stroke="#000000" d="M382.6699,-124.5165C340.3973,-144.3891 398.5453,-262.7 336,-262.7"/>
<polygon fill="#000000" stroke="#000000" points="389.1502,-123.2429 397.6943,-125.2324 393.0751,-122.4715 397,-121.7 397,-121.7 397,-121.7 393.0751,-122.4715 396.3057,-118.1676 389.1502,-123.2429 389.1502,-123.2429"/>
<ellipse fill="none" stroke="#000000" cx="386.0103" cy="-123.8601" rx="3.2" ry="3.2"/>
</g>
<!-- levels -->
<g id="node5" class="node">
<title>levels</title>
<g id="a_node5"><a xlink:href="../../tables/levels.html" xlink:title="levels" target="_top">
<polygon fill="#ffffff" stroke="transparent" points="199.5,-38.2 199.5,-99.2 270.5,-99.2 270.5,-38.2 199.5,-38.2"/>
<polygon fill="#f5f5f5" stroke="transparent" points="200,-75.7 200,-98.7 271,-98.7 271,-75.7 200,-75.7"/>
<polygon fill="none" stroke="#000000" points="200,-75.7 200,-98.7 271,-98.7 271,-75.7 200,-75.7"/>
<text text-anchor="start" x="204.9442" y="-84.8" font-family="Helvetica,sans-Serif" font-weight="bold" font-size="11.00" fill="#000000">levels</text>
<text text-anchor="start" x="236.5219" y="-83.8" font-family="Helvetica,sans-Serif" font-size="11.00" fill="#000000">[table]</text>
<polygon fill="none" stroke="#000000" points="200,-56.7 200,-75.7 271,-75.7 271,-56.7 200,-56.7"/>
<text text-anchor="start" x="203" y="-62.8" font-family="Helvetica,sans-Serif" font-size="11.00" fill="#000000">...</text>
<polygon fill="#ffffff" stroke="transparent" points="200,-37.7 200,-56.7 212,-56.7 212,-37.7 200,-37.7"/>
<polygon fill="none" stroke="#000000" points="200,-37.7 200,-56.7 212,-56.7 212,-37.7 200,-37.7"/>
<text text-anchor="start" x="202.9431" y="-43.8" font-family="Helvetica,sans-Serif" font-size="11.00" fill="#000000"> &#160;</text>
<polygon fill="#ffffff" stroke="transparent" points="212,-37.7 212,-56.7 250,-56.7 250,-37.7 212,-37.7"/>
<polygon fill="none" stroke="#000000" points="212,-37.7 212,-56.7 250,-56.7 250,-37.7 212,-37.7"/>
<text text-anchor="start" x="214.8053" y="-43.8" font-family="Helvetica,sans-Serif" font-size="11.00" fill="#000000">0 rows</text>
<polygon fill="#ffffff" stroke="transparent" points="250,-37.7 250,-56.7 271,-56.7 271,-37.7 250,-37.7"/>
<polygon fill="none" stroke="#000000" points="250,-37.7 250,-56.7 271,-56.7 271,-37.7 250,-37.7"/>
<text text-anchor="start" x="252.7027" y="-43.8" font-family="Helvetica,sans-Serif" font-size="11.00" fill="#000000">1 &gt;</text>
</a>
</g>
</g>
<!-- skill_has_levels&#45;&gt;levels -->
<g id="edge3" class="edge">
<title>skill_has_levels:w&#45;&gt;levels:e</title>
<path fill="none" stroke="#000000" d="M382.5022,-141.2551C368.4809,-135.7226 363.8999,-121.8567 346,-110.7 313.0103,-90.1381 309.873,-65.7 271,-65.7"/>
<polygon fill="#000000" stroke="#000000" points="389.1114,-142.3697 396.4013,-147.2499 393.0557,-143.0348 397,-143.7 397,-143.7 397,-143.7 393.0557,-143.0348 397.5987,-140.1501 389.1114,-142.3697 389.1114,-142.3697"/>
<ellipse fill="none" stroke="#000000" cx="385.9559" cy="-141.8375" rx="3.2" ry="3.2"/>
</g>
</g>
</svg>
