<?xml version="1.0" encoding="UTF-8" standalone="no"?>
<!DOCTYPE svg PUBLIC "-//W3C//DTD SVG 1.1//EN"
 "http://www.w3.org/Graphics/SVG/1.1/DTD/svg11.dtd">
<!-- Generated by graphviz version 2.40.1 (20161225.0304)
 -->
<!-- Title: oneDegreeRelationshipsDiagram Pages: 1 -->
<svg width="633pt" height="397pt"
 viewBox="0.00 0.00 633.00 396.70" xmlns="http://www.w3.org/2000/svg" xmlns:xlink="http://www.w3.org/1999/xlink">
<g id="graph0" class="graph" transform="scale(1 1) rotate(0) translate(4 392.7)">
<title>oneDegreeRelationshipsDiagram</title>
<polygon fill="#ffffff" stroke="transparent" points="-4,4 -4,-392.7 629,-392.7 629,4 -4,4"/>
<text text-anchor="middle" x="72.4936" y="-7.3" font-family="Helvetica,sans-Serif" font-size="11.00" fill="#000000">Generated by SchemaSpy</text>
<!-- payments -->
<g id="node1" class="node">
<title>payments</title>
<g id="a_node1"><a xlink:href="../../tables/payments.html" xlink:title="payments" target="_top">
<polygon fill="#ffffff" stroke="transparent" points="462,-164.7 462,-291.7 617,-291.7 617,-164.7 462,-164.7"/>
<polygon fill="#f5f5f5" stroke="transparent" points="462.5,-268.2 462.5,-291.2 617.5,-291.2 617.5,-268.2 462.5,-268.2"/>
<polygon fill="none" stroke="#000000" points="462.5,-268.2 462.5,-291.2 617.5,-291.2 617.5,-268.2 462.5,-268.2"/>
<text text-anchor="start" x="467.5" y="-277.3" font-family="Helvetica,sans-Serif" font-weight="bold" font-size="11.00" fill="#000000">payments</text>
<text text-anchor="start" x="582.5437" y="-276.3" font-family="Helvetica,sans-Serif" font-size="11.00" fill="#000000">[table]</text>
<polygon fill="none" stroke="#000000" points="462.5,-246.2 462.5,-268.2 617.5,-268.2 617.5,-246.2 462.5,-246.2"/>
<image xlink:href="../../images/primaryKeys.png" width="11px" height="12px" preserveAspectRatio="xMinYMin meet" x="467.5" y="-263.2"/>
<text text-anchor="start" x="482.5" y="-253.3" font-family="Helvetica,sans-Serif" font-size="11.00" fill="#000000">id</text>
<polygon fill="#ffffff" stroke="transparent" points="462.5,-224.2 462.5,-246.2 617.5,-246.2 617.5,-224.2 462.5,-224.2"/>
<polygon fill="none" stroke="#000000" points="462.5,-224.2 462.5,-246.2 617.5,-246.2 617.5,-224.2 462.5,-224.2"/>
<image xlink:href="../../images/foreignKeys.png" width="11px" height="12px" preserveAspectRatio="xMinYMin meet" x="467.5" y="-241.2"/>
<text text-anchor="start" x="482.5" y="-231.3" font-family="Helvetica,sans-Serif" font-size="11.00" fill="#000000">subscriptions_users_id</text>
<polygon fill="#ffffff" stroke="transparent" points="462.5,-202.2 462.5,-224.2 617.5,-224.2 617.5,-202.2 462.5,-202.2"/>
<polygon fill="none" stroke="#000000" points="462.5,-202.2 462.5,-224.2 617.5,-224.2 617.5,-202.2 462.5,-202.2"/>
<image xlink:href="../../images/foreignKeys.png" width="11px" height="12px" preserveAspectRatio="xMinYMin meet" x="467.5" y="-219.2"/>
<text text-anchor="start" x="482.5" y="-209.3" font-family="Helvetica,sans-Serif" font-size="11.00" fill="#000000">subscriptions_plans_id</text>
<polygon fill="none" stroke="#000000" points="462.5,-183.2 462.5,-202.2 617.5,-202.2 617.5,-183.2 462.5,-183.2"/>
<text text-anchor="start" x="465.5" y="-189.3" font-family="Helvetica,sans-Serif" font-size="11.00" fill="#000000">...</text>
<polygon fill="#ffffff" stroke="transparent" points="462.5,-164.2 462.5,-183.2 525.5,-183.2 525.5,-164.2 462.5,-164.2"/>
<polygon fill="none" stroke="#000000" points="462.5,-164.2 462.5,-183.2 525.5,-183.2 525.5,-164.2 462.5,-164.2"/>
<text text-anchor="start" x="465.5" y="-170.3" font-family="Helvetica,sans-Serif" font-size="11.00" fill="#000000">&lt; 2</text>
<polygon fill="#ffffff" stroke="transparent" points="525.5,-164.2 525.5,-183.2 584.5,-183.2 584.5,-164.2 525.5,-164.2"/>
<polygon fill="none" stroke="#000000" points="525.5,-164.2 525.5,-183.2 584.5,-183.2 584.5,-164.2 525.5,-164.2"/>
<text text-anchor="start" x="549.1105" y="-170.3" font-family="Helvetica,sans-Serif" font-size="11.00" fill="#000000">0 rows</text>
<polygon fill="#ffffff" stroke="transparent" points="584.5,-164.2 584.5,-183.2 617.5,-183.2 617.5,-164.2 584.5,-164.2"/>
<polygon fill="none" stroke="#000000" points="584.5,-164.2 584.5,-183.2 617.5,-183.2 617.5,-164.2 584.5,-164.2"/>
<text text-anchor="start" x="608.3862" y="-170.3" font-family="Helvetica,sans-Serif" font-size="11.00" fill="#000000"> &#160;</text>
</a>
</g>
</g>
<!-- subscriptions -->
<g id="node2" class="node">
<title>subscriptions</title>
<g id="a_node2"><a xlink:href="../../tables/subscriptions.html" xlink:title="subscriptions" target="_top">
<polygon fill="#ffffff" stroke="transparent" points="196,-38.2 196,-282.2 413,-282.2 413,-38.2 196,-38.2"/>
<polygon fill="#f5f5f5" stroke="transparent" points="198.5,-257.2 198.5,-280.2 411.5,-280.2 411.5,-257.2 198.5,-257.2"/>
<polygon fill="none" stroke="#000000" points="198.5,-257.2 198.5,-280.2 411.5,-280.2 411.5,-257.2 198.5,-257.2"/>
<text text-anchor="start" x="203.5" y="-266.3" font-family="Helvetica,sans-Serif" font-weight="bold" font-size="11.00" fill="#000000">subscriptions</text>
<text text-anchor="start" x="376.5437" y="-265.3" font-family="Helvetica,sans-Serif" font-size="11.00" fill="#000000">[table]</text>
<polygon fill="none" stroke="#000000" points="198.5,-235.2 198.5,-257.2 350.5,-257.2 350.5,-235.2 198.5,-235.2"/>
<image xlink:href="../../images/primaryKeys.png" width="11px" height="12px" preserveAspectRatio="xMinYMin meet" x="203.5" y="-252.2"/>
<text text-anchor="start" x="218.5" y="-242.3" font-family="Helvetica,sans-Serif" font-size="11.00" fill="#000000">users_id</text>
<polygon fill="none" stroke="#000000" points="350.5,-235.2 350.5,-257.2 411.5,-257.2 411.5,-235.2 350.5,-235.2"/>
<text text-anchor="start" x="353.5" y="-242.9" font-family="Helvetica,sans-Serif" font-size="11.00" fill="#000000">int[10]</text>
<polygon fill="#ffffff" stroke="transparent" points="198.5,-213.2 198.5,-235.2 350.5,-235.2 350.5,-213.2 198.5,-213.2"/>
<polygon fill="none" stroke="#000000" points="198.5,-213.2 198.5,-235.2 350.5,-235.2 350.5,-213.2 198.5,-213.2"/>
<image xlink:href="../../images/foreignKeys.png" width="11px" height="12px" preserveAspectRatio="xMinYMin meet" x="203.5" y="-230.2"/>
<text text-anchor="start" x="218.5" y="-220.3" font-family="Helvetica,sans-Serif" font-size="11.00" fill="#000000">payment_procesors_id</text>
<polygon fill="none" stroke="#000000" points="350.5,-213.2 350.5,-235.2 411.5,-235.2 411.5,-213.2 350.5,-213.2"/>
<text text-anchor="start" x="353.5" y="-220.9" font-family="Helvetica,sans-Serif" font-size="11.00" fill="#000000">int[10]</text>
<polygon fill="none" stroke="#000000" points="198.5,-191.2 198.5,-213.2 350.5,-213.2 350.5,-191.2 198.5,-191.2"/>
<image xlink:href="../../images/primaryKeys.png" width="11px" height="12px" preserveAspectRatio="xMinYMin meet" x="203.5" y="-208.2"/>
<text text-anchor="start" x="218.5" y="-198.3" font-family="Helvetica,sans-Serif" font-size="11.00" fill="#000000">plans_id</text>
<polygon fill="none" stroke="#000000" points="350.5,-191.2 350.5,-213.2 411.5,-213.2 411.5,-191.2 350.5,-191.2"/>
<text text-anchor="start" x="353.5" y="-198.9" font-family="Helvetica,sans-Serif" font-size="11.00" fill="#000000">int[10]</text>
<polygon fill="none" stroke="#000000" points="198.5,-169.2 198.5,-191.2 350.5,-191.2 350.5,-169.2 198.5,-169.2"/>
<text text-anchor="start" x="218.5" y="-176.3" font-family="Helvetica,sans-Serif" font-size="11.00" fill="#000000">suscriptions_status</text>
<polygon fill="none" stroke="#000000" points="350.5,-169.2 350.5,-191.2 411.5,-191.2 411.5,-169.2 350.5,-169.2"/>
<text text-anchor="start" x="353.5" y="-176.9" font-family="Helvetica,sans-Serif" font-size="11.00" fill="#000000">int[10]</text>
<polygon fill="none" stroke="#000000" points="198.5,-147.2 198.5,-169.2 350.5,-169.2 350.5,-147.2 198.5,-147.2"/>
<text text-anchor="start" x="218.5" y="-154.3" font-family="Helvetica,sans-Serif" font-size="11.00" fill="#000000">start_at</text>
<polygon fill="none" stroke="#000000" points="350.5,-147.2 350.5,-169.2 411.5,-169.2 411.5,-147.2 350.5,-147.2"/>
<text text-anchor="start" x="353.5" y="-154.9" font-family="Helvetica,sans-Serif" font-size="11.00" fill="#000000">date[10]</text>
<polygon fill="none" stroke="#000000" points="198.5,-125.2 198.5,-147.2 350.5,-147.2 350.5,-125.2 198.5,-125.2"/>
<text text-anchor="start" x="218.5" y="-132.3" font-family="Helvetica,sans-Serif" font-size="11.00" fill="#000000">end_at</text>
<polygon fill="none" stroke="#000000" points="350.5,-125.2 350.5,-147.2 411.5,-147.2 411.5,-125.2 350.5,-125.2"/>
<text text-anchor="start" x="353.5" y="-132.9" font-family="Helvetica,sans-Serif" font-size="11.00" fill="#000000">date[10]</text>
<polygon fill="none" stroke="#000000" points="198.5,-103.2 198.5,-125.2 350.5,-125.2 350.5,-103.2 198.5,-103.2"/>
<text text-anchor="start" x="218.5" y="-110.3" font-family="Helvetica,sans-Serif" font-size="11.00" fill="#000000">created_at</text>
<polygon fill="none" stroke="#000000" points="350.5,-103.2 350.5,-125.2 411.5,-125.2 411.5,-103.2 350.5,-103.2"/>
<text text-anchor="start" x="353.494" y="-110.9" font-family="Helvetica,sans-Serif" font-size="11.00" fill="#000000">varchar[45]</text>
<polygon fill="none" stroke="#000000" points="198.5,-81.2 198.5,-103.2 350.5,-103.2 350.5,-81.2 198.5,-81.2"/>
<text text-anchor="start" x="218.5" y="-88.3" font-family="Helvetica,sans-Serif" font-size="11.00" fill="#000000">updated_at</text>
<polygon fill="none" stroke="#000000" points="350.5,-81.2 350.5,-103.2 411.5,-103.2 411.5,-81.2 350.5,-81.2"/>
<text text-anchor="start" x="353.494" y="-88.9" font-family="Helvetica,sans-Serif" font-size="11.00" fill="#000000">varchar[45]</text>
<polygon fill="none" stroke="#000000" points="198.5,-59.2 198.5,-81.2 350.5,-81.2 350.5,-59.2 198.5,-59.2"/>
<text text-anchor="start" x="218.5" y="-66.3" font-family="Helvetica,sans-Serif" font-size="11.00" fill="#000000">deleted_at</text>
<polygon fill="none" stroke="#000000" points="350.5,-59.2 350.5,-81.2 411.5,-81.2 411.5,-59.2 350.5,-59.2"/>
<text text-anchor="start" x="353.494" y="-66.9" font-family="Helvetica,sans-Serif" font-size="11.00" fill="#000000">varchar[45]</text>
<polygon fill="#ffffff" stroke="transparent" points="198.5,-40.2 198.5,-59.2 265.5,-59.2 265.5,-40.2 198.5,-40.2"/>
<polygon fill="none" stroke="#000000" points="198.5,-40.2 198.5,-59.2 265.5,-59.2 265.5,-40.2 198.5,-40.2"/>
<text text-anchor="start" x="201.5" y="-46.3" font-family="Helvetica,sans-Serif" font-size="11.00" fill="#000000">&lt; 3</text>
<polygon fill="#ffffff" stroke="transparent" points="265.5,-40.2 265.5,-59.2 350.5,-59.2 350.5,-40.2 265.5,-40.2"/>
<polygon fill="none" stroke="#000000" points="265.5,-40.2 265.5,-59.2 350.5,-59.2 350.5,-40.2 265.5,-40.2"/>
<text text-anchor="start" x="315.1105" y="-46.3" font-family="Helvetica,sans-Serif" font-size="11.00" fill="#000000">0 rows</text>
<polygon fill="#ffffff" stroke="transparent" points="350.5,-40.2 350.5,-59.2 411.5,-59.2 411.5,-40.2 350.5,-40.2"/>
<polygon fill="none" stroke="#000000" points="350.5,-40.2 350.5,-59.2 411.5,-59.2 411.5,-40.2 350.5,-40.2"/>
<text text-anchor="start" x="392.9053" y="-46.3" font-family="Helvetica,sans-Serif" font-size="11.00" fill="#000000">2 &gt;</text>
<polygon fill="none" stroke="#000000" stroke-width="2" points="197,-39.2 197,-281.2 412,-281.2 412,-39.2 197,-39.2"/>
</a>
</g>
</g>
<!-- payments&#45;&gt;subscriptions -->
<g id="edge1" class="edge">
<title>payments:w&#45;&gt;subscriptions:e</title>
<path fill="none" stroke="#000000" d="M448.0097,-211.4813C435.8398,-208.3875 428.8909,-202.2 411.5,-202.2"/>
<polygon fill="#000000" stroke="#000000" points="454.5557,-212.2576 462.0759,-216.7749 458.5278,-212.7288 462.5,-213.2 462.5,-213.2 462.5,-213.2 458.5278,-212.7288 462.9241,-209.6251 454.5557,-212.2576 454.5557,-212.2576"/>
<ellipse fill="none" stroke="#000000" cx="451.378" cy="-211.8807" rx="3.2" ry="3.2"/>
</g>
<!-- payments&#45;&gt;subscriptions -->
<g id="edge2" class="edge">
<title>payments:w&#45;&gt;subscriptions:e</title>
<path fill="none" stroke="#000000" d="M448.0097,-236.9188C435.8398,-240.0125 428.8909,-246.2 411.5,-246.2"/>
<polygon fill="#000000" stroke="#000000" points="454.5557,-236.1424 462.9241,-238.7749 458.5278,-235.6712 462.5,-235.2 462.5,-235.2 462.5,-235.2 458.5278,-235.6712 462.0759,-231.6251 454.5557,-236.1424 454.5557,-236.1424"/>
<ellipse fill="none" stroke="#000000" cx="451.378" cy="-236.5193" rx="3.2" ry="3.2"/>
</g>
<!-- payment_procesors -->
<g id="node3" class="node">
<title>payment_procesors</title>
<g id="a_node3"><a xlink:href="../../tables/payment_procesors.html" xlink:title="payment_procesors" target="_top">
<polygon fill="#ffffff" stroke="transparent" points="8,-175.7 8,-258.7 147,-258.7 147,-175.7 8,-175.7"/>
<polygon fill="#f5f5f5" stroke="transparent" points="8.5,-235.2 8.5,-258.2 147.5,-258.2 147.5,-235.2 8.5,-235.2"/>
<polygon fill="none" stroke="#000000" points="8.5,-235.2 8.5,-258.2 147.5,-258.2 147.5,-235.2 8.5,-235.2"/>
<text text-anchor="start" x="13.2117" y="-244.3" font-family="Helvetica,sans-Serif" font-weight="bold" font-size="11.00" fill="#000000">payment_procesors</text>
<text text-anchor="start" x="113.0219" y="-243.3" font-family="Helvetica,sans-Serif" font-size="11.00" fill="#000000">[table]</text>
<polygon fill="none" stroke="#000000" points="8.5,-213.2 8.5,-235.2 147.5,-235.2 147.5,-213.2 8.5,-213.2"/>
<image xlink:href="../../images/primaryKeys.png" width="11px" height="12px" preserveAspectRatio="xMinYMin meet" x="13.5" y="-230.2"/>
<text text-anchor="start" x="30.5" y="-220.3" font-family="Helvetica,sans-Serif" font-size="11.00" fill="#000000">id</text>
<polygon fill="none" stroke="#000000" points="8.5,-194.2 8.5,-213.2 147.5,-213.2 147.5,-194.2 8.5,-194.2"/>
<text text-anchor="start" x="11.5" y="-200.3" font-family="Helvetica,sans-Serif" font-size="11.00" fill="#000000">...</text>
<polygon fill="#ffffff" stroke="transparent" points="8.5,-175.2 8.5,-194.2 54.5,-194.2 54.5,-175.2 8.5,-175.2"/>
<polygon fill="none" stroke="#000000" points="8.5,-175.2 8.5,-194.2 54.5,-194.2 54.5,-175.2 8.5,-175.2"/>
<text text-anchor="start" x="11.5" y="-181.3" font-family="Helvetica,sans-Serif" font-size="11.00" fill="#000000"> &#160;</text>
<polygon fill="#ffffff" stroke="transparent" points="54.5,-175.2 54.5,-194.2 109.5,-194.2 109.5,-175.2 54.5,-175.2"/>
<polygon fill="none" stroke="#000000" points="54.5,-175.2 54.5,-194.2 109.5,-194.2 109.5,-175.2 54.5,-175.2"/>
<text text-anchor="start" x="74.1105" y="-181.3" font-family="Helvetica,sans-Serif" font-size="11.00" fill="#000000">0 rows</text>
<polygon fill="#ffffff" stroke="transparent" points="109.5,-175.2 109.5,-194.2 147.5,-194.2 147.5,-175.2 109.5,-175.2"/>
<polygon fill="none" stroke="#000000" points="109.5,-175.2 109.5,-194.2 147.5,-194.2 147.5,-175.2 109.5,-175.2"/>
<text text-anchor="start" x="128.9053" y="-181.3" font-family="Helvetica,sans-Serif" font-size="11.00" fill="#000000">1 &gt;</text>
</a>
</g>
</g>
<!-- subscriptions&#45;&gt;payment_procesors -->
<g id="edge3" class="edge">
<title>subscriptions:w&#45;&gt;payment_procesors:e</title>
<path fill="none" stroke="#000000" d="M183.776,-224.2C171.7815,-224.2 164.3229,-224.2 147.5,-224.2"/>
<polygon fill="#000000" stroke="#000000" points="190.5,-224.2001 198.5,-227.8 194.5,-224.2 198.5,-224.2 198.5,-224.2 198.5,-224.2 194.5,-224.2 198.5,-220.6 190.5,-224.2001 190.5,-224.2001"/>
<ellipse fill="none" stroke="#000000" cx="187.3" cy="-224.2001" rx="3.2" ry="3.2"/>
</g>
<!-- plans -->
<g id="node4" class="node">
<title>plans</title>
<g id="a_node4"><a xlink:href="../../tables/plans.html" xlink:title="plans" target="_top">
<polygon fill="#ffffff" stroke="transparent" points="42,-71.7 42,-154.7 113,-154.7 113,-71.7 42,-71.7"/>
<polygon fill="#f5f5f5" stroke="transparent" points="42.5,-131.2 42.5,-154.2 113.5,-154.2 113.5,-131.2 42.5,-131.2"/>
<polygon fill="none" stroke="#000000" points="42.5,-131.2 42.5,-154.2 113.5,-154.2 113.5,-131.2 42.5,-131.2"/>
<text text-anchor="start" x="47.5" y="-140.3" font-family="Helvetica,sans-Serif" font-weight="bold" font-size="11.00" fill="#000000">plans</text>
<text text-anchor="start" x="78.5437" y="-139.3" font-family="Helvetica,sans-Serif" font-size="11.00" fill="#000000">[table]</text>
<polygon fill="none" stroke="#000000" points="42.5,-109.2 42.5,-131.2 113.5,-131.2 113.5,-109.2 42.5,-109.2"/>
<image xlink:href="../../images/primaryKeys.png" width="11px" height="12px" preserveAspectRatio="xMinYMin meet" x="47.5" y="-126.2"/>
<text text-anchor="start" x="72.5" y="-116.3" font-family="Helvetica,sans-Serif" font-size="11.00" fill="#000000">id</text>
<polygon fill="none" stroke="#000000" points="42.5,-90.2 42.5,-109.2 113.5,-109.2 113.5,-90.2 42.5,-90.2"/>
<text text-anchor="start" x="45.5" y="-96.3" font-family="Helvetica,sans-Serif" font-size="11.00" fill="#000000">...</text>
<polygon fill="#ffffff" stroke="transparent" points="42.5,-71.2 42.5,-90.2 54.5,-90.2 54.5,-71.2 42.5,-71.2"/>
<polygon fill="none" stroke="#000000" points="42.5,-71.2 42.5,-90.2 54.5,-90.2 54.5,-71.2 42.5,-71.2"/>
<text text-anchor="start" x="45.4431" y="-77.3" font-family="Helvetica,sans-Serif" font-size="11.00" fill="#000000"> &#160;</text>
<polygon fill="#ffffff" stroke="transparent" points="54.5,-71.2 54.5,-90.2 92.5,-90.2 92.5,-71.2 54.5,-71.2"/>
<polygon fill="none" stroke="#000000" points="54.5,-71.2 54.5,-90.2 92.5,-90.2 92.5,-71.2 54.5,-71.2"/>
<text text-anchor="start" x="57.3053" y="-77.3" font-family="Helvetica,sans-Serif" font-size="11.00" fill="#000000">0 rows</text>
<polygon fill="#ffffff" stroke="transparent" points="92.5,-71.2 92.5,-90.2 113.5,-90.2 113.5,-71.2 92.5,-71.2"/>
<polygon fill="none" stroke="#000000" points="92.5,-71.2 92.5,-90.2 113.5,-90.2 113.5,-71.2 92.5,-71.2"/>
<text text-anchor="start" x="95.2027" y="-77.3" font-family="Helvetica,sans-Serif" font-size="11.00" fill="#000000">1 &gt;</text>
</a>
</g>
</g>
<!-- subscriptions&#45;&gt;plans -->
<g id="edge4" class="edge">
<title>subscriptions:w&#45;&gt;plans:e</title>
<path fill="none" stroke="#000000" d="M184.1399,-199.656C149.4175,-185.8153 160.4553,-120.2 113.5,-120.2"/>
<polygon fill="#000000" stroke="#000000" points="190.6227,-200.8044 197.872,-205.7448 194.5613,-201.5022 198.5,-202.2 198.5,-202.2 198.5,-202.2 194.5613,-201.5022 199.128,-198.6552 190.6227,-200.8044 190.6227,-200.8044"/>
<ellipse fill="none" stroke="#000000" cx="187.4717" cy="-200.2462" rx="3.2" ry="3.2"/>
</g>
<!-- users -->
<g id="node5" class="node">
<title>users</title>
<g id="a_node5"><a xlink:href="../../tables/users.html" xlink:title="users" target="_top">
<polygon fill="#ffffff" stroke="transparent" points="35,-279.7 35,-384.7 120,-384.7 120,-279.7 35,-279.7"/>
<polygon fill="#f5f5f5" stroke="transparent" points="35.5,-361.2 35.5,-384.2 120.5,-384.2 120.5,-361.2 35.5,-361.2"/>
<polygon fill="none" stroke="#000000" points="35.5,-361.2 35.5,-384.2 120.5,-384.2 120.5,-361.2 35.5,-361.2"/>
<text text-anchor="start" x="40.5" y="-370.3" font-family="Helvetica,sans-Serif" font-weight="bold" font-size="11.00" fill="#000000">users</text>
<text text-anchor="start" x="85.5437" y="-369.3" font-family="Helvetica,sans-Serif" font-size="11.00" fill="#000000">[table]</text>
<polygon fill="none" stroke="#000000" points="35.5,-339.2 35.5,-361.2 120.5,-361.2 120.5,-339.2 35.5,-339.2"/>
<image xlink:href="../../images/primaryKeys.png" width="11px" height="12px" preserveAspectRatio="xMinYMin meet" x="40.5" y="-356.2"/>
<text text-anchor="start" x="55.5" y="-346.3" font-family="Helvetica,sans-Serif" font-size="11.00" fill="#000000">id</text>
<polygon fill="#ffffff" stroke="transparent" points="35.5,-317.2 35.5,-339.2 120.5,-339.2 120.5,-317.2 35.5,-317.2"/>
<polygon fill="none" stroke="#000000" points="35.5,-317.2 35.5,-339.2 120.5,-339.2 120.5,-317.2 35.5,-317.2"/>
<text text-anchor="start" x="55.5" y="-324.3" font-family="Helvetica,sans-Serif" font-size="11.00" fill="#000000">email</text>
<polygon fill="none" stroke="#000000" points="35.5,-298.2 35.5,-317.2 120.5,-317.2 120.5,-298.2 35.5,-298.2"/>
<text text-anchor="start" x="38.5" y="-304.3" font-family="Helvetica,sans-Serif" font-size="11.00" fill="#000000">...</text>
<polygon fill="#ffffff" stroke="transparent" points="35.5,-279.2 35.5,-298.2 54.5,-298.2 54.5,-279.2 35.5,-279.2"/>
<polygon fill="none" stroke="#000000" points="35.5,-279.2 35.5,-298.2 54.5,-298.2 54.5,-279.2 35.5,-279.2"/>
<text text-anchor="start" x="38.5" y="-285.3" font-family="Helvetica,sans-Serif" font-size="11.00" fill="#000000"> &#160;</text>
<polygon fill="#ffffff" stroke="transparent" points="54.5,-279.2 54.5,-298.2 95.5,-298.2 95.5,-279.2 54.5,-279.2"/>
<polygon fill="none" stroke="#000000" points="54.5,-279.2 54.5,-298.2 95.5,-298.2 95.5,-279.2 54.5,-279.2"/>
<text text-anchor="start" x="60.1105" y="-285.3" font-family="Helvetica,sans-Serif" font-size="11.00" fill="#000000">0 rows</text>
<polygon fill="#ffffff" stroke="transparent" points="95.5,-279.2 95.5,-298.2 120.5,-298.2 120.5,-279.2 95.5,-279.2"/>
<polygon fill="none" stroke="#000000" points="95.5,-279.2 95.5,-298.2 120.5,-298.2 120.5,-279.2 95.5,-279.2"/>
<text text-anchor="start" x="101.9053" y="-285.3" font-family="Helvetica,sans-Serif" font-size="11.00" fill="#000000">2 &gt;</text>
</a>
</g>
</g>
<!-- subscriptions&#45;&gt;users -->
<g id="edge5" class="edge">
<title>subscriptions:w&#45;&gt;users:e</title>
<path fill="none" stroke="#000000" d="M184.1229,-248.9817C147.1481,-265.5207 172.6354,-350.2 120.5,-350.2"/>
<polygon fill="#000000" stroke="#000000" points="190.6457,-247.7197 199.1839,-249.7345 194.5728,-246.9599 198.5,-246.2 198.5,-246.2 198.5,-246.2 194.5728,-246.9599 197.8161,-242.6655 190.6457,-247.7197 190.6457,-247.7197"/>
<ellipse fill="none" stroke="#000000" cx="187.5039" cy="-248.3276" rx="3.2" ry="3.2"/>
</g>
</g>
</svg>
