<?xml version="1.0" encoding="UTF-8" standalone="no"?>
<!DOCTYPE svg PUBLIC "-//W3C//DTD SVG 1.1//EN"
 "http://www.w3.org/Graphics/SVG/1.1/DTD/svg11.dtd">
<!-- Generated by graphviz version 2.40.1 (20161225.0304)
 -->
<!-- Title: oneDegreeRelationshipsDiagram Pages: 1 -->
<svg width="389pt" height="291pt"
 viewBox="0.00 0.00 389.00 291.20" xmlns="http://www.w3.org/2000/svg" xmlns:xlink="http://www.w3.org/1999/xlink">
<g id="graph0" class="graph" transform="scale(1 1) rotate(0) translate(4 287.2)">
<title>oneDegreeRelationshipsDiagram</title>
<polygon fill="#ffffff" stroke="transparent" points="-4,4 -4,-287.2 385,-287.2 385,4 -4,4"/>
<text text-anchor="middle" x="72.4936" y="-7.3" font-family="Helvetica,sans-Serif" font-size="11.00" fill="#000000">Generated by SchemaSpy</text>
<!-- gyms_has_users -->
<g id="node1" class="node">
<title>gyms_has_users</title>
<g id="a_node1"><a xlink:href="../../tables/gyms_has_users.html" xlink:title="gyms_has_users" target="_top">
<polygon fill="#ffffff" stroke="transparent" points="234,-193.2 234,-279.2 360,-279.2 360,-193.2 234,-193.2"/>
<polygon fill="#f5f5f5" stroke="transparent" points="234,-256.2 234,-279.2 360,-279.2 360,-256.2 234,-256.2"/>
<polygon fill="none" stroke="#000000" points="234,-256.2 234,-279.2 360,-279.2 360,-256.2 234,-256.2"/>
<text text-anchor="start" x="238.936" y="-265.3" font-family="Helvetica,sans-Serif" font-weight="bold" font-size="11.00" fill="#000000">gyms_has_users</text>
<text text-anchor="start" x="325.5219" y="-264.3" font-family="Helvetica,sans-Serif" font-size="11.00" fill="#000000">[table]</text>
<polygon fill="none" stroke="#000000" points="234,-234.2 234,-256.2 360,-256.2 360,-234.2 234,-234.2"/>
<image xlink:href="../../images/primaryKeys.png" width="11px" height="12px" preserveAspectRatio="xMinYMin meet" x="239" y="-251.2"/>
<text text-anchor="start" x="258" y="-241.3" font-family="Helvetica,sans-Serif" font-size="11.00" fill="#000000">gyms_id</text>
<polygon fill="none" stroke="#000000" points="234,-212.2 234,-234.2 360,-234.2 360,-212.2 234,-212.2"/>
<image xlink:href="../../images/primaryKeys.png" width="11px" height="12px" preserveAspectRatio="xMinYMin meet" x="239" y="-229.2"/>
<text text-anchor="start" x="258" y="-219.3" font-family="Helvetica,sans-Serif" font-size="11.00" fill="#000000">users_id</text>
<polygon fill="#ffffff" stroke="transparent" points="234,-193.2 234,-212.2 278,-212.2 278,-193.2 234,-193.2"/>
<polygon fill="none" stroke="#000000" points="234,-193.2 234,-212.2 278,-212.2 278,-193.2 234,-193.2"/>
<text text-anchor="start" x="237" y="-199.3" font-family="Helvetica,sans-Serif" font-size="11.00" fill="#000000">&lt; 2</text>
<polygon fill="#ffffff" stroke="transparent" points="278,-193.2 278,-212.2 327,-212.2 327,-193.2 278,-193.2"/>
<polygon fill="none" stroke="#000000" points="278,-193.2 278,-212.2 327,-212.2 327,-193.2 278,-193.2"/>
<text text-anchor="start" x="291.6105" y="-199.3" font-family="Helvetica,sans-Serif" font-size="11.00" fill="#000000">0 rows</text>
<polygon fill="#ffffff" stroke="transparent" points="327,-193.2 327,-212.2 360,-212.2 360,-193.2 327,-193.2"/>
<polygon fill="none" stroke="#000000" points="327,-193.2 327,-212.2 360,-212.2 360,-193.2 327,-193.2"/>
<text text-anchor="start" x="341.4053" y="-199.3" font-family="Helvetica,sans-Serif" font-size="11.00" fill="#000000">2 &gt;</text>
</a>
</g>
</g>
<!-- users -->
<g id="node2" class="node">
<title>users</title>
<g id="a_node2"><a xlink:href="../../tables/users.html" xlink:title="users" target="_top">
<polygon fill="#ffffff" stroke="transparent" points="8,-38.2 8,-216.2 172,-216.2 172,-38.2 8,-38.2"/>
<polygon fill="#f5f5f5" stroke="transparent" points="10,-191.2 10,-214.2 170,-214.2 170,-191.2 10,-191.2"/>
<polygon fill="none" stroke="#000000" points="10,-191.2 10,-214.2 170,-214.2 170,-191.2 10,-191.2"/>
<text text-anchor="start" x="15" y="-200.3" font-family="Helvetica,sans-Serif" font-weight="bold" font-size="11.00" fill="#000000">users</text>
<text text-anchor="start" x="135.0437" y="-199.3" font-family="Helvetica,sans-Serif" font-size="11.00" fill="#000000">[table]</text>
<polygon fill="none" stroke="#000000" points="10,-169.2 10,-191.2 95,-191.2 95,-169.2 10,-169.2"/>
<image xlink:href="../../images/primaryKeys.png" width="11px" height="12px" preserveAspectRatio="xMinYMin meet" x="15" y="-186.2"/>
<text text-anchor="start" x="30" y="-176.3" font-family="Helvetica,sans-Serif" font-size="11.00" fill="#000000">id</text>
<polygon fill="none" stroke="#000000" points="95,-169.2 95,-191.2 170,-191.2 170,-169.2 95,-169.2"/>
<text text-anchor="start" x="98" y="-176.9" font-family="Helvetica,sans-Serif" font-size="11.00" fill="#000000">int[10]</text>
<polygon fill="#ffffff" stroke="transparent" points="10,-147.2 10,-169.2 95,-169.2 95,-147.2 10,-147.2"/>
<polygon fill="none" stroke="#000000" points="10,-147.2 10,-169.2 95,-169.2 95,-147.2 10,-147.2"/>
<text text-anchor="start" x="30" y="-154.3" font-family="Helvetica,sans-Serif" font-size="11.00" fill="#000000">email</text>
<polygon fill="none" stroke="#000000" points="95,-147.2 95,-169.2 170,-169.2 170,-147.2 95,-147.2"/>
<text text-anchor="start" x="98" y="-154.9" font-family="Helvetica,sans-Serif" font-size="11.00" fill="#000000">varchar[45]</text>
<polygon fill="none" stroke="#000000" points="10,-125.2 10,-147.2 95,-147.2 95,-125.2 10,-125.2"/>
<text text-anchor="start" x="30" y="-132.3" font-family="Helvetica,sans-Serif" font-size="11.00" fill="#000000">password</text>
<polygon fill="none" stroke="#000000" points="95,-125.2 95,-147.2 170,-147.2 170,-125.2 95,-125.2"/>
<text text-anchor="start" x="98" y="-132.9" font-family="Helvetica,sans-Serif" font-size="11.00" fill="#000000">varchar[45]</text>
<polygon fill="none" stroke="#000000" points="10,-103.2 10,-125.2 95,-125.2 95,-103.2 10,-103.2"/>
<text text-anchor="start" x="30" y="-110.3" font-family="Helvetica,sans-Serif" font-size="11.00" fill="#000000">created_at</text>
<polygon fill="none" stroke="#000000" points="95,-103.2 95,-125.2 170,-125.2 170,-103.2 95,-103.2"/>
<text text-anchor="start" x="97.9666" y="-110.9" font-family="Helvetica,sans-Serif" font-size="11.00" fill="#000000">timestamp[19]</text>
<polygon fill="none" stroke="#000000" points="10,-81.2 10,-103.2 95,-103.2 95,-81.2 10,-81.2"/>
<text text-anchor="start" x="30" y="-88.3" font-family="Helvetica,sans-Serif" font-size="11.00" fill="#000000">updated_at</text>
<polygon fill="none" stroke="#000000" points="95,-81.2 95,-103.2 170,-103.2 170,-81.2 95,-81.2"/>
<text text-anchor="start" x="97.9666" y="-88.9" font-family="Helvetica,sans-Serif" font-size="11.00" fill="#000000">timestamp[19]</text>
<polygon fill="none" stroke="#000000" points="10,-59.2 10,-81.2 95,-81.2 95,-59.2 10,-59.2"/>
<text text-anchor="start" x="30" y="-66.3" font-family="Helvetica,sans-Serif" font-size="11.00" fill="#000000">deleted_at</text>
<polygon fill="none" stroke="#000000" points="95,-59.2 95,-81.2 170,-81.2 170,-59.2 95,-59.2"/>
<text text-anchor="start" x="97.9666" y="-66.9" font-family="Helvetica,sans-Serif" font-size="11.00" fill="#000000">timestamp[19]</text>
<polygon fill="#ffffff" stroke="transparent" points="10,-40.2 10,-59.2 44,-59.2 44,-40.2 10,-40.2"/>
<polygon fill="none" stroke="#000000" points="10,-40.2 10,-59.2 44,-59.2 44,-40.2 10,-40.2"/>
<text text-anchor="start" x="13" y="-46.3" font-family="Helvetica,sans-Serif" font-size="11.00" fill="#000000">&lt; 0</text>
<polygon fill="#ffffff" stroke="transparent" points="44,-40.2 44,-59.2 95,-59.2 95,-40.2 44,-40.2"/>
<polygon fill="none" stroke="#000000" points="44,-40.2 44,-59.2 95,-59.2 95,-40.2 44,-40.2"/>
<text text-anchor="start" x="59.6105" y="-46.3" font-family="Helvetica,sans-Serif" font-size="11.00" fill="#000000">0 rows</text>
<polygon fill="#ffffff" stroke="transparent" points="95,-40.2 95,-59.2 170,-59.2 170,-40.2 95,-40.2"/>
<polygon fill="none" stroke="#000000" points="95,-40.2 95,-59.2 170,-59.2 170,-40.2 95,-40.2"/>
<text text-anchor="start" x="151.4053" y="-46.3" font-family="Helvetica,sans-Serif" font-size="11.00" fill="#000000">2 &gt;</text>
<polygon fill="none" stroke="#000000" stroke-width="2" points="9,-39.2 9,-215.2 171,-215.2 171,-39.2 9,-39.2"/>
</a>
</g>
</g>
<!-- gyms_has_users&#45;&gt;users -->
<g id="edge1" class="edge">
<title>gyms_has_users:w&#45;&gt;users:e</title>
<path fill="none" stroke="#000000" d="M219.9243,-220.1075C200.1758,-210.248 198.6462,-180.2 170,-180.2"/>
<polygon fill="#000000" stroke="#000000" points="226.1864,-221.4833 233.2275,-226.7161 230.0932,-222.3416 234,-223.2 234,-223.2 234,-223.2 230.0932,-222.3416 234.7725,-219.6839 226.1864,-221.4833 226.1864,-221.4833"/>
<ellipse fill="none" stroke="#000000" cx="223.0609" cy="-220.7966" rx="3.2" ry="3.2"/>
</g>
<!-- subscriptions -->
<g id="node3" class="node">
<title>subscriptions</title>
<g id="a_node3"><a xlink:href="../../tables/subscriptions.html" xlink:title="subscriptions" target="_top">
<polygon fill="#ffffff" stroke="transparent" points="221,-44.7 221,-171.7 373,-171.7 373,-44.7 221,-44.7"/>
<polygon fill="#f5f5f5" stroke="transparent" points="221,-148.2 221,-171.2 373,-171.2 373,-148.2 221,-148.2"/>
<polygon fill="none" stroke="#000000" points="221,-148.2 221,-171.2 373,-171.2 373,-148.2 221,-148.2"/>
<text text-anchor="start" x="226" y="-157.3" font-family="Helvetica,sans-Serif" font-weight="bold" font-size="11.00" fill="#000000">subscriptions</text>
<text text-anchor="start" x="338.0437" y="-156.3" font-family="Helvetica,sans-Serif" font-size="11.00" fill="#000000">[table]</text>
<polygon fill="none" stroke="#000000" points="221,-126.2 221,-148.2 373,-148.2 373,-126.2 221,-126.2"/>
<image xlink:href="../../images/primaryKeys.png" width="11px" height="12px" preserveAspectRatio="xMinYMin meet" x="226" y="-143.2"/>
<text text-anchor="start" x="241" y="-133.3" font-family="Helvetica,sans-Serif" font-size="11.00" fill="#000000">users_id</text>
<polygon fill="#ffffff" stroke="transparent" points="221,-104.2 221,-126.2 373,-126.2 373,-104.2 221,-104.2"/>
<polygon fill="none" stroke="#000000" points="221,-104.2 221,-126.2 373,-126.2 373,-104.2 221,-104.2"/>
<image xlink:href="../../images/foreignKeys.png" width="11px" height="12px" preserveAspectRatio="xMinYMin meet" x="226" y="-121.2"/>
<text text-anchor="start" x="241" y="-111.3" font-family="Helvetica,sans-Serif" font-size="11.00" fill="#000000">payment_procesors_id</text>
<polygon fill="none" stroke="#000000" points="221,-82.2 221,-104.2 373,-104.2 373,-82.2 221,-82.2"/>
<image xlink:href="../../images/primaryKeys.png" width="11px" height="12px" preserveAspectRatio="xMinYMin meet" x="226" y="-99.2"/>
<text text-anchor="start" x="241" y="-89.3" font-family="Helvetica,sans-Serif" font-size="11.00" fill="#000000">plans_id</text>
<polygon fill="none" stroke="#000000" points="221,-63.2 221,-82.2 373,-82.2 373,-63.2 221,-63.2"/>
<text text-anchor="start" x="224" y="-69.3" font-family="Helvetica,sans-Serif" font-size="11.00" fill="#000000">...</text>
<polygon fill="#ffffff" stroke="transparent" points="221,-44.2 221,-63.2 278,-63.2 278,-44.2 221,-44.2"/>
<polygon fill="none" stroke="#000000" points="221,-44.2 221,-63.2 278,-63.2 278,-44.2 221,-44.2"/>
<text text-anchor="start" x="224" y="-50.3" font-family="Helvetica,sans-Serif" font-size="11.00" fill="#000000">&lt; 3</text>
<polygon fill="#ffffff" stroke="transparent" points="278,-44.2 278,-63.2 334,-63.2 334,-44.2 278,-44.2"/>
<polygon fill="none" stroke="#000000" points="278,-44.2 278,-63.2 334,-63.2 334,-44.2 278,-44.2"/>
<text text-anchor="start" x="298.6105" y="-50.3" font-family="Helvetica,sans-Serif" font-size="11.00" fill="#000000">0 rows</text>
<polygon fill="#ffffff" stroke="transparent" points="334,-44.2 334,-63.2 373,-63.2 373,-44.2 334,-44.2"/>
<polygon fill="none" stroke="#000000" points="334,-44.2 334,-63.2 373,-63.2 373,-44.2 334,-44.2"/>
<text text-anchor="start" x="354.4053" y="-50.3" font-family="Helvetica,sans-Serif" font-size="11.00" fill="#000000">2 &gt;</text>
</a>
</g>
</g>
<!-- subscriptions&#45;&gt;users -->
<g id="edge2" class="edge">
<title>subscriptions:w&#45;&gt;users:e</title>
<path fill="none" stroke="#000000" d="M206.9939,-141.8018C193.1566,-152.8946 193.6259,-180.2 170,-180.2"/>
<polygon fill="#000000" stroke="#000000" points="213.3997,-139.6971 222.1237,-140.6201 217.1999,-138.4486 221,-137.2 221,-137.2 221,-137.2 217.1999,-138.4486 219.8763,-133.7799 213.3997,-139.6971 213.3997,-139.6971"/>
<ellipse fill="none" stroke="#000000" cx="210.3596" cy="-140.696" rx="3.2" ry="3.2"/>
</g>
</g>
</svg>
