<?xml version="1.0" encoding="UTF-8" standalone="no"?>
<!DOCTYPE svg PUBLIC "-//W3C//DTD SVG 1.1//EN"
 "http://www.w3.org/Graphics/SVG/1.1/DTD/svg11.dtd">
<!-- Generated by graphviz version 2.40.1 (20161225.0304)
 -->
<!-- Title: oneDegreeRelationshipsDiagram Pages: 1 -->
<svg width="389pt" height="335pt"
 viewBox="0.00 0.00 389.00 335.20" xmlns="http://www.w3.org/2000/svg" xmlns:xlink="http://www.w3.org/1999/xlink">
<g id="graph0" class="graph" transform="scale(1 1) rotate(0) translate(4 331.2)">
<title>oneDegreeRelationshipsDiagram</title>
<polygon fill="#ffffff" stroke="transparent" points="-4,4 -4,-331.2 385,-331.2 385,4 -4,4"/>
<text text-anchor="middle" x="72.4936" y="-7.3" font-family="Helvetica,sans-Serif" font-size="11.00" fill="#000000">Generated by SchemaSpy</text>
<!-- gyms_has_users -->
<g id="node1" class="node">
<title>gyms_has_users</title>
<g id="a_node1"><a xlink:href="../../tables/gyms_has_users.html" xlink:title="gyms_has_users" target="_top">
<polygon fill="#ffffff" stroke="transparent" points="234,-237.2 234,-323.2 360,-323.2 360,-237.2 234,-237.2"/>
<polygon fill="#f5f5f5" stroke="transparent" points="234,-300.2 234,-323.2 360,-323.2 360,-300.2 234,-300.2"/>
<polygon fill="none" stroke="#000000" points="234,-300.2 234,-323.2 360,-323.2 360,-300.2 234,-300.2"/>
<text text-anchor="start" x="238.936" y="-309.3" font-family="Helvetica,sans-Serif" font-weight="bold" font-size="11.00" fill="#000000">gyms_has_users</text>
<text text-anchor="start" x="325.5219" y="-308.3" font-family="Helvetica,sans-Serif" font-size="11.00" fill="#000000">[table]</text>
<polygon fill="none" stroke="#000000" points="234,-278.2 234,-300.2 360,-300.2 360,-278.2 234,-278.2"/>
<image xlink:href="../../images/primaryKeys.png" width="11px" height="12px" preserveAspectRatio="xMinYMin meet" x="239" y="-295.2"/>
<text text-anchor="start" x="258" y="-285.3" font-family="Helvetica,sans-Serif" font-size="11.00" fill="#000000">gym_id</text>
<polygon fill="none" stroke="#000000" points="234,-256.2 234,-278.2 360,-278.2 360,-256.2 234,-256.2"/>
<image xlink:href="../../images/primaryKeys.png" width="11px" height="12px" preserveAspectRatio="xMinYMin meet" x="239" y="-273.2"/>
<text text-anchor="start" x="258" y="-263.3" font-family="Helvetica,sans-Serif" font-size="11.00" fill="#000000">user_id</text>
<polygon fill="#ffffff" stroke="transparent" points="234,-237.2 234,-256.2 278,-256.2 278,-237.2 234,-237.2"/>
<polygon fill="none" stroke="#000000" points="234,-237.2 234,-256.2 278,-256.2 278,-237.2 234,-237.2"/>
<text text-anchor="start" x="237" y="-243.3" font-family="Helvetica,sans-Serif" font-size="11.00" fill="#000000">&lt; 2</text>
<polygon fill="#ffffff" stroke="transparent" points="278,-237.2 278,-256.2 327,-256.2 327,-237.2 278,-237.2"/>
<polygon fill="none" stroke="#000000" points="278,-237.2 278,-256.2 327,-256.2 327,-237.2 278,-237.2"/>
<text text-anchor="start" x="291.6105" y="-243.3" font-family="Helvetica,sans-Serif" font-size="11.00" fill="#000000">0 rows</text>
<polygon fill="#ffffff" stroke="transparent" points="327,-237.2 327,-256.2 360,-256.2 360,-237.2 327,-237.2"/>
<polygon fill="none" stroke="#000000" points="327,-237.2 327,-256.2 360,-256.2 360,-237.2 327,-237.2"/>
<text text-anchor="start" x="341.4053" y="-243.3" font-family="Helvetica,sans-Serif" font-size="11.00" fill="#000000">2 &gt;</text>
</a>
</g>
</g>
<!-- users -->
<g id="node2" class="node">
<title>users</title>
<g id="a_node2"><a xlink:href="../../tables/users.html" xlink:title="users" target="_top">
<polygon fill="#ffffff" stroke="transparent" points="8,-38.2 8,-260.2 172,-260.2 172,-38.2 8,-38.2"/>
<polygon fill="#f5f5f5" stroke="transparent" points="10,-235.2 10,-258.2 170,-258.2 170,-235.2 10,-235.2"/>
<polygon fill="none" stroke="#000000" points="10,-235.2 10,-258.2 170,-258.2 170,-235.2 10,-235.2"/>
<text text-anchor="start" x="15" y="-244.3" font-family="Helvetica,sans-Serif" font-weight="bold" font-size="11.00" fill="#000000">users</text>
<text text-anchor="start" x="135.0437" y="-243.3" font-family="Helvetica,sans-Serif" font-size="11.00" fill="#000000">[table]</text>
<polygon fill="none" stroke="#000000" points="10,-213.2 10,-235.2 95,-235.2 95,-213.2 10,-213.2"/>
<image xlink:href="../../images/primaryKeys.png" width="11px" height="12px" preserveAspectRatio="xMinYMin meet" x="15" y="-230.2"/>
<text text-anchor="start" x="30" y="-220.3" font-family="Helvetica,sans-Serif" font-size="11.00" fill="#000000">id</text>
<polygon fill="none" stroke="#000000" points="95,-213.2 95,-235.2 170,-235.2 170,-213.2 95,-213.2"/>
<text text-anchor="start" x="98" y="-220.9" font-family="Helvetica,sans-Serif" font-size="11.00" fill="#000000">int[10]</text>
<polygon fill="none" stroke="#000000" points="10,-191.2 10,-213.2 95,-213.2 95,-191.2 10,-191.2"/>
<text text-anchor="start" x="30" y="-198.3" font-family="Helvetica,sans-Serif" font-size="11.00" fill="#000000">name</text>
<polygon fill="none" stroke="#000000" points="95,-191.2 95,-213.2 170,-213.2 170,-191.2 95,-191.2"/>
<text text-anchor="start" x="98" y="-198.9" font-family="Helvetica,sans-Serif" font-size="11.00" fill="#000000">varchar[255]</text>
<polygon fill="#ffffff" stroke="transparent" points="10,-169.2 10,-191.2 95,-191.2 95,-169.2 10,-169.2"/>
<polygon fill="none" stroke="#000000" points="10,-169.2 10,-191.2 95,-191.2 95,-169.2 10,-169.2"/>
<text text-anchor="start" x="30" y="-176.3" font-family="Helvetica,sans-Serif" font-size="11.00" fill="#000000">email</text>
<polygon fill="none" stroke="#000000" points="95,-169.2 95,-191.2 170,-191.2 170,-169.2 95,-169.2"/>
<text text-anchor="start" x="98" y="-176.9" font-family="Helvetica,sans-Serif" font-size="11.00" fill="#000000">varchar[45]</text>
<polygon fill="none" stroke="#000000" points="10,-147.2 10,-169.2 95,-169.2 95,-147.2 10,-147.2"/>
<text text-anchor="start" x="30" y="-154.3" font-family="Helvetica,sans-Serif" font-size="11.00" fill="#000000">password</text>
<polygon fill="none" stroke="#000000" points="95,-147.2 95,-169.2 170,-169.2 170,-147.2 95,-147.2"/>
<text text-anchor="start" x="98" y="-154.9" font-family="Helvetica,sans-Serif" font-size="11.00" fill="#000000">varchar[45]</text>
<polygon fill="none" stroke="#000000" points="10,-125.2 10,-147.2 95,-147.2 95,-125.2 10,-125.2"/>
<text text-anchor="start" x="30" y="-132.3" font-family="Helvetica,sans-Serif" font-size="11.00" fill="#000000">timezone</text>
<polygon fill="none" stroke="#000000" points="95,-125.2 95,-147.2 170,-147.2 170,-125.2 95,-125.2"/>
<text text-anchor="start" x="98" y="-132.9" font-family="Helvetica,sans-Serif" font-size="11.00" fill="#000000">varchar[100]</text>
<polygon fill="none" stroke="#000000" points="10,-103.2 10,-125.2 95,-125.2 95,-103.2 10,-103.2"/>
<text text-anchor="start" x="30" y="-110.3" font-family="Helvetica,sans-Serif" font-size="11.00" fill="#000000">created_at</text>
<polygon fill="none" stroke="#000000" points="95,-103.2 95,-125.2 170,-125.2 170,-103.2 95,-103.2"/>
<text text-anchor="start" x="97.9666" y="-110.9" font-family="Helvetica,sans-Serif" font-size="11.00" fill="#000000">timestamp[19]</text>
<polygon fill="none" stroke="#000000" points="10,-81.2 10,-103.2 95,-103.2 95,-81.2 10,-81.2"/>
<text text-anchor="start" x="30" y="-88.3" font-family="Helvetica,sans-Serif" font-size="11.00" fill="#000000">updated_at</text>
<polygon fill="none" stroke="#000000" points="95,-81.2 95,-103.2 170,-103.2 170,-81.2 95,-81.2"/>
<text text-anchor="start" x="97.9666" y="-88.9" font-family="Helvetica,sans-Serif" font-size="11.00" fill="#000000">timestamp[19]</text>
<polygon fill="none" stroke="#000000" points="10,-59.2 10,-81.2 95,-81.2 95,-59.2 10,-59.2"/>
<text text-anchor="start" x="30" y="-66.3" font-family="Helvetica,sans-Serif" font-size="11.00" fill="#000000">deleted_at</text>
<polygon fill="none" stroke="#000000" points="95,-59.2 95,-81.2 170,-81.2 170,-59.2 95,-59.2"/>
<text text-anchor="start" x="97.9666" y="-66.9" font-family="Helvetica,sans-Serif" font-size="11.00" fill="#000000">timestamp[19]</text>
<polygon fill="#ffffff" stroke="transparent" points="10,-40.2 10,-59.2 44,-59.2 44,-40.2 10,-40.2"/>
<polygon fill="none" stroke="#000000" points="10,-40.2 10,-59.2 44,-59.2 44,-40.2 10,-40.2"/>
<text text-anchor="start" x="13" y="-46.3" font-family="Helvetica,sans-Serif" font-size="11.00" fill="#000000">&lt; 0</text>
<polygon fill="#ffffff" stroke="transparent" points="44,-40.2 44,-59.2 95,-59.2 95,-40.2 44,-40.2"/>
<polygon fill="none" stroke="#000000" points="44,-40.2 44,-59.2 95,-59.2 95,-40.2 44,-40.2"/>
<text text-anchor="start" x="59.6105" y="-46.3" font-family="Helvetica,sans-Serif" font-size="11.00" fill="#000000">0 rows</text>
<polygon fill="#ffffff" stroke="transparent" points="95,-40.2 95,-59.2 170,-59.2 170,-40.2 95,-40.2"/>
<polygon fill="none" stroke="#000000" points="95,-40.2 95,-59.2 170,-59.2 170,-40.2 95,-40.2"/>
<text text-anchor="start" x="151.4053" y="-46.3" font-family="Helvetica,sans-Serif" font-size="11.00" fill="#000000">2 &gt;</text>
<polygon fill="none" stroke="#000000" stroke-width="2" points="9,-39.2 9,-259.2 171,-259.2 171,-39.2 9,-39.2"/>
</a>
</g>
</g>
<!-- gyms_has_users&#45;&gt;users -->
<g id="edge1" class="edge">
<title>gyms_has_users:w&#45;&gt;users:e</title>
<path fill="none" stroke="#000000" d="M219.9243,-264.1075C200.1758,-254.248 198.6462,-224.2 170,-224.2"/>
<polygon fill="#000000" stroke="#000000" points="226.1864,-265.4833 233.2275,-270.7161 230.0932,-266.3416 234,-267.2 234,-267.2 234,-267.2 230.0932,-266.3416 234.7725,-263.6839 226.1864,-265.4833 226.1864,-265.4833"/>
<ellipse fill="none" stroke="#000000" cx="223.0609" cy="-264.7966" rx="3.2" ry="3.2"/>
</g>
<!-- subscriptions -->
<g id="node3" class="node">
<title>subscriptions</title>
<g id="a_node3"><a xlink:href="../../tables/subscriptions.html" xlink:title="subscriptions" target="_top">
<polygon fill="#ffffff" stroke="transparent" points="221,-88.7 221,-215.7 373,-215.7 373,-88.7 221,-88.7"/>
<polygon fill="#f5f5f5" stroke="transparent" points="221,-192.2 221,-215.2 373,-215.2 373,-192.2 221,-192.2"/>
<polygon fill="none" stroke="#000000" points="221,-192.2 221,-215.2 373,-215.2 373,-192.2 221,-192.2"/>
<text text-anchor="start" x="226" y="-201.3" font-family="Helvetica,sans-Serif" font-weight="bold" font-size="11.00" fill="#000000">subscriptions</text>
<text text-anchor="start" x="338.0437" y="-200.3" font-family="Helvetica,sans-Serif" font-size="11.00" fill="#000000">[table]</text>
<polygon fill="none" stroke="#000000" points="221,-170.2 221,-192.2 373,-192.2 373,-170.2 221,-170.2"/>
<image xlink:href="../../images/primaryKeys.png" width="11px" height="12px" preserveAspectRatio="xMinYMin meet" x="226" y="-187.2"/>
<text text-anchor="start" x="241" y="-177.3" font-family="Helvetica,sans-Serif" font-size="11.00" fill="#000000">users_id</text>
<polygon fill="#ffffff" stroke="transparent" points="221,-148.2 221,-170.2 373,-170.2 373,-148.2 221,-148.2"/>
<polygon fill="none" stroke="#000000" points="221,-148.2 221,-170.2 373,-170.2 373,-148.2 221,-148.2"/>
<image xlink:href="../../images/foreignKeys.png" width="11px" height="12px" preserveAspectRatio="xMinYMin meet" x="226" y="-165.2"/>
<text text-anchor="start" x="241" y="-155.3" font-family="Helvetica,sans-Serif" font-size="11.00" fill="#000000">payment_procesors_id</text>
<polygon fill="none" stroke="#000000" points="221,-126.2 221,-148.2 373,-148.2 373,-126.2 221,-126.2"/>
<image xlink:href="../../images/primaryKeys.png" width="11px" height="12px" preserveAspectRatio="xMinYMin meet" x="226" y="-143.2"/>
<text text-anchor="start" x="241" y="-133.3" font-family="Helvetica,sans-Serif" font-size="11.00" fill="#000000">plans_id</text>
<polygon fill="none" stroke="#000000" points="221,-107.2 221,-126.2 373,-126.2 373,-107.2 221,-107.2"/>
<text text-anchor="start" x="224" y="-113.3" font-family="Helvetica,sans-Serif" font-size="11.00" fill="#000000">...</text>
<polygon fill="#ffffff" stroke="transparent" points="221,-88.2 221,-107.2 278,-107.2 278,-88.2 221,-88.2"/>
<polygon fill="none" stroke="#000000" points="221,-88.2 221,-107.2 278,-107.2 278,-88.2 221,-88.2"/>
<text text-anchor="start" x="224" y="-94.3" font-family="Helvetica,sans-Serif" font-size="11.00" fill="#000000">&lt; 3</text>
<polygon fill="#ffffff" stroke="transparent" points="278,-88.2 278,-107.2 334,-107.2 334,-88.2 278,-88.2"/>
<polygon fill="none" stroke="#000000" points="278,-88.2 278,-107.2 334,-107.2 334,-88.2 278,-88.2"/>
<text text-anchor="start" x="298.6105" y="-94.3" font-family="Helvetica,sans-Serif" font-size="11.00" fill="#000000">0 rows</text>
<polygon fill="#ffffff" stroke="transparent" points="334,-88.2 334,-107.2 373,-107.2 373,-88.2 334,-88.2"/>
<polygon fill="none" stroke="#000000" points="334,-88.2 334,-107.2 373,-107.2 373,-88.2 334,-88.2"/>
<text text-anchor="start" x="354.4053" y="-94.3" font-family="Helvetica,sans-Serif" font-size="11.00" fill="#000000">2 &gt;</text>
</a>
</g>
</g>
<!-- subscriptions&#45;&gt;users -->
<g id="edge2" class="edge">
<title>subscriptions:w&#45;&gt;users:e</title>
<path fill="none" stroke="#000000" d="M206.9939,-185.8018C193.1566,-196.8946 193.6259,-224.2 170,-224.2"/>
<polygon fill="#000000" stroke="#000000" points="213.3997,-183.6971 222.1237,-184.6201 217.1999,-182.4486 221,-181.2 221,-181.2 221,-181.2 217.1999,-182.4486 219.8763,-177.7799 213.3997,-183.6971 213.3997,-183.6971"/>
<ellipse fill="none" stroke="#000000" cx="210.3596" cy="-184.696" rx="3.2" ry="3.2"/>
</g>
</g>
</svg>
