<?xml version="1.0" encoding="UTF-8" standalone="no"?>
<!DOCTYPE svg PUBLIC "-//W3C//DTD SVG 1.1//EN"
 "http://www.w3.org/Graphics/SVG/1.1/DTD/svg11.dtd">
<!-- Generated by graphviz version 2.40.1 (20161225.0304)
 -->
<!-- Title: oneDegreeRelationshipsDiagram Pages: 1 -->
<svg width="367pt" height="285pt"
 viewBox="0.00 0.00 367.00 284.70" xmlns="http://www.w3.org/2000/svg" xmlns:xlink="http://www.w3.org/1999/xlink">
<g id="graph0" class="graph" transform="scale(1 1) rotate(0) translate(4 280.7)">
<title>oneDegreeRelationshipsDiagram</title>
<polygon fill="#ffffff" stroke="transparent" points="-4,4 -4,-280.7 363,-280.7 363,4 -4,4"/>
<text text-anchor="middle" x="72.4936" y="-7.3" font-family="Helvetica,sans-Serif" font-size="11.00" fill="#000000">Generated by SchemaSpy</text>
<!-- gyms_has_users -->
<g id="node1" class="node">
<title>gyms_has_users</title>
<g id="a_node1"><a xlink:href="../../tables/gyms_has_users.html" xlink:title="gyms_has_users" target="_top">
<polygon fill="#ffffff" stroke="transparent" points="212,-186.7 212,-272.7 338,-272.7 338,-186.7 212,-186.7"/>
<polygon fill="#f5f5f5" stroke="transparent" points="212,-249.7 212,-272.7 338,-272.7 338,-249.7 212,-249.7"/>
<polygon fill="none" stroke="#000000" points="212,-249.7 212,-272.7 338,-272.7 338,-249.7 212,-249.7"/>
<text text-anchor="start" x="216.936" y="-258.8" font-family="Helvetica,sans-Serif" font-weight="bold" font-size="11.00" fill="#000000">gyms_has_users</text>
<text text-anchor="start" x="303.5219" y="-257.8" font-family="Helvetica,sans-Serif" font-size="11.00" fill="#000000">[table]</text>
<polygon fill="none" stroke="#000000" points="212,-227.7 212,-249.7 338,-249.7 338,-227.7 212,-227.7"/>
<image xlink:href="../../images/primaryKeys.png" width="11px" height="12px" preserveAspectRatio="xMinYMin meet" x="217" y="-244.7"/>
<text text-anchor="start" x="236" y="-234.8" font-family="Helvetica,sans-Serif" font-size="11.00" fill="#000000">gyms_id</text>
<polygon fill="none" stroke="#000000" points="212,-205.7 212,-227.7 338,-227.7 338,-205.7 212,-205.7"/>
<image xlink:href="../../images/primaryKeys.png" width="11px" height="12px" preserveAspectRatio="xMinYMin meet" x="217" y="-222.7"/>
<text text-anchor="start" x="236" y="-212.8" font-family="Helvetica,sans-Serif" font-size="11.00" fill="#000000">users_id</text>
<polygon fill="#ffffff" stroke="transparent" points="212,-186.7 212,-205.7 256,-205.7 256,-186.7 212,-186.7"/>
<polygon fill="none" stroke="#000000" points="212,-186.7 212,-205.7 256,-205.7 256,-186.7 212,-186.7"/>
<text text-anchor="start" x="215" y="-192.8" font-family="Helvetica,sans-Serif" font-size="11.00" fill="#000000">&lt; 2</text>
<polygon fill="#ffffff" stroke="transparent" points="256,-186.7 256,-205.7 305,-205.7 305,-186.7 256,-186.7"/>
<polygon fill="none" stroke="#000000" points="256,-186.7 256,-205.7 305,-205.7 305,-186.7 256,-186.7"/>
<text text-anchor="start" x="269.6105" y="-192.8" font-family="Helvetica,sans-Serif" font-size="11.00" fill="#000000">0 rows</text>
<polygon fill="#ffffff" stroke="transparent" points="305,-186.7 305,-205.7 338,-205.7 338,-186.7 305,-186.7"/>
<polygon fill="none" stroke="#000000" points="305,-186.7 305,-205.7 338,-205.7 338,-186.7 305,-186.7"/>
<text text-anchor="start" x="319.4053" y="-192.8" font-family="Helvetica,sans-Serif" font-size="11.00" fill="#000000">2 &gt;</text>
</a>
</g>
</g>
<!-- users -->
<g id="node2" class="node">
<title>users</title>
<g id="a_node2"><a xlink:href="../../tables/users.html" xlink:title="users" target="_top">
<polygon fill="#ffffff" stroke="transparent" points="8,-97.7 8,-209.7 150,-209.7 150,-97.7 8,-97.7"/>
<polygon fill="#f5f5f5" stroke="transparent" points="10,-184.7 10,-207.7 148,-207.7 148,-184.7 10,-184.7"/>
<polygon fill="none" stroke="#000000" points="10,-184.7 10,-207.7 148,-207.7 148,-184.7 10,-184.7"/>
<text text-anchor="start" x="15" y="-193.8" font-family="Helvetica,sans-Serif" font-weight="bold" font-size="11.00" fill="#000000">users</text>
<text text-anchor="start" x="113.0437" y="-192.8" font-family="Helvetica,sans-Serif" font-size="11.00" fill="#000000">[table]</text>
<polygon fill="none" stroke="#000000" points="10,-162.7 10,-184.7 87,-184.7 87,-162.7 10,-162.7"/>
<image xlink:href="../../images/primaryKeys.png" width="11px" height="12px" preserveAspectRatio="xMinYMin meet" x="15" y="-179.7"/>
<text text-anchor="start" x="30" y="-169.8" font-family="Helvetica,sans-Serif" font-size="11.00" fill="#000000">id</text>
<polygon fill="none" stroke="#000000" points="87,-162.7 87,-184.7 148,-184.7 148,-162.7 87,-162.7"/>
<text text-anchor="start" x="90" y="-170.4" font-family="Helvetica,sans-Serif" font-size="11.00" fill="#000000">int[10]</text>
<polygon fill="#ffffff" stroke="transparent" points="10,-140.7 10,-162.7 87,-162.7 87,-140.7 10,-140.7"/>
<polygon fill="none" stroke="#000000" points="10,-140.7 10,-162.7 87,-162.7 87,-140.7 10,-140.7"/>
<text text-anchor="start" x="30" y="-147.8" font-family="Helvetica,sans-Serif" font-size="11.00" fill="#000000">email</text>
<polygon fill="none" stroke="#000000" points="87,-140.7 87,-162.7 148,-162.7 148,-140.7 87,-140.7"/>
<text text-anchor="start" x="89.994" y="-148.4" font-family="Helvetica,sans-Serif" font-size="11.00" fill="#000000">varchar[45]</text>
<polygon fill="none" stroke="#000000" points="10,-118.7 10,-140.7 87,-140.7 87,-118.7 10,-118.7"/>
<text text-anchor="start" x="30" y="-125.8" font-family="Helvetica,sans-Serif" font-size="11.00" fill="#000000">password</text>
<polygon fill="none" stroke="#000000" points="87,-118.7 87,-140.7 148,-140.7 148,-118.7 87,-118.7"/>
<text text-anchor="start" x="89.994" y="-126.4" font-family="Helvetica,sans-Serif" font-size="11.00" fill="#000000">varchar[45]</text>
<polygon fill="#ffffff" stroke="transparent" points="10,-99.7 10,-118.7 40,-118.7 40,-99.7 10,-99.7"/>
<polygon fill="none" stroke="#000000" points="10,-99.7 10,-118.7 40,-118.7 40,-99.7 10,-99.7"/>
<text text-anchor="start" x="13" y="-105.8" font-family="Helvetica,sans-Serif" font-size="11.00" fill="#000000">&lt; 0</text>
<polygon fill="#ffffff" stroke="transparent" points="40,-99.7 40,-118.7 87,-118.7 87,-99.7 40,-99.7"/>
<polygon fill="none" stroke="#000000" points="40,-99.7 40,-118.7 87,-118.7 87,-99.7 40,-99.7"/>
<text text-anchor="start" x="51.6105" y="-105.8" font-family="Helvetica,sans-Serif" font-size="11.00" fill="#000000">0 rows</text>
<polygon fill="#ffffff" stroke="transparent" points="87,-99.7 87,-118.7 148,-118.7 148,-99.7 87,-99.7"/>
<polygon fill="none" stroke="#000000" points="87,-99.7 87,-118.7 148,-118.7 148,-99.7 87,-99.7"/>
<text text-anchor="start" x="129.4053" y="-105.8" font-family="Helvetica,sans-Serif" font-size="11.00" fill="#000000">2 &gt;</text>
<polygon fill="none" stroke="#000000" stroke-width="2" points="9,-98.7 9,-208.7 149,-208.7 149,-98.7 9,-98.7"/>
</a>
</g>
</g>
<!-- gyms_has_users&#45;&gt;users -->
<g id="edge1" class="edge">
<title>gyms_has_users:w&#45;&gt;users:e</title>
<path fill="none" stroke="#000000" d="M197.9243,-213.6075C178.1758,-203.748 176.6462,-173.7 148,-173.7"/>
<polygon fill="#000000" stroke="#000000" points="204.1864,-214.9833 211.2275,-220.2161 208.0932,-215.8416 212,-216.7 212,-216.7 212,-216.7 208.0932,-215.8416 212.7725,-213.1839 204.1864,-214.9833 204.1864,-214.9833"/>
<ellipse fill="none" stroke="#000000" cx="201.0609" cy="-214.2966" rx="3.2" ry="3.2"/>
</g>
<!-- subscriptions -->
<g id="node3" class="node">
<title>subscriptions</title>
<g id="a_node3"><a xlink:href="../../tables/subscriptions.html" xlink:title="subscriptions" target="_top">
<polygon fill="#ffffff" stroke="transparent" points="199,-38.2 199,-165.2 351,-165.2 351,-38.2 199,-38.2"/>
<polygon fill="#f5f5f5" stroke="transparent" points="199,-141.7 199,-164.7 351,-164.7 351,-141.7 199,-141.7"/>
<polygon fill="none" stroke="#000000" points="199,-141.7 199,-164.7 351,-164.7 351,-141.7 199,-141.7"/>
<text text-anchor="start" x="204" y="-150.8" font-family="Helvetica,sans-Serif" font-weight="bold" font-size="11.00" fill="#000000">subscriptions</text>
<text text-anchor="start" x="316.0437" y="-149.8" font-family="Helvetica,sans-Serif" font-size="11.00" fill="#000000">[table]</text>
<polygon fill="none" stroke="#000000" points="199,-119.7 199,-141.7 351,-141.7 351,-119.7 199,-119.7"/>
<image xlink:href="../../images/primaryKeys.png" width="11px" height="12px" preserveAspectRatio="xMinYMin meet" x="204" y="-136.7"/>
<text text-anchor="start" x="219" y="-126.8" font-family="Helvetica,sans-Serif" font-size="11.00" fill="#000000">users_id</text>
<polygon fill="#ffffff" stroke="transparent" points="199,-97.7 199,-119.7 351,-119.7 351,-97.7 199,-97.7"/>
<polygon fill="none" stroke="#000000" points="199,-97.7 199,-119.7 351,-119.7 351,-97.7 199,-97.7"/>
<image xlink:href="../../images/foreignKeys.png" width="11px" height="12px" preserveAspectRatio="xMinYMin meet" x="204" y="-114.7"/>
<text text-anchor="start" x="219" y="-104.8" font-family="Helvetica,sans-Serif" font-size="11.00" fill="#000000">payment_procesors_id</text>
<polygon fill="none" stroke="#000000" points="199,-75.7 199,-97.7 351,-97.7 351,-75.7 199,-75.7"/>
<image xlink:href="../../images/primaryKeys.png" width="11px" height="12px" preserveAspectRatio="xMinYMin meet" x="204" y="-92.7"/>
<text text-anchor="start" x="219" y="-82.8" font-family="Helvetica,sans-Serif" font-size="11.00" fill="#000000">plans_id</text>
<polygon fill="none" stroke="#000000" points="199,-56.7 199,-75.7 351,-75.7 351,-56.7 199,-56.7"/>
<text text-anchor="start" x="202" y="-62.8" font-family="Helvetica,sans-Serif" font-size="11.00" fill="#000000">...</text>
<polygon fill="#ffffff" stroke="transparent" points="199,-37.7 199,-56.7 256,-56.7 256,-37.7 199,-37.7"/>
<polygon fill="none" stroke="#000000" points="199,-37.7 199,-56.7 256,-56.7 256,-37.7 199,-37.7"/>
<text text-anchor="start" x="202" y="-43.8" font-family="Helvetica,sans-Serif" font-size="11.00" fill="#000000">&lt; 3</text>
<polygon fill="#ffffff" stroke="transparent" points="256,-37.7 256,-56.7 312,-56.7 312,-37.7 256,-37.7"/>
<polygon fill="none" stroke="#000000" points="256,-37.7 256,-56.7 312,-56.7 312,-37.7 256,-37.7"/>
<text text-anchor="start" x="276.6105" y="-43.8" font-family="Helvetica,sans-Serif" font-size="11.00" fill="#000000">0 rows</text>
<polygon fill="#ffffff" stroke="transparent" points="312,-37.7 312,-56.7 351,-56.7 351,-37.7 312,-37.7"/>
<polygon fill="none" stroke="#000000" points="312,-37.7 312,-56.7 351,-56.7 351,-37.7 312,-37.7"/>
<text text-anchor="start" x="332.4053" y="-43.8" font-family="Helvetica,sans-Serif" font-size="11.00" fill="#000000">2 &gt;</text>
</a>
</g>
</g>
<!-- subscriptions&#45;&gt;users -->
<g id="edge2" class="edge">
<title>subscriptions:w&#45;&gt;users:e</title>
<path fill="none" stroke="#000000" d="M184.9939,-135.3018C171.1566,-146.3946 171.6259,-173.7 148,-173.7"/>
<polygon fill="#000000" stroke="#000000" points="191.3997,-133.1971 200.1237,-134.1201 195.1999,-131.9486 199,-130.7 199,-130.7 199,-130.7 195.1999,-131.9486 197.8763,-127.2799 191.3997,-133.1971 191.3997,-133.1971"/>
<ellipse fill="none" stroke="#000000" cx="188.3596" cy="-134.196" rx="3.2" ry="3.2"/>
</g>
</g>
</svg>
