<?xml version="1.0" encoding="UTF-8" standalone="no"?>
<!DOCTYPE svg PUBLIC "-//W3C//DTD SVG 1.1//EN"
 "http://www.w3.org/Graphics/SVG/1.1/DTD/svg11.dtd">
<!-- Generated by graphviz version 2.40.1 (20161225.0304)
 -->
<!-- Title: twoDegreesRelationshipsDiagram Pages: 1 -->
<svg width="506pt" height="409pt"
 viewBox="0.00 0.00 506.00 409.20" xmlns="http://www.w3.org/2000/svg" xmlns:xlink="http://www.w3.org/1999/xlink">
<g id="graph0" class="graph" transform="scale(1 1) rotate(0) translate(4 405.2)">
<title>twoDegreesRelationshipsDiagram</title>
<polygon fill="#ffffff" stroke="transparent" points="-4,4 -4,-405.2 502,-405.2 502,4 -4,4"/>
<text text-anchor="middle" x="72.4936" y="-7.3" font-family="Helvetica,sans-Serif" font-size="11.00" fill="#000000">Generated by SchemaSpy</text>
<!-- gymnasts -->
<g id="node1" class="node">
<title>gymnasts</title>
<g id="a_node1"><a xlink:href="../../tables/gymnasts.html" xlink:title="gymnasts" target="_top">
<polygon fill="#ffffff" stroke="transparent" points="400,-293.2 400,-354.2 490,-354.2 490,-293.2 400,-293.2"/>
<polygon fill="#f5f5f5" stroke="transparent" points="400,-330.7 400,-353.7 490,-353.7 490,-330.7 400,-330.7"/>
<polygon fill="none" stroke="#000000" points="400,-330.7 400,-353.7 490,-353.7 490,-330.7 400,-330.7"/>
<text text-anchor="start" x="404.9683" y="-339.8" font-family="Helvetica,sans-Serif" font-weight="bold" font-size="11.00" fill="#000000">gymnasts</text>
<text text-anchor="start" x="455.5219" y="-338.8" font-family="Helvetica,sans-Serif" font-size="11.00" fill="#000000">[table]</text>
<polygon fill="none" stroke="#000000" points="400,-311.7 400,-330.7 490,-330.7 490,-311.7 400,-311.7"/>
<text text-anchor="start" x="403" y="-317.8" font-family="Helvetica,sans-Serif" font-size="11.00" fill="#000000">...</text>
<polygon fill="#ffffff" stroke="transparent" points="400,-292.7 400,-311.7 426,-311.7 426,-292.7 400,-292.7"/>
<polygon fill="none" stroke="#000000" points="400,-292.7 400,-311.7 426,-311.7 426,-292.7 400,-292.7"/>
<text text-anchor="start" x="403" y="-298.8" font-family="Helvetica,sans-Serif" font-size="11.00" fill="#000000">&lt; 2</text>
<polygon fill="#ffffff" stroke="transparent" points="426,-292.7 426,-311.7 466,-311.7 466,-292.7 426,-292.7"/>
<polygon fill="none" stroke="#000000" points="426,-292.7 426,-311.7 466,-311.7 466,-292.7 426,-292.7"/>
<text text-anchor="start" x="430.6105" y="-298.8" font-family="Helvetica,sans-Serif" font-size="11.00" fill="#000000">0 rows</text>
<polygon fill="#ffffff" stroke="transparent" points="466,-292.7 466,-311.7 490,-311.7 490,-292.7 466,-292.7"/>
<polygon fill="none" stroke="#000000" points="466,-292.7 466,-311.7 490,-311.7 490,-292.7 466,-292.7"/>
<text text-anchor="start" x="471.4053" y="-298.8" font-family="Helvetica,sans-Serif" font-size="11.00" fill="#000000">4 &gt;</text>
</a>
</g>
</g>
<!-- gyms_has_users -->
<g id="node2" class="node">
<title>gyms_has_users</title>
<g id="a_node2"><a xlink:href="../../tables/gyms_has_users.html" xlink:title="gyms_has_users" target="_top">
<polygon fill="#ffffff" stroke="transparent" points="212,-279.7 212,-365.7 338,-365.7 338,-279.7 212,-279.7"/>
<polygon fill="#f5f5f5" stroke="transparent" points="212,-342.7 212,-365.7 338,-365.7 338,-342.7 212,-342.7"/>
<polygon fill="none" stroke="#000000" points="212,-342.7 212,-365.7 338,-365.7 338,-342.7 212,-342.7"/>
<text text-anchor="start" x="216.936" y="-351.8" font-family="Helvetica,sans-Serif" font-weight="bold" font-size="11.00" fill="#000000">gyms_has_users</text>
<text text-anchor="start" x="303.5219" y="-350.8" font-family="Helvetica,sans-Serif" font-size="11.00" fill="#000000">[table]</text>
<polygon fill="none" stroke="#000000" points="212,-320.7 212,-342.7 338,-342.7 338,-320.7 212,-320.7"/>
<image xlink:href="../../images/primaryKeys.png" width="11px" height="12px" preserveAspectRatio="xMinYMin meet" x="217" y="-337.7"/>
<text text-anchor="start" x="236" y="-327.8" font-family="Helvetica,sans-Serif" font-size="11.00" fill="#000000">gyms_id</text>
<polygon fill="none" stroke="#000000" points="212,-298.7 212,-320.7 338,-320.7 338,-298.7 212,-298.7"/>
<image xlink:href="../../images/primaryKeys.png" width="11px" height="12px" preserveAspectRatio="xMinYMin meet" x="217" y="-315.7"/>
<text text-anchor="start" x="236" y="-305.8" font-family="Helvetica,sans-Serif" font-size="11.00" fill="#000000">users_id</text>
<polygon fill="#ffffff" stroke="transparent" points="212,-279.7 212,-298.7 256,-298.7 256,-279.7 212,-279.7"/>
<polygon fill="none" stroke="#000000" points="212,-279.7 212,-298.7 256,-298.7 256,-279.7 212,-279.7"/>
<text text-anchor="start" x="215" y="-285.8" font-family="Helvetica,sans-Serif" font-size="11.00" fill="#000000">&lt; 2</text>
<polygon fill="#ffffff" stroke="transparent" points="256,-279.7 256,-298.7 305,-298.7 305,-279.7 256,-279.7"/>
<polygon fill="none" stroke="#000000" points="256,-279.7 256,-298.7 305,-298.7 305,-279.7 256,-279.7"/>
<text text-anchor="start" x="269.6105" y="-285.8" font-family="Helvetica,sans-Serif" font-size="11.00" fill="#000000">0 rows</text>
<polygon fill="#ffffff" stroke="transparent" points="305,-279.7 305,-298.7 338,-298.7 338,-279.7 305,-279.7"/>
<polygon fill="none" stroke="#000000" points="305,-279.7 305,-298.7 338,-298.7 338,-279.7 305,-279.7"/>
<text text-anchor="start" x="319.4053" y="-285.8" font-family="Helvetica,sans-Serif" font-size="11.00" fill="#000000">2 &gt;</text>
</a>
</g>
</g>
<!-- gymnasts&#45;&gt;gyms_has_users -->
<g id="edge1" class="edge">
<title>gymnasts:w&#45;&gt;gyms_has_users:e</title>
<path fill="none" stroke="#000000" d="M385.296,-321.8772C368.6592,-324.7149 360.3013,-331.7 338,-331.7"/>
<polygon fill="#000000" stroke="#000000" points="392.0255,-321.3385 400.2873,-324.2885 396.0128,-321.0192 400,-320.7 400,-320.7 400,-320.7 396.0128,-321.0192 399.7127,-317.1115 392.0255,-321.3385 392.0255,-321.3385"/>
<ellipse fill="none" stroke="#000000" cx="388.8357" cy="-321.5939" rx="3.2" ry="3.2"/>
</g>
<!-- gymnasts&#45;&gt;gyms_has_users -->
<g id="edge2" class="edge">
<title>gymnasts:w&#45;&gt;gyms_has_users:e</title>
<path fill="none" stroke="#000000" d="M385.296,-319.5228C368.6592,-316.6851 360.3013,-309.7 338,-309.7"/>
<polygon fill="#000000" stroke="#000000" points="392.0255,-320.0615 399.7127,-324.2885 396.0128,-320.3808 400,-320.7 400,-320.7 400,-320.7 396.0128,-320.3808 400.2873,-317.1115 392.0255,-320.0615 392.0255,-320.0615"/>
<ellipse fill="none" stroke="#000000" cx="388.8357" cy="-319.8061" rx="3.2" ry="3.2"/>
</g>
<!-- gyms -->
<g id="node3" class="node">
<title>gyms</title>
<g id="a_node3"><a xlink:href="../../tables/gyms.html" xlink:title="gyms" target="_top">
<polygon fill="#ffffff" stroke="transparent" points="43.5,-336.2 43.5,-397.2 114.5,-397.2 114.5,-336.2 43.5,-336.2"/>
<polygon fill="#f5f5f5" stroke="transparent" points="44,-373.7 44,-396.7 115,-396.7 115,-373.7 44,-373.7"/>
<polygon fill="none" stroke="#000000" points="44,-373.7 44,-396.7 115,-396.7 115,-373.7 44,-373.7"/>
<text text-anchor="start" x="49" y="-382.8" font-family="Helvetica,sans-Serif" font-weight="bold" font-size="11.00" fill="#000000">gyms</text>
<text text-anchor="start" x="80.0437" y="-381.8" font-family="Helvetica,sans-Serif" font-size="11.00" fill="#000000">[table]</text>
<polygon fill="none" stroke="#000000" points="44,-354.7 44,-373.7 115,-373.7 115,-354.7 44,-354.7"/>
<text text-anchor="start" x="47" y="-360.8" font-family="Helvetica,sans-Serif" font-size="11.00" fill="#000000">...</text>
<polygon fill="#ffffff" stroke="transparent" points="44,-335.7 44,-354.7 56,-354.7 56,-335.7 44,-335.7"/>
<polygon fill="none" stroke="#000000" points="44,-335.7 44,-354.7 56,-354.7 56,-335.7 44,-335.7"/>
<text text-anchor="start" x="46.9431" y="-341.8" font-family="Helvetica,sans-Serif" font-size="11.00" fill="#000000"> &#160;</text>
<polygon fill="#ffffff" stroke="transparent" points="56,-335.7 56,-354.7 94,-354.7 94,-335.7 56,-335.7"/>
<polygon fill="none" stroke="#000000" points="56,-335.7 56,-354.7 94,-354.7 94,-335.7 56,-335.7"/>
<text text-anchor="start" x="58.8053" y="-341.8" font-family="Helvetica,sans-Serif" font-size="11.00" fill="#000000">0 rows</text>
<polygon fill="#ffffff" stroke="transparent" points="94,-335.7 94,-354.7 115,-354.7 115,-335.7 94,-335.7"/>
<polygon fill="none" stroke="#000000" points="94,-335.7 94,-354.7 115,-354.7 115,-335.7 94,-335.7"/>
<text text-anchor="start" x="96.7027" y="-341.8" font-family="Helvetica,sans-Serif" font-size="11.00" fill="#000000">1 &gt;</text>
</a>
</g>
</g>
<!-- gyms_has_users&#45;&gt;gyms -->
<g id="edge3" class="edge">
<title>gyms_has_users:w&#45;&gt;gyms:e</title>
<path fill="none" stroke="#000000" d="M197.5287,-332.9154C164.6106,-338.7605 155.0766,-363.7 115,-363.7"/>
<polygon fill="#000000" stroke="#000000" points="204.0281,-332.3696 212.3013,-335.2874 208.014,-332.0348 212,-331.7 212,-331.7 212,-331.7 208.014,-332.0348 211.6987,-328.1126 204.0281,-332.3696 204.0281,-332.3696"/>
<ellipse fill="none" stroke="#000000" cx="200.8393" cy="-332.6374" rx="3.2" ry="3.2"/>
</g>
<!-- users -->
<g id="node4" class="node">
<title>users</title>
<g id="a_node4"><a xlink:href="../../tables/users.html" xlink:title="users" target="_top">
<polygon fill="#ffffff" stroke="transparent" points="8,-202.7 8,-314.7 150,-314.7 150,-202.7 8,-202.7"/>
<polygon fill="#f5f5f5" stroke="transparent" points="10,-289.7 10,-312.7 148,-312.7 148,-289.7 10,-289.7"/>
<polygon fill="none" stroke="#000000" points="10,-289.7 10,-312.7 148,-312.7 148,-289.7 10,-289.7"/>
<text text-anchor="start" x="15" y="-298.8" font-family="Helvetica,sans-Serif" font-weight="bold" font-size="11.00" fill="#000000">users</text>
<text text-anchor="start" x="113.0437" y="-297.8" font-family="Helvetica,sans-Serif" font-size="11.00" fill="#000000">[table]</text>
<polygon fill="none" stroke="#000000" points="10,-267.7 10,-289.7 87,-289.7 87,-267.7 10,-267.7"/>
<image xlink:href="../../images/primaryKeys.png" width="11px" height="12px" preserveAspectRatio="xMinYMin meet" x="15" y="-284.7"/>
<text text-anchor="start" x="30" y="-274.8" font-family="Helvetica,sans-Serif" font-size="11.00" fill="#000000">id</text>
<polygon fill="none" stroke="#000000" points="87,-267.7 87,-289.7 148,-289.7 148,-267.7 87,-267.7"/>
<text text-anchor="start" x="90" y="-275.4" font-family="Helvetica,sans-Serif" font-size="11.00" fill="#000000">int[10]</text>
<polygon fill="#ffffff" stroke="transparent" points="10,-245.7 10,-267.7 87,-267.7 87,-245.7 10,-245.7"/>
<polygon fill="none" stroke="#000000" points="10,-245.7 10,-267.7 87,-267.7 87,-245.7 10,-245.7"/>
<text text-anchor="start" x="30" y="-252.8" font-family="Helvetica,sans-Serif" font-size="11.00" fill="#000000">email</text>
<polygon fill="none" stroke="#000000" points="87,-245.7 87,-267.7 148,-267.7 148,-245.7 87,-245.7"/>
<text text-anchor="start" x="89.994" y="-253.4" font-family="Helvetica,sans-Serif" font-size="11.00" fill="#000000">varchar[45]</text>
<polygon fill="none" stroke="#000000" points="10,-223.7 10,-245.7 87,-245.7 87,-223.7 10,-223.7"/>
<text text-anchor="start" x="30" y="-230.8" font-family="Helvetica,sans-Serif" font-size="11.00" fill="#000000">password</text>
<polygon fill="none" stroke="#000000" points="87,-223.7 87,-245.7 148,-245.7 148,-223.7 87,-223.7"/>
<text text-anchor="start" x="89.994" y="-231.4" font-family="Helvetica,sans-Serif" font-size="11.00" fill="#000000">varchar[45]</text>
<polygon fill="#ffffff" stroke="transparent" points="10,-204.7 10,-223.7 40,-223.7 40,-204.7 10,-204.7"/>
<polygon fill="none" stroke="#000000" points="10,-204.7 10,-223.7 40,-223.7 40,-204.7 10,-204.7"/>
<text text-anchor="start" x="13" y="-210.8" font-family="Helvetica,sans-Serif" font-size="11.00" fill="#000000">&lt; 0</text>
<polygon fill="#ffffff" stroke="transparent" points="40,-204.7 40,-223.7 87,-223.7 87,-204.7 40,-204.7"/>
<polygon fill="none" stroke="#000000" points="40,-204.7 40,-223.7 87,-223.7 87,-204.7 40,-204.7"/>
<text text-anchor="start" x="51.6105" y="-210.8" font-family="Helvetica,sans-Serif" font-size="11.00" fill="#000000">0 rows</text>
<polygon fill="#ffffff" stroke="transparent" points="87,-204.7 87,-223.7 148,-223.7 148,-204.7 87,-204.7"/>
<polygon fill="none" stroke="#000000" points="87,-204.7 87,-223.7 148,-223.7 148,-204.7 87,-204.7"/>
<text text-anchor="start" x="129.4053" y="-210.8" font-family="Helvetica,sans-Serif" font-size="11.00" fill="#000000">2 &gt;</text>
<polygon fill="none" stroke="#000000" stroke-width="2" points="9,-203.7 9,-313.7 149,-313.7 149,-203.7 9,-203.7"/>
</a>
</g>
</g>
<!-- gyms_has_users&#45;&gt;users -->
<g id="edge4" class="edge">
<title>gyms_has_users:w&#45;&gt;users:e</title>
<path fill="none" stroke="#000000" d="M197.59,-307.057C179.1159,-299.5603 173.9265,-278.7 148,-278.7"/>
<polygon fill="#000000" stroke="#000000" points="204.1313,-308.2567 211.3505,-313.2409 208.0656,-308.9783 212,-309.7 212,-309.7 212,-309.7 208.0656,-308.9783 212.6495,-306.1591 204.1313,-308.2567 204.1313,-308.2567"/>
<ellipse fill="none" stroke="#000000" cx="200.9838" cy="-307.6794" rx="3.2" ry="3.2"/>
</g>
<!-- payments -->
<g id="node5" class="node">
<title>payments</title>
<g id="a_node5"><a xlink:href="../../tables/payments.html" xlink:title="payments" target="_top">
<polygon fill="#ffffff" stroke="transparent" points="400,-120.2 400,-181.2 490,-181.2 490,-120.2 400,-120.2"/>
<polygon fill="#f5f5f5" stroke="transparent" points="400,-157.7 400,-180.7 490,-180.7 490,-157.7 400,-157.7"/>
<polygon fill="none" stroke="#000000" points="400,-157.7 400,-180.7 490,-180.7 490,-157.7 400,-157.7"/>
<text text-anchor="start" x="404.6608" y="-166.8" font-family="Helvetica,sans-Serif" font-weight="bold" font-size="11.00" fill="#000000">payments</text>
<text text-anchor="start" x="455.5219" y="-165.8" font-family="Helvetica,sans-Serif" font-size="11.00" fill="#000000">[table]</text>
<polygon fill="none" stroke="#000000" points="400,-138.7 400,-157.7 490,-157.7 490,-138.7 400,-138.7"/>
<text text-anchor="start" x="403" y="-144.8" font-family="Helvetica,sans-Serif" font-size="11.00" fill="#000000">...</text>
<polygon fill="#ffffff" stroke="transparent" points="400,-119.7 400,-138.7 430,-138.7 430,-119.7 400,-119.7"/>
<polygon fill="none" stroke="#000000" points="400,-119.7 400,-138.7 430,-138.7 430,-119.7 400,-119.7"/>
<text text-anchor="start" x="403" y="-125.8" font-family="Helvetica,sans-Serif" font-size="11.00" fill="#000000">&lt; 2</text>
<polygon fill="#ffffff" stroke="transparent" points="430,-119.7 430,-138.7 473,-138.7 473,-119.7 430,-119.7"/>
<polygon fill="none" stroke="#000000" points="430,-119.7 430,-138.7 473,-138.7 473,-119.7 430,-119.7"/>
<text text-anchor="start" x="437.6105" y="-125.8" font-family="Helvetica,sans-Serif" font-size="11.00" fill="#000000">0 rows</text>
<polygon fill="#ffffff" stroke="transparent" points="473,-119.7 473,-138.7 490,-138.7 490,-119.7 473,-119.7"/>
<polygon fill="none" stroke="#000000" points="473,-119.7 473,-138.7 490,-138.7 490,-119.7 473,-119.7"/>
<text text-anchor="start" x="480.8862" y="-125.8" font-family="Helvetica,sans-Serif" font-size="11.00" fill="#000000"> &#160;</text>
</a>
</g>
</g>
<!-- subscriptions -->
<g id="node6" class="node">
<title>subscriptions</title>
<g id="a_node6"><a xlink:href="../../tables/subscriptions.html" xlink:title="subscriptions" target="_top">
<polygon fill="#ffffff" stroke="transparent" points="199,-77.2 199,-204.2 351,-204.2 351,-77.2 199,-77.2"/>
<polygon fill="#f5f5f5" stroke="transparent" points="199,-180.7 199,-203.7 351,-203.7 351,-180.7 199,-180.7"/>
<polygon fill="none" stroke="#000000" points="199,-180.7 199,-203.7 351,-203.7 351,-180.7 199,-180.7"/>
<text text-anchor="start" x="204" y="-189.8" font-family="Helvetica,sans-Serif" font-weight="bold" font-size="11.00" fill="#000000">subscriptions</text>
<text text-anchor="start" x="316.0437" y="-188.8" font-family="Helvetica,sans-Serif" font-size="11.00" fill="#000000">[table]</text>
<polygon fill="none" stroke="#000000" points="199,-158.7 199,-180.7 351,-180.7 351,-158.7 199,-158.7"/>
<image xlink:href="../../images/primaryKeys.png" width="11px" height="12px" preserveAspectRatio="xMinYMin meet" x="204" y="-175.7"/>
<text text-anchor="start" x="219" y="-165.8" font-family="Helvetica,sans-Serif" font-size="11.00" fill="#000000">users_id</text>
<polygon fill="#ffffff" stroke="transparent" points="199,-136.7 199,-158.7 351,-158.7 351,-136.7 199,-136.7"/>
<polygon fill="none" stroke="#000000" points="199,-136.7 199,-158.7 351,-158.7 351,-136.7 199,-136.7"/>
<image xlink:href="../../images/foreignKeys.png" width="11px" height="12px" preserveAspectRatio="xMinYMin meet" x="204" y="-153.7"/>
<text text-anchor="start" x="219" y="-143.8" font-family="Helvetica,sans-Serif" font-size="11.00" fill="#000000">payment_procesors_id</text>
<polygon fill="none" stroke="#000000" points="199,-114.7 199,-136.7 351,-136.7 351,-114.7 199,-114.7"/>
<image xlink:href="../../images/primaryKeys.png" width="11px" height="12px" preserveAspectRatio="xMinYMin meet" x="204" y="-131.7"/>
<text text-anchor="start" x="219" y="-121.8" font-family="Helvetica,sans-Serif" font-size="11.00" fill="#000000">plans_id</text>
<polygon fill="none" stroke="#000000" points="199,-95.7 199,-114.7 351,-114.7 351,-95.7 199,-95.7"/>
<text text-anchor="start" x="202" y="-101.8" font-family="Helvetica,sans-Serif" font-size="11.00" fill="#000000">...</text>
<polygon fill="#ffffff" stroke="transparent" points="199,-76.7 199,-95.7 256,-95.7 256,-76.7 199,-76.7"/>
<polygon fill="none" stroke="#000000" points="199,-76.7 199,-95.7 256,-95.7 256,-76.7 199,-76.7"/>
<text text-anchor="start" x="202" y="-82.8" font-family="Helvetica,sans-Serif" font-size="11.00" fill="#000000">&lt; 3</text>
<polygon fill="#ffffff" stroke="transparent" points="256,-76.7 256,-95.7 312,-95.7 312,-76.7 256,-76.7"/>
<polygon fill="none" stroke="#000000" points="256,-76.7 256,-95.7 312,-95.7 312,-76.7 256,-76.7"/>
<text text-anchor="start" x="276.6105" y="-82.8" font-family="Helvetica,sans-Serif" font-size="11.00" fill="#000000">0 rows</text>
<polygon fill="#ffffff" stroke="transparent" points="312,-76.7 312,-95.7 351,-95.7 351,-76.7 312,-76.7"/>
<polygon fill="none" stroke="#000000" points="312,-76.7 312,-95.7 351,-95.7 351,-76.7 312,-76.7"/>
<text text-anchor="start" x="332.4053" y="-82.8" font-family="Helvetica,sans-Serif" font-size="11.00" fill="#000000">2 &gt;</text>
</a>
</g>
</g>
<!-- payments&#45;&gt;subscriptions -->
<g id="edge5" class="edge">
<title>payments:w&#45;&gt;subscriptions:e</title>
<path fill="none" stroke="#000000" d="M385.6297,-144.2625C374.0865,-138.075 368.9041,-125.7 351,-125.7"/>
<polygon fill="#000000" stroke="#000000" points="392.2195,-145.8388 399.1625,-151.2012 396.1098,-146.7694 400,-147.7 400,-147.7 400,-147.7 396.1098,-146.7694 400.8375,-144.1988 392.2195,-145.8388 392.2195,-145.8388"/>
<ellipse fill="none" stroke="#000000" cx="389.1073" cy="-145.0943" rx="3.2" ry="3.2"/>
</g>
<!-- payments&#45;&gt;subscriptions -->
<g id="edge6" class="edge">
<title>payments:w&#45;&gt;subscriptions:e</title>
<path fill="none" stroke="#000000" d="M385.6297,-151.1375C374.0865,-157.325 368.9041,-169.7 351,-169.7"/>
<polygon fill="#000000" stroke="#000000" points="392.2195,-149.5612 400.8375,-151.2012 396.1098,-148.6306 400,-147.7 400,-147.7 400,-147.7 396.1098,-148.6306 399.1625,-144.1988 392.2195,-149.5612 392.2195,-149.5612"/>
<ellipse fill="none" stroke="#000000" cx="389.1073" cy="-150.3057" rx="3.2" ry="3.2"/>
</g>
<!-- subscriptions&#45;&gt;users -->
<g id="edge9" class="edge">
<title>subscriptions:w&#45;&gt;users:e</title>
<path fill="none" stroke="#000000" d="M184.719,-173.5794C156.7911,-192.9966 195.4261,-278.7 148,-278.7"/>
<polygon fill="#000000" stroke="#000000" points="191.2798,-171.7972 199.9437,-173.1741 195.1399,-170.7486 199,-169.7 199,-169.7 199,-169.7 195.1399,-170.7486 198.0563,-166.2259 191.2798,-171.7972 191.2798,-171.7972"/>
<ellipse fill="none" stroke="#000000" cx="188.1917" cy="-172.6361" rx="3.2" ry="3.2"/>
</g>
<!-- payment_procesors -->
<g id="node7" class="node">
<title>payment_procesors</title>
<g id="a_node7"><a xlink:href="../../tables/payment_procesors.html" xlink:title="payment_procesors" target="_top">
<polygon fill="#ffffff" stroke="transparent" points="9.5,-120.2 9.5,-181.2 148.5,-181.2 148.5,-120.2 9.5,-120.2"/>
<polygon fill="#f5f5f5" stroke="transparent" points="10,-157.7 10,-180.7 149,-180.7 149,-157.7 10,-157.7"/>
<polygon fill="none" stroke="#000000" points="10,-157.7 10,-180.7 149,-180.7 149,-157.7 10,-157.7"/>
<text text-anchor="start" x="14.7117" y="-166.8" font-family="Helvetica,sans-Serif" font-weight="bold" font-size="11.00" fill="#000000">payment_procesors</text>
<text text-anchor="start" x="114.5219" y="-165.8" font-family="Helvetica,sans-Serif" font-size="11.00" fill="#000000">[table]</text>
<polygon fill="none" stroke="#000000" points="10,-138.7 10,-157.7 149,-157.7 149,-138.7 10,-138.7"/>
<text text-anchor="start" x="13" y="-144.8" font-family="Helvetica,sans-Serif" font-size="11.00" fill="#000000">...</text>
<polygon fill="#ffffff" stroke="transparent" points="10,-119.7 10,-138.7 56,-138.7 56,-119.7 10,-119.7"/>
<polygon fill="none" stroke="#000000" points="10,-119.7 10,-138.7 56,-138.7 56,-119.7 10,-119.7"/>
<text text-anchor="start" x="13" y="-125.8" font-family="Helvetica,sans-Serif" font-size="11.00" fill="#000000"> &#160;</text>
<polygon fill="#ffffff" stroke="transparent" points="56,-119.7 56,-138.7 111,-138.7 111,-119.7 56,-119.7"/>
<polygon fill="none" stroke="#000000" points="56,-119.7 56,-138.7 111,-138.7 111,-119.7 56,-119.7"/>
<text text-anchor="start" x="75.6105" y="-125.8" font-family="Helvetica,sans-Serif" font-size="11.00" fill="#000000">0 rows</text>
<polygon fill="#ffffff" stroke="transparent" points="111,-119.7 111,-138.7 149,-138.7 149,-119.7 111,-119.7"/>
<polygon fill="none" stroke="#000000" points="111,-119.7 111,-138.7 149,-138.7 149,-119.7 111,-119.7"/>
<text text-anchor="start" x="130.4053" y="-125.8" font-family="Helvetica,sans-Serif" font-size="11.00" fill="#000000">1 &gt;</text>
</a>
</g>
</g>
<!-- subscriptions&#45;&gt;payment_procesors -->
<g id="edge7" class="edge">
<title>subscriptions:w&#45;&gt;payment_procesors:e</title>
<path fill="none" stroke="#000000" d="M184.5647,-147.7C172.8054,-147.7 165.4931,-147.7 149,-147.7"/>
<polygon fill="#000000" stroke="#000000" points="191,-147.7001 199,-151.3 195,-147.7 199,-147.7 199,-147.7 199,-147.7 195,-147.7 199,-144.1 191,-147.7001 191,-147.7001"/>
<ellipse fill="none" stroke="#000000" cx="187.8" cy="-147.7001" rx="3.2" ry="3.2"/>
</g>
<!-- plans -->
<g id="node8" class="node">
<title>plans</title>
<g id="a_node8"><a xlink:href="../../tables/plans.html" xlink:title="plans" target="_top">
<polygon fill="#ffffff" stroke="transparent" points="43.5,-38.2 43.5,-99.2 114.5,-99.2 114.5,-38.2 43.5,-38.2"/>
<polygon fill="#f5f5f5" stroke="transparent" points="44,-75.7 44,-98.7 115,-98.7 115,-75.7 44,-75.7"/>
<polygon fill="none" stroke="#000000" points="44,-75.7 44,-98.7 115,-98.7 115,-75.7 44,-75.7"/>
<text text-anchor="start" x="49" y="-84.8" font-family="Helvetica,sans-Serif" font-weight="bold" font-size="11.00" fill="#000000">plans</text>
<text text-anchor="start" x="80.0437" y="-83.8" font-family="Helvetica,sans-Serif" font-size="11.00" fill="#000000">[table]</text>
<polygon fill="none" stroke="#000000" points="44,-56.7 44,-75.7 115,-75.7 115,-56.7 44,-56.7"/>
<text text-anchor="start" x="47" y="-62.8" font-family="Helvetica,sans-Serif" font-size="11.00" fill="#000000">...</text>
<polygon fill="#ffffff" stroke="transparent" points="44,-37.7 44,-56.7 56,-56.7 56,-37.7 44,-37.7"/>
<polygon fill="none" stroke="#000000" points="44,-37.7 44,-56.7 56,-56.7 56,-37.7 44,-37.7"/>
<text text-anchor="start" x="46.9431" y="-43.8" font-family="Helvetica,sans-Serif" font-size="11.00" fill="#000000"> &#160;</text>
<polygon fill="#ffffff" stroke="transparent" points="56,-37.7 56,-56.7 94,-56.7 94,-37.7 56,-37.7"/>
<polygon fill="none" stroke="#000000" points="56,-37.7 56,-56.7 94,-56.7 94,-37.7 56,-37.7"/>
<text text-anchor="start" x="58.8053" y="-43.8" font-family="Helvetica,sans-Serif" font-size="11.00" fill="#000000">0 rows</text>
<polygon fill="#ffffff" stroke="transparent" points="94,-37.7 94,-56.7 115,-56.7 115,-37.7 94,-37.7"/>
<polygon fill="none" stroke="#000000" points="94,-37.7 94,-56.7 115,-56.7 115,-37.7 94,-37.7"/>
<text text-anchor="start" x="96.7027" y="-43.8" font-family="Helvetica,sans-Serif" font-size="11.00" fill="#000000">1 &gt;</text>
</a>
</g>
</g>
<!-- subscriptions&#45;&gt;plans -->
<g id="edge8" class="edge">
<title>subscriptions:w&#45;&gt;plans:e</title>
<path fill="none" stroke="#000000" d="M184.5021,-123.2736C154.2133,-112.0486 155.3234,-65.7 115,-65.7"/>
<polygon fill="#000000" stroke="#000000" points="191.1097,-124.3794 198.4057,-129.2506 195.0549,-125.0397 199,-125.7 199,-125.7 199,-125.7 195.0549,-125.0397 199.5943,-122.1494 191.1097,-124.3794 191.1097,-124.3794"/>
<ellipse fill="none" stroke="#000000" cx="187.9536" cy="-123.8512" rx="3.2" ry="3.2"/>
</g>
</g>
</svg>
