<?xml version="1.0" encoding="UTF-8" standalone="no"?>
<!DOCTYPE svg PUBLIC "-//W3C//DTD SVG 1.1//EN"
 "http://www.w3.org/Graphics/SVG/1.1/DTD/svg11.dtd">
<!-- Generated by graphviz version 2.40.1 (20161225.0304)
 -->
<!-- Title: oneDegreeRelationshipsDiagram Pages: 1 -->
<svg width="389pt" height="313pt"
 viewBox="0.00 0.00 389.00 313.20" xmlns="http://www.w3.org/2000/svg" xmlns:xlink="http://www.w3.org/1999/xlink">
<g id="graph0" class="graph" transform="scale(1 1) rotate(0) translate(4 309.2)">
<title>oneDegreeRelationshipsDiagram</title>
<polygon fill="#ffffff" stroke="transparent" points="-4,4 -4,-309.2 385,-309.2 385,4 -4,4"/>
<text text-anchor="middle" x="72.4936" y="-7.3" font-family="Helvetica,sans-Serif" font-size="11.00" fill="#000000">Generated by SchemaSpy</text>
<!-- gyms_has_users -->
<g id="node1" class="node">
<title>gyms_has_users</title>
<g id="a_node1"><a xlink:href="../../tables/gyms_has_users.html" xlink:title="gyms_has_users" target="_top">
<polygon fill="#ffffff" stroke="transparent" points="234,-215.2 234,-301.2 360,-301.2 360,-215.2 234,-215.2"/>
<polygon fill="#f5f5f5" stroke="transparent" points="234,-278.2 234,-301.2 360,-301.2 360,-278.2 234,-278.2"/>
<polygon fill="none" stroke="#000000" points="234,-278.2 234,-301.2 360,-301.2 360,-278.2 234,-278.2"/>
<text text-anchor="start" x="238.936" y="-287.3" font-family="Helvetica,sans-Serif" font-weight="bold" font-size="11.00" fill="#000000">gyms_has_users</text>
<text text-anchor="start" x="325.5219" y="-286.3" font-family="Helvetica,sans-Serif" font-size="11.00" fill="#000000">[table]</text>
<polygon fill="none" stroke="#000000" points="234,-256.2 234,-278.2 360,-278.2 360,-256.2 234,-256.2"/>
<image xlink:href="../../images/primaryKeys.png" width="11px" height="12px" preserveAspectRatio="xMinYMin meet" x="239" y="-273.2"/>
<text text-anchor="start" x="258" y="-263.3" font-family="Helvetica,sans-Serif" font-size="11.00" fill="#000000">gym_id</text>
<polygon fill="none" stroke="#000000" points="234,-234.2 234,-256.2 360,-256.2 360,-234.2 234,-234.2"/>
<image xlink:href="../../images/primaryKeys.png" width="11px" height="12px" preserveAspectRatio="xMinYMin meet" x="239" y="-251.2"/>
<text text-anchor="start" x="258" y="-241.3" font-family="Helvetica,sans-Serif" font-size="11.00" fill="#000000">user_id</text>
<polygon fill="#ffffff" stroke="transparent" points="234,-215.2 234,-234.2 278,-234.2 278,-215.2 234,-215.2"/>
<polygon fill="none" stroke="#000000" points="234,-215.2 234,-234.2 278,-234.2 278,-215.2 234,-215.2"/>
<text text-anchor="start" x="237" y="-221.3" font-family="Helvetica,sans-Serif" font-size="11.00" fill="#000000">&lt; 2</text>
<polygon fill="#ffffff" stroke="transparent" points="278,-215.2 278,-234.2 327,-234.2 327,-215.2 278,-215.2"/>
<polygon fill="none" stroke="#000000" points="278,-215.2 278,-234.2 327,-234.2 327,-215.2 278,-215.2"/>
<text text-anchor="start" x="291.6105" y="-221.3" font-family="Helvetica,sans-Serif" font-size="11.00" fill="#000000">0 rows</text>
<polygon fill="#ffffff" stroke="transparent" points="327,-215.2 327,-234.2 360,-234.2 360,-215.2 327,-215.2"/>
<polygon fill="none" stroke="#000000" points="327,-215.2 327,-234.2 360,-234.2 360,-215.2 327,-215.2"/>
<text text-anchor="start" x="341.4053" y="-221.3" font-family="Helvetica,sans-Serif" font-size="11.00" fill="#000000">2 &gt;</text>
</a>
</g>
</g>
<!-- users -->
<g id="node2" class="node">
<title>users</title>
<g id="a_node2"><a xlink:href="../../tables/users.html" xlink:title="users" target="_top">
<polygon fill="#ffffff" stroke="transparent" points="8,-38.2 8,-238.2 172,-238.2 172,-38.2 8,-38.2"/>
<polygon fill="#f5f5f5" stroke="transparent" points="10,-213.2 10,-236.2 170,-236.2 170,-213.2 10,-213.2"/>
<polygon fill="none" stroke="#000000" points="10,-213.2 10,-236.2 170,-236.2 170,-213.2 10,-213.2"/>
<text text-anchor="start" x="15" y="-222.3" font-family="Helvetica,sans-Serif" font-weight="bold" font-size="11.00" fill="#000000">users</text>
<text text-anchor="start" x="135.0437" y="-221.3" font-family="Helvetica,sans-Serif" font-size="11.00" fill="#000000">[table]</text>
<polygon fill="none" stroke="#000000" points="10,-191.2 10,-213.2 95,-213.2 95,-191.2 10,-191.2"/>
<image xlink:href="../../images/primaryKeys.png" width="11px" height="12px" preserveAspectRatio="xMinYMin meet" x="15" y="-208.2"/>
<text text-anchor="start" x="30" y="-198.3" font-family="Helvetica,sans-Serif" font-size="11.00" fill="#000000">id</text>
<polygon fill="none" stroke="#000000" points="95,-191.2 95,-213.2 170,-213.2 170,-191.2 95,-191.2"/>
<text text-anchor="start" x="98" y="-198.9" font-family="Helvetica,sans-Serif" font-size="11.00" fill="#000000">int[10]</text>
<polygon fill="none" stroke="#000000" points="10,-169.2 10,-191.2 95,-191.2 95,-169.2 10,-169.2"/>
<text text-anchor="start" x="30" y="-176.3" font-family="Helvetica,sans-Serif" font-size="11.00" fill="#000000">name</text>
<polygon fill="none" stroke="#000000" points="95,-169.2 95,-191.2 170,-191.2 170,-169.2 95,-169.2"/>
<text text-anchor="start" x="98" y="-176.9" font-family="Helvetica,sans-Serif" font-size="11.00" fill="#000000">varchar[255]</text>
<polygon fill="#ffffff" stroke="transparent" points="10,-147.2 10,-169.2 95,-169.2 95,-147.2 10,-147.2"/>
<polygon fill="none" stroke="#000000" points="10,-147.2 10,-169.2 95,-169.2 95,-147.2 10,-147.2"/>
<text text-anchor="start" x="30" y="-154.3" font-family="Helvetica,sans-Serif" font-size="11.00" fill="#000000">email</text>
<polygon fill="none" stroke="#000000" points="95,-147.2 95,-169.2 170,-169.2 170,-147.2 95,-147.2"/>
<text text-anchor="start" x="98" y="-154.9" font-family="Helvetica,sans-Serif" font-size="11.00" fill="#000000">varchar[45]</text>
<polygon fill="none" stroke="#000000" points="10,-125.2 10,-147.2 95,-147.2 95,-125.2 10,-125.2"/>
<text text-anchor="start" x="30" y="-132.3" font-family="Helvetica,sans-Serif" font-size="11.00" fill="#000000">password</text>
<polygon fill="none" stroke="#000000" points="95,-125.2 95,-147.2 170,-147.2 170,-125.2 95,-125.2"/>
<text text-anchor="start" x="98" y="-132.9" font-family="Helvetica,sans-Serif" font-size="11.00" fill="#000000">varchar[45]</text>
<polygon fill="none" stroke="#000000" points="10,-103.2 10,-125.2 95,-125.2 95,-103.2 10,-103.2"/>
<text text-anchor="start" x="30" y="-110.3" font-family="Helvetica,sans-Serif" font-size="11.00" fill="#000000">created_at</text>
<polygon fill="none" stroke="#000000" points="95,-103.2 95,-125.2 170,-125.2 170,-103.2 95,-103.2"/>
<text text-anchor="start" x="97.9666" y="-110.9" font-family="Helvetica,sans-Serif" font-size="11.00" fill="#000000">timestamp[19]</text>
<polygon fill="none" stroke="#000000" points="10,-81.2 10,-103.2 95,-103.2 95,-81.2 10,-81.2"/>
<text text-anchor="start" x="30" y="-88.3" font-family="Helvetica,sans-Serif" font-size="11.00" fill="#000000">updated_at</text>
<polygon fill="none" stroke="#000000" points="95,-81.2 95,-103.2 170,-103.2 170,-81.2 95,-81.2"/>
<text text-anchor="start" x="97.9666" y="-88.9" font-family="Helvetica,sans-Serif" font-size="11.00" fill="#000000">timestamp[19]</text>
<polygon fill="none" stroke="#000000" points="10,-59.2 10,-81.2 95,-81.2 95,-59.2 10,-59.2"/>
<text text-anchor="start" x="30" y="-66.3" font-family="Helvetica,sans-Serif" font-size="11.00" fill="#000000">deleted_at</text>
<polygon fill="none" stroke="#000000" points="95,-59.2 95,-81.2 170,-81.2 170,-59.2 95,-59.2"/>
<text text-anchor="start" x="97.9666" y="-66.9" font-family="Helvetica,sans-Serif" font-size="11.00" fill="#000000">timestamp[19]</text>
<polygon fill="#ffffff" stroke="transparent" points="10,-40.2 10,-59.2 44,-59.2 44,-40.2 10,-40.2"/>
<polygon fill="none" stroke="#000000" points="10,-40.2 10,-59.2 44,-59.2 44,-40.2 10,-40.2"/>
<text text-anchor="start" x="13" y="-46.3" font-family="Helvetica,sans-Serif" font-size="11.00" fill="#000000">&lt; 0</text>
<polygon fill="#ffffff" stroke="transparent" points="44,-40.2 44,-59.2 95,-59.2 95,-40.2 44,-40.2"/>
<polygon fill="none" stroke="#000000" points="44,-40.2 44,-59.2 95,-59.2 95,-40.2 44,-40.2"/>
<text text-anchor="start" x="59.6105" y="-46.3" font-family="Helvetica,sans-Serif" font-size="11.00" fill="#000000">0 rows</text>
<polygon fill="#ffffff" stroke="transparent" points="95,-40.2 95,-59.2 170,-59.2 170,-40.2 95,-40.2"/>
<polygon fill="none" stroke="#000000" points="95,-40.2 95,-59.2 170,-59.2 170,-40.2 95,-40.2"/>
<text text-anchor="start" x="151.4053" y="-46.3" font-family="Helvetica,sans-Serif" font-size="11.00" fill="#000000">2 &gt;</text>
<polygon fill="none" stroke="#000000" stroke-width="2" points="9,-39.2 9,-237.2 171,-237.2 171,-39.2 9,-39.2"/>
</a>
</g>
</g>
<!-- gyms_has_users&#45;&gt;users -->
<g id="edge1" class="edge">
<title>gyms_has_users:w&#45;&gt;users:e</title>
<path fill="none" stroke="#000000" d="M219.9243,-242.1075C200.1758,-232.248 198.6462,-202.2 170,-202.2"/>
<polygon fill="#000000" stroke="#000000" points="226.1864,-243.4833 233.2275,-248.7161 230.0932,-244.3416 234,-245.2 234,-245.2 234,-245.2 230.0932,-244.3416 234.7725,-241.6839 226.1864,-243.4833 226.1864,-243.4833"/>
<ellipse fill="none" stroke="#000000" cx="223.0609" cy="-242.7966" rx="3.2" ry="3.2"/>
</g>
<!-- subscriptions -->
<g id="node3" class="node">
<title>subscriptions</title>
<g id="a_node3"><a xlink:href="../../tables/subscriptions.html" xlink:title="subscriptions" target="_top">
<polygon fill="#ffffff" stroke="transparent" points="221,-66.7 221,-193.7 373,-193.7 373,-66.7 221,-66.7"/>
<polygon fill="#f5f5f5" stroke="transparent" points="221,-170.2 221,-193.2 373,-193.2 373,-170.2 221,-170.2"/>
<polygon fill="none" stroke="#000000" points="221,-170.2 221,-193.2 373,-193.2 373,-170.2 221,-170.2"/>
<text text-anchor="start" x="226" y="-179.3" font-family="Helvetica,sans-Serif" font-weight="bold" font-size="11.00" fill="#000000">subscriptions</text>
<text text-anchor="start" x="338.0437" y="-178.3" font-family="Helvetica,sans-Serif" font-size="11.00" fill="#000000">[table]</text>
<polygon fill="none" stroke="#000000" points="221,-148.2 221,-170.2 373,-170.2 373,-148.2 221,-148.2"/>
<image xlink:href="../../images/primaryKeys.png" width="11px" height="12px" preserveAspectRatio="xMinYMin meet" x="226" y="-165.2"/>
<text text-anchor="start" x="241" y="-155.3" font-family="Helvetica,sans-Serif" font-size="11.00" fill="#000000">users_id</text>
<polygon fill="#ffffff" stroke="transparent" points="221,-126.2 221,-148.2 373,-148.2 373,-126.2 221,-126.2"/>
<polygon fill="none" stroke="#000000" points="221,-126.2 221,-148.2 373,-148.2 373,-126.2 221,-126.2"/>
<image xlink:href="../../images/foreignKeys.png" width="11px" height="12px" preserveAspectRatio="xMinYMin meet" x="226" y="-143.2"/>
<text text-anchor="start" x="241" y="-133.3" font-family="Helvetica,sans-Serif" font-size="11.00" fill="#000000">payment_procesors_id</text>
<polygon fill="none" stroke="#000000" points="221,-104.2 221,-126.2 373,-126.2 373,-104.2 221,-104.2"/>
<image xlink:href="../../images/primaryKeys.png" width="11px" height="12px" preserveAspectRatio="xMinYMin meet" x="226" y="-121.2"/>
<text text-anchor="start" x="241" y="-111.3" font-family="Helvetica,sans-Serif" font-size="11.00" fill="#000000">plans_id</text>
<polygon fill="none" stroke="#000000" points="221,-85.2 221,-104.2 373,-104.2 373,-85.2 221,-85.2"/>
<text text-anchor="start" x="224" y="-91.3" font-family="Helvetica,sans-Serif" font-size="11.00" fill="#000000">...</text>
<polygon fill="#ffffff" stroke="transparent" points="221,-66.2 221,-85.2 278,-85.2 278,-66.2 221,-66.2"/>
<polygon fill="none" stroke="#000000" points="221,-66.2 221,-85.2 278,-85.2 278,-66.2 221,-66.2"/>
<text text-anchor="start" x="224" y="-72.3" font-family="Helvetica,sans-Serif" font-size="11.00" fill="#000000">&lt; 3</text>
<polygon fill="#ffffff" stroke="transparent" points="278,-66.2 278,-85.2 334,-85.2 334,-66.2 278,-66.2"/>
<polygon fill="none" stroke="#000000" points="278,-66.2 278,-85.2 334,-85.2 334,-66.2 278,-66.2"/>
<text text-anchor="start" x="298.6105" y="-72.3" font-family="Helvetica,sans-Serif" font-size="11.00" fill="#000000">0 rows</text>
<polygon fill="#ffffff" stroke="transparent" points="334,-66.2 334,-85.2 373,-85.2 373,-66.2 334,-66.2"/>
<polygon fill="none" stroke="#000000" points="334,-66.2 334,-85.2 373,-85.2 373,-66.2 334,-66.2"/>
<text text-anchor="start" x="354.4053" y="-72.3" font-family="Helvetica,sans-Serif" font-size="11.00" fill="#000000">2 &gt;</text>
</a>
</g>
</g>
<!-- subscriptions&#45;&gt;users -->
<g id="edge2" class="edge">
<title>subscriptions:w&#45;&gt;users:e</title>
<path fill="none" stroke="#000000" d="M206.9939,-163.8018C193.1566,-174.8946 193.6259,-202.2 170,-202.2"/>
<polygon fill="#000000" stroke="#000000" points="213.3997,-161.6971 222.1237,-162.6201 217.1999,-160.4486 221,-159.2 221,-159.2 221,-159.2 217.1999,-160.4486 219.8763,-155.7799 213.3997,-161.6971 213.3997,-161.6971"/>
<ellipse fill="none" stroke="#000000" cx="210.3596" cy="-162.696" rx="3.2" ry="3.2"/>
</g>
</g>
</svg>
