<?xml version="1.0" encoding="UTF-8" standalone="no"?>
<!DOCTYPE svg PUBLIC "-//W3C//DTD SVG 1.1//EN"
 "http://www.w3.org/Graphics/SVG/1.1/DTD/svg11.dtd">
<!-- Generated by graphviz version 2.40.1 (20161225.0304)
 -->
<!-- Title: twoDegreesRelationshipsDiagram Pages: 1 -->
<svg width="528pt" height="497pt"
 viewBox="0.00 0.00 528.00 497.20" xmlns="http://www.w3.org/2000/svg" xmlns:xlink="http://www.w3.org/1999/xlink">
<g id="graph0" class="graph" transform="scale(1 1) rotate(0) translate(4 493.2)">
<title>twoDegreesRelationshipsDiagram</title>
<polygon fill="#ffffff" stroke="transparent" points="-4,4 -4,-493.2 524,-493.2 524,4 -4,4"/>
<text text-anchor="middle" x="72.4936" y="-7.3" font-family="Helvetica,sans-Serif" font-size="11.00" fill="#000000">Generated by SchemaSpy</text>
<!-- gymnasts -->
<g id="node1" class="node">
<title>gymnasts</title>
<g id="a_node1"><a xlink:href="../../tables/gymnasts.html" xlink:title="gymnasts" target="_top">
<polygon fill="#ffffff" stroke="transparent" points="422,-381.2 422,-442.2 512,-442.2 512,-381.2 422,-381.2"/>
<polygon fill="#f5f5f5" stroke="transparent" points="422,-418.7 422,-441.7 512,-441.7 512,-418.7 422,-418.7"/>
<polygon fill="none" stroke="#000000" points="422,-418.7 422,-441.7 512,-441.7 512,-418.7 422,-418.7"/>
<text text-anchor="start" x="426.9683" y="-427.8" font-family="Helvetica,sans-Serif" font-weight="bold" font-size="11.00" fill="#000000">gymnasts</text>
<text text-anchor="start" x="477.5219" y="-426.8" font-family="Helvetica,sans-Serif" font-size="11.00" fill="#000000">[table]</text>
<polygon fill="none" stroke="#000000" points="422,-399.7 422,-418.7 512,-418.7 512,-399.7 422,-399.7"/>
<text text-anchor="start" x="425" y="-405.8" font-family="Helvetica,sans-Serif" font-size="11.00" fill="#000000">...</text>
<polygon fill="#ffffff" stroke="transparent" points="422,-380.7 422,-399.7 448,-399.7 448,-380.7 422,-380.7"/>
<polygon fill="none" stroke="#000000" points="422,-380.7 422,-399.7 448,-399.7 448,-380.7 422,-380.7"/>
<text text-anchor="start" x="425" y="-386.8" font-family="Helvetica,sans-Serif" font-size="11.00" fill="#000000">&lt; 2</text>
<polygon fill="#ffffff" stroke="transparent" points="448,-380.7 448,-399.7 488,-399.7 488,-380.7 448,-380.7"/>
<polygon fill="none" stroke="#000000" points="448,-380.7 448,-399.7 488,-399.7 488,-380.7 448,-380.7"/>
<text text-anchor="start" x="452.6105" y="-386.8" font-family="Helvetica,sans-Serif" font-size="11.00" fill="#000000">0 rows</text>
<polygon fill="#ffffff" stroke="transparent" points="488,-380.7 488,-399.7 512,-399.7 512,-380.7 488,-380.7"/>
<polygon fill="none" stroke="#000000" points="488,-380.7 488,-399.7 512,-399.7 512,-380.7 488,-380.7"/>
<text text-anchor="start" x="493.4053" y="-386.8" font-family="Helvetica,sans-Serif" font-size="11.00" fill="#000000">4 &gt;</text>
</a>
</g>
</g>
<!-- gyms_has_users -->
<g id="node2" class="node">
<title>gyms_has_users</title>
<g id="a_node2"><a xlink:href="../../tables/gyms_has_users.html" xlink:title="gyms_has_users" target="_top">
<polygon fill="#ffffff" stroke="transparent" points="234,-367.7 234,-453.7 360,-453.7 360,-367.7 234,-367.7"/>
<polygon fill="#f5f5f5" stroke="transparent" points="234,-430.7 234,-453.7 360,-453.7 360,-430.7 234,-430.7"/>
<polygon fill="none" stroke="#000000" points="234,-430.7 234,-453.7 360,-453.7 360,-430.7 234,-430.7"/>
<text text-anchor="start" x="238.936" y="-439.8" font-family="Helvetica,sans-Serif" font-weight="bold" font-size="11.00" fill="#000000">gyms_has_users</text>
<text text-anchor="start" x="325.5219" y="-438.8" font-family="Helvetica,sans-Serif" font-size="11.00" fill="#000000">[table]</text>
<polygon fill="none" stroke="#000000" points="234,-408.7 234,-430.7 360,-430.7 360,-408.7 234,-408.7"/>
<image xlink:href="../../images/primaryKeys.png" width="11px" height="12px" preserveAspectRatio="xMinYMin meet" x="239" y="-425.7"/>
<text text-anchor="start" x="258" y="-415.8" font-family="Helvetica,sans-Serif" font-size="11.00" fill="#000000">gym_id</text>
<polygon fill="none" stroke="#000000" points="234,-386.7 234,-408.7 360,-408.7 360,-386.7 234,-386.7"/>
<image xlink:href="../../images/primaryKeys.png" width="11px" height="12px" preserveAspectRatio="xMinYMin meet" x="239" y="-403.7"/>
<text text-anchor="start" x="258" y="-393.8" font-family="Helvetica,sans-Serif" font-size="11.00" fill="#000000">user_id</text>
<polygon fill="#ffffff" stroke="transparent" points="234,-367.7 234,-386.7 278,-386.7 278,-367.7 234,-367.7"/>
<polygon fill="none" stroke="#000000" points="234,-367.7 234,-386.7 278,-386.7 278,-367.7 234,-367.7"/>
<text text-anchor="start" x="237" y="-373.8" font-family="Helvetica,sans-Serif" font-size="11.00" fill="#000000">&lt; 2</text>
<polygon fill="#ffffff" stroke="transparent" points="278,-367.7 278,-386.7 327,-386.7 327,-367.7 278,-367.7"/>
<polygon fill="none" stroke="#000000" points="278,-367.7 278,-386.7 327,-386.7 327,-367.7 278,-367.7"/>
<text text-anchor="start" x="291.6105" y="-373.8" font-family="Helvetica,sans-Serif" font-size="11.00" fill="#000000">0 rows</text>
<polygon fill="#ffffff" stroke="transparent" points="327,-367.7 327,-386.7 360,-386.7 360,-367.7 327,-367.7"/>
<polygon fill="none" stroke="#000000" points="327,-367.7 327,-386.7 360,-386.7 360,-367.7 327,-367.7"/>
<text text-anchor="start" x="341.4053" y="-373.8" font-family="Helvetica,sans-Serif" font-size="11.00" fill="#000000">2 &gt;</text>
</a>
</g>
</g>
<!-- gymnasts&#45;&gt;gyms_has_users -->
<g id="edge1" class="edge">
<title>gymnasts:w&#45;&gt;gyms_has_users:e</title>
<path fill="none" stroke="#000000" d="M407.296,-409.8772C390.6592,-412.7149 382.3013,-419.7 360,-419.7"/>
<polygon fill="#000000" stroke="#000000" points="414.0255,-409.3385 422.2873,-412.2885 418.0128,-409.0192 422,-408.7 422,-408.7 422,-408.7 418.0128,-409.0192 421.7127,-405.1115 414.0255,-409.3385 414.0255,-409.3385"/>
<ellipse fill="none" stroke="#000000" cx="410.8357" cy="-409.5939" rx="3.2" ry="3.2"/>
</g>
<!-- gymnasts&#45;&gt;gyms_has_users -->
<g id="edge2" class="edge">
<title>gymnasts:w&#45;&gt;gyms_has_users:e</title>
<path fill="none" stroke="#000000" d="M407.296,-407.5228C390.6592,-404.6851 382.3013,-397.7 360,-397.7"/>
<polygon fill="#000000" stroke="#000000" points="414.0255,-408.0615 421.7127,-412.2885 418.0128,-408.3808 422,-408.7 422,-408.7 422,-408.7 418.0128,-408.3808 422.2873,-405.1115 414.0255,-408.0615 414.0255,-408.0615"/>
<ellipse fill="none" stroke="#000000" cx="410.8357" cy="-407.8061" rx="3.2" ry="3.2"/>
</g>
<!-- gyms -->
<g id="node3" class="node">
<title>gyms</title>
<g id="a_node3"><a xlink:href="../../tables/gyms.html" xlink:title="gyms" target="_top">
<polygon fill="#ffffff" stroke="transparent" points="54.5,-424.2 54.5,-485.2 125.5,-485.2 125.5,-424.2 54.5,-424.2"/>
<polygon fill="#f5f5f5" stroke="transparent" points="55,-461.7 55,-484.7 126,-484.7 126,-461.7 55,-461.7"/>
<polygon fill="none" stroke="#000000" points="55,-461.7 55,-484.7 126,-484.7 126,-461.7 55,-461.7"/>
<text text-anchor="start" x="60" y="-470.8" font-family="Helvetica,sans-Serif" font-weight="bold" font-size="11.00" fill="#000000">gyms</text>
<text text-anchor="start" x="91.0437" y="-469.8" font-family="Helvetica,sans-Serif" font-size="11.00" fill="#000000">[table]</text>
<polygon fill="none" stroke="#000000" points="55,-442.7 55,-461.7 126,-461.7 126,-442.7 55,-442.7"/>
<text text-anchor="start" x="58" y="-448.8" font-family="Helvetica,sans-Serif" font-size="11.00" fill="#000000">...</text>
<polygon fill="#ffffff" stroke="transparent" points="55,-423.7 55,-442.7 67,-442.7 67,-423.7 55,-423.7"/>
<polygon fill="none" stroke="#000000" points="55,-423.7 55,-442.7 67,-442.7 67,-423.7 55,-423.7"/>
<text text-anchor="start" x="57.9431" y="-429.8" font-family="Helvetica,sans-Serif" font-size="11.00" fill="#000000"> &#160;</text>
<polygon fill="#ffffff" stroke="transparent" points="67,-423.7 67,-442.7 105,-442.7 105,-423.7 67,-423.7"/>
<polygon fill="none" stroke="#000000" points="67,-423.7 67,-442.7 105,-442.7 105,-423.7 67,-423.7"/>
<text text-anchor="start" x="69.8053" y="-429.8" font-family="Helvetica,sans-Serif" font-size="11.00" fill="#000000">0 rows</text>
<polygon fill="#ffffff" stroke="transparent" points="105,-423.7 105,-442.7 126,-442.7 126,-423.7 105,-423.7"/>
<polygon fill="none" stroke="#000000" points="105,-423.7 105,-442.7 126,-442.7 126,-423.7 105,-423.7"/>
<text text-anchor="start" x="107.7027" y="-429.8" font-family="Helvetica,sans-Serif" font-size="11.00" fill="#000000">2 &gt;</text>
</a>
</g>
</g>
<!-- gyms_has_users&#45;&gt;gyms -->
<g id="edge3" class="edge">
<title>gyms_has_users:w&#45;&gt;gyms:e</title>
<path fill="none" stroke="#000000" d="M219.4687,-420.6928C181.807,-426.094 170.7826,-451.7 126,-451.7"/>
<polygon fill="#000000" stroke="#000000" points="226.0186,-420.2453 234.2454,-423.2916 230.0093,-419.9727 234,-419.7 234,-419.7 234,-419.7 230.0093,-419.9727 233.7546,-416.1084 226.0186,-420.2453 226.0186,-420.2453"/>
<ellipse fill="none" stroke="#000000" cx="222.826" cy="-420.4635" rx="3.2" ry="3.2"/>
</g>
<!-- users -->
<g id="node4" class="node">
<title>users</title>
<g id="a_node4"><a xlink:href="../../tables/users.html" xlink:title="users" target="_top">
<polygon fill="#ffffff" stroke="transparent" points="8,-202.7 8,-402.7 172,-402.7 172,-202.7 8,-202.7"/>
<polygon fill="#f5f5f5" stroke="transparent" points="10,-377.7 10,-400.7 170,-400.7 170,-377.7 10,-377.7"/>
<polygon fill="none" stroke="#000000" points="10,-377.7 10,-400.7 170,-400.7 170,-377.7 10,-377.7"/>
<text text-anchor="start" x="15" y="-386.8" font-family="Helvetica,sans-Serif" font-weight="bold" font-size="11.00" fill="#000000">users</text>
<text text-anchor="start" x="135.0437" y="-385.8" font-family="Helvetica,sans-Serif" font-size="11.00" fill="#000000">[table]</text>
<polygon fill="none" stroke="#000000" points="10,-355.7 10,-377.7 95,-377.7 95,-355.7 10,-355.7"/>
<image xlink:href="../../images/primaryKeys.png" width="11px" height="12px" preserveAspectRatio="xMinYMin meet" x="15" y="-372.7"/>
<text text-anchor="start" x="30" y="-362.8" font-family="Helvetica,sans-Serif" font-size="11.00" fill="#000000">id</text>
<polygon fill="none" stroke="#000000" points="95,-355.7 95,-377.7 170,-377.7 170,-355.7 95,-355.7"/>
<text text-anchor="start" x="98" y="-363.4" font-family="Helvetica,sans-Serif" font-size="11.00" fill="#000000">int[10]</text>
<polygon fill="none" stroke="#000000" points="10,-333.7 10,-355.7 95,-355.7 95,-333.7 10,-333.7"/>
<text text-anchor="start" x="30" y="-340.8" font-family="Helvetica,sans-Serif" font-size="11.00" fill="#000000">name</text>
<polygon fill="none" stroke="#000000" points="95,-333.7 95,-355.7 170,-355.7 170,-333.7 95,-333.7"/>
<text text-anchor="start" x="98" y="-341.4" font-family="Helvetica,sans-Serif" font-size="11.00" fill="#000000">varchar[255]</text>
<polygon fill="#ffffff" stroke="transparent" points="10,-311.7 10,-333.7 95,-333.7 95,-311.7 10,-311.7"/>
<polygon fill="none" stroke="#000000" points="10,-311.7 10,-333.7 95,-333.7 95,-311.7 10,-311.7"/>
<text text-anchor="start" x="30" y="-318.8" font-family="Helvetica,sans-Serif" font-size="11.00" fill="#000000">email</text>
<polygon fill="none" stroke="#000000" points="95,-311.7 95,-333.7 170,-333.7 170,-311.7 95,-311.7"/>
<text text-anchor="start" x="98" y="-319.4" font-family="Helvetica,sans-Serif" font-size="11.00" fill="#000000">varchar[45]</text>
<polygon fill="none" stroke="#000000" points="10,-289.7 10,-311.7 95,-311.7 95,-289.7 10,-289.7"/>
<text text-anchor="start" x="30" y="-296.8" font-family="Helvetica,sans-Serif" font-size="11.00" fill="#000000">password</text>
<polygon fill="none" stroke="#000000" points="95,-289.7 95,-311.7 170,-311.7 170,-289.7 95,-289.7"/>
<text text-anchor="start" x="98" y="-297.4" font-family="Helvetica,sans-Serif" font-size="11.00" fill="#000000">varchar[45]</text>
<polygon fill="none" stroke="#000000" points="10,-267.7 10,-289.7 95,-289.7 95,-267.7 10,-267.7"/>
<text text-anchor="start" x="30" y="-274.8" font-family="Helvetica,sans-Serif" font-size="11.00" fill="#000000">created_at</text>
<polygon fill="none" stroke="#000000" points="95,-267.7 95,-289.7 170,-289.7 170,-267.7 95,-267.7"/>
<text text-anchor="start" x="97.9666" y="-275.4" font-family="Helvetica,sans-Serif" font-size="11.00" fill="#000000">timestamp[19]</text>
<polygon fill="none" stroke="#000000" points="10,-245.7 10,-267.7 95,-267.7 95,-245.7 10,-245.7"/>
<text text-anchor="start" x="30" y="-252.8" font-family="Helvetica,sans-Serif" font-size="11.00" fill="#000000">updated_at</text>
<polygon fill="none" stroke="#000000" points="95,-245.7 95,-267.7 170,-267.7 170,-245.7 95,-245.7"/>
<text text-anchor="start" x="97.9666" y="-253.4" font-family="Helvetica,sans-Serif" font-size="11.00" fill="#000000">timestamp[19]</text>
<polygon fill="none" stroke="#000000" points="10,-223.7 10,-245.7 95,-245.7 95,-223.7 10,-223.7"/>
<text text-anchor="start" x="30" y="-230.8" font-family="Helvetica,sans-Serif" font-size="11.00" fill="#000000">deleted_at</text>
<polygon fill="none" stroke="#000000" points="95,-223.7 95,-245.7 170,-245.7 170,-223.7 95,-223.7"/>
<text text-anchor="start" x="97.9666" y="-231.4" font-family="Helvetica,sans-Serif" font-size="11.00" fill="#000000">timestamp[19]</text>
<polygon fill="#ffffff" stroke="transparent" points="10,-204.7 10,-223.7 44,-223.7 44,-204.7 10,-204.7"/>
<polygon fill="none" stroke="#000000" points="10,-204.7 10,-223.7 44,-223.7 44,-204.7 10,-204.7"/>
<text text-anchor="start" x="13" y="-210.8" font-family="Helvetica,sans-Serif" font-size="11.00" fill="#000000">&lt; 0</text>
<polygon fill="#ffffff" stroke="transparent" points="44,-204.7 44,-223.7 95,-223.7 95,-204.7 44,-204.7"/>
<polygon fill="none" stroke="#000000" points="44,-204.7 44,-223.7 95,-223.7 95,-204.7 44,-204.7"/>
<text text-anchor="start" x="59.6105" y="-210.8" font-family="Helvetica,sans-Serif" font-size="11.00" fill="#000000">0 rows</text>
<polygon fill="#ffffff" stroke="transparent" points="95,-204.7 95,-223.7 170,-223.7 170,-204.7 95,-204.7"/>
<polygon fill="none" stroke="#000000" points="95,-204.7 95,-223.7 170,-223.7 170,-204.7 95,-204.7"/>
<text text-anchor="start" x="151.4053" y="-210.8" font-family="Helvetica,sans-Serif" font-size="11.00" fill="#000000">2 &gt;</text>
<polygon fill="none" stroke="#000000" stroke-width="2" points="9,-203.7 9,-401.7 171,-401.7 171,-203.7 9,-203.7"/>
</a>
</g>
</g>
<!-- gyms_has_users&#45;&gt;users -->
<g id="edge4" class="edge">
<title>gyms_has_users:w&#45;&gt;users:e</title>
<path fill="none" stroke="#000000" d="M219.59,-395.057C201.1159,-387.5603 195.9265,-366.7 170,-366.7"/>
<polygon fill="#000000" stroke="#000000" points="226.1313,-396.2567 233.3505,-401.2409 230.0656,-396.9783 234,-397.7 234,-397.7 234,-397.7 230.0656,-396.9783 234.6495,-394.1591 226.1313,-396.2567 226.1313,-396.2567"/>
<ellipse fill="none" stroke="#000000" cx="222.9838" cy="-395.6794" rx="3.2" ry="3.2"/>
</g>
<!-- payments -->
<g id="node5" class="node">
<title>payments</title>
<g id="a_node5"><a xlink:href="../../tables/payments.html" xlink:title="payments" target="_top">
<polygon fill="#ffffff" stroke="transparent" points="422,-120.2 422,-181.2 512,-181.2 512,-120.2 422,-120.2"/>
<polygon fill="#f5f5f5" stroke="transparent" points="422,-157.7 422,-180.7 512,-180.7 512,-157.7 422,-157.7"/>
<polygon fill="none" stroke="#000000" points="422,-157.7 422,-180.7 512,-180.7 512,-157.7 422,-157.7"/>
<text text-anchor="start" x="426.6608" y="-166.8" font-family="Helvetica,sans-Serif" font-weight="bold" font-size="11.00" fill="#000000">payments</text>
<text text-anchor="start" x="477.5219" y="-165.8" font-family="Helvetica,sans-Serif" font-size="11.00" fill="#000000">[table]</text>
<polygon fill="none" stroke="#000000" points="422,-138.7 422,-157.7 512,-157.7 512,-138.7 422,-138.7"/>
<text text-anchor="start" x="425" y="-144.8" font-family="Helvetica,sans-Serif" font-size="11.00" fill="#000000">...</text>
<polygon fill="#ffffff" stroke="transparent" points="422,-119.7 422,-138.7 452,-138.7 452,-119.7 422,-119.7"/>
<polygon fill="none" stroke="#000000" points="422,-119.7 422,-138.7 452,-138.7 452,-119.7 422,-119.7"/>
<text text-anchor="start" x="425" y="-125.8" font-family="Helvetica,sans-Serif" font-size="11.00" fill="#000000">&lt; 2</text>
<polygon fill="#ffffff" stroke="transparent" points="452,-119.7 452,-138.7 495,-138.7 495,-119.7 452,-119.7"/>
<polygon fill="none" stroke="#000000" points="452,-119.7 452,-138.7 495,-138.7 495,-119.7 452,-119.7"/>
<text text-anchor="start" x="459.6105" y="-125.8" font-family="Helvetica,sans-Serif" font-size="11.00" fill="#000000">0 rows</text>
<polygon fill="#ffffff" stroke="transparent" points="495,-119.7 495,-138.7 512,-138.7 512,-119.7 495,-119.7"/>
<polygon fill="none" stroke="#000000" points="495,-119.7 495,-138.7 512,-138.7 512,-119.7 495,-119.7"/>
<text text-anchor="start" x="502.8862" y="-125.8" font-family="Helvetica,sans-Serif" font-size="11.00" fill="#000000"> &#160;</text>
</a>
</g>
</g>
<!-- subscriptions -->
<g id="node6" class="node">
<title>subscriptions</title>
<g id="a_node6"><a xlink:href="../../tables/subscriptions.html" xlink:title="subscriptions" target="_top">
<polygon fill="#ffffff" stroke="transparent" points="221,-77.2 221,-204.2 373,-204.2 373,-77.2 221,-77.2"/>
<polygon fill="#f5f5f5" stroke="transparent" points="221,-180.7 221,-203.7 373,-203.7 373,-180.7 221,-180.7"/>
<polygon fill="none" stroke="#000000" points="221,-180.7 221,-203.7 373,-203.7 373,-180.7 221,-180.7"/>
<text text-anchor="start" x="226" y="-189.8" font-family="Helvetica,sans-Serif" font-weight="bold" font-size="11.00" fill="#000000">subscriptions</text>
<text text-anchor="start" x="338.0437" y="-188.8" font-family="Helvetica,sans-Serif" font-size="11.00" fill="#000000">[table]</text>
<polygon fill="none" stroke="#000000" points="221,-158.7 221,-180.7 373,-180.7 373,-158.7 221,-158.7"/>
<image xlink:href="../../images/primaryKeys.png" width="11px" height="12px" preserveAspectRatio="xMinYMin meet" x="226" y="-175.7"/>
<text text-anchor="start" x="241" y="-165.8" font-family="Helvetica,sans-Serif" font-size="11.00" fill="#000000">users_id</text>
<polygon fill="#ffffff" stroke="transparent" points="221,-136.7 221,-158.7 373,-158.7 373,-136.7 221,-136.7"/>
<polygon fill="none" stroke="#000000" points="221,-136.7 221,-158.7 373,-158.7 373,-136.7 221,-136.7"/>
<image xlink:href="../../images/foreignKeys.png" width="11px" height="12px" preserveAspectRatio="xMinYMin meet" x="226" y="-153.7"/>
<text text-anchor="start" x="241" y="-143.8" font-family="Helvetica,sans-Serif" font-size="11.00" fill="#000000">payment_procesors_id</text>
<polygon fill="none" stroke="#000000" points="221,-114.7 221,-136.7 373,-136.7 373,-114.7 221,-114.7"/>
<image xlink:href="../../images/primaryKeys.png" width="11px" height="12px" preserveAspectRatio="xMinYMin meet" x="226" y="-131.7"/>
<text text-anchor="start" x="241" y="-121.8" font-family="Helvetica,sans-Serif" font-size="11.00" fill="#000000">plans_id</text>
<polygon fill="none" stroke="#000000" points="221,-95.7 221,-114.7 373,-114.7 373,-95.7 221,-95.7"/>
<text text-anchor="start" x="224" y="-101.8" font-family="Helvetica,sans-Serif" font-size="11.00" fill="#000000">...</text>
<polygon fill="#ffffff" stroke="transparent" points="221,-76.7 221,-95.7 278,-95.7 278,-76.7 221,-76.7"/>
<polygon fill="none" stroke="#000000" points="221,-76.7 221,-95.7 278,-95.7 278,-76.7 221,-76.7"/>
<text text-anchor="start" x="224" y="-82.8" font-family="Helvetica,sans-Serif" font-size="11.00" fill="#000000">&lt; 3</text>
<polygon fill="#ffffff" stroke="transparent" points="278,-76.7 278,-95.7 334,-95.7 334,-76.7 278,-76.7"/>
<polygon fill="none" stroke="#000000" points="278,-76.7 278,-95.7 334,-95.7 334,-76.7 278,-76.7"/>
<text text-anchor="start" x="298.6105" y="-82.8" font-family="Helvetica,sans-Serif" font-size="11.00" fill="#000000">0 rows</text>
<polygon fill="#ffffff" stroke="transparent" points="334,-76.7 334,-95.7 373,-95.7 373,-76.7 334,-76.7"/>
<polygon fill="none" stroke="#000000" points="334,-76.7 334,-95.7 373,-95.7 373,-76.7 334,-76.7"/>
<text text-anchor="start" x="354.4053" y="-82.8" font-family="Helvetica,sans-Serif" font-size="11.00" fill="#000000">2 &gt;</text>
</a>
</g>
</g>
<!-- payments&#45;&gt;subscriptions -->
<g id="edge5" class="edge">
<title>payments:w&#45;&gt;subscriptions:e</title>
<path fill="none" stroke="#000000" d="M407.6297,-144.2625C396.0865,-138.075 390.9041,-125.7 373,-125.7"/>
<polygon fill="#000000" stroke="#000000" points="414.2195,-145.8388 421.1625,-151.2012 418.1098,-146.7694 422,-147.7 422,-147.7 422,-147.7 418.1098,-146.7694 422.8375,-144.1988 414.2195,-145.8388 414.2195,-145.8388"/>
<ellipse fill="none" stroke="#000000" cx="411.1073" cy="-145.0943" rx="3.2" ry="3.2"/>
</g>
<!-- payments&#45;&gt;subscriptions -->
<g id="edge6" class="edge">
<title>payments:w&#45;&gt;subscriptions:e</title>
<path fill="none" stroke="#000000" d="M407.6297,-151.1375C396.0865,-157.325 390.9041,-169.7 373,-169.7"/>
<polygon fill="#000000" stroke="#000000" points="414.2195,-149.5612 422.8375,-151.2012 418.1098,-148.6306 422,-147.7 422,-147.7 422,-147.7 418.1098,-148.6306 421.1625,-144.1988 414.2195,-149.5612 414.2195,-149.5612"/>
<ellipse fill="none" stroke="#000000" cx="411.1073" cy="-150.3057" rx="3.2" ry="3.2"/>
</g>
<!-- subscriptions&#45;&gt;users -->
<g id="edge9" class="edge">
<title>subscriptions:w&#45;&gt;users:e</title>
<path fill="none" stroke="#000000" d="M206.5165,-171.9124C145.9329,-193.5555 254.7894,-366.7 170,-366.7"/>
<polygon fill="#000000" stroke="#000000" points="213.0917,-170.9081 221.5436,-173.2587 217.0459,-170.304 221,-169.7 221,-169.7 221,-169.7 217.0459,-170.304 220.4564,-166.1413 213.0917,-170.9081 213.0917,-170.9081"/>
<ellipse fill="none" stroke="#000000" cx="209.9284" cy="-171.3913" rx="3.2" ry="3.2"/>
</g>
<!-- payment_procesors -->
<g id="node7" class="node">
<title>payment_procesors</title>
<g id="a_node7"><a xlink:href="../../tables/payment_procesors.html" xlink:title="payment_procesors" target="_top">
<polygon fill="#ffffff" stroke="transparent" points="20.5,-120.2 20.5,-181.2 159.5,-181.2 159.5,-120.2 20.5,-120.2"/>
<polygon fill="#f5f5f5" stroke="transparent" points="21,-157.7 21,-180.7 160,-180.7 160,-157.7 21,-157.7"/>
<polygon fill="none" stroke="#000000" points="21,-157.7 21,-180.7 160,-180.7 160,-157.7 21,-157.7"/>
<text text-anchor="start" x="25.7117" y="-166.8" font-family="Helvetica,sans-Serif" font-weight="bold" font-size="11.00" fill="#000000">payment_procesors</text>
<text text-anchor="start" x="125.5219" y="-165.8" font-family="Helvetica,sans-Serif" font-size="11.00" fill="#000000">[table]</text>
<polygon fill="none" stroke="#000000" points="21,-138.7 21,-157.7 160,-157.7 160,-138.7 21,-138.7"/>
<text text-anchor="start" x="24" y="-144.8" font-family="Helvetica,sans-Serif" font-size="11.00" fill="#000000">...</text>
<polygon fill="#ffffff" stroke="transparent" points="21,-119.7 21,-138.7 67,-138.7 67,-119.7 21,-119.7"/>
<polygon fill="none" stroke="#000000" points="21,-119.7 21,-138.7 67,-138.7 67,-119.7 21,-119.7"/>
<text text-anchor="start" x="24" y="-125.8" font-family="Helvetica,sans-Serif" font-size="11.00" fill="#000000"> &#160;</text>
<polygon fill="#ffffff" stroke="transparent" points="67,-119.7 67,-138.7 122,-138.7 122,-119.7 67,-119.7"/>
<polygon fill="none" stroke="#000000" points="67,-119.7 67,-138.7 122,-138.7 122,-119.7 67,-119.7"/>
<text text-anchor="start" x="86.6105" y="-125.8" font-family="Helvetica,sans-Serif" font-size="11.00" fill="#000000">0 rows</text>
<polygon fill="#ffffff" stroke="transparent" points="122,-119.7 122,-138.7 160,-138.7 160,-119.7 122,-119.7"/>
<polygon fill="none" stroke="#000000" points="122,-119.7 122,-138.7 160,-138.7 160,-119.7 122,-119.7"/>
<text text-anchor="start" x="141.4053" y="-125.8" font-family="Helvetica,sans-Serif" font-size="11.00" fill="#000000">1 &gt;</text>
</a>
</g>
</g>
<!-- subscriptions&#45;&gt;payment_procesors -->
<g id="edge7" class="edge">
<title>subscriptions:w&#45;&gt;payment_procesors:e</title>
<path fill="none" stroke="#000000" d="M206.1762,-147.7C190.1248,-147.7 181.3924,-147.7 160,-147.7"/>
<polygon fill="#000000" stroke="#000000" points="213,-147.7001 221,-151.3 217,-147.7 221,-147.7 221,-147.7 221,-147.7 217,-147.7 221,-144.1 213,-147.7001 213,-147.7001"/>
<ellipse fill="none" stroke="#000000" cx="209.8" cy="-147.7001" rx="3.2" ry="3.2"/>
</g>
<!-- plans -->
<g id="node8" class="node">
<title>plans</title>
<g id="a_node8"><a xlink:href="../../tables/plans.html" xlink:title="plans" target="_top">
<polygon fill="#ffffff" stroke="transparent" points="54.5,-38.2 54.5,-99.2 125.5,-99.2 125.5,-38.2 54.5,-38.2"/>
<polygon fill="#f5f5f5" stroke="transparent" points="55,-75.7 55,-98.7 126,-98.7 126,-75.7 55,-75.7"/>
<polygon fill="none" stroke="#000000" points="55,-75.7 55,-98.7 126,-98.7 126,-75.7 55,-75.7"/>
<text text-anchor="start" x="60" y="-84.8" font-family="Helvetica,sans-Serif" font-weight="bold" font-size="11.00" fill="#000000">plans</text>
<text text-anchor="start" x="91.0437" y="-83.8" font-family="Helvetica,sans-Serif" font-size="11.00" fill="#000000">[table]</text>
<polygon fill="none" stroke="#000000" points="55,-56.7 55,-75.7 126,-75.7 126,-56.7 55,-56.7"/>
<text text-anchor="start" x="58" y="-62.8" font-family="Helvetica,sans-Serif" font-size="11.00" fill="#000000">...</text>
<polygon fill="#ffffff" stroke="transparent" points="55,-37.7 55,-56.7 67,-56.7 67,-37.7 55,-37.7"/>
<polygon fill="none" stroke="#000000" points="55,-37.7 55,-56.7 67,-56.7 67,-37.7 55,-37.7"/>
<text text-anchor="start" x="57.9431" y="-43.8" font-family="Helvetica,sans-Serif" font-size="11.00" fill="#000000"> &#160;</text>
<polygon fill="#ffffff" stroke="transparent" points="67,-37.7 67,-56.7 105,-56.7 105,-37.7 67,-37.7"/>
<polygon fill="none" stroke="#000000" points="67,-37.7 67,-56.7 105,-56.7 105,-37.7 67,-37.7"/>
<text text-anchor="start" x="69.8053" y="-43.8" font-family="Helvetica,sans-Serif" font-size="11.00" fill="#000000">0 rows</text>
<polygon fill="#ffffff" stroke="transparent" points="105,-37.7 105,-56.7 126,-56.7 126,-37.7 105,-37.7"/>
<polygon fill="none" stroke="#000000" points="105,-37.7 105,-56.7 126,-56.7 126,-37.7 105,-37.7"/>
<text text-anchor="start" x="107.7027" y="-43.8" font-family="Helvetica,sans-Serif" font-size="11.00" fill="#000000">1 &gt;</text>
</a>
</g>
</g>
<!-- subscriptions&#45;&gt;plans -->
<g id="edge8" class="edge">
<title>subscriptions:w&#45;&gt;plans:e</title>
<path fill="none" stroke="#000000" d="M206.4378,-123.7037C171.4728,-113.2928 170.4762,-65.7 126,-65.7"/>
<polygon fill="#000000" stroke="#000000" points="213.0741,-124.6134 220.511,-129.2666 217.0371,-125.1567 221,-125.7 221,-125.7 221,-125.7 217.0371,-125.1567 221.489,-122.1334 213.0741,-124.6134 213.0741,-124.6134"/>
<ellipse fill="none" stroke="#000000" cx="209.9038" cy="-124.1788" rx="3.2" ry="3.2"/>
</g>
</g>
</svg>
