<?xml version="1.0" encoding="UTF-8" standalone="no"?>
<!DOCTYPE svg PUBLIC "-//W3C//DTD SVG 1.1//EN"
 "http://www.w3.org/Graphics/SVG/1.1/DTD/svg11.dtd">
<!-- Generated by graphviz version 2.40.1 (20161225.0304)
 -->
<!-- Title: interactions Pages: 1 -->
<svg width="194pt" height="216pt"
 viewBox="0.00 0.00 194.00 216.00" xmlns="http://www.w3.org/2000/svg" xmlns:xlink="http://www.w3.org/1999/xlink">
<g id="graph0" class="graph" transform="scale(1 1) rotate(0) translate(4 212)">
<title>interactions</title>
<polygon fill="#ffffff" stroke="transparent" points="-4,4 -4,-212 190,-212 190,4 -4,4"/>
<!-- interactions -->
<g id="node1" class="node">
<title>interactions</title>
<g id="a_node1"><a xlink:href="../../tables/interactions.html" xlink:title="interactions" target="_top">
<polygon fill="#ffffff" stroke="transparent" points="8,-4 8,-204 178,-204 178,-4 8,-4"/>
<polygon fill="#f5f5f5" stroke="transparent" points="10,-179 10,-202 176,-202 176,-179 10,-179"/>
<polygon fill="none" stroke="#000000" points="10,-179 10,-202 176,-202 176,-179 10,-179"/>
<text text-anchor="start" x="15" y="-188.1" font-family="Helvetica,sans-Serif" font-weight="bold" font-size="11.00" fill="#000000">interactions</text>
<text text-anchor="start" x="141.0437" y="-187.1" font-family="Helvetica,sans-Serif" font-size="11.00" fill="#000000">[table]</text>
<polygon fill="none" stroke="#000000" points="10,-157 10,-179 101,-179 101,-157 10,-157"/>
<image xlink:href="../../images/primaryKeys.png" width="11px" height="12px" preserveAspectRatio="xMinYMin meet" x="15" y="-174"/>
<text text-anchor="start" x="30" y="-164.1" font-family="Helvetica,sans-Serif" font-size="11.00" fill="#000000">id</text>
<polygon fill="none" stroke="#000000" points="101,-157 101,-179 176,-179 176,-157 101,-157"/>
<text text-anchor="start" x="104" y="-164.7" font-family="Helvetica,sans-Serif" font-size="11.00" fill="#000000">bigint[19]</text>
<polygon fill="none" stroke="#000000" points="10,-135 10,-157 101,-157 101,-135 10,-135"/>
<text text-anchor="start" x="30" y="-142.1" font-family="Helvetica,sans-Serif" font-size="11.00" fill="#000000">name</text>
<polygon fill="none" stroke="#000000" points="101,-135 101,-157 176,-157 176,-135 101,-135"/>
<text text-anchor="start" x="104" y="-142.7" font-family="Helvetica,sans-Serif" font-size="11.00" fill="#000000">varchar[45]</text>
<polygon fill="none" stroke="#000000" points="10,-113 10,-135 101,-135 101,-113 10,-113"/>
<text text-anchor="start" x="30" y="-120.1" font-family="Helvetica,sans-Serif" font-size="11.00" fill="#000000">icon</text>
<polygon fill="none" stroke="#000000" points="101,-113 101,-135 176,-135 176,-113 101,-113"/>
<text text-anchor="start" x="104" y="-120.7" font-family="Helvetica,sans-Serif" font-size="11.00" fill="#000000">varchar[255]</text>
<polygon fill="none" stroke="#000000" points="10,-91 10,-113 101,-113 101,-91 10,-91"/>
<text text-anchor="start" x="30" y="-98.1" font-family="Helvetica,sans-Serif" font-size="11.00" fill="#000000">is_comment</text>
<polygon fill="none" stroke="#000000" points="101,-91 101,-113 176,-113 176,-91 101,-91"/>
<text text-anchor="start" x="104" y="-98.7" font-family="Helvetica,sans-Serif" font-size="11.00" fill="#000000">bit[1]</text>
<polygon fill="none" stroke="#000000" points="10,-69 10,-91 101,-91 101,-69 10,-69"/>
<text text-anchor="start" x="30" y="-76.1" font-family="Helvetica,sans-Serif" font-size="11.00" fill="#000000">created_at</text>
<polygon fill="none" stroke="#000000" points="101,-69 101,-91 176,-91 176,-69 101,-69"/>
<text text-anchor="start" x="103.9666" y="-76.7" font-family="Helvetica,sans-Serif" font-size="11.00" fill="#000000">timestamp[19]</text>
<polygon fill="none" stroke="#000000" points="10,-47 10,-69 101,-69 101,-47 10,-47"/>
<text text-anchor="start" x="30" y="-54.1" font-family="Helvetica,sans-Serif" font-size="11.00" fill="#000000">updated_at</text>
<polygon fill="none" stroke="#000000" points="101,-47 101,-69 176,-69 176,-47 101,-47"/>
<text text-anchor="start" x="103.9666" y="-54.7" font-family="Helvetica,sans-Serif" font-size="11.00" fill="#000000">timestamp[19]</text>
<polygon fill="none" stroke="#000000" points="10,-25 10,-47 101,-47 101,-25 10,-25"/>
<text text-anchor="start" x="30" y="-32.1" font-family="Helvetica,sans-Serif" font-size="11.00" fill="#000000">deleted_at</text>
<polygon fill="none" stroke="#000000" points="101,-25 101,-47 176,-47 176,-25 101,-25"/>
<text text-anchor="start" x="103.9666" y="-32.7" font-family="Helvetica,sans-Serif" font-size="11.00" fill="#000000">timestamp[19]</text>
<polygon fill="#ffffff" stroke="transparent" points="10,-6 10,-25 47,-25 47,-6 10,-6"/>
<polygon fill="none" stroke="#000000" points="10,-6 10,-25 47,-25 47,-6 10,-6"/>
<text text-anchor="start" x="13" y="-12.1" font-family="Helvetica,sans-Serif" font-size="11.00" fill="#000000">&lt; 0</text>
<polygon fill="#ffffff" stroke="transparent" points="47,-6 47,-25 101,-25 101,-6 47,-6"/>
<polygon fill="none" stroke="#000000" points="47,-6 47,-25 101,-25 101,-6 47,-6"/>
<text text-anchor="start" x="65.6105" y="-12.1" font-family="Helvetica,sans-Serif" font-size="11.00" fill="#000000">0 rows</text>
<polygon fill="#ffffff" stroke="transparent" points="101,-6 101,-25 176,-25 176,-6 101,-6"/>
<polygon fill="none" stroke="#000000" points="101,-6 101,-25 176,-25 176,-6 101,-6"/>
<text text-anchor="start" x="157.4053" y="-12.1" font-family="Helvetica,sans-Serif" font-size="11.00" fill="#000000">0 &gt;</text>
<polygon fill="none" stroke="#000000" stroke-width="2" points="9,-5 9,-203 177,-203 177,-5 9,-5"/>
</a>
</g>
</g>
</g>
</svg>
