<?xml version="1.0" encoding="UTF-8" standalone="no"?>
<!DOCTYPE svg PUBLIC "-//W3C//DTD SVG 1.1//EN"
 "http://www.w3.org/Graphics/SVG/1.1/DTD/svg11.dtd">
<!-- Generated by graphviz version 2.40.1 (20161225.0304)
 -->
<!-- Title: password_resets Pages: 1 -->
<svg width="214pt" height="128pt"
 viewBox="0.00 0.00 214.00 128.00" xmlns="http://www.w3.org/2000/svg" xmlns:xlink="http://www.w3.org/1999/xlink">
<g id="graph0" class="graph" transform="scale(1 1) rotate(0) translate(4 124)">
<title>password_resets</title>
<polygon fill="#ffffff" stroke="transparent" points="-4,4 -4,-124 210,-124 210,4 -4,4"/>
<!-- password_resets -->
<g id="node1" class="node">
<title>password_resets</title>
<g id="a_node1"><a xlink:href="../../tables/password_resets.html" xlink:title="password_resets" target="_top">
<polygon fill="#ffffff" stroke="transparent" points="8,-4 8,-116 198,-116 198,-4 8,-4"/>
<polygon fill="#f5f5f5" stroke="transparent" points="10,-91 10,-114 196,-114 196,-91 10,-91"/>
<polygon fill="none" stroke="#000000" points="10,-91 10,-114 196,-114 196,-91 10,-91"/>
<text text-anchor="start" x="15" y="-100.1" font-family="Helvetica,sans-Serif" font-weight="bold" font-size="11.00" fill="#000000">password_resets</text>
<text text-anchor="start" x="161.0437" y="-99.1" font-family="Helvetica,sans-Serif" font-size="11.00" fill="#000000">[table]</text>
<polygon fill="#ffffff" stroke="transparent" points="10,-69 10,-91 129,-91 129,-69 10,-69"/>
<polygon fill="none" stroke="#000000" points="10,-69 10,-91 129,-91 129,-69 10,-69"/>
<text text-anchor="start" x="30" y="-76.1" font-family="Helvetica,sans-Serif" font-size="11.00" fill="#000000">email</text>
<polygon fill="none" stroke="#000000" points="129,-69 129,-91 196,-91 196,-69 129,-69"/>
<text text-anchor="start" x="131.9365" y="-76.7" font-family="Helvetica,sans-Serif" font-size="11.00" fill="#000000">varchar[255]</text>
<polygon fill="none" stroke="#000000" points="10,-47 10,-69 129,-69 129,-47 10,-47"/>
<text text-anchor="start" x="30" y="-54.1" font-family="Helvetica,sans-Serif" font-size="11.00" fill="#000000">token</text>
<polygon fill="none" stroke="#000000" points="129,-47 129,-69 196,-69 196,-47 129,-47"/>
<text text-anchor="start" x="131.9365" y="-54.7" font-family="Helvetica,sans-Serif" font-size="11.00" fill="#000000">varchar[255]</text>
<polygon fill="none" stroke="#000000" points="10,-25 10,-47 129,-47 129,-25 10,-25"/>
<text text-anchor="start" x="30" y="-32.1" font-family="Helvetica,sans-Serif" font-size="11.00" fill="#000000">created_at</text>
<polygon fill="none" stroke="#000000" points="129,-25 129,-47 196,-47 196,-25 129,-25"/>
<text text-anchor="start" x="132" y="-32.7" font-family="Helvetica,sans-Serif" font-size="11.00" fill="#000000">datetime[19]</text>
<polygon fill="#ffffff" stroke="transparent" points="10,-6 10,-25 61,-25 61,-6 10,-6"/>
<polygon fill="none" stroke="#000000" points="10,-6 10,-25 61,-25 61,-6 10,-6"/>
<text text-anchor="start" x="13" y="-12.1" font-family="Helvetica,sans-Serif" font-size="11.00" fill="#000000">&lt; 0</text>
<polygon fill="#ffffff" stroke="transparent" points="61,-6 61,-25 129,-25 129,-6 61,-6"/>
<polygon fill="none" stroke="#000000" points="61,-6 61,-25 129,-25 129,-6 61,-6"/>
<text text-anchor="start" x="93.6105" y="-12.1" font-family="Helvetica,sans-Serif" font-size="11.00" fill="#000000">0 rows</text>
<polygon fill="#ffffff" stroke="transparent" points="129,-6 129,-25 196,-25 196,-6 129,-6"/>
<polygon fill="none" stroke="#000000" points="129,-6 129,-25 196,-25 196,-6 129,-6"/>
<text text-anchor="start" x="177.4053" y="-12.1" font-family="Helvetica,sans-Serif" font-size="11.00" fill="#000000">0 &gt;</text>
<polygon fill="none" stroke="#000000" stroke-width="2" points="9,-5 9,-115 197,-115 197,-5 9,-5"/>
</a>
</g>
</g>
</g>
</svg>
